<?xml version="1.0" encoding="utf-8"?>
<!-- Svg Vector Icons : http://www.onlinewebfonts.com/icon -->
<!DOCTYPE svg PUBLIC "-//W3C//DTD SVG 1.1//EN" "http://www.w3.org/Graphics/SVG/1.1/DTD/svg11.dtd">
<svg version="1.1" xmlns="http://www.w3.org/2000/svg" xmlns:xlink="http://www.w3.org/1999/xlink" x="0px" y="0px" viewBox="0 0 1000 1000" enable-background="new 0 0 1000 1000" xml:space="preserve">
<metadata> Svg Vector Icons : http://www.onlinewebfonts.com/icon </metadata>
<g><g transform="translate(0.000000,511.000000) scale(0.100000,-0.100000)"><path d="M5993.9,4983.6c-413.8-100.3-773.4-466.1-873.7-892.5c-27.2-115-31.4-445.2-31.4-2382.8v-2249L3845.2-2545.2C3004.9-3897.5,2601.5-4566.3,2601.5-4604c0-173.5,41.8-186,641.7-186c359.5,0,512.1,8.4,549.7,27.2c29.3,14.6,117.1,115,194.4,223.7s698.1,982.4,1379.5,1939.7l1237.4,1739h338.6c328.2,0,340.7,2.1,397.1,50.1l58.5,50.2v2401.6c0,2290.8-2.1,2405.8-39.7,2514.5c-142.1,418-459.8,723.2-859.1,825.6C6353.4,5019.1,6144.4,5019.1,5993.9,4983.6z M6618.8,4578.1c169.3-83.6,309.3-229.9,376.2-397.1l48.1-119.1l6.3-2282.5l4.2-2284.5h-804.7h-804.7l4.2,2295l6.3,2292.9l58.5,125.4c92,196.5,250.8,342.8,455.6,415.9c64.8,23,150.5,31.3,301,27.2C6460,4647.1,6493.4,4640.8,6618.8,4578.1z M6150.6-883.5c-4.2-12.5-572.7-817.2-1260.4-1787.1L3636.2-4434.7h-278h-275.9l48.1,79.4c27.2,41.8,514.2,825.6,1080.6,1739C4777.4-1702.8,5256-933.6,5272.8-906.5c29.3,46,37.6,46,457.8,46C6037.8-860.5,6156.9-866.8,6150.6-883.5z"/><path d="M5799.5,3769.2v-177.7h436.8h434.8l12.5,102.4c6.3,58.5,6.3,138,0,177.7l-12.5,75.2h-434.8h-436.8V3769.2z"/><path d="M5799.5,3058.6v-177.7h436.8c242.5,0,443.1,8.3,449.4,16.7c6.3,8.4,4.2,89.9-2.1,177.7l-12.5,160.9h-434.8h-436.8V3058.6z"/><path d="M5799.5,2347.9v-177.7h436.8h436.8l8.4,169.3c4.2,92,2.1,173.5-2.1,177.7c-4.2,4.2-204.8,8.4-445.2,8.4h-434.7V2347.9z"/></g></g>
</svg>