<?xml version="1.0" encoding="utf-8"?>
<!-- Svg Vector Icons : http://www.onlinewebfonts.com/icon -->
<!DOCTYPE svg PUBLIC "-//W3C//DTD SVG 1.1//EN" "http://www.w3.org/Graphics/SVG/1.1/DTD/svg11.dtd">
<svg version="1.1" xmlns="http://www.w3.org/2000/svg" xmlns:xlink="http://www.w3.org/1999/xlink" x="0px" y="0px" viewBox="0 0 1000 1000" enable-background="new 0 0 1000 1000" xml:space="preserve">
<metadata> Svg Vector Icons : http://www.onlinewebfonts.com/icon </metadata>
<g><path d="M942.3,728.7c-20.2-26.1-53.5-40.9-98.8-44.2c-81-5.9-132.5-19.7-166.8-45c-39.5-29.1-58.6-75.2-59.9-145.1c-2.8-151,31.4-416,31.8-418.6c0.4-2.8,2.7-24.7-12.8-42.8c-13-15.2-34.2-22.9-62.8-22.9c-87,0-304.4-0.1-304.5-0.1c-1.4,0-33.8,0.4-55.2,23.3c-10.8,11.6-16.7,26.4-17.6,44.3c-46.9,0-86.3-0.1-87-0.1c-8.2,0-36.2,1.6-55,21.8c-12.6,13.5-18.1,32-16.4,54.9c6.7,92,22.2,306.9,90.2,510.7c-2,20.5-13.8,149.1,0.2,236v75.4c0,6.6,5.3,11.9,11.9,11.9H342c6.6,0,11.9-5.3,11.9-11.9v-37.7c21.1,18.6,60.5,40.1,133.1,49.5c7.4,1,27.4,1.8,53.9,1.8c26.6,0,59.8-0.8,93.4-3.1c89.1-6,144.9-19.7,165.8-40.6c2.2-2.2,3.5-5.3,3.5-8.4v-19.3c82.8-6.4,134.9-19.8,155-39.8c2.2-2.2,3.5-5.3,3.5-8.4v-64.5C963.2,798.5,967.2,760.8,942.3,728.7z M330.1,964.5H151.5V912c49.7,0.1,125.5,0.9,178.6,3.1L330.1,964.5L330.1,964.5z M779.8,932.4c-19.5,14.5-72.4,25.6-147.1,30.7c-66.7,4.5-130.2,3.1-142.6,1.5c-74.1-9.6-108.7-31.9-124.4-47.5c7.4,0.6,13.5,1.2,17.9,1.9c42,6.7,93.2,10.3,148,10.3c0,0,0,0,0,0c93.5,0,198.6-10.9,248.2-34.9V932.4L779.8,932.4z M780.4,866.6c-28.6,22.3-133.3,38.9-248.8,38.9c-53.6,0-103.4-3.4-144.2-10c-39.9-6.4-195.4-7.2-237.5-7.3c-12.1-89.7,1.4-221.9,1.6-223.3c0.2-1.7,0-3.4-0.6-5C83.2,458.2,67.7,244,61.1,152.6c-1.2-16.1,2.2-28.5,10.1-37c11.7-12.6,33.5-14.2,37.5-14.2c0.5,0,218.8,0.1,305.8,0.1c21.2,0,36.2,4.8,44.6,14.4c9.1,10.5,7.4,24.1,7.4,24.1c0,0.1,0,0.2,0,0.3c-0.3,2.7-34.9,269.4-32,422.2c1.4,76.9,24.2,130.5,69.6,163.9c38.7,28.4,92.3,43.3,179.2,49.5c38.2,2.8,65.6,14.5,81.5,34.8C781.3,831.8,781.1,857.1,780.4,866.6z M685,752.1c-81-5.9-132.5-19.7-166.8-45c-39.5-29.1-58.6-75.2-59.9-145.1c-2.8-150.8,31.4-415.3,31.8-418.6c0.4-2.8,2.7-24.7-12.8-42.8c-13-15.2-34.2-22.9-62.8-22.9c-45.8,0-127.6,0-194.9-0.1c0.9-11.5,4.6-20.9,11.1-28c14.2-15.4,37.7-15.8,37.9-15.8c0,0,217.4,0.1,304.4,0.1c21.2,0,36.2,4.8,44.6,14.4c9.1,10.5,7.4,24.1,7.4,24.1c0,0.1-34.9,269.7-32,422.4c1.4,76.9,24.2,130.5,69.6,163.9c38.7,28.4,92.3,43.3,179.2,49.5c38.2,2.8,65.6,14.5,81.5,34.9c16.5,21.1,16.3,46.4,15.6,55.8c-18.5,14.5-69.9,27-137.7,33.7c-2.9-11.6-8.2-24.3-17.4-36.3C763.6,770.3,730.3,755.4,685,752.1z M803.6,894.6c0,0,1.1-29.9,0.8-38.3c41-4.1,99.1-12.5,133.8-29.4v37.9C919.8,878.5,871.7,889.2,803.6,894.6z"/><g></g><g></g><g></g><g></g><g></g><g></g><g></g><g></g><g></g><g></g><g></g><g></g><g></g><g></g><g></g></g>
</svg>