<?xml version="1.0" encoding="utf-8"?>
<!-- Svg Vector Icons : http://www.onlinewebfonts.com/icon -->
<!DOCTYPE svg PUBLIC "-//W3C//DTD SVG 1.1//EN" "http://www.w3.org/Graphics/SVG/1.1/DTD/svg11.dtd">
<svg version="1.1" xmlns="http://www.w3.org/2000/svg" xmlns:xlink="http://www.w3.org/1999/xlink" x="0px" y="0px" viewBox="0 0 1000 1000" enable-background="new 0 0 1000 1000" xml:space="preserve">
<metadata> Svg Vector Icons : http://www.onlinewebfonts.com/icon </metadata>
<g><g transform="translate(0.000000,512.000000) scale(0.100000,-0.100000)"><path d="M7954.9,4986.1c-68.9-42.1-113-149.3-93.8-216.3c7.7-24.9,36.4-67,63.2-97.6l49.8-51.7l-160.8-162.7c-158.9-160.8-160.8-160.8-201-126.3c-128.3,116.8-287.2,93.8-348.4-49.8c-34.5-84.2-19.2-151.2,47.9-222.1l49.8-51.7l-160.8-162.7c-158.9-160.8-160.8-160.8-201-126.3c-128.3,116.8-287.2,93.8-348.4-49.8c-34.5-84.2-19.1-151.2,47.9-222.1l49.8-51.7L6588,3232.4c-158.9-160.8-160.8-160.8-201-126.3c-128.3,116.8-287.2,93.8-348.4-49.8c-34.5-84.2-19.1-151.2,47.9-222.1l49.8-51.7l-160.8-162.7c-158.9-160.8-160.8-160.8-201-126.3c-128.3,116.8-287.2,93.8-348.4-49.8c-34.5-84.2-19.2-151.2,47.9-222.1l49.8-51.7l-160.8-162.7c-158.9-160.8-160.8-160.8-201-126.3c-128.3,116.8-287.2,93.8-348.4-49.8c-34.5-84.2-19.1-151.2,47.9-222.1l49.8-51.7l-61.3-61.3l-59.4-61.3l-162.7,157c-201,197.2-208.7,197.2-534.1,49.8L3856,1536.2l-465.2,279.5c-256.5,155.1-501.6,298.7-543.7,319.7c-124.4,63.2-176.1,36.4-457.6-248.9l-243.1-247v-438.4V762.8l-486.3-243.1c-430.8-216.3-488.2-250.8-515-306.3c-15.3-34.5-120.6-340.8-233.6-681.5c-157-476.7-202.9-631.8-193.4-679.6c7.7-44,59.4-111,181.9-231.6l170.4-170.4l-465.2-932.4c-279.5-559-472.9-972.5-486.3-1031.9c-78.5-369.5,91.9-750.5,413.5-924.7c118.7-65.1,930.4-340.8,1001.3-340.8c28.7,0,86.2,24.9,126.4,55.5c40.2,30.6,350.3,331.2,685.4,668.1l612.6,614.6l55.5-47.9c67-55.5,130.2-72.8,201-55.5c67,15.3,3155,3091.9,3193.3,3183.8c34.5,76.6,19.1,149.3-45.9,220.2l-49.8,51.7l61.3,61.3l61.3,61.3l51.7-49.8c70.8-65.1,143.6-80.4,224-45.9c68.9,28.7,126.3,112.9,126.3,183.8c0,47.9-28.7,109.1-78.5,162.7c-34.5,40.2-34.5,42.1,126.3,201L7047.4,646l51.7-49.8c70.8-65.1,143.6-80.4,224-45.9c68.9,28.7,126.3,112.9,126.3,183.8c0,47.9-28.7,109.1-78.5,162.7c-34.5,40.2-34.5,42.1,126.4,201l162.7,160.8l51.7-49.8c70.8-65.1,143.6-80.4,224-45.9c68.9,28.7,126.3,112.9,126.3,183.8c0,47.9-28.7,109.1-78.5,162.7c-34.5,40.2-34.5,42.1,126.3,201l162.7,160.8l51.7-49.8c70.8-65.1,143.6-80.4,224-45.9c68.9,28.7,126.3,112.9,126.3,183.8c0,47.9-28.7,109.1-78.5,162.7c-34.5,40.2-34.5,42.1,126.3,201l162.7,160.8l51.7-49.8c70.8-65.1,143.6-80.4,224-45.9c68.9,28.7,126.3,112.9,126.3,183.8c0,47.9-28.7,109.1-78.5,162.7c-34.5,40.2-34.5,42.1,126.3,201l162.7,160.8l51.7-49.8c70.8-65.1,143.6-80.4,224-45.9c68.9,28.7,126.3,112.9,126.3,183.8c0,53.6-42.1,134-99.6,187.6l-47.9,44l44,91.9c348.4,727.5-247,1575.6-1056.8,1506.7c-128.3-9.6-365.7-82.3-419.3-126.4c-15.3-13.4-36.4-3.8-68.9,30.6C8154,5024.4,8054.4,5047.4,7954.9,4986.1z M9061.5,4570.7c344.6-120.6,522.6-543.7,371.4-880.7c-47.9-105.3-199.1-262.3-1734.5-1797.7L6013.6,207.6l-463.3,465.2l-465.2,463.3l1675.2,1677.1c1732.6,1732.6,1749.8,1747.9,1941.3,1788.1C8795.4,4620.4,8958.1,4607,9061.5,4570.7z M3096,1515.2c160.8-97.6,287.2-183.8,279.5-191.4c-11.5-11.5-807.9-379.1-821.3-379.1c-3.8,0-5.7,118.7-5.7,262.3v262.3l109.1,111c61.3,61.3,116.8,111,126.3,111S2933.2,1610.9,3096,1515.2z M5171.2,475.6l696.9-696.9l-103.4-47.9c-57.4-24.9-398.2-176.1-756.2-337c-564.8-254.6-689.2-302.5-938.1-365.7c-157-40.2-289.1-74.7-291-74.7c-3.8,0-5.7,114.9-5.7,254.6l-1.9,252.7l340.8,855.8c187.6,471,344.6,857.7,350.3,857.7C4468.6,1174.4,4786.4,860.4,5171.2,475.6z M3687.5,355l-315.9-788.8v-480.5v-480.5l55.5-55.5c78.5-78.5,132.1-74.7,633.7,57.4c381,97.6,476.7,132.1,821.3,285.3c216.3,97.6,394.4,172.3,396.3,170.4c3.8-3.8-471-482.5-1054.9-1066.4L3161.1-3066.2l-1007,1007l-1007,1007l168.5,513.1l170.4,511.2l319.7,160.8c176.1,88.1,325.5,160.8,331.2,160.8c5.7,0,9.6-141.7,9.6-315.9V-338l402-1005.1c220.2-553.3,415.4-1035.7,430.8-1072.1c61.3-126.3,222.1-155.1,323.5-55.5c95.7,97.6,101.5,80.4-340.8,1187L2548.4-251.9v373.3l1.9,373.3l721.7,327.4c396.3,180,723.7,325.5,725.6,323.5C4001.5,1143.8,3859.8,787.7,3687.5,355z M1350-2641.1c23-47.9,112.9-90,193.4-90c51.7,0,84.2,15.3,126.4,55.5c53.6,55.5,55.5,59.3,55.5,264.2v206.8l469-469l469-469l-599.2-597.3l-597.3-599.2L1103-4218.7c-319.7,107.2-375.2,132.1-453.7,202.9c-105.3,93.8-160.8,239.3-141.7,361.8c5.7,40.2,191.4,430.8,409.7,871.1l396.3,800.3l9.6-312.1C1328.9-2466.9,1340.4-2622,1350-2641.1z"/><path d="M8759,4164.8c-105.3-84.2-113-208.7-19.2-302.5c74.7-74.7,153.2-86.1,241.2-32.5c174.2,101.5,101.5,369.5-99.6,369.5C8831.7,4199.3,8781.9,4185.8,8759,4164.8z"/></g></g>
</svg>