<?xml version="1.0" encoding="utf-8"?>
<!-- Svg Vector Icons : http://www.onlinewebfonts.com/icon -->
<!DOCTYPE svg PUBLIC "-//W3C//DTD SVG 1.1//EN" "http://www.w3.org/Graphics/SVG/1.1/DTD/svg11.dtd">
<svg version="1.1" xmlns="http://www.w3.org/2000/svg" xmlns:xlink="http://www.w3.org/1999/xlink" x="0px" y="0px" viewBox="0 0 1000 1000" enable-background="new 0 0 1000 1000" xml:space="preserve">
<metadata> Svg Vector Icons : http://www.onlinewebfonts.com/icon </metadata>
<g><g transform="translate(0.000000,512.000000) scale(0.100000,-0.100000)"><path d="M4579.4,4986.6c-149.4-76.6-172.4-132.2-256.7-653.3c-42.1-256.7-78.6-467.5-80.5-467.5c-11.5-5.7-429.2-109.2-452.2-111.1c-15.3-1.9-157.1,153.3-316.1,346.8c-159,193.5-318,369.8-354.4,392.8c-47.9,28.7-97.7,40.2-172.4,42.2c-99.6,0-128.4-11.5-365.9-147.5c-143.7-80.5-285.5-166.7-314.2-189.7c-65.1-51.7-124.5-176.3-126.5-260.6c0-34.5,74.7-262.5,166.7-505.8l164.8-442.6l-174.3-172.4l-172.4-174.3L1674.9,2812c-406.2,151.4-457.9,166.7-536.5,155.2c-151.4-23-216.5-90.1-394.7-402.3c-266.3-465.6-260.6-486.6,258.7-913.9c199.3-164.8,360.2-310.4,360.2-325.7c-1.9-15.3-28.7-120.7-57.5-237.6c-30.7-115-55.6-212.7-55.6-214.6c0-1.9-206.9-38.3-456-80.5C305,710.2,257.1,694.9,159.4,574.2L100,499.4V122c0-367.9,1.9-379.4,46-446.4C236-454.7,276.3-468.1,780.2-550.5c256.7-42.2,467.5-78.6,469.4-82.4c1.9-1.9,24.9-93.9,53.6-205c26.8-111.1,55.6-216.5,61.3-233.7c9.6-23-80.5-107.3-354.4-331.5c-201.2-166.7-379.4-327.6-396.6-362.1c-19.2-32.6-32.6-105.4-32.6-164.8c-1.9-97.7,9.6-126.5,149.4-373.6c84.3-147.5,180.1-295.1,212.7-327.6c57.5-59.4,166.7-103.5,252.9-103.5c24.9,0,243.3,74.7,486.6,166.7l442.6,164.8l172.4-174.3l174.3-172.4l-168.6-450.2c-151.4-406.2-166.7-457.9-155.2-536.5c23-151.4,90.1-216.5,404.3-396.6c266.3-151.4,293.1-162.9,392.8-160.9c59.4,0,132.2,13.4,164.8,32.6c34.5,17.3,195.4,195.4,362.1,396.6c228,277.8,308.5,364,331.5,354.5c23-7.7,362.1-97.7,438.8-115c1.9,0,34.5-185.8,70.9-411.9c82.4-498.1,93.9-538.4,166.7-622.7c97.7-111.1,174.4-128.4,555.6-120.7c318,5.7,339.1,7.7,404.3,51.7c128.4,88.1,141.8,128.3,226.1,634.2c42.2,256.7,80.5,469.4,82.4,469.4c23,15.3,467.5,118.8,477.1,113c7.6-5.8,141.8-166.7,300.8-358.3c157.1-191.6,314.2-366,348.7-387c42.2-23,101.6-36.4,170.5-38.3c97.7,0,126.4,11.5,373.6,151.4c147.5,84.3,295.1,180.1,327.6,212.7c59.4,57.5,103.5,166.7,103.5,254.8c0,24.9-74.7,243.3-166.7,484.7L7518.5-2750l172.4,172.4l174.3,174.3l450.2-168.6c406.2-151.4,457.9-166.7,536.5-155.2c151.4,23,216.5,90,394.7,402.3c266.3,465.6,260.6,486.7-258.6,913.9c-199.3,164.8-360.2,310.4-358.3,325.7c1.9,21.1,103.5,438.7,111.1,452.2c0,1.9,185.8,34.5,411.9,70.9c490.5,82.4,536.5,93.9,615,159c113,95.8,132.2,168.6,132.2,530.7c0,287.4-3.8,333.4-38.3,406.2c-74.7,151.4-130.3,174.4-655.3,260.6C8951.6,836.6,8740.9,873,8739,873c-7.7,21.1-107.3,433-109.2,452.2c-1.9,15.3,153.3,157.1,346.8,316.1c193.5,159,369.8,318,392.8,354.4c28.7,47.9,40.3,97.7,42.2,172.4c0,99.6-11.5,128.4-151.4,375.5c-84.3,147.5-180.1,295.1-212.7,327.6c-57.5,59.4-166.7,103.5-252.9,103.5c-24.9,0-243.3-74.7-486.6-166.7l-442.6-164.8l-172.4,174.3l-174.3,172.4l155.2,419.6c86.2,229.9,162.9,444.5,168.6,477.1c17.3,88.1-26.8,218.4-93.9,285.5c-34.5,32.6-180.1,126.5-325.7,208.8c-448.3,256.7-471.3,249.1-902.4-274c-229.9-279.7-310.4-365.9-333.4-356.4s-344.9,93.9-438.8,115c-1.9,0-38.3,206.9-80.5,456c-82.4,488.6-97.7,536.5-218.4,634.2l-74.7,59.4l-356.4,5.7C4686.7,5024.9,4654.2,5023,4579.4,4986.6z M5234.7,4599.5c3.8-24.9,44.1-254.8,84.3-511.5c92-569,72.8-538.4,387-607.4c120.7-26.8,295.1-74.7,387-105.4c93.9-30.7,183.9-55.6,201.2-55.6c67.1,0,143.7,76.6,444.5,446.4c168.6,206.9,314.2,377.4,320,377.4c24.9,0,388.9-218.4,388.9-233.8c0-9.6-76.6-222.2-172.4-471.3c-95.8-251-172.4-482.8-172.4-517.3c0-51.7,40.2-99.6,316.1-377.4c272.1-270.1,325.7-316.1,375.5-316.1c32.6,0,264.4,78.6,517.3,172.4c251,95.8,463.7,172.4,471.3,172.4c23,0,239.5-379.4,228-398.5c-3.8-7.7-182-157.1-392.8-329.5c-413.8-339.1-444.5-377.4-408.1-496.2c88.1-291.2,141.8-486.6,159-592c15.3-86.2,36.4-139.9,72.8-178.2c47.9-51.7,72.8-59.4,519.2-132.2c258.7-42.2,488.6-80.5,513.5-86.2c40.2-9.6,42.2-17.2,42.2-239.5c0-126.5-1.9-229.9-3.8-229.9c-3.8,0-233.8-38.3-511.6-86.2c-442.6-74.7-513.5-90-551.8-130.3c-32.6-32.6-59.4-103.5-93.9-264.4c-28.7-120.7-74.7-293.1-105.4-383.2c-30.7-92-55.6-182-55.6-201.2c0-70.9,72.8-143.7,446.4-448.3c206.9-168.6,377.4-314.2,377.4-320c0-24.9-218.4-388.9-233.8-388.9c-9.6,0-222.2,78.5-471.3,172.4c-251,95.8-482.8,172.4-517.3,172.4c-53.6,0-99.6-38.3-377.4-316.1c-264.4-266.3-316.1-327.6-316.1-373.6c0-30.6,78.6-264.4,172.4-517.3c95.8-252.9,172.4-467.5,172.4-475.1c0-15.3-364-233.8-388.9-233.8c-5.7,0-149.4,170.5-320,379.4c-302.7,371.7-375.5,444.5-448.3,444.5c-21.1,0-128.3-30.7-241.4-67.1s-281.7-80.5-373.6-99.6c-274-53.6-264.4-38.3-356.4-599.7c-40.2-258.7-78.6-488.6-84.3-511.6c-9.6-42.2-17.3-44.1-239.5-44.1c-222.3,0-229.9,1.9-239.5,44.1c-3.8,23-42.2,252.9-84.3,509.6c-92,569-72.8,538.4-387,607.3c-120.7,28.7-293.1,74.7-383.2,105.4c-92,30.7-182,55.6-201.2,55.6c-70.9,0-143.7-72.8-448.3-446.4c-170.5-206.9-314.2-377.5-320-377.5c-24.9,0-388.9,220.3-388.9,235.7c0,7.7,78.6,220.3,172.4,469.4c95.8,251,172.4,482.8,172.4,517.3c0,51.7-40.2,99.6-316.1,377.4c-266.3,264.4-325.7,316.1-373.6,316.1c-30.7,0-264.4-76.6-517.3-172.4c-252.9-93.9-467.5-172.4-475.1-172.4c-15.3,0-233.8,364-233.8,388.9c0,5.7,170.5,149.4,377.4,320c208.8,170.5,394.7,331.5,411.9,360.2c46,69,44.1,105.4-11.5,264.4c-51.7,145.6-116.9,392.8-136,523c-7.7,47.9-34.5,105.4-65.1,137.9c-47.9,55.6-65.1,59.4-519.2,132.2c-258.7,42.2-488.6,80.5-511.6,86.2c-42.1,9.6-44.1,17.2-44.1,239.5c0,222.2,1.9,229.9,44.1,239.5c23,3.8,252.9,42.2,509.6,84.3c569,92,538.4,72.8,607.4,387c28.7,120.7,74.7,293.1,105.4,383.2c30.7,92,55.6,182,55.6,201.2c0,70.9-72.8,143.7-444.5,448.3c-208.8,170.5-379.4,314.2-379.4,320c0,24.9,218.4,388.9,233.8,388.9c9.6,0,222.2-76.6,473.2-172.4c251-93.9,482.8-172.4,515.4-172.4c51.7,0,103.5,42.2,377.4,316.1c264.4,266.3,316.1,325.7,316.1,373.6c0,30.7-76.6,264.4-172.4,517.3c-95.8,252.9-172.4,467.5-172.4,475.1c0,13.4,365.9,233.8,388.9,233.8c5.8,0,149.4-170.5,320-377.4c302.7-373.6,377.4-446.4,448.3-446.4c19.2,0,109.2,24.9,201.2,55.6c90.1,30.7,262.5,76.6,383.2,105.4c160.9,34.5,231.8,61.3,264.4,93.9c38.3,38.3,55.6,103.5,120.7,511.6c42.2,258.7,80.5,488.6,86.2,513.5c9.6,40.2,17.2,42.2,239.5,42.2C5217.5,4641.7,5225.1,4639.8,5234.7,4599.5z"/><path d="M4719.3,2093.5c-442.6-70.9-848.8-279.7-1147.6-592c-252.9-264.4-413.8-549.9-505.8-898.6c-44.1-162.9-49.8-222.3-49.8-482.8c0-258.6,7.7-321.9,51.7-488.6c318-1207,1643.9-1837.4,2762.8-1314.3c231.8,109.2,379.4,216.5,582.5,421.5c272.1,277.8,446.4,593.9,528.8,969.5c53.7,243.3,46,655.2-17.2,894.7c-187.8,714.6-737.6,1264.5-1446.5,1444.6C5267.3,2101.2,4909,2122.2,4719.3,2093.5z M5403.3,1673.9C6198.4,1467,6717.6,660.4,6577.8-146.2c-111.1-632.3-580.5-1136.2-1208.9-1297.1c-162.9-40.2-540.3-46-708.9-9.6c-283.6,61.3-620.8,251-818.1,456C3142.5-261.2,3276.6,919,4125.4,1467c199.3,128.4,388.9,199.3,678.2,251C4909,1737.1,5259.6,1710.3,5403.3,1673.9z"/></g></g>
</svg>