<?xml version="1.0" encoding="utf-8"?>
<!-- Svg Vector Icons : http://www.onlinewebfonts.com/icon -->
<!DOCTYPE svg PUBLIC "-//W3C//DTD SVG 1.1//EN" "http://www.w3.org/Graphics/SVG/1.1/DTD/svg11.dtd">
<svg version="1.1" xmlns="http://www.w3.org/2000/svg" xmlns:xlink="http://www.w3.org/1999/xlink" x="0px" y="0px" viewBox="0 0 1000 1000" enable-background="new 0 0 1000 1000" xml:space="preserve">
<metadata> Svg Vector Icons : http://www.onlinewebfonts.com/icon </metadata>
<g><g transform="translate(0.000000,511.000000) scale(0.100000,-0.100000)"><path d="M154.6,3649.4c-22.2-78.8-44.4-162.6-51.7-184.8c-12.3-44.3-12.3-44.3,593.8-204.5c189.7-51.7,357.3-105.9,374.5-120.7c14.8-14.8,300.6-874.7,635.7-1912.1c332.6-1037.4,650.5-2020.5,704.7-2185.6l101-303.1H3215c551.9,0,699.8-7.4,689.9-29.6c-4.9-17.2-135.5-497.7-288.3-1066.9c-253.8-951.1-273.5-1039.8-241.5-1096.5c71.5-128.1,261.2-145.4,330.2-29.6c14.8,22.2,157.7,532.2,317.9,1133.5l293.2,1089.1h1182.8h1185.2l372.1-372.1l374.5-374.5l-69-145.4c-278.4-588.9,103.5-1293.7,756.5-1397.1c660.4-103.5,1232,463.3,1138.4,1131c-91.2,653-805.8,1044.8-1397.1,763.8l-145.4-69l-231.6,231.6l-231.6,231.6h618.5c478,0,645.6,7.4,741.7,37c172.5,51.8,347.4,214.4,446,411.5c61.6,128.1,842.7,2836.1,842.7,2927.3c0,17.3-1180.3,24.6-3634.5,24.6c-2424.6,0-3634.5-7.4-3634.5-24.6c0-37,416.4-2860.8,431.2-2924.8c12.3-54.2,4.9-56.7-128.1-56.7h-142.9l-687.5,2138.8c-379.5,1175.4-697.3,2153.6-707.2,2170.9c-14.8,29.6-795.9,261.2-1135.9,335.1C199,3792.3,194.1,3784.9,154.6,3649.4z M9382.5,1715.1c0-88.7-630.8-2266.9-685-2370.4C8571.9-887,8820.7-867.3,5987.1-867.3H3493.4l-24.6,56.7c-12.3,29.6-101,586.5-197.1,1237c-96.1,650.5-179.9,1212.3-187.3,1251.7l-14.8,66.5h3156.5C8618.7,1744.6,9382.5,1737.2,9382.5,1715.1z M8527.5-2013.1c384.4-184.8,470.7-675.1,167.5-975.8c-446-448.5-1180.3-9.9-1010.3,603.7l27.1,96.1l224.2-224.2c125.7-123.2,256.3-231.6,293.2-239c125.7-32,261.2,103.5,229.2,226.7c-7.4,37-115.8,170-239,293.2l-221.8,229.2l81.3,24.6C8197.3-1941.6,8416.6-1958.8,8527.5-2013.1z"/></g></g>
</svg>