<?xml version="1.0" encoding="utf-8"?>
<!-- Svg Vector Icons : http://www.onlinewebfonts.com/icon -->
<!DOCTYPE svg PUBLIC "-//W3C//DTD SVG 1.1//EN" "http://www.w3.org/Graphics/SVG/1.1/DTD/svg11.dtd">
<svg version="1.1" xmlns="http://www.w3.org/2000/svg" xmlns:xlink="http://www.w3.org/1999/xlink" x="0px" y="0px" viewBox="0 0 1000 1000" enable-background="new 0 0 1000 1000" xml:space="preserve">
<metadata> Svg Vector Icons : http://www.onlinewebfonts.com/icon </metadata>
<g><g transform="translate(0.000000,511.000000) scale(0.100000,-0.100000)"><path d="M100,3326.6v-205l365.8-7.8l363.2-7.8l1100.1-1906.9C2533.6,150.9,3024-710.4,3018.8-715.6s-62.3,10.4-129.7,31.1c-215.3,75.2-467,80.4-710.9,20.8c-524.1-134.9-892.5-516.3-1004.1-1043c-147.9-697.9,306.2-1403.6,1004.1-1569.7c477.4-111.6,931.4,26,1284.3,389.2l189.4,194.6h1870.6h1870.6l186.8-192c207.6-212.7,407.3-329.5,672-391.8c446.3-106.4,910.7,26,1242.7,350.3c726.5,716.1,435.9,1917.3-547.4,2246.8c-290.6,98.6-710.9,57.1-1017-96c-72.6-36.3-153.1-49.3-332.1-49.3h-233.5v415.1V5.6h207.6h207.6v830.2v830.2h-518.9h-518.9v207.6v207.6H6223h-518.9v-207.6v-207.6H4458.7H3213.4V835.9V5.6h207.6h207.6v-417.7c0-321.7-7.8-415.1-31.1-407.3c-18.2,7.8-596.7,985.9-1284.3,2176.8L1062.6,3521.2l-480,7.8l-482.6,5.2V3326.6z M7364.6,835.9V420.8h-1868h-1868v415.1V1251h1868h1868V835.9z M6949.4-409.5v-415.1H5496.5H4043.6v415.1V5.6h1452.9h1452.9V-409.5z M2746.4-1073.7c179-51.9,298.4-129.7,435.9-280.2c179-194.6,225.7-321.7,225.7-612.3c0-217.9-7.8-264.6-72.6-394.4c-93.4-192-262-360.6-454-454c-129.7-64.9-176.4-72.6-394.4-72.6s-262,10.4-389.2,72.6c-197.2,101.2-371,280.2-456.6,469.6c-62.3,132.3-72.6,192-72.6,378.8c-2.6,184.2,10.4,243.9,67.5,365.8C1838.3-1161.9,2305.3-941.3,2746.4-1073.7z M8926.4-1115.2c204.9-93.4,368.4-254.3,467-459.2c75.2-150.5,85.6-194.6,85.6-391.8c0-186.8-10.4-243.9-72.6-376.2c-342.5-731.7-1341.3-742-1696.8-18.2c-64.9,132.3-72.6,176.4-72.6,394.4c2.6,197.2,13,272.4,57.1,368.4c67.4,142.7,238.7,339.9,373.6,425.5C8314.1-1016.6,8661.8-995.8,8926.4-1115.2z M7351.6-1369.4c-103.8-205-150.5-446.3-134.9-692.7l15.6-215.3H5522.5H3815.3l13,202.4c15.6,246.5-20.8,459.2-121.9,672l-75.2,163.4h1894h1891.4L7351.6-1369.4z"/></g></g>
</svg>