<?xml version="1.0" encoding="utf-8"?>
<!-- Svg Vector Icons : http://www.onlinewebfonts.com/icon -->
<!DOCTYPE svg PUBLIC "-//W3C//DTD SVG 1.1//EN" "http://www.w3.org/Graphics/SVG/1.1/DTD/svg11.dtd">
<svg version="1.1" xmlns="http://www.w3.org/2000/svg" xmlns:xlink="http://www.w3.org/1999/xlink" x="0px" y="0px" viewBox="0 0 1000 1000" enable-background="new 0 0 1000 1000" xml:space="preserve">
<metadata> Svg Vector Icons : http://www.onlinewebfonts.com/icon </metadata>
<g><g transform="translate(0.000000,512.000000) scale(0.100000,-0.100000)"><path d="M7529.4,4990.1c-80.4-55.5-86.2-111.1-32.6-300.6c26.8-93.8,47.9-174.3,44-176.2c-3.8-1.9-51.7-28.7-109.2-57.4c-57.5-28.7-151.3-82.3-206.8-120.6l-103.4-67l-128.3,126.4c-105.3,103.4-141.7,128.3-189.6,128.3c-86.2,0-118.7-17.2-151.3-80.4c-44.1-84.3-21.1-137.9,113-277.7l116.8-122.6l-128.3-126.4l-126.4-128.3l-134,128.3c-135.9,130.2-178.1,147.5-256.6,105.3c-63.2-32.5-88.1-74.7-90-145.5c0-53.6,21.1-86.2,124.5-193.4l122.6-128.3l-128.3-128.3l-128.3-126.4l-126.4,122.6c-107.2,103.4-137.9,124.5-191.5,124.5c-72.8-1.9-114.9-26.8-147.4-90c-42.1-78.5-24.9-120.6,105.3-256.6l128.3-134l-128.3-128.3L5649,2809.1l-109.2,109.2c-130.2,128.3-189.6,157-273.8,128.3c-68.9-24.9-95.7-67-95.7-155.1c0-51.7,23-84.2,128.3-191.5l128.3-130.2l-122.5-124.5c-67-68.9-130.2-124.5-136-124.5c-7.6,0-68.9,51.7-136,114.9c-160.8,153.2-231.7,168.5-321.7,70.9c-74.7-78.5-51.7-151.3,90-300.6l128.3-136l-128.3-128.3l-128.3-128.3l-130.2,130.2c-113,113-137.9,128.3-201.1,128.3c-122.6,0-197.2-116.8-141.7-222.1c17.2-30.6,72.8-97.7,126.4-151.3c53.6-51.7,97.7-103.4,97.7-114.9c0-24.9-214.5-239.4-237.4-239.4c-9.6,0-76.6,55.5-147.5,124.5c-130.2,126.4-174.2,143.6-252.8,101.5c-63.2-32.5-88.1-74.7-90-145.5c0-53.6,21.1-86.2,126.4-197.2l126.4-130.2l-51.7-61.3c-61.3-74.7-55.5-157,21.1-222.1c53.6-47.9,103.4-55.5,166.6-23c23,11.5,779.4,756.4,1679.3,1654.4l1637.2,1633.4l162.8,78.5c214.5,103.4,352.3,136,574.5,136c201.1,0,335.1-28.7,492.1-105.3c126.4-63.2,306.4-225.9,388.7-354.2c203-316,204.9-794.7,5.7-1175.7c-65.1-124.5-210.6-275.7-1702.3-1773.2c-898.1-900-1641-1656.4-1652.5-1679.3c-32.6-63.2-24.9-113,23-166.6c65.1-76.6,147.5-82.3,222.1-21.1l61.3,51.7l130.2-126.4c111.1-105.3,143.6-126.4,197.2-126.4c70.8,1.9,113,26.8,147.5,91.9c38.3,72.8,7.6,143.6-113,262.3c-63.2,63.2-114.9,122.6-114.9,134c0,11.5,53.6,74.7,120.6,139.8l120.6,118.7l103.4-107.2c168.5-170.4,239.4-191.5,340.8-97.7c28.7,26.8,42.1,61.3,42.1,107.2c0,57.5-19.2,86.2-128.3,197.2l-130.2,130.2l128.3,128.3l128.3,128.3l134-128.3c157-151.3,216.4-164.7,310.2-72.8c88.1,88.1,74.7,137.9-68.9,287.2c-68.9,70.9-124.5,137.9-124.5,147.4c0,7.7,53.6,70.8,118.7,136l118.7,118.7l130.2-122.5c113-109.2,139.8-124.5,203-124.5c109.2,0,166.6,72.8,158.9,197.2c0,21.1-57.5,93.8-126.4,164.7l-122.6,128.3L7799.4,900c65.1,65.1,128.3,118.7,136,118.7c9.6,0,76.6-55.5,147.4-124.5c149.4-143.6,199.2-157,287.2-68.9c91.9,93.8,78.5,153.2-72.8,310.2l-128.3,134l128.3,126.4l126.4,128.3l134-128.3c111.1-109.2,141.7-128.3,199.1-128.3c51.7,0,78.5,13.4,118.7,61.3c74.7,88.1,55.5,151.3-95.7,302.5l-124.5,126.4l130.2,128.3l130.2,128.3l103.4-107.2c168.5-170.4,239.4-191.5,340.8-97.7c28.7,26.8,42.1,61.3,42.1,109.2c0,59.4-17.2,84.3-124.5,191.5c-68.9,67-124.5,130.2-124.5,137.9c0,7.7,32.5,59.4,72.8,116.8c40.2,57.4,88.1,139.8,109.2,183.8c19.2,44,44,76.6,55.5,72.8c11.5-5.8,101.5-19.2,197.2-32.6c158.9-21.1,181.9-21.1,225.9,7.7c63.2,42.1,93.8,109.2,78.5,172.3c-21.1,86.2-78.5,118.7-245.1,141.7c-86.2,13.4-157,24.9-158.9,26.8c-1.9,3.8,1.9,122.5,7.7,264.2l11.5,258.5l153.2,53.6c170.4,57.4,239.4,118.7,239.4,206.8c0,76.6-74.7,151.3-151.3,151.3c-30.6,0-118.7-23-193.4-49.8c-76.6-26.8-139.8-46-141.7-42.1c-1.9,3.8-19.2,40.2-38.3,82.3c-19.2,42.1-59.3,113-90,158.9c-30.6,46-55.5,90-55.5,97.7s51.7,65.1,116.8,126.4c63.2,61.3,124.5,132.1,134,155.1c24.9,70.8-15.3,160.8-90,191.5c-88.1,36.4-145.5,11.5-287.2-128.3l-116.8-114.9l-84.2,55.5c-46,32.6-116.8,72.8-155.1,91.9c-40.2,19.1-72.8,38.3-72.8,44c0,7.7,17.2,72.8,38.3,145.5c21.1,72.8,38.3,158.9,38.3,187.7c0,72.8-76.6,147.5-151.3,147.5c-93.8,0-151.3-67-199.1-239.4l-44-153.2l-218.3-3.8c-120.6,0-231.7-5.7-247-9.6c-19.2-3.8-42.1,46-80.4,166.6c-32.6,105.3-70.9,185.7-95.7,206.8C7663.4,5028.4,7586.9,5030.3,7529.4,4990.1z"/><path d="M7954.5,3948.4c-208.7-42.1-180-15.3-1935.9-1769.3C4517.3,681.7,4346.9,505.5,4346.9,451.9c0-32.5,17.2-82.3,40.2-111.1c30.6-40.2,55.5-49.8,118.7-49.8h80.4l1637.2,1635.3c900,900,1667.8,1650.6,1704.2,1669.8c139.8,72.8,361.9,28.7,471.1-91.9c111.1-120.6,143.6-319.8,76.6-455.7c-19.2-36.4-769.8-804.2-1669.7-1704.2L5170.3-293v-80.4c0-63.2,9.6-88.1,49.8-118.7c28.7-23,78.5-40.2,111.1-40.2c51.7,0,231.7,172.3,1710,1650.6c1773.2,1773.2,1738.7,1734.9,1786.6,1981.9C8925.3,3594.2,8458.1,4048,7954.5,3948.4z"/><path d="M1522.5,1432.3c-74.7-34.5-239.4-189.6-729.6-683.6C207,157,155.3,101.5,124.6,5.7C84.4-118.7,94-262.4,149.5-371.5c21.1-42.1,114.9-149.4,210.6-241.3c195.3-191.5,237.5-204.9,331.3-113c97.7,97.7,80.4,151.3-107.2,346.6c-137.9,141.7-162.8,180-162.8,231.7C421.4-90,477-26.8,1020.8,517c335.1,337,624.2,612.8,660.6,628.1c88.1,38.3,155.1,3.8,319.8-162.8c116.8-118.7,141.7-136,201.1-136c116.8,0,191.5,111.1,145.5,216.4c-36.4,84.3-294.9,331.3-396.4,377.2C1828.8,1493.6,1646.9,1491.7,1522.5,1432.3z"/><path d="M2996.9,882.7c-247-36.4-262.3-47.9-1265.7-1055.1C731.6-1177.7,752.7-1150.8,702.9-1417c-26.8-147.5,3.8-338.9,82.3-492.1c30.6-63.2,122.6-183.8,210.6-275.7l155.1-164.7l-40.2-72.8c-47.9-91.9-49.8-216.4-1.9-308.3c46-88.1,1558.7-1597,1643-1639.1c82.3-42.1,212.5-38.3,300.6,7.7l74.7,36.4l166.6-157c248.9-233.6,448.1-316,708.5-294.9c155.1,13.4,294.9,65.1,415.5,153.2c49.8,38.3,247,225.9,438.5,419.4c271.9,275.7,358.1,375.3,402.1,465.3l55.5,114.9l5.7,496l5.7,495.9l174.3,212.6c95.8,116.8,193.4,258.5,220.2,314c91.9,206.8,90,457.7-3.8,675.9c-49.8,113-124.5,193.4-1051.3,1124C4115.2,245.1,3632.7,720,3590.5,748.7C3431.6,859.8,3205.6,911.5,2996.9,882.7z M3372.2,495.9c46-26.8,517-482.5,1045.5-1013c727.7-729.6,970.8-984.2,999.6-1049.3c51.7-113,53.6-310.2,5.8-402.1c-19.2-36.4-122.6-178.1-229.8-312.1l-195.3-245.1v-497.9c0-400.2-5.7-511.3-28.7-566.8c-17.2-40.2-164.7-206.8-367.7-411.7c-383-384.9-465.3-442.3-653-444.2c-185.7,0-239.4,30.6-505.5,289.2c-218.3,212.5-248.9,235.5-312.1,235.5c-53.6,0-86.2-17.2-155.1-80.4l-86.2-80.4l-750.6,750.6l-750.6,750.6l82.3,82.3c65.1,67,80.4,95.7,80.4,153.2c0,67-19.2,91.9-237.4,317.9c-206.8,212.5-241.3,256.6-268.1,346.6c-38.3,128.3-38.3,158.9,0,289.1c28.7,99.6,67,139.8,903.8,982.3c986.2,988.1,970.8,976.6,1202.5,963.2C3257.3,547.6,3309,534.2,3372.2,495.9z"/><path d="M3044.8-561.1c-118.7-38.3-218.3-126.4-277.7-248.9l-51.7-103.4v-928.7c1.9-800.4,5.7-936.4,32.5-999.6c47.9-114.9,113-185.7,222.1-247c139.8-74.7,308.3-78.5,448.1-5.7c111.1,57.4,160.8,107.2,222.1,225.9l46,86.2l5.7,896.2c5.8,1041.7,5.8,1047.4-145.5,1198.7C3402.9-543.8,3234.4-501.7,3044.8-561.1z M3263.1-877c105.3-38.3,107.2-57.5,107.2-967c0-919.1,0-924.9-114.9-963.2c-67-24.9-107.2-15.3-166.6,40.2l-44,38.3v884.7c0,928.7-1.9,917.2,86.2,963.2C3178.8-854,3201.8-854,3263.1-877z"/><path d="M4660.9-1535.7c-70.8-32.5-134-109.1-151.3-185.7c-26.8-124.5,107.2-285.3,237.4-285.3c124.5,0,250.8,118.7,250.8,235.5c0,74.7-49.8,176.2-103.4,212.6C4827.5-1516.6,4727.9-1505.1,4660.9-1535.7z M4802.6-1698.5c15.3-9.6,23-40.2,19.2-70.8c-5.7-61.3-72.8-86.2-122.5-46C4622.6-1750.2,4716.5-1643,4802.6-1698.5z"/></g></g>
</svg>