<?xml version="1.0" encoding="utf-8"?>
<!-- Svg Vector Icons : http://www.onlinewebfonts.com/icon -->
<!DOCTYPE svg PUBLIC "-//W3C//DTD SVG 1.1//EN" "http://www.w3.org/Graphics/SVG/1.1/DTD/svg11.dtd">
<svg version="1.1" xmlns="http://www.w3.org/2000/svg" xmlns:xlink="http://www.w3.org/1999/xlink" x="0px" y="0px" viewBox="0 0 1000 1000" enable-background="new 0 0 1000 1000" xml:space="preserve">
<metadata> Svg Vector Icons : http://www.onlinewebfonts.com/icon </metadata>
<g><g transform="translate(0.000000,511.000000) scale(0.100000,-0.100000)"><path d="M8467.4,4316.7c-41.8-27.2-610.7-844.9-1735.9-2499.2C5679.6,272,5043.8-644.1,5016.6-652.4c-31.4-8.4-64.8,16.7-133.9,98.3c-432.9,501.9-698.5,700.6-1104.3,821.9c-158.9,48.1-223.8,56.5-466.4,56.5c-748.7,2.1-1319.7-265.6-1714.9-801c-173.6-234.2-257.2-455.9-334.6-867.9c-12.5-69-27.2-146.4-31.4-169.4c-8.4-39.7-48.1-54.4-292.8-112.9c-393.2-92-386.9-83.7-386.9-520.7v-330.4l-92-64.8c-248.9-179.9-405.7-550.1-347.2-828.2c77.4-370.2,389-677.6,757.1-746.6c278.2-50.2,640,104.6,815.6,349.2l64.8,92H3492H5232l125.5-123.4c225.9-221.7,596.1-361.8,859.6-326.3c449.6,60.7,853.3,405.7,976.7,832.4l37.7,131.7l282.3,156.9c757.1,414.1,1302.9,865.8,1478.6,1221.4c104.6,213.3,140.1,409.9,125.5,690.2C9082.3-393.1,8783.2,159,8323.1,380.7c-240.5,115-380.6,146.4-702.7,161c-244.7,10.5-307.4,6.3-460.1-33.5c-424.5-106.7-656.7-303.3-909.8-769.6L6192-370.1l-230.1-54.4c-125.5-29.3-232.2-50.2-236.3-46c-4.2,4.2,656.7,985,1472.4,2181.3l1478.6,2173l548,10.5l547.9,10.4l62.7,60.7c54.4,52.3,64.8,77.4,64.8,158.9s-10.5,106.7-64.8,158.9l-62.7,60.7l-621.1,6.3C8576.2,4354.4,8526,4352.3,8467.4,4316.7z M7854.6,79.6c267.7-58.6,491.5-209.1,612.8-420.4c110.9-188.2,219.6-606.5,219.6-844.9c0-152.7-48.1-334.6-117.1-445.5c-121.3-198.7-432.9-472.7-805.2-711.1c-171.5-110.9-552.1-330.4-571-330.4c-6.2,0-46,69-89.9,152.7c-152.7,290.7-468.5,535.4-775.9,598.1c-351.4,73.2-696.5-41.8-976.7-322.1c-244.7-244.7-361.8-531.2-338.8-840.7l10.5-152.7H3458.5H1892l-12.5,79.5c-71.1,418.3-389,740.4-798.9,809.4l-89.9,14.7v131.7v131.8l98.3,23c393.2,83.7,5349.8,1282,5381.2,1298.7c23,12.6,75.3,90,117.1,173.6c98.3,194.5,238.4,407.8,313.7,478.9c73.2,69,265.6,158.9,389,181.9C7432.1,115.1,7702,110.9,7854.6,79.6z M3632.1-152.6c217.5-56.5,401.6-167.3,604.4-361.8C4408-679.6,4477-763.3,4458.2-780c-14.6-14.6-2741.8-658.8-2750.2-650.4c-14.6,12.5,31.4,225.9,81.6,374.4c142.2,437.1,585.6,798.9,1104.3,903.5C3084.1-114.9,3483.6-114.9,3632.1-152.6z M6442.9-2423.9c223.8-106.7,340.9-307.4,340.9-581.4c0-223.8-46-345.1-186.1-485.2c-140.1-140.1-261.4-186.1-485.2-186.1c-276,0-472.6,117.1-585.6,347.2c-58.6,117.1-69,159-69,297c0,202.9,48.1,347.2,156.9,470.6C5809.2-2340.2,6152.2-2281.6,6442.9-2423.9z M1256.3-2865.1c127.6-83.7,179.9-209.1,169.4-401.6c-12.5-284.4-169.4-422.4-464.3-405.7c-284.4,12.5-422.5,169.4-405.7,464.3c8.4,186.1,71.1,297,209.1,366C896.5-2775.2,1137.1-2785.7,1256.3-2865.1z"/><path d="M5966.1-2858.9c-100.4-102.5-71.1-297,54.4-353.4c188.2-85.8,382.7,98.3,303.3,290.7C6267.3-2789.8,6070.7-2754.3,5966.1-2858.9z"/><path d="M892.4-3040.8c-81.6-39.7-140.1-154.8-121.3-238.4c16.7-77.4,100.4-161,177.8-177.8c85.8-18.8,198.7,39.7,238.4,125.5c41.8,85.7,41.8,102.5,0,188.2c-31.4,66.9-135.9,135.9-200.8,135.9C971.8-3007.4,930-3024.1,892.4-3040.8z"/></g></g>
</svg>