<?xml version="1.0" encoding="utf-8"?>
<!-- Svg Vector Icons : http://www.onlinewebfonts.com/icon -->
<!DOCTYPE svg PUBLIC "-//W3C//DTD SVG 1.1//EN" "http://www.w3.org/Graphics/SVG/1.1/DTD/svg11.dtd">
<svg version="1.1" xmlns="http://www.w3.org/2000/svg" xmlns:xlink="http://www.w3.org/1999/xlink" x="0px" y="0px" viewBox="0 0 1000 1000" enable-background="new 0 0 1000 1000" xml:space="preserve">
<metadata> Svg Vector Icons : http://www.onlinewebfonts.com/icon </metadata>
<g><g transform="translate(0.000000,511.000000) scale(0.100000,-0.100000)"><path d="M7620.1,4939.7c-19.6-11.8-107.8-172.5-198-358.8c-376.4-782.3-809.8-1270.6-1613.7-1819.6c-380.4-258.8-525.5-539.2-523.5-1015.7c2-188.2,9.8-251,52.9-384.3c127.4-390.2,447-682.3,854.9-784.3c174.5-43.1,478.4-29.4,637.2,27.5c372.5,135.3,670.6,454.9,766.7,819.6c33.3,129.4,39.2,425.5,9.8,552.9c-19.6,82.4-17.6,88.2,54.9,176.5c298,356.9,452.9,827.4,486.3,1474.5c29.4,527.4-109.8,1131.3-292.1,1286.2C7794.6,4965.2,7684.8,4977,7620.1,4939.7z M7792.7,4290.7c43.1-231.4,56.9-552.9,31.4-813.7c-49-501.9-184.3-874.5-411.8-1127.4c-139.2-156.9-156.9-215.7-117.6-415.7c39.2-202,31.4-390.2-21.6-531.4c-35.3-92.2-78.4-151-194.1-266.7c-317.6-317.6-633.3-370.6-1023.5-172.5c-347.1,174.5-511.8,517.6-454.9,945.1c41.2,294.1,129.4,427.4,405.9,609.8c388.2,252.9,811.7,629.4,1105.8,982.3c184.3,219.6,417.6,574.5,533.3,809.8C7743.6,4514.3,7749.5,4512.3,7792.7,4290.7z"/><path d="M6273.1,2241.8c-129.4-47.1-298-223.5-343.1-356.9c-64.7-198-13.7-386.3,151-545.1c113.7-111.8,231.4-162.7,378.4-162.7c202,0,392.1,123.5,496.1,321.6c131.4,252.9,7.9,584.3-274.5,729.4C6590.7,2275.1,6382.9,2282.9,6273.1,2241.8z M6626,1912.4c62.8-56.9,88.2-170.6,60.8-262.7c-33.3-111.8-101.9-158.8-229.4-158.8c-88.2,0-115.7,9.8-168.6,56.9c-58.8,52.9-64.7,66.7-64.7,174.5c0,123.5,33.3,184.3,117.6,221.6C6406.4,1971.2,6580.9,1953.5,6626,1912.4z"/><path d="M9580.8,2788.8c-343.1-319.6-876.5-515.7-1551-570.6c-192.1-13.7-219.6-21.6-252.9-62.7c-33.3-41.2-35.3-62.7-21.6-203.9c49-443.1-25.5-735.3-258.8-1021.5l-92.2-111.8l56.9-45.1c52.9-43.1,54.9-49,33.3-125.5c-27.4-109.8-9.8-113.7,247.1-60.8c731.4,152.9,1449,556.9,1756.8,992.1c160.8,225.5,302,576.5,370.6,915.7c45.1,215.7,41.2,294.1-13.7,345.1C9778.9,2912.3,9698.5,2896.6,9580.8,2788.8z M9443.6,2141.8c-35.3-98-96.1-227.4-133.3-290.2c-194.1-325.5-705.9-678.4-1233.3-851c-100-33.3-182.3-58.8-186.3-58.8s17.6,54.9,49,123.5c92.2,196.1,137.3,403.9,137.3,633.3c0,233.3-29.4,205.9,260.8,243.1c356.9,45.1,798,184.3,1058.8,333.3c54.9,31.4,103.9,54.9,107.8,51C9508.3,2322.1,9480.8,2237.8,9443.6,2141.8z"/><path d="M4282.9,2814.3c-9.8-3.9-52.9-11.8-94.1-19.6c-92.2-15.7-215.7-121.6-272.6-233.3c-156.9-309.8-364.7-429.4-796-464.7c-398-33.3-666.7-109.8-1000-282.3c-290.2-151-488.2-300-760.8-568.6c-298-294.1-492.1-539.2-821.5-1039.2c-349-525.5-417.6-645.1-433.3-747c-35.3-235.3,137.3-500,372.5-576.4c94.1-29.4,256.9-15.7,347.1,31.4c37.3,17.6,229.4,198,429.4,400C1745.7-189.6,2132,94.7,2528.1,251.6c92.2,37.3,388.2,123.5,656.9,190.2c676.5,170.6,825.5,235.3,1186.2,507.8l203.9,154.9l247.1-43.1c302-51,343.1-51,392.2-2c51,51,49,119.6-7.8,290.2c-125.5,368.6-105.9,652.9,64.7,994.1c149,296.1,135.3,356.9-96.1,409.8C4971.1,2800.6,4361.4,2841.7,4282.9,2814.3z M4918.2,2479l56.9-11.8l-45.1-111.8c-80.4-198-113.7-415.7-102-656.9c7.9-119.6,17.7-241.2,25.5-270.6c11.8-52.9,9.8-54.9-52.9-39.2c-37.2,7.8-133.3,13.7-213.7,13.7h-149l-154.9-125.5C3914.3,981,3759.4,908.5,3167.3,763.4c-480.4-119.6-760.8-209.8-960.8-311.8C1779.1,232,1345.7-119,845.7-650.3c-174.5-188.2-209.8-202-347.1-145.1c-78.4,33.3-115.7,94.1-100,170.6C410.5-566,783,30.1,1002.6,339.8c351,494.1,680.4,831.4,1052.9,1074.5c341.2,223.5,666.7,333.3,1096,368.6c480.4,41.2,805.9,221.6,1003.9,556.8c47.1,82.4,100,154.9,117.6,158.8C4308.4,2510.4,4841.7,2492.7,4918.2,2479z"/><path d="M5584.9,590.8c-41.2-33.3-47.1-54.9-49-192.2c-2-182.3-51-325.5-227.5-682.3C4837.8-1224.8,4222.1-1948.3,3332-2601.3c-102-76.5-133.3-111.8-164.7-192.1c-58.8-152.9-62.7-478.4-13.7-882.3c21.6-182.3,37.3-407.8,35.3-500c-2-139.2,3.9-182.3,41.2-258.8c129.4-264.7,401.9-376.5,643.1-262.7c151,70.6,223.5,158.8,339.2,417.6C4441.7-3762,4888.8-2969.9,5179-2562c315.7,447,798,845.1,1517.6,1252.9c394.1,225.5,527.4,372.5,586.3,652.9c37.3,180.4,3.9,1023.5-45.1,1127.4c-49,102-107.8,113.7-262.7,52.9c-394.1-158.8-735.3-149-1086.2,27.4C5716.2,637.9,5651.5,645.7,5584.9,590.8z M6008.4,165.3c211.8-68.6,507.8-84.3,731.3-39.2c88.2,17.6,172.5,37.3,188.2,43.1c33.3,13.7,51-139.2,56.9-531.3c5.9-396.1-11.8-425.5-417.6-656.9c-676.5-390.2-1184.3-780.4-1460.8-1123.5c-170.6-209.8-460.8-645.1-637.2-954.9c-158.8-278.4-519.6-992.1-590.2-1164.7c-56.9-141.2-105.9-178.4-217.6-162.7c-145.1,19.6-158.8,47.1-162.7,380.4c-3.9,158.8-19.6,390.2-37.3,513.7c-35.3,256.8-39.2,470.6-11.8,574.5c15.7,56.8,49,90.2,152.9,164.7c376.5,264.7,843.1,711.7,1166.6,1115.7C5194.7-1144.4,5608.4-432.7,5777,53.6c29.4,90.2,58.8,162.7,64.7,162.7C5847.6,216.3,5922.1,192.8,6008.4,165.3z"/></g></g>
</svg>