<?xml version="1.0" encoding="utf-8"?>
<!-- Svg Vector Icons : http://www.onlinewebfonts.com/icon -->
<!DOCTYPE svg PUBLIC "-//W3C//DTD SVG 1.1//EN" "http://www.w3.org/Graphics/SVG/1.1/DTD/svg11.dtd">
<svg version="1.1" xmlns="http://www.w3.org/2000/svg" xmlns:xlink="http://www.w3.org/1999/xlink" x="0px" y="0px" viewBox="0 0 1000 1000" enable-background="new 0 0 1000 1000" xml:space="preserve">
<metadata> Svg Vector Icons : http://www.onlinewebfonts.com/icon </metadata>
<g><path d="M574,10c-22.1,0-41.6,10.6-52.4,26.5h-43.2C467.6,20.6,448.1,10,426,10c-33.9,0-61.4,24.8-61.4,55.3v108.3c0,6.4,5.2,11.6,11.6,11.6h88v768.9c0,19.7,16.1,35.8,35.8,35.8s35.8-16.1,35.8-35.8V185.3h88c6.4,0,11.6-5.2,11.6-11.6V65.3C635.5,34.8,607.9,10,574,10z M487.4,59.7h25.1V291h-25.1V59.7z M387.8,162V65.3c0-17.7,17.1-32.1,38.2-32.1c21.1,0,38.2,14.4,38.2,32.1V162L387.8,162L387.8,162z M500,966.8c-6.9,0-12.6-5.6-12.6-12.6v-640h25.1v640C512.6,961.1,506.9,966.8,500,966.8z M612.2,162h-76.4V65.3c0-17.7,17.1-32.1,38.2-32.1c21.1,0,38.2,14.4,38.2,32.1L612.2,162L612.2,162z"/><g></g><g></g><g></g><g></g><g></g><g></g><g></g><g></g><g></g><g></g><g></g><g></g><g></g><g></g><g></g></g>
</svg>