<?xml version="1.0" encoding="utf-8"?>
<!-- Svg Vector Icons : http://www.onlinewebfonts.com/icon -->
<!DOCTYPE svg PUBLIC "-//W3C//DTD SVG 1.1//EN" "http://www.w3.org/Graphics/SVG/1.1/DTD/svg11.dtd">
<svg version="1.1" xmlns="http://www.w3.org/2000/svg" xmlns:xlink="http://www.w3.org/1999/xlink" x="0px" y="0px" viewBox="0 0 1000 1000" enable-background="new 0 0 1000 1000" xml:space="preserve">
<metadata> Svg Vector Icons : http://www.onlinewebfonts.com/icon </metadata>
<g><g transform="translate(0.000000,512.000000) scale(0.100000,-0.100000)"><path d="M4857.1,4373.9c-273.7-126.3-394.4-492-499.6-1504.7c-23-225.9-32.5-585.8-40.2-1498.9l-9.6-1202.2l72.7,32.5c185.7,80.4,310.1,107.2,536,116.8c268,11.5,430.7-11.5,633.6-90l139.7-53.6v1029.9c0,842.3-7.7,1119.9-38.3,1537.2c-53.6,723.6-93.8,955.3-224,1278.8c-74.6,191.4-170.4,313.9-281.4,363.7C5042.8,4431.3,4972,4429.4,4857.1,4373.9z"/><path d="M4713.5-52c-411.6-107.2-746.6-446-851.9-859.5c-36.4-145.5-36.4-409.6,0-555.1c86.1-335,321.6-627.9,622.2-771.5c193.3-91.9,312-118.7,522.6-118.7c315.9,0,580,109.1,815.5,340.7c233.5,229.7,346.5,497.7,346.5,827c0,325.4-113,593.4-342.7,823.2c-168.5,166.6-315.9,252.7-530.3,306.3C5119.4-13.7,4868.6-11.8,4713.5-52z M5322.3-574.6c137.8-74.7,227.8-168.5,304.4-312.1c47.9-91.9,53.6-118.7,53.6-302.5c0-183.8-3.8-210.6-55.5-306.3c-105.3-204.8-317.8-358-528.3-380.9c-315.9-36.4-589.6,112.9-729.4,394.3c-40.2,78.5-45.9,120.6-45.9,292.9c0,181.9,5.7,210.6,51.7,300.5c70.8,132.1,155.1,225.9,258.4,287.1c149.3,86.1,214.4,101.5,398.2,95.7C5182.5-511.5,5215.1-519.1,5322.3-574.6z"/><path d="M3191.6-1432.3c-1162-664.3-1841.6-1083.5-2329.7-1443.4C398.6-3218.3,100-3582.1,100-3806c0-101.5,26.8-172.3,91.9-243.1c181.9-195.2,560.9-168.5,1181.1,84.2c300.6,120.6,805.9,363.7,1158.2,553.3c210.6,114.9,1594.6,909.3,1627.2,934.2c3.8,3.8-21.1,30.6-57.4,57.4c-315.9,239.3-545.6,618.3-599.2,993.5l-23,158.9L3191.6-1432.3z"/><path d="M6513-1348c0-101.5-70.8-356.1-141.7-501.6c-91.9-191.4-218.2-354.2-384.8-490.1c-78.5-65.1-143.6-124.4-143.6-130.2c0-5.8,90-61.3,197.2-124.4c1192.6-687.3,1523.8-871,1927.7-1068.2c800.2-392.4,1077.8-490.1,1445.3-505.4c208.7-9.6,210.6-9.6,312,49.8c260.4,153.1,227.8,459.4-84.2,800.2c-247,271.8-838.5,706.4-1567.8,1150.5c-319.7,197.2-1520,882.5-1541,882.5C6520.7-1284.9,6513-1313.6,6513-1348z"/></g></g>
</svg>