<?xml version="1.0" encoding="utf-8"?>
<!-- Svg Vector Icons : http://www.onlinewebfonts.com/icon -->
<!DOCTYPE svg PUBLIC "-//W3C//DTD SVG 1.1//EN" "http://www.w3.org/Graphics/SVG/1.1/DTD/svg11.dtd">
<svg version="1.1" xmlns="http://www.w3.org/2000/svg" xmlns:xlink="http://www.w3.org/1999/xlink" x="0px" y="0px" viewBox="0 0 1000 1000" enable-background="new 0 0 1000 1000" xml:space="preserve">
<metadata> Svg Vector Icons : http://www.onlinewebfonts.com/icon </metadata>
<g><g transform="translate(0.000000,502.000000) scale(0.100000,-0.100000)"><path d="M8139.4,4859.2c-57.6-27.8-129.2-83.4-162.9-123.2c-31.8-39.7-170.9-333.8-312-657.7l-254.3-588.2l2-160.9l2-162.9L5842.4,1594.6L4268.7,20.9l-57.6,29.8c-107.3,51.7-155,23.8-351.7-208.6c-99.4-119.2-186.8-216.6-192.7-216.6c-6,0-252.4,242.4-548.4,536.5c-385.5,385.5-550.4,536.5-582.2,536.5c-25.8,0-69.5-11.9-99.4-27.8c-29.8-15.9-453-429.2-939.9-920C467.6-1282.6,398-1370,231.1-1844.9C129.8-2135,100-2317.8,100-2659.6c2-286.1,9.9-363.6,133.1-1090.9C338.4-4380.3,372.2-4541.2,402-4571c29.8-31.8,192.7-65.6,810.7-168.9c725.2-123.2,792.8-131.1,1100.8-133.1c447.1-2,725.3,59.6,1096.8,246.4c298,149,433.2,266.3,1363.1,1198.2c834.5,836.5,898.1,904.1,898.1,967.7c0,61.6-43.7,111.3-538.5,608l-538.5,540.5l208.6,174.9c236.5,200.7,272.2,254.3,234.5,359.7l-25.8,71.5L6583.6,865.4l1571.7,1571.7l147-6l145-8l604.1,254.3c540.4,230.5,612,266.2,697.4,347.7c159,159,196.7,393.4,93.4,598.1c-63.6,127.2-1110.7,1174.3-1237.9,1237.9C8465.2,4930.7,8282.5,4930.7,8139.4,4859.2z M9005.7,4010.8c403.4-403.4,560.4-574.2,560.4-606c0-79.5-53.7-155-139.1-192.7l-81.5-37.7l-594.1,594.1l-592.1,592.1l29.8,71.5c39.7,97.4,95.4,141.1,182.8,141.1C8439.4,4573.1,8475.2,4543.3,9005.7,4010.8z M8512.9,3510c461-461,482.8-484.8,435.2-502.7c-25.8-11.9-162.9-69.5-304-131.1c-145.1-61.6-288.1-111.3-325.9-111.3c-57.6,0-95.4,27.8-296.1,224.5c-220.5,214.6-284.1,296.1-284.1,359.6c0,39.7,258.3,647.8,276.2,647.8C8020.1,3996.9,8244.7,3778.3,8512.9,3510z M6323.3,1081.9L4757.5-483.8l-119.2,119.2c-65.6,65.6-119.2,127.2-119.2,139.1c0,9.9,699.4,719.3,1553.8,1573.7L7628.7,2904l129.1-129.2l129.2-129.1L6323.3,1081.9z M3434.2-656.7c-6-8-145-174.9-310-367.6c-164.9-194.7-315.9-391.4-337.8-439.1c-91.4-200.7-59.6-423.2,85.4-588.2c123.2-139.1,212.6-178.8,405.3-180.8c216.6,0,264.3,27.8,695.4,395.4l357.7,306l466.9-465l467-464.9l-784.9-786.8c-431.2-431.2-842.5-830.6-914-884.2c-178.8-137.1-488.8-286.1-725.3-347.7c-166.9-43.7-244.4-53.7-486.8-55.7c-264.3-2-343.7,8-985.6,115.3l-695.4,115.2L559-3615.3c-137.1,832.5-145.1,912-115.2,1174.3c43.7,373.5,176.8,721.3,389.5,1013.4c51.7,71.5,451,484.8,888.2,922l794.8,792.8l465-464.9C3235.5-432.1,3440.1-646.7,3434.2-656.7z M4618.4-833.5c0-13.9-1184.2-1013.4-1239.9-1045.1c-139.1-79.5-331.8,59.6-302,220.5c11.9,59.6,97.4,164.9,860.4,1063l208.6,244.4L4382-585.1C4513.1-714.3,4618.4-825.6,4618.4-833.5z"/></g></g>
</svg>