<?xml version="1.0" encoding="utf-8"?>
<!-- Svg Vector Icons : http://www.onlinewebfonts.com/icon -->
<!DOCTYPE svg PUBLIC "-//W3C//DTD SVG 1.1//EN" "http://www.w3.org/Graphics/SVG/1.1/DTD/svg11.dtd">
<svg version="1.1" xmlns="http://www.w3.org/2000/svg" xmlns:xlink="http://www.w3.org/1999/xlink" x="0px" y="0px" viewBox="0 0 1000 1000" enable-background="new 0 0 1000 1000" xml:space="preserve">
<metadata> Svg Vector Icons : http://www.onlinewebfonts.com/icon </metadata>
<g><g transform="translate(0.000000,492.000000) scale(0.100000,-0.100000)"><path d="M8868.9,4576.6c-250.9-78.5-544-249-1063.2-624.5c-229.9-164.7-275.9-233.7-237.5-346.7c40.2-113,136-139.8,348.7-103.4c272,49.8,448.3,7.7,787.3-182c227.9-128.3,342.9-160.9,524.9-153.3c620.7,28.7,900.3,816.1,448.3,1258.6c-139.8,136-264.4,183.9-482.7,189.6C9049,4618.8,8983.8,4611.1,8868.9,4576.6z M9322.9,4197.4c170.5-82.4,231.8-314.2,130.3-488.5c-53.6-90-172.4-160.9-273.9-160.9c-38.3,0-153.3,47.9-306.5,128.3c-134.1,70.9-295,145.6-356.3,168.6l-113,42.1l116.8,80.4c233.7,159,494.2,266.3,653.2,268.2C9209.9,4237.6,9276.9,4220.3,9322.9,4197.4z"/><path d="M4463,3950.2c-406.1-130.3-434.8-141.7-471.2-214.6c-40.2-78.5-34.5-118.8,59.4-398.4c47.9-141.7,86.2-270.1,86.2-287.3c0-23-262.4-126.4-1086.2-421.4c-599.6-212.6-1170.4-423.3-1270.1-463.6c-484.6-199.2-785.4-450.2-948.2-791.1c-114.9-239.5-134.1-335.2-134.1-660.9c1.9-325.7,24.9-438.7,153.3-699.2c172.4-350.6,488.5-641.7,833.3-768.2c273.9-99.6,23-92,3517.1-103.5l3239.3-9.6l91.9-57.5c254.8-157.1,243.3-532.5-19.2-676.2c-53.6-30.6-348.7-32.6-3582.2-42.1l-3524.7-9.6l-168.6-53.6c-295-91.9-509.6-222.2-706.9-429.1C229.4-2455.6,76.2-2869.4,103-3300.4c13.4-249,49.8-377.4,168.6-622.6c88.1-180.1,120.7-222.2,291.2-394.6c172.4-170.5,214.6-203.1,394.6-291.2c377.4-183.9-111.1-166.7,4639.6-166.7h4187.5l49.8,46c65.1,61.3,78.5,137.9,38.3,222.2c-17.2,36.4-42.1,74.7-53.7,82.4c-11.5,7.7-1890.7,17.2-4178,23c-3921.3,9.6-4162.6,13.4-4269.9,46c-228,67.1-356.3,145.6-528.7,318c-247.1,247.1-344.8,480.8-344.8,823.7c0,333.3,105.4,584.3,344.8,825.6c113,114.9,178.1,162.8,306.5,224.1c90,42.1,208.8,86.2,264.4,97.7c70.9,15.3,1124.5,21.1,3505.6,21.1c2273.8,0,3446.2,7.7,3528.6,21.1c318,49.8,561.3,268.2,643.6,580.4c95.8,354.4-88.1,737.5-432.9,900.3l-124.5,59.4l-3237.4,9.6c-3047.7,9.6-3243.1,13.4-3352.3,46c-469.3,139.8-802.6,532.5-862,1017.2c-5.7,53.6-1.9,178.1,9.6,277.8c46,415.7,285.4,697.3,779.7,909.9c164.7,72.8,2337.1,856.3,2379.2,860.1c28.7,1.9,143.7-333.3,120.7-354.4c-7.7-7.7-509.6-191.6-1114.9-409.9S2078,1435,1982.2,1387.1c-228-116.9-406.1-289.3-467.4-454c-36.4-93.9-42.1-143.7-36.4-268.2c15.3-291.2,183.9-540.2,452.1-666.6L2058.9-63l3237.4-9.6c2900.3-9.6,3247-13.4,3337-42.1c431-134.1,731.8-436.8,839-848.6c36.4-143.7,36.4-446.3,0-584.3c-111.1-421.4-467.4-764.3-883.1-852.5c-113-24.9-634.1-28.7-3561.2-28.7c-3702.9,0-3528.6,3.8-3729.7-97.7C921-2720,769.7-3237.2,984.2-3603.1c107.3-182,318-335.2,515.3-375.5c69-15.3,1321.8-19.2,4193.3-17.2l4095.6,5.7l51.7,53.6c90,90,53.6,277.8-61.3,308.4c-21.1,5.7-1835.2,11.5-4032.4,11.5c-2319.8,0-4045.8,7.7-4114.7,19.2c-137.9,19.2-224.1,69-293.1,168.6c-38.3,57.5-46,92-46,214.6c0,130.3,5.7,155.2,51.7,216.5c30.6,36.4,82.4,88.1,114.9,113l63.2,44.1l3515.2,9.6c3871.5,11.5,3582.2,1.9,3888.7,128.3c909.9,369.7,1252.8,1478.9,716.5,2308.3c-205,318-500,528.7-936.7,670.5c-61.3,19.2-741.3,26.8-3314,34.5l-3237.4,9.6l-80.5,42.1C1922.9,444.6,1829,636.2,1875,774.1c30.7,91.9,141.8,193.5,298.8,270.1c134.1,67,2323.6,865.9,2335.1,854.4c3.8-3.8,34.5-93.9,69-199.2c74.7-228,97.7-266.3,176.2-298.8c69-28.7,95.8-23,538.3,120.7c415.7,136,455.9,180.1,379.3,417.6c-21.1,69-40.2,132.2-40.2,137.9c0,7.7,228,128.3,507.6,272c645.6,331.4,975.1,517.2,1024.9,580.4c21.1,26.8,38.3,74.7,38.3,107.3c0,61.3-195.4,693.5-243.3,785.4c-15.3,30.7-55.5,67.1-91.9,80.5c-55.6,24.9-113,21.1-547.9-38.3c-268.2-36.4-632.1-90-812.2-114.9c-178.1-26.8-341-51.7-360.1-53.6c-26.8-3.8-44.1,26.8-78.5,130.3c-49.8,143.7-132.2,239.5-208.8,239.5C4836.5,4063.3,4658.4,4013.4,4463,3950.2z M4740.7,3563.3c23-72.8,452.1-1415.6,488.5-1528.7l36.4-105.4l-155.2-51.7c-86.2-28.7-157.1-51.7-160.9-47.9c-7.7,9.6-544,1685.8-540.2,1689.6c3.8,1.9,57.5,23,120.7,44.1C4683.3,3615,4725.4,3615,4740.7,3563.3z M6719.6,3323.8c32.6-101.5,57.5-189.6,53.6-193.5c-30.6-30.6-1235.5-655.1-1264.3-655.1c-11.5,0-260.5,773.9-260.5,808.4c0,21.1,97.7,42.1,417.6,90c228,32.6,523,76.6,655.2,95.8C6688.9,3525,6648.7,3540.3,6719.6,3323.8z"/></g></g>
</svg>