<?xml version="1.0" encoding="utf-8"?>
<!-- Svg Vector Icons : http://www.onlinewebfonts.com/icon -->
<!DOCTYPE svg PUBLIC "-//W3C//DTD SVG 1.1//EN" "http://www.w3.org/Graphics/SVG/1.1/DTD/svg11.dtd">
<svg version="1.1" xmlns="http://www.w3.org/2000/svg" xmlns:xlink="http://www.w3.org/1999/xlink" x="0px" y="0px" viewBox="0 0 1000 1000" enable-background="new 0 0 1000 1000" xml:space="preserve">
<metadata> Svg Vector Icons : http://www.onlinewebfonts.com/icon </metadata>
<g><g transform="translate(0.000000,512.000000) scale(0.100000,-0.100000)"><path d="M1657,5008.6c-101.5-44-155.1-193.4-103.4-291.1c23-40.2,620.5-446.2,720.1-488.4c122.6-51.7,275.8,49.8,275.8,181.9c0,95.8-51.7,143.6-388.8,369.6C1819.8,5008.6,1741.3,5043,1657,5008.6z"/><path d="M3189.2,4395.7c-23-9.6-59.4-42.1-82.4-70.9c-38.3-49.8-40.2-68.9-40.2-526.7v-476.9l53.6-57.5c97.7-109.2,279.6-80.4,331.3,51.7c11.5,30.6,17.2,231.7,13.4,517.1l-5.7,465.4l-49.8,47.9C3357.7,4399.5,3252.4,4422.5,3189.2,4395.7z"/><path d="M3840.3,4347.8l-65.1-65.1v-478.8c0-440.5,1.9-480.7,36.4-524.8c21.1-24.9,191.5-149.4,383-273.9c189.6-126.4,346.7-235.6,346.7-243.2c0-5.7-124.5-220.2-277.7-475c-222.2-371.6-277.7-478.8-277.7-534.3c1.9-157.1,189.6-250.9,312.2-153.2c28.7,21.1,172.4,241.3,321.8,488.4l270,450.1l49.8-32.6c28.7-19.2,86.2-55.5,126.4-82.4c57.5-36.4,105.3-49.8,204.9-55.5l132.1-7.7v-201.1c0-187.7-3.8-203-44-237.5c-24.9-19.2-344.7-507.5-708.6-1085.9L3985.9-216.1v-2204.4c0-1668.1,5.7-2215.9,23-2254.2c49.8-111.1-51.7-105.3,2217.8-105.3c1917.1,0,2095.2,1.9,2145,32.6c30.6,17.2,63.2,51.7,74.7,76.6c15.3,32.6,21.1,706.7,21.1,2250.4v2204.4L7814.3,820c-358.1,570.8-678,1059.1-708.6,1087.8c-53.6,51.7-55.5,57.5-55.5,254.7v201.1h411.8c616.7,0,603.3-11.5,603.3,522.8c0,335.2-1.9,356.2-42.1,411.8c-40.2,55.5-1160.6,1003.6-1277.4,1080.2c-45.9,32.5-149.4,34.5-1444,34.5H3905.4L3840.3,4347.8z M7107.6,3549.2l555.4-463.5v-149.4V2785H6460.3H5259.5l-536.3,360L4187,3503.2l-5.7,227.9c-1.9,126.4,0,241.3,3.8,254.7c7.7,19.2,235.6,24.9,1187.4,24.9h1177.9L7107.6,3549.2z M6628.8,2162.6v-201.1h-402.2h-402.2v201.1v201.1h402.2h402.2V2162.6z M6016-595.3c0-2361.4-5.7-2256.1,113-2315.5c72.8-38.3,122.6-38.3,195.3,0c118.7,59.4,113-46,113,2315.5v2156.5l216.4-5.8l214.5-5.7l599.5-946.1l597.5-948v-2016.7v-2016.7H6226.6H4388.1v210.7v210.7h239.4c237.5,0,239.4,0,300.7,55.5c53.6,47.9,63.2,68.9,63.2,143.6c0,68.9-11.5,97.7-53.6,139.8c-51.7,51.7-59.4,53.6-300.7,59.4l-249,7.7v199.2v199.2h411.8c444.3,0,511.4,11.5,572.6,97.7c40.2,57.5,40.2,168.6,0,226c-61.3,86.2-128.3,97.7-572.6,97.7h-411.8v201.1v201.1h218.3c252.8,0,302.6,13.4,356.2,99.6c53.6,86.2,40.2,180-38.3,249c-57.5,51.7-63.2,53.6-296.9,53.6h-239.4v210.7v210.7h446.2c392.6,0,450.1,3.8,484.5,34.5c105.3,84.3,113,208.8,19.2,302.6l-65.1,65.1h-442.4h-442.4v201.1v201.1h210.7c139.8,0,233.7,9.6,277.7,26.8c67,28.7,124.5,113,124.5,183.9s-57.5,155.1-124.5,183.8c-42.1,17.2-136,26.8-256.6,26.8h-191.5L4995.2,617c310.2,492.2,574.6,905.9,584.1,919.3c13.4,15.3,84.3,23,227.9,23H6016V-595.3z"/><path d="M1657,3983.9c-78.5-34.5-122.6-99.6-122.6-183.8c0-86.2,44-149.4,126.4-183.9c90-38.3,672.2-38.3,764.2,0c67,28.7,124.5,113,124.5,183.9c0,70.9-57.5,155.1-124.5,183.8C2335,4020.3,1743.2,4020.3,1657,3983.9z"/><path d="M2292.8,3384.5c-61.3-15.3-716.3-461.5-739.3-501.8c-38.3-72.8-23-170.4,36.4-235.6c47.9-53.6,68.9-63.2,139.8-63.2c72.8,1.9,120.7,26.8,427.1,231.7c340.9,229.8,392.6,277.7,392.6,373.5c0,69-59.4,153.2-124.5,181.9C2356,3399.8,2352.2,3399.8,2292.8,3384.5z"/></g></g>
</svg>