<?xml version="1.0" encoding="utf-8"?>
<!-- Svg Vector Icons : http://www.onlinewebfonts.com/icon -->
<!DOCTYPE svg PUBLIC "-//W3C//DTD SVG 1.1//EN" "http://www.w3.org/Graphics/SVG/1.1/DTD/svg11.dtd">
<svg version="1.1" xmlns="http://www.w3.org/2000/svg" xmlns:xlink="http://www.w3.org/1999/xlink" x="0px" y="0px" viewBox="0 0 1000 1000" enable-background="new 0 0 1000 1000" xml:space="preserve">
<metadata> Svg Vector Icons : http://www.onlinewebfonts.com/icon </metadata>
<g><path d="M819.2,427.1c0,0-31.9,12.3-34.4,44.2c-2.5,31.9,17,57.5,30.5,63.6c13.5,6.1,5.5-23.1,5.5-23.1s-24.9-17.2-20-36.8c4.9-19.6,17.2-25.8,17.2-25.8L819.2,427.1z"/><path d="M666.8,328.8H326v-23.3h352.7L666.8,328.8z"/><path d="M650.7,370.6H312.9v-23.3h345.8L650.7,370.6z"/><path d="M638.4,465.4H303.2v-36.8h336.5L638.4,465.4z"/><path d="M673.3,605.3H328.2l-6.6-33.1h338.5L673.3,605.3z"/><path d="M833.5,450.7h78.6l0.6,13.5h67.5l-0.6,8.6l10.4,0.6v11l-8,0.6l-0.6,8.6l-67.5,0.6l-0.6,17.2l-82.9,1.2L833.5,450.7z M884.4,492.6v-28.3h-25.8l1.2,28.8 M888.1,492.6L888.1,492.6L888.1,492.6"/><path d="M115.6,487.2L72,487.8c-28.8,30.7-43.6-6.1-43.6-6.1L10,480.5v-31.9h19c0,0,1.8-14.7,22.7-16c20.9-1.2,22.7,16,22.7,16h41.1L115.6,487.2L115.6,487.2z M114.3,456.6l-22.7-0.6v23.3L115,478L114.3,456.6z"/><path d="M385.5,253.3C327.8,316.1,302.2,379,302.2,463c0,82.7,39.8,166,91.8,222.6l-41.3,1.2c-52-56.7-91.8-138.1-91.8-220.8c0-84,25.6-150.6,83.3-213.4L385.5,253.3z"/><path d="M238.8,252.6c-62.4,62.9-90.1,123.9-90.1,207.9c0,82.7,43,169.6,99.3,226.3l-44.6-0.6c-56.2-56.7-99.3-139.9-99.3-222.6c0-84,27.6-148.7,90.1-211.6L238.8,252.6z"/><path d="M193.5,252.6l570.7-0.6l-33,33.4H165L193.5,252.6z"/><path d="M175.6,653.7l565.6-0.1l33.5,33.4H201.3L175.6,653.7z"/><path d="M352.3,686.3l0.6,28.2l-28.7,18.4l330-0.6l22.1-16.6l-0.6-29.5l20.4-0.6l-2.7,31.6l-33.8,31.3H286l49.1-32.8v-30.7L352.3,686.3z"/><path d="M658,683.2l1.8,65.4h-30.7l-1.2-64.1L658,683.2z"/><path d="M347.3,710.4h327.3l-1.3,7.5h-326V710.4z"/><path d="M313.3,684.6l1.8,62.7h-30.7l-1.2-61.5L313.3,684.6z"/><path d="M718.6,252c-54.9,62.9-79.3,127.6-79.3,211.6c0,82.7,37.9,166,87.4,222.6h39.3c-49.5-56.7-87.4-139.9-87.4-222.6c0-84,24.3-148.7,79.3-211.6H718.6z"/><path d="M771.1,251.4c48.4,56.7,85.5,138.1,85.5,220.8c0,84-23.8,148.7-77.6,211.6l-2.7,3.2l-37.1-2c53.7-62.9,77.6-127.6,77.6-211.6c0-82.7-37.1-164.1-85.5-220.8L771.1,251.4z"/></g>
</svg>