<?xml version="1.0" encoding="utf-8"?>
<!-- Svg Vector Icons : http://www.onlinewebfonts.com/icon -->
<!DOCTYPE svg PUBLIC "-//W3C//DTD SVG 1.1//EN" "http://www.w3.org/Graphics/SVG/1.1/DTD/svg11.dtd">
<svg version="1.1" xmlns="http://www.w3.org/2000/svg" xmlns:xlink="http://www.w3.org/1999/xlink" x="0px" y="0px" viewBox="0 0 1000 1000" enable-background="new 0 0 1000 1000" xml:space="preserve">
<metadata> Svg Vector Icons : http://www.onlinewebfonts.com/icon </metadata>
<g><path d="M665.1,138.1h-32c-80.6,177.1-258.8,300.4-466,300.4c-2.3,0-4.5-0.2-6.8-0.3v27c4.6,0.1,9.1,0.5,13.7,0.5C395.3,465.9,584.8,330.5,665.1,138.1z M965.1,197.1C805,533.6,462.1,766.3,64.6,766.3c-18.3,0-36.5-0.7-54.6-1.7V792c18.1,1,36.3,1.6,54.6,1.6c408.6,0,761.1-239.4,925.4-585.5L965.1,197.1z M406,274.7c15.1,0,27.3-12.2,27.3-27.3c0-15.1-12.2-27.3-27.3-27.3s-27.3,12.2-27.3,27.3C378.7,262.5,390.9,274.7,406,274.7z M351.4,534.1c0,22.6,18.3,41,41,41c22.6,0,41-18.3,41-41c0-22.6-18.3-41-41-41C369.7,493.2,351.4,511.5,351.4,534.1z M815.7,206.4c22.6,0,41-18.3,41-41c0-22.6-18.3-41-41-41s-41,18.3-41,41C774.7,188.1,793.1,206.4,815.7,206.4z M679.1,711.7c-22.6,0-41,18.3-41,41s18.3,41,41,41s41-18.3,41-41S701.8,711.7,679.1,711.7z M160.2,657c15.1,0,27.3-12.2,27.3-27.3c0-15.1-12.2-27.3-27.3-27.3s-27.3,12.2-27.3,27.3C132.9,644.8,145.1,657,160.2,657z M638.2,356.6c-15.1,0-27.3,12.2-27.3,27.3c0,15.1,12.2,27.3,27.3,27.3c15.1,0,27.3-12.2,27.3-27.3C665.5,368.8,653.3,356.6,638.2,356.6z M897.6,547.8c-15.1,0-27.3,12.2-27.3,27.3c0,15.1,12.2,27.3,27.3,27.3s27.3-12.2,27.3-27.3C924.9,560,912.7,547.8,897.6,547.8z M419.7,820.9c-15.1,0-27.3,12.2-27.3,27.3c0,15.1,12.2,27.3,27.3,27.3c15.1,0,27.3-12.2,27.3-27.3C447,833.1,434.8,820.9,419.7,820.9z"/></g>
</svg>