<?xml version="1.0" encoding="utf-8"?>
<!-- Svg Vector Icons : http://www.onlinewebfonts.com/icon -->
<!DOCTYPE svg PUBLIC "-//W3C//DTD SVG 1.1//EN" "http://www.w3.org/Graphics/SVG/1.1/DTD/svg11.dtd">
<svg version="1.1" xmlns="http://www.w3.org/2000/svg" xmlns:xlink="http://www.w3.org/1999/xlink" x="0px" y="0px" viewBox="0 0 1000 1000" enable-background="new 0 0 1000 1000" xml:space="preserve">
<metadata> Svg Vector Icons : http://www.onlinewebfonts.com/icon </metadata>
<g><g transform="translate(0.000000,511.000000) scale(0.100000,-0.100000)"><path d="M2278,2632.3c-517.1-82.3-984.3-316-1375-687.5C355.3,1422,70,728.7,102.5,8.6c42.1-938.4,584.1-1758,1445.9-2190.8c564.9-285.3,1241-337.1,1850-143.6c655,208.8,1244.8,720.1,1541.6,1338.6c114.9,239.4,166.6,388.8,212.6,630.1c21.1,105.3,40.2,193.4,42.1,195.3c1.9,1.9,1003.5,220.2,2225.3,484.5c1221.8,266.2,2257.9,492.2,2303.8,503.7c49.8,11.5,99.6,42.1,128.3,76.6l47.9,57.5v785.2v785.2l-65.1,65.1l-65.1,65.1l-3665.4-1.9C3137.9,2657.2,2410.2,2653.4,2278,2632.3z M9494,1734.1c1.9-283.4-1.9-522.8-11.5-532.4c-13.4-13.4-4217-934.6-4264.9-934.6c-11.5,0-30.6,78.5-44,178.1c-80.5,630.1-446.2,1260.1-961.4,1656.5c-90,68.9-170.4,132.1-181.9,141.7c-9.6,7.7,1214.2,13.4,2719.4,11.5l2738.6-5.7L9494,1734.1z M3067,2212.9c319.8-61.3,635.8-201.1,890.5-392.6c430.9-323.6,708.6-790.9,800.5-1342.5c44-252.8,30.6-662.6-26.8-892.4c-197.3-790.9-769.9-1363.5-1560.8-1560.8c-229.8-57.5-639.6-70.9-892.4-26.8C1481.4-1870,860.9-1339.6,613.8-577.4c-76.6,233.6-105.3,417.5-105.3,681.8c0,455.8,116.8,850.3,361.9,1225.6c95.8,147.5,407.9,459.6,555.4,555.4c241.3,159,513.2,270,787.1,323.6C2392.9,2245.4,2887,2247.4,3067,2212.9z"/><path d="M7937,1795.4c-101.5-90-93.8-256.6,15.3-321.7c55.5-34.5,97.7-38.3,528.5-38.3h465.4l65.1,65.1c93.8,93.8,86.2,218.3-19.2,302.6c-36.3,30.6-93.8,34.5-522.8,34.5C7996.4,1837.5,7986.8,1837.5,7937,1795.4z"/><path d="M2358.5,1399C1736.1,1240,1286,648.3,1326.2,37.4c21.1-335.1,168.5-637.7,432.8-884.8c298.8-281.5,670.3-409.8,1039.9-360c819.6,113,1367.4,957.5,1108.8,1710.2c-99.6,285.4-325.6,570.7-582.2,729.6C3034.5,1414.3,2664.9,1477.5,2358.5,1399z M2800.8,1012.1c365.8-57.5,660.7-321.7,739.2-668.4c28.7-120.6,24.9-375.4-5.7-488.3c-63.2-237.5-216.4-438.6-415.6-545.8c-157-84.3-283.4-114.9-467.3-114.9c-287.3,0-492.2,82.3-670.3,270c-319.8,335.1-337.1,888.6-36.4,1254.4c118.7,145.5,337.1,264.3,545.8,294.9C2641.9,1035.1,2649.6,1035.1,2800.8,1012.1z"/></g></g>
</svg>