<?xml version="1.0" encoding="utf-8"?>
<!-- Svg Vector Icons : http://www.onlinewebfonts.com/icon -->
<!DOCTYPE svg PUBLIC "-//W3C//DTD SVG 1.1//EN" "http://www.w3.org/Graphics/SVG/1.1/DTD/svg11.dtd">
<svg version="1.1" xmlns="http://www.w3.org/2000/svg" xmlns:xlink="http://www.w3.org/1999/xlink" x="0px" y="0px" viewBox="0 0 1000 1000" enable-background="new 0 0 1000 1000" xml:space="preserve">
<metadata> Svg Vector Icons : http://www.onlinewebfonts.com/icon </metadata>
<g><g transform="translate(0.000000,511.000000) scale(0.100000,-0.100000)"><path d="M2680.1,4910.2c-88.4-40.4-159.2-78.3-159.2-85.9c0-5.1,45.5-111.2,101.1-230c55.6-121.3,101.1-224.9,101.1-230c0-5-25.3-17.7-55.6-30.3c-53.1-17.7-65.7-2.5-164.3,202.2c-58.1,123.8-111.2,224.9-116.2,224.9c-22.8,0-346.2-154.2-346.2-164.3c0-7.6,45.5-111.2,101.1-230c55.6-121.3,98.5-222.4,96-224.9c-5-2.5-32.8-17.7-60.6-32.8c-50.5-27.8-60.6-12.6-159.2,197.1c-55.6,126.4-108.7,227.4-116.2,227.4c-40.4,0-341.2-151.6-341.2-171.8c0-12.6,45.5-118.8,98.6-235l101.1-212.3l-55.6-30.3c-53.1-27.8-60.7-17.7-166.8,189.5c-60.6,121.3-113.7,224.9-118.8,230c-17.7,20.2-338.6-146.6-338.6-174.4c0-15.2,27.8-80.9,60.6-146.6c32.9-65.7,78.3-159.2,98.6-209.8c37.9-91,35.4-93.5-22.7-121.3c-58.1-25.3-63.2-17.7-164.3,199.6c-58.1,126.4-118.8,227.4-133.9,227.4c-15.2-2.5-98.6-37.9-184.5-83.4l-154.1-80.9l108.7-230l108.7-232.5l-63.2-27.8c-58.1-27.8-63.2-20.2-161.7,192.1c-55.6,121.3-106.1,227.4-113.7,232.5c-5,7.6-88.4-25.3-184.5-73.3L100,3692.1l88.4-192.1c126.4-270.4,126.4-270.4,35.4-315.9c-65.7-35.4-78.3-55.6-78.3-131.4c0-283,389.2-604,773.3-636.8c209.7-15.2,331,17.7,710.1,197.1c174.4,83.4,331,151.6,348.7,151.6c27.8,0,2034.3-4253.1,2034.3-4311.2c0-12.6-85.9-65.7-189.5-121.3c-614.1-313.3-1165-874.4-1465.7-1491c-204.7-414.4-267.9-689.9-283-1195.3L2061-4766h3919.5H9900v260.3c0,141.5-17.7,369-37.9,505.4C9665-2691.3,8570.8-1614.7,7087.4-1271l-270.4,63.2l-103.6-118.8c-141.5-159.2-366.4-323.5-513-371.5c-184.5-63.2-447.3-37.9-619.1,53.1c-123.8,68.2-257.8,194.6-371.5,353.8l-50.5,73.3l-184.5-32.9c-101.1-17.7-270.4-60.6-376.5-93.5c-106.1-32.8-194.6-55.6-199.6-50.5c-17.7,17.7-2031.8,4341.5-2024.2,4349.1c5,5.1,174.4,88.4,379.1,187c419.5,202.2,553.4,313.4,667.1,553.4c80.9,169.3,106.1,417,60.6,586.3c-17.7,63.2-37.9,179.4-43,260.3c-7.6,78.3-17.7,144-22.7,144c-7.6,0-80.9-35.4-166.8-78.3c-91-45.5-161.7-68.2-166.8-53.1c-30.3,91-209.8,434.7-224.9,432.1C2846.9,4986,2766.1,4950.6,2680.1,4910.2z M3051.6,3861.4c-30.3-60.6-91-139-136.5-171.8c-43-32.9-459.9-237.5-924.9-459.9c-818.8-386.6-851.6-399.3-1010.8-401.8c-126.4,0-184.5,12.6-252.7,55.6l-88.4,55.6l379.1,179.4C3130,4116.7,3089.5,4099,3097.1,4035.8C3102.2,4003,3081.9,3924.6,3051.6,3861.4z M7183.4-1693.1c1170-315.9,2049.4-1195.3,2271.8-2269.3c22.7-106.1,40.4-247.7,40.4-310.8v-113.7H7645.8H5793.5l-598.9,1283.8c-328.5,705.1-601.4,1296.4-606.5,1316.6c-5,25.3,48,50.5,184.5,88.4l192.1,50.5l149.1-133.9c270.4-240.1,649.4-381.6,932.5-346.2c298.2,37.9,626.7,199.6,818.8,404.3c48,50.5,88.4,91,88.4,91C6956-1632.4,7059.6-1660.2,7183.4-1693.1z M4709.4-3009.7c272.9-583.8,528.2-1132.1,568.6-1218.1l70.7-159.2H3893.1H2437.5l17.7,189.5c78.3,876.9,662.1,1698.2,1556.7,2193.5c91,50.5,171.8,83.4,182,73.3C4204-1940.7,4436.5-2425.9,4709.4-3009.7z"/><path d="M4924.2,4275.9c-169.3-83.4-230-217.3-391.7-839l-78.3-305.8l-214.8-27.8c-952.7-123.8-1468.2-394.2-1405.1-730.3c48-245.1,452.3-452.3,1124.5-571.1c161.7-30.3,298.2-55.6,303.3-60.6c5.1-5.1-35.4-48-88.4-93.5c-136.5-121.3-212.3-298.2-209.7-500.4c0-267.9,96-457.4,298.2-581.2c91-55.6,111.2-88.4,194.6-315.9c283-770.7,616.6-1248.4,995.7-1425.3c131.4-63.2,161.7-65.7,543.3-65.7c381.6,0,411.9,2.5,543.3,65.7c374,176.9,697.5,626.7,970.4,1364.6c108.7,285.6,128.9,320.9,207.2,363.9c108.7,58.1,232.5,209.7,278,336.1c91,255.2,12.6,591.3-176.9,758.1c-53.1,45.5-91,88.4-85.9,93.5c5.1,5.1,116.2,27.8,247.6,50.5c1023.5,171.8,1440.4,548.4,1020.9,917.3c-199.6,176.9-780.9,346.2-1425.3,414.5c-50.5,5-68.2,30.3-96,121.3c-103.6,353.8-219.9,707.6-260.3,785.9c-63.2,126.4-204.7,245.1-318.4,265.3c-60.6,12.6-222.4-2.5-437.2-37.9c-434.7-68.2-586.3-68.2-975.5,10.1C5101.1,4344.1,5063.2,4346.6,4924.2,4275.9z M5452.3,3874.1c298.2-68.2,735.4-73.3,1010.8-12.6c227.4,48,363.9,53.1,396.8,10.1c27.8-35.4,101.1-247.6,197.1-583.7c55.6-202.2,58.1-230,27.8-293.1c-128.9-247.7-791-424.6-1341.9-358.9c-439.7,50.5-801.1,209.8-869.3,379.1c-27.8,65.7-20.2,123.8,73.3,475.1c60.6,219.8,113.7,406.9,118.8,419.5C5083.4,3939.8,5204.7,3929.7,5452.3,3874.1z M4674,2623.2c573.6-535.7,2049.4-530.7,2625.6,7.6l123.8,116.2l182-17.7c265.3-25.3,652-106.1,897.1-192.1c232.5-80.9,260.3-93.5,260.3-126.4c0-53.1-475.1-182-972.9-262.8c-518.1-85.9-841.5-103.6-1794.2-103.6s-1276.2,17.7-1794.2,103.6c-507.9,83.4-972.9,209.7-972.9,265.3c0,60.6,528.2,217.3,972.9,285.6C4540.1,2752.1,4535,2752.1,4674,2623.2z M5743,1660.4c561-7.6,1031-2.5,1223.1,15.2c207.2,17.7,326,17.7,346.2,0c15.2-12.6,35.4-68.2,45.5-126.4c12.6-78.3,30.3-106.1,85.9-126.4c98.6-37.9,154.2-96,179.4-192.1c48-171.8-65.7-361.4-214.8-361.4c-80.9,0-80.9,0-182-295.7c-283-823.8-566.1-1268.6-889.5-1400c-116.3-48-561-48-694.9,0c-204.7,73.3-485.2,411.9-659.6,798.6c-37.9,83.4-126.4,315.9-197.1,518c-103.6,293.1-139,366.4-179.4,374c-136.5,20.2-169.3,37.9-214.8,113.7c-96,156.7-73.3,237.6,146.6,495.3c156.7,184.5,204.7,227.4,245.1,217.3C4810.5,1680.6,5242.6,1667.9,5743,1660.4z"/></g></g>
</svg>