<?xml version="1.0" encoding="utf-8"?>
<!-- Svg Vector Icons : http://www.onlinewebfonts.com/icon -->
<!DOCTYPE svg PUBLIC "-//W3C//DTD SVG 1.1//EN" "http://www.w3.org/Graphics/SVG/1.1/DTD/svg11.dtd">
<svg version="1.1" xmlns="http://www.w3.org/2000/svg" xmlns:xlink="http://www.w3.org/1999/xlink" x="0px" y="0px" viewBox="0 0 1000 1000" enable-background="new 0 0 1000 1000" xml:space="preserve">
<metadata> Svg Vector Icons : http://www.onlinewebfonts.com/icon </metadata>
<g><g transform="translate(0.000000,511.000000) scale(0.100000,-0.100000)"><path d="M3897,4980.3c-369.7-78.3-612.8-331.5-695.2-721.3c-62.3-291.3-24.1-444,118.5-492.2c54.2-18.1,88.4-18.1,142.6,0c106.5,36.2,142.7,96.4,156.7,271.2c30.1,353.6,190.9,518.3,506.3,518.3c275.2-2,438-88.4,528.4-283.3l54.2-114.5l6-992.5c4-546.5,0-1006.6-6-1022.6c-8-24.1-64.3,22.1-206.9,168.8c-269.2,277.3-313.4,309.4-413.9,309.4c-130.6-2-213-90.4-213-233.1c0-68.3,20.1-94.4,245.1-323.5l245.1-247.1h-353.6h-353.6l-24.1,60.3c-68.3,162.7-275.3,190.9-385.8,52.2c-20.1-22.1-36.2-58.3-36.2-76.4c0-32.1-86.4-36.2-1376.2-40.2l-1376.2-6l-54.3-56.3c-46.2-46.2-56.3-72.3-56.3-156.7c0-90.4,8-108.5,66.3-160.7l64.3-58.3H5000h4520.5l64.3,58.3c58.3,52.2,66.3,70.3,66.3,160.7c0,84.4-10.1,110.5-56.3,156.7l-54.3,56.3l-1989,10l-1989,10l213,211c223,221,269.2,285.3,269.2,371.7c0,126.6-90.4,208.9-229,211h-96.4L5440,2348.4l-277.3-275.2l-6,1082.9l-6,1082.9l-54.3,138.6c-136.6,353.6-385.7,552.5-763.5,614.8C4168.2,5018.5,4055.7,5016.5,3897,4980.3z"/><path d="M3270.1,3467.5c-46.2-48.2-58.3-76.4-58.3-146.7c0-104.5,42.2-170.8,132.6-208.9c182.8-76.3,365.6,118.5,279.3,299.4C3563.5,3539.8,3374.6,3569.9,3270.1,3467.5z"/><path d="M3280.2,2714c-56.3-56.3-68.3-82.4-68.3-154.7c2-235.1,303.4-307.4,411.9-98.4c38.2,74.3,38.2,126.6,0,200.9c-36.2,70.3-124.6,120.6-213,120.6C3366.6,2782.4,3328.4,2762.3,3280.2,2714z"/><path d="M989.8,875.7c-96.4-58.3-114.5-140.6-78.4-345.6C1024-122.8,1439.8-695.4,2127-1149.5c540.4-357.6,1249.7-618.8,1958.9-717.3c132.6-20.1,261.2-38.2,287.3-44.2l44.2-8v-1364.2v-1364.2l52.2-62.3c64.3-78.3,160.7-98.4,255.2-52.2c138.6,66.3,134.6,16.1,134.6,1494.8v1328H4990h130.6v-1326c0-1468.7-4-1432.5,126.6-1492.8c86.4-42.2,120.5-42.2,194.9-4c126.6,66.3,120.5-14.1,120.5,1480.7V-1921l66.3,10c34.2,6,164.7,26.1,285.3,42.2C7613.8-1619.6,8939.8-601,9096.6,572.3c22.1,166.8-2,251.1-84.4,301.4c-62.3,40.2-136.6,40.2-4012.2,40.2C1142.5,913.9,1050.1,911.9,989.8,875.7z M8616.4,451.8c0-66.3-142.6-371.7-243.1-522.4c-476.2-711.2-1456.6-1219.5-2662.1-1380.3c-315.4-40.2-1070.9-46.2-1354.2-8C2994.9-1280.1,1974.3-725.6,1536.3,72.1c-64.3,118.5-152.7,339.5-152.7,383.8c0,8,1627.4,16.1,3616.4,16.1C7473.2,471.9,8616.4,465.9,8616.4,451.8z"/></g></g>
</svg>