<?xml version="1.0" encoding="utf-8"?>
<!-- Svg Vector Icons : http://www.onlinewebfonts.com/icon -->
<!DOCTYPE svg PUBLIC "-//W3C//DTD SVG 1.1//EN" "http://www.w3.org/Graphics/SVG/1.1/DTD/svg11.dtd">
<svg version="1.1" xmlns="http://www.w3.org/2000/svg" xmlns:xlink="http://www.w3.org/1999/xlink" x="0px" y="0px" viewBox="0 0 1000 1000" enable-background="new 0 0 1000 1000" xml:space="preserve">
<metadata> Svg Vector Icons : http://www.onlinewebfonts.com/icon </metadata>
<g><g transform="translate(0.000000,511.000000) scale(0.100000,-0.100000)"><path d="M3509.5,4576.2c-81.8-40.9-97.4-101.3-97.4-378v-259.1H2102.9c-849.5,0-1336.5-7.8-1383.3-21.4c-138.3-37-132.5,50.7-132.5-1720.4c0-1050.1,7.8-1605.4,19.5-1640.5c11.7-29.2,35.1-64.3,54.5-77.9c27.3-21.4,835.8-25.3,4335-27.3H9298l46.8,48.7l48.7,46.8l1.9,1603.5c2,882.6,0,1621-1.9,1642.4c-1.9,21.4-25.3,60.4-50.6,87.7l-46.8,48.7l-1363.8,5.8l-1363.8,5.8v270.8c0,257.2-1.9,272.8-46.8,325.4l-46.7,54.6l-1459.3,3.9C3871.9,4599.6,3548.5,4595.7,3509.5,4576.2z M6237.2,2516.8V763.3l-1241.1,3.9l-1243,5.8l-5.8,1749.6l-3.9,1747.6h1246.9h1246.9V2516.8z M3412.1,2526.6V1445.2H2165.2H918.3v1081.3v1081.3h1246.9h1246.9V2526.6z M9072,2185.6V773.1H7825H6578.1l-5.8,1393c-2,765.7,0,1404.7,5.8,1418.4c5.8,19.5,266.9,23.4,1250.8,19.5l1243-5.8V2185.6z M3412.1,938.7V763.3L2171,767.2l-1243,5.8l-5.8,171.4l-5.9,169.5h1248.9h1246.9V938.7z"/><path d="M5750.1,2195.4v-243.5H5904c181.2,0,171.4-15.6,163.7,272.8l-5.8,204.6L5906,2435l-155.9,5.8V2195.4z"/><path d="M2925,2195.4v-243.5h155.9h155.9v243.5v243.5h-155.9H2925V2195.4z"/><path d="M8575.1,2195.4v-243.5h165.6h165.6v243.5v243.5h-165.6h-165.6V2195.4z"/><path d="M144.8-1062.2c-42.9-7.8-44.8-17.5-44.8-163.7v-153.9h243.5h243.5v-1091.1c0-1044.3-1.9-1091.1-35.1-1091.1c-19.5,0-54.6-19.5-77.9-44.8c-40.9-42.9-42.9-64.3-42.9-356.5c0-286.4,3.9-315.6,39-354.6c21.4-23.4,60.4-46.8,83.8-52.6c23.4-5.8,2039.9-7.8,4479.2-5.8l4436.3,5.8l44.8,44.8c42.9,40.9,44.8,62.3,50.6,331.2c7.8,331.2-5.8,383.8-103.3,424.7l-68.2,27.3v1081.3v1081.3h253.3H9900v153.9v152l-179.2,11.7C9518.1-1050.5,213-1050.5,144.8-1062.2z M3412.1-2461.1v-1081.3H2165.2H918.3v1081.3v1081.3h1246.9h1246.9V-2461.1z M6237.2-2461.1v-1081.3H4990.3H3743.3v1067.7c0,588.4,5.8,1075.5,13.6,1081.3c5.8,7.8,566.9,13.6,1246.9,13.6h1233.3V-2461.1z M9077.8-2465l3.9-1077.4H7825H6568.4v1067.7c0,588.4,5.8,1075.5,13.6,1081.3c5.8,7.8,570.8,11.7,1250.8,9.7l1239.1-5.8L9077.8-2465z M9237.6-3961.3v-87.7l-4241.5,3.9l-4243.4,5.8l-5.8,54.6c-3.9,31.2-1.9,68.2,3.9,83.8c9.7,23.4,611.8,27.3,4249.3,27.3h4237.6V-3961.3z"/><path d="M2925-1974v-243.5h155.9h155.9v243.5v243.5h-155.9H2925V-1974z"/><path d="M5750.1-1974v-243.5h161.7h159.8l-1.9,210.4c-2,115-3.9,224.1-5.9,243.5c-1.9,29.2-23.4,33.1-157.8,33.1h-155.9V-1974z"/><path d="M8575.1-1974v-243.5h165.6h165.6v243.5v243.5h-165.6h-165.6V-1974z"/></g></g>
</svg>