<?xml version="1.0" encoding="utf-8"?>
<!-- Svg Vector Icons : http://www.onlinewebfonts.com/icon -->
<!DOCTYPE svg PUBLIC "-//W3C//DTD SVG 1.1//EN" "http://www.w3.org/Graphics/SVG/1.1/DTD/svg11.dtd">
<svg version="1.1" xmlns="http://www.w3.org/2000/svg" xmlns:xlink="http://www.w3.org/1999/xlink" x="0px" y="0px" viewBox="0 0 1000 1000" enable-background="new 0 0 1000 1000" xml:space="preserve">
<metadata> Svg Vector Icons : http://www.onlinewebfonts.com/icon </metadata>
<g><path d="M939.7,670.4c-1.7,0-295.1-0.5-542.5-0.9l-337-0.6c-27.7,0-50.2-22.6-50.2-50.3V379.9c0-27.7,22.5-50.3,50.2-50.3s50.3,22.6,50.3,50.3V544h779V381.4c0-27.7,22.5-50.3,50.2-50.3c27.7,0,50.3,22.6,50.3,50.3v238.7C990,647.9,967.4,670.4,939.7,670.4z M60.2,367.3c-6.9,0-12.5,5.6-12.5,12.6v238.7c0,7,5.6,12.6,12.5,12.6c0.7,0,156.6,0.3,337,0.6c247.1,0.4,540.1,0.9,542.5,0.9c6.9,0,12.6-5.6,12.6-12.5V381.4c0-7-5.6-12.6-12.6-12.6c-6.9,0-12.6,5.6-12.6,12.6v181.4c0,10.4-8.4,18.8-18.8,18.8H91.7c-10.4,0-18.9-8.4-18.9-18.8V379.9C72.8,372.9,67.2,367.3,60.2,367.3z"/></g>
</svg>