<?xml version="1.0" encoding="utf-8"?>
<!-- Svg Vector Icons : http://www.onlinewebfonts.com/icon -->
<!DOCTYPE svg PUBLIC "-//W3C//DTD SVG 1.1//EN" "http://www.w3.org/Graphics/SVG/1.1/DTD/svg11.dtd">
<svg version="1.1" xmlns="http://www.w3.org/2000/svg" xmlns:xlink="http://www.w3.org/1999/xlink" x="0px" y="0px" viewBox="0 0 1000 1000" enable-background="new 0 0 1000 1000" xml:space="preserve">
<metadata> Svg Vector Icons : http://www.onlinewebfonts.com/icon </metadata>
<g><g transform="translate(0.000000,511.000000) scale(0.100000,-0.100000)"><path d="M4560.1,4981.7c-443.6-71.1-730.2-198.8-818.1-368.3c-27.2-56.5-20.9-119.3,117.2-885.1c79.5-452,146.5-855.8,146.5-895.5c0-41.8,18.8-96.2,39.8-125.5c69.1-87.9,282.5-184.1,498-230.2c156.9-31.4,217.6-54.4,269.9-98.3l67-60.7l-71.1-69.1c-92.1-87.9-92.1-148.6,2.1-242.7l71.1-71.1l-71.1-64.9c-92.1-79.5-94.2-142.3-4.2-240.6l71.1-75.3l-71.1-62.8c-41.8-37.7-69-79.5-69-110.9c0-29.3,31.4-85.8,69-127.6l71.1-75.3L4807,1115c-92.1-81.6-92.1-152.8,0-242.7l71.1-67l-71.1-71.1c-90-90-87.9-150.6,2.1-238.5l73.2-71.1l-73.2-67c-92.1-87.9-92.1-148.6,0-238.5l73.2-71.2l-73.2-66.9c-92.1-87.9-92.1-148.6,2.1-240.6l73.2-71.1l-73.2-67c-94.2-85.8-94.2-146.5,0-238.6l73.2-69l-73.2-71.1c-71.1-69-96.3-156.9-52.3-184.1c41.9-25.1,18.8-41.8-87.9-69c-148.5-33.5-288.7-106.7-336.9-173.7c-37.7-52.3-37.7-58.6,23-397.6c35.6-188.3,58.6-349.4,52.3-357.8c-4.2-10.5-31.4-16.7-58.6-16.7s-148.6-18.8-269.9-41.9c-889.3-171.6-1669.7-567-2343.5-1184.3l-138.1-127.7l-156.9-393.4c-156.9-391.3-156.9-393.4-121.4-464.5c127.6-272,880.9-462.4,2276.5-575.4c449.9-35.6,2347.6-37.7,2803.8,0c1391.4,110.9,2169.8,309.7,2282.8,581.7c29.3,69.1,25.1,79.5-140.2,466.6l-169.5,397.6l-150.6,133.9C7464.3-2509,6694.3-2142.9,5690-1979.7c-121.3,18.8-119.3-23-39.7,420.6c52.3,299.2,52.3,301.3,12.5,355.7c-62.8,85.8-161.1,131.8-410.1,194.6c-125.5,31.4-242.7,71.2-259.5,87.9c-25.1,25.1-23,33.5,23,62.8c29.3,20.9,87.9,41.9,131.8,48.1c106.7,16.7,133.9,39.8,133.9,113c0,67-56.5,102.5-167.4,102.5c-31.4,0-79.5,16.7-106.7,39.8l-48.1,39.7l71.1,43.9c39.7,23,102.5,43.9,136,43.9c79.5,0,115.1,33.5,115.1,108.8c0,67-35.6,90-165.3,106.7c-50.2,6.3-106.7,25.1-123.4,44c-27.2,27.2-23,35.6,39.7,73.2c39.8,25.1,100.4,43.9,133.9,43.9c79.5,0,115.1,33.5,115.1,108.8c0,64.9-48.1,100.4-136,100.4c-52.3,0-177.9,52.3-177.9,73.2c0,27.2,142.3,94.2,198.8,94.2c79.5,0,115.1,33.5,115.1,108.8c0,64.9-48.1,100.4-136,100.4c-60.7,0-177.9,54.4-177.9,81.6c0,25.1,131.8,85.8,188.3,85.8c79.5,0,125.5,39.8,125.5,104.6c0,69-48.1,104.6-136,104.6c-60.7,0-177.9,54.4-177.9,81.6c0,25.1,131.8,85.8,188.3,85.8c79.5,0,125.5,39.8,125.5,104.6c0,69-48.1,104.6-136,104.6c-58.6,0-177.9,54.4-177.9,79.5c0,29.3,119.3,87.9,177.9,87.9c87.9,0,136,35.6,136,100.4c0,77.4-35.6,108.8-119.3,108.8c-71.2,0-194.6,50.2-194.6,79.5c0,29.3,119.3,87.9,177.9,87.9c87.9,0,136,35.6,136,100.4c0,75.3-35.6,108.8-108.8,108.8c-73.2,0-205,52.3-205,81.6c0,31.4,113,85.8,177.9,85.8c87.9,0,136,35.6,136,100.4c0,75.3-33.5,108.8-113,110.9c-35.6,2.1,6.3,10.5,90,20.9c322.2,37.7,631.9,152.7,709.3,265.7c29.3,41.8,83.7,299.2,198.8,945.8c173.7,979.2,171.6,949.9,44,1071.3c-121.4,113-426.9,219.7-772.1,267.8C5238,5019.3,4763.1,5015.2,4560.1,4981.7z M5681.6,4776.6c200.9-46,376.6-121.4,418.5-182c37.7-52.3,35.6-67-85.8-753.3c-69-385-129.7-726.1-136-755.3l-12.6-54.4l-98.3,48.1c-177.9,83.7-336.9,115.1-659.1,127.6c-347.3,12.5-546.1-10.5-784.6-92.1c-85.8-27.2-156.9-48.1-159-43.9c-2.1,2.1-62.8,334.8-133.9,736.5c-94.2,535.7-123.5,738.6-106.7,767.9c41.8,77.4,269.9,167.4,562.8,219.7C4700.3,4833.1,5489.1,4820.6,5681.6,4776.6z M5491.2,2991.8c192.5-39.8,313.9-100.4,313.9-152.7c0-85.8-136-142.3-472.9-198.8c-60.7-8.4-64.9-6.3-54.4,41.8c12.5,67-29.3,113-100.4,113c-81.6,0-226-54.4-307.6-117.2c-67-50.2-75.3-52.3-221.8-31.4c-261.5,37.7-410.1,94.2-437.3,171.6c-16.7,43.9,2.1,69,77.4,106.7C4514.1,3040,5100,3071.3,5491.2,2991.8z M5424.3-1232.7c102.5-41.9,102.5-6.3,18.8-445.7l-46-236.4h-397.5H4602l-46,246.9c-79.5,441.5-81.6,395.5,20.9,433.1c140.2,50.2,154.8,52.3,464.5,46.1C5267.3-1192.9,5355.2-1203.4,5424.3-1232.7z M5430.6-2122c993.9-100.4,1933.3-518.9,2646.8-1180.1c127.6-117.2,161.1-163.2,223.9-309.7c41.8-96.2,73.2-175.7,71.2-177.8c-2.1,0-75.3,20.9-161.1,50.2c-544,184.1-1632.1,305.5-2960.7,334.8c-1265.9,27.2-2839.4-125.5-3462.9-334.8c-85.8-29.3-159-50.2-163.2-46c-2.1,2.1,25.1,81.6,62.8,175.8c54.4,144.4,85.8,190.4,190.4,286.7C2833.9-2437.9,4145.8-1994.3,5430.6-2122z M4344.6-3708c173.7-487.5,780.4-621.4,1148.7-253.2c79.5,79.5,186.2,265.7,186.2,328.5c0,31.4,90,31.4,533.6,4.2c1198.9-77.4,2167.7-263.6,2276.5-441.5c35.6-56.5,0-102.5-115.1-154.8c-320.1-146.5-1071.3-274.1-2046.3-349.4c-460.3-35.6-2176.1-35.6-2646.9,0c-1019,77.4-1841.3,221.8-2096.6,372.4c-140.2,81.6-115.1,150.7,85.8,236.4c374.5,161.1,1611.1,338.9,2481.6,355.7l156.9,2.1L4344.6-3708z M5480.8-3664c-27.2-115.1-159-249-292.9-299.2c-90-33.5-307.6-29.3-399.6,10.4c-136,56.5-280.4,223.9-280.4,324.3c0,12.5,167.4,20.9,493.8,20.9h493.8L5480.8-3664z"/></g></g>
</svg>