<?xml version="1.0" encoding="utf-8"?>
<!-- Svg Vector Icons : http://www.onlinewebfonts.com/icon -->
<!DOCTYPE svg PUBLIC "-//W3C//DTD SVG 1.1//EN" "http://www.w3.org/Graphics/SVG/1.1/DTD/svg11.dtd">
<svg version="1.1" xmlns="http://www.w3.org/2000/svg" xmlns:xlink="http://www.w3.org/1999/xlink" x="0px" y="0px" viewBox="0 0 1000 1000" enable-background="new 0 0 1000 1000" xml:space="preserve">
<metadata> Svg Vector Icons : http://www.onlinewebfonts.com/icon </metadata>
<g><g transform="translate(0.000000,511.000000) scale(0.100000,-0.100000)"><path d="M4546.6,4764.3c-920.2-205.6-1701.6-979.3-2076.8-2056.2C1960.9,1245.6,2295-502.3,3269.2-1486.7c254.5-254.5,475.5-413.8,778.8-555.2c362.4-169.7,537.2-205.6,961.3-205.6c313.6,2.6,388.1,10.3,586,69.4c434.4,133.7,789.1,354.7,1130.9,709.4C7194.1-982.9,7505-366,7674.7,410.2c48.8,233.9,56.6,347,59.1,848.2c0,634.9-23.1,817.4-169.6,1298c-231.3,750.5-678.6,1413.7-1220.9,1801.8c-190.2,136.2-580.9,323.9-794.2,383C5325.4,4802.9,4775.4,4815.7,4546.6,4764.3z M5412.8,4293.9c750.5-192.8,1388-873.9,1693.8-1812.1c241.6-732.5,239.1-1704.1-5.1-2431.5c-390.7-1174.6-1256.9-1899.4-2205.3-1842.9c-282.7,18-455,61.7-709.4,190.2c-233.9,115.7-344.4,197.9-573.2,426.7C2636.9-214.4,2400.4,1626,3081.6,2980.5c280.2,552.6,722.3,1007.6,1179.8,1210.6C4608.3,4342.8,5058.1,4383.9,5412.8,4293.9z"/><path d="M5407.7,3157.9c-77.1-30.8-1914.9-1858.3-1968.9-1956c-54-102.8-43.7-169.6,38.6-254.5c97.7-97.7,195.3-97.7,326.4,0c197.9,146.5,1881.5,1863.5,1899.5,1938c28.3,105.4-33.4,223.6-131.1,264.7c-48.8,20.6-90,36-92.5,33.4C5474.5,3183.6,5443.7,3170.7,5407.7,3157.9z"/><path d="M5263.8,2006.4c-161.9-120.8-853.3-832.8-881.6-909.9c-59.1-151.7,54-300.7,223.6-300.7c84.8,0,128.5,36,539.8,444.7c244.2,241.6,462.7,475.5,483.2,514.1c51.4,95.1,25.7,208.2-59.1,275C5477.1,2101.5,5382,2093.8,5263.8,2006.4z"/><path d="M832.5,2425.3c-293-79.7-519.2-269.9-650.3-544.9c-74.6-156.8-82.3-195.3-82.3-429.2c0-213.3,10.3-277.6,59.1-383C269.6,824,498.4,605.6,724.6,528.4l95.1-33.4l12.9-331.6c12.9-269.9,25.7-349.6,69.4-434.4c64.3-120.8,164.5-218.5,290.4-285.3c192.8-102.8,588.6-33.4,668.3,115.7c46.3,90,30.8,205.6-41.1,275c-54,56.5-82.2,64.3-172.2,54c-59.1-5.1-131.1-20.6-159.4-28.3c-36-12.9-77.1,0-123.4,36c-66.8,54-69.4,61.7-69.4,323.9c0,195.3,7.7,267.3,33.4,267.3c77.1,0,359.8,161.9,465.2,267.3c562.9,560.3,259.6,1537.1-526.9,1686.1C1092.1,2474.2,1004.8,2471.6,832.5,2425.3z M1295.2,1949.8c154.2-69.4,203.1-115.7,272.5-267.3c97.7-203.1,72-403.5-72-568C1179.5,754.6,593.5,932,554.9,1399.8C519,1823.9,919.9,2119.5,1295.2,1949.8z"/><path d="M8651.4,2425.3c-483.2-128.5-773.7-534.6-745.4-1041c23.1-377.8,267.3-717.1,616.9-850.8l149.1-59.1v-275c0-269.9-2.6-277.6-66.8-318.7c-54-38.6-79.7-38.6-149.1-15.4c-123.4,46.3-228.7,38.6-293-20.6c-128.5-118.2-90-303.3,77.1-388.1c233.9-118.2,519.2-79.7,701.7,97.7c159.4,154.2,192.8,257,192.8,611.8v311l97.7,33.4c254.5,90,454.9,272.5,575.8,532.1c272.4,580.9-87.4,1277.4-727.4,1398.3C8908.5,2474.2,8818.5,2471.6,8651.4,2425.3z M9108.9,1949.8c154.2-69.4,203.1-115.7,272.4-267.3c97.7-203.1,72-403.5-72-568c-236.5-269.9-650.3-251.9-855.9,36c-100.3,146.5-120.8,383-43.7,534.6C8551.2,1960.1,8841.6,2070.6,9108.9,1949.8z"/><path d="M1865.8-2625.3c-72-36-131.1-92.5-172.2-164.5c-64.3-107.9-64.3-110.5-64.3-786.5c0-655.4,2.6-681.1,59.1-778.8c36-64.3,100.3-123.4,169.6-161.9l113.1-59.1h3035.5h3038.1l113.1,59.1c64.3,30.8,141.4,95.1,172.2,144c56.5,84.8,59.1,102.8,59.1,799.4c0,696.6-2.6,714.6-59.1,799.4c-30.9,48.8-108,113.1-172.2,146.5l-113.1,56.5H5009.3h-3033L1865.8-2625.3z M7947.2-3578.9l5.1-534.6H5022.1H2092v539.8v539.8l2925-5.1l2922.4-7.7L7947.2-3578.9z"/><path d="M4906.5-3193.4c-100.2-56.5-113.1-102.8-113.1-380.4c0-280.2,12.9-326.4,118.2-380.4c87.4-48.8,177.3-36,257,30.8c72,61.7,72,66.8,72,349.6s0,287.9-72,349.6C5091.5-3157.4,4988.7-3147.1,4906.5-3193.4z"/></g></g>
</svg>