<?xml version="1.0" encoding="utf-8"?>
<!-- Svg Vector Icons : http://www.onlinewebfonts.com/icon -->
<!DOCTYPE svg PUBLIC "-//W3C//DTD SVG 1.1//EN" "http://www.w3.org/Graphics/SVG/1.1/DTD/svg11.dtd">
<svg version="1.1" xmlns="http://www.w3.org/2000/svg" xmlns:xlink="http://www.w3.org/1999/xlink" x="0px" y="0px" viewBox="0 0 1000 1000" enable-background="new 0 0 1000 1000" xml:space="preserve">
<metadata> Svg Vector Icons : http://www.onlinewebfonts.com/icon </metadata>
<g><g transform="translate(0.000000,512.000000) scale(0.100000,-0.100000)"><path d="M473.2,4970.4c-40.2-38.3-47.9-65.1-47.9-162.7v-114.8H310.5c-143.6,0-210.5-51.7-210.5-162.7s67-162.7,210.5-162.7h114.8v-86.1v-86.1H310.5c-97.6,0-124.4-7.7-162.7-47.9l-47.9-45.9V-283.7v-4387l55.5-55.5l55.5-55.5h1037.4h1035.5l45.9,47.9l47.9,45.9V-3595v1091H5000h2622.3v-1091V-4688l47.9-45.9l45.9-47.9h1035.5H9789l55.5,55.5l55.5,55.5v4387v4385.1l-47.9,45.9c-38.3,40.2-65.1,47.9-162.7,47.9h-114.8v86.1v86.1h114.8c143.6,0,210.5,51.7,210.5,162.7s-67,162.7-210.5,162.7h-114.8v114.8c0,143.6-51.7,210.5-162.7,210.5s-162.7-67-162.7-210.5v-114.8h-162.7h-162.7v97.6c0,151.2-55.5,225.9-166.5,227.8c-103.3,0-158.9-67-172.3-206.7l-11.5-118.7h-149.3H8273v103.4c0,84.2-9.6,114.8-49.8,162.7c-63.2,74.6-153.1,80.4-229.7,15.3c-44-38.3-53.6-65.1-61.3-162.7l-7.7-118.7H5000H2075.3l-7.7,118.7c-7.7,97.6-17.2,124.4-61.2,162.7c-76.6,65.1-166.5,59.3-229.7-15.3c-40.2-47.9-49.8-78.5-49.8-162.7v-103.4h-153.1h-153.1v76.6c0,214.4-166.5,325.4-294.8,199.1c-42.1-44-49.8-67-49.8-162.7v-112.9H913.5H750.8v114.8c0,97.6-7.7,124.4-47.9,162.7C639.8,5035.5,536.4,5035.5,473.2,4970.4z M1076.2,4283.2v-86.1l-157,3.8l-158.9,3.8l-5.7,82.3l-5.7,80.4h162.7h164.6V4283.2z M1727,4283.2V4199h-153.1h-153.1v84.2v84.2h153.1H1727V4283.2z M7928.5,4292.8v-72.7l-128.2-11.5c-72.7-7.7-671.8-13.4-1334.1-13.4H5260.3l-44-42.1l-44-40.2V2937.7V1764.3l-47.9-11.5c-160.8-40.2-160.8-285.2,0-325.4l47.9-11.5V89.5c0-729.2,5.7-1341.7,11.5-1359c32.5-84.2,55.5-86.1,1270.9-86.1h1148.4v-76.6v-76.6H5000H2396.9v76.6v76.6h1148.4c1213.5,0,1238.4,1.9,1270.9,86.1c5.7,17.2,11.5,1232.7,11.5,2702.7l1.9,2672l-42.1,45.9l-42.1,44H3537.7c-664.2,0-1265.2,5.7-1336,13.4l-130.2,11.5v72.7v74.6H5000h2928.5V4292.8z M8579.3,4283.2V4199h-153.1H8273v84.2v84.2h153.1h153.1V4283.2z M9245.4,4287.1l-5.7-82.3l-157-3.8l-158.9-3.8v86.1v84.2h164.6h162.7L9245.4,4287.1z M750.8-293.3v-4163.1H588.1H425.4v4163.1v4163.1h162.7h162.7V-293.3z M1401.6-293.3v-4163.1h-162.7h-162.7v4163.1v4163.1h162.7h162.7V-293.3z M2052.3-293.3v-4163.1h-153.1h-153.1v4163.1v4163.1h153.1h153.1V-293.3z M4502.3,1419.8v-2450l-1056.6,3.8l-1058.5,5.7l-5.7,2446.2l-3.8,2444.3H3440h1062.3V1419.8z M7618.4,1425.5l-5.7-2446.2l-1056.6-5.7l-1058.5-3.8v1225v1225h172.3c181.8,0,271.8,26.8,294.8,86.1c26.8,72.7,11.5,157-38.3,202.9c-44,40.2-68.9,45.9-239.3,51.7l-189.5,7.7V2819v1050.8H6560h1062.3L7618.4,1425.5z M8253.9-293.3v-4163.1h-153.1h-153.1v4163.1v4163.1h153.1h153.1V-293.3z M8923.8-293.3v-4163.1h-162.7h-162.7v4163.1v4163.1h162.7h162.7V-293.3z M9574.6-293.3v-4163.1h-162.7h-162.7v4163.1v4163.1h162.7h162.7V-293.3z M7603.1-2006.4v-153.1H5000H2396.9v153.1v153.1H5000h2603.1V-2006.4z"/><path d="M2919.4,3175c-348.4-348.4-369.4-373.2-369.4-440.2c0-99.5,67-166.5,166.5-166.5c67,0,91.9,21.1,440.2,369.4c357.9,357.9,369.4,371.3,369.4,446c0,103.4-59.3,160.8-162.7,160.8C3290.7,3544.4,3271.6,3529.1,2919.4,3175z"/><path d="M3817.1,3251.6c-246.9-248.8-290.9-302.4-290.9-352.2c0-118.7,134-208.6,233.5-156.9c63.2,32.5,530.2,495.7,562.7,557c65.1,124.4-5.7,245-139.7,245C4111.9,3544.4,4092.7,3527.2,3817.1,3251.6z"/><path d="M2980.7,2396c-21.1-7.7-126.3-105.3-233.5-216.3c-176.1-178-197.1-206.7-197.1-268c0-51.7,13.4-78.5,59.3-116.8c32.5-26.8,78.5-49.8,101.4-49.8c61.3,0,168.4,84.2,342.6,264.1c132.1,141.7,147.4,164.6,147.4,231.6c0,61.3-11.5,84.2-59.3,124.4C3080.2,2417,3045.7,2424.7,2980.7,2396z"/><path d="M7191.6,904.9c-30.6-19.1-132.1-112.9-223.9-208.6c-153.1-158.9-168.4-181.8-168.4-248.8c0-95.7,68.9-164.6,164.6-164.6c61.3,0,90,21.1,277.5,210.5C7429,682.9,7450,711.6,7450,772.9c0,53.6-13.4,80.4-59.3,118.7C7321.8,950.9,7270.1,954.7,7191.6,904.9z"/><path d="M6843.2-251.2c-357.9-357.9-369.4-371.3-369.4-446c0-103.4,59.3-160.8,162.7-160.8c72.7,0,91.9,15.3,444.1,369.4C7429-140.2,7450-115.3,7450-48.3c0,99.5-67,166.5-166.5,166.5C7216.5,118.2,7191.6,97.2,6843.2-251.2z"/><path d="M6215.4-69.3c-30.6-21-172.3-153.1-310.1-296.7c-233.5-235.4-254.6-264.1-254.6-327.3c0-97.6,68.9-164.6,166.5-164.6c70.8,0,90,17.2,365.6,292.9c250.8,252.7,290.9,302.4,290.9,354.1C6473.8-80.8,6324.5-0.4,6215.4-69.3z"/></g></g>
</svg>