<?xml version="1.0" encoding="utf-8"?>
<!-- Svg Vector Icons : http://www.onlinewebfonts.com/icon -->
<!DOCTYPE svg PUBLIC "-//W3C//DTD SVG 1.1//EN" "http://www.w3.org/Graphics/SVG/1.1/DTD/svg11.dtd">
<svg version="1.1" xmlns="http://www.w3.org/2000/svg" xmlns:xlink="http://www.w3.org/1999/xlink" x="0px" y="0px" viewBox="0 0 1000 1000" enable-background="new 0 0 1000 1000" xml:space="preserve">
<metadata> Svg Vector Icons : http://www.onlinewebfonts.com/icon </metadata>
<g><g transform="translate(0.000000,511.000000) scale(0.100000,-0.100000)"><path d="M689.3,4991.8c-244.1-48.8-443.4-246.1-539.1-533.2c-37.1-109.4-41-177.7-48.8-750c-3.9-408.2,0-679.7,15.6-771.5c23.4-152.3,87.9-316.4,168-419.9l48.8-64.5l-48.8-64.5c-80.1-103.5-144.5-267.6-168-419.9c-15.6-91.8-19.5-363.3-15.6-771.5c9.8-707.1,21.5-777.4,162.1-984.4l70.3-103.5L263.5,7.3C122.9-201.7,111.2-272,101.4-979.1c-3.9-408.2,0-679.7,15.6-771.5c23.4-150.4,87.9-316.4,164.1-416l44.9-58.6l-64.5-76.2c-37.1-41-85.9-125-109.4-185.6c-44.9-107.4-44.9-123-44.9-931.7v-820.3l74.2-148.5c84-171.9,166-250,345.7-335.9l127-60.5H5000h4345.8l130.9,62.5c164.1,78.1,275.4,189.5,353.5,353.5l62.5,130.9v820.3c0,806.7,0,822.3-44.9,929.7c-23.4,60.6-72.3,142.6-109.4,185.6l-64.4,74.2l72.3,113.3c134.8,209,146.5,287.1,146.5,1050.8c0,765.7-9.8,841.8-148.4,1056.7l-76.2,117.2l68.4,101.6c140.6,207,152.3,279.3,162.1,984.4c3.9,408.2,0,679.7-15.6,771.5c-23.4,152.3-87.9,316.4-168,419.9l-46.9,62.5l76.2,117.2c138.7,214.9,148.4,291,148.4,1056.7c0,763.7-11.7,841.8-144.6,1050.8c-87.9,134.8-171.9,209-314.5,275.4l-107.4,50.8l-4277.5,2C2697.2,5005.5,734.2,4999.6,689.3,4991.8z M1277.2,3669.5c39.1-503.9,78.1-939.5,84-970.7l9.8-54.7l-312.5,5.9c-361.3,9.8-386.7,19.5-472.7,185.6l-48.8,93.8v705.1v703.1l54.7,91.8c78.1,134.8,119.1,150.4,386.7,152.3H1203L1277.2,3669.5z M5787.1,4448.8c-62.5-72.3-939.5-1105.5-1949.3-2296.9C2367.1,417.4,1999.9-4.4,1996,32.7c-2,25.4-84,1013.7-179.7,2195.4c-95.7,1181.7-179.7,2195.4-185.6,2252l-11.7,101.6h2140.7h2142.6L5787.1,4448.8z M9297,4530.8c33.2-29.3,80.1-87.9,103.5-132.8c43-78.1,43-95.7,43-783.2v-703.1l-48.8-85.9c-27.4-46.9-74.2-105.5-103.5-127c-54.7-41-58.6-41-2273.5-46.9c-2197.3-3.9-2218.8-3.9-2191.5,33.2c15.6,21.5,378.9,455.1,808.6,966.8l781.3,927.8h1410.2l1408.2,2L9297,4530.8z M1468.6,1368.6c39.1-472.7,72.3-900.4,72.3-951.2l2-93.8h-398.4H746l-64.5,52.7c-33.2,29.3-82,97.7-107.4,152.3c-46.9,95.7-46.9,105.5-46.9,761.7c0,627,3.9,669.9,41,752c21.5,48.8,62.5,111.3,91.8,142.6l50.8,52.7l343.8-3.9l341.8-5.9L1468.6,1368.6z M9345.8,2169.4c123-128.9,128.9-181.6,123-921.9l-5.9-662.1l-48.8-95.7c-95.7-183.6,257.8-166-3371.2-162.1l-3203.2,5.9l802.8,951.2l800.8,951.2l2420,2h2420L9345.8,2169.4z M1589.7-149c5.9-25.4,23.4-234.4,41-464.9c17.6-230.5,35.2-421.9,39.1-425.8c3.9-3.9,183.6,205.1,402.4,462.9L2468.7-106h3392.7H9254l64.5-52.7c33.2-29.3,82-97.7,107.4-152.3c46.9-95.7,46.9-105.5,46.9-763.7v-664.1l-54.7-107.4c-29.3-60.5-80.1-123-119.2-148.4l-66.4-44.9H5002c-4148.6,0-4232.6,0-4293.1,37.1c-33.2,21.5-85.9,80.1-117.2,132.8L537-1776v712.9v712.9l54.7,91.8C677.6-111.9,691.3-108,1165.9-106C1581.9-106,1581.9-106,1589.7-149z M9341.9-2494.8c31.3-19.5,72.3-62.5,91.8-97.7c37.1-58.6,39.1-103.5,39.1-814.5c0-841.8,0-847.7-138.7-921.9c-62.5-33.2-238.3-35.1-4330.2-35.1c-4730.6,0-4351.7-11.7-4437.6,127c-37.1,60.5-39.1,95.7-39.1,824.2c0,759.8,0,761.7,44.9,828.1c23.4,37.1,74.2,82,111.3,101.6c64.5,31.2,300.8,33.2,4336.1,29.3C9097.8-2459.6,9291.2-2461.6,9341.9-2494.8z"/></g></g>
</svg>