<?xml version="1.0" encoding="utf-8"?>
<!-- Svg Vector Icons : http://www.onlinewebfonts.com/icon -->
<!DOCTYPE svg PUBLIC "-//W3C//DTD SVG 1.1//EN" "http://www.w3.org/Graphics/SVG/1.1/DTD/svg11.dtd">
<svg version="1.1" xmlns="http://www.w3.org/2000/svg" xmlns:xlink="http://www.w3.org/1999/xlink" x="0px" y="0px" viewBox="0 0 1000 1000" enable-background="new 0 0 1000 1000" xml:space="preserve">
<metadata> Svg Vector Icons : http://www.onlinewebfonts.com/icon </metadata>
<g><path d="M519.5,349.4c103,0,186.9,83.9,186.9,186.9c0,103.1-83.8,186.9-186.9,186.9c-103.1,0-186.9-83.9-186.9-186.9C332.6,433.3,416.4,349.4,519.5,349.4 M519.5,293.6c-134.1,0-242.7,108.7-242.7,242.7c0,134,108.7,242.7,242.7,242.7c134,0,242.7-108.7,242.7-242.7C762.2,402.3,653.6,293.6,519.5,293.6"/><path d="M500,146.6h55.8V500H500V146.6L500,146.6z"/><path d="M10,10v980h980V10H10z M939.9,940H60V60h879.9L939.9,940L939.9,940z"/></g>
</svg>