<?xml version="1.0" encoding="utf-8"?>
<!-- Svg Vector Icons : http://www.onlinewebfonts.com/icon -->
<!DOCTYPE svg PUBLIC "-//W3C//DTD SVG 1.1//EN" "http://www.w3.org/Graphics/SVG/1.1/DTD/svg11.dtd">
<svg version="1.1" xmlns="http://www.w3.org/2000/svg" xmlns:xlink="http://www.w3.org/1999/xlink" x="0px" y="0px" viewBox="0 0 1000 1000" enable-background="new 0 0 1000 1000" xml:space="preserve">
<metadata> Svg Vector Icons : http://www.onlinewebfonts.com/icon </metadata>
<g><g transform="translate(0.000000,511.000000) scale(0.100000,-0.100000)"><path d="M742.9,5002.4c-209.3-8.6-250.3-17.3-336.6-69c-120.8-71.2-205-166.1-263.2-295.6c-41-94.9-41-170.4-43.1-4532.7c0-4377.4,0-4435.6,43.1-4530.5c58.2-131.6,142.4-226.5,263.2-297.7l99.2-58.3l4455-6.4c5026.7-6.5,4580.2-21.6,4767.9,168.3c189.8,187.7,174.7-258.9,168.3,4767.9l-6.5,4455l-58.3,99.2c-71.2,120.8-166.1,205-295.6,263.2c-94.9,41-166.1,43.1-4325.6,45.3C2883,5011.1,874.5,5008.9,742.9,5002.4z M9297,105.1v-4293.2H5003.8H710.5V105.1v4293.2h4293.2H9297V105.1z"/><path d="M3472,105.1v-2761.5h1531.8h1531.8V105.1v2761.5H5003.8H3472V105.1z M6233.5,1334.9V105.1H5003.8H3774.1v1229.7v1229.7h1229.7h1229.7V1334.9z"/></g></g>
</svg>