<?xml version="1.0" encoding="utf-8"?>
<!-- Svg Vector Icons : http://www.onlinewebfonts.com/icon -->
<!DOCTYPE svg PUBLIC "-//W3C//DTD SVG 1.1//EN" "http://www.w3.org/Graphics/SVG/1.1/DTD/svg11.dtd">
<svg version="1.1" xmlns="http://www.w3.org/2000/svg" xmlns:xlink="http://www.w3.org/1999/xlink" x="0px" y="0px" viewBox="0 0 1000 1000" enable-background="new 0 0 1000 1000" xml:space="preserve">
<metadata> Svg Vector Icons : http://www.onlinewebfonts.com/icon </metadata>
<g><g transform="translate(0.000000,511.000000) scale(0.100000,-0.100000)"><path d="M1439.2,2667.1V888.4h701c437.3,0,740.8,8.4,809.8,23c336.9,71.1,613.1,347.4,684.3,684.3c12.6,60.7,23,228.1,23,370.4c0,293-6.3,284.6,154.8,236.5c110.9-33.5,246.9-169.5,280.4-280.4c18.8-67,25.1-588,25.1-2199.3c0-2280.9,0-2285.1,110.9-2611.5c173.7-510.6,537.8-916.5,1029.6-1153c311.8-150.7,464.6-184.2,868.4-184.2c316,0,362,6.3,533.6,58.6c826.6,249,1387.4,941.7,1448.1,1785l12.5,190.4l138.1,35.6c313.9,79.5,682.2,282.5,939.6,521.1c382.9,355.7,642.4,887.2,692.7,1412.5c33.5,359.9-25.1,669.6-221.8,1163.5c-288.8,724-753.3,1546.4-1563.2,2760.1l-416.4,625.7l-50.2-60.7c-27.2-33.5-169.5-238.5-318.1-458.3C6256.3,2229.8,5613.9,991,5488.4,262.8c-177.9-1014.9,519-2090.5,1556.9-2400.2l190.4-58.6v-96.3c0-244.8-133.9-552.4-324.3-742.9c-341.1-341.1-857.9-424.8-1305.8-207.2c-156.9,75.3-412.2,334.8-489.6,493.9C4992.4-2489,4996.6-2581,4996.6-241.5c0,1801.7-6.3,2167.9-31.4,2291.4c-79.5,380.8-355.7,736.6-701,908.2c-173.7,83.7-401.8,146.5-537.8,148.6h-69.1v261.6c0,142.3-10.5,309.7-23,370.4c-71.1,328.5-322.3,588-657.1,678c-77.4,20.9-288.8,29.3-820.3,29.3h-717.7V2667.1z M7832,2531.1c259.5-414.3,504.3-845.4,724-1276.5c368.3-719.8,498-1107,468.8-1389.5c-31.4-299.2-171.6-596.4-378.8-807.7c-136-136-366.2-288.8-472.9-313.9l-58.6-14.6v849.6v849.6h-439.4h-439.4v-847.5c0-663.3-6.3-847.5-25.1-847.5c-14.7,0-98.4,39.8-184.2,87.9c-500.1,274.1-784.7,881-657.1,1395.7c108.8,439.4,510.6,1249.3,1088.1,2195.1c115.1,186.2,215.5,334.8,226,332.7C7691.8,2740.4,7758.8,2644.1,7832,2531.1z"/><path d="M100,3566.9v-439.4h439.4h439.4v439.4v439.4H539.4H100V3566.9z"/><path d="M100,1767.3v-439.4h439.4h439.4v439.4v439.4H539.4H100V1767.3z"/></g></g>
</svg>