<?xml version="1.0" encoding="utf-8"?>
<!-- Svg Vector Icons : http://www.onlinewebfonts.com/icon -->
<!DOCTYPE svg PUBLIC "-//W3C//DTD SVG 1.1//EN" "http://www.w3.org/Graphics/SVG/1.1/DTD/svg11.dtd">
<svg version="1.1" xmlns="http://www.w3.org/2000/svg" xmlns:xlink="http://www.w3.org/1999/xlink" x="0px" y="0px" viewBox="0 0 1000 1000" enable-background="new 0 0 1000 1000" xml:space="preserve">
<metadata> Svg Vector Icons : http://www.onlinewebfonts.com/icon </metadata>
<g><g transform="translate(0.000000,511.000000) scale(0.100000,-0.100000)"><path d="M4570.5,4977.4c-145-22.7-217.6-102-217.6-235.7c2.3-176.8,113.3-256.1,330.9-231.2l145.1,15.9v-274.2v-274.2h204h204l4.5,97.5c2.3,52.1,4.5,172.2,6.8,265.2v170l136-6.8c231.2-13.6,621-88.4,904.3-174.5c1643.2-498.6,2889.7-1965,3127.7-3680.7c20.4-138.3,36.3-262.9,36.3-274.2c0-13.6-115.6-22.7-283.3-22.7h-283.3v-238v-238h285.6h287.8l-15.9-197.2c-9.1-111.1-40.8-324.1-72.5-478.2c-242.5-1214.8-990.4-2259.6-2089.7-2919.2c-553-333.2-1307.7-573.4-1829-582.5l-204-4.5v392.1v389.8h-208.5h-210.8v-396.6v-396.6H4745c-145.1,0-523.5,65.7-788.7,133.7c-747.9,194.9-1402.9,573.4-1980.9,1142.3C1193.5-2270.7,749.3-1355,624.7-253.5l-13.6,129.2h260.6h262.9v238v238H874H613.3V415c0,34,15.9,167.7,34,299.2c99.7,747.9,387.6,1450.5,838.6,2051.1c140.5,185.9,419.3,494.1,435.2,478.2c4.5-4.5-9.1-290.1-29.5-634.6c-45.3-693.5-43-711.7,95.2-779.6c147.3-70.3,310.5,20.4,337.7,185.8c4.5,38.5,38.5,476,70.2,970c54.4,838.6,56.7,906.6,22.7,958.7c-77,117.9-79.3,117.9-1128.7,181.3c-1108.3,65.7-1083.3,68-1158.1-86.1c-52.1-104.3-38.5-179.1,47.6-265.2c70.2-68,52.1-65.7,949.6-115.6l480.5-27.2l-131.4-142.8C806,2772.1,370.8,1861,214.4,850.2c-49.8-319.6-56.7-1047.1-11.3-1348.5C370.8-1661,871.7-2649.2,1680.8-3422c1160.4-1106,2833-1575.2,4428.6-1242c1103.8,228.9,2135,877.1,2792.2,1747.4c933.8,1239.7,1230.7,2826.2,813.6,4333.4c-512.2,1849.4-2076,3222.9-4018.4,3526.6C5447.6,4981.9,4738.3,5004.6,4570.5,4977.4z"/><path d="M6555.9,2871.9c-52.1-27.2-383-426.1-1056.2-1273.7L4520.7,362.9l-1164.9-11.3c-890.7-9.1-1178.5-18.1-1217.1-40.8c-61.2-34-120.1-140.5-120.1-213.1c0-88.4,81.6-194.9,163.2-215.3c122.4-29.5,2490.8-20.4,2547.5,11.3c27.2,13.6,525.8,623.3,1106,1355.3c958.7,1205.7,1056.2,1337.2,1056.2,1412c0,104.3-52.1,179-149.6,219.8C6646.6,2921.7,6646.6,2921.7,6555.9,2871.9z"/></g></g>
</svg>