<?xml version="1.0" encoding="utf-8"?>
<!-- Svg Vector Icons : http://www.onlinewebfonts.com/icon -->
<!DOCTYPE svg PUBLIC "-//W3C//DTD SVG 1.1//EN" "http://www.w3.org/Graphics/SVG/1.1/DTD/svg11.dtd">
<svg version="1.1" xmlns="http://www.w3.org/2000/svg" xmlns:xlink="http://www.w3.org/1999/xlink" x="0px" y="0px" viewBox="0 0 1000 1000" enable-background="new 0 0 1000 1000" xml:space="preserve">
<metadata> Svg Vector Icons : http://www.onlinewebfonts.com/icon </metadata>
<g><path d="M500,990C243.6,990,34.8,781.3,34.8,524.8c0-226.3,161.5-419,384-458.1l11.9,67.1C240.8,167.3,103,331.7,103,524.8c0,218.9,178.1,397,397,397c219,0,397-178,397-397c0-193-137.8-357.5-327.5-391l11.9-67.1C803.8,106,965.2,298.7,965.2,524.9C965.2,781.3,756.6,990,500,990L500,990z"/><path d="M465.9,10h68.2v289.7h-68.2V10L465.9,10z"/></g>
</svg>