<?xml version="1.0" encoding="utf-8"?>
<!-- Svg Vector Icons : http://www.onlinewebfonts.com/icon -->
<!DOCTYPE svg PUBLIC "-//W3C//DTD SVG 1.1//EN" "http://www.w3.org/Graphics/SVG/1.1/DTD/svg11.dtd">
<svg version="1.1" xmlns="http://www.w3.org/2000/svg" xmlns:xlink="http://www.w3.org/1999/xlink" x="0px" y="0px" viewBox="0 0 1000 1000" enable-background="new 0 0 1000 1000" xml:space="preserve">
<metadata> Svg Vector Icons : http://www.onlinewebfonts.com/icon </metadata>
<g><g transform="translate(0.000000,511.000000) scale(0.100000,-0.100000)"><path d="M3004.5,2997.6c-39.1-22.7-105-82.4-144.1-133.9l-72.1-96.8h-374.8c-350.1,0-378.9-2.1-418-41.2c-55.6-55.6-55.6-170.9,4.1-226.5c41.2-37.1,72.1-41.2,364.5-41.2h321.2v-370.7v-370.7h-321.2c-292.4,0-323.3-4.1-364.5-41.2c-59.7-55.6-59.7-170.9-4.1-226.5c39.1-39.1,67.9-41.2,420.1-41.2h378.9l45.3-72.1c103-168.9,263.6-224.4,496.3-177.1c335.6,70,607.5,306.8,712.5,619.8l45.3,133.9h2518.4h2518.4l94.7-47.4c129.7-63.8,240.9-177.1,304.8-313l53.5-113.3l6.2-864.9c6.2-922.5-2.1-1050.2-88.5-1241.7c-96.8-210-368.6-434.5-591-486l-55.6-12.4l-6.2,477.7c-6.2,448.9-8.2,486-51.5,564.2c-51.5,96.8-150.3,187.4-247.1,228.6c-55.6,22.6-757.8,26.8-4077.2,26.8c-3836.3,0-4015.4-2.1-4093.7-39.1C274,44.7,150.5-91.2,123.7-192.1c-33-117.4-30.9-2188.9,2.1-2300.1c32.9-111.2,185.3-263.6,296.5-296.5c65.9-18.5,988.4-24.7,4066.9-24.7h3982.5l105,49.4c115.3,53.6,201.8,152.4,247.1,273.9c18.5,55.6,26.8,208,28.8,541.6v465.4l121.5,24.7c191.5,39.1,401.5,156.5,558,310.9C9682.5-999.3,9758.7-881.9,9839-674l53.5,135.9l6.2,965.8c4.1,626-2.1,1000.8-16.5,1066.7c-70,327.4-329.5,607.5-669.3,718.7c-65.9,22.7-588.9,30.9-2600.8,39.1l-2518.4,10.3l-45.3,133.8c-76.2,226.5-249.2,426.3-467.4,535.4C3375.2,3036.8,3132.2,3063.5,3004.5,2997.6z M3408.1,2664c119.4-51.5,249.2-175,313-296.5c47.4-90.6,55.6-129.7,55.6-280.1s-8.2-189.5-55.6-280.1c-94.7-181.2-280-315.1-479.8-348c-67.9-10.3-90.6-4.1-119.4,24.7c-53.5,59.7-94.7,203.9-121.5,411.8c-37.1,294.5,22.7,683.7,121.5,794.8C3163.1,2734,3268.1,2725.8,3408.1,2664z M8475.8-227.1l57.7-49.4v-1064.6v-1064.6l-57.7-49.4l-57.7-49.4H4474.8H529.4l-59.7,59.7l-59.7,59.7v1033.7c0,871,4.1,1039.9,30.9,1091.4c16.5,30.9,41.2,61.8,55.6,67.9s1803.9,12.3,3974.3,12.3l3947.5,2.1L8475.8-227.1z"/><path d="M1388-408.3c-232.7-43.2-483.9-216.2-613.6-422.1c-105-164.7-142.1-323.3-133.8-553.9c6.2-189.4,14.4-220.3,82.4-362.4c96.8-193.6,267.7-362.4,463.3-455.1c133.8-61.8,152.4-65.9,387.1-65.9c240.9,0,251.2,2.1,401.5,74.1C2572.1-1909.5,2708-1137.3,2244.7-676c-142.1,144.1-286.2,222.4-469.5,261.5C1618.7-381.5,1536.3-379.5,1388-408.3z M1830.8-766.6c140-63.8,234.8-152.4,304.8-286.2c47.4-88.5,55.6-127.7,55.6-288.3c0-166.8-6.2-195.6-61.8-296.5c-208-374.8-708.4-442.7-1006.9-135.9C970-1617.1,908.3-1374.1,965.9-1162c49.4,177.1,245.1,376.8,420.1,426.2C1517.8-696.6,1709.3-711,1830.8-766.6z"/><path d="M1647.5-1054.9c-55.6-70-53.5-103,8.2-162.7c59.7-61.8,119.4-65.9,175-10.3c80.3,80.3,22.7,226.5-90.6,226.5C1709.3-1001.4,1672.2-1024,1647.5-1054.9z"/><path d="M1285.1-1423.5c-28.8-26.8-51.5-61.8-51.5-78.2c0-53.6,84.4-138,135.9-138c63.8,0,131.8,67.9,131.8,133.8c0,61.8-65.9,133.8-123.5,133.8C1353-1372,1311.9-1394.7,1285.1-1423.5z"/><path d="M3484.3-414.5c-341.8-74.1-630.1-348-714.5-679.5c-82.4-310.9,2.1-652.8,216.2-885.5c372.7-403.6,1041.9-399.5,1400.3,8.2c331.5,374.8,325.4,910.2-14.4,1276.7c-129.7,142.1-304.8,240.9-496.3,280.1C3706.7-377.4,3651.1-377.4,3484.3-414.5z M3916.7-754.2c61.8-22.7,146.2-78.3,197.7-127.7c317.1-310.9,240.9-815.4-150.3-1021.4c-90.6-47.4-129.7-55.6-280.1-55.6s-189.5,8.2-278,55.6c-224.4,119.4-348,317.1-348,562.2C3058.1-894.3,3492.6-595.7,3916.7-754.2z"/><path d="M3770.6-1034.3c-57.7-39.1-59.7-137.9-4.1-193.6c117.4-117.4,286.2,63.8,175,185.3C3896.2-993.1,3832.3-989,3770.6-1034.3z"/><path d="M3399.9-1405c-70-47.4-55.6-170.9,22.6-214.2c49.4-26.8,61.8-26.8,113.3,0c76.2,43.2,90.6,166.8,20.6,214.2c-24.7,18.5-59.7,33-78.2,33C3459.6-1372,3424.6-1386.4,3399.9-1405z"/><path d="M5584.7-414.5c-177.1-39.1-323.3-121.5-459.2-257.4c-467.4-467.4-333.6-1233.5,267.7-1521.8c150.3-72.1,160.6-74.1,401.5-74.1c234.8,0,253.3,4.1,387.1,65.9c195.6,92.7,366.5,261.5,463.3,457.1c76.2,152.4,76.2,158.6,76.2,403.6c0,247.1,0,251.2-78.2,405.7C6443.4-527.7,6013-315.6,5584.7-414.5z M6091.3-785.1c368.6-201.8,442.7-702.2,146.2-998.7c-296.5-296.5-794.8-224.5-998.7,146.2c-55.6,100.9-61.8,129.7-61.8,296.5c0,154.4,8.2,201.8,47.4,278c125.6,240.9,319.2,354.2,591,343.9C5951.3-725.4,6000.7-735.7,6091.3-785.1z"/><path d="M5866.8-1042.5c-22.6-22.7-41.2-61.8-41.2-88.5c0-57.7,80.3-138,135.9-138c55.6,0,131.8,82.4,131.8,140c0,59.7-70,127.7-133.8,127.7C5930.7-1001.4,5889.5-1019.9,5866.8-1042.5z"/><path d="M5496.2-1413.2c-80.3-80.3-22.7-226.5,88.5-226.5c57.7,0,138,80.3,138,135.9s-82.4,131.8-140,131.8C5557.9-1372,5518.8-1390.6,5496.2-1413.2z"/><path d="M7236.2-566.9c-105-47.4-191.5-133.8-238.8-238.9c-33-72.1-39.1-140-39.1-535.4c0-514.8,10.3-560.1,160.6-694c111.2-100.9,191.5-119.4,518.9-119.4c327.4,0,407.7,18.5,518.9,119.4c150.3,133.8,160.6,179.2,160.6,694c0,498.3-12.3,553.9-135.9,677.5c-117.4,117.4-191.5,135.9-543.7,135.9C7372.1-527.7,7304.1-533.9,7236.2-566.9z M7956.9-888.1c28.8-26.8,51.5-74.2,51.5-103v-51.5h-370.7h-370.6v51.5c0,28.8,22.6,76.2,51.5,103c47.4,49.4,59.7,51.5,319.2,51.5C7897.2-836.6,7909.6-838.7,7956.9-888.1z M8008.4-1536.7c0-280.1-32.9-308.9-372.7-308.9c-335.7,0-366.5,24.7-368.6,294.5v179.2h370.6h370.7V-1536.7z"/></g></g>
</svg>