<?xml version="1.0" encoding="utf-8"?>
<!-- Svg Vector Icons : http://www.onlinewebfonts.com/icon -->
<!DOCTYPE svg PUBLIC "-//W3C//DTD SVG 1.1//EN" "http://www.w3.org/Graphics/SVG/1.1/DTD/svg11.dtd">
<svg version="1.1" xmlns="http://www.w3.org/2000/svg" xmlns:xlink="http://www.w3.org/1999/xlink" x="0px" y="0px" viewBox="0 0 1000 1000" enable-background="new 0 0 1000 1000" xml:space="preserve">
<metadata> Svg Vector Icons : http://www.onlinewebfonts.com/icon </metadata>
<g><g transform="translate(0.000000,511.000000) scale(0.100000,-0.100000)"><path d="M6320.6,4740.1c-120.6-84.3-137.9-122.6-155.1-384.9c-61.3-957.5-371.5-1916.9-888.5-2747.9c-126.4-204.9-126.4-204.9-1.9-473c130.2-277.7,463.4-662.6,664.5-766c49.8-26.8,61.3-23,239.4,80.4c275.8,158.9,645.3,321.7,967,428.9c819.6,270,1629.6,294.9,2284.5,70.8c149.4-51.7,178.1-55.5,241.3-36.4c197.2,59.4,281.5,245.1,193.4,421.3c-47.9,93.8-97.7,124.5-308.3,193.4C8645.4,1825.6,7506,1714.5,6403,1220.5c-160.8-70.9-287.2-120.6-279.6-109.2c114.9,203,406,568.7,647.2,810c430.9,432.8,997.7,796.6,1463,940.2c187.7,57.5,258.5,99.6,298.7,178.1c42.1,82.3,36.4,222.1-13.4,302.6c-42.1,67-160.8,136-239.4,137.9c-141.7,0-735.3-248.9-1039.8-434.7c-235.5-145.5-568.7-402.1-771.7-597.5c-105.3-101.5-185.8-166.6-176.2-145.5c206.8,509.4,373.4,1170,438.5,1733c44,369.6,40.2,509.4-13.4,601.3C6636.6,4776.5,6447,4826.3,6320.6,4740.1z"/><path d="M4721.7,1990.3c-53.6-19.1-195.3-101.5-316-183.8c-1436.2-990-2723-2297.9-3713.1-3774.3c-262.3-388.7-534.3-836.8-568.7-934.5c-118.7-338.9,216.4-903.8,744.9-1260c361.9-243.2,790.9-398.3,1097.3-400.2c67,0,174.3,17.2,247,40.2c164.7,49.8,291.1,172.3,411.7,400.2c120.6,227.9,451.9,725.8,706.6,1060.9C4128-2006.2,5035.7-1138.7,6136.8-374.7c47.9,34.5,105.3,90,126.4,124.5c76.6,126.4,32.6,308.3-95.7,394.5c-59.4,40.2-82.3,44-199.1,34.5c-122.6-9.6-141.7-5.7-248.9,51.7c-72.8,36.4-181.9,124.5-291.1,233.6c-241.3,237.5-411.7,509.4-478.7,762.1c-44,164.7-36.4,206.8,47.9,266.2c90,61.3,147.5,189.6,128.3,291.1c-15.3,84.3-95.7,180-178.1,214.5C4869.1,2032.4,4838.5,2030.5,4721.7,1990.3z M4562.7,626.8C4725.5,337.7,4976.4,37,5185.1-120c61.3-45.9,118.7-90,126.4-97.6c9.6-5.7-59.4-70.9-153.2-143.6C4317.6-1018.1,3475-1883.7,2810.6-2772.2c-208.7-277.7-541.9-775.5-681.7-1018.7c-99.6-174.2-103.4-178.1-172.3-178.1c-193.4,0-505.5,136-771.7,335.1c-189.6,141.7-400.2,360-455.8,471.1l-40.2,78.5l137.9,231.7c298.7,499.8,750.6,1135.6,1158.5,1635.4C2628.7-434,3499.9,404.7,4269.7,984.9l105.3,78.5l59.4-155.1C4467,822.2,4524.4,695.8,4562.7,626.8z"/></g></g>
</svg>