<?xml version="1.0" encoding="utf-8"?>
<!-- Svg Vector Icons : http://www.onlinewebfonts.com/icon -->
<!DOCTYPE svg PUBLIC "-//W3C//DTD SVG 1.1//EN" "http://www.w3.org/Graphics/SVG/1.1/DTD/svg11.dtd">
<svg version="1.1" xmlns="http://www.w3.org/2000/svg" xmlns:xlink="http://www.w3.org/1999/xlink" x="0px" y="0px" viewBox="0 0 1000 1000" enable-background="new 0 0 1000 1000" xml:space="preserve">
<metadata> Svg Vector Icons : http://www.onlinewebfonts.com/icon </metadata>
<g><g transform="translate(0.000000,511.000000) scale(0.100000,-0.100000)"><path d="M1010.7,4979.6c-35-17.5-249.3-216.5-474.6-441.8C-67.6,3927.6-76.4,4002,711,3208c321.5-321.5,614.6-599.3,654-616.8c39.4-17.5,133.4-30.6,207.8-30.6h137.8l1312.3-1312.3L4333-61.9l-177.2-183.7c-190.3-194.7-223.1-264.6-194.7-420c17.5-87.5,122.5-218.7,194.7-242.8c26.3-8.8,201.2-45.9,387.1-85.3l336.8-67.8l50.3-249.4c28.4-137.8,61.2-306.2,74.4-371.8l24.1-120.3l1456.7-1463.2c844.3-844.2,1489.5-1474.2,1528.9-1491.7c220.9-96.3,750.2,50.3,1106.7,306.2c155.3,109.4,367.5,325.9,472.5,479c234,343.4,369.6,861.8,277.8,1071.7c-17.5,39.4-647.4,684.6-1491.7,1528.9L6916.1,84.7l-120.3,24.1c-65.6,13.1-234,45.9-371.8,74.4l-249.4,50.3l-67.8,336.8c-39.4,185.9-76.6,360.9-85.3,387.1c-24.1,72.2-155.3,177.2-242.8,194.7c-155.3,28.4-225.3-4.4-420-194.7l-183.7-177.2L3865,2090.3L2552.6,3402.7v135.6c0,74.4-10.9,161.9-21.9,196.9c-30.6,80.9-1150.5,1205.1-1240.1,1244.5C1203.1,5016.8,1096,5016.8,1010.7,4979.6z M1268.7,4533.5l102.8-102.8L1026,4085.1l-343.4-343.4L573.2,3851l-109.4,109.4l339,339c185.9,185.9,343.4,339,350,339S1211.9,4592.5,1268.7,4533.5z M2202.7,3424.5v-175l1360.4-1360.4L4925.7,526.5l-170.6-168.4l-168.4-170.6L3224.1,1550.1L1863.7,2910.5h-175h-175L1225,3199.3l-290.9,290.9l343.4,343.4l345.6,345.6l288.7-288.7l290.9-290.9V3424.5z M5789.7,362.5c45.9-223.1,85.3-411.2,91.9-415.6c6.6-6.6,201.2-50.3,433.1-98.4l424.3-85.3l1410.7-1410.8l1410.7-1410.8l-26.3-157.5c-48.1-280-179.4-527.1-404.6-761.2c-231.9-238.4-511.8-393.7-800.5-444l-157.5-26.3L6760.8-3036.5L5350.1-1625.7l-85.3,424.3c-48.1,231.9-91.9,426.5-98.4,433.1c-4.4,4.4-175,43.8-376.2,83.1c-201.2,41.5-391.5,78.7-419.9,85.3c-48.1,13.1,13.1,80.9,632.1,699.9c378.4,378.4,691.2,682.4,695.5,678C5704.4,773.6,5743.8,585.6,5789.7,362.5z"/><path d="M6281.8-1168.6c-37.2-35-54.7-76.5-54.7-124.7c0-65.6,94-166.2,1100.2-1170.2c1003.9-1006.1,1104.5-1100.2,1170.1-1100.2c96.3,0,179.4,83.1,179.4,179.4c0,65.6-94,166.2-1100.2,1170.2C6572.7-1208,6472.1-1113.9,6406.5-1113.9C6358.4-1113.9,6316.8-1131.4,6281.8-1168.6z"/></g></g>
</svg>