<?xml version="1.0" encoding="utf-8"?>
<!-- Svg Vector Icons : http://www.onlinewebfonts.com/icon -->
<!DOCTYPE svg PUBLIC "-//W3C//DTD SVG 1.1//EN" "http://www.w3.org/Graphics/SVG/1.1/DTD/svg11.dtd">
<svg version="1.1" xmlns="http://www.w3.org/2000/svg" xmlns:xlink="http://www.w3.org/1999/xlink" x="0px" y="0px" viewBox="0 0 1000 1000" enable-background="new 0 0 1000 1000" xml:space="preserve">
<metadata> Svg Vector Icons : http://www.onlinewebfonts.com/icon </metadata>
<g><path d="M866.2,384.6c-2.9-5.8-11.9-19.4-34.1-21.1c-0.7-0.1-1.4-0.1-2.1-0.1l-229-1.5L660,69.1c0.2-0.8,0.3-1.6,0.4-2.4c2.1-18.3-1.6-32.9-11-43.2c-7.8-8.7-19-13.4-31.4-13.4c-14.2,0-26.6,6.3-30,8.2c-3.1,1.7-5.8,4-8.1,6.6L139.4,546.1c-0.7,0.8-1.3,1.6-1.9,2.5c-6.8,10-11.2,26-3.2,40.8c4.1,7.5,14.6,20.1,39.1,20.1c1.2,0,2.4,0,3.7-0.1l202.7-0.1L266.6,937c-0.7,1.9-1.1,3.8-1.4,5.8c-0.6,4.6-1.6,20.8,10.1,33.9c7.7,8.6,18.7,13.4,31.2,13.4c7.6,0,15.7-1.7,24.6-5.3c4-1.6,7.6-4,10.5-7.1l516.8-546.9c1.1-1.2,2.1-2.4,3-3.7C865,421.9,875.6,403.6,866.2,384.6z M345.3,888.8l94.6-274c7-18.5,6.9-34.1-0.3-46.2c-5.5-9.2-14.8-15.6-25-17.1c-1.4-0.2-2.9-0.3-4.4-0.3h0l-198.7,0.1L594.2,98.5L541.8,359c-3.7,21.2,3.5,35.1,10.3,43c14.2,16.7,35.3,18,41.5,18l193.6,1.2L345.3,888.8z"/></g>
</svg>