<?xml version="1.0" encoding="utf-8"?>
<!-- Svg Vector Icons : http://www.onlinewebfonts.com/icon -->
<!DOCTYPE svg PUBLIC "-//W3C//DTD SVG 1.1//EN" "http://www.w3.org/Graphics/SVG/1.1/DTD/svg11.dtd">
<svg version="1.1" xmlns="http://www.w3.org/2000/svg" xmlns:xlink="http://www.w3.org/1999/xlink" x="0px" y="0px" viewBox="0 0 1000 1000" enable-background="new 0 0 1000 1000" xml:space="preserve">
<metadata> Svg Vector Icons : http://www.onlinewebfonts.com/icon </metadata>
<g><g transform="translate(0.000000,511.000000) scale(0.100000,-0.100000)"><path d="M4929.7,4982.3c-14.6-14.6-25.1-79.4-25.1-146.2v-121.1H2528c-1821.1,0-2382.9-6.3-2401.7-25.1c-31.3-31.3-31.3-106.5,0-137.8c18.8-18.8,580.6-25.1,2401.7-25.1h2376.6V2010.5V-506.1H3244.4H1584.1v365.5v365.5h269.4c338.3,0,336.2-2.1,336.2,248.5c0,112.8-8.3,190-25.1,206.8c-18.8,18.8-198.4,25.1-678.7,25.1c-756,0-695.4,20.9-695.4-233.9c0-131.6-18.8-206.7-137.8-563.9L514.8-506.1H333.1c-112.8,0-192.1-10.4-206.8-25.1c-35.5-35.5-35.5-609.8,2.1-637c12.5-12.5,77.3-27.1,142-33.4c204.7-18.8,369.6-137.8,455.3-327.9c35.5-77.3,43.9-137.8,43.9-355c0-476.2,58.5-795.7,198.4-1100.6c206.8-446.9,553.4-810.3,998.3-1042.1l181.7-94l-29.2-56.4c-16.7-31.3-87.7-154.6-156.6-275.7c-190.1-327.9-188-334.2,198.4-334.2h277.8l131.6,114.9c146.2,129.5,440.6,286.1,632.8,334.2c225.5,58.5,566,73.1,1806.5,73.1c1228,0,1574.7-14.6,1806.5-73.1c190-48,484.5-202.6,632.8-334.2l131.6-114.9h277.8c279.8,0,325.8,12.5,325.8,83.5c0,16.7-71,152.5-156.6,302.8s-156.6,277.8-156.6,284c0,6.3,79.4,52.2,177.5,102.3c98.2,50.1,254.8,152.5,348.8,229.7c91.9,75.2,188,148.3,213,160.8c31.3,18.8,204.7,27.1,641.1,27.1c457.4,0,603.6,6.3,620.3,27.1c25.1,29.2,41.8,8512.4,16.7,8552c-18.8,33.4-102.3,31.3-133.6,0c-14.6-14.6-25.1-79.4-25.1-146.2v-121.1h-501.2h-501.2v106.5c0,137.8-27.1,185.9-104.4,185.9s-104.4-48-104.4-185.9v-106.5h-501.2h-501.2v106.5c0,137.8-27.1,185.9-104.4,185.9s-104.4-48-104.4-185.9v-106.5h-501.2h-501.2v121.1c0,129.5-23,171.3-94,171.3s-94-41.8-94-171.3v-121.1h-511.7h-511.7v121.1c0,129.5-23,171.3-94,171.3C4973.6,5007.3,4944.3,4996.9,4929.7,4982.3z M6111.7,4441.4c6.3-66.8-4.2-85.6-73.1-142c-233.9-192.1-595.2-196.3-864.6-10.4c-73.1,50.1-81.4,64.7-81.4,148.3v89.8l507.5-4.2l505.4-6.3L6111.7,4441.4z M7306.3,4433c0-85.6-6.3-98.2-87.7-156.6c-240.2-175.4-586.8-165-856.3,25.1c-48,33.4-58.5,56.4-58.5,133.7v91.9h501.2h501.2V4433z M8517.6,4437.2c0-106.5-23-131.6-187.9-215.1c-219.3-108.6-515.8-87.7-720.5,52.2c-75.2,50.1-83.5,66.8-89.8,154.5l-6.3,98.2h501.2h503.3V4437.2z M9728.9,4445.5c0-68.9-12.5-91.9-77.3-146.2c-231.8-192.1-641.1-194.2-862.5-8.3c-52.2,43.8-62.6,66.8-62.6,144.1v91.9h501.2h501.2V4445.5z M7719.8,4025.8c259-81.4,607.7-39.7,804,96.1l81.5,54.3l177.5-91.9l179.6-89.8h242.3c215.1,0,256.9,6.3,373.8,54.3l129.5,56.4V337.6v-3767.5h-490.8h-490.8v3278.8c0,3251.7,0,3278.8-41.8,3320.6c-50.1,50.1-79.4,52.2-129.5,6.3c-35.5-31.3-37.6-162.9-37.6-3310.1V-3409H6805.1H5092.6V350.2c0,2067.5,4.2,3759.1,8.4,3759.1s62.6-25.1,129.5-56.4c112.8-54.3,144.1-58.5,373.8-58.5s261.1,4.2,373.8,58.5c66.8,31.3,125.3,56.4,129.5,56.4c4.2,0,8.4-772.7,8.4-1718.8c0-1309.4,6.3-1725,25.1-1743.8c14.6-14.6,43.8-25.1,68.9-25.1c25.1,0,54.3,10.4,68.9,25.1c18.8,18.8,25.1,434.4,25.1,1743.8c0,946,4.2,1718.8,8.4,1718.8c4.2,0,62.7-25.1,129.5-56.4c252.7-116.9,647.4-81.4,883.4,75.2l91.9,60.6l83.5-60.6C7546.5,4094.7,7644.6,4048.7,7719.8,4025.8z M2001.8,465v-52.2h-511.7H978.4V465v52.2h511.7h511.7V465z M1396.1-130.2v-355H1062c-183.8,0-334.1,8.4-334.1,16.7c0,12.5,183.8,572.2,219.3,668.3c6.3,16.7,73.1,25.1,229.7,25.1h219.3V-130.2z M4904.7-838.1v-169.2H2597H289.3v162.9v160.8l2307.7,8.4l2307.7,6.3V-838.1z M4904.7-2368.9c0-647.4,8.4-1188.3,18.8-1202.9c12.5-20.9,344.6-27.1,1710.4-25.1c933.5,0,1695.8-4.2,1695.8-8.4c0-23-271.5-200.5-411.4-271.5c-83.5-41.8-233.9-100.2-334.1-131.6l-183.8-58.5H5009.1c-2213.7,0-2401.7,2.1-2535.3,37.6c-599.4,152.5-1063,530.5-1319.9,1069.3c-139.9,292.4-175.4,472-194.2,960.7c-16.7,463.6-29.2,513.7-175.4,705.9l-77.3,98.2h2098.9h2098.9V-2368.9z M2513.4-4233.9c68.9-16.7,160.8-31.3,204.7-31.3c41.8,0,77.3-8.4,77.3-16.7c0-10.4-39.7-39.7-85.6-64.8c-48-27.1-146.2-96.1-221.4-150.4c-127.4-98.2-139.9-102.3-267.3-102.3h-133.6l116.9,198.4c73.1,125.3,127.4,198.4,150.4,198.4C2373.5-4204.6,2444.5-4217.2,2513.4-4233.9z M7805.5-4388.4c58.5-100.2,106.5-190,106.5-198.4c0-6.3-56.4-12.5-123.2-12.5c-116.9,0-133.6,6.3-259,102.3c-75.2,54.3-173.3,123.2-221.4,150.4c-45.9,25.1-85.6,54.3-85.6,64.8c0,8.3,39.7,16.7,89.8,18.8c48,0,135.7,14.6,192.1,29.2C7692.7-4185.9,7688.5-4183.8,7805.5-4388.4z"/><path d="M7327.2,2252.7c-29.2-56.4-29.2-3644.3,0-3700.7c29.2-54.3,137.8-54.3,167.1,0c14.6,27.1,20.9,643.2,20.9,1850.3s-6.3,1823.2-20.9,1850.3c-14.6,25.1-43.9,39.7-83.5,39.7S7341.8,2277.8,7327.2,2252.7z"/></g></g>
</svg>