<?xml version="1.0" encoding="utf-8"?>
<!-- Svg Vector Icons : http://www.onlinewebfonts.com/icon -->
<!DOCTYPE svg PUBLIC "-//W3C//DTD SVG 1.1//EN" "http://www.w3.org/Graphics/SVG/1.1/DTD/svg11.dtd">
<svg version="1.1" xmlns="http://www.w3.org/2000/svg" xmlns:xlink="http://www.w3.org/1999/xlink" x="0px" y="0px" viewBox="0 0 1000 1000" enable-background="new 0 0 1000 1000" xml:space="preserve">
<metadata> Svg Vector Icons : http://www.onlinewebfonts.com/icon </metadata>
<g><g transform="translate(0.000000,512.000000) scale(0.100000,-0.100000)"><path d="M1664.8,4996.6c-174.3-65.1-348.6-250.9-396.5-421.4c-15.3-55.5-19.2-1294.9-15.3-4492l5.7-4415.4l44.1-88.1c53.6-111.1,197.3-254.8,308.4-308.4l88.1-44l3275.6-5.7c2961.4-3.8,3283.3-1.9,3367.5,26.8c116.9,38.3,295,201.1,358.2,325.6l47.9,93.9V121.5v4453.7l-44.1,88.1c-53.6,111.1-197.3,254.8-308.4,308.4l-88.1,44.1l-3285.2,3.8C2258.6,5021.5,1726,5017.7,1664.8,4996.6z M3854.2,3885.6v-814.1H2714.5H1574.7v685.8c0,392.7,7.7,712.6,19.2,752.8c23,80.4,88.1,145.6,164.7,170.5c30.6,7.7,515.3,17.2,1076.5,17.2l1019.1,1.9V3885.6z M8281.1,4667.1c61.3-23,88.1-49.8,114.9-109.2c32.6-72.8,36.4-137.9,36.4-781.5v-704.9H6306.1H4179.9v814.1v814.1h2011.3C8018.7,4699.7,8208.3,4695.8,8281.1,4667.1z M8432.4-529.8v-3275.6H5003.6H1574.7v3266v3266l1250.9,5.7c685.8,1.9,2229.7,5.8,3428.8,9.6l2178,3.8V-529.8z M8432.4-4182.8c0-30.6-17.2-88.1-36.4-132.2c-68.9-153.2,208.8-141.8-3398.2-141.8c-3080.2,0-3206.6,1.9-3281.4,36.4c-59.4,26.8-86.2,53.6-109.2,114.9c-19.2,44.1-32.6,101.5-32.6,126.4v47.9h3428.9h3428.9V-4182.8z"/><path d="M6237.2,4519.6c-120.7-53.6-118.8-252.9,1.9-298.8c126.4-47.9,352.5-7.7,381.2,67c26.8,70.9,11.5,157.1-36.4,201.1C6522.6,4546.4,6331,4563.7,6237.2,4519.6z"/><path d="M6909.6,4529.2c-130.3-53.6-147.5-237.5-28.7-298.8c78.5-40.2,570.8-42.1,649.4,0c120.7,61.3,109.2,249-17.2,295C7440.2,4550.3,6968.9,4552.2,6909.6,4529.2z"/><path d="M4913.5,4469.8c-436.7-205-528.7-737.5-182-1055.5c260.5-241.4,609.1-241.4,869.7,0c346.7,318,254.8,850.5-182,1055.5c-95.8,46-143.7,57.5-252.9,57.5S5009.3,4515.8,4913.5,4469.8z M5348.4,4157.6c97.7-65.1,139.8-151.3,139.8-283.5c-1.9-205-111.1-312.2-321.8-314.1c-206.9,0-321.8,116.9-319.9,327.6c1.9,199.2,118.8,314.2,319.9,314.2C5258.3,4201.6,5300.5,4192,5348.4,4157.6z"/><path d="M6198.9,4002.4c-72.8-61.3-74.7-164.7-1.9-237.5c47.9-47.9,65.1-51.7,193.5-51.7c124.5,0,149.4,5.7,191.6,46c67.1,63.2,69,176.2,1.9,241.4c-40.2,42.1-63.2,47.9-189.6,47.9C6271.7,4048.4,6242.9,4042.6,6198.9,4002.4z"/><path d="M6852.1,4000.5c-70.9-69-70.9-164.7,1.9-239.4c46-47.9,51.7-47.9,350.6-47.9c277.8,0,308.4,3.8,346.7,38.3c65.1,59.4,80.4,116.9,49.8,191.6c-15.3,34.5-44,72.8-65.1,84.3c-23,13.4-160.9,21.1-339.1,21.1C6905.7,4048.4,6898,4046.5,6852.1,4000.5z"/><path d="M6191.2,3502.4c-65.1-70.9-63.2-172.4,7.7-231.8c44.1-40.2,72.8-46,195.4-46c126.4,0,149.4,5.7,189.6,47.9c65.1,63.2,65.1,178.1,3.8,235.6c-38.3,36.4-67.1,42.1-197.3,42.1C6250.6,3550.3,6231.4,3546.5,6191.2,3502.4z"/><path d="M6848.2,3508.2c-67-72.8-65.1-168.6,3.8-235.6c46-46,53.6-47.9,344.8-47.9c168.6,0,316.1,7.7,337.1,19.2c51.7,28.7,97.7,128.3,82.4,178.1c-5.8,23-30.6,61.3-51.7,86.2c-38.3,40.2-51.7,42.1-358.2,42.1S6886.6,3548.4,6848.2,3508.2z"/><path d="M4543.8,2374.2C3323.6,2155.8,2385,1247.8,2118.7,25.7c-28.7-128.4-36.4-245.2-36.4-555.5c0-341,5.7-419.5,44.1-591.9c141.8-628.3,475.1-1199.1,940.5-1605.2c1024.8-896.5,2423.2-992.3,3564.9-249l160.9,107.3l70.9-65.1c105.4-93.9,182-128.3,318-139.8c155.2-11.5,270.1,21.1,371.6,107.3c105.4,91.9,151.3,193.5,151.3,346.7c0,172.4-32.6,260.5-139.8,379.3l-95.8,103.4l51.7,90c164.7,285.4,296.9,628.3,367.8,961.6c51.7,233.7,51.7,879.2,0,1111c-86.2,394.6-268.2,814.1-496.1,1137.8c-183.9,266.3-511.5,576.6-808.4,770.1c-300.8,195.4-649.4,341-1005.7,419.5C5382.8,2397.2,4743,2408.7,4543.8,2374.2z M5434.6,2046.6c852.4-139.8,1599.5-701.1,1936.6-1457.7c174.3-388.9,228-647.5,228-1109.1c0-404.2-15.3-519.1-116.9-831.4c-59.4-182-227.9-538.3-256.7-538.3c-5.8,0-59.4,49.8-120.7,111.1l-111.1,111.1l67,145.6c92,197.3,153.3,392.7,193.5,614.9c47.9,266.3,32.6,659-36.4,919.5c-191.6,741.3-750.9,1354.3-1467.3,1612.9c-545.9,197.3-1216.4,157.1-1733.6-99.6c-471.2-235.6-894.6-680-1105.3-1157c-224.1-507.6-249-1111-69-1626.3c128.3-360.1,304.6-636,580.4-906.1c517.2-507.6,1266.2-747.1,1942.4-626.4c319.9,57.5,580.4,159,915.7,356.3l63.2,36.4l109.2-111.1l111.1-111.1l-55.6-44.1c-97.7-80.4-342.9-216.5-511.5-287.3c-808.3-333.3-1750.8-233.7-2488.3,262.4c-195.4,132.2-488.5,421.4-632.1,622.6c-203.1,285.4-358.2,641.7-434.8,999.9c-44.1,205-47.9,817.9-7.7,1024.8c212.6,1090,1044,1906,2128.2,2088C4764.1,2081.1,5225.8,2081.1,5434.6,2046.6z M5051.5,1376.2c-67-65.1-63.2-149.4,7.7-222.2c34.5-32.6,76.6-55.6,107.3-55.6c69,0,162.8,95.8,162.8,166.7c0,30.6-13.4,74.7-30.7,97.7c-26.8,40.2-26.8,42.1,11.5,42.1c65.1,0,323.7-70.9,459.7-126.4c296.9-120.7,708.8-432.9,708.8-538.3c0-36.4,72.8-120.7,105.4-120.7c55.5,0,258.6-419.5,318-655.1c59.4-243.3,70.9-643.6,21.1-877.3c-38.3-187.7-147.5-498-176.3-498c-7.7,0-24.9,13.4-38.3,28.8c-19.2,23-13.4,36.4,26.8,70.9c76.6,67.1,84.3,147.5,21.1,222.2c-40.2,47.9-67,61.3-116.9,61.3c-78.5,0-160.9-70.9-160.9-137.9c0-44.1-3.8-44.1-141.8-38.3c-241.4,13.4-406.1-91.9-480.8-300.7c-65.1-187.7-21.1-379.3,128.3-545.9c116.8-130.3,122.6-118.8-122.6-243.3c-568.9-287.3-1327.5-254.8-1888.7,84.3c-55.6,32.6-118.8,88.1-137.9,124.5c-24.9,40.2-57.5,65.1-95.8,72.8c-114.9,23-392.7,373.5-521,655.1c-57.5,128.3-149.4,442.5-149.4,517.2c0,42.1,1.9,42.1,42.1,15.3c72.8-51.7,159-38.3,216.5,30.7c40.2,47.9,47.9,72.8,40.2,118.8c-13.4,69-91.9,145.6-147.5,145.6c-49.8,0-145.6-49.8-157.1-80.4c-23-57.5-11.5,298.8,13.4,431c53.6,277.8,63.2,300.8,128.3,300.8c72.8,0,170.5,91.9,170.5,159c0,24.9-19.2,70.9-42.1,99.6c-40.2,51.7-40.2,51.7-3.8,120.7c19.2,38.3,72.8,114.9,114.9,170.5l78.5,101.5l24.9-57.5c28.7-70.9,70.9-95.8,155.2-95.8c147.5,0,206.9,178.1,91.9,275.8c-32.6,26.8-67,49.8-80.4,49.8c-26.8,0,191.6,170.5,268.2,206.9c55.5,26.8,63.2,24.9,111.1-13.4c28.7-21.1,74.7-40.2,99.6-40.2c67,0,159,97.7,159,170.5c0,61.3,1.9,63.2,229.9,114.9c134.1,30.7,170.5,34.5,348.6,38.3l166.6,1.9L5051.5,1376.2z M6884.6-2020.1c463.6-463.6,513.4-519.1,513.4-576.6c0-44-17.2-78.5-55.5-118.7c-109.2-109.2-111.1-109.2-685.8,467.4c-385,385-523,534.5-523,567c0,24.9,28.7,72.8,65.1,109.2C6319.6-1451.2,6311.9-1447.4,6884.6-2020.1z"/><path d="M4599.4,916.4c-55.6-30.6-99.6-126.4-80.4-178.1c61.3-172.4,312.2-149.4,312.2,28.7c0,86.2-17.2,118.8-78.5,149.4C4687.5,950.9,4662.6,950.9,4599.4,916.4z"/><path d="M5587.8,922.2c-61.3-32.6-86.2-74.7-86.2-149.4c0-183.9,250.9-210.7,312.2-34.5c19.2,53.6-24.9,149.4-84.3,178.1C5666.3,950.9,5639.5,950.9,5587.8,922.2z"/><path d="M4074.5,399.2c-47.9-46-61.3-124.5-36.4-191.6c15.3-36.4,105.4-86.2,160.9-86.2c59.4,0,153.2,101.5,153.2,162.8c0,30.6-23,72.8-55.5,107.3C4223.9,462.4,4139.6,466.3,4074.5,399.2z"/><path d="M5053.4,397.3c-67-69-65.1-147.5,5.8-220.3c86.2-84.3,206.9-63.2,250.9,42.1C5379,385.8,5179.8,523.7,5053.4,397.3z"/><path d="M6036,391.6c-32.5-34.5-55.5-76.6-55.5-107.3c0-61.3,93.8-162.8,153.2-162.8c55.5,0,145.6,49.8,160.9,86.2c24.9,67.1,11.5,145.6-36.4,191.6C6193.1,466.3,6108.8,462.4,6036,391.6z"/><path d="M3586.1-89.2c-84.3-84.3-55.5-226,57.5-264.3c159-55.6,287.3,147.5,166.7,260.5C3752.7-37.5,3639.7-35.6,3586.1-89.2z"/><path d="M4576.4-73.9c-93.9-72.8-69-241.4,42.1-279.7c69-24.9,145.6-3.8,185.8,49.8c42.1,53.6,32.6,164.7-17.2,210.7C4737.3-45.2,4628.1-35.6,4576.4-73.9z"/><path d="M5543.7-95c-114.9-120.7,11.5-314.2,170.5-258.6c113,38.3,137.9,229.9,36.4,283.5C5685.5-35.6,5587.8-47.1,5543.7-95z"/><path d="M6520.7-95c-82.4-86.2-40.2-226.1,78.5-268.2c57.5-21.1,157.1,32.6,183.9,99.6c30.7,69,1.9,162.8-57.5,193.5C6662.4-35.6,6564.7-47.1,6520.7-95z"/><path d="M4112.8-552.8c-59.4-34.5-84.3-76.6-86.2-145.6c-1.9-166.7,224.1-216.5,302.7-67.1c36.4,67.1,26.8,120.7-32.6,180.1C4237.3-527.9,4176-516.4,4112.8-552.8z"/><path d="M5059.1-585.4c-70.9-72.8-74.7-157.1-7.7-222.2c97.7-99.6,277.7-30.6,277.7,105.4c0,76.6-90,172.4-162.8,172.4C5135.7-529.8,5093.6-552.8,5059.1-585.4z"/><path d="M6036-585.4c-59.4-59.4-68.9-113-32.5-180.1c78.5-149.4,304.6-99.6,302.7,67.1c-1.9,70.9-26.8,113-90,145.6C6149.1-516.4,6095.4-526,6036-585.4z"/><path d="M3576.5-1089.2c-40.2-47.9-47.9-72.8-40.2-118.8c24.9-116.8,134.1-172.4,237.5-118.8c145.6,74.7,86.2,298.8-80.4,298.8C3643.5-1027.9,3616.7-1041.3,3576.5-1089.2z"/><path d="M4568.7-1070c-57.5-65.1-65.1-105.4-34.5-180.1c67-162.8,296.9-113,296.9,65.1C4831.2-1043.2,4660.7-970.4,4568.7-1070z"/><path d="M5551.4-1068.1c-38.3-30.6-49.8-55.5-49.8-114.9c0-180.1,229.9-229.9,296.9-67.1C5865.6-1091.1,5689.3-960.8,5551.4-1068.1z"/><path d="M4130.1-1525.9c-105.4-42.1-134.1-182-55.6-258.6c93.9-95.8,249-46,270.1,88.1C4363.8-1579.5,4237.3-1479.9,4130.1-1525.9z"/><path d="M5107-1525.9c-105.4-42.1-134.1-182-55.5-258.6c97.7-99.6,277.7-30.7,277.7,103.4C5329.2-1571.9,5202.8-1485.7,5107-1525.9z"/><path d="M4570.6-2050.8c-111.1-93.8-38.3-279.7,109.2-279.7c137.9,0,208.8,201.1,101.5,285.4C4714.3-1991.4,4635.8-1993.3,4570.6-2050.8z"/><path d="M5549.5-2052.7c-99.6-97.7-30.7-277.8,103.4-277.8c88.1,0,162.8,74.7,162.8,162.8C5815.8-2025.9,5647.2-1953.1,5549.5-2052.7z"/></g></g>
</svg>