<?xml version="1.0" encoding="utf-8"?>
<!-- Svg Vector Icons : http://www.onlinewebfonts.com/icon -->
<!DOCTYPE svg PUBLIC "-//W3C//DTD SVG 1.1//EN" "http://www.w3.org/Graphics/SVG/1.1/DTD/svg11.dtd">
<svg version="1.1" xmlns="http://www.w3.org/2000/svg" xmlns:xlink="http://www.w3.org/1999/xlink" x="0px" y="0px" viewBox="0 0 1000 1000" enable-background="new 0 0 1000 1000" xml:space="preserve">
<metadata> Svg Vector Icons : http://www.onlinewebfonts.com/icon </metadata>
<g><g transform="translate(0.000000,511.000000) scale(0.100000,-0.100000)"><path d="M2668,4986.6c-121.1-32.3-232.1-121.1-290.6-234.1l-46.4-86.8V308.5c0-3893.1,4-4365.3,32.3-4431.9c66.6-159.4,211.9-258.3,409.7-280.5l121.1-12.1l6.1-151.4c6-137.2,12.1-155.4,60.5-191.7c60.5-46.4,135.2-36.3,197.8,26.2c32.3,32.3,40.4,68.6,40.4,181.6v141.3H4995h1796.2v-121.1c0-147.3,28.3-211.9,107-244.2c48.4-20.2,68.6-20.2,113,4c72.6,40.4,102.9,111,102.9,242.2v113l113,14.1c183.7,22.2,312.8,107,397.6,264.4l44.4,80.7V282.2c0,3600.4-4,4353.2-28.3,4415.8c-34.3,100.9-129.2,207.9-232.1,262.4l-82.7,44.4l-2280.5,4C3227,5012.9,2744.7,5006.8,2668,4986.6z M7315.9,4647.6c40.4-44.4,40.4-62.6,40.4-1564.1V1563.8H4995H2633.7v1517.7v1517.7l44.4,46.4l42.4,46.4H4997h2276.5L7315.9,4647.6z M7356.2-1372.7c0-2607.5,0-2633.7-40.4-2674.1c-40.4-40.4-66.6-40.4-2314.9-40.4H2726.5l-46.4,44.4l-46.4,42.4v2631.7V1261H4995h2361.3V-1372.7z"/><path d="M3388.5,3814l-50.5-50.4l6.1-738.7l6.1-738.7l48.4-38.3c62.6-52.5,129.2-48.4,197.8,10.1l56.5,48.4l6,653.9c6.1,710.4,0,807.3-58.5,865.8C3545.9,3880.6,3449,3874.6,3388.5,3814z"/><path d="M3398.6,576.9l-58.5-58.5v-716.5c0-692.2,2-716.5,42.4-768.9c54.5-68.6,173.6-74.7,232.1-10.1c36.3,40.4,38.3,82.7,38.3,779v736.6l-56.5,48.4C3521.7,651.6,3471.2,647.5,3398.6,576.9z"/></g></g>
</svg>