<?xml version="1.0" encoding="utf-8"?>
<!-- Svg Vector Icons : http://www.onlinewebfonts.com/icon -->
<!DOCTYPE svg PUBLIC "-//W3C//DTD SVG 1.1//EN" "http://www.w3.org/Graphics/SVG/1.1/DTD/svg11.dtd">
<svg version="1.1" xmlns="http://www.w3.org/2000/svg" xmlns:xlink="http://www.w3.org/1999/xlink" x="0px" y="0px" viewBox="0 0 1000 1000" enable-background="new 0 0 1000 1000" xml:space="preserve">
<metadata> Svg Vector Icons : http://www.onlinewebfonts.com/icon </metadata>
<g><g transform="translate(0.000000,480.000000) scale(0.100000,-0.100000)"><path d="M4779.9,4379.9c-279.4-45.9-497.6-149.3-675.6-317.7c-160.8-151.2-241.2-283.2-290.9-476.6c-34.4-139.7-38.3-212.4-38.3-895.7v-742.6h-239.2c-130.1,0-256.5-9.6-281.3-21.1c-24.9-9.6-516.7-629.7-1096.6-1376.1L1105.3-806.7H670.8c-461.2-1.9-512.9-9.6-549.3-91.9c-28.7-63.2-28.7-1288,0-1351.2c11.5-26.8,42.1-57.4,68.9-68.9c65.1-30.6,9554.1-30.6,9619.1,0c26.8,11.5,57.4,42.1,68.9,68.9c28.7,63.2,28.7,1288,0,1351.2c-36.4,82.3-88,90-549.3,90l-434.5,1.9L7842.1,550.3c-578,746.4-1071.8,1366.5-1096.6,1376.1c-24.9,11.5-151.2,21.1-281.3,21.1h-239.2v733c0,796.2-9.6,890-107.2,1098.6c-78.5,164.6-302.4,382.8-486.1,470.8c-78.5,36.4-197.1,82.3-264.1,99.5C5223.9,4385.7,4915.8,4401,4779.9,4379.9z M5403.8,4035.4c306.2-97.6,514.8-365.6,514.8-667.9v-84.2l-80.4,70.8c-45.9,38.3-141.6,99.5-216.3,134c-214.4,101.4-350.2,132.1-622,132.1c-271.8,0-407.7-30.6-622-132.1c-72.7-34.4-170.3-95.7-214.4-134l-82.3-70.8v84.2c0,267.9,176.1,528.2,430.6,637.3C4737.8,4100.5,5155,4115.8,5403.8,4035.4z M5403.8,3269.9c306.2-97.6,514.8-365.6,514.8-667.9v-84.2l-80.4,70.8c-45.9,38.3-141.6,99.5-216.3,134c-214.4,101.4-350.2,132.1-622,132.1c-271.8,0-407.7-30.6-622-132.1c-72.7-34.4-170.3-95.7-214.4-134l-82.3-70.8v84.2c0,267.9,176.1,528.2,430.6,637.3C4737.8,3334.9,5155,3350.3,5403.8,3269.9z M5296.6,2531.1c315.8-67,543.6-266,595.2-522.5l13.4-61.3H5000h-903.4l11.5,61.3c49.8,250.7,281.3,455.5,593.3,522.5C4858.4,2565.6,5134,2565.6,5296.6,2531.1z M7555,431.6c516.7-664.1,941.6-1215.3,943.5-1223c3.8-9.6-1559.8-17.2-3498.5-17.2c-1975.1,0-3502.4,7.7-3498.6,17.2c3.8,7.6,428.7,558.9,943.5,1223l937.8,1207.7H5000h1617.2L7555,431.6z M9593.3-1574.2v-459.3H5000H406.7v459.3v459.3H5000h4593.3V-1574.2z"/><path d="M2550.2-1574.2v-153.1h153.1h153.1v153.1v153.1h-153.1h-153.1V-1574.2z"/><path d="M3162.7-1574.2v-153.1h153.1h153.1v153.1v153.1h-153.1h-153.1V-1574.2z"/><path d="M3775.1-1574.2v-153.1h153.1h153.1v153.1v153.1h-153.1h-153.1V-1574.2z"/><path d="M4387.6-1574.2v-153.1H5000h612.4v153.1v153.1H5000h-612.4V-1574.2z"/><path d="M5918.6-1574.2v-153.1h153.1h153.1v153.1v153.1h-153.1h-153.1V-1574.2z"/><path d="M6531.1-1574.2v-153.1h153.1h153.1v153.1v153.1h-153.1h-153.1V-1574.2z"/><path d="M7143.5-1574.2v-153.1h153.1h153.1v153.1v153.1h-153.1h-153.1V-1574.2z"/><path d="M3028.7-3019.1l-277.5-277.5l109.1-109.1l111-111l95.7,95.7l95.7,93.8v-731.1v-731.1h153.1h153.1v731.1v731.1l95.7-93.8l95.7-95.7l111,111l109.1,109.1l-277.5,277.5c-153.1,153.1-281.3,277.5-287.1,277.5S3181.8-2866,3028.7-3019.1z"/><path d="M4712.9-3019.1l-277.5-277.5l109.1-109.1l111-111l95.7,95.7l95.7,93.8v-731.1v-731.1H5000h153.1v731.1v731.1l95.7-93.8l95.7-95.7l111,111l109.1,109.1l-277.5,277.5C5134-2866,5005.7-2741.6,5000-2741.6S4866-2866,4712.9-3019.1z"/><path d="M6397.1-3019.1l-277.5-277.5l109.1-109.1l111-111l95.7,95.7l95.7,93.8v-731.1v-731.1h153.1h153.1v731.1v731.1l95.7-93.8l95.7-95.7l111,111l109.1,109.1l-277.5,277.5c-153.1,153.1-281.3,277.5-287.1,277.5C6678.5-2741.6,6550.2-2866,6397.1-3019.1z"/></g></g>
</svg>