<?xml version="1.0" encoding="utf-8"?>
<!-- Svg Vector Icons : http://www.onlinewebfonts.com/icon -->
<!DOCTYPE svg PUBLIC "-//W3C//DTD SVG 1.1//EN" "http://www.w3.org/Graphics/SVG/1.1/DTD/svg11.dtd">
<svg version="1.1" xmlns="http://www.w3.org/2000/svg" xmlns:xlink="http://www.w3.org/1999/xlink" x="0px" y="0px" viewBox="0 0 1000 1000" enable-background="new 0 0 1000 1000" xml:space="preserve">
<metadata> Svg Vector Icons : http://www.onlinewebfonts.com/icon </metadata>
<g><g transform="translate(0.000000,512.000000) scale(0.100000,-0.100000)"><path d="M408.2,4970.2l-49.8-51.7V125.7V-4669l55.5-55.5l55.5-55.5H5000h4530.6l55.5,55.5l55.5,55.5V125.7v4792.8l-49.8,51.7l-51.7,49.8H5000H459.8L408.2,4970.2z M9297.1,4015.1v-660.4H5000H702.9v660.4v660.4H5000h4297.1V4015.1z M9312.4-706.9l-5.7-3738.2H5000H693.4l-5.7,3738.2l-3.8,3736.2H5000h4316.2L9312.4-706.9z"/><path d="M1076.2,4474.5c-47.9-45.9-47.9-45.9-47.9-449.8c0-539.8-40.2-497.7,486.2-497.7c386.6,0,392.4,0,446,45.9l53.6,45.9l5.7,369.4c3.8,254.6,0,384.7-17.2,423c-44,105.3-67,111-491.9,111C1124,4522.3,1122.1,4522.3,1076.2,4474.5z M1679.1,4024.7v-172.3h-162.7h-162.7v172.3V4197h162.7h162.7V4024.7z"/><path d="M2239.9,4476.4l-53.6-45.9v-405.8v-405.8l53.6-45.9c53.6-45.9,59.3-45.9,446-45.9c526.4,0,486.2-40.2,486.2,491.9c-1.9,283.3-7.7,407.7-24.9,428.8c-51.7,67-103.4,74.6-480.4,74.6C2299.3,4522.3,2293.5,4522.3,2239.9,4476.4z M2846.7,4024.7v-172.3H2684h-162.7v172.3V4197H2684h162.7V4024.7z"/><path d="M4923.4,4499.4c-80.4-45.9-84.2-67-86.1-480.4v-398.1l49.8-45.9l51.7-47.9h2034.7c1450.9,0,2048,5.7,2080.6,21.1c80.4,36.4,90,90,90,488.1v375.2l-55.5,55.5l-55.5,55.5H6996.4C5501.5,4520.4,4952.1,4514.7,4923.4,4499.4z M8809,4024.7V3862l-1822.2-5.7l-1824.1-3.8v158.9c0,88,5.7,166.5,13.4,172.3c5.7,7.7,826.9,11.5,1822.2,9.6l1810.7-5.7V4024.7z"/><path d="M1296.3,2181.5c-122.5-30.6-114.8,170.4-114.8-3075.9v-2951.5l55.5-55.5l55.5-55.5h3675c2639.5,0,3690.3,5.7,3734.3,21c124.4,44,116.8-164.6,116.8,3060.6c0,3192.7,5.7,3026.1-103.4,3054.8C8644.4,2196.8,1363.3,2198.7,1296.3,2181.5z M8474,789.9V-282h-160.8h-162.7l-5.7,407.7l-5.7,405.8L8074,652.1c-76.6,139.7-214.4,271.8-336.9,321.6L7651,1010v178v176.1h112.9c126.3,0,199,42.1,220.1,124.4c17.2,65.1-34.5,170.4-95.7,199.1c-30.6,13.4-178,21.1-402,21.1c-386.7,0-440.2-11.5-482.4-105.3c-36.4-78.5-26.8-122.5,32.5-183.8c49.8-47.9,70.8-55.5,162.7-55.5h107.2V1188v-178l-105.3-55.5c-137.8-70.8-283.3-231.6-333.1-365.6c-36.4-95.7-40.2-149.3-40.2-488.1V-282h-170.4h-172.3l-5.7,417.3c-5.7,394.3-7.6,419.2-51.7,499.6c-65.1,124.4-218.2,277.5-327.3,329.2l-95.7,45.9v176.1v178h107.2c91.9,0,112.9,7.7,162.7,55.5c68.9,70.8,72.7,151.2,9.6,225.9l-45.9,53.6h-402c-400,0-403.9,0-451.7-45.9c-67-63.2-68.9-176.1-1.9-241.2c38.3-40.2,65.1-47.9,162.7-47.9h114.8V1188v-178l-88-36.4c-120.6-49.8-283.3-214.4-348.4-350.3c-49.8-107.2-51.7-122.5-57.4-507.2l-5.7-398.1H5000h-158.9l-7.7,398.1c-5.7,384.7-7.7,400-57.4,507.2c-65.1,135.9-227.8,300.5-348.4,350.3l-88,36.4v178v176.1h114.8c97.6,0,124.4,7.7,162.7,47.9c67,65.1,65.1,178-1.9,241.2c-47.8,45.9-51.7,45.9-451.7,45.9h-402l-45.9-53.6c-63.2-74.7-59.3-155,9.6-225.9c49.8-47.9,70.8-55.5,162.7-55.5h107.2v-178v-178l-80.4-36.4c-122.5-53.6-279.5-212.5-342.6-344.5l-55.5-114.8V116.2V-282h-170.3H3174l-5.8,407.7c-5.7,398.1-5.7,407.7-59.3,513C3047.7,765,2909.8,900.9,2772,969.8l-97.6,49.8v172.3v172.3h116.8c103.4,0,122.5,5.7,172.3,55.5c59.3,61.3,68.9,105.3,32.5,183.8c-42.1,93.8-95.7,105.3-484.3,105.3c-402,0-451.7-11.5-486.2-120.6c-45.9-135.9,38.3-224,212.5-224h111V1188v-178l-86.1-36.4c-122.5-49.8-260.3-181.8-336.9-321.6l-65.1-120.6l-5.7-405.8l-5.7-407.7h-162.7H1526V789.9v1071.9h3474h3474V789.9z M2693.6,654c132.1-74.6,143.6-111,149.3-547.4l5.8-388.5h-335h-336.9V58.8c0,438.3,19.1,511.1,162.7,599.1C2421.8,709.5,2599.8,707.6,2693.6,654z M4372.2,644.5c114.8-86.1,126.3-130.2,134-545.5l7.7-380.9h-335H3842V87.5c0,344.5,1.9,375.2,44,453.6c59.3,116.8,139.7,157,304.3,149.3C4284.1,684.6,4333.9,673.2,4372.2,644.5z M6004.9,659.8c42.1-23,84.2-67,111-118.7c40.2-78.5,42.1-109.1,42.1-453.6V-282h-335h-335V39.6c1.9,457.5,26.8,545.5,174.2,620.2C5748.4,705.7,5918.7,703.8,6004.9,659.8z M7670.1,650.2c130.2-86.1,143.6-132.1,149.3-553.2l7.7-379h-336.9h-336.9V85.5c0,423,17.2,490,147.4,566.6C7404.1,711.4,7582.1,709.5,7670.1,650.2z M8474-1300.2v-671.8l-59.3,84.2c-530.2,740.8-1447.1,1085.3-2285.4,855.6c-189.5-51.7-246.9-51.7-436.4,0c-336.9,91.9-715.9,91.9-1056.6,0c-189.5-51.7-248.8-51.7-436.4,0c-346.4,95.7-706.3,91.9-1092.9-9.6c-183.8-47.9-193.3-47.9-287.1-19.2c-371.3,116.8-790.5,128.3-1158,34.5l-135.9-32.5v216.3v216.3h3474h3474V-1300.2z M2636.1-1344.3c185.7-49.8,488.1-199.1,658.4-327.3c285.2-214.4,549.3-612.5,647-974.3c49.8-189.5,59.3-654.6,17.2-846l-26.8-120.6h-170.4c-145.5,0-170.3,3.8-160.8,28.7c44,118.7,72.7,359.8,63.2,545.5c-38.3,735-635.5,1345.6-1383.9,1410.7c-176.1,13.4-415.4-21.1-604.8-90L1526-1773v179.9v178l120.6,40.2c65.1,21,162.7,47.9,214.4,57.4C2004.5-1288.7,2488.7-1306,2636.1-1344.3z M4129.1-1344.3c185.7-47.9,526.4-222,687.1-350.3c273.7-220.1,522.5-602.9,616.3-951.3c51.7-189.5,61.3-654.6,19.1-846l-26.8-120.6h-170.4c-145.5,0-170.3,3.8-160.8,28.7c44,118.7,72.7,359.8,63.2,535.9c-13.4,225.9-49.8,371.3-139.7,555.1c-220.1,453.6-648.9,773.3-1142.7,851.7c-134,23-151.2,30.6-273.7,137.8c-72.7,63.2-153.1,128.3-178,145.5c-42.1,28.7-42.1,30.6-9.6,45.9C3474.5-1284.9,3993.2-1309.8,4129.1-1344.3z M5622.1-1344.3c179.9-47.9,524.5-220.1,679.5-344.5c289-227.8,524.5-589.5,622.1-957c59.3-222,70.8-549.3,28.7-782.9l-32.5-183.8h-170.3c-93.8,0-170.4,5.7-170.4,11.5s15.3,59.3,32.5,118.7c53.6,174.2,47.8,564.6-9.6,750.3c-183.8,587.6-650.8,999.1-1240.3,1092.9c-141.7,21.1-157,28.7-256.5,120.6c-57.4,55.5-134,120.6-170.4,145.5c-59.3,40.2-61.3,45.9-28.7,61.3C4967.5-1284.9,5486.2-1309.8,5622.1-1344.3z M7134.2-1351.9c633.5-166.5,1112.1-645,1286.2-1286.2c36.4-134,44-208.6,44-457.5c0-178-9.6-340.7-24.9-405.8l-24.9-111h-174.2c-170.3,0-172.3,0-160.8,44c82.3,277.5,86.1,606.8,11.5,846c-179.9,578.1-650.8,989.6-1236.5,1083.4c-141.7,21.1-157,28.7-256.5,120.6c-57.4,55.5-134,120.6-170.4,145.5c-59.3,40.2-61.2,45.9-28.7,61.3C6473.8-1281.1,6961.9-1307.9,7134.2-1351.9z M2492.6-1998.9c304.3-74.6,593.4-306.3,723.5-580c135.9-287.1,160.8-612.5,67-891.9l-44-132.1l-857.5-5.8l-855.6-3.8l3.8,731.2l5.7,731.2l76.6,44C1864.8-1962.5,2186.3-1922.3,2492.6-1998.9z M4240.1-2098.4c239.3-120.6,442.1-365.6,534-643.1c42.1-128.2,49.8-187.6,49.8-373.2c1.9-185.7-5.7-241.2-45.9-354.1l-45.9-134l-225.9-5.8c-210.5-3.8-225.9-1.9-216.3,28.7c26.8,88,49.8,298.6,49.8,455.5c0,329.2-86.1,679.5-241.2,989.6C4023.8-1985.5,4020-1987.4,4240.1-2098.4z M5744.6-2106c241.2-128.3,417.3-342.6,516.8-625.9c51.7-145.5,57.4-187.6,57.4-382.8c-1.9-181.8-9.6-243.1-47.8-354.1l-45.9-134l-224-5.8c-124.4-1.9-225.8-1.9-225.8,0c0,3.8,13.4,74.6,28.7,158.9c72.7,407.7-7.7,916.8-204.8,1295.8c-34.5,67-65.1,126.3-68.9,135.9C5520.6-1998.9,5612.5-2035.2,5744.6-2106z M7239.5-2106c455.5-239.3,692.9-867.1,518.7-1374.3l-42.1-122.5l-224-5.8c-122.5-1.9-223.9-1.9-223.9,0c0,3.8,13.4,74.6,28.7,158.9c82.3,459.4-1.9,897.7-273.7,1431.7C7013.6-1998.9,7103.6-2035.2,7239.5-2106z"/></g></g>
</svg>