<?xml version="1.0" encoding="utf-8"?>
<!-- Svg Vector Icons : http://www.onlinewebfonts.com/icon -->
<!DOCTYPE svg PUBLIC "-//W3C//DTD SVG 1.1//EN" "http://www.w3.org/Graphics/SVG/1.1/DTD/svg11.dtd">
<svg version="1.1" xmlns="http://www.w3.org/2000/svg" xmlns:xlink="http://www.w3.org/1999/xlink" x="0px" y="0px" viewBox="0 0 1000 1000" enable-background="new 0 0 1000 1000" xml:space="preserve">
<metadata> Svg Vector Icons : http://www.onlinewebfonts.com/icon </metadata>
<g><path d="M198.4,123.1c-10.4,0-18.8,8.4-18.8,18.8s8.4,18.8,18.8,18.8c10.4,0,18.8-8.4,18.8-18.8S208.8,123.1,198.4,123.1z M820.4,10H179.6c-41.7,0-75.3,33.8-75.3,75.3v829.3c0,41.7,33.8,75.3,75.3,75.3h640.8c41.7,0,75.3-33.8,75.3-75.3V85.3C895.7,43.8,862.1,10,820.4,10z M669.6,952.4H179.5c-20.8,0-37.7-16.8-37.7-37.7V273.9H858v640.8c0,20.9-16.8,37.7-37.7,37.7h-37.6 M858,236.1H141.9V85.3c0-20.9,16.8-37.7,37.7-37.7h640.8c20.8,0,37.7,16.8,37.7,37.7L858,236.1L858,236.1z M500,85.3H386.8c-31.3,0-56.5,25.4-56.5,56.5c0,31.2,25.3,56.5,56.5,56.5h113.1c31.3,0,56.5-25.4,56.5-56.5C556.5,110.7,531.2,85.3,500,85.3z M500,160.8H386.8c-10.4,0-18.8-8.4-18.8-18.8c0-10.4,8.4-18.8,18.8-18.8h113.1c10.4,0,18.8,8.4,18.8,18.8C518.8,152.4,510.4,160.8,500,160.8z M273.8,123.1c-10.4,0-18.8,8.4-18.8,18.8s8.4,18.8,18.8,18.8c10.4,0,18.8-8.4,18.8-18.8C292.7,131.5,284.1,123.1,273.8,123.1z"/><path d="M410.6,688c3.7-10.1,6.5-22.1,5.2-34.3c-0.3-12.5-3.8-24.8-8.1-37c-4.7-11.9-10-24.1-16.4-35.3c-6.3-11.5-13-22.7-19.8-33.9c-6.9-10.9-13.8-21.9-20.6-32.6l-5-8.1c-1.5-2.4-2.8-5-4.3-7.5l-4.2-7.5c-1.2-2.5-2.1-5.1-3.1-7.7c-4.4-10.2-6-20.4-6.9-30.4c0.4-9.7,1.1-19.4,4.6-27.7c3-8.4,7-15.9,11.3-22.2c4.4-6.2,8.6-11.5,12.5-15.5c7.7-8.2,13-12.2,13-12.2s-6.3,2.1-16.2,8.3c-4.9,3.2-10.8,7.3-16.7,13.1c-6,5.8-12.2,13-17.2,22.4c-5.6,9.1-8.6,20.7-10.3,33c-0.5,12.4,0,25.9,4.6,38.4c1,3.2,2,6.5,3.2,9.6l4.3,9.2c1.4,3.1,2.8,6.2,4.5,9.3l4.8,8.2c6.6,11,13.3,22.2,20,33.4c6.9,10.9,13.8,21.8,20.1,32.6c6.2,10.8,12.2,21.2,17.1,31.7c4.3,10.5,8.6,20.7,10,30.5c2.1,9.8,1.2,19.1-0.2,27.8c-1.2,4.2-2.8,8.1-4,12c-2,3.6-3.8,7.1-5.7,10.4c-4,6.2-8.4,11.5-11.9,15.9c-7.9,8-12.4,12.9-12.4,12.9s5.7-3.1,15.7-9.1c4.6-3.5,10.5-7.7,16.3-13.7c2.7-3.2,5.7-6.6,8.7-10.3C405.6,697.4,408.3,692.9,410.6,688L410.6,688z"/><path d="M553,688c3.7-10.1,6.5-22.1,5.2-34.3c-0.3-12.5-3.8-24.8-8.1-37c-4.7-11.9-10-24.1-16.4-35.3c-6.3-11.5-13.1-22.7-19.8-33.9c-6.9-10.9-13.8-21.9-20.6-32.6l-5-8.1c-1.5-2.4-2.8-5-4.3-7.5l-4.2-7.5c-1.2-2.5-2.1-5.1-3.1-7.7c-4.4-10.2-6-20.4-6.9-30.4c0.4-9.7,1.1-19.4,4.5-27.7c3-8.4,7-15.9,11.3-22.2c4.4-6.2,8.6-11.5,12.5-15.5c7.7-8.2,13-12.2,13-12.2s-6.3,2.1-16.2,8.3c-4.9,3.2-10.8,7.3-16.7,13.1c-6,5.8-12.2,13-17.2,22.4c-5.6,9.1-8.6,20.7-10.3,33c-0.5,12.4,0,25.9,4.6,38.4c1,3.2,2,6.5,3.2,9.6l4.3,9.2c1.4,3.1,2.8,6.1,4.5,9.3l4.8,8.2c6.6,11,13.3,22.2,20,33.4c6.9,10.9,13.8,21.8,20.1,32.6c6.2,10.8,12.2,21.2,17.1,31.7c4.3,10.5,8.6,20.7,10,30.5c2.1,9.8,1.2,19.1-0.2,27.8c-1.2,4.2-2.8,8.1-4,12c-2,3.6-3.8,7.1-5.7,10.4c-4,6.2-8.4,11.5-11.9,15.9c-7.9,8-12.4,12.9-12.4,12.9s5.7-3.1,15.7-9.1c4.6-3.5,10.5-7.7,16.3-13.7c2.7-3.2,5.7-6.6,8.7-10.3C548.2,697.4,550.7,692.9,553,688L553,688z"/><path d="M709.4,653.6c-0.3-12.5-3.8-24.8-8.1-37c-4.7-11.9-10-24.1-16.4-35.3c-6.3-11.5-13.1-22.7-19.8-33.9c-6.9-10.9-13.8-21.9-20.6-32.6l-5-8.1c-1.5-2.4-2.8-5-4.3-7.5l-4.2-7.5c-1.2-2.5-2.1-5.1-3.1-7.7c-4.4-10.2-6-20.4-6.9-30.4c0.4-9.7,1.1-19.4,4.6-27.7c3-8.4,7-15.9,11.3-22.2c4.4-6.2,8.6-11.5,12.5-15.5c7.7-8.2,13-12.2,13-12.2s-6.3,2.1-16.2,8.3c-4.9,3.2-10.7,7.3-16.7,13.1c-6,5.8-12.2,13-17.2,22.4c-5.6,9.1-8.6,20.7-10.3,33c-0.5,12.4,0,25.9,4.6,38.4c1,3.2,2,6.5,3.2,9.6l4.3,9.2c1.4,3.1,2.8,6.2,4.5,9.3l4.8,8.2c6.6,11,13.3,22.2,20,33.4c6.9,10.9,13.8,21.8,20.1,32.6c6.2,10.8,12.2,21.2,17.1,31.7c4.3,10.5,8.6,20.7,10,30.5c2.1,9.8,1.2,19.1-0.2,27.8c-1.2,4.2-2.8,8.1-4,12c-2,3.6-3.8,7.1-5.7,10.4c-4,6.2-8.4,11.5-11.9,15.9c-7.9,8-12.4,12.9-12.4,12.9s5.7-3.1,15.7-9.1c4.6-3.5,10.5-7.7,16.3-13.7c2.7-3.2,5.7-6.6,8.7-10.3c2.4-4.2,4.9-8.6,7.2-13.6C707.9,677.9,710.7,666,709.4,653.6L709.4,653.6z"/><path d="M293.9,777.5h430.2v28.8H293.9V777.5z"/></g>
</svg>