<?xml version="1.0" encoding="utf-8"?>
<!-- Svg Vector Icons : http://www.onlinewebfonts.com/icon -->
<!DOCTYPE svg PUBLIC "-//W3C//DTD SVG 1.1//EN" "http://www.w3.org/Graphics/SVG/1.1/DTD/svg11.dtd">
<svg version="1.1" xmlns="http://www.w3.org/2000/svg" xmlns:xlink="http://www.w3.org/1999/xlink" x="0px" y="0px" viewBox="0 0 1000 1000" enable-background="new 0 0 1000 1000" xml:space="preserve">
<metadata> Svg Vector Icons : http://www.onlinewebfonts.com/icon </metadata>
<g><g transform="translate(0.000000,511.000000) scale(0.100000,-0.100000)"><path d="M1010.2,4969.4c-285.1-91.3-523.5-336.4-608.1-623.8c-31.2-109.2-35.6-512.4-35.6-3967.5c0-3455.1,4.5-3858.3,35.6-3967.5c86.9-294.1,336.4-545.8,630.4-630.4c109.2-31.2,519-35.6,3967.5-35.6c3448.4,0,3858.3,4.5,3967.5,35.6c294.1,84.7,543.6,336.4,630.4,630.4c31.2,109.1,35.6,512.4,35.6,3967.5c0,3448.4-4.5,3858.3-35.6,3967.5c-84.7,294-336.4,543.5-630.4,630.4c-109.1,31.2-510.1,35.6-3976.4,33.4C1348.9,5009.5,1128.3,5007.3,1010.2,4969.4z M8916.2,4628.6c142.6-35.6,298.5-191.6,334.2-334.2c37.9-149.2,37.9-7683.2,0-7832.5c-35.6-142.6-191.6-298.5-334.2-334.2c-149.3-37.9-7683.2-37.9-7832.5,0c-131.4,33.4-294.1,189.4-334.2,320.8c-37.9,131.4-40.1,7692.1,0,7845.8c33.4,133.7,193.8,300.7,320.8,334.2C1201.8,4662,8775.9,4664.2,8916.2,4628.6z"/><path d="M1901.3,3900.1c-285.1-91.3-523.5-336.4-608.2-623.8c-53.5-178.2-53.5-1695.3,0-1875.7c86.9-296.3,338.6-545.8,637.1-632.7c106.9-31.2,242.8-33.4,980.2-29l855.4,6.7l167.1,82.4c207.2,102.5,352,249.5,450,458.9l71.3,149.3l6.7,853.2c4.5,737.4,2.2,873.3-29,980.2c-86.9,298.5-336.4,550.2-632.7,637.1c-102.5,29-256.2,35.6-946.8,33.4C2121.8,3940.2,2012.7,3935.8,1901.3,3900.1z M3694.6,3572.7c29-11.1,22.3-29-42.3-100.2c-42.3-49-78-106.9-78-131.4c0-109.2,91.3-200.5,202.7-200.5c24.5,0,93.6,46.8,153.7,102.5l111.4,102.5l26.7-62.4c42.3-93.6,42.3-1795.5,0-1889.1l-26.7-62.4l-111.4,102.5c-60.2,55.7-129.2,102.5-153.7,102.5c-111.4,0-202.7-91.3-202.7-200.5c0-24.5,35.6-82.4,78-131.4c64.6-71.3,71.3-89.1,42.3-100.2c-46.8-17.8-1619.5-17.8-1666.3,0c-29,11.1-22.3,29,42.3,100.2c82.4,91.3,95.8,147,51.2,227.2c-73.5,138.1-182.7,140.4-329.7,2.2l-111.4-102.5L1654,1394c-42.3,93.6-42.3,1795.5,0,1889.1l26.7,62.4l111.4-102.5c60.2-55.7,129.2-102.5,153.7-102.5c111.4,0,202.7,91.3,202.7,200.5c0,24.5-35.6,82.4-78,129.2c-42.3,49-71.3,93.6-62.4,102.5C2026.1,3590.5,3647.8,3590.5,3694.6,3572.7z"/><path d="M2614.2,3187.3c-363.1-115.8-643.8-485.6-643.8-848.7c0-456.7,434.4-891.1,891.1-891.1c372,0,746.3,291.8,855.4,666.1C3904,2750.7,3246.8,3390,2614.2,3187.3z M3035.2,2846.4c151.5-37.9,300.7-193.8,338.6-349.7c89.1-374.3-147-692.8-512.4-692.8c-309.6,0-534.6,229.4-534.6,548c0,144.8,49,260.6,155.9,367.6C2625.3,2862,2805.7,2904.4,3035.2,2846.4z"/><path d="M6178.4,3900.1c-285.2-91.3-523.5-336.4-608.2-623.8c-53.4-178.2-53.4-1695.3,0-1875.7c84.7-294,336.4-543.5,630.4-630.4c180.4-53.5,1695.2-53.5,1875.7,0c294.1,86.9,545.8,336.4,630.4,630.4c53.4,180.4,53.4,1697.5,0,1875.7c-86.9,294-336.4,545.8-630.4,630.4c-102.5,29-256.2,35.6-946.8,33.4C6399,3940.2,6289.8,3935.8,6178.4,3900.1z M7991.7,3572.7c8.9-8.9-20-53.5-62.4-102.5c-42.3-46.8-78-104.7-78-129.2c0-109.2,91.3-200.5,202.7-200.5c24.5,0,93.6,46.8,153.7,102.5l111.4,102.5l26.7-62.4c42.3-93.6,42.3-1795.5,0-1889.1l-26.7-62.4l-111.4,102.5c-60.1,55.7-129.2,102.5-153.7,102.5c-111.4,0-202.7-91.3-202.7-200.5c0-24.5,35.6-82.4,78-131.4c64.6-71.3,71.3-89.1,42.3-100.2c-46.8-17.8-1619.5-17.8-1666.3,0c-28.9,11.1-22.3,29,42.3,100.2c42.3,49,78,106.9,78,131.4c0,109.2-91.3,200.5-202.7,200.5c-24.5,0-93.6-46.8-153.7-102.5l-111.4-102.5l-26.7,62.4c-22.3,49-29,280.7-29,944.5c0,663.8,6.7,895.5,29,944.5l26.7,62.4l111.4-102.5c60.1-55.7,129.2-102.5,153.7-102.5c111.4,0,202.7,91.3,202.7,200.5c0,24.5-35.6,84.6-78,131.4c-53.5,60.1-71.3,91.3-51.2,98C6338.8,3588.3,7976.2,3588.3,7991.7,3572.7z"/><path d="M6891.3,3187.3c-363.1-115.8-643.8-485.6-643.8-848.7c0-456.7,434.4-891.1,891.1-891.1c372,0,746.3,291.8,855.4,666.1C8181.1,2750.7,7523.9,3390,6891.3,3187.3z M7303.4,2848.7c122.5-31.2,245-131.4,309.6-249.5c69.1-131.4,69.1-389.8,0-521.3c-164.8-307.4-603.7-369.8-853.2-120.3c-213.8,213.9-213.8,548,0,761.9C6902.4,2862,7082.9,2904.4,7303.4,2848.7z"/><path d="M1901.3-20.5c-285.1-91.3-523.5-336.4-608.2-623.8c-53.5-178.2-53.5-1695.3,0-1875.7c84.7-294.1,336.4-543.6,630.4-630.4c180.4-53.5,1695.3-53.5,1875.7,0c294,86.9,545.8,336.4,630.4,630.4c53.5,180.4,53.5,1697.5,0,1875.7c-86.9,294-336.4,545.8-630.4,630.4c-102.5,29-256.2,35.6-946.8,33.4C2121.8,19.6,2012.7,15.1,1901.3-20.5z M3770.3-363.6c22.3-15.6,0-51.2-82.4-138.1c-62.4-66.8-113.6-140.3-113.6-164.8c0-73.5,46.8-151.5,104.7-178.2c93.6-42.3,140.3-26.7,262.9,89.1c86.9,82.4,122.5,104.7,138.1,82.4c8.9-15.6,20-394.3,24.5-842c8.9-822-4.4-984.6-73.5-1078.2c-31.2-40.1-35.6-37.9-122.5,40.1c-93.6,84.6-140.3,95.8-229.4,55.7c-104.7-46.8-133.7-178.2-57.9-274l44.6-57.9h-804.2h-804.2l44.6,57.9c53.5,66.8,57.9,122.5,20,193.8c-69.1,129.2-180.4,138.1-307.4,24.5c-86.9-78-91.3-80.2-122.5-40.1c-15.6,22.3-40.1,84.6-53.5,135.9c-31.2,122.5-33.4,1675.2-2.2,1757.6l22.3,57.9L1781-755.7c64.6-62.4,140.3-113.6,164.8-113.6c111.4,0,202.7,91.3,202.7,202.7c0,24.5-51.2,100.2-113.6,164.8c-78,82.4-104.7,124.8-84.6,131.4c17.8,4.5,46.8,15.6,64.6,22.3C2070.6-330.2,3739.1-343.6,3770.3-363.6z"/><path d="M2614.2-733.4c-363.1-115.8-643.8-485.6-643.8-848.7c0-372,291.8-746.3,666.1-855.4c356.4-104.7,739.6,51.2,977.9,398.7c69.1,102.5,138.1,329.7,138.1,452.2C3752.5-1014.1,3151-561.9,2614.2-733.4z M3035.2-1074.3c151.5-37.9,300.7-193.8,338.6-349.7c89.1-374.3-147-692.8-512.4-692.8c-309.6,0-534.6,229.5-534.6,548c0,142.6,49,260.6,155.9,365.3C2627.5-1056.4,2803.5-1014.1,3035.2-1074.3z"/><path d="M6178.4-20.5c-285.2-91.3-523.5-336.4-608.2-623.8c-53.4-178.2-53.4-1695.3,0-1875.7c84.7-294.1,336.4-543.6,630.4-630.4c180.4-53.5,1695.2-53.5,1875.7,0c294.1,86.9,545.8,336.4,630.4,630.4c53.4,180.4,53.4,1697.5,0,1875.7c-86.9,294-336.4,545.8-630.4,630.4c-102.5,29-256.2,35.6-946.8,33.4C6399,19.6,6289.8,15.1,6178.4-20.5z M8047.4-363.6c22.3-15.6,0-51.2-82.4-138.1c-62.4-66.8-113.6-140.3-113.6-164.8c0-111.4,91.3-202.7,202.7-202.7c24.5,0,98,51.2,164.9,113.6c86.9,82.4,122.5,104.7,138.1,82.4c8.9-15.6,20-394.3,24.5-842c8.9-822-4.5-984.6-73.5-1078.2c-31.2-40.1-35.6-37.9-122.5,40.1c-93.6,84.6-140.3,95.8-229.4,55.7c-104.7-46.8-133.7-178.2-57.9-274l44.6-57.9h-804.2h-804.2l44.6,57.9c75.7,95.8,46.8,227.2-57.9,274c-89.1,40.1-135.9,29-231.7-57.9c-100.2-91.3-107-89.1-169.3,71.3c-33.4,86.9-40.1,1695.3-6.7,1784.4l22.3,57.9l122.5-113.6c64.6-62.4,140.4-113.6,164.9-113.6c111.4,0,202.7,91.3,202.7,202.7c0,24.5-51.2,100.2-113.6,164.8c-78,82.4-104.7,124.8-84.7,131.4c17.8,4.5,46.8,15.6,64.6,22.3C6347.7-330.2,8016.3-343.6,8047.4-363.6z"/><path d="M6891.3-733.4c-363.1-115.8-643.8-485.6-643.8-848.7c0-456.7,434.4-891.1,891.1-891.1c372,0,746.3,291.8,855.4,666.1C8181.1-1170,7523.9-530.7,6891.3-733.4z M7319-1072c113.6-35.7,233.9-138.1,294.1-249.5c64.6-124.7,69.1-389.8,6.7-505.7c-86.9-167.1-225-260.6-414.3-282.9c-327.5-37.9-601.5,196-601.5,514.6c0,167.1,46.8,285.1,155.9,394.3C6902.4-1058.7,7111.8-1011.9,7319-1072z"/><path d="M2035-4475.9c-73.5-60.1-73.5-211.6,0-271.8c42.3-35.7,89.1-42.3,280.7-42.3c127,0,247.3,6.7,267.3,13.3c55.7,22.3,104.7,138.1,89.1,211.6c-24.5,109.2-82.4,131.4-347.5,131.4C2124.1-4433.6,2079.5-4440.3,2035-4475.9z"/><path d="M7381.4-4475.9c-40.1-31.2-53.5-64.6-53.5-135.9c0-149.3,53.5-178.2,334.2-178.2c127,0,247.3,6.7,267.3,13.3c55.7,22.3,104.7,138.1,89.1,211.6c-24.5,109.2-82.4,131.4-347.5,131.4C7470.5-4433.6,7425.9-4440.3,7381.4-4475.9z"/></g></g>
</svg>