<?xml version="1.0" encoding="utf-8"?>
<!-- Svg Vector Icons : http://www.onlinewebfonts.com/icon -->
<!DOCTYPE svg PUBLIC "-//W3C//DTD SVG 1.1//EN" "http://www.w3.org/Graphics/SVG/1.1/DTD/svg11.dtd">
<svg version="1.1" xmlns="http://www.w3.org/2000/svg" xmlns:xlink="http://www.w3.org/1999/xlink" x="0px" y="0px" viewBox="0 0 1000 1000" enable-background="new 0 0 1000 1000" xml:space="preserve">
<metadata> Svg Vector Icons : http://www.onlinewebfonts.com/icon </metadata>
<g><g transform="translate(0.000000,511.000000) scale(0.100000,-0.100000)"><path d="M221.7,4889.4c-83.3-36-130.7-144.2-99.1-225.3c11.3-29.3,218.5-493.4,464.1-1029.6c243.3-538.4,443.8-986.8,443.8-1000.3c0-11.3-200.5-299.6-443.8-639.8c-243.3-340.2-452.8-635.3-464.1-657.8c-13.5-24.8-22.5-1137.7-22.5-2949c0-3176.5-6.8-3005.3,128.4-3061.7c47.3-18,1266.1-24.8,4809.9-20.3l4749,6.8l56.3,56.3l56.3,58.6v2946.7c0,2633.6-2.2,2955.8-33.8,3003.1c-20.3,29.3-227.5,322.2-461.8,651.1c-236.5,326.7-428,599.3-428,606c0,13.5,804.3,1782,869.6,1910.4c72.1,144.2,69.9,241.1-4.5,310.9l-58.6,54.1l-4744.5,4.5C1077.8,4918.6,280.3,4914.1,221.7,4889.4z M9404.4,4510.9c-2.2-15.8-173.4-403.3-380.7-862.8l-380.7-833.6l-3636.1-4.5l-3633.9-6.8l-383,844.8c-209.5,466.3-385.2,856.1-389.7,867.3c-4.5,15.8,1574.8,22.5,4397.6,22.5C8507.8,4537.9,9404.4,4531.2,9404.4,4510.9z M8996.6,1947.1c187-261.3,340.2-479.9,340.2-484.4c0-6.8-437.1-11.3-971-11.3h-968.7l2.2,288.4c4.5,380.7,6.8,360.5-56.3,421.3l-54.1,56.3h-642.1h-642.1l-63.1-54.1c-63.1-54.1-63.1-54.1-69.8-383l-6.8-328.9h-337.9h-335.7v326.7c0,319.9-2.3,331.2-56.3,383l-54.1,56.3h-1746c-959.7,0-1761.7-6.8-1782-13.5c-78.8-31.5-101.4-130.7-101.4-448.3v-304.1h-385.2c-281.6,0-383,6.8-376.2,27c4.5,13.5,155.4,232,335.7,482.1l324.4,459.6h3654.1h3654.1L8996.6,1947.1z M2600.7,1652v-200.5h-383h-383v198.2V1848l383,2.3l383,2.2V1652z M3659.6,1652v-200.5h-337.9h-337.9v187c0,103.6,4.5,193.8,11.3,200.5c6.7,6.8,160,13.5,337.9,13.5l326.7,2.3V1652z M4808.5,1649.7v-198.2h-337.9h-337.9v189.2c0,225.3-29.3,209.5,401,207.3h274.9V1649.7z M7027.6,1654.2v-191.5l-387.5-6.8l-389.8-4.5v187c0,103.6,4.5,193.8,11.3,200.5c6.8,6.8,182.5,11.3,389.8,9l376.2-2.3V1654.2z M9535-1042.4l-6.8-2113.2h-4517h-4517l-6.8,2113.2L483,1068.5h4528.3h4528.2L9535-1042.4z M9535-3926.1l-6.8-378.5l-4521.5-6.8L483-4315.8v383v383h4528.3h4528.2L9535-3926.1z"/><path d="M4538.2-666.2v-1149h180.2h180.2v1149v1149h-180.2h-180.2V-666.2z"/><path d="M5351.5,424.2c-47.3-58.6-47.3-83.3-47.3-1090.4v-1029.6l58.6-54.1l58.6-54.1h738.9h739l58.6,54.1c72.1,67.6,76.6,175.7,15.8,252.3c-42.8,54.1-45.1,54.1-671.3,65.3l-626.3,11.3v766v766l626.3,11.3c626.3,11.3,628.6,11.3,671.3,65.3c56.3,67.6,54.1,162.2-4.5,236.5l-45.1,58.6h-763.7h-763.7L5351.5,424.2z"/><path d="M7284.4,440l-54.1-42.8l-6.7-1036.3l-6.8-1036.3l56.3-65.3l54.1-63.1l707.4-6.8c387.5-4.5,727.6,0,757,6.8c144.2,36,193.7,236.6,81.1,324.4c-58.6,45.1-87.9,47.3-664.6,47.3h-606v292.9v292.9h495.6c524.9,0,585.8,11.3,628.6,105.9c38.3,81.1,29.3,132.9-29.3,202.8l-54,63.1l-520.4,6.8l-520.4,6.7v292.9v290.6h615c615,0,617.3,0,664.6,51.8c67.6,72.1,65.3,196-2.2,259.1c-51.8,49.6-63.1,49.6-797.5,49.6C7381.3,482.8,7334,480.5,7284.4,440z"/></g></g>
</svg>