<?xml version="1.0" encoding="utf-8"?>
<!-- Svg Vector Icons : http://www.onlinewebfonts.com/icon -->
<!DOCTYPE svg PUBLIC "-//W3C//DTD SVG 1.1//EN" "http://www.w3.org/Graphics/SVG/1.1/DTD/svg11.dtd">
<svg version="1.1" xmlns="http://www.w3.org/2000/svg" xmlns:xlink="http://www.w3.org/1999/xlink" x="0px" y="0px" viewBox="0 0 1000 1000" enable-background="new 0 0 1000 1000" xml:space="preserve">
<metadata> Svg Vector Icons : http://www.onlinewebfonts.com/icon </metadata>
<g><g transform="translate(0.000000,511.000000) scale(0.100000,-0.100000)"><path d="M100,119.5c0-1987.7,6.4-3618.1,17-3622.4c8.5-6.4,89.3-4.3,178.6,0l163.7,12.7l6.4,172.2l6.4,172.2h903.5H2279l6.4-187.1c4.3-159.4,10.6-187.1,38.3-176.4c19.1,6.4,93.5,12.8,167.9,12.8h136l6.4,176.4l6.4,174.3l3450.2,6.4l3448.1,4.3v-184.9v-187.1l180.7,6.4l180.7,6.4V119.5v3611.8h-180.7h-180.7v-542.1v-542.1h-372h-372v106.3c0,59.5-12.8,138.2-27.6,176.4c-40.4,93.5-185,219-284.9,246.6c-53.1,14.9-695.1,23.4-1943,23.4c-1622,0-1875-4.3-1955.8-31.9c-178.6-63.8-295.5-227.5-295.5-414.5v-106.3l-822.7,4.3l-824.8,6.4l-6.4,537.8l-4.3,535.7h-170.1h-170.1v-542.1v-542.1h-914.1H461.4v542.1v542.1H280.7H100V119.5z M8450.2,2749.1l-6.4-91.4l-1872.8-6.4c-1483.8-4.3-1879.2,2.1-1896.2,21.3c-19.1,25.5-34,106.3-27.6,150.9c2.1,8.5,858.8,14.9,1906.9,14.9h1902.6L8450.2,2749.1z M2285.3,1930.7l4.3-367.8h-914.1H461.4v357.1c0,197.7,6.4,365.6,14.9,372c6.4,8.5,416.7,12.8,907.7,10.6l895-6.4L2285.3,1930.7z M9534.4,1926.5l4.3-363.5H6084.2H2629.7v357.1c0,197.7,4.3,363.5,10.6,369.9c6.4,4.2,1558.2,8.5,3448.1,4.2L9528,2290L9534.4,1926.5z M652.7,840.2V478.8h-95.7h-95.7v361.4v361.4h95.7h95.7V840.2z M2289.6,840.2V478.8h-637.7h-637.7v361.4v361.4h637.7h637.7V840.2z M8998.6-248.3l-2.1-1451.9l-97.8-6.4l-99.9-6.4l-8.5,136c-10.6,180.7-78.7,287-231.7,363.5l-112.7,55.3H6541.2H4636.5l-108.4-53.1c-153.1-76.5-225.3-189.2-236-363.5l-8.5-136.1l-822.7,4.3l-820.6,6.4l-2.1,1451.9l-4.2,1449.8h3184.5h3182.3L8998.6-248.3z M9538.6-254.6v-1456.2h-95.7h-95.7v1456.2v1456.2h95.7h95.7V-254.6z M652.7-244v-361.4h-95.7h-95.7V-244v361.4h95.7h95.7V-244z M2289.6-244v-361.4h-637.7h-637.7V-244v361.4h637.7h637.7V-244z M652.7-1338.8v-372h-95.7h-95.7v372v372h95.7h95.7V-1338.8z M2285.3-1332.4l-6.4-367.8l-631.4-6.4l-633.5-4.3v372v372h637.7h637.7L2285.3-1332.4z M8454.4-1604.5v-85h-1892h-1892l-21.3,55.3c-46.8,123.3-189.2,114.8,1892,114.8h1913.2V-1604.5z M2289.6-2423v-372h-914.1H461.4v372v372h914.1h914.1V-2423z M9538.6-2423v-372l-3448.1,4.3l-3450.2,6.4l-6.4,340.1c-2.1,184.9,0,350.8,4.2,365.6c8.5,23.4,663.3,27.6,3456.6,27.6h3443.8V-2423z"/></g></g>
</svg>