<?xml version="1.0" encoding="utf-8"?>
<!-- Svg Vector Icons : http://www.onlinewebfonts.com/icon -->
<!DOCTYPE svg PUBLIC "-//W3C//DTD SVG 1.1//EN" "http://www.w3.org/Graphics/SVG/1.1/DTD/svg11.dtd">
<svg version="1.1" xmlns="http://www.w3.org/2000/svg" xmlns:xlink="http://www.w3.org/1999/xlink" x="0px" y="0px" viewBox="0 0 1000 1000" enable-background="new 0 0 1000 1000" xml:space="preserve">
<metadata> Svg Vector Icons : http://www.onlinewebfonts.com/icon </metadata>
<g><g transform="translate(0.000000,511.000000) scale(0.100000,-0.100000)"><path d="M2368,4907.5c-493-54-953.2-272.4-1340.6-638.6c-417.9-394.4-692.6-887.5-849.9-1516.7l-61-251.2l-7.1-3599.2L100-4697.6l192.5,7l192.5,7l-2.3,387.4c-2.4,213.6,2.3,436.7,9.4,500.1l14.1,110.4h2099h2099v-504.8v-504.8h199.6h201.9l-9.4,3549.9c-4.7,3279.9-9.4,3568.7-47,3758.9c-206.6,1026-795.9,1800.8-1636.5,2148.3C3114.6,4884,2694.4,4942.7,2368,4907.5z M3142.8,4449.6c749-218.3,1286.6-852.3,1497.9-1758.5c68.1-293.5,72.8-1007.2,9.4-1300.7c-209-960.3-805.3-1641.2-1596.5-1824.3C2137.9-645.2,1238.7-201.5,795,681.3c-206.6,410.9-295.8,812.4-295.8,1338.3c0,514.2,89.2,927.4,284.1,1319.5c122.1,246.5,213.7,375.7,408.5,579.9c284.1,293.5,619.8,486,1000.2,568.2C2473.7,4550.6,2854,4534.2,3142.8,4449.6z M4704.1-821.3v-1267.8l-2106,4.7l-2108.4,7L485-826c0,685.6,4.7,1249.1,11.7,1249.1c9.4,0,63.4-75.1,122.1-166.7C980.4-314.2,1616.7-743.8,2248.3-847.1c248.9-39.9,704.4-16.4,929.8,47c408.5,117.4,875.7,413.2,1157.5,737.2c129.1,145.6,345.1,455.5,345.1,490.7c0,9.4,4.7,18.8,11.7,18.8C4699.4,446.5,4704.1-124,4704.1-821.3z M4704.1-2887.4v-399.1h-2099h-2099l-14.1,65.7c-7.1,35.2-11.7,213.6-11.7,399.1l2.4,333.4h2110.7h2110.7V-2887.4z"/><path d="M1741.1,3245.2c-415.6-413.2-464.9-471.9-464.9-540c0-108,89.2-192.5,201.9-192.5c82.2,0,115,25.8,521.2,429.7c237.1,234.8,446.1,457.8,464.9,493c72.8,138.5-16.4,274.7-176.1,274.7C2210.7,3710.1,2166.1,3672.5,1741.1,3245.2z"/><path d="M2149.7,2646.5c-749-749-1061.2-1077.7-1061.2-1112.9c0-124.4,93.9-218.3,218.3-218.3c35.2,0,363.9,312.3,1112.9,1061.2C3441,3397.8,3483.2,3442.4,3483.2,3526.9c0,112.7-70.4,183.1-187.8,183.1C3217.9,3710.1,3154.6,3653.7,2149.7,2646.5z"/><path d="M6512-1077.2v-183.1l105.7-14.1c56.3-9.4,136.2-9.4,176.1-2.4c51.7,11.7,70.4,7,70.4-16.4c0-18.8-126.8-725.5-279.4-1570.7c-291.1-1594.2-291.1-1608.3-194.8-1681.1c63.4-49.3,187.8-39.9,246.5,21.1c47,44.6,89.2,244.2,340.4,1634.1c157.3,871.1,293.5,1589.5,298.2,1598.9c14.1,23.5,1652.9,23.5,1667,0c4.7-9.4,140.9-727.8,298.2-1598.9c251.2-1389.9,293.5-1589.5,340.4-1636.4c117.4-117.4,324-23.5,319.3,143.2c-2.3,39.9-126.8,746.6-274.7,1566c-150.2,819.4-272.3,1505-272.3,1523.7c0,23.5,21.1,28.2,86.9,18.8c49.3-9.4,129.1-9.4,176.1,0l89.2,14.1v183.1v185.5H8108.5H6512V-1077.2z"/></g></g>
</svg>