<?xml version="1.0" encoding="utf-8"?>
<!-- Svg Vector Icons : http://www.onlinewebfonts.com/icon -->
<!DOCTYPE svg PUBLIC "-//W3C//DTD SVG 1.1//EN" "http://www.w3.org/Graphics/SVG/1.1/DTD/svg11.dtd">
<svg version="1.1" xmlns="http://www.w3.org/2000/svg" xmlns:xlink="http://www.w3.org/1999/xlink" x="0px" y="0px" viewBox="0 0 1000 1000" enable-background="new 0 0 1000 1000" xml:space="preserve">
<metadata> Svg Vector Icons : http://www.onlinewebfonts.com/icon </metadata>
<g><g transform="translate(0.000000,511.000000) scale(0.100000,-0.100000)"><path d="M4090.5,4747.5l-71.1-71.1v-331v-328.5l-242.7-14.7C2649,3933.5,1420.8,3328,783.4,2526.4c-389.8-490.3-600.6-988-664.4-1581.2c-29.4-277-17.1-338.3,83.4-404.5c56.4-36.8,90.7-31.9,558.9,83.3c1174.3,286.8,1446.4,316.2,2007.8,213.3c416.8-76,1206.2-257.4,1233.1-281.9c9.8-9.8,14.7-791.9,12.3-1740.6l-7.4-1721l-833.5,713.4c-456,392.2-858,718.3-887.5,725.6c-122.6,31.9-259.9-132.4-208.4-245.1c14.7-34.3,281.9-279.5,593.3-546.7s561.4-497.7,558.9-512.4c-4.9-17.1-245.2-343.2-534.4-728.1l-527.1-701.2H1205l-965.9-2.4l-71.1-71.1c-90.7-90.7-90.7-159.3,0-250l71.1-71.1H5000h4760.9l71.1,71.1c90.7,90.7,90.7,159.4,0,250l-71.1,71.1h-784.5h-784.5l71.1,71.1c39.2,39.2,71.1,95.6,71.1,122.6c0,117.7-93.2,164.2-1103.2,568.7c-546.7,218.2-1014.9,402.1-1044.4,407c-34.3,7.4-218.2-100.5-608-357.9c-357.9-240.2-568.8-365.3-588.4-353c-17.2,12.3-154.4,125-304,252.5l-272.1,232.9l4.9,1912.2l4.9,1909.8l281.9,68.7c823.7,201,1100.7,247.6,1458.7,250c304,0,392.2-9.8,772.2-88.3c357.9-76,1196.3-279.5,1355.7-328.5c36.8-12.3,41.7,4.9,41.7,137.3c0,831.1-316.3,1571.4-929.1,2181.9c-321.1,318.7-632.5,541.8-1044.3,745.3c-524.6,262.3-1130.2,431.5-1694,473.2l-242.7,19.6l-12.3,338.3c-12.3,335.9-12.3,340.8-80.9,399.6C4240,4838.2,4178.7,4833.3,4090.5,4747.5z M4490.1,3592.8c433.9-161.8,848.2-813.9,1010-1593.5c46.6-220.6,103-752.6,83.4-772.2c-7.4-9.8-205.9-56.4-438.8-110.3c-235.3-51.5-539.3-122.6-676.6-156.9L4218,896.1l-399.6,98.1c-424.1,105.4-1024.7,230.4-1242.9,257.4l-129.9,17.2l17.2,183.9c24.5,264.8,120.1,661.9,213.3,897.3c147.1,365.3,281.9,573.7,534.4,826.2c242.7,245.2,424.1,360.4,676.6,429C4070.9,3654.1,4338.1,3649.2,4490.1,3592.8z M5644.8,3418.7c723.2-235.4,1372.9-681.5,1787.2-1223.3c228-304,424.1-764.9,495.2-1171.8c12.3-71.1,7.3-80.9-31.9-66.2c-107.9,34.3-897.2,210.8-1154.7,257.4c-154.4,29.4-392.2,56.4-527.1,58.8l-245.2,9.8l-17.2,247.6c-49,679.1-299.1,1414.5-632.5,1853.4l-122.6,164.3l78.5-17.2C5318.7,3521.7,5485.4,3470.2,5644.8,3418.7z M2810.8,3305.9c-179-225.5-264.8-355.5-367.7-558.9c-181.4-362.8-318.7-850.7-355.5-1260.1l-17.2-208.4l-318.7-53.9c-174.1-31.9-514.8-100.5-752.6-156.9c-240.2-53.9-451.1-98.1-468.2-98.1c-76,0,49,478.1,205.9,794.3c357.9,715.8,1056.6,1301.8,1934.3,1620.5c127.5,46.6,242.7,83.3,252.5,85.8C2933.4,3470.2,2884.3,3396.7,2810.8,3305.9z M3855.1-3271.5l161.8-134.8v-397.1l2.5-399.6h-688.9c-541.8,0-684,7.4-669.3,31.9c12.3,14.7,210.8,286.8,446.2,598.2l426.6,571.2l80.9-68.6C3659-3107.3,3766.9-3198,3855.1-3271.5z M7150-3813.3c509.9-203.5,931.6-375.1,936.5-380c4.9-4.9-676.6-9.8-1515.1-9.8H5046.6l571.2,380c313.8,208.4,578.6,380,588.4,380C6218.4-3443.1,6642.5-3609.8,7150-3813.3z M4669-3972.6c95.6-80.9,198.6-166.7,232.9-188.8c58.8-39.2,49-41.7-215.7-41.7h-274.6v225.5c0,210.8,2.5,220.6,44.1,188.8C4477.8-3808.4,4575.9-3891.8,4669-3972.6z"/></g></g>
</svg>