<?xml version="1.0" encoding="utf-8"?>
<!-- Svg Vector Icons : http://www.onlinewebfonts.com/icon -->
<!DOCTYPE svg PUBLIC "-//W3C//DTD SVG 1.1//EN" "http://www.w3.org/Graphics/SVG/1.1/DTD/svg11.dtd">
<svg version="1.1" xmlns="http://www.w3.org/2000/svg" xmlns:xlink="http://www.w3.org/1999/xlink" x="0px" y="0px" viewBox="0 0 1000 1000" enable-background="new 0 0 1000 1000" xml:space="preserve">
<metadata> Svg Vector Icons : http://www.onlinewebfonts.com/icon </metadata>
<g><g transform="translate(0.000000,362.000000) scale(0.100000,-0.100000)"><path d="M147.8,2035.9l-47.8-47.8l5.7-688.9c5.7-629.6,7.7-690.8,40.2-721.5c28.7-30.6,78.5-34.4,377-40.2c250.7-3.8,344.5-13.4,344.5-28.7c0-13.4-172.2-1198-382.7-2631.3c-281.3-1919.4-377-2619.8-363.6-2646.6c36.4-65.1,88-74.6,444-74.6c317.7,0,355.9,3.8,390.4,36.4c30.6,26.8,65.1,162.7,158.8,616.2c67,319.6,283.2,1353,478.4,2294.5l355.9,1712.8l3037,5.7l3038.9,3.8l9.6-42.1c5.8-24.9,222-1060.2,478.4-2302.2c401.9-1930.9,474.6-2263.9,509-2290.7c36.4-30.6,86.1-34.4,401.9-34.4c336.8,0,363.6,1.9,400,38.3c24.9,24.9,38.3,63.2,36.4,109.1c0,40.2-170.3,1230.5-378.9,2646.6l-377,2573.9l344.5,9.6c191.4,5.7,361.7,17.2,380.8,26.8c19.1,9.6,44,38.3,53.6,63.2c9.6,24.9,17.2,342.5,17.2,706.1V1990l-47.8,45.9l-45.9,47.8H5001H195.7L147.8,2035.9z M9632.1,1318.3V820.7h-348.3c-478.4-1.9-8131.3-1.9-8563.8,0H369.8v497.6v497.6H5001h4631.1V1318.3z M1575.5,351.9l9.6-325.3l68.9-9.6l67-9.6l-444-2133.8C1032-3299.4,817.6-4330.9,800.4-4417L766-4575.9H576.5H385.1l11.5,53.6c5.7,28.7,179.9,1205.6,386.6,2616C987.9-497.8,1162.1,663.8,1167.8,671.5c3.8,9.6,95.7,13.4,202.8,11.5l195.2-5.7L1575.5,351.9z M8816.9,640.9c15.3-63.2,757.8-5134.4,757.8-5178.4c0-34.4-13.4-38.3-179.9-38.3c-156.9,0-181.8,3.8-191.4,34.4c-5.7,17.2-216.2,1031.5-468.9,2252.4c-254.5,1220.9-465,2239-470.8,2262c-9.6,38.3-1.9,42.1,70.8,47.8l82.3,5.7l5.8,306.2c1.9,168.4,7.7,317.7,13.4,331.1c5.8,15.3,61.3,23,189.5,23C8799.6,686.8,8805.4,684.9,8816.9,640.9z M8311.6,409.3V151H5001H1690.3v258.3v258.3H5001h3310.7V409.3z"/></g></g>
</svg>