<?xml version="1.0" encoding="utf-8"?>
<!-- Svg Vector Icons : http://www.onlinewebfonts.com/icon -->
<!DOCTYPE svg PUBLIC "-//W3C//DTD SVG 1.1//EN" "http://www.w3.org/Graphics/SVG/1.1/DTD/svg11.dtd">
<svg version="1.1" xmlns="http://www.w3.org/2000/svg" xmlns:xlink="http://www.w3.org/1999/xlink" x="0px" y="0px" viewBox="0 0 1000 1000" enable-background="new 0 0 1000 1000" xml:space="preserve">
<metadata> Svg Vector Icons : http://www.onlinewebfonts.com/icon </metadata>
<g><g><g><path d="M962.1,472.1C962.1,217.3,754.8,10,500,10S37.9,217.3,37.9,472.1v27.5H474v198.9H318.7c-15.2,0-27.5,12.3-27.5,27.5c0,15.2,12.3,27.5,27.5,27.5H474v208.8c0,15.2,12.3,27.5,27.5,27.5c15.2,0,27.5-12.3,27.5-27.5V753.6h152.2c15.2,0,27.5-12.3,27.5-27.5c0-15.2-12.3-27.5-27.5-27.5H529.1V499.6h433V472.1L962.1,472.1z M513.9,444.5c-3.7-1.9-7.9-3-12.4-3c-4.5,0-8.6,1.2-12.4,3H93.9C108.1,232.9,284.8,65.1,500,65.1c215.1,0,391.8,167.8,406.1,379.4H513.9z"/><path d="M80,673c-15.2,0-27.5,12.3-27.5,27.5v128.8v133.1c0,15.2,12.3,27.5,27.5,27.5c15.2,0,27.5-12.3,27.5-27.5v-78h160.7v78c0,15.2,12.3,27.5,27.5,27.5c15.2,0,27.5-12.3,27.5-27.5V829.3H107.5V700.6C107.5,685.4,95.2,673,80,673z"/><path d="M947.5,962.5V829.3V700.6c0-15.2-12.3-27.5-27.5-27.5c-15.2,0-27.5,12.3-27.5,27.5v128.8H676.7v133.1c0,15.2,12.3,27.5,27.5,27.5c15.2,0,27.5-12.3,27.5-27.5v-78h160.7v78c0,15.2,12.3,27.5,27.5,27.5C935.2,990,947.5,977.7,947.5,962.5z"/></g></g><g></g><g></g><g></g><g></g><g></g><g></g><g></g><g></g><g></g><g></g><g></g><g></g><g></g><g></g><g></g></g>
</svg>