<?xml version="1.0" encoding="utf-8"?>
<!-- Svg Vector Icons : http://www.onlinewebfonts.com/icon -->
<!DOCTYPE svg PUBLIC "-//W3C//DTD SVG 1.1//EN" "http://www.w3.org/Graphics/SVG/1.1/DTD/svg11.dtd">
<svg version="1.1" xmlns="http://www.w3.org/2000/svg" xmlns:xlink="http://www.w3.org/1999/xlink" x="0px" y="0px" viewBox="0 0 1000 1000" enable-background="new 0 0 1000 1000" xml:space="preserve">
<metadata> Svg Vector Icons : http://www.onlinewebfonts.com/icon </metadata>
<g><g transform="translate(0.000000,511.000000) scale(0.100000,-0.100000)"><path d="M4606.5,5000.4c-1158-118.2-2162.8-584.5-2985.9-1385.7c-431.3-420.3-748.7-851.6-1004.8-1368.2C370.6,1754,208.6,1246.1,132,720.7C86,418.6,88.2,388,147.3,322.3c41.6-46,107.3-65.7,451-137.9l405-83.2l420.3-2197.8c234.2-1208.4,431.2-2204.4,440-2213.2c19.7-17.5,407.2-100.7,967.6-208c866.9-164.2,1733.8-273.6,2169.4-273.6c286.8,0,816.5,52.5,1344.1,133.5c604.2,91.9,1755.6,315.2,1792.9,348.1c8.8,6.6,212.3,1035.4,453.1,2285.4c238.6,1250,440,2276.7,442.2,2281c4.4,2.2,183.9,50.3,400.6,105.1c518.8,129.2,503.5,109.5,426.9,529.8C9683,1874.4,9221.1,2771.9,8514,3503.1c-827.5,853.7-1889.2,1372.6-3051.6,1490.8C5252.3,5013.5,4779.5,5017.9,4606.5,5000.4z M5723,4610.7c768.4-129.2,1444.8-418.1,2057.7-882.2c238.6-179.5,667.7-615.1,855.9-869.1c415.9-558.2,685.2-1147.1,840.6-1836.6c30.7-142.3,52.5-264.9,46-269.3c-35-37.2-1598-391.8-2322.6-529.8C5381.5-119.9,4683.1-137.4,2918.7,123.1c-648,96.3-2232.9,385.3-2412.4,440c-35,10.9-39.4,28.5-26.3,124.8c54.7,422.5,225.5,972,435.6,1405.4c685.2,1401,1996.4,2342.3,3537.6,2539.3C4766.3,4672,5427.4,4661.1,5723,4610.7z M8253.5-1919.3c-221.1-1147.1-407.2-2090.6-411.5-2097.1c-39.4-39.4-1530.2-304.3-2097.1-374.3c-422.5-50.3-1066.1-50.3-1488.6,0c-569.2,70.1-2057.7,334.9-2097.1,374.3c-19.7,19.7-785.9,4030.1-770.6,4036.7c8.8,2.2,201.4-28.4,429.1-70c1182.1-216.7,2427.7-363.4,3073.5-363.4c737.7,2.2,2134.4,214.5,3579.2,545.1c96.3,21.9,177.3,37.2,179.5,37.2C8652,166.9,8474.6-772.2,8253.5-1919.3z"/><path d="M4722.5,3824.9c-271.4-67.9-457.5-129.2-486-153.2c-65.7-59.1-61.3-175.1,8.8-243c28.5-30.6,67.9-54.7,87.6-54.7c52.5,0,912.9,216.7,965.4,243c50.4,26.3,96.3,105.1,96.3,164.2c0,52.5-122.6,162-179.5,159.8C5186.6,3940.9,4965.5,3888.3,4722.5,3824.9z"/><path d="M6633.6,3382.7c-111.6-113.8-89.7-157.6,243-494.7c166.4-166.4,324-308.7,352.4-317.4c26.3-6.6,76.6,0,111.7,15.3c72.2,28.5,122.6,127,105.1,201.4c-8.8,28.5-151.1,186.1-317.4,352.4C6791.2,3472.4,6747.4,3494.3,6633.6,3382.7z"/><path d="M2283.9,3242.6c-50.3-30.6-91.9-142.3-76.6-208c10.9-39.4,96.3-109.5,326.2-262.7c170.8-113.8,328.4-208,348.1-208c70,0,146.7,50.3,170.7,111.6c50.3,120.4,19.7,159.8-313,380.9C2434.9,3260.1,2362.7,3288.5,2283.9,3242.6z"/><path d="M5083.7,2191.8c-212.3-107.3-398.4-214.5-411.5-238.6c-37.2-72.2-24.1-146.7,35-208c32.8-30.6,81-56.9,109.5-56.9c30.6,0,229.9,89.8,446.6,197c415.9,208,457.5,243,429.1,361.2c-19.7,81-92,142.3-159.8,140.1C5497.5,2386.6,5296.1,2299.1,5083.7,2191.8z"/><path d="M2997.5,1771.5c-67.9-37.2-98.5-85.4-98.5-159.8c0-87.6,442.2-753,527.6-792.5c70-35,183.9-2.2,216.7,59.1c48.2,89.8,19.7,157.6-218.9,516.6C3159.5,1789,3109.2,1832.8,2997.5,1771.5z"/><path d="M1583.4,1666.4c-59.1-35-435.6-621.7-435.6-680.8c0-105.1,133.5-194.8,240.8-162c56.9,17.5,459.7,615.1,459.7,683c0,76.6-24.1,116-89.8,148.9C1688.5,1692.7,1633.7,1697.1,1583.4,1666.4z"/><path d="M8076.2,1589.8c-383.1-98.5-448.8-133.5-448.8-232c0-65.7,46-144.5,102.9-175.1c46-24.1,100.7-17.5,440,65.7c212.4,52.5,409.4,107.3,435.6,124.8c63.5,39.4,83.2,142.3,41.6,223.3C8586.3,1714.6,8564.4,1714.6,8076.2,1589.8z"/><path d="M6285.6,1465c-59.1-61.3-247.4-794.6-225.5-882.2c8.7-35,43.8-70.1,89.7-91.9c61.3-30.6,83.2-30.6,142.3-6.6c37.2,15.3,74.4,43.8,85.4,63.5c43.8,85.4,203.6,792.5,190.4,845c-15.3,56.9-111.6,120.4-188.3,120.4C6355.6,1513.2,6311.8,1491.3,6285.6,1465z"/><path d="M2286.1-791.9c-111.6-56.9-111.6-59.1,175.1-1396.7c146.7-691.7,280.2-1278.4,297.7-1302.5c61.3-98.5,236.4-83.2,295.5,26.3c24.1,48.2-2.2,194.8-243,1328.8c-229.9,1068.3-280.2,1282.8-321.8,1324.4C2434.9-756.9,2367.1-750.3,2286.1-791.9z"/><path d="M7511.4-811.6c-41.6-41.6-91.9-256.1-319.6-1315.6c-162-766.2-264.9-1285-256.1-1317.8c30.6-118.2,240.8-151.1,306.5-48.2c46,72.2,567,2545.9,551.6,2609.4c-15.3,56.9-111.6,120.4-188.3,120.4C7581.5-763.5,7537.7-785.3,7511.4-811.6z"/><path d="M3516.4-960.5c-109.5-46-109.5-43.8,83.2-1394.5c100.7-709.3,192.6-1285,208-1311.3c39.4-61.3,133.5-83.2,208-52.5c129.2,52.5,131.3,17.5-67.9,1405.4c-166.4,1162.4-186.1,1280.6-232,1326.6C3665.2-936.4,3601.7-927.6,3516.4-960.5z"/><path d="M6285.6-986.7c-46-46-65.7-164.2-232-1324.4c-100.7-700.5-175.1-1293.7-166.4-1317.8c35-111.6,243-137.9,304.3-39.4c37.2,59.1,394,2541.5,374.3,2613.8c-13.1,54.7-111.6,116-186.1,116C6355.6-938.6,6311.8-960.5,6285.6-986.7z"/><path d="M4919.6-1135.6c-26.3-10.9-56.9-39.4-70-63.5c-30.6-56.9-32.8-2570-2.2-2626.9c10.9-21.9,50.3-52.5,87.6-67.9c76.6-32.8,183.9,0,218.9,67.9c24.1,43.8,30.7,2552.5,8.8,2613.8c-15.3,37.2-120.4,98.5-166.4,96.3C4980.9-1115.9,4945.8-1124.6,4919.6-1135.6z"/></g></g>
</svg>