<?xml version="1.0" encoding="utf-8"?>
<!-- Svg Vector Icons : http://www.onlinewebfonts.com/icon -->
<!DOCTYPE svg PUBLIC "-//W3C//DTD SVG 1.1//EN" "http://www.w3.org/Graphics/SVG/1.1/DTD/svg11.dtd">
<svg version="1.1" xmlns="http://www.w3.org/2000/svg" xmlns:xlink="http://www.w3.org/1999/xlink" x="0px" y="0px" viewBox="0 0 1000 1000" enable-background="new 0 0 1000 1000" xml:space="preserve">
<metadata> Svg Vector Icons : http://www.onlinewebfonts.com/icon </metadata>
<g><g transform="translate(0.000000,511.000000) scale(0.100000,-0.100000)"><path d="M3524.6,4996c-561.4-77.5-1118.6-515.3-1309.2-1028.5c-123.6-331-115.2,31.4-121.5-4434.5c-4.2-3860.6-2.1-4088.9,31.4-4155.9c20.9-39.8,64.9-92.2,96.3-115.2c58.7-44,71.2-44,2293.7-50.3c2096.9-4.2,2239.3-2.1,2306.3,31.4c146.6,75.4,159.2,113.1,165.5,521.6l6.3,364.5h205.3c274.4,0,377.1,35.6,527.9,186.4c88,90.1,123.6,144.5,152.9,240.9c92.2,293.3-48.2,605.4-331,737.3c-92.1,41.9-140.3,50.3-331,50.3h-226.2l-4.2,2687.5l-6.3,2685.4l-44,96.4c-25.1,52.4-79.6,132-123.6,175.9c-299.5,299.5-800.2,213.7-986.6-171.8c-56.6-113.1-58.7-132-67-532.1c-8.4-372.9-12.6-418.9-48.2-450.4c-54.5-50.3-167.6-41.9-211.6,14.7c-33.5,39.8-37.7,111-37.7,814.8c0,842.1-16.7,1018-119.4,1275.7c-171.8,429.4-527.9,787.6-944.7,948.9C4132.1,4994,3799,5033.8,3524.6,4996z M4205.4,4637.9c199-64.9,389.6-184.3,544.6-341.4c159.2-161.3,253.5-310,331-525.8l56.6-152.9L5148,2717l10.5-900.7l58.7-98.5c31.4-54.5,81.7-115.2,115.2-138.2c190.6-134.1,465-111,615.9,50.3c106.8,115.2,121.5,182.2,121.5,594.9c0,416.9,12.6,477.6,121.5,569.8c35.6,29.3,98.5,60.8,138.3,67c104.7,18.8,249.3-46.1,305.8-138.3c41.9-69.1,41.9-96.3,41.9-2723.1V-2656H4540.5H2403.9V440c0,3064.6,0,3096,44,3251c104.7,377.1,358.2,693.4,689.2,854.6c263.9,129.9,364.5,150.8,670.3,142.5C4004.3,4683.9,4102.7,4671.4,4205.4,4637.9z M6677.2-3713.8v-764.6H4540.5H2403.9v764.6v764.6h2136.6h2136.6V-3713.8z M7425-2991.1c165.5-73.3,226.2-278.6,129.9-433.6c-64.9-102.6-146.6-136.2-368.7-148.7l-194.8-10.5v318.4v316.3h173.9C7288.8-2949.2,7362.1-2961.8,7425-2991.1z"/><path d="M3690.1,4074.4c-33.5-25.1-71.2-102.6-71.2-150.8c0-67,73.3-127.8,155-127.8c196.9,0,205.3,272.3,10.5,289.1C3744.5,4087,3702.6,4082.8,3690.1,4074.4z"/><path d="M3053.3,3586.3c-50.3-50.3-54.5-140.4-8.4-205.3c41.9-58.6,173.9-64.9,224.1-8.4c48.2,52.4,46.1,178-2.1,219.9C3214.6,3640.8,3103.6,3636.6,3053.3,3586.3z"/><path d="M4270.3,3573.7c-25.1-31.4-44-71.2-44-92.2s18.8-60.7,44-92.2c85.9-108.9,270.2-48.2,270.2,92.2S4356.2,3682.7,4270.3,3573.7z"/><path d="M3662.8,3127.6c-96.4-96.4-27.2-253.5,111-253.5c199,0,205.3,272.3,6.3,289.1C3725.7,3167.4,3692.2,3156.9,3662.8,3127.6z"/><path d="M3044.9,2660.4c-77.5-111-10.5-247.2,119.4-247.2c90.1,0,140.4,54.5,140.4,150.8c0,92.2-52.4,142.4-152.9,142.4C3097.3,2706.5,3067.9,2694,3044.9,2660.4z"/><path d="M4270.3,2652.1c-25.1-31.4-44-71.2-44-92.2c0-20.9,18.8-60.7,44-92.1c85.9-108.9,270.2-48.2,270.2,92.1S4356.2,2761,4270.3,2652.1z"/><path d="M3660.8,2203.8c-96.4-96.3-16.8-259.7,119.4-247.2c138.2,12.6,194.8,161.3,98.4,255.6C3832.5,2260.3,3711,2254.1,3660.8,2203.8z"/><path d="M3044.9,1738.8c-106.8-150.8,62.8-320.5,213.7-213.6c58.7,41.9,64.9,173.8,8.4,224.1C3208.3,1801.6,3084.7,1795.3,3044.9,1738.8z"/><path d="M4297.5,1768.1c-119.4-79.6-56.6-276.5,90.1-276.5c129.9,0,196.9,136.2,119.4,247.2c-23,33.5-52.4,46.1-108.9,46.1C4356.2,1784.8,4310.1,1776.5,4297.5,1768.1z"/></g></g>
</svg>