<?xml version="1.0" encoding="utf-8"?>
<!-- Svg Vector Icons : http://www.onlinewebfonts.com/icon -->
<!DOCTYPE svg PUBLIC "-//W3C//DTD SVG 1.1//EN" "http://www.w3.org/Graphics/SVG/1.1/DTD/svg11.dtd">
<svg version="1.1" xmlns="http://www.w3.org/2000/svg" xmlns:xlink="http://www.w3.org/1999/xlink" x="0px" y="0px" viewBox="0 0 1000 1000" enable-background="new 0 0 1000 1000" xml:space="preserve">
<metadata> Svg Vector Icons : http://www.onlinewebfonts.com/icon </metadata>
<g><path d="M961.5,87.2c-24.8-23.5-24.5-23.1-54.1-51c-29.6-27.9-93.2-34.3-132.6,5.1c-39.5,39.5-643.8,646.8-643.8,646.8S18.1,948,11.7,962.6c-6.4,14.6,6.1,28.6,20.4,22.4c14.3-6.1,286.7-119.4,286.7-119.4S912.4,272,961.5,222.9C1010.7,173.8,986.4,110.7,961.5,87.2z M77.7,919.2l75.7-174.4l102.5,99.3L77.7,919.2z M298.1,822.6l-119.5-116l465.1-463.3l116.3,112.6L298.1,822.6z M798.6,320l-119-115.8l52.6-52.5l119,116L798.6,320z M929.9,191.5c-18.6,18.6-44.7,44.8-44.7,44.8L761.8,117.6c0,0,26.8-26.2,46.2-45.1c19.4-18.9,57.7-17.5,77.2,1.1c19.5,18.6,20.9,19.7,42,40.4C952.4,138.8,948.5,172.9,929.9,191.5z"/></g>
</svg>