<?xml version="1.0" encoding="utf-8"?>
<!-- Svg Vector Icons : http://www.onlinewebfonts.com/icon -->
<!DOCTYPE svg PUBLIC "-//W3C//DTD SVG 1.1//EN" "http://www.w3.org/Graphics/SVG/1.1/DTD/svg11.dtd">
<svg version="1.1" xmlns="http://www.w3.org/2000/svg" xmlns:xlink="http://www.w3.org/1999/xlink" x="0px" y="0px" viewBox="0 0 1000 1000" enable-background="new 0 0 1000 1000" xml:space="preserve">
<metadata> Svg Vector Icons : http://www.onlinewebfonts.com/icon </metadata>
<g><g transform="translate(0.000000,511.000000) scale(0.100000,-0.100000)"><path d="M2780.4,4983.4c-127.9-38-279.9-179.9-339.8-311.8c-42-94-48-141.9-54-417.8l-8-311.8l-231.9-10c-275.9-12-387.8-56-517.7-203.9c-157.9-179.9-145.9,167.9-145.9-4167.9c0-4345.8-14-3974,151.9-4157.9c50-54,131.9-119.9,183.9-145.9l94-46h2648.7c3010.5,0,2754.6-16,2928.5,171.9C7634-4463.8,7648-4415.9,7660-4050l10,319.8l229.9,10c181.9,8,245.9,20,309.8,54c100,54,191.9,149.9,251.9,265.9l48,89.9l6,3922.1c4,3912,4,3922-36,4032c-50,132-169.9,259.9-295.8,317.9l-94,44l-2608.7,4C3262.2,5011.4,2858.4,5009.4,2780.4,4983.4z M8081.7,4557.6l58-58V637.6v-3860.1l-48-48c-56-56-139.9-74-301.8-66l-119.9,6l-6,2414.8l-4,2412.8L7514,1653.1c-715.6,757.6-1887.1,2001-1987,2108.9c-70,74-147.9,143.9-175.9,153.9c-32,12-539.7,20-1321.3,20H2762.4v281.8v281.9l58,58l58,58h2572.7h2572.7L8081.7,4557.6z M5121.2,2576.6l10-949.5l54-102c56-105.9,151.9-201.9,261.9-261.9c56-32,133.9-36,619.7-42l553.7-6l60,60c100,100,66,275.9-62,319.8c-40,14-241.9,22-531.7,22c-297.9,0-483.8,8-509.7,22c-88,48-96,112-96,869.6c0,427.8,8,707.7,18,703.7c10-2,415.8-423.8,899.6-935.5l879.6-929.5v-2812.6l2-2812.6l-48-56l-48-56H4571.5H1958.8l-48,56l-48,56v3842.1c0,3498.3,2,3848.1,32,3888.1c18,26,52,54,76,64c22,10,739.6,16,1591.2,14l1549.2-4L5121.2,2576.6z"/><path d="M2714.4-303.9c-88-101.9-52-279.9,64-311.8c30-10,841.6-16,1805.1-16c1885.1,0,1827.1-4,1875.1,104c36,77.9,26,157.9-30,223.9l-52,62H4571.5H2766.4L2714.4-303.9z"/><path d="M2720.4-1399.4c-46-46-58-76-58-141.9s12-95.9,58-141.9l58-58h1793.1h1793.1l58,58c46,46,58,76,58,141.9s-12,95.9-58,141.9l-58,58H4571.5H2778.4L2720.4-1399.4z"/><path d="M2714.4-2522.8c-76-90-64-221.9,26-291.8c46-36,3616.2-36,3662.2,0c102,78,102,249.9,0,327.8c-24,20-449.8,24-1835.1,26H2766.4L2714.4-2522.8z"/></g></g>
</svg>