<?xml version="1.0" encoding="utf-8"?>
<!-- Svg Vector Icons : http://www.onlinewebfonts.com/icon -->
<!DOCTYPE svg PUBLIC "-//W3C//DTD SVG 1.1//EN" "http://www.w3.org/Graphics/SVG/1.1/DTD/svg11.dtd">
<svg version="1.1" xmlns="http://www.w3.org/2000/svg" xmlns:xlink="http://www.w3.org/1999/xlink" x="0px" y="0px" viewBox="0 0 1000 1000" enable-background="new 0 0 1000 1000" xml:space="preserve">
<metadata> Svg Vector Icons : http://www.onlinewebfonts.com/icon </metadata>
<g><g transform="translate(0.000000,511.000000) scale(0.100000,-0.100000)"><path d="M4673.2,5008.1C2645.1,4851.6,939.8,3514.7,325.8,1599.5C165.4,1102.4,100,670.6,100,108.1c0-451.6,25.7-683.3,116.9-1089.3C626.8-2805.3,2086.5-4265,3910.7-4675c388.2-87.2,655.6-116.9,1089.3-116.9s701.1,29.7,1089.3,116.9c1824.1,410,3283.8,1869.7,3693.8,3693.8C9870.3-593,9900-325.7,9900,108.1c0,554.6-67.3,1000.2-225.8,1491.4c-584.3,1822.1-2176.7,3141.2-4080,3380.9C5411.9,5002.1,4833.6,5020,4673.2,5008.1z M5742.7,4645.6c1796.4-305,3250.1-1630,3701.7-3372.9C9559.3,829,9585.1,631,9585.1,118c0-513-25.8-728.9-138.6-1170.5c-410-1600.3-1709.3-2887.7-3321.5-3295.7c-410-103-633.8-128.7-1125-128.7c-507,0-734.8,27.7-1164.6,140.6c-1568.6,408-2836.2,1655.8-3264,3212.5C444.6-662.4,416.9-438.6,416.9,108.1c0,542.7,27.7,766.5,156.5,1239.8c491.2,1788.5,2065.8,3121.4,3941.4,3335.3C4780.1,4713,5471.4,4691.2,5742.7,4645.6z"/><path d="M4475.1,4057.4c-1152.7-156.5-2152.9-784.3-2812.4-1770.6c-126.8-190.1-336.7-610-415.9-831.8C1110.1,1070.7,1019,575.5,1019,225c0-162.4,4-182.2,49.5-225.8c25.7-27.7,71.3-49.5,99-49.5c67.3,0,148.5,83.2,148.5,152.5c0,29.7,9.9,158.4,19.8,285.2c136.7,1651.8,1321.1,2988.7,2941.2,3323.4c108.9,23.8,332.7,51.5,495.1,63.4c279.3,19.8,299.1,23.8,342.6,69.3c57.4,65.4,55.5,136.7-5.9,196.1c-43.6,45.6-61.4,49.5-241.6,47.5C4760.3,4085.1,4584.1,4073.3,4475.1,4057.4z"/><path d="M4712.8,3025.5c-160.4-13.9-419.9-69.3-604.1-128.7C2950.1,2526.4,2144,1482.6,2074.6,266.6c-9.9-184.2-5.9-211.9,25.8-251.5c59.4-71.3,148.5-79.2,215.9-21.8c53.5,47.5,57.4,59.4,71.3,275.3c25.7,380.3,95.1,639.7,255.5,978.4c241.6,505,699.1,966.5,1198.3,1210.1c336.7,162.4,742.7,265.4,1055.7,265.4c136.7,0,150.5,4,206,59.4c49.5,51.5,57.5,71.3,47.5,124.8C5126.7,3033.4,5041.6,3055.2,4712.8,3025.5z"/><path d="M4643.5,1880.7C3999.8,1748,3480.9,1282.6,3280.8,662.7c-112.9-352.5-112.9-754.6,0-1109.1c202-633.8,770.4-1123,1430-1230c227.8-35.6,576.4-13.8,794.2,51.5c592.2,174.3,1053.7,635.8,1228,1228c65.3,217.9,87.1,566.5,51.5,794.2C6661.7,1149.9,6063.6,1756,5309,1888.6C5150.5,1918.4,4801.9,1912.4,4643.5,1880.7z M5388.2,1553.9c253.5-65.4,447.6-180.2,663.5-396.1c164.4-162.4,204-213.9,281.2-376.3c118.8-245.6,158.4-412,158.4-673.4c0-263.4-39.6-429.8-158.4-673.4c-79.2-160.4-120.8-215.9-281.2-378.3c-162.4-160.4-217.9-202-378.3-281.2c-243.6-118.8-410-158.4-673.4-158.4c-261.4,0-427.8,39.6-673.4,158.4c-162.4,77.2-213.9,116.8-376.3,281.2c-312.9,314.9-439.7,617.9-439.7,1051.7c0,277.3,43.6,461.5,166.4,699.1c116.9,227.8,396.1,507,619.9,621.9C4647.4,1609.4,5007.9,1651,5388.2,1553.9z"/><path d="M4716.8,813.2c-209.9-87.1-370.4-257.5-441.7-471.4c-49.5-148.5-31.7-408,35.7-554.6c67.3-146.6,221.8-301.1,368.4-368.4c99-47.5,136.7-53.5,320.9-53.5c184.2,0,221.8,5.9,320.8,53.5c146.6,67.3,301.1,221.8,368.4,368.4c47.5,99,53.5,136.7,53.5,320.9s-6,221.8-53.5,320.9c-67.3,146.6-221.8,301-368.4,368.4c-93.1,43.6-146.6,53.5-301,59.4C4857.4,860.7,4815.8,854.8,4716.8,813.2z M5235.7,490.4c53.5-33.7,114.9-95.1,150.5-152.5c49.5-83.2,59.4-116.8,59.4-229.7c0-112.9-9.9-146.6-59.4-229.8c-37.6-59.4-97.1-118.8-156.5-156.4c-83.2-49.5-116.9-59.4-229.8-59.4c-112.9,0-146.6,9.9-229.8,59.4c-59.4,37.6-118.8,97-156.5,156.4c-49.5,83.2-59.4,116.9-59.4,227.8c0,107,9.9,148.5,55.5,223.8C4740.5,553.7,5015.8,625,5235.7,490.4z"/></g></g>
</svg>