<?xml version="1.0" encoding="utf-8"?>
<!-- Svg Vector Icons : http://www.onlinewebfonts.com/icon -->
<!DOCTYPE svg PUBLIC "-//W3C//DTD SVG 1.1//EN" "http://www.w3.org/Graphics/SVG/1.1/DTD/svg11.dtd">
<svg version="1.1" xmlns="http://www.w3.org/2000/svg" xmlns:xlink="http://www.w3.org/1999/xlink" x="0px" y="0px" viewBox="0 0 1000 1000" enable-background="new 0 0 1000 1000" xml:space="preserve">
<metadata> Svg Vector Icons : http://www.onlinewebfonts.com/icon </metadata>
<g><path d="M871.1,917.4c-3.1,40.4-41.3,72.6-85.4,72.6H214.3c-44.1,0-82.2-32.3-85.4-72.6L66.3,112.6C62,56.4,101.5,10,154.7,10h690.6c53.2,0,92.8,46.4,88.4,102.6L871.1,917.4z M889.1,197.4h-78.8l61.6,229.8L889.1,197.4z M844.9,788.2l20.5-274l-84.9-316.9h-95.1l158.3,590.9L844.9,788.2L844.9,788.2z M125.5,452.9l89.8,335.3h98.9L156,197.4h-49.6L125.5,452.9z M344.1,788.2h95.1L280.9,197.4h-95.1L344.1,788.2z M469,788.2h95.1L405.8,197.4h-95.1L469,788.2z M593.9,788.2H689L530.7,197.4h-95.1L593.9,788.2z M718.8,788.2h95.1L655.6,197.4h-95.1L718.8,788.2z M158.6,896c2.9,36.2,37.8,65.2,78,65.2h522.2c40.2,0,75.1-28.9,78-65.2l5.9-79h-690L158.6,896z M150.6,788.2h34.9l-48.5-180.9L150.6,788.2z M813.3,38.8H182.2c-48.6,0-84.8,41.6-80.8,92.1l2.8,37.6h787l2.8-37.6C898,80.5,861.9,38.8,813.3,38.8z"/></g>
</svg>