<?xml version="1.0" encoding="utf-8"?>
<!-- Svg Vector Icons : http://www.onlinewebfonts.com/icon -->
<!DOCTYPE svg PUBLIC "-//W3C//DTD SVG 1.1//EN" "http://www.w3.org/Graphics/SVG/1.1/DTD/svg11.dtd">
<svg version="1.1" xmlns="http://www.w3.org/2000/svg" xmlns:xlink="http://www.w3.org/1999/xlink" x="0px" y="0px" viewBox="0 0 1000 1000" enable-background="new 0 0 1000 1000" xml:space="preserve">
<metadata> Svg Vector Icons : http://www.onlinewebfonts.com/icon </metadata>
<g><g transform="translate(0.000000,511.000000) scale(0.100000,-0.100000)"><path d="M3701.4,2524c-154.5-60.3-335.5-231.7-412.8-391c-33.8-67.6-62.8-181-70-270.4l-12.1-156.9l-1395.2-4.8l-1395.2-7.2l-55.5-55.5c-53.1-53.1-55.5-70-62.7-560l-7.2-506.9h-96.6H100v-181v-181h96.6h94.1l7.2-1233.5l7.2-1233.4l57.9-45.9c55.5-45.8,164.1-45.8,4636.9-45.8h4583.8l48.3,62.7c50.7,62.8,50.7,86.9,50.7,1279.3V209.1h108.6H9900v178.6v181l-101.4,7.3l-103.8,7.2L9690,1066c-7.2,509.3-19.3,567.2-120.7,613.1c-41,19.3-473.1,26.6-1416.9,26.6H6791l-16.9,142.4c-31.4,282.4-197.9,523.8-451.4,659c-103.8,55.5-103.8,55.5-1298.6,60.3C3872.8,2572.2,3824.5,2572.2,3701.4,2524z M6165.9,2154.7c118.3-57.9,212.4-197.9,229.3-340.3l12.1-108.6H5002.4H3600v106.2c0,169,140,335.5,316.2,376.6c45.9,9.7,550.3,16.9,1120,14.5C5996.9,2198.1,6081.4,2195.7,6165.9,2154.7z M4517.2,945.4V571.2L2605.5,576l-1914.1,7.2l-7.2,369.3l-7.2,366.9h1921.4h1919V945.4z M5265.5,728.1V136.7h-277.6h-277.6v591.4v591.4h277.6h277.6V728.1z M9296.6,945.4V571.2L7384.8,576l-1914.1,7.2l-7.2,337.9c-2.4,183.4,0,350,4.8,366.9c9.6,26.5,378.9,31.4,1921.4,31.4h1906.9V945.4z M4517.2,175.4c0-26.6-33.8-38.6-113.5-43.5c-111-7.2-115.9-9.7-115.9-79.6c0-70,4.8-72.4,115.9-79.6c103.8-7.3,113.5-12.1,113.5-70c0-45.9,57.9-120.7,222.1-287.3c120.7-125.5,239-226.9,263.1-226.9c57.9,0,449,432.1,458.6,506.9c7.3,50.7,24.1,62.7,99,67.6c159.3,14.5,147.2,161.7-12.1,178.6c-43.4,4.8-74.8,19.3-72.4,31.4c4.8,16.9,668.6,26.6,1914.1,31.4l1906.9,4.8V-877.1v-1086.2H4987.9H679.3V-894c0,589,7.2,1079,16.9,1086.2c7.2,9.7,871.4,16.9,1919,16.9C4256.6,209.1,4517.2,204.3,4517.2,175.4z M5265.5-66c-2.4-14.5-62.7-91.7-135.2-171.4L5000-382.2l-147.2,149.7c-79.6,84.5-140,159.3-132.8,171.4C4739.3-29.8,5265.5-34.7,5265.5-66z"/><path d="M4939.7,829.5c-65.2-48.3-38.6-147.2,41-156.9c67.6-7.3,132.8,67.6,103.8,115.9C5053.1,839.1,4983.1,858.5,4939.7,829.5z"/><path d="M4939.7,467.4c-65.2-48.3-38.6-147.2,41-156.9c67.6-7.2,132.8,67.6,103.8,115.9C5053.1,477.1,4983.1,496.4,4939.7,467.4z"/></g></g>
</svg>