<?xml version="1.0" encoding="utf-8"?>
<!-- Svg Vector Icons : http://www.onlinewebfonts.com/icon -->
<!DOCTYPE svg PUBLIC "-//W3C//DTD SVG 1.1//EN" "http://www.w3.org/Graphics/SVG/1.1/DTD/svg11.dtd">
<svg version="1.1" xmlns="http://www.w3.org/2000/svg" xmlns:xlink="http://www.w3.org/1999/xlink" x="0px" y="0px" viewBox="0 0 1000 1000" enable-background="new 0 0 1000 1000" xml:space="preserve">
<metadata> Svg Vector Icons : http://www.onlinewebfonts.com/icon </metadata>
<g><path d="M901,465h-18.8c-25.7-66.7-77-123.1-145.4-164.2c0-90.7,8.6-111.2,27.4-169.3c-70.1,10.3-140.2,53-176.1,114.6c-24-5.1-47.9-6.8-71.8-8.6c3.4-13.7,6.8-29.1,6.8-46.2c0-85.5-68.4-153.9-153.9-153.9c-85.5,0-153.9,68.4-153.9,153.9c0,42.7,17.1,80.4,46.2,109.4c-66.7,39.3-118,94.1-145.4,159.1c-46.2-17.1-71.8-42.7-71.8-75.3c0-35.9,29.1-68.4,54.7-77l-10.3-32.5C45.9,287.1,10,335,10,381.2c0,27.4,12,78.7,94.1,109.4c-6.8,22.2-8.6,44.5-8.6,68.4c0,85.5,42.7,164.2,111.2,222.3l-20.5,59.9c-13.7,41,6.8,83.8,47.9,97.5l47.9,17.1c8.6,3.4,17.1,5.1,25.7,5.1c32.5,0,61.6-20.5,73.5-51.3l13.7-39.3c34.2,6.8,68.4,12,106,12c24,0,47.9-1.7,70.1-5.1l20.5,42.7c13.7,27.4,41,42.7,70.1,42.7c12,0,22.2-1.7,34.2-8.6l44.5-22.2c37.6-18.8,54.7-65,35.9-102.6l-12-25.7c46.2-30.8,82.1-70.1,107.7-116.3h34.2c46.2,0,83.8-37.6,83.8-83.8v-54.7C984.9,502.5,947.3,464.9,901,465L901,465z M249.4,191.4c0-66.7,53-119.7,119.7-119.7c66.7,0,119.7,53,119.7,119.7c0,17.1-3.4,32.5-10.3,47.9c-68.4,1.7-131.7,18.8-186.4,44.5C266.5,261.5,249.4,229,249.4,191.4L249.4,191.4z M950.6,603.5c0,27.4-22.2,49.6-49.6,49.6h-54.7L836,670.2c-22.2,39.3-54.7,75.3-95.8,104.3l-24,17.1l13.7,25.7l12,25.7c10.3,20.5,1.7,47.9-20.5,58.1l-44.5,20.5c-5.1,3.4-12,5.1-18.8,5.1c-17.1,0-30.8-8.6-39.3-24L598.2,860l-10.3-22.2l-25.7,3.4c-22.2,3.4-44.5,5.1-65,5.1c-32.5,0-66.7-3.4-99.2-10.3l-29.1-6.8l-8.6,29.1l-13.7,39.3c-6.8,17.1-22.2,29.1-41,29.1c-5.1,0-10.3,0-13.7-1.7L244.2,908c-22.2-8.6-34.2-32.5-25.7-54.7l20.5-61.6l8.6-22.2l-18.8-15.4c-65-53-99.2-121.4-99.2-195c0-157.4,165.9-287.3,367.7-287.3c27.4,0,56.4,3.4,83.8,6.8l24,5.1l12-20.5c20.5-35.9,56.4-65,95.8-82.1c-6.8,29.1-10.3,61.6-12,119.7v18.8l17.1,10.3c61.6,37.6,109.4,88.9,131.7,147.1l8.6,22.2h42.7c27.4,0,49.6,22.2,49.6,49.6L950.6,603.5L950.6,603.5z"/><path d="M762.5,490.7c0,23.6-19.1,42.7-42.7,42.7c-23.6,0-42.7-19.1-42.7-42.7c0-23.6,19.1-42.7,42.7-42.7C743.3,447.9,762.5,467.1,762.5,490.7z"/></g>
</svg>