<?xml version="1.0" encoding="utf-8"?>
<!-- Svg Vector Icons : http://www.onlinewebfonts.com/icon -->
<!DOCTYPE svg PUBLIC "-//W3C//DTD SVG 1.1//EN" "http://www.w3.org/Graphics/SVG/1.1/DTD/svg11.dtd">
<svg version="1.1" xmlns="http://www.w3.org/2000/svg" xmlns:xlink="http://www.w3.org/1999/xlink" x="0px" y="0px" viewBox="0 0 1000 1000" enable-background="new 0 0 1000 1000" xml:space="preserve">
<metadata> Svg Vector Icons : http://www.onlinewebfonts.com/icon </metadata>
<g><path d="M711.2,237.3c0.3-1.5,0.5-3,0.5-4.5V129.6c0-14.9-12.1-26.9-26.9-26.9H303c-14.9,0-26.9,12.1-26.9,26.9v107.8H10v660.1h980V237.3H711.2z M329.9,156.5h327.8v76.3c0,1.5,0.2,3,0.5,4.5H329.9V156.5z M936.1,291.2v85.9L498.4,534.2L63.9,376.8v-85.6H936.1z M419.7,563l69.4,25.1c3,1.1,6.1,1.6,9.2,1.6c3.1,0,6.2-0.5,9.1-1.6l78.5-28.2v94.9H419.7L419.7,563L419.7,563z M63.9,843.5V434.1l302,109.4v138.3c0,14.9,12.1,26.9,26.9,26.9h220c14.9,0,26.9-12.1,26.9-26.9V540.7l296.4-106.3v409.1H63.9z"/></g>
</svg>