<?xml version="1.0" encoding="utf-8"?>
<!-- Svg Vector Icons : http://www.onlinewebfonts.com/icon -->
<!DOCTYPE svg PUBLIC "-//W3C//DTD SVG 1.1//EN" "http://www.w3.org/Graphics/SVG/1.1/DTD/svg11.dtd">
<svg version="1.1" xmlns="http://www.w3.org/2000/svg" xmlns:xlink="http://www.w3.org/1999/xlink" x="0px" y="0px" viewBox="0 0 1000 1000" enable-background="new 0 0 1000 1000" xml:space="preserve">
<metadata> Svg Vector Icons : http://www.onlinewebfonts.com/icon </metadata>
<g><g transform="translate(0.000000,511.000000) scale(0.100000,-0.100000)"><path d="M1913.8,4953.6c-59-35.9-115.4-97.5-146.2-161.6c-46.2-97.5-51.3-159.1-51.3-764.5v-659.3h-243.7c-225.8,0-251.4-5.1-307.9-64.1c-84.7-82.1-84.7-200.1,0-282.2c56.4-59,82.1-64.1,307.9-64.1h243.7v-307.9v-307.9h-243.7c-225.8,0-251.4-5.1-307.9-64.1c-84.7-82.1-84.7-200.1,0-282.2c56.4-59,82.1-64.1,307.9-64.1h243.7v-307.9v-307.9h-243.7c-225.8,0-251.4-5.1-307.9-64.1c-84.7-82.1-84.7-200.1,0-282.2c56.4-59,82.1-64.1,307.9-64.1h243.7V597.4V289.6h-243.7c-225.8,0-251.4-5.1-307.9-64.1c-84.7-82.1-84.7-200.1,0-282.2c56.4-59,82.1-64.1,307.9-64.1h243.7v-307.9v-307.9h-243.7c-225.8,0-251.4-5.1-307.9-64.1c-41-38.5-64.1-92.3-64.1-141.1c0-48.8,23.1-102.6,64.1-141.1c56.4-59,82.1-64.1,307.9-64.1h243.7v-307.9v-307.9h-243.7c-225.8,0-251.4-5.1-307.9-64.1c-84.7-82.1-84.7-200.1,0-282.2c56.4-59,82.1-64.1,307.9-64.1h243.7v-307.8V-2789h-243.7c-225.8,0-251.4-5.1-307.9-64.1c-84.7-82.1-84.7-200.1,0-282.2c56.4-59,82.1-64.1,307.9-64.1h243.7v-646.5c0-623.4,2.6-651.6,59-749.1c30.8-53.9,97.5-120.6,146.2-146.2c84.7-46.2,225.8-48.8,3386.4-48.8c3160.6,0,3301.7,2.6,3386.4,48.8c48.8,25.7,115.4,92.4,146.2,146.2l59,100.1V94.6c0,4538.3,0,4592.2-51.3,4697.3c-33.3,66.7-87.2,125.7-151.4,161.6l-100,56.4H5305.3H2011.3L1913.8,4953.6z M8489,110v-4489.5H5307.9H2126.7v590.1v590h192.4c171.9,0,202.7,7.7,256.5,64.1c84.7,82.1,84.7,200.1,0,282.2c-53.9,56.4-84.7,64.1-256.5,64.1h-192.4v307.9v307.8h192.4c171.9,0,202.7,7.7,256.5,64.1c41,38.5,64.1,92.3,64.1,141.1c0,48.8-23.1,102.6-64.1,141.1c-53.9,56.4-84.7,64.1-256.5,64.1h-192.4v307.9v307.9h192.4c171.9,0,202.7,7.7,256.5,64.1c84.7,82.1,84.7,200.1,0,282.2c-53.9,56.4-84.7,64.1-256.5,64.1h-192.4v307.9v307.9h192.4c171.9,0,202.7,7.7,256.5,64.1c84.7,82.1,84.7,200.1,0,282.2c-53.9,56.4-84.7,64.1-256.5,64.1h-192.4v307.9v307.9h192.4c171.9,0,202.7,7.7,256.5,64.1c41,38.5,64.1,92.4,64.1,141.1c0,48.7-23.1,102.6-64.1,141.1c-53.9,56.5-84.7,64.1-256.5,64.1h-192.4v307.9v307.9h192.4c171.9,0,202.7,7.7,256.5,64.1c84.7,82.1,84.7,200.1,0,282.2c-53.9,56.4-84.7,64.1-256.5,64.1h-192.4v307.9v307.9h192.4c171.9,0,202.7,7.7,256.5,64.1c41,38.5,64.1,92.4,64.1,141.1c0,48.7-23.1,102.6-64.1,141.1c-53.9,56.4-84.7,64.1-256.5,64.1h-192.4v615.7v615.7h3181.1H8489V110z"/></g></g>
</svg>