<?xml version="1.0" encoding="utf-8"?>
<!-- Svg Vector Icons : http://www.onlinewebfonts.com/icon -->
<!DOCTYPE svg PUBLIC "-//W3C//DTD SVG 1.1//EN" "http://www.w3.org/Graphics/SVG/1.1/DTD/svg11.dtd">
<svg version="1.1" xmlns="http://www.w3.org/2000/svg" xmlns:xlink="http://www.w3.org/1999/xlink" x="0px" y="0px" viewBox="0 0 1000 1000" enable-background="new 0 0 1000 1000" xml:space="preserve">
<metadata> Svg Vector Icons : http://www.onlinewebfonts.com/icon </metadata>
<g><path d="M886,83.5C838.6,36.1,775.6,10,708.6,10c-58.2,0-113.4,19.7-158,56c-2.5,1.3-4.8,2.9-6.8,5l-10.9,10.9c-0.6,0.5-1.1,1.1-1.7,1.6c-0.1,0.1-0.2,0.3-0.4,0.4L81,533.8l-32.8,34c-10.5,10.8-10.2,28.1,0.7,38.6c5.3,5.1,12.1,7.7,19,7.7c7.1,0,14.3-2.8,19.6-8.3l485.1-486.2c36.8-35.4,84.9-54.9,136.1-54.9c52.4,0,101.7,20.4,138.8,57.5c37.1,37.1,57.5,86.3,57.5,138.8c0,52.4-20.4,101.7-57.5,138.8L349.3,897.7c-50.2,50.2-132,50.2-182.3,0c-24.4-24.4-37.8-56.7-37.8-91.2c0-34.4,13.4-66.8,38.1-91.5l490.4-491.5c23.5-23.5,64.5-23.5,88.1,0c23.5,23.5,22.5,58.7-3.6,84.8L272.1,779.6l-32.8,33.9c-10.5,10.9-10.2,28.1,0.7,38.6c10.8,10.5,28.1,10.2,38.6-0.6l496.1-497.3l7.4-8.4c46.5-46.6,47.6-115.7,2.5-160.9c-22.1-22.1-51.5-34.3-82.7-34.3c-31.2,0-60.6,12.2-82.7,34.3L160.7,643.5l-32.2,33.3c-34.7,34.6-53.8,80.7-53.8,129.8c0,49,19.1,95.1,53.8,129.8c35.8,35.8,82.8,53.6,129.8,53.6c47,0,94-17.9,129.7-53.6L886,438.3c47.4-47.4,73.5-110.4,73.5-177.4C959.5,193.9,933.4,130.9,886,83.5L886,83.5z"/></g>
</svg>