<?xml version="1.0" encoding="utf-8"?>
<!-- Svg Vector Icons : http://www.onlinewebfonts.com/icon -->
<!DOCTYPE svg PUBLIC "-//W3C//DTD SVG 1.1//EN" "http://www.w3.org/Graphics/SVG/1.1/DTD/svg11.dtd">
<svg version="1.1" xmlns="http://www.w3.org/2000/svg" xmlns:xlink="http://www.w3.org/1999/xlink" x="0px" y="0px" viewBox="0 0 1000 1000" enable-background="new 0 0 1000 1000" xml:space="preserve">
<metadata> Svg Vector Icons : http://www.onlinewebfonts.com/icon </metadata>
<g><g transform="translate(0.000000,511.000000) scale(0.100000,-0.100000)"><path d="M2877.4,4556c-47.9-21.8-113.3-67.5-146-102.4c-130.7-139.4-126.3-74.1-126.3-1847.2V985.7l-47.9-10.9c-28.3-6.5-516.3-13.1-1084.8-13.1c-618.6,0-1056.5-6.5-1091.3-19.6c-85-32.7-191.7-132.9-237.4-224.4C102.2,637.2,100,576.2,100-1290.7v-1925.6l50.1-95.8c34.9-63.2,87.1-117.6,156.8-161.2l104.6-65.4l1032.5-6.5l1030.3-6.5l-2.2-244c0-135.1,8.7-270.1,19.6-300.6c34.9-85,132.9-191.7,224.4-237.4c80.6-41.4,141.6-43.6,2289.4-43.6h2206.6l85,50.1c47.9,26.2,115.4,85,152.5,130.7c67.5,82.8,67.5,89.3,74.1,366l8.7,281h1006.4h1006.4l111.1,54.5c69.7,34.8,132.9,89.3,172.1,146l63.2,89.3l6.5,1947.4c4.4,1899.5,4.4,1947.4-37,2030.2c-47.9,91.5-152.5,189.5-239.6,222.2c-30.5,13.1-464,21.8-997.7,24h-943.2v1616.3c0,1115.3-8.7,1640.3-23.9,1701.3c-32.7,113.3-178.6,259.2-291.9,291.9c-61,17.4-729.7,24-2243.7,24C3069.1,4597.4,2960.1,4595.2,2877.4,4556z M3160.6,2615.1V970.4l-108.9,2.2l-108.9,2.2l-6.5,1577.1c-2.2,867,0,1598.9,6.5,1627.2c13.1,56.6,82.8,91.5,163.4,85l54.5-4.4V2615.1z M6776.6,2615.1V970.4l-1638.1-4.4l-1640.3-4.4v1655.5v1653.3l1640.3-4.4l1638.1-6.5V2615.1z M7297.2,4218.3l52.3-50.1l-2.2-1598.9l-4.4-1598.9H7234h-108.9l-6.5,1622.9c-2.2,893.1,0,1635.9,6.5,1651.2C7140.4,4288,7242.8,4275,7297.2,4218.3z M9540.9,597.9c30.5-30.5,34.8-230.9,34.8-1879.9c0-1559.7-4.4-1851.6-30.5-1888.6c-30.5-39.2-69.7-41.4-975.9-47.9c-518.4-2.2-965,0-991.1,6.5l-47.9,10.9l-6.5,694.9l-6.5,694.9l-67.5,85c-37,45.7-104.6,104.6-152.5,130.7l-85,50.1H5005.6c-2152.2,0-2208.8,0-2289.4-43.6c-104.6-52.3-215.7-183-233.1-272.3c-6.5-34.8-13.1-355.1-15.2-707.9l-4.4-642.6h-986.8c-951.9,0-989,2.2-1019.5,41.4c-26.1,37-30.5,328.9-30.5,1888.6c0,1649,4.4,1849.4,34.9,1879.9c30.5,30.5,472.7,34.9,4539.6,34.9C9068.2,632.8,9510.4,628.4,9540.9,597.9z M7166.5-1907.1c30.5-30.5,34.8-154.7,34.8-1047.8c0-914.9-4.4-1019.5-37-1056.5c-32.7-37-128.5-39.2-2158.7-39.2c-1947.4,0-2128.2,2.2-2165.3,37c-37,32.7-39.2,93.7-39.2,1054.3c0,897.5,4.4,1021.7,34.9,1052.2c30.5,30.5,257,34.8,2165.3,34.8C6909.5-1872.3,7136-1876.6,7166.5-1907.1z"/><path d="M8135.9-201.5c-61-32.7-117.6-87.1-156.8-150.3c-119.8-193.9-98-392.1,58.8-548.9c298.4-298.4,788.5-61,749.3,361.6C8756.7-236.4,8410.3-57.7,8135.9-201.5z M8440.8-547.9c30.5-52.3,30.5-61-6.6-102.4c-54.5-58.8-132.9-58.8-174.3,0c-34.8,52.3-26.1,102.4,28.3,145.9C8340.6-462.9,8403.8-480.3,8440.8-547.9z"/><path d="M1086.8-430.2c-82.8-8.7-159-91.5-159-172.1c0-28.3,24-76.2,54.5-104.6l52.3-54.5h749.3c725.4,0,751.5,2.2,808.2,45.7c43.6,34.9,56.6,63.2,56.6,126.4c0,156.8,6.5,156.8-786.4,161.2C1474.5-425.9,1123.8-425.9,1086.8-430.2z"/><path d="M3496-2153.3c-34.9-34.9-63.2-84.9-63.2-111.1c0-26.1,28.3-76.2,63.2-111.1l63.2-63.2h1442.1h1442.1l63.2,63.2c34.9,34.9,63.2,85,63.2,111.1c0,26.2-28.3,76.2-63.2,111.1l-63.2,63.2H5001.2H3559.2L3496-2153.3z"/><path d="M3496-2697.9c-37-28.3-50.1-63.2-50.1-122c0-58.8,13.1-93.7,50.1-122c47.9-39.2,115.5-41.4,1503-41.4c1577.1,0,1527-4.4,1557.5,119.8c15.2,63.2-32.7,172.1-85,193.9c-19.6,6.5-686.2,13.1-1481.3,13.1C3611.5-2656.5,3543.9-2658.6,3496-2697.9z"/><path d="M3570.1-3218.5c-52.3-8.7-137.2-100.2-137.2-148.1c0-56.6,50.1-135.1,102.4-159c74.1-34.8,2858-34.8,2934.2,0c104.6,47.9,119.8,200.4,28.3,278.8c-28.3,21.8-331.1,28.3-1457.3,30.5C4258.4-3214.1,3596.2-3214.1,3570.1-3218.5z"/></g></g>
</svg>