<?xml version="1.0" encoding="utf-8"?>
<!-- Svg Vector Icons : http://www.onlinewebfonts.com/icon -->
<!DOCTYPE svg PUBLIC "-//W3C//DTD SVG 1.1//EN" "http://www.w3.org/Graphics/SVG/1.1/DTD/svg11.dtd">
<svg version="1.1" xmlns="http://www.w3.org/2000/svg" xmlns:xlink="http://www.w3.org/1999/xlink" x="0px" y="0px" viewBox="0 0 1000 1000" enable-background="new 0 0 1000 1000" xml:space="preserve">
<metadata> Svg Vector Icons : http://www.onlinewebfonts.com/icon </metadata>
<g><path d="M360,990H10V10h350V990z M45,955h280V45H45V955z"/><path d="M675,990H325V10h350V990z M360,955h280V45H360V955z"/><path d="M990,990H640V10h350V990z M675,955h280V45H675V955z"/><path d="M290,465H80V80h210V465z M115,430h140V115H115V430z"/><path d="M605,465H395V80h210V465z M430,430h140V115H430V430z"/><path d="M920,465H710V80h210V465z M745,430h140V115H745V430z"/><path d="M185,902.5c-57.7,0-105-47.2-105-105c0-57.7,47.3-105,105-105c57.8,0,105,47.3,105,105C290,855.3,242.8,902.5,185,902.5z M185,727.5c-38.5,0-70,31.5-70,70c0,38.5,31.5,70,70,70c38.5,0,70-31.5,70-70C255,759,223.5,727.5,185,727.5z"/><path d="M500,902.5c-57.8,0-105-47.2-105-105c0-57.7,47.3-105,105-105c57.8,0,105,47.3,105,105C605,855.3,557.8,902.5,500,902.5z M500,727.5c-38.5,0-70,31.5-70,70c0,38.5,31.5,70,70,70c38.5,0,70-31.5,70-70C570,759,538.5,727.5,500,727.5z"/><path d="M815,902.5c-57.7,0-105-47.2-105-105c0-57.7,47.3-105,105-105c57.8,0,105,47.3,105,105C920,855.3,872.8,902.5,815,902.5z M815,727.5c-38.5,0-70,31.5-70,70c0,38.5,31.5,70,70,70c38.5,0,70-31.5,70-70C885,759,853.5,727.5,815,727.5z"/></g>
</svg>