<?xml version="1.0" encoding="utf-8"?>
<!-- Svg Vector Icons : http://www.onlinewebfonts.com/icon -->
<!DOCTYPE svg PUBLIC "-//W3C//DTD SVG 1.1//EN" "http://www.w3.org/Graphics/SVG/1.1/DTD/svg11.dtd">
<svg version="1.1" xmlns="http://www.w3.org/2000/svg" xmlns:xlink="http://www.w3.org/1999/xlink" x="0px" y="0px" viewBox="0 0 1000 1000" enable-background="new 0 0 1000 1000" xml:space="preserve">
<metadata> Svg Vector Icons : http://www.onlinewebfonts.com/icon </metadata>
<g><g transform="translate(0.000000,511.000000) scale(0.100000,-0.100000)"><path d="M1124.2,4829.6c-375.9-164.2-742-1022.9-951.7-2235.7c-69.2-407.6-87.1-647-61.3-823.1c51.4-360.1,233.5-726.1,480.8-965.5l91-87l-43.5-35.6c-43.5-33.6-43.5-35.6-49.5-931.9c-4-807.2,2-1066.4,75.2-2597.8c77.2-1658,81.1-1701.5,122.7-1745.1c41.5-45.5,49.5-45.5,465-45.5c423.4,0,423.4,0,470.9,49.5c27.7,25.7,49.5,59.4,49.5,73.2c0,13.8,39.6,763.7,89,1663.9c85.1,1563,89,1679.8,85.1,2564.2c-5.9,884.4-7.9,929.9-43.5,969.5c-39.6,43.5-39.6,43.5,51.4,136.5c362.1,374,528.3,844.8,472.9,1343.4c-102.9,931.9-403.6,1972.6-694.5,2388.1c-81.1,118.7-217.6,243.4-300.7,279C1341.9,4867.1,1211.3,4867.1,1124.2,4829.6z M1387.4,4481.3c162.2-150.4,360.1-607.4,514.4-1195c132.6-504.5,227.5-1052.6,227.5-1323.6c0-558-435.3-1141.6-856.7-1145.6c-265.1-2-540.1,211.7-712.3,556c-122.7,243.4-162.2,429.3-146.4,684.6c31.7,514.4,257.2,1444.3,480.8,1980.5c118.7,281,294.8,518.4,389.8,524.3C1292.4,4562.4,1337.9,4526.8,1387.4,4481.3z M1634.7-393.8v-821.1l-360.1,4l-362.1,5.9l-5.9,817.1l-4,815.2h366h366V-393.8z M1609-1761c-5.9-136.5-13.9-251.3-17.8-257.2c-5.9-3.9-152.3-2-328.4,4c-372,15.8-340.3-11.9-340.3,300.7v201.8h348.2h350.2L1609-1761z M1575.3-2386.2c0-108.8-100.9-1925.1-108.8-1931c-2-4-98.9-11.9-215.7-17.8l-209.7-11.9v59.4c0,49.5-63.3,1422.5-85.1,1842l-5.9,122.7h312.6h312.6V-2386.2z"/><path d="M5512.6,4014.4c-377.9-21.8-666.8-51.4-805.3-85.1c-379.9-91-692.5-253.2-939.8-490.7c-328.4-314.6-510.5-692.5-571.8-1201c-29.7-227.5-7.9-874.5,33.6-1032.8c98.9-383.8,379.9-641,799.3-730.1c112.8-23.7,221.6-29.7,461-21.8c350.2,9.9,451.1-4,607.4-79.1c429.3-209.7,565.9-785.5,277-1167.3c-150.4-199.8-298.8-275-692.5-348.2c-433.3-83.1-738-348.2-880.4-767.7c-110.8-328.4-83.1-943.8,61.3-1404.7c219.6-704.4,704.4-1100.1,1458.2-1187.1c251.3-29.7,453.1-15.8,898.3,61.3c514.4,89,793.4,168.2,1153.5,326.5c1753,775.6,2781.8,2671,2473.2,4552.6c-195.9,1195-850.8,2212-1859.8,2886.7c-383.8,255.2-997.2,508.5-1454.2,601.5C6220.9,3990.6,5773.8,4028.2,5512.6,4014.4z M6308,3654.3c787.5-136.5,1472-476.8,2051.8-1022.9c906.1-850.8,1359.2-2126.9,1199-3365.5c-55.4-425.4-164.2-783.5-358.1-1189.1c-435.3-914.1-1187.1-1610.5-2134.9-1982.5c-269.1-104.9-514.4-166.2-955.6-239.4c-322.5-53.4-403.6-59.4-627.2-51.5c-298.8,11.9-431.3,43.5-660.8,156.3c-199.8,96.9-405.6,290.8-522.3,490.7c-160.3,275-286.9,860.7-263.1,1206.9c39.6,554,290.8,836.9,809.2,920c322.5,51.5,508.5,146.4,708.3,360.1c312.6,338.3,372,840.9,150.4,1262.3c-93,174.1-292.8,366-470.9,451.1c-213.7,100.9-298.8,114.7-700.4,108.8c-403.6-5.9-516.4,13.9-696.4,112.8c-138.5,75.2-245.3,207.7-294.8,364c-31.7,95-37.6,180.1-37.6,595.6c0,559.9,19.8,658.8,180,987.3c205.8,415.5,629.2,714.3,1167.3,823.1C5239.6,3719.6,5896.4,3725.5,6308,3654.3z"/><path d="M5431.5,2720.4c-407.6-45.5-716.2-423.4-684.6-842.8c47.5-631.2,783.5-951.7,1280.1-557.9c282.9,223.6,375.9,623.2,221.6,953.7C6102.2,2589.8,5789.6,2760,5431.5,2720.4z M5688.7,2396c124.6-43.5,213.7-122.7,271.1-241.4c219.6-447.1-290.8-892.3-698.4-611.4c-237.4,164.2-277,514.4-79.1,720.2C5322.7,2409.8,5510.6,2459.3,5688.7,2396z"/><path d="M7194.4,1843.9c-389.8-108.8-645-500.6-575.7-886.4c47.5-267.1,195.8-466.9,433.3-583.7c144.4-71.2,158.3-75.2,348.3-75.2c184,0,209.7,5.9,328.4,61.3c249.3,120.7,391.7,300.7,447.1,563.9C8294.4,1493.7,7756.3,2000.2,7194.4,1843.9z M7600,1517.5c100.9-45.5,233.4-193.9,263.1-294.8c124.7-411.6-310.6-771.6-684.6-567.8c-356.1,193.9-340.3,696.5,25.7,862.6C7309.1,1565,7495.1,1565,7600,1517.5z"/><path d="M7471.4-247.4c-231.5-45.5-453.1-221.6-559.9-447.1c-57.4-122.7-63.3-150.4-63.3-332.4c0-182,5.9-209.7,63.3-332.4c235.4-494.6,882.4-611.4,1274.2-229.5c59.4,57.4,122.7,148.4,162.2,229.5c57.4,122.6,63.3,150.4,63.3,332.4c0,182-5.9,209.7-63.3,330.4c-114.7,243.4-318.5,403.6-577.7,451.1C7647.5-223.6,7596-223.6,7471.4-247.4z M7793.8-569.9c330.4-118.7,423.4-552,172.1-797.4c-186-182-453.1-189.9-645-19.8c-116.7,102.9-164.2,207.8-166.2,356.1C7154.8-688.6,7475.3-457.1,7793.8-569.9z"/><path d="M5789.6-1503.7c-298.8-81.1-518.4-322.5-577.8-635.1c-63.3-338.3,130.6-702.4,453.1-852.7c102.9-47.5,138.5-53.4,322.5-53.4c191.9,0,217.6,4,340.3,63.3c168.2,79.1,298.8,209.7,377.9,377.9c59.4,122.7,63.3,148.4,63.3,340.3c0,184-5.9,221.6-53.4,320.5C6549.4-1586.8,6163.6-1402.8,5789.6-1503.7z M6147.7-1812.4c100.9-29.7,225.6-138.5,279-241.4c67.3-126.6,61.3-308.7-11.9-443.2c-97-172.1-300.7-279-484.7-251.3c-245.4,37.6-417.5,235.4-417.5,484.7C5512.6-1937,5825.2-1715.4,6147.7-1812.4z"/></g></g>
</svg>