<?xml version="1.0" encoding="utf-8"?>
<!-- Svg Vector Icons : http://www.onlinewebfonts.com/icon -->
<!DOCTYPE svg PUBLIC "-//W3C//DTD SVG 1.1//EN" "http://www.w3.org/Graphics/SVG/1.1/DTD/svg11.dtd">
<svg version="1.1" xmlns="http://www.w3.org/2000/svg" xmlns:xlink="http://www.w3.org/1999/xlink" x="0px" y="0px" viewBox="0 0 1000 1000" enable-background="new 0 0 1000 1000" xml:space="preserve">
<metadata> Svg Vector Icons : http://www.onlinewebfonts.com/icon </metadata>
<g><g transform="translate(0.000000,511.000000) scale(0.100000,-0.100000)"><path d="M6547.4,3776c-345-36.4-739.8-153.3-1073.3-314.3c-105.4-49.8-1303.3-632.5-2664-1293.7C1449.4,1504.9,301.4,949.1,257.3,928c-44.1-19.2-97.7-59.4-120.7-86.3C96.3,790,96.3,786.2,104-246.8l7.7-1034.9l47.9-201.2c134.2-542.4,348.8-929.5,722.5-1305.2c306.7-304.7,634.4-509.8,1023.4-640.1c431.2-143.8,224.2-134.2,3099.1-134.2h2577.8l199.3,44.1c548.1,122.7,962.1,348.8,1345.4,730.2c381.4,383.3,607.6,797.3,730.2,1345.4c42.2,189.8,44.1,233.8,42.2,860.5c-1.9,364.2-1.9,751.3-1.9,862.5c5.8,634.4,0,797.3-42.2,1010C9615.8,2526.4,8655.7,3488.5,7425.2,3730C7224,3770.3,6731.4,3795.2,6547.4,3776z M7312.2,3335.2c256.8-47.9,467.6-118.8,711-239.6c285.6-139.9,502.1-302.8,741.7-550c438.9-458.1,680.4-1008.1,734-1677l11.5-147.6l-92,55.6C9221,897.4,9117.5,918.4,8669.1,928l-406.3,7.7l-11.5,51.7c-23,105.4-88.2,299-126.5,373.7c-187.8,371.8-546.2,655.5-950.6,753.2c-168.7,40.2-490.6,40.2-659.3,0c-521.3-126.5-937.2-542.4-1063.7-1063.7c-40.2-168.7-40.2-490.7,0-659.3c86.3-352.7,300.9-657.4,599.9-851c63.3-40.2,116.9-74.7,120.8-78.6c17.2-11.5-149.5-191.7-281.7-304.7c-187.8-159.1-366.1-276-584.6-383.3l-174.4-84.3l-151.4,147.6c-394.8,391-657.4,885.4-753.2,1424c-44.1,243.4-44.1,680.4,0,910.4c111.2,592.2,362.2,1056,793.5,1468.1c444.6,429.3,979.4,668.9,1623.3,734C6775.5,3387,7151.2,3365.9,7312.2,3335.2z M4215,2298.4c-166.7-272.2-314.3-659.3-383.3-1008.1c-61.3-310.5-61.3-831.8,0-1140.4c109.2-546.2,350.7-1038.8,701.5-1441.2c69-78.6,126.5-149.5,126.5-155.3c0-32.6-345-65.2-680.4-65.2c-414,0-617.1,28.8-943,136.1c-431.2,139.9-768.5,343.1-1071.4,647.8c-391,389.1-596,820.3-632.5,1324.4c-13.4,189.7-26.8,230-95.8,289.4l-47.9,38.3l1539,751.3c847.1,412.1,1544.7,749.4,1552.4,749.4C4287.8,2426.8,4259.1,2369.3,4215,2298.4z M7103.3,1708.1c274.1-72.8,525.1-276,647.8-529c38.3-78.6,74.8-164.8,80.5-191.7l11.5-49.8l-245.3-11.5c-362.2-15.3-567.3-97.8-768.5-308.6c-138-143.7-195.5-241.5-274.1-461.9c-32.6-93.9-80.5-214.7-105.4-264.5l-47.9-92l-57.5,34.5c-210.8,124.6-375.7,316.2-460,538.5c-51.7,136.1-69,408.2-36.4,565.4c72.8,354.6,377.6,674.6,730.2,768.5C6716.1,1742.6,6963.3,1744.5,7103.3,1708.1z M931.9,439.3c97.7-607.5,333.5-1061.8,774.3-1487.2C2873.4-2174.9,4855.1-2236.2,6120-1184c364.2,304.7,647.8,709.1,799.2,1142.3c32.6,92,70.9,195.5,88.2,226.2C7063,291.7,7178,401,7294.9,456.6l115,53.7h799.2c760.9,0,805-1.9,904.6-40.3c136.1-49.8,266.4-176.3,333.5-320.1C9497,42.6,9497,31.1,9504.7-427c11.5-728.3-38.3-1057.9-214.7-1431.7C8947-2583.1,8266.6-3066.1,7477-3150.4c-245.3-24.9-4699.4-24.9-4944.7,0c-1057.9,111.2-1891.7,941-2012.4,2002.8c-9.6,95.8-19.2,506-19.2,916.1v741.7h210.8h208.9L931.9,439.3z"/></g></g>
</svg>