<?xml version="1.0" encoding="utf-8"?>
<!-- Svg Vector Icons : http://www.onlinewebfonts.com/icon -->
<!DOCTYPE svg PUBLIC "-//W3C//DTD SVG 1.1//EN" "http://www.w3.org/Graphics/SVG/1.1/DTD/svg11.dtd">
<svg version="1.1" xmlns="http://www.w3.org/2000/svg" xmlns:xlink="http://www.w3.org/1999/xlink" x="0px" y="0px" viewBox="0 0 1000 1000" enable-background="new 0 0 1000 1000" xml:space="preserve">
<metadata> Svg Vector Icons : http://www.onlinewebfonts.com/icon </metadata>
<g><g><path d="M913.4,124.8h-15.3V94.2c0-25.3-20.6-45.9-45.9-45.9s-45.9,20.6-45.9,45.9v30.6H193.8V94.2c0-25.3-20.6-45.9-45.9-45.9s-45.9,20.6-45.9,45.9v30.6H86.6c-42.2,0-76.6,34.3-76.6,76.6v673.8c0,42.2,34.3,76.6,76.6,76.6h826.9c42.2,0,76.6-34.3,76.6-76.6V201.4C990,159.2,955.7,124.8,913.4,124.8z M836.9,94.2c0-8.4,6.9-15.3,15.3-15.3s15.3,6.9,15.3,15.3v45.9c0,0,0,0,0,0s0,0,0,0v45.9c0,8.4-6.9,15.3-15.3,15.3s-15.3-6.9-15.3-15.3V94.2z M147.8,78.9c8.4,0,15.3,6.9,15.3,15.3v91.9c0,8.4-6.9,15.3-15.3,15.3s-15.3-6.9-15.3-15.3v-45.9c0,0,0,0,0,0s0,0,0,0V94.2C132.5,85.8,139.4,78.9,147.8,78.9z M913.4,921.1H86.6c-25.3,0-45.9-20.6-45.9-45.9V293.3h735c8.5,0,15.3-6.9,15.3-15.3c0-8.5-6.9-15.3-15.3-15.3h-735v-61.3c0-25.3,20.6-45.9,45.9-45.9h15.3v30.6c0,25.3,20.6,45.9,45.9,45.9s45.9-20.6,45.9-45.9v-30.6h612.5v30.6c0,25.3,20.6,45.9,45.9,45.9s45.9-20.6,45.9-45.9v-30.6h15.3c25.3,0,45.9,20.6,45.9,45.9v61.3h-30.6c-8.5,0-15.3,6.9-15.3,15.3c0,8.5,6.9,15.3,15.3,15.3h30.6v581.9C959.4,900.5,938.8,921.1,913.4,921.1z"/><path d="M867.5,262.7h-30.6c-8.5,0-15.3,6.9-15.3,15.3c0,8.5,6.9,15.3,15.3,15.3h30.6c8.5,0,15.3-6.9,15.3-15.3C882.8,269.5,876,262.7,867.5,262.7z"/><path d="M395.8,495.7l84.4-84.4c0.4-0.4,0.7-0.7,1-1.1c0.1-0.2,0.3-0.3,0.4-0.5c0.2-0.2,0.3-0.5,0.5-0.7c0.1-0.2,0.3-0.4,0.4-0.6c0.1-0.2,0.3-0.4,0.4-0.6c0.1-0.2,0.2-0.5,0.3-0.7c0.1-0.2,0.2-0.4,0.3-0.7s0.2-0.5,0.3-0.7c0.1-0.2,0.2-0.5,0.3-0.7c0.1-0.2,0.1-0.5,0.2-0.7c0.1-0.2,0.1-0.5,0.2-0.7c0.1-0.3,0.1-0.6,0.1-0.8c0-0.2,0.1-0.4,0.1-0.6c0.1-1,0.1-2,0-3c0-0.2-0.1-0.4-0.1-0.6c0-0.3-0.1-0.6-0.1-0.8c0-0.3-0.1-0.5-0.2-0.7c-0.1-0.2-0.1-0.5-0.2-0.7c-0.1-0.2-0.2-0.5-0.3-0.7c-0.1-0.2-0.2-0.5-0.3-0.7c-0.1-0.2-0.2-0.4-0.3-0.7c-0.1-0.2-0.2-0.5-0.3-0.7c-0.1-0.2-0.2-0.4-0.4-0.6c-0.1-0.2-0.3-0.4-0.4-0.6c-0.2-0.2-0.3-0.5-0.5-0.7c-0.1-0.2-0.2-0.3-0.4-0.5c-0.6-0.8-1.4-1.5-2.1-2.1c-0.2-0.1-0.3-0.2-0.5-0.4c-0.2-0.2-0.5-0.4-0.7-0.5c-0.2-0.1-0.4-0.3-0.6-0.4c-0.2-0.1-0.4-0.3-0.7-0.4c-0.2-0.1-0.4-0.2-0.7-0.3c-0.2-0.1-0.5-0.2-0.7-0.3c-0.2-0.1-0.4-0.2-0.6-0.2c-0.3-0.1-0.5-0.2-0.8-0.3c-0.2-0.1-0.4-0.1-0.7-0.2c-0.3-0.1-0.5-0.1-0.8-0.2c-0.2,0-0.5-0.1-0.8-0.1c-0.2,0-0.5-0.1-0.7-0.1c-0.4,0-0.9-0.1-1.3-0.1c-0.1,0-0.1,0-0.2,0H300.9c-8.5,0-15.3,6.9-15.3,15.3c0,8.5,6.9,15.3,15.3,15.3h131.5l-81,81c-0.4,0.4-0.7,0.7-1,1.1c-0.1,0.2-0.3,0.3-0.4,0.5c-0.2,0.2-0.3,0.5-0.5,0.7c-0.1,0.2-0.3,0.4-0.4,0.6c-0.1,0.2-0.3,0.4-0.4,0.6c-0.1,0.2-0.2,0.5-0.3,0.7c-0.1,0.2-0.2,0.4-0.3,0.7c-0.1,0.2-0.2,0.5-0.3,0.7c-0.1,0.2-0.2,0.5-0.3,0.7c-0.1,0.2-0.1,0.5-0.2,0.7c-0.1,0.2-0.1,0.5-0.2,0.7c-0.1,0.3-0.1,0.6-0.1,0.8c0,0.2-0.1,0.4-0.1,0.6c-0.1,1-0.1,2,0,3c0,0.2,0.1,0.4,0.1,0.6c0,0.3,0.1,0.6,0.1,0.8c0,0.3,0.1,0.5,0.2,0.7c0.1,0.2,0.1,0.5,0.2,0.7c0.1,0.2,0.2,0.5,0.3,0.7c0.1,0.2,0.2,0.5,0.3,0.7s0.2,0.4,0.3,0.7c0.1,0.2,0.2,0.5,0.3,0.7c0.1,0.2,0.2,0.4,0.4,0.6c0.1,0.2,0.3,0.4,0.4,0.6c0.2,0.2,0.3,0.5,0.5,0.7c0.1,0.2,0.2,0.3,0.4,0.5c0.6,0.8,1.4,1.5,2.1,2.1c0.2,0.1,0.3,0.2,0.5,0.4c0.2,0.2,0.5,0.4,0.7,0.5c0.2,0.1,0.4,0.3,0.6,0.4c0.2,0.1,0.4,0.3,0.7,0.4c0.2,0.1,0.4,0.2,0.7,0.3c0.2,0.1,0.5,0.2,0.7,0.3c0.2,0.1,0.4,0.2,0.7,0.2c0.2,0.1,0.5,0.2,0.7,0.3c0.2,0.1,0.5,0.1,0.7,0.2c0.3,0.1,0.5,0.1,0.8,0.2c0.3,0.1,0.5,0.1,0.8,0.1c0.2,0,0.4,0.1,0.7,0.1c0.5,0,1,0.1,1.5,0.1c76,0,137.8,61.8,137.8,137.8s-61.8,137.8-137.8,137.8c-36.3,0-70.5-14-96.5-39.4c-6-5.9-15.7-5.8-21.7,0.2c-5.9,6-5.8,15.7,0.2,21.7c31.7,31,73.5,48.1,117.9,48.1c92.9,0,168.4-75.6,168.4-168.4C530.6,579.4,472.6,511.3,395.8,495.7z"/><path d="M683.7,399c0-0.2-0.1-0.4-0.1-0.6c0-0.3-0.1-0.6-0.1-0.8c0-0.3-0.1-0.5-0.2-0.7c-0.1-0.2-0.1-0.5-0.2-0.7c-0.1-0.2-0.2-0.5-0.3-0.7c-0.1-0.2-0.2-0.5-0.3-0.7c-0.1-0.2-0.2-0.4-0.3-0.7c-0.1-0.2-0.2-0.5-0.3-0.7c-0.1-0.2-0.2-0.4-0.4-0.6c-0.1-0.2-0.3-0.4-0.4-0.6c-0.2-0.2-0.3-0.5-0.5-0.7c-0.1-0.2-0.2-0.3-0.4-0.5c-0.6-0.8-1.4-1.5-2.1-2.1c-0.2-0.1-0.3-0.2-0.5-0.4c-0.2-0.2-0.5-0.4-0.7-0.5c-0.2-0.1-0.4-0.3-0.6-0.4c-0.2-0.1-0.4-0.3-0.7-0.4c-0.2-0.1-0.4-0.2-0.7-0.3c-0.2-0.1-0.5-0.2-0.7-0.3c-0.2-0.1-0.4-0.2-0.6-0.2c-0.3-0.1-0.5-0.2-0.8-0.3c-0.2-0.1-0.4-0.1-0.7-0.2c-0.3-0.1-0.5-0.1-0.8-0.2c-0.2,0-0.5-0.1-0.8-0.1c-0.2,0-0.5-0.1-0.7-0.1c-0.4,0-0.9-0.1-1.3-0.1c-0.1,0-0.1,0-0.2,0s-0.1,0-0.2,0c-0.4,0-0.9,0-1.3,0.1c-0.2,0-0.5,0.1-0.7,0.1c-0.3,0-0.5,0.1-0.8,0.1c-0.3,0.1-0.5,0.1-0.8,0.2c-0.2,0.1-0.4,0.1-0.7,0.2c-0.3,0.1-0.5,0.2-0.8,0.3c-0.2,0.1-0.4,0.1-0.6,0.2c-0.2,0.1-0.5,0.2-0.7,0.3c-0.2,0.1-0.4,0.2-0.7,0.3c-0.2,0.1-0.4,0.3-0.7,0.4c-0.2,0.1-0.4,0.2-0.6,0.4c-0.2,0.2-0.5,0.3-0.7,0.5c-0.2,0.1-0.3,0.2-0.5,0.4c-0.4,0.3-0.8,0.7-1.1,1L581,466.2c-6,6-6,15.7,0,21.7c3,3,6.9,4.5,10.8,4.5s7.8-1.5,10.8-4.5l50.4-50.4v376.5c0,8.5,6.9,15.3,15.3,15.3s15.3-6.9,15.3-15.3V400.5C683.8,400,683.7,399.5,683.7,399z"/></g><g></g><g></g><g></g><g></g><g></g><g></g><g></g><g></g><g></g><g></g><g></g><g></g><g></g><g></g><g></g></g>
</svg>