<?xml version="1.0" encoding="utf-8"?>
<!-- Svg Vector Icons : http://www.onlinewebfonts.com/icon -->
<!DOCTYPE svg PUBLIC "-//W3C//DTD SVG 1.1//EN" "http://www.w3.org/Graphics/SVG/1.1/DTD/svg11.dtd">
<svg version="1.1" xmlns="http://www.w3.org/2000/svg" xmlns:xlink="http://www.w3.org/1999/xlink" x="0px" y="0px" viewBox="0 0 1000 1000" enable-background="new 0 0 1000 1000" xml:space="preserve">
<metadata> Svg Vector Icons : http://www.onlinewebfonts.com/icon </metadata>
<g><g transform="translate(0.000000,511.000000) scale(0.100000,-0.100000)"><path d="M1310.1,4981.3c-100.6-44.2-203.7-169.4-220.9-267.5c-7.4-44.2-9.8-2145.2-7.4-4673.4l7.4-4594.8l51.5-66.3c27-36.8,81-90.8,117.8-117.8c66.3-51.5,68.7-51.5,3745.5-51.5c3676.8,0,3679.3,0,3745.5,51.5c36.8,27,90.8,81,117.8,117.8l51.5,66.3V106.7v4661.1l-51.5,66.3c-27,36.8-81,90.8-117.8,117.8c-66.3,51.6-73.6,51.6-3716.1,56.5C2036.7,5013.2,1371.5,5008.3,1310.1,4981.3z M8538.6,106.7v-4516.3H5004.1H1469.7V106.7V4623h3534.5h3534.5V106.7z"/><path d="M2107.9,4203.2c-34.4-14.7-88.4-49.1-117.8-78.5c-130.1-120.3-127.6-90.8-127.6-1472.7V1365.8l56.5-81c29.5-44.2,85.9-105.5,122.7-132.5l68.7-51.5h2893.8c2884,0,2893.8,0,2960.1,51.5c36.8,27,90.8,81,117.8,117.8c51.5,66.3,51.5,93.3,51.5,1389.2c0,1296,0,1323-51.5,1389.2c-27,36.8-81,90.8-117.8,117.8c-66.3,51.5-81,51.5-2930.7,56.5C3163.3,4225.3,2147.1,4218,2107.9,4203.2z M7753.2,2659.4V1481.2h-2749h-2749v1178.1v1178.2h2749h2749V2659.4z"/><path d="M2095.6,661.4c-100.6-44.2-203.7-169.4-220.9-267.5c-7.4-44.2-12.3-466.4-7.4-942.5c7.4-827.2,9.8-866.4,58.9-930.3c27-36.8,81-90.8,117.8-117.8c66.3-51.5,90.8-51.5,1487.4-51.5s1421.2,0,1487.4,51.5c36.8,27,90.8,81,117.8,117.8c49.1,66.3,51.5,95.7,51.5,996.5c0,900.8-2.5,930.3-51.5,996.5c-27,36.8-81,90.8-117.8,117.8c-66.3,51.6-95.7,51.6-1458,56.5C2441.7,693.3,2154.5,688.4,2095.6,661.4z M4807.8-482.4v-785.4H3531.5H2255.1v785.4v785.4h1276.3h1276.3V-482.4z"/><path d="M3040.6-482.4v-196.4h490.9h490.9v196.4V-286h-490.9h-490.9V-482.4z"/><path d="M5823.9,661.4c-95.7-41.7-174.3-142.4-206.2-262.6c-17.2-61.4-24.6-787.9-19.6-2113.3c7.4-1968.5,7.4-2022.5,56.5-2103.5c27-46.6,81-105.5,117.8-135c68.8-51.5,90.8-51.5,1097.2-51.5c999,0,1028.4,2.4,1094.7,51.5c36.8,27,90.8,81,117.8,117.8c51.5,66.3,51.5,83.4,51.5,2174.7c0,2091.2,0,2108.4-51.5,2174.7c-27,36.8-81,90.8-117.8,117.8C7898,681,7863.6,683.5,6899,688.4C6101.3,693.3,5885.3,688.4,5823.9,661.4z M7753.2-1660.5v-1963.6h-883.6h-883.6v1963.6V303.1h883.6h883.6V-1660.5z"/><path d="M6378.7-1267.8v-196.4h490.9h490.9v196.4v196.4h-490.9h-490.9V-1267.8z"/><path d="M6378.7-2053.2v-196.4h490.9h490.9v196.4v196.4h-490.9h-490.9V-2053.2z"/><path d="M2053.8-1908.4c-56.4-29.4-112.9-85.9-142.4-144.8c-46.6-90.8-49.1-142.4-49.1-883.6c0-746.2,2.5-792.8,51.6-886.1c34.4-71.2,78.5-112.9,152.2-147.3c98.2-41.7,179.2-46.7,1462.9-46.7c1335.2,0,1364.7,0,1467.8,51.5c73.6,34.4,122.7,81,154.6,147.3c46.7,88.4,49.1,147.3,49.1,881.2c0,741.3-2.4,792.8-49.1,883.6c-31.9,63.8-83.4,115.4-147.2,147.3c-93.3,46.6-139.9,49.1-1477.6,49.1C2198.7-1859.4,2142.2-1861.8,2053.8-1908.4z M4807.8-2936.9v-687.3H3531.5H2255.1v687.3v687.3h1276.3h1276.3V-2936.9z"/><path d="M3236.9-2605.5v-159.6h-147.3h-147.3v-196.4v-196.4h147.3h147.3v-135v-135h142.4c76.1,0,164.5-7.4,196.4-14.7c51.5-14.7,54-9.8,54,135v149.7h147.3h147.3v196.4v196.4h-147.3h-147.3v159.6v159.5h-196.4h-196.4V-2605.5z"/></g></g>
</svg>