<?xml version="1.0" encoding="utf-8"?>
<!-- Svg Vector Icons : http://www.onlinewebfonts.com/icon -->
<!DOCTYPE svg PUBLIC "-//W3C//DTD SVG 1.1//EN" "http://www.w3.org/Graphics/SVG/1.1/DTD/svg11.dtd">
<svg version="1.1" xmlns="http://www.w3.org/2000/svg" xmlns:xlink="http://www.w3.org/1999/xlink" x="0px" y="0px" viewBox="0 0 1000 1000" enable-background="new 0 0 1000 1000" xml:space="preserve">
<metadata> Svg Vector Icons : http://www.onlinewebfonts.com/icon </metadata>
<g><g transform="translate(0.000000,511.000000) scale(0.100000,-0.100000)"><path d="M5940.5,4980.8c-362.2-52.5-756.9-197.3-1106.7-407.2c-122.4-74.9-262.3-142.4-304.8-152.4c-112.4-22.5-239.8,25-372.2,139.9c-134.9,117.4-249.8,129.9-337.2,42.5c-50-55-52.5-74.9-40-369.7c22.5-542.1,117.4-866.8,317.3-1084.2l107.4-114.9l-64.9-94.9c-99.9-142.4-142.4-264.8-142.4-409.7c0-222.3,149.9-482.1,332.2-582.1c77.4-42.5,97.4-74.9,192.4-334.7c179.9-489.6,404.7-896.8,632-1144.1c55-60,94.9-109.9,89.9-109.9c-5-2.5-487.1-77.4-1069.2-169.9L3112.7,24.6l-42.5-124.9c-22.5-69.9-50-162.4-60-204.9l-17.5-82.4h182.4c114.9,0,194.8,12.5,219.8,32.5c22.5,20,374.7,85,826.9,152.4c432.2,65,816.9,124.9,851.9,132.4c57.5,10,89.9-17.5,269.8-234.8c112.4-134.9,209.9-267.3,214.9-294.8c25-104.9,337.2-1956,337.2-1996c0-35-72.5-40-736.9-40h-736.9v-182.4v-184.9l1106.7-15c607-10,1838.6-17.5,2737.9-17.5H9900l-15,369.7c-22.5,599.5-129.9,1004.2-547.1,2045.9c-162.4,407.2-264.8,634.5-292.3,642c-22.5,5-502.1,82.4-1069.2,167.4L6947.3,346.8l109.9,117.4c234.8,249.8,454.7,657,627,1159.1c74.9,219.8,102.4,269.8,169.9,309.8c224.8,139.9,337.2,347.2,339.7,622c0,252.3-40,384.7-147.4,509.6l-92.4,102.4l62.5,152.4c92.4,222.3,92.4,519.6-2.5,721.9c-124.9,264.8-542.1,639.5-889.3,796.9C6804.9,4983.3,6340.2,5040.7,5940.5,4980.8z M6794.9,4538.6c322.3-104.9,741.9-422.2,849.3-642c64.9-132.4,60-309.8-7.5-467.1l-40-94.9h-207.3c-577.1,2.5-1066.7,282.3-1286.5,739.4c-72.5,149.9-109.9,202.3-162.4,219.8c-92.4,32.5-197.4-5-234.8-84.9c-17.5-35-64.9-137.4-107.4-229.8c-139.9-294.8-527.1-572.1-909.3-644.5c-149.9-27.5-169.9-25-224.8,17.5c-137.4,99.9-267.3,414.7-267.3,644.5c0,57.5,7.5,62.5,69.9,45c37.5-12.5,139.9-17.5,229.8-17.5c179.9,5,304.8,50,532.1,194.8c262.3,167.4,582.1,294.8,899.3,354.7C6177.9,4621,6587.6,4603.5,6794.9,4538.6z M6495.1,3154.7c302.3-147.4,489.6-194.9,854.4-212.3c282.3-15,294.8-17.5,362.2-87.4c57.5-60,69.9-97.4,77.4-244.8c10-164.9,7.5-177.4-64.9-249.8c-89.9-89.9-129.9-94.9-129.9-17.5c0,30-22.5,89.9-50,134.9c-74.9,122.4-167.4,137.4-831.9,122.4c-319.8-5-602.1-12.5-629.5-12.5c-27.5,0-292.3,5-589.6,12.5c-367.2,10-574.6,5-647-15c-137.4-37.5-224.8-124.9-224.8-224.8c0-97.4-55-99.9-152.4-2.5c-137.4,137.4-84.9,319.8,147.4,514.6c42.5,35,159.9,87.4,259.8,114.9c357.2,99.9,689.5,299.8,891.8,539.6l102.4,124.9l194.9-189.9C6217.8,3309.5,6305.3,3247.1,6495.1,3154.7z M5980.5,2382.7c17.5-15-192.3-507.1-237.3-564.6c-22.5-25-124.9-32.5-444.7-32.5h-417.2l-42.5,132.4c-50,159.9-57.5,457.2-10,477.1C4868.9,2412.7,5963,2402.7,5980.5,2382.7z M7381.9,2172.9c0-149.9-12.5-249.8-37.5-299.8l-37.5-74.9l-399.7-7.5c-294.8-5-412.2,2.5-444.7,25c-65,50-272.3,552.1-234.8,574.6c17.5,10,282.3,17.5,592.1,12.5l562.1-5V2172.9z M6347.7,1653.3c50-35,127.4-42.5,477.1-42.5h419.7l-52.4-129.9c-152.4-389.7-422.2-776.9-632-906.8c-122.4-74.9-129.9-74.9-462.1-74.9c-274.8,0-354.7,7.5-417.2,42.5C5563.3,606.6,5376,804,5256.1,988.8c-102.4,154.9-284.8,527.1-284.8,574.6c0,12.5,172.4,22.5,382.2,22.5c514.6,0,529.6,7.5,682,362.2l65,149.9l94.9-202.3C6245.3,1783.2,6315.3,1675.8,6347.7,1653.3z M5633.3,134.5C5903.1,39.6,6415.2,52,6665,162c102.4,45,109.9,47.5,75,7.5c-292.3-344.7-444.7-544.6-464.6-612c-15-45-57.5-269.8-94.9-502.1c-40-229.8-77.4-409.7-87.4-399.7c-7.5,12.5-47.4,217.3-84.9,457.1c-37.5,239.8-85,464.6-102.4,499.6c-15,35-134.9,184.8-262.3,334.7c-127.4,152.4-209.8,264.8-184.8,252.3C5485.9,189.4,5565.8,159.5,5633.3,134.5z M7956.5-200.3c412.2-62.5,769.4-122.4,796.9-132.4c30-12.5,104.9-169.9,229.8-479.6c299.8-746.9,439.7-1221.6,494.6-1691.2l17.5-132.4H7894c-1468.9,0-1598.8,2.5-1598.8,42.5c0,72.4,324.8,1966,347.2,2018.4c12.5,27.5,107.4,154.9,214.8,282.3c182.4,219.8,199.8,232.3,272.3,219.8C7172.1-80.4,7544.3-137.8,7956.5-200.3z"/><path d="M3027.8-1669.1L1868.6-2828.2l-104.9-447.2c-60-244.8-97.4-449.6-87.4-454.6c20-7.5,624.5,144.9,821.9,207.3c97.4,32.5,262.3,187.4,1249,1174.1L4883.8-1212l-349.7,349.7l-349.7,349.7L3027.8-1669.1z M3342.5-2176.3c-774.4-771.9-999.2-984.2-1061.7-996.7c-82.4-17.5-82.4-15-67.4,67.5c12.5,67.4,194.8,262.3,991.7,1061.7l976.8,981.7l72.4-67.5l70-67.5L3342.5-2176.3z"/><path d="M437.3-634.9c-55-25-134.9-84.9-179.9-129.9C95-937.2,100-867.2,100-2665.9c0-1116.7,10-1663.7,27.5-1731.2c17.5-62.5,72.4-144.9,144.9-214.8c70-72.5,152.4-127.4,214.8-144.9c67.5-17.5,604.5-27.5,1688.7-27.5h1591.3l132.4,69.9c84.9,42.5,162.4,109.9,209.8,177.4l74.9,107.4l7.5,1114.1l7.5,1116.7L3997-2398.6l-199.8-199.8v-851.9c0-794.4-2.5-854.3-45-891.8c-42.5-37.5-189.9-42.5-1608.8-42.5c-1481.4,0-1563.8,2.5-1601.3,45s-42.5,192.4-42.5,1658.7c0,1528.8,2.5,1613.8,45,1651.2c42.5,37.5,179.9,42.5,1456.4,42.5h1411.4l179.9,182.4c97.4,99.9,179.9,189.8,179.9,199.8s-726.9,17.5-1616.3,17.5C632.1-587.5,532.2-592.5,437.3-634.9z"/></g></g>
</svg>