<?xml version="1.0" encoding="utf-8"?>
<!-- Svg Vector Icons : http://www.onlinewebfonts.com/icon -->
<!DOCTYPE svg PUBLIC "-//W3C//DTD SVG 1.1//EN" "http://www.w3.org/Graphics/SVG/1.1/DTD/svg11.dtd">
<svg version="1.1" xmlns="http://www.w3.org/2000/svg" xmlns:xlink="http://www.w3.org/1999/xlink" x="0px" y="0px" viewBox="0 0 1000 1000" enable-background="new 0 0 1000 1000" xml:space="preserve">
<metadata> Svg Vector Icons : http://www.onlinewebfonts.com/icon </metadata>
<g><g transform="translate(0.000000,511.000000) scale(0.100000,-0.100000)"><path d="M7640.4,4334.1c-27.4-27.5-31.4-376.5-31.4-3559v-3527.6l-3739.4-3.9l-3741.4-5.9l-19.6-56.9c-15.7-47.1-11.8-60.8,27.5-92.1c45.1-37.3,143.1-37.3,3804.1-37.3h3757.1l1037.3-598.1c570.6-329.4,1053-598.1,1072.6-598.1c80.4,0,125.5,107.8,64.7,158.8c-15.7,13.7-486.3,288.3-1043.2,607.9l-1013.8,584.4l-9.8,3555.1c-5.9,1955-17.7,3566.8-25.5,3580.6C7758,4375.3,7677.6,4371.4,7640.4,4334.1z"/><path d="M2442,3630.2l-764.7-460.8h-254.9c-200,0-264.7-5.9-300-31.4l-43.1-29.4V1475.2c0-1243.2,5.9-1637.4,23.5-1655c33.3-33.3,4272.8-33.3,4306.1,0c17.6,17.6,23.5,411.8,23.5,1655v1633.4l-43.1,29.4c-35.3,25.5-100,31.4-300,31.4h-254.9l-768.7,460.8C3632.3,3891,3279.4,4091,3251.9,4091C3226.4,4089,2863.6,3883.1,2442,3630.2z M3873.5,3522.3l586.3-353H3265.6c-698.1,0-1186.3,7.8-1174.6,17.6c43.1,41.2,1137.3,688.3,1164.8,688.3C3271.5,3875.3,3549.9,3716.5,3873.5,3522.3z M5236.3,1483V-7.3H3255.8H1275.3V1483v1490.3h1980.5h1980.5V1483z"/><path d="M1679.3,2577.2c-27.5-39.2-31.4-176.5-31.4-1107.9c0-1039.3,0-1064.8,39.2-1104s64.7-39.2,1568.7-39.2s1529.5,0,1568.7,39.2c39.2,39.2,39.2,64.7,39.2,1104c0,931.4-3.9,1068.7-31.4,1107.9l-29.4,43.1H3255.8H1708.7L1679.3,2577.2z M4667.7,1473.2v-951H3255.8H1844v951v951h1411.8h1411.8V1473.2z"/></g></g>
</svg>