<?xml version="1.0" encoding="utf-8"?>
<!-- Svg Vector Icons : http://www.onlinewebfonts.com/icon -->
<!DOCTYPE svg PUBLIC "-//W3C//DTD SVG 1.1//EN" "http://www.w3.org/Graphics/SVG/1.1/DTD/svg11.dtd">
<svg version="1.1" xmlns="http://www.w3.org/2000/svg" xmlns:xlink="http://www.w3.org/1999/xlink" x="0px" y="0px" viewBox="0 0 1000 1000" enable-background="new 0 0 1000 1000" xml:space="preserve">
<metadata> Svg Vector Icons : http://www.onlinewebfonts.com/icon </metadata>
<g><g transform="translate(0.000000,512.000000) scale(0.100000,-0.100000)"><path d="M8549.9,5018.4C6947.8,4926.3,5898.3,4227.9,5482,2975c-36.4-109.4-82.5-274.4-99.8-364.5l-34.5-165l-259-84.4c-143.9-46-270.5-86.3-282-90.2c-11.5-1.9-30.7,28.8-42.2,69.1c-23,76.7-72.9,122.8-155.4,143.9c-55.6,13.4-890.2-130.5-976.6-168.8c-80.6-36.5-124.7-134.3-107.4-237.9l11.5-74.8l-111.3-30.7c-849.9-239.8-1582.9-546.8-2208.3-928.6C263.4,465.5-59-12.3,171.3-503.4C367-923.6,894.6-1077.1,1366.6-850.7c57.6,26.9,203.4,120.9,324.2,207.2C2226.1-257.9,2742.2-0.8,3427.2,223.7c402.9,132.4,425.9,138.1,441.3,88.3c21.1-67.2,103.6-117,189.9-117c99.8,0,897.9,143.9,947.8,170.8c63.3,34.5,103.6,115.1,95.9,193.8l-5.8,74.8l134.3,11.5c241.7,23,232.1,30.7,328.1-220.6c46.1-120.9,84.4-222.6,84.4-222.6c0-1.9-34.5-7.7-74.8-15.3c-42.2-5.8-101.7-32.6-130.5-57.6l-53.7-46l5.8-504.6c5.8-312.7,15.3-531.5,28.8-573.7c17.3-51.8,42.2-76.7,105.5-105.5c74.8-34.5,80.6-42.2,80.6-115.1c0-128.6-55.7-519.9-115.1-815.4c-88.3-425.9-214.9-819.3-383.7-1180c-213-454.7-253.3-615.9-214.9-865.3c46.1-287.8,203.4-516.1,435.5-623.6c642.7-301.2,1160.8,209.1,1613.6,1588.6c180.4,552.6,305.1,1199.2,362.6,1887.9l11.5,147.7l97.9,7.7c71,7.7,109.4,23,145.8,61.4l51.8,51.8l-5.8,445.1c-5.8,564.1-13.4,619.7-80.6,688.8c-32.6,30.7-74.8,53.7-103.6,53.7h-49.9l1.9,207.2c1.9,188,5.8,213,53.7,291.6c28.8,49.9,80.6,99.8,118.9,119c34.6,19.2,147.7,72.9,247.5,120.9c397.2,193.8,514.2,289.7,1156.9,938.2c723.3,731,928.6,953.6,945.9,1020.7c25,97.9-40.3,180.4-203.4,260.9c-571.7,280.1-1321.9,268.6-1920.5-34.5c-74.8-36.5-140.1-63.3-143.9-59.5c-13.4,13.4,61.4,209.1,132.4,349.2c105.5,207.2,253.3,404.8,450.9,598.6c262.9,259,431.7,381.8,834.6,608.2c140,80.6,168.8,195.7,72.9,303.1l-55.6,63.3l-199.6,1.9C8755.2,5024.1,8613.2,5022.2,8549.9,5018.4z M8095.2,4479.2c-420.2-378-683-755.9-819.2-1168.4c-115.1-353-120.9-587.1-30.7-1024.5c69.1-322.3,82.5-612,38.4-825c-42.2-207.2-119-404.8-224.5-581.3l-82.5-136.2l-5.8-253.3l-7.7-253.3l-213-11.5c-119-5.8-320.4-13.4-450.9-17.3l-234.1-3.8L5984.7,406c-293.5,750.2-335.8,957.4-303.1,1469.7c99.8,1552.2,844.2,2417.5,2311.9,2684.2C8229.5,4603.9,8231.4,4602,8095.2,4479.2z M9127.4,2965.4c284-57.6,297.4-15.3-128.5-445.1c-205.3-207.2-433.6-443.2-506.5-521.9c-245.6-268.6-523.8-495-738.7-604.4l-92.1-46l19.2,80.6c11.5,44.1,19.2,193.8,19.2,330c0,234.1-9.6,307-86.3,696.5l-28.8,140.1l99.8,61.4c262.8,166.9,468.1,255.2,721.4,308.9C8578.7,3003.8,8949,3003.8,9127.4,2965.4z M4557.2,1355.7c67.2-358.8,120.9-654.3,119-658.1c-9.6-7.7-401-80.6-437.5-80.6c-19.2,0-48,26.9-63.3,57.6c-17.3,32.6-61.4,72.9-97.9,92.1c-65.2,30.7-74.8,30.7-282-23c-314.7-78.7-790.5-241.8-1105.1-374.1c-466.2-197.6-823.1-399.1-1210.7-683c-253.3-186.1-335.8-222.5-519.9-236c-222.6-13.4-345.4,40.3-420.2,190c-119,232.1,15.3,452.8,493.1,809.7c638.9,473.9,1513.8,871.1,2547.9,1155c339.6,92.1,383.7,126.6,370.3,289.7c-7.7,97.9-30.7,86.3,262.9,140.1c174.6,30.7,193.8,30.7,205.3,3.8C4426.8,2021.5,4490.1,1714.5,4557.2,1355.7z M5280.5,1729.8c-3.8-209.1,1.9-341.5,26.9-481.6c17.3-105.5,28.8-195.7,24.9-199.5c-13.4-11.5-305.1-23-310.8-11.5c-3.8,5.8-38.4,180.3-76.7,385.6c-40.3,205.3-74.8,387.6-80.6,406.8c-7.7,24.9,23,44.1,140.1,88.2c157.3,59.5,259,95.9,274.4,97.9C5284.4,2017.6,5284.4,1887.2,5280.5,1729.8z M7204.9-250.2c5.8-55.6,11.5-176.5,11.5-266.7v-165l-92.1-13.4c-166.9-21.1-176.5-44.2-216.8-495c-19.2-214.9-48-483.5-65.2-600.5c-109.4-736.7-324.3-1450.5-606.3-2005c-270.5-533.4-475.8-683-746.3-543c-84.4,44.1-113.2,71-153.5,149.7c-40.3,82.5-48,120.9-46.1,268.6c0,172.7,0,172.7,136.2,470.1c76.7,163.1,166.9,379.9,205.3,479.7c205.3,550.7,343.4,1239.4,370.3,1841.9l11.5,259l-51.8,61.4c-28.8,32.6-74.8,65.2-105.5,72.9c-69.1,15.3-78.7,57.6-78.7,335.8v207.2l658.1,17.3c360.7,9.6,679.2,19.2,706,21.1C7187.7-150.4,7193.4-158.1,7204.9-250.2z"/><path d="M6399.1,2044.5c-268.6-132.4-301.2-508.4-57.6-675.4c195.7-132.4,473.9-55.6,577.5,161.2c61.4,128.5,28.8,314.7-74.8,425.9C6744.5,2067.5,6531.5,2109.7,6399.1,2044.5z"/></g></g>
</svg>