<?xml version="1.0" encoding="utf-8"?>
<!-- Svg Vector Icons : http://www.onlinewebfonts.com/icon -->
<!DOCTYPE svg PUBLIC "-//W3C//DTD SVG 1.1//EN" "http://www.w3.org/Graphics/SVG/1.1/DTD/svg11.dtd">
<svg version="1.1" xmlns="http://www.w3.org/2000/svg" xmlns:xlink="http://www.w3.org/1999/xlink" x="0px" y="0px" viewBox="0 0 1000 1000" enable-background="new 0 0 1000 1000" xml:space="preserve">
<metadata> Svg Vector Icons : http://www.onlinewebfonts.com/icon </metadata>
<g><path d="M41.7,778.8l3.5-4l45.9,116.5c-3.2-8.2-8-14.3-13-18.4c-2.1-1.7-3.4-2.5-3.9-2.7c2.3,1,7,2,12.7,2.4c3.1,0.3,9.2,0.8,17.4,1.3c19.6,1.2,39.7,1.6,57.8,1.1c15.7-0.5,28.6-1.7,37-3.5c291.2-62.1,361.3-63.2,593.7,1.1c6.5,1.8,17.6,3.2,31.6,3.7c16.4,0.6,34.8,0.1,52.8-1.3c7.6-0.6,13.2-1.1,19-1.7c4.3-0.3,18.3-6.3,21.2-8.8l21.2-18.9l28.4-0.7c-16.1,0.4-31.5,5.9-43.1,18c-5.7,5.9-9.3,12.2-11,17.7c-0.4,1.4-0.3,0.6-0.4-2.5c-0.5-17.4-7.3-47-22.4-89.1c-57.8-160.5-53.4-376.2-2.3-583c8.6-34.6,9.5-65,6.3-88.7c-0.5-3.5-0.8-5.2-0.7-4.8l-1.1-4.5l-0.6-4.6c1.8,14.3,10.4,22.8,24.7,24.4l-3.9-0.6c-1.9-0.3-6.7-1-13.9-1.7c-34.7-3.4-72.6-2.9-106.3,4.1c-2.3,0.5-2.3,0.5-4.6,1c-232,52.9-395.5,59.8-617.1-0.8c-24.6-6.7-48.7-7.5-68.7-5c-3,0.4-4.5,0.7-4.3,0.6l-8.5,1.5c14-1.6,22-9.4,24.1-23.8l-0.7,5.3l-1.5,5.1c0.5-1.8,0.6-2,0.4-0.7c-2.4,16.4-1.5,42.3,6.2,77.9c57.2,266.9,57,419.8-1.7,610.8c-16.8,54.7-25.7,90.2-28,107.8c-0.1,0.5-0.1-1.6-1.9-9.3c-6.7-27.1-30.4-51.3-63.3-54.5C27.2,827.6,33.4,805.7,41.7,778.8L41.7,778.8z M42.7,940.9l-23.6-21.2l0,0l-6.3,2.5c-5.2-3-6.8-27.2,28.9-143.5c54.1-176.1,54.9-315.4,0-571.9c-16.3-76.1-5.3-114.6-5.3-114.6C39.3,71.7,59.2,52.4,80.2,50c0,0,49.9-11.5,110.7,5.1c246.1,67.3,424.6,35.3,579.5,0c76.3-17.4,154.8-4.3,154.8-4.3c20.9,2.4,40.7,21.4,43.4,42.8c0,0,13.4,53.9-5.6,130.7c-41.7,168.9-57.1,379.8,0,538.2c57.1,158.4,6.1,159.7,6.1,159.7c-15.5,13.8-45.5,26.6-66.8,28.3c0,0-83,9.7-130-3.3c-233.3-64.5-297.9-55.3-556.9,0c-49.5,10.6-135.6,2.6-135.6,2.6C68.7,949,54.7,946.3,42.7,940.9L42.7,940.9z M225.2,351c1.3-3.3,4.1-9.3,8.3-17.2c7.1-13.2,15.6-26.7,25.6-39.6c18.9-24.2,40.7-43.3,65.4-54.9c4.3-2,6.2-7.6,4.3-12.4c-2-4.8-7-7.1-11.4-5c-27.3,12.8-51.1,33.6-71.5,59.8c-10.7,13.7-19.8,28.1-27.3,42.2c-2.6,5-4.9,9.6-6.8,13.7c-1.2,2.5-1.9,4.3-2.3,5.4c-1.9,4.7,0.1,10.4,4.4,12.6C218.3,357.7,223.3,355.7,225.2,351z M800.4,351c-1.3-3.3-4.1-9.3-8.3-17.2c-7.1-13.2-15.6-26.7-25.6-39.6c-18.9-24.2-40.7-43.3-65.4-54.9c-4.3-2-6.2-7.6-4.3-12.4s7-7.1,11.4-5c27.3,12.8,51.1,33.6,71.5,59.8c10.7,13.7,19.8,28.1,27.3,42.2c2.6,5,4.9,9.6,6.8,13.7c1.2,2.5,1.9,4.3,2.3,5.4c1.9,4.7-0.1,10.4-4.4,12.6C807.3,357.7,802.3,355.7,800.4,351z M231,714.5c2.8,2.2,8.2,6,15.8,10.7c12.7,7.9,26.9,15.3,41.9,21.5c28.5,11.5,56.9,17.1,84.1,14.8c4.8-0.4,9.2,3.5,9.9,8.6c0.7,5.2-2.6,9.7-7.3,10c-30.1,2.5-61-3.6-91.8-16c-16.1-6.5-31.2-14.4-44.7-22.9c-4.8-3-9-5.8-12.7-8.4c-2.3-1.6-3.8-2.8-4.7-3.5c-4-3.1-5.1-9-2.5-13.1C221.6,712.1,226.9,711.4,231,714.5z M789.4,714.5c-2.8,2.2-8.2,6-15.8,10.7c-12.7,7.9-26.9,15.3-41.9,21.5c-28.5,11.5-56.9,17.1-84.1,14.8c-4.8-0.4-9.2,3.5-9.9,8.6c-0.7,5.2,2.6,9.7,7.3,10c30.1,2.5,61-3.6,91.8-16c16.1-6.5,31.2-14.4,44.8-22.9c4.8-3,9-5.8,12.7-8.4c2.3-1.6,3.8-2.8,4.7-3.5c4-3.1,5.1-9,2.5-13.1S793.4,711.4,789.4,714.5z"/></g>
</svg>