<?xml version="1.0" encoding="utf-8"?>
<!-- Svg Vector Icons : http://www.onlinewebfonts.com/icon -->
<!DOCTYPE svg PUBLIC "-//W3C//DTD SVG 1.1//EN" "http://www.w3.org/Graphics/SVG/1.1/DTD/svg11.dtd">
<svg version="1.1" xmlns="http://www.w3.org/2000/svg" xmlns:xlink="http://www.w3.org/1999/xlink" x="0px" y="0px" viewBox="0 0 1000 1000" enable-background="new 0 0 1000 1000" xml:space="preserve">
<metadata> Svg Vector Icons : http://www.onlinewebfonts.com/icon </metadata>
<g><g transform="translate(0.000000,511.000000) scale(0.100000,-0.100000)"><path d="M2825.2,3656.2c-321.6-54.3-601.4-242.2-776.9-520c-29.2-45.9-77.3-154.5-106.5-240.2l-52.2-156.6v-943.9V851.6l-77.3-73.1c-104.4-98.2-304.9-190-469.9-215.1c-290.3-45.9-563.9,52.2-785.2,281.9c-79.4,81.4-156.6,139.9-192.1,148.3c-135.7,29.2-292.4-121.1-261-256.9c29.2-139.9,284-380.1,526.3-497C977,70.5,1415.5,64.3,1758,220.9c64.7,29.2,119,52.2,123.2,52.2c4.2,0,8.3-271.5,6.3-605.6l-2.1-603.5l-79.4-73.1c-213-192.1-534.6-265.2-824.9-187.9C812-1153.2,693-1080.1,540.5-923.5C423.6-804.5,402.7-792,327.5-792c-100.2,0-202.6-75.2-223.5-165c-45.9-215.1,378-584.7,787.3-680.8c275.7-64.7,685-23,912.6,94l85.6,41.8v-236c0-206.8,6.3-246.4,41.8-290.3c98.2-125.3,277.7-119,357.1,12.5c35.5,60.6,39.7,110.7,39.7,645.3V-792h887.5h887.5v-566c0-632.7,8.3-676.6,135.7-737.2c85.6-41.8,102.3-41.8,187.9,0c104.4,50.1,135.7,135.7,135.7,380.1v208.8l104.4-50.1c244.3-116.9,611.9-146.2,904.2-73.1c179.6,46,246.4,77.3,415.6,192.2c66.8,45.9,125.3,81.4,131.6,81.4s56.4-33.4,112.8-73.1c225.5-162.9,476.1-240.2,774.8-240.2c298.6,0,549.2,77.3,774.8,240.2c56.4,39.7,106.5,73.1,112.8,73.1c6.3,0,64.7-35.5,131.6-81.4c169.2-114.9,236-146.2,415.6-192.2c192.1-48,482.4-52.2,670.4-8.3c321.6,75.2,693.3,344.6,776.9,561.8c50.1,133.7-62.7,284-213,284c-73.1,0-96.1-14.6-213-131.6c-152.4-156.6-271.5-229.7-440.6-273.6c-332.1-87.7-676.6,14.6-895.9,265.2c-175.4,200.5-279.8,196.3-472-12.5c-91.9-100.3-158.7-150.4-275.7-204.7c-144.1-66.8-165-71-371.7-71c-206.7,0-227.6,4.2-371.7,71c-117,54.3-183.8,104.4-275.7,204.7c-192.1,210.9-296.6,213-474.1,8.4c-300.7-340.4-839.5-390.5-1207.1-110.7l-104.4,79.4l-6.3,618.1l-4.2,620.2l119-52.2C5109.8,28.8,5686.2,95.6,6032.9,375.4l79.4,64.7l77.3-60.5c100.2-79.4,296.5-177.5,451.1-225.6c91.9-27.1,190-37.6,375.9-35.5c217.2,0,271.5,8.3,417.7,58.5c91.9,31.3,233.9,102.3,315.3,156.6l150.4,100.2l79.3-62.6c384.3-292.4,946-344.6,1397.1-129.5c275.7,133.7,522.1,384.3,522.1,534.6c0,142-158.7,256.9-284,208.8c-29.2-10.4-108.6-77.3-175.4-146.2c-371.7-386.3-941.8-380.1-1317.7,12.5c-127.4,133.7-139.9,142-225.6,142c-85.6,0-100.2-8.3-236-148.3c-227.6-236-497-332.1-793.6-281.9c-213,37.6-350.8,112.8-513.7,281.9c-135.7,139.9-150.4,148.3-236,148.3c-85.6,0-98.2-8.3-225.5-142c-344.6-361.3-895.9-401-1242.6-87.7l-85.6,77.3v933.5V2706l60.6,125.3c33.4,68.9,96.1,160.8,139.9,202.6c102.3,96.1,286.1,183.8,390.5,183.8c248.5,0,373.8,213,225.6,380.1c-58.5,64.7-68.9,68.9-196.3,64.7c-469.9-10.4-889.6-338.3-1025.4-799.8c-18.8-62.6-41.8-206.7-48-317.4l-12.5-204.7h-887.5h-885.5l8.4,194.2c6.3,158.7,18.8,215.1,64.7,311.2c102.3,208.8,290.3,338.3,532.5,369.6c79.4,10.4,162.9,31.3,187.9,45.9c45.9,29.2,108.6,137.8,108.6,185.8c0,62.7-71,167.1-135.7,196.3C3015.2,3679.2,2977.6,3681.3,2825.2,3656.2z M4103.2,1442.6V1004h-887.5h-887.5v438.5v438.6h887.5h887.5V1442.6z M4103.2,106v-438.6h-887.5h-887.5V106v438.5h887.5h887.5V106z"/><path d="M659.5-2596.3C592.7-2633.9,555.1-2707,553-2801c0-98.2,119-252.7,298.6-386.3c269.4-196.3,469.9-263.1,808.2-261c302.8,0,507.5,58.5,739.3,215.1l156.6,104.4l94-73.1c213-162.9,482.4-248.5,785.2-250.6c302.8,0,565.9,81.5,793.6,248.5l102.3,75.2l100.2-71c139.9-102.3,290.3-173.3,446.9-215.1c175.4-45.9,507.5-48.1,680.8-2.1c152.5,39.7,388.4,154.5,482.4,233.9l66.8,56.4l156.6-106.5c96.1-62.7,225.5-127.4,330-160.8c313.3-100.3,730.9-71,1017,75.2c133.7,68.9,330,225.5,415.6,334.1c114.9,146.2,119,242.3,12.5,348.8c-66.8,66.8-83.5,73.1-160.8,62.7c-71-10.4-106.5-33.4-215.1-148.3c-94-98.2-173.3-156.6-275.7-206.7c-133.6-62.7-154.5-66.8-382.2-66.8c-227.6,0-248.5,4.2-380.1,66.8c-100.2,48-183.8,108.6-286.1,213c-119,123.2-154.5,148.3-208.8,148.3c-94,0-129.5-23-290.3-185.8c-194.2-196.3-309.1-240.2-620.2-242.3c-217.2,0-238.1,4.2-375.9,68.9c-106.5,50.1-183.8,108.6-284,215.1c-129.5,133.6-146.2,144.1-227.6,144.1s-98.2-10.4-227.6-144.1c-100.2-106.5-177.5-165-284-215.1c-137.8-64.7-158.7-68.9-375.9-68.9c-311.2,2.1-426,45.9-620.2,242.3c-160.8,162.9-196.3,185.8-290.3,185.8c-54.3,0-89.8-25.1-208.8-148.3c-102.3-104.4-185.9-165-286.1-213c-131.6-62.7-152.5-66.8-380.1-66.8s-248.5,4.2-382.2,66.8c-100.2,48-183.8,110.7-286.1,215.1c-121.1,123.2-154.5,146.2-213,146.2C741-2569.2,686.7-2581.7,659.5-2596.3z"/></g></g>
</svg>