<?xml version="1.0" encoding="utf-8"?>
<!-- Svg Vector Icons : http://www.onlinewebfonts.com/icon -->
<!DOCTYPE svg PUBLIC "-//W3C//DTD SVG 1.1//EN" "http://www.w3.org/Graphics/SVG/1.1/DTD/svg11.dtd">
<svg version="1.1" xmlns="http://www.w3.org/2000/svg" xmlns:xlink="http://www.w3.org/1999/xlink" x="0px" y="0px" viewBox="0 0 1000 1000" enable-background="new 0 0 1000 1000" xml:space="preserve">
<metadata> Svg Vector Icons : http://www.onlinewebfonts.com/icon </metadata>
<g><g transform="translate(0.000000,511.000000) scale(0.100000,-0.100000)"><path d="M2396.9,4642.5c0-13.1-487.8-2585.6-516.2-2721.3l-13.1-61.2H983.7H100v-175v-175h175h175V110v-1400h175h175v87.5v87.5h240.6c133.4,0,240.6-8.8,240.6-19.7s-146.6-754.7-328.1-1655.9C773.7-3689.7,625-4429.1,625-4433.4c0-4.4,1968.7-6.6,4375-6.6h4375l-10.9,48.1c-32.8,137.8-645.3,3224.4-645.3,3248.4c0,21.9,59.1,28.4,240.6,28.4H9200v-87.5v-87.5h175h175V110v1400h175h175v175v175h-879.4h-881.6l-148.8,772.2c-80.9,422.2-203.4,1052.2-271.3,1400L7596.6,4660H4997.8C3567.2,4660,2396.9,4653.4,2396.9,4642.5z M7544.1,3093.7c131.3-669.4,231.9-1220.6,227.5-1225c-4.4-4.4-1253.4-6.6-2775.9-4.4l-2765,6.6l229.7,1220.6L2692.2,4310H5000h2310L7544.1,3093.7z M1325,1247.5V985h-262.5H800v262.5V1510h262.5H1325V1247.5z M2200,1247.5V985h-262.5H1675v262.5V1510h262.5H2200V1247.5z M3075,1247.5V985h-262.5H2550v262.5V1510h262.5H3075V1247.5z M3950,1247.5V985h-262.5H3425v262.5V1510h262.5H3950V1247.5z M4825,1247.5V985h-262.5H4300v262.5V1510h262.5H4825V1247.5z M5700,1247.5V985h-262.5H5175v262.5V1510h262.5H5700V1247.5z M6575,1247.5V985h-262.5H6050v262.5V1510h262.5H6575V1247.5z M7450,1247.5V985h-262.5H6925v262.5V1510h262.5H7450V1247.5z M8325,1247.5V985h-262.5H7800v262.5V1510h262.5H8325V1247.5z M9200,1247.5V985h-262.5H8675v262.5V1510h262.5H9200V1247.5z M1325,372.5V110h-262.5H800v262.5V635h262.5H1325V372.5z M2200,372.5V110h-262.5H1675v262.5V635h262.5H2200V372.5z M3075,372.5V110h-262.5H2550v262.5V635h262.5H3075V372.5z M3950,372.5V110h-262.5H3425v262.5V635h262.5H3950V372.5z M4825,372.5V110h-262.5H4300v262.5V635h262.5H4825V372.5z M5700,372.5V110h-262.5H5175v262.5V635h262.5H5700V372.5z M6575,372.5V110h-262.5H6050v262.5V635h262.5H6575V372.5z M7450,372.5V110h-262.5H6925v262.5V635h262.5H7450V372.5z M8325,372.5V110h-262.5H7800v262.5V635h262.5H8325V372.5z M9200,372.5V110h-262.5H8675v262.5V635h262.5H9200V372.5z M1325-502.5V-765h-262.5H800v262.5V-240h262.5H1325V-502.5z M2200-502.5V-765h-262.5H1675v262.5V-240h262.5H2200V-502.5z M3075-502.5V-765h-262.5H2550v262.5V-240h262.5H3075V-502.5z M3950-502.5V-765h-262.5H3425v262.5V-240h262.5H3950V-502.5z M4825-502.5V-765h-262.5H4300v262.5V-240h262.5H4825V-502.5z M5700-502.5V-765h-262.5H5175v262.5V-240h262.5H5700V-502.5z M6575-502.5V-765h-262.5H6050v262.5V-240h262.5H6575V-502.5z M7450-502.5V-765h-262.5H6925v262.5V-240h262.5H7450V-502.5z M8325-502.5V-765h-262.5H7800v262.5V-240h262.5H8325V-502.5z M9200-502.5V-765h-262.5H8675v262.5V-240h262.5H9200V-502.5z M8646.6-2569.7c157.5-794.1,288.8-1461.2,290.9-1480.9c0-37.2-201.3-39.4-3937.5-39.4c-3134.7,0-3937.5,6.6-3937.5,28.4c0,28.4,564.4,2874.4,579.7,2920.3c8.8,21.9,691.2,26.3,3362.2,21.9l3351.3-6.6L8646.6-2569.7z"/><path d="M3635,3063.1c-168.4-50.3-345.6-249.4-374.1-417.8c-32.8-194.7,63.4-400.3,242.8-520.6c238.4-157.5,538.1-87.5,706.6,164.1c113.8,175,115.9,367.5,0,540.3C4076.9,3032.5,3845,3124.4,3635,3063.1z M3906.2,2691.3c28.4-28.4,43.8-72.2,43.8-131.3c0-115.9-59.1-175-175-175c-115.9,0-175,59.1-175,175c0,59.1,15.3,102.8,43.8,131.3s72.2,43.8,131.3,43.8S3877.8,2719.7,3906.2,2691.3z"/></g></g>
</svg>