<?xml version="1.0" encoding="utf-8"?>
<!-- Svg Vector Icons : http://www.onlinewebfonts.com/icon -->
<!DOCTYPE svg PUBLIC "-//W3C//DTD SVG 1.1//EN" "http://www.w3.org/Graphics/SVG/1.1/DTD/svg11.dtd">
<svg version="1.1" xmlns="http://www.w3.org/2000/svg" xmlns:xlink="http://www.w3.org/1999/xlink" x="0px" y="0px" viewBox="0 0 1000 1000" enable-background="new 0 0 1000 1000" xml:space="preserve">
<metadata> Svg Vector Icons : http://www.onlinewebfonts.com/icon </metadata>
<g><g transform="translate(0.000000,511.000000) scale(0.100000,-0.100000)"><path d="M699.2,3441.6c-76.6-19.1-158.9-45.9-181.8-59.3c-111-57.4-227.8-160.8-290.9-254.6c-134-201-126.3-26.8-126.3-3083.5c0-2689.2,1.9-2758.1,38.3-2838.5c61.3-135.9,132.1-157,541.7-157c310.1,0,338.8-3.8,338.8-32.5c0-19.1,17.2-70.8,38.3-116.7c93.8-206.7,442.1-206.7,535.9,0c21.1,45.9,38.3,97.6,38.3,116.7c0,30.6,174.2,32.5,3368.7,32.5c3194.5,0,3368.7-1.9,3368.7-32.5c0-19.1,17.2-70.8,38.3-116.7c93.8-206.7,442.1-206.7,535.9,0c21.1,45.9,38.3,97.6,38.3,116.7c0,28.7,28.7,32.5,340.7,32.5c407.7,0,478.5,21,539.8,157c36.4,80.4,38.3,149.3,38.3,2838.5c0,3058.6,7.7,2882.5-126.3,3083.5c-86.1,128.2-241.2,243.1-407.7,300.5l-126.3,42.1l-4201.3,3.8C969,3478,833.1,3476.1,699.2,3441.6z M9140,2846.4c40.2-11.5,90-36.4,111-57.4c34.5-34.5,36.4-80.4,36.4-1663.3V-501.3H5000H712.6v1615.4c0,888.1,5.7,1630.8,13.4,1648c5.7,19.1,45.9,49.8,90,68.9c76.6,34.5,222,36.4,4164.9,36.4C7800.2,2867.4,9090.3,2861.7,9140,2846.4z M9287.4-1726.3v-612.5H5000H712.6v612.5v612.5H5000h4287.4V-1726.3z"/></g></g>
</svg>