<?xml version="1.0" encoding="utf-8"?>
<!-- Svg Vector Icons : http://www.onlinewebfonts.com/icon -->
<!DOCTYPE svg PUBLIC "-//W3C//DTD SVG 1.1//EN" "http://www.w3.org/Graphics/SVG/1.1/DTD/svg11.dtd">
<svg version="1.1" xmlns="http://www.w3.org/2000/svg" xmlns:xlink="http://www.w3.org/1999/xlink" x="0px" y="0px" viewBox="0 0 1000 1000" enable-background="new 0 0 1000 1000" xml:space="preserve">
<metadata> Svg Vector Icons : http://www.onlinewebfonts.com/icon </metadata>
<g><g transform="translate(0.000000,459.000000) scale(0.100000,-0.100000)"><path d="M1648.5,3927.2l-55.5-55.5v-292.9V3286l-61.3,59.3c-174.2,164.6-476.6,292.9-708.2,298.6c-124.4,3.8-135.9,0-179.9-49.8c-57.4-67-59.3-149.3-1.9-214.4c38.3-44,65.1-53.6,195.2-67c241.2-24.9,350.3-74.6,513-227.8c95.7-90,189.5-248.8,214.4-359.9l13.4-63.2h-210.5h-208.6l-40.2-95.7c-116.8-281.4-179.9-648.9-181.8-1052.7c-1.9-455.5,68.9-813.5,225.9-1144.6c47.9-99.5,86.1-183.7,86.1-187.6c0-3.8-258.4-7.7-574.2-7.7H100v-1827.9v-1827.9h187.6h185.7v-340.7v-338.8L415.8-4265c-30.6-55.5-88-137.8-126.3-181.8c-130.2-149.3-143.6-214.4-57.4-300.5c51.7-49.8,68.9-55.5,187.6-55.5c254.6,0,463.2,84.2,656.5,262.2c241.2,222,359.8,457.5,382.8,761.8c9.6,107.2,26.8,216.3,40.2,245l23,51.7H5000h3477.9l23-51.7c13.4-28.7,30.6-137.8,40.2-245c23-306.3,135.9-532.1,375.1-754.2c197.2-183.7,405.8-269.9,660.4-269.9c145.5,0,216.3,40.2,237.4,134c13.4,65.1-7.7,112.9-103.4,222c-38.3,44-95.7,126.3-126.3,181.8l-57.4,103.4v338.8v340.7h187.6H9900v1827.9V173.7h-497.7h-497.7v93.8c0,91.9,1.9,93.8,86.1,134c126.3,59.3,306.3,97.6,465.1,97.6c195.2,0,269.9,45.9,271.8,166.5c0,38.3-17.2,82.3-45.9,114.8l-45.9,53.6l-1165.7,5.7c-639.3,3.8-1269,1.9-1399.2-5.7c-266.1-15.3-304.3-32.5-323.5-147.4c-9.6-61.2-1.9-78.5,47.9-130.1c55.5-55.5,65.1-57.4,218.2-57.4c160.8,0,382.8-47.9,495.7-107.2c49.8-24.9,55.5-38.3,55.5-122.5v-95.7H6493H5421.1v162.7v162.7h162.7h162.7v497.7v497.7h-162.7h-162.7v335v335H4253.5H3085.9v-497.7V1171l168.4-5.8l166.5-5.7V996.8V834.1l-166.5-5.7l-168.4-5.7V499.1V173.7h-411.5h-411.5l74.6,149.3c86.1,172.3,158.9,390.5,206.7,627.8c47.9,237.3,47.9,861.3,0,1115.9c-36.4,187.6-114.8,453.6-158.9,543.6c-26.8,51.7-28.7,51.7-235.4,51.7h-208.6l19.1,72.7c34.4,124.4,134,290.9,223.9,371.3c114.8,101.4,287.1,181.8,421.1,197.1c195.2,21.1,231.6,30.6,269.9,70.8s49.8,134,26.8,197.1c-23,59.3-118.7,90-235.4,76.6c-241.2-26.8-415.4-99.5-622.1-258.4l-126.3-97.6v298.6c0,290.9-1.9,298.6-47.9,344.5C1805.4,4001.9,1721.2,3998,1648.5,3927.2z M2163.4,2246.7C2373.9,1527,2215,418.7,1872.4,210.1c-164.6-101.4-321.6,9.6-451.7,319.7c-179.9,432.6-204.8,1303.5-47.9,1764.7c5.7,17.2,101.4,23,388.5,23h380.9L2163.4,2246.7z M5076.6,1657.1v-162.7h-823h-823v162.7v162.7h823h823V1657.1z M5417.3,1002.5l5.7-158.9h-834.5h-832.6v162.7v162.7l828.8-3.8l826.9-5.7L5417.3,1002.5z M5076.6,336.4V173.7h-823h-823v162.7v162.7h823h823V336.4z M8606.1,466.6c-7.7-19.1-19.1-91.9-23-162.7l-7.7-130.1h-333h-333.1v95.7c0,53.6-13.4,126.3-26.8,162.7l-28.7,67h384.7C8596.5,499.1,8621.4,497.2,8606.1,466.6z M3258.2-907.7v-736.9h-746.5h-746.5v-86.1v-86.1h-390.5H984.3l-53.6-137.8C902-2031.3,791-2326,683.8-2611.2C547.9-2973,479-3129.9,456-3133.7c-28.7-5.7-30.6,111-30.6,1477.7v1485.3h1416.4h1416.4V-907.7z M6412.6-327.7l-5.7-158.9l-989.6-5.7l-991.5-3.8v-1320.7v-1320.7h-407.7h-409.6L3597-2031.3c-7.7,606.8-13.4,1274.8-13.4,1483.4v377.1H5000h1418.3L6412.6-327.7z M9570.8-825.4l-5.7-656.5l-1410.7-5.7l-1412.6-3.8v660.4v660.3h1416.4h1416.4L9570.8-825.4z M4904.3-1979.6v-1158h-76.6h-76.6v1158v1158h76.6h76.6V-1979.6z M5402-1979.6v-1158h-76.6h-76.6v1158v1158h76.6h76.6V-1979.6z M5913-1983.4l3.8-1154.2h-86.1h-84.2v1159.9v1158l82.3-5.8l80.4-5.7L5913-1983.4z M6397.3-1979.6v-1158h-76.6h-76.6v1158v1158h76.6h76.6V-1979.6z M9574.6-2477.2v-660.4H8158.2H6741.8v660.4v660.4h1416.4h1416.4V-2477.2z M2262.9-2563.4v-574.2h-86.1h-86.1v574.2v574.2h86.1h86.1V-2563.4z M2760.5-2563.4v-574.2h-86.1h-86.1v574.2v574.2h86.1h86.1V-2563.4z M3258.2-2563.4v-574.2h-86.1h-86.1v574.2v574.2h86.1h86.1V-2563.4z M1765.2-2592.1v-545.5h-210.5c-114.8,0-210.5,3.8-210.5,5.7c0,5.8,74.6,206.7,367.5,985.7c21,53.6,40.2,99.5,45.9,99.5C1761.4-2046.6,1765.2-2291.6,1765.2-2592.1z M1344.1-2165.2c-1.9-13.4-80.4-235.4-178-493.8L990-3128l-74.6-5.7c-55.5-5.7-70.8,0-65.1,19.1c197.1,532.1,350.3,930.2,365.6,949.4c9.6,11.5,42.1,23,72.7,23C1321.2-2142.3,1344.1-2151.8,1344.1-2165.2z M1162.3-3501.2c-7.7-11.5-19.1-112.9-28.7-227.8c-17.2-250.7-67-375.1-208.6-524.4c-99.5-103.4-225.9-193.3-206.7-145.5c78.5,193.3,95.7,294.8,84.2,532.1c-7.7,155-3.8,266,9.6,313.9l21,70.8h170.4C1114.5-3482.1,1170-3489.8,1162.3-3501.2z M9191.8-3568.2c15.3-55.5,19.1-122.5,9.6-195.2c-30.6-233.5-5.7-424.9,76.6-625.9c15.3-36.4,15.3-36.4-45.9,0c-101.4,59.3-248.8,227.8-304.3,346.5c-38.3,86.1-53.6,155-63.2,302.4c-7.7,105.3-19.1,206.7-26.8,225.8c-11.5,28.7,1.9,32.5,158.9,32.5h170.4L9191.8-3568.2z"/><path d="M7252.9-662.7c-7.7-5.7-13.4-84.2-13.4-172.3v-158.9l914.9,3.8l913,5.7v162.7v162.7l-901.5,5.7C7670.1-651.2,7258.6-655,7252.9-662.7z"/><path d="M7239.5-2477.2v-162.7h918.7H9077v162.7v162.7h-918.8h-918.7V-2477.2z"/></g></g>
</svg>