<?xml version="1.0" encoding="utf-8"?>
<!-- Svg Vector Icons : http://www.onlinewebfonts.com/icon -->
<!DOCTYPE svg PUBLIC "-//W3C//DTD SVG 1.1//EN" "http://www.w3.org/Graphics/SVG/1.1/DTD/svg11.dtd">
<svg version="1.1" xmlns="http://www.w3.org/2000/svg" xmlns:xlink="http://www.w3.org/1999/xlink" x="0px" y="0px" viewBox="0 0 1000 1000" enable-background="new 0 0 1000 1000" xml:space="preserve">
<metadata> Svg Vector Icons : http://www.onlinewebfonts.com/icon </metadata>
<g><g><g id="Ellipse_5_copy_2"><g><path d="M500,402c54.1,0,98-43.9,98-98c0-54.1-43.9-98-98-98c-54.1,0-98,43.9-98,98C402,358.1,445.9,402,500,402z M500,245.2c32.5,0,58.8,26.3,58.8,58.8c0,32.5-26.3,58.8-58.8,58.8c-32.5,0-58.8-26.3-58.8-58.8C441.2,271.5,467.5,245.2,500,245.2z M500,10C229.4,10,10,229.4,10,500c0,270.6,219.4,490,490,490c270.6,0,490-219.4,490-490C990,229.4,770.6,10,500,10z M500,950.8C251,950.8,49.2,749,49.2,500C49.2,251,251,49.2,500,49.2C749,49.2,950.8,251,950.8,500C950.8,749,749,950.8,500,950.8z M323.6,402c-54.1,0-98,43.9-98,98c0,54.1,43.9,98,98,98c54.1,0,98-43.9,98-98C421.6,445.9,377.7,402,323.6,402z M323.6,558.8c-32.5,0-58.8-26.3-58.8-58.8c0-32.5,26.3-58.8,58.8-58.8c32.5,0,58.8,26.3,58.8,58.8C382.4,532.5,356.1,558.8,323.6,558.8z M696,402c-54.1,0-98,43.9-98,98c0,54.1,43.9,98,98,98c54.1,0,98-43.9,98-98C794,445.9,750.1,402,696,402z M696,558.8c-32.5,0-58.8-26.3-58.8-58.8c0-32.5,26.3-58.8,58.8-58.8c32.5,0,58.8,26.3,58.8,58.8C754.8,532.5,728.5,558.8,696,558.8z M500,578.4c-54.1,0-98,43.9-98,98s43.9,98,98,98c54.1,0,98-43.9,98-98S554.1,578.4,500,578.4z M500,735.2c-32.5,0-58.8-26.3-58.8-58.8c0-32.5,26.3-58.8,58.8-58.8c32.5,0,58.8,26.3,58.8,58.8C558.8,708.9,532.5,735.2,500,735.2z"/></g></g></g><g></g><g></g><g></g><g></g><g></g><g></g><g></g><g></g><g></g><g></g><g></g><g></g><g></g><g></g><g></g></g>
</svg>