<?xml version="1.0" encoding="utf-8"?>
<!-- Svg Vector Icons : http://www.onlinewebfonts.com/icon -->
<!DOCTYPE svg PUBLIC "-//W3C//DTD SVG 1.1//EN" "http://www.w3.org/Graphics/SVG/1.1/DTD/svg11.dtd">
<svg version="1.1" xmlns="http://www.w3.org/2000/svg" xmlns:xlink="http://www.w3.org/1999/xlink" x="0px" y="0px" viewBox="0 0 1000 1000" enable-background="new 0 0 1000 1000" xml:space="preserve">
<metadata> Svg Vector Icons : http://www.onlinewebfonts.com/icon </metadata>
<g><g transform="translate(0.000000,486.000000) scale(0.100000,-0.100000)"><path d="M3247,4497.8c-811-115-1507-805.3-1650.8-1635.4c-38.3-212.8-32.6-362.4,47.9-1296.1c32.6-373.9,59.4-711.3,59.4-747.7v-67.1h-207.1c-157.2-1.9-237.7-11.5-349-46C664.4,557.7,300.1,193.4,146.7-293.6c-61.3-201.3-63.3-556,0-772.6c76.7-268.4,176.4-439.1,416.1-703.7c339.4-375.8,552.2-789.9,634.6-1221.3c15.3-88.2,36.4-297.2,44.1-462.1c11.5-268.4,19.2-312.5,63.3-410.3c95.9-207.1,329.8-396.9,525.3-429.5c69-9.6,80.5-21.1,118.9-103.5c136.1-297.2,533-467.8,876.2-375.8c218.6,57.5,396.9,195.5,479.3,368.1l49.9,103.5h1646.9h1647l49.8-103.5c82.4-172.6,260.7-310.6,479.3-368.1c343.2-92.1,740.1,78.6,876.2,375.8c38.3,84.4,49.8,94,153.4,124.6c126.5,38.3,304.8,159.2,381.5,260.7c26.8,36.4,74.8,113.1,103.5,170.7c49.8,95.9,55.6,132.3,69,400.7c9.6,163,28.8,366.2,46,452.5c82.4,441,285.7,826.4,667.2,1261.6c312.5,354.7,423.7,628.9,425.6,1048.7c0,199.4-7.7,264.6-44.1,383.5c-153.4,487-517.7,851.3-1000.8,998.9c-111.2,34.5-191.7,44.1-348.9,46c-193.7,0-207.1,1.9-207.1,38.3c0,32.6,97.8,1021.9,147.6,1485.9c34.5,327.9,3.8,621.2-94,901.1c-203.2,579-678.7,1050.7-1255.8,1244.3c-283.8,95.9-335.5,97.8-2093.7,95.9C4100.2,4515,3310.3,4507.4,3247,4497.8z M6928.2,4139.2c672.9-187.9,1115.9-699.8,1198.3-1380.4c19.2-149.6,11.5-262.7-65.2-1048.8c-47.9-485.1-92-918.4-97.8-962.5c-11.5-78.6-17.3-84.4-143.8-151.5c-178.3-92-370-256.9-492.8-419.9C7206.2,17.1,7043.2-305,7010.6-441.2l-21.1-101.6H5001.3H3013.1L2992-441.2c-32.6,138-197.5,460.1-318.3,619.3c-124.6,163-314.4,325.9-490.8,418c-74.8,40.3-134.2,76.7-134.2,82.4c0,7.7-32.6,375.8-70.9,818.7c-86.3,974-92,1296.1-28.8,1512.7c141.9,494.7,496.6,887.7,964.4,1067.9c293.3,113.1,285.7,113.1,2155,109.3C6772.9,4183.3,6774.8,4183.3,6928.2,4139.2z M1770.7,406.3c201.3-51.8,391.1-157.2,529.2-295.3c182.1-184.1,324-464,324-642.3c0-53.7-9.6-63.3-92-95.9c-55.6-23-140-86.3-220.5-166.8c-220.5-220.5-272.3-393-258.8-878.1c5.7-266.5,9.6-283.8,63.3-383.5c30.7-55.6,92-130.4,136.1-166.8c159.1-130.4-19.2-122.7,2745.6-122.7c1804.2,0,2521.2,5.8,2573,21.1c122.7,36.4,251.2,149.6,316.3,274.2c53.7,107.4,57.5,128.5,63.3,385.4c9.6,320.2-13.4,494.7-84.4,640.4c-67.1,138-276.1,347-396.9,396.9c-78.6,32.6-90.1,44.1-90.1,93.9c1.9,287.6,283.8,690.2,594.4,839.8c210.9,103.5,358.5,136.1,556,122.7c306.8-23,527.2-120.8,730.5-322.1C9535.7-167,9645-583.1,9545.3-972.3c-51.8-203.3-111.2-302.9-320.2-542.6c-316.4-362.4-521.5-705.6-648-1087.1c-92-278-126.5-464-138-768.8c-3.8-147.6-17.2-297.2-28.8-331.7c-26.8-88.2-124.6-193.7-216.6-235.8c-72.9-34.5-220.5-36.4-3211.5-36.4c-3038.9,0-3136.7,1.9-3215.3,36.4c-49.8,23-99.7,67.1-134.2,118.8c-49.8,76.7-53.7,94-65.2,389.2c-32.6,755.4-262.7,1313.3-782.3,1905.8c-268.4,304.9-341.3,460.1-360.5,761.1C396-259,674,189.6,1120.7,358.3C1327.8,435,1582.8,454.2,1770.7,406.3z M7373-928.2c46-21.1,107.4-70.9,138-107.4c88.2-107.4,107.4-207.1,107.4-567.5v-324l-53.7-46l-53.7-46H5001.3H2491.6l-53.7,46l-53.7,46v352.8c1.9,327.9,3.8,356.6,46,442.9c47.9,95.9,128.5,176.4,222.4,216.7c46,21.1,502.3,24.9,2346.8,26.8C7284.8-887.9,7290.6-887.9,7373-928.2z M2974.7-4348.6c-19.2-53.7-163-111.2-295.3-120.8c-153.4-11.5-316.4,32.6-381.5,101.6l-44.1,47.9H2620C2942.1-4319.9,2986.2-4323.7,2974.7-4348.6z M7704.7-4367.8c-67.1-70.9-228.2-113.1-385.4-99.7c-134.2,11.5-272.3,67.1-291.4,118.9c-11.5,24.9,32.6,28.8,354.7,28.8h366.2L7704.7-4367.8z"/><path d="M3254.7,2507.6c-86.3-88.2-76.7-155.3,42.2-279.9l97.8-103.5l-24.9-105.5c-17.3-82.4-17.3-130.4,0-222.4l23-118.9l-95.9-101.6c-109.3-115-124.6-182.1-59.4-264.6c59.4-76.7,141.9-84.4,228.2-24.9c40.3,28.8,95.9,74.8,126.5,105.4c44.1,47.9,59.4,53.7,99.7,38.3c59.4-23,278-23,337.4,0c40.3,15.3,57.5,5.8,138.1-74.8c51.8-51.8,117-99.7,145.7-105.4c128.5-28.8,243.5,118.9,182.1,233.9c-15.3,28.8-61.4,86.3-103.5,128.5c-70.9,67.1-74.8,78.6-59.4,132.3c9.6,34.5,17.3,103.5,17.3,157.2s-7.7,122.7-17.3,157.2c-15.3,53.7-9.6,65.2,57.5,132.3c105.4,103.5,141.9,187.9,111.2,258.8c-28.8,70.9-86.3,113.1-157.2,113.1c-40.3,0-84.4-28.8-164.9-105.4c-61.4-57.5-115-101.6-120.8-95.9c-28.8,28.8-216.7,44.1-314.4,26.8l-109.3-21.1l-78.6,76.7C3415.7,2580.5,3342.9,2595.8,3254.7,2507.6z M3927.6,2074.3c132.3-69,153.4-195.6,47.9-297.2c-92-88.2-166.8-88.2-253.1,5.7c-84.4,94-82.4,151.5,11.5,245.4C3814.5,2110.7,3845.2,2116.5,3927.6,2074.3z"/><path d="M5896.7,2542.1c-21.1-11.5-47.9-49.8-63.3-86.3c-34.5-84.4-13.4-138,97.8-243.5c82.4-76.7,86.3-82.5,67.1-147.6c-24.9-86.3-24.9-251.2,0-318.3c19.2-47.9,13.4-59.4-65.2-140c-47.9-47.9-93.9-111.2-105.4-140c-44.1-115,67.1-243.5,187.9-216.7c28.8,5.7,93.9,53.7,145.7,105.4c80.5,80.5,97.8,90.1,138.1,74.8c63.3-23,278-23,343.2,1.9c46,19.2,59.4,11.5,164.9-88.2c101.6-97.8,118.9-107.4,174.5-95.9c78.6,15.3,147.6,92,147.6,166.8c0,44.1-24.9,84.4-97.8,161.1l-97.8,103.5l24.9,107.4c19.2,88.2,19.2,132.3,0,224.3l-23,115l95.9,101.6c118.9,124.6,128.4,193.7,42.2,279.9c-88.2,88.2-161,72.9-301-63.3l-78.6-74.8l-122.7,21.1c-95.9,15.3-143.8,13.4-218.6-5.7l-95.9-24.9l-109.3,101.6C6036.7,2567.1,5973.4,2586.2,5896.7,2542.1z M6594.6,2028.3c94-93.9,95.9-151.5,11.5-245.4c-86.3-93.9-161.1-93.9-253.1-5.7c-82.4,78.6-90.1,161-23,233.9C6435.4,2124.2,6494.9,2128,6594.6,2028.3z"/></g></g>
</svg>