<?xml version="1.0" encoding="utf-8"?>
<!-- Svg Vector Icons : http://www.onlinewebfonts.com/icon -->
<!DOCTYPE svg PUBLIC "-//W3C//DTD SVG 1.1//EN" "http://www.w3.org/Graphics/SVG/1.1/DTD/svg11.dtd">
<svg version="1.1" xmlns="http://www.w3.org/2000/svg" xmlns:xlink="http://www.w3.org/1999/xlink" x="0px" y="0px" viewBox="0 0 1000 1000" enable-background="new 0 0 1000 1000" xml:space="preserve">
<metadata> Svg Vector Icons : http://www.onlinewebfonts.com/icon </metadata>
<g><g transform="translate(0.000000,358.000000) scale(0.100000,-0.100000)"><path d="M923,1533.4v-474.7L980.5,940c67-143.6,197.1-275.6,327.3-335l93.8-44V59.6v-503.4h-112.9h-112.9l-13.4-70.8c-23-128.2-97.6-260.3-227.8-405.8c-141.6-158.9-197.1-290.9-176.1-424.9l11.5-74.6h-266c-287.1,0-348.4-13.4-382.8-90c-13.4-30.6-21.1-227.8-21.1-576.1c1.9-662.3-17.2-622.1,281.4-635.5l206.7-9.6l9.6-1020.2l9.6-1022.1l45.9-36.3c40.2-32.5,78.5-36.4,340.7-36.4c300.5,0,352.2,9.6,388.5,74.7c13.4,26.8,325.4,1977.2,325.4,2040.4c0,5.7,1481.5,9.6,3292.2,9.6c1810.7,0,3292.2-3.8,3292.2-9.6c0-63.2,312-2013.6,325.4-2040.4c36.4-65.1,88-74.7,388.5-74.7c262.2,0,300.5,3.8,340.7,36.4l45.9,36.3l9.6,1022.1l9.6,1020.2l172.3,3.8c331.1,9.6,315.8-23,315.8,666.1v530.2l-55.5,55.5l-55.5,55.5h-518.7h-518.7v86.1c0,67,9.6,91.9,44,114.8c99.5,63.2,273.7,109.1,478.5,120.6c197.1,13.4,210.5,17.2,254.6,67c49.8,59.3,57.4,109.1,23,172.3c-47.9,91.9-5.7,88-1445.1,90H6743.6l-51.7-45.9c-68.9-57.4-74.7-164.6-11.5-227.8c38.3-36.4,70.8-44,248.8-53.6c210.5-13.4,421.1-67,488.1-126.3c21.1-21,32.5-59.3,32.5-114.8v-82.3H6387.6H5325.3v162.7v162.7H5488h162.7v488.1v488.1H5488h-162.7v325.4v325.4H4186.5H3047.6V44.2v-488.1h162.7H3373v-162.7v-162.7h-162.7h-162.7v-325.4V-1420h-306.2h-306.3l11.5,74.6c21.1,134-34.5,266-176.1,424.9c-130.1,145.5-204.8,277.5-227.8,405.8l-13.4,70.8h-116.8h-116.8l214.4,216.3c223.9,227.8,239.3,254.6,185.7,356c-30.6,61.3-63.2,78.5-147.4,78.5c-44,0-86.1-26.8-189.5-128.2L1726.9-47.6v256.5c0,141.6,5.7,315.8,13.4,386.6l11.5,130.2l93.8,47.8c128.2,65.1,246.9,187.6,313.9,325.4c49.8,103.4,55.5,134,63.2,348.3l5.7,233.5h-250.7h-250.7v162.7v162.7H1325H923V1533.4z M1401.5,1297.9c0-210.5-7.7-382.8-15.3-382.8c-26.8,0-95.7,82.3-116.8,139.7c-11.5,30.6-21.1,183.8-21.1,340.7v285.2h76.6h76.6V1297.9z M1899.2,1332.4c0-68.9-44-166.5-95.7-216.3l-57.4-55.5V1208v147.4h76.6C1870.5,1355.4,1899.2,1345.8,1899.2,1332.4z M4999.9,44.2v-162.7h-813.5H3373V44.2v162.7h813.5h813.5V44.2z M5325.3-606.5v-162.7h-813.5h-813.5v162.7v162.7h813.5h813.5V-606.5z M1837.9-884.1c34.5-63.2,114.8-170.3,179.9-239.3c107.2-114.8,114.8-128.2,103.4-191.4c-7.7-36.4-28.7-74.6-49.8-86.1c-21.1-11.5-212.5-19.1-468.9-19.1s-447.9,7.7-468.9,19.1c-21.1,11.5-42.1,49.8-49.8,86.1c-11.5,63.2-3.8,76.6,103.4,191.4c65.1,68.9,145.5,176.1,179.9,239.3l63.2,114.8h172.3h172.3L1837.9-884.1z M4999.9-1257.3V-1420h-813.5H3373v162.7v162.7h813.5h813.5V-1257.3z M8452.9-1161.6c-13.4-36.4-26.8-109.1-26.8-162.7v-95.7h-325.4h-325.4v105.3c0,59.3-13.4,132.1-28.7,162.7l-30.6,57.4h382.8h382.8L8452.9-1161.6z M9574.5-2070.8v-325.4H4999.9H425.4v325.4v325.4h4574.6h4574.6V-2070.8z M1369-2735c3.8-9.6-53.6-411.5-128.2-895.8l-135.9-880.4l-91.9-5.7l-90-5.7v899.6v901.5h218.2C1261.8-2721.5,1365.2-2727.3,1369-2735z M9076.9-3623.1v-899.6l-90,5.7l-90,5.7l-139.7,890c-76.6,490-137.8,891.9-139.7,895.8c0,1.9,103.4,3.8,229.7,3.8h229.7V-3623.1z"/></g></g>
</svg>