<?xml version="1.0" encoding="utf-8"?>
<!-- Svg Vector Icons : http://www.onlinewebfonts.com/icon -->
<!DOCTYPE svg PUBLIC "-//W3C//DTD SVG 1.1//EN" "http://www.w3.org/Graphics/SVG/1.1/DTD/svg11.dtd">
<svg version="1.1" xmlns="http://www.w3.org/2000/svg" xmlns:xlink="http://www.w3.org/1999/xlink" x="0px" y="0px" viewBox="0 0 1000 1000" enable-background="new 0 0 1000 1000" xml:space="preserve">
<metadata> Svg Vector Icons : http://www.onlinewebfonts.com/icon </metadata>
<g><g transform="translate(0.000000,512.000000) scale(0.100000,-0.100000)"><path d="M100,120v-4900h4900h4900v1349.4v1347.5l-166.5,5.7l-168.4,5.7l-5.7,847.9l-3.8,846h-335h-335V-215v162.7h-507.2h-507.2V-215v-162.7h-172.3h-172.3v335v335h-237.4h-237.3l1.9,91.9c5.7,158.9-38.3,260.3-174.2,411.5c-130.1,143.6-222,310.1-243.1,436.4l-13.4,74.6h-132.1c-130.2,0-132.1,0-132.1,51.7c0,40.2,53.6,105.3,248.8,302.4c216.3,218.2,248.8,260.3,248.8,313.9c0,44-17.2,80.4-57.4,120.6c-90,88-166.5,68.9-319.6-84.2L6359,1892.4v223.9v224l86.1,40.2c128.2,61.2,262.2,191.4,336.9,327.3c63.2,116.7,65.1,128.2,70.8,375.1l7.7,252.7h-250.8H6359v248.8v248.8h-432.6h-432.6l7.7-482.3l5.7-484.3l61.3-128.2c72.7-153.1,195.2-279.4,340.7-352.2l105.3-49.8v-514.9v-514.9h-134h-132.1l-21-80.4c-36.4-147.4-103.4-268-214.4-392.4c-155-170.3-195.2-254.6-195.2-411.5l-1.9-130.2H5245h-72.7v1177.1v1177.1h-386.6l-388.5,1.9l120.6,57.4c336.9,162.7,409.6,549.3,151.2,807.7c-107.2,107.2-206.7,147.4-371.3,147.4h-139.7v86.1v86.1h-593.4h-593.4V3238v-593.4l-80.4,5.7l-82.3,5.7l-5.7,1182.9l-3.8,1181H1449.4H100V120z M2473.4,3670.6V2665.7H1459H444.5v1004.9v1004.9H1459h1014.5V3670.6z M3813.3,3086.8v-421.1h-248.8h-248.8v421.1v421.1h248.8h248.8V3086.8z M6014.5,3105.9c0-220.1-7.7-402-15.3-402c-32.5,0-120.6,111-137.8,174.2c-21,72.7-26.8,597.2-5.7,616.3c5.7,7.7,45.9,13.4,86.1,13.4h72.7V3105.9z M4444.9,3285.9c40.2-40.2,53.6-137.8,30.6-210.5c-17.2-55.5-90-84.2-212.5-84.2h-105.3v174.2v174.2l124.4-7.7C4374.1,3326.1,4418.1,3314.6,4444.9,3285.9z M6512.1,2945.2c0-90-86.1-241.2-137.8-241.2c-7.6,0-15.3,65.1-15.3,143.6v143.6h76.6C6504.4,2991.1,6512.1,2985.4,6512.1,2945.2z M2454.3,1306.7V292.3h-248.8h-248.8v756.1v756.1l-415.4,1.9c-229.7,0-570.4,0-756.1,0H444.5v256.5v258.4h1004.9h1004.9V1306.7z M4827.7,1306.7V292.3H3813.3H2798.8v1001c0,551.3,5.7,1008.7,13.4,1014.5c5.7,7.7,463.2,13.4,1014.5,13.4h1001V1306.7z M597.7,885.6V292.3h-76.6h-76.6v593.4V1479h76.6h76.6V885.6z M1114.5,885.6V292.3h-86.1h-86.1v580c0,319.7,5.7,587.6,13.4,593.4c5.7,7.7,45.9,13.4,86.1,13.4h72.7V885.6z M1612.1,885.6V292.3h-76.6H1459v593.4V1479h76.6h76.6V885.6z M6378.1,939.2c0-42.1,141.7-248.8,245-361.8c105.3-114.8,120.6-168.4,68.9-243.1c-28.7-42.1-34.5-42.1-503.4-42.1c-520.6,0-516.8,0-545.5,118.7c-9.6,45.9,3.8,70.8,112.9,189.5c68.9,74.6,153.1,185.7,187.6,248.8l61.3,112.9h187.6C6328.4,962.2,6378.1,956.5,6378.1,939.2z M2454.3-1066.7v-1014.5H1449.4H444.5v1014.5V-52.3h1004.9h1004.9V-1066.7z M4827.7-1066.7v-1014.5l-1008.7,3.8l-1010.6,5.7l-5.7,1010.6l-3.8,1008.7h1014.5h1014.5V-1066.7z M7197.3-1061l-5.7-1010.6l-1008.7-5.7l-1010.6-3.8v1014.5V-52.3h1014.5h1014.5L7197.3-1061z M8541-1229.4v-851.8h-162.7h-162.7v851.8v851.8h162.7H8541V-1229.4z M7871.1-1401.7v-679.5h-162.7h-162.7v679.5v679.5h162.7h162.7V-1401.7z M9226.2-1395.9l-5.7-675.7l-166.5-5.7l-168.4-5.7v681.4v679.5h172.3h172.3L9226.2-1395.9z M2454.3-3430.6v-1004.9H1449.4H444.5v1004.9v1004.9h1004.9h1004.9V-3430.6z M4827.7-3430.6v-1004.9h-82.3h-82.3l3.8,348.4c1.9,193.3,0,534-5.7,758l-11.5,405.8h-840.3h-838.4v-756.1v-756.1H2885h-86.1v1004.9v1004.9h1014.5h1014.5V-3430.6z M7201.2-3430.6v-1004.9H6186.7H5172.3v1004.9v1004.9h1014.5h1014.5V-3430.6z M9555.5-3430.6v-1004.9H8550.6H7545.7v1004.9v1004.9h1004.9h1004.9V-3430.6z M4330.1-3344.5v-76.6h-507.2h-507.2v76.6v76.6h507.2h507.2V-3344.5z M4326.2-3845.9l-5.7-82.3L3819-3934l-503.4-3.8v86.1v86.1h509.1H4332L4326.2-3845.9z M4330.1-4358.9v-76.6h-507.2h-507.2v76.6v76.6h507.2h507.2V-4358.9z"/><path d="M3499.4,4865c-26.8-32.5-49.8-74.6-49.8-95.7c0-47.9,34.4-116.8,70.8-137.8c19.1-11.5,3.8-30.6-53.6-76.6c-120.6-91.9-160.8-157-160.8-252.7c0-97.6,40.2-160.8,160.8-252.7c111-86.1,208.6-86.1,277.5-3.8c61.3,72.7,63.2,134,5.7,201l-45.9,51.7l76.6,59.3c114.8,88,157,155,157,246.9c0,95.7-55.5,181.8-168.4,264.1C3662.1,4945.4,3566.4,4945.4,3499.4,4865z"/></g></g>
</svg>