<?xml version="1.0" encoding="utf-8"?>
<!-- Svg Vector Icons : http://www.onlinewebfonts.com/icon -->
<!DOCTYPE svg PUBLIC "-//W3C//DTD SVG 1.1//EN" "http://www.w3.org/Graphics/SVG/1.1/DTD/svg11.dtd">
<svg version="1.1" xmlns="http://www.w3.org/2000/svg" xmlns:xlink="http://www.w3.org/1999/xlink" x="0px" y="0px" viewBox="0 0 1000 1000" enable-background="new 0 0 1000 1000" xml:space="preserve">
<metadata> Svg Vector Icons : http://www.onlinewebfonts.com/icon </metadata>
<g><g transform="translate(0.000000,512.000000) scale(0.100000,-0.100000)"><path d="M155.5,4964.5L100,4909V120v-4789l55.5-55.5L211-4780h298.6c285.2,0,298.6,1.9,350.3,45.9c51.7,44,53.6,53.6,59.3,248.8l7.7,202.9H5000h4073.1l7.7-202.9c5.7-195.2,7.6-204.8,59.3-248.8c51.7-44,65.1-45.9,350.3-45.9H9789l55.5,55.5l55.5,55.5V120v4789l-55.5,55.5L9789,5020H5000H211L155.5,4964.5z M9574.6,120v-4574.6h-86.1h-88l3.8,187.6c3.8,201-11.5,252.7-91.9,289c-32.5,15.3-1320.7,21-4314.3,21c-3780.3,0-4274.1-3.8-4323.9-28.7c-67-34.5-74.6-61.3-82.3-287.1l-3.8-172.3l-80.4-5.7l-82.3-5.7V118.1v4576.5H5000h4574.6V120z"/><path d="M680,4350.1c-23-9.6-51.7-34.4-61.2-55.5c-23-42.1-32.5-7952.9-9.6-8010.4c34.5-91.9-176.1-88,4390.9-88c4563.1,0,4356.4-3.8,4390.9,88c22.9,57.4,15.3,7966.3-7.7,8010.4c-11.5,21.1-42.1,45.9-68.9,55.5C9251.1,4375,739.3,4373.1,680,4350.1z M4827.7,2905V1766.1H2875.4H923V2905v1138.9h1952.3h1952.3V2905z M9077,2905V1766.1H7124.6H5172.3V2905v1138.9h1952.3H9077V2905z M4827.7,282.7V-856.2H2875.4H923V282.7v1138.9h1952.3h1952.3V282.7z M9077,282.7V-856.2H7124.6H5172.3V282.7v1138.9h1952.3H9077V282.7z M4827.7-2330v-1148.4H2875.4H923V-2330v1148.4h1952.3h1952.3V-2330z M9077-2330v-1148.4H7124.6H5172.3V-2330v1148.4h1952.3H9077V-2330z"/></g></g>
</svg>