<?xml version="1.0" encoding="utf-8"?>
<!-- Svg Vector Icons : http://www.onlinewebfonts.com/icon -->
<!DOCTYPE svg PUBLIC "-//W3C//DTD SVG 1.1//EN" "http://www.w3.org/Graphics/SVG/1.1/DTD/svg11.dtd">
<svg version="1.1" xmlns="http://www.w3.org/2000/svg" xmlns:xlink="http://www.w3.org/1999/xlink" x="0px" y="0px" viewBox="0 0 1000 1000" enable-background="new 0 0 1000 1000" xml:space="preserve">
<metadata> Svg Vector Icons : http://www.onlinewebfonts.com/icon </metadata>
<g><g transform="translate(0.000000,511.000000) scale(0.100000,-0.100000)"><path d="M520.6,4008.3c-130.1-41.2-275.3-173.4-349.1-318.7L100,3553V114.3v-3440.8l52-110.6c65-140.9,184.3-260.2,325.2-325.2l110.6-52h4414.3h4412.2l112.7,56.4c149.6,73.7,299.2,242.8,340.4,383.8c28.2,95.4,32.5,539.9,32.5,3495c0,3039.7-4.3,3395.3-34.7,3486.4c-45.5,134.4-208.2,312.2-344.7,375.1l-108.4,52l-4412.2-2.2C2101.2,4030,564,4023.5,520.6,4008.3z M9425.2,3644.1c110.6-60.7,106.3,114.9,106.3-3523.2c0-3675,6.5-3497.2-119.2-3544.9c-36.9-15.2-1424.5-21.7-3952.5-21.7H1563.5L2795-2214.3L4024.3-984.9l-130.1,130.1l-130.1,130.1L2402.6-2086.3L1043.1-3445.8H819.8c-219,0-225.5,2.2-288.4,62.9c-47.7,47.7-62.9,84.6-62.9,147.4c0,80.2,28.2,110.6,943.1,1025.5l943.1,943.1l-130.1,130.1l-130.1,130.1l-813.1-813.1l-813.1-813V452.6V3540l62.9,62.9l62.9,62.9h4394.8C7961.7,3665.8,9397,3659.2,9425.2,3644.1z"/><path d="M5151.8,1768.6L4317,933.9l130.1-130.1l130.1-130.1l834.7,834.7l834.7,834.7l-130.1,130.1l-130.1,130.1L5151.8,1768.6z"/><path d="M6120.9,1350.2l-1251-1251L5000-30.9L5130.1-161l1253.2,1253.2l1251,1251l-130.1,130.1l-130.1,130.1L6120.9,1350.2z"/><path d="M7226.7,1068.3L6539.4,381l130.1-130.1l130.1-130.1l693.8,693.8l693.8,693.8L8063.6,1632c-69.4,69.4-130.1,125.7-136.6,125.7S7606.1,1447.7,7226.7,1068.3z"/><path d="M4451.5-1706.9l-687.3-687.3l130.1-130.1l130.1-130.1l693.8,693.8l693.8,693.8l-123.6,123.6c-69.4,69.4-130.1,125.8-136.6,125.8C5145.3-1017.4,4830.9-1327.5,4451.5-1706.9z"/></g></g>
</svg>