<?xml version="1.0" encoding="utf-8"?>
<!-- Svg Vector Icons : http://www.onlinewebfonts.com/icon -->
<!DOCTYPE svg PUBLIC "-//W3C//DTD SVG 1.1//EN" "http://www.w3.org/Graphics/SVG/1.1/DTD/svg11.dtd">
<svg version="1.1" xmlns="http://www.w3.org/2000/svg" xmlns:xlink="http://www.w3.org/1999/xlink" x="0px" y="0px" viewBox="0 0 1000 1000" enable-background="new 0 0 1000 1000" xml:space="preserve">
<metadata> Svg Vector Icons : http://www.onlinewebfonts.com/icon </metadata>
<g><g transform="translate(0.000000,512.000000) scale(0.100000,-0.100000)"><path d="M2439,4977.3l-53.6-46l-5.7-1654.8c-3.8-1151,0-1673.9,15.3-1723.7c40.2-139.8-164.7-130.2,2767.5-130.2c2932.2,0,2727.3-9.6,2767.5,130.2c15.3,49.8,19.2,574.6,15.3,1723.7l-5.7,1654.8l-53.6,46l-53.6,46H5162.5H2492.7L2439,4977.3z M7614,3222.9V1757.7l-2445.8-5.7l-2447.7-3.8v1474.7v1474.7l2447.7-3.8L7614,4688V3222.9z"/><path d="M2921.7,4477.4l-47.9-46V3242.1c0-1221.9,1.9-1241.1,74.7-1296.6c44.1-34.5,4384-34.5,4428,0c72.8,55.6,74.7,74.7,74.7,1296.6v1189.4l-47.9,46l-46,47.9H5162.5H2967.6L2921.7,4477.4z M7125.6,3874.1v-325.6h-109.2c-442.4,0-1463.2-164.7-2309.8-371.6l-348.6-86.2l-306.4,122.6c-168.5,69-429,164.7-578.4,212.6l-273.9,90v340.9v342.8h1963.1h1963.1V3874.1z M7125.6,2734.5v-488.4h-699.1h-701l-151.3,122.6c-180,147.5-371.5,277.7-591.8,404.1l-162.8,93.8l95.8,24.9c51.7,13.4,304.5,67,563.1,120.7c618.6,124.5,1179.8,201.1,1518.8,208.8l128.3,1.9V2734.5z M3454.1,3088.8c647.4-222.2,1373.2-566.9,1677.7-792.9l67-49.8h-999.7h-999.8v459.7c0,254.7,7.7,459.7,17.2,459.7S3333.4,3131,3454.1,3088.8z"/><path d="M1868.3,903.5c-616.7-90-1156.8-467.3-1409.6-984.4C299.7-404.6,284.4-496.5,271-1105.5l-11.5-526.7l-59.4-124.5c-130.2-268.1-134.1-576.5-7.7-821.6l36.4-74.7l-57.5-114.9c-178.1-358.2-7.7-787.2,385-969.1c57.5-26.8,124.5-49.8,149.4-49.8h42.1v-442.4v-442.4l55.5-55.5c55.5-55.5,59.4-55.5,275.8-55.5c181.9,0,227.9,5.7,260.5,32.6c28.7,23,88.1,176.2,189.6,484.6l151.3,450.1l3397.6,5.7l3397.6,3.8l149.4-450.1c118.8-358.2,160.9-457.8,199.2-488.4c42.1-32.6,78.5-38.3,264.3-38.3c325.6,0,304.5-36.4,316,547.7l9.6,475l76.6,44.1c151.3,84.3,252.8,191.5,329.4,344.7l72.8,147.5l5.7,890.6c3.8,599.5-1.9,923.1-15.3,992.1c-68.9,327.5-352.4,637.8-695.2,758.4c-44,15.3-668.4,24.9-2158.5,34.5C4722-536.7,4789-540.5,4524.7-416c-170.5,78.5-245.2,143.7-467.3,400.3c-243.2,281.5-365.8,396.5-574.6,538.2C3007.8,844.2,2418,984,1868.3,903.5z M2653.5,564.6c270-76.6,440.5-155.1,651.2-306.4c164.7-118.8,277.7-226,490.3-473.1c302.6-348.6,448.2-463.5,699.1-545.8c308.3-103.4,264.3-101.5,2516.6-113l2097.2-11.5l99.6-46c118.8-53.6,258.6-195.3,317.9-321.8c38.3-86.2,42.1-122.6,47.9-651.2l5.7-559.2l-120.7,61.3l-120.7,61.3l-3638.9,5.7l-3640.8,3.8v159c-1.9,442.4-321.8,844.6-764.2,961.5c-195.4,49.8-444.3,23-622.5-67l-76.6-38.3v310.3c0,363.9,36.4,551.6,145.6,773.7c197.3,400.3,630.1,712.5,1137.6,821.6C2052.1,627.8,2475.4,614.4,2653.5,564.6z M1330.1-1565.2c222.2-84.3,367.7-283.4,388.8-536.3c5.7-70.9,5.7-151.3-1.9-178.1l-11.5-49.8l-522.9-5.7c-490.3-5.7-526.7-7.6-612.9-47.9l-91.9-42.1l-21.1,51.7c-30.6,70.9-30.6,342.8,0,430.9c55.6,155.1,233.7,327.5,400.3,388.8C970-1513.5,1205.6-1519.2,1330.1-1565.2z M9358.7-2712.4c107.3-49.8,176.2-145.5,203-281.5c34.5-189.6-42.1-356.2-203-444.3c-55.5-30.7-350.5-32.6-4272.9-38.3c-2317.4-3.8-4257.5,0-4311.2,5.7c-195.3,23-325.6,160.9-346.7,362c-19.2,187.7,47.9,298.8,233.7,386.9l95.8,46h4261.4C9140.4-2676,9282.1-2677.9,9358.7-2712.4z M1322.4-3829c0-61.3-203-628.2-224.1-628.2c-19.2,0-24.9,72.8-24.9,312.2c0,172.4,5.7,319.9,13.4,325.6C1109.8-3794.5,1322.4-3804.1,1322.4-3829z M9079.1-4133.5c0-243.2-5.7-325.6-23-319.8c-19.2,7.6-226,586.1-226,632c0,9.6,55.6,15.3,124.5,15.3h124.5V-4133.5z"/></g></g>
</svg>