<?xml version="1.0" encoding="utf-8"?>
<!-- Svg Vector Icons : http://www.onlinewebfonts.com/icon -->
<!DOCTYPE svg PUBLIC "-//W3C//DTD SVG 1.1//EN" "http://www.w3.org/Graphics/SVG/1.1/DTD/svg11.dtd">
<svg version="1.1" xmlns="http://www.w3.org/2000/svg" xmlns:xlink="http://www.w3.org/1999/xlink" x="0px" y="0px" viewBox="0 0 1000 1000" enable-background="new 0 0 1000 1000" xml:space="preserve">
<metadata> Svg Vector Icons : http://www.onlinewebfonts.com/icon </metadata>
<g><g transform="translate(0.000000,511.000000) scale(0.100000,-0.100000)"><path d="M5807.6,4983.5c-539.7-86.3-1099-304.2-1558.3-606.4c-107.9-72.6-204.1-129.5-215.9-129.5s-111.9,41.2-221.8,90.3c-190.4,84.4-210,90.3-341.5,80.5c-115.8-5.9-162.9-19.6-264.9-78.5c-333.6-186.4-692.8-602.5-1087.3-1261.9C1327.1,1761,714.8,35.9,714.8-870.8c0-359.1,58.9-571.1,190.4-694.8c35.3-33.4,1104.9-512.2,2949.7-1322.7C6402.3-4005,6763.4-4158.1,6867.4-4165.9C7699.5-4228.7,9073.3-2221,9595.4-178c115.8,453.3,155,728.1,155,1089.2c0,349.3-25.5,502.4-115.8,700.6c-90.3,200.2-159,245.3-755.6,504.4c-296.3,127.6-541.7,235.5-545.6,237.5c-2,2,11.8,72.6,29.4,159c55,243.3,49.1,804.6-9.8,1036.2c-200.2,790.9-755.6,1289.4-1601.5,1434.6C6539.7,5018.8,6033.3,5018.8,5807.6,4983.5z M6761.4,4581.2c219.8-47.1,382.7-117.8,580.9-247.3c423.9-280.6,673.2-779.1,673.2-1344.3c0-168.8-29.4-441.6-49.1-465.1c-3.9-3.9-755.6,321.9-1672.1,724.2c-914.5,400.4-1695.6,741.8-1731,757.5l-68.7,29.4l49.1,37.3c98.1,74.6,416.1,239.4,626.1,325.8C5717.4,4620.4,6278.7,4685.2,6761.4,4581.2z M3515.4,3978.7c74.6-113.8,19.6-657.5-121.7-1216.8c-178.6-694.7-555.4-1658.4-916.5-2341.3c-469-883.2-1067.6-1668.2-1271.7-1668.2c-70.7,0-98.1,72.6-98.1,263c2,893,657.5,2704.4,1426.8,3946.7c286.5,459.2,694.7,953.8,859.6,1038.2C3472.2,4041.5,3476.1,4039.5,3515.4,3978.7z M6013.7,2913c987.2-431.8,1801.6-792.9,1809.5-800.7c17.7-17.7-127.6-308.1-243.4-486.7C6998.9,730.7,5905.8,83,4891.1,33.9l-249.2-11.8l-13.7,56.9c-39.3,164.9-164.9,319.9-325.8,398.4c-204.1,102.1-404.3,72.6-582.9-88.3c-251.2-225.7-266.9-535.8-41.2-781.1c212-229.6,514.2-249.2,755.6-47.1c55,47.1,72.6,49.1,304.2,51c616.3,3.9,1313,210,1917.4,569.2c633.9,374.8,1144.1,928.3,1452.3,1574c49.1,102.1,92.2,188.4,94.2,192.3c11.8,13.7,1006.8-435.7,1044.1-473c78.5-78.5,109.9-263,98.1-573.1c-31.4-745.8-308.1-1681.9-790.9-2675c-382.7-790.9-724.2-1313-1104.9-1691.7c-206.1-204.1-353.3-294.4-480.8-294.4c-56.9,0-714.4,280.6-2698.5,1150.1L1645-1459.6l198.2,200.2C2545.9-548.9,3429,1217.4,3796,2648.1c100.1,390.5,137.4,616.2,151.1,914.6l11.8,249.2l129.5-55C4159.1,3725.5,5026.5,3346.7,6013.7,2913z M4168.9,106.6c68.7-37.3,64.8-213.9-5.9-259.1c-39.3-25.5-139.3-17.7-186.4,15.7c-33.4,23.5-43.2,49.1-43.2,115.8s9.8,92.2,43.2,115.8C4025.6,130.1,4113.9,136,4168.9,106.6z"/><path d="M1019-2413.4c-76.5-33.3-100.1-62.8-239.4-296.3C510.7-3157.2,304.6-3610.5,261.5-3848c-29.4-155-3.9-314,74.6-469.1c74.6-147.2,259-329.7,414.1-406.2c123.6-62.8,143.3-66.7,337.6-66.7c190.4,0,215.9,3.9,333.6,60.8c308.1,147.2,512.2,445.5,512.2,753.6c2,245.3-202.1,732-539.7,1289.4C1229-2413.4,1148.5-2354.5,1019-2413.4z M1289.8-3369.1c90.3-176.6,178.6-369,196.3-427.9c106-331.7-60.8-588.8-384.6-590.7c-190.4,0-359.2,104-408.2,253.2c-60.8,182.5-7.8,369,231.6,826.2c143.3,274.8,162.9,302.2,186.4,278.7C1119.1-3037.5,1199.6-3190.5,1289.8-3369.1z"/></g></g>
</svg>