<?xml version="1.0" encoding="utf-8"?>
<!-- Svg Vector Icons : http://www.onlinewebfonts.com/icon -->
<!DOCTYPE svg PUBLIC "-//W3C//DTD SVG 1.1//EN" "http://www.w3.org/Graphics/SVG/1.1/DTD/svg11.dtd">
<svg version="1.1" xmlns="http://www.w3.org/2000/svg" xmlns:xlink="http://www.w3.org/1999/xlink" x="0px" y="0px" viewBox="0 0 1000 1000" enable-background="new 0 0 1000 1000" xml:space="preserve">
<metadata> Svg Vector Icons : http://www.onlinewebfonts.com/icon </metadata>
<g><g transform="translate(0.000000,421.000000) scale(0.100000,-0.100000)"><path d="M4510,3234.3c-980-86.5-1902.3-415.1-2763.2-983.8l-263.3-174.9v-495.8v-495.8h-232.5c-263.3,0-403.5-28.8-582.2-119.1C513.2,886.2,296,669.1,217.3,513.4C94.3,267.5,100,421.2,100-2330.5v-2503.8h4900h4900v2503.8c0,2751.6,5.8,2597.9-117.2,2843.9C9702,671,9486.8,886.2,9329.2,966.9c-184.5,92.2-309.4,117.2-586.1,117.2h-246v495.8v495.8L8234,2250.5c-482.3,319-933.9,541.9-1437.3,707.1C6051.1,3203.6,5259.4,3299.7,4510,3234.3z M5520.7,2869.2c436.2-44.2,931.9-159.5,1356.6-315.1c272.9-99.9,807.1-368.9,1056.8-532.3l215.2-140.3l5.8-465c5.8-436.2,3.8-468.9-28.8-478.5c-57.6-19.2-284.4-242.1-351.6-347.8c-36.5-53.8-86.5-163.3-113.4-242.1c-44.2-134.5-48-171-48-511.1v-367H5000H2386.7v351.6c0,399.7-17.3,499.6-126.8,707.1c-71.1,134.5-286.3,361.2-384.3,405.4l-46.1,21.1v463.1v463.1l203.7,132.6c689.8,447.7,1516.1,745.6,2338.5,845.5C4636.8,2892.3,5253.6,2898.1,5520.7,2869.2z M1583.5,682.5c153.7-59.6,305.5-201.8,384.3-363.2l63.4-128.8l5.8-2328.9l3.8-2330.8h-797.4H445.9l3.8,2321.2l5.8,2319.3l44.2,109.5c82.6,203.7,267.1,367,484.2,428.5C1135.8,751.7,1439.4,738.2,1583.5,682.5z M9102.5,680.6c157.6-61.5,330.5-234.4,395.8-393.9l46.1-115.3l5.8-2321.2l3.8-2319.3h-797.5h-797.4l3.8,2330.8l5.8,2328.9l51.9,109.5c94.1,203.7,265.2,349.7,476.5,409.3C8650.9,751.7,8952.6,738.2,9102.5,680.6z M7613.3-1433.1v-538H5000H2386.7v538v538H5000h2613.3V-1433.1z M7613.3-3402.7v-1066.5H5000H2386.7v1066.5v1066.5H5000h2613.3V-3402.7z"/></g></g>
</svg>