<?xml version="1.0" encoding="utf-8"?>
<!-- Svg Vector Icons : http://www.onlinewebfonts.com/icon -->
<!DOCTYPE svg PUBLIC "-//W3C//DTD SVG 1.1//EN" "http://www.w3.org/Graphics/SVG/1.1/DTD/svg11.dtd">
<svg version="1.1" xmlns="http://www.w3.org/2000/svg" xmlns:xlink="http://www.w3.org/1999/xlink" x="0px" y="0px" viewBox="0 0 1000 1000" enable-background="new 0 0 1000 1000" xml:space="preserve">
<metadata> Svg Vector Icons : http://www.onlinewebfonts.com/icon </metadata>
<g><g transform="translate(0.000000,511.000000) scale(0.100000,-0.100000)"><path d="M4819.4,4325.9c-245.1-65.2-447.6-182.2-643.2-377.8c-281.1-283.4-409.3-560-429.6-937.9c-40.5-699.5,418.3-1320.2,1106.5-1493.4c170.9-42.7,476.8-42.7,663.5,2.2c510.5,119.2,933.4,533,1070.5,1048.1c47.2,179.9,40.5,258.6-27,326.1c-63,63-99,63-301.4-13.5c-254.1-94.5-575.8-47.2-805.2,116.9c-308.1,220.4-445.3,652.2-317.1,1000.8c76.5,204.7,78.7,240.7,13.5,305.9C5082.5,4370.9,5008.3,4375.4,4819.4,4325.9z M4747.4,3716.4c2.3-265.4,54-454.3,182.2-652.2c242.9-375.6,596-571.3,1043.5-575.8c119.2-2.3,218.2-9,218.2-18c0-38.2-193.4-296.9-276.6-371.1c-139.5-121.4-393.6-236.1-587-263.1c-339.6-49.5-656.7,60.7-913.1,317.1c-179.9,179.9-281.1,375.6-317.1,614c-65.2,420.6,141.7,865.9,510.5,1097.5c60.7,38.2,116.9,69.7,123.7,69.7C4738.4,3934.6,4745.2,3835.6,4747.4,3716.4z"/><path d="M170.6,1294.2l-63-54l-6.7-2572.9c-2.3-1412.4,0-2604.4,6.7-2644.9c29.2-157.4,184.4-213.7,292.4-105.7l56.2,54v530.8v528.5h4543.1h4543.1v-528.5v-530.8l56.2-54c105.7-105.7,263.1-47.2,292.4,107.9c9,40.5,11.3,650,6.7,1353.9c-9,1133.5-13.5,1297.7-49.5,1416.9c-139.4,481.3-528.5,868.1-996.3,989.6c-193.4,51.7-4858,49.5-5055.9,0c-490.3-123.7-906.4-548.8-1005.3-1025.6l-27-132.7H1610H456.2L451.7-55.3l-6.7,1318l-54,42.7C321.2,1363.9,247,1359.4,170.6,1294.2z M4819.4-945.9v-427.3h-854.6h-854.6l13.5,63c6.7,33.7,47.2,132.7,90,220.4c123.7,258.6,398.1,481.3,677,546.5c47.2,11.3,274.4,20.3,508.3,22.5l420.6,2.3V-945.9z M8872.2-581.6c299.1-121.5,533-371.1,625.2-672.5c40.5-130.4,45-209.2,45-751.2v-605H7360.8H5179.2v1045.8v1048.1l1783.5-6.7l1781.3-6.7L8872.2-581.6z M4819.4-2171.7v-438.6H2637.8H456.2v438.6v438.6h2181.6h2181.6V-2171.7z"/><path d="M1466,552c-260.9-99-438.6-258.6-546.5-485.8C854.3-68.8,849.8-98,849.8-316.2c0-222.7,4.5-247.4,74.2-386.8c94.5-191.2,236.1-332.9,427.3-427.3c139.4-69.7,164.2-74.2,386.8-74.2c218.2,0,247.4,4.5,382.3,69.7c186.7,87.7,348.6,249.7,436.3,436.3c65.2,135,69.7,164.2,69.7,382.3s-4.5,247.4-72,386.8c-90,191.2-238.4,339.6-429.6,429.6c-132.7,63-177.7,72-364.4,76.5C1623.5,581.2,1517.8,572.2,1466,552z M2026,162.9c353.1-218.2,362.1-730.9,13.5-951.3c-267.6-168.7-614-85.5-784.9,188.9c-134.9,218.2-74.2,553.3,125.9,715.2C1565,264.1,1830.4,284.3,2026,162.9z"/></g></g>
</svg>