<?xml version="1.0" encoding="utf-8"?>
<!-- Svg Vector Icons : http://www.onlinewebfonts.com/icon -->
<!DOCTYPE svg PUBLIC "-//W3C//DTD SVG 1.1//EN" "http://www.w3.org/Graphics/SVG/1.1/DTD/svg11.dtd">
<svg version="1.1" xmlns="http://www.w3.org/2000/svg" xmlns:xlink="http://www.w3.org/1999/xlink" x="0px" y="0px" viewBox="0 0 1000 1000" enable-background="new 0 0 1000 1000" xml:space="preserve">
<metadata> Svg Vector Icons : http://www.onlinewebfonts.com/icon </metadata>
<g><g transform="translate(0.000000,511.000000) scale(0.100000,-0.100000)"><path d="M4113.5,5010c-48.8-51.4-56.5-89.9-56.5-282.6v-223.5h-380.3c-364.9,0-382.9-2.6-436.8-59.1c-30.8-33.4-56.5-89.9-56.5-125.9c0-192.7,79.7-226.1,526.7-226.1H4057v-269.8v-269.8h-346.9c-447.1,0-526.7-33.4-526.7-228.7c0-41.1,25.7-95.1,59.1-125.9c56.5-54,84.8-56.5,436.8-56.5H4057v-226.1c0-205.6,5.1-233.8,59.1-282.6c56.5-54,79.7-56.5,624.4-56.5c609,0,711.7,15.4,971.3,146.5c174.7,87.4,406,316,493.3,483.1l72,136.2l249.2,10.3c282.6,7.7,344.3,41.1,372.6,195.3l18,89.9l413.7-15.4c477.9-18,714.3-66.8,1030.3-221c508.8-244.1,873.6-655.2,1056-1197.4c54-159.3,72-272.4,82.2-503.6c15.4-385.4-30.8-614.1-205.6-971.3c-113-233.8-156.7-298.1-362.3-503.6C8684.6-21,8504.8-141.8,8209.3-260c-272.4-110.5-511.3-143.9-999.5-143.9c-287.8,0-503.6-12.9-621.8-38.5c-560.1-118.2-1025.2-570.4-1156.3-1125.4c-146.5-621.8,172.2-1305.3,755.4-1608.5c352-182.4,341.7-182.4,2060.7-182.4h1531.4l59.1,64.2c74.5,79.6,74.5,205.6,0,280.1c-51.4,53.9-71.9,53.9-1639.3,66.8l-1585.4,12.8l-167,79.6c-244.1,115.6-416.3,285.2-531.9,519c-92.5,187.6-97.6,205.6-97.6,454.8c0,236.4,7.7,269.8,82.2,431.7c141.3,298.1,434.2,531.9,755.4,606.4c61.7,15.4,310.9,28.3,552.4,28.3c272.4,0,524.2,15.4,660.4,38.5c783.7,136.2,1456.9,634.7,1803.8,1336.1c185,375.1,228.7,570.4,228.7,1053.5c-2.6,372.6-7.7,431.7-72,642.4c-254.4,842.8-894.2,1454.3-1775.5,1698.4c-110.5,30.8-298,46.2-647.5,54l-490.8,12.8l-15.4,84.8c-28.3,146.5-92.5,179.9-372.6,187.6l-249.2,10.3l-72,136.2c-89.9,172.2-321.2,395.7-506.2,488.2c-244.1,125.9-349.5,141.3-963.6,141.3C4175.2,5069.1,4167.5,5069.1,4113.5,5010z M5426.5,4606.6c74.5-28.3,187.6-92.5,246.7-143.9c113-97.6,259.5-323.8,259.5-403.4c0-25.7,28.3-74.5,64.2-107.9c56.5-59.1,82.2-64.2,282.6-64.2c215.8,0,218.4,0,218.4-64.2c0-64.2-2.6-64.2-218.4-64.2c-200.4,0-226.1-5.1-282.6-64.2c-36-33.4-64.2-82.2-64.2-107.9c0-79.6-146.5-305.8-259.5-403.4c-190.1-161.9-326.3-195.3-794-195.3h-411.1v835.1V4658h411.1C5226.1,4658,5308.3,4650.3,5426.5,4606.6z"/><path d="M4917.8,3951.4c-36-33.4-64.2-92.5-64.2-128.5c0-36,28.3-95.1,64.2-128.5c100.2-100.2,221-82.2,285.2,43.7c66.8,131-30.8,277.5-185,277.5C4997.4,4015.6,4951.2,3987.3,4917.8,3951.4z"/><path d="M164.2,611L100,549.4v-2646.6v-2646.6l66.8-51.4c69.4-53.9,79.7-53.9,2389.6-53.9c1274.5,0,2338.2,7.7,2361.3,15.4c118.2,46.3,115.6,0,115.6,2746.8c0,2667.1,0,2651.7-100.2,2728.8c-30.8,25.7-580.7,30.8-2374.2,33.4H225.9L164.2,611z M4622.3-2086.9V-4438H2566.7H511.1v2351.1V264.2h2055.6h2055.6V-2086.9z"/><path d="M2117-342.2c-84.8-20.6-251.8-84.8-372.6-143.9c-174.7-87.3-264.7-154.2-439.4-328.9c-187.6-187.6-241.5-259.5-339.2-462.5c-154.2-323.7-185-465.1-182.4-822.2c2.6-244.1,15.4-331.5,69.4-501c159.3-485.6,472.8-845.4,930.2-1066.3c285.2-138.8,549.9-190.2,858.2-172.2c881.3,48.8,1562.3,688.6,1672.7,1570c100.2,809.4-377.7,1577.6-1161.4,1870.6c-190.1,71.9-246.7,82.2-547.3,87.3C2371.4-303.7,2225-314,2117-342.2z M3034.4-576.1c673.2-208.1,1146-904.5,1086.9-1598.2c-36-416.2-203-763.1-508.8-1048.3c-290.4-269.8-668.1-418.8-1058.6-418.8c-737.4,2.6-1346.4,477.9-1531.4,1202.5c-136.2,529.3,18,1076.6,413.7,1469.7C1875.5-529.8,2440.8-391,3034.4-576.1z"/><path d="M2420.2-1210.7c-66.8-59.1-71.9-79.6-82.2-282.6c-2.6-123.3,0-251.8,7.7-285.2c41.1-164.5,236.4-223.6,344.3-107.9c51.4,54,56.5,87.4,56.5,336.6c0,257-5.1,277.5-64.2,336.6C2602.7-1131.1,2512.7-1131.1,2420.2-1210.7z"/><path d="M1795.9-2194.8c-115.6-43.7-128.5-82.2-128.5-370c0-151.6,7.7-295.5,15.4-318.6c28.3-69.4,159.3-115.6,246.7-84.8c105.3,38.5,123.3,89.9,123.3,388c0,218.4-7.7,280.1-43.7,321.2C1960.3-2200,1857.5-2171.7,1795.9-2194.8z"/><path d="M3157.7-2210.2c-105.4-54-131-136.2-123.3-408.6c7.7-210.7,15.4-259.5,59.1-300.6c84.8-82.2,218.4-79.6,295.5,2.6c43.7,48.8,51.4,89.9,51.4,318.6c0,305.8-7.7,334-105.4,382.9C3247.6-2169.1,3239.9-2169.1,3157.7-2210.2z"/></g></g>
</svg>