<?xml version="1.0" encoding="utf-8"?>
<!-- Svg Vector Icons : http://www.onlinewebfonts.com/icon -->
<!DOCTYPE svg PUBLIC "-//W3C//DTD SVG 1.1//EN" "http://www.w3.org/Graphics/SVG/1.1/DTD/svg11.dtd">
<svg version="1.1" xmlns="http://www.w3.org/2000/svg" xmlns:xlink="http://www.w3.org/1999/xlink" x="0px" y="0px" viewBox="0 0 1000 1000" enable-background="new 0 0 1000 1000" xml:space="preserve">
<metadata> Svg Vector Icons : http://www.onlinewebfonts.com/icon </metadata>
<g><path d="M119.1,470.9h-80C23,470.9,10,483.9,10,500c0,16.1,13,29.1,29.1,29.1h80c16.1,0,29.1-13,29.1-29.1C148.2,483.9,135.2,470.9,119.1,470.9z"/><path d="M500,148.2c16.1,0,29.1-13,29.1-29.1v-80c0-16.1-13-29.1-29.1-29.1c-16.1,0-29.1,13-29.1,29.1v80C470.9,135.1,483.9,148.2,500,148.2z"/><path d="M209.5,749.4l-56.6,56.6c-11.3,11.4-11.3,29.8,0,41.1c11.4,11.4,29.8,11.4,41.1,0l56.6-56.6c11.3-11.3,11.3-29.8,0-41.1C239.3,738,220.9,738,209.5,749.4z"/><path d="M210.1,251.8c11.3,11.3,29.8,11.3,41.1,0c11.4-11.4,11.4-29.8,0-41.1l-56.6-56.6c-11.4-11.3-29.8-11.3-41.1,0c-11.3,11.4-11.3,29.8,0,41.1L210.1,251.8z"/><path d="M789.3,251.8l56.6-56.6c11.4-11.3,11.4-29.8,0-41.1c-11.3-11.3-29.8-11.3-41.1,0l-56.6,56.6c-11.3,11.3-11.3,29.8,0,41.1C759.5,263.2,778,263.2,789.3,251.8z"/><path d="M960.9,470.9h-80c-16.1,0-29.1,13-29.1,29.1c0,16.1,13,29.1,29.1,29.1h80c16.1,0,29.1-13,29.1-29.1C990,483.9,977,470.9,960.9,470.9z"/><path d="M789.9,749.4c-11.3-11.4-29.8-11.4-41.1,0c-11.4,11.3-11.4,29.8,0,41.1l56.6,56.6c11.4,11.4,29.8,11.4,41.1,0c11.3-11.3,11.3-29.8,0-41.1L789.9,749.4z"/><path d="M499.4,221.4c-154,0-279.3,125.3-279.3,279.2c0,154,125.3,279.2,279.3,279.2c154,0,279.2-125.3,279.2-279.2C778.7,346.6,653.4,221.4,499.4,221.4z M499.4,725.7c-124.1,0-225.1-101-225.1-225.1c0-124.1,101-225.1,225.1-225.1c124.1,0,225.1,101,225.1,225.1C724.5,624.7,623.5,725.7,499.4,725.7z"/><path d="M500,851.8c-16.1,0-29.1,13-29.1,29.1v80c0,16.1,13,29.1,29.1,29.1c16.1,0,29.1-13,29.1-29.1v-80C529.1,864.8,516.1,851.8,500,851.8z"/></g>
</svg>