<?xml version="1.0" encoding="utf-8"?>
<!-- Svg Vector Icons : http://www.onlinewebfonts.com/icon -->
<!DOCTYPE svg PUBLIC "-//W3C//DTD SVG 1.1//EN" "http://www.w3.org/Graphics/SVG/1.1/DTD/svg11.dtd">
<svg version="1.1" xmlns="http://www.w3.org/2000/svg" xmlns:xlink="http://www.w3.org/1999/xlink" x="0px" y="0px" viewBox="0 0 1000 1000" enable-background="new 0 0 1000 1000" xml:space="preserve">
<metadata> Svg Vector Icons : http://www.onlinewebfonts.com/icon </metadata>
<g><g transform="translate(0.000000,512.000000) scale(0.100000,-0.100000)"><path d="M224.4,5002.8c-21.1-9.6-55.5-36.4-76.6-59.3c-38.3-42.1-38.3-72.7-44-2980.2L100-974.8l65.1-65.1c74.6-74.7,162.7-86.1,241.2-34.5c26.8,17.2,153.1,135.9,281.4,264.2L923-578.6l817.3-815.4c509.1-507.2,853.7-836.5,911.1-869c306.3-174.2,717.8-174.2,1022.1,0c49.8,28.7,208.6,168.4,350.3,308.2l260.3,256.5l93.8-95.7c109.1-111,189.5-145.5,269.9-114.8c30.6,11.5,122.5,88,204.8,168.4l147.4,147.4l199.1-199.1l201-199.1l5.7-315.8l5.7-313.9l63.2-55.5l61.3-55.5h302.4h300.5l453.6-453.6l455.5-455.5v-300.5v-302.4l55.5-61.3l55.5-63.2l313.9-5.7l312-5.7l202.9-201l202.9-199.1h790.5h788.6l65.1,65.1l65.1,65.1v790.5v792.4L8307.5-1474.4L6713.1,120l147.4,147.4c80.4,82.3,157,174.2,168.4,204.8c30.6,80.4-3.8,160.8-114.8,269.9l-95.7,93.8l256.5,260.3c139.7,141.6,279.4,300.5,308.2,350.3c174.2,304.3,174.2,715.9,0,1022.1c-32.5,57.4-361.8,402-869,911.1L5698.6,4197l231.6,235.4c128.3,128.2,246.9,254.6,264.2,281.4c51.7,78.5,40.2,166.5-34.5,241.2l-65.1,65.1l-2917-1.9C1575.7,5018.1,245.5,5010.4,224.4,5002.8z M5365.6,4455.4c-149.3-155-155-164.6-155-252.7v-90l897.7-901.5c597.2-597.2,913-928.3,941.7-985.7c38.3-72.7,45.9-114.8,45.9-268s-7.7-195.2-45.9-268c-24.9-49.8-183.7-225.9-367.5-411.5c-176.1-178-331.2-350.3-342.6-380.9c-32.5-88-7.7-149.3,105.3-260.3l105.3-103.4l-153.1-155c-155-158.9-185.7-218.2-164.6-310.1c9.6-36.4,534-574.2,1640.3-1680.5l1625-1627l-3.8-564.6l-5.7-564.6l-564.6-5.7l-562.7-3.8l-193.3,189.5c-105.3,105.3-216.3,201-245,210.5c-30.6,11.5-149.3,21-264.1,21H7450v222c0,122.5-9.6,239.3-21,262.2c-30.6,59.3-1050.8,1081.4-1112.1,1115.9c-36.4,19.1-116.8,26.8-273.7,26.8H5823v210.5c0,137.8-9.6,233.5-26.8,273.7c-36.4,84.2-677.6,715.9-744.6,731.2c-90,23-151.2-7.7-310.1-164.6l-155-151.2l-93.8,95.7c-109.1,111-189.5,145.5-269.9,114.8c-30.6-11.5-206.7-170.4-390.5-352.2c-382.8-379-424.9-403.9-669.9-403.9c-271.8,0-225.9-36.4-1244.1,978.1c-878.6,874.7-913,907.3-983.8,907.3c-97.6,0-134-21-294.8-178L502-404.5v2497.9c0,1374.3,5.7,2505.5,13.4,2511.2c5.7,7.7,1135,13.4,2509.3,13.4h2497.9L5365.6,4455.4z"/><path d="M3516.6,3379.6c-61.3-13.4-1766.7-1726.5-1780.1-1787.7c-5.7-28.7,0-80.4,15.3-114.8c17.2-38.3,371.3-407.7,878.6-911.1C3449.6-253.2,3482.2-282,3551-282c40.2,0,91.9,9.6,114.8,21c59.3,30.6,1674.8,1642.3,1709.3,1705.4c15.3,28.7,26.8,84.2,26.8,124.4c0,68.9-30.6,101.4-846,920.7c-480.4,480.4-874.7,861.3-909.2,876.6C3581.7,3395,3579.8,3395,3516.6,3379.6z M3838.2,2106.8L3574,1842.7l-262.2,262.2L3047.7,2369l262.2,262.2l264.1,264.1l262.2-262.2l264.1-264.1L3838.2,2106.8z M3015.1,1283.7L2751,1019.6l-262.2,262.2L2224.6,1546l262.2,262.2l264.1,264.1l262.2-262.2l264.1-264.1L3015.1,1283.7z M4655.5,1813.9l258.4-258.4l-264.1-264.1l-262.2-262.2l-262.2,262.2l-264.1,264.1l258.4,258.4c141.6,141.6,262.2,258.4,268,258.4S4513.8,1955.6,4655.5,1813.9z M3832.4,990.9l258.4-258.4l-264.1-264.1l-262.2-262.2l-262.2,262.2l-264.1,264.1l258.4,258.4c141.6,141.6,262.2,258.4,268,258.4S3690.8,1132.5,3832.4,990.9z"/><path d="M5677.6-557.6c-72.8-72.7-84.2-149.3-38.3-237.3c15.3-28.7,681.4-702.5,1479.6-1500.6C8269.2-3444,8583.1-3744.5,8631-3756c135.9-28.7,273.7,109.1,245,245c-11.5,47.9-308.2,356-1431.7,1485.3C6663.3-1242.8,5989.6-578.6,5949.4-548C5844.1-469.5,5761.8-473.4,5677.6-557.6z"/></g></g>
</svg>