<?xml version="1.0" encoding="utf-8"?>
<!-- Svg Vector Icons : http://www.onlinewebfonts.com/icon -->
<!DOCTYPE svg PUBLIC "-//W3C//DTD SVG 1.1//EN" "http://www.w3.org/Graphics/SVG/1.1/DTD/svg11.dtd">
<svg version="1.1" xmlns="http://www.w3.org/2000/svg" xmlns:xlink="http://www.w3.org/1999/xlink" x="0px" y="0px" viewBox="0 0 1000 1000" enable-background="new 0 0 1000 1000" xml:space="preserve">
<metadata> Svg Vector Icons : http://www.onlinewebfonts.com/icon </metadata>
<g><g transform="translate(0.000000,512.000000) scale(0.100000,-0.100000)"><path d="M5931.4,5001.6c-59.4-32.6-3722.9-3698-3755.5-3755.5c-46-86.2-34.5-183.8,28.7-247l55.5-55.5h488.3c459.6,0,490.3,1.9,536.2,38.3c72.8,57.5,99.6,153.2,63.2,235.6c-40.2,101.5-111.1,128.3-321.7,128.3h-178.1l1589.5,1589.5l1589.5,1589.5l565-565c542-540.1,568.8-565,637.7-565c93.8,0,172.4,42.1,201.1,105.3c15.3,34.5,23,210.7,23,586v534.3l407.9-3.8l406-5.7l9.6-1172L8287,2265l459.6-459.6l459.6-459.6h-199.2h-197.3l-65.1-65.1l-65.1-65.1v-2386.2v-2386.2h-547.7h-547.7l-65.1-65.1c-70.9-70.8-84.3-141.7-42.1-231.7c46-101.5,70.9-105.3,808.2-105.3h679.9l53.6,46l53.6,45.9l9.6,2401.5l9.6,2399.6l344.7,9.6c189.6,5.7,358.1,17.2,375.4,24.9c55.5,28.7,99.6,126.4,86.2,201.1c-9.6,59.4-91.9,151.3-614.7,674.1l-603.3,603.3l-3.8,1231.4l-5.7,1233.3l-63.2,55.5l-61.3,55.5h-672.2c-455.8,0-683.7-7.7-712.4-21.1c-103.4-53.6-109.2-72.8-109.2-499.8c0-220.2-5.7-398.3-13.4-398.3s-222.1,206.8-474.9,459.6c-425.2,423.2-467.3,459.6-526.7,459.6C6000.4,5022.7,5952.5,5013.1,5931.4,5001.6z"/><path d="M5736.1,2937.2c-300.7-86.2-553.4-327.5-676-643.5c-38.3-95.8-46-149.4-46-335.1c0-193.4,7.7-235.5,51.7-350.5c162.8-415.6,522.8-664.5,965.2-664.5c561.1,0,1009.2,450,1009.2,1015c0,568.8-452,1018.8-1016.9,1013.1C5923.8,2971.6,5807,2956.3,5736.1,2937.2z M6293.4,2506.3c114.9-55.5,216.4-157,283.4-283.4c36.4-68.9,44-111.1,44-264.3c0-153.2-7.7-195.3-44-264.3c-67-126.4-168.5-227.9-287.3-285.4c-147.5-72.8-363.9-74.7-515.2-7.7c-118.7,53.6-260.4,197.3-316,323.6c-55.5,124.5-55.5,342.8-1.9,467.3c47.9,103.4,180,254.7,262.4,296.8C5904.6,2586.7,6117.2,2592.5,6293.4,2506.3z"/><path d="M197.7,495.4c-101.5-55.5-95.8,68.9-97.7-2631.3v-2516.4l65.1-65.1l65.1-65.1h3324.6c3688.5,0,3412.7-9.6,3470.1,124.5c40.2,97.7,40.2,4958.2,0,5053.9c-57.5,137.9,254.7,126.4-3449.1,126.4C846.9,520.3,236,516.5,197.7,495.4z M1727.8-492.8v-612.8H1115H502.2v612.8v612.8H1115h612.8V-492.8z M5002.6-492.8v-612.8H3575.9H2149.1v612.8v612.8h1426.7h1426.7V-492.8z M6630.4-492.8v-612.8h-612.8h-612.8v612.8v612.8h612.8h612.8V-492.8z M3371-2124.4l3.8-609H1938.5H502.2v599.4c0,331.3,5.7,607.1,13.4,612.8c5.7,7.7,651.1,11.5,1430.6,9.6l1419.1-5.7L3371-2124.4z M6630.4-2120.6v-612.8H5203.7H3777v612.8v612.8h1426.7h1426.7V-2120.6z M1727.8-3767.5v-612.8l-607.1,3.8l-609,5.7l-5.7,609l-3.8,607.1H1115h612.8V-3767.5z M5002.6-3767.5v-612.8H3575.9H2149.1v612.8v612.8h1426.7h1426.7V-3767.5z M6630.4-3767.5v-612.8l-607.1,3.8l-609,5.7l-5.7,609l-3.8,607.1h612.8h612.8V-3767.5z"/></g></g>
</svg>