<?xml version="1.0" encoding="utf-8"?>
<!-- Svg Vector Icons : http://www.onlinewebfonts.com/icon -->
<!DOCTYPE svg PUBLIC "-//W3C//DTD SVG 1.1//EN" "http://www.w3.org/Graphics/SVG/1.1/DTD/svg11.dtd">
<svg version="1.1" xmlns="http://www.w3.org/2000/svg" xmlns:xlink="http://www.w3.org/1999/xlink" x="0px" y="0px" viewBox="0 0 1000 1000" enable-background="new 0 0 1000 1000" xml:space="preserve">
<metadata> Svg Vector Icons : http://www.onlinewebfonts.com/icon </metadata>
<g><g transform="translate(0.000000,511.000000) scale(0.100000,-0.100000)"><path d="M1134.9,4979.6c-70.3-15.6-208.9-68.3-308.5-117.2C441.7,4671.1,182,4306,121.5,3868.6c-27.3-199.2-29.3-7324.3-2-7515.7c80.1-544.8,470.6-972.4,1015.4-1109.1c89.8-23.4,740-27.3,3876-27.3c3563.6,0,3776.4,1.9,3895.5,35.1c488.2,134.7,837.7,486.2,958.7,966.6c37.1,148.4,37.1,232.4,33.2,3948.2l-5.9,3797.9l-44.9,126.9c-84,230.4-162.1,353.4-335.9,527.2c-173.8,173.8-296.8,251.9-527.2,335.9l-126.9,44.9l-3797.9,3.9C1869.1,5005,1242.3,5001.1,1134.9,4979.6z M8929.8,4583.3c236.3-95.7,451.1-310.5,546.7-546.7l44.9-111.3l5.8-3749.1c3.9-2790.3,0-3776.4-15.6-3856.4c-74.2-345.6-380.8-646.3-738.1-720.5c-136.7-29.3-7369.2-31.2-7523.5-2c-160.1,29.3-376.9,144.5-496,263.6c-119.1,119.1-234.3,335.8-263.6,496c-27.3,152.3-27.3,7355.5,2,7511.8c33.2,179.6,125,353.4,259.7,488.2c126.9,126.9,226.5,187.5,402.2,244.1c101.5,33.2,306.6,35.1,3885.7,31.2l3778.3-3.9L8929.8,4583.3z"/><path d="M4571.5,3854.9c-396.4-44.9-868.9-187.5-1234.1-369c-1095.4-548.7-1837.4-1550.4-2048.3-2763c-54.7-322.2-58.6-845.5-9.8-1165.7c205-1321.9,1075.9-2429.1,2306.1-2930.9c462.8-189.4,896.3-273.4,1425.4-273.4c406.2,0,712.7,43,1077.9,154.2c1279,386.6,2259.2,1421.5,2575.5,2712.2c462.8,1899.9-609.2,3840.8-2466.2,4461.8C5682.6,3853,5104.6,3915.4,4571.5,3854.9z M4825.4,3376.5c0-115.2,5.9-132.8,56.6-185.5c64.4-62.5,130.8-72.2,214.8-27.3c66.4,33.2,99.6,117.2,99.6,248v97.6l103.5-11.7c620.9-76.2,1095.4-242.1,1566-546.7c824-535,1392.2-1443,1513.3-2419.3c35.1-273.4,15.6-806.5-37.1-1074c-130.8-648.3-433.5-1222.4-898.2-1700.8c-570.2-585.8-1341.4-960.7-2093.2-1021.2l-148.4-11.7l-9.8,132.8c-7.8,115.2-15.6,138.6-62.5,177.7c-35.2,31.3-76.2,46.9-125,46.9c-126.9-1.9-179.6-74.2-179.6-246v-111.3l-154.3,11.7c-337.8,25.4-749.8,138.7-1087.6,296.8c-1513.3,706.9-2290.4,2376.4-1855,3977.5c150.4,548.7,423.7,1027.1,829.9,1448.8c546.7,564.3,1228.2,913.8,1985.8,1015.4C4850.8,3517.1,4825.4,3526.9,4825.4,3376.5z"/><path d="M3376.5,849.8c-236.3-41-443.2-195.3-548.7-408.1c-58.6-119.1-62.5-140.6-62.5-333.9c0-185.5,5.9-216.7,54.7-316.3c76.2-154.3,203.1-279.2,361.2-353.4c119.1-56.6,148.4-62.5,316.3-62.5c166,0,199.2,5.9,312.4,60.5c152.3,72.2,285.1,203.1,363.2,355.4c52.7,101.5,56.6,128.9,56.6,316.3c0,232.4-31.2,328-160.1,484.2C3909.6,787.3,3626.5,892.8,3376.5,849.8z M3601.1,476.9c97.6-27.3,220.6-138.6,249.9-228.4c85.9-263.6-84-511.6-353.4-511.6c-425.7,0-525.3,589.7-125,732.2C3466.4,502.3,3505.4,504.2,3601.1,476.9z"/><path d="M6381.6,849.8c-208.9-37.1-439.3-208.9-537-404.2c-99.6-193.3-99.6-449.1-1.9-662c60.5-128.9,226.5-290.9,363.2-355.4c99.6-44.9,138.6-52.7,308.5-52.7c181.6,0,205,3.9,326.1,64.4c302.7,148.4,474.5,490.1,408.1,808.4c-42.9,207-126.9,339.8-296.8,468.6C6797.5,832.3,6576.9,883,6381.6,849.8z M6694.1,445.6c41-21.5,101.5-76.2,132.8-121.1c50.8-72.3,58.6-99.6,58.6-216.7c0-119.1-5.9-140.6-60.5-207c-85.9-107.4-148.4-148.4-248-158.2c-130.8-15.6-220.6,7.8-300.7,78.1c-138.6,121.1-177.7,298.8-101.5,456.9C6268.4,473,6496.8,547.2,6694.1,445.6z"/></g></g>
</svg>