<?xml version="1.0" encoding="utf-8"?>
<!-- Svg Vector Icons : http://www.onlinewebfonts.com/icon -->
<!DOCTYPE svg PUBLIC "-//W3C//DTD SVG 1.1//EN" "http://www.w3.org/Graphics/SVG/1.1/DTD/svg11.dtd">
<svg version="1.1" xmlns="http://www.w3.org/2000/svg" xmlns:xlink="http://www.w3.org/1999/xlink" x="0px" y="0px" viewBox="0 0 1000 1000" enable-background="new 0 0 1000 1000" xml:space="preserve">
<metadata> Svg Vector Icons : http://www.onlinewebfonts.com/icon </metadata>
<g><path d="M247.6,726l-49.8,13.3c-13.8,3.7-21.9,17.8-18.2,31.6c3.7,13.8,17.8,21.9,31.6,18.2l49.8-13.3c13.8-3.7,21.9-17.8,18.2-31.6C275.4,730.5,261.3,722.3,247.6,726z"/><path d="M309.1,875.8l-36.5,36.5c-10.1,10.1-10.1,26.4,0,36.5c10.1,10.1,26.4,10.1,36.5,0l36.5-36.5c10.1-10.1,10.1-26.4,0-36.5C335.4,865.7,319.1,865.7,309.1,875.8z"/><path d="M802.3,745.9l-51.8-13.4c-14.3-3.7-29,4.5-32.9,18.3c-3.8,13.8,4.7,28,19,31.7l51.8,13.4c14.3,3.7,29-4.5,32.9-18.3C825.1,763.7,816.6,749.6,802.3,745.9z"/><path d="M685.5,882.8c-10.5-10.1-27.5-10.1-37.9,0c-10.5,10.1-10.5,26.5,0,36.6l37.9,36.6c10.5,10.1,27.5,10.1,37.9,0c10.5-10.1,10.5-26.5,0-36.6L685.5,882.8z"/><path d="M512.7,886.9c-14.2,0-25.8,11.5-25.8,25.8v51.6c0,14.2,11.5,25.8,25.8,25.8c14.2,0,25.8-11.5,25.8-25.8v-51.6C538.5,898.4,527,886.9,512.7,886.9z"/><path d="M538.6,266.2c0-0.3,0.1-0.5,0.1-0.8V33.2c0-12.8-11.5-23.2-25.8-23.2c-14.2,0-25.8,10.4-25.8,23.2v231.2c-210.2,7.4-385.4,194.7-385.4,415.8v24.5h206.7C324,792.4,403.8,859.4,500,859.4c96.2,0,176.1-67,191.6-154.7h206.7v-24.5C898.3,468.2,737.2,287.2,538.6,266.2z M500,810.4c-68.9,0-126.6-45.2-141.6-105.7h283.2C626.6,765.2,568.9,810.4,500,810.4z M151.5,655.8C164,467.6,318.5,313.1,500,313.1c181.5,0,336,154.5,348.5,342.6H151.5z"/></g>
</svg>