<?xml version="1.0" encoding="utf-8"?>
<!-- Svg Vector Icons : http://www.onlinewebfonts.com/icon -->
<!DOCTYPE svg PUBLIC "-//W3C//DTD SVG 1.1//EN" "http://www.w3.org/Graphics/SVG/1.1/DTD/svg11.dtd">
<svg version="1.1" xmlns="http://www.w3.org/2000/svg" xmlns:xlink="http://www.w3.org/1999/xlink" x="0px" y="0px" viewBox="0 0 1000 1000" enable-background="new 0 0 1000 1000" xml:space="preserve">
<metadata> Svg Vector Icons : http://www.onlinewebfonts.com/icon </metadata>
<g><g transform="translate(0.000000,511.000000) scale(0.100000,-0.100000)"><path d="M4499,4988.4c-1273.5-127.1-2481.1-780.9-3305.1-1791C140.6,1908-174.9,178.3,347.2-1419.8c483.5-1480,1641.2-2637.7,3121.2-3121.2c1021.5-333.7,2033.9-335.9,3050.8-2.3c1116.8,365.4,2033.9,1091.8,2667.2,2111.1c535.7,864.9,792.2,1981.7,692.3,2998.6c-127.1,1268.9-751.3,2474.3-1697.9,3268.8C7145.7,4706.9,5822.3,5120,4499,4988.4z M5443.3,4625.2c833.1-81.7,1625.3-395,2306.3-908c240.6-181.6,674.2-615.2,855.8-855.8c696.9-921.6,1021.5-2061.1,910.3-3184.8c-86.3-853.5-392.7-1632.1-914.8-2324.4c-177.1-233.8-610.6-667.4-844.4-844.4c-692.3-522.1-1470.9-828.5-2324.5-914.8c-1123.6-111.2-2263.2,213.4-3184.8,910.3c-240.6,181.6-674.2,615.2-855.8,855.8C36.2-847.7,174.7,1624.3,1716,3238.2C2687.5,4255.2,4051.8,4763.6,5443.3,4625.2z"/><path d="M4669.2,3546.9c-662.8-95.3-1123.6-261-1602.6-578.8c-286-190.7-735.5-640.1-926.1-926.1c-263.3-399.5-449.5-858.1-538-1330.2c-56.8-304.2-59-910.3-2.3-1203.1c93.1-485.8,301.9-989.7,572-1375.6c170.2-245.1,603.8-678.7,849-849c385.9-270.1,887.6-476.7,1375.6-572c283.7-54.5,921.6-54.5,1203.1,0c746.8,147.5,1371.1,481.2,1875,1005.6c488,510.7,780.9,1078.2,921.6,1791c54.5,281.5,54.5,919.3,0,1203.1c-95.4,488-301.9,989.7-572,1375.6c-170.2,245.2-603.8,678.7-849,849c-379.1,265.6-851.3,465.3-1318.8,558.4C5450.1,3537.9,4828.1,3569.6,4669.2,3546.9z M5584,3140.6c933-181.6,1747.9-801.3,2179.2-1659.4c95.4-190.7,217.9-549.3,267.9-792.2c59-286,59-871.7,0-1157.7c-229.3-1105.5-980.6-1972.6-2024.8-2333.5c-370-127.1-583.4-161.2-1007.9-161.2c-424.5,0-637.9,34-1007.9,161.2C2944-2439,2181.3-1560.5,1963.4-461.8c-54.5,272.4-54.5,871.7,0,1144.1c165.7,835.3,662.8,1568.5,1366.5,2020.3c397.2,256.5,849,417.7,1350.6,481.2C4837.2,3204.2,5400.1,3176.9,5584,3140.6z"/><path d="M4691.9,2820.5c-669.6-102.1-1169-347.3-1614-789.9c-385.9-385.9-635.6-844.4-749.1-1375.6c-52.2-240.6-59-799-11.4-1032.8c168-851.2,706-1564,1473.2-1949.9c381.4-190.7,746.8-274.7,1207.6-274.7c356.4,0,535.7,27.2,844.4,127.1c681,220.2,1264.4,724.1,1593.5,1377.9C7627-716.1,7711-350.6,7711,110.2c0,356.4-27.2,535.7-127.1,844.4c-131.7,406.3-351.8,760.4-665.1,1076c-385.9,385.9-837.6,631-1380.1,749.1C5377.4,2813.7,4830.4,2841,4691.9,2820.5z M5329.8,2446c740-102.1,1427.8-594.7,1763.8-1257.6c349.6-699.1,351.8-1452.8,4.5-2145.1C6709.9-1733,5870-2250.6,4998.3-2250.6c-876.2,0-1716.1,519.8-2104.3,1300.7c-340.5,685.5-340.5,1439.2-2.3,2115.6c120.3,242.9,252,419.9,451.7,619.7c204.3,197.5,358.7,311,599.3,431.3C4376.4,2434.6,4853.1,2511.8,5329.8,2446z"/><path d="M4090.4,1351.9c-111.2-36.3-301.9-231.5-336-347.3c-63.6-213.4-18.2-383.6,143-542.5c156.6-158.9,347.3-208.8,533.4-145.3c70.4,25,77.2,22.7,188.4-90.8l118-115.8l-118-115.8c-111.2-113.5-118-115.8-188.4-90.8c-322.3,111.2-703.7-165.7-703.7-515.3c0-147.5,50-261,170.3-379.1c229.3-231.5,519.8-231.5,749.1,0c158.9,156.6,208.8,347.3,145.3,533.4c-25,70.4-22.7,77.2,90.8,188.4l115.8,118l115.8-118c113.5-111.2,115.8-118,90.8-188.4c-63.6-186.1-13.6-376.8,145.3-533.4c229.3-231.5,519.8-231.5,749.1,0c231.5,229.3,231.5,519.8,0,749.1C5942.6-82.8,5752-32.8,5565.8-96.4c-70.4-25-77.2-22.7-188.4,90.8l-118,115.8l118,115.8c111.2,113.5,118,115.8,188.4,90.8c322.3-111.2,703.7,170.2,703.7,519.8c0,143-52.2,258.8-170.3,374.5c-118,120.3-231.5,170.2-379.1,170.2c-349.6,0-626.5-379.1-515.3-703.7c25-70.4,22.7-77.2-90.8-188.4l-115.8-118l-115.8,118c-113.5,111.2-115.8,118-90.8,188.4c63.6,186.1,13.6,376.8-145.3,533.4C4487.6,1372.3,4301.5,1417.7,4090.4,1351.9z"/></g></g>
</svg>