<?xml version="1.0" encoding="utf-8"?>
<!-- Svg Vector Icons : http://www.onlinewebfonts.com/icon -->
<!DOCTYPE svg PUBLIC "-//W3C//DTD SVG 1.1//EN" "http://www.w3.org/Graphics/SVG/1.1/DTD/svg11.dtd">
<svg version="1.1" xmlns="http://www.w3.org/2000/svg" xmlns:xlink="http://www.w3.org/1999/xlink" x="0px" y="0px" viewBox="0 0 1000 1000" enable-background="new 0 0 1000 1000" xml:space="preserve">
<metadata> Svg Vector Icons : http://www.onlinewebfonts.com/icon </metadata>
<g><g transform="translate(0.000000,511.000000) scale(0.100000,-0.100000)"><path d="M1332.5,4950.2L1275,4895v-531.1V3835H746.1H215l-55.2-57.5c-71.3-69-75.9-190.8-13.8-266.7c43.7-55.2,48.3-55.2,586.3-62.1l542.6-6.9v-390.9v-388.6H746.1H215l-55.2-57.5c-78.2-75.9-78.2-200,0-275.9l55.2-57.5h531.1H1275v-390.9v-390.9H769.1c-620.8,0-666.8-13.8-666.8-209.3c0-41.4,23-89.7,57.5-124.2l55.2-57.5h531.1H1275V710.1V319.2l-526.5-6.9c-522-6.9-528.9-6.9-586.3-62.1c-82.8-78.2-82.8-202.3,0-280.5c57.5-55.2,64.4-55.2,586.3-62.1l526.5-6.9v-390.9v-388.6H739.2c-531.1,0-538.1,0-586.3-52.9c-57.5-59.8-66.7-188.6-20.7-248.3c62.1-80.5,121.9-89.7,634.6-89.7H1275v-390.9v-390.9H746.1H215l-55.2-57.5c-71.3-69-75.9-190.8-13.8-266.7c43.7-55.2,48.3-55.2,586.3-62.1l542.6-6.9v-390.9v-388.6H746.1H215l-55.2-57.5c-78.2-75.9-78.2-200,0-275.9L215-3615h531.1H1275v-528.9V-4675l57.5-55.2c34.5-34.5,82.8-57.5,124.2-57.5c195.4,0,209.2,46,209.2,666.8v505.9h388.6h390.9l6.9-542.6c6.9-538.1,6.9-542.7,62.1-586.3c75.9-62.1,197.7-57.5,266.7,13.8l57.5,55.2v531.1v528.9h390.9h390.9v-508.2c0-512.8,9.2-572.5,89.7-634.6c62.1-48.3,181.6-34.5,243.7,27.6l57.5,55.2v531.1v528.9h388.6h390.9l6.9-526.6c6.9-521.9,6.9-528.9,62.1-586.3c78.2-82.8,202.3-82.8,280.5,0c55.2,57.5,55.2,64.4,62.1,586.3l6.9,526.6h390.9h388.6v-528.9V-4675l57.5-55.2c62.1-62.1,181.7-75.9,243.7-27.6c80.5,62.1,89.7,121.9,89.7,634.6v508.2h390.9h390.9v-528.9V-4675l57.5-55.2c34.5-34.5,82.8-57.5,124.2-57.5c195.4,0,209.2,46,209.2,666.8v505.9h388.6h390.9l6.9-542.6c6.9-538.1,6.9-542.7,62.1-586.3c75.9-62.1,197.7-57.5,266.7,13.8l57.5,55.2v531.1v528.9h528.9H9785l55.2,57.5c71.3,69,75.9,190.8,13.8,266.7c-43.7,55.2-48.3,55.2-586.3,62.1l-542.6,6.9v390.9v388.6h505.9c620.8,0,666.8,13.8,666.8,209.2c0,41.4-23,89.7-57.5,124.2l-55.2,57.5h-531.2H8725v390.9v390.9h508.2c512.8,0,572.6,9.2,634.6,89.7c48.3,62.1,34.5,181.7-27.6,243.7l-55.2,57.5h-531.2H8725v388.6v390.9l526.6,6.9c521.9,6.9,528.9,6.9,586.3,62.1c82.8,78.2,82.8,202.4,0,280.5c-57.5,55.2-64.4,55.2-586.3,62.1l-526.6,6.9v390.9v388.6h528.9H9785l55.2,57.5c62.1,62.1,75.9,181.6,27.6,243.7c-62.1,80.5-121.9,89.7-634.6,89.7H8725v390.9v390.9h528.9H9785l55.2,57.5c71.3,69,75.9,190.8,13.8,266.7c-43.7,55.2-48.3,55.2-586.3,62.1l-542.6,6.9v390.9v388.6h505.9c620.8,0,666.8,13.8,666.8,209.2c0,41.4-23,89.7-57.5,124.2L9785,3835h-531.2H8725v528.9V4895l-57.5,55.2c-75.9,78.2-200,78.2-275.9,0l-57.5-55.2v-531.1V3835h-388.6h-390.9l-6.9,542.6c-6.9,538.1-6.9,542.7-62.1,586.3c-75.9,62.1-197.7,57.5-266.7-13.8l-57.5-55.2v-531.1V3835h-390.9h-390.9v508.2c0,512.8-9.2,572.6-89.7,634.6c-62.1,48.3-195.4,36.8-250.6-23c-48.3-52.9-50.6-71.3-50.6-586.3V3835h-388.6h-390.9l-6.9,526.5c-6.9,522-6.9,528.9-62.1,586.3c-78.2,82.8-202.4,82.8-280.5,0c-55.2-57.5-55.2-64.4-62.1-586.3l-6.9-526.5h-390.9h-388.6v528.9V4895l-57.5,55.2c-34.5,34.5-82.8,57.5-124.2,57.5c-195.4,0-209.3-46-209.3-666.8V3835h-390.9h-390.9v528.9V4895l-57.5,55.2c-36.8,39.1-80.5,57.5-138,57.5s-101.2-18.4-138-57.5l-57.5-55.2v-531.1V3835h-388.6h-390.9l-6.9,542.6c-6.9,538.1-6.9,542.7-62.1,586.3C1523.3,5026.1,1401.5,5021.5,1332.5,4950.2z M8334.1,110v-3334.1H5000H1665.9V110v3334.1H5000h3334.1V110z"/><path d="M4816,2234.6C4719.5,2193.2,3004.1,494,2905.3,342.2c-75.9-117.3-89.7-273.6-34.5-400.1c18.4-41.4,446.1-485.2,981.8-1020.9c942.7-935.9,954.2-947.4,1062.3-963.4c234.5-32.2,216.2-46,1230.2,963.4c510.5,508.2,940.4,949.6,958.8,981.8c50.6,96.6,62.1,216.1,34.5,324.2c-23,89.7-126.5,202.3-961.2,1041.6c-528.8,528.9-968,952-1009.4,970.3C5071.3,2280.6,4917.2,2278.3,4816,2234.6z M5896.8,995.3L6782,110l-892.2-892.2L5000-1672l-889.9,889.9L3218,110l885.3,885.3c487.5,487.5,889.9,885.3,896.8,885.3S5409.3,1482.7,5896.8,995.3z"/></g></g>
</svg>