<?xml version="1.0" encoding="utf-8"?>
<!-- Svg Vector Icons : http://www.onlinewebfonts.com/icon -->
<!DOCTYPE svg PUBLIC "-//W3C//DTD SVG 1.1//EN" "http://www.w3.org/Graphics/SVG/1.1/DTD/svg11.dtd">
<svg version="1.1" xmlns="http://www.w3.org/2000/svg" xmlns:xlink="http://www.w3.org/1999/xlink" x="0px" y="0px" viewBox="0 0 1000 1000" enable-background="new 0 0 1000 1000" xml:space="preserve">
<metadata> Svg Vector Icons : http://www.onlinewebfonts.com/icon </metadata>
<g><g transform="translate(0.000000,512.000000) scale(0.100000,-0.100000)"><path d="M4876.4,4994.7c-42.2-15.3-107.3-61.3-147.6-105.4c-61.3-69-237.7-157.2-1619.5-806.9l-1548.6-730.2l-364.2,28.8c-199.3,15.3-369.9,23-375.7,15.3c-5.7-5.8-55.6-571.2-111.2-1257.3c-53.7-684.2-187.8-2357.4-299-3718.2C301.4-2938.2,213.3-4051.7,215.2-4055.5c3.8-3.9,8659.3-703.4,8896.9-718.7l74.8-5.8l302.8,3727.8c164.8,2048.8,299,3729.7,295.1,3731.6c-3.8,3.8-139.9,17.3-306.6,28.8l-299,23l-1912.8,971.7c-1805.4,920-1910.9,975.5-1922.4,1029.2c-21.1,103.5-90.1,189.7-193.6,241.5C5039.3,5029.2,4987.5,5033,4876.4,4994.7z M4753.7,4396.7c38.3-44.1,170.6-101.6,237.7-99.7c32.6,0,92,11.5,134.2,26.8l74.7,26.8l1498.8-760.9c824.1-417.8,1494.9-764.7,1491.1-768.6c-9.6-11.5-5891.7,465.7-5891.7,477.2c1.9,13.4,2380.4,1128.9,2407.3,1130.8C4717.3,4429.3,4740.3,4415.9,4753.7,4396.7z M3774.3,2809.8c4078.6-327.7,5625.3-454.2,5627.2-456.1c1.9-1.9-55.6-728.3-126.5-1613.8c-72.8-885.5-195.5-2393.8-272.1-3350.2c-76.7-958.3-145.7-1751.8-153.3-1763.3c-9.6-15.3-314.3,1.9-1121.2,67.1c-609.5,49.8-2460.9,199.3-4116.9,333.5c-1654,132.3-3011,243.4-3011,245.3c-3.8,1.9,544.3,6746.4,546.2,6748.4c1.9,1.9,30.7,0,65.2-3.8C1244.4,3012.9,2398.2,2919,3774.3,2809.8z"/><path d="M1830.9,2133.2c-5.8-49.8-103.5-1232.4-214.7-2627.7c-139.9-1736.5-197.4-2539.5-184-2549.1c11.5-5.7,433.1-46,937.2-86.3c504.1-40.2,2012.4-161,3350.2-270.2c1339.7-109.2,2436-195.5,2439.8-191.7c9.6,7.7,406.3,4952.5,412.1,5117.3l3.8,151.4l-3248.7,262.6c-1786.3,143.7-3302.3,266.4-3367.5,274.1l-116.9,9.6L1830.9,2133.2z M5058.4,1602.3C8263,1345.5,8180.6,1351.2,8194,1339.7c7.7-9.6-185.9-2501.2-214.6-2750.3l-11.5-97.7L6564.9-281.7c-770.5,674.6-1410.6,1230.4-1424,1236.2c-13.4,5.7-732.2-467.7-1600.4-1048.4c-866.3-582.6-1585-1061.8-1596.5-1065.6c-13.4-5.7-19.2,13.4-15.3,53.7c7.7,67.1,235.7,2919,235.7,2934.3c0,5.7,32.6,5.7,72.8,1.9C2275.5,1824.6,3546.2,1723,5058.4,1602.3z M5727.3-24.9C6064.7-320,6336.8-567.3,6331.1-575C6319.6-596,5988-783.9,5965-783.9c-11.5,0-226.2,99.7-477.2,220.4l-456.2,222.3l-421.7-153.3l-421.7-153.3l-187.8,138c-101.6,76.7-184,145.7-182.1,155.2c7.7,21.1,1263.1,872.1,1282.2,868.2C5108.3,511.8,5390,268.3,5727.3-24.9z M3808.8-812.6l312.4-239.6l435.1,155.3c237.7,86.2,442.7,157.2,454.2,157.2c9.6,0,230-101.6,488.8-226.2c256.8-124.6,477.2-226.1,488.7-226.1c9.6,0,159.1,84.3,331.6,185.9L6632-820.3l53.7-44.1c392.9-331.6,1247.7-1098.2,1247.7-1121.2c0-44.1-97.7-1222.8-101.6-1224.7c-1.9,0-304.8,23-674.7,53.7c-368,30.6-1721.1,139.9-3005.2,243.4c-1284.1,103.5-2338.3,193.6-2344,199.3c-5.7,5.7,9.6,249.2,34.5,544.3l44.1,532.8l793.5,532.8c437,291.3,799.2,530.9,805,530.9C3492.6-573,3636.3-682.3,3808.8-812.6z"/></g></g>
</svg>