<?xml version="1.0" encoding="utf-8"?>
<!-- Svg Vector Icons : http://www.onlinewebfonts.com/icon -->
<!DOCTYPE svg PUBLIC "-//W3C//DTD SVG 1.1//EN" "http://www.w3.org/Graphics/SVG/1.1/DTD/svg11.dtd">
<svg version="1.1" xmlns="http://www.w3.org/2000/svg" xmlns:xlink="http://www.w3.org/1999/xlink" x="0px" y="0px" viewBox="0 0 1000 1000" enable-background="new 0 0 1000 1000" xml:space="preserve">
<metadata> Svg Vector Icons : http://www.onlinewebfonts.com/icon </metadata>
<g><g transform="translate(0.000000,511.000000) scale(0.100000,-0.100000)"><path d="M674.2,2600.4c-279.5-101.4-491.9-342.6-553.2-627.8C105.7,1901.7,100,1339,100,106.4c0-1898.7-1.9-1871.9,97.6-2065.3c57.4-111,227.8-287.1,338.8-346.4c212.5-116.8-68.9-109.1,4463.6-109.1c4532.5,0,4251.1-7.7,4463.6,109.1c111,59.3,281.4,235.4,338.8,346.4c99.5,193.3,97.6,166.5,97.6,2065.3c0,1234.6-5.7,1795.4-21,1866.2c-53.6,250.7-231.6,474.7-467,591.4l-134,65.1l-4249.2,3.8C836.9,2636.7,777.6,2636.7,674.2,2600.4z M9289.4,2290.3c103.4-47.9,185.7-124.4,233.5-214.4l42.1-78.5l5.7-1845.2c5.7-2069.1,11.5-1960-132.1-2105.5c-149.3-147.4,235.4-135.9-4438.7-135.9c-4674.1,0-4289.4-11.5-4438.7,135.9c-143.6,145.5-137.8,36.4-132.1,2105.5l5.7,1845.2l42.1,78.5c68.9,128.2,176.1,204.8,331.1,237.3c36.4,7.7,1944.7,13.4,4239.6,11.5C8944.9,2322.8,9224.3,2320.9,9289.4,2290.3z"/><path d="M1573.8,1748.6v-239.3h162.7h162.7v239.3v239.3h-162.7h-162.7V1748.6z"/><path d="M3499.4,1363.9c-292.9-70.8-530.2-256.5-648.9-509.1c-204.8-432.6-134-742.7,292.8-1269c369.4-453.6,1060.4-1062.3,1205.9-1062.3c160.8,0,807.7,557,1181,1016.4c319.6,396.2,442.1,662.3,421.1,926.4c-26.8,363.7-218.2,654.6-534,811.6c-312,158.9-673.8,149.3-983.8-24.9l-84.2-45.9L4221,1272C3995.1,1386.9,3731,1419.4,3499.4,1363.9z M4027.7,1017.4c49.8-23,130.1-72.7,179.9-109.1c49.8-38.3,111-68.9,139.7-68.9c30.6,0,97.6,34.5,162.7,84.2c143.6,107.2,262.2,145.5,453.6,145.5c189.5,0,317.7-45.9,447.9-160.8c143.6-124.4,206.7-252.7,216.3-442.2c5.8-122.5,0-174.2-32.5-258.4c-91.9-239.3-509.2-723.5-1014.5-1179l-218.2-197.1l-78.5,55.5c-266,197.1-748.4,679.5-978.1,976.2c-252.7,331.1-310.1,580-189.5,832.6c68.9,145.5,229.7,289,388.5,348.4C3612.3,1084.4,3914.7,1067.2,4027.7,1017.4z"/><path d="M6646.1,353.3v-985.7l47.9-149.3c118.7-377.1,461.3-692.9,847.9-782.8c516.8-122.5,1081.4,187.6,1293.9,710.1c76.6,191.4,88,354.1,88,1303.5v888.1h-162.7h-162.7V399.2c0-614.4-7.7-970.4-21-1037.4c-70.8-335-333.1-578-671.8-625.9c-455.5-63.2-851.8,210.5-934.1,647c-11.5,61.3-19.1,478.5-19.1,1027.8v926.4h-153.1h-153.1V353.3z"/><path d="M1573.8-213.3v-1378.1h162.7h162.7v1378.1v1378.1h-162.7h-162.7V-213.3z"/></g></g>
</svg>