<?xml version="1.0" encoding="utf-8"?>
<!-- Svg Vector Icons : http://www.onlinewebfonts.com/icon -->
<!DOCTYPE svg PUBLIC "-//W3C//DTD SVG 1.1//EN" "http://www.w3.org/Graphics/SVG/1.1/DTD/svg11.dtd">
<svg version="1.1" xmlns="http://www.w3.org/2000/svg" xmlns:xlink="http://www.w3.org/1999/xlink" x="0px" y="0px" viewBox="0 0 1000 1000" enable-background="new 0 0 1000 1000" xml:space="preserve">
<metadata> Svg Vector Icons : http://www.onlinewebfonts.com/icon </metadata>
<g><g transform="translate(0.000000,511.000000) scale(0.100000,-0.100000)"><path d="M465.1,3690.8c-140.9-42.9-247.2-132.8-318.7-267.6c-36.8-69.4-38.8-190-44.9-3094.8c-4.1-2200,0-3056,16.3-3145.8c61.3-320.7,310.5-574,629.2-641.4c153.2-32.7,8352.8-32.7,8506,0c318.7,67.4,565.8,320.7,629.2,641.4c16.3,89.9,20.4,841.6,16.3,2737.3c-6.1,2506.5-8.2,2616.8-45,2686.2c-53.1,100.1-130.7,179.8-226.7,230.8c-71.5,38.8-122.6,45-390.2,51.1l-310.5,8.2l-8.2,226.7c-6.1,169.6-18.4,247.2-44.9,300.3c-51.1,100.1-130.7,179.8-226.7,230.8l-81.7,45l-4024.2,4.1C2326,3705,493.7,3698.9,465.1,3690.8z M8544.2,3331.2l51.1-49v-2819c0-2050.9,6.1-2833.3,22.5-2870.1c53.1-112.4,228.8-112.4,281.9,0c16.3,36.8,22.5,727.2,22.5,2510.5v2461.5h275.8c267.6,0,279.9-2,326.8-51.1l51.1-49V-135.3c0-1834.4-6.1-2624.9-22.5-2682.1c-30.6-112.4-204.3-283.9-316.6-314.6c-61.3-16.4-1250.2-20.4-4279.6-18.4c-3924.1,6.1-4199.9,8.2-4259.1,40.9c-83.8,44.9-183.8,145-228.8,228.8c-32.7,59.2-34.7,273.7-40.9,3113.1l-4.1,3049.9l49,49l51.1,51.1h3985.4h3985.4L8544.2,3331.2z"/><path d="M1445.6,2710.2c-140.9-42.9-247.2-132.8-318.7-267.6c-32.7-61.3-38.8-118.5-38.8-367.7s6.1-306.4,38.8-367.7c53.1-100.1,130.7-179.8,226.7-230.8l81.7-44.9h3074.3h3074.3l81.7,44.9c96,51.1,173.6,130.8,226.7,230.8c32.7,61.3,38.8,118.5,38.8,367.7s-6.1,306.4-38.8,367.7c-53.1,100.1-130.7,179.8-226.7,230.8l-81.7,44.9l-3043.7,4.1C2865.3,2724.5,1474.2,2718.4,1445.6,2710.2z M7563.7,2350.7c49-47,51.1-63.3,51.1-275.8c0-212.4-2-228.8-51.1-275.8l-49-51.1H4509.7H1504.8l-49,51.1c-49,47-51.1,63.3-51.1,275.8c0,212.5,2,228.8,51.1,275.8l49,51.1h3004.9h3004.9L7563.7,2350.7z"/><path d="M1165.7,743.1c-24.5-12.3-55.1-47-69.5-79.7c-30.6-75.6,4.1-167.5,75.6-200.2c73.5-32.7,6602.2-32.7,6675.7,0c73.5,34.7,106.2,124.6,73.5,204.3c-14.3,34.7-49,71.5-75.6,81.7C7772,775.7,1222.9,771.7,1165.7,743.1z"/><path d="M1445.6-231.3c-140.9-44.9-247.2-132.8-318.7-267.6c-36.8-65.4-38.8-130.7-38.8-858c0-766,2-788.5,44.9-868.2c51.1-96,130.7-173.6,230.8-226.7c67.4-36.8,132.8-38.8,1021.4-38.8c933.5,0,951.9,0,1031.6,44.9c96,51.1,173.6,130.8,226.7,230.8c36.8,65.4,38.8,130.7,38.8,858c0,727.2-2,792.6-38.8,858c-53.1,100.1-130.7,179.8-226.7,230.8c-79.7,45-102.1,45-1001,49C1911.3-217,1474.2-223.2,1445.6-231.3z M3314.7-590.9l51.1-49v-717v-717l-51.1-49l-49-51.1h-880.4h-880.4l-49,51.1l-51.1,49v717v717l51.1,49l49,51.1h880.4h880.4L3314.7-590.9z"/><path d="M4434.1-237.5c-24.5-12.2-55.1-47-69.4-79.7c-30.6-75.6,4.1-167.5,75.6-200.2c71.5-32.7,3335.8-32.7,3407.3,0c112.4,53.1,112.4,228.8,0,281.9C7778.1-204.8,4499.5-206.8,4434.1-237.5z"/><path d="M4430.1-1220c-106.2-53.1-96-239,12.3-281.9c75.6-28.6,3341.9-24.5,3405.3,4.1c63.3,28.6,100.1,116.4,81.7,190c-28.6,118.5,22.5,114.4-1789.5,114.4C4863.1-1193.5,4466.8-1199.6,4430.1-1220z"/><path d="M4432.1-2194.4c-57.2-24.5-91.9-110.3-75.6-187.9c28.6-122.6-28.6-118.5,1785.4-118.5c1186.8,0,1668.9,6.1,1705.7,22.5c73.5,34.7,106.2,124.6,73.5,204.3c-14.3,34.7-49,71.5-75.6,81.7C7780.2-2167.9,4493.4-2169.9,4432.1-2194.4z"/></g></g>
</svg>