<?xml version="1.0" encoding="utf-8"?>
<!-- Svg Vector Icons : http://www.onlinewebfonts.com/icon -->
<!DOCTYPE svg PUBLIC "-//W3C//DTD SVG 1.1//EN" "http://www.w3.org/Graphics/SVG/1.1/DTD/svg11.dtd">
<svg version="1.1" xmlns="http://www.w3.org/2000/svg" xmlns:xlink="http://www.w3.org/1999/xlink" x="0px" y="0px" viewBox="0 0 1000 1000" enable-background="new 0 0 1000 1000" xml:space="preserve">
<metadata> Svg Vector Icons : http://www.onlinewebfonts.com/icon </metadata>
<g><g transform="translate(0.000000,512.000000) scale(0.100000,-0.100000)"><path d="M1988.2,5002.1c-99.6-23-178.1-67-291-157c-541.9-440.4-819.5-1568.1-641.4-2607.8c21.1-126.4,55.5-291,76.6-365.7c47.9-168.5,47.9-229.8,0-398.3c-107.2-388.7-157-953.5-116.8-1361.3c59.4-603.1,264.2-1168,532.3-1464.7l101.5-111v-882.7V-3231l-90-38.3c-323.6-137.9-639.5-469.1-781.2-815.7c-53.6-135.9-105.3-375.3-105.3-494c0-72.8,9.6-99.6,55.5-145.5l55.5-55.5h1363.3h1361.3l46,47.9c42.1,40.2,47.9,63.2,47.9,178.1c0,494-358,1035.9-836.7,1263.7l-139.8,65.1v871.2v871.2l86.2,95.7c183.8,202.9,335.1,501.6,440.4,867.4c97.7,338.9,114.9,482.5,114.9,976.5c0,394.4-5.7,492.1-44,689.3c-23,126.4-55.5,271.9-70.8,323.6c-36.4,120.6-36.4,285.3,0,405.9c15.3,51.7,47.9,197.2,72.8,323.6c36.4,199.1,42.1,292.9,42.1,698.9c0,411.7-5.7,495.9-44,685.5C3026,4557.9,2530,5130.4,1988.2,5002.1z M2311.8,4651.8c296.8-137.9,515-574.4,608.9-1219.7c36.4-243.2,38.3-796.5,5.8-1022.4l-23-153.2l-758.2-5.7l-760.1-3.8l-11.5,61.3c-116.8,633.8-13.4,1499.2,231.7,1949.2C1808.2,4632.6,2057.1,4770.5,2311.8,4651.8z M2803.8,1869.7c-19.2-67-17.2-323.6,0-392.5l13.4-53.6h-664.4h-666.3v248.9v248.9h666.3h664.4L2803.8,1869.7z M2928.3,925.8c32.6-218.3,19.1-907.6-21.1-1129.7c-130.2-697-427-1135.4-769.7-1135.4c-113,0-264.2,74.7-356.1,172.3C1465.5-831.9,1279.8-37.3,1339.1,720.9c11.5,158.9,28.7,310.2,34.5,335.1l11.5,42.1l760.1-3.8l758.2-5.7L2928.3,925.8z M2304.1-2541.7c5.7-993.7-3.8-930.5,172.3-984.1c382.9-113,672.1-407.8,769.7-788.9c17.2-65.1,30.6-122.5,30.6-128.3c0-5.7-107.2-11.5-239.3-11.5h-239.3v193.4c0,187.6-1.9,193.4-55.5,248.9c-63.2,61.3-111.1,68.9-191.5,26.8c-72.8-36.4-78.5-57.4-78.5-279.5v-189.6H2396h-76.6v160.8c0,193.4-24.9,271.9-97.7,308.3c-80.4,42.1-128.3,34.5-191.5-26.8c-53.6-55.5-55.5-61.3-55.5-248.9v-193.4h-76.6h-76.6v193.4c0,187.6-1.9,193.4-55.5,248.9c-88.1,88.1-203,70.8-260.4-40.2c-19.1-38.3-28.7-111.1-28.7-229.8v-172.3h-229.8c-262.3,0-252.7-7.7-199.1,174.2c49.8,168.5,134,314,254.6,442.3c132.1,139.8,264.2,225.9,474.8,304.4c82.3,30.6,160.8,68.9,174.2,88.1c17.2,24.9,23,237.4,23,903.7v873.1h162.7h160.8L2304.1-2541.7z"/><path d="M1923.1,3834.2c-128.3-49.8-287.2-195.3-360-327.4c-51.7-91.9-57.4-118.7-57.4-273.8c0-141.7,7.7-187.6,44-262.3c67-134,178.1-250.8,314-323.6c109.1-59.4,135.9-65.1,273.8-65.1c189.6,0,291,42.1,440.4,183.8c147.4,137.9,208.7,271.9,208.7,457.6c1.9,116.8-7.7,162.8-49.8,252.7c-63.2,134-189.6,264.2-325.5,333.2C2271.6,3880.1,2066.7,3891.6,1923.1,3834.2z M2332.8,3499.1c86.2-65.1,122.5-130.2,132.1-239.3c26.8-268.1-235.5-442.3-484.4-321.7c-116.8,57.4-164.7,155.1-155.1,317.8c7.7,135.9,46,201,149.3,258.5C2064.8,3564.2,2258.2,3554.6,2332.8,3499.1z"/><path d="M5823.3,1571c-74.7-38.3-95.7-101.5-95.7-294.9v-178.1h-113c-103.4,0-118.7-5.7-162.7-59.4l-49.8-59.4V550.5V121.6h-595.5h-595.5l-55.5-55.5l-55.5-55.5v-517v-517L4349-2844.3c135.9-1001.4,256.6-1838.1,268.1-1859.2c11.5-21.1,36.4-46,57.4-57.5c23-13.4,712.3-19.1,2048.7-19.1h2012.3l44.1,44c24.9,24.9,49.8,74.7,55.5,111.1c7.7,36.4,120.6,857.8,252.7,1828.5l239.3,1761.5v522.7V10.6l-55.5,55.5l-55.5,55.5h-595.5h-595.5v428.9v428.9l-49.8,59.4c-44.1,53.6-59.4,59.4-160.8,59.4h-111l-7.7,203c-5.7,195.3-7.6,204.9-59.3,248.9l-53.6,45.9h-855.9C6079.9,1595.9,5859.7,1590.2,5823.3,1571z M7364.6,1184.3v-76.6h-651h-651l-5.7,53.6c-13.4,114.9-44,111,660.6,105.3l647.2-5.7V1184.3z M7699.7,447.1V121.6h-986.1h-986.1v325.5v325.5h986.1h986.1V447.1z M9001.7-529.4v-325.5h-2288H4425.6v325.5v325.5h2288.1h2288V-529.4z M5899.9-1959.7c9.6-764,9.6-771.6,51.7-813.8c32.6-30.6,72.8-44,158.9-49.8l114.9-7.7v-553.3c0-430.8-5.7-553.4-23-553.4c-13.4,0-67,21.1-120.6,46c-189.6,90-319.8,289.1-344.6,528.4c-17.2,153.2-61.3,210.6-160.8,210.6c-168.5-1.9-210.6-147.4-122.5-430.8c93.8-304.4,375.3-580.1,683.6-670.1c76.6-23,78.5-26.8,84.2-113l5.7-88.1l-664.4,3.8l-666.3,5.7l-216.4,1579.6c-118.7,869.3-216.4,1602.6-216.4,1633.2v51.7l714.2-3.8l712.3-5.7L5899.9-1959.7z M8965.3-1190c5.8-3.8-90-739.1-212.5-1631.3l-220.2-1623.7l-666.3-5.7l-664.4-3.8v478.7c0,369.5,5.7,478.7,24.9,478.7c63.2,0,224-99.6,304.5-189.6c95.7-107.2,141.7-214.4,160.8-390.6c17.2-139.8,63.2-204.9,151.3-204.9c91.9,0,122.5,15.3,155.1,82.3c53.6,101.5-3.8,363.8-120.6,562.9c-113,195.3-367.6,390.6-587.8,455.7l-78.5,23l-5.7,162.8l-5.8,164.7l118.7,7.7c99.6,7.6,126.4,17.2,164.7,61.3l44,51.7v752.5c0,413.6,5.8,758.2,13.4,764C7554.2-1178.5,8951.9-1174.6,8965.3-1190z M7201.9-1844.8v-647.2h-488.2h-488.2v647.2v645.3h488.2h488.2V-1844.8z M6876.4-3640.8v-813.8h-162.8h-162.8v813.8v813.7h162.8h162.8V-3640.8z"/></g></g>
</svg>