<?xml version="1.0" encoding="utf-8"?>
<!-- Svg Vector Icons : http://www.onlinewebfonts.com/icon -->
<!DOCTYPE svg PUBLIC "-//W3C//DTD SVG 1.1//EN" "http://www.w3.org/Graphics/SVG/1.1/DTD/svg11.dtd">
<svg version="1.1" xmlns="http://www.w3.org/2000/svg" xmlns:xlink="http://www.w3.org/1999/xlink" x="0px" y="0px" viewBox="0 0 1000 1000" enable-background="new 0 0 1000 1000" xml:space="preserve">
<metadata> Svg Vector Icons : http://www.onlinewebfonts.com/icon </metadata>
<g><path d="M139.3,568c18.8,0,34.1-15.3,34.1-34c0-18.9-15.3-34.1-34.1-34.1c-18.7,0-34,15.3-34,34.1C105.3,552.8,120.6,568,139.3,568z M248.2,568c18.7,0,34-15.3,34-34c0-18.9-15.3-34.1-34-34.1c-18.8,0-34.1,15.3-34.1,34.1C214.1,552.8,229.4,568,248.2,568z M105.3,350.3H187c15,0,27.2-12.2,27.2-27.3l34-68h47.7c7.5,0,13.7-6.1,13.7-13.7v-13.5c0-7.6-6.1-13.7-13.7-13.7H64.5c-15.1,0-27.3,12.2-27.3,27.2L78,323C78,338.1,90.2,350.3,105.3,350.3z M105.3,255H187c7.5,0,13.6,6.1,13.6,13.7L187,295.8c0,7.5-6.1,13.7-13.7,13.7h-54.5c-7.5,0-13.5-6.1-13.5-13.7l-13.7-27.1C91.6,261,97.7,255,105.3,255z M649.7,704.1h13.7c7.5,0,13.7-6.1,13.7-13.7v-54.4c0-7.6-6.2-13.7-13.7-13.7h-13.7c-7.5,0-13.6,6.1-13.6,13.7v54.4C636.2,698.1,642.2,704.1,649.7,704.1z M935.6,64.4H608.8c-30,0-54.4,24.3-54.4,54.4V881c0,30.1,24.4,54.6,54.4,54.6h326.8c30,0,54.4-24.4,54.4-54.6V118.8C990,88.7,965.6,64.4,935.6,64.4z M949.1,867.5c0,14.9-12.1,27.3-27.3,27.3H622.5c-15,0-27.2-12.3-27.2-27.3V568h353.8V867.5z M949.1,527.2H595.3V132.5c0-15,12.2-27.2,27.2-27.2h299.4c15.2,0,27.3,12.2,27.3,27.2V527.2z M377.5,622.5h-245c-15,0-27.2,12.2-27.2,27.1V813c0,15,12.2,27.1,27.2,27.1h245c15,0,27.2-12.1,27.2-27.1V649.6C404.7,634.7,392.5,622.5,377.5,622.5z M391.2,791.2c0,19.6-15.3,35.4-34.1,35.4H152.9c-18.9,0-34.1-15.8-34.1-35.4V671.4c0-19.5,15.3-35.3,34.1-35.3H357c18.9,0,34.1,15.8,34.1,35.3L391.2,791.2L391.2,791.2z M663.4,391.1h-13.7c-7.5,0-13.6,6.1-13.6,13.5v54.5c0,7.5,6.1,13.7,13.6,13.7h13.7c7.5,0,13.7-6.2,13.7-13.7v-54.5C677,397.2,670.8,391.1,663.4,391.1z M445.5,391.1H64.5c-30.1,0-54.5,24.3-54.5,54.4V881c0,30.1,24.4,54.6,54.5,54.6h381.1c30.1,0,54.5-24.4,54.5-54.6V445.5C500,415.4,475.6,391.1,445.5,391.1z M459.1,867.5c0,14.9-12.2,27.3-27.2,27.3H78c-15,0-27.2-12.3-27.2-27.3V459.1c0-15,12.2-27.2,27.2-27.2H432c15,0,27.2,12.2,27.2,27.2V867.5z M370.7,500c-18.8,0-34.1,15.3-34.1,34.1c0,18.7,15.3,34,34.1,34c18.7,0,34-15.3,34-34C404.7,515.2,389.4,500,370.7,500z"/></g>
</svg>