<?xml version="1.0" encoding="utf-8"?>
<!-- Svg Vector Icons : http://www.onlinewebfonts.com/icon -->
<!DOCTYPE svg PUBLIC "-//W3C//DTD SVG 1.1//EN" "http://www.w3.org/Graphics/SVG/1.1/DTD/svg11.dtd">
<svg version="1.1" xmlns="http://www.w3.org/2000/svg" xmlns:xlink="http://www.w3.org/1999/xlink" x="0px" y="0px" viewBox="0 0 1000 1000" enable-background="new 0 0 1000 1000" xml:space="preserve">
<metadata> Svg Vector Icons : http://www.onlinewebfonts.com/icon </metadata>
<g><g transform="translate(0.000000,511.000000) scale(0.100000,-0.100000)"><path d="M2126.2,4972.7c-774.6-138.8-1440.7-666.1-1738.4-1370c-143.8-345.7-174.1-504.6-174.1-926c2.5-444.1,45.4-645.9,222-1009.2c239.7-489.5,618.1-865.4,1102.6-1087.4c136.2-63.1,148.9-75.7,138.8-133.7c-22.7-108.5-570.2-4004.1-570.2-4049.5c0-22.7,27.8-70.6,63.1-103.4c58-60.6,73.2-63.1,423.9-63.1h363.3l17.7-128.7c65.6-489.5,408.7-799.8,976.4-880.6c199.3-27.7,509.7-2.5,721.6,63.1c199.3,60.6,428.9,229.6,550,403.7c55.5,83.3,151.4,270,209.4,413.8c131.2,330.5,191.8,418.8,323,481.9c267.4,131.2,605.5,20.2,1352.3-436.5c885.6-542.5,1337.2-701.4,1907.4-666.1c633.3,37.8,1120.2,307.8,1332.2,739.2c287.6,577.8,2.5,1226.2-693.8,1584.5c-413.8,214.5-923.4,317.9-1546.7,317.9c-333,0-373.4-5-433.9-53c-90.8-70.6-93.3-224.5-2.5-295.2c55.5-42.9,116-50.5,560.1-63.1c428.9-10.1,534.9-20.2,751.9-78.2c668.6-174.1,1072.3-534.9,1072.3-963.8c0-282.6-156.5-499.6-466.8-645.9c-234.7-108.5-487-153.9-769.5-138.8c-446.6,25.2-749.4,146.3-1463.4,580.3c-852.8,514.7-1190.9,630.8-1594.6,545c-290.2-63.1-446.6-201.9-600.5-539.9c-58-123.6-133.7-292.7-171.6-375.9c-146.3-317.9-428.9-479.4-837.7-479.4c-252.3,0-375.9,30.3-534.9,136.3c-128.7,85.8-247.3,282.6-247.3,408.7v70.6h413.8c517.2,0,512.2-2.5,560.1,315.4c32.8,217,30.3,227.1-27.8,350.7c-146.3,315.4-95.9,592.9,176.6,971.4c80.7,111,85.8,287.6,10.1,431.5c-27.7,55.5-58,166.5-65.6,247.2c-20.2,232.1,45.4,416.3,257.4,701.4c22.7,30.3,45.4,108.5,53,176.6c12.6,100.9,5,146.3-42.9,237.2c-50.5,93.4-60.5,151.4-60.5,328c0,191.7,10.1,234.6,83.3,383.5c45.4,93.3,113.5,194.3,151.4,227.1c60.6,50.5,446.6,143.8,2364.1,570.2c1352.3,302.8,2311.1,527.3,2336.3,550c37.8,32.8,90.8,25.2,497-78.2c537.4-133.7,587.9-138.8,658.6-47.9c50.5,65.6,53,93.3,53,1100.1v1031.9l-63.1,60.6c-32.8,35.3-78.2,63.1-100.9,63.1c-20.2,0-249.8-53-507.1-116.1c-451.6-113.5-469.3-116.1-547.5-75.7c-45.4,22.7-1180.8,285.1-2528.1,582.8c-1344.8,300.2-2578.6,582.8-2737.5,630.8C2827.7,5015.6,2507.2,5043.4,2126.2,4972.7z M3115.3,4511c126.2-42.9,744.3-191.8,1375.1-333c630.8-141.3,1725.8-386,2437.3-545c711.5-158.9,1299.4-287.6,1307-287.6c7.5,0,10.1-297.7,7.5-661l-7.5-663.6l-315.4-68.1c-1140.4-247.3-4269-953.7-4291.7-968.8c-15.1-7.6-40.4-45.4-58-83.3c-15.1-35.3-73.2-131.2-126.2-211.9C3312.1,484.2,3249,292.5,3233.8,40.2c-12.6-184.2-5-239.7,50.5-403.7l63.1-186.7l-58-78.2c-249.8-333-325.5-794.8-186.7-1160.6l50.5-138.8l-63.1-83.3c-244.7-320.4-323-827.6-179.1-1173.2c83.3-191.8,123.6-181.7-671.1-181.7h-709l15.1,70.6c27.8,131.2,550,3852.7,552.5,3933.5c2.5,106-78.2,191.7-217,232.1c-262.4,78.2-618.1,323-825,570.2c-292.7,348.2-428.9,703.9-446.6,1148C584.6,3176.3,761.3,3628,1170,4039.2c408.7,406.2,840.2,575.2,1425.5,557.6C2837.7,4589.2,2926,4574.1,3115.3,4511z M9372.5,1990.5c-7.6-7.6-272.5,53-628.3,146.3l-93.3,25.2l5,522.3l7.6,522.3l353.2,90.8l353.2,88.3l7.5-691.3C9380,2313.4,9380,1995.5,9372.5,1990.5z"/><path d="M2128.8,3622.9c-287.6-93.4-537.4-348.2-630.8-643.4c-32.8-106-40.4-196.8-32.8-348.2c12.6-259.9,93.3-444.1,270-630.8c469.3-497,1276.7-373.4,1599.6,244.7c75.7,146.3,80.7,169,80.7,431.4c0,247.3-7.6,292.7-65.6,418.8C3132.9,3554.8,2615.7,3779.3,2128.8,3622.9z M2683.8,3221.7c350.7-161.5,461.7-590.4,229.6-893.2c-153.9-201.8-386-280.1-625.7-209.4c-264.9,78.2-423.9,285.1-423.9,552.5c0,247.3,126.2,451.6,340.6,550C2335.7,3282.3,2552.6,3282.3,2683.8,3221.7z"/><path d="M4629.1,3405.9c-47.9-47.9-50.5-95.9-7.6-131.2c15.1-15.1,398.6-98.4,845.2-184.2c830.1-161.5,890.7-166.5,905.8-70.6c5.1,20.2-2.5,50.5-15.1,70.6c-12.6,20.2-335.6,93.4-850.3,194.3c-456.7,88.3-832.6,161.5-835.1,161.5C4669.5,3446.3,4649.3,3428.6,4629.1,3405.9z"/><path d="M4614,2755c-15.1-20.2-25.2-63.1-20.2-95.9l7.6-58h883.1h883.1l7.5,58c20.2,131.2,12.6,131.2-890.6,131.2C4783,2790.3,4639.2,2785.2,4614,2755z"/><path d="M5436.5,2273.1c-499.6-98.4-812.4-171.6-825-191.8c-12.6-20.2-20.2-50.5-15.1-70.6c15.1-95.9,75.7-90.8,905.8,70.6c446.6,85.8,830.1,169,845.2,184.2c17.7,15.1,32.8,40.4,32.8,60.6c0,40.4-70.7,111-108.5,108.5C6254,2432,5880.5,2358.9,5436.5,2273.1z"/></g></g>
</svg>