<?xml version="1.0" encoding="utf-8"?>
<!-- Svg Vector Icons : http://www.onlinewebfonts.com/icon -->
<!DOCTYPE svg PUBLIC "-//W3C//DTD SVG 1.1//EN" "http://www.w3.org/Graphics/SVG/1.1/DTD/svg11.dtd">
<svg version="1.1" xmlns="http://www.w3.org/2000/svg" xmlns:xlink="http://www.w3.org/1999/xlink" x="0px" y="0px" viewBox="0 0 1000 1000" enable-background="new 0 0 1000 1000" xml:space="preserve">
<metadata> Svg Vector Icons : http://www.onlinewebfonts.com/icon </metadata>
<g><g transform="translate(0.000000,511.000000) scale(0.100000,-0.100000)"><path d="M437.3,4978c-98.8-31.6-282.5-221.2-312.1-322c-33.6-118.5-33.6-5506.9,0-5625.4c31.6-108.6,215.3-292.3,323.9-323.9c49.4-13.8,213.3-23.7,420.7-23.7h337.8v-316v-316H654.5H101.5v-158v-158h2686.3h2686.3v-1129.8c0-1268.1-5.9-1206.8,144.2-1327.3l77-61.2h884.9h884.9l75.1,59.3c154.1,126.4,146.2,59.3,146.2,1327.3v1131.8h1106.1h1106.1v158v158h-553.1h-553.1v316v316h337.8c207.4,0,371.4,9.9,420.7,23.7c108.6,31.6,292.3,215.3,323.9,323.9c33.6,118.5,33.6,5506.9,0,5625.4c-31.6,108.6-215.3,292.3-323.9,323.9C9438.3,5011.6,541.9,5011.6,437.3,4978z M9543,4648.2c39.5-39.5,39.5-65.2,39.5-2804.8s0-2765.3-39.5-2804.8c-37.5-37.5-65.2-39.5-948.1-39.5h-908.6v158v158h790.1h790.1v2528.3v2528.3H5000H733.5V1843.4V-684.9h2370.3h2370.3v-158v-158H2985.3c-2463.1,0-2488.8,0-2528.3,39.5c-39.5,39.5-39.5,65.2-39.5,2804.8s0,2765.3,39.5,2804.8c39.5,39.5,65.2,39.5,4543,39.5C9477.8,4687.7,9503.5,4687.7,9543,4648.2z M8950.4,1843.4V-368.9h-632.1h-632.1v270.6c0,248.9-4,274.5-47.4,349.6c-25.7,45.4-82.9,100.7-126.4,126.4c-77,43.5-84.9,43.5-932.3,43.5s-855.3,0-932.3-43.5c-43.5-25.7-100.7-81-126.4-126.4c-43.4-75.1-47.4-100.7-47.4-349.6v-270.6H3261.8H1049.6v2212.2v2212.2H5000h3950.4V1843.4z M7370.3-2186.1v-2291.2h-790.1h-790.1v2291.2V105.2h790.1h790.1V-2186.1z M2313.7-1633v-316h-395h-395v316v316h395h395V-1633z M5474.1-1633v-316H4051.9H2629.7v316v316h1422.2h1422.2V-1633z M8476.4-1633v-316h-395h-395v316v316h395h395V-1633z"/><path d="M6106.1-368.9v-158h158h158v158v158h-158h-158V-368.9z"/><path d="M6738.2-368.9v-158h158h158v158v158h-158h-158V-368.9z"/><path d="M6106.1-1000.9v-158h158h158v158v158h-158h-158V-1000.9z"/><path d="M6738.2-1000.9v-158h158h158v158v158h-158h-158V-1000.9z"/><path d="M6106.1-1633v-158h158h158v158v158h-158h-158V-1633z"/><path d="M6738.2-1633v-158h158h158v158v158h-158h-158V-1633z"/><path d="M6402.4-2296.7c-282.5-102.7-476-383.2-448.4-651.8c13.8-128.4,110.6-322,205.4-402.9c130.4-114.6,256.8-165.9,420.7-165.9c124.4-2,163.9,7.9,250.9,53.3c148.1,77,227.1,154.1,304.2,294.3c59.3,110.6,67.2,140.2,65.2,272.6c0,163.9-51.4,290.4-165.9,420.7C6888.3-2308.5,6596-2225.6,6402.4-2296.7z M6773.7-2632.5c86.9-65.2,126.4-160,116.5-290.3c-11.9-197.5-130.4-298.3-335.8-284.4c-197.5,11.9-298.3,130.4-284.4,335.8c7.9,130.4,51.4,203.4,154.1,256.8C6513-2567.3,6696.7-2577.1,6773.7-2632.5z"/></g></g>
</svg>