<?xml version="1.0" encoding="utf-8"?>
<!-- Svg Vector Icons : http://www.onlinewebfonts.com/icon -->
<!DOCTYPE svg PUBLIC "-//W3C//DTD SVG 1.1//EN" "http://www.w3.org/Graphics/SVG/1.1/DTD/svg11.dtd">
<svg version="1.1" xmlns="http://www.w3.org/2000/svg" xmlns:xlink="http://www.w3.org/1999/xlink" x="0px" y="0px" viewBox="0 0 1000 1000" enable-background="new 0 0 1000 1000" xml:space="preserve">
<metadata> Svg Vector Icons : http://www.onlinewebfonts.com/icon </metadata>
<g><g transform="translate(0.000000,511.000000) scale(0.100000,-0.100000)"><path d="M156.7,2412.5l-56.7-54.4V110v-2248.1l56.7-54.5l54.4-56.7h1522.2h1522.2l54.4,56.7l56.7,54.5l56.7-54.5l54.4-56.7H5000h1522.2l54.5,56.7l56.7,54.5l56.7-54.5l54.5-56.7h1522.2h1522.2l54.5,56.7l56.7,54.5V110v2248.1l-56.7,54.4l-54.5,56.7H8266.7H6744.5l-54.5-56.7l-56.7-54.4V1269.2V180.3l-56.7,54.4l-54.5,56.7H5000H3477.8l-54.4-56.7l-56.7-54.4v1088.9v1088.9l-56.7,54.4l-54.4,56.7H1733.3H211.2L156.7,2412.5z M3003.7,110v-1996.3H1733.3H463V110v1996.3h1270.4h1270.4V110z M9537,110v-1996.3H8266.7H6996.3V110v1996.3h1270.4H9537V110z M6270.4-978.9v-907.4H5000H3729.6v907.4v907.4H5000h1270.4V-978.9z"/><path d="M1551.9,1713.8c-43.1-13.6-131.6-77.1-192.8-140.7c-161.1-158.8-206.4-328.9-142.9-542.2c36.3-124.8,224.6-313.1,349.4-349.4c213.2-63.5,383.4-18.2,542.2,142.9c231.4,229.1,231.4,519.5,0,748.6C1948.8,1734.3,1762.8,1779.6,1551.9,1713.8z M1858.1,1323.7c113.4-111.2,34-306.3-124.8-306.3c-93,0-181.5,88.5-181.5,181.5c0,93,88.5,181.5,181.5,181.5C1776.4,1380.4,1824.1,1360,1858.1,1323.7z"/><path d="M1520.1,268.8C1377.2,232.5,1173,110,1073.2,3.4c-49.9-54.4-124.8-167.9-163.3-251.8c-65.8-138.4-72.6-172.4-72.6-369.8c0-204.2,4.5-224.6,83.9-387.9c102.1-206.4,233.7-333.5,444.6-433.3c138.4-65.8,172.4-72.6,367.5-72.6c195.1,0,229.1,6.8,367.5,72.6c211,99.8,342.5,226.9,444.6,433.3c79.4,163.3,83.9,183.8,83.9,390.2s-4.5,226.9-83.9,390.2C2391.2,82.8,2119,266.5,1783.2,282.4C1688,286.9,1570,280.1,1520.1,268.8z M1901.2-98.7C2026-135,2214.3-323.3,2250.6-448c63.5-213.3,18.2-383.4-142.9-542.2c-229.1-231.4-519.5-231.4-748.6,0c-231.4,229.1-231.4,519.5,0,748.6C1517.8-80.6,1688-37.5,1901.2-98.7z"/><path d="M8085.2,1713.8c-111.2-36.3-301.7-231.4-335.7-347.1c-63.5-213.2-18.1-383.4,142.9-542.2c115.7-118,231.4-170.1,374.3-170.1c281.3,0,544.4,263.2,544.4,544.4c0,142.9-52.2,258.6-170.1,374.3C8482.2,1734.3,8296.2,1779.6,8085.2,1713.8z M8391.4,1323.7c36.3-34,56.7-81.7,56.7-124.8c0-43.1-20.4-90.7-56.7-124.8c-34-36.3-81.7-56.7-124.8-56.7c-43.1,0-90.7,20.4-124.8,56.7c-36.3,34-56.7,81.7-56.7,124.8c0,43.1,20.4,90.7,56.7,124.8c34,36.3,81.7,56.7,124.8,56.7C8309.8,1380.4,8357.4,1360,8391.4,1323.7z"/><path d="M8053.4,268.8C7910.5,232.5,7706.3,110,7606.5,3.4c-49.9-54.4-124.8-167.9-163.3-251.8c-65.8-138.4-72.6-172.4-72.6-369.8c0-204.2,4.5-224.6,83.9-387.9c102.1-206.4,233.7-333.5,444.6-433.3c138.4-65.8,172.4-72.6,367.5-72.6c195.1,0,229.1,6.8,367.5,72.6c211,99.8,342.5,226.9,444.6,433.3c79.4,163.3,83.9,183.8,83.9,390.2s-4.5,226.9-83.9,390.2c-154.2,308.5-426.5,492.3-762.2,508.2C8221.3,286.9,8103.3,280.1,8053.4,268.8z M8434.5-98.7c195.1-59,376.6-308.5,376.6-517.2c0-281.3-263.1-544.4-544.4-544.4c-281.3,0-544.4,263.1-544.4,544.4c0,142.9,52.2,258.6,170.1,374.3C8051.2-80.6,8221.3-37.5,8434.5-98.7z"/><path d="M3911.1-615.9v-363H5000h1088.9v363v363H5000H3911.1V-615.9z"/><path d="M4149.3-1217.1c-36.3-34-56.7-81.7-56.7-124.8c0-43.1,20.4-90.7,56.7-124.8c52.2-54.5,70.3-56.7,306.3-56.7s254.1,2.3,306.3,56.7c36.3,34,56.7,81.7,56.7,124.8c0,43.1-20.4,90.7-56.7,124.8c-52.2,54.5-70.3,56.7-306.3,56.7S4201.5-1162.6,4149.3-1217.1z"/><path d="M5238.2-1217.1c-36.3-34-56.7-81.7-56.7-124.8c0-43.1,20.4-90.7,56.7-124.8c52.2-54.5,70.3-56.7,306.3-56.7c235.9,0,254.1,2.3,306.3,56.7c36.3,34,56.7,81.7,56.7,124.8c0,43.1-20.4,90.7-56.7,124.8c-52.2,54.5-70.3,56.7-306.3,56.7C5308.5-1160.4,5290.4-1162.6,5238.2-1217.1z"/></g></g>
</svg>