<?xml version="1.0" encoding="utf-8"?>
<!-- Svg Vector Icons : http://www.onlinewebfonts.com/icon -->
<!DOCTYPE svg PUBLIC "-//W3C//DTD SVG 1.1//EN" "http://www.w3.org/Graphics/SVG/1.1/DTD/svg11.dtd">
<svg version="1.1" xmlns="http://www.w3.org/2000/svg" xmlns:xlink="http://www.w3.org/1999/xlink" x="0px" y="0px" viewBox="0 0 1000 1000" enable-background="new 0 0 1000 1000" xml:space="preserve">
<metadata> Svg Vector Icons : http://www.onlinewebfonts.com/icon </metadata>
<g><g transform="translate(0.000000,511.000000) scale(0.100000,-0.100000)"><path d="M5956.3,4985.6c-265-63.3-551.8-288.8-680.4-534c-96.9-185.9-122.6-328.3-122.6-694.2V3435h-949.3h-949.3V1773.6V112.3H2859h-395.6v-316.4v-316.4h-79.1h-77.1l-5.9,1291.5c-5.9,1275.7-7.9,1291.5-49.4,1404.2c-138.4,365.9-397.5,617.1-757.5,737.7c-75.2,25.7-166.1,37.6-296.7,37.6c-480.6,0-895.9-314.5-1060.1-801C102,2044.6,100,1922,100-678.8c0-2604.8,2-2723.4,37.6-2828.3c130.5-385.7,433.1-678.4,801-773.3l100.9-25.7v-243.3v-243.3h553.8H2147v237.3v237.3h3085.4h3085.4v-237.3v-237.3h553.8h553.8v237.3v237.3h237.3H9900v2215.1V112.3h-395.6h-395.6v1661.4V3435h-949.3h-949.3v322.4c0,494.5-67.3,696.2-316.4,943.4C6630.7,4963.8,6292.5,5066.7,5956.3,4985.6z M6430.9,4659.2c112.7-35.6,152.3-61.3,257.1-164.2c176-176,205.7-278.9,205.7-725.9V3435h-712h-712v334.2c0,447,29.7,549.8,205.7,725.9c100.9,100.9,146.3,130.5,251.2,164.2C6092.7,4710.7,6262.8,4710.7,6430.9,4659.2z M8792.4,1140.7V-837.1H6181.7H3571v1977.8v1977.8h2610.7h2610.7V1140.7z M1498.3,2592.4c207.7-83.1,365.9-245.2,443-450.9c35.6-96.9,37.6-195.8,37.6-2820.3c0-2624.5-2-2723.4-37.6-2820.3c-108.8-292.7-360-474.7-684.3-496.4c-379.7-27.7-704.1,183.9-810.9,526.1c-39.6,122.6-39.6,185.9-39.6,2778.8c0,1677.2,7.9,2683.9,19.8,2737.3c65.3,280.8,267,488.5,553.8,571.6C1100.8,2653.8,1379.6,2637.9,1498.3,2592.4z M3254.6-678.8v-474.7h2927.1h2927.1v474.7v474.7h237.3h237.3v-1898.7v-1898.7H6181.7H2779.9v1898.7v1898.7h237.3h237.3V-678.8z M2463.5-2419.3v-1582.2h-249.2H1967l87,114.7c98.9,124.6,136.5,193.8,197.8,358c41.5,108.8,43.5,140.4,49.4,1402.2l5.9,1289.5h77.1h79.1V-2419.3z M1830.6-4397.1v-79.1h-237.3h-237.3v79.1v79.1h237.3h237.3V-4397.1z M9108.9-4397.1v-79.1h-237.3h-237.3v79.1v79.1h237.3h237.3V-4397.1z"/><path d="M6067,4362.6c-37.6-9.9-104.8-59.3-152.3-106.8c-144.4-144.4-162.2-324.4-49.4-480.6c172.1-239.3,482.6-229.4,646.7,19.8c112.7,168.1,55.4,397.5-128.6,520.2C6298.4,4370.5,6162,4392.2,6067,4362.6z M6251,3988.8c0-65.3-4-69.2-69.2-69.2c-57.4,0-71.2,7.9-75.2,45.5c-11.9,79.1,9.9,106.8,79.1,98.9C6245,4058,6251,4052.1,6251,3988.8z"/><path d="M5956.3,2770.4c-502.4-120.7-868.2-652.7-787.2-1139.2c49.4-290.7,247.2-583.4,494.5-727.8l118.7-71.2L5649.7,765c-87-43.5-183.9-120.6-290.7-225.5C5105.8,288.3,4997,15.4,4995.1-356.5v-164.2h1186.7h1186.7v164.2c-2,371.8-110.8,644.8-363.9,895.9c-106.8,104.8-203.7,182-290.7,225.5l-132.5,67.2l118.7,71.2c346.1,203.7,557.7,636.9,494.5,1014.6C7097.5,2501.5,6510,2904.9,5956.3,2770.4z M6430.9,2444.1c112.7-35.6,152.3-61.3,257.1-164.2c102.9-104.8,128.6-144.4,164.2-257.1c187.9-609.2-310.5-1107.6-919.7-919.7c-112.7,35.6-152.3,61.3-257.1,164.2c-102.9,104.8-128.6,144.4-164.2,257.1c-23.7,75.2-41.5,185.9-41.5,249.2c0,63.3,17.8,174,41.5,249.2c35.6,112.7,61.3,152.3,164.2,257.1c100.9,100.9,146.3,130.5,251.2,164.2C6092.7,2495.5,6262.8,2495.5,6430.9,2444.1z M6415.1,559.3c338.2-91,561.7-334.2,627-690.2l13.8-73.2h-874.2h-874.2l13.8,85c55.4,328.3,316.5,609.2,634.9,684.3C6074.9,592.9,6298.4,588.9,6415.1,559.3z"/><path d="M8001.3,2643.9v-158.2h237.3H8476v158.2v158.2h-237.3h-237.3V2643.9z"/><path d="M8001.3,2011v-158.2h237.3H8476V2011v158.2h-237.3h-237.3V2011z"/><path d="M8001.3,1378.1v-158.2h237.3H8476v158.2v158.2h-237.3h-237.3V1378.1z"/><path d="M3887.5,903.4V745.2h237.3h237.3v158.2v158.2h-237.3h-237.3V903.4z"/><path d="M3887.5,270.5V112.3h237.3h237.3v158.2v158.2h-237.3h-237.3V270.5z"/><path d="M3887.5-362.4v-158.2h237.3h237.3v158.2v158.2h-237.3h-237.3V-362.4z"/><path d="M3377.2-1649.9c-94.9-29.7-233.4-176-261.1-274.9c-43.5-164.2,31.6-338.2,191.9-437.1c65.3-41.5,98.9-47.5,265-47.5c172.1,0,195.8,4,271,55.4c257.1,170.1,257.1,490.5,2,660.6c-67.2,45.5-104.8,53.4-241.3,59.3C3515.7-1632.1,3412.8-1638.1,3377.2-1649.9z M3719.4-2023.7v-69.2H3571c-140.4,0-148.3,2-154.3,45.5c-13.9,93,3.9,104.8,158.2,98.9l144.4-5.9V-2023.7z"/><path d="M4643-1649.9c-94.9-29.7-233.4-176-261.1-274.9c-43.5-164.2,31.6-338.2,191.9-437.1c65.3-41.5,98.9-47.5,265-47.5c172.1,0,195.8,4,271,55.4c257.1,170.1,257.1,490.5,2,660.6c-67.3,45.5-104.8,53.4-241.3,59.3C4781.5-1632.1,4678.6-1638.1,4643-1649.9z M4985.2-2023.7v-69.2h-148.3c-140.4,0-148.3,2-154.3,45.5c-13.8,93,4,104.8,158.2,98.9l144.4-5.9V-2023.7z"/><path d="M5908.8-1649.9c-37.6-9.9-104.8-59.3-152.3-106.8c-144.4-144.4-162.2-324.4-49.4-480.6c83.1-116.7,178-166.1,338.2-178c185.9-11.9,302.6,21.7,403.5,122.6c142.4,144.4,162.2,328.3,49.4,482.6c-91,126.6-178,168.1-363.9,176C6045.3-1632.1,5944.4-1638.1,5908.8-1649.9z M6251-2023.7v-69.2h-148.3c-140.4,0-148.3,2-154.3,45.5c-13.8,93,4,104.8,158.2,98.9l144.4-5.9V-2023.7z"/><path d="M7052-2577.5v-949.3h1107.6h1107.6v949.3v949.3H8159.5H7052V-2577.5z M8950.7-2577.5v-632.9h-791.1h-791.1v632.9v632.9h791.1h791.1V-2577.5z"/><path d="M3377.2-2757.5c-37.6-9.9-104.8-59.3-152.3-106.8c-144.4-144.4-162.2-324.4-49.4-480.6c83.1-116.7,178-166.1,338.2-178c185.9-11.9,302.6,21.8,403.5,122.6c142.4,144.4,162.2,328.3,49.4,482.6c-91,126.6-178,168.1-363.9,176C3513.7-2739.7,3412.8-2745.6,3377.2-2757.5z M3719.4-3131.3v-69.2H3571c-140.4,0-148.3,2-154.3,45.5c-13.9,93,3.9,104.8,158.2,98.9l144.4-5.9V-3131.3z"/><path d="M4643-2757.5c-94.9-29.7-233.4-176-261.1-274.9c-43.5-164.2,31.6-338.2,191.9-437.1c65.3-41.5,98.9-47.5,265-47.5c172.1,0,195.8,4,271,55.4c257.1,170.1,257.1,490.5,2,660.6c-67.3,45.5-104.8,53.4-241.3,59.3C4781.5-2739.7,4678.6-2745.6,4643-2757.5z M4985.2-3131.3v-69.2h-148.3c-140.4,0-148.3,2-154.3,45.5c-13.8,93,4,104.8,158.2,98.9l144.4-5.9V-3131.3z"/><path d="M5908.8-2757.5c-94.9-29.7-233.4-176-261.1-274.9c-43.5-164.2,31.6-338.2,191.8-437.1c65.3-41.5,98.9-47.5,265-47.5c172.1,0,195.8,4,271,55.4c257.1,170.1,257.1,490.5,2,660.6c-67.2,45.5-104.8,53.4-241.3,59.3C6047.2-2739.7,5944.4-2745.6,5908.8-2757.5z M6251-3131.3v-69.2h-148.3c-140.4,0-148.3,2-154.3,45.5c-13.8,93,4,104.8,158.2,98.9l144.4-5.9V-3131.3z"/></g></g>
</svg>