<?xml version="1.0" encoding="utf-8"?>
<!-- Svg Vector Icons : http://www.onlinewebfonts.com/icon -->
<!DOCTYPE svg PUBLIC "-//W3C//DTD SVG 1.1//EN" "http://www.w3.org/Graphics/SVG/1.1/DTD/svg11.dtd">
<svg version="1.1" xmlns="http://www.w3.org/2000/svg" xmlns:xlink="http://www.w3.org/1999/xlink" x="0px" y="0px" viewBox="0 0 1000 1000" enable-background="new 0 0 1000 1000" xml:space="preserve">
<metadata> Svg Vector Icons : http://www.onlinewebfonts.com/icon </metadata>
<g><g transform="translate(0.000000,512.000000) scale(0.100000,-0.100000)"><path d="M4742.3,4991.7c-359.9-78.5-681.5-333.1-842.3-670c-338.8-702.6,53.6-1518.1,819.3-1705.7l128.3-32.5v-262.3c0-258.4,0-264.2,49.8-314l51.7-49.8h371.4c271.8,0,386.7-7.7,434.6-26.8c181.9-76.6,220.1-356.1,67-501.6l-57.4-55.5l-750.4-9.6c-721.7-11.5-754.3-13.4-859.6-53.6c-130.2-53.6-245-158.9-315.9-294.8c-45.9-88.1-51.7-122.5-51.7-273.8c0-195.3,32.5-294.8,141.7-419.2c67-74.7,197.2-151.2,298.6-172.3c34.5-7.7,185.7-15.3,340.8-15.3l279.5-1.9V-18.1v-149.3H3542c-1056.7,0-1340-5.7-1479.8-28.7C976.8-372.3,100-1390.7,100-2474.2c0-1320.9,1271.1-2461.8,2549.9-2287.6c750.4,101.5,1437.7,587.7,1761.2,1246.2l82.3,168.5l509.2,1.9h507.3l44-103.4c124.4-302.5,492-727.5,807.8-936.1c828.9-547.5,1797.6-520.7,2584.4,70.8c497.7,375.2,838.5,934.2,926.6,1518.1c36.4,237.4,36.4,405.8,0,643.2c-126.3,844.2-773.4,1598.5-1606.1,1878C7960.3-173.2,7878-167.4,6461.3-167.4H5153.9V79.5c0,235.5-1.9,250.8-45.9,302.5l-45.9,53.6l-402,9.6c-367.5,9.6-407.8,13.4-455.6,47.9c-86.1,65.1-126.3,158.9-116.8,273.8c7.7,114.9,51.7,185.7,149.3,243.1c61.3,36.4,103.4,38.3,744.7,42.1c373.3,1.9,716,7.7,760,13.4c181.9,23,350.3,155.1,432.6,335c61.3,135.9,57.4,380.9-7.6,518.8c-63.2,134-151.2,222.1-285.2,285.2c-97.6,45.9-128.3,49.8-415.4,55.5l-312,7.7v157v158.9l128.3,32.5c555.2,135.9,943.8,622.2,943.8,1179.2C6225.9,4566.7,5492.7,5156.4,4742.3,4991.7z M5220.9,4685.4c490.1-128.3,794.5-629.8,670-1106.5c-128.3-493.9-629.8-798.3-1110.3-673.8c-363.7,95.7-631.7,396.3-685.3,767.6C4003.3,4304.5,4604.4,4844.3,5220.9,4685.4z M8069.4-536.9c359.9-112.9,650.9-285.2,903.6-539.8c287.2-285.2,467.1-595.4,568.6-974.4c32.5-122.5,42.1-210.6,42.1-423.1c0-335-38.3-497.7-199.1-823.2C8988.3-4109.1,8124.9-4587.6,7315.2-4446c-671.9,116.8-1252,572.4-1521.9,1194.6c-99.6,227.8-42.1,212.5-792.5,212.5s-693,15.3-792.5-212.5c-298.6-689.2-987.8-1175.4-1724.8-1217.5C1461.1-4526.4,469.5-3613.2,412-2560.3c-38.3,737,436.5,1516.2,1148.6,1878c137.8,70.8,415.4,164.6,551.3,187.6c59.3,9.6,1322.8,15.3,2946.2,13.4l2842.8-1.9L8069.4-536.9z"/><path d="M5092.6,4011.6l-245-245l-91.9,91.9c-49.8,49.8-99.6,90-111,90c-9.6,0-61.3-42.1-112.9-95.7c-70.8-70.8-88.1-99.6-70.8-118.7c105.3-128.3,390.5-402,402-386.7c9.6,9.6,170.4,174.2,358,367.5l342.7,348.4l-93.8,95.7c-51.7,53.6-103.4,95.7-114.9,95.7C5345.3,4254.7,5226.6,4145.6,5092.6,4011.6z"/><path d="M7537.2-990.6c-327.3-51.7-530.3-400.1-413.5-708.3c105.3-281.4,442.2-425,710.2-304.4c187.6,84.2,325.4,289.1,325.4,486.3C8159.4-1197.3,7855-938.9,7537.2-990.6z M7770.8-1337.1c78.5-67,101.5-191.4,53.6-285.2c-42.1-80.4-101.5-114.9-201-114.9c-99.6,0-158.9,34.5-201,114.9c-49.8,95.7-24.9,218.2,55.5,287.1C7546.8-1279.7,7699.9-1279.7,7770.8-1337.1z"/><path d="M2173.2-1400.3l-53.6-45.9l-5.7-432.7l-5.7-432.6h-388.6c-436.5,0-499.6-11.5-537.9-101.5c-28.7-68.9-5.7-157,47.9-185.7c21.1-11.5,224-21.1,457.5-23l423.1-1.9v-384.8c0-440.3,13.4-515,99.6-559c53.6-28.7,65.1-28.7,122.5-1.9c90,44,103.4,114.9,103.4,562.8v388.6l425-3.8l425-1.9l44,51.7c57.4,67,55.5,130.2-1.9,197.2l-45.9,53.6l-421.2,5.7l-423.1,5.7l-5.8,432.6l-5.7,430.7l-53.6,45.9c-28.7,24.9-74.7,46-99.6,46S2201.9-1375.4,2173.2-1400.3z"/><path d="M4254.1-1905.6c-70.8-70.8-72.7-135.9-11.5-208.7l45.9-53.6l237.4,5.7c224,5.7,237.4,7.7,279.5,53.6c55.5,61.3,53.6,126.4-3.8,193.4c-45.9,51.7-51.7,53.6-268,59.3l-222.1,7.7L4254.1-1905.6z"/><path d="M5219-1869.3c-53.6-23-103.4-93.8-103.4-149.3c0-23,21.1-65.1,46-93.8c44-51.7,45.9-53.6,281.4-51.7c231.7,1.9,237.4,3.8,279.5,53.6c55.5,65.1,55.5,128.3-1.9,195.3c-44,51.7-53.6,53.6-252.7,57.4C5353-1854,5240-1859.7,5219-1869.3z"/><path d="M6583.9-1949.7c-254.6-38.3-434.6-254.6-434.6-524.5c0-308.2,218.2-526.4,526.4-526.4s526.4,218.2,526.4,526.4C7202.2-2135.4,6924.6-1899.9,6583.9-1949.7z M6805.9-2282.8c49.8-21.1,90-111,90-202.9c0-63.2-11.5-90-65.1-143.6c-55.5-55.5-78.5-65.1-155.1-65.1s-99.6,9.6-155.1,65.1c-53.6,53.6-65.1,80.4-65.1,143.6c0,63.2,42.1,191.4,63.2,193.4c1.9,0,38.3,11.5,78.5,26.8C6668.1-2240.6,6710.2-2244.5,6805.9-2282.8z"/><path d="M8479.1-1949.7c-254.6-38.3-434.6-254.6-434.6-524.5c0-308.2,218.2-526.4,526.4-526.4c306.3,0,528.3,222.1,528.3,526.4C9099.3-2139.2,8817.9-1899.9,8479.1-1949.7z M8693.5-2280.9c65.1-34.5,97.6-103.4,97.6-204.8c0-63.2-13.4-91.9-65.1-143.6c-55.5-55.5-78.5-65.1-155.1-65.1s-99.6,9.6-155,65.1c-53.6,53.6-65.1,78.5-65.1,149.3c1.9,145.5,76.6,224,216.3,225.9C8607.3-2254.1,8662.8-2265.5,8693.5-2280.9z"/><path d="M7537.2-2904.9c-327.3-51.7-530.3-400.1-413.5-708.3c105.3-281.4,442.2-425,710.2-304.4c187.6,84.2,325.4,289.1,325.4,486.3C8159.4-3111.7,7855-2853.2,7537.2-2904.9z M7770.8-3251.4c78.5-67,101.5-191.4,53.6-285.2c-42.1-80.4-101.5-114.9-201-114.9c-99.6,0-158.9,34.5-201,114.9c-49.8,95.7-24.9,218.2,55.5,287.1C7546.8-3194,7699.9-3194,7770.8-3251.4z"/></g></g>
</svg>