<?xml version="1.0" encoding="utf-8"?>
<!-- Svg Vector Icons : http://www.onlinewebfonts.com/icon -->
<!DOCTYPE svg PUBLIC "-//W3C//DTD SVG 1.1//EN" "http://www.w3.org/Graphics/SVG/1.1/DTD/svg11.dtd">
<svg version="1.1" xmlns="http://www.w3.org/2000/svg" xmlns:xlink="http://www.w3.org/1999/xlink" x="0px" y="0px" viewBox="0 0 1000 1000" enable-background="new 0 0 1000 1000" xml:space="preserve">
<metadata> Svg Vector Icons : http://www.onlinewebfonts.com/icon </metadata>
<g><path d="M897.6,599.1c-5.5-9.5-15.7-14.5-25.9-13.9H695c-5.3,0-10.3,1.5-14.5,4c-4.7,2.4-8.8,6.1-11.7,11l-88.6,153.5c-4.1,7-4.7,15.1-2.5,22.3c0.6,2.1,1.5,4.3,2.7,6.3L666,930.4c3.3,11.8,14.1,20.4,26.9,20.4h176.9c10.9,1.4,22-3.7,27.8-13.7l87.6-151.8c2.1-3.6,3.2-7.4,3.6-11.2c2-7,1.2-14.7-2.7-21.5L897.6,599.1z M846.6,878.5H719l-63.6-110l63.4-109.7h127.7l63.5,110L846.6,878.5z"/><path d="M667.3,394.9c3.8,11,14.2,18.8,26.4,18.8h178.4c1,0,2-0.1,2.9-0.2c9.2-0.4,18-5.4,23-13.9l87.1-151.1c1.9-3.3,3.1-6.8,3.5-10.4c2.3-7.3,1.7-15.4-2.4-22.6L898.2,62.9c-5.6-9.7-16.1-14.8-26.6-13.9H696.3c-5.4,0-10.5,1.6-14.8,4.3c-4.8,2.4-9,6.1-11.9,11.1l-88.1,152.7c-2.3,4.1-3.5,8.5-3.7,12.8c-0.4,5.4,0.8,10.9,3.7,16L667.3,394.9z M720.1,121.3h128.4l63.4,109.6l-63.7,110H719.9l-63.5-109.6L720.1,121.3z"/><path d="M596.8,559.6l0-115.4c-19.1,0.1-38.5-4.6-56.2-14.9c-53.4-30.8-71.5-99.3-40.4-153.1l-99.9-57.6c-9.5,16.7-23.3,31.1-41,41.3c-53.3,30.8-121.7,12.3-152.7-41.3l-99.9,57.7c9.6,16.5,15.2,35.6,15.2,56.1c0,61.5-50.1,111.4-111.9,111.6l0,115.4c19-0.1,38.3,4.7,55.9,14.9c53.2,30.7,71.4,98.9,40.7,152.5l99.9,57.7c9.4-16.5,23.2-30.7,40.8-40.8c53.2-30.8,121.4-12.4,152.5,41.1l99.9-57.7c-9.6-16.4-15-35.5-15-55.8C484.6,609.7,534.9,559.7,596.8,559.6z M422.5,570.8c-37.9,65.6-121.8,88-187.5,50.1c-65.7-37.9-88.2-121.8-50.4-187.4c37.9-65.6,121.8-88,187.5-50.1C437.8,421.4,460.3,505.3,422.5,570.8z"/></g>
</svg>