<?xml version="1.0" encoding="utf-8"?>
<!-- Svg Vector Icons : http://www.onlinewebfonts.com/icon -->
<!DOCTYPE svg PUBLIC "-//W3C//DTD SVG 1.1//EN" "http://www.w3.org/Graphics/SVG/1.1/DTD/svg11.dtd">
<svg version="1.1" xmlns="http://www.w3.org/2000/svg" xmlns:xlink="http://www.w3.org/1999/xlink" x="0px" y="0px" viewBox="0 0 1000 1000" enable-background="new 0 0 1000 1000" xml:space="preserve">
<metadata> Svg Vector Icons : http://www.onlinewebfonts.com/icon </metadata>
<g><path d="M932.4,811.8c-35.5-55.3-281.5-164.2-281.5-164.2l-6.5-40.4c0,0,25.9-19.1,47.7-53.7c21.8-34.5,35.4-75.1,35.4-75.1s51.3-19.4,64.5-66.3c13.3-46.8,5.7-76.9,0-96.9c-5.7-19.9-38.9-30.5-38.9-30.5s0-7.6-0.2-19.3c14.4,4.2,23.2,6.9,23.6,7.1l9.8-31.4c-1.9-0.6-15.1-4.7-35-10.4c-1.5-28.6-4-64.3-6.9-78.6c-8.4-42-19.3-89.1-31.6-97.5C700.6,46.1,543,10,508,10c-35,0-162,26.5-198.3,44.6c0,0-23.2,46.5-35.7,116c-2.5,14.1-4.6,39.7-6.1,60.4c-0.3,0.1-0.7,0.2-1,0.3c-18.6,5.4-30.8,9.2-32.7,9.7l9.8,31.4c0.4-0.1,8.7-2.7,22.3-6.7l0,0c0.4,12,1.2,18.9,1.2,18.9s-29.5-1.9-41.1,47.2c-11.6,49.1-2.6,62.6,14.1,99.1c16.7,36.5,52.2,47.4,52.2,47.4s14.8,40.5,39.9,75.1c25.1,34.6,40.7,46.3,40.7,46.3l-7.2,47.7c0,0-241,99.1-290.3,154.9c-49.3,55.8-44.2,74.4-44.2,118.9c0,44.5,44.2,68.3,44.2,68.3L924,990c0,0,41.7-10.6,43.9-59.9C970,880.8,967.9,867.2,932.4,811.8z M306.5,176.4c8.1-45.1,21.1-80,28-96.6c41-15.1,145-36.9,173.5-36.9c27.8,0,153.4,28.5,184.3,38.7c3.4,7.4,9.9,26.8,20,77c1.9,9.6,4,34.9,5.6,62.8c-109.9-29.6-130.1-37.6-207.6-37.6c-56.7,0-145.5,20.9-207.2,37.4c-0.5,0.1-1,0.3-1.5,0.4C303,204.6,304.7,186.7,306.5,176.4z M368.3,682.4c3.5-1.5,27.6-11.4,27.6-11.4l13-85.6l-15.8-11.8c0,0-13-10.6-33.8-39.3c-21.9-30.3-35.5-66.8-35.6-67.1l-5.6-15.3l-15.6-4.8c-0.5-0.2-21.9-7.7-32-29.7l-3.6-7.9c-13.3-28.8-16.5-35.6-8.4-70c3.4-14.2,8.1-20.1,10.3-21.6l36.7,2.4l-5.3-39.8c0,0-1-7.7-1.1-21.4l0.1-1.9c0-0.1,0-0.4,0-0.5c1-0.3,1.9-0.5,2.9-0.8c60.1-16.4,152.7-39,208.2-39c55.8,0,149,22.8,209,39.2c0.1,0,0.3,0.1,0.4,0.1c0.1,1.1,0.1,2.2,0.2,3.3c0.3,14.7,0.3,25.2,0.3,25.4l0,24l22.9,7.3c6.5,2.2,14.9,6.8,17.7,9.7c4.4,15.7,10.4,39.1-0.4,77.3c-8.5,29.9-44.4,44.4-44.7,44.6l-14.2,5.6l-5.1,14.6c-0.1,0.4-12.7,37.4-32,68c-18,28.5-39.2,44.6-39.4,44.7l-16.1,11.9l12.4,77.9l16.4,7.2c8.9,4,18,8,27.1,12.2v90H368.3V682.4z M220.1,861.5v95.3l-134.3,0c-7.9-6-21.1-18.6-21.1-35.4l-0.1-11.8c-0.4-32.9-0.5-44,36-85.3c19.5-22.1,84.3-57.5,152.4-90.2V796C233.4,810,220.1,834.8,220.1,861.5z M780,961.1H253v-99.6c0-23.4,16.5-42.5,32.9-44.4v-81.7l49.4-20.4v97.8h362.3v-97.8l32.9,20.4v81.7c32.9,1.9,49.4,20.9,49.4,44.4V961.1z M935,928.7c-0.8,18.8-11.4,26-16.5,28.4l-105.6,0v-95.5c0-28.6-15.5-58.2-49.4-71v-52.2c70.6,36.8,129.3,72.8,141.2,91.3C937.1,880.1,936.8,887.5,935,928.7z"/></g>
</svg>