<?xml version="1.0" encoding="utf-8"?>
<!-- Svg Vector Icons : http://www.onlinewebfonts.com/icon -->
<!DOCTYPE svg PUBLIC "-//W3C//DTD SVG 1.1//EN" "http://www.w3.org/Graphics/SVG/1.1/DTD/svg11.dtd">
<svg version="1.1" xmlns="http://www.w3.org/2000/svg" xmlns:xlink="http://www.w3.org/1999/xlink" x="0px" y="0px" viewBox="0 0 1000 1000" enable-background="new 0 0 1000 1000" xml:space="preserve">
<metadata> Svg Vector Icons : http://www.onlinewebfonts.com/icon </metadata>
<g><g transform="translate(0.000000,512.000000) scale(0.100000,-0.100000)"><path d="M4775,4999.3c-277.7-70.9-478.8-216.4-639.7-459.7c-141.7-218.3-136-172.4-149.4-1486.2l-11.5-1177.9l-51.7-153.2c-95.8-285.4-287.3-513.3-547.8-649.3c-187.7-97.7-247.1-109.2-643.5-126.4c-312.2-13.4-381.1-23-490.3-61.3c-354.3-130.2-589.9-381.1-678-724c-30.6-113-32.6-327.5-30.6-2466.8c3.8-2551.1-3.8-2401.7,109.2-2451.5c34.5-17.2,898.3-23,3361.3-23c3058.7,0,3319.2,1.9,3369,32.6c30.6,17.2,63.2,51.7,74.7,74.7c13.4,30.6,21.1,789.1,21.1,2386.4c1.9,2081.9-1.9,2355.8-28.7,2455.4c-90,339-363.9,620.5-712.5,731.6c-61.3,19.2-220.3,34.5-465.4,44.1c-337.1,13.4-385,19.2-494.1,63.2c-362,147.5-599.5,404.1-706.7,762.3c-26.8,91.9-32.6,266.2-44.1,1283.2c-11.5,1313.9-7.7,1266-151.3,1488.2c-132.1,206.8-300.7,340.9-528.6,425.2C5192.5,5020.4,4920.6,5037.6,4775,4999.3z M5244.3,4566.5c116.8-51.7,262.4-195.4,314.1-312.2l46-99.6l9.6-1177.9c13.4-1331.1,5.7-1262.2,172.4-1601.2c193.4-394.5,545.8-678,986.4-794.8c113-28.7,243.2-42.1,498-51.7c310.3-13.4,354.3-19.2,438.6-59.4c220.3-107.2,339-304.5,352.4-582.2l7.7-166.6H5001H1932.8l7.7,166.6c13.4,277.7,132.2,475,352.4,582.2c84.3,40.2,128.3,46,438.6,59.4c254.7,9.6,385,23,498,51.7c536.3,141.7,940.4,534.4,1105.1,1078.3c40.2,136,42.1,172.4,51.7,1317.7c11.5,1177.9,11.5,1177.9,55.5,1273.6c47.9,105.3,149.4,220.3,250.9,281.5C4842,4625.8,5077.6,4639.2,5244.3,4566.5z M8065.4-1102.7v-402.2H5001H1936.6v402.2v402.2H5001h3064.4V-1102.7z M2338.8-2950.9c0-1126.2,0-1128.1,113-1185.6c72.8-38.3,122.6-38.3,195.4,0c113,57.5,113,59.4,113,1185.6v1024.7h201.1h201.1v-1055.3v-1055.3l65.1-65.1c46-46,82.4-65.1,126.4-65.1c76.6,0,162.8,49.8,189.6,109.2c15.3,30.6,21.1,379.2,21.1,1087.9v1043.8h210.7h210.7v-1043.8c0-766.1,5.7-1055.3,23-1091.7c26.8-61.3,107.2-105.4,189.6-105.4c42.1,0,78.5,19.2,124.5,65.1l65.1,65.1v1055.3v1055.3h201.1h201.1v-1024.7c0-1126.2,0-1128.1,113-1185.6c72.8-38.3,122.6-38.3,195.4,0c113,57.5,113,59.4,113,1185.6v1024.7h201.1h201.1v-1055.3v-1055.3l65.1-65.1c46-46,82.4-65.1,126.4-65.1c76.6,0,162.8,49.8,189.6,109.2c15.3,30.6,21.1,379.2,21.1,1087.9v1043.8h210.7h210.7v-1043.8c0-766.1,5.8-1055.3,23-1091.7c26.8-61.3,107.3-105.4,189.6-105.4c42.1,0,78.5,19.2,124.5,65.1l65.1,65.1v1055.3v1055.3h201.1h201.1v-1024.7c0-1126.2,0-1128.1,113-1185.6c72.8-38.3,122.6-38.3,195.3,0c113,57.5,113,59.4,113,1185.6v1024.7h201.1h201.1V-3152v-1225.8H5001H1936.6V-3152v1225.8h201.1h201.1V-2950.9z"/></g></g>
</svg>