<?xml version="1.0" encoding="utf-8"?>
<!-- Svg Vector Icons : http://www.onlinewebfonts.com/icon -->
<!DOCTYPE svg PUBLIC "-//W3C//DTD SVG 1.1//EN" "http://www.w3.org/Graphics/SVG/1.1/DTD/svg11.dtd">
<svg version="1.1" xmlns="http://www.w3.org/2000/svg" xmlns:xlink="http://www.w3.org/1999/xlink" x="0px" y="0px" viewBox="0 0 1000 1000" enable-background="new 0 0 1000 1000" xml:space="preserve">
<metadata> Svg Vector Icons : http://www.onlinewebfonts.com/icon </metadata>
<g><path d="M979.3,62.9H20.7c-5.9,0-10.7-4.8-10.7-10.7c0-5.9,4.8-10.7,10.7-10.7h958.6c5.9,0,10.7,4.8,10.7,10.7C990,58.1,985.2,62.9,979.3,62.9z"/><path d="M112.3,82.9c-5.9,0-10.7-4.8-10.7-10.7v-35c0-5.9,4.8-10.7,10.7-10.7S123,31.3,123,37.2v35C123,78.1,118.2,82.9,112.3,82.9z"/><path d="M161.7,82.9c-5.9,0-10.7-4.8-10.7-10.7v-35c0-5.9,4.8-10.7,10.7-10.7s10.7,4.8,10.7,10.7v35C172.4,78.1,167.6,82.9,161.7,82.9z"/><path d="M211.1,82.9c-5.9,0-10.7-4.8-10.7-10.7v-35c0-5.9,4.8-10.7,10.7-10.7s10.7,4.8,10.7,10.7v35C221.8,78.1,217,82.9,211.1,82.9z"/><path d="M260.5,82.9c-5.9,0-10.7-4.8-10.7-10.7v-35c0-5.9,4.8-10.7,10.7-10.7c5.9,0,10.7,4.8,10.7,10.7v35C271.2,78.1,266.4,82.9,260.5,82.9z"/><path d="M309.9,82.9c-5.9,0-10.7-4.8-10.7-10.7v-35c0-5.9,4.8-10.7,10.7-10.7c5.9,0,10.7,4.8,10.7,10.7v35C320.6,78.1,315.8,82.9,309.9,82.9z"/><path d="M359.3,82.9c-5.9,0-10.7-4.8-10.7-10.7v-35c0-5.9,4.8-10.7,10.7-10.7c5.9,0,10.7,4.8,10.7,10.7v35C370,78.1,365.2,82.9,359.3,82.9z"/><path d="M408.7,82.9c-5.9,0-10.7-4.8-10.7-10.7v-35c0-5.9,4.8-10.7,10.7-10.7c5.9,0,10.7,4.8,10.7,10.7v35C419.4,78.1,414.6,82.9,408.7,82.9z"/><path d="M458.1,82.9c-5.9,0-10.7-4.8-10.7-10.7v-35c0-5.9,4.8-10.7,10.7-10.7c5.9,0,10.7,4.8,10.7,10.7v35C468.8,78.1,464,82.9,458.1,82.9z"/><path d="M475,973.5H94.4c-5.9,0-10.7-4.8-10.7-10.7V96.4c0-5.9,4.8-10.7,10.7-10.7H475c5.9,0,10.7,4.8,10.7,10.7v866.4C485.7,968.7,481,973.5,475,973.5z M105.1,952.1h359.3v-845H105.1V952.1z"/><path d="M890.5,82.9c-5.9,0-10.7-4.8-10.7-10.7v-35c0-5.9,4.8-10.7,10.7-10.7s10.7,4.8,10.7,10.7v35C901.2,78.1,896.4,82.9,890.5,82.9z"/><path d="M841.1,82.9c-5.9,0-10.7-4.8-10.7-10.7v-35c0-5.9,4.8-10.7,10.7-10.7s10.7,4.8,10.7,10.7v35C851.8,78.1,847,82.9,841.1,82.9z"/><path d="M791.7,82.9c-5.9,0-10.7-4.8-10.7-10.7v-35c0-5.9,4.8-10.7,10.7-10.7s10.7,4.8,10.7,10.7v35C802.4,78.1,797.6,82.9,791.7,82.9z"/><path d="M742.3,82.9c-5.9,0-10.7-4.8-10.7-10.7l0-35c0-5.9,4.8-10.7,10.7-10.7S753,31.3,753,37.2v35C753,78.1,748.2,82.9,742.3,82.9z"/><path d="M692.9,82.9c-5.9,0-10.7-4.8-10.7-10.7v-35c0-5.9,4.8-10.7,10.7-10.7c5.9,0,10.7,4.8,10.7,10.7v35C703.6,78.1,698.8,82.9,692.9,82.9z"/><path d="M643.5,82.9c-5.9,0-10.7-4.8-10.7-10.7v-35c0-5.9,4.8-10.7,10.7-10.7s10.7,4.8,10.7,10.7v35C654.2,78.1,649.4,82.9,643.5,82.9z"/><path d="M594.1,82.9c-5.9,0-10.7-4.8-10.7-10.7v-35c0-5.9,4.8-10.7,10.7-10.7c5.9,0,10.7,4.8,10.7,10.7v35C604.8,78.1,600,82.9,594.1,82.9z"/><path d="M544.7,82.9c-5.9,0-10.7-4.8-10.7-10.7v-35c0-5.9,4.8-10.7,10.7-10.7c5.9,0,10.7,4.8,10.7,10.7v35C555.4,78.1,550.6,82.9,544.7,82.9z"/><path d="M908.4,973.5H527.8c-5.9,0-10.7-4.8-10.7-10.7V96.4c0-5.9,4.8-10.7,10.7-10.7h380.7c2.8,0,5.6,1.1,7.6,3.1c2,2,3.1,4.7,3.1,7.6l0,866.4C919.2,968.7,914.4,973.5,908.4,973.5z M538.5,952.1h359.3l0-845H538.5V952.1z"/><path d="M148.7,937c-3,0-5.4-2.4-5.4-5.4V128.5c0-3,2.4-5.4,5.4-5.4c3,0,5.4,2.4,5.4,5.4v803.2C154.1,934.6,151.7,937,148.7,937z"/><path d="M203.1,937c-3,0-5.4-2.4-5.4-5.4V128.5c0-3,2.4-5.4,5.4-5.4c3,0,5.4,2.4,5.4,5.4v803.2C208.5,934.6,206.1,937,203.1,937z"/><path d="M257.5,937c-3,0-5.4-2.4-5.4-5.4V128.5c0-3,2.4-5.4,5.4-5.4c3,0,5.4,2.4,5.4,5.4v803.2C262.9,934.6,260.5,937,257.5,937z"/><path d="M311.9,937c-3,0-5.4-2.4-5.4-5.4V128.5c0-3,2.4-5.4,5.4-5.4c3,0,5.4,2.4,5.4,5.4v803.2C317.2,934.6,314.8,937,311.9,937z"/><path d="M366.3,937c-3,0-5.4-2.4-5.4-5.4V128.5c0-3,2.4-5.4,5.4-5.4c3,0,5.4,2.4,5.4,5.4v803.2C371.6,934.6,369.2,937,366.3,937z"/><path d="M420.7,937c-3,0-5.4-2.4-5.4-5.4V128.5c0-3,2.4-5.4,5.4-5.4c3,0,5.4,2.4,5.4,5.4v803.2C426,934.6,423.6,937,420.7,937z"/><path d="M851.3,937c-3,0-5.4-2.4-5.4-5.4V128.5c0-3,2.4-5.4,5.4-5.4s5.4,2.4,5.4,5.4v803.2C856.6,934.6,854.2,937,851.3,937z"/><path d="M796.9,937c-3,0-5.4-2.4-5.4-5.4V128.5c0-3,2.4-5.4,5.4-5.4s5.4,2.4,5.4,5.4v803.2C802.2,934.6,799.8,937,796.9,937z"/><path d="M742.5,937c-3,0-5.4-2.4-5.4-5.4V128.5c0-3,2.4-5.4,5.4-5.4s5.4,2.4,5.4,5.4v803.2C747.8,934.6,745.4,937,742.5,937z"/><path d="M688.1,937c-3,0-5.4-2.4-5.4-5.4V128.5c0-3,2.4-5.4,5.4-5.4c3,0,5.4,2.4,5.4,5.4v803.2C693.5,934.6,691.1,937,688.1,937z"/><path d="M633.7,937c-3,0-5.4-2.4-5.4-5.4V128.5c0-3,2.4-5.4,5.4-5.4s5.4,2.4,5.4,5.4v803.2C639.1,934.6,636.7,937,633.7,937z"/><path d="M579.3,937c-3,0-5.4-2.4-5.4-5.4V128.5c0-3,2.4-5.4,5.4-5.4s5.4,2.4,5.4,5.4v803.2C584.7,934.6,582.3,937,579.3,937z"/></g>
</svg>