<?xml version="1.0" encoding="utf-8"?>
<!-- Svg Vector Icons : http://www.onlinewebfonts.com/icon -->
<!DOCTYPE svg PUBLIC "-//W3C//DTD SVG 1.1//EN" "http://www.w3.org/Graphics/SVG/1.1/DTD/svg11.dtd">
<svg version="1.1" xmlns="http://www.w3.org/2000/svg" xmlns:xlink="http://www.w3.org/1999/xlink" x="0px" y="0px" viewBox="0 0 1000 1000" enable-background="new 0 0 1000 1000" xml:space="preserve">
<metadata> Svg Vector Icons : http://www.onlinewebfonts.com/icon </metadata>
<g><g transform="translate(0.000000,511.000000) scale(0.100000,-0.100000)"><path d="M1507.8,1776.5c-771.2-131-1360.7-792.3-1405-1574.1C35.1-1016.7,1233.1-1897.7,2378.3-1468.8c230.3,84.5,437.4,221.9,619.1,412l145.8,150h3040.4h3040.4l338.1,507.1L9900,107.4l-338.1,507.1l-338.1,507.1H6183.5H3143.1l-145.8,150C2606.5,1677.2,2044.4,1867.4,1507.8,1776.5z M2071.9,1427.9c608.5-126.8,1067-695.1,1067-1320.5c0-737.4-614.8-1352.2-1352.2-1352.2c-737.4,0-1352.2,614.8-1352.2,1352.2c0,500.7,297.9,982.5,739.5,1202.2C1467.6,1453.3,1763.4,1493.4,2071.9,1427.9z M9251.3,458.1c124.7-179.6,226.1-338.1,226.1-350.7c0-12.7-101.4-171.2-226.1-350.8l-228.2-325.4h-2846H3333.3l42.3,112c59.2,152.1,101.4,393,101.4,564.1c0,171.1-42.3,412-101.4,566.2l-42.3,109.9h2843.9h2846L9251.3,458.1z"/></g></g>
</svg>