<?xml version="1.0" encoding="utf-8"?>
<!-- Svg Vector Icons : http://www.onlinewebfonts.com/icon -->
<!DOCTYPE svg PUBLIC "-//W3C//DTD SVG 1.1//EN" "http://www.w3.org/Graphics/SVG/1.1/DTD/svg11.dtd">
<svg version="1.1" xmlns="http://www.w3.org/2000/svg" xmlns:xlink="http://www.w3.org/1999/xlink" x="0px" y="0px" viewBox="0 0 1000 1000" enable-background="new 0 0 1000 1000" xml:space="preserve">
<metadata> Svg Vector Icons : http://www.onlinewebfonts.com/icon </metadata>
<g><g transform="translate(0.000000,511.000000) scale(0.100000,-0.100000)"><path d="M105.1,3501.7l7.7-796.2l120-30.6c153.1-38.3,237.3-94.4,293.5-199.1c43.4-76.6,45.9-275.6,53.6-3315.2l5.1-3236h701.8h701.8v1033.6v1033.6h178.6h178.6v-931.5c0-635.5,10.2-949.4,28.1-992.8c66.4-140.4,285.8-140.4,352.2,0c17.9,43.4,28.1,357.3,28.1,992.8v931.5h278.2h280.7l127.6-132.7l130.2-135.3v-796.2c0-535.9,10.2-816.7,28.1-860.1c66.4-140.4,285.8-140.4,352.2,0c17.9,43.4,28.1,288.4,28.1,729.9c0,622.7,2.6,663.5,45.9,645.7c130.2-56.2,416-137.8,528.3-153.1c71.5-7.7,153.1-20.4,186.3-28.1l56.2-10.2v-581.9c0-543.6,2.6-587,51-635.5c68.9-74,142.9-94.4,227.1-58.7c119.9,48.5,130.1,109.7,130.1,724.8v566.5l186.3,30.6c99.5,17.9,280.7,66.4,400.7,107.2c119.9,40.8,219.5,76.6,224.6,76.6c2.6,0,5.1-303.7,5.1-676.3c0-446.6,10.2-694.2,28.1-737.6c66.4-140.4,285.8-140.4,352.2,0c17.8,43.4,28.1,324.1,28.1,865.2v801.4l135.3,127.6l132.7,130.1h275.6h273.1v-931.5c0-635.5,10.2-949.4,28.1-992.8c66.4-140.4,285.8-140.4,352.2,0c17.8,43.4,28.1,357.3,28.1,992.8v931.5h178.7h178.7v-1033.6v-1033.6h701.8h701.8l5.1,3236c7.6,3039.5,10.2,3238.6,53.6,3315.2c56.2,104.6,140.4,160.8,293.5,199.1l120,30.6l7.7,796.2l5.1,793.7H5000H100L105.1,3501.7z M9491.7,3455.8v-431.3l-89.3-56.1c-127.6-79.1-283.3-265.4-336.9-403.2c-43.4-112.3-45.9-288.4-53.6-3177.3l-5.1-3054.8h-293.5h-293.5v829.4v829.4h140.4c165.9,0,252.7,35.7,290.9,120c43.4,94.4,33.2,158.2-35.7,224.6c-53.6,56.2-84.2,63.8-229.7,63.8h-165.9v1641c0,1840.1-2.5,1845.2-178.7,2207.6c-206.7,418.5-620.1,727.3-1084.6,809c-298.6,53.6-4014.4,53.6-4313,0c-464.5-81.7-877.9-390.5-1084.6-809c-176.1-362.4-178.6-367.5-178.6-2207.6v-1641h-165.9c-145.5,0-176.1-7.7-229.7-63.8c-38.3-35.7-63.8-89.3-63.8-132.7c2.6-140.4,107.2-211.8,316.5-211.8h142.9v-829.4v-829.4h-293.5H995.8l-7.7,3057.4c-7.7,2883.9-10.2,3062.5-53.6,3174.8c-53.6,137.8-209.3,324.1-336.9,403.2l-89.3,56.1v431.3v431.3H5000h4491.7V3455.8z M7097.8,2659.5c74-15.3,199.1-58.7,275.6-94.4c163.3-76.6,428.7-326.7,507.9-482.4c127.6-252.7,130.2-285.8,130.2-2041.7v-1641h-178.7h-178.7v344.5c0,334.3-2.5,349.6-63.8,408.3c-81.7,84.2-199.1,84.2-280.7,0c-61.3-58.7-63.8-74-63.8-408.3v-344.5h-130.2c-114.8,0-127.6,5.1-109.8,45.9c130.2,298.6,148,395.6,148,796.2c0,326.7-10.2,431.3-56.2,597.2c-58.7,214.4-357.3,934-387.9,934c-7.7,0-48.5-112.3-86.8-247.6c-40.8-137.8-99.5-306.3-130.1-377.7l-56.2-127.6l-17.9,216.9c-53.6,604.8-199.1,1023.4-490,1403.6c-117.4,155.7-724.8,735-724.8,694.2c0-15.3,40.8-196.5,91.9-403.2c137.8-558.9,114.8-752.9-102.1-913.6c-97-74-285.8-68.9-395.6,7.7c-102.1,71.5-160.8,191.4-219.5,436.4c-25.5,104.6-51,201.6-58.7,214.4c-23,40.8-382.8-541-441.5-717.1c-79.1-232.2-79.1-564,0-783.5c28.1-84.2,48.5-158.2,40.8-165.9c-25.5-22.9-242.4,99.5-352.2,199.1c-58.7,53.6-176.1,214.4-260.3,357.3c-84.2,140.4-158.2,257.8-165.9,257.8c-25.5,0-275.6-770.7-324.1-995.3c-33.2-160.8-45.9-326.7-45.9-638c0-405.8,15.3-518.1,104.6-752.9c12.8-33.2-12.8-38.3-153.1-38.3h-168.4v344.5c0,334.3-2.6,349.6-63.8,408.3c-81.7,84.2-199.1,84.2-280.7,0c-61.2-58.7-63.8-74-63.8-408.3v-344.5h-178.6h-178.6v1641c0,1755.8,2.6,1789,130.2,2041.7c76.6,148,342,403.2,495.1,477.2c68.9,33.2,183.8,74,255.2,91.9C3042.5,2695.2,6898.8,2700.4,7097.8,2659.5z M5816.7,1061.9c140.4-306.3,204.2-684,204.2-1235.2c0-372.6,2.5-403.2,58.7-484.9c48.5-71.5,76.6-89.3,163.3-94.4c91.9-7.7,120,5.1,211.8,86.8c58.7,53.6,135.3,145.5,171,206.7c33.2,58.7,74,109.7,84.2,109.7c35.7,0,58.7-273.1,43.4-520.6c-15.3-250.1-79.1-474.7-183.8-632.9c-35.7-53.6-81.7-97-102.1-97c-33.2,0-38.3,56.2-38.3,344.5c0,334.3-2.5,349.6-63.8,408.3c-38.3,40.8-91.9,63.8-140.4,63.8s-102.1-23-140.4-63.8c-61.3-58.7-63.8-74-63.8-408.3v-344.5h-408.3h-408.3v344.5c0,334.3-2.5,349.6-63.8,408.3c-38.3,40.8-91.9,63.8-140.4,63.8c-48.5,0-102.1-23-140.4-63.8c-61.2-58.7-63.8-74-63.8-408.3v-344.5h-408.3h-408.3v344.5c0,334.3-2.6,349.6-63.8,408.3c-81.7,84.2-199.1,84.2-280.7,0c-61.2-58.7-63.8-74-63.8-408.3c0-193.9-10.2-344.5-23-344.5c-28.1,0-117.4,229.7-158.2,403.2c-40.8,178.7-33.2,625.3,15.3,893.2c23,127.6,53.6,234.8,63.8,234.8s35.7-20.4,53.6-43.4c71.5-86.7,331.8-232.2,492.5-275.6c211.8-58.7,454.3-43.4,528.3,30.6c94.4,91.9,89.3,222-17.9,492.5c-76.6,196.5-94.4,278.2-97,426.2c0,99.5,7.7,191.4,17.9,201.6c10.2,10.2,43.4-5.1,76.6-35.7c188.9-176.1,564-222,819.2-97c160.8,79.1,298.6,224.6,364.9,387.9c25.5,61.3,53.6,112.3,61.2,112.3C5775.8,1130.8,5798.8,1100.2,5816.7,1061.9z M4795.8-2174.1V-2340l-107.2,15.3c-285.8,38.3-709.5,204.2-709.5,278.2c0,33.2,63.8,38.3,408.3,38.3h408.3V-2174.1z M6020.8-2028.7c0-38.3-331.8-186.3-530.8-237.3c-290.9-74-285.8-74-285.8,104.6v153.1h408.3C5837.1-2008.2,6020.8-2018.5,6020.8-2028.7z"/></g></g>
</svg>