<?xml version="1.0" encoding="utf-8"?>
<!-- Svg Vector Icons : http://www.onlinewebfonts.com/icon -->
<!DOCTYPE svg PUBLIC "-//W3C//DTD SVG 1.1//EN" "http://www.w3.org/Graphics/SVG/1.1/DTD/svg11.dtd">
<svg version="1.1" xmlns="http://www.w3.org/2000/svg" xmlns:xlink="http://www.w3.org/1999/xlink" x="0px" y="0px" viewBox="0 0 1000 1000" enable-background="new 0 0 1000 1000" xml:space="preserve">
<metadata> Svg Vector Icons : http://www.onlinewebfonts.com/icon </metadata>
<g><g transform="translate(0.000000,512.000000) scale(0.100000,-0.100000)"><path d="M4549.6,5001.3C2498.4,4806,782.3,3348.5,259.5,1358.5C-47,190.2,90.9-1056.6,650.2-2131.1c243.2-469.2,496-814,890.6-1208.5c396.5-394.5,741.2-649.3,1208.5-890.6c1593.5-821.7,3466.6-720.1,4954.8,270c2093.4,1390.5,2796.3,4098.7,1645.2,6329.9c-241.3,467.3-496,812.1-890.6,1208.5c-394.5,394.5-739.3,647.3-1208.5,890.6C6422.7,4899.8,5463.2,5087.5,4549.6,5001.3z M5530.2,4170.1c894.4-116.8,1706.5-519,2353.8-1166.4c660.8-660.8,1063-1488.2,1176-2424.7c24.9-208.8,24.9-710.6,0-919.3c-51.7-423.3-181.9-890.6-350.5-1248.7c-607.1-1300.5-1821.4-2179.6-3250.2-2352c-208.8-24.9-710.6-24.9-919.3,0c-936.6,113-1764,515.2-2424.7,1176C1333.9-1983.6,920.2-985.8,920.2,119.3c0,1405.8,685.7,2660.3,1886.5,3447.5c444.3,291.1,1084,524.8,1639.5,601.4C4720.1,4204.6,5250.6,4206.5,5530.2,4170.1z"/><path d="M4769.9,3488.3c-1664.4-97.7-3047.2-1482.4-3139.1-3142.9c-55.5-1024.7,287.3-1924.8,1001.7-2629.7c490.3-482.6,1038.1-769.9,1754.4-923.1c235.6-49.8,990.2-49.8,1225.8,0c538.2,114.9,957.6,296.9,1384.7,601.4c201.1,141.7,586.1,526.7,727.8,727.8c304.5,427.1,486.5,846.5,601.4,1384.7c49.8,235.6,49.8,990.2,0,1225.8c-114.9,538.2-296.9,957.6-601.4,1384.7c-143.7,201.1-490.3,551.6-693.3,701c-532.4,392.6-1164.5,634-1744.8,664.6c-99.6,5.7-206.8,11.5-239.4,13.4C5017,3499.8,4890.5,3495.9,4769.9,3488.3z M5612.6,2890.7c1107-262.4,1926.7-1093.6,2168.1-2202.5c61.3-283.5,61.3-854.2,0-1137.7c-120.7-557.3-379.2-1032.3-779.5-1432.6c-400.3-400.3-875.3-658.8-1432.6-779.5c-283.4-61.3-854.2-61.3-1137.7,0C3308.5-2418.4,2471.6-1581.4,2218.8-453.3c-36.4,170.4-44,252.8-44,572.7c0,321.8,5.7,400.3,44,572.7c272,1214.3,1197,2064.7,2445.8,2250.4c32.6,3.8,212.6,5.7,402.2,1.9C5350.2,2938.6,5447.9,2929,5612.6,2890.7z"/><path d="M5896.1,1829.6c-362-137.9-530.5-530.5-373.5-873.3c178.1-388.8,687.6-494.1,1011.3-208.8c38.3,32.6,97.7,114.9,134.1,180c61.3,111.1,65.1,134.1,65.1,293c0,149.4-7.7,185.8-53.6,279.6c-61.3,128.3-191.5,252.8-316,310.3C6238.9,1864.1,6016.7,1873.7,5896.1,1829.6z M6208.2,1431.3c70.9-38.3,132.2-134.1,132.2-210.7c0-136-145.5-256.6-279.6-229.8c-34.5,5.7-90,36.4-120.7,69c-72.8,72.8-92,160.9-51.7,252.8C5940.1,1438.9,6087.6,1492.6,6208.2,1431.3z"/><path d="M3774,1799c-118.8-32.6-208.8-91.9-306.4-197.3c-120.7-130.2-160.9-235.6-162.8-419.4c0-136,7.7-168.5,63.2-281.5c109.2-222.2,291.1-342.8,538.2-356.2c203-11.5,337.1,40.2,482.6,185.8s197.3,279.6,185.8,482.6c-9.6,162.8-53.6,272-159,396.5C4275.8,1772.2,3982.7,1858.4,3774,1799z M4074.7,1371.9c67-42.1,107.2-136,95.8-224.1c-30.6-231.7-356.2-275.8-446.3-59.4C3636.1,1297.2,3881.2,1494.5,4074.7,1371.9z"/><path d="M3873.6-244.6c-203-42.1-390.7-204.9-465.4-400.3c-55.5-147.5-46-373.5,21.1-509.5c105.3-216.4,298.8-340.9,545.8-350.5c199.2-9.6,333.3,38.3,467.3,164.7c327.5,308.3,247.1,842.7-159,1036.1C4153.2-240.7,4001.9-217.8,3873.6-244.6z M4168.5-711.9c55.5-55.5,65.1-78.5,65.1-153.2c0-143.6-93.8-241.3-229.8-241.3c-176.2,0-283.5,183.9-201.1,344.7c42.1,82.4,101.5,114.9,206.8,114.9C4090-646.8,4113-656.4,4168.5-711.9z"/><path d="M5769.6-305.9c-139.8-53.6-293-208.8-346.7-350.5c-53.6-141.7-53.6-335.2-1.9-476.9c132.2-352.4,565-507.5,905.9-321.8c467.3,252.8,419.5,967.2-74.7,1153C6112.5-250.3,5907.5-252.2,5769.6-305.9z M6127.8-692.7c78.5-42.1,116.8-113,116.8-214.5c0-74.7-9.6-97.7-65.1-153.2c-53.6-53.6-80.4-65.1-143.6-65.1c-149.4,0-250.9,93.9-250.9,229.8C5785-719.6,5968.8-612.3,6127.8-692.7z"/></g></g>
</svg>