<?xml version="1.0" encoding="utf-8"?>
<!-- Svg Vector Icons : http://www.onlinewebfonts.com/icon -->
<!DOCTYPE svg PUBLIC "-//W3C//DTD SVG 1.1//EN" "http://www.w3.org/Graphics/SVG/1.1/DTD/svg11.dtd">
<svg version="1.1" xmlns="http://www.w3.org/2000/svg" xmlns:xlink="http://www.w3.org/1999/xlink" x="0px" y="0px" viewBox="0 0 1000 1000" enable-background="new 0 0 1000 1000" xml:space="preserve">
<metadata> Svg Vector Icons : http://www.onlinewebfonts.com/icon </metadata>
<g><g transform="translate(0.000000,511.000000) scale(0.100000,-0.100000)"><path d="M2165.1,4997.7c-782.3-108.1-1313.8-867.5-1150.5-1642.9c105.8-494.7,524.6-929.6,1005.5-1037.7l121.9-27.6l11.5-1286.2c9.2-821.4,23-1311.5,39.1-1355.3c101.2-285.3,287.6-501.6,529.2-616.6c126.6-57.5,193.3-73.6,354.3-80.5c430.3-20.7,766.2,179.5,948,566l73.6,154.2l6.9,904.3l6.9,902h-184.1h-184.1l-6.9-867.5c-6.9-823.7-9.2-874.4-55.2-973.3c-98.9-216.3-342.8-342.8-612-312.9c-237,23-370.4,103.5-462.5,278.4c-50.6,92-50.6,105.9-50.6,1389.8v1297.7l135.8,32.2c216.3,48.3,441.8,179.5,623.6,361.2c418.8,421.1,517.7,1007.8,262.3,1553.1c-121.9,260-368.2,510.8-618.9,628.2C2696.6,4988.5,2427.4,5034.5,2165.1,4997.7z M2595.4,4604.2c292.2-62.1,513.1-232.4,644.3-499.3c73.6-149.6,75.9-161.1,75.9-453.3c0-257.7-6.9-317.5-52.9-430.3c-119.6-296.8-418.8-515.4-745.5-543c-533.8-48.3-869.7,117.3-1060.7,520c-71.3,147.3-73.6,165.7-73.6,441.8c0,349.7,43.7,483.2,223.2,681.1C1840.6,4576.6,2215.7,4684.8,2595.4,4604.2z"/><path d="M6882,1228.8c-460.2-138.1-826-513.1-945.7-973.3c-50.6-188.7-50.6-497,0-685.7c121.9-474,513.1-862.9,984.8-980.2l154.2-39.1l6.9-1316.1l6.9-1313.8L7165-4236c191-384.3,609.7-607.5,1023.9-543c388.9,62.1,697.2,336,798.4,711c18.4,69,27.6,354.3,27.6,908.9c0,441.8-2.3,828.3-2.3,858.2c-2.3,48.3-11.5,50.6-186.4,50.6h-184.1v-835.2c0-690.3-6.9-858.2-36.8-957.2c-73.6-248.5-312.9-388.8-621.3-363.5c-278.4,20.7-462.5,168-513.1,409.6c-16.1,73.6-25.3,552.2-25.3,1330v1217.2l122,27.6C8067-1302.3,8455.8-918,8587-409.5c50.6,202.5,34.5,577.5-32.2,768.5c-142.7,395.8-448.7,701.8-846.7,846.7C7519.3,1274.8,7082.2,1286.3,6882,1228.8z M7496.3,876.7c407.3-85.1,669.6-368.1,736.3-789.2c71.3-455.6-128.9-885.9-492.4-1056.1c-273.8-128.8-678.8-131.2-954.9-4.6c-158.8,71.3-340.5,255.4-414.2,418.8c-126.6,273.8-126.6,660.4,0,934.2c69,149.6,241.6,335.9,382,405C6957.9,890.5,7257,927.3,7496.3,876.7z"/></g></g>
</svg>