<?xml version="1.0" encoding="utf-8"?>
<!-- Svg Vector Icons : http://www.onlinewebfonts.com/icon -->
<!DOCTYPE svg PUBLIC "-//W3C//DTD SVG 1.1//EN" "http://www.w3.org/Graphics/SVG/1.1/DTD/svg11.dtd">
<svg version="1.1" xmlns="http://www.w3.org/2000/svg" xmlns:xlink="http://www.w3.org/1999/xlink" x="0px" y="0px" viewBox="0 0 1000 1000" enable-background="new 0 0 1000 1000" xml:space="preserve">
<metadata> Svg Vector Icons : http://www.onlinewebfonts.com/icon </metadata>
<g><g transform="translate(0.000000,512.000000) scale(0.100000,-0.100000)"><path d="M955.1,5004.7C736.8,4953,476.3,4746.1,374.8,4545c-111.1-216.4-105.3,47.9-105.3-4427.9v-4134.9l55.5-55.5c49.8-47.9,70.9-55.6,162.8-55.6h107.3v-270v-270l55.5-55.5l55.5-55.5H1003c260.5,0,300.7,3.8,340.9,36.4c24.9,19.2,111.1,166.6,189.6,325.6l141.7,289.2h2673.6h2673.6l141.7-289.2c78.5-159,164.7-306.4,189.6-325.6c40.2-32.6,80.4-36.4,340.9-36.4h296.8l55.5,55.5l55.5,55.5v432.8c0,342.8,5.7,432.8,24.9,432.8c13.4,0,340.9-72.8,729.7-162.8c386.9-90,716.3-162.8,731.6-162.8c17.2,0,55.5,24.9,86.2,55.6l55.6,55.5V36.7c0,2725.3-5.8,4065.9-19.2,4088.9c-11.5,21.1-36.4,46-55.5,55.5c-19.2,11.5-379.2,84.3-798.6,164.7c-419.4,80.4-781.4,149.4-802.5,155.1c-21.1,5.7-59.4,47.9-84.3,95.8c-65.1,122.6-235.6,270-404.1,350.5l-143.7,68.9l-3198.4,3.8C2408.8,5020,995.4,5014.2,955.1,5004.7z M7405.5,4671.4c88.1-24.9,260.5-147.5,237.5-166.6c-5.7-3.8-53.6-38.3-109.2-76.6c-95.8-68.9-97.7-68.9-132.1-32.6c-17.2,19.2-78.5,57.5-134.1,84.3l-101.5,47.9h-2980c-2897.7,0-2983.9,0-3064.3-36.4c-114.9-51.7-247.1-178.1-306.4-294.9l-47.9-97.7V274.2v-3826.5l49.8-38.3l51.7-40.2l3267.3-1.9l3267.3-1.9l181.9-40.2c155.1-36.4,182-47.9,182-80.4c0-38.3-15.3-38.3-3587.2-44l-3585.2-3.8l3.8,4054.4l5.7,4056.4l53.6,111.1c63.2,124.5,145.6,197.3,287.3,245.2c93.9,32.5,275.8,34.5,3232.8,36.4C6892.2,4700.2,7323.1,4696.3,7405.5,4671.4z M4023.3,448.5v-3753.8H2558.2H1093V387.2c0,3359.2,1.9,3696.3,30.6,3734.6c17.2,24.9,49.8,51.7,72.8,61.3c21.1,9.6,666.5,17.2,1434.5,17.2l1392.3,1.9V448.5z M7173.8,4179.2c99.6-46,105.3-78.5,105.3-704.8v-574.6H5814H4348.9V3551v651.2h1388.5C6771.6,4202.2,7137.4,4196.5,7173.8,4179.2z M8677.2,4047.1c385-72.8,704.8-132.2,714.4-132.2c7.7,0,13.4-1723.7,13.4-3830.4c0-3167.7-3.8-3830.4-24.9-3830.4c-26.8,0-1055.3,235.6-1507.2,346.7l-249,59.4V369.9c0,3374.6,1.9,3713.5,30.6,3751.8C7727.3,4225.2,7744.5,4225.2,8677.2,4047.1z M7279.1,2334.9v-239.4h-325.6h-325.6v113c0,103.4-5.7,116.8-61.3,164.7c-47.9,40.2-72.8,47.9-118.7,40.2c-95.8-19.2-145.5-91.9-145.5-214.5v-103.4h-74.7H6153l-7.7,114.9c-9.6,124.5-44.1,180-124.5,201.1c-120.7,28.7-216.4-72.8-216.4-229.8v-86.2h-76.6h-76.6v111.1c0,95.8-7.7,118.7-47.9,157.1c-70.9,65.1-172.4,63.2-231.8-7.7c-36.4-40.2-46-74.7-46-157.1v-103.4H5249h-76.6v86.2c0,170.4-107.3,272-229.8,220.2c-74.7-30.6-114.9-107.3-114.9-220.2v-86.2h-239.4h-239.4v239.4v239.4H5814h1465.1V2334.9z M4827.6,1578.4c0-245.1,36.4-306.4,178.1-306.4c126.4,1.9,166.6,74.7,166.6,304.5v174.3h76.6h76.6v-191.5c0-180,3.8-197.3,47.9-239.4c70.9-72.8,168.5-70.9,235.6,1.9c38.3,44,42.1,69,42.1,239.4v189.6h74.7h74.7l7.7-189.6c5.7-168.5,11.5-195.4,51.7-239.4c51.7-55.5,103.4-68.9,180-44.1c82.4,26.8,109.2,101.5,109.2,300.7v172.4h76.6h76.6v-191.5c0-180,3.8-197.3,47.9-239.4c67-69,162.8-70.9,235.6-3.8c38.3,36.4,42.1,57.5,42.1,237.5v197.3h325.6h325.6V-202.7v-1953.5H5814H4348.9v1953.5v1953.5h239.4h239.4V1578.4z M7279.1-2903.1v-402.2H5814H4348.9v402.2v402.2H5814h1465.1V-2903.1z M1303.7-4138.4c0-5.7-34.5-78.5-76.6-162.8l-76.6-153.2h-114.9H920.7v162.8v162.8h191.5C1217.5-4128.8,1303.7-4132.7,1303.7-4138.4z M7777-4291.6v-162.8h-114.9h-114.9l-76.6,153.2c-42.1,84.3-76.6,157-76.6,162.8c0,5.8,86.2,9.6,191.5,9.6H7777V-4291.6z"/><path d="M3255.3,890.9l-55.5-55.5V381.4c0-459.6,5.7-507.5,74.7-559.2c51.7-40.2,147.5-28.7,206.8,21.1l53.6,46l5.7,440.5c5.8,488.4-5.7,561.2-101.5,597.5C3356.8,957.9,3314.7,950.2,3255.3,890.9z"/></g></g>
</svg>