<?xml version="1.0" encoding="utf-8"?>
<!-- Svg Vector Icons : http://www.onlinewebfonts.com/icon -->
<!DOCTYPE svg PUBLIC "-//W3C//DTD SVG 1.1//EN" "http://www.w3.org/Graphics/SVG/1.1/DTD/svg11.dtd">
<svg version="1.1" xmlns="http://www.w3.org/2000/svg" xmlns:xlink="http://www.w3.org/1999/xlink" x="0px" y="0px" viewBox="0 0 1000 1000" enable-background="new 0 0 1000 1000" xml:space="preserve">
<metadata> Svg Vector Icons : http://www.onlinewebfonts.com/icon </metadata>
<g><g transform="translate(0.000000,512.000000) scale(0.100000,-0.100000)"><path d="M4665.1,4999c-482.2-63.1-951-266-1343.3-581.7c-380.8-304.2-677.4-736.7-838.1-1220.8c-61.2-181.8-124.4-478.4-124.4-577.9c0-42.1-7.7-44-187.5-51.7c-220.1-7.7-357.8-63.1-470.7-187.5c-126.3-139.7-155-218.1-155-421c0-202.9,28.7-281.3,155-421c111-122.5,250.7-177.9,461.2-187.5l178-7.7v-2965.9c0-3245.3-5.7-3061.6,112.9-3122.9c88-45.9,937.6-44,1018,1.9c28.7,17.2,61.2,45.9,68.9,61.2c7.7,17.2,19.1,185.6,24.9,375l9.6,344.4H5000h1425.6l9.6-344.4c5.7-189.4,17.2-359.7,26.8-378.9c38.3-80.4,101.4-89.9,576-89.9c505.2,0,545.4,7.7,595.1,124.4c23,55.5,26.8,510.9,26.8,3029.1v2965.9l178,7.7c210.5,9.6,350.2,65,461.2,187.5c126.3,139.7,155,218.1,155,421c0,202.8-28.7,281.3-155,421c-112.9,124.4-250.7,179.9-470.7,187.5c-179.9,7.7-187.5,9.6-187.5,51.7c0,99.5-63.1,396.1-124.4,577.9C7112.5,4402,5918.5,5157.8,4665.1,4999z M5430.5,4568.5c212.4-44,367.4-97.6,574.1-199c660.2-327.2,1115.6-966.3,1222.7-1716.4l11.5-82.3H5000H2761.2l11.5,82.3c132,920.4,775,1649.5,1666.7,1886.7C4741.7,4620.1,5126.3,4631.6,5430.5,4568.5z M7941.1,2140.2c51.7-11.5,120.5-112.9,120.5-177.9c0-61.2-49.7-151.2-97.6-176c-55.5-30.6-5872.6-30.6-5928.1,0c-45.9,23-97.6,114.8-97.6,172.2c0,65,55.5,155,112.9,177.9c40.2,17.2,769.2,23,2948.7,19.1C6592,2153.6,7914.3,2147.9,7941.1,2140.2z M7238.8-1103.2v-2449.3H5000H2761.2v2449.3v2449.3H5000h2238.8V-1103.2z M3163-4174.4v-200.9h-200.9h-200.9v200.9v200.9h200.9H3163V-4174.4z M7238.8-4174.4v-200.9h-200.9H6837v200.9v200.9h200.9h200.9V-4174.4z"/><path d="M4108.3,3374.4c-107.2-44-158.8-208.6-91.8-302.3c68.9-99.5,76.5-99.5,974-99.5c895.5,0,926.2,3.8,993.1,97.6c49.7,72.7,40.2,177.9-24.9,250.7l-55.5,63.1l-878.3,3.8C4542.7,3389.7,4129.4,3384,4108.3,3374.4z"/><path d="M3584,88.9c-191.4-67-329.1-206.7-392.3-399.9c-26.8-82.3-30.6-193.3-24.9-830.4l5.7-736.7l47.8-95.7c59.3-122.5,174.1-237.3,296.6-296.6l95.7-47.8H5000h1387.3l120.5,65c133.9,72.7,191.3,132,267.9,277.5l51.7,97.6v775v775l-47.8,95.7C6720.3-110.1,6605.4,4.7,6483,64.1l-95.7,47.8l-1358.6,3.8C3830.8,119.6,3660.5,115.7,3584,88.9z M6062-295.7c-42.1-38.3-1023.7-732.9-1048.6-740.5c-17.2-7.7-1016.1,681.2-1083,746.3c-3.8,5.7,476.5,9.6,1069.6,9.6C5593.2-280.4,6071.6-288,6062-295.7z M4255.6-1026.6c597-426.7,679.3-478.4,744.4-478.4c65.1,0,147.3,51.7,744.4,478.4c367.4,264.1,675.5,478.4,681.2,478.4c5.7,0,9.6-267.9,9.6-595.1c0-501.3-3.8-604.7-30.6-658.2c-59.3-128.2-21.1-124.4-1404.5-124.4s-1345.2-3.8-1404.5,124.4c-26.8,53.6-30.6,156.9-30.6,658.2c0,327.2,3.8,595.1,9.6,595.1C3580.2-548.3,3888.3-762.6,4255.6-1026.6z"/></g></g>
</svg>