<?xml version="1.0" encoding="utf-8"?>
<!-- Svg Vector Icons : http://www.onlinewebfonts.com/icon -->
<!DOCTYPE svg PUBLIC "-//W3C//DTD SVG 1.1//EN" "http://www.w3.org/Graphics/SVG/1.1/DTD/svg11.dtd">
<svg version="1.1" xmlns="http://www.w3.org/2000/svg" xmlns:xlink="http://www.w3.org/1999/xlink" x="0px" y="0px" viewBox="0 0 1000 1000" enable-background="new 0 0 1000 1000" xml:space="preserve">
<metadata> Svg Vector Icons : http://www.onlinewebfonts.com/icon </metadata>
<g><path d="M984.5,814.2L743.1,572.7c31.7-36.1,31.7-90.7,0-123.5L592.3,299.6l0,0c0-159.5-127.8-287.3-287.3-287.3C142.2,7.9,10,135.7,10,295.2s132.2,291.7,291.7,291.7l0,0l149.7,149.7c36.1,36.1,90.7,36.1,122.4,0l63.4,63.4c4.4,4.4,8.7,4.4,14.2,4.4h68.8v68.8c0,13.1,8.7,22.9,22.9,22.9h68.8v68.8c0,14.2,8.7,22.9,22.9,22.9h132.2c14.2,0,22.9-8.7,22.9-22.9V831.6C988.9,822.9,984.5,818.5,984.5,814.2z M251.4,535.6C142.2,512.6,55.9,412.1,55.9,294.1c0-136.6,109.3-245.8,245.8-245.8c118,0,218.5,86.3,241.5,195.6C506,222,451.4,222,419.7,253.7L255.8,417.6C228.5,449.3,224.1,499.5,251.4,535.6z M943,940.9h-90.7v-68.8c0-14.2-8.7-22.9-22.9-22.9h-67.7v-68.8c0-13.1-8.7-22.9-22.9-22.9h-77.6l-73.2-73.2c-4.4-4.4-8.7-4.4-14.2-4.4c-4.4,0-14.2,4.4-18.6,8.7L541,701.6c-18.6,18.6-45.9,18.6-63.4,0L283.1,508.2c-18.6-18.6-18.6-45.9,0-63.4L447,281c18.6-18.6,45.9-18.6,63.4,0l31.7,31.7c-4.4,36.1-14.2,73.2-31.7,104.9c-8.7-4.4-22.9-8.7-36.1-8.7c-36.1,0-68.8,31.7-68.8,68.8c0,36.1,31.7,68.8,68.8,68.8c36.1,0,68.8-31.7,68.8-68.8c0-8.7,0-14.2-4.4-18.6c18.6-31.7,36.1-63.4,40.4-100.5L707,486.4c18.6,18.6,18.6,45.9,0,63.4L693.9,564c-4.4,4.4-8.7,8.7-8.7,18.6c0,4.4,4.4,14.2,4.4,14.2l250.2,250.2v95h3.3V940.9z M501.6,472.2c0,14.2-8.7,22.9-22.9,22.9c-14.2,0-22.9-8.7-22.9-22.9c0-14.2,8.7-22.9,22.9-22.9C487.4,449.3,501.6,459.1,501.6,472.2z"/></g>
</svg>