<?xml version="1.0" encoding="utf-8"?>
<!-- Svg Vector Icons : http://www.onlinewebfonts.com/icon -->
<!DOCTYPE svg PUBLIC "-//W3C//DTD SVG 1.1//EN" "http://www.w3.org/Graphics/SVG/1.1/DTD/svg11.dtd">
<svg version="1.1" xmlns="http://www.w3.org/2000/svg" xmlns:xlink="http://www.w3.org/1999/xlink" x="0px" y="0px" viewBox="0 0 1000 1000" enable-background="new 0 0 1000 1000" xml:space="preserve">
<metadata> Svg Vector Icons : http://www.onlinewebfonts.com/icon </metadata>
<g><g transform="translate(0.000000,511.000000) scale(0.100000,-0.100000)"><path d="M4673.3,4997.7C3570.2,4843.8,2694,4115.6,2368.4,3083.6c-118.4-372.9-122.3-440-122.3-1760.2V123.6h-410.4c-386.8,0-414.4-2-497.3-43.4C1291,54.5,1233.7,9.1,1212-20.5c-41.4-55.2-41.4-71-47.4-2295c-3.9-2198.3-3.9-2239.7,35.5-2314.7c19.7-43.4,69.1-94.7,104.6-118.4l67.1-41.4h3629c3585.5,0,3629,0,3694.1,39.5c35.5,21.7,80.9,67.1,102.6,102.6c39.5,63.2,39.5,104.6,39.5,2306.8V-99.4l-43.4,65.1c-98.7,144.1-108.5,148-588,153.9l-432.2,5.9l-7.9,1227.4c-9.9,1357.7-9.9,1369.5-142.1,1766.1c-315.7,943.3-1089.3,1630-2068,1841.1C5346.2,5003.6,4868.6,5025.3,4673.3,4997.7z M5383.7,4553.7c489.4-80.9,897.9-292,1264.9-659.1c311.8-309.8,511.1-661.1,623.6-1095.2l53.3-199.3l9.9-1302.4C7347.1,76.2,7349.1-8.6,7384.6-73.7c51.3-96.7,88.8-136.2,179.6-185.5c71-37.5,118.4-43.4,463.7-51.3l384.8-9.9v-2022.7v-2022.7l-3407.9-5.9l-3409.9-4v2032.5v2032.5h365.1c398.6,0,461.7,11.8,568.3,114.5c128.3,120.4,120.4,47.4,134.2,1454.3c13.8,1387.2,13.8,1385.3,128.3,1736.5C3143.9,4070.2,4252.9,4735.3,5383.7,4553.7z"/><path d="M4641.7,4338.6c-444-84.9-781.4-258.5-1101.1-564.4c-365.1-349.3-586.1-797.2-643.3-1302.4c-25.6-221-25.6-2375.9,0-2464.7c31.6-114.5,116.4-215.1,223-268.4l100.6-49.3H4985c1339.9,0,1785.9,5.9,1847.1,23.7c110.5,33.5,234.8,161.8,266.4,272.3c17.7,69.1,21.7,382.8,17.7,1341.9l-7.9,1253.1l-51.3,191.4c-209.2,763.7-785.4,1336-1549.1,1537.2C5308.7,4360.3,4844.9,4378.1,4641.7,4338.6z M5521.8,3855.2c538.7-181.6,939.3-597.9,1109-1146.5c43.4-146,43.4-163.8,51.3-1365.5l5.9-1219.5H4998.8H3311.7v1122.8c0,915.6,5.9,1152.4,29.6,1294.5c114.5,655.2,611.7,1186,1266.9,1351.7c126.3,31.6,205.2,37.5,440.1,33.5C5308.7,3920.3,5350.1,3912.4,5521.8,3855.2z"/><path d="M4811.4-865c-189.4-31.6-410.4-155.9-558.4-311.8c-213.1-226.9-305.9-479.5-286.1-785.4c15.8-234.8,92.7-414.4,272.3-637.4l39.5-49.3l-140.1-404.5c-126.3-365.1-138.1-416.4-132.2-526.9c9.9-151.9,82.9-268.4,213.1-341.4l88.8-49.3l657.1-5.9c566.4-5.9,672.9-2,755.8,25.7c132.2,45.4,244.7,173.7,276.3,319.7l25.7,110.5l-148,438.1L5725-2645l67.1,77c84.8,100.6,191.4,307.8,221,432.2c33.5,136.2,29.6,394.7-9.9,522.9c-98.7,335.5-341.4,592-659.1,702.5C5190.3-855.2,4969.2-837.4,4811.4-865z M5247.5-1330.8c130.3-57.2,244.7-169.7,307.8-298c69.1-146,75-361.1,11.8-499.2c-53.3-120.4-161.8-236.8-270.4-294l-86.8-47.3l185.5-538.7l183.5-538.7h-570.3c-315.7,0-572.3,7.9-572.3,17.8c0,7.9,80.9,248.6,177.6,534.8c98.7,286.1,175.6,521,173.7,521c-187.5,98.7-327.6,252.6-371,406.5c-27.6,96.7-23.7,292.1,7.9,380.8C4543-1356.4,4927.8-1190.6,5247.5-1330.8z"/></g></g>
</svg>