<?xml version="1.0" encoding="utf-8"?>
<!-- Svg Vector Icons : http://www.onlinewebfonts.com/icon -->
<!DOCTYPE svg PUBLIC "-//W3C//DTD SVG 1.1//EN" "http://www.w3.org/Graphics/SVG/1.1/DTD/svg11.dtd">
<svg version="1.1" xmlns="http://www.w3.org/2000/svg" xmlns:xlink="http://www.w3.org/1999/xlink" x="0px" y="0px" viewBox="0 0 1000 1000" enable-background="new 0 0 1000 1000" xml:space="preserve">
<metadata> Svg Vector Icons : http://www.onlinewebfonts.com/icon </metadata>
<g><path d="M317.7,574.5c-37.3,0-67.6,30.3-67.6,67.6c0,37.3,30.3,67.6,67.6,67.6c37.3,0,67.6-30.3,67.6-67.6C385.3,604.8,355,574.5,317.7,574.5L317.7,574.5z M317.7,677.1c-19.3,0-35-15.7-35-35c0-19.3,15.7-35,35-35c19.3,0,35,15.7,35,35C352.8,661.4,337,677.1,317.7,677.1L317.7,677.1z"/><path d="M878.7,159.2H553C511.1,71.1,421.5,10,317.7,10C174.1,10,57.2,126.9,57.2,270.5v459C57.2,873.1,174.1,990,317.7,990c143.7,0,260.5-116.9,260.5-260.5V304h300.5c35.3,0,64.1-28.7,64.1-64.1v-16.7C942.8,187.9,914.1,159.2,878.7,159.2L878.7,159.2z M545.7,729.5c0,125.7-102.3,228-228,228c-125.7,0-228-102.3-228-228v-459c0-125.7,102.3-228,228-228c85.2,0,159.6,47.1,198.7,116.6h-95c-22.9-32.7-60.8-54.1-103.7-54.1c-69.8,0-126.6,56.8-126.6,126.6s56.8,126.6,126.6,126.6c42.9,0,80.8-21.4,103.7-54.1h124.3V729.5L545.7,729.5z M302.4,304h74.8c-16.2,13.4-36.9,21.6-59.5,21.6c-51.8,0-94-42.2-94-94c0-51.8,42.2-94,94-94c22.6,0,43.3,8.2,59.5,21.6h-74.8c-35.3,0-64.1,28.7-64.1,64.1V240C238.3,275.3,267.1,304,302.4,304L302.4,304z M910.2,240c0,17.4-14.1,31.5-31.5,31.5H302.4c-17.4,0-31.5-14.1-31.5-31.5v-16.7c0-17.4,14.1-31.5,31.5-31.5h576.3c17.4,0,31.5,14.1,31.5,31.5V240L910.2,240z"/><path d="M317.7,515.5c-69.8,0-126.6,56.8-126.6,126.6c0,42.7,21.3,80.4,53.8,103.3v99.8c0,35.3,28.8,64.1,64.1,64.1h17.4c35.3,0,64.1-28.7,64.1-64.1v-99.8c32.5-22.9,53.8-60.6,53.8-103.3C444.3,572.3,387.5,515.5,317.7,515.5L317.7,515.5z M357.8,727v35c0.1,0,0.1,0,0.2-0.1v83.2c0,17.4-14.1,31.5-31.5,31.5H309c-17.4,0-31.5-14.1-31.5-31.5V762c0,0,0.1,0,0.1,0V727c-31.8-15.1-53.9-47.4-53.9-84.9c0-51.8,42.2-94,94-94c51.8,0,94,42.2,94,94C411.7,679.6,389.6,711.9,357.8,727L357.8,727z"/></g>
</svg>