<?xml version="1.0" encoding="utf-8"?>
<!-- Svg Vector Icons : http://www.onlinewebfonts.com/icon -->
<!DOCTYPE svg PUBLIC "-//W3C//DTD SVG 1.1//EN" "http://www.w3.org/Graphics/SVG/1.1/DTD/svg11.dtd">
<svg version="1.1" xmlns="http://www.w3.org/2000/svg" xmlns:xlink="http://www.w3.org/1999/xlink" x="0px" y="0px" viewBox="0 0 1000 1000" enable-background="new 0 0 1000 1000" xml:space="preserve">
<metadata> Svg Vector Icons : http://www.onlinewebfonts.com/icon </metadata>
<g><g transform="translate(0.000000,511.000000) scale(0.100000,-0.100000)"><path d="M458,3202c-141.2-43-247.6-133-319.2-268C102,2864.4,100,2760,100,274.2v-2588.1l45-81.8c92.1-173.9,233.2-257.8,452.1-272.1l147.3-10.2v-88c0-116.6,32.7-184.1,104.3-214.8c45-18.4,73.7-18.4,118.7,0c71.6,30.7,104.3,98.2,104.3,216.9v92.1H5000h3928.2v-92.1c0-118.7,32.7-186.2,104.3-216.9c45-18.4,73.7-18.4,118.7,0c71.6,30.7,104.3,98.2,104.3,214.8v88l149.4,10.2c221,14.3,360.1,100.2,456.2,282.3c36.8,69.6,38.9,173.9,38.9,2659.7c0,2485.8-2,2590.2-38.9,2659.7c-53.2,100.3-130.9,180-227.1,231.2l-81.8,45l-4521.5,4.1C2544.9,3216.3,486.7,3210.1,458,3202z M9531.7,2841.9l51.2-49.1V274.2v-2518.5l-51.2-49.1l-49.1-51.2H5000H517.4l-49.1,51.2l-51.1,49.1V274.2v2518.6l51.1,49.1l49.1,51.1H5000h4482.6L9531.7,2841.9z"/><path d="M834.5,2541.1c-24.5-10.2-55.2-42.9-67.5-69.6c-24.6-55.2-32.7-4292.4-10.2-4382.4c30.7-112.5-214.8-106.4,4241.2-106.4c2970.7,0,4126.6,6.1,4161.4,22.5c28.7,12.3,61.4,45,73.7,73.6c32.7,69.6,32.7,4321,0,4390.6c-12.3,28.7-45,61.4-73.7,73.7C9091.9,2573.9,897.9,2571.8,834.5,2541.1z M8928.2,274.2v-1964.1H5000H1071.8V274.2v1964.1H5000h3928.2V274.2z"/><path d="M1812.4,1563.2c-24.6-10.2-55.2-43-65.5-71.6c-28.6-75.7-26.6-1057.8,2-1121.2c12.3-28.7,45-61.4,73.7-73.6c34.8-16.4,403-22.5,1213.2-22.5s1178.5,6.1,1213.2,22.5c88,40.9,96.2,92.1,96.2,632.2c0,540.1-8.2,591.3-96.2,632.2C4187.8,1589.8,1884.1,1589.8,1812.4,1563.2z M4018,928.9V601.6h-982h-982v327.3v327.4h982h982V928.9z"/><path d="M5085.9,1563.2c-65.5-26.6-85.9-100.2-85.9-306.9c0-294.6,32.7-327.4,327.3-327.4c202.6,0,270.1,20.5,304.9,96.2c12.3,26.6,22.5,130.9,22.5,231.2c0,202.5-20.5,270.1-96.2,304.9C5499.2,1587.7,5153.4,1589.8,5085.9,1563.2z"/><path d="M6072.1,1559.1c-24.6-10.2-55.2-43-67.5-69.6c-28.6-65.5-28.6-401,0-464.4c34.8-75.7,102.3-96.2,304.9-96.2c100.3,0,204.6,10.2,231.2,22.5c75.7,34.8,96.2,102.3,96.2,304.8c0,202.5-20.4,270.1-96.2,304.9C6479.2,1589.8,6131.4,1587.7,6072.1,1559.1z"/><path d="M7050,1563.2c-65.5-26.6-85.9-100.2-85.9-302.8c0-225,12.3-263.9,83.9-300.8c69.6-36.8,401-40.9,474.7-8.2c75.7,34.8,96.2,102.3,96.2,306.9c0,204.6-30.7,292.6-106.4,313C7440.8,1589.8,7103.2,1583.6,7050,1563.2z"/><path d="M5090,577c-69.6-32.7-90-104.3-90-302.8c0-294.6,32.7-327.3,327.3-327.3c294.6,0,327.4,32.7,327.4,327.3c0,202.6-20.5,270.1-96.2,304.9C5497.2,607.7,5149.4,605.7,5090,577z"/><path d="M6068,581.1c-24.6-10.2-55.2-43-65.5-71.6c-22.5-59.3-26.6-380.5-8.2-456.2c20.4-75.7,108.4-106.4,313-106.4c296.7,0,329.4,32.7,329.4,329.4c0,204.6-30.7,292.6-106.4,313C6458.7,607.7,6121.2,601.6,6068,581.1z"/><path d="M7054.1,577c-69.6-32.7-90-104.3-90-302.8c0-294.6,32.7-327.3,327.4-327.3c294.6,0,327.3,32.7,327.3,327.3c0,202.6-20.5,270.1-96.2,304.9C7461.2,607.7,7113.4,605.7,7054.1,577z"/><path d="M5085.9-400.9c-24.6-10.2-55.3-43-65.5-71.6c-22.5-59.3-26.6-380.5-8.2-456.2c20.4-75.7,108.4-106.4,313-106.4c296.7,0,329.4,32.8,329.4,329.4c0,204.6-30.7,292.6-106.4,313C5476.7-374.3,5139.1-380.5,5085.9-400.9z"/><path d="M6068-400.9c-65.5-26.6-85.9-100.2-85.9-306.9c0-294.6,32.7-327.4,327.3-327.4c294.6,0,327.3,32.8,327.3,327.4c0,202.5-20.4,270.1-96.2,304.9C6481.3-376.4,6135.5-374.3,6068-400.9z"/><path d="M7050-400.9c-69.6-28.6-90-112.5-81.8-341.7c8.2-276.2,12.3-280.3,284.4-288.5c337.6-12.3,374.4,24.6,362.1,362.1c-8.2,274.1-12.3,276.2-298.7,282.3C7195.3-382.5,7076.6-390.7,7050-400.9z"/></g></g>
</svg>