<?xml version="1.0" encoding="utf-8"?>
<!-- Svg Vector Icons : http://www.onlinewebfonts.com/icon -->
<!DOCTYPE svg PUBLIC "-//W3C//DTD SVG 1.1//EN" "http://www.w3.org/Graphics/SVG/1.1/DTD/svg11.dtd">
<svg version="1.1" xmlns="http://www.w3.org/2000/svg" xmlns:xlink="http://www.w3.org/1999/xlink" x="0px" y="0px" viewBox="0 0 1000 1000" enable-background="new 0 0 1000 1000" xml:space="preserve">
<metadata> Svg Vector Icons : http://www.onlinewebfonts.com/icon </metadata>
<g><g transform="translate(0.000000,511.000000) scale(0.100000,-0.100000)"><path d="M100,4474.1v-535.9h293.5H687V110v-3828.1H393.5H100v-535.9V-4790h4900h4900v535.9v535.9H8241.1H6582.3V110v3828.1h472.1h472.1V2534.5V1130.8h204.2h204.2v1403.7v1403.6h484.9h484.9V2534.5V1130.8h204.2H9313v1403.7v1403.6h293.5H9900v535.9V5010H5000H100V4474.1z M9491.7,4474.1v-127.6H5000H508.3v127.6v127.6H5000h4491.7V4474.1z M2065.1,110v-3828.1h-484.9h-484.9V110v3828.1h484.9h484.9V110z M3417.7,110v-3828.1h-472.1h-472.1V110v3828.1h472.1h472.1V110z M4795.8,110v-3828.1h-484.9H3826V110v3828.1h484.9h484.9V110z M6174,110v-3828.1h-484.9h-484.9V110v3828.1h484.9H6174V110z M9491.7-4254.1v-127.6H5000H508.3v127.6v127.6H5000h4491.7V-4254.1z"/><path d="M8144.2,878.2c-275.6-102.1-487.5-311.4-597.2-589.5c-51-125-56.2-199.1-66.3-719.7l-10.2-581.9h-214.4h-214.4v-1071.9v-1071.9h1429.2H9900v1071.9v1071.9h-214.4h-214.4L9461-418.3l-7.6,592.1l-81.7,171c-107.2,227.1-257.7,385.4-464.5,487.4c-145.4,71.5-196.5,81.7-398.1,89.3C8333,926.7,8248.8,916.5,8144.2,878.2z M8713.3,480c97-38.3,227.1-171,285.8-290.9c38.3-76.6,45.9-173.5,53.6-632.9l7.6-543.6h-587h-589.5v523.2c0,405.8,7.7,546.2,38.3,615.1C8054.8,472.4,8394.3,612.8,8713.3,480z M9491.7-2072v-676.3H8470.8H7450v676.3v676.3h1020.8h1020.8V-2072z"/><path d="M8266.7-2072v-344.5h204.2H8675v344.5v344.5h-204.2h-204.2V-2072z"/></g></g>
</svg>