<?xml version="1.0" encoding="utf-8"?>
<!-- Svg Vector Icons : http://www.onlinewebfonts.com/icon -->
<!DOCTYPE svg PUBLIC "-//W3C//DTD SVG 1.1//EN" "http://www.w3.org/Graphics/SVG/1.1/DTD/svg11.dtd">
<svg version="1.1" xmlns="http://www.w3.org/2000/svg" xmlns:xlink="http://www.w3.org/1999/xlink" x="0px" y="0px" viewBox="0 0 1000 1000" enable-background="new 0 0 1000 1000" xml:space="preserve">
<metadata> Svg Vector Icons : http://www.onlinewebfonts.com/icon </metadata>
<g><g transform="translate(0.000000,512.000000) scale(0.100000,-0.100000)"><path d="M4035,5002c-206.8-21.1-515.1-86.2-585.9-122.5c-80.4-42.1-183.8-149.4-233.6-245.1c-40.2-74.7-44-111.1-49.8-442.3c-7.7-446.1,3.8-499.8,137.9-633.8c126.4-126.4,191.5-143.6,517-143.6h260.4V3116v-296.8l-136-181.9c-116.8-158.9-134-191.5-128.3-252.7c5.7-61.3,23-84.3,135.9-172.3l128.3-105.3v-243.2v-243.2l-134-178.1c-185.7-247-183.8-294.9,17.2-438.5l116.8-84.2v-247v-247l-136-178.1c-118.7-160.8-134-189.5-128.3-252.7c5.7-65.1,19.1-84.2,134-170.4l128.3-95.7v-248.9v-248.9L3946.9-951c-97.7-132.1-134-197.2-134-239.4c0-72.8,19.2-97.7,158.9-201l109.1-80.4v-248.9v-248.9l-134-176.2c-199.1-262.3-191.5-308.3,90-463.4c84.2-46,99.6-65.1,109.1-122.6c7.7-36.4,30.6-151.3,53.6-254.7l40.2-185.7l-111.1-164.7c-189.6-279.6-164.7-325.5,231.7-427l76.6-21.1l130.2-304.5c176.2-413.6,312.1-656.8,381-679.8c93.8-32.5,147.4,3.8,237.4,160.8c101.5,180,304.4,633.8,400.2,903.8c51.7,137.9,86.2,210.6,113,222.1c21.1,9.6,111.1,118.7,199.2,243.2c201,279.6,204.9,304.5,59.3,432.7l-101.5,88.1l21.1,151.3c11.5,84.3,26.8,212.5,34.5,285.3c11.5,126.4,19.1,143.6,143.6,314c95.7,132.1,132.1,197.2,132.1,241.3c0,72.8-19.2,97.6-157,201.1l-111,80.4v245.1v245.1L6055-771c118.7,160.8,134,191.5,128.3,254.7c-5.7,63.2-21.1,82.3-134,168.5L5921-252.1v247l-1.9,245.1L6055,423.8c178.1,241.3,176.2,275.7-5.7,421.3l-130.2,105.3v241.3v241.3l134,181.9c183.8,250.8,181.9,294.9-17.2,438.5l-116.8,84.3v247v245.1l134,185.7c180,245.1,178.1,277.6-3.8,423.2c-78.5,63.2-130.2,118.7-130.2,139.8c0,34.5,19.2,36.4,260.4,36.4c325.5,0,390.6,17.2,517,143.6c134,134,145.5,187.6,137.9,633.8c-5.7,331.3-9.6,367.6-49.8,442.3c-49.8,95.7-153.2,203-233.6,245.1c-76.6,40.2-369.6,99.6-612.7,122.5C5710.4,5026.9,4259,5025,4035,5002z M4670.7,4693.8c13.4-13.4,23-80.4,23-168.5c0-88.1,9.6-155.1,23-168.5c32.5-32.5,534.2-32.5,566.8,0c13.4,13.4,23,80.4,23,170.4c0,109.2,7.7,153.2,28.7,170.4c40.2,32.5,564.9,13.4,813.8-28.7c369.6-65.1,383-84.3,383-532.3c0-315.9,0-321.7-47.9-367.6l-46-47.9H5000H3562l-46,47.9c-47.9,45.9-47.9,51.7-47.9,367.6c0,451.9,13.4,471,392.5,530.4c254.7,40.2,287.2,44.1,557.2,46C4574.9,4714.8,4655.3,4709.1,4670.7,4693.8z M5608.9,3391.7c-5.8-13.4-80.4-47.9-170.4-74.7c-88.1-26.8-361.9-114.9-605.1-195.3l-446.1-143.6v218.3v218.3h614.6C5480.6,3414.7,5614.6,3409,5608.9,3391.7z M5783.1,3056.6l40.2-34.5l-72.8-103.4l-74.7-105.3l-704.6-225.9c-666.3-214.5-706.6-224-750.6-197.2c-49.8,34.5-47.9,44,47.9,170.4c55.5,76.6,61.3,78.5,742.9,300.6c379.1,122.5,697,224,708.5,225.9C5733.3,3089.2,5760.2,3073.9,5783.1,3056.6z M5612.7,2327.1v-149.4l-587.8-189.6c-325.5-103.4-601.2-191.5-614.6-197.2c-19.2-5.8-23,24.9-19.2,141.7l5.7,149.4l603.2,195.3c331.3,107.2,605.1,195.3,608.9,197.2C5610.8,2476.5,5612.7,2409.4,5612.7,2327.1z M5821.4,1831.2c3.8-1.9-28.7-51.7-70.8-109.1c-90-116.8,13.4-74.7-944-383c-279.6-90-520.8-164.7-536.1-164.7c-15.3,0-44,13.4-63.2,28.7c-36.4,26.8-34.5,32.5,47.9,135.9l84.2,107.2l698.9,225.9c656.8,210.6,700.8,224,737.2,193.4C5796.5,1848.4,5817.6,1833.1,5821.4,1831.2z M5612.7,1126.5V984.8l-559.1-181.9c-308.3-99.6-584-187.6-612.7-193.4l-53.6-13.4v141.7v143.6l321.7,103.4c176.2,57.4,440.4,143.6,587.8,193.4c147.4,47.9,279.6,90,293,90C5605.1,1270.2,5612.7,1229.9,5612.7,1126.5z M5785,661.3l40.2-32.6l-70.8-95.7c-40.2-53.6-74.7-99.6-76.6-103.4c-3.8-3.8-321.7-109.1-708.5-233.6C4303-18.5,4266.6-28.1,4222.6,0.7c-24.9,15.3-46,32.5-46,38.3c0,3.8,34.5,53.6,74.7,107.2l76.6,99.6l685.5,224c377.2,122.5,695.1,222.1,706.5,224C5733.3,695.7,5762.1,680.4,5785,661.3z M5612.7-66.4v-147.4l-587.8-187.6c-321.7-105.3-597.4-193.4-612.7-199.1c-21.1-7.7-24.9,17.2-21.1,139.8l5.7,149.3L5000-114.2C5331.2-7,5605.1,81.1,5608.9,81.1C5610.8,83,5612.7,16,5612.7-66.4z M5823.3-562.3c0-3.8-34.5-53.6-78.5-111.1c-61.3-80.4-95.7-109.1-166.6-132.1c-49.8-15.3-360-114.9-687.4-220.2c-329.3-107.2-608.9-193.4-622.3-193.4c-11.5,0-38.3,13.4-55.5,30.6c-34.5,30.6-32.5,36.4,36.4,134C4320.3-951,4322.2-951,4530.9-884c116.8,36.4,434.7,139.8,706.6,227.8c465.3,149.4,499.7,158.9,541.9,132.1C5804.2-539.3,5823.3-556.6,5823.3-562.3z M5612.7-1265v-143.6l-559.1-181.9c-308.3-99.6-584-187.6-612.7-193.4l-53.6-13.4v143.6v145.5l427,136c233.6,74.7,497.8,160.8,587.8,191.5c90,30.6,174.2,55.5,187.6,55.5C5605.1-1123.3,5612.7-1163.6,5612.7-1265z M5790.8-1732.2c30.6-32.5,26.8-42.1-40.2-134c-40.2-55.5-95.7-107.2-128.3-118.7c-30.6-11.5-335.1-114.9-672.1-231.7l-616.6-210.6l-68.9,42.1c-38.3,21.1-68.9,46-68.9,51.7c0,7.7,30.6,51.7,65.1,99.6l65.1,86.2l687.4,224c377.2,122.5,698.9,224,716.1,224C5746.8-1697.8,5773.6-1713.1,5790.8-1732.2z M5584-2457.9c-7.7-72.8-19.2-137.9-26.8-145.5c-11.5-11.5-861.6-319.8-1011-365.7c-36.4-11.5-42.1-1.9-65.1,122.6c-13.4,72.8-19.1,137.9-15.3,139.8c15.3,13.4,1079.9,373.4,1106.7,375.3C5593.6-2329.6,5595.5-2354.5,5584-2457.9z M5652.9-2959.6l44.1-34.5l-74.7-103.4c-40.2-57.4-76.6-105.3-78.5-109.1c-1.9-3.8-204.9-74.7-450-158.9c-444.2-153.2-444.2-153.2-547.6-130.2c-57.4,13.4-107.2,30.6-114.9,42.1c-5.7,9.6,15.3,46,44,84.2c49.8,61.3,103.4,84.2,582.1,254.7c289.1,103.4,532.3,189.6,538,189.6C5603.1-2923.2,5628-2938.5,5652.9-2959.6z M5247-3731.3c-36.4-91.9-72.8-180-193.4-459.6c-21.1-51.7-45.9-91.9-53.6-91.9c-15.3,0-183.8,373.4-201,444.2c-9.6,40.2,5.7,49.8,214.5,122.5c124.5,44.1,237.4,80.4,248.9,82.4C5279.6-3631.7,5273.8-3662.3,5247-3731.3z"/></g></g>
</svg>