<?xml version="1.0" encoding="utf-8"?>
<!-- Svg Vector Icons : http://www.onlinewebfonts.com/icon -->
<!DOCTYPE svg PUBLIC "-//W3C//DTD SVG 1.1//EN" "http://www.w3.org/Graphics/SVG/1.1/DTD/svg11.dtd">
<svg version="1.1" xmlns="http://www.w3.org/2000/svg" xmlns:xlink="http://www.w3.org/1999/xlink" x="0px" y="0px" viewBox="0 0 1000 1000" enable-background="new 0 0 1000 1000" xml:space="preserve">
<metadata> Svg Vector Icons : http://www.onlinewebfonts.com/icon </metadata>
<g><g transform="translate(0.000000,511.000000) scale(0.100000,-0.100000)"><path d="M4806.4,4938c-41.2-52.9-41.2-62.7-41.2-1637V1717l-72.5-11.8c-249-39.2-345-58.8-470.5-100c-696-225.5-1278.2-794-1493.9-1456.6c-51-154.9-100-411.7-100-519.5c0-76.5-47-139.2-1252.7-1635C685.5-2862.6,117-3574.3,111.1-3591.9c-21.6-52.9-11.8-98,29.4-151l39.2-51h607.7h605.8l17.7-45.1c39.2-103.9,301.9-298,568.5-421.5c1437-666.6,4424.8-682.2,5965.7-33.3c296,125.5,601.9,339.2,645,454.8l17.7,45.1h597.9h599.9l47.1,49c88.2,86.3,68.6,125.5-192.1,417.6c-349,388.2-1623.3,1860.5-2397.6,2768.2c-13.7,15.7-35.3,125.5-47.1,241.1c-101.9,1011.6-884.2,1823.2-1929.1,2003.6c-96.1,15.7-182.3,29.4-190.2,29.4c-9.8,0-17.6,703.8-17.6,1593.9v1595.8l-45.1,41.2C4967.2,5008.6,4859.3,5004.7,4806.4,4938z M5461.2,1334.7c250.9-64.7,543-209.8,746.9-370.5c382.3-303.9,650.9-794,688.1-1252.7l11.8-152.9h-1986H2936.1l11.8,143.1c7.8,78.4,35.3,221.6,62.7,317.6c205.8,709.7,790.1,1219.4,1554.6,1354.7C4800.5,1415.1,5218.1,1397.4,5461.2,1334.7z M7306-1092.4c474.4-552.8,1633.1-1889.9,1858.5-2142.8l207.8-235.3l-2195.7-5.9c-1207.6-2-3181.8-2-4387.5,0l-2191.8,5.9l1095.9,1358.6l1094,1356.6h2115.3h2113.4L7306-1092.4z M8156.9-3833.1c-27.5-21.6-105.9-68.6-176.4-105.9c-1305.7-692-4654.1-692-5959.8,0c-70.6,37.3-149,84.3-176.4,105.9c-49,37.3-29.4,39.2,3156.3,39.2C8186.3-3793.9,8205.9-3795.8,8156.9-3833.1z"/></g></g>
</svg>