<?xml version="1.0" encoding="utf-8"?>
<!-- Svg Vector Icons : http://www.onlinewebfonts.com/icon -->
<!DOCTYPE svg PUBLIC "-//W3C//DTD SVG 1.1//EN" "http://www.w3.org/Graphics/SVG/1.1/DTD/svg11.dtd">
<svg version="1.1" xmlns="http://www.w3.org/2000/svg" xmlns:xlink="http://www.w3.org/1999/xlink" x="0px" y="0px" viewBox="0 0 1000 1000" enable-background="new 0 0 1000 1000" xml:space="preserve">
<metadata> Svg Vector Icons : http://www.onlinewebfonts.com/icon </metadata>
<g><g transform="translate(0.000000,401.000000) scale(0.100000,-0.100000)"><path d="M3248.6,2797.9c-63.2-68.9-63.2-166.5,0-227.8c45.9-47.9,49.8-47.9,411.5-47.9h363.7v-277.5c0-271.8,1.9-281.4,47.9-325.4c45.9-47.9,49.8-47.9,402-47.9h354.1V1060V248.4l-1343.7-9.6c-1401.1-9.6-1422.1-11.5-1728.4-99.5C1051.3-65.5,454.1-645.5,214.8-1357.5C103.8-1688.6,100-1765.2,100-3321.3v-1412.6l47.9-45.9l45.9-47.9H5000h4806.2l45.9,47.9l47.9,45.9v1412.6c0,1556.1-3.8,1632.7-114.8,1963.8c-239.3,712-836.4,1292-1540.8,1496.8c-306.3,88-327.3,90-1726.5,99.5l-1345.6,9.6V1060v811.6h354.1c352.2,0,356,0,402,47.9c45.9,44,47.9,53.6,47.9,325.4v277.5h363.7c361.8,0,365.6,0,411.5,47.9c63.2,61.3,63.2,158.9,0,227.8l-45.9,49.8H5000H3294.6L3248.6,2797.9z M5650.8,2359.6v-162.7H5000h-650.8v162.7v162.7H5000h650.8V2359.6z M4827.7-339.2v-239.3H3574H2318.4l-45.9-47.9c-32.5-30.6-47.9-67-47.9-114.8s15.3-84.2,47.9-114.8l45.9-47.9h570.4h570.4l-170.4-170.4l-168.4-168.4l-231.6-23c-298.6-30.6-438.3-65.1-566.6-141.6c-139.7-84.2-302.4-264.1-373.2-415.4c-51.7-109.1-59.3-145.5-59.3-287.1c0-191.4,44-304.3,170.4-430.7c306.3-306.3,830.7-199.1,1108.2,225.9c101.5,155,126.3,243.1,158.9,545.5l30.6,281.4l289,292.9l290.9,290.9h444.1h446v-222v-222l-172.3-216.3c-197.1-246.9-256.5-363.7-287.1-558.9c-53.6-348.4,91.9-687.1,352.2-825c86.1-45.9,118.7-51.7,279.5-51.7c153.1,0,195.2,7.7,264.1,44c275.6,147.4,423,478.5,367.5,832.6c-28.7,191.4-103.4,335-294.8,568.5l-164.6,201v225.9v223.9h530.2h530.2l285.2-283.3l285.2-285.2l34.5-294.8c38.3-325.4,53.6-382.8,145.5-526.4c91.9-145.5,229.7-268,388.6-348.4c130.1-65.1,158.9-70.8,296.7-70.8c183.7,0,289,40.2,421.1,162.7c99.5,91.9,155,197.1,183.7,340.7c55.5,296.7-168.4,671.8-499.6,834.5c-124.4,61.2-172.3,72.7-405.8,97.6c-147.4,15.3-279.5,28.7-294.8,28.7c-30.6,0-350.3,300.5-350.3,329.2c0,7.7,248.8,15.3,553.2,15.3c304.3,0,568.5,5.7,585.7,11.5c36.4,15.3,86.1,105.3,86.1,160.8c0,23-24.9,67-55.5,97.6l-55.5,55.5H6504.4H5172.3v239.3V-98l1403-7.7c1387.7-5.7,1403-5.7,1554.2-49.8c650.8-183.8,1137-648.9,1349.4-1288.2c80.4-239.3,95.7-438.3,95.7-1196.3v-713.9H4998.1H421.6l9.6,798.2c5.7,671.8,13.4,823,40.2,943.6c107.2,459.4,390.5,890,759.9,1154.2c227.8,162.7,587.6,308.2,849.8,344.5c32.5,3.8,662.3,9.6,1403,11.5l1343.7,1.9V-339.2z M3009.4-1646.5c0-130.1-44-379-80.4-455.5c-132.1-283.3-581.9-398.1-696.7-178c-40.2,82.3-28.7,266.1,26.8,375.2c49.8,93.8,193.3,225.9,281.4,254.6c72.7,23,266.1,51.7,388.5,55.5C3005.5-1592.9,3009.4-1596.8,3009.4-1646.5z M7582.1-1642.7c193.3-57.4,327.3-206.7,365.6-409.6c23-124.4,0-223.9-68.9-289c-42.1-40.2-67-45.9-185.7-45.9c-116.8,0-153.1,9.6-241.2,57.4c-101.4,55.5-197.1,160.8-235.4,258.4c-17.2,44-32.5,135.9-63.2,380.9l-11.5,103.3l174.2-13.4C7413.6-1608.2,7532.3-1627.4,7582.1-1642.7z M5132.1-1822.6c155-189.5,195.2-279.4,195.2-430.7c0-153.1-57.4-290.9-156.9-382.8c-124.4-112.9-216.3-112.9-340.7,0c-155,141.7-208.6,415.4-114.8,595.3c51.7,95.7,268,373.2,287.1,365.6C5009.6-1677.2,5067-1744.2,5132.1-1822.6z M9574.6-4090.8v-411.5H5000H425.4v411.5v411.5H5000h4574.6V-4090.8z"/></g></g>
</svg>