<?xml version="1.0" encoding="utf-8"?>
<!-- Svg Vector Icons : http://www.onlinewebfonts.com/icon -->
<!DOCTYPE svg PUBLIC "-//W3C//DTD SVG 1.1//EN" "http://www.w3.org/Graphics/SVG/1.1/DTD/svg11.dtd">
<svg version="1.1" xmlns="http://www.w3.org/2000/svg" xmlns:xlink="http://www.w3.org/1999/xlink" x="0px" y="0px" viewBox="0 0 1000 1000" enable-background="new 0 0 1000 1000" xml:space="preserve">
<metadata> Svg Vector Icons : http://www.onlinewebfonts.com/icon </metadata>
<g><g transform="translate(0.000000,511.000000) scale(0.100000,-0.100000)"><path d="M4935.9,3978.8c-24.7-16.5-32.9-96.7-37-483.6l-6.2-463h-72c-92.6,0-296.3-70-403.3-135.8c-125.5-80.3-255.2-222.2-319-353.9c-49.4-102.9-57.6-146.1-63.8-345.7l-8.2-228.4L2785.5,727.4L1542.5-515.5l-115.2,92.6c-193.4,152.3-191.4,150.2-246.9,125.5c-53.5-24.7-65.9-82.3-30.9-146.1c10.3-20.6,72-76.1,137.9-125.5c133.8-98.8,253.1-205.8,253.1-228.4c0-6.2-35-18.5-78.2-26.7c-201.7-30.9-458.9-220.2-609.1-448.6C781.1-1379.8,100-2810,100-2853.2c0-10.3,18.5-28.8,39.1-41.2c43.2-22.6,3057.9-30.9,3117.6-8.2c92.6,35,82.3,65.8-267.5,792.3c-187.3,388.9-349.8,716.1-360.1,726.4c-45.3,49.4-8.2,45.3,139.9-10.3c399.2-154.3,924-281.9,1407.6-339.5l279.9-35L4341.2-1884c-63.8-63.8-150.2-166.7-189.3-228.4c-84.4-127.6-738.8-1518.7-738.8-1566c0-18.5,16.5-47.3,37-65.9c35-32.9,174.9-35,1584.5-35h1547.5l30.9,49.4c30.9,47.3,20.6,76.1-300.4,775.8c-183.2,401.3-362.2,775.8-399.2,831.4c-35,57.6-121.4,154.3-191.4,218.1l-125.5,117.3l158.5,14.4c399.2,35,913.7,150.2,1374.6,304.6l271.6,90.5l-37-63.8c-22.6-35-183.2-374.5-360.1-753.2c-236.7-506.2-316.9-697.6-302.5-720.2c16.4-26.7,218.1-30.9,1584.5-37l1566-4.1l35,51.4c32.9,51.4,26.8,65.9-310.7,777.9c-189.3,397.2-374.5,773.8-413.6,833.4c-140,214-353.9,384.8-565.9,450.7c-65.9,20.6-117.3,45.3-115.3,57.6c4.1,10.3,98.8,94.7,212,187.3c214,174.9,244.9,226.4,181.1,298.4c-47.3,51.4-94.7,49.4-166.7-8.2c-30.9-26.7-117.3-84.4-189.3-127.6l-133.8-80.2l-216.1,226.4c-117.3,123.5-650.3,672.9-1183.3,1218.2l-969.2,996l-12.3,207.8c-6.2,115.3-26.8,261.3-47.3,323.1c-92.6,294.3-380.7,514.5-716.1,549.4l-119.3,12.3v450.7c0,271.6-8.2,467.1-20.6,491.8C5077.9,4001.4,4989.4,4013.8,4935.9,3978.8z M5361.9,2754.4c189.3-55.6,349.8-209.9,397.2-378.6c10.3-41.2,20.6-160.5,20.6-263.4v-191.4h-771.7h-771.7v170.8c0,94.7,14.4,218.1,30.9,273.7c55.6,189.3,244.9,353.9,471.2,413.6C4870,2812,5213.7,2799.6,5361.9,2754.4z M4894.7,62.7v-1633.9l-158.5,8.2c-1129.7,55.6-2119.6,333.4-2862.4,802.6l-109.1,67.9L2943.9,501l1179.1,1193.5h386.9h384.8V62.7z M7104.9,507.2C7734.5-145.1,8249-686.3,8249-692.5c0-24.7-444.5-267.5-670.8-370.4c-668.8-296.3-1376.7-450.7-2306.8-500l-150.2-8.2V60.7v1633.9h419.8h419.8L7104.9,507.2z M2046.7-1095.8c238.7-113.2,302.5-199.6,656.5-917.8c174.9-353.9,319-650.3,319-658.5c0-10.3-592.7-16.5-1317-16.5s-1317,4.1-1317,8.2S530.1-2382,705-2026c347.8,710,409.5,800.5,625.6,909.6c152.3,76.1,238.7,94.7,428,86.4C1886.2-1036.2,1950-1050.5,2046.7-1095.8z M8631.8-1095.8c72-32.9,166.7-102.9,234.6-170.8c100.9-105,146.1-183.2,428-765.5c170.8-358.1,312.8-656.5,312.8-662.6c0-8.2-592.6-14.4-1317-14.4c-757.3,0-1317,8.2-1317,18.5c0,10.3,142,308.7,316.9,664.7c347.8,710,409.5,800.5,625.6,909.6c152.3,76.1,238.7,94.7,428,86.4C8471.2-1036.2,8535.1-1050.5,8631.8-1095.8z M5172.6-1846.9c67.9-12.4,158.5-41.2,203.7-63.8c100.8-51.4,265.4-203.7,345.7-321c59.7-86.4,633.8-1282,633.8-1321.1c0-14.4-452.7-20.6-1319.1-20.6c-1047.4,0-1317,6.2-1308.8,26.7c4.1,12.4,146.1,316.9,314.9,672.9c296.3,627.6,308.7,652.3,440.4,784c146.1,146.1,236.7,197.5,411.6,236.7C5040.8-1820.2,5032.6-1820.2,5172.6-1846.9z"/></g></g>
</svg>