<?xml version="1.0" encoding="utf-8"?>
<!-- Svg Vector Icons : http://www.onlinewebfonts.com/icon -->
<!DOCTYPE svg PUBLIC "-//W3C//DTD SVG 1.1//EN" "http://www.w3.org/Graphics/SVG/1.1/DTD/svg11.dtd">
<svg version="1.1" xmlns="http://www.w3.org/2000/svg" xmlns:xlink="http://www.w3.org/1999/xlink" x="0px" y="0px" viewBox="0 0 1000 1000" enable-background="new 0 0 1000 1000" xml:space="preserve">
<metadata> Svg Vector Icons : http://www.onlinewebfonts.com/icon </metadata>
<g><g transform="translate(0.000000,511.000000) scale(0.100000,-0.100000)"><path d="M131.1,1905.2c-68.7-68.7-18.2-404.2,99-650.8c78.8-165.7,208.2-343.6,333.5-456.8c101-90.9,325.4-238.5,426.5-280.9c64.7-26.3,76.8-42.4,88.9-119.3c26.3-169.8,93-384,161.7-519.4c78.8-159.7,270.8-418.3,398.2-541.7c392.1-377.9,1069.2-713.4,1774.5-883.2c569.9-137.4,1053-183.9,1754.3-167.7c739.7,16.2,1303.6,105.1,1889.7,297.1c1089.4,359.7,1748.2,994.4,1823,1752.3c14.2,135.4,16.2,141.5,78.8,163.7c36.4,14.2,147.5,78.8,248.6,145.5C9614,910.9,9868.7,1307,9895,1715.3c10.1,127.3,6.1,159.7-22.2,188c-32.3,32.3-345.6,34.4-4872.8,34.4C628.3,1937.6,159.4,1933.5,131.1,1905.2z M9670.6,1630.4c-6.1-48.5-50.5-161.7-95-254.6c-137.5-280.9-404.2-531.6-717.5-673l-129.4-58.6h-3739h-3739l-129.4,58.6c-256.7,117.2-511.3,331.5-648.8,547.7c-68.7,107.1-149.6,331.5-151.6,410.3v54.6h4680.8h4682.9L9670.6,1630.4z M8662.1,306.6c-22.2-254.6-143.5-489.1-380-741.7C7785-962.7,6869.4-1336.6,5747.7-1470c-371.9-44.5-1073.2-44.5-1455.2,0c-895.3,103.1-1647.2,359.8-2213.1,757.9c-175.8,123.3-479,432.5-563.9,574c-93,157.6-157.7,327.4-175.8,454.7l-14.1,105.1h3674.3h3674.3L8662.1,306.6z"/></g></g>
</svg>