<?xml version="1.0" encoding="utf-8"?>
<!-- Svg Vector Icons : http://www.onlinewebfonts.com/icon -->
<!DOCTYPE svg PUBLIC "-//W3C//DTD SVG 1.1//EN" "http://www.w3.org/Graphics/SVG/1.1/DTD/svg11.dtd">
<svg version="1.1" xmlns="http://www.w3.org/2000/svg" xmlns:xlink="http://www.w3.org/1999/xlink" x="0px" y="0px" viewBox="0 0 1000 1000" enable-background="new 0 0 1000 1000" xml:space="preserve">
<metadata> Svg Vector Icons : http://www.onlinewebfonts.com/icon </metadata>
<g><path d="M858.2,551.7H143.3c-10.6,0-20.3-5.7-25.4-15s-4.8-20.6,0.9-29.5l162.8-257V39c0-16,13-29,29-29h380.1c16,0,29,13,29,29v211.2l162.9,257c5.6,8.9,6,20.2,0.9,29.5C878.5,545.9,868.8,551.7,858.2,551.7z M195.9,493.7h609.6L666.3,274.1c-3-4.6-4.5-10-4.5-15.5V67.9H339.6v190.7c0,5.5-1.6,10.9-4.5,15.5L195.9,493.7z"/><path d="M491.7,707c-187.4,0-289.2-56.1-319.4-104.1c-8.5-13.5-4.5-31.4,9.1-40c13.6-8.5,31.4-4.5,40,9.1c13.5,21.4,88.3,77,270.4,77c207.7,0,282.1-79.9,282.8-80.7c10.6-11.7,28.9-13,40.8-2.5c11.9,10.5,13.3,28.5,2.9,40.5C814.7,610.5,728.8,707,491.7,707z"/><path d="M921.9,874.4c-8.8,0-17.4-3.9-23.1-11.4L785.4,714.4c-9.7-12.7-7.3-30.9,5.4-40.6c12.7-9.8,30.9-7.2,40.6,5.4l113.4,148.6c9.7,12.7,7.3,30.9-5.4,40.6C934.2,872.5,928,874.4,921.9,874.4z"/><path d="M722.8,956.9c-10.7,0-21.1-6-26-16.3l-82-167.9c-7-14.4-1-31.7,13.3-38.7c14.4-7,31.8-1,38.7,13.3l82,167.9c7,14.4,1,31.7-13.3,38.7C731.5,955.9,727.1,956.9,722.8,956.9z"/><path d="M78.1,864.7c-6.1,0-12.3-1.9-17.5-5.9c-12.7-9.7-15.2-27.9-5.4-40.6l113.4-148.6c9.7-12.7,27.9-15.2,40.6-5.4c12.7,9.7,15.2,27.9,5.4,40.6L101.2,853.3C95.5,860.7,86.9,864.7,78.1,864.7z"/><path d="M261.6,947.2c-4.3,0-8.6-0.9-12.7-3c-14.4-7-20.4-24.4-13.3-38.7l81.9-168c7-14.4,24.3-20.4,38.7-13.3c14.4,7,20.4,24.4,13.3,38.7l-81.9,168C282.6,941.2,272.3,947.2,261.6,947.2z"/><path d="M494.9,990c-15.9,0-28.9-12.8-29-28.8l-1.4-186.9c-0.1-16,12.7-29.1,28.8-29.2c0.1,0,0.1,0,0.2,0c15.9,0,28.9,12.8,29,28.8l1.4,186.9c0.1,16-12.7,29.1-28.7,29.2C495.1,990,495,990,494.9,990z"/></g>
</svg>