<?xml version="1.0" encoding="utf-8"?>
<!-- Svg Vector Icons : http://www.onlinewebfonts.com/icon -->
<!DOCTYPE svg PUBLIC "-//W3C//DTD SVG 1.1//EN" "http://www.w3.org/Graphics/SVG/1.1/DTD/svg11.dtd">
<svg version="1.1" xmlns="http://www.w3.org/2000/svg" xmlns:xlink="http://www.w3.org/1999/xlink" x="0px" y="0px" viewBox="0 0 1000 1000" enable-background="new 0 0 1000 1000" xml:space="preserve">
<metadata> Svg Vector Icons : http://www.onlinewebfonts.com/icon </metadata>
<g><g transform="translate(0.000000,511.000000) scale(0.100000,-0.100000)"><path d="M576.6,3742.5c-17.9-76.1,11.2-422.9,51.5-575c116.3-456.4,440.8-852.5,870.4-1060.5c293.1-141,409.4-163.3,942-176.8l469.9-13.4l-389.3-720.5l-391.6-720.4L2022,596.7c-145.4,156.6-201.4,192.4-1098.6,671.2c-548.2,290.9-776.4,400.5-794.3,384.8c-22.4-15.7-29.1-427.4-29.1-1922c0-1651.2,4.5-1899.6,33.6-1910.8c33.6-13.4,1490.1,727.2,1662.4,845.8c132,91.7,317.7,286.4,391.6,413.9c35.8,58.2,384.8,722.7,776.4,1472.2l711.5,1364.8h599.6h599.6l308.8-1085.2c167.8-595.2,304.3-1087.4,302.1-1089.6c-4.5-2.2-51.5,6.7-105.2,17.9c-55.9,13.4-196.9,20.1-313.2,15.7c-196.9-8.9-275.2-29.1-1051.6-273c-460.9-145.4-861.4-277.4-888.3-295.3c-127.5-80.6-136.5-67.1,1261.9-1467.8c1197-1197,1322.3-1315.6,1387.2-1315.6c51.5,0,82.8,15.7,105.2,51.5c15.6,26.9,145.4,427.4,284.1,888.3l252.9,839v290.9v290.9l-443,1543.8c-241.6,850.2-445.2,1557.3-449.7,1572.9c-6.7,20.1,85,26.9,420.6,26.9H6376l534.8-1226.1c736.1-1682.6,745.1-1702.7,928.5-1883.9c111.9-111.9,210.3-181.2,405-284.2c140.9-73.8,525.8-277.4,854.7-452c328.9-172.3,617.5-315.5,642.1-315.5c24.6,0,60.4,15.7,78.3,35.8c31.3,31.3,35.8,237.2,35.8,1930.9c0,1443.1-6.7,1901.8-26.9,1921.9c-15.7,15.7-49.2,26.9-78.3,26.9c-67.1,0-1666.9-852.5-1792.2-955.4c-53.7-44.8-127.5-118.6-161.1-165.6l-62.6-87.3l-290.9,677.9c-161.1,371.4-299.8,691.4-306.5,713.8c-13.4,33.6,42.5,38,664.5,47c756.3,11.2,807.7,17.9,1125.4,172.3c367,179,651.1,454.2,818.9,794.3c114.1,234.9,154.4,402.7,154.4,642.1c0,179-4.5,199.1-51.5,230.4c-44.7,29.1-595.2,33.6-4653.9,38L590,3796.2L576.6,3742.5z M9636,3471.8c-22.4-463.2-358-921.8-843.5-1152.3c-328.9-156.6-116.3-147.7-3658.2-141c-3553.1,6.7-3210.7-9-3557.5,158.9c-190.2,91.7-498.9,396-599.6,590.7C894.3,3086.9,816,3366.6,816,3509.8v96.2l4414.5-4.5l4412.2-6.7L9636,3471.8z M3261.5,1677.3c-73.8-138.7-308.8-588.4-523.6-997.9L2348.6-65.6l-49.2,152.1l-49.2,152.1l452,843.5l452,845.7h118.6h120.8L3261.5,1677.3z M5613.1,757.7c183.5-642.1,340.1-1181.4,344.6-1199.3c6.7-20.1-22.4-11.2-80.5,22.4c-60.4,35.8-100.7,78.3-114.1,120.8c-13.4,38-154.4,539.2-315.5,1116.5c-163.3,579.5-299.8,1065-306.5,1080.7c-8.9,20.1,11.2,29.1,62.6,29.1h76.1L5613.1,757.7z M6841.4,1901.1c6.7-15.7,167.8-398.3,358-850.2l349.1-823.4l-38-111.9l-38-114.1l-398.3,946.4c-217,521.3-396,953.1-396,964.3C6678.1,1939.1,6830.2,1930.2,6841.4,1901.1z M1191.9,887.5c610.8-333.4,742.8-438.5,865.9-691.4c154.4-311,154.4-610.8,0-921.8c-132-270.8-257.3-367-1015.8-780.9c-360.2-196.9-664.5-360.2-675.7-364.7c-11.2-4.5-20.1,639.9-20.1,1606.5v1615.4l163.3-89.5C596.7,1214.2,905.5,1044.1,1191.9,887.5z M9653.9-267c0-1317.9-4.5-1611-29.1-1604.3c-15.7,4.5-337.9,165.6-713.8,362.5c-718.2,371.4-888.3,483.3-1015.8,669c-129.8,188-172.3,335.6-174.5,586.2c0,196.9,6.7,239.4,60.4,355.7c89.5,194.7,205.8,337.9,360.2,447.5c120.8,85,1452.1,794.3,1496.8,796.5C9647.2,1346.2,9653.9,621.3,9653.9-267z M5496.7-510.9c183.5-55.9,358-179,492.2-346.8c163.3-203.6,205.8-331.1,205.8-626.5v-246.1l-228.2-736.1c-123.1-405-230.4-738.3-232.7-742.8c-4.5-4.5-521.3,505.7-1147.8,1132.1c-763,762.9-1127.7,1143.3-1107.5,1150c17.9,6.7,360.2,114.1,760.7,234.9c675.7,208.1,740.6,223.8,919.6,226C5293.1-466.1,5398.3-479.6,5496.7-510.9z"/></g></g>
</svg>