<?xml version="1.0" encoding="utf-8"?>
<!-- Svg Vector Icons : http://www.onlinewebfonts.com/icon -->
<!DOCTYPE svg PUBLIC "-//W3C//DTD SVG 1.1//EN" "http://www.w3.org/Graphics/SVG/1.1/DTD/svg11.dtd">
<svg version="1.1" xmlns="http://www.w3.org/2000/svg" xmlns:xlink="http://www.w3.org/1999/xlink" x="0px" y="0px" viewBox="0 0 1000 1000" enable-background="new 0 0 1000 1000" xml:space="preserve">
<metadata> Svg Vector Icons : http://www.onlinewebfonts.com/icon </metadata>
<g><g transform="translate(0.000000,511.000000) scale(0.100000,-0.100000)"><path d="M5812.2,4242.1c-49-12.2-230.1-181.1-563-526.3l-492-504.2l-237.4,75.9c-372.1,117.5-656,156.7-1057.4,142c-599.7-24.5-1084.4-183.6-1578.8-514c-217.9-146.9-700.1-609.5-719.7-690.3c-7.3-31.8-2.4-88.1,12.2-127.3c12.2-36.7,244.8-288.8,514-558.1l487.1-489.6l-97.9-186c-225.2-430.8-227.6-888.5-9.8-1324.2c279.1-555.6,915.5-876.3,1522.5-768.6c190.9,34.3,445.5,134.6,555.6,217.9c46.5,36.7,73.4,14.7,565.4-474.9c641.3-636.4,589.9-619.3,935-283.9c482.2,470,768.6,971.8,900.8,1588.6c85.7,401.4,68.5,966.9-39.2,1361l-44.1,159.1L7329.8,475c729.4-729.4,866.5-878.8,881.2-952.2c24.5-127.3,100.3-264.4,222.7-394.1l107.7-115l4.9-1458.9l7.3-1461.3l63.6-63.7c88.1-88.1,225.2-88.1,313.3,0l63.6,63.7l7.3,1383l7.3,1383h58.8c31.8,0,73.4,7.3,95.5,14.7c34.3,14.7,39.2-78.3,39.2-915.4v-932.6l58.8-68.5c46.5-53.9,78.3-68.5,161.5-68.5s115,14.7,161.5,68.5l58.8,68.5v1047.6v1047.7l58.8,53.8c31.8,29.4,90.5,122.4,127.3,205.6c56.3,124.8,68.6,186,71,347.6c0,173.8-9.8,215.4-78.3,357.4c-151.8,308.4-428.4,489.6-758.8,499.4l-183.6,4.9l-913,913l-915.5,915.5l156.7,164c181.1,188.5,186,205.6,107.7,487.1c-176.2,636.4-680.5,1069.7-1380.5,1184.7C5907.7,4259.3,5853.8,4254.4,5812.2,4242.1z M6252.8,3693.8c95.4-46.5,217.8-122.4,274.2-171.3c129.7-110.2,283.9-342.7,337.8-504.2l41.6-124.8l-531.2-533.6L5844,1826.2l12.2-93c4.9-53.8,51.4-190.9,100.3-308.4c124.9-298.6,186-553.2,203.2-851.8c39.2-702.5-205.6-1368.3-697.6-1909.3L5337.4-1471L3526,340.4C2527.3,1336.6,1712.2,2164,1712.2,2178.7c0,41.6,347.6,328,533.6,440.6c391.6,239.9,766.1,350,1253.3,369.6c391.6,14.7,709.8-39.2,1052.5-178.7c222.7-90.6,279-97.9,357.4-51.4c26.9,17.1,274.2,257,545.8,536.1C6017.8,3870.1,5951.8,3838.2,6252.8,3693.8z M7604,1228.9l859.1-859.2L8375,262l-90.6-105.2l-873.9,873.9l-876.3,876.3l90.6,90.6c49,51.4,95.4,93,102.8,93C6735,2090.5,7129.1,1703.8,7604,1228.9z M3530.9-291.1c362.3-352.5,362.3-357.4,306-391.6C3646-805.2,3261.7-837,3021.8-746.4c-565.4,210.5-832.2,854.3-570.3,1378.1l49,95.5l332.9-330.4C3019.3,215.5,3332.7-95.3,3530.9-291.1z M9246.4,88.3C9371.3,31.9,9457-114.9,9457-269.1c0-239.9-176.2-416.1-413.7-416.1c-372.1,0-558.1,440.6-293.7,705C8881.7,154.3,9055.5,178.8,9246.4,88.3z"/><path d="M192.1-242.2c-107.7-83.2-122.4-227.7-36.7-328l58.8-68.5l638.9-7.3c697.6-7.4,761.3,2.4,810.2,132.2c39.2,97.9,29.4,146.9-39.2,227.6l-63.6,75.9H897.1C412.5-212.8,221.5-220.2,192.1-242.2z"/><path d="M1871.3-1162.6c-110.2-66.1-325.6-306-345.2-379.4c-36.7-149.3,107.7-296.2,261.9-266.8c36.7,7.3,142,88.1,244.8,193.4c164,166.4,181.1,188.5,181.1,281.5C2214-1150.3,2035.3-1059.7,1871.3-1162.6z"/><path d="M2806.4-1559.1c-105.3-61.2-110.2-142-63.7-805.3l44.1-624.2l75.9-66.1c80.8-75.9,134.6-83.2,232.5-39.2c129.7,58.7,137.1,102.8,95.4,719.6c-44.1,685.4-46.5,709.9-119.9,783.3C3007.1-1527.3,2884.7-1512.6,2806.4-1559.1z"/></g></g>
</svg>