<?xml version="1.0" encoding="utf-8"?>
<!-- Svg Vector Icons : http://www.onlinewebfonts.com/icon -->
<!DOCTYPE svg PUBLIC "-//W3C//DTD SVG 1.1//EN" "http://www.w3.org/Graphics/SVG/1.1/DTD/svg11.dtd">
<svg version="1.1" xmlns="http://www.w3.org/2000/svg" xmlns:xlink="http://www.w3.org/1999/xlink" x="0px" y="0px" viewBox="0 0 1000 1000" enable-background="new 0 0 1000 1000" xml:space="preserve">
<metadata> Svg Vector Icons : http://www.onlinewebfonts.com/icon </metadata>
<g><g transform="translate(0.000000,512.000000) scale(0.100000,-0.100000)"><path d="M2062.1,4972.1c-51.7-49.8-63.2-137.8-26.8-204.8c38.3-68.9,132.1-91.9,400-91.9h248.8v-277.5c0-271.8,1.9-281.4,47.9-325.4c42.1-44,59.3-47.9,239.3-47.9h191.4V2780.5V1536.4h-84.2c-116.8,0-176.1-26.8-212.5-93.8c-23-47.9-28.7-143.6-28.7-555.1V391.8l-61.3-40.2c-202.9-124.4-388.6-438.3-426.8-719.7c-42.1-327.3,162.7-729.2,478.5-932.1c174.2-112.9,335-155,562.7-145.5c178,5.7,199.1,11.5,356,90c361.8,179.9,583.8,516.8,583.8,891.9c0,306.3-141.6,591.4-390.5,790.5l-105.3,84.2v509.1v511.1l-59.3,53.6c-47.9,42.1-74.6,51.7-162.7,51.7h-105.3v1244.1v1244.1h660.4h660.4V1115.3v-2909.4h-103.4c-220.1,0-222-3.8-222-627.8v-497.7l-103.4-78.5c-281.4-212.5-446-631.6-377.1-964.7c93.8-446,535.9-817.3,978.1-817.3c442.2,0,884.3,371.3,978.1,817.3c68.9,333-95.7,752.2-377.1,964.7l-103.4,78.5v497.7c0,610.6-5.7,625.9-214.4,627.8h-111v2909.4v2909.4h660.4h660.4V1947.9V-128.8h-114.8c-97.6,0-124.4-7.7-162.7-47.9c-47.9-45.9-47.9-51.7-49.8-405.8c-1.9-197.1-1.9-428.7,1.9-514.9l3.8-155l-95.7-68.9c-109.1-78.5-233.5-225.8-300.5-356c-193.3-384.7-118.7-828.8,193.3-1138.9c405.8-407.7,1010.6-396.2,1406.8,24.9c134,145.5,220.1,313.9,260.3,514.9c28.7,143.6,28.7,168.4,0,313.9c-17.2,86.1-57.4,208.6-88,273.7c-61.3,124.4-250.8,346.4-333.1,390.5l-49.8,26.8l-5.7,524.5l-5.7,526.4l-53.6,45.9c-42.1,36.4-74.6,45.9-158.9,45.9h-103.4v2076.8v2076.8h191.4c179.9,0,197.1,3.8,239.3,47.9c45.9,44,47.9,53.6,47.9,323.5v277.5l289,5.7l289,5.7l45.9,53.6c61.3,72.7,61.3,172.3-1.9,233.5l-46,47.9H5000.2H2108L2062.1,4972.1z M6990.8,4512.8V4352H5000.2H3009.5v160.8v162.7h1990.6h1990.6V4512.8z M3507.2,1029.2V866.5h-162.7h-162.7v162.7v162.7h162.7h162.7V1029.2z M3507.2,386.1c0-162.7,15.3-197.1,120.6-248.8C3746.5,76,3828.8,7.1,3890-81c204.8-296.7,120.6-750.3-174.2-939.8c-178-112.9-463.2-132.1-664.2-45.9c-134,57.4-273.7,208.6-327.3,354.1c-61.3,160.8-51.7,415.4,21.1,555.1c59.3,112.9,166.5,220.1,273.7,273.7c128.2,63.2,151.2,103.4,158.9,264.1l7.7,141.6h160.8h160.8V386.1z M6818.5-618.8v-160.8h-162.7h-162.7v160.8V-458h162.7l162.7-1.9V-618.8z M6818.5-1252.4c0-164.6,24.9-208.6,143.6-279.4c130.2-74.7,233.5-176.1,292.9-290.9c45.9-86.1,51.7-114.8,51.7-296.7c0-166.5-7.6-216.3-42.1-290.9c-61.3-134-179.9-250.7-317.7-313.9c-101.4-47.9-141.6-55.5-290.9-55.5c-145.5,0-189.5,7.7-277.5,49.8c-151.2,70.8-239.3,155-310.1,300.5c-57.4,116.8-63.2,141.6-63.2,310.1c1.9,277.5,82.3,419.2,325.4,572.3c67,44,132.1,95.7,143.6,114.8c9.6,21,19.1,97.6,19.1,172.3v135.9h162.7h162.7V-1252.4z M5172.4-2282.1v-162.7h-172.3h-172.3v162.7v162.7h172.3h172.3V-2282.1z M5172.4-2938.7c0-170.4,7.7-185.7,139.7-260.3c132.1-76.6,208.6-149.3,268-258.4c139.7-252.6,97.6-587.6-99.5-792.4c-141.6-151.2-380.9-223.9-599.1-185.7c-231.6,42.1-392.4,164.6-488.1,373.2c-44,97.6-51.7,139.7-51.7,279.4c0,147.4,5.7,178,61.3,290.9c67,134,139.7,208.6,285.2,292.9c130.2,76.6,137.8,91.9,139.7,262.2v147.4h172.3h172.3V-2938.7z"/><path d="M3287.1,198.5c-93.8-40.2-114.8-90-120.6-300.5c-5.7-178-11.5-199.1-42.1-199.1c-51.7,0-114.8-90-114.8-166.5c0-44,15.3-80.4,47.9-111c44-45.9,57.4-47.9,285.2-47.9h237.3l49.8,59.3c26.8,32.5,49.8,74.7,49.8,95.7c0,67-53.6,147.4-114.8,166.5l-57.4,21.1v191.4c0,170.3-3.8,197.1-42.1,239.2C3415.3,200.4,3344.5,221.4,3287.1,198.5z"/><path d="M6548.7-1505c-53.6-55.5-55.5-61.2-55.5-248.8c0-189.5,0-193.3-47.9-204.8c-26.8-5.8-65.1-34.5-86.1-59.3c-55.5-70.8-49.8-151.2,17.2-218.2c55.5-55.5,59.3-55.5,269.9-55.5c212.5,0,273.7,13.4,319.7,74.7c57.4,74.6,1.9,231.6-90,260.3c-34.4,11.5-38.3,28.7-38.3,170.4c0,193.3-24.9,271.8-97.6,308.2C6659.7-1436.1,6611.8-1443.8,6548.7-1505z"/><path d="M4883.4-3170.3c-53.6-55.5-55.5-61.2-55.5-245v-189.5l-57.4-21.1c-124.4-47.9-135.9-241.2-17.2-302.4c74.6-40.2,419.2-40.2,493.8,0c118.7,61.3,107.2,254.6-17.2,302.4l-57.4,21.1v189.5c0,183.8-1.9,189.5-55.5,245C5040.4-3095.6,4960-3095.6,4883.4-3170.3z"/></g></g>
</svg>