<?xml version="1.0" encoding="utf-8"?>
<!-- Svg Vector Icons : http://www.onlinewebfonts.com/icon -->
<!DOCTYPE svg PUBLIC "-//W3C//DTD SVG 1.1//EN" "http://www.w3.org/Graphics/SVG/1.1/DTD/svg11.dtd">
<svg version="1.1" xmlns="http://www.w3.org/2000/svg" xmlns:xlink="http://www.w3.org/1999/xlink" x="0px" y="0px" viewBox="0 0 1000 1000" enable-background="new 0 0 1000 1000" xml:space="preserve">
<metadata> Svg Vector Icons : http://www.onlinewebfonts.com/icon </metadata>
<g><path d="M959.4,438.8h-30.6l-98.9-275.6c0-16.9-14.8-30.6-33-30.6H745l-81.6-91.9c0-16.9-18.3-30.6-40.9-30.6h-245c-22.6,0-40.9,13.7-40.9,30.6L255,132.5h-51.9c-18.2,0-33,13.7-33,30.6L71.3,438.8H40.6c-16.9,0-30.6,13.7-30.6,30.6c0,16.9,13.7,30.6,30.6,30.6h63.6h43.6l45.9,61.3V745c0,135.3,130.3,245,306.3,245s306.3-109.7,306.3-245V561.3l45.9-61.3h43.6h63.6c16.9,0,30.6-13.7,30.6-30.6C990,452.4,976.3,438.8,959.4,438.8z M382.4,81.3c2.8-3.1,5.2-6.5,7.3-10h220.6c2.1,3.6,4.5,6.9,7.3,10l45.5,51.2H336.9L382.4,81.3z M224.3,193.8h71.6h408.3h71.6l87.9,245H136.3L224.3,193.8z M500,928.8c-137.4,0-245-80.7-245-183.8V622.5h490V745C745,848,637.4,928.8,500,928.8z M757.3,524.5c-8,10.6-12.3,23.5-12.3,36.8H255c0-13.2-4.3-26.1-12.3-36.8L224.4,500h551.3L757.3,524.5z"/></g>
</svg>