<?xml version="1.0" encoding="utf-8"?>
<!-- Svg Vector Icons : http://www.onlinewebfonts.com/icon -->
<!DOCTYPE svg PUBLIC "-//W3C//DTD SVG 1.1//EN" "http://www.w3.org/Graphics/SVG/1.1/DTD/svg11.dtd">
<svg version="1.1" xmlns="http://www.w3.org/2000/svg" xmlns:xlink="http://www.w3.org/1999/xlink" x="0px" y="0px" viewBox="0 0 1000 1000" enable-background="new 0 0 1000 1000" xml:space="preserve">
<metadata> Svg Vector Icons : http://www.onlinewebfonts.com/icon </metadata>
<g><g transform="translate(0.000000,433.000000) scale(0.100000,-0.100000)"><path d="M100-421.2v-3893.2l245-5.7l243.1-5.7l5.7-243.1l5.7-245h486.2h488.1v248.8v248.8H5000h3426.2v-248.8v-248.8h488.1h486.2l5.7,245l5.7,243.1l245,5.7l243.1,5.7v3893.2v3895.1H5000H100V-421.2z M9574.6-402v-3588.9H5000H425.4V-402v3588.9H5000h4574.6V-402z M1248.4-4412v-76.6h-162.7H923v76.6v76.6h162.7h162.7V-4412z M9077-4412v-76.6h-162.7h-162.7v76.6v76.6h162.7H9077V-4412z"/><path d="M750.8,1722.6V583.7h468.9c258.4-1.9,1958.1-1.9,3780.3-1.9c1822.2,0,3521.9,0,3780.3,1.9h468.9v1138.9v1138.9H5000H750.8V1722.6z M1573.8,2373.4v-162.7H1325h-248.8v162.7v162.7H1325h248.8V2373.4z M2387.3,2369.5l1.9-158.9h-245h-245v162.7V2538l245-5.7l243.1-5.7V2369.5z M3200.8,2373.4v-162.7H2952h-248.8V2360c0,82.3,5.7,157,13.4,162.7c5.7,7.7,118.7,13.4,248.8,13.4h235.4V2373.4z M4023.8,2373.4v-162.7H3775h-248.8v162.7v162.7H3775h248.8V2373.4z M4835.4,2465.2c5.7-40.2,11.5-112.9,11.5-162.7v-91.9H4598h-248.8v162.7v162.7h237.3H4822L4835.4,2465.2z M5650.8,2373.4v-162.7H5402h-248.8V2360c0,82.3,5.7,157,13.4,162.7c5.7,7.7,118.7,13.4,248.8,13.4h235.4V2373.4z M6473.8,2373.4v-162.7H6225h-248.8v162.7v162.7H6225h248.8V2373.4z M7289.2,2515c5.8-11.5,5.8-84.2-1.9-162.7l-13.4-141.6h-237.3h-237.4v162.7v162.7h237.4C7187.8,2536.1,7279.6,2528.4,7289.2,2515z M8100.8,2373.4v-162.7H7852h-248.8V2360c0,82.3,5.7,157,13.4,162.7c5.7,7.7,118.7,13.4,248.8,13.4h235.4V2373.4z M8923.8,2373.4v-162.7H8675h-248.8v162.7v162.7H8675h248.8V2373.4z M1573.8,1722.6v-162.7H1325h-248.8v162.7v162.7H1325h248.8V1722.6z M2393,1818.3c3.8-30.6,1.9-101.4-5.7-157l-11.5-101.4h-239.3h-237.3v162.7v164.6l245-5.7l243.1-5.7L2393,1818.3z M3200.8,1722.6v-162.7H2952h-248.8v149.3c0,82.3,5.7,157,13.4,162.7c5.7,7.7,118.7,13.4,248.8,13.4h235.4V1722.6z M4023.8,1722.6v-162.7H3775h-248.8v162.7v162.7H3775h248.8V1722.6z M4839.2,1718.7l3.8-158.9h-246.9h-246.9v162.7v164.6l243.1-5.7l241.2-5.7L4839.2,1718.7z M5650.8,1722.6v-162.7H5402h-248.8v149.3c0,82.3,5.7,157,13.4,162.7c5.7,7.7,118.7,13.4,248.8,13.4h235.4V1722.6z M6473.8,1722.6v-162.7H6225h-248.8v162.7v162.7H6225h248.8V1722.6z M7287.3,1822.1c7.7-32.5,9.6-105.3,5.7-157l-5.7-95.7l-243.1-5.7l-245-5.7v164.6v162.7h239.3h237.4L7287.3,1822.1z M8100.8,1722.6v-162.7H7852h-248.8v149.3c0,82.3,5.7,157,13.4,162.7c5.7,7.7,118.7,13.4,248.8,13.4h235.4V1722.6z M8923.8,1722.6v-162.7H8675h-248.8v162.7v162.7H8675h248.8V1722.6z M1570,1068l-5.7-168.4H1325h-239.3L1080,1068l-5.7,166.5H1325h250.7L1570,1068z M2387.3,1135c7.7-55.5,9.6-132.1,5.7-168.4l-5.7-67l-243.1-5.7l-245-5.7v174.2v172.3h237.3h239.3L2387.3,1135z M3200.8,1062.2V888l-243.1,5.7l-245,5.7l-5.7,141.6c-3.8,78.5-1.9,153.1,3.8,168.4c7.7,19.1,67,24.9,250.7,24.9h239.3V1062.2z M4020,1068l-5.7-168.4H3775h-239.3L3530,1068l-5.7,166.5H3775h250.7L4020,1068z M4837.3,1213.4c7.7-9.6,7.7-88.1,0-172.3L4823.9,890h-237.3h-237.3v172.3v172.3h237.3C4735.9,1234.5,4829.6,1226.8,4837.3,1213.4z M5650.8,1062.2V888l-243.1,5.7l-245,5.7l-5.7,141.6c-3.8,78.5-1.9,153.1,3.8,168.4c7.6,19.1,67,24.9,250.7,24.9h239.3V1062.2z M6470,1068l-5.7-168.4H6225h-239.3L5980,1068l-5.7,166.5H6225h250.7L6470,1068z M7283.5,1062.2l3.8-162.7l-243.1-5.7l-245-5.7v174.2v174.2l241.2-5.7l241.2-5.7L7283.5,1062.2z M8100.8,1062.2V888l-243.1,5.7l-245,5.7l-5.7,141.6c-3.8,78.5-1.9,153.1,3.8,168.4c7.6,19.1,67,24.9,250.7,24.9h239.3V1062.2z M8920,1068l-5.7-168.4H8675h-239.3L8430,1068l-5.7,166.5H8675h250.7L8920,1068z"/><path d="M6498.7-97.7c-260.3-53.6-488.1-235.4-604.8-480.4c-55.5-118.7-61.3-145.5-61.3-321.6c0-179.9,3.8-201,65.1-325.4c164.6-335,539.7-537.8,867.1-470.8c348.4,70.8,647,392.4,677.6,731.2c36.4,379-252.6,773.3-625.9,857.5C6663.3-72.8,6617.4-70.9,6498.7-97.7z M6473.8-696.8v-266.1l61.3-51.7c72.7-61.3,155-55.5,222,21c38.3,44,42.1,65.1,42.1,306.3c0,141.6,5.7,256.5,13.4,256.5c5.7,0,47.9-21.1,91.9-45.9c248.8-145.5,294.8-543.6,88-763.7c-89.9-99.5-185.6-135.9-356-135.9c-134-1.9-164.6,5.8-252.7,53.6c-164.6,89.9-235.4,225.8-235.4,442.1c0,128.2,59.3,277.5,135.9,346.4c45.9,42.1,149.3,101.4,176.1,103.4C6468.1-430.7,6473.8-551.3,6473.8-696.8z"/><path d="M8183.1-124.5c-201-70.8-398.1-250.7-495.7-449.8c-49.8-105.3-55.5-132.1-55.5-315.8c0-187.6,3.8-210.5,61.2-331.1c40.2-84.2,101.4-170.4,172.3-241.2c323.5-321.6,782.8-327.3,1114-11.5c319.6,304.3,350.3,710.1,78.5,1083.4c-70.8,99.5-273.7,235.4-409.6,275.6C8520-76.6,8305.6-80.5,8183.1-124.5z M8631-436.5c5.7-7.7-70.8-99.5-172.3-202.9c-189.5-191.4-212.5-235.4-174.2-336.9c19.1-45.9,118.7-91.9,178-76.6c26.8,5.7,132.1,93.8,233.5,193.3c202.9,201,199.1,201,220.1,19.1c26.8-233.5-109.1-455.5-315.8-516.8c-354.1-105.3-652.7,97.6-652.7,444.1c0,68.9,11.5,158.9,23,202.9c28.7,95.7,170.3,243.1,264.1,273.7C8303.7-411.6,8606.1-413.5,8631-436.5z"/><path d="M750.8-899.7v-488.1h488.1H1727v488.1v488.1h-488.1H750.8V-899.7z M1401.6-899.7v-162.7h-162.7h-162.7v162.7V-737h162.7h162.7V-899.7z"/><path d="M1899.2-899.7v-488.1h488.1h488.1v488.1v488.1h-488.1h-488.1V-899.7z M2550-899.7v-162.7h-162.7h-162.7v162.7V-737h162.7H2550V-899.7z"/><path d="M750.8-3014.7v-650.8H5000h4249.2v650.8v650.8H5000H750.8V-3014.7z M1573.8-2775.5v-86.1H1325h-248.8v86.1v86.1H1325h248.8V-2775.5z M2387.3-2775.5v-76.6l-243.1-5.7l-245-5.7v88v88l245-5.7l243.1-5.7V-2775.5z M3200.8-2775.5v-88l-243.1,5.7l-245,5.7l-5.7,53.6c-13.4,107.2-5.7,109.1,254.6,109.1h239.3V-2775.5z M4023.8-2775.5v-86.1H3775h-248.8v86.1v86.1H3775h248.8V-2775.5z M4837.3-2708.5c5.7-9.6,5.7-47.9-1.9-86.1l-11.5-67h-237.3h-237.3v86.1v86.1h237.3C4722.5-2689.3,4829.6-2697,4837.3-2708.5z M5650.8-2775.5v-88l-243.1,5.7l-245,5.7l-5.7,53.6c-13.4,107.2-5.7,109.1,254.6,109.1h239.3V-2775.5z M6473.8-2775.5v-86.1H6225h-248.8v86.1v86.1H6225h248.8V-2775.5z M7285.4-2756.3c7.6-38.3,7.6-76.6,1.9-86.1c-7.7-11.5-114.8-19.1-250.7-19.1h-237.4v86.1v86.1h237.4h237.3L7285.4-2756.3z M8100.8-2775.5v-88l-243.1,5.7l-245,5.7l-5.7,53.6c-13.4,107.2-5.7,109.1,254.6,109.1h239.3V-2775.5z M8923.8-2775.5v-86.1H8675h-248.8v86.1v86.1H8675h248.8V-2775.5z M1573.8-3263.6v-76.6H1325h-248.8v76.6v76.6H1325h248.8V-3263.6z M2393-3257.8l-5.7-72.7l-243.1-5.7l-245-5.7v78.5v76.6H2150h248.8L2393-3257.8z M3200.8-3263.6v-76.6H2952h-248.8v76.6v76.6H2952h248.8V-3263.6z M4023.8-3263.6v-76.6H3775h-248.8v76.6v76.6H3775h248.8V-3263.6z M4827.7-3232.9c0-24.9,5.7-59.3,11.5-76.6c9.6-26.8-19.1-30.6-239.3-30.6h-250.7v76.6v76.6h239.3h239.3V-3232.9z M5650.8-3263.6v-76.6H5402h-248.8v76.6v76.6H5402h248.8V-3263.6z M6473.8-3263.6v-76.6H6225h-248.8v76.6v76.6H6225h248.8V-3263.6z M7296.9-3263.6v-76.6H7048h-248.8v76.6v76.6H7048h248.8V-3263.6z M8100.8-3263.6v-76.6H7852h-248.8v76.6v76.6H7852h248.8V-3263.6z M8923.8-3263.6v-76.6H8675h-248.8v76.6v76.6H8675h248.8V-3263.6z"/></g></g>
</svg>