<?xml version="1.0" encoding="utf-8"?>
<!-- Svg Vector Icons : http://www.onlinewebfonts.com/icon -->
<!DOCTYPE svg PUBLIC "-//W3C//DTD SVG 1.1//EN" "http://www.w3.org/Graphics/SVG/1.1/DTD/svg11.dtd">
<svg version="1.1" xmlns="http://www.w3.org/2000/svg" xmlns:xlink="http://www.w3.org/1999/xlink" x="0px" y="0px" viewBox="0 0 1000 1000" enable-background="new 0 0 1000 1000" xml:space="preserve">
<metadata> Svg Vector Icons : http://www.onlinewebfonts.com/icon </metadata>
<g><g transform="translate(0.000000,486.000000) scale(0.100000,-0.100000)"><path d="M8234.8,4497.8c-26.8-3.8-103.4-24.9-172.3-45.9c-436.4-137.8-788.6-505.3-899.6-943.6l-34.5-135.9l-3477.9-9.6l-3477.9-9.6l-36.4-45.9c-36.4-44-36.4-134-36.4-4015.7v-3971.7l55.5-55.5l55.5-55.5h4789h4789l55.5,55.5l55.5,55.5v3975.5v3973.6l-47.9,45.9l-45.9,47.9h-836.4h-834.5l26.8,44c15.3,23,65.1,61.3,111,86.1c84.2,42.1,95.7,42.1,803.9,42.1c756.1,1.9,754.2,1.9,800.1,90c36.4,67,26.8,120.6-34.5,179.9l-55.5,57.4l-752.2-5.7c-727.3-5.7-756.1-7.7-844.1-47.9c-124.4-57.4-290.9-220.1-350.3-342.6l-49.8-103.4h-160.8c-185.7,0-185.7-1.9-122.5,181.8c93.8,271.8,302.4,482.3,585.7,587.6c107.2,40.2,155,42.1,836.5,51.7l725.4,11.5l36.4,45.9c51.7,63.2,47.9,164.6-11.5,222l-45.9,47.9l-675.7-1.9C8587,4507.3,8261.6,4501.6,8234.8,4497.8z M9574.6-714.2v-3751.6H5000H425.4v3751.6v3751.6H5000h4574.6V-714.2z"/><path d="M3880.3,2537.8c-558.9-53.6-1175.2-290.9-1619.3-624C1594.9,1414.2,1154.6,725.2,976.6-88.3c-36.4-170.4-42.1-250.8-42.1-625.9c0-373.2,5.7-455.5,42.1-620.2c141.7-635.4,426.8-1175.2,853.7-1615.5C2640-3786.3,3736.7-4132.7,4846.9-3903c417.3,86.1,909.2,308.2,1251.8,562.7C7046.1-2635.9,7553.4-1502.8,7429-373.5c-42.1,384.7-126.3,679.5-302.4,1047c-258.4,539.8-574.2,905.3-1150.3,1336c-116.7,86.1-562.7,304.3-765.6,373.2c-210.5,72.7-491.9,130.2-756.1,157C4219.1,2560.7,4129.1,2560.7,3880.3,2537.8z M4023.8-716.1v-2930.4l-139.7,13.4c-78.5,5.7-187.6,23-245,34.5l-103.4,23L3530-710.4l-3.8,2865.4l99.5,19.1c158.9,30.6,191.4,34.5,298.6,38.3l99.5,1.9V-716.1z M4617.2,2195.2c68.9-11.5,143.6-23,168.4-28.7l42.1-9.6V-712.3v-2869.2l-118.7-21.1c-67-9.6-174.2-24.9-239.3-32.5l-120.6-13.4v2932.4v2930.4h72.7C4460.2,2214.3,4548.3,2204.7,4617.2,2195.2z M3200.8-714.2v-2775.4l-97.6,38.3c-53.6,21-160.8,70.8-239.3,109.1l-141.6,70.8v2561v2561l120.6,59.3c116.8,61.2,315.8,145.5,344.5,149.3C3195,2061.2,3200.8,813.2,3200.8-714.2z M5488.1,1929.1l162.7-76.6V-710.4v-2562.9l-185.7-88c-103.3-47.9-210.5-93.8-239.3-99.5l-53.6-13.4v2765.8v2767.7l76.6-26.8C5292.9,2017.2,5400,1971.2,5488.1,1929.1z M2377.7-704.6v-2327.5l-42.1,22.9c-21,11.5-130.2,111-239.3,218.2l-197.1,195.2v1883.4v1883.4l229.7,225.9c126.3,122.5,233.5,224,239.3,224S2377.7,573.9,2377.7-704.6z M6184.8,1456.3c78.5-72.7,174.2-172.3,214.4-223.9l74.7-93.8V-714.2V-2567l-95.7-112.9c-97.6-112.9-357.9-350.3-386.6-350.3c-7.6,0-15.3,1047-15.3,2325.6c0,2210.7,1.9,2325.6,34.5,2308.4C6027.9,1594.1,6106.3,1527.1,6184.8,1456.3z M1570-1388l-5.7-675.7l-53.6,114.8c-76.6,162.7-158.9,413.4-208.6,635.5c-57.4,258.4-63.2,901.5-9.6,1163.7c44,218.2,132.1,491.9,210.5,656.5l61.3,128.2l5.7-673.8C1571.9-409.9,1571.9-1018.6,1570-1388z M6937,328.9c88-237.3,147.4-513,172.3-790.5c44-495.7-47.9-1041.2-248.8-1477.7l-59.3-124.4v1349.4V635.2l40.2-76.6C6864.3,516.5,6906.4,413.2,6937,328.9z"/><path d="M7007.9-3214c-45.9-47.9-45.9-51.7-45.9-442.2v-392.4l53.6-45.9l53.6-45.9h1033.6h1035.5l55.5,55.5l55.5,55.5v367.5c0,380.9-13.4,457.5-86.1,486.2c-17.2,5.7-499.6,11.5-1070,11.5H7053.8L7007.9-3214z M8923.8-3652.3V-3815l-817.3,3.8l-819.2,5.7l-5.7,158.9l-5.7,157h825h823V-3652.3z"/></g></g>
</svg>