<?xml version="1.0" encoding="utf-8"?>
<!-- Svg Vector Icons : http://www.onlinewebfonts.com/icon -->
<!DOCTYPE svg PUBLIC "-//W3C//DTD SVG 1.1//EN" "http://www.w3.org/Graphics/SVG/1.1/DTD/svg11.dtd">
<svg version="1.1" xmlns="http://www.w3.org/2000/svg" xmlns:xlink="http://www.w3.org/1999/xlink" x="0px" y="0px" viewBox="0 0 1000 1000" enable-background="new 0 0 1000 1000" xml:space="preserve">
<metadata> Svg Vector Icons : http://www.onlinewebfonts.com/icon </metadata>
<g><g transform="translate(0.000000,493.000000) scale(0.100000,-0.100000)"><path d="M1493,4685.8c-107.2-48.7-231.8-175.4-274.7-276.7c-23.4-54.6-27.3-325.4-27.3-1595.7V1284.1H774.1c-467.6,0-475.4-1.9-604-161.7l-60.4-76l-5.8-2238.6L100-3430.8h185.1h185.1v-448.1v-448.1h175.3h175.3v-272.8v-272.8H1006h185.1v272.8v272.8h175.3h175.3v448.1v448.1h3448.5h3448.5v-448.1v-448.1h187h189l-13.6-136.4c-5.8-74-5.8-196.8,0-272.8l13.6-136.4H8996h183.1v272.8v272.8h175.4h175.4v448.1v448.1h185.1H9900v2207.4V984l-42.9,85.7c-25.3,46.8-77.9,113-118.8,144.2l-76,60.4l-426.7,5.8l-426.7,5.8l-3.9,1543.1l-5.8,1543.1l-52.6,89.6c-62.4,105.2-150,185.1-259.1,233.8c-74,35.1-229.9,37-3487.5,37H1590.5L1493,4685.8z M8427.1,4331.2c5.8-17.5,11.7-709.2,11.7-1539.2v-1508h-228c-206.5,0-233.8-3.9-309.8-48.7c-50.7-29.2-105.2-83.8-134.4-134.4c-46.8-79.9-48.7-97.4-48.7-397.5V387.9H5000H2282.1v302c0,342.9-15.6,399.4-146.1,512.4c-85.7,76-105.2,79.9-370.2,87.7l-214.3,3.9V2794c0,826.1,5.8,1515.8,13.6,1535.3c13.6,31.2,194.8,33.1,3432.9,33.1C8095.9,4362.4,8415.4,4360.5,8427.1,4331.2z M1372.2,919.7l539.7-11.7V-356.4v-1262.5H5000h3088.1v1266.4V913.9h181.2c97.4,0,422.8,5.8,720.9,13.6l539.7,11.7v-1999v-2000.9H5000H470.2v1997v1997h181.2C748.8,933.4,1074.2,927.5,1372.2,919.7z M7717.9-615.5v-633.2H5000H2282.1v633.2V17.7H5000h2717.9V-615.5z M1191.1-3693.9v-263H1006H820.9v263v263H1006h185.1V-3693.9z M9159.6-3693.9v-263h-175.3h-175.4v263v263h175.4h175.3V-3693.9z"/><path d="M4325.9,3585c-72.1-72.1-74-153.9-5.8-233.8c132.5-157.8,385.8,7.8,292.2,190.9C4551.9,3659.1,4419.4,3678.5,4325.9,3585z"/><path d="M5416.9,3585c-72.1-72.1-74.1-153.9-5.9-233.8c85.7-103.3,239.7-77.9,292.2,48.7c23.4,56.5,23.4,76,0,132.5C5652.7,3657.1,5514.4,3680.5,5416.9,3585z"/><path d="M2697.1,3049.2c-42.9-37-54.6-62.4-54.6-128.6c0-103.3,74-175.3,177.3-175.3c91.6,0,183.1,87.7,183.1,175.3c0,42.9-17.5,79.9-56.5,118.9C2872.4,3111.6,2775,3115.5,2697.1,3049.2z"/><path d="M3792,3053.1c-29.2-27.3-54.5-74-62.3-116.9c-9.7-62.3-1.9-79.9,48.7-132.5c120.8-118.8,305.9-48.7,305.9,116.9c0,66.2-11.7,91.6-54.5,128.6C3959.6,3109.6,3860.2,3111.6,3792,3053.1z"/><path d="M4871.4,3039.5c-39-39-56.5-76-56.5-118.9c0-85.7,91.6-175.3,179.2-175.3c128.6,0,218.2,120.8,171.4,233.8C5113,3107.7,4968.8,3136.9,4871.4,3039.5z"/><path d="M5956.6,3035.6c-29.2-33.1-50.6-83.8-50.6-115c0-31.2,21.4-81.8,50.6-114.9c40.9-48.7,64.3-60.4,126.6-60.4c107.2,0,173.4,66.2,173.4,175.3c0,109.1-66.3,175.4-173.4,175.4C6020.9,3096,5997.5,3084.3,5956.6,3035.6z"/><path d="M7047.7,3045.3c-113-113-33.1-300,128.6-300c105.2,0,171.4,68.2,171.4,175.3C7347.7,3084.3,7162.6,3160.3,7047.7,3045.3z"/><path d="M3242.6,2503.7c-42.9-37-54.6-62.3-54.6-128.6c0-163.7,185.1-235.7,303.9-118.8c72.1,72.1,74,153.9,5.8,233.8C3433.6,2568,3324.5,2573.9,3242.6,2503.7z"/><path d="M4320,2490.1c-68.2-79.9-66.2-161.7,5.8-233.8c93.5-93.5,226-74,286.4,42.9c62.3,120.8-25.3,251.3-167.6,251.3C4386.3,2550.5,4359,2538.8,4320,2490.1z"/><path d="M5411.1,2490.1c-68.2-79.9-66.2-161.7,5.9-233.8c97.4-95.5,235.7-72.1,286.4,52.6C5781.3,2494,5539.7,2644,5411.1,2490.1z"/><path d="M6500.2,2499.8c-152-163.7,87.7-403.3,251.3-251.3c70.1,64.3,72.1,185.1,1.9,253.3C6685.3,2571.9,6564.5,2570,6500.2,2499.8z"/><path d="M2695.2,1962.1c-58.4-64.3-70.1-136.4-35.1-208.5c60.4-115,192.9-136.4,286.4-42.9c72.1,72.1,74,153.9,5.8,233.8c-40.9,50.7-64.3,60.4-132.5,60.4C2759.4,2005,2726.3,1993.3,2695.2,1962.1z"/><path d="M3772.6,1942.6c-42.9-50.6-50.7-76-40.9-130.5c33.1-216.3,352.6-202.6,352.6,13.6c0,113-66.2,179.2-177.3,179.2C3838.8,2005,3815.4,1995.2,3772.6,1942.6z"/><path d="M4865.6,1944.6c-68.2-79.9-66.2-161.7,5.8-233.8c97.4-97.4,235.7-72.1,286.4,54.6c52.6,124.7-23.4,239.6-159.8,239.6C4929.9,2005,4906.5,1995.2,4865.6,1944.6z"/><path d="M5954.7,1954.3c-152-163.7,87.7-403.3,251.3-251.3c70.1,64.3,72.1,185.1,1.9,253.3C6139.8,2026.4,6019,2024.4,5954.7,1954.3z"/><path d="M7045.7,1956.2c-74-72.1-68.2-185.1,11.7-251.3c124.7-105.2,288.4-33.1,290.3,130.5c0,103.3-68.2,169.5-175.4,169.5C7113.9,2005,7080.8,1993.3,7045.7,1956.2z"/><path d="M4372.6,1447.7c-115-58.5-132.5-220.2-31.2-300c175.3-136.4,395.5,116.9,233.8,268.9C4514.9,1473.1,4444.7,1484.7,4372.6,1447.7z"/><path d="M5467.6,1451.6c-115-48.7-140.3-194.8-50.7-286.4c126.6-126.6,333.2-13.6,300,163.7C5697.5,1434.1,5570.8,1496.4,5467.6,1451.6z"/></g></g>
</svg>