<?xml version="1.0" encoding="utf-8"?>
<!-- Svg Vector Icons : http://www.onlinewebfonts.com/icon -->
<!DOCTYPE svg PUBLIC "-//W3C//DTD SVG 1.1//EN" "http://www.w3.org/Graphics/SVG/1.1/DTD/svg11.dtd">
<svg version="1.1" xmlns="http://www.w3.org/2000/svg" xmlns:xlink="http://www.w3.org/1999/xlink" x="0px" y="0px" viewBox="0 0 1000 1000" enable-background="new 0 0 1000 1000" xml:space="preserve">
<metadata> Svg Vector Icons : http://www.onlinewebfonts.com/icon </metadata>
<g><g transform="translate(0.000000,512.000000) scale(0.100000,-0.100000)"><path d="M4597.7,5009.1c-559.4-63.2-1136-254.8-1601.5-534.5c-308.4-183.9-521.1-350.6-795-622.6c-628.3-628.3-1000-1356.3-1149.4-2252.8c-30.6-183.9-34.5-432.9-40.2-2791.2l-7.7-2591.9H898.5c-91.9,0-114.9-7.7-162.8-55.5l-55.6-55.5v-387v-387l55.6-55.5l55.6-55.6H5000h4208.8l55.5,55.6l55.6,55.5v387v387l-55.6,55.5c-47.9,47.9-70.9,55.5-162.8,55.5h-105.4l-7.6,2590c-7.7,2852.4-1.9,2718.3-128.4,3206.8c-398.5,1542.1-1672.4,2703-3256.7,2967.4C5385,5016.8,4812.3,5032.1,4597.7,5009.1z M5275.9,4683.5c637.9-49.8,1222.2-245.2,1726-574.7c235.6-157.1,354.4-251,572.8-465.5c469.3-461.7,793.1-1023,959.8-1670.5c116.8-450.2,114.9-417.6,114.9-3210.7v-2546H5000H1350.6v2546c0,2754.7,0,2745.2,103.4,3172.4c369.7,1515.3,1683.9,2630.2,3245.2,2749C4971.3,4702.6,5015.3,4704.5,5275.9,4683.5z M8984.6-4281.9v-162.8H5000H1015.4l-5.7,141.8c-3.8,78.5-1.9,153.3,3.8,166.7c7.7,19.2,795,23,3990.4,21.1l3980.8-3.8V-4281.9z"/><path d="M4626.4,4509.1c-404.2-46-764.4-155.2-1159-352.5c-342.9-170.5-578.5-335.2-848.6-593.9c-620.7-591.9-977-1293.1-1086.2-2141.7c-24.9-191.6-28.7-586.2-28.7-2561.3c0-1618.8,5.7-2348.6,21.1-2381.2c11.5-23,36.4-53.6,57.5-67.1c26.8-17.3,819.9-23,3421.4-23h3386.9l53.6,57.5l53.6,59.4l-7.6,2427.2c-3.8,2224.1-7.7,2444.4-38.3,2626.4c-97.7,561.3-323.8,1093.9-660.9,1553.6c-149.4,203.1-574.7,618.8-789.3,772c-214.6,151.3-685.8,390.8-929.1,471.3C5611.1,4505.3,5088.1,4560.9,4626.4,4509.1z M5563.2,4145.2c413.8-69,877.4-258.6,1229.8-498.1c90-63.2,178.2-128.3,195.4-147.5c28.7-32.6-28.7-95.8-978.9-1044L5000,1446L3984.7,2461.3c-965.5,967.4-1013.4,1015.3-977,1044C3758.6,4080,4636,4300.3,5563.2,4145.2z M3668.6,2298.4l929.1-929.1H3231.8h-1364v57.5c0,86.2,84.3,469.3,141.8,641.8c118.8,356.3,367.8,787.3,595.8,1040.2c59.4,65.1,114.9,118.8,120.7,118.8C2733.7,3227.5,3157.1,2809.9,3668.6,2298.4z M7381.2,3122.2c241.4-264.4,500-714.6,613-1074.7c63.2-193.5,137.9-542.1,137.9-630.3v-47.9h-1364H5402.3l929.1,929.1c511.5,511.5,934.9,929.1,940.6,929.1C7279.7,3227.5,7329.5,3179.7,7381.2,3122.2z M4833.3,43.7l3.8-992.3H3342.9H1848.7V47.5v996.2l1490.4-3.8l1488.5-5.7L4833.3,43.7z M8151.3,47.5v-996.2H6657.1H5162.8V34.1c0,542.1,5.7,990.4,13.4,996.2c5.7,7.7,678.1,13.4,1494.2,13.4h1480.8V47.5z M4837.2-2289.6v-996.1H3342.9H1848.7v996.1v996.2h1494.2h1494.2V-2289.6z M8151.3-2289.6v-996.1H6657.1H5162.8v996.1v996.2h1494.2h1494.2V-2289.6z"/><path d="M4720.3,2980.4c-61.3-63.2-69-111.1-26.8-191.6c70.9-139.8,296.9-88.1,296.9,69c0,86.2-17.2,118.8-78.5,149.4C4831.4,3049.4,4783.5,3041.7,4720.3,2980.4z"/><path d="M5394.6,2986.2c-116.8-97.7-49.8-275.9,103.5-275.9c153.3,0,220.3,178.2,103.5,275.9c-32.6,26.8-78.6,49.8-103.5,49.8S5427.2,3013,5394.6,2986.2z"/><path d="M5132.2,2695c-23-1.9-136-103.5-254.8-222.2c-235.6-239.5-249-272-162.8-373.6c38.3-46,65.1-59.4,116.9-59.4c61.3,0,92,21.1,277.8,205c114.9,113,212.6,226,220.3,250.9C5356.3,2601.1,5245.2,2714.2,5132.2,2695z"/><path d="M2067.1,825.3c-113-95.8-40.2-279.7,109.2-279.7c57.5,0,82.4,13.4,122.6,61.3c61.3,72.8,55.6,155.2-21.1,222.2C2214.6,884.7,2132.2,882.8,2067.1,825.3z"/><path d="M2728,815.7c-61.3-63.2-69-111.1-26.8-191.6c74.7-145.6,296.9-82.4,296.9,84.3C2998.1,859.8,2837.2,923,2728,815.7z"/><path d="M2452.1,526.4c-21.1-7.7-128.3-107.3-237.5-218.4c-182-182-201.1-208.8-201.1-272c0-88.1,76.6-160.9,166.7-160.9c49.8,0,92,32.6,275.9,216.5c183.9,183.9,216.5,226.1,216.5,275.9C2672.4,478.5,2547.9,568.6,2452.1,526.4z"/><path d="M7049.8,823.4c-69-67.1-67.1-183.9,1.9-237.5c88.1-69,201.1-51.7,247.1,38.3c42.1,80.5,34.5,128.3-26.8,191.6C7199.2,886.6,7114.9,890.4,7049.8,823.4z"/><path d="M7722.2,829.1c-76.6-67.1-82.4-149.4-21.1-222.2c103.5-122.6,285.4-55.6,285.4,105.4C7986.6,846.4,7823.7,919.2,7722.2,829.1z"/><path d="M7442.5,532.2c-15.3-5.8-120.7-101.5-233.7-212.6c-191.6-189.7-206.9-210.7-206.9-277.8c0-93.9,67.1-166.7,155.2-166.7c51.7,0,93.9,30.7,279.7,214.6c197.3,195.4,216.5,220.3,216.5,283.5C7653.2,478.5,7536.4,566.7,7442.5,532.2z"/><path d="M3722.2-2174.7c-49.8-51.7-57.5-69-47.9-130.3c15.3-88.1,72.8-137.9,164.8-137.9c90,0,155.2,63.2,155.2,147.5c0,86.2-17.2,118.8-78.5,149.4C3835.3-2103.8,3787.4-2111.5,3722.2-2174.7z"/><path d="M4398.5-2167c-116.9-97.7-53.6-275.9,95.8-275.9c159,0,226,159,114.9,270.1C4540.2-2103.8,4475.1-2101.9,4398.5-2167z"/><path d="M3883.2-2678.5c-220.3-224.1-239.5-258.6-191.6-344.8c32.6-63.2,74.7-88.1,147.5-90c57.5,0,90,24.9,272,203c222.2,220.3,251,272,201.1,367.8c-32.6,63.2-65.1,80.4-153.3,80.4C4105.4-2462,4069-2490.8,3883.2-2678.5z"/><path d="M7088.1-2140.2c-61.3-32.5-86.2-74.7-86.2-149.4c0-92,63.2-153.3,157.1-153.3c90,0,147.5,49.8,162.8,137.9c9.6,61.3,1.9,78.5-47.9,130.3C7212.6-2115.3,7153.2-2103.8,7088.1-2140.2z"/><path d="M7724.1-2155.5c-26.8-21.1-53.6-63.2-61.3-93.9c-13.4-63.2,28.7-162.8,76.6-182c155.2-59.4,300.8,80.4,229.9,218.4C7919.5-2115.3,7808.4-2090.4,7724.1-2155.5z"/><path d="M7208.8-2668.9c-189.6-189.7-206.9-212.7-206.9-277.8c0-97.7,67.1-166.7,164.7-166.7c65.1,0,90,19.1,279.7,206.9c183.9,185.8,206.9,216.5,206.9,275.9c0,103.4-61.3,168.6-159,168.6C7419.5-2462,7404.2-2473.5,7208.8-2668.9z"/></g></g>
</svg>