<?xml version="1.0" encoding="utf-8"?>
<!-- Svg Vector Icons : http://www.onlinewebfonts.com/icon -->
<!DOCTYPE svg PUBLIC "-//W3C//DTD SVG 1.1//EN" "http://www.w3.org/Graphics/SVG/1.1/DTD/svg11.dtd">
<svg version="1.1" xmlns="http://www.w3.org/2000/svg" xmlns:xlink="http://www.w3.org/1999/xlink" x="0px" y="0px" viewBox="0 0 1000 1000" enable-background="new 0 0 1000 1000" xml:space="preserve">
<metadata> Svg Vector Icons : http://www.onlinewebfonts.com/icon </metadata>
<g><g transform="translate(0.000000,512.000000) scale(0.100000,-0.100000)"><path d="M4673.7,5003.8c-742.9-45.9-1501.1-262.3-2132.9-606.9c-635.7-346.5-957.3-679.7-1123.9-1167.9c-78.5-231.7-103.4-465.3-103.4-986v-379.1h-74.7c-40.2,0-128.3-17.2-195.3-38.3c-323.6-101.5-578.2-342.7-706.5-670.1L289.1,1031l-5.7-1813.2c-5.7-2018-9.6-1947.2,122.5-2199.9c90-172.3,275.7-356.1,448-446.1l134-70.8l-3.8-377.2l-1.9-377.2l178.1-5.7l178.1-5.7l-13.4-120.6c-5.8-67-5.8-183.8,0-258.5l13.4-135.9h168.5h170.4v258.5v258.5h172.3h172.3v354.2v354.2h2977.3h2977.3v-354.2V-4263h172.3h172.3v-258.5V-4780h170.4H8660l13.4,135.9c5.7,74.7,5.7,191.5,0,258.5L8660-4263h176.2h174.2v381v382.9l120.6,63.2c155.1,80.4,386.8,312.1,469.1,467.2c120.6,231.7,118.7,183.8,118.7,2115.7c0,1108.6-7.7,1792.1-19.1,1857.2c-26.8,135.9-128.3,346.6-229.8,472.9c-158.9,199.1-446.1,358-679.7,381l-120.6,11.5l-9.6,547.6c-7.7,599.3-17.2,652.9-137.9,943.9c-141.7,333.1-363.8,585.9-727.6,825.2c-578.2,377.2-1317.3,660.6-2012.3,767.8c-168.5,26.8-773.5,72.8-850.1,65.1C4916.8,5019.2,4800,5011.5,4673.7,5003.8z M5728.7,4622.8c716.1-120.6,1349.8-373.4,1937.6-771.6c381-260.4,576.3-557.2,635.7-972.6c9.6-68.9,19.2-335.1,19.2-593.5V1816l-120.6-57.4c-160.8-76.6-384.8-300.6-467.2-469.1c-111.1-224-120.6-291-120.6-932.4v-580.1H4991.5H2372.3l-3.8,599.3c-1.9,643.3-7.7,695-109.1,903.7c-70.8,149.3-319.7,402.1-471,478.7l-111,57.4v522.7c0,597.4,15.3,702.7,134,951.6c114.9,239.3,262.3,396.3,568.7,599.3c605,407.8,1378.5,685.4,2131,767.8C4779,4687.9,5460.6,4666.9,5728.7,4622.8z M1514.5,1490.5c214.4-55.5,381-204.9,465.3-415.5c28.7-72.8,32.6-216.3,42.1-1240.7l9.6-1158.4l45.9-114.9c103.4-260.4,289.1-471,517-591.6c252.7-132.1,134-126.4,2389.5-126.4c1393.9,0,2065.9,5.7,2134.8,21.1c356.1,72.8,700.8,396.3,821.4,773.5c17.2,57.4,26.8,369.5,34.5,1234.9c11.5,1137.3,11.5,1160.3,53.6,1248.4c61.3,135.9,197.2,270,337,333.1c105.3,47.9,139.8,55.5,310.2,55.5c168.5,0,204.9-5.7,300.6-51.7c199.1-91.9,337-275.7,379.1-497.8c28.7-143.6,24.9-3488.5-1.9-3618.7c-44.1-206.8-176.2-381-361.9-476.7c-82.3-42.1-111-46-622.3-57.4c-696.9-17.2-6044.5-17.2-6739.6,0c-534.2,13.4-536.1,13.4-635.7,65.1c-189.6,97.6-306.3,260.4-350.4,482.5c-15.3,82.3-19.2,607-15.3,1876.3l5.7,1761.5l44,107.2C808,1425.4,1150.7,1584.3,1514.5,1490.5z M4625.8-596.5c0-5.7-65.1-97.6-143.6-201c-78.5-103.4-143.6-193.4-143.6-199.1c0-15.3,250.8-203,270-203c9.6,0,99.6,109.2,201,245.1c99.6,134,185.7,243.2,189.5,243.2s90-109.1,189.6-243.2c101.5-135.9,191.5-245.1,201-245.1c19.1,0,270,187.6,270,203c0,5.7-65.1,95.7-143.6,199.1c-78.5,103.4-143.6,195.3-143.6,201s505.5,9.6,1122,9.6h1122l-7.7-348.5c-7.6-337-9.6-356.1-61.3-469.1c-63.2-139.8-197.2-275.7-333.1-337l-90-42.1H4999.2H2873.9l-128.3,63.2c-139.8,68.9-235.5,164.7-306.3,308.3c-40.2,80.4-44,118.7-49.8,457.6l-7.7,367.6h1122C4120.3-586.9,4625.8-590.8,4625.8-596.5z M1677.3-3726.9v-172.3h-172.3h-172.3v172.3v172.3h172.3h172.3V-3726.9z M8665.7-3726.9v-172.3h-172.3h-172.3v172.3v172.3h172.3h172.3V-3726.9z"/><path d="M3348.7,3251.9c-137.8-59.4-139.8-237.4-3.8-308.3c151.3-76.6,308.3,91.9,225.9,245.1c-11.5,21.1-49.8,49.8-84.2,65.1C3410,3284.5,3425.3,3286.4,3348.7,3251.9z"/><path d="M4401.8,3251.9c-202.9-88.1-72.8-398.2,132.1-314c55.5,23,111,103.4,111,160.8c0,61.3-57.4,139.8-116.8,160.8c-34.5,11.5-61.3,21.1-63.2,21.1C4463.1,3278.7,4436.3,3267.3,4401.8,3251.9z"/><path d="M5458.7,3263.4c-149.3-63.2-145.5-271.9,7.7-329.3c67-26.8,168.5,13.4,202.9,78.5c42.1,80.4,36.4,126.4-23,189.6C5587,3265.4,5518,3288.3,5458.7,3263.4z"/><path d="M6509.8,3261.5c-53.6-21.1-122.5-111-122.5-157c0-68.9,55.5-145.5,120.6-166.6c118.7-40.2,227.9,38.3,227.9,162.7C6735.8,3215.6,6611.3,3305.5,6509.8,3261.5z"/><path d="M3835.1,2706.3c-126.4-99.6-51.7-306.3,111-306.3c74.7,0,124.5,34.5,155.1,107.2C4170.1,2673.7,3976.7,2817.3,3835.1,2706.3z"/><path d="M4872.8,2689c-38.3-38.3-55.5-74.7-55.5-116.8c0-86.2,90-172.3,178.1-172.3c149.4,0,225.9,195.3,116.8,296.8C5039.4,2763.7,4945.5,2761.8,4872.8,2689z"/><path d="M5925.9,2689c-38.3-38.3-55.5-74.7-55.5-116.8c0-82.3,90-172.3,172.3-172.3c42.1,0,78.5,17.2,116.8,55.5c38.3,38.3,55.5,74.7,55.5,116.8c0,42.1-17.2,78.5-55.5,116.8c-38.3,38.3-74.7,55.5-116.8,55.5C6000.5,2744.6,5964.2,2727.3,5925.9,2689z"/><path d="M3350.6,2208.5c-90-36.4-130.2-162.7-82.3-252.7c11.5-21.1,49.8-49.8,86.2-65.1c168.5-70.8,315.9,132.1,195.3,268C3501.9,2214.2,3411.9,2235.3,3350.6,2208.5z"/><path d="M4403.7,2208.5c-90-36.4-130.2-162.7-82.3-252.7c32.5-59.4,135.9-95.7,206.8-70.8c130.2,46,151.3,233.6,34.5,304.4C4495.6,2231.4,4466.9,2233.3,4403.7,2208.5z"/><path d="M5458.7,2210.4c-174.2-72.8-130.2-327.4,57.4-333.1c57.4-1.9,82.3,9.6,126.4,59.3c30.6,34.5,55.5,78.5,55.5,101.5c0,61.3-49.8,141.7-105.3,166.6C5535.3,2231.4,5512.3,2231.4,5458.7,2210.4z"/><path d="M6484.9,2200.8c-105.3-59.4-124.5-174.2-42.1-264.2c44-49.8,68.9-61.3,126.4-59.3c210.6,5.7,225.9,304.4,19.2,340.8C6555.8,2223.8,6509.8,2216.1,6484.9,2200.8z"/><path d="M3835.1,1653.2c-65.1-51.7-82.3-134-44-208.7c103.4-197.2,394.4-63.2,310.2,141.7C4055.2,1695.3,3928.9,1726,3835.1,1653.2z"/><path d="M4867,1632.2c-67-78.5-65.1-158.9,5.7-229.8c70.8-70.8,151.3-72.8,229.8-5.7c124.5,103.4,53.6,294.8-111,294.8C4930.2,1691.5,4907.3,1680,4867,1632.2z"/><path d="M5920.1,1641.7c-70.8-70.8-67-164.7,5.8-239.3c38.3-38.3,74.7-55.5,116.8-55.5c122.5,0,208.7,145.5,149.3,254.6C6136.5,1704.9,6004.4,1724.1,5920.1,1641.7z"/><path d="M3302.8,1119c-61.3-63.2-70.8-128.3-26.8-210.6c30.6-63.2,63.2-78.5,155.1-78.5c91.9,0,160.8,70.8,160.8,162.7c0,91.9-86.2,181.9-172.3,181.9C3377.5,1174.6,3341.1,1157.3,3302.8,1119z"/><path d="M4357.7,1120.9c-114.9-116.8-49.8-291,109.1-291c222.1,1.9,241.2,302.5,21,338.9C4426.7,1178.4,4409.4,1170.7,4357.7,1120.9z"/><path d="M5437.6,1151.6c-99.6-47.9-118.7-206.8-36.4-277.6c137.9-120.6,344.6,21.1,275.7,187.6C5638.7,1155.4,5527.6,1195.6,5437.6,1151.6z"/><path d="M6481.1,1145.8c-151.3-82.3-90-315.9,82.3-315.9c139.8,0,212.5,128.3,147.4,260.4c-23,44-93.8,84.2-147.4,84.2C6546.2,1172.6,6507.9,1161.1,6481.1,1145.8z"/></g></g>
</svg>