<?xml version="1.0" encoding="utf-8"?>
<!-- Svg Vector Icons : http://www.onlinewebfonts.com/icon -->
<!DOCTYPE svg PUBLIC "-//W3C//DTD SVG 1.1//EN" "http://www.w3.org/Graphics/SVG/1.1/DTD/svg11.dtd">
<svg version="1.1" xmlns="http://www.w3.org/2000/svg" xmlns:xlink="http://www.w3.org/1999/xlink" x="0px" y="0px" viewBox="0 0 1000 1000" enable-background="new 0 0 1000 1000" xml:space="preserve">
<metadata> Svg Vector Icons : http://www.onlinewebfonts.com/icon </metadata>
<g><g transform="translate(0.000000,486.000000) scale(0.100000,-0.100000)"><path d="M4290.4,4503.9c-527.8-59.5-1103.5-264.8-1543-548.9c-310.9-199.6-662.1-518.2-896.2-811.8c-399.2-497.1-679.4-1163-748.5-1773.3c-11.5-105.6-24.9-213-28.8-236c-7.7-40.3-17.3-40.3-309-48c-289.8-5.8-307.1-7.7-393.4-57.6c-99.8-59.5-191.9-167-238-276.4C60.6,575.5,54.9,596.6,669-1184.4c314.7-907.7,587.3-1688.8,610.3-1734.9c21.1-46,61.4-113.2,88.3-147.8c57.6-78.7,251.4-211.1,330.1-228.4c49.9-11.5,55.7-19.2,48-72.9c-11.5-90.2-122.8-1243.6-122.8-1285.8c0-19.2,24.9-61.4,55.6-92.1l55.7-55.7h266.8c295.5,0,333.9,11.5,368.5,120.9c11.5,32.6,80.6,337.8,155.5,675.5c74.8,337.8,140.1,629.5,145.9,648.7c9.6,30.7,138.2,32.6,2329.8,32.6c2191.6,0,2320.2-1.9,2329.8-32.6c5.8-19.2,71-310.9,145.8-648.7s143.9-642.9,155.4-675.5c34.6-109.4,72.9-120.9,368.5-120.9h266.8l55.6,55.7c30.7,30.7,55.7,71,55.7,90.2c0,38.4-111.3,1195.6-122.8,1285.8c-7.7,55.7-1.9,61.4,63.3,80.6c94,28.8,245.6,138.2,320.5,232.2c76.8,99.8,44.2,11.5,700.5,1825.1C9815.6,80.3,9900,327.9,9900,418.1c0,186.2-117.1,380-282.1,458.7c-71,34.6-117.1,40.3-378.1,40.3h-297.5l-23,264.8c-61.4,704.3-293.6,1318.4-708.2,1882.7c-136.3,182.3-449.1,506.7-639.1,660.2c-533.5,431.8-1193.7,704.3-1884.6,779.2C5470.6,4528.9,4501.5,4527,4290.4,4503.9z M5668.3,4177.7c1140-122.8,2088-775.3,2583.2-1773.3c203.4-410.7,312.8-821.4,347.4-1299.3c11.5-174.6,11.5-188.1-23-188.1c-55.6,0-222.6-86.4-301.3-153.5C8144,648.4,8121,583.1,7946.3-157.6c-90.2-385.8-168.9-712-172.7-727.4c-5.8-15.4-36.5,7.7-84.5,65.3C7583.6-693.1,7435.8-576,7290-505c-251.4,122.8-147.8,119-2329.8,113.2l-1984.4-5.7L2851-441.7c-178.5-65.3-337.8-167-474-307.1c-67.2-67.2-120.9-113.2-120.9-105.6c0,38.4-366.6,1631.3-385.7,1679.2c-48,117.1-266.8,262.9-395.3,264.8c-63.3,0-63.3,0-63.3,94c0,130.5,65.2,495.2,126.7,702.4c61.4,213,207.3,543.1,326.3,740.8c525.8,867.5,1416.3,1433.6,2445,1550.7C4520.7,4200.7,5451.5,4202.6,5668.3,4177.7z M1524.9,730.9c34.6-28.8,72.9-178.5,232.2-879c103.6-464.4,203.4-880.9,218.8-923.1c92.1-261,345.4-499,621.8-583.4c119-36.5,182.3-38.4,2422-38.4c2239.6,0,2302.9,1.9,2421.9,38.4c247.5,76.8,479.8,276.3,589.2,508.6c36.5,74.8,113.2,358.9,220.7,825.2c92.1,391.5,180.4,740.8,195.7,779.2c55.7,126.7,80.6,132.4,604.5,132.4c508.6,0,535.4-5.8,535.4-113.2c0-53.7-1159.2-3285.6-1203.3-3354.6c-15.3-23-65.2-59.5-109.4-82.5c-80.6-38.4-94-38.4-3270.2-38.4c-3504.3,0-3295.2-7.7-3379.6,113.2c-48,69.1-1211,3435.2-1211,3508.2c0,55.6,36.5,105.6,96,126.7c15.3,5.8,241.8,11.5,500.9,11.5C1434.7,763.5,1488.5,759.7,1524.9,730.9z M7057.8-752.6c167-51.8,320.5-165.1,416.4-309c44.1-65.2,78.7-132.4,78.7-151.6c0-24.9-36.5-53.7-109.4-90.2l-111.3-53.7l-2226.2-5.8c-1612.1-5.8-2260.7,0-2354.8,15.4c-78.7,13.4-161.2,44.1-216.9,78.7l-86.4,55.7l40.3,80.6c94,184.2,249.5,316.7,451,380c107.5,34.5,207.3,36.4,2053.5,36.4C6875.4-714.2,6938.8-716.1,7057.8-752.6z M2332.9-3341.5c0-21.1-226.5-1045.9-241.8-1099.7c-7.7-23-28.8-34.5-67.2-34.5c-30.7,0-55.6,3.8-55.6,9.6c0,34.5,97.9,1028.7,107.5,1080.5l9.6,61.4h122.8C2277.2-3324.2,2332.9-3331.9,2332.9-3341.5z M7925.2-3385.6c9.6-51.8,107.5-1045.9,107.5-1080.5c0-5.8-25-9.6-55.7-9.6c-38.4,0-59.5,11.5-67.2,34.5c-17.3,53.7-241.8,1076.6-241.8,1097.7c0,11.5,53.7,19.2,124.7,19.2h122.8L7925.2-3385.6z"/><path d="M3081.3,2346.8c-78.7-84.4-63.3-165.1,53.7-284c94-94,99.8-107.5,80.6-155.5c-9.6-28.8-19.2-103.6-19.2-165c0-61.4,9.6-136.3,19.2-165.1c19.2-48,13.4-61.4-80.6-155.4c-84.4-84.4-99.8-113.2-99.8-170.8c0-53.7,13.4-80.6,53.7-115.1c84.4-72.9,151.6-61.4,280.2,49.9l109.4,96l109.4-23c82.5-17.3,132.4-17.3,216.9,0l107.5,23l101.7-96c122.8-117.1,209.2-130.5,285.9-46.1c78.7,84.4,65.3,159.3-49.9,284l-97.9,105.6l25,105.6c17.3,80.6,17.3,130.5,1.9,214.9l-23,107.5l96,105.6c76.8,84.4,96,119,96,170.8c0,94-71,161.2-167,161.2c-61.4,0-86.4-15.3-170.8-97.9c-97.9-96-99.8-97.9-172.7-76.8c-94,26.9-209.2,26.9-293.6,1.9c-63.3-17.3-71-13.4-167,76.8c-86.4,80.6-113.2,96-176.6,96C3146.6,2394.8,3114,2381.4,3081.3,2346.8z M3795.3,1890.1c111.3-103.6,115.1-159.3,23-262.9c-88.3-96-151.6-101.7-247.6-17.3c-53.7,48-67.2,72.9-67.2,132.4c0,59.5,13.4,84.4,67.2,132.4C3653.2,1947.7,3728.1,1951.5,3795.3,1890.1z"/><path d="M5700.9,2346.8c-80.6-78.7-65.2-159.3,48-284l96-105.6l-21.1-107.5c-17.3-80.6-17.3-134.3,0-216.9l21.1-107.5l-96-101.7c-115.1-120.9-128.6-207.3-48-285.9c78.7-80.6,165.1-67.2,286,48l101.7,96l107.5-23c84.4-17.3,134.3-17.3,216.9,0l109.4,23l103.6-96c82.5-74.9,119-96,168.9-96c94,0,170.8,71,170.8,161.2c0,57.6-15.4,86.4-99.8,170.8c-94,94-99.8,107.5-80.6,155.4c9.6,28.8,19.2,103.6,19.2,165.1c0,61.4-9.6,136.3-19.2,165c-19.2,48-13.4,61.4,80.6,155.5c82.5,82.5,99.8,113.2,99.8,168.9c0,96-69.1,163.1-165.1,163.1c-63.3,0-90.2-15.3-176.6-96c-96-90.2-103.6-94-166.9-76.8c-86.4,24.9-228.4,24.9-303.2-1.9c-61.4-21.1-67.2-19.2-163.1,76.8c-84.4,82.5-109.4,97.9-170.8,97.9C5768.1,2394.8,5733.6,2381.4,5700.9,2346.8z M6430.2,1874.7c92.1-82.5,94-166.9,1.9-259.1c-92.1-92.1-159.3-88.3-249.5,11.5c-72.9,82.5-82.5,113.2-46,178.5C6207.6,1941.9,6320.8,1968.8,6430.2,1874.7z"/></g></g>
</svg>