<?xml version="1.0" encoding="utf-8"?>
<!-- Svg Vector Icons : http://www.onlinewebfonts.com/icon -->
<!DOCTYPE svg PUBLIC "-//W3C//DTD SVG 1.1//EN" "http://www.w3.org/Graphics/SVG/1.1/DTD/svg11.dtd">
<svg version="1.1" xmlns="http://www.w3.org/2000/svg" xmlns:xlink="http://www.w3.org/1999/xlink" x="0px" y="0px" viewBox="0 0 1000 1000" enable-background="new 0 0 1000 1000" xml:space="preserve">
<metadata> Svg Vector Icons : http://www.onlinewebfonts.com/icon </metadata>
<g><g transform="translate(0.000000,512.000000) scale(0.100000,-0.100000)"><path d="M653.4,4983.5l-45.9-36.4l-9.6-4208.9l-9.6-4207l-206.7-9.6c-300.5-13.4-281.4,30.6-281.4-645v-545.5l55.5-55.5l55.5-55.5h4788.9H9789l55.5,55.5l55.5,55.5v549.3v547.4l-47.8,45.9c-44,45.9-53.6,47.9-325.4,47.9h-277.5v84.2c0,72.7,5.7,86.1,47.9,95.7c90,22.9,103.4,72.7,107.2,400c3.8,419.2,30.6,396.2-446,396.2h-359.8v522.5v520.6l90,47.9c112.9,59.3,304.3,246.9,375.1,367.5c118.7,202.9,135.9,451.7,51.7,700.5l-42.1,118.7l44,82.3c172.3,323.5,227.8,486.2,227.8,660.3c0,101.5-47.9,250.7-103.4,327.3c-44,59.3-47.8,82.3-45.9,229.7c1.9,90-9.6,199.1-23,241.2c-84.2,262.2-377.1,446-675.6,426.8c-164.6-11.5-227.8-40.2-424.9-202.9c-250.7-206.7-323.5-377.1-279.4-652.7l24.9-147.4l-68.9-124.4c-97.6-176.1-132.1-333-122.5-545.5c5.7-158.9,15.3-191.4,82.3-325.4l74.7-151.2l1.9-277.5c1.9-298.6,24.9-419.2,116.7-608.7c57.4-118.7,168.4-208.6,279.5-225.8l72.7-13.4V-2016v-486.2h-354.1c-352.2,0-356,0-401.9-47.9c-45.9-46-47.9-53.6-47.9-344.5c0-329.2,11.5-373.2,116.7-409.6c51.7-17.2,57.4-26.8,51.7-91.9l-5.7-72.7l-405.8-5.7l-407.7-3.8V715.3v4193.6l-55.5,55.5l-55.5,55.5H3692.9C772.1,5019.9,697.4,5019.9,653.4,4983.5z M6473.9,120v-4574.5h-86.1h-86.1V-17.8c0,4298.9,0,4436.7-34.4,4482.6l-36.4,47.9l-2505.4,5.7c-1378.1,1.9-2524.6,0-2547.6-5.7c-107.2-24.9-101.4,262.2-101.4-4545.8v-4421.4h-76.6h-76.6V120v4574.5h2775.3h2775.3V120z M5976.3-128.8v-4325.7H3689H1401.8v4325.7v4325.7H3689h2287.3V-128.8z M8713.3,1379.4c126.3-65.1,162.7-141.6,157-331.1c-5.7-164.6,21-273.7,93.8-377.1c90-126.3,53.6-335-101.4-595.2c-70.8-116.8-80.4-147.4-86.1-277.5c-7.6-114.8,0-172.3,30.6-260.3c70.8-199.1,40.2-363.7-97.6-518.7c-116.7-132.1-365.6-258.4-457.4-229.7c-91.9,30.6-155,300.5-147.4,641.2l5.7,239.3l-86.1,170.4C7949.6-8.2,7940,26.2,7940,141.1c0,112.9,9.6,147.4,88.1,306.2c105.3,212.5,122.5,302.4,90,467c-34.5,172.3,3.8,264.1,143.5,361.7c57.4,38.3,118.7,88,135.9,107.2C8447.3,1436.8,8602.3,1434.9,8713.3,1379.4z M9077-2904.1v-76.6h-650.8h-650.8v76.6v76.6h650.8H9077V-2904.1z M8920-3884.1l3.8-570.4h-488.1h-488.1v574.2v574.2l484.2-3.8l482.3-5.7L8920-3884.1z M578.7-4129.1v-325.4h-76.6h-76.6v325.4v325.4h76.6h76.6V-4129.1z M7603.2-4129.1v-325.4h-401.9h-401.9v325.4v325.4h401.9h401.9V-4129.1z M9574.6-4129.1v-325.4h-162.7h-162.7v325.4v325.4h162.7h162.7V-4129.1z"/><path d="M2749.2,3877.2l-920.6-5.7l-45.9-49.8l-45.9-49.8v-2515v-2513.1l44-44l44-44l1856.6-5.7l1856.6-3.8l57.4,55.5l55.5,55.5v2511.2v2509.3l-47.9,45.9l-45.9,47.9h-905.3c-497.6,0-922.5,1.9-943.6,5.7C3687.1,3879.1,3256.4,3879.1,2749.2,3877.2z M3526.3,2895.3v-650.8h-736.9h-736.9v650.8v650.8h736.9h736.9V2895.3z M5325.5,2895.3v-650.8h-727.3h-727.3v650.8v650.8h727.3h727.3V2895.3z M3526.3,1268.4V617.7h-736.9h-736.9V1255c0,352.2,5.7,645,13.4,650.8c5.7,7.7,338.8,13.4,736.9,13.4h723.5V1268.4z M5325.5,1268.4V617.7h-727.3h-727.3v650.8v650.8h727.3h727.3V1268.4z M3526.3-377.6v-650.8l-731.2,3.8l-733.1,5.7l-5.7,646.9l-3.8,645h736.9h736.9V-377.6z M5325.5-377.6v-650.8h-727.3h-727.3v650.8v650.8h727.3h727.3V-377.6z"/><path d="M1790.3-1725.1l-53.6-45.9v-1133.1v-1133.1l53.6-45.9l53.6-45.9H3689h1843.2l59.3,49.7l59.3,49.8v1127.3V-1773L5603-1727l-45.9,47.9H3700.5H1843.9L1790.3-1725.1z M5325.5-2904.1v-899.6l-1630.7,3.8l-1632.7,5.7l-5.7,895.8l-3.8,893.8H3689h1636.5V-2904.1z"/></g></g>
</svg>