<?xml version="1.0" encoding="utf-8"?>
<!-- Svg Vector Icons : http://www.onlinewebfonts.com/icon -->
<!DOCTYPE svg PUBLIC "-//W3C//DTD SVG 1.1//EN" "http://www.w3.org/Graphics/SVG/1.1/DTD/svg11.dtd">
<svg version="1.1" xmlns="http://www.w3.org/2000/svg" xmlns:xlink="http://www.w3.org/1999/xlink" x="0px" y="0px" viewBox="0 0 1000 1000" enable-background="new 0 0 1000 1000" xml:space="preserve">
<metadata> Svg Vector Icons : http://www.onlinewebfonts.com/icon </metadata>
<g><g transform="translate(0.000000,512.000000) scale(0.100000,-0.100000)"><path d="M500,4964.5l-55.5-55.5V120v-4789l55.5-55.5l55.5-55.5h3234.8h3234.8l59.3,49.8l59.3,49.8V120v4800.5l-59.3,49.8l-59.3,49.8H3790.3H555.5L500,4964.5z M6799.2,120v-4555.5H3794.1H789.1V120v4555.5h3005.1h3005.1V120z"/><path d="M1016.8,4447.7l-55.5-55.5V120v-4272.2l55.5-55.5l55.5-55.5h2710.3c1885.4,0,2721.8,5.7,2754.3,21c23,11.5,53.6,36.4,67,57.4c32.5,51.7,34.4,8555.9,0,8609.5c-13.4,21.1-44,45.9-67,57.4c-32.5,15.3-869,21.1-2754.3,21.1H1072.3L1016.8,4447.7z M6282.4,120v-4038.7H3794.1H1305.9V120v4038.7h2488.3h2488.3V120z"/><path d="M1533.6,3930.9l-55.5-55.5V2091.5v-1782l45.9-45.9c26.8-26.8,78.5-49.8,128.2-57.4c45.9-5.7,465.1-9.6,930.2-5.7l847.9,5.7l51.7,53.6l53.6,51.7V2103v1791.6l-53.6,45.9l-53.6,45.9h-918.7h-920.7L1533.6,3930.9z M3196.9,2097.2l-5.7-1546.6l-683.3-5.7l-685.2-3.8v1550.4v1550.4h689.1h689.1L3196.9,2097.2z"/><path d="M2044.7,3419.8c-134-134,26.8-356,195.2-268c30.6,15.3,67,53.6,78.5,84.2C2389.2,3404.5,2174.8,3548.1,2044.7,3419.8z"/><path d="M2733.7,3421.8c-70.8-65.1-68.9-166.5,5.7-241.2c30.6-30.6,74.6-55.5,97.6-55.5c67,0,145.5,51.7,170.3,111C3076.4,3402.6,2867.7,3546.2,2733.7,3421.8z"/><path d="M2211.2,2908.8c-193.3-195.2-216.3-223.9-216.3-285.2c0-134,130.2-220.1,243.1-160.8c63.2,32.5,394.3,365.6,426.8,428.7c51.7,103.4-40.2,233.5-168.4,233.5C2435.2,3125.1,2406.4,3102.1,2211.2,2908.8z"/><path d="M4110,3938.6l-47.9-45.9V2103V313.3l45.9-53.6l45.9-53.6h930.2h928.3l44,44l44,44l9.6,1755.2c5.7,964.7,1.9,1782-5.7,1816.4c-30.6,124.4-1.9,120.6-1024,120.6h-924.5L4110,3938.6z M5765.6,2091.5V541.1h-679.5h-679.5v1550.4v1550.4h679.5h679.5V2091.5z"/><path d="M4626.8,3421.8c-72.7-70.8-67-181.8,11.5-246.9c63.2-53.6,112.9-61.3,176.1-26.8c65.1,34.4,88.1,74.6,90,155C4904.3,3452.4,4730.1,3527,4626.8,3421.8z"/><path d="M5338.8,3448.6c-103.4-59.3-99.5-241.2,7.6-294.8c76.6-40.2,120.6-36.4,187.6,21.1c118.7,99.5,53.6,294.8-97.6,294.8C5402,3469.6,5357.9,3460,5338.8,3448.6z"/><path d="M4795.2,2908.8c-204.8-204.8-216.3-220.1-216.3-292.9c0-91.9,53.6-153.1,149.3-172.3c59.3-11.5,72.7-1.9,290.9,214.4c214.4,210.6,229.7,231.6,229.7,298.6c0,101.4-67,168.4-166.5,168.4C5017.2,3125.1,4994.3,3107.9,4795.2,2908.8z"/><path d="M5346.4,16.6c-105.3-59.3-124.4-172.3-42.1-264.1l55.5-63.2h327.3h327.3l51.7,51.7c74.6,76.6,72.7,174.2-9.6,246.9l-61.3,55.5h-302.4C5480.4,41.5,5379,33.9,5346.4,16.6z"/><path d="M1579.6-500.2c-32.5-15.3-68.9-44-80.4-67c-15.3-24.9-21.1-505.3-21.1-1552.3v-1515.9l55.5-55.5l55.5-55.5H2506c997.2,0,972.3-1.9,1018.3,109.1c15.3,40.2,21.1,451.7,17.2,1550.4l-5.7,1498.7l-53.6,51.7l-51.7,53.6l-895.8,3.8C1805.4-475.3,1629.3-479.1,1579.6-500.2z M3196.9-2113.7l3.8-1288.2h-689.1h-689.1v1292v1292l685.2-3.8l683.3-5.7L3196.9-2113.7z"/><path d="M2098.3-1009.3c-59.3-23-103.4-93.8-103.4-168.4c0-151.2,195.2-216.3,294.8-97.6c26.8,32.5,49.8,74.7,49.8,95.7c0,68.9-55.5,147.4-116.8,168.5C2151.9-986.3,2151.9-986.3,2098.3-1009.3z"/><path d="M2787.3-1009.3c-170.4-68.9-118.7-325.4,65.1-325.4c185.7,0,233.5,262.2,59.3,323.5C2840.9-986.3,2840.9-986.3,2787.3-1009.3z"/><path d="M2444.7-1353.8c-21.1-7.7-130.2-109.1-243.1-224c-187.6-191.4-206.7-216.3-206.7-281.4c0-95.7,68.9-164.6,164.6-164.6c65.1,0,90,19.1,287.1,212.5c137.8,135.9,220.1,233.5,227.8,268c17.2,74.6-32.5,160.8-107.2,187.6C2496.4-1330.9,2496.4-1330.9,2444.7-1353.8z"/><path d="M4177-486.8c-15.3-5.7-47.9-28.7-70.8-49.8l-44-38.3v-1538.9v-1538.9l47.9-45.9l45.9-47.9h924.5c882.4,0,926.4,1.9,972.3,38.3l47.9,36.4l9.6,1508.3c7.7,1068,3.8,1525.5-11.5,1565.7c-44,118.7-3.8,114.8-991.5,118.7C4611.4-477.2,4192.3-481,4177-486.8z M5765.6-2109.9v-1292h-679.5h-679.5v1292v1292h679.5h679.5V-2109.9z"/><path d="M4693.7-1003.6c-118.7-44-155-197.1-67-283.3c105.3-107.2,277.5-30.6,277.5,120.6C4904.3-1057.1,4787.5-967.2,4693.7-1003.6z"/><path d="M5373.2-1007.4c-116.7-49.8-149.3-204.8-57.4-283.3c112.9-99.5,277.5-24.9,277.5,124.4C5593.4-1051.4,5474.7-965.3,5373.2-1007.4z"/><path d="M5038.3-1348.1c-15.3-5.7-126.3-105.3-243.1-222c-201-197.1-216.3-218.2-216.3-287.1c0-99.5,67-166.5,166.5-166.5c65.1,0,88,17.2,287.1,216.3c204.8,204.8,216.3,220.1,216.3,292.9c0,55.5-11.5,88.1-42.1,118.7C5158.9-1353.8,5084.2-1330.9,5038.3-1348.1z"/><path d="M7551.4,4974.1l-53.6-45.9V120v-4808.1l53.6-45.9l53.6-45.9h918.7h920.7l55.5,55.5l55.5,55.5V120v4789l-55.5,55.5l-55.5,55.5h-920.7H7605L7551.4,4974.1z M9210.9,3900.3v-775.2l-683.3,3.8l-685.2,5.7l-5.7,771.4l-3.8,769.5h689.1h689.1V3900.3z M9210.9,2014.9v-765.6h-689.1h-689.1v765.6v765.6h689.1h689.1V2014.9z M9210.9,120v-765.6h-689.1h-689.1V120v765.6h689.1h689.1V120z M9210.9-1774.9v-765.6h-689.1h-689.1v765.6v765.6h689.1h689.1V-1774.9z M9210.9-3660.3v-775.2h-689.1h-689.1v761.8c0,419.2,5.7,769.5,13.4,775.2c5.7,7.7,315.8,13.4,689.1,13.4h675.7V-3660.3z"/><path d="M8058.7,4445.8c-49.8-51.7-57.4-68.9-47.9-128.2c7.7-38.3,28.7-86.1,47.9-105.3c19.1-19.1,67-40.2,105.3-47.8c59.3-9.6,76.6-1.9,128.2,47.8c76.6,78.5,78.5,158.9,1.9,235.4C8217.5,4524.3,8137.2,4522.3,8058.7,4445.8z"/><path d="M8749.7,4447.7c-38.3-38.3-55.5-74.6-55.5-116.8c0-82.3,90-172.3,172.3-172.3c42.1,0,78.5,17.2,116.7,55.5c38.3,38.3,55.5,74.6,55.5,116.8c0,42.1-17.2,78.5-55.5,116.8c-38.3,38.3-74.6,55.5-116.7,55.5C8824.3,4503.2,8787.9,4486,8749.7,4447.7z"/><path d="M8229,3930.9c-225.9-225.9-229.7-229.7-218.2-300.5c15.3-91.9,63.2-139.7,155-155c70.8-11.5,74.6-7.7,300.5,218.2c199.1,199.1,227.8,235.4,227.8,290.9c0,44-17.2,78.5-55.5,118.7c-40.2,38.3-74.6,55.5-118.7,55.5C8464.5,4158.7,8428.1,4130,8229,3930.9z"/><path d="M8060.6,2552.8c-30.6-30.6-55.5-74.6-55.5-97.6c0-67,51.7-145.5,111-170.4c168.4-70.8,312,143.6,183.8,273.7C8229,2629.3,8135.2,2625.5,8060.6,2552.8z"/><path d="M8743.9,2548.9c-78.5-91.9-57.4-202.9,45.9-256.5c149.3-76.6,304.3,78.5,225.9,225.9c-32.5,65.1-74.6,88-153.1,90C8809,2608.3,8782.2,2594.9,8743.9,2548.9z"/><path d="M8229,2037.9c-149.3-153.1-224-241.2-224-269.9c0-118.7,128.3-216.3,231.6-176.1c24.9,9.6,137.8,111,252.7,227.8c181.8,185.7,204.8,216.3,204.8,275.6c0,93.8-76.6,168.4-170.4,168.4C8458.7,2263.8,8433.8,2244.6,8229,2037.9z"/><path d="M8066.3,675.1c-95.7-90-61.3-250.7,57.4-283.3c124.4-32.5,225.9,40.2,225.9,164.6C8349.6,692.3,8167.8,768.9,8066.3,675.1z"/><path d="M8751.6,675.1c-124.4-124.4-7.7-333,160.8-285.2c193.3,53.6,155,323.5-45.9,323.5C8816.6,713.4,8776.4,700,8751.6,675.1z"/><path d="M8250.1,183.2c-260.3-256.5-289-315.8-195.2-424.9c40.2-47.9,63.2-59.3,128.2-59.3c74.6,0,90,11.5,294.8,216.3c199,199.1,216.3,222,216.3,287.1c0,101.4-67,166.5-174.2,166.5C8445.3,368.8,8430,357.3,8250.1,183.2z"/><path d="M8110.4-1189.2c-59.3-24.9-105.3-97.6-105.3-164.6c0-19.1,23-61.3,49.8-93.8c67-80.4,178-84.2,246.9-9.6C8428.1-1321.3,8278.8-1112.7,8110.4-1189.2z"/><path d="M8784.1-1193c-97.6-53.6-114.9-164.6-40.2-254.6c38.3-45.9,65.1-59.3,120.6-59.3c172.3,0,237.3,218.2,91.9,306.3C8883.6-1154.8,8854.9-1154.8,8784.1-1193z"/><path d="M8454.9-1528c-61.3-34.5-392.4-365.6-423-423c-40.2-76.6-32.5-126.3,28.7-189.5c42.1-40.2,74.6-55.5,126.3-55.5c61.3,0,90,21,262.2,187.6c199.1,193.3,245,256.5,245,336.9C8694.1-1566.3,8544.9-1478.2,8454.9-1528z"/><path d="M8100.8-3082.2c-53.6-26.8-95.7-97.6-95.7-162.7c0-67,99.5-157,172.3-157c82.3,0,172.3,90,172.3,172.3c0,42.1-17.2,78.5-55.5,116.7C8232.9-3053.5,8177.3-3043.9,8100.8-3082.2z"/><path d="M8797.5-3076.5c-57.4-23-103.4-93.8-103.4-158.9c0-76.6,93.8-166.5,172.3-166.5c80.4,0,172.3,90,172.3,170.4C9038.7-3118.6,8902.8-3030.5,8797.5-3076.5z"/><path d="M8240.5-3616.3c-179.9-178-220.1-227.8-227.8-287.1c-11.5-61.3-3.8-78.5,45.9-130.1c42.1-40.2,76.6-57.4,120.6-57.4c55.5,0,91.9,28.7,289,225.8c197.1,197.1,225.8,233.5,225.8,289c0,86.1-88,174.2-174.2,174.2C8466.4-3401.9,8428.1-3432.5,8240.5-3616.3z"/></g></g>
</svg>