<?xml version="1.0" encoding="utf-8"?>
<!-- Svg Vector Icons : http://www.onlinewebfonts.com/icon -->
<!DOCTYPE svg PUBLIC "-//W3C//DTD SVG 1.1//EN" "http://www.w3.org/Graphics/SVG/1.1/DTD/svg11.dtd">
<svg version="1.1" xmlns="http://www.w3.org/2000/svg" xmlns:xlink="http://www.w3.org/1999/xlink" x="0px" y="0px" viewBox="0 0 1000 1000" enable-background="new 0 0 1000 1000" xml:space="preserve">
<metadata> Svg Vector Icons : http://www.onlinewebfonts.com/icon </metadata>
<g><g transform="translate(0.000000,512.000000) scale(0.100000,-0.100000)"><path d="M8885.4,4993c-68.9-23-132.1-74.7-323.5-266.1l-237.4-237.4l-107.2,55.5c-176.1,95.7-287.2,118.7-516.9,109.1c-237.4-9.6-363.7-51.7-526.4-172.3c-111-82.3-157-158.9-137.8-229.7c5.7-24.9,289.1-321.6,627.9-660.5c549.4-549.4,626-618.3,679.6-618.3c157,0,350.3,312,380.9,620.3c17.2,168.5-21,371.4-101.5,532.2l-67,134l216.3,218.2c153.2,155.1,229.7,218.2,256.5,214.4c38.3-5.7,38.3-23,44-2450.4l3.8-2446.6h-2527h-2527v162.7v162.7H2960.4H1897.9V-41.8v-162.7h-693c-687.3,0-694.9,0-790.6-45.9C291.7-306,199.9-397.9,144.3-520.4c-72.7-153.2-49.8-317.8,63.2-465.2c40.2-53.6,180-158.9,237.4-180c7.7-3.8,149.3-492,315.9-1087.4c206.7-746.6,319.7-1119.9,361.8-1206.1c135.9-266.1,373.3-480.5,649-583.9l116.8-44l5.7-183.8l5.8-183.8h-848.1c-894-1.9-882.5,0-930.4-90c-36.4-67-26.8-120.6,32.5-179.9l55.5-55.5h4789.8H9789l55.5,55.5c59.4,59.3,68.9,112.9,32.5,179.9c-47.9,90-36.4,88.1-930.4,90h-848.1l5.7,183.8l5.7,183.8l120.6,45.9c258.4,95.7,526.4,340.8,647.1,587.7c46,93.8,160.8,476.7,363.7,1209.9c162.7,589.6,304.4,1074,312.1,1077.8c57.4,19.1,197.2,124.4,237.4,180C9854-903.3,9900-776.9,9900-685.1c0,90-72.7,245.1-155.1,325.4c-70.8,70.8-231.7,155.1-298.7,155.1h-44v2460c0,2387.2-1.9,2463.8-36.4,2532.7c-70.8,137.8-216.3,235.5-344.6,231.6C8994.5,5019.8,8933.2,5006.4,8885.4,4993z M7997.1,4301.9c120.6-57.4,319.7-260.4,373.3-381c55.5-126.3,67-268,28.7-398.2c-17.2-59.3-40.2-113-51.7-120.6c-19.2-11.5-897.9,846.2-897.9,876.8c0,11.5,124.4,63.2,201,80.4C7725.3,4376.6,7901.4,4347.8,7997.1,4301.9z M3687.9-1104.3v-890.2l-731.3-5.7l-733.2-3.8v899.8v899.8l733.2-3.8l731.3-5.7V-1104.3z M1897.9-692.7v-162.7h-696.8H502.3L464-805.7c-55.5,70.8-51.7,170.4,7.7,227.8l45.9,47.9h691.1h689.2V-692.7z M9526.7-577.8c59.3-57.4,63.2-157,7.7-227.8l-38.3-49.8H6758.5H4022.9v162.7V-530h2728h2729.9L9526.7-577.8z M1894.1-2084.5l3.8-895.9h1062.5h1062.5v899.8v899.8h2584.4c1422.4,0,2584.4-3.8,2584.4-7.7c0-59.3-585.8-2090.5-624.1-2167.1c-65.1-130.2-243.1-300.6-375.2-361.8c-55.5-24.9-157-55.5-225.9-65.1c-170.4-28.7-5760.3-28.7-5934.6-1.9c-252.7,40.2-490.1,210.6-603,430.7C1392.5-3279,806.7-1246,806.7-1188.5c0,3.8,243.1,5.7,541.8,3.8l539.9-5.7L1894.1-2084.5z M3678.3-2492.2v-162.7h-727.5h-727.5v162.7v162.7h727.5h727.5V-2492.2z M2525.8-4291.7l-80.4-162.7h-111h-111v162.7v162.7h191.4h191.4L2525.8-4291.7z M7101.2-4291.7l80.4-162.7H4999.2H2816.8l80.4,162.7l80.4,162.7h2021.6h2021.6L7101.2-4291.7z M7775-4291.7v-162.7h-111h-111l-80.4,162.7l-80.4,162.7h191.4H7775V-4291.7z"/><path d="M6616.8,3758.2c-97.6-105.3-109.1-122.5-97.6-176.1c15.3-76.6,59.3-124.4,126.3-139.7c70.8-15.3,147.4,24.9,235.5,122.5c91.9,101.5,99.6,206.8,21.1,268C6810.2,3905.6,6741.3,3888.4,6616.8,3758.2z"/><path d="M6161.2,3300.7c-128.3-134-137.8-185.7-53.6-271.8c90-90,185.7-65.1,313.9,76.6c53.6,59.3,70.8,95.7,70.8,145.5c0,91.9-70.8,162.7-158.9,162.7C6279.9,3413.6,6251.2,3394.5,6161.2,3300.7z"/><path d="M7219.9,3369.6c-63.2-32.5-172.3-216.3-172.3-291c0-112.9,132.1-195.3,227.8-141.7c61.2,34.5,174.2,222.1,174.2,289.1c0,63.2-68.9,143.6-134,158.9C7288.8,3390.7,7246.7,3383,7219.9,3369.6z"/><path d="M7671.6,3182c-45.9-36.4-49.8-49.8-49.8-197.2c0-139.8,5.7-162.7,44-199.1c63.2-59.3,166.6-55.5,225.9,7.7c40.2,42.1,45.9,67,45.9,193.4c0,134-3.8,145.5-53.6,189.5C7819.1,3231.8,7738.7,3235.6,7671.6,3182z"/><path d="M5717.1,2856.5c-57.4-53.6-109.1-114.9-116.8-135.9c-30.6-97.6,53.6-206.8,160.8-206.8c55.5,0,84.2,17.2,170.4,101.5c84.2,84.2,101.5,114.9,101.5,168.5c-1.9,72.7-26.8,114.9-90,147.4C5868.3,2971.4,5822.4,2956.1,5717.1,2856.5z"/><path d="M6894.4,2795.3c-68.9-34.5-176.1-237.4-162.7-310.1c15.3-82.3,72.7-132.1,151.2-132.1c78.5,0,128.3,40.2,193.3,157c74.7,132.1,63.2,233.6-30.6,281.4C6980.6,2825.9,6955.7,2825.9,6894.4,2795.3z"/><path d="M7669.7,2523.4c-42.1-40.2-47.9-63.2-47.9-191.4c0-80.4,7.7-162.7,19.1-181.9c30.6-55.5,126.3-80.4,201-49.8c78.5,34.5,113,126.4,101.5,275.7c-7.6,86.1-19.2,114.9-61.3,151.2C7813.3,2584.7,7729.1,2584.7,7669.7,2523.4z"/><path d="M5244.2,2383.7c-128.3-130.2-145.5-201-63.2-281.4c70.8-72.7,162.7-65.1,260.4,23c141.7,128.3,166.5,224,76.6,314C5429.9,2525.4,5376.3,2513.9,5244.2,2383.7z"/><path d="M6565.1,2226.7c-49.8-30.6-149.3-224-149.3-292.9c0-116.8,134-189.5,241.2-132.1c47.9,24.9,160.8,231.6,160.8,291c0,61.3-99.6,153.1-166.6,153.1C6622.6,2245.9,6584.3,2236.3,6565.1,2226.7z"/><path d="M4788.6,1930c-95.7-93.8-114.9-122.5-114.9-176.1c0-88.1,70.8-158.9,162.7-158.9c107.2,0,277.6,174.2,277.6,285.2c0,57.4-78.5,134-147.4,147.4C4911.1,2039.1,4893.9,2029.5,4788.6,1930z"/><path d="M7669.7,1872.6c-42.1-42.1-47.9-61.3-47.9-201c0-126.4,5.7-158.9,38.3-191.4c53.6-53.6,120.6-65.1,187.6-30.6c74.7,38.3,107.2,134,95.7,275.7c-7.6,86.1-19.2,114.9-61.3,151.2C7813.3,1933.8,7729.1,1933.8,7669.7,1872.6z"/><path d="M6214.8,1612.2c-68.9-82.3-124.4-197.2-124.4-256.5c0-105.3,145.5-179.9,248.9-124.4c51.7,28.7,153.2,216.3,153.2,285.2c0,84.2-72.7,155.1-160.8,155.1C6281.8,1671.5,6255,1658.1,6214.8,1612.2z"/><path d="M4444,1562.4c-15.3-5.7-74.7-53.6-128.3-107.2c-86.1-82.3-101.5-109.1-101.5-166.6c0-91.9,63.2-153.1,158.9-153.1c57.4,0,88.1,15.3,155.1,76.6c109.1,101.5,139.8,170.4,105.3,250.8c-15.3,38.3-47.9,70.8-86.1,86.1c-36.4,15.3-67,26.8-68.9,24.9C4474.7,1573.9,4459.3,1568.2,4444,1562.4z"/><path d="M7708,1246.6c-70.8-38.3-86.1-76.6-86.1-225.9c0-164.6,26.8-220.2,111-239.3c124.4-26.8,214.4,67,214.4,225.9c0,120.6-34.5,201-97.6,233.6C7786.5,1275.3,7759.7,1275.3,7708,1246.6z"/><path d="M3858.2,997.7c-118.7-122.5-130.2-151.2-95.7-233.5c32.5-78.5,120.6-114.9,199.1-86.1c116.8,44,248.9,222.1,220.2,298.6c-24.9,72.7-88.1,120.6-158.9,120.6C3965.4,1097.2,3938.6,1081.9,3858.2,997.7z"/><path d="M5902.8,1055.1c-61.3-67-134-237.4-122.5-292.9c11.5-63.2,90-124.4,158.9-124.4c68.9,0,135.9,61.3,197.2,181.9c61.2,118.7,61.2,145.5,0,218.2C6073.1,1112.5,5965.9,1120.2,5902.8,1055.1z"/><path d="M3391.1,532.5c-84.2-86.1-103.4-116.8-103.4-170.4c0-122.5,122.5-195.3,233.5-137.8c28.7,15.3,86.1,63.2,124.4,105.3c55.5,61.3,70.8,93.8,70.8,151.2c0,95.7-61.3,157-155.1,157C3506,637.8,3477.3,620.6,3391.1,532.5z"/><path d="M7706.1,591.8c-74.7-32.5-84.2-59.3-84.2-233.6c0-126.3,5.7-149.3,47.9-189.5c59.3-61.3,143.6-61.3,212.5-3.8c42.1,36.4,53.6,65.1,61.3,151.2c11.5,149.3-23,241.2-103.4,275.7C7765.5,622.5,7778.9,622.5,7706.1,591.8z"/><path d="M5606,501.9c-45.9-26.8-109.1-157-109.1-227.8c0-120.6,143.6-193.4,245-122.5c51.7,36.4,118.7,162.7,118.7,224c0,80.4-68.9,147.4-149.3,147.4C5673.1,522.9,5625.2,513.3,5606,501.9z"/></g></g>
</svg>