<?xml version="1.0" encoding="utf-8"?>
<!-- Svg Vector Icons : http://www.onlinewebfonts.com/icon -->
<!DOCTYPE svg PUBLIC "-//W3C//DTD SVG 1.1//EN" "http://www.w3.org/Graphics/SVG/1.1/DTD/svg11.dtd">
<svg version="1.1" xmlns="http://www.w3.org/2000/svg" xmlns:xlink="http://www.w3.org/1999/xlink" x="0px" y="0px" viewBox="0 0 1000 1000" enable-background="new 0 0 1000 1000" xml:space="preserve">
<metadata> Svg Vector Icons : http://www.onlinewebfonts.com/icon </metadata>
<g><g transform="translate(0.000000,512.000000) scale(0.100000,-0.100000)"><path d="M6698.9,4982.1c-24.9-21.1-53.6-59.3-59.4-86.1c-11.5-47.9-15.3-47.9-208.7-47.9c-181.9,0-201-3.8-239.3-44c-59.4-63.2-55.5-166.6,7.7-225.9c44-40.2,68.9-45.9,239.3-51.7l189.5-7.7v-72.7c0-57.4-9.6-76.6-38.3-86.1c-23-7.7-57.4-30.6-76.6-53.6c-38.3-38.3-38.3-78.5-38.3-2276.2v-2236H3938.3H1401.8v369.5v367.6l369.5,369.5c340.8,340.8,373.3,367.6,436.5,367.6c97.6,0,170.4,61.3,170.4,143.6c0,34.5-5.7,78.5-11.5,95.7c-21.1,51.7-114.9,86.1-239.3,86.1h-120.6l-413.5-411.6l-413.5-411.6H965.3H750.9v248.9v248.9H950h199.1l51.7,61.3c59.4,68.9,55.5,151.2-9.6,216.3c-36.4,34.5-68.9,38.3-344.6,44l-306.3,5.8l-57.4-57.4l-57.4-55.5V619.3v-861.5l-55.5-28.7C234-341.8,100-546.6,100-686.3c0-91.9,45.9-218.2,109.1-300.5c40.2-53.6,179.9-158.9,237.4-179.9c7.7-3.8,149.3-492,315.9-1087.4c206.7-746.6,319.7-1119.9,361.8-1206.1c135.9-266.1,373.3-480.5,649-583.9l116.8-44l5.7-183.8l5.7-183.8h-848.1c-894-1.9-882.5,0-930.4-90c-36.4-67-26.8-120.6,32.5-179.9l55.5-55.5h4789.8h4789.8l55.5,55.5c59.4,59.3,68.9,112.9,32.5,179.9c-47.9,90-36.4,88.1-930.4,90h-848.1l5.7,183.8l5.7,183.8l118.7,44c162.7,63.2,321.6,166.5,447.9,298.6l109.1,112.9h335c183.8,0,350.3,5.7,367.6,11.5c90,34.5,86.2-143.6,86.2,3999.1v3880.4l-55.5,55.5c-30.6,30.6-70.8,55.5-86.1,55.5c-23,0-30.6,19.1-30.6,74.7v74.7l202.9,7.7c195.3,5.7,204.8,7.7,248.9,59.3c59.4,70.8,59.4,155.1-1.9,214.4c-42.1,44-59.3,47.9-237.4,47.9H9423l-26.8,65.1c-30.6,72.7-80.4,107.2-151.2,107.2c-61.3,0-139.7-63.2-155.1-124.4c-9.6-40.2-23-47.9-88.1-47.9c-57.4,0-76.6,7.7-76.6,30.6c0,15.3-24.9,55.5-55.5,86.2c-91.9,91.9-212.5,68.9-262.3-51.7c-23-57.4-36.4-65.1-95.7-65.1c-57.4,0-70.8,7.7-86.2,55.5c-23,67-91.9,116.8-160.8,116.8c-55.5,0-162.7-93.8-162.7-141.7c0-23-19.1-30.6-76.6-30.6c-65.1,0-78.5,7.7-88.1,47.9c-15.3,61.3-93.8,124.4-155.1,124.4c-70.8,0-120.6-34.5-151.2-107.2c-24.9-59.3-34.5-65.1-103.4-65.1c-57.4,0-76.6,7.7-76.6,30.6c0,42.1-105.3,141.7-151.2,141.7c-68.9,0-134-42.1-164.6-107.2c-26.8-55.5-40.2-65.1-95.7-65.1c-57.4,0-70.8,9.6-93.8,65.1C6899.9,5022.3,6790.7,5053,6698.9,4982.1z M7125.8,4446.1v-76.6h-86.2h-86.1v76.6v76.6h86.1h86.2V4446.1z M7623.5,4446.1v-76.6h-86.1h-86.2v76.6v76.6h86.2h86.1V4446.1z M8102.1,4446.1v-76.6h-76.6h-76.6v76.6v76.6h76.6h76.6V4446.1z M8599.8,4446.1v-76.6h-86.1h-86.2v76.6v76.6h86.2h86.1V4446.1z M9078.4,4446.1v-76.6h-76.6h-76.6v76.6v76.6h76.6h76.6V4446.1z M9250.7,368.5v-3675.6h-134h-132.1l46,47.9c78.5,76.6,63.2,201-30.6,248.9c-74.7,40.2-122.5,36.4-178.1-15.3c-76.6-65.1-82.3-147.4-21-220.2l51.7-61.3h-423.1h-421.2l45.9,47.9c70.8,68.9,65.1,164.6-11.5,227.8c-32.5,26.8-80.4,49.8-107.2,49.8c-57.4,0-158.9-95.7-158.9-153.1c0-49.8,47.9-147.4,80.4-158.9c13.4-5.7-168.5-11.5-403.9-11.5l-430.7-1.9l42.1,38.3c88.1,82.3,70.8,204.8-36.4,266.1c-59.4,32.5-135.9,17.2-189.5-40.2l-38.3-42.1v426.9v428.8l49.8-51.7c68.9-67,147.4-65.1,220.2,5.7c72.8,72.8,72.8,141.7,0,214.4c-72.7,70.8-157,74.7-222.1,7.7l-47.9-45.9v421.2v423.1l59.3-49.8c76.6-65.1,141.7-63.2,210.6,5.7c61.3,63.2,68.9,111.1,26.8,191.4c-47.9,93.8-172.3,109.1-248.9,30.6l-47.9-46v430.7v430.7l46-51.7c93.8-111,279.5-38.3,279.5,109.1c0,137.9-201,208.7-285.3,101.5l-40.2-51.7v432.6v432.6l47.9-45.9c93.8-95.7,248.9-45.9,269.9,88.1c24.9,155.1-170.4,245-271.8,124.4l-46-51.7v430.7v430.7l47.9-45.9c124.4-126.3,340.8,26.8,256.5,180c-61.3,107.2-183.8,124.4-266.1,36.4l-38.3-42.1v430.7c1.9,340.8,5.7,423.1,24.9,398.2c30.6-40.2,97.6-74.7,147.4-74.7c51.7,0,153.2,99.6,153.2,151.2c0,149.3-176.1,229.7-277.6,126.3l-47.9-45.9v421.2v423.1l59.3-49.8c76.6-65.1,141.7-63.2,210.6,5.7c61.3,63.2,68.9,111,26.8,191.4c-47.9,93.8-172.3,109.1-248.9,30.6l-47.9-45.9v132.1v134h1225.2h1225.2V368.5z M1076.3,119.6v-325.4H913.6H750.9v325.4v325.4h162.7h162.7V119.6z M6474.9-694v-162.7H3490.4H503.9L465.6-807c-55.5,70.8-51.7,170.4,7.7,227.8l45.9,47.9H3498h2976.9V-694z M6471-2411.2l3.8-1221.4h909.3c545.6,0,909.3-7.7,909.3-17.2c0-32.5-201-114.8-327.3-134c-166.6-28.7-5760.4-28.7-5932.7-1.9c-252.7,40.2-490.1,210.6-603,430.7c-36.4,74.7-622.2,2107.7-622.2,2165.2c0,3.8,1273.1,5.7,2829.4,3.8l2827.5-5.7L6471-2411.2z M6873.1-3286.1c26.8-17.2,24.9-19.2-19.1-21.1c-45.9,0-53.6,7.7-53.6,53.6c1.9,44,3.8,46,21.1,19.1C6830.9-3253.5,6853.9-3276.5,6873.1-3286.1z M2527.4-4293l-80.4-162.7h-111h-111v162.7v162.7h191.4h191.4L2527.4-4293z M7102.8-4293l80.4-162.7H5000.8H2818.4l80.4,162.7l80.4,162.7h2021.6h2021.6L7102.8-4293z M7776.6-4293v-162.7h-111h-111l-80.4,162.7l-80.4,162.7h191.4h191.4V-4293z"/><path d="M7857,3858.4c-32.5-11.5-80.4-109.1-80.4-158.9c0-59.4,101.5-153.2,162.7-153.2c72.7,0,162.7,95.7,162.7,172.3C8102.1,3829.7,7971.9,3904.3,7857,3858.4z"/><path d="M8800.8,3810.5c-40.2-47.9-47.9-72.7-40.2-118.7c24.9-116.8,134-172.3,237.4-118.7c145.5,74.7,86.1,298.6-80.4,298.6C8867.8,3871.8,8841,3858.4,8800.8,3810.5z"/><path d="M7372.7,3364.5c-55.5-30.6-99.6-126.3-80.4-178c5.7-17.2,28.7-51.7,49.8-74.7c76.6-86.1,225.9-44,268,74.7c19.2,53.6-24.9,149.3-84.2,178C7460.8,3398.9,7435.9,3398.9,7372.7,3364.5z"/><path d="M8335.6,3345.3c-151.2-126.4-9.6-336.9,178-266.1c84.2,32.5,103.4,197.2,30.6,264.2C8481.1,3400.8,8402.6,3400.8,8335.6,3345.3z"/><path d="M7837.9,2857.2c-88.1-82.3-70.8-204.8,36.4-266.1c97.6-55.5,227.8,26.8,227.8,145.5C8102.1,2870.6,7935.5,2947.1,7837.9,2857.2z"/><path d="M8806.6,2838c-47.9-49.8-55.5-68.9-45.9-120.6c24.9-134,179.9-191.4,269.9-99.6c99.6,97.6,30.6,277.6-105.3,277.6C8883.2,2895.5,8846.8,2876.3,8806.6,2838z"/><path d="M7342.1,2355.6c-57.4-65.1-65.1-105.3-36.4-176.1c32.5-80.4,118.7-114.9,204.8-84.2c65.1,23,120.6,122.5,99.6,181.9c-24.9,72.7-88,120.6-158.9,120.6C7403.3,2397.7,7368.9,2384.3,7342.1,2355.6z"/><path d="M8316.5,2353.7c-82.3-86.1-40.2-225.9,78.5-268c57.4-21.1,157,32.5,183.8,99.5c30.6,68.9,1.9,162.7-57.4,193.3C8458.2,2413,8360.5,2401.5,8316.5,2353.7z"/><path d="M7832.2,1863.6c-61.3-63.2-68.9-111-26.8-191.4c72.7-143.6,296.7-82.3,296.7,82.3c0,49.8-13.4,76.6-59.3,114.9C7966.2,1934.4,7901.1,1932.5,7832.2,1863.6z"/><path d="M8821.9,1877c-76.6-67-82.3-149.3-21-222.1c124.4-147.4,335-5.8,266.1,178c-15.3,36.4-105.3,86.2-158.9,86.2C8887,1919.1,8848.7,1900,8821.9,1877z"/><path d="M7336.3,1373.5c-82.3-88.1-40.2-243.1,74.7-268c157-34.5,260.3,153.2,149.3,273.8C7504.8,1438.6,7395.7,1436.7,7336.3,1373.5z"/><path d="M8322.2,1373.5c-78.5-76.6-63.2-201,32.5-250.8c103.4-53.6,212.5,1.9,237.4,118.7c7.7,45.9,0,70.8-40.2,118.7C8486.9,1438.6,8391.2,1444.4,8322.2,1373.5z"/><path d="M7880,923.6c-105.3-42.1-134-181.9-55.5-258.4c97.6-99.6,277.6-30.6,277.6,103.4C8102.1,877.7,7975.8,963.9,7880,923.6z"/><path d="M8848.7,917.9c-153.2-78.5-97.6-300.6,74.7-300.6c149.3,0,210.6,178,95.7,275.7C8954,948.5,8919.5,954.3,8848.7,917.9z"/><path d="M7344,399.1c-72.8-61.3-72.8-172.3,1.9-235.5c158.9-137.8,365.6,97.6,208.7,239.3C7493.3,458.5,7409.1,456.5,7344,399.1z"/><path d="M8322.2,397.2c-99.6-97.6-30.6-277.6,103.4-277.6c88.1,0,162.7,74.7,162.7,162.7C8588.3,424,8419.9,496.7,8322.2,397.2z"/><path d="M7824.5-100.5c-61.3-59.4-61.3-143.6-1.9-212.5c134-158.9,367.5,46,239.3,210.6C8008.3-33.5,7891.5-31.6,7824.5-100.5z"/><path d="M8827.6-71.8c-17.2-9.6-42.1-44-55.5-76.6c-30.6-76.6,3.8-162.7,80.4-202.9c155.1-80.4,308.2,137.8,181.9,256.5C8986.5-50.8,8883.2-39.3,8827.6-71.8z"/><path d="M7368.9-552.3c-21.1-11.5-47.9-49.8-63.2-86.1c-30.6-74.6-13.4-141.7,53.6-187.6c160.8-112.9,336.9,109.1,197.2,247C7506.7-527.4,7428.2-517.9,7368.9-552.3z"/><path d="M8360.5-554.2c-149.3-80.4-93.8-302.5,74.7-302.5c90,0,172.3,95.7,157,179.9C8571.1-563.8,8454.3-502.6,8360.5-554.2z"/><path d="M7836-1061.6c-23-19.1-45.9-67-53.6-105.3c-9.6-61.3-1.9-78.5,47.9-130.2c74.7-74.7,141.7-74.7,216.3-1.9c70.8,72.8,74.7,157,7.7,222.1C7998.7-1019.4,7895.3-1013.7,7836-1061.6z"/><path d="M8800.8-1090.3c-40.2-47.9-47.9-72.7-40.2-118.7c24.9-116.8,134-172.3,237.4-118.7c145.5,74.7,86.1,298.7-80.4,298.7C8867.8-1029,8841-1042.4,8800.8-1090.3z"/><path d="M7372.7-1536.3c-55.5-30.6-99.6-126.4-80.4-178c5.7-17.2,28.7-51.7,49.8-74.7c76.6-86.1,225.9-44,268,74.7c19.2,53.6-24.9,149.3-84.2,178C7460.8-1501.9,7435.9-1501.9,7372.7-1536.3z"/><path d="M8335.6-1555.4c-151.2-126.4-9.6-337,178-266.1c84.2,32.5,103.4,197.2,30.6,264.2C8481.1-1500,8402.6-1500,8335.6-1555.4z"/><path d="M7837.9-2043.6c-88.1-82.3-70.8-204.8,36.4-266.1c97.6-55.5,227.8,26.8,227.8,145.5C8102.1-2030.2,7935.5-1953.7,7837.9-2043.6z"/><path d="M8806.6-2062.8c-47.9-49.8-55.5-68.9-45.9-120.6c24.9-134,179.9-191.4,269.9-99.6c99.6,97.6,30.6,277.6-105.3,277.6C8883.2-2005.3,8846.8-2024.5,8806.6-2062.8z"/><path d="M7342.1-2545.2c-57.4-65.1-65.1-105.3-36.4-176.1c53.6-128.2,237.4-128.2,291,0c45.9,109.1-26.8,218.2-145.5,218.2C7403.3-2503.1,7368.9-2516.5,7342.1-2545.2z"/><path d="M8316.5-2547.1c-82.3-86.1-40.2-225.9,78.5-268c57.4-21.1,157,32.6,183.8,99.6c30.6,68.9,1.9,162.7-57.4,193.3C8458.2-2487.8,8360.5-2499.2,8316.5-2547.1z"/></g></g>
</svg>