<?xml version="1.0" encoding="utf-8"?>
<!-- Svg Vector Icons : http://www.onlinewebfonts.com/icon -->
<!DOCTYPE svg PUBLIC "-//W3C//DTD SVG 1.1//EN" "http://www.w3.org/Graphics/SVG/1.1/DTD/svg11.dtd">
<svg version="1.1" xmlns="http://www.w3.org/2000/svg" xmlns:xlink="http://www.w3.org/1999/xlink" x="0px" y="0px" viewBox="0 0 1000 1000" enable-background="new 0 0 1000 1000" xml:space="preserve">
<metadata> Svg Vector Icons : http://www.onlinewebfonts.com/icon </metadata>
<g><g transform="translate(0.000000,512.000000) scale(0.100000,-0.100000)"><path d="M1982,4999.1c-67-36.4-86.2-78.5-86.2-191.5v-111.1h-518.9H858l-55.5-55.5c-68.9-68.9-70.8-134-5.7-210.6l49.8-59.4h524.7h524.7v-162.8v-162.8h-103.4c-84.3,0-114.9-9.6-162.8-49.8l-59.4-49.8V1870.2V-205.5h-530.4c-517,0-534.2-1.9-628.1-46c-122.6-55.5-214.5-147.4-270-270C69-674.7,92-839.3,205-986.8c40.2-53.6,180-158.9,237.4-180c7.7-3.8,149.4-492.1,316-1087.6c206.8-746.8,319.8-1120.2,361.9-1206.4c136-266.2,373.4-480.6,649.1-584l116.8-44l5.7-283.4c1.9-162.8,13.4-302.6,24.9-325.5c36.4-70.8,101.5-84.3,398.3-84.3c248.9,0,289.2,3.8,329.4,36.4c24.9,19.2,111.1,166.6,189.6,325.5l141.7,289.1h2022.1H7020l141.7-289.1c78.5-158.9,164.7-306.4,189.6-325.5c40.2-32.6,80.4-36.4,329.3-36.4c296.8,0,361.9,13.4,398.3,84.3c11.5,23,23,162.8,24.9,325.5l5.7,283.4l120.6,45.9c258.5,95.7,526.6,340.9,647.2,587.9c46,93.8,160.8,476.8,363.8,1210.2c162.8,589.8,304.5,1074.2,312.1,1078.1c57.5,19.2,197.2,124.5,237.4,180C9905.7-837.4,9900-1004,9900,1956.4c0,1840.2-5.7,2734.4-21.1,2784.2c-9.6,40.2-55.5,109.2-99.6,155.1c-132.1,137.9-310.2,158.9-482.5,59.4c-42.1-24.9-170.4-139.8-285.3-254.7l-206.8-210.6l-80.4,46c-344.7,199.1-852.1,151.3-1120.2-103.4c-65.1-63.2-78.5-86.2-78.5-149.4c0-70.8,19.1-91.9,618.5-691.3c576.4-576.4,622.3-618.5,683.6-618.5c90,0,143.6,40.2,231.7,178.1c193.4,296.8,204.9,718.1,28.7,1020.6l-45.9,80.4l225.9,224c185.8,185.7,231.7,222.1,266.2,210.6l40.2-11.5V2216.8V-243.8l-49.8,19.2c-30.6,11.5-792.8,19.2-2039.3,19.2H5495.8v2048.9c0,1813.4-3.8,2056.6-28.7,2108.3c-36.4,67-95.7,93.8-212.6,93.8h-84.2v162.8V4371h517h518.9l46,47.9c28.7,28.7,47.9,68.9,47.9,103.4c0,166.6-30.6,174.3-628.1,174.3h-496l-11.5,118.7c-9.6,97.6-19.2,128.3-61.3,162.8c-63.2,55.5-147.5,55.5-210.6,0c-42.1-34.5-51.7-65.1-61.3-162.8l-11.5-118.7H4747h-74.7v107.2c0,91.9-7.7,113-55.5,162.8c-70.8,70.8-149.4,72.8-220.2,7.7c-44-40.2-49.8-61.3-49.8-162.8v-114.9h-86.2h-86.2v114.9c0,97.7-7.7,124.5-47.9,162.8c-59.4,61.3-143.6,61.3-212.6,3.8c-44-38.3-53.6-65.1-61.3-162.8l-7.7-118.7h-72.8h-72.8l-7.7,118.7c-7.7,97.6-17.2,124.5-61.3,162.8c-68.9,57.4-153.2,57.4-212.6-3.8c-40.2-38.3-47.9-65.1-47.9-162.8v-114.9h-86.2h-86.2v111.1c-1.9,114.9-19.1,155.1-90,191.5c-67,36.4-120.6,26.8-180-32.5c-47.9-49.8-55.5-70.9-55.5-162.8v-107.2h-74.7h-72.8l-11.5,118.7c-9.6,97.6-19.2,128.3-61.3,162.8c-26.8,24.9-74.7,44-105.3,44s-78.5-19.1-105.3-44c-42.1-34.5-51.7-65.1-61.3-162.8l-11.5-118.7H2296h-74.7v107.2c0,91.9-7.7,113-55.5,162.8C2106.4,5024,2047.1,5035.5,1982,4999.1z M2374.5,4208.2v-162.8h-76.6h-76.6v162.8V4371h76.6h76.6V4208.2z M2872.4,4208.2v-162.8h-76.6h-76.6v162.8V4371h76.6h76.6V4208.2z M3370.3,4208.2v-162.8h-86.2h-86.2v162.8V4371h86.2h86.2V4208.2z M3849,4208.2v-162.8h-76.6h-76.6v162.8V4371h76.6h76.6V4208.2z M4346.8,4208.2v-162.8h-86.2h-86.2v162.8V4371h86.2h86.2V4208.2z M4825.6,4208.2v-162.8H4749h-76.6v162.8V4371h76.6h76.6V4208.2z M8496.4,4292.5c141.7-68.9,296.8-229.8,365.7-379.1c36.4-78.5,47.9-136,47.9-229.8c-1.9-128.3-49.8-289.1-86.2-289.1c-11.5,0-218.3,197.2-459.6,438.5l-442.3,438.5l59.4,30.6C8142.1,4384.4,8314.5,4382.5,8496.4,4292.5z M5166.4,2657.2c3.8-578.3,0-1865.1-7.7-2858.9l-11.5-1803.8H3521.5H1895.8V857.2v2862.7l1633.4-3.8l1631.5-5.7L5166.4,2657.2z M1570.3-693.8v-162.8H1036H499.9l-38.3,49.8c-55.5,70.8-51.7,170.4,7.7,227.9l46,47.9h528.5h526.6V-693.8z M9526.6-578.9c59.4-57.4,63.2-157,7.7-227.9l-38.3-49.8h-2001H5495.8v162.8v162.8h1991.5h1993.4L9526.6-578.9z M1566.5-1760.4l3.8-570.6H3533h1962.7v574.5v574.5h1847.9c1016.8,0,1847.8-3.8,1847.8-7.7c0-59.3-585.9-2091-624.2-2167.6c-65.1-130.2-243.2-300.6-375.3-361.9c-55.5-24.9-157-55.5-226-65.1c-170.4-28.7-5761.8-28.7-5936.1-1.9c-252.8,40.2-490.2,210.6-603.2,430.8c-36.4,74.7-622.3,2108.3-622.3,2165.7c0,3.8,170.4,5.8,379.1,3.8l377.2-5.7L1566.5-1760.4z M2523.9-4293.8l-80.4-162.8h-111.1h-111.1v162.8v162.8h191.5h191.5L2523.9-4293.8z M7774.5-4293.8v-162.8h-111.1h-111.1l-80.4,162.8l-80.4,162.8H7583h191.5V-4293.8z"/><path d="M2324.7,3375.3c-105.3-42.1-103.4-26.8-103.4-1058.9v-953.6l47.9-46c30.6-32.6,67-47.9,114.9-47.9c47.9,0,84.2,15.3,114.9,47.9l47.9,46v957.4v957.4l-42.1,47.9C2455,3381,2384.1,3400.2,2324.7,3375.3z"/><path d="M3613.5,3038.3c-28.7-15.3-61.3-49.8-70.9-76.6c-11.5-28.7-19.2-490.2-19.2-1129.8c0-1143.2,1.9-1170,86.2-1202.5c74.7-28.7,158.9-11.5,199.1,38.3c40.2,49.8,40.2,67,40.2,1175.7v1124l-42.1,40.2C3745.6,3063.1,3676.6,3074.6,3613.5,3038.3z"/><path d="M2920.3,2350.8l-47.9-46V1268.9V231.1l55.5-55.5c59.4-59.4,113-68.9,180-32.5c90,47.9,88.1,24.9,90,1118.3c0,1020.6,0,1037.9-40.2,1087.6C3104.1,2417.8,2987.3,2419.8,2920.3,2350.8z"/><path d="M4433,1897c-86.2-49.8-84.3-36.4-86.2-1045.5v-963.2l47.9-46c65.1-67,149.4-63.2,222.1,7.7l55.5,55.5v951.7v951.7l-55.5,55.5C4557.5,1921.9,4496.2,1933.4,4433,1897z"/></g></g>
</svg>