<?xml version="1.0" encoding="utf-8"?>
<!-- Svg Vector Icons : http://www.onlinewebfonts.com/icon -->
<!DOCTYPE svg PUBLIC "-//W3C//DTD SVG 1.1//EN" "http://www.w3.org/Graphics/SVG/1.1/DTD/svg11.dtd">
<svg version="1.1" xmlns="http://www.w3.org/2000/svg" xmlns:xlink="http://www.w3.org/1999/xlink" x="0px" y="0px" viewBox="0 0 1000 1000" enable-background="new 0 0 1000 1000" xml:space="preserve">
<metadata> Svg Vector Icons : http://www.onlinewebfonts.com/icon </metadata>
<g><g transform="translate(0.000000,401.000000) scale(0.100000,-0.100000)"><path d="M1326.9,2817.6c-313.9-84.2-641.2-382.8-736.9-673.7c-17.2-49.8-134-928.3-260.3-1954.3L100-1674.7v-537.9c1.9-578,7.7-622.1,103.4-748.4l51.7-67l-47.9-63.2c-88-114.8-107.2-204.8-107.2-511.1c0-380.9,44-497.7,241.2-637.4l84.2-59.3v-208.6c0-204.8,1.9-208.6,55.5-264.1l55.5-55.5h625.9h625.9l55.5,55.5c53.6,55.5,55.5,61.2,55.5,248.8v193.3H5000h3100.8v-193.3c0-187.6,1.9-193.3,55.5-248.8l55.5-55.5h625.9h625.9l55.5,55.5c53.6,55.5,55.5,59.3,55.5,264.1v208.6l84.2,59.3C9856-4099.8,9900-3983,9900-3602.1c0,306.3-19.1,396.2-107.2,511.1l-47.9,63.2l51.7,67c95.7,126.3,101.5,170.3,103.4,744.6v532.1l-229.7,1870C9544,1213.6,9427.2,2094.1,9410,2143.9c-68.9,212.5-294.8,465.1-516.8,583.8c-241.2,128.2,26.8,120.6-3902.8,118.7C1945.2,2846.3,1415,2842.5,1326.9,2817.6z M8661.6,2484.6c164.6-51.7,313.9-183.8,396.2-350.3c55.5-114.8,63.2-166.5,229.7-1515.9c93.8-767.5,176.1-1435.5,181.8-1483.4l11.5-86.1l-72.7,122.5c-149.3,248.8-457.5,478.5-723.5,539.8c-51.7,13.4-107.2,24.9-122.5,30.6c-19.1,3.8-22.9,30.6-15.3,97.6c13.4,122.5-17.2,296.7-72.7,403.9c-57.4,112.9-943.6,997.2-1054.6,1050.8c-120.6,61.3-294.8,86.1-424.9,61.3c-212.5-38.3-269.9-82.3-761.8-578.1c-543.6-549.3-551.3-560.8-553.2-842.2v-187.6h-758h-758v168.4c1.9,279.4-11.5,298.6-558.9,851.8c-310.1,313.9-501.5,491.9-558.9,520.6c-122.5,63.2-289,90-423,67c-216.3-34.5-260.3-65.1-746.5-551.3c-558.9-553.2-580-587.6-580-897.7v-195.2l-107.2-40.2c-227.8-82.3-467-283.3-601-507.2l-68.9-114.8l11.5,86.1c5.7,47.9,88,715.8,181.8,1483.4C879,1965.9,886.7,2019.5,942.2,2134.3c80.4,162.7,231.6,298.6,388.5,348.3c116.8,36.4,197.2,38.3,3661.6,38.3C8497,2522.9,8539.1,2522.9,8661.6,2484.6z M2846.7,1031.8c49.8-23,239.3-201,530.2-491.9c505.3-511,528.3-545.5,472.8-702.5l-26.8-80.4l-1083.4-5.7C1518.3-252.5,1614-265.9,1596.8-99.4c-7.7,76.6,0,109.1,40.2,176.1c26.8,45.9,245,277.5,486.2,516.8C2626.6,1091.2,2666.8,1116,2846.7,1031.8z M7229.9,1031.8c49.8-23,239.3-201,530.2-491.9c505.3-511,524.4-539.8,470.9-698.6l-28.7-84.2l-1091-5.7l-1091-3.8l-21.1,47.9c-32.5,68.9-28.7,193.3,5.7,266c42.1,86.1,903.4,939.8,985.7,976.2C7078.7,1075.8,7138,1073.9,7229.9,1031.8z M8600.3-597.1c296.7-55.5,551.3-292.9,620.2-578l13.4-53.6h-4232h-4232l11.5,53.6c61.2,264.1,287.1,490,558.9,560.8c118.7,32.5,369.4,34.5,3642.5,34.5C7262.4-577.9,8533.3-585.6,8600.3-597.1z M635.9-1611.5c-93.8-93.8-19.1-268,112.9-268c128.2,1.9,202.9,116.7,147.4,225.9c-17.2,32.5-40.2,61.3-53.6,67c-13.4,5.7,164.6,11.5,394.3,11.5l419.2,1.9l-40.2-44c-88.1-93.8-23-262.2,101.4-262.2c90,0,122.5,15.3,153.1,78.5c38.3,72.7,36.4,118.7-11.5,178l-38.3,49.8h403.9h403.9l-38.3-49.8c-86.1-109.1-15.3-256.5,122.5-256.5s208.6,147.4,122.5,256.5l-38.3,49.8h405.8c384.7,0,403.9-1.9,375.2-32.5c-47.9-55.5-57.4-130.2-24.9-193.3c32.5-65.1,63.2-80.4,155-80.4c124.4,0,189.5,168.4,101.4,262.2l-40.2,44h417.3c338.8,0,413.4-3.8,386.6-23c-40.2-32.5-72.7-120.6-57.4-162.7c63.2-179.9,312-151.2,312,36.4c0,47.9-13.4,86.1-38.3,111c-38.3,38.3-38.3,38.3,373.2,38.3h413.4l-40.2-42.1c-90-95.7-21-264.1,109.1-264.1c88,0,130.2,24.9,158.9,95.7c26.8,65.1,0,158.9-55.5,191.4c-19.1,11.5,116.8,17.2,388.6,19.1h419.2l-40.2-44c-88.1-93.8-23-262.2,101.4-262.2c90,0,122.5,15.3,153.1,78.5c38.3,72.7,36.4,118.7-11.5,178l-38.3,49.8h403.9h403.9l-38.3-49.8c-86.1-109.1-15.3-256.5,122.5-256.5c137.8,0,208.6,147.4,122.5,256.5l-38.3,49.8h405.8c384.7,0,403.9-1.9,375.2-32.5c-47.9-55.5-57.4-130.2-24.9-193.3c32.5-65.1,63.2-80.4,155-80.4c124.4,0,189.5,168.4,101.4,262.2l-40.2,44h402h403.9l-36.4-70.8c-21.1-40.2-30.6-88-24.9-111c17.2-57.4,86.1-124.4,126.3-124.4c32.5,0,34.5-23,34.5-333v-333l-57.4-11.5c-45.9-7.6-67-28.7-90-82.3c-28.7-68.9-26.8-76.6,9.6-143.6l38.3-72.7h-403.9h-402l40.2,44c88.1,93.8,23,262.2-101.4,262.2c-90,0-122.5-15.3-155-80.4c-36.4-70.8-19.1-157,36.4-197.1c36.4-26.8,0-28.7-377.1-28.7h-415.3l38.3,49.8c86.1,109.1,15.3,256.5-122.5,256.5c-137.8,0-208.6-147.4-122.5-256.5l38.3-49.8h-403.9h-403.9l42.1,55.5c32.5,44,38.3,70.8,28.7,124.4c-15.3,82.3-72.7,126.3-166.5,126.3c-84.2,0-151.2-68.9-151.2-153.1c0-28.7,17.2-74.7,40.2-103.4l38.3-49.8H6135c-271.8,1.9-405.8,7.6-386.7,19.1c55.5,32.5,82.3,126.3,55.5,191.4c-28.7,70.8-70.8,95.7-155,95.7c-134,0-202.9-162.7-109.1-262.2l40.2-44h-413.4h-415.4l38.3,38.3c91.9,91.9,19.1,268-109.1,268c-91.9,0-134-26.8-158.9-103.4c-17.2-53.6-15.3-76.6,7.7-122.5c17.2-32.5,40.2-61.3,53.6-67c13.4-5.8-164.6-11.5-394.3-11.5l-419.2-1.9l40.2,44c88.1,93.8,23,262.2-101.4,262.2c-90,0-122.5-15.3-155-80.4c-36.4-70.8-19.1-157,36.4-197.1c36.4-26.8,0-28.7-377.1-28.7h-415.4l38.3,49.8c86.1,109.1,15.3,256.5-122.5,256.5s-208.6-147.4-122.5-256.5l38.3-49.8h-405.8h-405.8l36.4,40.2c23,24.9,36.4,67,36.4,116.8c0,97.6-57.4,149.3-162.7,149.3c-134,0-199.1-147.4-112.9-256.5l38.3-49.8H1235c-271.8,1.9-405.8,7.6-386.6,19.1c55.5,32.5,82.3,126.3,55.5,191.4c-28.7,70.8-70.8,95.7-155,95.7c-134,0-202.9-162.7-109.1-262.2l40.2-44h-76.6c-47.9,0-95.7,13.4-122.5,36.4c-45.9,36.4-45.9,38.3-51.7,541.7c-3.8,275.6,0,532.1,5.7,566.6c17.2,91.9,70.8,137.8,162.7,137.8h76.6L635.9-1611.5z M9488.5-3211.7c67-26.8,86.1-111,86.1-390.5c0-279.5-19.1-363.7-86.1-390.5c-42.1-15.3-8934.8-15.3-8977,0c-67,26.8-86.1,111-86.1,390.5c0,271.8,19.1,363.7,80.4,388.5C542.1-3198.3,9450.2-3198.3,9488.5-3211.7z M1573.8-4425.2v-76.6h-411.5H750.8v76.6v76.6h411.5h411.5V-4425.2z M9249.2-4425.2v-76.6h-411.5h-411.5v76.6v76.6h411.5h411.5V-4425.2z"/><path d="M1131.7-2107.3c-72.7-72.7-72.7-141.6,0-214.4c109.1-107.2,269.9-44,269.9,107.2C1401.6-2063.2,1240.8-2000.1,1131.7-2107.3z"/><path d="M2117.4-2097.7c-111-93.8-38.3-279.4,109.1-279.4c134,0,202.9,179.9,103.4,277.5C2270.5-2038.3,2186.3-2038.3,2117.4-2097.7z"/><path d="M3095.5-2099.6c-99.5-97.6-30.6-277.5,103.4-277.5c88,0,162.7,74.6,162.7,162.7C3361.6-2072.8,3193.1-2000.1,3095.5-2099.6z"/><path d="M4071.7-2099.6c-99.5-97.6-30.6-277.5,105.3-277.5c76.6,0,172.3,90,172.3,162.7c0,30.6-23,72.7-55.5,107.2C4221-2036.4,4136.8-2032.6,4071.7-2099.6z"/><path d="M5061.2-2090c-88-82.3-68.9-225.8,36.4-268c166.5-68.9,304.3,130.1,178,256.5C5212.5-2040.3,5120.6-2034.5,5061.2-2090z"/><path d="M6031.7-2107.3c-32.5-34.4-55.5-76.6-55.5-107.2c0-72.7,95.7-162.7,172.3-162.7c84.2,0,153.1,74.6,153.1,162.7C6301.6-2063.2,6140.8-2000.1,6031.7-2107.3z"/><path d="M7017.4-2097.7c-111-93.8-38.3-279.4,109.1-279.4c82.3,0,151.2,74.6,151.2,162.7C7277.7-2072.8,7124.6-2003.9,7017.4-2097.7z"/><path d="M7995.5-2099.6c-99.5-97.6-30.6-277.5,103.4-277.5c88,0,162.7,74.6,162.7,162.7C8261.6-2072.8,8093.1-2000.1,7995.5-2099.6z"/><path d="M8971.7-2099.6c-99.5-97.6-30.6-277.5,105.3-277.5c76.6,0,172.3,90,172.3,162.7c0,30.6-23,72.7-55.5,107.2C9121-2036.4,9036.8-2032.6,8971.7-2099.6z"/></g></g>
</svg>