<?xml version="1.0" encoding="utf-8"?>
<!-- Svg Vector Icons : http://www.onlinewebfonts.com/icon -->
<!DOCTYPE svg PUBLIC "-//W3C//DTD SVG 1.1//EN" "http://www.w3.org/Graphics/SVG/1.1/DTD/svg11.dtd">
<svg version="1.1" xmlns="http://www.w3.org/2000/svg" xmlns:xlink="http://www.w3.org/1999/xlink" x="0px" y="0px" viewBox="0 0 1000 1000" enable-background="new 0 0 1000 1000" xml:space="preserve">
<metadata> Svg Vector Icons : http://www.onlinewebfonts.com/icon </metadata>
<g><g transform="translate(0.000000,384.000000) scale(0.100000,-0.100000)"><path d="M1022.6,2486.8C595.7,2393,218.7,2014,128.7,1585.3c-23-111-28.7-465.1-26.8-2237.5c0-2273.9-3.8-2176.3,101.4-2316l51.7-67l-47.9-63.2c-88-114.8-107.2-204.8-107.2-511.1c0-380.9,44-497.7,241.2-637.4l84.2-59.3v-208.6c0-204.8,1.9-208.6,55.5-264.1l55.5-55.5h625.9h625.9l55.5,55.5c53.6,55.5,55.5,61.2,55.5,248.8v193.3H5000h3100.8v-193.3c0-187.6,1.9-193.3,55.5-248.8l55.5-55.5h625.9h625.9l55.5,55.5c53.6,55.5,55.5,59.3,55.5,264.1v208.6l84.2,59.3c197.1,139.7,241.2,256.5,241.2,637.4c0,306.3-19.1,396.2-107.2,511.1l-47.9,63.2l51.7,67c105.3,139.7,101.5,42.1,101.5,2325.6c1.9,2348.6,7.6,2231.8-128.3,2507.4c-97.6,199.1-321.6,423-520.6,520.6c-283.3,139.7,32.5,130.2-4249.2,128.2C1803.5,2513.6,1122.1,2507.9,1022.6,2486.8z M1470.5,2148c-28.7-24.9-55.5-70.8-61.3-105.3c-9.6-51.7-1.9-70.8,45.9-120.6c111-109.1,271.8-47.9,271.8,105.3c0,47.9-15.3,84.2-47.9,114.8l-45.9,47.9h430.7h430.7l-49.8-44c-74.6-63.2-74.6-174.2-1.9-235.4c158.9-137.8,363.7,82.3,212.5,231.6l-45.9,47.9h428.8h428.8l-45.9-47.9c-99.5-97.6-30.6-277.5,103.4-277.5c147.4,0,220.1,185.7,109.1,279.5l-51.7,45.9h446c344.5-1.9,436.4-5.7,407.7-23c-145.5-84.2-93.8-304.3,70.8-302.4c70.8,1.9,112.9,26.8,145.5,90c36.4,67,26.8,120.6-32.5,179.9l-55.5,55.5H5000h436.4l-55.5-55.5c-59.3-59.3-68.9-112.9-32.5-179.9c32.5-63.2,74.6-88,145.5-90c164.6-1.9,216.3,218.2,70.8,302.4c-28.7,17.2,63.2,21.1,407.7,23h446l-47.9-42.1c-28.7-24.9-55.5-70.8-61.2-105.3c-9.6-51.7-1.9-70.8,45.9-120.6c74.6-72.7,158.9-76.6,223.9-9.6c65.1,63.2,65.1,166.5,0,229.7l-45.9,47.9h430.7h430.7l-49.8-44c-74.7-63.2-74.7-174.2-1.9-235.4c158.9-137.8,363.7,82.3,212.5,231.6l-45.9,47.9h428.8h428.8l-45.9-47.9c-99.5-97.6-30.6-277.5,103.4-277.5c147.4,0,220.1,185.7,109.1,279.5l-51.7,45.9H8654c212.5,0,342.6-26.8,486.2-99.5c285.2-143.6,434.5-423,434.5-815.4v-178l-42.1,47.9c-24.9,28.7-70.8,55.5-105.3,61.3c-51.7,9.6-70.8,1.9-120.6-45.9c-72.7-74.7-76.6-158.9-9.6-224c65.1-67,168.4-65.1,229.7,1.9l47.9,51.7V551.7c-1.9-321.6-5.7-428.8-21-403.9c-11.5,21.1-49.8,47.9-86.1,63.2c-74.7,30.6-141.7,13.4-187.6-53.6C9166.9-3.4,9388.9-179.5,9526.8-39.8l47.9,45.9v-428.8v-428.7l-47.9,45.9c-26.8,28.7-68.9,47.9-99.5,47.9c-42.1,0-90,34.4-206.7,149.3c-162.7,160.8-350.3,269.9-535.9,312c-51.7,13.4-107.2,24.9-122.5,30.6c-19.1,3.8-22.9,30.6-15.3,97.6c13.4,122.5-17.2,296.7-72.7,403.9c-57.4,112.9-943.6,997.2-1052.7,1050.8c-231.6,114.8-528.3,88.1-729.2-65.1c-84.2-65.1-86.1-65.1-143.6-34.4c-149.3,76.6-294.8-72.7-218.2-224l32.5-61.2l-124.4-124.4C6117.8,657,6114,655,6070,685.7c-65.1,44-145.5,38.3-199.1-17.2c-55.5-53.6-63.2-153.1-21-212.5c24.9-32.5,22.9-42.1-17.2-84.2c-24.9-26.8-68.9-95.7-99.5-153.1c-47.9-93.8-53.6-124.4-53.6-290.9v-187.6h-758h-758l1.9,168.4c0,141.7-7.7,183.8-53.6,281.4c-28.7,63.2-68.9,134-90,155l-38.3,42.1l67,11.5c126.3,24.9,172.3,178,78.5,269.9c-86.1,88.1-239.3,38.3-271.8-88l-15.3-55.5l-181.8,181.8c-174.2,176.1-179.9,181.8-122.5,181.8c111,0,187.6,122.5,137.8,224c-68.9,141.6-302.4,111-302.4-42.1c0-26.8-7.7-47.9-15.3-47.9c-7.7,0-65.1,51.7-126.3,112.9c-157,158.9-296.7,220.1-499.6,218.2c-111,0-183.8-11.5-268-44c-105.3-40.2-157-84.2-580-505.3C1317.3,241.6,1296.3,211,1296.3-101v-195.2l-107.2-40.2C1037.9-390,875.2-503,745-638.9C657-732.7,620.6-757.5,576.6-757.5c-34.5,0-74.6-17.2-103.4-47.9l-47.9-45.9v428.7V6.2l47.9-45.9c70.8-72.7,168.4-70.8,233.5,1.9c57.4,61.2,55.5,145.5-1.9,210.5c-61.3,72.7-172.3,72.7-235.4-1.9l-44-49.8v430.7v430.7l47.9-45.9c63.2-65.1,166.5-65.1,229.7,0c67,65.1,63.2,149.3-9.6,224c-49.8,47.9-68.9,55.5-120.6,45.9c-34.5-5.8-80.4-32.5-103.4-61.3l-44-47.9v178c0,470.8,212.5,777.1,618.2,886.2c53.6,13.4,183.8,26.8,287.1,26.8l187.6,1.9L1470.5,2148z M2846.7,1024.5c49.8-23,239.3-201,530.2-491.9c505.3-511,528.3-545.5,472.8-702.5l-26.8-80.4L2739.5-256c-1221.2-3.8-1125.5-17.2-1142.7,149.3c-7.7,76.6,0,109.1,40.2,176.1c67,112.9,886.2,924.5,970.4,960.9C2695.5,1068.5,2754.8,1066.6,2846.7,1024.5z M7229.9,1024.5c49.8-23,239.3-201,530.2-491.9c511.1-516.8,528.3-543.6,467-706.3l-34.4-86.1H7107.4H6020.2l-21.1,47.9c-32.5,68.9-28.7,193.3,5.7,266.1c42.1,86.1,903.4,939.8,985.7,976.2C7078.7,1068.5,7138,1066.6,7229.9,1024.5z M8598.4-604.4c243.1-45.9,453.6-202.9,555.1-409.6c30.6-65.1,61.3-139.7,68.9-168.4l11.5-53.6H5000H766.1l13.4,53.6c67,275.6,325.4,520.6,606.8,576.1C1506.8-581.4,8474-581.4,8598.4-604.4z M465.6-1126.9c-11.5-44-23-97.6-28.7-118.7c-3.8-21-7.7,34.5-9.6,124.4c-1.9,153.1,0,158.9,28.7,116.8C480.9-1038.9,482.8-1061.9,465.6-1126.9z M9572.7-1125c-1.9-88-7.7-137.8-11.5-111c-3.8,26.8-17.2,76.6-28.7,112.9c-15.3,47.9-13.4,74.6,5.7,109.1c13.4,24.9,26.8,45.9,30.6,45.9C9572.7-968.1,9572.7-1038.9,9572.7-1125z M9515.3-1616.9c57.4-57.4,61.2-120.6,55.5-668c-5.7-503.4-5.7-505.3-51.7-541.7c-44-36.4-143.6-36.4-4519.1-36.4c-4375.5,0-4475.1,0-4519.1,36.4c-45.9,36.4-45.9,38.3-51.7,541.7c-5.7,547.4-1.9,610.6,55.5,668c36.4,36.4,105.3,36.4,4515.3,36.4C9410-1580.6,9478.9-1580.6,9515.3-1616.9z M9488.5-3219c67-26.8,86.1-111,86.1-390.5c0-279.4-19.1-363.7-86.1-390.5c-42.1-15.3-8934.8-15.3-8977,0c-67,26.8-86.1,111-86.1,390.5c0,271.8,19.1,363.7,80.4,388.6C542.1-3205.6,9450.2-3205.6,9488.5-3219z M1573.8-4432.5v-76.6h-411.5H750.8v76.6v76.6h411.5h411.5V-4432.5z M9249.2-4432.5v-76.6h-411.5h-411.5v76.6v76.6h411.5h411.5V-4432.5z"/><path d="M965.2,1648.5c-82.3-88-36.4-243.1,82.3-273.7c101.4-24.9,218.2,91.9,193.3,193.3C1210.2,1688.6,1047.5,1736.5,965.2,1648.5z"/><path d="M1947.1,1644.6c-67-65.1-63.2-149.3,9.6-223.9c49.8-47.9,68.9-55.5,120.6-45.9c91.9,17.2,153.1,97.6,139.7,181.8C2195.9,1690.6,2040.9,1740.3,1947.1,1644.6z"/><path d="M2923.2,1644.6c-61.3-59.3-61.3-143.6-1.9-212.5c93.8-111,279.5-38.3,279.5,109.1C3200.8,1675.2,3020.9,1744.2,2923.2,1644.6z"/><path d="M3909,1654.2c-82.3-82.3-61.3-214.4,44-264.1c158.9-76.6,302.4,130.2,176.1,254.6C4069.8,1704,3964.5,1709.7,3909,1654.2z"/><path d="M4890.9,1650.4c-57.4-65.1-65.1-105.3-36.4-176.1c70.8-168.4,308.2-112.9,302.4,70.8C5153.1,1675.2,4977,1744.2,4890.9,1650.4z"/><path d="M5865.2,1648.5c-118.7-126.3,24.9-333.1,181.8-258.4c65.1,30.6,109.1,116.7,93.8,178C6110.2,1688.6,5947.5,1736.5,5865.2,1648.5z"/><path d="M6847.1,1644.6c-67-65.1-63.2-149.3,9.6-223.9c49.8-47.9,68.9-55.5,120.6-45.9c91.9,17.2,153.1,97.6,139.7,181.8C7095.9,1690.6,6940.9,1740.3,6847.1,1644.6z"/><path d="M7823.2,1644.6c-61.3-59.3-61.3-143.6-1.9-212.5c93.8-111,279.4-38.3,279.4,109.1C8100.8,1675.2,7920.8,1744.2,7823.2,1644.6z"/><path d="M8809,1654.2c-82.3-82.3-61.3-214.4,44-264.1c158.9-76.6,302.4,130.2,176.1,254.6C8969.8,1704,8864.5,1709.7,8809,1654.2z"/><path d="M1497.3,1189.1c-26.8-13.4-59.3-47.9-72.7-78.5c-76.6-157,130.2-298.6,254.6-174.2c80.4,78.5,59.3,201-42.1,254.6C1585.3,1219.7,1556.6,1219.7,1497.3,1189.1z"/><path d="M4406.6,1160.4c-72.7-74.7-76.6-158.9-9.6-224c93.8-95.7,248.8-45.9,269.9,88.1c13.4,84.2-47.9,164.6-139.7,181.8C4475.5,1215.9,4456.4,1208.2,4406.6,1160.4z"/><path d="M5426.8,1194.8c-67-26.8-107.2-105.3-93.8-181.8c24.9-124.4,179.9-168.4,269.9-76.6c67,65.1,63.2,149.3-7.7,222C5537.8,1215.9,5499.6,1223.5,5426.8,1194.8z"/><path d="M8359.2,1192.9c-147.4-84.2-93.8-306.3,70.8-304.3c201,1.9,222,281.4,23,315.8C8422.3,1210.1,8380.2,1204.4,8359.2,1192.9z"/><path d="M970.9,668.4c-95.7-93.8-45.9-248.8,88-269.9c84.2-13.4,164.6,47.9,181.8,139.7c9.6,51.7,1.9,70.8-45.9,120.6C1120.2,731.6,1036,735.4,970.9,668.4z"/><path d="M4892.8,672.3c-61.2-53.6-68.9-137.8-21.1-212.5c59.3-90,197.1-90,254.6,0C5233.5,622.5,5038.3,796.7,4892.8,672.3z"/><path d="M8805.2,658.9c-47.9-49.8-55.5-68.9-45.9-120.6c13.4-68.9,89.9-147.4,147.4-147.4c53.6,0,143.6,49.8,158.9,86.1c24.9,67,11.5,145.5-36.4,191.4C8964,735.4,8879.8,731.6,8805.2,658.9z"/><path d="M4452.6,218.6c-103.4-40.2-134-174.2-59.3-258.4C4502.3-168,4709.1-51.2,4667,113.4C4647.8,189.9,4529.1,249.3,4452.6,218.6z"/><path d="M5446,224.4c-24.9-3.8-61.3-30.6-82.3-57.4C5235.4,4.3,5468.9-191,5608.7-37.8C5712,78.9,5602.9,253.1,5446,224.4z"/></g></g>
</svg>