<?xml version="1.0" encoding="utf-8"?>
<!-- Svg Vector Icons : http://www.onlinewebfonts.com/icon -->
<!DOCTYPE svg PUBLIC "-//W3C//DTD SVG 1.1//EN" "http://www.w3.org/Graphics/SVG/1.1/DTD/svg11.dtd">
<svg version="1.1" xmlns="http://www.w3.org/2000/svg" xmlns:xlink="http://www.w3.org/1999/xlink" x="0px" y="0px" viewBox="0 0 1000 1000" enable-background="new 0 0 1000 1000" xml:space="preserve">
<metadata> Svg Vector Icons : http://www.onlinewebfonts.com/icon </metadata>
<g><g transform="translate(0.000000,512.000000) scale(0.100000,-0.100000)"><path d="M2693.5,5008.1c-247-76.6-442.4-306.4-473-555.4l-11.5-97.7h-93.9c-120.6,0-197.3-40.2-224.1-116.8c-13.4-38.3-21.1-235.6-21.1-524.7v-463.5l-212.6-139.8c-116.8-78.5-227.9-162.8-249-187.7c-32.5-42.1-36.4-80.4-36.4-352.4v-306.4l53.6-51.7c42.1-44.1,74.7-55.5,183.9-65.1c247.1-23,444.3-159,545.8-375.4l49.8-107.3l5.7-1528.3l5.8-1528.3l-59.4-21.1c-95.8-32.5-114.9-95.8-114.9-392.6v-264.3l-63.2-28.7c-111.1-51.7-109.2-36.4-103.4-1095.4l3.8-972.9l51.7-51.7c49.8-49.8,65.1-53.6,254.7-59.4l201.1-7.7v-191.5c0-185.8,1.9-191.5,55.5-247l55.5-55.5h394.5c386.9,0,392.6,0,446.2,46c51.7,44.1,53.6,53.6,59.4,249l7.7,203h1013.1h1013.1v-201.1c0-189.6,3.8-204.9,47.9-249c46-47.9,47.9-47.9,430.9-47.9c400.3,0,476.9,13.4,505.6,86.2c5.7,17.2,11.5,116.8,11.5,222.2v189.6h170.5c91.9,0,195.3,9.6,229.8,21.1c118.7,42.1,116.8,30.6,116.8,1097.4v965.2l-49.8,59.4c-26.8,32.5-65.1,59.4-86.2,59.4c-34.5,0-36.4,17.2-36.4,279.6c0,162.8-7.7,294.9-21.1,317.9c-26.8,49.8-130.2,91.9-227.9,91.9c-76.6,0-78.5,1.9-68.9,51.7c5.7,30.6,28.7,277.7,49.8,551.5c23,273.9,44,517.1,49.8,540.1c5.8,34.5,17.2,40.2,70.9,30.6c88.1-13.4,396.4,26.8,568.8,72.8C8061.6,97.8,8678.3,950,8624.6,1834.8c-44,699-467.3,1325.3-1114.6,1641.2c-181.9,88.1-440.5,170.4-540.1,170.4c-24.9,0-49.8,13.4-57.5,30.7c-5.7,17.2-1.9,139.8,11.5,275.8c15.3,162.8,15.3,260.5,3.8,293c-30.6,82.4-111.1,109.2-317.9,109.2H6428v91.9c0,191.5-174.3,430.9-383,528.6c-86.2,40.2-101.5,40.2-1694.9,44C3465.3,5021.5,2720.4,5015.8,2693.5,5008.1z M5966.5,4653.9c72.8-38.3,114.9-109.2,130.2-212.6l11.5-86.2H4331H2553.7l9.6,95.8c9.6,101.5,63.2,180,139.8,210.7c21.1,9.6,752.6,17.2,1624,17.2C5675.4,4680.7,5920.5,4676.8,5966.5,4653.9z M6094.8,3920.4c-13.4-103.4-47.9-162.8-120.6-210.7c-47.9-32.5-155.1-34.5-1643.2-34.5c-1484.2,0-1593.4,1.9-1650.8,34.5c-76.6,42.1-120.6,122.6-120.6,224.1v76.6h1773.4h1775.3L6094.8,3920.4z M6581.2,3958.7c0-30.6-9.6-149.4-21.1-268.1c-26.8-304.5-5.8-339,231.7-360c450.1-40.2,789-199.2,1076.3-505.6c160.9-170.5,294.9-407.9,360-633.9c53.6-185.8,70.8-538.1,38.3-741.2c-63.2-396.4-275.8-758.4-582.2-990.1C7353,208.9,7000.6,105.5,6558.2,130.4c-220.2,13.4-226,13.4-270-30.6c-53.6-53.6-47.9-17.2-120.7-873.3l-53.6-616.7h-427.1h-427.1v172.4c0,147.5,5.8,174.3,34.5,183.9c195.4,63.2,409.8,231.7,515.2,402.2c57.5,97.7,120.6,298.8,120.6,390.7c0,160.9-162.8,247.1-277.7,147.5c-40.2-34.5-53.6-67-67-166.6c-7.7-68.9-24.9-147.5-34.5-174.3c-30.7-76.6-134.1-187.7-216.4-227.9l-72.8-38.3l-5.7,279.6c-5.7,279.6-5.7,279.6-59.4,325.6l-53.6,46h-737.3h-737.3l-46-47.9c-46-44.1-47.9-55.5-47.9-312.2c0-145.5-5.7-270-11.5-277.7c-19.2-17.2-124.5,40.2-195.3,107.2c-70.9,69-137.9,231.7-137.9,339c0,157-157,245.1-273.9,153.2c-63.2-49.8-76.6-113-49.8-254.7c53.6-294.9,281.5-566.9,559.2-664.5l99.6-34.5l1.9-174.3l1.9-174.3h-503.7h-505.6V51.8c0,871.4-7.7,1490-19.2,1564.6c-57.5,367.7-375.4,727.7-735.4,833.1l-78.5,23l-5.7,134.1l-5.8,134.1l212.6,139.8c116.8,78.5,229.8,162.8,250.9,187.7c32.6,42.1,36.4,82.4,38.3,423.3c0,249,7.7,356.2,19.2,317.9c30.6-109.2,141.7-266.2,237.5-339c181.9-137.9,88.1-132.1,1888.3-126.4l1616.4,5.7l82.3,44c208.8,111.1,367.7,339,367.7,526.7v90h76.6C6575.5,4010.4,6581.2,4006.5,6581.2,3958.7z M4915.1-488.2v-111.1l-492.2-185.8c-271.9-101.5-499.8-183.9-507.5-183.9c-19.2,0-21.1,563-1.9,580.3c5.7,7.7,235.6,13.4,507.5,13.4h494.1V-488.2z M4915.1-1179.6v-210.7h-509.4c-363.9,0-507.5,5.7-501.8,21.1c5.7,15.3,886.7,363.9,1007.3,398.3C4913.2-968.9,4915.1-1062.8,4915.1-1179.6z M6428-1907.3v-172.4H4407.6H2387.1v172.4v172.4h2020.4H6428V-1907.3z M3091.9-2451.2c-195.3-70.9-383-241.3-471.1-429c-44.1-93.8-51.7-134.1-51.7-291.1s7.7-197.2,51.7-291.1c51.7-111.1,187.7-272,291.1-346.6c30.6-21.1,109.2-59.4,172.4-82.3l116.8-44.1h-492.2l-494.1-1.9v756.5v756.5h474.9C3101.5-2426.3,3153.2-2430.2,3091.9-2451.2z M6600.4-3180.9v-756.5l-1593.4,1.9c-1317.6,0-1581.9,5.8-1518.7,24.9c273.9,86.2,480.7,293,555.4,555.4c101.5,350.4-116.8,750.7-486.4,894.4c-86.2,34.5-49.8,34.5,1478.5,36.4h1564.7V-3180.9z M3532.4-2805.5c120.7-61.3,183.9-168.5,191.5-327.5c3.8-72.8-1.9-160.9-15.3-199.2c-53.6-164.7-199.2-260.4-392.6-260.4c-216.4,0-371.5,118.8-411.7,314.1c-47.9,229.8,55.5,430.9,258.5,507.5C3248.9-2740.4,3438.5-2757.6,3532.4-2805.5z M3057.4-4358.7v-76.6h-162.8h-162.8v76.6v76.6h162.8h162.8V-4358.7z M6102.4-4358.7v-76.6h-172.4h-172.4v76.6v76.6h172.4h172.4V-4358.7z"/><path d="M6565.9,2964.7c-23-15.3-49.8-44-59.4-61.3c-9.6-19.2-63.2-540.1-116.8-1160.6c-99.6-1124.2-99.6-1126.1-63.2-1177.8c53.6-70.9,141.7-95.8,350.5-95.8c496-3.8,923.1,270,1151,737.3c168.5,344.7,168.5,693.3-1.9,1051.4c-124.5,260.5-335.1,473-601.3,607.1C6998.7,2980,6659.7,3031.7,6565.9,2964.7z M6985.3,2612.3c360-111.1,595.6-415.6,624.3-808.2c38.3-513.3-283.4-919.3-785.2-993.9c-86.2-13.4-157-15.3-164.7-5.7c-7.6,9.6,21.1,423.2,67,917.3c44.1,496,82.4,905.8,82.4,915.4C6811,2658.3,6855.1,2652.6,6985.3,2612.3z"/><path d="M4503.3-2773c-80.4-44.1-86.2-67-86.2-402.2c0-317.9,0-323.6,47.9-369.6c46-47.9,51.7-47.9,362-47.9c306.4,0,317.9,1.9,369.6,46l53.6,46v329.4v329.4l-53.6,46c-51.7,44.1-63.2,46-354.3,46C4662.3-2750,4526.3-2759.6,4503.3-2773z M4915.1-3182.8v-86.2l-80.4,5.7c-82.3,5.8-82.3,5.8-88.1,88.1l-5.8,80.4h86.2h88.1V-3182.8z"/><path d="M5518.3-2773c-80.4-44.1-86.2-67-86.2-402.2c0-317.9,0-323.6,47.9-369.6c46-47.9,51.7-47.9,362-47.9c306.4,0,317.9,1.9,369.6,46c53.6,46,53.6,47.9,59.4,310.2c7.7,310.3-1.9,379.2-63.2,440.5c-44,44.1-55.5,46-348.6,46C5677.3-2750,5541.3-2759.6,5518.3-2773z M5930.1-3182.8v-86.2l-80.4,5.7c-82.4,5.8-82.4,5.8-88.1,88.1l-5.7,80.4h86.2h88.1V-3182.8z"/></g></g>
</svg>