<?xml version="1.0" encoding="utf-8"?>
<!-- Svg Vector Icons : http://www.onlinewebfonts.com/icon -->
<!DOCTYPE svg PUBLIC "-//W3C//DTD SVG 1.1//EN" "http://www.w3.org/Graphics/SVG/1.1/DTD/svg11.dtd">
<svg version="1.1" xmlns="http://www.w3.org/2000/svg" xmlns:xlink="http://www.w3.org/1999/xlink" x="0px" y="0px" viewBox="0 0 1000 1000" enable-background="new 0 0 1000 1000" xml:space="preserve">
<metadata> Svg Vector Icons : http://www.onlinewebfonts.com/icon </metadata>
<g><g transform="translate(0.000000,512.000000) scale(0.100000,-0.100000)"><path d="M5018.1,5085.2c-500.9-116.9-970.5-442.4-1395.4-970.5c-350.8-436.6-598.3-859.4-894.5-1526l-130.6-292.3l-235.8-13.6c-485.3-27.3-826.3-138.4-1214.1-395.6c-461.9-307.9-834.1-824.4-972.5-1346.7C60.2,100,77.7-346.3,223.9-784.8C409-1338.3,859.2-1854.7,1379.5-2115.9l124.7-62.4l-11.7-72.1c-27.3-165.7-89.7-762-118.9-1134.2c-17.5-220.2-37-419-40.9-442.4c-7.8-42.9-15.6-44.8-230-44.8c-122.8,0-237.8-5.8-255.3-11.7c-74.1-29.2-87.7-107.2-87.7-495v-374.2l56.5-56.5l56.5-56.5h4457.1H9787l56.5,56.5l56.5,56.5v389.8c0,383.9,0,387.8-48.7,440.5c-44.8,48.7-52.6,50.7-280.6,50.7c-276.7,0-241.7-50.7-274.8,399.5c-93.5,1296-376.1,2989.6-691.8,4137.4c-48.7,175.4-87.7,333.2-87.7,348.9c0,124.7,539.8,682.1,974.4,1007.6c101.3,76,194.9,152,208.5,167.6c40.9,50.7,31.2,163.7-19.5,210.5c-44.8,42.9-50.7,42.9-855.6,42.9c-625.6,0-814.6,5.8-828.3,25.3c-9.7,11.7-64.3,128.6-122.8,257.3c-403.4,892.6-953,1641-1487,2021c-165.7,116.9-481.4,272.8-647,317.7C5577.4,5108.6,5170.1,5120.3,5018.1,5085.2z M5661.2,4732.5c161.7-40.9,442.4-181.2,600.2-302.1c268.9-204.6,547.6-520.4,797.1-906.2c109.1-169.6,327.4-547.6,327.4-567.1c0-3.9-925.7-7.8-2056.1-7.8c-1130.3,0-2056.1,3.9-2056.1,7.8c0,5.9,56.5,111.1,126.7,235.8c596.4,1066,1292.1,1617.6,1987.9,1578.6C5474.1,4765.6,5596.9,4748.1,5661.2,4732.5z M7653,2403.6c48.7-113,105.2-222.2,124.7-243.6c37-37,68.2-39,660.7-44.8l621.7-5.9l-169.6-152c-372.2-337.1-726.9-771.7-728.9-894.5c0-29.2,31.2-161.8,68.2-296.2C8491-147.5,8719-1311,8855.4-2429.6c56.5-458,128.6-1210.2,128.6-1348.6v-93.5H5329.9H1675.8v93.5c0,134.5,70.2,861.4,128.6,1335c44.8,362.5,46.8,411.2,21.4,450.2c-17.5,23.4-138.4,97.4-270.9,161.8c-413.1,206.6-707.4,487.2-900.4,863.3C494.8-654.2,440.2-418.4,440.2-42.3c0,368.3,52.6,604.2,204.6,914c247.5,500.9,709.4,869.2,1274.6,1017.3c171.5,46.8,233.9,52.6,530.1,54.6c270.9,2,341.1,7.8,364.4,31.2c15.6,15.6,66.3,126.7,115,243.6c48.7,118.9,107.2,255.3,130.6,307.9l40.9,91.6l2231.5-3.9l2233.4-5.8L7653,2403.6z M9568.7-4368.8v-165.7H5329.9H1091.1v165.7v165.7h4238.8h4238.8V-4368.8z"/><path d="M4332.1,2074.2c-206.6-76-405.4-257.3-504.7-459.9l-56.5-116.9V-704.9v-2202.2l66.3-134.5c161.8-331.3,534-539.8,857.5-483.3c329.4,58.5,611.9,319.6,693.8,639.2c27.3,105.2,29.2,368.3,25.3,2231.5l-5.8,2112.6l-72.1,152c-89.6,189-233.9,335.2-417,424.8c-113,56.5-154,66.3-307.9,70.2C4472.4,2111.2,4412,2103.4,4332.1,2074.2z M4762.8,1758.5c101.3-27.3,235.8-155.9,276.7-265c21.4-52.6,35.1-146.2,35.1-228l1.9-138.4l-210.5-9.7c-192.9-9.7-216.3-13.6-249.5-56.5c-54.6-68.2-46.8-150.1,19.5-218.3c56.5-54.6,62.4-56.5,253.4-56.5h196.8V620.3V454.7h-204.6c-192.9,0-208.5-3.9-253.4-48.7c-66.3-64.3-66.3-163.7,2-231.9c48.7-48.7,62.3-50.7,253.4-50.7h202.7V-42.3v-165.7h-202.7c-191,0-204.6-2-253.4-50.7c-68.2-68.2-68.2-167.6-2-231.9c44.8-44.8,60.4-48.7,253.4-48.7h204.6v-165.7v-165.7h-196.8c-191,0-196.8-2-253.4-56.5c-93.5-93.5-70.2-216.3,50.7-267c40.9-15.6,134.5-27.3,233.9-27.3h165.7v-155.9v-155.9h-196.8c-191,0-196.8-2-253.4-56.5c-70.2-72.1-74.1-153.9-9.7-230c44.8-52.6,54.6-54.6,253.3-60.4l206.6-7.8v-154v-153.9h-196.8c-191,0-196.8-2-253.4-56.5c-70.2-72.1-74.1-153.9-9.7-230c44.8-52.6,54.6-54.6,255.3-60.4l210.5-7.8l-11.7-152c-17.5-274.8-150.1-436.6-397.6-487.2c-113-23.4-251.4-5.8-354.7,46.8c-81.9,42.9-191,175.4-214.4,259.2c-13.6,50.7-21.5,756.2-21.5,2188.6c0,2087.2,2,2116.5,40.9,2202.2c52.6,116.9,105.2,171.5,222.2,226.1C4462.7,1783.8,4632.2,1795.5,4762.8,1758.5z"/><path d="M2151.3,1596.7c-183.2-35.1-261.2-60.4-426.8-144.2C1058,1121.2,668.2,406,781.2-283.9c79.9-498.9,417-984.2,836.1-1208.3c214.4-115,306-70.1,348.9,173.5c159.8,917.9,362.5,1783.2,586.6,2492.6c42.9,138.4,78,269,78,290.4c0,23.4-21.4,64.3-46.8,93.5c-39,46.8-62.4,54.6-169.6,60.4C2346.2,1620.1,2227.3,1610.4,2151.3,1596.7z M2159.1,1025.7C2011,534.6,1675.8-911.5,1675.8-1065.4c0-74.1-40.9-56.5-179.3,76c-165.7,155.9-268.9,319.6-341.1,537.9c-42.9,132.5-50.7,191-52.6,399.5c-2,202.7,5.8,267,44.8,389.8c113,366.4,341.1,647,645.1,795.1c152,74.1,333.3,136.4,411.2,138.4C2229.3,1273.2,2223.4,1232.3,2159.1,1025.7z"/></g></g>
</svg>