<?xml version="1.0" encoding="utf-8"?>
<!-- Svg Vector Icons : http://www.onlinewebfonts.com/icon -->
<!DOCTYPE svg PUBLIC "-//W3C//DTD SVG 1.1//EN" "http://www.w3.org/Graphics/SVG/1.1/DTD/svg11.dtd">
<svg version="1.1" xmlns="http://www.w3.org/2000/svg" xmlns:xlink="http://www.w3.org/1999/xlink" x="0px" y="0px" viewBox="0 0 1000 1000" enable-background="new 0 0 1000 1000" xml:space="preserve">
<metadata> Svg Vector Icons : http://www.onlinewebfonts.com/icon </metadata>
<g><g transform="translate(0.000000,512.000000) scale(0.100000,-0.100000)"><path d="M7711.5,4985.1c-270.1-93.9-475.1-304.6-553.6-570.8c-17.2-57.5-30.6-128.3-30.6-157.1c0-51.7-1.9-51.7-95.8,40.2c-53.6,51.7-153.2,122.6-224.1,157.1c-122.6,59.4-141.7,63.2-331.4,63.2c-185.8,0-210.7-3.8-329.5-61.3l-130.3-61.3l-57.5,84.3c-70.9,101.5-185.8,187.7-325.6,243.3c-145.6,57.5-446.3,59.4-580.4,3.8l-90-38.3l-111.1,109.2c-159,153.3-279.7,197.3-540.2,199.2c-185.8,0-210.7-3.8-329.5-61.3c-170.5-80.4-289.2-193.5-365.9-348.6c-57.5-120.7-61.3-136-61.3-346.7c0-205,3.8-227.9,55.5-335.2c32.6-63.2,101.5-159,159-214.6l101.5-99.6l-90,44.1c-203,101.5-408,107.3-632.1,17.2l-120.7-46l-57.5,40.2c-155.2,109.2-415.7,155.2-618.7,107.3l-132.2-30.6l-95.8,84.3c-189.7,172.4-486.6,264.4-724.1,224.1c-162.8-26.8-268.2-70.9-402.3-172.4c-226-168.6-342.9-390.8-358.2-682l-9.6-172.4l-76.6-47.9c-111.1-69-285.4-262.4-344.8-383.1c-147.5-296.9-143.7-578.5,9.6-869.7C342.1,1464.2,635.2,1242,886.2,1196c80.4-13.4,107.3-32.6,220.3-155.2L1236.7,901l9.6-883.1l9.6-883.1l46-86.2c72.8-137.9,132.2-205,254.8-287.3c72.8-47.9,153.2-82.4,227.9-97.7c61.3-11.5,113-24.9,113-26.8c0-3.8-30.7-69-67-145.6c-70.9-153.3-105.4-318-105.4-519.1v-130.3h-402.3c-429.1,0-511.5-13.4-553.6-91.9c-13.4-24.9-21.1-182-21.1-413.8c0-364,1.9-375.4,44.1-425.2c38.3-44.1,65.1-53.7,162.8-61.3l118.8-7.7v-195.4c0-114.9,11.5-241.4,30.6-308.4c61.3-235.6,220.3-431,446.3-542.1c128.3-63.2,160.9-70.9,319.9-76.6l176.2-7.7l7.7-201.1c5.7-193.5,7.7-203,59.4-247.1l53.6-46h544h544l53.7,46c51.7,44.1,53.6,53.6,59.4,249l7.7,203h1624.4h1624.4l7.7-203c5.7-195.4,7.7-205,59.4-249l53.6-46h544h544l53.6,46c51.7,44.1,53.6,53.6,59.4,247.1l7.7,201.1l176.2,7.7c159,5.8,191.6,13.4,319.9,76.6c226.1,111.1,385,306.5,446.4,542.1c19.2,67,30.6,193.5,30.6,308.4v195.4l118.8,7.7c97.7,7.7,124.5,17.2,162.8,61.3c42.1,49.8,44.1,61.3,44.1,413.8c0,199.2-7.7,383.1-19.2,411.8c-34.5,90-111.1,105.4-551.7,105.4h-400.4l-11.5,206.9c-7.7,113-24.9,247.1-40.2,296.9c-105.4,335.2-375.4,618.7-708.8,739.4l-136,49.8l-919.5,9.6l-919.5,9.6l-103.5,57.5c-201.1,111.1-279.7,270.1-266.3,534.5c13.4,243.3,111.1,390.8,321.8,488.5c103.4,47.9,114.9,49.8,624.5,55.6l519.1,7.7l82.4-168.6c139.8-289.3,400.4-503.8,689.6-565.1c93.9-19.2,118.8-36.4,226-153.2c88.1-93.9,159-149.4,249-193.5c116.9-57.5,143.7-63.2,310.3-63.2s193.5,5.7,306.5,61.3c155.2,74.7,310.3,228,379.3,371.6c49.8,101.5,57.5,107.3,176.2,149.4c415.7,147.5,706.9,557.4,708.8,996.1c0,92,13.4,149.4,49.8,229.9c145.6,304.6,88.1,651.3-147.5,909.9c-86.2,95.8-88.1,101.5-99.6,250.9c-13.4,193.5-70.9,356.3-174.3,507.6l-82.4,118.8l95.8,88.1c423.3,394.6,431,1007.6,15.3,1408c-185.8,180.1-411.9,281.6-628.3,281.6c-99.6,0-99.6,0-164.7,101.5C8429.8,4948.7,8042.9,5098.1,7711.5,4985.1z M4418.5,4690.1c128.3-38.3,251-147.5,306.5-270.1c69-157.1,182-189.6,300.8-84.3c92,78.5,218.4,134.1,316.1,134.1c153.3,0,314.2-97.7,388.9-237.5l44.1-84.3l-55.5-120.7c-36.4-80.4-57.5-164.7-63.2-254.8c-9.6-122.6-15.3-141.7-93.9-235.6C5112,2983.3,5340,2201.7,6023.8,1964.2c118.8-40.2,157.1-46,318-36.4c99.6,5.8,205,17.3,235.6,23c49.8,13.4,51.7,11.5,51.7-61.3c0-59.4-13.4-88.1-61.3-136c-109.2-103.4-231.8-145.6-427.2-147.5c-149.4,0-185.8,7.7-277.8,51.7c-143.7,70.9-220.3,155.2-314.2,344.8c-105.4,210.7-137.9,229.9-325.7,168.6c-74.7-24.9-176.2-44.1-224.1-44.1c-82.4,1.9-247.1,65.1-247.1,97.7c0,9.6,28.7,44.1,65.1,78.5c101.5,97.7,172.4,256.7,180.1,406.1c7.7,107.3,0,145.6-44.1,245.2c-105.4,235.6-367.8,411.9-649.4,438.7l-147.5,13.4l59.4,91.9c59.4,93.9,72.8,180.1,38.3,245.2c-11.5,19.2-70.9,61.3-134.1,93.9c-312.2,159-356.3,524.9-88.1,760.5C4159.9,4711.1,4265.3,4736,4418.5,4690.1z M8171.2,4646c126.4-65.1,218.4-183.9,247.1-321.8c24.9-113,61.3-128.3,312.2-130.3c206.9-1.9,235.6-5.8,335.2-55.6c136-67,249-193.5,304.6-337.1c57.5-153.2,46-409.9-24.9-549.8c-65.1-124.5-180-228-331.4-295c-67-30.7-130.3-72.8-141.8-93.9c-40.2-74.7-24.9-137.9,49.8-201.1c187.7-160.9,254.8-243.3,293.1-369.7c59.4-193.5,44.1-341-55.6-536.4c-53.6-107.3-214.5-245.2-325.7-283.5c-164.7-53.6-364-40.2-544,36.4c-91.9,40.2-134.1,26.8-239.4-69c-134.1-122.6-233.7-159-434.8-159c-151.3,0-183.9,5.7-277.8,55.6c-237.5,122.6-344.8,287.3-360.1,551.7c-7.7,155.2-5.7,172.4,51.7,293.1c69,151.3,70.9,170.5,21.1,252.9c-24.9,42.1-55.6,65.1-101.5,72.8c-78.6,15.3-130.3-7.7-224.1-97.7c-113-107.3-233.7-149.4-421.4-149.4c-183.9-1.9-318,46-442.5,157.1c-149.4,130.3-227.9,381.2-189.6,603.4c26.8,151.3,84.3,247.1,218.4,371.6l105.4,99.6l-1.9,178.2c-3.8,170.5,0,185.8,59.4,295c97.7,176.2,210.7,237.5,432.9,237.5c218.4,0,375.4-113,442.5-318c44.1-130.3,93.9-180.1,182-180.1c63.2,0,86.2,15.3,206.9,137.9c74.7,76.6,137.9,147.5,137.9,159c1.9,9.6,3.8,97.7,5.8,191.6c1.9,128.3,11.5,189.6,38.3,239.4c65.1,124.5,162.8,206.9,298.8,250.9C7880,4709.2,8088.8,4690.1,8171.2,4646z M1805.7,3651.8c61.3-34.5,126.4-91.9,176.2-159c126.4-170.5,159-180.1,323.7-103.4c197.3,93.9,438.7,65.1,559.4-69c44.1-47.9,128.3-95.8,168.6-95.8c15.3,0,72.8,30.7,126.4,67c124.5,86.2,254.8,114.9,388.9,88.1c159-34.5,220.3-80.5,281.6-220.3c67-147.5,126.4-180.1,252.9-136c103.4,36.4,287.3,36.4,377.4-1.9c147.5-61.3,233.7-203.1,205-337.1c-7.7-30.6-51.7-101.5-99.6-155.2c-162.8-180.1-199.2-360.1-109.2-532.5c17.2-36.4,36.4-120.7,42.1-191.6c26.8-379.3-226-616.8-534.5-503.8c-103.4,36.4-252.8,40.2-350.6,7.7c-42.1-13.4-124.5-69-185.8-126.4c-205-187.7-388.9-249-701.1-233.7c-220.3,11.5-375.4,70.9-528.7,203c-51.7,44.1-107.3,82.4-124.5,82.4c-63.2,3.8-109.2-5.8-137.9-30.7c-113-95.8-310.3-118.8-459.7-51.7c-103.4,46-155.2,97.7-208.8,216.5c-49.8,105.4-86.2,126.4-260.5,141.8c-247.1,21.1-427.2,141.8-524.9,352.5c-67,143.7-70.9,404.2-7.7,540.2c63.2,139.8,170.5,245.2,331.4,321.8c183.9,88.1,208.8,128.3,172.4,275.8c-61.3,256.7,57.5,536.4,272,647.5C1426.4,3738,1644.8,3739.9,1805.7,3651.8z M5384,1638.5c182-228,469.3-369.7,754.8-369.7c182,0,318,36.4,490.4,130.3c82.4,44.1,126.4,59.4,130.3,44.1c5.7-13.4,46-70.9,93.9-126.4l84.3-105.4l-69-80.4c-90-105.4-195.4-318-212.6-425.3l-11.5-86.2H6200c-528.7,0-641.7-15.3-829.4-103.4c-356.3-170.5-576.6-568.9-521-940.6c47.9-316.1,316.1-622.6,632.1-720.3c107.3-32.6,185.8-36.4,936.7-36.4c457.8,0,863.9-7.6,921.4-19.2c162.8-30.6,339.1-128.3,431-243.3c113-137.9,159-273.9,174.3-515.3l11.5-199.2H5004.7H2050.9v120.7c0,256.7,67,471.2,187.7,609.2c32.6,38.3,122.6,101.5,201.1,139.8c120.7,61.3,172.4,74.7,367.8,97.7c193.5,23,250.9,38.3,369.7,97.7c162.8,80.4,329.5,235.6,409.9,385c103.4,189.7,111.1,258.6,111.1,1013.3c0,770.1-5.7,743.2,126.4,687.7c109.2-46,258.6-65.1,367.8-47.9c300.8,49.8,557.4,316.1,630.2,655.1l30.6,149.4h222.2h222.2L5384,1638.5z M9531.3,1527.4c28.7-55.6,38.3-113,38.3-220.3c0-132.2-5.7-153.2-67.1-249c-63.2-101.5-65.1-109.2-67-314.2c-1.9-237.5-36.4-352.5-141.8-486.6C9188.4,125.2,8948.9,6.4,8789.9,6.4c-76.6,0-141.7-70.9-159-174.3c-38.3-231.8-197.3-362.1-438.7-362.1c-176.2,1.9-312.2,93.9-394.6,272c-47.9,101.5-88.1,122.6-262.4,136c-239.5,19.2-446.3,166.7-524.9,373.5c-32.6,90-38.3,139.8-32.6,281.6c5.7,145.6,15.3,187.7,63.2,273.9c30.6,55.6,84.3,126.4,116.8,157.1l63.2,53.6l120.7-38.3c249-78.5,545.9-36.4,789.2,109.2l114.9,69l128.3-30.6c72.8-15.3,168.6-28.7,216.5-28.7c293.1,0,628.3,176.2,796.9,419.5c36.4,51.7,76.6,93.9,86.2,90C9485.3,1606,9510.2,1569.6,9531.3,1527.4z M2223.3,431.7c9.6-279.7,13.4-308.4,63.2-408c65.1-134.1,208.8-272,354.4-339.1c99.6-46,134.1-49.8,411.9-57.5c331.4-9.6,321.8-5.7,275.9-132.2c-80.5-216.5-245.2-325.6-534.5-350.5c-214.6-17.2-314.2-44.1-459.7-116.8c-97.7-49.8-130.3-55.6-287.3-55.6c-203,0-312.2,24.9-377.4,82.4c-95.8,88.1-97.7,109.2-97.7,942.5v775.8h91.9c91.9,0,258.6,38.3,319.9,70.9c24.9,15.3,55.5,3.8,132.2-46l97.7-63.2L2223.3,431.7z M3368.8,347.4L3363-41.4h-296.9c-348.6,0-400.4,19.2-473.2,162.8c-38.3,72.8-44.1,114.9-44.1,296.9V629l264.4,1.9c233.7,1.9,277.8,5.7,396.5,51.7c74.7,26.8,139.8,49.8,149.4,49.8C3366.9,734.4,3370.7,560,3368.8,347.4z M8924-2656.2l-5.7-153.2H5000.9H1083.5l-5.7,153.2L1072-2503h3928.9h3928.9L8924-2656.2z M8598.4-3389.9c-7.7-220.3-11.5-243.3-65.1-339.1c-42.1-72.8-88.1-122.6-151.3-162.8l-91.9-57.5l-3268-5.7l-3266.1-3.8l-103.4,49.8c-189.7,92-252.9,237.5-252.9,572.8v182h3603.2H8606L8598.4-3389.9z M3047-4380.3v-76.6l-329.5,3.8l-331.4,5.7l-5.7,72.8l-5.8,70.9h335.2H3047V-4380.3z M7621.4-4374.5l-5.7-72.8l-329.5-5.7l-331.4-3.8v76.6v76.6h337.1h335.2L7621.4-4374.5z"/></g></g>
</svg>