<?xml version="1.0" encoding="utf-8"?>
<!-- Svg Vector Icons : http://www.onlinewebfonts.com/icon -->
<!DOCTYPE svg PUBLIC "-//W3C//DTD SVG 1.1//EN" "http://www.w3.org/Graphics/SVG/1.1/DTD/svg11.dtd">
<svg version="1.1" xmlns="http://www.w3.org/2000/svg" xmlns:xlink="http://www.w3.org/1999/xlink" x="0px" y="0px" viewBox="0 0 1000 1000" enable-background="new 0 0 1000 1000" xml:space="preserve">
<metadata> Svg Vector Icons : http://www.onlinewebfonts.com/icon </metadata>
<g><g transform="translate(0.000000,510.000000) scale(0.100000,-0.100000)"><path d="M1502.7,349.8v-4650.2h163.3h163.3v-249.8V-4800h749.4h749.4v249.8v249.8H5000h1671.8v-249.8V-4800h749.4h749.4v249.8v249.8h163.3h163.3V349.8V5000H5000H1502.7V349.8z M8166.7,3872l3.8-832h-86.5h-86.5v749.4v749.4H6837H5674.5l-5.8-80.7l-5.8-82.6l-392-9.6l-392-9.6l-246-653.3l-244-653.3l-1279.8-5.8l-1279.8-3.8v822.4c0,453.5,5.8,830.1,13.5,835.9c5.8,7.7,1431.6,11.5,3164.8,9.6l3153.3-5.8L8166.7,3872z M6152.9,3626.1V3040h-76.9h-76.9v586.1v586.1h76.9h76.9V3626.1z M6652.6,3626.1V3040h-76.9h-76.9v586.1v586.1h76.9h76.9V3626.1z M7152.2,3626.1V3040h-76.9h-76.9v586.1v586.1h76.9h76.9V3626.1z M7667.1,3622.2l3.8-582.2h-86.5H7498v588v586.1l82.6-5.8l80.7-5.8L7667.1,3622.2z M5672.5,3597.3V3040h-211.4c-115.3,0-211.4,5.8-211.4,13.5c0,21.1,407.4,1101.1,415,1101.1C5668.7,4154.5,5672.5,3904.7,5672.5,3597.3z M5249.8,4025.8c0-9.6-80.7-230.6-180.6-495.8l-180.6-480.4l-69.2-5.8c-38.4-3.8-69.2,0-69.2,7.7s74.9,215.2,165.3,457.3c92.2,244,174.9,463.1,182.5,488.1c13.5,32.7,30.8,42.3,84.6,42.3C5219.1,4039.2,5249.8,4033.5,5249.8,4025.8z M8151.4,1873.6v-832h-76.9h-76.9V1791v749.4H6335.5H4673.3V1791v-749.4h-336.3h-336.3V1618v576.5l-157.6,1.9c-553.4,3.8-1654.5-1.9-1662.2-9.6c-5.8-3.8-9.6-265.2-11.5-576.5l-1.9-568.8h-159.5h-159.5v824.3c0,641.8,5.8,826.3,25,834c11.5,5.8,1429.7,7.7,3149.5,5.8l3128.3-1.9V1873.6z M5153.7,1618v-576.5h-76.9H5000V1618v576.5h76.9h76.9V1618z M5653.3,1618v-576.5h-76.9h-76.9V1618v576.5h76.9h76.9V1618z M6152.9,1618v-576.5h-76.9h-76.9V1618v576.5h76.9h76.9V1618z M6652.6,1618v-576.5h-76.9h-76.9V1618v576.5h76.9h76.9V1618z M7152.2,1618v-576.5h-76.9h-76.9V1618v576.5h76.9h76.9V1618z M7671,1618v-576.5h-86.5H7498V1618v576.5h86.5h86.5V1618z M3674.1,1791v-76.9H3088H2502v76.9v76.9H3088h586.1V1791z M3670.3,1287.5l-5.8-82.6l-580.3-5.8l-582.2-3.8v86.5v86.5h588H3676L3670.3,1287.5z M8166.7-48l-5.8-745.6l-80.7-5.8l-82.6-5.8v672.5V542h-912.7h-912.7l-3.8-263.3c-3.8-146-1.9-449.6,1.9-672.5l7.7-409.3l-2169.5,5.8L1839-793.5L1833.3-48l-3.8,743.7H5000h3170.6L8166.7-48z M7671,119.2V42.4h-586.1h-586.1v76.9v76.9h586.1H7671V119.2z M7671-380.4v-76.9h-586.1h-586.1v76.9v76.9h586.1H7671V-380.4z M4827.1-2542.2v-1412.4H3337.8H1848.6v1412.4v1412.4h1489.2h1489.2V-2542.2z M8151.4-2542.2v-1412.4H6662.2H5172.9v1412.4v1412.4h1489.2h1489.2V-2542.2z M3001.6-4386.9v-86.5h-413.1h-413.1v86.5v86.5h413.1h413.1V-4386.9z M7824.7-4386.9v-86.5h-413.1h-413.1v86.5v86.5h413.1h413.1V-4386.9z"/><path d="M4056.5-1685.1l-55.7-55.7v-311.3c0-303.6,1.9-309.4,48-355.5c63.4-65.3,178.7-65.3,236.3-3.8c40.4,42.3,42.3,63.4,42.3,353.6c0,171-5.8,324.7-11.5,342c-15.4,36.5-105.7,86.5-161.4,86.5C4131.4-1629.4,4087.3-1654.4,4056.5-1685.1z"/><path d="M5759-1652.5c-80.7-44.2-86.5-67.2-86.5-399.7c0-309.4,1.9-320.9,44.2-361.3c63.4-59.6,172.9-57.6,234.4,5.8c46.1,46.1,48,51.9,48,355.5v311.3l-55.7,55.7C5883.9-1627.5,5824.4-1616,5759-1652.5z"/></g></g>
</svg>