<?xml version="1.0" encoding="utf-8"?>
<!-- Svg Vector Icons : http://www.onlinewebfonts.com/icon -->
<!DOCTYPE svg PUBLIC "-//W3C//DTD SVG 1.1//EN" "http://www.w3.org/Graphics/SVG/1.1/DTD/svg11.dtd">
<svg version="1.1" xmlns="http://www.w3.org/2000/svg" xmlns:xlink="http://www.w3.org/1999/xlink" x="0px" y="0px" viewBox="0 0 1000 1000" enable-background="new 0 0 1000 1000" xml:space="preserve">
<metadata> Svg Vector Icons : http://www.onlinewebfonts.com/icon </metadata>
<g><g transform="translate(0.000000,435.000000) scale(0.100000,-0.100000)"><path d="M3248,3466.7c-46-44-47.9-53.6-47.9-335.1v-289.2l-122.6,95.8c-153.2,116.8-302.6,187.7-467.3,224.1c-157,32.6-241.3,34.5-296.8,3.8c-151.3-80.4-99.6-302.6,68.9-302.6c107.2,0,262.4-36.4,371.5-86.2c191.5-88.1,383-316,419.4-507.5l13.4-57.5H3022c-250.9,0-271.9-17.2-356.2-293c-80.4-264.3-105.3-463.5-105.3-856.1c0-314.1,7.7-404.1,42.1-570.7c55.5-256.6,109.2-415.6,197.3-589.9l70.9-141.7h-618.6c-815.8,0-978.6-28.7-1340.6-235.6C725.8-579.9,421.3-890.1,314-1081.7c-181.9-325.6-250.9-689.4-195.3-1034.2C203-2642.5,563-3115.5,1060.9-3353c227.9-107.2,386.9-141.7,718.2-155.1c159-5.7,291.1-15.3,291.1-19.2c0-3.8-141.7-231.7-314.1-509.4c-172.4-275.8-325.6-524.7-337.1-553.5c-70.9-155.1,128.3-298.8,254.7-183.8c26.8,24.9,216.4,317.9,425.2,653l377.3,607.1h2686.9H7850l377.3-607.1c208.8-335.1,398.3-628.2,425.2-651.1c103.4-97.7,273.9-19.2,273.9,126.4c0,23-151.3,281.5-335.1,576.4c-183.8,294.9-335.1,540.1-335.1,543.9c0,3.9,63.2,13.4,139.8,21.1c492.2,49.8,948,325.6,1237.2,752.6c413.7,612.8,340.9,1426.8-178.1,1972.6c-233.6,245.1-488.4,402.2-790.9,486.4c-139.8,38.3-199.2,42.1-930.7,49.8l-783.3,5.7l3.8,243.2c5.7,319.8,7.7,304.5-47.9,358.1l-46,47.9H5833.4c-745,0-1038-5.7-1068.6-23c-82.4-42.1-88.1-70.9-90-354.3V-239h-409.8h-409.8l67,124.5c82.3,157,151.3,352.4,199.2,572.6c55.5,249,70.9,792.9,28.7,1064.8c-40.2,264.3-124.5,561.1-176.2,628.2c-40.2,49.8-51.7,51.7-235.6,57.5l-193.4,7.7l11.5,49.8c78.5,339,417.5,597.5,787.1,597.5c145.5,0,214.5,176.2,109.2,281.5c-47.9,46-57.5,47.9-189.6,38.3c-226-19.2-480.7-128.3-641.6-273.9c-40.2-36.4-76.6-65.1-84.3-65.1c-5.8,0-11.5,130.2-11.5,287.3c0,281.5-1.9,291.1-47.9,335.1C3414.6,3531.8,3311.2,3531.8,3248,3466.7z M3765.1,1785.3c53.6-174.3,86.2-455.8,86.2-729.7c0-1179.7-540.1-1737-846.5-871.4c-90,256.6-118.7,465.4-118.7,869.5c0,358.1,13.4,490.3,78.5,722l28.7,109.2h371.5h371.5L3765.1,1785.3z M6628.2-76.2V-239h-813.9h-813.9v162.8V86.6h813.9h813.9V-76.2z M8610.3-608.6c231.7-67,429-180,584.1-337c256.6-258.5,369.6-538.2,371.5-921.2c1.9-264.3-23-373.4-136-610.9c-116.8-245.1-306.4-438.6-542-553.5c-281.5-137.9-333.2-145.5-1005.4-147.5h-593.7l-3.8,325.6c-1.9,180-3.8,340.9-3.8,360c-1.9,19.2-23,55.5-49.8,80.4c-38.3,40.2-65.1,47.9-162.8,47.9h-118.7l3.8,245.1c5.7,319.8,7.7,304.5-47.9,358.1c-38.3,40.2-65.1,47.9-162.8,47.9h-116.8l1.9,245.1c3.8,323.7,5.7,306.4-47.9,358.1l-46,47.9h-762.2h-762.2l-28.7,63.2c-46,99.6-86.2,109.2-482.6,109.2c-356.2,0-358.1,0-415.6-49.8c-59.4-49.8-59.4-49.8-59.4-249v-199.2h-162.8h-162.8v103.4c0,84.3-9.6,114.9-49.8,162.8l-49.8,59.4h-388.8c-362,0-390.7-1.9-438.6-40.2l-49.8-38.3l-3.8-1018.8l-5.7-1018.8h-593.7c-672.2,0-722,7.6-1005.4,147.5c-124.5,61.3-195.3,113-306.4,224.1C135.9-2135,386.8-970.6,1269.7-648.9c224.1,82.3,181.9,80.4,3788.1,78.5C8271.3-574.2,8503.1-576.1,8610.3-608.6z M4674.8-2192.4v-976.7H4512h-162.8v976.7v976.7H4512h162.8V-2192.4z M3364.8-1487.7c-5.7-55.5-11.5-457.7-11.5-890.5v-790.9h-153.2h-153.2v890.5v890.5h164.7h166.6L3364.8-1487.7z M6302.6-1550.9v-162.8h-651.1h-651.1v162.8v162.8h651.1h651.1V-1550.9z M4023.6-2441.4v-727.7h-162.8h-162.8v727.7v727.7h162.8h162.8V-2441.4z M6628.2-2202v-162.8h-813.9h-813.9v162.8v162.8h813.9h813.9V-2202z M6953.7-2853.1v-162.8H5977h-976.7v162.8v162.8H5977h976.7V-2853.1z"/></g></g>
</svg>