<?xml version="1.0" encoding="utf-8"?>
<!-- Svg Vector Icons : http://www.onlinewebfonts.com/icon -->
<!DOCTYPE svg PUBLIC "-//W3C//DTD SVG 1.1//EN" "http://www.w3.org/Graphics/SVG/1.1/DTD/svg11.dtd">
<svg version="1.1" xmlns="http://www.w3.org/2000/svg" xmlns:xlink="http://www.w3.org/1999/xlink" x="0px" y="0px" viewBox="0 0 1000 1000" enable-background="new 0 0 1000 1000" xml:space="preserve">
<metadata> Svg Vector Icons : http://www.onlinewebfonts.com/icon </metadata>
<g><g transform="translate(0.000000,494.000000) scale(0.100000,-0.100000)"><path d="M1621.7,4619.8c-45.9-44-47.9-53.6-47.9-335c0-157-5.7-287.1-11.5-287.1c-7.7,0-44,28.7-84.2,65.1c-160.8,145.5-415.4,254.6-641.2,273.7c-132.1,9.6-141.6,7.7-189.5-38.3c-111-112.9-34.5-281.4,126.3-281.4c354.1,0,692.9-262.2,769.4-597.2l11.5-53.6h-208.6h-210.5l-40.2-109.1c-130.2-342.6-181.8-704.4-166.5-1150.3c15.3-440.2,91.9-771.4,248.8-1066.1l67-124.4H672.3H100v-2450v-2450h162.7h162.7v-346.4v-346.5l55.5-55.5l55.5-55.5H835c281.4,0,298.6,1.9,344.5,44c30.6,26.8,97.6,166.5,189.5,396.2l139.7,354.1H5000h3491.3l139.7-354.1c91.9-229.7,158.9-369.4,189.5-398.1c45.9-40.2,63.2-42.1,344.5-42.1h298.6l55.5,55.5l55.5,55.5v346.5v346.4h162.7H9900v2450v2450h-576.1h-574.2l5.7,90c5.7,84.2,11.5,93.8,82.3,134c105.3,59.3,304.3,101.4,478.5,101.4c135.9,0,151.2,3.8,202.9,55.5c59.3,59.3,68.9,112.9,32.5,179.9c-47.9,91.9-3.8,88.1-1452.8,90H6728.4l-44-47.9c-65.1-70.8-63.2-172.3,7.7-231.6c44-40.2,72.7-45.9,199.1-45.9c166.5,0,356-40.2,478.5-97.6c78.5-38.3,80.4-42.1,80.4-134v-93.8H6387.7H5325.4v162.7v162.7h162.7h162.7v488.1v488.1h-162.7h-162.7v325.4v325.4H4186.5H3047.7v-488.1v-488.1h162.7H3373v-162.7v-162.7h-162.7h-162.7l-3.8-319.7l-5.7-321.6l-405.8-5.7l-405.8-3.8l84.2,176.1C2483,1454,2561.5,1877,2542.3,2342.1c-13.4,329.2-49.8,549.3-139.7,819.2l-67,204.8H2127c-237.3,0-231.6-5.7-168.4,162.7c51.7,139.7,218.2,319.6,359.8,390.5c116.8,59.3,268,97.6,382.8,97.6c132.1,0,206.7,116.8,153.1,235.4c-42.1,91.9-162.7,111-373.2,61.3c-170.4-40.2-304.3-105.3-451.7-216.3l-130.2-97.6v277.5v279.4l-55.5,55.5C1771,4683,1686.8,4686.8,1621.7,4619.8z M2134.6,2929.7c172.3-631.6,72.7-1579.1-199.1-1889.2c-212.5-241.2-447.9-90-589.5,382.8c-132.1,440.2-128.2,1190.5,7.7,1592.5c5.7,17.2,103.4,24.9,379,24.9H2104L2134.6,2929.7z M5000,2380.4v-162.7h-813.5H3373v162.7v162.7h813.5H5000V2380.4z M5325.4,1729.6v-162.7h-813.5h-813.5v162.7v162.7h813.5h813.5V1729.6z M5000,1078.8V916.1h-813.5H3373v162.7v162.7h813.5H5000V1078.8z M8453,1174.5c-13.4-36.4-26.8-109.1-26.8-162.7v-95.7h-325.4h-325.4v111c0,59.3-13.4,132.1-26.8,162.7l-28.7,51.7h380.9h380.9L8453,1174.5z M1727-1524.3v-2115h-650.8H425.4v2115v2115h650.8H1727V-1524.3z M3353.9-1524.3v-2115h-641.2h-641.2v2115v2115h641.2h641.2V-1524.3z M5000-1524.3v-2115h-650.8h-650.8v2115v2115h650.8H5000V-1524.3z M9574.6-385.4v-976.2H7450H5325.4v976.2v976.2H7450h2124.6V-385.4z M9574.6-2663.2v-976.2H7450H5325.4v976.2v976.2H7450h2124.6V-2663.2z M1145.1-4016.4c-7.7-19.1-49.8-126.3-93.8-239.3l-80.4-206.7H861.8h-111v239.3v239.3h202.9C1139.3-3983.9,1156.6-3987.7,1145.1-4016.4z M9249.2-4223.1v-239.3h-109.1h-111l-80.4,206.7c-44,112.9-86.1,220.1-93.8,239.3c-11.5,28.7,5.7,32.5,191.4,32.5h202.9V-4223.1z"/><path d="M1131.7,209.8l-55.5-55.5v-377.1v-377.1l55.5-55.5c72.7-70.8,157-74.6,222-7.7c47.9,45.9,47.9,47.9,47.9,440.2c0,392.4,0,394.3-47.9,440.2C1288.6,284.5,1204.4,280.6,1131.7,209.8z"/><path d="M2770.1,217.5c-47.9-45.9-47.9-47.9-47.9-440.2c0-392.4,0-394.3,47.9-440.2c59.3-61.3,143.6-61.3,214.4-1.9l53.6,45.9v396.2v396.2l-53.6,45.9C2913.7,278.7,2829.5,278.7,2770.1,217.5z"/><path d="M4397.1,217.5c-47.9-45.9-47.9-47.9-47.9-440.2c0-392.4,0-394.3,47.9-440.2c65.1-67,149.3-63.2,222,7.7l55.5,55.5v377.1v377.1l-55.5,55.5C4546.4,280.6,4462.1,284.5,4397.1,217.5z"/><path d="M7268.2-226.6c-233.5-7.6-256.5-15.3-289-91.9c-23-57.4-23-76.6,0-132.1c38.3-93.8,101.4-107.2,470.8-107.2c369.4,0,432.6,13.4,470.8,107.2c23,55.5,23,74.6,0,132.1c-17.2,40.2-44,68.9-72.7,74.6C7786.9-230.4,7474.9-222.7,7268.2-226.6z"/><path d="M7015.5-2552.2c-21.1-24.9-45.9-63.2-51.7-86.1c-17.2-57.4,36.4-155,95.7-178c63.2-24.9,717.8-24.9,782.9,0c55.5,21.1,111,132.1,91.9,185.7c-5.7,19.1-28.7,53.6-49.8,78.5c-38.3,40.2-49.8,42.1-434.5,42.1C7065.3-2510,7053.8-2512,7015.5-2552.2z"/></g></g>
</svg>