<?xml version="1.0" encoding="utf-8"?>
<!-- Svg Vector Icons : http://www.onlinewebfonts.com/icon -->
<!DOCTYPE svg PUBLIC "-//W3C//DTD SVG 1.1//EN" "http://www.w3.org/Graphics/SVG/1.1/DTD/svg11.dtd">
<svg version="1.1" xmlns="http://www.w3.org/2000/svg" xmlns:xlink="http://www.w3.org/1999/xlink" x="0px" y="0px" viewBox="0 0 1000 1000" enable-background="new 0 0 1000 1000" xml:space="preserve">
<metadata> Svg Vector Icons : http://www.onlinewebfonts.com/icon </metadata>
<g><g transform="translate(0.000000,512.000000) scale(0.100000,-0.100000)"><path d="M4419.6,5003c-574.4-40.2-1390.1-170.4-1857.3-298.7C1434.4,4398,861.9,3894.4,971.1,3308.5c49.8-273.8,168.5-453.8,587.8-888.4C2834.1,1091.2,3418.1,51.4,3500.5-1040c9.6-132.1,17.2-857.8,17.2-1612.2v-1371l49.8-42.1c42.1-38.3,72.8-44,201-44h153.2l233.6-314c130.2-172.3,254.7-323.6,279.5-335.1c59.4-28.7,1078-28.7,1137.4,0c24.9,11.5,149.3,162.7,279.6,335.1l233.6,314h153.2c130.2,0,158.9,5.8,199.1,44l49.8,42.1l7.6,1436.1c5.8,1198.6,11.5,1468.6,38.3,1633.3C6709.6,183.6,7293.6,1208,8457.8,2427.7c469.1,490.2,582.1,687.4,584,1016.7c1.9,158.9-3.8,183.8-67,315.9c-168.5,356.1-584,641.4-1231.2,854C6813,4918.8,5474.6,5073.9,4419.6,5003z M5798.2,4648.8c1491.6-134,2673-541.9,2883.6-993.8c70.8-151.3,63.2-277.6-30.6-465.3c-63.2-124.5-124.5-203-312.1-400.2c-834.9-877-1277.2-1468.6-1646.7-2207.7C6508.6,216.1,6380.3-119,6297.9-454.1c-105.3-428.9-120.6-582.1-130.2-1315.4l-9.6-674h-335.1H5488l9.6,1662c5.7,997.6,19.2,1717.6,30.6,1803.7c51.7,369.5,151.3,624.2,300.6,775.5c145.5,145.5,306.4,208.7,591.7,231.7c122.5,11.5,160.8,23,195.3,57.4c61.3,61.3,59.4,158.9-5.8,227.9c-47.9,53.6-49.8,53.6-233.6,42.1c-601.3-34.5-970.8-375.3-1122.1-1037.8c-28.7-118.7-59.3-365.7-80.4-626.1l-11.5-149.4h-158.9h-158.9l-11.5,149.4c-5.8,80.4-24.9,247-40.2,369.6c-107.2,832.9-484.4,1256.1-1162.3,1294.4c-180,11.5-185.7,9.6-233.6-38.3c-65.1-65.1-67-168.5-5.8-231.7c36.4-34.5,72.8-45.9,201-57.4c549.5-46,792.7-321.7,886.5-1007.2c19.2-151.3,46-3347,26.8-3421.7c-9.6-44-13.4-44-335.1-44h-325.5v668.2c0,907.6-32.6,1189.1-193.4,1675.4c-291,873.1-863.6,1715.6-1928.2,2830c-216.4,227.9-304.5,335.1-358.1,438.5c-141.7,270-109.1,476.8,107.2,677.8c448.1,413.6,1706.1,752.5,3092.3,831C4907.8,4698.6,5369.3,4687.1,5798.2,4648.8z M5166.3-1122.3v-1321.2h-162.7h-162.8v1321.2V198.9h162.8h162.7V-1122.3z M6162-2950.9v-162.8H5003.6H3845.1v162.8v162.8h1158.4H6162V-2950.9z M6162-3621.1v-162.8H5003.6H3845.1v162.8v162.8h1158.4H6162V-3621.1z M5637.3-4140c-5.7-13.4-59.4-90-118.7-170.4L5411.4-4454h-409.8h-409.8L4477-4298.9c-63.2,86.2-109.1,162.8-103.4,172.3c3.8,7.7,293,15.3,641.5,13.4C5539.7-4113.2,5645-4118.9,5637.3-4140z"/><path d="M2970.1,3189.8c-57.4-7.7-120.6-91.9-120.6-157c0-116.8,187.6-321.7,382.9-417.4c90-44,128.3-51.7,277.6-51.7c147.4,0,187.6,7.7,277.6,51.7c57.4,26.8,130.2,70.8,160.8,97.6l57.4,46l105.3-74.7c139.8-97.6,279.6-137.9,442.3-126.4c137.9,9.6,291,70.8,392.5,155.1l57.4,47.9l70.8-55.5c239.3-191.5,566.8-199.1,821.4-21.1l105.3,74.7l57.4-46c30.7-26.8,103.4-70.8,160.9-97.6c90-44,130.2-51.7,277.6-51.7c149.3,0,187.6,7.7,277.6,51.7c197.2,95.7,382.9,300.6,382.9,419.3c0,84.2-72.8,155.1-162.8,157c-63.2,1.9-82.3-7.7-132.1-72.8c-199.1-250.8-306.4-308.3-461.5-250.8c-55.5,23-111,65.1-158.9,120.6c-204.9,250.8-250.8,268.1-365.7,137.9c-176.2-199.1-224-243.2-302.5-266.2c-114.9-34.5-229.8,11.5-327.4,128.3c-204.9,250.8-250.8,268.1-365.7,137.9c-176.2-199.1-224-243.2-302.5-266.2c-114.9-34.5-229.8,11.5-327.4,128.3c-235.5,287.2-250.8,287.2-486.4,0c-97.6-116.8-212.5-162.8-327.4-128.3c-80.4,23-180,111-285.3,252.8C3100.3,3180.2,3050.5,3201.2,2970.1,3189.8z"/></g></g>
</svg>