<?xml version="1.0" encoding="utf-8"?>
<!-- Svg Vector Icons : http://www.onlinewebfonts.com/icon -->
<!DOCTYPE svg PUBLIC "-//W3C//DTD SVG 1.1//EN" "http://www.w3.org/Graphics/SVG/1.1/DTD/svg11.dtd">
<svg version="1.1" xmlns="http://www.w3.org/2000/svg" xmlns:xlink="http://www.w3.org/1999/xlink" x="0px" y="0px" viewBox="0 0 1000 1000" enable-background="new 0 0 1000 1000" xml:space="preserve">
<metadata> Svg Vector Icons : http://www.onlinewebfonts.com/icon </metadata>
<g><g transform="translate(0.000000,512.000000) scale(0.100000,-0.100000)"><path d="M1753.9,4998.5c-308.3-86.2-561.1-342.8-643.5-653.1c-21.1-78.5-26.8-838.8-26.8-4228.5v-4134.7l55.5-55.5c49.8-47.9,70.9-55.5,162.8-55.5h107.3v-270v-270l55.5-55.5l55.5-55.5h296.8c260.5,0,300.7,3.8,340.9,36.4c24.9,19.2,111.1,166.6,189.6,325.6l141.7,289.2h2673.5h2673.5L7978-4418c78.5-159,164.7-306.4,189.6-325.6c40.2-32.6,80.4-36.4,340.9-36.4h296.8l55.5,55.5l55.5,57.5l-3.8,4506.2l-5.8,4506.2l-68.9,143.6c-99.6,208.7-233.6,344.7-434.7,446.2l-162.8,80.4l-3200.1,3.8C2514.2,5021.5,1822.9,5017.6,1753.9,4998.5z M8309.3,4634.6c72.8-34.5,132.1-82.4,168.5-132.1c120.7-166.6,113,120.6,113-4287.9v-4017.9H5000H1409.2l3.8,4056.2l5.7,4054.3l53.6,111.1c63.2,124.5,145.5,197.3,287.3,247.1c93.8,32.6,266.2,32.6,3269.1,28.7l3169.5-3.8L8309.3,4634.6z M2117.8-4138.4c0-5.7-34.5-78.5-76.6-162.8l-76.6-153.2h-114.9h-114.9v162.8v162.8h191.5C2031.6-4128.9,2117.8-4132.7,2117.8-4138.4z M8590.8-4291.6v-162.8h-114.9H8361l-76.6,153.2c-42.1,84.3-76.6,157-76.6,162.8c0,5.7,86.2,9.6,191.5,9.6h191.5V-4291.6z"/><path d="M3458.3,4527.4l-1484.2-9.6l-88.1-51.7c-107.2-63.2-220.2-185.8-268.1-291.1c-34.5-76.6-36.4-203-36.4-3903v-3824.5l49.8-38.3l51.7-40.2h3317h3317l51.7,40.2l49.8,38.3V273.9v3824.5l-47.9,97.7c-59.4,116.8-189.6,243.2-304.5,294.9c-76.6,32.6-162.8,34.5-1602.9,40.2C5626.2,4535,4274.2,4533.1,3458.3,4527.4z M4837.2,448.2v-3753.6h-1465H1907.1V386.9c0,3359.1,1.9,3696.1,30.6,3734.4c17.2,24.9,49.8,51.7,72.8,61.3c21.1,9.6,666.5,17.2,1434.4,17.2l1392.3,1.9V448.2z M8039.3,4148.2l44-44.1l5.7-3703.8l3.8-3705.7h-1465H5162.8V448.2v3753.6L6580,4198l1415.3-5.7L8039.3,4148.2z"/><path d="M4069.3,890.6l-55.5-55.5V375.4V-84.2l49.8-59.4c63.2-74.7,153.2-80.4,231.7-13.4l53.6,46l5.7,446.2c5.7,469.2-1.9,528.6-80.4,582.2C4211,963.4,4132.5,951.9,4069.3,890.6z"/><path d="M5725.8,917.4c-78.5-53.6-86.2-113-80.4-580.3c5.7-436.7,5.7-442.4,51.7-490.3c68.9-72.8,174.3-68.9,239.4,9.6l49.8,59.4v459.6v459.6l-55.5,55.5C5867.5,951.9,5789,963.4,5725.8,917.4z"/></g></g>
</svg>