<?xml version="1.0" encoding="utf-8"?>
<!-- Svg Vector Icons : http://www.onlinewebfonts.com/icon -->
<!DOCTYPE svg PUBLIC "-//W3C//DTD SVG 1.1//EN" "http://www.w3.org/Graphics/SVG/1.1/DTD/svg11.dtd">
<svg version="1.1" xmlns="http://www.w3.org/2000/svg" xmlns:xlink="http://www.w3.org/1999/xlink" x="0px" y="0px" viewBox="0 0 1000 1000" enable-background="new 0 0 1000 1000" xml:space="preserve">
<metadata> Svg Vector Icons : http://www.onlinewebfonts.com/icon </metadata>
<g><g transform="translate(0.000000,512.000000) scale(0.100000,-0.100000)"><path d="M4680.3,4985.6c-269.9-95.7-513-449.8-698.6-1012.5c-44-134-82.3-248.8-86.1-252.7c-3.8-5.8-78.5,61.2-166.5,147.4c-185.7,181.8-241.2,199.1-338.8,101.4c-105.3-105.3-76.6-166.5,210.5-451.7c134-132.1,208.6-220.1,202.9-239.3c-42.1-141.6-124.4-966.6-124.4-1255.6v-156.9l-95.7-21.1c-107.2-23-264.1-95.7-359.8-168.4l-65.1-47.9l-204.8,202.9c-231.6,227.8-273.7,245-382.8,153.1c-45.9-38.3-59.3-65.1-59.3-116.8c0-61.3,23-91.9,218.2-290.9l216.3-222l-34.5-76.6c-243.1-535.9,224-1234.6,825-1234.6h107.2l34.4-137.8c19.1-76.6,38.3-151.2,44-162.7c7.7-19.1-40.2-24.9-201-24.9c-241.2,0-319.7-21-357.9-97.6c-40.2-76.6-36.4-120.6,21.1-187.6l49.8-59.3h302.4h304.3l76.6-160.8c40.2-90,101.5-201,134-248.8l61.3-88h-748.4c-786.7,0-836.5-5.7-869-86.1c-5.7-17.2-11.5-279.4-11.5-581.9c0-671.8-7.7-647,225.9-656.5l145.5-5.7l369.4-1119.7c304.3-924.5,377.1-1127.4,417.3-1163.8l49.8-42.1h943.6c899.6,0,947.5,1.9,989.6,36.4c36.4,28.7,124.4,275.6,419.2,1161.8l373.2,1127.4l149.3,9.6c233.5,15.3,223.9-15.3,223.9,654.6v555.1l-55.5,55.5l-55.5,55.5h-758c-417.3,0-758,5.7-758,11.5c0,5.8,15.3,34.5,36.4,61.3c128.2,181.8,298.6,624,396.2,1024l53.6,224h266H6382l55.5,55.5c74.6,76.6,74.6,157,0,233.5c-55.5,55.5-57.4,55.5-292.9,55.5h-237.3l23,187.6c13.4,101.5,30.6,287.1,38.3,411.5l13.4,223.9h97.6c229.7,1.9,558.9,116.8,731.2,258.4c44,36.4,88,67,95.7,67c7.7,0,72.8-55.5,143.6-124.4c134-130.2,183.8-149.3,271.8-101.4c63.2,32.5,88.1,74.6,90,147.4c0,53.6-21,86.1-139.7,206.7l-139.7,141.6l63.2,128.2c160.8,331.1,162.7,694.8,1.9,1043.2L7138,3261l174.2,178c157,158.9,176.1,185.7,176.1,248.8c0,97.6-68.9,164.6-166.5,164.6c-65.1,0-88-15.3-237.3-164.6l-166.5-164.6l-103.4,76.6c-160.8,122.5-476.6,252.7-612.5,252.7c-30.6,0-34.5,19.1-34.5,181.8c0,210.5-26.8,281.4-114.8,312c-72.7,26.8-162.7-1.9-197.1-61.3c-11.5-21.1-26.8-134-32.5-250.7c-7.7-174.2-15.3-210.5-40.2-216.3c-24.9-3.8-42.1,26.8-70.8,124.4c-23,70.8-65.1,191.4-95.7,264.1l-55.5,134l216.3,222c199.1,202.9,218.2,227.8,218.2,292.9c0,95.7-68.9,164.6-164.6,164.6c-63.2,0-90-19.1-254.6-179.9l-183.7-181.8L5268,4788.4C5067,4998.9,4887.1,5060.2,4680.3,4985.6z M4919.6,4665.9c84.2-36.4,145.5-90,199.1-178l38.3-63.2l-164.6-168.4c-191.4-195.2-206.7-248.8-109.1-348.4c93.8-91.9,155-78.5,306.3,68.9l130.2,124.4l63.2-204.8l63.2-204.8l-65.1-47.9c-36.4-26.8-124.4-107.2-195.2-179.9c-208.6-216.3-356-562.7-357.9-840.3v-91.9h-193.3c-187.6,0-193.3-1.9-248.8-55.5c-59.3-59.3-67-101.4-36.4-181.8c30.6-82.3,109.1-107.2,348.4-109.1h216.3l67-137.8c91.9-189.5,336.9-436.4,534-537.9l141.6-74.6l-15.3-250.7c-7.7-137.8-23-336.9-36.4-442.1l-21-191.4l-153.1-9.6c-84.2-5.7-172.3-21.1-193.3-32.5c-59.4-34.5-88.1-124.4-61.3-197.1c26.8-76.6,103.3-114.8,237.3-114.8h107.2l-13.4-88c-23-160.8-139.7-551.3-214.4-725.4c-99.5-233.5-204.8-386.7-310.1-451.7c-193.3-122.5-357.9-28.7-530.2,300.5l-68.9,132.1l179.9,9.6c97.6,5.7,189.5,17.2,204.8,26.8c44,28.7,80.4,139.7,61.3,187.6c-40.2,103.3-84.2,120.6-336.9,126.3l-233.5,7.7l-23,97.6c-13.4,55.5-34.5,147.4-47.9,208.6l-26.8,107.2l93.8,61.3c283.3,183.8,461.3,572.3,403.9,884.3c-53.6,290.9-268,572.3-524.5,691l-134,61.3l11.5,325.4c7.7,179.9,24.9,446,40.2,593.4c15.3,147.4,28.7,271.8,28.7,275.6s42.1-32.5,95.7-82.3c111-105.3,176.1-114.8,266.1-38.3c45.9,38.3,59.3,65.1,59.3,116.8c0,59.3-21.1,90-174.2,246.9l-176.1,178l44,178c134,551.3,327.3,932.1,520.6,1027.9C4814.3,4702.3,4827.7,4702.3,4919.6,4665.9z M6349.4,3484.9c90-23,229.7-91.9,296.7-145.5l47.9-38.3l-101.4-105.3c-124.4-132.1-134-210.5-40.2-289c86.1-72.7,155-65.1,254.6,26.8c45.9,42.1,88,76.6,93.8,76.6c23,0,72.7-193.3,84.2-327.3c7.6-101.4,1.9-187.6-21.1-287.1c-45.9-208.6-49.8-210.5-153.1-116.8c-105.3,97.6-195.2,109.1-269.9,32.5c-80.4-78.5-67-164.6,47.9-285.2c53.6-55.5,95.7-105.3,95.7-111c0-5.7-40.2-38.3-90-68.9c-281.4-178-652.7-189.5-970.4-28.7c-107.2,53.6-277.5,216.3-325.4,308.2l-32.5,61.3h126.3c145.5,0,231.6,36.4,258.4,107.2c30.6,80.4,23,122.5-36.4,181.8c-55.5,53.6-61.2,55.5-248.8,55.5h-193.3v95.7c0,241.2,88,455.5,256.5,622.1c103.3,103.4,315.8,239.3,373.2,239.3c11.5,0,21.1-32.5,21.1-76.6c0-160.8,109.1-260.3,229.7-210.5c76.6,32.5,114.8,109.1,114.8,229.7C6167.6,3538.5,6150.3,3534.7,6349.4,3484.9z M3997,1477.1c262.2-99.5,394.3-415.4,302.4-727.3c-40.2-137.8-185.7-281.4-344.5-342.6c-271.8-101.4-591.4,15.3-715.9,262.2c-36.4,70.8-49.8,128.2-53.6,260.3c-3.8,91.9-1.9,166.5,7.7,166.5c7.7,0,67-51.7,134-114.8c141.6-137.8,204.8-149.3,296.7-59.3c95.7,97.6,76.6,157-118.7,357.9l-134,134l74.6,42.1C3602.7,1544.1,3798,1551.7,3997,1477.1z M6661.4-1788.3l3.8-331.1H4837.3H3009.4v335v335l1824.1-5.7l1822.2-3.8L6661.4-1788.3z M6098.7-2955.9c-88.1-271.8-235.4-717.8-327.3-991.5L5602.9-4445l-769.5-5.7l-769.4-3.8l-313.9,951.3c-174.2,524.4-321.6,972.3-327.3,997.2l-13.4,42.1h1424.1h1426L6098.7-2955.9z"/><path d="M3887.9-2672.6c-59.3-59.3-67-101.4-36.4-181.8c36.4-99.5,86.1-107.2,650.8-107.2s614.4,7.7,650.8,107.2c30.6,80.4,23,122.5-36.4,181.8l-55.5,55.5h-558.9h-558.9L3887.9-2672.6z"/><path d="M4383.7-3172.2c-49.8-51.7-57.4-68.9-47.9-128.3c21.1-130.1,61.3-149.3,319.7-155l229.7-7.7l57.4,57.4c80.4,80.4,80.4,174.2-1.9,241.2c-55.5,47.9-68.9,49.8-279.5,49.8C4443-3114.8,4441.1-3114.8,4383.7-3172.2z"/></g></g>
</svg>