<?xml version="1.0" encoding="utf-8"?>
<!-- Svg Vector Icons : http://www.onlinewebfonts.com/icon -->
<!DOCTYPE svg PUBLIC "-//W3C//DTD SVG 1.1//EN" "http://www.w3.org/Graphics/SVG/1.1/DTD/svg11.dtd">
<svg version="1.1" xmlns="http://www.w3.org/2000/svg" xmlns:xlink="http://www.w3.org/1999/xlink" x="0px" y="0px" viewBox="0 0 1000 1000" enable-background="new 0 0 1000 1000" xml:space="preserve">
<metadata> Svg Vector Icons : http://www.onlinewebfonts.com/icon </metadata>
<g><g transform="translate(0.000000,512.000000) scale(0.100000,-0.100000)"><path d="M4645.2,5006.4c-212.6-28.7-519.1-107.3-706.8-182c-484.6-191.6-881.1-482.7-1227.9-896.5c-216.5-260.5-352.5-386.9-568.9-528.7c-296.9-197.3-595.7-295-986.5-323.7c-137.9-11.5-254.8-30.7-289.2-47.9c-103.4-53.6-180.1-132.2-226-231.8c-88.1-189.6-38.3-386.9,122.6-490.4c47.9-30.7,103.4-55.5,122.6-55.5c28.7,0,34.5-15.3,34.5-90c0-139.8,49.8-477,93.9-653.2C1241.3,616,1869.6-152.1,2699-550.5c427.2-205,758.6-281.6,1281.5-296.9l367.8-11.5v-846.6v-846.7l49.8-51.7c28.7-26.8,63.2-49.8,76.6-49.8c21.1,0,26.8-38.3,26.8-162.8v-162.8h-103.4c-82.4,0-116.9-9.6-157.1-44.1c-46-40.2-51.7-63.2-67-226c-19.2-220.3-55.6-344.8-157.1-542.1c-141.8-275.8-408-492.3-731.7-599.6c-145.6-45.9-180.1-49.8-637.9-59.4c-469.3-7.7-488.5-9.6-536.3-51.7c-70.9-61.3-69-170.5,3.8-231.8l51.7-46h2833.1h2833.1l51.7,46c72.8,61.3,74.7,170.5,3.8,231.8c-47.9,42.1-67.1,44-536.3,51.7c-457.8,9.6-492.3,13.4-637.9,59.4c-404.2,132.2-691.5,415.7-823.7,808.4c-30.7,90-55.6,216.4-61.3,306.5c-17.2,241.3-59.4,296.9-233.7,296.9h-97.7v162.8c0,124.5,5.7,162.8,26.8,162.8c13.4,0,47.9,23,76.6,49.8l49.8,51.7v846.7v846.6l369.7,11.5c266.3,7.7,419.5,21.1,555.5,51.7C7754.1-544.8,8688.9,349.8,8985.8,1506.8c44.1,176.2,93.9,513.4,93.9,653.2c0,74.7,5.7,90,34.5,90c19.2,0,74.7,24.9,122.6,55.5c262.4,166.7,205,563.2-103.4,722.2c-36.4,19.2-149.4,36.4-291.2,46c-386.9,28.7-683.8,126.4-984.6,325.6c-216.4,141.7-350.5,266.3-572.8,532.5c-461.6,549.8-1030.5,892.6-1720.1,1038.2C5342.4,5016,4855.9,5035.2,4645.2,5006.4z M5539.8,4644.4c593.8-124.5,1074.6-423.3,1497.9-927.1c283.5-337.1,501.8-521,817.9-689.6c318-168.6,614.9-254.8,973.1-279.7c231.8-15.3,250.9-24.9,250.9-118.8c0-36.4-9.6-53.6-28.7-53.6c-67,0-185.8-82.4-237.5-162.8c-47.9-74.7-55.5-107.3-67.1-308.4c-40.2-703-295-1296.8-772-1791c-392.7-406.1-854.3-660.9-1429-787.3c-193.5-44-214.5-44-1545.8-44s-1352.4,0-1545.8,44C2191.4-194.2,1325.6,817.2,1252.8,2096.8c-9.6,182-19.2,233.7-57.5,300.7c-47.9,82.4-132.2,145.6-224.1,168.6c-40.2,11.5-51.7,24.9-51.7,65.1c0,91.9,19.2,101.5,264.3,118.8c496.1,36.4,927.1,206.9,1335.1,526.8c170.5,132.2,279.7,243.3,488.5,492.3c432.9,521,1013.3,829.4,1724,921.4C4884.7,4709.5,5357.8,4682.7,5539.8,4644.4z M5325.2-1590.6v-737.5h-325.6h-325.6v737.5v737.5h325.6h325.6V-1590.6z M5160.5-2684.4c5.8-17.3,11.5-90.1,11.5-162.8v-132.2h-172.4h-172.4v149.4c0,82.4,5.7,157.1,13.4,162.8c5.7,7.7,78.5,13.4,160.9,13.4C5118.3-2653.8,5150.9-2659.5,5160.5-2684.4z M5524.4-3462.1c19.1-88.1,57.5-214.5,84.3-283.5c72.8-180.1,249-434.8,406.1-580.4l134.1-128.3H4997.7H3846.4l134.1,124.5c247.1,228,423.3,540.2,494.2,871.6l32.6,153.2h492.3h492.3L5524.4-3462.1z"/><path d="M4271.7,1616c-469.3-40.2-1151.2-145.6-1390.7-218.4c-111.1-32.6-218.4-126.4-279.7-245.2c-49.8-95.8-70.9-379.3-36.4-505.7c32.6-118.8,130.3-235.6,250.9-298.8c126.4-65.1,206.9-65.1,613,11.5c994.2,185.8,2189.4,183.9,3189.4-7.6c116.8-23,266.3-46,335.2-49.8c109.2-7.6,136-1.9,229.9,46c120.7,63.2,218.4,180.1,250.9,298.8c32.6,124.5,13.4,409.9-34.5,503.8c-61.3,116.9-174.3,216.5-281.6,247.1c-262.4,78.5-936.7,182-1427.1,220.3C5396.1,1638.9,4541.8,1638.9,4271.7,1616z M5986.1,1263.5c534.4-63.2,1063.1-164.7,1111-214.5c38.3-36.4,40.2-346.7,3.8-396.5c-32.6-46-65.1-44.1-386.9,15.3c-620.6,113-1053.5,151.3-1714.4,151.3c-664.7,0-1097.6-38.3-1714.4-151.3c-321.8-59.4-354.4-61.3-386.9-15.3c-26.8,36.4-34.5,344.8-9.6,385c23,34.5,97.7,57.5,362,109.2c321.8,61.3,624.5,105.4,953.9,136C4574.3,1319,5622.1,1307.5,5986.1,1263.5z"/></g></g>
</svg>