<?xml version="1.0" encoding="utf-8"?>
<!-- Svg Vector Icons : http://www.onlinewebfonts.com/icon -->
<!DOCTYPE svg PUBLIC "-//W3C//DTD SVG 1.1//EN" "http://www.w3.org/Graphics/SVG/1.1/DTD/svg11.dtd">
<svg version="1.1" xmlns="http://www.w3.org/2000/svg" xmlns:xlink="http://www.w3.org/1999/xlink" x="0px" y="0px" viewBox="0 0 1000 1000" enable-background="new 0 0 1000 1000" xml:space="preserve">
<metadata> Svg Vector Icons : http://www.onlinewebfonts.com/icon </metadata>
<g><g transform="translate(0.000000,512.000000) scale(0.100000,-0.100000)"><path d="M4645.2,5006.4c-212.6-28.7-519.1-107.3-706.9-182c-484.7-191.6-881.2-482.7-1227.9-896.5c-216.5-260.5-352.5-387-569-528.7c-296.9-197.3-595.8-295-986.6-323.7c-137.9-11.5-254.8-30.7-289.3-47.9c-103.5-53.6-180.1-132.2-226.1-231.8c-88.1-189.6-38.3-387,122.6-490.4c47.9-30.7,103.5-55.6,122.6-55.6c28.7,0,34.5-15.3,34.5-90c0-139.8,49.8-477,93.9-653.2C1199,782.5,1635.7,154.1,2273.6-305.6l101.5-70.9l3.8-2157l5.7-2155.1l53.6-45.9c59.4-49.8,155.2-61.3,206.9-21.1c74.7,57.5,74.7,67.1,74.7,1505.7v1400.3h162.8h162.8v-1254.8V-4361l47.9-46c51.7-51.7,151.3-63.2,203.1-23c74.7,57.5,74.7,72.8,74.7,1342.9v1237.5h1628.3h1628.3v-1237.5c0-1270.1,0-1285.4,74.7-1342.9c51.7-40.2,151.3-28.7,203,23l47.9,46v1256.7v1254.8h162.8h162.8V-3250c0-1438.7,0-1448.3,74.7-1505.7c51.7-40.2,147.5-28.7,206.9,21.1l53.6,45.9l5.7,2162.8l5.7,2160.9l90,57.5C8196.8-1,8685.3,627.3,8896,1211.6c99.6,281.6,182,703,183.9,948.2c0,74.7,5.7,90,34.5,90c19.2,0,74.7,24.9,122.6,55.6c262.4,166.7,205,563.2-103.5,722.2c-36.4,19.2-149.4,36.4-291.2,46c-386.9,28.7-683.9,126.4-984.6,325.7c-216.5,141.8-350.6,266.3-572.8,532.5c-461.7,549.8-1030.6,892.7-1720.2,1038.3C5342.5,5016,4855.9,5035.2,4645.2,5006.4z M5539.8,4644.4c593.8-124.5,1074.7-423.4,1498-927.2c283.5-337.2,501.9-521.1,818-689.6c318-168.6,614.9-254.8,973.2-279.7c231.8-15.3,250.9-24.9,250.9-118.8c0-36.4-9.6-53.6-28.7-53.6c-67.1,0-185.8-82.4-237.5-162.8c-47.9-74.7-55.5-107.3-67.1-308.4c-28.7-521-189.6-1007.6-467.4-1423.3c-199.2-298.8-622.6-699.2-856.3-810.3c-42.1-19.2-111.1-57.5-153.3-82.3c-160.9-99.6-383.1-180.1-737.5-264.4c-153.2-36.4-233.7-40.2-1434.8-46c-1507.6-9.6-1530.6-7.7-2032.5,160.9c-132.2,44.1-203.1,78.5-494.2,235.6c-153.2,82.4-360.1,245.2-526.8,413.8c-480.8,488.5-750.9,1109.2-791.2,1808.4c-9.6,182-19.2,233.7-57.5,300.8c-47.9,82.4-132.2,145.6-224.1,168.6c-40.2,11.5-51.7,24.9-51.7,65.1c0,92,19.2,101.5,264.4,118.8c496.2,36.4,927.2,206.9,1335.2,526.8c170.5,132.2,279.7,243.3,488.5,492.3c432.9,521.1,1013.4,829.5,1724.1,921.4C4884.6,4709.5,5357.8,4682.7,5539.8,4644.4z M2882.8-633.2l153.3-65.1l5.7-404.2l3.8-402.3h-162.8H2720v469.3c0,258.6,1.9,469.3,5.7,469.3C2727.6-566.2,2798.5-596.8,2882.8-633.2z M7279.2-1035.5v-469.3h-162.8h-162.8l3.8,406.1l5.7,404.2l153.3,63.2c84.3,34.5,155.2,63.2,159,63.2C7277.3-566.2,7279.2-776.9,7279.2-1035.5z M3668.2-834.3c174.3-23,2488.4-23,2662.7,0c74.7,9.6,170.5,23,216.5,30.6l80.5,13.4v-358.2v-356.3H4999.6H3371.3v356.3v358.2l82.4-13.4C3497.7-811.4,3595.4-824.8,3668.2-834.3z"/><path d="M4271.6,1615.8c-469.3-40.2-1151.3-145.6-1390.8-218.4c-111.1-32.6-218.4-126.4-279.7-245.2c-49.8-95.8-70.9-379.3-36.4-505.7c32.6-118.8,130.3-235.6,251-298.8c126.4-65.1,206.9-65.1,613,11.5C4423,544.9,5618.3,543,6618.3,351.4c116.8-23,266.3-46,335.2-49.8c109.2-7.6,136-1.9,229.9,46c120.7,63.2,218.4,180.1,250.9,298.8c32.6,124.5,13.4,410-34.5,503.8c-61.3,116.9-174.3,216.5-281.6,247.1c-262.4,78.5-936.7,182-1427.2,220.3C5396.1,1638.7,4541.7,1638.7,4271.6,1615.8z M5986.1,1263.3c534.5-63.2,1063.2-164.7,1111.1-214.6c38.3-36.4,40.2-346.7,3.8-396.5c-32.6-46-65.1-44.1-387,15.3c-620.7,113-1053.6,151.3-1714.5,151.3c-664.7,0-1097.7-38.3-1714.5-151.3c-321.8-59.4-354.4-61.3-387-15.3c-26.8,36.4-34.5,344.8-9.6,385c23,34.5,97.7,57.5,362.1,109.2c321.8,61.3,624.5,105.4,954,136C4574.3,1318.8,5622.2,1307.3,5986.1,1263.3z"/></g></g>
</svg>