<?xml version="1.0" encoding="utf-8"?>
<!-- Svg Vector Icons : http://www.onlinewebfonts.com/icon -->
<!DOCTYPE svg PUBLIC "-//W3C//DTD SVG 1.1//EN" "http://www.w3.org/Graphics/SVG/1.1/DTD/svg11.dtd">
<svg version="1.1" xmlns="http://www.w3.org/2000/svg" xmlns:xlink="http://www.w3.org/1999/xlink" x="0px" y="0px" viewBox="0 0 1000 1000" enable-background="new 0 0 1000 1000" xml:space="preserve">
<metadata> Svg Vector Icons : http://www.onlinewebfonts.com/icon </metadata>
<g><g transform="translate(0.000000,512.000000) scale(0.100000,-0.100000)"><path d="M4645.2,5006.4c-212.6-28.7-519.1-107.3-706.8-182c-484.6-191.6-881.1-482.7-1227.9-896.5c-216.5-260.5-352.5-386.9-568.9-528.7c-296.9-197.3-595.7-295-986.5-323.7c-137.9-11.5-254.8-30.7-289.2-47.9c-103.4-53.6-180.1-132.2-226-231.8c-88.1-189.6-38.3-386.9,122.6-490.4c47.9-30.7,103.4-55.5,122.6-55.5c28.7,0,34.5-15.3,34.5-90c0-139.8,49.8-477,93.9-653.2C1229.8,662,1796.8-64,2578.4-491.1c78.5-44.1,141.7-86.2,141.7-95.8c0-21.1-398.4-3578.2-413.8-3700.8c-17.2-122.6,21.1-243.2,103.4-340.9c95.8-111.1,191.6-151.3,369.7-151.3c247.1,0,415.7,116.8,457.8,319.9c11.5,49.8,63.2,488.5,116.8,973.1c53.6,484.6,101.5,886.9,109.2,892.6c36.4,30.6,1519,879.2,1536.3,879.2c24.9,0,1540.1-877.3,1545.8-896.5c3.8-7.7,51.7-440.6,111.1-961.6c105.4-938.6,107.3-948.2,160.9-1024.8c30.7-44.1,97.7-99.6,155.2-128.4c84.3-45.9,122.6-53.6,247.1-53.6c178.1,0,273.9,40.2,369.7,151.3c128.3,151.3,128.3,114.9-11.5,1354.3c-293.1,2607-302.6,2699-275.8,2714.3c13.4,7.7,107.3,63.2,206.9,122.6c739.4,436.7,1270,1134,1476.9,1944.3c44.1,176.2,93.9,513.4,93.9,653.2c0,74.7,5.7,90,34.5,90c19.2,0,74.7,24.9,122.6,55.5c262.4,166.7,205,563.2-103.4,722.2c-36.4,19.2-149.4,36.4-291.2,46c-386.9,28.7-683.8,126.4-984.6,325.6c-216.4,141.7-350.5,266.3-572.8,532.5c-461.6,549.8-1030.5,892.6-1720.1,1038.2C5342.4,5016,4855.9,5035.2,4645.2,5006.4z M5539.8,4644.4c593.8-124.5,1074.6-423.3,1497.9-927.1c283.5-337.1,501.8-521,817.9-689.6c318-168.6,614.9-254.8,973.1-279.7c231.8-15.3,250.9-24.9,250.9-118.8c0-36.4-9.6-53.6-28.7-53.6c-67,0-185.8-82.4-237.5-162.8c-47.9-74.7-55.5-107.3-67.1-308.4c-40.2-703-295-1296.8-772-1791c-446.3-461.7-973.1-720.2-1672.3-821.8c-164.7-23-2465.3-23-2614.7,0c-687.7,109.2-1187.6,348.6-1614.8,770.1c-498,490.4-779.6,1122.5-819.9,1835.1c-9.6,182-19.2,233.7-57.5,300.7c-47.9,82.4-132.2,145.6-224.1,168.6c-40.2,11.5-51.7,24.9-51.7,65.1c0,91.9,19.2,101.5,264.3,118.8c496.1,36.4,927.1,206.9,1335.1,526.8c170.5,132.2,279.7,243.3,488.5,492.3c432.9,521,1013.3,829.4,1724,921.4C4884.7,4709.5,5357.8,4682.7,5539.8,4644.4z M3325.4-784.2c1.9-1.9-122.6-1128.3-174.3-1553.5c-15.3-136-72.8-649.4-126.4-1139.7c-51.7-490.4-103.4-909.9-113-932.9c-17.2-40.2-32.6-44-141.7-44c-69,0-130.3,9.6-136,19.2c-11.5,17.2,383.1,3651,402.3,3710.4c5.7,17.3,46,11.5,147.5-17.2C3260.3-763.2,3325.4-782.3,3325.4-784.2z M7018.6-1198c28.7-258.6,120.7-1086.1,205-1838.9c82.4-752.8,147.5-1379.2,141.8-1392.6c-5.7-17.2-49.8-24.9-134.1-24.9c-111.1,0-126.4,3.8-143.7,44c-9.6,23-61.3,446.3-114.9,942.5c-53.6,496.1-114.9,1038.2-134.1,1206.8c-21.1,168.5-63.2,547.8-95.8,842.8c-30.6,295-61.3,559.3-65.1,586.1c-9.6,47.9-1.9,51.7,128.3,88.1c76.6,21.1,143.7,34.5,149.4,26.8C6961.1-722.9,6989.8-939.4,7018.6-1198z M5737.1-887.7c-30.7-19.2-210.7-124.5-396.5-231.8l-341-197.3l-339.1,197.3c-187.7,107.3-365.9,212.6-398.4,231.8c-55.5,34.5-40.2,34.5,737.5,34.5C5777.3-853.2,5792.6-853.2,5737.1-887.7z M4126.1-1198c254.8-147.5,477-277.8,496.1-291.2c30.6-23-32.6-63.2-534.4-356.3c-314.1-180.1-572.7-325.6-578.5-321.8c-3.8,5.8,19.2,252.9,51.7,551.7c67,605.3,76.6,685.8,92,685.8C3658.7-929.8,3871.3-1050.5,4126.1-1198z M6367.3-1000.7c26.8-174.3,130.3-1158.9,122.6-1166.6c-5.7-3.8-264.3,139.8-576.6,321.8c-312.2,182-563.2,335.2-553.6,342.9c19.2,21.1,969.3,570.8,984.6,572.8C6350-929.8,6361.5-962.4,6367.3-1000.7z"/><path d="M4549.4,1625.5c-42.1-3.8-176.2-17.2-296.9-28.7c-467.4-42.1-1164.6-166.6-1283.4-227.9c-84.3-44.1-157.1-120.7-208.8-224.1c-34.5-67-40.2-114.9-40.2-287.3c0-245.2,28.7-321.8,153.2-432.9c159-143.7,229.9-153.2,628.3-80.5c1065,197.3,2124.3,206.9,3164.5,24.9c568.9-97.7,614.9-95.8,777.7,47.9c132.2,116.8,160.9,191.5,160.9,440.6c0,172.4-5.7,220.3-40.2,287.3c-51.7,103.4-124.5,180.1-208.8,224.1c-107.3,55.5-664.7,159-1187.6,222.2C5924.8,1619.8,4752.5,1644.7,4549.4,1625.5z M6148.9,1265.4c469.3-57.5,1059.3-166.7,1105.3-205c17.2-15.3,24.9-76.6,24.9-210.7c0-178.1-1.9-189.6-46-218.4c-24.9-15.3-55.5-24.9-70.9-19.2c-63.2,21.1-580.4,109.2-858.2,143.7c-990.3,122.6-2091.7,76.6-3047.6-124.5c-107.3-23-130.3-23-166.7,1.9c-40.2,24.9-44.1,42.1-44.1,216.5c0,134.1,7.7,195.4,24.9,210.7c67,55.5,944.4,197.3,1478.8,239.4C4796.5,1319,5901.8,1294.1,6148.9,1265.4z"/></g></g>
</svg>