<?xml version="1.0" encoding="utf-8"?>
<!-- Svg Vector Icons : http://www.onlinewebfonts.com/icon -->
<!DOCTYPE svg PUBLIC "-//W3C//DTD SVG 1.1//EN" "http://www.w3.org/Graphics/SVG/1.1/DTD/svg11.dtd">
<svg version="1.1" xmlns="http://www.w3.org/2000/svg" xmlns:xlink="http://www.w3.org/1999/xlink" x="0px" y="0px" viewBox="0 0 1000 1000" enable-background="new 0 0 1000 1000" xml:space="preserve">
<metadata> Svg Vector Icons : http://www.onlinewebfonts.com/icon </metadata>
<g><g transform="translate(0.000000,512.000000) scale(0.100000,-0.100000)"><path d="M2139.9,2732.7V445.4H3229h1091l51.7,45.9c74.6,63.2,74.6,170.3,0,233.5l-51.7,45.9h-928.3h-926.4v1961.9v1961.9h2536.1h2536.1V2732.7V770.8H6523.1H5506.7l-45.9-47.9c-51.7-51.7-63.2-151.2-23-202.9c55.5-72.7,74.7-74.6,1265.2-74.6h1159.9v2287.3V5020H5001.4H2139.9V2732.7z"/><path d="M2962.9,2732.7V1268.4h648.9h648.9l11.5-82.3c30.6-199.1,191.4-413.4,384.7-513l95.7-47.9V127.7v-495.8l-227.8-9.6l-227.8-9.6l-24.9-105.3c-49.8-199.1-174.2-411.5-352.2-601c-191.4-202.9-233.5-268-277.5-421.1c-40.2-137.8-30.6-294.7,24.9-409.6l38.3-78.5l-1248-5.7l-1246.1-5.7l-149.3-70.8c-321.6-153.1-549.3-490-549.3-809.6c0-409.6,327.3-802,742.7-888.1c55.5-11.5,235.4-21,396.2-21c162.7,0,296.7-5.7,296.7-11.5s-34.5-216.3-76.6-467c-42.1-250.7-76.6-465.1-76.6-476.6c0-13.4,101.4-21.1,306.2-21.1h306.2l243.1,488.1l245,488.1h2185.9h2187.8l243.1-488.1l245-488.1h310.1h310.1l-9.6,53.6c-5.8,28.7-42.1,246.9-82.3,488.1l-72.7,434.5h216.3c118.7,0,262.2,9.6,317.8,21c363.7,76.6,666.1,388.6,729.3,752.2c63.2,369.4-160.8,765.6-535.9,945.5l-149.3,70.8l-1324.5,5.7c-729.2,1.9-1326.4,7.7-1326.4,11.5c0,3.8,19.1,47.9,40.2,97.6c34.5,76.6,40.2,118.7,32.5,246.9c-11.5,201-67,315.8-252.7,509.1c-218.2,229.7-348.3,446-396.2,664.2l-23,101.4h-227.8h-225.9v51.7c0,40.2,51.7,103.3,239.3,292.8c220.1,222,239.2,248.8,239.2,313.9c0,91.9-68.9,164.6-155,164.6c-47.8,0-86.1-24.9-191.4-128.3l-132.1-126.3V409v220.1l88,42.1c191.4,93.8,352.2,302.4,386.6,501.5l15.3,86.1l731.2,5.7l731.2,3.8v1464.3V4197H5001.4H2962.9V2732.7z M6714.5,2732.7V1593.8h-564.6h-564.6v162.7v162.7h-248.8h-248.8V2168v248.8H4676h-411.5v-411.5v-411.5h-488.1h-488.1v1138.9v1138.9h1713.1h1713.1V2732.7z M4743,1523V973.7l-57.4,55.5c-32.5,30.6-67,86.1-76.6,122.5c-9.6,38.3-19.1,260.3-19.1,495.7v424.9h76.6h76.6V1523z M5240.6,1385.2c0-114.8-9.6-233.5-21-264.1c-21.1-57.4-90-139.7-116.8-139.7c-7.7,0-15.3,137.8-15.3,306.3v306.3h76.6h76.6V1385.2z M5334.4-808.3c67-162.7,210.5-369.4,380.9-551.2c86.1-90,160.8-185.7,168.4-214.4c19.1-80.4-3.8-237.4-44-292.9c-19.2-28.7-74.6-70.8-122.5-95.7c-84.2-44-86.1-44-821.1-38.3c-698.6,5.7-740.7,7.6-803.9,44c-118.7,68.9-185.7,266.1-135.9,396.2c9.6,24.9,70.8,99.5,135.9,168.4c174.2,183.8,298.6,352.2,386.6,530.2l78.5,158.9h367.5h365.6L5334.4-808.3z M8777.8-2358.7c141.7-42.1,250.8-134,319.6-268c51.7-99.5,57.4-130.2,55.5-275.6c-1.9-111-11.5-189.5-34.5-237.3c-47.8-109.1-172.3-233.5-285.2-283.3l-99.5-45.9H5001.4H1269l-101.4,45.9c-294.8,134-413.4,499.6-260.3,802c65.1,126.3,160.8,206.7,298.6,254.6c97.6,34.5,266.1,34.5,3787.9,36.4C8241.9-2330,8689.8-2333.8,8777.8-2358.7z M2522.7-3813.4c0-11.5-306.3-627.8-317.7-639.3c-26.8-28.7-21.1,49.8,24.9,331.1l51.7,317.7h120.6C2469.1-3803.8,2522.7-3807.7,2522.7-3813.4z M7891.6-3865.1c59.3-333,95.7-589.5,84.2-589.5c-9.6,0-90,147.4-179.9,325.4l-162.7,325.4h122.5h124.4L7891.6-3865.1z"/><path d="M4982.3,3506c-189.5-185.7-220.1-223.9-220.1-277.5c0-95.7,63.2-160.8,157-160.8c72.7,0,90,13.4,258.4,178c99.5,95.7,193.3,201,210.5,229.7c53.6,103.4-3.8,212.5-124.4,235.4C5204.3,3722.3,5189,3710.8,4982.3,3506z"/><path d="M3853,3356.7c-88.1-53.6-392.4-375.2-394.3-415.4c-7.7-128.2,49.8-199.1,158.9-199.1c68.9,0,88,13.4,269.9,202.9c107.2,111,201,218.2,208.6,239.3c21,55.5-21.1,149.3-82.3,179.9C3944.8,3400.7,3921.9,3400.7,3853,3356.7z"/></g></g>
</svg>