<?xml version="1.0" encoding="utf-8"?>
<!-- Svg Vector Icons : http://www.onlinewebfonts.com/icon -->
<!DOCTYPE svg PUBLIC "-//W3C//DTD SVG 1.1//EN" "http://www.w3.org/Graphics/SVG/1.1/DTD/svg11.dtd">
<svg version="1.1" xmlns="http://www.w3.org/2000/svg" xmlns:xlink="http://www.w3.org/1999/xlink" x="0px" y="0px" viewBox="0 0 1000 1000" enable-background="new 0 0 1000 1000" xml:space="preserve">
<metadata> Svg Vector Icons : http://www.onlinewebfonts.com/icon </metadata>
<g><g transform="translate(0.000000,512.000000) scale(0.100000,-0.100000)"><path d="M2377.4,5002c-235.5-47.9-459.4-179.9-647-382.9c-147.4-158.9-231.6-312-281.4-509.2c-38.3-145.5-38.3-227.8-38.3-4471.8v-4324.4l47.9-45.9l45.9-47.9h3495.5h3495.5l46,47.9l47.9,45.9v4332c0,4803,9.6,4420.1-128.3,4705.3c-97.6,201-340.7,444.1-541.7,541.7c-279.5,135.9-95.7,128.3-2919.3,126.3C3600.6,5017.3,2419.5,5009.7,2377.4,5002z M7689.5,4647.9c245-88.1,440.3-283.3,526.4-526.4c32.5-93.8,36.4-174.2,44-740.8l5.7-637.5H5001.8H1736.1v580c0,635.6,15.3,763.8,107.2,934.2c111,202.9,342.7,371.4,572.4,415.4c59.3,11.5,1073.9,17.2,2632.1,15.3C7521.1,4686.2,7586.1,4686.2,7689.5,4647.9z M8263.8-377.1v-2775.7H4999.9H1736.1v2775.7v2775.7h3263.9h3263.9V-377.1z M8263.8-3966.4v-488.1H4999.9H1736.1v488.1v488.1h3263.9h3263.9V-3966.4z"/><path d="M3751.8,4324.4l-53.6-45.9l-5.7-524.5c-3.8-287.1,0-541.7,5.7-566.6c5.7-23,26.8-59.3,47.9-80.4c36.4-36.4,68.9-38.3,1250-38.3c1190.7,0,1213.7,0,1253.9,38.3c23,21.1,46,59.3,51.7,82.3c5.7,23,9.6,277.6,5.7,564.7l-5.7,524.5l-53.6,45.9l-53.6,45.9H4999.9H3805.4L3751.8,4324.4z M5982,3715.6l3.8-321.6h-985.9h-985.9v312c0,172.3,5.7,319.7,13.4,325.4c5.7,7.7,447.9,11.5,980.1,9.6l968.6-5.7L5982,3715.6z"/><path d="M2511.4,4167.4c-109.1-38.3-254.6-155.1-329.3-264.2c-126.3-183.8-149.3-403.9-63.2-599.2c51.7-116.8,216.3-283.3,342.7-344.6c151.2-74.7,348.4-74.7,503.5-1.9c315.9,147.4,472.8,505.4,358,809.7c-59.3,157-231.6,331.2-386.7,388.6C2808.1,4205.7,2628.1,4209.5,2511.4,4167.4z M2915.3,3819c90-63.2,128.3-158.9,118.7-292.9c-13.4-179.9-109.1-281.4-285.2-296.7c-218.2-21.1-375.2,135.9-354.1,354.1c11.5,116.8,47.9,179.9,147.4,246.9c55.5,38.3,84.2,44,189.5,38.3C2821.5,3864.9,2873.2,3849.6,2915.3,3819z"/><path d="M7094.2,4173.1c-181.9-67-354.1-235.5-417.3-407.8c-63.2-168.4-55.5-317.8,28.7-482.4c120.6-241.2,329.3-377.1,582-377.1c183.8,0,315.9,61.3,457.5,210.6c137.8,145.5,183.8,250.8,183.8,430.7c0,116.8-9.6,164.6-51.7,252.7c-63.2,134-202.9,277.6-331.2,340.7C7431.1,4198,7203.3,4213.3,7094.2,4173.1z M7459.8,3832.4c90-51.7,134-126.3,145.5-252.7c21.1-214.4-137.8-371.4-354.1-350.3c-116.8,11.5-179.9,47.9-246.9,147.4c-38.3,55.5-44,84.2-38.3,189.5c7.6,143.6,53.6,224,153.1,273.7C7210.9,3886,7371.7,3882.2,7459.8,3832.4z"/><path d="M2921,1571.6c-109.1-28.7-248.9-147.4-308.2-262.2c-101.5-193.3-59.3-400.1,111-557.1c157-143.6-11.5-134,2276.1-134c2287.6,0,2119.1-9.6,2276.1,134c170.4,157,212.5,363.7,111,557.1c-63.2,120.6-201,233.5-321.6,264.2C6960.2,1600.3,3022.5,1598.4,2921,1571.6z M7075,1223.2c55.5-49.8,55.5-187.6,1.9-241.2c-38.3-38.3-63.2-38.3-2077-38.3s-2038.7,0-2077,38.3c-26.8,26.8-38.3,63.2-38.3,120.6c0,82.3,28.7,128.3,95.7,153.1c15.3,5.8,934.2,9.6,2040.6,7.7C6971.6,1259.6,7036.7,1257.7,7075,1223.2z"/><path d="M2162.9,264.2c-32.5-13.4-68.9-42.1-80.4-65.1c-15.3-24.9-21.1-482.4-21.1-1474v-1435.7l45.9-53.6l45.9-53.6h2846.6h2846.6l45.9,53.6l46,53.6v1435.7c0,991.6-5.7,1449.1-21.1,1475.9c-51.7,95.7,49.8,91.9-2921.2,91.9C2683.6,291,2214.6,287.1,2162.9,264.2z M3391.9-114.9c74.7-116.8,222.1-116.8,277.6,0l28.7,63.2h321.6h319.7l19.1-45.9c23-61.3,91.9-107.2,158.9-107.2c57.4,0,147.4,74.7,147.4,124.4c0,24.9,45.9,28.7,335,28.7c289,0,335-3.8,335-28.7c0-49.8,90-124.4,147.4-124.4c67,0,135.9,45.9,158.9,107.2l19.2,45.9h325.4c281.4,0,325.4-3.8,325.4-28.7c0-49.8,90-124.4,147.4-124.4c67,0,135.9,45.9,158.9,107.2l19.1,45.9h325.4c281.4,0,325.4-3.8,325.4-28.7c0-17.2,21-51.7,47.9-76.6c65.1-67,149.3-63.2,222,7.7l55.5,55.5v-436.5v-436.5l-55.5,55.5c-59.3,59.3-112.9,68.9-179.9,32.5c-63.2-32.5-88.1-74.6-90-145.5c-1.9-164.6,218.2-216.3,302.5-70.8c17.2,28.7,21.1-63.2,23-407.8v-446l-45.9,51.7c-134,158.9-367.5-45.9-239.3-210.6c53.6-68.9,170.4-70.8,239.3-1.9l47.9,47.9l-5.7-216.3l-5.7-214.4l-233.5-5.7l-233.6-5.7l-28.7,67c-49.8,120.6-170.4,143.6-262.2,51.7c-30.6-30.6-55.5-70.8-55.5-86.1c0-26.8-40.2-30.6-317.8-30.6h-315.9l-19.1,55.5c-23,67-91.9,116.8-160.8,116.8c-55.5,0-162.7-93.8-162.7-141.7c0-26.8-42.1-30.6-321.6-30.6h-321.6l-23,63.2c-51.7,141.7-243.1,141.7-294.8,0l-23-63.2H4508c-279.5,0-321.6,3.8-321.6,30.6c0,47.9-107.2,141.7-162.7,141.7c-68.9,0-137.8-49.8-160.8-116.8l-19.1-55.5h-315.9h-317.8l-11.5,47.9c-15.3,61.3-93.8,124.4-155.1,124.4c-72.7,0-120.6-34.5-151.2-107.2l-28.7-67l-233.5,5.7l-233.5,5.7l-5.7,214.4l-5.8,216.3l47.9-47.9c68.9-68.9,185.7-67,239.3,1.9c128.3,164.6-105.3,369.5-239.3,210.6l-45.9-51.7v446c1.9,333.1,5.7,436.5,23,407.8c80.4-149.3,302.5-93.8,302.5,74.7c0,49.8-13.4,76.6-59.3,114.9c-76.6,65.1-141.7,63.2-210.6-5.7l-55.5-55.5v436.5v436.5l55.5-55.5c72.7-70.8,157-74.7,222.1-7.7c26.8,24.9,47.9,59.4,47.9,76.6c0,24.9,44,28.7,321.6,28.7l319.7-1.9L3391.9-114.9z"/><path d="M2924.8-426.9c-109.1-139.7,34.5-327.4,189.5-246.9c155.1,80.4,99.5,296.7-74.7,296.7C2980.4-377.1,2955.5-388.6,2924.8-426.9z"/><path d="M3908.8-425c-61.3-59.3-61.3-143.6-1.9-212.5c101.5-120.6,296.7-30.6,271.8,124.4C4157.6-379,4002.6-329.3,3908.8-425z"/><path d="M4885.1-425c-99.5-97.6-26.8-266.1,114.9-266.1c55.5,0,82.3,13.4,116.8,53.6c93.8,107.2,24.9,260.3-116.8,260.3C4952.1-377.1,4915.7-392.5,4885.1-425z"/><path d="M5872.8-409.7c-112.9-91.9-42.1-281.4,103.4-281.4c141.7,0,214.4,168.5,114.9,266.1C6035.5-367.6,5932.2-361.8,5872.8-409.7z"/><path d="M6847.2-415.4c-82.3-82.3-63.2-204.8,38.3-258.4c155-80.4,298.6,107.2,189.5,246.9C7025.2-363.7,6906.6-356.1,6847.2-415.4z"/><path d="M3432.1-897.8c-76.6-67-82.3-149.3-21.1-222.1c124.4-147.4,335-5.7,266.1,178c-15.3,36.4-105.3,86.1-158.9,86.1C3497.2-855.7,3458.9-874.9,3432.1-897.8z"/><path d="M4441-874.9c-55.5-23-107.2-124.4-90-178c5.7-23,30.6-61.3,51.7-84.2c84.2-93.8,262.3-26.8,262.3,99.6c0,90-15.3,122.5-78.5,153.1C4525.2-851.9,4502.2-850,4441-874.9z"/><path d="M5421.1-878.7c-61.3-32.5-86.1-74.6-86.1-151.2c0-55.5,11.5-80.4,49.8-111c137.8-107.2,314,23,247,181.9C5595.3-869.1,5501.5-832.7,5421.1-878.7z"/><path d="M6397.4-876.8c-147.4-84.2-95.7-304.4,74.7-304.4c89.9,0,174.2,95.7,156.9,179.9c-7.6,32.5-26.8,74.6-45.9,91.9C6540.9-865.3,6445.2-850,6397.4-876.8z"/><path d="M2932.5-1401.3c-78.5-76.6-63.2-201,30.6-248.9c74.7-40.2,122.5-36.4,178,15.3c76.6,65.1,82.3,147.4,21.1,220.1C3097.1-1336.2,3001.4-1330.4,2932.5-1401.3z"/><path d="M3908.8-1401.3c-90-88.1-45.9-239.3,80.4-269.9c101.5-26.8,216.3,88.1,189.5,189.5C4148.1-1355.3,3996.8-1311.3,3908.8-1401.3z"/><path d="M4885.1-1401.3c-67-65.1-63.2-149.3,7.7-222.1c72.7-72.7,141.7-72.7,214.4,0c107.2,109.1,44.1,269.9-107.2,269.9C4952.1-1353.4,4915.7-1368.7,4885.1-1401.3z"/><path d="M5888.2-1378.3c-40.2-30.6-74.7-97.6-74.7-147.4c0-57.4,101.5-153.1,158.9-153.1c78.5,0,166.5,88.1,166.5,164.6C6138.9-1389.8,5983.9-1305.6,5888.2-1378.3z"/><path d="M6837.6-1414.7c-61.3-72.7-55.5-155,21-220.1c55.5-51.7,103.4-55.5,178-15.3c143.6,72.7,82.3,296.7-82.3,296.7C6904.6-1353.4,6877.8-1366.8,6837.6-1414.7z"/><path d="M3445.5-1868.4c-74.7-45.9-95.7-130.2-55.5-208.7c32.5-63.2,65.1-80.4,153.1-80.4c130.2,0,197.2,174.2,103.4,264.2C3581.4-1833.9,3516.4-1826.3,3445.5-1868.4z"/><path d="M4433.3-1860.7c-65.1-34.5-99.5-126.3-72.7-195.3c26.8-68.9,72.7-99.5,153.1-101.4c88.1,0,151.2,63.2,151.2,155.1c-1.9,78.5-32.5,124.4-103.4,151.2C4496.5-1828.2,4494.6-1828.2,4433.3-1860.7z"/><path d="M5419.2-1858.8c-97.6-42.1-118.7-181.9-40.2-256.5c86.1-80.4,225.9-40.2,268,76.6c21.1,61.3-26.8,151.2-93.8,179.9C5478.5-1828.2,5491.9-1828.2,5419.2-1858.8z"/><path d="M6426.1-1845.4c-170.4-63.2-141.7-312,36.4-312c84.2,0,126.3,24.9,155,95.7c30.6,74.7-1.9,162.7-78.5,201C6481.6-1830.1,6472-1828.2,6426.1-1845.4z"/></g></g>
</svg>