<?xml version="1.0" encoding="utf-8"?>
<!-- Svg Vector Icons : http://www.onlinewebfonts.com/icon -->
<!DOCTYPE svg PUBLIC "-//W3C//DTD SVG 1.1//EN" "http://www.w3.org/Graphics/SVG/1.1/DTD/svg11.dtd">
<svg version="1.1" xmlns="http://www.w3.org/2000/svg" xmlns:xlink="http://www.w3.org/1999/xlink" x="0px" y="0px" viewBox="0 0 1000 1000" enable-background="new 0 0 1000 1000" xml:space="preserve">
<metadata> Svg Vector Icons : http://www.onlinewebfonts.com/icon </metadata>
<g><g transform="translate(0.000000,512.000000) scale(0.100000,-0.100000)"><path d="M2109.8,4974c-40.2-34.5-53.6-61.3-53.6-116.9c0-55.6,13.4-82.4,53.6-116.9l51.7-46H2880h718.5l46,49.8c51.7,55.6,61.3,120.7,24.9,185.8c-46,88.1-44.1,88.1-795.1,90h-712.7L2109.8,4974z"/><path d="M4872.6,4960.6c-26.8-32.6-49.8-78.6-49.8-103.5c0-24.9,23-70.9,49.8-103.5l49.8-59.4h1540.4h1542.3l46,47.9c32.6,30.7,47.9,67.1,47.9,115c0,47.9-15.3,84.3-47.9,115l-46,47.9H6462.8H4922.4L4872.6,4960.6z"/><path d="M1609.8,4474c-120.7-55.6-254.8-187.8-316.1-310.4l-44.1-92V-133.9v-4205.5l44.1-82.4c65.1-120.7,178.2-237.6,295.1-302.7l101.5-55.6h3305h3305l101.5,57.5c134.1,72.8,260.6,214.6,310.4,346.8l38.3,105.4l-3.8,4171l-5.7,4171l-46,92c-61.3,124.5-193.5,254.8-314.2,310.4l-99.6,47.9H4995.2H1709.4L1609.8,4474z M8288.7,4171.2c24.9-11.5,65.1-47.9,86.2-76.6c40.2-53.7,40.2-74.7,46-954.1l5.7-898.6H4995.2H1563.8l5.8,898.6c5.7,879.4,5.7,900.5,46,954.1c21.1,28.7,61.3,65.1,86.2,76.6c36.4,19.2,753,24.9,3293.5,24.9C7535.7,4196.2,8252.3,4190.4,8288.7,4171.2z M8424.7-622.4V-3161H4995.2H1565.7v2538.6v2538.6h3429.5h3429.5V-622.4z M8424.7-3873.8c0-440.7-13.4-496.2-134.1-555.6c-63.2-32.6-260.6-34.5-3295.4-34.5c-3034.8,0-3232.2,1.9-3295.4,34.5c-120.7,59.4-134.1,115-134.1,555.6v387h3429.5h3429.5V-3873.8z"/><path d="M2278.4,3801.5C2037,3680.8,1901,3471.9,1901,3219c0-176.3,57.5-310.4,195.4-446.4c254.8-254.8,605.4-266.3,879.4-26.8c191.6,166.7,266.3,459.8,178.2,693.6c-59.4,157.1-231.8,331.5-387,388.9C2592.6,3893.4,2445.1,3885.8,2278.4,3801.5z M2707.6,3514.1c93.9-44.1,147.5-128.4,157.1-247.2c11.5-130.3-21.1-224.2-101.5-293.1c-115-103.5-323.8-103.5-438.8-1.9c-166.7,145.6-124.5,459.8,74.7,546C2479.6,3552.4,2629,3550.5,2707.6,3514.1z"/><path d="M4018.1,3853.2c-310.4-95.8-538.4-436.8-480.9-722.3c28.7-147.5,99.6-274,210.8-377.4c143.7-134.1,245.2-176.3,433-176.3c138,1.9,166.7,7.7,274,67.1c151.4,80.5,275.9,218.4,329.5,360.2c59.4,155.2,47.9,358.3-28.7,500.1c-74.7,134.1-231.8,275.9-364,325.7C4282.5,3870.4,4112,3881.9,4018.1,3853.2z M4376.4,3494.9c116.9-86.2,159-306.5,86.2-448.3c-70.9-136-275.9-189.7-438.8-115c-228,103.5-226.1,482.8,1.9,586.3C4112,3558.1,4309.3,3544.7,4376.4,3494.9z"/><path d="M5594.9,3830.2c-139.9-53.6-297-203.1-367.9-346.8c-151.3-300.8-17.2-664.8,308.5-841.1c109.2-59.4,136-65.1,274-65.1c187.8,0,289.3,42.2,433,176.3c111.1,103.5,182,229.9,210.8,377.4c38.3,189.7-69,456-235.7,588.2c-126.5,99.6-228,137.9-379.4,145.6C5727.1,3868.5,5671.5,3862.8,5594.9,3830.2z M6004.9,3493c128.4-93.9,170.5-308.5,90-448.3c-46-80.5-180.1-151.4-285.5-151.4c-44.1,0-115,19.2-162.9,44.1c-109.2,55.6-153.3,139.9-153.3,293.1c0,137.9,47.9,228,153.3,281.6C5738.6,3560.1,5932.1,3548.6,6004.9,3493z"/><path d="M7217.7,3828.3c-149.4-57.5-323.8-235.7-381.3-388.9c-115-306.6,28.7-645.7,339.1-798.9c109.2-53.6,147.5-63.2,272.1-63.2c116.9,0,162.9,9.6,249.1,51.7c136,67.1,274,205,341,341c72.8,149.4,72.8,346.8,0,502c-63.2,134.1-203.1,277.8-331.5,341C7570.2,3878.1,7361.4,3885.8,7217.7,3828.3z M7587.5,3517.9c252.9-103.5,237.6-525-21.1-601.6c-172.4-51.7-329.5,0-404.3,132.2c-36.4,63.2-44.1,99.6-36.4,197.3c7.7,136,55.5,218.4,153.3,266.3C7355.6,3550.5,7503.2,3554.3,7587.5,3517.9z"/><path d="M2136.6,1561.7c-61.3-34.5-82.4-97.7-67.1-193.5c15.3-90,76.6-170.5,174.4-228l82.4-47.9h2670.8h2672.7l86.2,55.6c187.8,118.8,235.7,339.1,92,415.8c-78.6,40.2-149.5,21.1-228-59.4l-65.1-67.1H4997.1H2439.4l-69,67.1C2289.9,1582.8,2209.4,1602,2136.6,1561.7z"/><path d="M2385.7,739.8c-195.4-70.9-344.9-205-434.9-394.7L1901,239.7v-1274.1v-1274.1l55.6-111.1c70.9-137.9,226.1-287.4,369.8-354.4l111.1-51.7h2557.8H7553l111.1,51.7c153.3,72.8,302.7,220.3,369.8,365.9l55.6,118.8v1264.5V239.7l-49.8,105.4c-70.9,147.5-185.8,270.2-327.6,346.8L7591.3,757l-2567.4,3.8C2945.2,764.7,2443.2,760.9,2385.7,739.8z M3414.6,393c-99.6-97.7-30.7-277.8,105.4-277.8c76.6,0,172.4,90.1,172.4,162.9c0,30.7-23,72.8-55.6,107.3l-55.6,55.6h427.3h429.2l-46-47.9c-126.5-124.5,26.8-341,180.1-256.7c107.3,61.3,124.5,183.9,36.4,266.3l-42.1,38.3h429.2h429.2l-42.2-38.3c-88.2-82.4-70.9-205,36.4-266.3c153.3-86.2,304.6,128.4,178.2,254.8l-51.7,49.8h433h431.1l-55.6-55.6c-72.8-72.8-72.8-141.8,0-214.6c70.9-70.9,149.4-72.8,220.3-7.7c67.1,61.3,69,164.8,1.9,229.9l-46,47.9H6961H7392l-51.7-46c-111.1-93.9-38.3-279.7,109.2-279.7c122.6,0,195.4,159,120.7,264.4c-15.3,23-23,42.2-17.2,42.2c38.3,0,132.2-74.7,168.6-134.1c42.2-67.1,42.2-70.9,47.9-1270.3c3.8-843-1.9-1226.2-17.2-1281.8c-30.7-115-120.7-197.3-243.3-224.2c-134.1-28.7-4855-30.6-5006.3-1.9c-130.3,24.9-187.8,65.2-243.3,174.3l-42.2,84.3l3.8,1226.2c5.7,1222.4,5.7,1226.2,47.9,1293.3c36.4,59.4,130.3,134.1,168.6,134.1c5.7,0-1.9-19.2-17.2-42.2c-46-65.1-38.3-162.9,17.2-216.5c97.7-99.6,266.3-26.8,266.3,115c0,55.6-13.4,82.4-53.6,116.9l-51.7,46h431.1h431.1L3414.6,393z"/><path d="M2926-95.5c-86.2-86.2-63.2-214.6,46-258.7c159-67.1,289.3,109.2,182,247.2C3104.2-43.8,2985.4-36.2,2926-95.5z"/><path d="M3903.1-95.5c-84.3-84.3-55.6-226.1,57.5-264.4c159-55.6,287.4,147.5,166.7,260.6C4069.8-43.8,3956.8-41.9,3903.1-95.5z"/><path d="M4886-99.4c-57.5-65.1-65.1-105.4-36.4-176.3c36.4-86.2,122.6-116.9,212.7-78.6c153.3,63.2,101.5,297-67.1,297C4947.3-57.2,4912.8-70.6,4886-99.4z"/><path d="M5861.2-101.3c-113.1-120.7,11.5-314.2,168.6-258.7c82.4,28.8,124.5,113,95.8,199.2c-24.9,76.6-67.1,103.5-159,103.5C5924.4-57.2,5888-72.5,5861.2-101.3z"/><path d="M6838.3-101.3c-120.7-128.4,32.6-333.4,187.8-252.9c153.3,78.6,99.6,297-72.8,297C6901.6-57.2,6867.1-70.6,6838.3-101.3z"/><path d="M2475.8-559.2c-61.3-32.6-86.2-74.7-86.2-143.7c0-141.8,172.4-212.7,268.2-111.1C2782.3-681.8,2632.9-473,2475.8-559.2z"/><path d="M3452.9-559.2c-147.5-84.3-93.9-302.7,74.7-302.7c49.8,0,76.6,13.4,115,59.4c65.1,76.6,63.2,141.8-5.7,210.8C3577.4-534.3,3516.1-522.8,3452.9-559.2z"/><path d="M4403.2-586c-145.6-122.6-1.9-333.4,180.1-264.4c36.4,15.3,86.2,105.4,86.2,160.9c0,57.5-101.5,153.3-159,153.3C4483.7-536.2,4435.8-559.2,4403.2-586z"/><path d="M5376.5-591.8c-61.3-63.2-69-111.1-26.8-191.6c70.9-139.9,297-82.4,297,74.7c0,76.6-90,172.4-162.9,172.4C5453.1-536.2,5411-559.2,5376.5-591.8z"/><path d="M6353.6-591.8c-59.4-59.4-69-113-32.6-180.1c32.6-63.2,74.7-88.1,145.6-90.1c166.7-1.9,216.5,224.2,67.1,302.7C6466.6-522.8,6413-532.4,6353.6-591.8z"/><path d="M7344.1-578.4c-76.6-67.1-82.4-149.4-21.1-222.2c124.5-147.5,335.3-5.8,266.3,178.2c-15.4,36.4-105.4,86.2-159,86.2C7409.3-536.2,7371-555.4,7344.1-578.4z"/><path d="M2929.8-1072.7c-90-84.3-69-212.7,42.1-264.4c157.1-76.6,298.9,130.3,174.4,254.8C3088.9-1022.9,2989.2-1019,2929.8-1072.7z"/><path d="M3903.1-1082.2c-126.5-136,23-335.3,187.8-251c65.1,32.6,80.5,65.1,80.5,155.2C4171.4-1047.8,3995.1-984.6,3903.1-1082.2z"/><path d="M4882.2-1080.3c-82.4-88.1-40.2-245.2,72.8-270.1c157.1-34.5,260.6,153.3,149.4,274C5048.8-1017.1,4939.6-1019,4882.2-1080.3z"/><path d="M5868.9-1074.6c-36.4-28.7-49.8-57.5-49.8-103.5c0-90.1,15.3-122.6,80.5-155.2c111.1-57.5,233.8,13.4,233.8,136C6133.3-1057.4,5980-986.5,5868.9-1074.6z"/><path d="M6844.1-1082.2c-126.4-124.5,17.2-331.5,176.3-254.8c28.7,13.4,65.1,49.8,78.5,78.5C7175.5-1099.5,6968.6-955.8,6844.1-1082.2z"/><path d="M2475.8-1536.3c-61.3-34.5-84.3-76.6-86.2-151.3c-1.9-180.1,260.6-208.8,316.1-36.4c19.2,59.4-24.9,151.4-88.1,182C2554.3-1507.6,2527.5-1507.6,2475.8-1536.3z"/><path d="M3481.6-1526.7c-67.1-24.9-115-90.1-115-153.3c0-164.8,224.2-222.2,298.9-78.5c34.5,65.1,21.1,149.4-26.8,193.5C3600.4-1530.6,3521.9-1511.4,3481.6-1526.7z"/><path d="M4447.3-1532.5c-105.4-42.2-134.1-182-55.6-258.7c97.7-99.6,277.8-30.6,277.8,103.5C4669.5-1578.5,4543.1-1492.3,4447.3-1532.5z"/><path d="M5424.4-1532.5c-105.4-42.2-134.1-182-55.6-258.7c97.7-99.6,277.8-30.6,277.8,103.5C5646.6-1578.5,5520.2-1492.3,5424.4-1532.5z"/><path d="M6393.8-1538.2c-151.4-76.6-101.5-300.8,67.1-300.8c92,0,162.8,70.9,162.8,159C6623.7-1568.9,6493.5-1486.5,6393.8-1538.2z"/><path d="M7371-1538.2c-153.3-76.6-97.7-300.8,72.8-300.8c153.3,0,216.5,176.3,97.7,275.9C7476.3-1507.6,7441.9-1501.8,7371-1538.2z"/><path d="M2924.1-2067c-32.6-34.5-55.6-76.6-55.6-107.3c0-72.8,95.8-162.9,172.4-162.9c136,0,205,180.1,105.4,277.8C3081.2-1992.3,2996.9-1996.2,2924.1-2067z"/><path d="M3910.8-2057.5c-111.1-93.9-38.3-279.7,109.2-279.7c82.4,0,151.4,74.7,151.4,162.9C4171.4-2032.5,4018.1-1963.6,3910.8-2057.5z"/><path d="M4889.8-2055.5c-109.2-93.9-38.3-281.7,107.3-281.7c141.8,0,208.8,185.8,101.6,283.6C5037.4-2000,4953.1-2000,4889.8-2055.5z"/><path d="M5867-2059.4c-99.6-97.7-30.6-277.8,103.5-277.8c88.1,0,162.9,74.7,162.9,162.9C6133.3-2032.5,5964.7-1959.7,5867-2059.4z"/><path d="M6844.1-2059.4c-99.6-97.7-30.6-277.8,105.4-277.8c76.7,0,172.4,90,172.4,162.9c0,30.7-23,72.8-55.6,107.3C6993.5-1996.2,6909.2-1992.3,6844.1-2059.4z"/></g></g>
</svg>