<?xml version="1.0" encoding="utf-8"?>
<!-- Svg Vector Icons : http://www.onlinewebfonts.com/icon -->
<!DOCTYPE svg PUBLIC "-//W3C//DTD SVG 1.1//EN" "http://www.w3.org/Graphics/SVG/1.1/DTD/svg11.dtd">
<svg version="1.1" xmlns="http://www.w3.org/2000/svg" xmlns:xlink="http://www.w3.org/1999/xlink" x="0px" y="0px" viewBox="0 0 1000 1000" enable-background="new 0 0 1000 1000" xml:space="preserve">
<metadata> Svg Vector Icons : http://www.onlinewebfonts.com/icon </metadata>
<g><g transform="translate(0.000000,358.000000) scale(0.100000,-0.100000)"><path d="M1307.8,1976.3c-258.4-68.9-507.2-281.4-629.7-535.9l-70.8-151.2l-5.7-853.7l-5.7-855.6l-124.4-80.4C234-653.6,82.8-940.7,105.7-1189.6c11.5-137.8,80.4-294.8,174.2-396.2c38.3-42.1,68.9-90,68.9-103.4c0-15.3-57.4-134-124.4-266L100-2192.5v-696.7c0-461.3,7.7-708.2,21.1-735c11.5-21,49.8-49.8,86.1-65.1l65.1-26.8v-564.6v-564.7H479h206.7l325.4,570.4l325.4,568.5H5000h3663.5l325.4-570.4l325.4-568.5H9521h206.7v564.7v564.6l65.1,26.8c36.4,15.3,74.6,44,86.1,65.1c13.4,26.8,21,273.7,21,735v696.7l-124.4,237.4c-67,132.1-124.4,250.7-124.4,266c0,13.4,30.6,61.3,68.9,103.4c93.8,101.4,162.7,258.4,174.2,396.2c23,248.8-128.2,535.9-365.6,689.1l-124.4,80.4l-5.7,855.6l-5.7,857.5l-80.4,162.7c-130.2,260.3-361.7,451.7-627.8,522.5c-99.5,24.9-535.9,28.7-3694.1,26.8C1926,2005,1395.8,2001.2,1307.8,1976.3z M8755.4,1618.4c132.1-65.1,231.6-174.2,283.3-313.9c36.4-97.6,38.3-149.3,38.3-872.8v-771.4l-137.8,23c-363.7,61.2-838.4,49.8-1209.7-30.6c-95.7-21.1-398.1-112.9-671.8-204.8l-495.8-164.6l-101.4-101.5c-72.7-70.8-107.2-124.4-124.4-187.6l-23-88.1H5000H3687l-23,88.1c-17.2,63.2-51.7,116.8-124.4,189.5l-101.5,99.5l-526.4,174.2c-671.8,224-851.8,258.4-1337.9,258.4c-224,0-407.7-11.5-501.5-28.7L923-339.7v769.5c0,725.4,1.9,777.1,38.3,874.7c68.9,181.8,218.2,312,409.6,359.9c32.5,7.7,1682.5,11.5,3667.3,11.5l3608-3.8L8755.4,1618.4z M2195.9-670.8c206.7-47.9,1079.5-336.9,1131.2-373.2c44-32.5,44-153.1,0-201c-38.3-42.1-421.1-153.1-763.7-222c-352.2-70.8-717.8-105.3-1123.6-105.3c-426.8,0-650.8,23-767.5,74.6c-302.4,135.9-333,555.1-51.7,717.8c72.7,42.1,411.5,128.3,589.5,151.2c36.4,5.8,235.4,7.7,440.2,3.8C1947.1-628.7,2058.1-638.3,2195.9-670.8z M9067.4-680.4c126.3-28.7,266.1-74.6,312-99.5c157-91.9,227.8-275.6,178-461.3c-47.9-178-202.9-281.4-474.7-312c-222-24.9-826.9-24.9-1089.1,1.9c-459.4,45.9-1249.9,227.8-1318.8,304.3c-45.9,51.7-45.9,170.3,0,202.9c19.1,15.3,256.5,99.5,524.5,187.6c423,139.7,574.2,181.8,844.1,229.7c26.8,3.8,216.3,5.8,421.1,3.8C8793.7-626.8,8864.5-634.5,9067.4-680.4z M6447-1478.6c78.5-82.3,158.9-120.6,430.7-197.1c300.5-86.1,647-155,976.2-195.2c417.3-51.7,1324.5-40.2,1471.9,19.1c23,9.6,44-15.3,82.3-93.8c28.7-57.4,51.7-111,51.7-114.8c0-5.7-2005.9-9.6-4459.8-9.6c-2453.8,0-4459.8,3.8-4459.8,9.6c0,3.8,23,57.4,51.7,114.8c36.4,74.6,61.2,103.3,80.4,95.7c158.9-61.3,1048.9-74.7,1473.8-21.1c327.3,40.2,675.7,109.1,976.2,195.2c271.8,76.6,352.2,114.8,430.7,197.1l57.4,59.3H5000h1389.6L6447-1478.6z M9574.6-2883.5v-488.1H5000H425.4v488.1v488.1H5000h4574.6V-2883.5z M936.5-3739.1c-5.7-13.4-84.2-153.1-174.2-312l-164.6-287.1v312v310.1h174.2C903.9-3716.1,944.1-3721.9,936.5-3739.1z M9402.3-4026.2v-312l-164.6,287.1c-91.9,157-170.4,296.7-174.2,310.1c-7.6,19.1,30.6,24.9,164.6,24.9h174.2V-4026.2z"/></g></g>
</svg>