<?xml version="1.0" encoding="utf-8"?>
<!-- Svg Vector Icons : http://www.onlinewebfonts.com/icon -->
<!DOCTYPE svg PUBLIC "-//W3C//DTD SVG 1.1//EN" "http://www.w3.org/Graphics/SVG/1.1/DTD/svg11.dtd">
<svg version="1.1" xmlns="http://www.w3.org/2000/svg" xmlns:xlink="http://www.w3.org/1999/xlink" x="0px" y="0px" viewBox="0 0 1000 1000" enable-background="new 0 0 1000 1000" xml:space="preserve">
<metadata> Svg Vector Icons : http://www.onlinewebfonts.com/icon </metadata>
<g><g transform="translate(0.000000,349.000000) scale(0.100000,-0.100000)"><path d="M1880.1,1789.8c-114.8-51.7-204.8-141.6-260.3-256.5c-44-91.9-45.9-112.9-45.9-549.3V528.5h-357.9h-356l-356-348.4c-195.2-193.3-365.6-363.7-379-379c-19.1-23-23-430.7-24.9-1881.5v-1852.8l47.9-45.9l45.9-47.9h748.4c612.5,0,746.5-3.8,746.5-24.9c0-15.3-24.9-155-57.4-310.1c-70.8-350.3-70.8-380.9-7.7-440.2c47.9-45.9,65.1-47.9,269.9-47.9h218.2l423,411.5l424.9,411.5h2210.8h2210.7l413.4-411.5L8208-4850h225.9c212.5,0,225.8,1.9,269.9,47.9c61.3,59.3,61.3,93.8-9.6,440.2c-32.5,155-57.4,294.8-57.4,310.1c0,21.1,107.2,24.9,583.8,24.9h585.7l45.9,47.9l47.9,45.9v1854.7v1854.7l-359.8,357.9c-199.1,197.2-373.2,367.5-388.5,377.1c-15.3,9.6-183.8,17.2-375.2,17.2h-350.3V984c0,415.4-3.8,461.3-40.2,539.8c-51.7,114.8-141.7,204.8-256.5,260.3l-95.7,45.9H5000C1991.1,1830,1966.2,1828.1,1880.1,1789.8z M8062.5,1466.4c38.3-38.3,38.3-63.2,38.3-1550.4v-1512.1H6751.4c-1313,0-1351.3-1.9-1452.8-40.2c-57.4-21.1-149.3-78.5-202.9-124.4l-95.7-88.1l-95.7,88.1c-53.6,45.9-145.5,103.3-202.9,124.4c-101.4,38.3-139.7,40.2-1452.8,40.2H1899.2V-84c0,1487.2,0,1512.1,38.3,1550.4c38.3,38.3,63.2,38.3,3062.5,38.3C7999.3,1504.6,8024.2,1504.6,8062.5,1466.4z M1171.9,40.4l-162.7-162.7H836.9H664.6L827.3,40.4L990,203.1h172.3h172.3L1171.9,40.4z M9172.7,40.4l162.7-162.7h-172.3h-172.3L8828.1,40.4l-162.7,162.7h172.3H9010L9172.7,40.4z M1573.8-857.3v-813.5l-147.4-72.7c-82.3-40.2-155-74.6-162.7-78.5c-9.6-3.8-15.3,327.3-15.3,735v744.6L1395.8-195c82.3,82.3,155,149.3,162.7,149.3C1568.1-45.7,1573.8-411.3,1573.8-857.3z M8602.3-193.1l149.3-149.3v-742.7c0-409.6-5.7-740.7-13.4-736.9c-9.6,3.8-82.3,38.3-162.7,78.5l-149.3,72.7v813.5c0,446,5.7,811.6,13.4,811.6C8447.2-45.7,8521.9-112.7,8602.3-193.1z M913.5-1758.8c0-715.9,1.9-1316.9,5.7-1336c1.9-19.1,24.9-55.5,51.7-80.4l45.9-47.9H5000h3983.2l45.9,47.9c26.8,24.9,49.8,61.3,51.7,80.4c3.8,19.1,5.7,620.1,5.7,1336v1301.6l245,5.7l243.1,5.7v-1628.9v-1627H5000H425.4v1627v1628.9l245-5.7l243.1-5.7V-1758.8z M4678.4-1975.1c130.2-80.4,149.3-155,149.3-564.6v-357.9H3038.1H1248.4v321.6v321.6l53.6,49.8c70.8,65.1,206.7,153.1,304.3,195.2c187.6,82.3,239.3,84.2,1651.8,82.3l1349.4-3.8L4678.4-1975.1z M8192.7-1950.2c72.7-15.3,157-38.3,187.6-51.7c86.1-36.4,260.3-147.4,319.7-202.9l51.7-49.8v-321.6v-321.6H6961.9H5172.3v357.9c0,321.6,3.8,365.6,38.3,438.3c40.2,82.3,101.4,135.9,189.5,160.8c26.8,9.6,637.4,17.2,1355.1,17.2C7829-1921.5,8083.5-1927.3,8192.7-1950.2z M2224.6-4285.4c-214.4-216.3-287.1-271.8-287.1-222c0,21,76.6,405.8,86.1,438.3c5.7,17.2,68.9,23,224,23h216.3L2224.6-4285.4z M8343.9-4266.2c23-114.8,42.1-222,44-233.5c1.9-59.3-63.2-9.6-287.1,214.4l-239.3,241.2l220.1-5.7l218.2-5.7L8343.9-4266.2z"/><path d="M2310.7,1156.3c-80.4-45.9-84.2-67-86.1-470.8c0-386.6,0-388.6,47.9-434.5l45.9-47.9H5000h2681.6l45.9,47.9c47.9,45.9,47.9,47.9,47.9,434.5c-1.9,405.8-5.7,426.8-90,470.8C7626.1,1188.8,2366.2,1188.8,2310.7,1156.3z M7450,691.2V528.5H5000H2550v162.7v162.7h2450h2450V691.2z"/><path d="M2272.5-342.4c-47.9-45.9-47.9-47.9-47.9-428.8c0-377.1,0-382.8,45.9-436.4l45.9-53.6H5000h2683.5l45.9,53.6c45.9,53.6,45.9,59.3,45.9,436.4c0,380.9,0,382.8-47.9,428.8l-45.9,47.9H5000H2318.4L2272.5-342.4z M7450-782.7v-162.7H5000H2550v162.7V-620h2450h2450V-782.7z"/></g></g>
</svg>