<?xml version="1.0" encoding="utf-8"?>
<!-- Svg Vector Icons : http://www.onlinewebfonts.com/icon -->
<!DOCTYPE svg PUBLIC "-//W3C//DTD SVG 1.1//EN" "http://www.w3.org/Graphics/SVG/1.1/DTD/svg11.dtd">
<svg version="1.1" xmlns="http://www.w3.org/2000/svg" xmlns:xlink="http://www.w3.org/1999/xlink" x="0px" y="0px" viewBox="0 0 1000 1000" enable-background="new 0 0 1000 1000" xml:space="preserve">
<metadata> Svg Vector Icons : http://www.onlinewebfonts.com/icon </metadata>
<g><g transform="translate(0.000000,341.000000) scale(0.100000,-0.100000)"><path d="M2504.5,1642.9c-476.7-72.7-945.7-314-1317.1-672C735.6,532.5,477.1-9.3,431.2-618.1l-13.4-174.2l-91.9-59.3c-109.1-72.8-202.9-206.8-218.2-315.9c-7.7-42.1-9.6-281.4-5.7-530.3l5.7-453.7l59.4-74.7l59.4-72.7l-55.5-99.6c-107.2-189.5-88.1-402,51.7-585.8l65.1-84.2l-44-42.1c-63.2-59.3-126.4-197.2-139.8-304.4c-34.5-291,252.7-616.5,543.7-616.5H749v-356.1v-356.1l55.5-55.5l55.5-55.5h298.7c281.4,0,298.7,1.9,344.6,44c30.6,26.8,97.6,168.5,195.3,411.6l145.5,367.6h3155h3155l145.5-367.6c97.6-243.1,164.6-384.8,195.3-413.5c46-40.2,63.2-42.1,344.6-42.1H9138l55.5,55.5l55.5,55.5v356.1v356.1h101.4c291,0,578.2,325.4,543.7,616.5c-13.4,107.2-76.6,245-139.7,304.4l-44.1,42.1l65.1,84.2c141.7,183.8,158.9,396.3,49.8,589.6c-51.7,90-53.6,105.3-28.7,126.3c17.2,13.4,46,57.4,67,95.7c32.5,67,36.4,116.8,36.4,528.4c0,250.8-7.7,484.3-19.1,520.7c-28.7,101.5-111.1,206.8-210.6,271.9l-90,59.3l-13.4,174.2c-46,608.8-304.4,1150.6-756.2,1589c-377.1,365.7-842.4,599.2-1336.3,673.9C7208.3,1685,2764.9,1685,2504.5,1642.9z M7449.5,1319.3c457.6-68.9,857.6-269.9,1179.3-591.6c239.3-239.3,405.8-513.1,516.9-850c59.3-185.7,59.3-199.1-3.8-176.1c-72.8,28.7-93.8,24.9-158.9-30.6c-76.6-63.2-82.3-158.9-11.5-227.8c57.4-59.4,164.6-65.1,218.3-11.5c36.3,36.4,36.3,34.5,47.9-21.1c5.7-32.5,11.5-88.1,11.5-122.5V-777l-243.2-3.8c-135.9-1.9-296.7-1.9-359.9,0c-109.1,5.7-120.6,1.9-176.2-57.4C8437.4-872.7,8355-932,8290-968.4c-231.7-128.3-495.8-442.2-587.8-693c-28.7-80.4-38.3-91.9-86.2-91.9c-65.1,0-166.5-91.9-166.5-153.2c0-49.8,34.4-116.8,74.7-147.4c24.9-19.1-57.4-23-404-24.9h-432.7l55.5,55.5c32.5,34.5,55.5,76.6,55.5,107.2c0,70.8-95.7,162.7-168.5,162.7c-137.8,0-208.7-180-109.1-277.6l45.9-47.9h-430.7h-430.8l51.7,45.9c111,93.8,38.3,279.5-109.1,279.5c-82.3,0-151.2-74.7-151.2-162.7c0-47.9,15.3-84.2,47.9-114.9l45.9-47.9h-428.8h-428.8l45.9,47.9c99.6,97.6,30.6,277.6-103.4,277.6c-147.4,0-220.2-185.7-109.1-279.5l51.7-45.9h-430.7h-430.7l45.9,47.9c65.1,63.2,65.1,166.6,0,229.7c-65.1,67-149.3,63.2-222.1-7.7c-72.7-72.8-72.7-141.7,0-214.4l55.5-55.5h-430.7h-432.7l51.7,49.8c103.4,105.3,26.8,275.7-124.4,275.7c-51.7,0-151.2-101.5-151.2-153.2c0-49.8,32.5-114.9,74.7-147.4c24.9-21.1,5.7-24.9-103.4-19.1l-134,3.8l-15.3,120.6c-7.7,65.1-34.5,172.3-57.4,239.3l-44,118.7l53.6,44c137.8,114.9,1.9,333.1-162.7,266.1c-61.3-24.9-61.3-23-187.6,103.4c-112.9,113-122.5,130.2-99.5,162.7c38.3,51.7,30.6,112.9-24.9,178c-67,80.4-162.7,82.3-233.6,5.8l-49.8-55.5l-135.9,49.8c-112.9,40.2-178,47.9-409.7,55.5l-273.8,7.7l11.5,157c28.7,329.3,114.9,620.3,266.1,888.3c72.8,130.2,111,162.7,137.8,118.7c5.7-9.6,42.1-19.1,78.5-19.1c137.8,0,216.3,174.2,120.6,269.9l-40.2,40.2l46,47.9c23,26.8,86.1,82.3,135.9,124.4c90,76.6,91.9,76.6,130.2,42.1c53.6-47.9,160.8-44,214.4,7.7c30.6,32.5,42.1,65.1,40.2,128.3l-1.9,84.2l135.9,55.5c180,76.6,331.2,118.7,518.8,149.3C2780.2,1357.6,7200.6,1357.6,7449.5,1319.3z M1250.6-1131.1c394.4-82.3,698.8-384.8,779.2-771.5c40.2-197.2,134-176.1-792.6-176.1H423.5v446.1c0,371.4,5.7,451.8,30.6,488.2c28.7,40.2,40.2,42.1,348.4,42.1C1005.5-1102.4,1170.2-1113.9,1250.6-1131.1z M9543.9-1144.5c24.9-36.4,30.6-116.8,30.6-488.2v-446.1h-813.6h-813.6v44c0,88.1,61.3,291,118.7,403.9c82.3,155.1,266.1,335,419.3,411.6c183.8,90,327.4,112.9,700.7,114.9C9505.6-1102.4,9515.2-1104.3,9543.9-1144.5z M9453.9-2436.8c135.9-63.2,162.7-289.1,45.9-392.5l-59.3-53.6H4999H557.5l-59.4,53.6c-114.9,103.4-90,338.9,44,396.3c53.6,23,693,26.8,4453,28.7C9061.5-2404.2,9392.7-2406.2,9453.9-2436.8z M9507.5-3290.6c86.2-99.6,80.4-285.3-11.5-369.5c-40.2-36.4-137.9-36.4-4468.3-42.1c-2862.1-1.9-4445.3,1.9-4477.9,15.3c-65.1,24.9-126.4,126.3-126.4,210.6c0,88.1,55.5,193.3,114.9,224c38.3,19.1,961,23,4485.5,19.1l4439.6-3.8L9507.5-3290.6z M1468.8-4083.2c-7.7-19.2-49.8-126.3-93.8-239.3l-80.4-206.8h-109.1h-111v239.3v239.3h202.9C1463.1-4050.6,1480.3-4054.5,1468.8-4083.2z M8923.6-4290v-239.3h-109.2h-111l-80.4,206.8c-44,113-86.1,220.2-93.8,239.3c-11.5,28.7,5.7,32.5,191.4,32.5h202.9V-4290z"/><path d="M2596.4,1127.9c-61.3-59.4-61.3-143.6-1.9-212.5c93.8-111,279.5-38.3,279.5,109.1C2874,1158.5,2694.1,1227.4,2596.4,1127.9z"/><path d="M3582.4,1137.5c-82.3-82.3-63.2-204.8,38.3-258.4c155.1-80.4,298.7,107.2,189.5,247C3760.4,1189.2,3641.7,1196.8,3582.4,1137.5z"/><path d="M4572.1,1152.8c-93.8-72.7-68.9-241.2,42.1-279.5c68.9-24.9,145.5-3.8,185.7,49.8c42.1,53.6,32.5,164.6-17.2,210.6C4732.9,1181.5,4623.8,1191.1,4572.1,1152.8z"/><path d="M5538.9,1131.7c-113-120.6,11.5-314,168.5-258.5c82.3,28.7,124.4,113,95.7,199.1c-24.9,76.6-67,103.4-158.9,103.4C5602.1,1175.8,5565.7,1160.4,5538.9,1131.7z"/><path d="M6513.4,1126c-86.2-109.1-15.3-264.2,120.6-264.2c97.6,0,155.1,59.3,155.1,162.7c0,99.5-57.4,151.2-162.7,151.2C6568.9,1175.8,6544,1164.3,6513.4,1126z"/><path d="M7497.4,1127.9c-61.3-59.4-61.3-143.6-1.9-212.5c93.8-111,279.5-38.3,279.5,109.1C7775,1158.5,7595,1227.4,7497.4,1127.9z"/><path d="M2117.8,653.1c-158.9-135.9,42.1-371.4,208.7-241.2c38.3,30.6,49.8,55.5,49.8,112.9c0,91.9-47.9,151.2-135.9,164.6C2186.7,699.1,2161.8,691.4,2117.8,653.1z"/><path d="M3132.5,674.2c-61.3-32.5-86.2-74.7-86.2-151.2c0-135.9,155.1-197.2,260.4-105.3C3446.4,536.3,3293.3,764.2,3132.5,674.2z"/><path d="M4108.8,674.2c-145.5-84.2-93.8-304.4,70.8-302.5c70.8,1.9,112.9,26.8,145.5,90c36.4,67,26.8,120.6-32.5,180C4233.3,699.1,4172,710.5,4108.8,674.2z"/><path d="M5054.6,641.6c-70.8-72.8-74.7-157-7.6-222.1c97.6-99.6,277.6-30.6,277.6,105.3c0,76.6-90,172.3-162.7,172.3C5131.1,697.1,5089,674.2,5054.6,641.6z"/><path d="M6030.9,641.6c-69-68.9-70.9-134-5.8-210.6c122.5-145.5,333.1-1.9,264.2,180c-15.3,36.4-105.3,86.1-160.8,86.1C6105.6,697.1,6061.6,672.3,6030.9,641.6z"/><path d="M7018.8,653.1c-158.9-135.9,42.1-371.4,208.7-241.2c38.3,30.6,49.8,55.5,49.8,112.9c0,91.9-47.9,151.2-135.9,164.6C7087.7,699.1,7062.8,691.4,7018.8,653.1z"/><path d="M8033.4,674.2c-99.6-53.6-118.7-176.1-38.3-254.6c59.3-61.3,143.6-61.3,212.5-1.9C8347.4,536.3,8194.2,764.2,8033.4,674.2z"/><path d="M1620.1,151.5c-70.8-68.9-65.1-164.6,13.4-229.7c72.7-61.3,155.1-55.5,222.1,21.1c49.8,55.5,53.6,103.4,13.4,178C1821.1,214.7,1696.6,230,1620.1,151.5z"/><path d="M2596.4,151.5c-67-65.1-63.2-149.3,7.7-222.1c72.8-72.7,141.7-72.7,214.4,0c70.8,72.8,74.7,157,7.7,222.1C2763,216.6,2659.6,216.6,2596.4,151.5z"/><path d="M3582.4,161.1c-86.1-86.2-63.2-212.5,45.9-264.2c157-76.6,298.7,130.2,174.2,254.6C3743.2,210.9,3637.9,216.6,3582.4,161.1z"/><path d="M4564.5,157.3c-59.3-65.1-68.9-120.6-34.5-187.6c78.5-153.2,296.7-99.6,296.7,72.7C4826.7,184.1,4656.4,256.8,4564.5,157.3z"/><path d="M5546.6,159.2c-38.3-30.6-49.8-55.5-49.8-114.9c0-174.2,216.3-229.7,296.7-74.7C5873.9,124.7,5686.3,268.3,5546.6,159.2z"/><path d="M6521,151.5c-70.9-68.9-65.1-164.6,13.4-229.7c72.8-61.3,155.1-55.5,222.1,21.1c49.8,55.5,53.6,103.4,13.4,178C6722,214.7,6597.6,230,6521,151.5z"/><path d="M7497.4,151.5c-67-65.1-63.2-149.3,7.7-222.1c72.7-72.7,141.6-72.7,214.4,0c70.8,72.8,74.7,157,7.7,222.1C7663.9,216.6,7560.5,216.6,7497.4,151.5z"/><path d="M8483.3,161.1c-86.2-86.2-63.2-212.5,45.9-264.2c157-76.6,298.7,130.2,174.2,254.6C8644.1,210.9,8538.8,216.6,8483.3,161.1z"/><path d="M1170.2-304.1c-151.2-76.6-101.5-300.6,67-300.6c153.2,0,220.2,178,103.4,275.7C1275.5-273.5,1241-267.7,1170.2-304.1z"/><path d="M2144.6-307.9c-145.5-78.5-88.1-296.7,78.5-296.7c88.1,0,153.2,63.2,153.2,147.4c0,86.1-17.2,118.7-78.5,149.3C2232.7-273.5,2207.8-273.5,2144.6-307.9z"/><path d="M3132.5-302.2c-61.3-32.5-86.2-74.7-86.2-149.3c0-189.5,258.4-208.7,314-24.9c17.2,55.5-30.6,145.5-93.8,174.2C3205.2-273.5,3182.2-273.5,3132.5-302.2z"/><path d="M4083.9-327.1c-147.4-124.4-5.7-335,178-266.1c36.4,15.3,86.1,105.3,86.1,158.9c0,55.5-76.6,134-145.5,147.4C4156.7-279.2,4131.8-286.9,4083.9-327.1z"/><path d="M5102.4-298.4c-105.3-42.1-134-181.9-55.5-258.4c97.6-99.6,277.6-30.6,277.6,103.4C5324.5-344.3,5198.1-258.2,5102.4-298.4z"/><path d="M6071.1-304.1c-149.3-74.7-97.7-300.6,67-300.6c153.2,0,220.2,178,103.4,275.7C6176.4-273.5,6141.9-267.7,6071.1-304.1z"/><path d="M7045.6-307.9c-145.5-78.5-88.1-296.7,78.5-296.7c88.1,0,153.2,63.2,153.2,147.4c0,86.1-17.2,118.7-78.5,149.3C7133.6-273.5,7108.7-273.5,7045.6-307.9z"/><path d="M8033.4-302.2c-61.3-32.5-86.2-74.7-86.2-149.3c0-189.5,258.4-208.7,314-24.9c17.2,55.5-30.7,145.5-93.8,174.2C8106.2-273.5,8083.2-273.5,8033.4-302.2z"/><path d="M2596.4-826.7c-65.1-70.8-63.2-149.3,7.7-220.2c72.8-72.7,141.7-72.7,214.4,0c70.8,72.8,74.7,157,7.7,222.1C2761.1-757.8,2657.7-759.7,2596.4-826.7z"/><path d="M3574.7-836.3c-65.1-76.6-63.2-141.7,5.7-210.6c63.2-61.3,111-68.9,191.4-26.8c143.6,72.7,82.3,296.7-82.3,296.7C3639.8-777,3613-790.4,3574.7-836.3z"/><path d="M4566.4-822.9c-111-93.8-38.3-279.5,109.1-279.5c137.8,0,208.7,201,101.5,285.2C4710-763.6,4631.5-765.5,4566.4-822.9z"/><path d="M5544.7-824.8c-95.7-93.8-46-248.9,88.1-269.9c155.1-24.9,245,170.4,124.4,271.9C5688.2-763.6,5604-763.6,5544.7-824.8z"/><path d="M6521-824.8c-103.4-103.4-24.9-277.6,124.4-277.6c57.4,0,153.2,101.5,153.2,158.9c0,26.8-23,74.7-49.8,107.2C6685.7-759.7,6589.9-754,6521-824.8z"/><path d="M7497.4-826.7c-65.1-70.8-63.2-149.3,7.7-220.2c72.7-72.7,141.6-72.7,214.4,0c70.8,72.8,74.7,157,7.7,222.1C7662-757.8,7558.6-759.7,7497.4-826.7z"/><path d="M3161.2-1269c-170.4-63.2-141.7-312.1,36.4-312.1c84.2,0,126.4,24.9,155.1,95.7c32.5,80.4-3.8,168.5-88.1,202.9c-36.4,15.3-67,26.8-68.9,24.9C3191.8-1257.5,3176.5-1263.2,3161.2-1269z"/><path d="M4126.1-1274.7c-158.9-63.2-120.6-306.3,47.9-306.3c88.1,0,149.3,42.1,164.6,111c17.2,82.3-19.1,155.1-95.7,185.7c-36.4,15.3-68.9,28.7-70.8,26.8C4168.2-1257.5,4147.1-1265.2,4126.1-1274.7z"/><path d="M5102.4-1274.7c-168.5-68.9-114.9-306.3,67-306.3c135.9,0,204.9,153.2,112.9,256.5C5232.6-1269,5161.8-1249.8,5102.4-1274.7z"/><path d="M6074.9-1284.3c-70.8-30.6-107.2-105.3-90-185.7c26.8-114.9,202.9-155.1,275.7-61.3C6369.8-1393.4,6235.8-1215.4,6074.9-1284.3z"/><path d="M7057.1-1282.4c-80.4-34.5-113-111-86.2-195.3c57.4-170.4,306.3-126.4,306.3,51.7C7277.2-1309.2,7162.4-1236.4,7057.1-1282.4z"/></g></g>
</svg>