<?xml version="1.0" encoding="utf-8"?>
<!-- Svg Vector Icons : http://www.onlinewebfonts.com/icon -->
<!DOCTYPE svg PUBLIC "-//W3C//DTD SVG 1.1//EN" "http://www.w3.org/Graphics/SVG/1.1/DTD/svg11.dtd">
<svg version="1.1" xmlns="http://www.w3.org/2000/svg" xmlns:xlink="http://www.w3.org/1999/xlink" x="0px" y="0px" viewBox="0 0 1000 1000" enable-background="new 0 0 1000 1000" xml:space="preserve">
<metadata> Svg Vector Icons : http://www.onlinewebfonts.com/icon </metadata>
<g><g transform="translate(0.000000,324.000000) scale(0.100000,-0.100000)"><path d="M2425.6,1320.4c-290.9-42.1-627.8-172.3-890-346.5c-151.2-99.5-423-357.9-526.4-499.6c-70.8-97.6-82.3-105.3-187.6-124.4C580.4,304,320.1,129.9,207.2-63.5C145.9-168.7,100-329.5,100-438.6c0-271.8,168.4-578.1,403.9-729.3l93.8-61.2v-924.5c0-882.4,1.9-928.3,40.2-1052.7c53.6-178,134-313.9,269.9-459.4c126.3-134,277.5-241.2,405.8-289l86.1-32.5l5.7-390.4l5.7-390.5l53.6-45.9c51.7-44,65.1-45.9,346.5-45.9c264.1,0,298.6,3.8,342.6,38.3c34.5,26.8,91.9,147.4,197.2,411.5l149.3,373.2H5000h2499.8l149.3-373.2c105.3-264.1,162.7-384.7,197.1-411.5c44-34.5,78.5-38.3,342.6-38.3c281.4,0,294.8,1.9,346.5,45.9l53.6,45.9l5.7,394.3c3.8,254.6,13.4,394.3,24.9,394.3c11.5,0,78.5,28.7,147.4,63.2c176.1,84.2,430.7,338.8,514.9,511.1c118.7,243.1,120.6,260.3,120.6,1263.3v913l93.8,61.2c235.4,151.2,403.9,457.5,403.9,729.3c0,361.8-319.6,713.9-713.9,786.7c-103.4,19.1-128.2,32.5-155,78.5c-55.5,91.9-350.3,390.5-486.2,491.9c-176.1,130.2-382.8,237.3-587.6,306.2c-361.8,120.6-268,116.8-2964.9,114.8C3644.8,1337.6,2488.7,1330,2425.6,1320.4z M7591.6,987.3c396.2-68.9,689.1-223.9,974.2-513c80.4-82.3,147.4-157,147.4-164.6c0-7.7-28.7-26.8-63.2-44c-61.3-28.7-65.1-28.7-82.3,9.6c-24.9,59.3-105.3,97.6-166.5,82.3c-124.4-30.6-168.4-166.5-88.1-268l40.2-49.8L8296-32.8c-158.9-201-195.2-352.2-195.2-811.6v-357.9l-47.9,45.9c-124.4,126.3-340.7-26.8-256.5-179.9c61.3-107.2,183.8-124.4,266.1-36.4l38.3,42.1v-137.8v-139.7l-70.8,49.8c-97.6,65.1-292.9,124.4-417.3,124.4c-147.4,0-333.1-63.2-465.1-160.8c-340.7-252.7-446-696.7-243.1-1033.6l65.1-107.2h-172.3c-130.2,0-170.4,5.7-170.4,26.8c0,13.4-17.2,47.9-40.2,76.6c-28.7,36.4-57.4,49.8-105.3,49.8c-90,0-132.1-24.9-160.8-95.7l-23-57.4h-323.5c-279.5,0-323.5,3.8-323.5,28.7c0,57.4-90,124.4-162.7,124.4s-162.7-67-162.7-124.4c0-24.9-44-28.7-325.4-28.7h-325.4l-11.5,47.9c-26.8,109.1-183.8,141.6-266.1,57.4c-26.8-24.9-47.9-59.3-47.9-76.6c0-24.9-44-28.7-323.5-28.7h-323.5l-23,57.4c-28.7,70.8-70.8,95.7-155,95.7c-70.8,0-151.2-63.2-151.2-118.7c0-30.6-19.1-34.4-172.3-34.4h-174.2l49.8,72.7c65.1,95.7,124.4,290.9,124.4,415.4c0,419.2-394.3,813.5-813.5,813.5c-124.4,0-319.7-59.3-415.4-124.4l-72.7-49.8v139.7v137.8l38.3-42.1c82.3-88.1,204.8-70.8,266.1,36.4c84.2,151.2-132.1,306.3-256.5,181.8l-44-44l-7.7,403.9c-7.7,455.6-23,518.7-168.4,727.3l-76.6,109.1l38.3,49.8c78.5,99.5,32.5,235.4-90,266c-59.3,15.3-139.7-23-168.4-82.3c-19.1-38.3-23-38.3-76.6-11.5c-32.5,17.2-61.3,32.5-65.1,36.4c-17.2,15.3,202.9,243.1,329.2,338.8c250.7,191.4,535.9,313.9,826.9,356c63.2,9.6,1209.7,17.2,2547.6,19.1C7082.5,1016.1,7450,1012.2,7591.6,987.3z M1047.5,18.8c155-28.7,277.5-93.8,369.4-199.1c151.2-172.3,145.5-111,157-1537l9.6-1270.9l45.9-36.4c44-36.4,124.4-36.4,3370.7-36.4c3246.2,0,3326.6,0,3370.7,36.4l45.9,36.4l9.6,1270.9c9.6,1267.1,9.6,1269,53.6,1376.2c47.9,122.5,185.7,264.1,298.6,312c300.5,124.4,601,49.8,731.2-183.8c47.9-88,55.5-120.6,55.5-254.6c0-164.6-26.8-239.3-122.5-340.7c-93.8-103.4-172.3-128.2-384.7-128.2c-189.5,0-195.2-1.9-250.7-55.5c-128.3-130.2-26.8-289,183.7-289h88l-5.7-922.6l-5.7-924.5l-61.3-128.3c-84.2-178-191.4-289-365.6-375.1l-145.5-70.8H5000H1504.9l-145.5,70.8c-174.2,86.1-281.4,197.1-365.6,375.1l-61.3,128.3l-5.7,924.5l-5.7,922.6h88c210.5,0,312,158.9,183.8,289c-55.5,53.6-61.3,55.5-250.7,55.5c-212.5,0-290.9,24.9-384.7,128.2C461.8-706.6,435-631.9,435-467.3c0,134,7.7,166.5,55.5,252.7C553.6-99.8,655.1-21.4,785.2,13.1C900.1,43.7,911.6,43.7,1047.5,18.8z M2617-1812.9c210.5-107.2,304.3-350.3,231.6-601c-74.6-256.5-367.5-386.6-652.7-290.9c-237.3,82.3-357.9,373.2-266.1,645c36.4,107.2,183.8,248.8,289,279.5C2328-1749.8,2527-1767,2617-1812.9z M7767.7-1780.4c118.7-30.6,262.2-162.7,302.4-279.5c91.9-271.8-28.7-562.7-266.1-645c-346.4-116.7-679.5,99.5-679.5,442.2c0,160.8,38.3,256.5,143.6,361.7C7400.2-1768.9,7562.9-1728.7,7767.7-1780.4z M2128.9-4069.6c0-7.7-40.2-116.7-90-239.3l-90-225.8h-111h-111v239.3v239.3h201C2038.9-4056.2,2128.9-4061.9,2128.9-4069.6z M8273-4295.5v-239.3h-111h-111l-90,225.8c-49.8,122.5-90,231.6-90,239.3s90,13.4,201,13.4h201V-4295.5z"/><path d="M1947.1,795.9c-61.3-59.3-61.3-143.6-1.9-212.5c93.8-111,279.5-38.3,279.5,109.1C2224.6,826.6,2044.7,895.5,1947.1,795.9z"/><path d="M2923.2,795.9c-61.3-59.3-61.3-143.6-1.9-212.5c93.8-111,279.5-38.3,279.5,109.1C3200.8,826.6,3020.9,895.5,2923.2,795.9z"/><path d="M3909,805.5c-82.3-82.3-63.2-204.8,38.3-258.4c157-82.3,313.9,134,185.7,254.6C4075.5,857.2,3962.6,859.1,3909,805.5z"/><path d="M4890.9,801.7c-57.4-65.1-65.1-105.3-36.4-176.1c32.5-80.4,118.7-114.8,204.8-84.2c65.1,23,120.6,122.5,99.5,181.8c-24.9,72.7-88,120.6-158.9,120.6C4952.1,843.8,4917.7,830.4,4890.9,801.7z"/><path d="M5865.2,799.8c-118.7-126.3,30.6-333.1,183.8-254.6c78.5,40.2,111,126.3,80.4,202.9c-28.7,70.8-70.8,95.7-158.9,95.7C5928.3,843.8,5891.9,828.5,5865.2,799.8z"/><path d="M6839.4,794c-128.2-164.6,105.3-369.4,239.3-210.5c97.6,111,24.9,260.3-124.4,260.3C6894.9,843.8,6870,832.3,6839.4,794z"/><path d="M7823.2,795.9c-61.3-59.3-61.3-143.6-1.9-212.5c93.8-111,279.4-38.3,279.4,109.1C8100.8,826.6,7920.8,895.5,7823.2,795.9z"/><path d="M2477.3,346.1c-59.3-24.9-105.3-135.9-82.3-199.1c40.2-103.4,168.4-137.8,254.6-68.9c61.2,45.9,74.6,112.9,42.1,189.5C2657.2,351.9,2569.1,382.5,2477.3,346.1z"/><path d="M3459.2,342.3c-149.3-80.4-93.8-302.4,74.6-302.4c90,0,172.3,95.7,157,179.9C3669.7,332.7,3553,394,3459.2,342.3z"/><path d="M4408.6,315.5c-145.5-122.5-1.9-333,179.9-264.1c36.4,15.3,86.1,105.3,86.1,160.8c0,57.4-101.4,153.1-158.9,153.1C4488.9,365.3,4441.1,342.3,4408.6,315.5z"/><path d="M5380.9,309.8c-61.3-63.2-68.9-111-26.8-191.4c72.7-143.6,296.7-82.3,296.7,82.3c0,49.8-13.4,76.6-59.3,114.8C5514.9,380.6,5449.8,378.7,5380.9,309.8z"/><path d="M6370.5,323.2c-76.6-67-82.3-149.3-21-222c124.4-147.4,335-5.7,266.1,178c-15.3,36.4-105.3,86.1-158.9,86.1C6435.5,365.3,6397.3,346.1,6370.5,323.2z"/><path d="M7377.3,346.1c-59.3-24.9-105.3-135.9-82.3-199.1c40.2-103.4,168.4-137.8,254.6-68.9c61.3,45.9,74.6,112.9,42.1,189.5C7557.2,351.9,7469.1,382.5,7377.3,346.1z"/><path d="M1947.1-180.2c-67-65.1-63.2-149.3,7.7-222c72.7-72.7,141.6-72.7,214.4,0c61.2,63.2,68.9,111,26.8,191.4C2148-117.1,2023.6-101.8,1947.1-180.2z"/><path d="M2955.8-145.8c-32.5-11.5-80.4-109.1-80.4-158.9c0-59.3,101.4-153.1,162.7-153.1c72.7,0,162.7,95.7,162.7,172.3C3200.8-174.5,3070.6-99.8,2955.8-145.8z"/><path d="M3912.8-170.7c-55.5-53.6-70.8-120.6-38.3-185.7c74.6-155,302.4-109.1,302.4,61.3C4177-157.3,4010.4-78.8,3912.8-170.7z"/><path d="M4890.9-174.5c-57.4-65.1-65.1-105.3-36.4-176.1c70.8-168.4,308.2-112.9,302.4,70.8C5153.1-149.6,4977-80.7,4890.9-174.5z"/><path d="M5870.9-180.2c-78.5-76.6-63.2-201,32.5-250.7c103.3-53.6,212.5,1.9,237.3,118.7c7.7,45.9,0,70.8-40.2,118.7C6035.5-115.2,5939.8-109.4,5870.9-180.2z"/><path d="M6847.1-180.2c-70.8-68.9-65.1-164.6,11.5-227.8c76.6-65.1,141.7-63.2,210.5,5.7c61.3,63.2,68.9,111,26.8,191.4C7048-117.1,6923.6-101.8,6847.1-180.2z"/><path d="M7855.8-145.8c-32.5-11.5-80.4-109.1-80.4-158.9c0-59.3,101.4-153.1,162.7-153.1c72.7,0,162.7,95.7,162.7,172.3C8100.8-174.5,7970.6-99.8,7855.8-145.8z"/><path d="M2471.5-639.6c-55.5-30.6-99.5-126.3-80.4-178c24.9-70.8,88-118.7,158.9-118.7c160.8,0,220.1,222,76.6,296.7C2559.6-605.2,2536.6-605.2,2471.5-639.6z"/><path d="M3459.2-633.9c-61.3-36.4-84.2-76.6-86.1-151.2c0-114.8,118.7-185.7,239.3-139.7c47.9,19.1,90,118.7,76.6,179.9C3667.8-645.3,3541.5-584.1,3459.2-633.9z"/><path d="M4452.6-630c-105.3-42.1-134-181.8-55.5-258.4c93.8-95.7,248.8-45.9,269.9,88C4686.1-683.6,4559.8-584.1,4452.6-630z"/><path d="M5428.8-630c-105.3-42.1-134-181.8-55.5-258.4c97.6-99.5,277.5-30.6,277.5,103.4C5650.8-676,5524.5-589.8,5428.8-630z"/><path d="M6397.3-635.8c-153.1-78.5-97.6-300.5,74.7-300.5c149.3,0,210.5,178,95.7,275.6C6502.5-605.2,6468.1-599.4,6397.3-635.8z"/><path d="M7371.5-639.6c-55.5-30.6-99.5-126.3-80.4-178c24.9-70.8,88-118.7,158.9-118.7c160.8,0,220.1,222,76.6,296.7C7459.6-605.2,7436.6-605.2,7371.5-639.6z"/><path d="M2936.6-1146.8c-88.1-82.3-70.8-204.8,36.4-266.1c97.6-55.5,227.8,26.8,227.8,145.5C3200.8-1133.4,3034.3-1056.9,2936.6-1146.8z"/><path d="M3905.2-1166c-47.9-49.8-55.5-68.9-45.9-120.6c17.2-91.9,97.6-153.1,181.8-139.7c134,21.1,183.8,176.1,88,269.9C4064-1089.4,3979.8-1093.2,3905.2-1166z"/><path d="M4892.8-1154.5c-72.7-61.3-72.7-172.3,1.9-235.4c158.9-137.8,365.6,97.6,208.6,239.3C5042.1-1095.1,4957.9-1097.1,4892.8-1154.5z"/><path d="M5870.9-1156.4c-95.7-93.8-45.9-248.8,88-269.9c155-24.9,245,170.3,124.4,271.8C6014.5-1095.1,5930.2-1095.1,5870.9-1156.4z"/><path d="M6847.1-1156.4c-90-88-45.9-239.3,80.4-269.9c101.4-26.8,216.3,88,189.5,189.5C7086.3-1110.5,6935.1-1066.4,6847.1-1156.4z"/><path d="M3487.9-1600.5c-168.4-61.2-141.6-312,32.5-315.8c183.7-5.7,239.3,231.6,70.8,302.4c-36.4,15.3-67,26.8-68.9,24.9C3518.5-1589,3503.2-1594.7,3487.9-1600.5z"/><path d="M4469.8-1602.4c-24.9-3.8-61.2-28.7-82.3-55.5c-126.3-160.8,95.7-352.2,239.3-206.7C4739.7-1753.6,4632.5-1575.6,4469.8-1602.4z"/><path d="M5415.4-1623.4c-107.2-53.6-118.7-199.1-21.1-262.2c157-103.3,333.1,80.4,218.2,225.9C5564.6-1596.6,5493.8-1585.2,5415.4-1623.4z"/><path d="M6404.9-1613.9c-80.4-34.5-116.8-124.4-84.2-202.9c67-162.7,306.3-116.8,306.3,57.4C6627-1640.7,6514-1567.9,6404.9-1613.9z"/><path d="M3920.5-2126.8c-28.7-24.9-55.5-70.8-61.3-105.3c-9.6-51.7-1.9-70.8,45.9-120.6c74.7-72.7,158.9-76.6,224-9.6C4274.6-2218.7,4073.6-1992.9,3920.5-2126.8z"/><path d="M4894.7-2128.7c-109.1-91.9-38.3-281.4,105.3-281.4c141.7,0,208.6,176.1,105.3,277.5C5045.9-2071.3,4961.7-2071.3,4894.7-2128.7z"/><path d="M5870.9-2132.6c-99.5-97.6-30.6-277.5,103.4-277.5c88,0,162.7,74.6,162.7,162.7C6137-2105.8,5968.5-2033,5870.9-2132.6z"/></g></g>
</svg>