<?xml version="1.0" encoding="utf-8"?>
<!-- Svg Vector Icons : http://www.onlinewebfonts.com/icon -->
<!DOCTYPE svg PUBLIC "-//W3C//DTD SVG 1.1//EN" "http://www.w3.org/Graphics/SVG/1.1/DTD/svg11.dtd">
<svg version="1.1" xmlns="http://www.w3.org/2000/svg" xmlns:xlink="http://www.w3.org/1999/xlink" x="0px" y="0px" viewBox="0 0 1000 1000" enable-background="new 0 0 1000 1000" xml:space="preserve">
<metadata> Svg Vector Icons : http://www.onlinewebfonts.com/icon </metadata>
<g><g transform="translate(0.000000,349.000000) scale(0.100000,-0.100000)"><path d="M1622.1,1719C864,1562.1,341.4,1081.5,151.9,365.6c-42.1-157-42.1-183.8-49.8-1680.8c-5.7-1707.7-9.6-1671.3,130.2-1948.9c135.9-271.8,421.2-524.6,694.9-614.5l122.5-42.1l-63.2-317.8C908-4621.5,908-4654,969.3-4713.4c44-46,57.4-47.9,269.9-47.9h222.1l409.7,402l407.8,402h2714.6H7708l415.4-402l415.4-402h222.1c210.6,0,224,1.9,268,47.9c61.3,59.3,61.3,91.9-17.2,474.8l-63.2,317.8l122.5,42.1c264.2,88.1,549.4,333.1,683.4,591.6C9898.1-3013.4,9900-3000,9900-1734.6c0,748.5-7.7,1160.1-21.1,1227.1c-67,321.6-321.6,610.7-658.6,744.7l-114.9,45.9L6904,292.8c-2184.3,9.6-2203.5,11.5-2349,51.7c-256.5,72.7-396.3,166.5-608.8,411.6c-476.7,549.4-819.4,783-1355.4,926.6c-157,42.1-235.5,51.7-511.1,57.4C1849.9,1743.9,1715.9,1738.2,1622.1,1719z M2491.3,1391.7c216.3-53.6,513.1-195.3,691.1-329.3c68.9-53.6,206.8-183.8,306.3-292.9c407.8-446,518.8-547.5,689.2-629.8C4265.9,97.5,4417.1,43.9,4511,21c170.4-40.2,193.4-42.1,2373.9-51.7l2201.6-11.5L9193.6-92c151.3-70.8,250.8-168.5,315.9-308.2l55.5-120.6l5.7-761.9l5.7-763.9l-67,55.5c-78.5,61.3-80.4,67-40.2,126.3c53.6,82.3,91.9,283.3,80.4,425c-21.1,268-137.8,465.2-323.5,545.6c-90,38.3-122.5,42.1-302.5,32.5c-306.3-15.3-603-126.4-955.3-358c-296.7-193.4-622.2-541.8-679.6-723.6l-13.4-42.1H5003H2730.6l-67,130.2c-45.9,91.9-120.6,183.8-258.4,321.6c-208.7,210.6-384.8,338.9-650.9,471c-275.7,137.8-448,189.5-679.6,201c-180,9.6-212.5,5.7-302.5-32.5C469.6-1024.3,351-1478,523.3-1843.7l40.2-86.1l-65.1-55.5l-65.1-53.6l-5.7,1037.6c-3.8,861.5,0,1064.4,24.9,1206.1c51.7,300.6,166.6,528.4,373.3,737C1254.6,1378.3,1869.1,1544.8,2491.3,1391.7z M1390.5-1244.5c285.2-99.6,545.6-262.3,758.1-472.9c141.7-141.7,266.1-321.6,266.1-386.7c0-105.3-551.3-40.2-1062.5,128.3c-425,137.8-559,225.9-605,396.3c-34.5,130.2-7.7,241.2,80.4,327.4l74.7,76.6l178-11.5C1195.2-1192.8,1302.4-1213.8,1390.5-1244.5z M9172.5-1254c84.2-84.2,113-197.2,78.5-325.4c-45.9-170.4-179.9-258.4-604.9-396.3c-382.9-126.4-798.3-199.1-974.4-174.2c-107.2,17.2-111,38.3-32.5,176.1c132.1,229.7,428.8,480.5,756.2,639.4c239.3,116.8,359.9,149.3,555.2,151.2C9099.8-1181.3,9101.7-1181.3,9172.5-1254z M946.3-2184.4c170.4-76.6,492-178,731.3-231.6c426.9-95.7,769.6-84.2,928.5,30.6l76.6,55.5h2316.4h2314.5l82.3-57.4c109.1-76.6,262.3-103.4,505.4-90c304.4,17.2,830.9,149.3,1150.6,292.9l105.3,46l91.9-67c49.8-36.4,95.7-80.4,103.4-95.7c15.3-44-132.1-172.3-292.9-254.6l-143.6-70.8H4999.1H1082.3l-143.6,70.8c-157,80.4-308.2,210.6-292.9,252.7c7.7,23,174.2,164.6,189.5,164.6C839.1-2138.5,887-2159.6,946.3-2184.4z M619-2749.2c170.4-112.9,342.7-183.8,526.5-210.6c193.3-28.7,7514-28.7,7707.4,0c183.8,28.7,356.1,97.6,528.4,212.5c134,90,145.5,93.8,168.5,61.3c32.5-44,30.6-122.5-3.8-271.8c-70.8-298.7-264.2-511.2-566.7-620.3l-122.5-44H4999.1H1141.6l-122.5,44c-325.4,116.8-520.7,350.3-580.1,689.2c-17.2,103.4-17.2,147.4,0,183.8c11.5,26.8,26.8,49.8,30.6,49.8C475.4-2655.4,542.4-2697.5,619-2749.2z M1572.3-4196.5c-214.4-216.3-287.2-271.9-287.2-222.1c0,21.1,76.6,405.9,86.1,438.4c5.7,17.2,68.9,23,224,23h216.3L1572.3-4196.5z M8669.1-4177.3c23-114.9,42.1-222.1,44-233.6c1.9-59.3-63.2-9.6-287.2,214.4l-239.3,241.2l220.2-5.7l218.3-5.7L8669.1-4177.3z"/></g></g>
</svg>