<?xml version="1.0" encoding="utf-8"?>
<!-- Svg Vector Icons : http://www.onlinewebfonts.com/icon -->
<!DOCTYPE svg PUBLIC "-//W3C//DTD SVG 1.1//EN" "http://www.w3.org/Graphics/SVG/1.1/DTD/svg11.dtd">
<svg version="1.1" xmlns="http://www.w3.org/2000/svg" xmlns:xlink="http://www.w3.org/1999/xlink" x="0px" y="0px" viewBox="0 0 1000 1000" enable-background="new 0 0 1000 1000" xml:space="preserve">
<metadata> Svg Vector Icons : http://www.onlinewebfonts.com/icon </metadata>
<g><g transform="translate(0.000000,290.000000) scale(0.100000,-0.100000)"><path d="M2146.7,655.3c-310.7-76.7-585.1-326.1-700.1-636.8c-36.4-99.7-42.2-165-51.8-581.2l-11.5-470L1038-1239.9c-189.9-115.1-391.3-230.2-446.9-259c-80.6-38.4-117-71-172.6-157.3C78.8-2187.5,0.2-3092.9,234.2-3785.4c51.8-151.5,180.3-408.6,234-470c115.1-126.6,362.5-145.8,500.7-34.5c42.2,34.5,80.6,61.4,86.3,61.4c5.8,0,11.5-120.8,11.5-270.5v-270.5l55.6-55.6l55.6-55.6h387.5c383.6,0,385.6,0,431.6,47.9c46,44.1,48,53.7,48,326.1v278.1h2954h2954v-278.1c0-272.4,1.9-282,48-326.1c46-47.9,47.9-47.9,431.6-47.9h387.5l55.6,55.6l55.6,55.6v270.5c0,149.6,5.7,270.5,11.5,270.5s44.1-26.9,86.3-61.4c138.1-111.3,385.6-92.1,500.7,34.5c55.6,63.3,184.1,320.4,234,471.9c201.4,602.3,178.4,1337-63.3,1895.2c-101.7,237.9-174.6,333.8-293.5,391.3c-55.6,26.9-257,141.9-446.9,257l-345.3,207.2l-11.5,470c-9.6,408.6-15.4,481.5-51.8,577.4c-113.2,308.8-381.7,558.2-684.8,638.8c-99.7,24.9-450.8,28.8-2867.7,26.8C2867.9,678.3,2223.4,672.6,2146.7,655.3z M7838,325.4c163-46,283.9-145.8,362.5-301.2c65.2-128.5,67.1-136.2,74.8-416.3c5.7-157.3,1.9-462.3-5.7-675.2l-13.4-389.4l-454.6,5.8c-516,5.8-560.1-1.9-688.6-132.4c-134.3-132.4-147.7-178.4-153.5-529.4l-5.8-312.7H4999.1H3046.3l-7.7,312.7c-7.7,349.1-23,402.8-161.1,537.1c-126.6,122.8-170.7,130.4-682.9,124.7l-452.7-5.8l-13.4,368.3c-7.7,203.3-11.5,506.4-5.7,675.2c7.7,305,7.7,306.9,72.9,435.4c48,94,94,151.5,161.1,201.4c182.2,138.1-11.5,128.5,3030.8,130.4C7439,356.1,7742.1,352.2,7838,325.4z M1392.8-1917c0-280.1-7.7-508.3-17.3-508.3c-9.6,0-34.5,74.8-57.5,168.8c-48,188-134.3,414.3-205.3,537.1c-26.9,46-46,90.2-42.2,101.7c3.8,13.4,285.8,197.6,318.4,207.2C1390.9-1408.7,1392.8-1637,1392.8-1917z M8931.4-1621.6c0-9.6-28.8-71-65.2-136.2c-74.8-138.1-168.8-397.1-203.3-556.3c-11.5-61.4-30.7-111.3-40.3-111.3s-17.3,207.2-17.3,508.3v506.4l163-97.8C8858.5-1562.2,8931.4-1612,8931.4-1621.6z M825-1892.1c249.4-446.9,310.8-1108.7,153.5-1663.1C934.4-3714.4,769.4-4075,742.5-4075c-24.9,0-170.7,297.3-220.6,450.8C374.2-3167.7,380-2617.2,533.5-2176c61.4,174.6,178.4,402.8,207.2,402.8C750.2-1773.2,788.6-1826.9,825-1892.1z M2666.5-1803.9c46-44.1,46-872.8,0-916.9c-24.9-26.8-92.1-30.7-441.2-30.7c-247.4,0-427.8,7.7-450.8,19.2c-34.5,19.2-36.4,46-36.4,470c0,406.7,3.8,450.8,34.5,468c19.2,11.5,201.4,21.1,448.9,21.1C2574.4-1773.2,2641.6-1777,2666.5-1803.9z M8223.6-1792.3c34.6-19.2,36.4-46,36.4-470c0-423.9-1.9-450.8-36.4-470c-49.9-24.9-836.3-24.9-886.2,0c-34.6,19.2-36.5,46-36.5,460.4c0,372.1,3.8,443.1,30.7,468c25,26.9,92.1,30.7,441.2,30.7C8020.3-1773.2,8200.6-1780.8,8223.6-1792.3z M9341.9-1892.1c260.9-473.8,316.5-1177.8,136.2-1732.1c-47.9-147.7-195.6-450.8-220.6-450.8c-21.1,0-166.9,291.6-209.1,420.1c-134.3,397.1-153.5,903.5-46,1325.5c53.7,218.7,209.1,556.3,255.1,556.3C9267.1-1773.2,9305.4-1826.9,9341.9-1892.1z M1502.2-2895.3c38.4-49.9,101.7-101.7,163-132.4c99.7-49.9,101.7-49.9,550.5-49.9c399,0,462.3,5.8,531.3,36.4c90.2,40.3,207.2,153.5,241.7,234l24.9,55.6h1977.7H6971l59.5-94c61.4-94,159.2-174.6,257-211c32.6-13.4,236-21.1,508.3-21.1h454.6l99.8,57.5c53.7,30.7,122.8,92.1,153.5,134.3c28.8,42.2,63.3,92.1,76.7,111.3c17.2,26.9,23-17.3,28.8-212.9l5.8-243.6H4999.1H1383.2l5.8,243.6c5.8,195.6,11.5,237.9,28.8,209.1C1431.2-2797.5,1467.6-2849.3,1502.2-2895.3z M8714.6-3706.7c23-71,47.9-143.9,53.7-163c13.4-30.7-174.6-32.6-3769.3-32.6c-3019.3,0-3780.8,5.8-3773.1,24.9c3.8,11.5,28.8,86.3,53.7,163l44.1,138.1h3675.3h3675.3L8714.6-3706.7z M1718.9-4391.5v-163h-163h-163v163v163h163h163V-4391.5z M8605.3-4391.5v-163h-163h-163v163v163h163h163V-4391.5z"/><path d="M3126.9-150.3c-42.2-19.2-67.1-48-84.4-95.9c-26.9-82.5-9.6-120.8,109.3-243.6c76.7-78.6,82.5-92.1,63.3-140c-24.9-67.1-24.9-262.8,0-329.9c19.2-48,13.4-61.4-80.6-155.4c-84.4-84.4-99.7-113.2-99.7-170.7c0-53.7,13.4-80.6,53.7-115.1c84.4-74.8,151.5-61.4,270.5,51.8l103.6,97.8l109.3-23c84.4-17.3,136.2-17.3,222.5,0l115.1,21.1l101.7-95.9c107.4-101.7,157.3-117,245.5-76.7c26.9,11.5,57.5,42.2,69.1,69.1c40.3,88.2,24.9,138.1-76.7,245.5l-95.9,101.7l21.1,115.1c17.3,86.3,17.3,138.1,0,222.5l-23,109.3l97.8,103.6c113.2,118.9,126.6,186.1,51.8,270.5c-34.5,40.3-61.4,53.7-115.1,53.7c-57.5,0-86.3-15.3-170.7-99.7c-97.8-95.9-103.6-99.7-166.9-80.6c-86.3,24.9-251.3,24.9-318.4,0c-46-19.2-59.5-11.5-153.5,76.7c-55.6,51.8-109.3,95.9-120.8,95.9c-9.6,0-28.8,3.8-44.1,9.6C3197.9-129.2,3159.5-136.9,3126.9-150.3z M3821.3-668.3c88.2-88.2,86.3-147.7-9.6-243.6c-95.9-95.9-155.4-97.8-243.6-9.6c-88.2,88.2-88.2,166.9-3.8,255.1C3648.6-578.1,3733-580,3821.3-668.3z"/><path d="M5754.8-142.7c-57.5-23-103.6-94-103.6-159.2c0-38.4,26.9-82.5,97.8-157.3l95.9-101.7l-23-118.9c-17.3-92.1-17.3-140,0-222.5l24.9-105.5l-97.8-103.6c-117-124.7-130.4-201.4-47.9-285.8c84.4-82.5,161.1-69.1,285.8,47.9l103.6,97.8l105.5-24.9c82.5-17.3,130.4-17.3,222.5,0l118.9,23l101.7-95.9c118.9-113.2,186.1-126.6,270.4-51.8c40.3,34.5,53.7,61.4,53.7,115.1c0,57.5-15.4,86.3-99.7,170.7c-94,94-99.7,107.4-80.6,155.4c24.9,67.1,24.9,262.8,0,329.9c-19.2,46-11.5,59.5,72.9,149.6c113.2,120.9,128.5,161.1,92.1,247.5c-19.2,47.9-46,72.9-95.9,90.2c-82.5,26.9-120.8,9.6-243.6-109.3c-78.7-76.7-92.1-82.5-140-63.3c-67.1,24.9-232.1,24.9-318.4,0c-63.3-17.3-71-15.3-163,74.8C5887.2-140.8,5822-113.9,5754.8-142.7z M6432-664.4c88.2-84.4,86.3-168.8-1.9-257c-88.2-88.2-147.7-86.3-243.6,9.6c-95.9,95.9-97.8,155.4-9.6,243.6C6265.1-580,6343.7-580,6432-664.4z"/></g></g>
</svg>