<?xml version="1.0" encoding="utf-8"?>
<!-- Svg Vector Icons : http://www.onlinewebfonts.com/icon -->
<!DOCTYPE svg PUBLIC "-//W3C//DTD SVG 1.1//EN" "http://www.w3.org/Graphics/SVG/1.1/DTD/svg11.dtd">
<svg version="1.1" xmlns="http://www.w3.org/2000/svg" xmlns:xlink="http://www.w3.org/1999/xlink" x="0px" y="0px" viewBox="0 0 1000 1000" enable-background="new 0 0 1000 1000" xml:space="preserve">
<metadata> Svg Vector Icons : http://www.onlinewebfonts.com/icon </metadata>
<g><g transform="translate(0.000000,341.000000) scale(0.100000,-0.100000)"><path d="M4778.6,1665c-691.2-99.6-1175.5-310.2-1579.5-691.2c-172.3-162.7-304.4-329.3-382.9-486.3l-55.5-107.2l-195.3-23c-587.8-70.8-1121.9-369.5-1462.7-815.6c-61.3-78.5-124.4-143.6-143.6-143.6c-17.2,0-78.5-13.4-135.9-30.6c-134-40.2-279.5-183.8-329.3-327.4c-72.8-202.9-61.3-461.4,26.8-645.2l38.3-78.5l-122.5-128.3c-135.9-143.6-222.1-289.1-292.9-497.8c-53.6-157-55.5-239.3-17.2-425c90-423.1,419.3-781.2,848.1-920.9l99.6-32.6v-268c0-365.7,19.1-398.2,222.1-398.2h103.4v-248.9v-248.9h373.3h373.3l166.6,248.9l164.6,248.9l2605.7-3.8l2605.7-5.7l162.7-243.2l162.7-243.1l369.5-1.9h367.6v241.2v239.3l57.4,21.1c97.6,32.6,114.9,95.7,114.9,396.3v270l53.6,11.5c99.6,24.9,294.9,122.5,417.4,208.7c289.1,206.8,503.5,606.9,505.4,940c0,189.5-157,520.7-338.9,712.2l-122.5,128.3l40.2,86.1c166.6,373.3,42.1,832.8-258.5,949.6c-53.6,21.1-99.6,59.4-153.2,135.9c-337,469.1-899.8,796.5-1499.1,869.2l-191.5,23l-103.4,172.3c-300.6,511.2-920.9,917.1-1633.1,1066.4C5454.4,1657.3,4924.1,1686.1,4778.6,1665z M5611.4,1295.5c187.6-38.3,469.1-130.2,603.1-197.2c298.7-151.2,574.4-390.6,737.1-641.4l95.7-145.5l-90-51.7c-201-114.9-363.8-344.6-409.7-580.1c-36.4-176.1,17.2-281.4,143.6-281.4c107.2,0,145.5,47.9,174.2,218.3c59.3,342.7,268,467.1,695,413.5c419.3-51.7,746.7-208.7,1043.4-497.8c70.8-68.9,128.3-135.9,128.3-147.4c0-11.5-32.5-26.8-70.8-34.5s-147.4-44-239.3-80.4c-459.5-183.8-945.8-580.1-1093.2-890.3l-61.3-128.3H4998.8l-2268.7-1.9l-34.5,86.2c-143.6,346.5-729.4,809.8-1246.4,984.1l-93.8,32.6l113,122.5c327.4,352.3,783,559.1,1252.1,562.9c191.5,1.9,206.8-1.9,306.3-57.4c137.9-78.5,206.8-185.7,231.7-363.8c23-160.8,67-218.3,170.4-218.3c70.8,0,134,47.9,158.9,118.7c21.1,57.4-24.9,266.1-84.2,381c-72.8,145.5-170.4,254.6-308.2,342.7l-109.1,70.8l67,113c285.3,472.9,840.5,800.3,1529.7,899.8C4914.5,1358.7,5374,1343.4,5611.4,1295.5z M1326.7-986.7c151.2-42.1,392.5-158.9,561-271.9c258.5-174.2,576.3-564.8,511.2-629.9c-36.4-36.4-325.5-24.9-568.6,23C1416.6-1785,895.9-1584,807.8-1471c-124.4,158.9-80.4,444.2,80.4,516.9C962.9-921.6,1131.4-933,1326.7-986.7z M9149.5-979c57.4-36.4,118.7-168.5,116.8-254.6c0-84.2-40.2-201-88.1-252.7c-143.6-160.8-987.9-417.4-1388.1-423.1c-220.2-1.9-233.6,9.6-158.9,155.1c111,218.3,497.8,547.6,794.5,677.8C8745.5-935,9025-896.7,9149.5-979z M1066.3-1988c396.3-153.2,802.2-243.2,1108.5-247c243.2-1.9,338.9,21.1,440.3,101.5l72.7,57.4H4993h2303.2l97.6-65.1c113-78.5,210.6-99.6,459.5-93.8c287.2,5.8,704.6,101.5,1077.9,247c254.6,99.5,239.3,99.5,352.3-1.9l99.6-88.1l-109.1-95.7c-122.5-107.2-256.5-176.2-404-206.8c-143.6-30.6-7598.9-30.6-7742.4,0c-147.4,30.6-281.4,99.6-404,206.8l-109.1,95.7l99.6,88.1C826.9-1888.4,811.6-1888.4,1066.3-1988z M589.5-2491.5c111-84.2,283.3-164.6,440.3-204.8c103.4-26.8,522.7-30.6,3972.7-30.6c3813.8,0,3855.9,0,3995.7,38.3c164.6,45.9,287.2,105.3,409.7,199.1c49.8,38.3,103.4,68.9,116.8,68.9c93.8,0,34.5-371.4-90-566.7c-61.3-97.7-218.3-243.1-315.9-292.9c-201-103.4,5.7-97.6-4120.1-97.6c-4129.7,0-3919.1-5.8-4120.1,97.6c-126.4,65.1-291,233.6-358,369.5c-97.6,199.1-126.4,490.1-49.8,490.1C486.2-2420.6,539.8-2451.3,589.5-2491.5z M8598.1-3875.7v-153.2H4998.8H1399.4v153.2v153.2h3599.4h3599.4V-3875.7z M2019.7-4450.1c-49.8-76.6-51.7-76.6-172.3-76.6h-122.5v76.6v76.6h172.3h172.3L2019.7-4450.1z M8425.8-4450.1v-76.6h-118.7c-116.8,0-122.5,1.9-162.7,67c-24.9,36.4-44,70.8-44,76.6c0,5.7,72.7,9.6,162.7,9.6h162.7V-4450.1z"/></g></g>
</svg>