<?xml version="1.0" encoding="utf-8"?>
<!-- Svg Vector Icons : http://www.onlinewebfonts.com/icon -->
<!DOCTYPE svg PUBLIC "-//W3C//DTD SVG 1.1//EN" "http://www.w3.org/Graphics/SVG/1.1/DTD/svg11.dtd">
<svg version="1.1" xmlns="http://www.w3.org/2000/svg" xmlns:xlink="http://www.w3.org/1999/xlink" x="0px" y="0px" viewBox="0 0 1000 1000" enable-background="new 0 0 1000 1000" xml:space="preserve">
<metadata> Svg Vector Icons : http://www.onlinewebfonts.com/icon </metadata>
<g><g transform="translate(0.000000,341.000000) scale(0.100000,-0.100000)"><path d="M4607.4,1652.9c-407.8-46-809.9-170.4-1292.5-398.3c-530.4-250.8-819.5-348.5-1516.5-517c-375.3-90-511.2-134-695.1-225.9C634.2,278.1,318.3-83.8,153.6-574c-46-134-46-136-51.7-1258c-5.7-1267.6-7.7-1261.8,134-1535.7c118.7-225.9,314-417.4,549.5-534.2c97.7-49.8,195.3-90,214.5-90c47.9,0,47.9-17.2-21.1-354.2c-70.8-348.5-72.8-398.3-9.6-459.6c44-46,57.4-47.9,270-47.9h225.9l413.6,411.7l413.6,411.7h2707.5h2707.5l413.6-411.7l413.6-411.7h226c212.5,0,225.9,1.9,270,47.9c61.3,59.4,61.3,95.7-9.6,442.3c-68.9,340.8-70.8,371.5-21.1,371.5c19.2,0,116.8,40.2,214.4,90c245.1,122.5,436.6,312.1,549.6,541.9c143.6,291,139.8,260.4,134,1526.1c-5.7,1124-5.7,1125.9-51.7,1259.9c-162.8,488.3-482.5,852.1-949.7,1085.7c-185.7,93.8-315.9,134-731.4,235.5c-679.7,164.7-961.2,262.3-1476.3,505.5c-371.5,176.2-622.3,266.2-924.9,335.1C5377.1,1672.1,4980.8,1695,4607.4,1652.9z M5321.6,1331.2c137.9-15.3,164.7-24.9,199.1-67c59.4-76.6,118.7-91.9,203-53.6c38.3,17.2,88.1,28.7,109.2,26.8c95.7-11.5,411.7-134,727.6-283.4c189.6-90,388.7-181.9,440.4-206.8c53.6-24.9,116.8-49.8,143.6-55.5c26.8-3.8,155.1-42.1,285.3-82.3c222.1-68.9,231.7-72.8,162.8-84.2c-134-23-185.7-157-95.7-258.5c34.5-40.2,61.3-53.6,116.8-53.6c141.7,0,214.5,168.5,114.9,266.2c-24.9,26.8-40.2,47.9-32.5,47.9c7.7,0,176.2-42.1,373.4-91.9c319.8-80.4,361.9-95.7,383-137.9c38.3-76.6,118.7-105.3,206.8-76.6c70.8,23,76.6,21.1,203-53.6c70.8-44,141.7-88.1,157-97.7c23-15.3,15.3-26.8-32.6-68.9c-118.7-99.6-53.6-277.6,101.5-277.6c67,0,111.1,30.6,155.1,105.3c17.2,30.6,32.5,17.2,118.7-113c55.5-82.3,99.6-158.9,99.6-172.3c0-13.4-13.4-51.7-28.7-84.2c-38.3-74.7-21.1-145.5,46-195.3c26.8-21.1,61.3-47.9,74.7-57.4c17.2-15.3,23-103.4,23-321.7v-300.6l-63.2-28.7c-34.5-15.3-72.8-55.5-88.1-88.1c-24.9-59.4-26.8-59.4-201.1-68.9c-157-9.6-358-61.3-534.2-139.8c-26.8-9.6-21.1,0,13.4,34.5c101.5,101.5,36.4,281.5-103.4,281.5c-76.6,0-172.3-90-172.3-162.8c0-68.9,95.7-162.7,164.7-162.7c44.1,0,21.1-19.2-116.8-97.7c-95.7-53.6-181.9-107.2-195.3-116.8c-15.3-13.4-38.3-9.6-67,11.5c-93.8,67-264.2,9.6-264.2-88.1c0-32.6-23-34.5-335.1-34.5c-300.6,0-335.1,3.8-335.1,32.6c0,57.4-78.5,120.6-147.4,120.6c-88.1,0-132.1-26.8-155.1-95.7l-21.1-57.4h-325.5c-264.2,0-327.4,5.7-327.4,26.8c0,13.4-17.2,47.9-40.2,76.6c-70.8,90-245.1,55.5-273.8-55.5l-11.5-47.9H5651c-281.5,0-325.5,3.8-325.5,28.7c0,57.4-90,124.5-162.8,124.5s-162.8-67-162.8-124.5c0-24.9-44-28.7-325.5-28.7h-325.5l-11.5,47.9c-28.7,111.1-203,145.5-273.8,55.5c-23-28.7-40.2-63.2-40.2-76.6c0-21.1-63.2-26.8-323.6-26.8h-323.6l-23,57.4c-28.7,70.8-70.8,95.7-155.1,95.7c-70.8,0-151.3-63.2-151.3-118.7c0-32.6-23-34.5-335.1-34.5c-300.6,0-335.1,3.8-335.1,32.6c0,57.4-78.5,120.6-147.4,120.6c-88.1,0-132.1-26.8-155.1-95.7c-19.2-51.7-28.7-57.4-107.2-57.4c-74.7,0-113,17.2-264.2,116.8c-216.4,141.7-438.5,248.9-633.8,306.4c-130.2,38.3-147.4,49.8-157,97.7C896.6-1487.3,818-1426,745.3-1426c-61.3,0-149.3-74.7-149.3-124.5c0-28.7-26.8-44-130.2-76.6l-46-13.4l7.7,457.6c7.7,434.6,9.6,461.5,57.4,595.5c139.8,388.7,438.5,681.7,865.5,854c93.8,38.3,176.2,68.9,183.8,68.9c9.6,0,46-30.6,84.3-68.9c59.4-59.4,78.5-68.9,132.1-57.4c76.6,15.3,147.4,91.9,147.4,162.8c0,51.7,7.7,57.4,139.8,88.1c227.9,55.5,702.7,195.3,863.6,256.6l151.3,57.4l47.9-36.4c101.5-80.4,256.6-13.4,260.4,113c1.9,59.4,11.5,68.9,153.2,139.8c224,113,469.1,203,729.5,266.2c273.8,67,271.9,67,287.2,15.3c15.3-47.9,126.4-99.6,176.2-80.4c51.7,17.2,103.4,67,122.5,116.8c15.3,38.3,28.7,42.1,174.2,42.1C5091.8,1350.4,5233.5,1342.7,5321.6,1331.2z M967.4-1954.5c369.6-91.9,842.5-428.9,1047.4-742.9c91.9-139.8,93.8-174.2,15.3-191.5c-296.8-59.3-1244.6,180-1478.2,373.4c-101.5,82.3-128.3,147.4-128.3,298.7c0,141.7,36.4,220.2,118.7,266.1C603.6-1916.2,825.7-1918.1,967.4-1954.5z M9457.5-1950.7c84.3-45.9,118.7-124.5,118.7-270c0-210.6-74.7-300.6-346.6-411.7c-534.2-222.1-1319.3-346.6-1319.3-210.6c0,45.9,132.1,243.2,231.7,346.6c231.7,235.5,610.8,469.1,878.9,541.9C9153.1-1920,9398.2-1916.2,9457.5-1950.7z M7697.9-2521.3c-42.1-65.1-80.4-137.9-86.2-162.8l-11.5-44H4999.9H2399.7l-11.5,45.9c-5.7,24.9-42.1,90-78.5,145.5c-38.3,55.5-72.8,109.2-78.5,118.7c-5.7,7.6,1238.9,15.3,2766.9,15.3h2778.3L7697.9-2521.3z M785.5-2986.6c337-130.2,838.7-239.3,1102.9-239.3c166.6,0,333.2,47.9,402.1,116.8l59.4,55.5h2650.1l2652-1.9l55.5-55.5c65.1-67,141.7-91.9,319.8-109.1c329.3-28.7,1045.5,141.7,1449.5,346.6l99.6,49.8v-46c0-270-210.6-612.7-450-735.3c-210.6-105.3,49.8-99.6-4128.3-99.6c-3710.8,0-3846.8,1.9-3959.8,36.4c-308.3,95.7-526.6,333.2-593.6,649.1c-11.5,55.5-21.1,122.5-21.1,149.3v46l99.6-49.8C576.8-2900.4,695.5-2952.1,785.5-2986.6z M1572.5-4288.6c-132.1-132.1-250.8-239.3-266.2-239.3c-17.2,0-23,15.3-15.3,53.6c5.8,28.7,24.9,135.9,44,239.3l32.5,185.7h222.1h222.1L1572.5-4288.6z M8670.6-4269.5c23-114.9,42.1-222.1,44-233.6c1.9-59.4-63.2-9.6-287.2,214.5L8188-4047.4l220.2-5.7l218.3-5.7L8670.6-4269.5z"/><path d="M4109.6,1001.9c-149.4-80.4-93.8-302.5,74.7-302.5c49.8,0,76.6,13.4,114.9,59.4c65.1,76.6,63.2,141.7-5.7,210.6C4234,1026.8,4174.7,1038.3,4109.6,1001.9z"/><path d="M5055.4,969.3c-70.8-72.8-72.8-151.3-5.7-220.2c101.5-101.5,275.7-34.5,275.7,103.4c0,76.6-90,172.3-162.8,172.3C5132,1024.9,5089.9,1001.9,5055.4,969.3z"/><path d="M6032,969.3c-68.9-68.9-70.8-134-5.8-210.6c122.6-145.5,333.2-1.9,264.3,180c-15.3,36.4-105.3,86.2-160.8,86.2C6106.7,1024.9,6062.6,1000,6032,969.3z"/><path d="M2596.9,479.2c-61.3-59.4-61.3-143.6-1.9-212.5c93.8-111.1,279.6-38.3,279.6,109.1C2874.5,509.8,2694.5,578.7,2596.9,479.2z"/><path d="M3606,513.6c-42.1-17.2-84.3-120.6-70.8-178.1c15.3-67,63.2-111.1,136-126.4c84.2-17.2,180,67,180,157C3851.1,484.9,3724.7,561.5,3606,513.6z"/><path d="M4565.3,484.9c-57.4-65.1-68.9-120.6-36.4-183.8c40.2-78.5,126.4-111.1,203-80.4c70.8,28.7,95.7,70.8,95.7,158.9C4827.6,511.7,4653.3,580.6,4565.3,484.9z"/><path d="M5539.9,483c-44.1-47.9-55.5-143.6-23-203c9.6-19.2,44-46,76.6-59.4c76.6-30.6,162.8,1.9,203,80.4C5876.9,456.2,5658.6,609.4,5539.9,483z"/><path d="M6522.2,479.2c-70.8-68.9-65.1-164.7,13.4-229.8c72.8-61.3,155.1-55.5,222.1,21.1c49.8,55.5,53.6,103.4,13.4,178.1C6723.2,542.3,6598.8,557.7,6522.2,479.2z"/><path d="M1170.4,23.4c-151.3-76.6-99.6-300.6,70.8-300.6c168.5,0,220.2,224,68.9,302.5C1258.4,54.1,1229.7,54.1,1170.4,23.4z"/><path d="M2152.6,29.2c-55.5-23-107.2-124.5-90-178.1c5.7-23,30.6-61.3,51.7-84.3c84.3-93.8,262.3-26.8,262.3,99.6c0,90-15.3,122.5-78.5,153.2C2236.9,52.2,2213.9,54.1,2152.6,29.2z"/><path d="M3133,27.3c-63.2-36.4-86.2-78.5-86.2-153.2c0-137.9,174.2-204.9,268.1-103.4c57.4,61.3,61.3,166.6,7.7,220.2C3276.6,38.8,3182.8,56,3133,27.3z"/><path d="M4082.7-1.5c-145.5-122.5-1.9-333.2,180-264.2c36.4,15.3,86.2,105.3,86.2,160.8c0,57.4-101.5,153.2-158.9,153.2C4163.2,48.3,4115.3,25.4,4082.7-1.5z"/><path d="M5055.4-7.2c-70.8-72.8-74.7-157-7.6-222.1c97.6-99.6,277.6-30.6,277.6,105.3c0,76.6-90,172.3-162.8,172.3C5132,48.3,5089.9,25.4,5055.4-7.2z"/><path d="M6072.2,23.4c-151.3-76.6-99.6-300.6,70.8-300.6c168.5,0,220.2,224,68.9,302.5C6160.3,54.1,6131.6,54.1,6072.2,23.4z"/><path d="M7054.5,29.2c-55.5-23-107.2-124.5-90-178.1c5.8-23,30.7-61.3,51.7-84.3c84.3-93.8,262.3-26.8,262.3,99.6c0,90-15.3,122.5-78.5,153.2C7138.7,52.2,7115.8,54.1,7054.5,29.2z"/><path d="M8034.9,25.4c-61.3-32.5-86.2-74.7-86.2-151.3c0-55.5,11.5-80.4,49.8-111.1c139.8-109.1,327.4,34.5,247,189.6C8201.4,36.8,8111.4,67.5,8034.9,25.4z"/><path d="M645.7-489.7c-36.4-28.7-49.8-57.4-49.8-103.4c0-90,15.3-122.5,78.5-153.2c74.7-40.2,122.5-36.4,181.9,17.2C1015.3-595,810.4-361.4,645.7-489.7z"/><path d="M1620.3-497.4c-90-88.1-46-239.4,80.4-270c101.5-26.8,216.4,88.1,189.6,189.6C1859.7-451.4,1708.4-407.4,1620.3-497.4z"/><path d="M2596.9-499.3c-65.1-70.8-63.2-149.4,7.7-220.2c72.8-72.8,141.7-72.8,214.5,0c70.8,72.8,74.7,157,7.7,222.1C2761.5-430.4,2658.1-432.3,2596.9-499.3z"/><path d="M3575.3-508.9c-65.1-76.6-63.2-141.7,5.7-210.6c63.2-61.3,111.1-68.9,191.5-26.8c143.6,72.8,82.3,296.8-82.3,296.8C3640.4-449.5,3613.6-462.9,3575.3-508.9z"/><path d="M4567.2-495.5c-120.6-101.5-30.6-296.8,124.5-271.9c88.1,13.4,136,72.8,136,164.7C4827.6-464.8,4674.4-401.6,4567.2-495.5z"/><path d="M5547.5-489.7c-36.4-28.7-49.8-57.4-49.8-103.4c0-90,15.3-122.5,78.5-153.2c74.7-40.2,122.6-36.4,181.9,17.2C5917.1-595,5712.2-361.4,5547.5-489.7z"/><path d="M6522.2-497.4c-90-88.1-46-239.4,80.4-270c101.5-26.8,216.4,88.1,189.6,189.6C6761.5-451.4,6610.3-407.4,6522.2-497.4z"/><path d="M7498.7-497.4c-67-65.1-63.2-149.4,7.7-222.1c72.8-72.8,141.7-72.8,214.4,0c107.2,109.2,44.1,270-107.2,270C7565.7-449.5,7529.3-464.8,7498.7-497.4z"/><path d="M8477.2-508.9c-65.1-76.6-63.2-141.7,5.8-210.6c63.2-61.3,111.1-68.9,191.5-26.8c143.6,72.8,82.3,296.8-82.3,296.8C8542.3-449.5,8515.5-462.9,8477.2-508.9z"/><path d="M1157-964.6c-74.7-46-95.7-130.2-55.5-208.7c32.6-65.1,65.1-80.4,155.1-80.4c126.4,0,193.4,176.2,101.5,264.2C1292.9-930.1,1227.8-922.5,1157-964.6z"/><path d="M2154.6-955c-105.3-46-122.5-203-30.6-271.9c53.6-42.1,164.7-32.5,210.6,17.2c55.5,57.4,55.5,164.7,3.8,220.2c-23,23-47.9,42.1-57.4,42.1c-7.7,0-26.8,3.8-42.1,9.6C2225.4-933.9,2187.1-941.6,2154.6-955z"/><path d="M3161.7-941.6c-170.4-63.2-141.7-312.1,36.4-312.1c88.1,0,130.2,28.7,155.1,103.4c26.8,82.3-9.6,164.7-86.2,199.1C3213.4-926.3,3205.8-926.3,3161.7-941.6z"/><path d="M4126.8-947.4c-158.9-65.1-120.6-306.4,49.8-306.4c105.3,0,162.8,51.7,162.8,151.3C4339.3-981.8,4232.1-903.3,4126.8-947.4z"/><path d="M5103.3-947.4c-105.3-42.1-134-181.9-55.5-258.5c97.6-99.6,277.6-30.6,277.6,103.4C5325.4-993.3,5199.1-907.1,5103.3-947.4z"/><path d="M6058.8-964.6c-74.7-46-95.7-130.2-55.5-208.7c32.5-65.1,65.1-80.4,155.1-80.4c126.4,0,193.4,176.2,101.5,264.2C6194.8-930.1,6129.6-922.5,6058.8-964.6z"/><path d="M7046.8-956.9c-68.9-38.3-101.5-120.6-74.7-191.5c28.7-72.8,72.8-103.4,155.1-105.3c88.1,0,151.3,63.2,151.3,155.1c-1.9,78.5-32.5,124.5-103.4,151.3C7110-924.4,7108.1-924.4,7046.8-956.9z"/><path d="M8063.6-941.6c-170.4-63.2-141.7-312.1,36.4-312.1c88.1,0,130.2,28.7,155.1,103.4c28.7,88.1-13.4,170.4-97.6,201.1c-34.5,11.5-61.3,21.1-63.2,19.1C8092.3-930.1,8078.9-935.9,8063.6-941.6z"/><path d="M9028.6-947.4c-158.9-65.1-120.6-306.4,49.8-306.4c91.9,0,151.3,47.9,164.7,135.9C9262.2-1001,9135.8-901.4,9028.6-947.4z"/><path d="M1620.3-1473.9c-99.6-97.7-30.6-277.6,105.3-277.6c76.6,0,172.3,90,172.3,162.7c0,30.6-23,72.8-55.5,107.2C1769.7-1410.7,1685.4-1406.9,1620.3-1473.9z"/><path d="M2633.3-1449c-42.1-19.2-84.2-90-84.2-139.8c0-145.5,185.7-210.6,287.2-101.5C2954.9-1562,2794.1-1370.5,2633.3-1449z"/><path d="M3581.1-1481.6c-32.5-34.5-55.5-76.6-55.5-107.2c0-72.7,95.7-162.7,172.3-162.7c84.2,0,153.2,74.7,153.2,162.7C3851.1-1437.5,3690.2-1374.3,3581.1-1481.6z"/><path d="M4567.2-1472c-111.1-93.8-38.3-279.5,109.1-279.5c82.3,0,151.3,74.7,151.3,162.7C4827.6-1447.1,4674.4-1378.2,4567.2-1472z"/><path d="M5545.6-1473.9c-99.6-97.7-30.7-277.6,103.4-277.6c88.1,0,162.8,74.7,162.8,162.7C5811.8-1447.1,5643.3-1374.3,5545.6-1473.9z"/><path d="M6522.2-1473.9c-99.6-97.7-30.6-277.6,105.3-277.6c76.6,0,172.3,90,172.3,162.7c0,30.6-23,72.8-55.5,107.2C6671.5-1410.7,6587.3-1406.9,6522.2-1473.9z"/><path d="M7535.1-1449c-42.1-19.2-84.3-90-84.3-139.8c0-145.5,185.7-210.6,287.2-101.5C7856.8-1562,7695.9-1370.5,7535.1-1449z"/></g></g>
</svg>