<?xml version="1.0" encoding="utf-8"?>
<!-- Svg Vector Icons : http://www.onlinewebfonts.com/icon -->
<!DOCTYPE svg PUBLIC "-//W3C//DTD SVG 1.1//EN" "http://www.w3.org/Graphics/SVG/1.1/DTD/svg11.dtd">
<svg version="1.1" xmlns="http://www.w3.org/2000/svg" xmlns:xlink="http://www.w3.org/1999/xlink" x="0px" y="0px" viewBox="0 0 1000 1000" enable-background="new 0 0 1000 1000" xml:space="preserve">
<metadata> Svg Vector Icons : http://www.onlinewebfonts.com/icon </metadata>
<g><g transform="translate(0.000000,324.000000) scale(0.100000,-0.100000)"><path d="M1158.5,1314.4c-344.5-84.2-639.3-388.6-712-735c-11.5-59.3-21.1-312-21.1-608.7v-507.2L320.1-639.9C257-701.1,191.9-789.2,161.3-854.3l-51.7-111l-5.7-1697.8L100-4360.8l80.4-5.8l82.3-5.7l5.7-245l5.7-243.1h486.2h488.1v237.4v235.4l116.8,13.4c155,15.3,7114.6,15.3,7269.6,0l116.7-13.4v-235.4v-237.4h488.1h486.2l5.7,245l5.7,243.1l82.3,5.7l80.4,5.8l-3.8,1697.8l-5.7,1697.8l-51.7,111c-30.6,65.1-95.7,153.1-158.9,214.4l-105.3,103.4v507.2c0,296.7-9.6,549.3-21,608.7c-72.8,348.4-379,662.3-725.4,740.7C8692.2,1350.7,1288.6,1345,1158.5,1314.4z M8828.1,985.2c183.7-55.5,292.9-153.1,377.1-342.6c28.7-65.1,34.5-147.4,40.2-585.7l5.7-509.1l-97.6-11.5c-195.2-23-413.4-197.2-507.2-402c-40.2-86.1-47.9-135.9-51.7-329.2l-5.7-229.7l-3592.7-5.7l-3590.8-3.8l-7.7,252.7c-5.7,220.1-13.4,266.1-51.7,338.8c-103.4,197.2-315.8,356-499.6,379l-97.6,11.5l5.7,509.1l5.7,511.1L825.4,698c72.7,147.4,168.4,229.7,333,283.3c91.9,28.7,382.8,32.5,3833.9,32.5C8343.9,1015.8,8736.2,1011.9,8828.1,985.2z M936.5-833.2c28.7-21.1,68.9-63.2,90-91.9c40.2-51.7,40.2-70.8,45.9-1582.9l3.8-1529.3H750.8H425.4v1489.1c0,920.7,7.7,1514,19.1,1556.2c21.1,76.6,97.6,155,181.8,187.6C712.5-773.9,877.1-789.2,936.5-833.2z M9366-804.5c90-30.6,166.5-107.2,189.5-187.6c11.5-42.1,19.1-635.5,19.1-1556.2v-1489.1h-325.4h-325.4V-2531c0,1479.6,0,1506.4,40.2,1586.8C9029.1-808.3,9201.4-749,9366-804.5z M8579.3-1998.9v-239.3H5000H1420.7v239.3v239.3H5000h3579.3V-1998.9z M2071.5-2628.6c21.1-59.4,91.9-107.2,155-107.2c63.2,0,151.2,67,151.2,116.8c0,34.4,17.2,36.3,335,36.3c289,0,335-3.8,335-28.7c0-49.8,90-124.4,147.4-124.4c67,0,135.9,45.9,158.9,107.2l19.1,45.9h325.4c281.4,0,325.4-3.8,325.4-28.7c0-55.5,90-124.4,160.8-124.4c49.8,0,76.6,13.4,114.8,59.4c26.8,32.5,49.8,67,49.8,76.6s139.7,17.2,325.4,17.2c260.3,0,325.4-5.7,325.4-26.8c0-55.5,91.9-126.3,162.7-126.3c72.7,0,162.7,67,162.7,124.4c0,24.9,44,28.7,325.4,28.7c185.7,0,325.4-7.6,325.4-17.2s23-44,49.8-76.6c38.3-45.9,65.1-59.4,114.8-59.4c70.8,0,160.8,68.9,160.8,124.4c0,24.9,44,28.7,325.4,28.7h325.4l19.1-45.9c21-59.4,91.9-107.2,155-107.2c63.2,0,151.2,67,151.2,116.8c0,34.4,17.2,36.3,335,36.3c289,0,335-3.8,335-28.7c0-49.8,90-124.4,147.4-124.4c67,0,135.9,45.9,158.9,107.2c17.2,44,26.8,45.9,181.8,45.9h162.7l-3.8-155c-3.8-153.1-5.7-157-59.3-174.2c-143.6-51.7-132.1-264.1,19.1-310.1c42.1-13.4,42.1-21.1,42.1-327.3v-315.8l-51.7-23c-28.7-13.4-68.9-53.6-90-86.1l-38.3-61.2l-319.6-1.9c-277.5,0-321.6,3.8-321.6,28.7c0,57.4-90,124.4-162.7,124.4c-70.8,0-162.7-70.8-162.7-126.3c0-21.1-65.1-26.8-323.5-26.8c-310.1,0-325.4,1.9-336.9,38.3c-36.4,114.8-183.7,153.1-268,67c-26.8-24.9-47.9-59.3-47.9-76.6c0-24.9-44-28.7-325.4-28.7H5823l-19.1,45.9c-21,59.3-91.9,107.2-155,107.2c-63.2,0-151.2-67-151.2-116.7c0-34.4-17.2-36.4-335-36.4c-317.7,0-335,1.9-335,36.4c0,49.8-88,116.7-151.2,116.7c-63.2,0-134-47.9-155-107.2l-19.1-45.9H4177c-281.4,0-325.4,3.8-325.4,28.7c0,55.5-90,124.4-160.8,124.4c-49.8,0-76.6-13.4-114.8-59.3c-26.8-32.5-49.8-67-49.8-76.6s-139.7-17.2-325.4-17.2c-281.4,0-325.4,3.8-325.4,28.7c0,57.4-90,124.4-162.7,124.4c-70.8,0-162.7-70.8-162.7-126.3c0-21.1-65.1-26.8-323.5-26.8c-310.1,0-325.4,1.9-336.9,38.3c-36.4,114.8-183.8,153.1-268,67c-26.8-24.9-47.9-59.3-47.9-76.6c0-21-21.1-28.7-86.1-28.7h-86.1v727.3v727.3H1727h325.4L2071.5-2628.6z M923-4458.5v-76.6H760.4H597.7v76.6v76.6h162.7H923V-4458.5z M9402.3-4458.5v-76.6h-162.7H9077v76.6v76.6h162.7h162.7V-4458.5z"/><path d="M1947.1,144.9c-67-65.1-63.2-149.3,9.6-223.9c49.8-47.9,68.9-55.5,120.6-45.9c68.9,13.4,147.4,90,147.4,147.4c0,53.6-49.8,143.6-86.1,158.9C2071.5,206.1,1993,192.7,1947.1,144.9z"/><path d="M2923.2,144.9c-91.9-90-34.4-245,99.5-269.9c51.7-9.6,70.8-1.9,120.6,45.9c72.7,74.7,76.6,158.9,9.6,223.9C3089.8,210,2986.4,210,2923.2,144.9z"/><path d="M3909,154.4c-82.3-82.3-61.3-214.4,44-264.1c158.9-76.6,302.4,130.2,176.1,254.6C4069.8,204.2,3964.5,210,3909,154.4z"/><path d="M4890.9,150.6c-57.4-65.1-65.1-105.3-36.4-176.1c70.8-168.4,308.2-112.9,302.4,70.8C5153.1,175.5,4977,244.4,4890.9,150.6z"/><path d="M5872.8,152.5c-95.7-74.6-49.8-245,74.7-277.5c61.3-15.3,147.4,28.7,178,93.8C6200.1,123.8,6010.6,261.6,5872.8,152.5z"/><path d="M6847.1,144.9c-67-65.1-63.2-149.3,9.6-223.9c49.8-47.9,68.9-55.5,120.6-45.9c68.9,13.4,147.4,90,147.4,147.4c0,53.6-49.8,143.6-86.1,158.9C6971.5,206.1,6893,192.7,6847.1,144.9z"/><path d="M7823.2,144.9c-91.9-90-34.5-245,99.5-269.9c51.7-9.6,70.8-1.9,120.6,45.9c72.7,74.7,76.6,158.9,9.6,223.9C7989.8,210,7886.4,210,7823.2,144.9z"/><path d="M2458.1-488.7c-145.5-101.4-40.2-323.5,134-285.2c116.7,26.8,155,193.3,63.2,273.7C2595.9-450.4,2519.4-446.6,2458.1-488.7z"/><path d="M3420.9-505.9c-78.5-76.6-63.2-201,30.6-248.8c74.6-40.2,122.5-36.4,178,15.3c76.6,65.1,82.3,147.4,21.1,220.1C3585.5-440.8,3489.8-435.1,3420.9-505.9z"/><path d="M4397.1-505.9c-70.8-68.9-65.1-164.6,11.5-227.8c76.6-65.1,141.6-63.2,210.5,5.7c61.2,63.2,68.9,111,26.8,191.4C4598-442.7,4473.6-427.4,4397.1-505.9z"/><path d="M5405.8-471.4c-32.5-11.5-80.4-109.1-80.4-158.9c0-59.3,101.4-153.1,162.7-153.1c72.7,0,162.7,95.7,162.7,172.3C5650.8-500.2,5520.6-425.5,5405.8-471.4z"/><path d="M6349.4-519.3c-61.3-72.7-55.5-155,21-220.1c55.5-51.7,103.4-55.5,178-15.3c143.6,72.7,82.3,296.7-82.3,296.7C6416.4-458.1,6389.6-471.4,6349.4-519.3z"/><path d="M7358.1-488.7c-145.5-101.4-40.2-323.5,134-285.2c116.8,26.8,155,193.3,63.2,273.7C7495.9-450.4,7419.4-446.6,7358.1-488.7z"/><path d="M1621.7-2955.9c-70.8-68.9-65.1-164.6,13.4-229.7c72.7-61.3,155-55.5,222,21.1c49.8,55.5,53.6,103.3,13.4,178C1822.7-2892.8,1698.2-2877.4,1621.7-2955.9z"/><path d="M2597.9-2955.9c-61.3-59.3-61.3-143.6-1.9-212.5c63.2-74.7,170.3-74.7,233.5,0c93.8,107.2,24.9,260.3-116.8,260.3C2664.8-2908.1,2628.5-2923.4,2597.9-2955.9z"/><path d="M3606.6-2921.5c-42.1-17.2-84.2-120.6-70.8-178c15.3-67,63.2-111,135.9-126.3c84.2-17.2,179.9,67,179.9,157C3851.6-2950.2,3725.2-2873.6,3606.6-2921.5z"/><path d="M4565.5-2950.2c-57.4-65.1-68.9-120.6-36.4-183.7c40.2-78.5,126.3-111,202.9-80.4c70.8,28.7,95.7,70.8,95.7,158.9C4827.7-2923.4,4653.6-2854.5,4565.5-2950.2z"/><path d="M5539.8-2952.1c-26.8-28.7-42.1-68.9-42.1-114.8c0-170.4,218.2-222,296.7-70.8C5876.6-2980.8,5660.4-2823.8,5539.8-2952.1z"/><path d="M6521.7-2955.9c-70.8-68.9-65.1-164.6,13.4-229.7c72.7-61.3,155-55.5,222,21.1c49.8,55.5,53.6,103.3,13.4,178C6722.7-2892.8,6598.2-2877.4,6521.7-2955.9z"/><path d="M7497.9-2955.9c-61.3-59.3-61.3-143.6-1.9-212.5c63.2-74.7,170.3-74.7,233.5,0c93.8,107.2,24.9,260.3-116.7,260.3C7564.8-2908.1,7528.5-2923.4,7497.9-2955.9z"/><path d="M2153.8-3405.7c-55.5-23-107.2-124.4-90-178c23-78.5,86.1-128.3,160.8-128.3c88,0,153.1,63.2,153.1,147.4c0,86.1-17.2,118.7-78.5,149.3C2238-3382.7,2215-3380.8,2153.8-3405.7z"/><path d="M3133.8-3407.6c-61.3-36.4-86.1-78.5-86.1-151.2c0-141.6,170.4-208.6,268-105.3c57.4,61.3,61.3,166.5,7.7,220.1C3277.3-3396.2,3183.6-3378.9,3133.8-3407.6z"/><path d="M4085.1-3434.4c-147.4-124.4-5.7-335,178-266c36.4,15.3,86.1,105.3,86.1,158.9c0,55.5-76.6,134-145.5,147.4C4157.8-3386.6,4132.9-3394.2,4085.1-3434.4z"/><path d="M5055.5-3442.1c-107.2-109.1-44-269.9,107.2-269.9c151.2,0,214.4,160.8,107.2,269.9C5197.1-3369.3,5128.2-3369.3,5055.5-3442.1z"/><path d="M6071.9-3411.5c-151.2-76.6-101.4-300.5,67-300.5c153.1,0,220.1,178,103.4,275.6C6177.1-3380.8,6142.7-3375.1,6071.9-3411.5z"/><path d="M7053.8-3405.7c-55.5-23-107.2-124.4-90-178c23-78.5,86.1-128.3,160.8-128.3c88,0,153.1,63.2,153.1,147.4c0,86.1-17.2,118.7-78.5,149.3C7138-3382.7,7115-3380.8,7053.8-3405.7z"/><path d="M8033.8-3409.6c-97.6-51.7-118.7-187.6-42.1-260.3c128.2-120.6,333,32.5,252.7,187.6C8200.3-3398.1,8110.4-3367.4,8033.8-3409.6z"/></g></g>
</svg>