<?xml version="1.0" encoding="utf-8"?>
<!-- Svg Vector Icons : http://www.onlinewebfonts.com/icon -->
<!DOCTYPE svg PUBLIC "-//W3C//DTD SVG 1.1//EN" "http://www.w3.org/Graphics/SVG/1.1/DTD/svg11.dtd">
<svg version="1.1" xmlns="http://www.w3.org/2000/svg" xmlns:xlink="http://www.w3.org/1999/xlink" x="0px" y="0px" viewBox="0 0 1000 1000" enable-background="new 0 0 1000 1000" xml:space="preserve">
<metadata> Svg Vector Icons : http://www.onlinewebfonts.com/icon </metadata>
<g><g transform="translate(0.000000,290.000000) scale(0.100000,-0.100000)"><path d="M2146.7,655.3c-310.7-76.7-585.1-326.1-700.1-636.8c-36.4-99.7-42.2-165-51.8-581.2l-11.5-470L1038-1239.9c-189.9-115.1-391.3-230.2-446.9-259c-80.6-38.4-117-71-172.6-157.3C78.8-2187.5,0.2-3092.9,234.2-3785.4c51.8-151.5,180.3-408.6,234-470c115.1-126.6,362.5-145.8,500.7-34.5c42.2,34.5,80.6,61.4,86.3,61.4c5.8,0,11.5-120.8,11.5-270.5v-270.5l55.6-55.6l55.6-55.6h387.5c383.6,0,385.6,0,431.6,47.9c46,44.1,48,53.7,48,326.1v278.1h2954h2954v-278.1c0-272.4,1.9-282,48-326.1c46-47.9,47.9-47.9,431.6-47.9h387.5l55.6,55.6l55.6,55.6v270.5c0,149.6,5.7,270.5,11.5,270.5s44.1-26.9,86.3-61.4c138.1-111.3,385.6-92.1,500.7,34.5c55.6,63.3,184.1,320.4,234,471.9c201.4,602.3,178.4,1337-63.3,1895.2c-101.7,237.9-174.6,333.8-293.5,391.3c-55.6,26.9-257,141.9-446.9,257l-345.3,207.2l-11.5,470c-9.6,408.6-15.4,481.5-51.8,577.4c-113.2,308.8-381.7,558.2-684.8,638.8c-99.7,24.9-450.8,28.8-2867.7,26.8C2867.9,678.3,2223.4,672.6,2146.7,655.3z M7838,325.4c257.1-71,412.4-282,435.4-583.1l11.5-163l-42.2,51.8c-53.7,65.2-136.2,84.4-209.1,46c-65.2-32.6-80.6-65.2-80.6-155.4c0-80.6,72.9-143.9,163.1-143.9c47.9,0,76.7,15.3,113.2,59.5l49.9,59.5V-722c0-316.5-23-656-40.3-623.4c-9.6,15.4-42.2,38.4-74.8,51.8c-78.6,32.6-161.1-1.9-201.4-88.2l-30.7-65.2h-295.4c-161.1,0-306.9-5.8-324.2-11.5c-23-7.7-30.7,0-30.7,30.7c0,63.3-30.7,107.4-95.9,134.3c-76.7,30.7-163-1.9-203.3-80.6c-34.5-65.2-21.1-120.8,44.1-191.8l47.9-51.8l-36.4-53.7c-69-97.8-82.5-176.5-82.5-468v-285.8h-326.1c-262.8,0-326.1,5.7-326.1,26.8c0,13.4-17.3,48-40.3,76.7c-71,90.2-245.5,55.6-274.3-55.6l-11.5-47.9h-326.1c-262.8,0-326.1,5.7-326.1,26.8c0,13.4-17.3,48-40.3,76.7c-53.7,69.1-170.7,71-237.9,1.9c-26.9-24.9-48-59.5-48-76.7c0-24.9-44.1-28.8-326.1-28.8h-326.1l-11.5,47.9c-28.8,111.3-203.3,145.8-274.3,55.6c-23-28.8-40.3-63.3-40.3-76.7c0-21.1-63.3-26.8-324.2-26.8h-324.2l-23,57.5c-13.4,32.6-40.3,67.1-59.5,76.7c-61.4,32.6-161.1,23-201.4-21.1c-36.4-40.3-36.4-38.4-46,234c-11.5,305-32.6,372.1-157.3,494.9c-97.8,97.8-195.6,136.2-354.9,136.2h-140l-26.9,63.3c-36.4,90.2-126.6,126.6-211,84.4c-36.4-15.4-72.9-53.7-86.3-86.3c-24.9-57.5-28.8-59.5-176.5-65.2l-151.5-5.8v163c1.9,163,1.9,163,63.3,201.4c120.9,76.7,111.3,226.3-17.3,287.7l-65.2,30.7v272.4c0,314.6,7.7,354.9,69.1,377.9c24.9,9.6,59.5,40.3,76.7,69.1c28.8,40.3,30.7,63.3,13.4,124.7c-21.1,80.6-11.5,95.9,118.9,184.2c149.6,103.6,30.7,99.7,2990.5,99.7C7439,356.1,7742.1,352.2,7838,325.4z M1392.8-1917c0-280.1-7.7-508.3-17.3-508.3c-9.6,0-34.5,74.8-57.5,168.8c-48,188-134.3,414.3-205.3,537.1c-26.9,46-46,90.2-42.2,101.7c3.8,13.4,285.8,197.6,318.4,207.2C1390.9-1408.7,1392.8-1637,1392.8-1917z M8931.4-1621.6c0-9.6-28.8-71-65.2-136.2c-74.8-138.1-168.8-397.1-203.3-556.3c-11.5-61.4-30.7-111.3-40.3-111.3s-17.3,207.2-17.3,508.3v506.4l163-97.8C8858.5-1562.2,8931.4-1612,8931.4-1621.6z M825-1892.1c259-464.2,312.7-1156.7,134.3-1726.4C911.3-3770,765.6-4075,740.6-4075S569.9-3771.9,522-3624.2C374.2-3167.7,380-2617.2,533.5-2176c61.4,174.6,178.4,402.8,207.2,402.8C750.2-1773.2,788.6-1826.9,825-1892.1z M2666.5-1803.9c46-44.1,46-872.8,0-916.9c-24.9-26.8-92.1-30.7-441.2-30.7c-247.4,0-427.8,7.7-450.8,19.2c-34.5,19.2-36.4,46-36.4,470c0,406.7,3.8,450.8,34.5,468c19.2,11.5,201.4,21.1,448.9,21.1C2574.4-1773.2,2641.6-1777,2666.5-1803.9z M8223.6-1792.3c34.6-19.2,36.4-46,36.4-470c0-423.9-1.9-450.8-36.4-470c-49.9-24.9-836.3-24.9-886.2,0c-34.6,19.2-36.5,46-36.5,460.4c0,372.1,3.8,443.1,30.7,468c25,26.9,92.1,30.7,441.2,30.7C8020.3-1773.2,8200.6-1780.8,8223.6-1792.3z M9341.9-1892.1c260.9-473.8,316.5-1177.8,136.2-1732.1c-47.9-147.7-195.6-450.8-220.6-450.8c-19.2,0-165,291.6-207.2,412.4c-151.5,446.9-155.4,1030.1-9.6,1465.5c69,205.3,180.3,423.9,218.7,423.9C9267.1-1773.2,9305.4-1826.9,9341.9-1892.1z M1502.2-2895.3c38.4-49.9,101.7-101.7,163-132.4c99.7-49.9,101.7-49.9,550.5-49.9c399,0,462.3,5.8,531.3,36.4c90.2,40.3,207.2,153.5,241.7,234l24.9,55.6h1977.7H6971l59.5-94c61.4-94,159.2-174.6,257-211c32.6-13.4,236-21.1,508.3-21.1h454.6l99.8,57.5c53.7,30.7,122.8,92.1,153.5,134.3c28.8,42.2,63.3,92.1,76.7,111.3c17.2,26.9,23-17.3,28.8-212.9l5.8-243.6H4999.1H1383.2l5.8,243.6c5.8,195.6,11.5,237.9,28.8,209.1C1431.2-2797.5,1467.6-2849.3,1502.2-2895.3z M8714.6-3706.7c23-71,47.9-143.9,53.7-163c13.4-30.7-174.6-32.6-3769.3-32.6c-3019.3,0-3780.8,5.8-3773.1,24.9c3.8,11.5,28.8,86.3,53.7,163l44.1,138.1h3675.3h3675.3L8714.6-3706.7z M1718.9-4391.5v-163h-163h-163v163v163h163h163V-4391.5z M8605.3-4391.5v-163h-163h-163v163v163h163h163V-4391.5z"/><path d="M2591.7,135.5c-61.4-59.5-61.4-143.9-1.9-212.9c94-111.3,280.1-38.4,280.1,109.3C2869.8,166.2,2689.5,235.2,2591.7,135.5z"/><path d="M3602.6,170c-42.2-17.3-84.4-120.8-71-178.4c26.9-122.8,174.6-165,268.5-76.7c99.8,94,34.5,270.5-101.7,266.6C3660.2,181.5,3616,175.7,3602.6,170z"/><path d="M4573.2,156.6c-141.9-107.4-21.1-335.7,149.6-280.1c168.8,55.6,128.5,308.8-51.8,306.9C4634.6,183.4,4590.5,171.9,4573.2,156.6z"/><path d="M5540,139.3c-47.9-49.9-55.6-157.3-15.4-209.1c109.3-143.9,335.7-23,280.1,149.6c-24.9,76.7-67.1,103.6-159.2,103.6C5603.3,183.4,5566.9,168.1,5540,139.3z"/><path d="M6516.4,133.5C6384-33.3,6620-236.7,6758.1-75.5c94,107.4,19.2,259-128.5,259C6572,183.4,6547.1,171.9,6516.4,133.5z"/><path d="M7502.3,135.5c-61.4-59.5-61.4-143.9-1.9-212.9c94-111.3,280-38.4,280,109.3C7780.5,166.2,7600.2,235.2,7502.3,135.5z"/><path d="M2140.9-321.1c-99.8-49.9-115.1-170.7-34.5-257.1c88.2-94,264.7-26.8,264.7,99.8c0,90.2-15.3,122.8-78.6,153.5C2227.2-290.4,2202.3-290.4,2140.9-321.1z"/><path d="M3128.8-317.2c-63.3-36.4-86.3-78.6-86.3-153.5c0-138.1,174.6-205.2,268.5-103.6c57.5,61.4,61.4,166.9,7.7,220.6C3272.7-305.7,3178.7-288.5,3128.8-317.2z"/><path d="M4107.1-319.2c-59.5-34.5-84.4-76.7-86.3-145.8c-1.9-166.9,224.4-216.8,303.1-67.1c36.5,67.1,26.9,120.8-32.6,180.3C4231.8-294.2,4170.4-282.7,4107.1-319.2z"/><path d="M5054.7-351.8c-71-72.9-74.8-157.3-7.7-222.5c97.8-99.8,278.1-30.7,278.1,105.5c0,76.7-90.2,172.6-163,172.6C5131.4-296.1,5089.2-319.2,5054.7-351.8z"/><path d="M6033-351.8c-59.5-59.5-69.1-113.2-32.6-180.3c32.6-63.3,74.8-88.2,145.8-90.2c166.9-1.9,216.8,224.4,67.1,303.1C6146.2-282.7,6092.4-292.3,6033-351.8z"/><path d="M7051.6-321.1c-99.8-49.9-115.1-170.7-34.5-257.1c88.2-94,264.7-26.8,264.7,99.8c0,90.2-15.3,122.8-78.6,153.5C7137.9-290.4,7112.9-290.4,7051.6-321.1z"/><path d="M2591.7-842.8c-67.1-65.2-63.3-149.6,7.7-222.5c72.9-72.9,141.9-72.9,214.8,0c107.4,109.3,44.1,270.5-107.4,270.5C2658.8-794.9,2622.4-810.2,2591.7-842.8z"/><path d="M3583.4-833.2c-88.2-82.5-71-205.3,36.4-266.6c97.8-55.6,228.3,26.9,228.3,145.8C3848.1-819.8,3681.2-743.1,3583.4-833.2z"/><path d="M4557.9-842.8c-126.6-136.2,23-335.7,188-251.3c65.2,32.6,80.6,65.2,80.6,155.4C4826.4-808.3,4649.9-745,4557.9-842.8z"/><path d="M5547.7-835.2c-36.4-28.8-49.9-57.5-49.9-103.6c0-90.2,15.4-122.8,80.6-155.4c111.3-57.5,234,13.4,234,136.2C5812.4-817.9,5658.9-746.9,5547.7-835.2z"/><path d="M6524-842.8c-90.2-88.2-46-239.8,80.6-270.5c101.7-26.9,216.8,88.2,189.9,189.9C6763.8-796.8,6612.3-752.7,6524-842.8z"/><path d="M7502.3-842.8c-67.1-65.2-63.3-149.6,7.7-222.5c72.9-72.9,141.9-72.9,214.8,0c107.4,109.3,44.1,270.5-107.4,270.5C7569.5-794.9,7533-810.2,7502.3-842.8z"/><path d="M3128.8-1297.4c-97.8-51.8-118.9-188-42.2-260.9c49.9-48,157.3-55.6,209.1-15.4c92.1,69.1,78.6,218.7-24.9,270.5C3207.5-1268.7,3180.6-1268.7,3128.8-1297.4z"/><path d="M4135.9-1287.9c-67.1-24.9-115.1-90.1-115.1-153.5c0-117,122.8-191.8,239.8-147.7c36.4,15.3,86.3,105.5,86.3,159.2C4346.9-1345.4,4214.5-1257.2,4135.9-1287.9z"/><path d="M5102.6-1293.6c-105.5-42.2-134.3-182.2-55.6-259c97.8-99.8,278.1-30.7,278.1,103.6C5325.2-1339.6,5198.6-1253.3,5102.6-1293.6z"/><path d="M6073.3-1299.4c-153.5-78.6-97.8-301.2,74.8-301.2c92.1,0,155.4,67.1,155.4,163C6303.5-1328.1,6171.1-1247.6,6073.3-1299.4z"/><path d="M3577.7-1828.8c-32.6-34.5-55.6-76.7-55.6-107.4c0-72.9,95.9-163,172.6-163c84.4,0,153.5,74.8,153.5,163C3848.1-1784.7,3687-1721.4,3577.7-1828.8z"/><path d="M4565.5-1819.2c-111.3-94-38.4-280.1,109.3-280.1c82.5,0,151.5,74.8,151.5,163C4826.4-1794.3,4673-1725.2,4565.5-1819.2z"/><path d="M5545.8-1821.1c-99.7-97.8-30.7-278.1,103.6-278.1c88.2,0,163,74.8,163,163C5812.4-1794.3,5643.6-1721.4,5545.8-1821.1z"/><path d="M6524-1821.1c-47.9-46-61.4-124.7-36.4-191.8c15.4-36.4,105.5-86.3,161.1-86.3c59.5,0,153.5,101.7,153.5,163c0,30.7-23,72.9-55.6,107.4C6673.7-1757.8,6589.3-1754,6524-1821.1z"/></g></g>
</svg>