<?xml version="1.0" encoding="utf-8"?>
<!-- Svg Vector Icons : http://www.onlinewebfonts.com/icon -->
<!DOCTYPE svg PUBLIC "-//W3C//DTD SVG 1.1//EN" "http://www.w3.org/Graphics/SVG/1.1/DTD/svg11.dtd">
<svg version="1.1" xmlns="http://www.w3.org/2000/svg" xmlns:xlink="http://www.w3.org/1999/xlink" x="0px" y="0px" viewBox="0 0 1000 1000" enable-background="new 0 0 1000 1000" xml:space="preserve">
<metadata> Svg Vector Icons : http://www.onlinewebfonts.com/icon </metadata>
<g><g transform="translate(0.000000,349.000000) scale(0.100000,-0.100000)"><path d="M1880.9,1793.5c-105.4-47.9-201.2-136.1-254.8-237.6c-40.2-70.9-42.2-111.1-51.7-572.9l-9.6-494.4l-546.1-243.3C340.3-57.6,372.8-40.3,256-168.7C93.1-346.9,95-318.1,102.7-1523.4c7.7-998.3,9.6-1046.2,47.9-1184.2c95.8-331.5,260.6-599.8,519.3-845c252.9-241.4,569.1-402.4,894.9-459.9c74.7-13.4,124.6-30.7,124.6-44.1c0-13.4-24.9-153.3-57.5-308.5c-70.9-350.7-70.9-381.3-7.7-440.7c47.9-46,65.1-47.9,270.2-47.9h218.4l423.5,412l425.4,412h2213.2h2213.2l413.9-412l413.9-412h226.1c212.7,0,226.1,1.9,270.2,47.9c63.2,61.3,61.3,92-19.2,488.6c-36.4,182-61.3,337.2-55.6,343c5.8,5.8,61.3,28.8,122.6,51.7c415.8,149.5,841.2,559.5,1013.7,979.2C9901.9-2631,9900-2654,9900-1471.7c0,1073.1,0,1073.1-42.2,1159.3c-49.8,99.6-178.2,237.6-264.4,283.6c-30.7,17.3-302.8,139.9-603.6,274l-546.1,243.3l-9.6,494.4c-9.6,461.8-11.5,502-51.7,572.9c-53.7,101.6-149.5,189.7-254.9,237.6c-86.2,38.3-109.2,40.2-3123.3,40.2C1990.1,1833.7,1967.1,1831.8,1880.9,1793.5z M8070.1,1469.6c38.3-38.3,38.3-63.2,38.3-1552.1v-1513.8H6757.5c-1314.5,0-1352.8-1.9-1454.4-40.2c-57.5-21.1-149.5-78.6-203.1-124.6l-95.8-88.2l-95.8,88.2c-53.6,46-145.6,103.5-203.1,124.6c-101.6,38.3-139.9,40.2-1454.4,40.2H1900V-82.5c0,1488.9,0,1513.8,38.3,1552.1c38.3,38.3,63.2,38.3,3065.9,38.3S8031.7,1508,8070.1,1469.6z M1574.3-770.4V-1669l-147.5-72.8c-82.4-40.3-155.2-76.6-162.9-80.5c-7.7-3.8-15.3,316.2-19.2,709c-5.7,709-5.7,714.7-51.7,801c-24.9,47.9-70.9,113.1-101.6,147.5l-57.5,59.4l92,42.2c51.7,21.1,166.7,72.8,256.8,115c90.1,40.2,168.6,74.7,178.2,74.7C1568.5,128.3,1574.3-276,1574.3-770.4z M8666,30.6c120.7-53.7,237.6-105.4,262.5-115c46-17.2,46-17.2-32.6-107.3c-130.3-147.5-136-187.8-136-960c0-371.7-5.7-674.5-13.4-670.7c-9.6,3.8-82.4,40.2-162.9,80.5l-149.5,72.8v898.7c0,494.4,3.8,898.7,7.7,898.7C8445.6,128.3,8547.2,84.2,8666,30.6z M805.9-322c30.7-15.3,63.2-51.7,74.7-80.5c15.3-36.4,23-377.5,28.7-1050.1c5.8-973.4,5.8-998.3,47.9-1109.5c115-306.6,362.2-540.3,672.6-632.3c93.9-26.8,421.6-30.6,3364.8-30.6c3552.6,0,3353.3-5.7,3577.5,107.3c118.8,61.3,298.9,228,379.4,352.6c30.7,47.9,76.7,139.9,99.6,203.1c40.2,111.2,42.2,138,47.9,1109.5c5.7,670.7,13.4,1013.6,28.7,1050.1c26.8,70.9,107.3,109.2,222.3,109.2c107.3,0,176.3-42.2,212.7-130.3c17.2-42.2,21.1-320,17.2-1088.4c-7.7-1165-3.8-1120.9-162.9-1444.8c-72.8-149.5-115-208.9-243.4-335.3c-180.1-178.2-308.5-258.7-542.3-343l-168.6-59.4H5004.2H1545.5l-168.6,59.4c-233.8,84.3-362.2,164.8-542.3,343c-128.4,126.5-170.5,185.9-243.3,335.3c-159,323.8-155.2,279.8-162.9,1444.8c-5.8,1101.8-5.8,1107.5,88.1,1180.4C574-285.6,727.3-279.8,805.9-322z M4682.3-1975.6c130.3-80.5,149.5-155.2,149.5-567.2v-358.3l-1565.5,5.7l-1567.4,5.7l-107.3,49.8c-195.4,92-318.1,264.4-337.3,477.1l-9.6,107.3l82.4,67.1c130.3,107.3,285.5,185.9,440.7,228c134.1,34.5,206.9,36.4,1492.7,32.6l1350.9-3.8L4682.3-1975.6z M8232.9-1960.3c162.9-42.2,316.2-118.8,448.4-228l82.4-67.1l-9.6-107.3c-19.2-212.7-141.8-385.1-337.3-477.1l-107.3-49.8l-1565.5-5.7l-1567.4-5.7v360.2c0,321.9,3.8,366,38.3,438.8c40.3,82.4,101.6,136.1,189.7,161c26.8,9.6,641.9,17.3,1364.3,17.3C8024.1-1922,8089.2-1923.9,8232.9-1960.3z M2225.8-4288.4c-214.6-216.5-287.4-272.1-287.4-222.3c0,21.1,76.6,406.2,86.2,438.8c5.7,17.3,69,23,224.2,23h216.5L2225.8-4288.4z M8351.7-4269.3c23-115,42.2-222.3,44.1-233.8c1.9-59.4-63.2-9.6-287.4,214.6L7868.9-4047l220.4-5.8l218.4-5.7L8351.7-4269.3z"/><path d="M4074.9,310.4C3971.4,208.8,4046.1,44,4193.7,44c76.6,0,159,74.7,159,143.7c0,53.6-49.8,143.7-86.2,159C4199.4,371.7,4120.9,358.3,4074.9,310.4z"/><path d="M4726.4,310.4c-61.3-59.4-61.3-143.7-1.9-212.7c93.9-111.1,279.8-38.3,279.8,109.2C5004.2,341,4824.1,410,4726.4,310.4z"/><path d="M5377.9,310.4c-61.3-59.4-61.3-143.7-1.9-212.7c93.9-111.1,279.8-38.3,279.8,109.2C5655.7,341,5475.6,410,5377.9,310.4z"/><path d="M4412.1-170.6c-46-38.3-59.4-65.1-59.4-115c0-170.5,222.3-222.3,302.7-70.9c36.4,67.1,26.8,120.7-32.6,180.1C4553.9-107.4,4488.8-105.5,4412.1-170.6z"/><path d="M5059.8-176.4c-70.9-70.9-72.8-149.5-7.7-220.4c95.8-103.5,277.8-36.4,277.8,103.5c0,76.6-90.1,172.5-162.9,172.5C5136.4-120.8,5094.3-143.8,5059.8-176.4z"/></g></g>
</svg>