<?xml version="1.0" encoding="utf-8"?>
<!-- Svg Vector Icons : http://www.onlinewebfonts.com/icon -->
<!DOCTYPE svg PUBLIC "-//W3C//DTD SVG 1.1//EN" "http://www.w3.org/Graphics/SVG/1.1/DTD/svg11.dtd">
<svg version="1.1" xmlns="http://www.w3.org/2000/svg" xmlns:xlink="http://www.w3.org/1999/xlink" x="0px" y="0px" viewBox="0 0 1000 1000" enable-background="new 0 0 1000 1000" xml:space="preserve">
<metadata> Svg Vector Icons : http://www.onlinewebfonts.com/icon </metadata>
<g><g transform="translate(0.000000,307.000000) scale(0.100000,-0.100000)"><path d="M1386.4,977c-170.4-59.4-308.3-181.9-404-358.1c-51.7-95.7-51.7-95.7-61.3-593.6l-9.6-496l-80.4-23c-327.5-95.8-616.6-394.5-704.7-725.8c-78.5-306.4,21.1-647.2,260.4-890.4c122.6-124.5,237.5-197.2,407.9-260.4l116.8-42.1l5.7-1227.5l3.8-1227.5H1486h564.9v162.8v162.8h2949h2949v-162.8v-162.8h564.9h564.9l3.8,1227.5l5.7,1227.5l116.8,42.1c335.1,122.5,582.1,386.8,668.3,710.4c124.5,478.7-203,1020.7-704.7,1166.2l-80.4,23l-9.6,496c-9.6,496-9.6,497.9-61.3,595.6c-68.9,132.1-203,262.3-337,327.5l-109.2,53.6l-3542.7,3.8C1666,1009.6,1480.3,1009.6,1386.4,977z M8544.5,664.9c90-30.6,166.6-107.2,191.5-189.6c11.5-40.2,17.2-243.2,13.4-505.5l-5.7-438.5l-78.5-23c-252.8-74.7-499.8-287.2-622.4-536.2c-90-183.8-113-317.9-113-645.4v-245.1H5000H2070.1v235.5c-1.9,461.5-70.9,676-291.1,907.7c-134,137.9-231.7,203-406,266.2l-116.8,42.1l-5.7,427c-3.8,235.5,0,457.7,5.7,492.1c15.3,80.4,111.1,189.6,189.6,212.6C1539.6,691.7,8464.1,691.7,8544.5,664.9z M1365.4-851.8c134-59.4,237.5-162.8,300.6-298.7l49.8-107.2l5.7-1641.1l3.8-1643H1486h-239.4v1551.1v1551.1h-172.3H901.9v-317.9v-316l-42.1,11.5c-180,53.6-342.8,224.1-402.1,417.5c-111.1,365.8,63.2,714.3,415.6,831.1C992-775.2,1239-792.4,1365.4-851.8z M9207.1-844.1c118.7-51.7,260.4-195.3,314-319.8c97.7-220.2,53.6-530.4-99.6-704.7c-76.6-86.2-193.4-166.6-279.6-193.4l-44-11.5v316v317.9h-172.3h-172.3v-1551.1v-1551.1h-239.4h-239.4v1604.7c0,1759.9-3.8,1706.2,114.9,1884.3c67,101.5,174.3,180,312.1,229.8C8837.5-775.2,9069.2-784.7,9207.1-844.1z M7929.8-2502.5v-239.4H5000H2070.1v239.4v239.4H5000h2929.9V-2502.5z M7929.8-3641.9v-574.5H5000H2070.1v574.5v574.5H5000h2929.9V-3641.9z"/><path d="M2770.9-7.3c-28.7-24.9-55.5-70.8-61.3-103.4c-9.6-53.6,0-74.7,95.7-178.1s105.3-120.6,88.1-164.7c-23-63.2-24.9-248.9-1.9-327.5c15.3-55.5,9.6-67-76.6-153.2c-105.3-103.4-128.3-170.4-86.2-252.8c65.1-126.4,204.9-113,344.7,30.6c67,70.9,78.5,74.7,132.1,59.4c80.4-23,237.5-21.1,319.8,1.9c63.2,17.2,70.9,15.3,162.8-74.7c114.9-111.1,160.9-128.3,237.5-88.1c130.2,67,130.2,168.5,0,306.4l-95.7,101.5l21.1,118.7c15.3,86.2,15.3,145.5,0,222.1l-23,105.3l97.7,103.4c118.7,124.5,128.3,191.5,42.1,279.6c-88.1,86.2-155.1,76.6-279.6-42.1l-101.5-95.8l-114.9,21.1c-86.2,17.2-137.9,17.2-222.1,0l-109.2-23l-103.4,97.7C2918.4,48.3,2851.4,63.6,2770.9-7.3z M3477.6-484.1c82.3-72.8,99.6-128.3,59.4-204.9c-68.9-134-197.2-157-293-55.5c-91.9,93.8-91.9,160.9,1.9,254.7C3328.2-407.5,3387.6-405.6,3477.6-484.1z"/><path d="M6032.1-20.7c-86.2-88.1-76.6-155.1,42.1-279.6l95.8-101.5l-21.1-114.9c-17.2-86.2-17.2-137.9,0-222.1l23-109.2l-97.7-103.4c-113-118.7-126.4-185.8-51.7-270c34.5-40.2,61.3-53.6,114.9-53.6c57.5,0,86.2,15.3,170.4,99.6c97.7,95.8,103.4,99.6,166.6,80.4c82.3-23,239.4-24.9,319.8-1.9c53.6,15.3,65.1,11.5,132.1-59.4c139.8-143.6,279.6-157,344.7-30.6c42.1,82.3,19.1,149.4-86.2,252.8c-86.2,86.2-91.9,97.7-76.6,153.2c23,80.4,21.1,264.3-1.9,329.4c-19.1,47.9-13.4,61.3,80.4,155.1c84.2,84.3,99.6,113,99.6,170.4c0,53.6-13.4,80.4-53.6,114.9c-84.2,74.7-151.3,61.3-270-51.7l-101.5-95.8l-114.9,21.1c-86.2,17.2-137.9,17.2-222.1,0l-109.1-23l-103.4,97.7C6187.2,55.9,6120.2,65.5,6032.1-20.7z M6754-489.8c88.1-88.1,88.1-166.6,3.8-254.7C6658.3-846,6531.9-823,6463-689c-40.2,76.6-23,132.1,59.4,204.9C6612.3-405.6,6671.7-407.5,6754-489.8z"/></g></g>
</svg>