<?xml version="1.0" encoding="utf-8"?>
<!-- Svg Vector Icons : http://www.onlinewebfonts.com/icon -->
<!DOCTYPE svg PUBLIC "-//W3C//DTD SVG 1.1//EN" "http://www.w3.org/Graphics/SVG/1.1/DTD/svg11.dtd">
<svg version="1.1" xmlns="http://www.w3.org/2000/svg" xmlns:xlink="http://www.w3.org/1999/xlink" x="0px" y="0px" viewBox="0 0 1000 1000" enable-background="new 0 0 1000 1000" xml:space="preserve">
<metadata> Svg Vector Icons : http://www.onlinewebfonts.com/icon </metadata>
<g><g transform="translate(0.000000,512.000000) scale(0.100000,-0.100000)"><path d="M100,3708.9V2397.7h488.1h488.1v-499.6c0-505.3,5.7-551.3,74.6-604.8c51.7-40.2,151.2-28.7,202.9,23l47.9,45.9v518.7v516.8h162.7H1727V-291.5v-2689.3h-72.7h-74.7l-11.5-197.1c-23-382.8-137.8-658.4-375.2-893.9c-231.6-229.7-490-346.4-836.4-375.1c-160.8-13.4-197.1-28.7-233.5-97.6c-36.4-67-26.8-120.6,32.5-179.9L211-4780h1906.4h1906.4v411.5v411.5h2450h2450v-411.5V-4780h488.1H9900v1990.6c0,1960,0,1992.5-38.3,2067.2c-59.3,116.7-168.4,179.9-327.3,187.6l-132.1,7.7V611.9c0,1253.7,5.7,1186.7-122.5,1322.6c-32.5,36.4-91.9,80.4-130.1,101.5c-70.8,36.4-139.7,36.4-2702.7,32.5l-2629.9-5.7l-82.3-57.4c-45.9-32.5-109.1-101.4-141.6-153.1l-57.4-91.9L3530,613.8l-5.7-1144.6h-95.7c-155,0-290.9-74.7-352.2-193.3c-23-40.2-26.8-377.1-30.6-1843.3l-3.8-1791.6l-40.2,11.5c-105.3,32.5-264.1,143.6-403.9,283.3c-246.9,250.7-350.3,491.9-367.5,869l-11.5,214.4h-82.3h-84.2v2689.3v2689.3l819.2,3.8l817.3,5.7l5.7,1307.3l3.8,1305.4H1899.2H100V3708.9z M3373,3718.4v-976.2H1899.2H425.4v976.2v976.2h1473.8H3373V3718.4z M9073.1,604.3l3.8-1135h-195.2c-227.8,0-294.8-24.9-386.7-139.7l-59.3-74.6l-5.7-304.3l-5.7-304.3H6473.8H4525.3l-7.7,285.2c-5.7,283.3-5.7,287.1-63.2,369.4c-95.7,134-176.1,168.4-405.8,168.4h-197.1V577.5c0,610.6,5.7,1121.6,11.5,1138.9c11.5,28.7,252.7,30.6,2608.9,26.8l2595.5-5.7L9073.1,604.3z M4177-1755.8v-899.6h2298.8h2300.7l-7.6,895.8l-7.7,893.9l407.7,5.7l405.8,3.8v-1387.7v-1387.7H6473.8H3373v1387.7v1387.7h402h402V-1755.8z M8426.2-2004.6V-2330H6473.8H4521.5v325.4v325.4h1952.3h1952.3V-2004.6z M1918.4-3386.6c0-72.7,61.3-273.7,124.4-411.5c93.8-204.8,193.3-342.6,359.8-509.1l151.2-147.4h-658.4h-656.5l172.3,178c246.9,250.8,396.2,524.5,451.7,821.1C1883.9-3336.8,1918.4-3294.7,1918.4-3386.6z M3698.4-4215.4v-239.3h-132.1c-202.9,0-193.3-11.5-193.3,250.7v227.8h162.7h162.7V-4215.4z M9574.6-4215.4v-239.3h-162.7h-162.7v239.3v239.3h162.7h162.7V-4215.4z"/></g></g>
</svg>