<?xml version="1.0" encoding="utf-8"?>
<!-- Svg Vector Icons : http://www.onlinewebfonts.com/icon -->
<!DOCTYPE svg PUBLIC "-//W3C//DTD SVG 1.1//EN" "http://www.w3.org/Graphics/SVG/1.1/DTD/svg11.dtd">
<svg version="1.1" xmlns="http://www.w3.org/2000/svg" xmlns:xlink="http://www.w3.org/1999/xlink" x="0px" y="0px" viewBox="0 0 1000 1000" enable-background="new 0 0 1000 1000" xml:space="preserve">
<metadata> Svg Vector Icons : http://www.onlinewebfonts.com/icon </metadata>
<g><g transform="translate(0.000000,512.000000) scale(0.100000,-0.100000)"><path d="M2280.3,4964.5l-55.5-55.5v-951.2v-951.2l55.5-55.5c49.8-47.8,70.8-55.5,162.7-55.5h107.2V1507.9V120.4h-258.4c-275.6,0-336.9-15.3-371.3-89.9c-13.4-28.7-21.1-185.7-21.1-415.3c0-365.6,0-369.4,47.8-421.1c44-47.9,55.5-49.7,237.3-49.7h193.3l3.8-1915.8l5.7-1915.8l53.6-45.9c78.5-67,168.4-61.3,231.6,13.4l49.8,59.3v1404.8V-1851h153.1h153.1l3.8-1255.5l5.7-1255.5l53.6-45.9c74.6-63.2,155-59.3,225.8,9.6l55.5,55.5v1246v1246H5000h1626.8v-1242.1v-1242.1l49.8-59.3c53.6-63.2,128.2-78.5,202.9-38.3c90,47.9,91.9,68.9,91.9,1366.5V-1851h153.1h153.1v-1404.8v-1404.8l49.8-59.3c63.2-74.6,153.1-80.4,231.6-13.4l53.6,45.9l5.7,1915.8l3.8,1915.8H7802c99.5,0,195.2,5.7,212.4,11.5c72.7,28.7,86.1,105.3,86.1,486.2V9.4L8045,64.8l-55.5,55.5h-269.9h-269.9v1387.6v1387.6H7557c91.9,0,112.9,7.7,162.7,55.5l55.5,55.5v951.2V4909l-55.5,55.5l-55.5,55.5H5000H2335.8L2280.3,4964.5z M7449.8,3957.8v-736.9H5000H2550.2v736.9v736.9H5000h2449.8V3957.8z M3200.9,1507.9V120.4h-162.7h-162.7v1387.6v1387.6h162.7h162.7V1507.9z M3851.6,1507.9V120.4h-153.1h-153.1v1387.6v1387.6h153.1h153.1V1507.9z M4502.4,1507.9V120.4h-153.1h-153.1v1387.6v1387.6h153.1h153.1V1507.9z M5153.1,1507.9V120.4H5000h-153.1v1387.6v1387.6H5000h153.1V1507.9z M5803.8,1507.9V120.4h-153.1h-153.1v1387.6v1387.6h153.1h153.1V1507.9z M6454.6,1507.9V120.4h-153.1h-153.1v1387.6v1387.6h153.1h153.1V1507.9z M7124.5,1507.9V120.4h-162.7h-162.7v1387.6v1387.6h162.7h162.7V1507.9z M7775.2-367.7v-162.7H5000H2224.8v162.7V-205H5000h2775.2V-367.7z M3028.7-1181.1v-325.4h-153.1h-153.1v325.4v325.4h153.1h153.1V-1181.1z M6626.8-1181.1v-325.4H5000H3373.2v325.4v325.4H5000h1626.8V-1181.1z M7277.6-1181.1v-325.4h-153.1h-153.1v325.4v325.4h153.1h153.1V-1181.1z"/><path d="M3914.8,4323.3l-53.6-45.9v-317.7c0-304.3,1.9-317.7,44-359.8l44-44H5000h1050.8l44,44c42.1,42.1,44,55.5,44,359.8v317.7l-53.6,45.9l-53.6,45.9H5000H3968.4L3914.8,4323.3z M5813.4,3957.8v-76.6H5000h-813.4l-5.7,53.6c-13.4,114.8-59.3,109.1,823,105.3l809.6-5.7V3957.8z"/></g></g>
</svg>