<?xml version="1.0" encoding="utf-8"?>
<!-- Svg Vector Icons : http://www.onlinewebfonts.com/icon -->
<!DOCTYPE svg PUBLIC "-//W3C//DTD SVG 1.1//EN" "http://www.w3.org/Graphics/SVG/1.1/DTD/svg11.dtd">
<svg version="1.1" xmlns="http://www.w3.org/2000/svg" xmlns:xlink="http://www.w3.org/1999/xlink" x="0px" y="0px" viewBox="0 0 1000 1000" enable-background="new 0 0 1000 1000" xml:space="preserve">
<metadata> Svg Vector Icons : http://www.onlinewebfonts.com/icon </metadata>
<g><g transform="translate(0.000000,400.000000) scale(0.100000,-0.100000)"><path d="M8127.9,2746.7c-49.9-63.3-51.8-143.8-3.8-201.4l36.4-44.1l-92.1-82.5c-164.9-149.6-174.5-274.2-28.8-418.1c97.8-97.8,184.1-130.4,268.5-95.9c101.6,38.4,132.3,176.4,57.5,258.9c-26.9,28.8-21.1,38.4,49.9,95.9c105.5,84.4,161.1,209,132.3,295.3c-21.1,63.3-130.4,182.2-205.2,220.6C8266,2813.8,8172.1,2802.3,8127.9,2746.7z"/><path d="M3816.7,2539.6c-53.7-13.4-149.6-49.9-211-80.6c-124.7-61.4-339.4-264.7-397-374l-36.4-71l-212.9-7.7c-189.9-5.8-226.3-13.4-341.4-67.1c-312.6-147.7-467.9-473.7-360.5-757.5c69-186,335.6-433.4,577.3-535.1c57.5-23-69-28.8-1143-36.4C358.9,598.8,424.1,606.4,274.5,476C153.7,368.6,100,255.5,100,111.6c1.9-149.6,46-247.4,163-352.9c163-145.8-1.9-136.2,2153.7-141.9l1931.2-3.8v-1141.1v-1141.1h76.7h76.7v-163v-163h-163h-163v-178.4c0-598.4-374-1091.2-949.3-1252.3c-86.3-24.9-234-34.5-598.4-44.1c-467.9-11.5-485.2-13.4-527.4-53.7c-63.3-63.3-57.5-170.7,11.5-228.2l51.8-46H5000h2836.4l51.8,46c72.9,61.4,74.8,170.7,3.8,232.1c-49.9,42.2-67.1,44.1-537,51.8c-521.6,9.6-613.7,24.9-840,140c-423.8,214.8-690.4,659.7-690.4,1154.5v178.4h-163h-163v163v163h76.7h76.7v1141.1V-387h1894.8c2121.1,0,2015.6-5.7,2178.6,136.2c126.6,111.2,172.6,209,174.5,362.5c0,143.8-53.7,257-174.5,364.4c-115.1,99.7-184.1,120.8-444.9,130.4l-234,7.7l74.8,38.4c92.1,44.1,224.4,184.1,262.7,274.2c44.1,105.5,34.5,255.1-23,370.1c-88.2,176.4-243.6,272.3-462.2,287.7l-140,9.6v72.9v74.8h-565.8h-565.8V1176V610.3h-588.8h-590.7l117,65.2c454.5,243.6,631,535.1,527.4,872.6c-23,74.8-44.1,136.2-46,136.2c-1.9,0-51.8-13.4-109.3-28.8c-136.2-36.4-153.4-36.4-153.4,5.8c0,67.1-115.1,274.3-201.4,358.6c-47.9,49.9-145.7,117-216.7,149.6c-111.2,53.7-147.7,61.4-281.9,61.4c-115.1-1.9-176.4-11.5-247.4-44.1l-94-42.2l-94,88.2c-249.3,234-596.4,281.9-909,128.5l-101.6-49.9l-61.4,51.8C4376.7,2530,4073.7,2601,3816.7,2539.6z M4301.9,2173.3c176.4-86.3,314.5-326,314.5-542.7v-84.4l-107.4,13.4c-249.3,30.7-784.4,186-972.3,280l-71,38.4l30.7,61.4c99.7,199.5,308.8,306.9,560,293.4C4158.1,2227,4227.1,2209.7,4301.9,2173.3z M5377.8,2056.3c138.1-86.3,207.1-220.5,207.1-414.2c0-80.5-5.8-151.5-13.4-159.2c-7.7-7.7-151.5-7.7-320.3,0l-308.8,15.3v138.1c0,122.7-30.7,268.5-84.4,395.1c-23,53.7,107.4,95.9,280,88.2C5260.8,2113.8,5301.1,2102.3,5377.8,2056.3z M6217.8,1893.3c95.9-26.8,211-140,237.8-235.9c9.6-42.2,15.3-80.6,11.5-88.2c-9.6-15.3-193.7-44.1-425.8-67.1l-117-13.4V1621c1.9,71-3.8,157.3-11.5,191.8c-13.4,57.5-9.6,63.3,49.9,80.5C6051,1918.2,6127.7,1918.2,6217.8,1893.3z M3293.1,1588.4c295.3-141.9,613.7-247.4,978.1-324.1c446.8-92.1,629-107.4,1237-107.4c475.6,0,596.4,7.7,843.8,44.1c159.2,23,320.3,49.9,360.5,59.5c38.4,9.6,71,11.5,71,1.9c0-28.8-111.2-164.9-174.5-212.9c-264.7-201.4-717.3-343.3-1317.5-412.3c-404.7-47.9-1144.9-28.8-1524.6,38.4c-740.3,128.5-1221.7,402.7-1221.7,696.2c0,86.3,107.4,234,209,287.7C2903.8,1737.9,3013.1,1722.6,3293.1,1588.4z M8432.9,1013V610.3h-239.7h-239.7V1013v402.7h239.7h239.7V1013z M9046.6,1214.4c47.9-42.2,51.8-172.6,7.7-235.9c-25-36.4-46-42.2-163-42.2h-132.3v149.6c0,82.5,5.7,157.3,15.3,164.9C8801.1,1279.6,9004.4,1252.7,9046.6,1214.4z M9526,245.9c42.2-23,67.1-128.5,49.9-203.3C9549-64.8,9807.9-59,5000-59S451-64.8,424.1,42.6c-17.3,71,7.7,180.3,46,201.4C516.2,270.8,9476.2,272.7,9526,245.9z M5326-1365.1v-978.1h-326h-326v978.1V-387h326h326V-1365.1z M5168.8-2836l5.7-159.2H5000h-172.6v149.6c0,82.5,5.7,157.3,13.4,164.9c7.7,7.7,82.5,9.6,168.8,7.7l153.4-5.8L5168.8-2836z M5525.5-3474.6c69-326,251.2-648.2,492.9-870.7l136.2-126.6H5003.8H3851.2l159.2,157.3c199.4,201.4,333.7,418.1,412.3,663.6c30.7,101.7,63.3,218.6,69,258.9l11.5,71h494.8h494.8L5525.5-3474.6z"/></g></g>
</svg>