<?xml version="1.0" encoding="utf-8"?>
<!-- Svg Vector Icons : http://www.onlinewebfonts.com/icon -->
<!DOCTYPE svg PUBLIC "-//W3C//DTD SVG 1.1//EN" "http://www.w3.org/Graphics/SVG/1.1/DTD/svg11.dtd">
<svg version="1.1" xmlns="http://www.w3.org/2000/svg" xmlns:xlink="http://www.w3.org/1999/xlink" x="0px" y="0px" viewBox="0 0 1000 1000" enable-background="new 0 0 1000 1000" xml:space="preserve">
<metadata> Svg Vector Icons : http://www.onlinewebfonts.com/icon </metadata>
<g><g transform="translate(0.000000,512.000000) scale(0.100000,-0.100000)"><path d="M3602.2,4988.1c-335.1-72.8-622.3-233.6-880.8-497.9c-476.8-488.3-620.4-1164.2-381-1786.5c59.4-151.3,243.2-450,321.7-520.8c40.2-36.4,40.2-47.9,40.2-852.1l-1.9-815.7l-109.1-55.5C2305.9,316,2058.9,95.8,1963.1-99.5c-49.8-103.4-55.5-130.2-55.5-314c0-178.1,5.7-212.5,51.7-312.1c63.2-132.1,214.5-298.7,331.3-360l86.2-45.9l3.8-1776.9l5.7-1778.9l53.6-45.9c78.5-67,168.5-61.3,231.7,13.4l49.8,59.4v1405.5v1405.5h153.2h153.2l3.8-1256.1l5.7-1256.1l53.6-45.9c74.7-63.2,155.1-59.4,226,9.6l55.5,55.5v1246.5v1246.5H5000h1627.6v-1242.7V-4335l49.8-59.4c53.6-63.2,128.3-78.5,203-38.3c90,47.9,91.9,68.9,91.9,1367.2v1215.9h153.2h153.2v-1405.5v-1405.5l49.8-59.4c63.2-74.7,153.2-80.4,231.7-13.4l53.6,45.9l5.7,1778.9l3.8,1776.9l86.2,45.9c116.8,61.3,268.1,227.9,331.3,360c46,99.6,51.7,134,51.7,312.1c0,183.8-5.7,210.6-57.5,315.9c-99.6,199.1-340.8,413.6-626.1,557.2l-109.2,55.5l-1.9,815.7c0,804.2,0,815.7,40.2,852.1c61.3,55.5,237.4,329.3,294.9,457.6c97.6,224,132.1,398.3,132.1,670.2c0,180-9.6,285.3-34.5,383c-82.3,310.2-229.8,568.7-451.9,796.6c-239.4,245.1-478.7,388.7-804.2,482.5c-139.8,40.2-172.3,42.1-1426.5,46C3870.3,5022.6,3751.5,5018.8,3602.2,4988.1z M6426.5,4655c287.2-82.3,570.6-268.1,729.5-478.7c199.1-264.2,283.4-520.8,283.4-865.5c0-277.6-30.7-407.9-153.2-656.8c-134-273.8-402.1-518.9-689.3-631.9c-239.4-95.7-306.4-99.6-1597-99.6c-1022.5,0-1229.3,3.8-1353.8,30.6c-291,59.4-488.3,166.6-704.6,383c-304.5,304.5-446.1,771.7-367.6,1214c84.3,488.3,384.9,863.6,838.7,1047.4c239.4,97.6,277.6,99.6,1635.2,93.8C6181.4,4689.4,6323.1,4685.6,6426.5,4655z M3190.5,1777c136-70.8,319.8-132.1,476.8-158.9c185.7-34.5,2519.9-28.7,2696.1,5.8c157,30.6,363.8,103.4,490.2,174.2c47.9,26.8,88.1,47.9,91.9,47.9c3.8,0,7.7-268.1,7.7-595.5c0-497.9-3.8-593.6-26.8-585.9C6608.4,787,5976.5,894.3,5377.2,928.7c-720,40.2-1568.2-44-2146.5-214.5c-72.8-21.1-143.6-44-157-49.8c-23-7.7-26.8,90-26.8,587.9c0,327.4,5.7,593.6,15.3,589.8C3069.9,1838.3,3127.3,1809.6,3190.5,1777z M5392.5,601.3c970.8-49.8,1658.2-222.1,2089-528.5c218.3-155.1,293-287.2,287.2-515.1c-1.9-166.6-49.8-264.2-162.8-344.7l-82.3-57.4l-2498.8-5.8c-2414.6-3.8-2500.7-3.8-2579.2,32.5c-151.3,67-227.9,218.3-212.5,421.3c9.6,151.3,21.1,183.8,90,285.3c164.7,241.3,660.6,472.9,1269.5,595.5c383,76.6,649.1,103.4,1369.1,132.1C4998.1,618.5,5193.4,610.9,5392.5,601.3z M3027.7-1342.2V-1505h-153.2h-153.2v162.8v162.8h153.2h153.2V-1342.2z M6627.6-1342.2V-1505H5000H3372.4v162.8v162.8H5000h1627.6V-1342.2z M7278.6-1342.2V-1505h-153.2h-153.2v162.8v162.8h153.2h153.2V-1342.2z"/><path d="M2924.4-252.7c-67-67-67-164.7-1.9-227.9c46-47.9,47.9-47.9,446.1-47.9h400.2l44,47.9c63.2,68.9,59.4,174.2-9.6,233.6c-47.9,42.1-61.3,44-438.5,44H2976L2924.4-252.7z"/><path d="M4557.7-258.4c-68.9-68.9-70.8-134-5.7-210.6l49.8-59.3h1214h1215.9l46,47.9c70.8,68.9,57.4,187.6-26.8,252.8c-23,17.2-317.9,23-1233.1,24.9H4613.2L4557.7-258.4z"/></g></g>
</svg>