<?xml version="1.0" encoding="utf-8"?>
<!-- Svg Vector Icons : http://www.onlinewebfonts.com/icon -->
<!DOCTYPE svg PUBLIC "-//W3C//DTD SVG 1.1//EN" "http://www.w3.org/Graphics/SVG/1.1/DTD/svg11.dtd">
<svg version="1.1" xmlns="http://www.w3.org/2000/svg" xmlns:xlink="http://www.w3.org/1999/xlink" x="0px" y="0px" viewBox="0 0 1000 1000" enable-background="new 0 0 1000 1000" xml:space="preserve">
<metadata> Svg Vector Icons : http://www.onlinewebfonts.com/icon </metadata>
<g><g transform="translate(0.000000,503.000000) scale(0.100000,-0.100000)"><path d="M4506.2,4371.1c5.7-470.8,5.7-476.6,57.4-585.7c65.1-135.9,227.8-300.5,348.4-350.3l88-36.4v-216.3v-216.3l-49.8,38.3c-111,88-275.6,19.1-275.6-114.8c0-49.8,26.8-88.1,162.7-225.9c122.5-126.3,162.7-179.9,162.7-218.2v-51.7h-216.3h-218.2l-90-212.5c-49.8-116.8-99.5-260.3-111-319.6c-30.6-166.5-7.7-616.3,40.2-782.9c23-76.6,40.2-143.6,40.2-149.3s-463.2-7.7-1027.9-5.7l-1029.8,5.7l-5.7,82.3l-5.7,80.4h114.8c91.9,0,124.4,9.6,164.6,44c72.7,61.3,72.7,176.1,0,237.4l-49.8,44h-870.9H861.8l-55.5-55.5c-72.7-72.7-72.7-141.6,0-214.4c49.8-47.9,70.8-55.5,162.7-55.5h107.2v-86.1V920l-379,11.5c-206.7,7.7-426.8,7.7-486.2,0l-111-13.4V430V-56.1h86.1c84.2,0,86.1-1.9,86.1-61.3c0-34.5,34.4-1052.7,76.6-2264.3c42.1-1209.7,76.6-2220.3,76.6-2245.2c0-24.9,24.9-70.8,55.5-101.4c55.5-55.5,59.3-55.5,275.6-55.5c201,0,222,3.8,266.1,44c38.3,34.4,49.8,68.9,59.3,168.4c5.7,67,76.6,1091,157,2275.8s149.3,2172.5,155,2197.3c7.7,40.2,17.2,42.1,176.1,42.1h168.4l1299.6-825l1297.7-825l59.3,28.7c32.5,15.3,805.8,386.6,1718.8,825L7771.6-56.1H8185h411.5l9.6-61.3c5.7-34.5,74.6-1024,155-2197.3c78.5-1173.3,149.3-2189.7,155-2256.7c9.6-97.6,23-132.1,61.3-168.4c44-40.2,63.2-44,266.1-44c216.3,0,220.1,0,275.6,55.5c38.3,40.2,55.5,74.6,55.5,120.6c0,34.5,34.5,1045.1,76.6,2245.2s76.6,2210.7,76.6,2245.2c0,59.3,1.9,61.3,86.1,61.3h86.1V432V920h-281.4c-157,0-340.7,5.7-411.5,13.4L9077,944.9v72.7v74.6h114.8c97.6,0,124.4,7.7,162.7,47.9c65.1,63.2,65.1,166.5,0,229.7l-45.9,47.9h-872.8H7561l-55.5-55.5c-59.3-59.3-68.9-112.9-32.5-179.9c36.4-70.8,76.6-88.1,193.3-90h109.1v-86.1V920h-947.5c-520.6,0-947.5,3.8-947.5,9.6s17.2,72.7,40.2,149.3c47.9,168.4,70.8,616.3,38.3,784.8c-11.5,61.3-61.2,206.7-109.1,321.6l-90,208.6h-216.3h-218.2v214.4v214.4l162.7,166.5c135.9,137.8,162.7,176.1,162.7,225.9c0,134-164.6,202.9-275.6,114.8l-49.8-38.3v134v134l86.1,38.3c130.2,57.4,283.3,212.5,346.4,352.2c45.9,103.4,53.6,149.3,61.3,344.5l7.7,224h-250.8h-250.7v162.7v162.7H4912h-413.4L4506.2,4371.1z M5000,4126.1v-392.4l-45.9,28.7c-88,59.3-114.8,149.3-122.5,434.5c-3.8,145.5-3.8,277.5,3.8,292.8c5.7,19.1,36.4,28.7,88,28.7h76.6V4126.1z M5480.4,4126.1c-9.6-88-93.8-220.1-139.7-220.1c-7.6,0-15.3,65.1-15.3,145.5V4195l82.3-5.7C5484.3,4183.5,5488.1,4181.6,5480.4,4126.1z M5591.5,1957.5c84.2-195.2,78.5-691-9.6-878.6c-59.3-120.6-114.8-139.7-419.2-139.7c-227.8,0-277.5,5.7-327.3,36.4c-118.7,72.7-168.4,283.3-156.9,650.8c5.7,191.4,13.4,237.3,57.4,333l51.7,109.1h379h379L5591.5,1957.5z M2052.3,1015.7v-76.6H1727h-325.4v76.6v76.6H1727h325.4V1015.7z M8751.6,1015.7v-76.6h-325.4h-325.4v76.6v76.6h325.4h325.4V1015.7z M926.9,458.8c118.7-76.6,223.9-145.5,235.4-153.1c9.6-9.6-145.5-17.2-359.8-17.2H425.4v153.1v153.1H567h141.6L926.9,458.8z M7976.4,410.9c-914.9-451.7-3587-1730.3-3615.7-1730.3c-15.3,0-495.7,298.6-1068.1,662.3c-570.4,365.6-1242.2,792.4-1489.1,951.3c-246.9,157-453.6,289-457.5,292.9c-3.8,3.8,1567.6,7.7,3493.2,5.7l3500.8-1.9L7976.4,410.9z M9574.6,443.4V294.1l-539.8-11.5c-298.6-5.7-543.6-7.7-545.5-5.7c-3.8,1.9,134,74.6,306.3,160.8l310.1,155h235.4l233.5,1.9V443.4z M919.2-2184.6c-80.4-1171.4-147.4-2164.8-147.4-2205c-1.9-42.1-7.7-70.8-13.4-65.1c-7.7,9.6-158.9,4075-160.8,4346.8v51.7h235.4h233.5L919.2-2184.6z M9402.3-98.2c-1.9-246.9-153.1-4348.8-160.8-4356.4c-5.7-5.7-11.5,11.5-11.5,38.3c0,26.8-65.1,981.9-143.6,2122.7c-78.5,1140.8-145.5,2111.2-147.4,2157.2l-5.7,80.4h233.5C9398.5-56.1,9402.3-56.1,9402.3-98.2z"/></g></g>
</svg>