<?xml version="1.0" encoding="utf-8"?>
<!-- Svg Vector Icons : http://www.onlinewebfonts.com/icon -->
<!DOCTYPE svg PUBLIC "-//W3C//DTD SVG 1.1//EN" "http://www.w3.org/Graphics/SVG/1.1/DTD/svg11.dtd">
<svg version="1.1" xmlns="http://www.w3.org/2000/svg" xmlns:xlink="http://www.w3.org/1999/xlink" x="0px" y="0px" viewBox="0 0 1000 1000" enable-background="new 0 0 1000 1000" xml:space="preserve">
<metadata> Svg Vector Icons : http://www.onlinewebfonts.com/icon </metadata>
<g><g transform="translate(0.000000,477.000000) scale(0.100000,-0.100000)"><path d="M4506.2,3862.1c5.7-470.9,5.7-476.6,57.4-585.7c65.1-135.9,227.8-300.5,348.4-350.3l88-36.4v-252.7v-254.6h-111H4776l-32.5-118.7c-40.2-147.4-84.2-218.2-223.9-373.2c-124.4-137.8-178-266.1-166.5-398.1l5.7-86.1l-2082.5-3.8l-2084.4-5.7l-45.9-53.6c-55.5-65.1-59.3-145.5-9.6-206.7c32.5-42.1,55.5-45.9,245-55.5l206.7-9.6l5.7-1579.1c5.7-1663.3-9.6-2206.9-70.8-2631.8c-72.7-486.2-201-966.6-348.4-1293.9c-42.1-91.9-74.6-185.7-74.6-208.6s24.9-67,55.5-97.6c65.1-65.1,141.6-70.8,313.9-26.8c560.8,145.4,897.7,765.6,1058.5,1946.6c26.8,193.3,34.5,474.7,44,1584.8l11.5,1349.4l63.2,128.2c68.9,139.7,151.2,218.2,304.3,289l91.9,42.1H5000h2957.2l107.2-49.8c135.9-63.2,239.3-166.5,302.4-302.4l49.8-107.2l11.5-1349.4c9.6-1117.8,17.2-1391.5,44-1588.7C8631-3997,8971.7-4621,9530.6-4766.5c172.3-44,248.8-38.3,313.9,26.8c30.6,30.6,55.5,74.6,55.5,95.7s-34.5,114.8-74.7,208.6c-151.2,342.6-277.5,811.6-348.3,1295.8c-63.2,430.7-76.6,953.2-70.8,2622.3l5.7,1588.7l206.7,9.6c189.5,9.6,212.5,13.4,245,55.5c49.8,61.3,45.9,141.6-9.6,206.7l-45.9,53.6l-1885.4,5.7l-1885.4,3.8l-1.9,112.9c0,145.5-38.3,233.5-151.2,354.1c-132.1,139.7-195.2,243.1-233.5,380.9l-32.5,118.7l-145.5,5.7l-147.4,5.7v252.7v252.7l88,36.4c120.6,49.8,283.3,214.4,348.4,350.3c51.7,109.1,51.7,114.8,57.4,585.7l7.7,472.8h-664.2h-664.2L4506.2,3862.1z M5000,3613.3v-396.2l-65.1,65.1c-86.1,82.3-107.2,179.9-107.2,488.1v239.3h86.1h86.1V3613.3z M5493.8,3718.6c-5.7-317.7-28.7-403.9-122.5-465.1l-45.9-28.7v392.4v392.4h88h88.1L5493.8,3718.6z M5436.4,1928.9c44-72.7,126.3-183.7,183.8-250.7c89.9-101.5,105.3-130.2,95.7-172.3c-24.9-101.5-19.1-99.5-511.1-99.5c-511.1,0-530.2,3.8-530.2,124.4c0,44,19.1,78.5,78.5,134c86.1,84.2,218.2,266,246.9,344.5c17.2,45.9,23,47.9,189.5,47.9h170.3L5436.4,1928.9z M2052.3,979.6c0-82.3-1.9-84.2-80.4-109.1c-298.6-88.1-541.7-312-669.9-614.4c-44-103.4-44-103.4-55.5-1462.3c-11.5-1437.5-21.1-1582.9-114.8-2057.6c-90-451.7-246.9-817.3-430.7-1004.9c-105.3-105.3-156.9-134-132.1-72.7c40.2,105.3,147.4,486.2,189.5,681.4C902-3018.9,923-2647.6,923-597.6v1659.5h564.6h564.6V979.6z M7603.1,985.3v-76.6H5000H2396.9v76.6v76.6H5000h2603.1V985.3z M9082.7-827.3c9.6-1981.1,9.6-2011.7,99.5-2541.9c36.4-216.3,158.9-708.2,218.2-878.6c22.9-63.1,36.4-116.7,32.5-122.5c-17.2-15.3-147.4,97.6-210.5,185.7c-243.1,333-398.1,907.3-451.7,1676.7c-9.6,147.4-19.1,784.8-19.1,1416.4c0,721.6-7.7,1181-21,1234.6c-59.3,256.5-279.5,532.1-524.5,654.6c-72.7,38.3-162.7,74.6-195.2,82.3c-59.3,11.5-63.2,17.2-63.2,97.6v84.2h562.7h562.7L9082.7-827.3z"/></g></g>
</svg>