<?xml version="1.0" encoding="utf-8"?>
<!-- Svg Vector Icons : http://www.onlinewebfonts.com/icon -->
<!DOCTYPE svg PUBLIC "-//W3C//DTD SVG 1.1//EN" "http://www.w3.org/Graphics/SVG/1.1/DTD/svg11.dtd">
<svg version="1.1" xmlns="http://www.w3.org/2000/svg" xmlns:xlink="http://www.w3.org/1999/xlink" x="0px" y="0px" viewBox="0 0 1000 1000" enable-background="new 0 0 1000 1000" xml:space="preserve">
<metadata> Svg Vector Icons : http://www.onlinewebfonts.com/icon </metadata>
<g><g transform="translate(0.000000,486.000000) scale(0.100000,-0.100000)"><path d="M4506.2,4038.3c5.7-470.9,5.7-476.6,57.4-585.7c65.1-135.9,227.8-300.5,348.4-350.3l88-36.4v-501.5V2061h-132.1h-132.1l-13.4-70.8c-23-128.2-97.6-260.3-227.8-405.8c-141.6-158.9-197.2-290.9-176.1-424.9l11.5-74.6H2421.8H511.5l-95.7-45.9c-53.6-23-126.3-72.7-160.8-109.1c-82.3-80.4-155-235.4-155-325.4c0-214.4,176.1-430.7,398.1-486.2l90-23l-1.9-1357.1c0-1165.7-5.7-1397.3-34.5-1644.2c-70.8-618.2-216.3-1184.8-402-1579.1c-63.2-135.9-63.2-181.8,5.7-250.7c65.1-65.1,141.6-70.8,313.9-26.8c392.4,101.4,668,432.6,867.1,1037.4c153.1,468.9,216.3,939.8,237.3,1795.4c13.4,557,19.1,647,55.5,769.5c88,302.4,229.7,539.8,438.3,735c252.7,241.2,436.4,333.1,895.8,457.5l283.3,76.6H5000h1753.3L7032.7,34c342.6-93.8,468.9-143.6,648.9-260.3c344.5-224,572.3-530.2,689.1-934.1c36.4-122.5,42.1-212.5,55.5-779c9.6-377.1,28.7-736.9,45.9-876.6c151.2-1161.8,497.7-1801.2,1058.5-1946.6c172.3-44,248.8-38.3,313.9,26.8c30.6,30.6,55.5,74.6,55.5,95.7s-34.5,114.8-74.7,208.6c-151.2,342.6-277.5,811.6-348.3,1295.8c-59.3,400-76.6,958.9-70.8,2132.3l5.7,1098.7l86.1,21.1c174.2,44,315.8,172.3,373.2,336.9c40.2,114.8,36.4,204.8-17.2,315.8c-55.5,122.5-147.4,214.4-269.9,269.9l-95.7,45.9H7742.9H5999.1l9.6,74.6c19.1,135.9-38.3,268-178,424.9c-130.2,145.5-204.8,277.5-227.8,405.8l-13.4,70.8h-132.1c-132.1,0-132.1,0-132.1,53.6c0,42.1,47.9,99.5,237.4,289c132.1,132.1,243.1,258.4,250.7,283.3c15.3,61.3-38.3,157-101.4,179.9c-78.5,30.6-134,5.7-264.1-120.6l-122.5-116.8v218.2v218.2l91.9,36.4c118.7,49.8,279.5,212.5,342.6,348.4c42.1,91.9,51.7,145.5,59.3,336.9l9.6,225.9h-252.7h-250.7v248.8V4511H4912h-413.4L4506.2,4038.3z M5000,3793.3v-392.4l-45.9,28.7c-88,59.3-114.8,149.3-122.5,434.5c-3.8,145.5-3.8,277.5,3.8,292.9c5.7,19.1,36.4,28.7,88,28.7h76.6V3793.3z M5486.2,3636.3c-21.1-93.8-67-174.2-114.8-206.7l-45.9-28.7v143.6V3688h86.1C5495.8,3688,5497.7,3686.1,5486.2,3636.3z M5396.2,1622.7c34.5-61.3,114.8-170.3,179.9-241.2c103.4-114.8,114.8-135.9,105.3-189.5c-21-103.4-36.4-107.2-518.7-107.2c-482.3,0-497.7,3.8-518.7,107.2c-9.6,53.6,1.9,74.6,105.3,189.5c65.1,70.8,145.5,179.9,179.9,241.2l61.3,112.9h172.3H5335L5396.2,1622.7z M9526.8,711.6c59.3-57.4,63.2-157,7.7-227.8l-38.3-49.8H5000H503.9l-38.3,49.8c-55.5,70.8-51.7,170.4,7.7,227.8l45.9,47.9H5000h4480.8L9526.8,711.6z M2213.1,93.4c-9.6-9.6-72.7-55.5-141.6-103.4c-149.3-103.4-365.6-329.2-478.5-493.8c-111-162.7-237.3-436.4-287.1-622.1c-36.4-135.9-44-227.8-57.4-794.3c-17.2-654.6-45.9-981.9-116.8-1339.8c-90-451.7-246.9-817.3-430.7-1004.9c-105.3-105.3-156.9-134-132.1-72.7c40.2,105.3,147.4,486.2,189.5,675.7C896.2-3041.9,923-2618.8,923-1072.3v1181h654.6C1937.5,108.7,2224.6,101,2213.1,93.4z M9077-1081.9c0-1546.6,26.8-1961.9,164.6-2574.4c42.1-195.3,149.3-576.1,189.5-679.5c24.9-63.2-26.8-34.5-132.1,70.8c-183.7,187.6-340.7,555.1-430.7,1004.9c-72.7,371.3-101.4,685.2-116.7,1339.8c-13.4,616.3-17.2,648.9-65.1,813.5c-147.4,497.7-423,870.9-872.8,1181c-45.9,30.6-15.3,32.5,608.7,32.5l654.6,1.9V-1081.9z"/><path d="M712.5,1569.1c-118.7-44-155-191.4-65.1-275.6l49.8-45.9l681.4-5.7c622.1-3.8,689.1-1.9,750.3,28.7c126.3,65.1,126.3,214.4,0,277.5c-59.3,30.6-135.9,34.4-727.3,32.5C1037.9,1580.6,727.8,1574.9,712.5,1569.1z"/><path d="M7896,1569.1c-59.3-11.5-120.6-95.7-120.6-162.7c0-70.8,70.8-143.6,155-158.9c36.4-5.7,359.9-9.6,719.7-5.7l652.7,5.7l49.8,45.9c68.9,65.1,68.9,168.4,0,233.5l-49.8,45.9l-681.4,1.9C8246.2,1576.8,7918.9,1574.9,7896,1569.1z"/></g></g>
</svg>