<?xml version="1.0" encoding="utf-8"?>
<!-- Svg Vector Icons : http://www.onlinewebfonts.com/icon -->
<!DOCTYPE svg PUBLIC "-//W3C//DTD SVG 1.1//EN" "http://www.w3.org/Graphics/SVG/1.1/DTD/svg11.dtd">
<svg version="1.1" xmlns="http://www.w3.org/2000/svg" xmlns:xlink="http://www.w3.org/1999/xlink" x="0px" y="0px" viewBox="0 0 1000 1000" enable-background="new 0 0 1000 1000" xml:space="preserve">
<metadata> Svg Vector Icons : http://www.onlinewebfonts.com/icon </metadata>
<g><g transform="translate(0.000000,512.000000) scale(0.100000,-0.100000)"><path d="M4353.1,4451.5c5.7-560.8,5.7-572.3,53.6-666.1c59.3-122.5,224-287.1,335-336.9l86.1-38.3v-206.7v-206.7l-76.6,36.4c-67,34.4-84.2,36.4-135.9,15.3c-30.6-13.4-70.8-49.8-86.1-80.4c-44-86.1-9.6-158.9,155-321.6c109.1-109.1,143.6-155,143.6-195.2v-53.6h-214.4h-216.3l-55.5-130.2c-109.1-252.7-141.6-373.2-155-547.4c-15.3-204.8,13.4-493.8,65.1-660.4L4288,943H2194H100V45.3v-899.6l82.3-5.7l80.4-5.7l5.7-1958.1l3.8-1956.2h402h402v1961.9v1961.9h86.1h86.1v402v402h495.7H2238l1395.3-671.8c767.5-367.5,1537-738.8,1711.2-823l317.7-153.1l1295.8,823L8252-52.3h250.7h248.8v-402v-402h86.1h86.1v-1961.9V-4780h402h402l3.8,1958.1l5.7,1956.2l82.3,5.7l80.4,5.7V45.3V943H7802.2c-1990.6,0-2097.8,1.9-2084.4,34.4c78.5,189.5,118.7,534,90,794.3c-17.2,147.4-38.3,225.9-112.9,403.9l-91.9,222h-214.4h-216.3v214.4v214.4l143.6,145.5c78.5,82.3,151.2,170.4,162.7,199.1c28.7,74.6-17.2,170.3-95.7,202.9c-57.4,23-70.8,23-137.8-13.4l-72.7-40.2v126.3v128.2l93.8,44c126.3,57.4,292.8,239.3,344.5,377.1c34.4,91.9,40.2,149.3,40.2,402v296.7h-239.3h-239.3v162.7V5020h-413.4h-411.5L4353.1,4451.5z M4827.7,4225.7v-470.9l-40.2,21.1c-21.1,13.4-55.5,57.4-76.6,101.4c-30.6,70.8-36.4,128.2-36.4,449.8v367.5h76.6h76.6V4225.7z M5325.4,4246.7c0-68.9-9.6-147.4-21-178c-21.1-57.4-90-139.7-116.8-139.7c-7.6,0-15.3,99.5-15.3,220.1v220.1h76.6h76.6V4246.7z M5423,1982.4c91.9-208.6,88.1-694.8-5.7-882.4c-67-134-124.4-157-417.3-157c-292.8,0-350.3,23-417.3,157c-95.7,191.4-99.5,668-5.7,882.4l38.3,90H5000h384.7L5423,1982.4z M1181.4,455l325.4-158.9l-539.8-1.9l-541.7-1.9V455v162.7l216.3-1.9h214.4L1181.4,455z M3995.1-77.1c779-377.1,1473.8-712,1544.6-744.6l130.2-59.3l1142.7,727.3c629.7,400,1163.7,738.8,1186.7,750.3c28.7,15.3,147.4,21.1,359.8,17.2l315.8-5.7l-484.3-308.2C6295.8-911.7,5677.6-1302.1,5652.7-1309.8c-17.2-3.8-754.1,340.7-1638.4,765.6C1878.2,485.6,1650.4,596.6,1650.4,608.1c0,5.7,208.6,9.6,465.1,5.7l463.2-5.7L3995.1-77.1z M9574.6,455V292.3H9188h-386.7L9057.8,455l256.5,162.7h130.1h130.2V455z M7371.5,590.9c-42.1-34.5-1716.9-1089.1-1732.2-1089.1c-17.2,0-2264.3,1071.9-2283.5,1089.1c-3.8,3.8,899.6,7.7,2007.9,7.7C6471.9,598.5,7375.3,594.7,7371.5,590.9z M923-291.5v-239.3H674.2H425.4v239.3v239.3h248.8H923V-291.5z M9574.6-291.5v-239.3h-248.8H9077v239.3v239.3h248.8h248.8V-291.5z M750.8-2655.4v-1799.2h-76.6h-76.6v1799.2v1799.2h76.6h76.6V-2655.4z M9402.3-2655.4v-1799.2h-76.6h-76.6v1799.2v1799.2h76.6h76.6V-2655.4z"/></g></g>
</svg>