<?xml version="1.0" encoding="utf-8"?>
<!-- Svg Vector Icons : http://www.onlinewebfonts.com/icon -->
<!DOCTYPE svg PUBLIC "-//W3C//DTD SVG 1.1//EN" "http://www.w3.org/Graphics/SVG/1.1/DTD/svg11.dtd">
<svg version="1.1" xmlns="http://www.w3.org/2000/svg" xmlns:xlink="http://www.w3.org/1999/xlink" x="0px" y="0px" viewBox="0 0 1000 1000" enable-background="new 0 0 1000 1000" xml:space="preserve">
<metadata> Svg Vector Icons : http://www.onlinewebfonts.com/icon </metadata>
<g><g transform="translate(0.000000,512.000000) scale(0.100000,-0.100000)"><path d="M2726.9,4998.5c-197.2-63.2-354.3-203-444.3-392.6l-49.8-107.2V3311.4V2124.1l51.7-109.2c65.1-141.7,199.2-283.4,319.8-342.8l95.7-46l1.9-750.7V123h-335.1c-356.2,0-411.7-11.5-448.1-90c-13.4-28.7-21.1-185.8-21.1-415.5c0-365.8,0-369.6,47.9-421.3c44-47.9,55.5-49.8,237.5-49.8h193.4l3.8-1916.9l5.7-1916.9l53.6-45.9c78.5-67,168.5-61.3,231.7,13.4l49.8,59.4V-3255v1405.6h153.2h153.2l3.8-1256.2l5.7-1256.2l53.6-45.9c74.7-63.2,155.1-59.4,226,9.6l55.5,55.5V-3096v1246.6H5000h1627.7v-1242.8V-4335l49.8-59.4c53.6-63.2,128.3-78.5,203-38.3c90,47.9,91.9,68.9,91.9,1367.3v1216h153.2h153.2V-3255v-1405.6l49.8-59.4c63.2-74.7,153.2-80.4,231.7-13.4l53.6,45.9l5.7,1916.9l3.8,1916.9h180c99.6,0,195.3,5.7,212.5,11.5c72.8,28.7,86.2,105.3,86.2,486.4V11.9l-55.5,55.5l-55.5,55.5h-346.6h-346.6v752.6l1.9,750.7l95.7,46c120.7,59.4,254.7,201.1,319.8,342.8l51.7,109.2v1187.3v1187.3l-61.3,126.4c-74.7,151.3-195.3,268.1-346.6,338.9l-109.2,51.7l-2221.3,3.8C3230.6,5021.5,2792.1,5017.6,2726.9,4998.5z M7271.1,4659.5c49.8-23,101.5-68.9,126.4-109.1l44-70.9V3311.4c0-1137.5-1.9-1170-38.3-1235.2c-23-40.2-74.7-84.3-124.5-109.2l-84.3-44H5000H2805.5l-84.3,44c-63.2,30.6-97.7,65.1-130.2,128.3l-42.1,86.2l3.8,1149l5.7,1149l44,70.9c24.9,38.3,78.5,86.2,124.5,109.1c80.4,40.2,86.2,40.2,2271.1,40.2C7175.4,4699.8,7190.7,4699.8,7271.1,4659.5z M6953.3,860.3V123H5000H3046.7v737.3v737.3H5000h1953.3V860.3z M7776.7-365.3v-162.8H5000H2223.3v162.8v162.8H5000h2776.7V-365.3z M3027.6-1179.2v-325.5h-153.2h-153.2v325.5v325.5h153.2h153.2V-1179.2z M6627.7-1179.2v-325.5H5000H3372.3v325.5v325.5H5000h1627.7V-1179.2z M7278.8-1179.2v-325.5h-153.2h-153.2v325.5v325.5h153.2h153.2V-1179.2z"/><path d="M4004.2,4161.7c-114.9-51.7-204.9-141.7-260.4-256.6c-107.2-227.9-15.3-480.7,226-614.7l101.5-55.5H5000h928.8l101.5,55.5c241.3,134,333.2,386.8,226,614.7c-55.5,114.9-145.5,204.9-260.4,256.6c-82.3,38.3-122.6,40.2-995.8,40.2C4126.8,4201.9,4086.6,4200,4004.2,4161.7z M5938.3,3838c55.5-55.5,51.7-180-9.6-239.4l-46-47.9h-879c-861.7,0-880.9,0-930.7,40.2c-65.1,51.7-70.9,187.7-11.5,247c36.4,36.4,63.2,38.3,938.3,38.3C5875.1,3876.3,5901.9,3874.4,5938.3,3838z"/></g></g>
</svg>