<?xml version="1.0" encoding="utf-8"?>
<!-- Svg Vector Icons : http://www.onlinewebfonts.com/icon -->
<!DOCTYPE svg PUBLIC "-//W3C//DTD SVG 1.1//EN" "http://www.w3.org/Graphics/SVG/1.1/DTD/svg11.dtd">
<svg version="1.1" xmlns="http://www.w3.org/2000/svg" xmlns:xlink="http://www.w3.org/1999/xlink" x="0px" y="0px" viewBox="0 0 1000 1000" enable-background="new 0 0 1000 1000" xml:space="preserve">
<metadata> Svg Vector Icons : http://www.onlinewebfonts.com/icon </metadata>
<g><g transform="translate(0.000000,512.000000) scale(0.100000,-0.100000)"><path d="M1645.3,4998.5c-222.4-70.9-396.8-222.4-494.6-429.4l-61.3-128.4l-5.7-4397.5c-1.9-2986.6,1.9-4420.5,15.3-4470.4c28.8-101.6,128.4-226.2,239.6-295.2l92-57.5H5000h3569.4l92,57.5c111.2,69,210.9,193.6,239.6,295.2c13.4,51.7,17.3,1478,15.3,4472.3l-5.7,4395.6l-61.3,126.5c-80.5,161-226.2,306.7-387.2,387.2l-126.5,61.3l-3306.8,3.8C2394.8,5021.5,1706.6,5017.6,1645.3,4998.5z M4837.1,117.9v-4581.6l-1688.9,3.8c-1646.7,5.8-1688.8,5.8-1715.7,42.2c-23,32.6-26.8,663.3-26.8,4399.4c0,3055.7,5.7,4386,21.1,4437.8c26.8,95.8,139.9,216.6,237.7,251.1c63.3,23,341.2,26.8,1625.6,28.8h1547V117.9z M8331.7,4668.7c118.8-40.3,214.7-153.4,243.5-283.7c32.6-155.3,17.3-8781.6-15.3-8814.2c-19.2-19.2-358.5-26.8-1710-30.7l-1686.9-3.8V117.9v4581.6h1539.3C8061.4,4699.4,8253.1,4695.6,8331.7,4668.7z"/><path d="M1812.1,1408c-13.4-5.7-36.4-34.5-51.8-63.3c-24.9-47.9-28.8-243.5-28.8-1330.4v-1272.9l59.4-49.8l59.4-49.8h1274.8H4400l55.6,55.6l55.6,55.6V22c0,1340,0,1355.3-86.3,1387.9C4386.6,1423.3,1848.5,1423.3,1812.1,1408z M4185.3,855.9V616.3H3121.4H2057.4v239.6v239.6h1063.9h1063.9V855.9z M2230-2.9c0-270.3,0-276.1,49.8-322.1c47.9-44.1,57.5-46,352.7-46c295.2,0,304.8,1.9,352.7,46c49.9,46,49.9,51.8,49.9,322.1v274.1h86.3h86.3V-2.9c0-270.3,0-276.1,49.8-322.1c47.9-44.1,57.5-46,352.7-46c295.2,0,304.8,1.9,352.7,46c49.9,46,49.9,51.8,49.9,322.1v274.1h86.3h86.3v-402.6v-402.6H3121.4H2057.4v402.6v402.6h86.3h86.3V-2.9z M2709.2,108.3V-54.7h-76.7h-76.7v162.9v162.9h76.7h76.7V108.3z M3686.9,108.3V-54.7h-76.7h-76.7v162.9v162.9h76.7h76.7V108.3z M4181.4-940.3l-5.8-82.4H3121.4H2067l-5.7,82.4l-5.8,80.5h1065.8h1065.8L4181.4-940.3z"/><path d="M6754,3880.9c-46-17.3-99.7-69-116.9-116.9c-21.1-55.6,21.1-164.9,74.8-193.6c23-11.5,136.1-21.1,253-21.1c210.9,0,214.7,0,270.3,55.6c92,92,69,212.8-49.8,262.6C7120.2,3894.3,6815.4,3903.9,6754,3880.9z"/><path d="M5569.3,1408c-13.4-5.7-36.4-34.5-51.8-63.3c-24.9-47.9-28.8-241.5-28.8-1322.7v-1269l55.6-55.6l55.6-55.6h1278.6h1278.6l55.6,55.6l55.6,55.6V22c0,1340,0,1355.3-86.3,1387.9C8143.8,1423.3,5605.8,1423.3,5569.3,1408z M7942.6,31.6v-1063.9H6878.6H5814.7V31.6v1063.9h1063.9h1063.9V31.6z"/><path d="M6025.6,721.7c-65.2-70.9-63.3-172.5,7.7-232l51.8-46h793.6h793.6l51.7,46c70.9,59.4,72.9,161,7.7,232l-44.1,47.9h-809h-809L6025.6,721.7z"/></g></g>
</svg>