<?xml version="1.0" encoding="utf-8"?>
<!-- Svg Vector Icons : http://www.onlinewebfonts.com/icon -->
<!DOCTYPE svg PUBLIC "-//W3C//DTD SVG 1.1//EN" "http://www.w3.org/Graphics/SVG/1.1/DTD/svg11.dtd">
<svg version="1.1" xmlns="http://www.w3.org/2000/svg" xmlns:xlink="http://www.w3.org/1999/xlink" x="0px" y="0px" viewBox="0 0 1000 1000" enable-background="new 0 0 1000 1000" xml:space="preserve">
<metadata> Svg Vector Icons : http://www.onlinewebfonts.com/icon </metadata>
<g><g transform="translate(0.000000,503.000000) scale(0.100000,-0.100000)"><path d="M1776.7,4784.5l-49.8-59.3V384.1v-4343l-767.5-5.7l-767.5-5.7l-45.9-53.6c-44-51.7-45.9-65.1-45.9-350.3v-298.6l55.5-55.5l55.5-55.5h4789h4789l55.5,55.5l55.5,55.5v298.6c0,285.2-1.9,298.6-45.9,350.3l-45.9,53.6l-767.5,5.7l-767.5,5.7v4343v4341.1l-49.8,59.3l-49.8,59.3H5000H1826.5L1776.7,4784.5z M7631.8,4441.9l-74.7-76.6H5000H2442.8l-74.6,76.6l-74.6,76.6H5000h2706.5L7631.8,4441.9z M2224.6-174.8v-4283.7h-72.7h-74.7l-11.5,273.7c-7.7,149.3-13.4,2115-13.4,4367.9v4094.2l86.1-84.2l86.1-84.2V-174.8z M7947.7,179.3c0-2250.9-5.7-4214.8-13.4-4366l-11.5-271.8h-74.6h-72.7V-171v4287.5l68.9,76.6c38.3,42.1,76.6,76.6,86.1,76.6S7947.7,2533.6,7947.7,179.3z M7450-218.8v-4239.6H5000H2550v4239.6v4239.6h2450h2450V-218.8z M1727-4372.3v-86.1h-650.8H425.4v86.1v86.1h650.8H1727V-4372.3z M9570.8-4376.2l5.7-82.3h-650.8H8273v86.1v86.1l647-3.8l645-5.7L9570.8-4376.2z"/><path d="M6265.2,420.5c-143.6-44-289-250.7-289-417.3v-59.3h-162.7c-124.4,0-181.8-9.6-235.4-36.4c-141.6-72.7-252.7-233.5-252.7-365.6s111-292.9,252.7-365.6c53.6-26.8,111-36.4,235.4-36.4h162.7v-61.3c0-162.7,111-333,256.5-400c112.9-51.7,522.5-51.7,633.5,0c97.6,44,212.5,170.3,239.3,264.1c15.3,47.9,19.1,260.3,15.3,641.2l-5.7,566.6l-57.4,82.3c-32.5,45.9-95.7,109.1-141.7,141.6c-80.4,55.5-86.1,57.4-333,61.3C6443.2,437.7,6301.6,432,6265.2,420.5z M6776.2,100.8c17.2-13.4,23-139.7,19.1-570.4l-5.7-553.2l-227.8-5.7c-245-5.7-260.3,0-260.3,93.8c0,47.9,5.7,51.7,114.8,59.3c93.8,7.6,126.3,17.2,168.4,59.3l51.7,51.7V-460c0,294.8-1.9,306.3-45.9,354.1c-36.4,40.2-65.1,49.8-162.7,53.6C6315-46.6,6311.1-44.7,6305.4,7c-11.5,95.7,19.1,109.1,243.1,109.1C6659.5,116.1,6762.8,108.5,6776.2,100.8z M6301.6-458.1v-76.6l-319.6,3.8c-319.7,5.7-321.6,5.7-327.3,49.8c-13.4,97.6-7.7,99.5,331.1,99.5h315.8V-458.1z"/></g></g>
</svg>