<?xml version="1.0" encoding="utf-8"?>
<!-- Svg Vector Icons : http://www.onlinewebfonts.com/icon -->
<!DOCTYPE svg PUBLIC "-//W3C//DTD SVG 1.1//EN" "http://www.w3.org/Graphics/SVG/1.1/DTD/svg11.dtd">
<svg version="1.1" xmlns="http://www.w3.org/2000/svg" xmlns:xlink="http://www.w3.org/1999/xlink" x="0px" y="0px" viewBox="0 0 1000 1000" enable-background="new 0 0 1000 1000" xml:space="preserve">
<metadata> Svg Vector Icons : http://www.onlinewebfonts.com/icon </metadata>
<g><g transform="translate(0.000000,512.000000) scale(0.100000,-0.100000)"><path d="M1289,4975.9c-46-24.9-109.2-82.4-141.8-126.5l-57.5-82.4l-5.7-4559.9c-1.9-3094.2,1.9-4584.8,15.3-4634.6c28.7-101.6,128.4-226.1,239.5-295.1l92-57.5h3567.5h3567.5l92,57.5c109.2,67,210.7,191.6,239.5,293.1c13.4,47.9,19.2,1544.3,19.2,4613.6v4542.7l-44.1,84.3c-24.9,46-82.4,111.1-126.5,141.8l-82.4,57.5l-3644.1,5.7l-3646,3.8L1289,4975.9z M4835.5,1590.5v-3103.8H3120.7H1405.9v3103.8v3103.8h1714.8h1714.8V1590.5z M8590.7,1590.5v-3103.8H6875.9H5161.2v3103.8v3103.8h1714.8h1714.7V1590.5z M8586.9-3132.3c-3.8-1013.5-11.5-1277.9-30.6-1297.1c-21.1-21.1-685.9-24.9-3559.8-24.9c-3477.4,0-3536.8,0-3563.6,36.4c-23,32.6-26.8,239.5-26.8,1299v1260.7h3592.4h3592.4L8586.9-3132.3z"/><path d="M4299,1749.5c-15.3-5.7-47.9-28.7-70.9-49.8l-44.1-38.3V285.7v-1375.6l44.1-47.9c65.2-72.8,162.9-74.7,233.8-1.9l47.9,46V276.1V1646l-42.2,47.9C4421.6,1743.8,4348.8,1768.7,4299,1749.5z"/><path d="M2409.9,1418c-383.2-9.6-429.2-13.4-465.6-46c-40.2-36.4-40.2-44.1-40.2-1088.3V-768l47.9-46l46-47.9h877.5c659.1,1.9,885.1,7.7,908.1,24.9c72.8,55.6,74.7,80.5,74.7,1115.1c0,1088.3-1.9,1107.4-101.5,1130.4C3691.6,1421.9,2883.1,1429.5,2409.9,1418z M2386.9,726.4c7.7-477.1-34.5-438.7,490.5-438.7c523,0,482.8-36.4,482.8,444.5v360.2h86.2h86.2V278.1v-814.3h-651.4h-651.4v814.3v814.3h74.7h76.6L2386.9,726.4z M3034.5,852.8V613.3h-162.9h-162.9v239.5v239.5h162.9h162.9V852.8z"/><path d="M6751.4,3876.2c-46-17.2-99.6-69-116.9-116.9c-21.1-55.6,21.1-164.8,74.7-193.5c23-11.5,136-21.1,252.9-21.1c210.7,0,214.6,0,270.1,55.6c92,92,69,212.7-49.8,262.5C7117.3,3889.6,6812.7,3899.2,6751.4,3876.2z"/><path d="M5590.3,1743.8c-107.3-44.1-103.4,13.4-103.4-1471.4v-1366.1l47.9-46c70.9-72.8,168.6-70.9,235.7,1.9l42.2,47.9V285.7v1375.6l-42.2,40.2C5716.8,1749.5,5644,1766.7,5590.3,1743.8z"/><path d="M3618.8-2187.8c-61.3-34.5-84.3-76.6-84.3-149.4c0-74.7,24.9-116.9,88.1-149.4c30.6-17.3,400.4-23,1383.3-23h1339.3l59.4,49.8c47.9,38.3,59.4,65.1,59.4,122.6s-11.5,84.3-59.4,122.6l-59.4,49.8H5002.1C4026.9-2166.7,3647.6-2172.4,3618.8-2187.8z"/></g></g>
</svg>