<?xml version="1.0" encoding="utf-8"?>
<!-- Svg Vector Icons : http://www.onlinewebfonts.com/icon -->
<!DOCTYPE svg PUBLIC "-//W3C//DTD SVG 1.1//EN" "http://www.w3.org/Graphics/SVG/1.1/DTD/svg11.dtd">
<svg version="1.1" xmlns="http://www.w3.org/2000/svg" xmlns:xlink="http://www.w3.org/1999/xlink" x="0px" y="0px" viewBox="0 0 1000 1000" enable-background="new 0 0 1000 1000" xml:space="preserve">
<metadata> Svg Vector Icons : http://www.onlinewebfonts.com/icon </metadata>
<g><g transform="translate(0.000000,512.000000) scale(0.100000,-0.100000)"><path d="M1403.1,4996.5c-199.2-63.2-392.6-258.5-452-459.6c-24.9-80.4-28.7-716.2-28.7-4647.9v-4557.9l55.5-55.5l57.5-55.5l3807.2,3.8l3807.2,5.7l101.5,55.5c116.8,65.1,212.6,164.7,275.8,283.4c32.5,63.2,42.1,114.9,44,218.3c0,178.1-70.9,323.7-214.5,440.5c-168.5,137.9-193.4,141.7-1076.3,141.7h-777.5l67,40.2c360,218.3,710.5,526.7,930.7,821.6c227.9,304.5,402.2,666.4,494.1,1020.7c61.3,235.6,86.2,430.9,91.9,716.2c3.8,224.1,1.9,237.5-42.1,283.4l-44,47.9h-679.8c-637.7,0-677.9,1.9-664.6,34.5c7.7,17.2,26.8,101.5,42.1,185.8c34.5,191.5,23,480.7-30.6,679.8c-99.6,377.3-204.9,522.8-833.1,1149C6052.9,1627.9,5825,1871,5825,1888.3c0,32.6,86.2,34.5,1576.1,34.5c1557,0,1576.1,0,1618.2,38.3c23,21.1,46,59.4,51.7,82.3c5.7,23,7.7,589.9,5.7,1258.2l-5.7,1216.1l-53.6,109.2c-68.9,141.7-193.4,266.2-335.1,335.1l-109.2,53.6l-3542.9,3.8C2065.8,5021.3,1474,5019.4,1403.1,4996.5z M8613.4,4649.8c28.7-21.1,70.9-63.2,91.9-91.9c40.2-51.7,40.2-74.7,46-1181.6l5.7-1128H5759.9c-2125.7,0-3025.8-5.7-3098.6-21.1c-258.5-53.6-528.6-260.5-645.4-490.3c-122.6-245.1-116.8-114.9-114.9-2600.7c0-2520.2-5.8-2391.9,132.1-2621.7c122.6-204.9,367.7-390.7,587.9-450c55.5-15.3,917.3-21.1,3002.8-21.1c3123.5,0,2995.2,3.8,3081.4-91.9c49.8-55.5,61.3-189.6,23-277.7c-57.5-137.9,243.2-128.3-3822.5-128.3H1248V-15.3c0,2863,7.7,4462.1,19.2,4506.2c23,78.5,105.3,164.7,183.8,189.6c30.6,9.6,1620.2,15.3,3583.1,13.4l3527.6-3.8L8613.4,4649.8z M5480.3,1890.2c0-19.2-235.6-270-522.8-561.1c-289.2-289.2-551.5-566.9-586-618.6c-227.9-337-329.4-790.9-262.4-1173.9c15.3-95.8,34.5-187.7,42.1-206.8c11.5-28.7-44.1-30.7-660.7-30.7h-674.1l-46-47.9c-46-44-47.9-57.5-47.9-275.8c0-386.9,63.2-708.6,212.6-1085.8c231.7-582.2,700.9-1122.2,1263.9-1457.4l103.4-61.3l-798.6-1.9c-769.9,0-802.4,1.9-909.7,40.2c-162.8,61.3-279.6,187.7-331.3,354.3c-38.3,130.2-38.3,149.4-34.5,2420.7l5.7,2288.5l44,95.8c76.6,168.5,227.9,293,400.3,333.2c40.2,9.6,687.5,17.2,1438.2,19.2C5392.2,1922.8,5480.3,1920.9,5480.3,1890.2z M5177.7,689.5c-415.6-421.3-473-530.5-471.1-902c0-180,7.7-229.8,49.8-340.9l49.8-130.2l-157,5.7l-155.1,5.7l-36.4,105.3c-47.9,134.1-63.2,480.7-30.6,630.1c28.7,130.2,109.2,314.1,193.4,436.6c34.5,49.8,239.4,271.9,455.8,490.2l394.5,398.4l5.7-195.3l5.7-195.3L5177.7,689.5z M6750,396.4c95.8-183.8,122.6-264.3,147.5-442.4c23-164.7,3.8-360-51.7-534.3l-32.6-101.5h-158.9h-160.9l30.6,57.5c76.6,149.4,107.2,436.6,65.1,635.8c-47.9,226-116.8,327.5-452,668.4l-312.2,316V1197v199.2l427.1-430.9C6612.1,601.4,6688.7,513.3,6750,396.4z M5480.3-78.5v-603.3h-132.1c-132.1,0-134.1,0-201.1,80.4c-151.3,176.2-187.7,450-88.1,658.8c36.4,74.7,384.9,467.3,415.6,467.3C5476.5,524.8,5480.3,252.8,5480.3-78.5z M6263.6,17.3c36.4-93.8,42.1-141.7,36.4-258.5c-9.6-157.1-49.8-258.5-151.3-373.4c-57.5-65.1-65.1-67-191.5-67H5825v609v607.1l199.2-201.1C6187,166.6,6229.1,111.1,6263.6,17.3z M8251.4-1221.8c-36.4-622.4-300.7-1204.6-748.8-1654.6c-371.5-369.6-789-591.8-1334.8-710.5c-227.9-49.8-802.4-47.9-1032.2,0c-520.9,111.1-957.5,342.8-1311.8,693.3c-233.6,229.8-350.5,390.7-497.9,689.4c-174.3,350.5-277.7,746.9-277.7,1068.6v109.2h2608.3h2606.4L8251.4-1221.8z"/><path d="M7089,4490.9c-344.7-111.1-616.7-375.4-731.6-706.7c-61.3-180-61.3-440.5,0-620.5c53.6-153.2,157-317.9,273.8-434.7c419.4-417.5,1057.1-417.5,1474.6,0c109.2,109.1,218.3,285.3,270,434.7c61.3,180,61.3,440.5-1.9,622.4c-63.2,185.8-224,419.4-348.5,509.4c-134.1,95.8-289.2,174.3-409.8,204.9C7479.7,4536.8,7217.3,4533,7089,4490.9z M7671.2,4148.1l95.7-42.1l-243.2-247c-252.8-254.7-273.9-291.1-222.2-388.8c24.9-45.9,137.9-95.8,183.9-80.4c19.1,7.7,139.8,116.8,266.2,243.2c128.3,126.4,241.3,224.1,252.8,216.4c47.9-28.7,90-214.5,88.1-384.9c-1.9-306.4-130.2-519-386.8-645.4c-120.6-59.4-137.9-63.2-339-63.2c-201.1,0-218.3,3.8-339,63.2c-157.1,76.6-283.4,212.6-342.8,363.9c-57.4,147.5-61.3,411.7-7.7,553.5c72.8,203,249,373.4,448.1,436.6C7259.4,4215.1,7550.5,4201.7,7671.2,4148.1z"/><path d="M2437.3,4151.9c-38.3-47.9-40.2-76.6-40.2-430.9c0-206.8,5.7-392.6,11.5-409.8c28.7-72.8,105.3-86.2,486.4-86.2h367.7l55.5,55.5l55.5,55.5v367.7c0,381.1-13.4,457.7-86.2,486.4c-17.2,5.7-206.8,11.5-421.3,11.5h-390.7L2437.3,4151.9z M3048.2,3713.4v-162.8h-162.8h-162.8v162.8v162.8h162.8h162.8V3713.4z"/><path d="M3747.2,4153.8c-47.9-45.9-47.9-47.9-47.9-434.7c1.9-275.8,7.7-398.3,24.9-419.4c51.7-67,103.4-74.7,473-74.7h367.7l55.5,55.5l55.5,55.5v386.9c0,517.1,38.3,478.8-488.3,478.8C3795.1,4201.7,3793.1,4201.7,3747.2,4153.8z M4350.4,3713.4v-162.8h-162.8h-162.8v162.8v162.8h162.8h162.8V3713.4z"/><path d="M2443,2853.5c-40.2-34.5-53.6-61.3-53.6-116.8c0-55.5,13.4-82.3,53.6-116.8c51.7-46,59.4-46,438.5-46c404.1,1.9,425.2,5.7,469.2,90c36.4,65.1,26.8,130.2-24.9,185.8l-46,49.8h-392.6C2502.4,2899.4,2494.7,2899.4,2443,2853.5z"/><path d="M3747.2,2851.6c-32.6-30.6-47.9-67-47.9-114.9c0-47.9,15.3-84.3,47.9-114.9c46-47.9,47.9-47.9,440.5-47.9s394.5,0,440.5,47.9c32.6,30.7,47.9,67,47.9,114.9c0,47.9-15.3,84.3-47.9,114.9c-46,47.9-47.9,47.9-440.5,47.9S3793.1,2899.4,3747.2,2851.6z"/></g></g>
</svg>