<?xml version="1.0" encoding="utf-8"?>
<!-- Svg Vector Icons : http://www.onlinewebfonts.com/icon -->
<!DOCTYPE svg PUBLIC "-//W3C//DTD SVG 1.1//EN" "http://www.w3.org/Graphics/SVG/1.1/DTD/svg11.dtd">
<svg version="1.1" xmlns="http://www.w3.org/2000/svg" xmlns:xlink="http://www.w3.org/1999/xlink" x="0px" y="0px" viewBox="0 0 1000 1000" enable-background="new 0 0 1000 1000" xml:space="preserve">
<metadata> Svg Vector Icons : http://www.onlinewebfonts.com/icon </metadata>
<g><g transform="translate(0.000000,512.000000) scale(0.100000,-0.100000)"><path d="M327.8,4964.5l-55.5-55.5V120v-4789l55.5-55.5l55.5-55.5H5000h4616.7l55.5,55.5l55.5,55.5V120v4789l-55.5,55.5l-55.5,55.5H5000H383.3L327.8,4964.5z M9402.3,120v-4574.6h-162.7H9077V-98.2v4356.4l-55.5,55.5l-55.5,55.5H5000H1034.1l-55.5-55.5l-55.5-55.5V-98.2v-4356.4H760.4H597.7V120v4574.6H5000h4402.3V120z M4827.7-205.4v-4249.2H3038.1H1248.4v4249.2v4249.2h1789.6h1789.6V-205.4z M8751.6-205.4v-4249.2H6961.9H5172.3v4249.2v4249.2h1789.6h1789.6V-205.4z"/><path d="M1677.2,3699.3c-23-9.6-55.5-36.4-72.7-61.3c-26.8-38.3-30.6-275.6-30.6-2528.5c0-2649.1-1.9-2570.6,88-2605c17.2-5.7,643.1-11.5,1391.5-11.5h1360.9l44,44l44,44l1.9,2507.4c0,1378.1-5.7,2520.8-13.4,2540c-34.4,90-36.4,90-1447,88C2314.6,3716.5,1698.2,3708.9,1677.2,3699.3z M2875.4,2742.3v-650.8h-488.1h-488.1v637.4c0,352.2,5.7,645,13.4,650.8c5.7,7.7,225.9,13.4,488.1,13.4h474.7V2742.3z M4177,2742.3v-650.8h-478.5h-478.5v650.8V3393h478.5H4177V2742.3z M2875.4,1096.2V445.4h-488.1h-488.1v650.8V1747h488.1h488.1V1096.2z M4177,1096.2V445.4h-478.5h-478.5v650.8V1747h478.5H4177V1096.2z M2875.4-530.8v-650.8h-488.1h-488.1v650.8V120h488.1h488.1V-530.8z M4177-530.8v-650.8h-478.5h-478.5v650.8V120h478.5H4177V-530.8z"/><path d="M1677.2-1851.5c-105.3-42.1-103.4-19.1-103.4-1135v-1031.7l55.5-55.5l55.5-55.5h1341.8c802,0,1359,7.7,1387.7,19.1c26.8,9.6,55.5,34.5,67,53.6c13.4,24.9,21.1,396.2,21.1,1071.9c1.9,1121.7,3.8,1094.8-103.4,1133.1C4330.1-1828.5,1736.5-1826.6,1677.2-1851.5z M4177-2980.8v-823H3038.1H1899.2v809.6c0,446,5.7,817.3,13.4,823c5.7,7.7,518.7,13.4,1138.9,13.4H4177V-2980.8z"/><path d="M2119.3-2377.9c-65.1-63.2-65.1-166.5,0-229.7c97.6-99.5,266-26.8,266,114.9C2385.4-2351,2217-2278.3,2119.3-2377.9z"/><path d="M2770.1-2377.9c-99.5-97.6-30.6-277.5,105.3-277.5c76.6,0,172.3,90,172.3,162.7c0,30.6-23,72.7-55.5,107.2C2919.4-2314.7,2835.2-2310.9,2770.1-2377.9z"/><path d="M2278.2-2862.1c-189.5-189.5-206.7-212.5-206.7-277.5c0-95.7,68.9-166.5,158.9-166.5c55.5,0,90,26.8,279.5,220.1c206.7,208.6,216.3,222,204.8,281.4c-15.3,82.3-91.9,149.3-170.4,149.3C2494.5-2655.4,2454.3-2686,2278.2-2862.1z"/><path d="M5572.3,3689.7c-28.7-15.3-57.4-42.1-63.2-59.3c-7.6-17.2-13.4-1161.8-11.5-2541.9v-2507.4l44-44l44-44h1360.9c748.4,0,1374.3,5.7,1391.5,11.5c89.9,34.5,88-44,88,2608.9v2488.3l-45.9,53.6l-45.9,53.6l-1357.1,3.8C5828.8,3716.5,5614.4,3712.7,5572.3,3689.7z M6780.1,2742.3v-650.8h-478.5H5823v650.8V3393h478.5h478.5V2742.3z M8097,2738.4l3.8-646.9h-488.1h-488.1v650.8V3393l484.2-3.8l482.3-5.7L8097,2738.4z M6780.1,1096.2V445.4h-478.5H5823v650.8V1747h478.5h478.5V1096.2z M8100.8,1096.2V445.4h-488.1h-488.1v650.8V1747h488.1h488.1V1096.2z M6780.1-530.8v-650.8h-478.5H5823v650.8V120h478.5h478.5V-530.8z M8100.8-530.8v-650.8h-488.1h-488.1v650.8V120h488.1h488.1V-530.8z"/><path d="M5581.9-1859.1c-32.5-15.3-65.1-40.2-72.8-59.3c-5.7-17.2-11.5-499.6-11.5-1071.9c0-993.4,1.9-1041.3,36.4-1083.3l36.4-45.9l1372.4-5.7l1370.5-3.8l57.4,55.5l55.5,55.5v1035.5v1033.6l-45.9,53.6l-45.9,53.6l-1347.5,3.8C5886.2-1834.2,5629.7-1838.1,5581.9-1859.1z M8097-2984.6l3.8-819.2H6961.9H5823v823v823l1135-3.8l1133.1-5.8L8097-2984.6z"/><path d="M6031.7-2385.5c-32.5-34.5-55.5-76.6-55.5-107.2c0-70.8,95.7-162.7,168.4-162.7c80.4,0,157,76.6,157,157c-1.9,70.8-26.8,112.9-90,145.5C6144.6-2316.6,6091-2326.2,6031.7-2385.5z"/><path d="M6682.5-2385.5c-32.5-34.5-55.5-76.6-55.5-107.2c0-72.7,95.7-162.7,172.3-162.7c84.2,0,153.1,74.7,153.1,162.7C6952.3-2341.5,6791.6-2278.3,6682.5-2385.5z"/><path d="M6202-2860.2c-114.8-112.9-212.5-225.9-218.2-248.8c-24.9-97.6,55.5-197.1,162.7-197.1c59.3,0,90,23,273.7,206.7c183.7,183.8,206.7,214.4,206.7,273.7c-1.9,72.8-26.8,114.9-90,147.4C6450.9-2630.5,6416.4-2649.6,6202-2860.2z"/></g></g>
</svg>