<?xml version="1.0" encoding="utf-8"?>
<!-- Svg Vector Icons : http://www.onlinewebfonts.com/icon -->
<!DOCTYPE svg PUBLIC "-//W3C//DTD SVG 1.1//EN" "http://www.w3.org/Graphics/SVG/1.1/DTD/svg11.dtd">
<svg version="1.1" xmlns="http://www.w3.org/2000/svg" xmlns:xlink="http://www.w3.org/1999/xlink" x="0px" y="0px" viewBox="0 0 1000 1000" enable-background="new 0 0 1000 1000" xml:space="preserve">
<metadata> Svg Vector Icons : http://www.onlinewebfonts.com/icon </metadata>
<g><g transform="translate(0.000000,512.000000) scale(0.100000,-0.100000)"><path d="M5958.9,4930c-243.1-1123.5-557-2603.1-557-2629.9c0-34.5,23-36.4,528.3-36.4h526.4l-5.7-88c-5.7-88.1-7.6-90-105.3-126.3c-130.2-47.9-287.1-189.5-342.6-312c-53.6-112.9-61.3-298.6-17.2-421.1c15.3-42.1,28.7-78.5,28.7-80.4c0-3.8-1330.3-5.7-2957.2-5.7H100v-2746.7v-2746.7h258.4h258.4v-258.4V-4780H1392h775.2v258.4v258.4H5000h2832.8v-258.4V-4780H8608h775.2v258.4v258.4h258.4H9900v2746.7v2746.7h-803.9c-442.1,0-803.9,5.7-803.9,11.5c0,5.7,13.4,59.3,30.6,118.7c91.9,312-95.7,604.8-455.5,719.7c-26.8,7.7-34.5,30.6-34.5,97.6v86.1h537.8h537.9l-7.7,44c-5.7,23-137.8,643.1-294.8,1376.2l-285.2,1336H7149.5H5980L5958.9,4930z M8049.1,4633.4c7.7-24.9,103.4-470.8,214.4-991.5s204.8-966.6,210.5-989.6l9.6-44H7153.3c-1010.6,0-1330.3,5.7-1330.3,23c0,24.9,417.3,1983,430.7,2021.2c5.7,17.2,202.9,23,897.7,23h888.1L8049.1,4633.4z M7488.3,2081.9c0-179.9,1.9-183.8,63.2-250.7c53.6-59.3,76.6-68.9,187.6-82.3c68.9-9.6,143.6-28.7,166.5-42.1c59.3-38.3,99.5-132.1,99.5-237.3c0-76.6-9.6-99.5-65.1-155l-65.1-65.1h-731.2h-731.2l-53.6,53.6c-160.8,162.7-42.1,444.1,185.7,444.1c45.9,0,109.1,13.4,137.8,26.8c95.7,49.8,116.7,105.3,116.7,308.2v181.8h344.5h344.5V2081.9z M9555.5,206.1v-679.5H5000H444.5v679.5v679.5H5000h4555.5V206.1z M9555.5-1516.5V-2196H5000H444.5v679.5V-837H5000h4555.5V-1516.5z M9555.5-3229.6v-689.1H5000H444.5v689.1v689.1H5000h4555.5V-3229.6z M1822.7-4349.3v-86.1H1392H961.3v86.1v86.1H1392h430.7V-4349.3z M9038.7-4349.3v-86.1H8608h-430.7v86.1v86.1H8608h430.7V-4349.3z"/><path d="M6521.7,4457.3c-24.9-24.9-49.8-67-55.5-91.9c-5.7-23-47.9-352.2-95.7-731.2c-91.9-748.4-91.9-773.3,11.5-826.9c68.9-36.4,149.3-21.1,202.9,36.4c36.4,38.3,51.7,130.2,128.2,735c47.9,380.9,86.1,719.7,86.1,756.1C6797.3,4482.1,6623.1,4558.7,6521.7,4457.3z"/><path d="M7034.6,4457.3l-53.6-45.9l-5.7-733.1c-3.8-530.2,1.9-748.4,17.2-788.6c47.9-114.8,206.7-135.9,285.2-38.3c36.4,47.9,38.3,76.6,38.3,798.2c-1.9,788.6,0,784.8-90,830.7C7161,4516.6,7094,4507,7034.6,4457.3z"/><path d="M7568.7,4472.6c-86.1-59.3-86.1-86.1,5.7-826.9c47.9-386.6,97.6-727.3,109.1-756.1c47.9-120.6,208.6-135.9,290.9-24.9l40.2,51.7l-91.9,740.7l-91.9,740.7l-57.4,53.6C7710.3,4510.9,7633.7,4518.5,7568.7,4472.6z"/><path d="M1103,366.9c-210.5-34.5-181.8-321.6,34.5-325.4c45.9,0,386.6,0,759.9,0h677.6l44,44c24.9,24.9,49.8,70.8,57.4,103.4c9.6,49.8,1.9,70.8-44,120.6l-53.6,61.3l-700.5,3.8C1491.5,376.5,1145.1,372.7,1103,366.9z"/><path d="M7551.4,372.7c-126.3-5.7-141.6-9.6-185.7-63.2c-63.2-74.6-63.2-135.9,3.8-208.6l51.7-59.3h555.1c1022.1-1.9,962.8-3.8,1014.5,49.8c32.5,30.6,47.9,67,47.9,114.8c0,76.6-67,162.7-128.2,162.7C8703.7,374.6,7656.7,376.5,7551.4,372.7z"/><path d="M1064.7-1353.8c-105.3-42.1-135.9-189.5-55.5-275.6l45.9-49.8h754.1c723.5,0,756.1,1.9,803.9,38.3c59.3,47.9,80.4,124.4,49.8,195.2c-44,109.1-63.2,111-844.1,109.1C1426.4-1336.6,1085.7-1344.3,1064.7-1353.8z"/><path d="M7421.3-1361.5c-59.3-24.9-105.3-97.6-105.3-166.5c0-21.1,24.9-65.1,55.5-95.7l55.5-55.5h754.1c792.4,1.9,788.6,0,834.5,90c36.4,65.1,26.8,132.1-23,191.4l-45.9,53.6l-735,3.8C7633.7-1336.6,7467.2-1340.4,7421.3-1361.5z"/><path d="M1016.8-3112.9c-38.3-38.3-55.5-74.6-55.5-116.7s17.2-78.5,55.5-116.7l55.5-55.5h746.5c714,0,746.5,1.9,794.3,38.3c59.3,47.9,80.4,124.4,49.8,195.2c-44,109.1-61.2,111-859.4,111h-731.2L1016.8-3112.9z"/><path d="M7409.8-3086.1c-103.4-55.5-114.8-204.8-23-277.5c47.9-36.4,80.4-38.3,794.3-38.3h746.5l55.5,55.5c38.3,38.3,55.5,74.6,55.5,116.7s-17.2,78.5-55.5,116.7l-55.5,55.5h-735C7597.4-3059.2,7450-3063.1,7409.8-3086.1z"/></g></g>
</svg>