<?xml version="1.0" encoding="utf-8"?>
<!-- Svg Vector Icons : http://www.onlinewebfonts.com/icon -->
<!DOCTYPE svg PUBLIC "-//W3C//DTD SVG 1.1//EN" "http://www.w3.org/Graphics/SVG/1.1/DTD/svg11.dtd">
<svg version="1.1" xmlns="http://www.w3.org/2000/svg" xmlns:xlink="http://www.w3.org/1999/xlink" x="0px" y="0px" viewBox="0 0 1000 1000" enable-background="new 0 0 1000 1000" xml:space="preserve">
<metadata> Svg Vector Icons : http://www.onlinewebfonts.com/icon </metadata>
<g><g transform="translate(0.000000,486.000000) scale(0.100000,-0.100000)"><path d="M6521.7,4463.3c-32.5-30.6-47.9-67-47.9-114.8s15.3-84.2,47.9-114.8c40.2-42.1,63.2-47.9,185.7-47.9c162.7,0,350.3-36.4,480.4-93.8l90-38.3v-97.6v-95.7H3688.9H100v-4077v-4075l245-5.7l243.1-5.7l5.7-243.1l5.7-245h486.2h488.1v248.8v248.8H5000h3426.2v-248.8v-248.8h488.1h486.2l5.7,243.1l5.7,245l245,5.7l243.1,5.7v4075v4077h-650.8h-650.8v93.8c0,88,3.8,95.7,67,124.4c132.1,63.2,252.7,90,447.9,101.5c176.1,9.6,206.7,17.2,245,55.5c61.3,61.2,59.3,166.5-3.8,227.8l-45.9,47.9H7938.1H6567.6L6521.7,4463.3z M8303.7,4143.7c-21-28.7-30.6-86.1-30.6-162.7v-120.6h-325.4h-325.4v82.3c-1.9,44-13.4,114.8-28.7,157s-28.7,78.5-28.7,82.3c0,1.9,172.3,3.8,384.7,3.8h382.8L8303.7,4143.7z M9574.6,2396.1V1257.3H5000H425.4v1138.9V3535H5000h4574.6V2396.1z M9574.6-226.1V-1365H5000H425.4v1138.9V912.7H5000h4574.6V-226.1z M9574.6-2829.3v-1138.9H5000H425.4v1138.9v1138.9H5000h4574.6V-2829.3z M1248.4-4389.2v-76.6h-162.7H923v76.6v76.6h162.7h162.7V-4389.2z M9077-4389.2v-76.6h-162.7h-162.7v76.6v76.6h162.7H9077V-4389.2z"/><path d="M4452.6,2539.7c-105.3-42.1-134-181.8-55.5-258.4l45.9-47.9h557h557l45.9,47.9c61.3,59.3,61.3,143.6,1.9,214.4l-45.9,53.6l-534,3.8C4732,2555,4473.6,2549.3,4452.6,2539.7z"/><path d="M4397.1-111.3c-70.8-68.9-65.1-164.6,11.5-227.8l59.3-49.8h535.9h535.9l55.5,55.5c70.8,72.7,74.7,156.9,7.7,222L5557-63.4h-557h-557L4397.1-111.3z"/><path d="M4408.6-2716.3c-76.6-63.2-82.3-158.9-11.5-227.8l45.9-47.9h557h557l45.9,47.9c70.8,68.9,65.1,164.6-11.5,227.8l-59.3,49.8H5000h-532.1L4408.6-2716.3z"/></g></g>
</svg>