<?xml version="1.0" encoding="utf-8"?>
<!-- Svg Vector Icons : http://www.onlinewebfonts.com/icon -->
<!DOCTYPE svg PUBLIC "-//W3C//DTD SVG 1.1//EN" "http://www.w3.org/Graphics/SVG/1.1/DTD/svg11.dtd">
<svg version="1.1" xmlns="http://www.w3.org/2000/svg" xmlns:xlink="http://www.w3.org/1999/xlink" x="0px" y="0px" viewBox="0 0 1000 1000" enable-background="new 0 0 1000 1000" xml:space="preserve">
<metadata> Svg Vector Icons : http://www.onlinewebfonts.com/icon </metadata>
<g><g transform="translate(0.000000,512.000000) scale(0.100000,-0.100000)"><path d="M155.5,4964.5L100,4909V120v-4789l55.5-55.5L211-4780h298.6c285.2,0,298.6,1.9,350.3,45.9c51.7,44,53.6,53.6,59.3,248.8l7.7,202.9H5000h4073.1l7.7-202.9c5.7-195.2,7.6-204.8,59.3-248.8c51.7-44,65.1-45.9,350.3-45.9H9789l55.5,55.5l55.5,55.5V120v4789l-55.5,55.5L9789,5020H5000H211L155.5,4964.5z M846.5,4600.8c-99.5-51.7-197.1-109.1-214.4-130.2c-32.5-34.4-34.4-266-34.4-4094.2c-1.9-2231.8,3.8-4073.1,11.5-4090.4c36.4-93.8-183.7-90,4390.9-90c4572.7,0,4354.5-3.8,4390.9,88c7.6,19.1,13.4,1860.5,11.5,4092.3v4057.8l-44,44l-42.1,44l-3464.5,3.8l-3464.5,5.7l-5.7,82.3l-5.7,80.4h3598.4h3600.3V120v-4574.6h-86.1h-88l3.8,187.6c3.8,201-11.5,252.7-91.9,289c-32.5,15.3-1320.7,21-4314.3,21c-3780.3,0-4274.1-3.8-4323.9-28.7c-67-34.5-74.6-61.3-82.3-287.1l-3.8-172.3l-80.4-5.7l-82.3-5.7V118.1v4576.5l302.4-1.9h300.5L846.5,4600.8z M2052.3,1833.1v-2861.5h-76.6h-76.6v2861.5v2861.5h76.6h76.6V1833.1z M1573.8,1833.1c0-1510.2-3.8-2746.7-9.6-2746.7s-151.2,70.8-325.4,157L923-597.8v2434.7v2436.6l302.4,151.2c164.6,84.2,312,153.1,325.4,153.1C1568.1,4579.8,1573.8,4018.9,1573.8,1833.1z M4827.7,3795v-402h-153.1h-153.1v86.1c0,210.5-160.8,312-289,183.8c-47.9-49.8-55.5-70.8-55.5-162.7V3393h-76.6h-76.6v107.2c0,91.9-7.7,112.9-55.5,162.7c-130.2,130.2-289,24.9-289-193.3V3393h-76.6h-76.6v114.8c0,101.4-5.7,122.5-49.8,162.7c-70.8,65.1-149.3,63.2-220.1-7.7c-47.9-49.8-55.5-70.8-55.5-162.7V3393h-76.6h-76.6v107.2c0,91.9-7.7,112.9-55.5,162.7c-70.8,68.9-151.2,72.7-223.9,11.5c-44-38.3-53.6-65.1-61.2-162.7l-7.7-118.7h-151.2h-151.2v402v402h1215.4h1215.4V3795z M9077,1833.1V-530.8H7124.6H5172.3v2363.9V4197h1952.3H9077V1833.1z M2707,2855.2c5.7-183.8,7.7-195.2,59.3-239.3c78.5-67,168.4-61.2,231.6,13.4c45.9,53.6,49.8,72.7,49.8,239.3v179.9h76.6h76.6V2859c0-172.3,3.8-191.4,47.9-239.3c61.3-67,164.6-68.9,229.7-1.9c44,42.1,47.9,59.3,47.9,239.3v191.4h74.6h74.6l7.7-193.3c7.7-183.8,9.6-197.1,59.3-239.3c59.3-49.8,157-59.3,206.7-21.1c57.4,44,74.6,107.2,74.6,279.5v174.2h76.6h76.6v-179.9c0-166.5,3.8-185.7,49.8-239.3c63.2-74.6,153.1-80.4,231.6-13.4c51.7,44,53.6,55.5,59.3,239.3l7.7,193.3h151.2h151.2V1833.1V617.7H3612.3H2396.9v1215.4v1215.4h151.2h151.2L2707,2855.2z M4827.7-119.3v-411.5H3612.3H2396.9v411.5v411.5h1215.4h1215.4V-119.3z M9077-1181.6V-1507H5000H923v268v268l382.8-191.4l382.8-191.4h294.8c285.2,0,298.6,1.9,350.3,45.9c51.7,44,53.6,53.6,59.3,248.8l7.7,202.9h3338.1H9077V-1181.6z M9077-2167.3v-315.8H5000H923v315.8v315.8h4077h4077V-2167.3z M9077-3153v-325.4H5000H923v325.4v325.4h4077h4077V-3153z"/><path d="M5572.3,2388.2c-88.1-47.9-95.7-101.4-90-580c5.7-434.5,5.7-442.2,51.7-490c51.7-55.5,103.3-68.9,179.9-44c99.5,32.5,109.1,82.3,109.1,576.1c0,438.3-1.9,449.8-42.1,497.7C5727.3,2409.2,5639.3,2426.4,5572.3,2388.2z"/><path d="M4607.6-1036.1c-59.3-24.9-105.3-97.6-105.3-166.5c0-21.1,24.9-65.1,55.5-95.7l55.5-55.5H5000h386.6l55.5,55.5c30.6,30.6,55.5,74.6,55.5,97.6c0,70.8-53.6,147.4-116.7,170.4C5290.9-999.7,4680.3-1003.6,4607.6-1036.1z"/><path d="M4552.1-2063.9c-26.8-32.5-49.8-78.5-49.8-103.4s23-70.8,49.8-103.4l49.8-59.3H5000h398.1l49.8,59.3c26.8,32.5,49.8,78.5,49.8,103.4s-23,70.8-49.8,103.4l-49.8,59.3H5000h-398.1L4552.1-2063.9z"/><path d="M4557.9-3036.3c-30.6-30.6-55.5-74.6-55.5-97.6c0-55.5,49.8-145.5,86.1-160.8c61.3-22.9,802-11.5,834.5,13.4c88.1,67,95.7,168.4,19.1,245l-55.5,55.5H5000h-386.6L4557.9-3036.3z"/></g></g>
</svg>