<?xml version="1.0" encoding="utf-8"?>
<!-- Svg Vector Icons : http://www.onlinewebfonts.com/icon -->
<!DOCTYPE svg PUBLIC "-//W3C//DTD SVG 1.1//EN" "http://www.w3.org/Graphics/SVG/1.1/DTD/svg11.dtd">
<svg version="1.1" xmlns="http://www.w3.org/2000/svg" xmlns:xlink="http://www.w3.org/1999/xlink" x="0px" y="0px" viewBox="0 0 1000 1000" enable-background="new 0 0 1000 1000" xml:space="preserve">
<metadata> Svg Vector Icons : http://www.onlinewebfonts.com/icon </metadata>
<g><g transform="translate(0.000000,512.000000) scale(0.100000,-0.100000)"><path d="M155.5,4964.5L100,4909V120v-4789l55.5-55.5L211-4780h298.6c285.2,0,298.6,1.9,350.3,45.9c51.7,44,53.6,53.6,59.3,248.8l7.7,202.9H5000h4073.1l7.7-202.9c5.7-195.2,7.6-204.8,59.3-248.8c51.7-44,65.1-45.9,350.3-45.9H9789l55.5,55.5l55.5,55.5V120v4789l-55.5,55.5L9789,5020H5000H211L155.5,4964.5z M9574.6,120v-4574.6h-86.1h-88l3.8,187.6c3.8,201-11.5,252.7-91.9,289c-32.5,15.3-1320.7,21-4314.3,21c-3780.3,0-4274.1-3.8-4323.9-28.7c-67-34.5-74.6-61.3-82.3-287.1l-3.8-172.3l-80.4-5.7l-82.3-5.7V118.1v4576.5H5000h4574.6V120z"/><path d="M1763.3,4526.2L680,4522.3l-40.2-44l-42.1-45.9V374.6c0-2231.8,3.8-4073.1,11.5-4090.4c36.4-91.9-178-88,4390.9-88c4566.9,0,4354.5-3.8,4390.9,88c5.7,17.2,11.5,1858.6,11.5,4090.4v4059.7l-42.1,44l-44,44l-3234.8,5.7C4301.4,4530,2358.6,4530,1763.3,4526.2z M2703.1,3708.9v-488.1h-890H923v488.1V4197h890h890V3708.9z M4827.7,3708.9v-488.1h-890h-890v488.1V4197h890h890V3708.9z M6952.3,3708.9v-488.1h-890h-890v488.1V4197h890h890V3708.9z M9077,3708.9v-488.1h-890h-890v488.1V4197h890h890V3708.9z M2703.1,1019.6V-856.2h-890H923v1875.8v1875.8h890h890V1019.6z M4827.7,1019.6V-856.2h-890h-890v1875.8v1875.8h890h890V1019.6z M6952.3,1019.6V-856.2h-890h-890v1875.8v1875.8h890h890V1019.6z M9077,1019.6V-856.2h-890h-890v1875.8v1875.8h890h890V1019.6z M2703.1-1669.6v-488.1h-890H923v488.1v488.1h890h890V-1669.6z M4827.7-1669.6v-488.1h-890h-890v488.1v488.1h890h890V-1669.6z M6952.3-1669.6v-488.1h-890h-890v488.1v488.1h890h890V-1669.6z M9077-1669.6v-488.1h-890h-890v488.1v488.1h890h890V-1669.6z M2703.1-2990.4v-488.1h-890H923v488.1v488.1h890h890V-2990.4z M4827.7-2990.4v-488.1h-890h-890v488.1v488.1h890h890V-2990.4z M6952.3-2990.4v-488.1h-890h-890v488.1v488.1h890h890V-2990.4z M9077-2990.4v-488.1h-890h-890v488.1v488.1h890h890V-2990.4z"/><path d="M2274.4,1546l-49.8-45.9v-400V700l47.9-44c70.8-65.1,172.3-63.2,231.6,7.7c45.9,51.7,45.9,59.3,45.9,440.2v388.6l-49.8,51.7C2433.2,1609.1,2343.3,1611.1,2274.4,1546z"/><path d="M3256.3,1538.3l-55.5-55.5v-384.7c0-375.2,0-382.8,45.9-434.5c59.3-70.8,160.8-72.7,231.6-7.7l47.9,44v400c0,398.1,0,400-47.9,446C3413.2,1613,3329,1609.1,3256.3,1538.3z"/><path d="M6521.7,1546c-47.9-45.9-47.9-47.9-47.9-446V700l47.9-44c70.8-65.1,172.3-63.2,231.6,7.7c45.9,51.7,45.9,59.3,45.9,434.5v384.7l-55.5,55.5C6671,1609.1,6586.8,1613,6521.7,1546z"/><path d="M7499.8,1544.1l-49.8-51.7v-388.6c0-380.9,0-388.6,45.9-440.2c34.4-40.2,61.2-53.6,116.7-53.6s82.3,13.4,116.7,53.6c45.9,51.7,45.9,59.3,45.9,444.1V1500l-49.8,45.9C7656.7,1611.1,7566.7,1609.1,7499.8,1544.1z"/><path d="M1457.1-1562.5c-61.2-63.2-72.7-141.6-26.8-204.8c49.8-74.7,122.5-88.1,421.1-80.4c281.4,5.7,281.4,5.7,327.3,59.3c63.2,74.6,59.3,155-9.6,225.8l-55.5,55.5h-300.5h-300.5L1457.1-1562.5z"/><path d="M3581.7-1562.5c-68.9-70.8-72.7-151.2-9.6-225.8l45.9-53.6h319.7h319.7l45.9,53.6c63.2,74.6,59.3,155-9.6,225.8l-55.5,55.5h-300.5h-300.5L3581.7-1562.5z"/><path d="M5706.3-1562.5c-68.9-70.8-72.8-151.2-9.6-225.8l45.9-53.6h319.6H6382l45.9,53.6c63.2,74.6,59.3,155-9.6,225.8l-55.5,55.5h-300.5h-300.5L5706.3-1562.5z"/><path d="M7834.7-1556.7c-74.6-63.2-80.4-153.1-13.4-231.6c45.9-53.6,45.9-53.6,327.3-59.3c298.6-7.7,371.3,5.7,421.1,80.4c45.9,63.2,34.5,141.6-26.8,204.8l-55.5,55.5h-296.7C7897.9-1507,7892.1-1507,7834.7-1556.7z"/><path d="M1504.9-2827.7c-111-45.9-134-181.8-47.9-269.9l55.5-55.5h300.5h300.5l55.5,55.5c68.9,70.8,72.7,151.2,9.6,225.8l-45.9,53.6l-294.8,3.8C1677.2-2812.3,1526-2818.1,1504.9-2827.7z"/><path d="M3629.5-2827.7c-111-45.9-134-181.8-47.9-269.9l55.5-55.5h300.5h300.5l55.5,55.5c68.9,70.8,72.7,151.2,9.6,225.8l-45.9,53.6l-294.8,3.8C3801.8-2812.3,3650.6-2818.1,3629.5-2827.7z"/><path d="M5754.1-2827.7c-111-45.9-134-181.8-47.9-269.9l55.5-55.5h300.5h300.5l55.5,55.5c68.9,70.8,72.8,151.2,9.6,225.8l-45.9,53.6l-294.8,3.8C5926.4-2812.3,5775.2-2818.1,5754.1-2827.7z"/><path d="M7878.8-2827.7c-111-44-134-181.8-47.9-269.9l55.5-55.5h300.5h300.5l55.5,55.5c88.1,88,70.8,202.9-40.2,260.3c-42.1,21-118.7,28.7-319.6,26.8C8037.6-2810.4,7899.8-2818.1,7878.8-2827.7z"/></g></g>
</svg>