<?xml version="1.0" encoding="utf-8"?>
<!-- Svg Vector Icons : http://www.onlinewebfonts.com/icon -->
<!DOCTYPE svg PUBLIC "-//W3C//DTD SVG 1.1//EN" "http://www.w3.org/Graphics/SVG/1.1/DTD/svg11.dtd">
<svg version="1.1" xmlns="http://www.w3.org/2000/svg" xmlns:xlink="http://www.w3.org/1999/xlink" x="0px" y="0px" viewBox="0 0 1000 1000" enable-background="new 0 0 1000 1000" xml:space="preserve">
<metadata> Svg Vector Icons : http://www.onlinewebfonts.com/icon </metadata>
<g><g transform="translate(0.000000,512.000000) scale(0.100000,-0.100000)"><path d="M155.5,4964.5L100,4909V120v-4789l55.5-55.5L211-4780h298.6c285.2,0,298.6,1.9,350.3,45.9c51.7,44,53.6,53.6,59.3,248.8l7.7,202.9H5000h4073.1l7.7-202.9c5.7-195.2,7.6-204.8,59.3-248.8c51.7-44,65.1-45.9,350.3-45.9H9789l55.5,55.5l55.5,55.5V120v4789l-55.5,55.5L9789,5020H5000H211L155.5,4964.5z M9574.6,120v-4574.6h-86.1h-88l3.8,187.6c3.8,201-11.5,252.7-91.9,289c-32.5,15.3-1320.7,21-4314.3,21c-3780.3,0-4274.1-3.8-4323.9-28.7c-67-34.5-74.6-61.3-82.3-287.1l-3.8-172.3l-80.4-5.7l-82.3-5.7V118.1v4576.5H5000h4574.6V120z"/><path d="M2819.9,4526.2l-2134.2-3.8l-44-42.1l-44-40.2V376.5c0-2233.7,5.7-4076.9,11.5-4094.2c34.5-90-172.3-86.1,4390.9-86.1c4561.2,0,4356.4-3.8,4390.9,86.1c5.7,17.2,11.5,1858.5,11.5,4092.3v4059.7l-42.1,44l-44,44l-2182,3.8C5934.1,4530,3993.2,4530,2819.9,4526.2z M4827.7,359.3v-3837.7H2875.4H923V359.3V4197h1952.3h1952.3V359.3z M9077,359.3v-3837.7H7124.6H5172.3V359.3V4197h1952.3H9077V359.3z"/><path d="M4232.5,887.5L4177,832V378.4c0-459.4,5.7-507.2,74.6-558.9c51.7-40.2,147.4-28.7,206.7,21.1l53.6,45.9l5.7,446c5.7,468.9-1.9,528.3-80.4,581.9C4374.1,960.3,4295.6,948.8,4232.5,887.5z"/><path d="M5562.7,914.3c-78.5-53.6-86.1-112.9-80.4-580c5.7-436.4,5.7-442.2,51.7-490c68.9-72.7,174.2-68.9,239.3,9.6l49.8,59.3v459.4V832l-55.5,55.5C5704.4,948.8,5625.9,960.3,5562.7,914.3z"/></g></g>
</svg>