<?xml version="1.0" encoding="utf-8"?>
<!-- Svg Vector Icons : http://www.onlinewebfonts.com/icon -->
<!DOCTYPE svg PUBLIC "-//W3C//DTD SVG 1.1//EN" "http://www.w3.org/Graphics/SVG/1.1/DTD/svg11.dtd">
<svg version="1.1" xmlns="http://www.w3.org/2000/svg" xmlns:xlink="http://www.w3.org/1999/xlink" x="0px" y="0px" viewBox="0 0 1000 1000" enable-background="new 0 0 1000 1000" xml:space="preserve">
<metadata> Svg Vector Icons : http://www.onlinewebfonts.com/icon </metadata>
<g><g transform="translate(0.000000,512.000000) scale(0.100000,-0.100000)"><path d="M3768.2,4989.3c-310.1-74.6-606.7-317.7-756-620.1c-141.6-290.9-135.9-132.1-135.9-2999.2v-2566.6l-53.6-19.1c-82.3-28.7-187.6-128.2-231.6-222c-34.5-70.8-40.2-116.8-40.2-367.5c0-348.3,28.7-491.9,135.9-700.5c143.5-273.7,417.2-501.5,712-591.4l128.2-40.2v-440.2v-440.2l55.5-55.5c53.6-51.7,65.1-55.5,208.6-55.5h151.2l227.8-304.3c124.4-168.4,246.9-313.9,271.8-325.4c59.3-28.7,1058.4-28.7,1117.7,0c24.9,11.5,145.4,156.9,271.8,325.4l225.8,304.3h153.1c143.5,0,155,3.8,208.6,55.5l55.5,55.5v440.2v440.2l130.1,40.2c361.7,111,652.7,396.2,792.4,780.9c32.5,90,42.1,170.4,49.8,434.5c5.7,206.7,0,348.3-13.4,392.4c-28.7,95.7-135.9,216.3-229.7,260.3l-78.5,34.5l-3.8,2643.2l-5.7,2643.2l-49.8,128.2c-76.6,197.1-166.5,331.1-313.9,470.8c-158.8,151.2-315.8,239.2-518.7,290.9c-264.1,68.9-470.8,45.9-725.4-76.6c-178-86.1-308.1-193.3-421.1-348.3l-82.3-109.1l-86.1,112.9C4642.9,4914.6,4177.8,5088.8,3768.2,4989.3z M4244.8,4665.8c235.4-61.3,405.8-202.9,514.8-430.6l59.3-124.4l5.7-2645.1l3.8-2647h-315.8H4197v2526.4c0,2708.2,1.9,2625.9-91.9,2677.6c-68.9,36.4-137.8,24.9-197.1-34.4l-55.5-55.5v-2557v-2557.1h-325.4h-325.4V1370c0,2773.3-1.9,2702.5,107.2,2903.5C3485,4596.9,3875.4,4761.5,4244.8,4665.8z M6172.1,4673.5c212.4-45.9,421.1-197.1,518.7-377.1c112.9-206.7,109.1-105.3,109.1-2907.3v-2570.4h-325.4h-325.4v2557.1v2557l-55.5,55.5c-59.3,59.3-128.2,70.8-197.1,34.4c-93.8-51.7-91.9,30.6-91.9-2677.6v-2526.4h-315.8h-315.8v2589.6c0,2130.2,5.7,2604.9,26.8,2685.3C5312.8,4518.5,5730,4767.3,6172.1,4673.5z M7106.2-1535.4c24.9-15.3,24.9-493.8,0-622c-55.5-290.9-252.6-518.7-532.1-614.4c-99.5-34.5-181.8-36.4-1573.3-36.4c-1391.4,0-1473.7,1.9-1573.3,36.4c-268,91.9-449.8,290.9-522.5,570.4c-32.5,124.4-40.2,637.3-11.5,668C2914.6-1514.3,7075.5-1516.2,7106.2-1535.4z M6149.2-3229.2v-76.6H5000.8H3852.4v76.6v76.6h1148.4h1148.4V-3229.2z M6145.3-3721.1l5.7-82.3H5002.7H3852.4v72.7c0,40.2,5.7,80.4,13.4,86.1c5.7,7.7,520.6,11.5,1142.6,9.6l1131.1-5.7L6145.3-3721.1z M5532.9-4291.5l-120.6-160.8h-411.5h-411.5l-120.6,160.8l-118.7,162.7h650.7h650.7L5532.9-4291.5z"/></g></g>
</svg>