<?xml version="1.0" encoding="utf-8"?>
<!-- Svg Vector Icons : http://www.onlinewebfonts.com/icon -->
<!DOCTYPE svg PUBLIC "-//W3C//DTD SVG 1.1//EN" "http://www.w3.org/Graphics/SVG/1.1/DTD/svg11.dtd">
<svg version="1.1" xmlns="http://www.w3.org/2000/svg" xmlns:xlink="http://www.w3.org/1999/xlink" x="0px" y="0px" viewBox="0 0 1000 1000" enable-background="new 0 0 1000 1000" xml:space="preserve">
<metadata> Svg Vector Icons : http://www.onlinewebfonts.com/icon </metadata>
<g><g transform="translate(0.000000,512.000000) scale(0.100000,-0.100000)"><path d="M5508.7,5007.8c-291-63.2-1921.9-501.5-1996.5-537.9c-193.3-88-375.2-317.8-436.4-547.5c-74.7-277.6,17.2-587.7,225.9-765.7l74.6-65.1l-63.2-19.1c-34.5-11.5-135.9-40.2-225.9-63.2c-225.9-59.3-356-128.2-480.5-258.4c-310.1-327.3-325.4-777.2-34.5-1089.2l114.9-120.6l-86.1-59.3c-243.1-168.4-402-511.1-367.5-794.4C2283.3,293.1,2715.9-45.7,3116-5.5c63.2,5.7,356,74.6,648.9,155c294.8,78.5,537.9,141.7,539.8,137.8c3.8-3.8-15.3-57.4-40.2-118.7c-63.2-158.9-86.1-319.7-86.1-616.4v-252.7l-677.6-5.8l-677.6-5.7l-84.2-59.3c-49.8-38.3-103.4-101.4-135.9-162.7l-53.6-103.4l5.7-583.8c7.7-629.8,11.5-647,130.2-880.5c141.6-279.5,426.9-513,733.1-603l109.1-30.6v-440.3v-442.2l55.5-55.5c53.6-51.7,65.1-55.5,208.6-55.5h153.1l225.9-304.4c126.3-168.4,246.9-313.9,271.8-325.4c59.3-28.7,1058.6-28.7,1117.9,0c24.9,11.5,145.5,157,271.8,325.4l225.9,304.4h151.2c130.2,0,155,5.7,202.9,45.9l53.6,45.9l9.6,455.6l9.6,455.6l70.8,15.3c289,59.3,620.2,327.3,769.5,624c109.1,216.3,126.3,340.7,126.3,920.7c0,589.6-5.7,618.3-135.9,746.5c-114.8,116.8-120.6,116.8-871,116.8c-377.1,0-677.6,5.7-670,13.4c7.6,7.7,336.9,103.4,733.1,210.6C6904.2-369.2,7267.9-262,7315.7-239c206.7,99.5,396.2,363.7,444.1,618.3c51.7,283.3-76.6,591.5-319.7,758l-84.2,57.4l67,80.4c151.2,174.2,237.4,444.1,212.5,652.7c-19.1,141.7-107.2,319.7-224,442.2l-97.6,103.4l57.4,28.7c30.6,15.3,103.4,80.4,160.8,143.6c394.3,425,287.1,1024.1-227.8,1278.7c-128.2,63.2-162.7,72.7-319.7,78.5c-145.5,3.8-208.7-3.8-380.9-49.8c-172.3-45.9-204.8-49.8-197.2-24.9c68.9,227.8,63.2,434.5-13.4,601.1C6249.5,4845.1,5820.7,5076.7,5508.7,5007.8z M5813.1,4674.7c252.7-70.8,403.9-451.8,275.6-700.6c-90-178-111-185.7-1173.4-467.1c-1070-283.3-1137-294.8-1292.1-208.6c-101.4,57.4-201,183.8-231.6,292.9c-11.5,44-17.2,137.8-13.4,208.7c7.7,155,72.7,262.2,206.7,344.6c103.4,61.3,1927.6,547.5,2067.3,549.4C5700.1,4695.8,5771,4686.2,5813.1,4674.7z M7124.3,3669.8c266.1-78.5,409.6-440.3,273.7-696.8c-80.4-158.9-170.4-208.6-541.7-304.4c-172.3-44-1072-285.2-1998.4-532.2c-1678.8-449.8-1684.5-451.7-1789.8-430.7c-222,45.9-363.7,222.1-379,470.9c-5.7,120.6-1.9,147.4,47.9,239.3c99.5,191.4,82.3,183.8,1431.8,543.6c664.2,178,1473.9,394.3,1799.4,482.4C7053.5,3736.8,6963.5,3717.6,7124.3,3669.8z M7042,2266.7c260.3-118.7,359.9-511.1,185.7-744.6c-90-122.5-157-147.4-934.1-356C3640.5,453.9,3098.7,312.3,3027.9,312.3c-323.5,0-549.4,323.5-457.5,652.7c24.9,91.9,151.2,231.6,243.1,271.8c40.2,17.2,289,88,551.3,157c264.2,68.9,1133.2,300.5,1933.3,514.9C6841,2324.1,6890.8,2335.6,7042,2266.7z M7133.9,959.3c170.4-51.7,317.7-273.7,317.7-478.6c0-178-111-357.9-262.2-423c-40.2-17.2-390.5-118.7-777.2-224c-386.7-105.3-737-208.6-775.3-227.8c-82.3-42.1-222-185.7-243.1-248.8c-11.5-40.2-19.1-40.2-451.7-40.2h-438.4v235.4c0,128.3,9.6,289.1,19.1,356c38.3,229.7,178,421.1,371.4,511.1c147.4,67,1956.3,558.9,2067.3,560.9C7013.3,982.2,7089.9,970.7,7133.9,959.3z M5508.7-1041.1c32.5,0,405.8,1.9,832.7,1.9l775.3,1.9l5.7-513c5.8-666.1-21-796.3-212.5-1003c-97.6-107.2-195.3-170.4-335-218.2c-99.6-34.5-181.9-36.4-1573.5-36.4c-1391.6,0-1473.9,1.9-1573.5,36.4c-279.5,95.7-476.6,323.5-532.1,614.5c-21.1,112.9-26.8,1096.8-5.7,1117.9c7.7,5.7,585.7,7.6,1286.3,3.8C4877-1039.2,5478.1-1043,5508.7-1041.1z M6150-3229v-76.6H5001.5H3852.9v76.6v76.6h1148.5H6150V-3229z M6140.4-3717.1v-76.6l-1142.8-5.7l-1144.7-3.8v72.7c0,40.2,5.7,80.4,13.4,86.1c5.7,7.7,520.7,11.5,1142.8,9.6l1131.3-5.7V-3717.1z M5533.6-4291.4L5413-4452.2h-411.5h-411.6l-120.6,160.8l-118.7,162.7h650.8h650.8L5533.6-4291.4z"/></g></g>
</svg>