<?xml version="1.0" encoding="utf-8"?>
<!-- Svg Vector Icons : http://www.onlinewebfonts.com/icon -->
<!DOCTYPE svg PUBLIC "-//W3C//DTD SVG 1.1//EN" "http://www.w3.org/Graphics/SVG/1.1/DTD/svg11.dtd">
<svg version="1.1" xmlns="http://www.w3.org/2000/svg" xmlns:xlink="http://www.w3.org/1999/xlink" x="0px" y="0px" viewBox="0 0 1000 1000" enable-background="new 0 0 1000 1000" xml:space="preserve">
<metadata> Svg Vector Icons : http://www.onlinewebfonts.com/icon </metadata>
<g><g transform="translate(0.000000,433.000000) scale(0.100000,-0.100000)"><path d="M100-421.2v-3893.2l245-5.7l243.1-5.7l5.7-243.1l5.7-245h486.2h488.1v248.8v248.8H5000h3426.2v-248.8v-248.8h488.1h486.2l5.7,245l5.7,243.1l245,5.7l243.1,5.7v3893.2v3895.1H5000H100V-421.2z M9574.6-402v-3588.9H5000H425.4V-402v3588.9H5000h4574.6V-402z M1248.4-4412v-76.6h-162.7H923v76.6v76.6h162.7h162.7V-4412z M9077-4412v-76.6h-162.7h-162.7v76.6v76.6h162.7H9077V-4412z"/><path d="M597.7,1626.9V239.2h813.5h813.5v1387.7v1387.7h-813.5H597.7V1626.9z M1895.4,1632.6l-5.7-1058.5l-482.3-5.7L923,564.6v1062.3v1062.3h488.1h488.1L1895.4,1632.6z"/><path d="M1181.4,2516.9c-53.6-21.1-84.2-59.3-97.6-128.2c-7.7-44,0-68.9,40.2-116.7l51.7-61.3h227.8c218.2,0,231.6,1.9,275.6,47.9c78.5,76.6,63.2,201-30.6,248.8C1589.1,2538,1250.4,2545.6,1181.4,2516.9z"/><path d="M1124,1977.1c-40.2-47.9-47.9-72.7-40.2-118.7c23-112.9,67-135.9,281.4-141.6c105.3-3.8,212.5-1.9,237.3,3.8c122.5,30.6,164.6,183.8,76.6,269.9c-44,45.9-57.4,47.9-275.6,47.9h-227.8L1124,1977.1z"/><path d="M1171.9,1536.9c-99.5-53.6-118.7-183.7-38.3-264.1c34.4-34.4,65.1-38.3,275.6-38.3c235.4,0,239.3,0,277.5,49.8c55.5,70.8,51.7,162.7-9.6,220.1c-44,42.1-67,45.9-252.7,51.7C1282.9,1559.9,1204.4,1554.1,1171.9,1536.9z"/><path d="M1131.7,1006.7c-72.7-72.7-72.7-141.6,1.9-216.3L1191,733l231.6,7.7c216.3,5.7,233.5,9.6,268,51.7c51.7,63.2,47.9,164.6-11.5,222c-44,45.9-57.4,47.9-268,47.9C1191,1062.2,1187.2,1062.2,1131.7,1006.7z"/><path d="M2395,2905.5c-7.7-405.8-9.6-2484.4-1.9-2566.7l9.6-99.5l805.8,3.8l805.8,5.7l5.7,1383.9l3.8,1382h-813.5h-813.5L2395,2905.5z M3694.6,1632.6l-5.7-1058.5h-488.1h-488.1l-5.7,1058.5l-3.8,1056.6h497.7h497.7L3694.6,1632.6z"/><path d="M2930.9,2480.5c-59.3-59.3-68.9-112.9-32.5-179.9c42.1-80.4,72.7-88.1,308.2-90c214.4,0,227.8,1.9,271.8,47.9c70.8,68.9,65.1,164.6-11.5,227.8c-55.5,47.9-70.8,49.8-269.9,49.8C2990.2,2536.1,2986.4,2536.1,2930.9,2480.5z"/><path d="M2932.8,2000.1c-82.3-82.3-65.1-210.5,38.3-262.2c28.7-15.3,126.3-24.9,245-24.9c193.3,0,199.1,1.9,254.6,55.5c70.8,72.7,74.6,157,7.7,222c-44,45.9-57.4,47.9-277.5,47.9C2997.9,2038.4,2967.3,2034.6,2932.8,2000.1z"/><path d="M2976.8,1540.7c-68.9-28.7-107.2-105.3-93.8-181.8c21.1-107.2,65.1-124.4,323.5-124.4c214.4,0,227.8,1.9,271.8,47.9c61.3,59.3,61.3,143.6,1.9,214.4c-44,51.7-53.6,53.6-254.6,57.4C3112.7,1558,2999.8,1550.3,2976.8,1540.7z"/><path d="M2930.9,1006.7c-32.5-34.5-55.5-76.6-55.5-107.2s23-72.7,55.5-107.2c55.5-53.6,61.3-55.5,260.3-55.5c262.2,0,333,34.4,335,168.4c0,42.1-15.3,78.5-47.9,109.1c-44,45.9-57.4,47.9-268,47.9C2990.2,1062.2,2986.4,1062.2,2930.9,1006.7z"/><path d="M4180.8,1632.6l5.7-1383.9H5000h813.5l5.7,1383.9l3.8,1382h-823h-823L4180.8,1632.6z M5493.8,1632.6l-5.7-1058.5H5000h-488.1l-5.7,1058.5l-3.8,1056.6H5000h497.7L5493.8,1632.6z"/><path d="M4730.1,2480.5c-70.8-72.7-74.6-157-7.7-222c44-45.9,57.4-47.9,277.5-47.9s233.5,1.9,277.5,47.9c67,65.1,63.2,149.3-7.7,222c-55.5,55.5-59.3,55.5-269.9,55.5S4785.6,2536.1,4730.1,2480.5z"/><path d="M4722.5,1990.5c-67-65.1-63.2-149.3,7.7-222c55.5-55.5,59.3-55.5,269.9-55.5s214.4,0,269.9,55.5c70.8,72.7,74.7,157,7.7,222c-44,45.9-57.4,47.9-277.5,47.9S4766.5,2036.5,4722.5,1990.5z"/><path d="M4778,1542.7c-105.3-45.9-134-183.8-55.5-260.3c44-45.9,57.4-47.9,277.5-47.9s233.5,1.9,277.5,47.9c61.3,59.3,61.3,143.6,1.9,214.4c-44,51.7-53.6,53.6-254.6,57.4C4912,1558,4799,1552.2,4778,1542.7z"/><path d="M4760.7,1039.3c-84.2-47.9-107.2-122.5-65.1-212.5c32.5-72.7,95.7-90,315.8-90c197.2,0,202.9,1.9,258.4,55.5c80.4,82.3,65.1,202.9-34.4,248.8C5174.2,1069.9,4810.5,1068,4760.7,1039.3z"/><path d="M5980,1632.6l5.7-1383.9l809.6-5.7l807.7-3.8v1387.7v1387.7h-813.5h-813.5L5980,1632.6z M7285.4,2599.2c5.7-51.7,7.6-526.4,5.7-1058.5l-3.8-966.6h-488.1h-488.1l-5.7,1058.5l-3.8,1056.6h486.2h486.2L7285.4,2599.2z"/><path d="M6533.2,2486.3c-76.6-63.2-82.3-158.9-11.5-227.8c44-45.9,57.4-47.9,271.8-47.9c235.4,1.9,266,9.6,308.2,90c36.4,67,26.8,120.6-32.5,179.9c-55.5,55.5-59.3,55.5-266,55.5C6604,2536.1,6588.7,2534.1,6533.2,2486.3z"/><path d="M6521.7,1990.5c-70.8-68.9-65.1-164.6,11.5-227.8c53.6-45.9,70.8-49.8,252.7-49.8c118.7,0,214.4,9.6,243.1,24.9c103.4,51.7,120.6,179.9,38.3,262.2c-34.5,34.4-65.1,38.3-268,38.3C6579.1,2038.4,6565.7,2036.5,6521.7,1990.5z"/><path d="M6577.2,1542.7c-105.3-45.9-134-183.8-55.5-260.3c44-45.9,57.4-47.9,273.7-47.9c262.2,0,302.4,17.2,321.6,135.9c9.6,55.5,1.9,78.5-36.4,124.4c-47.9,53.6-51.7,55.5-256.5,59.3C6711.2,1558,6598.2,1552.2,6577.2,1542.7z"/><path d="M6521.7,1014.4c-47.9-45.9-61.3-124.4-36.4-191.4c24.9-63.2,112.9-86.1,323.5-86.1c199.1,0,204.8,1.9,260.3,55.5c32.5,34.5,55.5,76.6,55.5,107.2s-23,72.7-55.5,107.2c-55.5,55.5-59.3,55.5-279.4,55.5C6579.1,1062.2,6565.7,1060.3,6521.7,1014.4z"/><path d="M7779.2,1632.6l5.7-1383.9l809.6-5.7l807.7-3.8v1387.7v1387.7h-813.5h-813.5L7779.2,1632.6z M9077,1626.9V564.6l-482.3,3.8l-484.3,5.7l-5.7,1058.5l-3.8,1056.6h488.1H9077V1626.9z"/><path d="M8359.2,2515c-99.5-57.4-118.7-178-38.3-256.5c44-45.9,57.4-47.9,275.6-47.9h227.8l51.7,61.3c59.3,68.9,55.5,151.2-9.6,216.3c-34.5,32.5-68.9,38.3-254.6,44C8477.9,2534.1,8384.1,2528.4,8359.2,2515z"/><path d="M8320.9,1990.5c-90-88-47.9-237.3,74.7-269.9c26.8-5.7,134-7.7,239.3-3.8c214.4,5.7,258.4,28.7,281.3,141.6c7.7,45.9,0,70.8-40.2,118.7l-51.7,61.3h-227.8C8378.3,2038.4,8364.9,2036.5,8320.9,1990.5z"/><path d="M8387.9,1546.5c-111-40.2-147.4-168.4-74.7-262.2c38.3-47.9,44-49.8,266.1-49.8c124.4,0,241.2,5.7,258.4,11.5c47.9,19.1,90,118.7,76.6,181.8c-23,99.5-103.4,132.1-315.8,130.2C8498.9,1558,8403.2,1552.2,8387.9,1546.5z"/><path d="M8320.9,1014.4c-59.3-57.4-63.2-158.9-11.5-222c34.4-42.1,51.7-45.9,268-51.7L8809,733l57.4,57.4c74.7,74.7,74.7,143.6,1.9,216.3c-55.5,55.5-59.3,55.5-279.4,55.5C8378.3,1062.2,8364.9,1060.3,8320.9,1014.4z"/><path d="M7293-2970.7c-3.8-61.3-7.6-279.5-5.7-484.3l3.8-373.2h486.2h486.2l5.7,484.3l3.8,482.3h-484.3h-486.2L7293-2970.7z M7943.8-3343.9l-5.7-158.9h-162.7h-162.7l-5.7,158.9l-5.7,157h174.2h174.2L7943.8-3343.9z"/><path d="M8426.2-3349.7v-488.1h488.1h488.1v488.1v488.1h-488.1h-488.1V-3349.7z M9077-3349.7v-162.7h-162.7h-162.7v162.7v162.7h162.7H9077V-3349.7z"/></g></g>
</svg>