<?xml version="1.0" encoding="utf-8"?>
<!-- Svg Vector Icons : http://www.onlinewebfonts.com/icon -->
<!DOCTYPE svg PUBLIC "-//W3C//DTD SVG 1.1//EN" "http://www.w3.org/Graphics/SVG/1.1/DTD/svg11.dtd">
<svg version="1.1" xmlns="http://www.w3.org/2000/svg" xmlns:xlink="http://www.w3.org/1999/xlink" x="0px" y="0px" viewBox="0 0 1000 1000" enable-background="new 0 0 1000 1000" xml:space="preserve">
<metadata> Svg Vector Icons : http://www.onlinewebfonts.com/icon </metadata>
<g><g transform="translate(0.000000,503.000000) scale(0.100000,-0.100000)"><path d="M480.5,4788.8l-55.5-55.5V2489.8c0-2385.2-1.9-2327.7,86.1-2362.2c17.2-5.7,995.4-11.5,2174.6-11.5h2142V30v-86.1h-597.2c-440.3-1.9-606.8-7.7-629.8-24.9c-57.4-44-74.7-107.2-74.7-279.5v-174.2H2277.9c-1374.4,0-1401.2-1.9-1625.2-116.8c-78.5-38.3-172.3-111-256.5-197.2C0-1248.7,1.9-1790.4,400.1-2196.3L537.9-2336l-130.2-128.3C-1.9-2872-1.9-3423.3,403.9-3829.1c210.6-208.7,434.5-304.4,714-304.4h130.2v-277.6c0-271.8,1.9-281.4,47.9-325.4c45.9-47.9,47.9-47.9,430.7-47.9h386.7l55.5,55.5l55.5,55.5v269.9v269.9H5000h2775.7v-269.9v-269.9l55.5-55.5l55.5-55.5h386.7c382.9,0,384.8,0,430.7,47.9c46,44,47.9,53.6,47.9,325.4v277.6h130.2c279.5,0,503.4,95.7,714,304.4c405.8,405.8,405.8,957.1-3.8,1364.9L9462.1-2336l137.8,139.7c315.9,321.6,382.9,714,189.5,1106.4c-70.8,145.5-289.1,361.8-442.2,438.4C9123.3-536.6,9096.5-534.7,7724-534.7H6474v174.2c0,172.3-17.2,235.5-74.7,279.5c-22.9,17.2-189.5,23-627.9,24.9h-599.1V30v86.1h2142.1c1179.2,0,2157.3,5.7,2174.6,11.5c88,34.5,86.2-23,86.2,2362.2v2243.5l-55.5,55.5l-55.5,55.5H5000H536L480.5,4788.8z M9249.6,2729.1V939.3H5000H750.4v1789.8v1789.8H5000h4249.6V2729.1z M9249.6,518.1v-76.6H5000H750.4v76.6v76.6H5000h4249.6V518.1z M6148.6-458.1v-76.6H5000H3851.4v76.6v76.6H5000h1148.6V-458.1z M1569.7-1514.8l3.8-647h-325.4c-273.7,0-340.7,5.7-421.1,36.4c-149.3,57.4-256.5,155-329.3,304.3c-57.4,114.9-63.2,143.6-63.2,300.5c0,145.5,7.7,189.5,49.8,277.6c67,145.5,153.1,237.4,273.7,296.7c141.7,68.9,233.5,82.3,537.9,80.4l268-3.8L1569.7-1514.8z M9175-913.7c153.1-61.3,254.6-155.1,327.3-306.3c57.4-114.9,63.2-143.6,63.2-300.5s-5.7-185.7-63.2-300.5c-72.7-149.3-179.9-246.9-329.2-304.3c-90-34.5-155.1-36.4-997.3-36.4H7276l3.8,432.6l3.8,432.6l-51.7,49.8l-49.7,51.7H5811.6H4441l-45.9-53.6c-45.9-53.6-45.9-57.4-45.9-484.3v-428.8h-248.9h-248.9v641.3v641.3l1250,5.7c685.3,1.9,1860.7,3.8,2607.2,3.8h1359.1L9175-913.7z M2224.3-1520.5v-641.3h-162.7h-162.7v641.3v641.3h162.7h162.7V-1520.5z M2875.2-1520.5v-641.3h-162.7h-162.7v641.3v641.3h162.7h162.7V-1520.5z M3526-1520.5v-641.3h-162.7h-162.7v641.3v641.3h162.7H3526V-1520.5z M6952.5-1838.3v-323.5h-1139h-1139v323.5v323.5h1139h1139V-1838.3z M9224.7-2567.6c134-70.8,229.7-170.4,291-300.5c42.1-90,49.8-134,49.8-279.5c0-149.3-7.7-189.5-55.5-292.9c-74.6-160.8-216.3-283.3-390.5-338.8l-44-13.4l3.8,421.1c1.9,434.5-5.7,480.5-78.5,520.7c-55.5,30.6-2584.2,24.9-2624.4-5.7c-67-51.7-74.7-101.5-74.7-528.3v-423h-76.6h-74.7l-5.7,528.3l-5.7,528.3l-53.6,45.9l-53.6,45.9h-869.1h-869.1l-53.6-45.9l-53.6-45.9l-5.7-528.3l-5.7-528.3h-74.7h-76.6v421.1c0,440.3-11.5,514.9-86.1,543.7c-17.2,5.7-608.7,11.5-1313.2,11.5H1341.9l-45.9-47.9l-47.9-45.9v-444.1v-444.1l-170.4,9.6c-335,19.1-539.8,172.3-626,467.1c-63.2,220.1,1.9,493.9,153.1,645.1c68.9,68.9,185.7,139.7,279.5,168.4c26.8,7.7,1891.3,13.4,4144.3,11.5l4096.5-3.8L9224.7-2567.6z M5813.6-3396.5v-402h-650.8h-650.8l-5.7,382.9c-1.9,210.6,0,392.4,5.7,405.8c5.7,21.1,141.7,24.9,654.7,21.1l647-5.7V-3396.5z M3694.5-3476.9l-5.7-321.6l-1056.7-5.7l-1058.6-3.8v325.4v325.4h1062.4h1062.4L3694.5-3476.9z M8751.9-3482.6v-325.4l-1056.7,3.8l-1058.6,5.7l-5.7,321.6l-3.8,319.7h1062.4h1062.4V-3482.6z M1898.9-4296.2v-162.7h-162.7h-162.7v162.7v162.7h162.7h162.7V-4296.2z M8426.5-4296.2v-162.7h-162.7h-162.7v162.7v162.7h162.7h162.7V-4296.2z"/><path d="M6370.6-1725.4c-28.7-24.9-55.5-70.8-61.2-105.3c-9.6-51.7-1.9-70.8,45.9-120.6c74.7-72.7,158.9-76.6,224-9.6C6724.7-1817.2,6523.7-1591.4,6370.6-1725.4z"/><path d="M5405.8-3170.6c-32.5-11.5-80.4-109.1-80.4-158.9c0-59.3,101.5-153.1,162.7-153.1c72.7,0,162.7,95.7,162.7,172.3C5650.8-3199.3,5520.7-3124.7,5405.8-3170.6z"/><path d="M1831.9-3329.5c-160.8-65.1-109.1-306.3,65.1-306.3c90,0,155.1,63.2,155.1,147.4c0,86.1-17.2,118.7-78.5,149.3C1914.2-3306.5,1887.4-3304.6,1831.9-3329.5z"/><path d="M6856.8-3364c-134-135.9,0-329.3,181.9-260.4c36.4,15.3,86.1,105.3,86.1,158.9c0,57.4-78.5,134-147.4,147.4C6925.7-3308.5,6906.6-3316.1,6856.8-3364z"/></g></g>
</svg>