<?xml version="1.0" encoding="utf-8"?>
<!-- Svg Vector Icons : http://www.onlinewebfonts.com/icon -->
<!DOCTYPE svg PUBLIC "-//W3C//DTD SVG 1.1//EN" "http://www.w3.org/Graphics/SVG/1.1/DTD/svg11.dtd">
<svg version="1.1" xmlns="http://www.w3.org/2000/svg" xmlns:xlink="http://www.w3.org/1999/xlink" x="0px" y="0px" viewBox="0 0 1000 1000" enable-background="new 0 0 1000 1000" xml:space="preserve">
<metadata> Svg Vector Icons : http://www.onlinewebfonts.com/icon </metadata>
<g><g transform="translate(0.000000,423.000000) scale(0.100000,-0.100000)"><path d="M272.3,1756.6V234.9h-86.1H100v-2526.6v-2526.6h4900h4900v2526.6V234.9h-86.1h-86.1v1521.7v1521.7H8550.6H7373.4V1766.1V254h-42.1c-24.9,0-101.4-5.7-172.3-13.4l-130.2-11.5v1047V2325l-55.5,55.5l-55.5,55.5h-402h-400l-51.7-49.8c-45.9-45.9-49.8-65.1-49.8-202.9c0-134,5.7-156.9,47.9-197.1c88-90,241.2-51.7,283.3,72.7c9.6,26.8,36.4,32.5,176.1,32.5h162.7v-421.1v-421.1H4827.7H2971.1V740.2v-511l-128.2,11.5c-72.7,7.7-149.3,13.4-172.3,13.4h-44v1512.1v1512.1H1449.4H272.3V1756.6z M2301.2,1593.9V254h-851.8H597.7v1339.8v1339.8h851.8h851.8V1593.9z M9398.5,1593.9V254h-849.8h-849.9v1339.8v1339.8h849.9h851.8L9398.5,1593.9z M6684.4,589V254H5000H3315.6v335v335H5000h1684.4V589z M2454.3-176.6v-86.1h-756.1H942.2v-928.3v-928.3H693.4H444.5V-1105V-90.5h1004.9h1004.9V-176.6z M4827.7-1105v-1014.5h-1003H2819.9l-5.7,1001.1c-3.8,549.3-3.8,1004.9,0,1014.4c3.8,7.7,457.5,13.4,1010.6,13.4h1003V-1105z M7191.6-348.9v-248.8h-497.7c-273.7-1.9-616.3-3.8-759.9-5.7l-264.1-3.8v-756.1v-756.1h-248.8h-248.8V-1105V-90.5l1010.6-3.8l1008.7-5.7V-348.9z M9555.5-345.1v-254.6l-348.4,3.8c-193.3,1.9-534,0-756.1-7.7l-407.7-9.6v-754.1v-752.2h-248.8h-248.8V-1105V-90.5h1004.9h1004.9V-345.1z M1439.8-1363.4v-756.1h-76.6h-76.6v756.1v756.1h76.6h76.6V-1363.4z M1956.6-1363.4v-756.1h-86.1h-86.1v756.1v756.1h86.1h86.1V-1363.4z M2454.3-1363.4v-756.1h-76.6h-76.6v756.1v756.1h76.6h76.6V-1363.4z M6182.9-1529.9l3.8-589.5h-86.1h-86.1v595.3v593.4l82.3-5.7l80.4-5.7L6182.9-1529.9z M6684.4-1526.1v-593.4h-76.6h-76.6v593.4v593.4h76.6h76.6V-1526.1z M7182-1526.1v-593.4h-76.6h-76.6v593.4v593.4h76.6h76.6V-1526.1z M8541-1526.1v-593.4h-76.6h-76.6v593.4v593.4h76.6h76.6V-1526.1z M9054-1529.9l3.8-589.5h-86.1h-86.1v595.3v593.4l82.3-5.7l80.4-5.7L9054-1529.9z M9555.5-1526.1v-593.4h-76.6h-76.6v593.4v593.4h76.6h76.6V-1526.1z M2454.3-3468.8v-1004.9H1449.4H444.5v1004.9v1004.9h1004.9h1004.9V-3468.8z M4827.7-3468.8v-1004.9H3813.3H2798.8v1004.9v1004.9h1014.5h1014.5V-3468.8z M7201.2-3468.8v-1004.9H6186.7H5172.3v1004.9v1004.9h1014.5h1014.5V-3468.8z M9555.5-3468.8v-1004.9H8550.6H7545.7v1004.9v1004.9h1004.9h1004.9V-3468.8z"/><path d="M1325,2755.7c-135.9-30.6-258.4-103.4-361.8-214.4c-191.4-208.6-235.4-461.3-122.5-698.6c32.5-68.9,86.1-153.1,118.7-187.6l61.2-65.1l-70.8-76.6c-239.3-266-223.9-635.5,36.4-891.9c187.6-183.8,419.2-248.8,639.3-179.9c315.8,99.5,534,417.3,493.8,719.7c-15.3,118.7-84.2,268-168.4,357.9l-63.2,68.9l63.2,72.7c250.7,290.9,227.8,660.4-59.3,924.5C1725,2738.5,1524.1,2797.8,1325,2755.7z M1646.6,2384.4c93.8-70.8,126.3-134,134-264.1c15.3-235.4-120.6-367.5-359.8-350.3c-187.6,13.4-289,114.8-302.4,296.7c-13.4,231.6,137.8,382.8,367.5,363.7C1554.7,2424.6,1617.8,2405.4,1646.6,2384.4z M1644.7,1371.8c91.9-68.9,126.3-134,135.9-254.6c17.2-239.3-122.5-379-361.8-361.8c-220.1,15.3-331.1,168.4-296.7,405.8c15.3,99.5,86.1,195.2,174.2,233.5C1380.5,1435,1579.6,1419.7,1644.7,1371.8z"/><path d="M8431.9,2761.4c-187.6-38.3-400-208.6-493.8-396.2c-45.9-93.8-55.5-135.9-55.5-264.1c-1.9-130.2,5.8-170.4,49.8-260.3c28.7-57.4,82.3-139.7,116.8-179.9l63.2-72.7l-63.2-68.9c-34.5-38.3-88-116.8-116.8-174.2c-42.1-88-51.7-130.2-51.7-258.4c0-130.2,7.7-170.4,53.6-264.1c70.8-141.7,210.5-283.3,352.2-350.3c160.8-76.6,350.3-76.6,516.8,0c147.4,67,294.8,216.3,365.6,369.4c99.5,218.2,53.6,480.4-118.7,671.8l-70.8,76.6l61.2,65.1c32.5,34.4,86.1,118.7,118.7,187.6c114.8,239.3,68.9,493.8-128.3,704.4c-107.2,114.8-235.4,185.7-382.8,212.5c-63.2,11.5-118.7,21.1-124.4,19.1C8518,2776.8,8475.9,2769.1,8431.9,2761.4z M8713.3,2393.9c118.7-61.2,178-174.2,168.4-327.3c-13.4-185.7-116.8-285.2-308.2-296.7c-97.6-5.7-137.8,0-201,32.5c-233.5,118.7-201,539.8,45.9,614.4C8518,2445.6,8625.2,2438,8713.3,2393.9z M8745.8,1371.8c105.3-78.5,130.2-134,130.2-285.2c0-112.9-7.7-151.2-40.2-193.3c-68.9-93.8-134-128.2-254.6-137.8c-222-15.3-365.6,109.1-365.6,317.7c0,158.9,59.3,266.1,181.8,321.6C8481.7,1435,8680.7,1419.7,8745.8,1371.8z"/><path d="M1045.5-2808.5c-111-45.9-134-181.8-47.9-269.9l55.5-55.5h396.2h396.2l55.5,55.5c68.9,70.8,72.7,151.2,9.6,225.8l-45.9,53.6l-390.5,3.8C1261.8-2793.2,1066.6-2798.9,1045.5-2808.5z"/><path d="M3375-2839.1c-47.9-38.3-59.3-65.1-59.3-122.5s11.5-84.2,59.3-122.5l59.3-49.8h369.4c204.8,0,392.4,7.7,419.2,19.1c28.7,9.6,65.1,47.9,82.3,84.2c26.8,55.5,26.8,74.6,5.7,126.3c-44,103.4-90,114.8-505.3,114.8h-371.3L3375-2839.1z"/><path d="M5763.7-2818c-99.5-53.6-114.8-195.2-32.5-271.8c34.5-30.6,82.3-34.5,436.4-40.2l396.2-5.7l61.3,49.8c84.2,72.7,84.2,176.1,0,246.9l-59.3,49.8h-375.2C5901.5-2791.2,5802-2797,5763.7-2818z"/><path d="M8146.7-2808.5c-111-45.9-134-181.8-47.9-269.9l55.5-55.5h396.2h396.2l57.4,57.4c49.8,51.7,57.4,68.9,47.9,128.2c-7.7,38.3-30.6,88-51.7,109.1c-36.4,38.3-63.2,40.2-426.8,44C8361.1-2793.2,8167.8-2798.9,8146.7-2808.5z"/><path d="M3602.7,1752.7c-93.8-34.4-141.6-145.5-103.4-245c34.5-86.1,38.3-86.1,1500.6-86.1c1462.4,0,1466.2,0,1500.6,86.1c26.8,72.7,11.5,157-38.3,202.9l-49.8,45.9l-1389.6,3.8C4257.3,1762.3,3618,1758.5,3602.7,1752.7z"/></g></g>
</svg>