<?xml version="1.0" encoding="utf-8"?>
<!-- Svg Vector Icons : http://www.onlinewebfonts.com/icon -->
<!DOCTYPE svg PUBLIC "-//W3C//DTD SVG 1.1//EN" "http://www.w3.org/Graphics/SVG/1.1/DTD/svg11.dtd">
<svg version="1.1" xmlns="http://www.w3.org/2000/svg" xmlns:xlink="http://www.w3.org/1999/xlink" x="0px" y="0px" viewBox="0 0 1000 1000" enable-background="new 0 0 1000 1000" xml:space="preserve">
<metadata> Svg Vector Icons : http://www.onlinewebfonts.com/icon </metadata>
<g><g transform="translate(0.000000,512.000000) scale(0.100000,-0.100000)"><path d="M999,4990.8c-285.2-76.6-547.5-342.7-622.2-629.8c-44-170.4-42.1-1876,1.9-2092.4c68.9-338.8,225.9-620.3,474.7-863.4L999,1265.5v-2369.9v-2369.9l-63.2-11.5c-197.2-38.3-421.2-220.2-522.6-423.1c-53.6-111-55.5-126.3-61.3-434.6l-7.7-321.6l57.4-57.4l57.4-57.4H5000h4540.8l57.4,57.4l57.4,57.4l-7.7,321.6c-7.6,306.3-9.6,323.5-63.2,434.6c-116.8,243.1-354.2,409.7-612.6,428.8l-134,11.5l-5.7,2310.6l-3.8,2310.6l86.2,59.3l86.2,59.3V-401.9V-2075l47.9-44c70.8-65.1,172.3-63.2,231.6,7.7l46,51.7v1830.1v1830.1l68.9,103.4c82.3,124.4,147.4,269.9,202.9,451.8c40.2,132.1,42.1,176.1,49.8,1108.4c5.7,842.3,1.9,987.8-24.9,1091.2c-38.3,149.3-103.4,264.2-227.8,394.4c-114.9,120.6-218.2,185.7-377.1,235.5c-112.9,34.5-248.9,36.4-4014.4,34.5C1634.6,5019.5,1090.9,5015.7,999,4990.8z M8979.9,4665.3c137.8-40.2,268-170.4,313.9-312c28.7-90,32.5-202.9,32.5-1010.8c0-1041.4-5.7-1095-143.6-1374.5c-97.6-201-214.4-340.7-379-457.5c-137.8-95.7-373.3-191.4-551.3-222.1c-86.1-15.3-1058.6-19.2-3329-15.3l-3206.5,5.7l-134,44c-361.8,122.5-614.5,333.1-763.8,637.5c-139.8,289.1-145.5,338.8-145.5,1382.1c0,1049.1,0,1049.1,153.1,1202.2c162.7,160.8-206.7,149.3,4165.6,149.3C8476.4,4696,8889.9,4692.1,8979.9,4665.3z M1483.4,1012.8c227.8-74.7,425-88.1,1309.4-88.1h827l-1.9-633.6v-633.6l59.3-120.6c120.6-245,352.2-392.4,614.5-392.4h134v-114.9c0-97.6,7.7-124.4,47.9-162.7c67-68.9,162.7-70.8,233.6-5.7c32.5,30.6,44,65.1,47.9,157l5.7,116.8l158.9,5.7l157,5.8v-116.8c0-97.6,7.6-124.4,47.9-162.7c68.9-70.8,164.6-70.8,237.4,0c36.4,36.4,49.8,70.8,55.5,158.9l7.7,114.9l157,7.7c120.6,7.7,178,21.1,258.4,61.3c130.2,67,273.8,212.5,319.7,325.4l36.4,86.1l631.7,5.7c727.4,7.7,731.3,7.7,886.3,178C7906,13.5,7900.2,243.2,7699.2,450c-158.9,162.7-189.5,168.5-894,168.5h-580v151.2v153.1l1010.8,7.7c580,3.8,1041.4,17.2,1085.4,26.8c42.1,11.5,99.5,26.8,130.2,34.5l51.7,13.4V-1227v-2232.1H7343.2H6183l26.8,44c15.3,23,42.1,63.2,59.3,91.9c17.2,26.8,49.8,97.6,70.8,158.9c34.5,101.5,36.4,164.6,38.3,917l3.8,807.9l-51.7,44l-51.7,42.1l-1753.5-3.8l-1755.4-5.7l-130.2-61.3c-174.2-82.3-338.8-246.9-421.1-421.2c-55.5-118.7-61.3-145.5-61.3-321.6c0-176.1,5.7-202.9,61.3-321.6c82.3-170.4,239.3-329.3,417.3-417.3l134-65.1l338.8-5.7l340.8-7.7l11.5-49.8c28.7-130.2,74.7-243.1,132.1-329.3l65.1-95.7H2490.3H1324.5v2258.9c0,1242.4,3.8,2258.9,9.6,2258.9C1337.9,1058.7,1406.8,1037.7,1483.4,1012.8z M5899.7,771.6V618.4h-166.6c-199.1,0-291-34.5-384.8-143.6c-88-99.6-99.6-137.8-99.6-354.2c0-216.3,11.5-254.6,99.6-354.2C5440.3-338.7,5536-377,5716-377h151.2l-45.9-49.8c-91.9-101.4-111-103.4-911.2-103.4c-687.2,0-748.5,1.9-809.8,36.4c-36.4,19.1-84.2,57.4-105.3,86.1c-36.4,49.8-38.3,84.2-44,693l-5.7,639.4h978.2h976.3V771.6z M7490.5,237.5c47.9-57.4,47.9-176.1,0-233.5c-36.4-45.9-44-45.9-436.5-53.6c-218.2-1.9-641.3,0-938,7.6l-541.8,13.4v151.2v149.3l273.8,7.7c149.3,3.8,572.4,5.7,938,5.7l668.1-1.9L7490.5,237.5z M3449.4-2166.9v-488.2h-283.3c-346.5,0-444.1,23-555.2,134c-239.3,241.2-153.1,702.6,151.2,809.8c61.3,21.1,166.5,30.6,386.7,30.6l300.6,1.9V-2166.9z M6052.9-2362.2v-685.3l-55.5-114.9c-57.4-124.4-137.9-204.8-260.4-260.3c-68.9-32.5-141.7-36.4-813.6-36.4c-733.2,0-737,0-832.7,45.9c-107.2,49.8-220.1,164.6-271.8,273.8c-30.6,65.1-34.5,155.1-40.2,767.6l-5.7,693h1139h1140.9V-2362.2z M9136.9-3847.7c63.2-34.4,97.7-70.8,135.9-145.5c47.9-90,53.6-122.5,53.6-281.4v-180H5000H673.6v170.4c0,254.6,51.7,367.5,195.3,440.3l82.3,40.2h4050.7h4050.7L9136.9-3847.7z"/><path d="M7750.9,4477.7c-275.7-114.8-451.8-313.9-522.6-585.8c-90-352.2,105.3-735.1,469-915c134-67,155.1-70.8,315.9-68.9c132.1,0,201,11.5,279.5,42.1c227.8,90,442.2,323.5,509.2,557.1c45.9,157,28.7,381-40.2,528.4c-72.7,151.2-268,348.4-421.2,421.2c-95.7,45.9-143.6,55.5-296.7,61.3C7884.9,4523.7,7848.5,4519.8,7750.9,4477.7z M8235.2,4158c114.9-51.7,168.5-103.4,222.1-218.2c49.8-103.4,61.3-271.8,26.8-390.5c-68.9-243.1-350.3-379-624.1-298.6c-411.6,118.7-447.9,731.3-55.5,911.2C7911.7,4211.6,8122.3,4209.7,8235.2,4158z"/><path d="M1380,4315l-55.5-55.5v-463.3V3333l55.5-55.5l55.5-55.5h530.3c549.4,0,618.3,9.6,647,84.2c17.2,42.1,19.1,934.2,3.8,974.4c-32.5,82.3-93.8,90-650.9,90h-530.3L1380,4315z M2300.8,3796.2v-248.9h-325.4h-325.4v248.9v248.9h325.4h325.4V3796.2z"/><path d="M3014.8,4324.6l-53.6-45.9v-1296v-1296l53.6-45.9l53.6-45.9h1856.9h1856.9l46,47.9l47.9,45.9v1284.5v1286.4l-55.5,55.5l-55.5,55.5H4915.8H3068.4L3014.8,4324.6z M6550.6,2982.6V1920.2H4913.9H3277.1v1049.1c0,578.1,5.7,1056.7,13.4,1062.5c5.7,7.7,742.8,13.4,1636.8,13.4h1623.4V2982.6z"/><path d="M3876.3,3863.2c-28.7-13.4-137.8-109.1-239.3-214.4c-168.5-172.3-187.6-199.1-187.6-262.3c0-93.8,72.7-164.6,168.5-164.6c59.3,0,90,23,273.8,206.7c187.6,185.7,208.7,212.5,208.7,273.8C4100.3,3834.5,3991.1,3911.1,3876.3,3863.2z"/><path d="M4712.9,3878.5c-15.3-5.7-306.3-287.1-645.1-626c-587.7-583.9-618.3-618.3-618.3-685.3c0-53.6,13.4-80.4,59.3-118.7c114.9-97.6,105.3-105.3,779.1,568.6c338.8,338.8,622.2,635.6,627.9,660.4c7.7,23,5.7,63.2,0,90C4898.5,3838.3,4779.9,3901.5,4712.9,3878.5z"/><path d="M1424,2714.6c-34.5-15.3-70.8-49.8-80.4-76.6c-28.7-72.7-24.9-901.7,3.8-953.3c45.9-88.1,55.5-88.1,633.6-90h551.3l45.9,47.9c47.9,45.9,47.9,47.9,51.7,472.8c1.9,526.4,3.8,513-53.6,570.5l-45.9,47.9l-522.6,3.8C1588.7,2741.4,1475.7,2737.6,1424,2714.6z M2300.8,2159.5v-239.3h-325.4h-325.4v239.3v239.3h325.4h325.4V2159.5z"/><path d="M7917.5,2724.2c-202.9-40.2-396.3-197.2-488.1-392.4c-145.5-306.3,3.8-679.6,336.9-844.2c302.5-147.4,673.9,1.9,838.5,335c114.9,235.5,72.8,490.1-120.6,698.7C8340.5,2676.3,8103.1,2760.6,7917.5,2724.2z M8189.3,2368.1c97.6-47.9,151.3-147.4,151.3-285.2c-1.9-135.9-42.1-225.9-126.3-275.7c-124.4-74.7-321.6-63.2-415.4,23c-72.8,67-99.6,137.8-99.6,256.5c0,130.2,44,216.3,137.8,273.7C7915.5,2408.3,8095.5,2412.2,8189.3,2368.1z"/></g></g>
</svg>