<?xml version="1.0" encoding="utf-8"?>
<!-- Svg Vector Icons : http://www.onlinewebfonts.com/icon -->
<!DOCTYPE svg PUBLIC "-//W3C//DTD SVG 1.1//EN" "http://www.w3.org/Graphics/SVG/1.1/DTD/svg11.dtd">
<svg version="1.1" xmlns="http://www.w3.org/2000/svg" xmlns:xlink="http://www.w3.org/1999/xlink" x="0px" y="0px" viewBox="0 0 1000 1000" enable-background="new 0 0 1000 1000" xml:space="preserve">
<metadata> Svg Vector Icons : http://www.onlinewebfonts.com/icon </metadata>
<g><g transform="translate(0.000000,486.000000) scale(0.100000,-0.100000)"><path d="M155.5,4455.7l-55.5-55.5v-365.6c0-231.6,7.7-380.9,21.1-411.5c13.4-26.8,51.7-61.3,86.1-78.5l65.1-30.6v-181.8c0-204.8,11.5-241.2,95.7-275.6l57.4-23V-390.7V-3815H310.5c-101.4,0-122.5-5.7-162.7-49.8c-47.9-51.7-47.9-55.5-47.9-432.6v-382.8l55.5-55.5l55.5-55.5h4789h4789l55.5,55.5l55.5,55.5v367.5c0,476.6-9.6,497.7-222,497.7h-103.4v3424.3v3424.2l57.4,23c84.2,34.4,95.7,70.8,95.7,275.6v181.8l65.1,30.6c34.4,17.2,72.7,51.7,86.1,78.5c13.4,30.6,21,179.9,21,411.5v365.6l-55.5,55.5l-55.5,55.5H5000H211L155.5,4455.7z M9574.6,4023.1v-162.7H5000H425.4v162.7v162.7H5000h4574.6V4023.1z M9402.3,3458.4v-76.6H5000H597.7v76.6v76.6H5000h4402.3V3458.4z M903.9-388.8V-3815h-76.6h-76.6v3426.2v3426.2h76.6h76.6V-388.8z M8751.6-388.8V-3815H5000H1248.4v3426.2v3426.2H5000h3751.6V-388.8z M9249.2-388.8V-3815h-76.6h-76.6v3426.2v3426.2h76.6h76.6V-388.8z M9574.6-4303.1v-162.7H5000H425.4v162.7v162.7H5000h4574.6V-4303.1z"/><path d="M1615.9,2667.9l-42.1-44v-3007v-3007l59.3-49.8l59.3-49.8h3309.4h3309.4l57.4,53.6l57.4,51.7v2995.5c0,2899.8,0,2997.4-34.5,3043.4l-36.4,47.9l-3349.6,5.7L1658,2712L1615.9,2667.9z M8100.8,673.5v-1713.1h-218.2h-218.2l55.5,55.5c70.8,72.7,74.7,156.9,7.7,222c-65.1,67-168.4,65.1-229.7-1.9c-65.1-70.8-63.2-149.3,7.7-220.1l55.5-55.5h-436.4h-436.4l55.5,55.5c59.3,59.3,68.9,112.9,32.5,179.9c-32.5,63.2-74.6,88.1-145.5,90c-164.6,1.9-216.3-218.2-70.8-302.4c28.7-17.2-63.2-21.1-407.7-23h-446l51.7,45.9c158.9,134-45.9,367.5-210.5,239.3c-68.9-53.6-70.8-170.4-1.9-237.4l45.9-47.9h-428.8h-428.8l45.9,47.9c68.9,67,67,183.7-1.9,237.4c-164.6,128.2-369.4-105.3-210.5-239.3l51.7-45.9h-446c-333,1.9-436.4,5.7-407.7,23c149.3,80.4,93.8,302.4-74.6,302.4c-49.8,0-76.6-13.4-114.8-59.3c-65.1-76.6-63.2-141.7,5.7-210.5l55.5-55.5h-436.4h-436.4l55.5,55.5c70.8,72.7,74.6,156.9,7.7,222c-65.1,67-168.4,65.1-229.7-1.9c-65.1-70.8-63.2-149.3,7.7-220.1l55.5-55.5h-380.9h-380.9V673.5v1713.1H5000h3100.8V673.5z M4827.7-1455c0-91.9,0-91.9-105.3-147.4c-218.2-112.9-373.2-354.1-373.2-576.1c0-333.1,315.8-648.9,650.8-648.9c252.7,0,518.7,191.4,612.5,442.2c111,292.9-45.9,645-352.2,794.3c-86.1,42.1-88,44-88,134v91.9h1464.3h1464.3v-899.6v-899.6H5000H1899.2v899.6v899.6h1464.3h1464.3V-1455z M5187.6-1900.9c90-55.5,145.5-185.7,134-319.6c-15.3-179.9-130.2-279.5-321.6-279.5c-201,0-310.1,101.4-321.6,298.6c-7.7,139.7,30.6,227.8,130.2,296.7C4894.7-1847.3,5095.7-1845.4,5187.6-1900.9z"/><path d="M2653.4,2214.3c-105.3-42.1-134-181.8-55.5-258.4c97.6-99.5,277.5-30.6,277.5,103.4C2875.4,2168.4,2749.1,2254.5,2653.4,2214.3z"/><path d="M3621.9,2208.6c-153.1-78.5-97.6-300.5,74.6-300.5c91.9,0,155,67,155,162.7C3851.6,2179.8,3719.5,2260.2,3621.9,2208.6z"/><path d="M4596.1,2204.7c-55.5-30.6-99.5-126.3-80.4-178c61.2-172.3,312-149.3,312,28.7c0,86.1-17.2,118.7-78.5,149.3C4684.2,2239.2,4659.3,2239.2,4596.1,2204.7z"/><path d="M5595.3,2212.4c-65.1-26.8-95.7-74.6-97.6-153.1c0-88.1,63.2-151.2,155-151.2c78.5,1.9,124.4,32.5,151.2,105.3s-5.7,155-78.5,191.4C5664.2,2237.3,5658.4,2237.3,5595.3,2212.4z"/><path d="M6588.7,2220c-67-24.9-114.8-90-114.8-153.1c0-116.7,122.5-191.4,239.3-147.4c36.4,15.3,86.1,105.3,86.1,158.9C6799.2,2162.6,6667.1,2250.7,6588.7,2220z"/><path d="M7553.4,2214.3c-105.3-42.1-134-181.8-55.5-258.4c97.6-99.5,277.5-30.6,277.5,103.4C7775.4,2168.4,7649.1,2254.5,7553.4,2214.3z"/><path d="M2117.4,1689.8c-111-93.8-38.3-279.5,109.1-279.5c134,0,202.9,179.9,103.4,277.5C2270.5,1749.2,2186.3,1749.2,2117.4,1689.8z"/><path d="M3095.5,1687.9c-99.5-97.6-30.6-277.5,103.4-277.5c88,0,162.7,74.6,162.7,162.7C3361.6,1714.7,3193.1,1787.5,3095.5,1687.9z"/><path d="M4071.7,1687.9c-47.9-45.9-61.3-124.4-36.4-191.4c15.3-36.4,105.3-86.1,160.8-86.1c59.3,0,153.1,101.4,153.1,162.7c0,30.6-23,72.7-55.5,107.2C4221,1751.1,4136.8,1754.9,4071.7,1687.9z"/><path d="M5074.7,1710.9c-40.2-30.6-74.7-97.6-74.7-147.4c0-51.7,99.5-153.1,151.2-153.1c151.2,0,227.8,170.4,124.4,275.6C5220.1,1739.6,5128.2,1753,5074.7,1710.9z"/><path d="M6031.7,1680.3c-32.5-34.5-55.5-76.6-55.5-107.2c0-72.7,95.7-162.7,172.3-162.7c84.2,0,153.1,74.6,153.1,162.7C6301.6,1724.3,6140.8,1787.5,6031.7,1680.3z"/><path d="M7017.4,1689.8c-111-93.8-38.3-279.5,109.1-279.5c82.3,0,151.2,74.6,151.2,162.7C7277.7,1714.7,7124.6,1783.6,7017.4,1689.8z"/><path d="M2597.9,1190.3c-61.3-59.3-61.3-143.6-1.9-212.5c134-158.9,367.5,45.9,239.3,210.5C2781.6,1257.3,2664.8,1259.2,2597.9,1190.3z"/><path d="M3589.3,1209.4c-93.8-65.1-68.9-222,40.2-268c158.9-67,289,109.1,181.8,246.9C3765.4,1245.8,3658.2,1257.3,3589.3,1209.4z"/><path d="M4573.2,1215.2c-93.8-72.7-68.9-241.2,42.1-279.4c68.9-24.9,107.2-15.3,170.3,40.2c59.3,53.6,57.4,164.6-1.9,220.1C4733.9,1243.9,4624.8,1253.4,4573.2,1215.2z"/><path d="M5539.8,1194.1c-82.3-86.1-40.2-225.9,78.5-268c57.4-21.1,157,32.5,183.8,99.5c30.6,68.9,1.9,162.7-57.4,193.3C5681.4,1253.4,5583.8,1242,5539.8,1194.1z"/><path d="M6514,1188.4c-47.9-61.2-51.7-135.9-9.6-195.2c101.5-145.5,323.5-40.2,285.2,134C6762.8,1242,6586.8,1282.1,6514,1188.4z"/><path d="M7497.9,1190.3c-61.3-59.3-61.3-143.6-1.9-212.5c134-158.9,367.5,45.9,239.3,210.5C7681.6,1257.3,7564.8,1259.2,7497.9,1190.3z"/><path d="M2117.4,713.7c-158.9-134,45.9-367.5,210.5-239.3c38.3,30.6,49.8,55.5,49.8,114.8C2377.7,738.6,2228.4,811.3,2117.4,713.7z"/><path d="M3130,740.5c-91.9-36.4-111-181.8-34.4-258.4c97.6-99.5,266.1-26.8,266.1,114.8C3361.6,717.5,3248.6,788.3,3130,740.5z"/><path d="M4110,736.6c-147.4-84.2-93.8-302.4,74.6-302.4c49.8,0,76.6,13.4,114.8,59.3c65.1,76.6,63.2,141.6-5.7,210.5C4234.4,761.5,4173.1,773,4110,736.6z"/><path d="M5055.5,704.1c-70.8-70.8-72.7-149.3-7.7-220.1c95.7-103.4,277.5-36.4,277.5,103.4c0,76.6-90,172.3-162.7,172.3C5132.1,759.6,5090,736.6,5055.5,704.1z"/><path d="M6031.7,704.1c-68.9-68.9-70.8-134-5.8-210.5c122.5-145.5,333.1-1.9,264.2,179.9c-15.3,36.4-105.3,86.1-160.8,86.1C6106.3,759.6,6062.3,734.7,6031.7,704.1z"/><path d="M7017.4,713.7c-158.9-134,45.9-367.5,210.5-239.3c38.3,30.6,49.8,55.5,49.8,114.8C7277.7,738.6,7128.4,811.3,7017.4,713.7z"/><path d="M2597.9,214.1c-61.3-59.3-61.3-143.6-1.9-212.5c93.8-111,279.5-38.3,279.5,109.1C2875.4,244.7,2695.5,313.6,2597.9,214.1z"/><path d="M3606.6,248.5c-42.1-17.2-84.2-120.6-70.8-178c15.3-67,63.2-111,135.9-126.3c84.2-17.2,179.9,67,179.9,157C3851.6,219.8,3725.2,296.4,3606.6,248.5z"/><path d="M4565.5,219.8c-57.4-65.1-68.9-120.6-36.4-183.7c40.2-78.5,126.3-111,202.9-80.4c70.8,28.7,95.7,70.8,95.7,158.9C4827.7,246.6,4653.6,315.5,4565.5,219.8z"/><path d="M5539.8,217.9c-26.8-28.7-42.1-68.9-42.1-114.8c0-170.4,218.2-222,296.7-70.8C5876.6,189.2,5660.4,346.2,5539.8,217.9z"/><path d="M6521.7,214.1c-70.8-68.9-65.1-164.6,13.4-229.7c72.7-61.3,155-55.5,222,21.1c49.8,55.5,53.6,103.4,13.4,178C6722.7,277.3,6598.2,292.6,6521.7,214.1z"/><path d="M7497.9,214.1c-61.3-59.3-61.3-143.6-1.9-212.5c93.8-111,279.4-38.3,279.4,109.1C7775.4,244.7,7595.5,313.6,7497.9,214.1z"/><path d="M2153.8-235.7c-55.5-23-107.2-124.4-90-178c23-78.5,86.1-128.2,160.8-128.2c88,0,153.1,63.2,153.1,147.4c0,86.1-17.2,118.7-78.5,149.3C2238-212.7,2215-210.8,2153.8-235.7z"/><path d="M3133.8-237.6c-61.3-36.4-86.1-78.5-86.1-151.2c0-141.7,170.4-208.6,268-105.3c57.4,61.3,61.3,166.5,7.7,220.1C3277.3-226.1,3183.6-208.9,3133.8-237.6z"/><path d="M4085.1-264.4c-147.4-124.4-5.7-335,178-266.1c36.4,15.3,86.1,105.3,86.1,158.9c0,55.5-76.6,134-145.5,147.4C4157.8-216.6,4132.9-224.2,4085.1-264.4z"/><path d="M5055.5-272.1c-70.8-72.7-74.7-156.9-7.7-222c97.6-99.5,277.5-30.6,277.5,105.3c0,76.6-90,172.3-162.7,172.3C5132.1-216.6,5090-239.5,5055.5-272.1z"/><path d="M6071.9-241.4c-151.2-76.6-101.4-300.5,67-300.5c153.1,0,220.1,178,103.4,275.6C6177.1-210.8,6142.7-205.1,6071.9-241.4z"/><path d="M7053.8-235.7c-55.5-23-107.2-124.4-90-178c23-78.5,86.1-128.2,160.8-128.2c88,0,153.1,63.2,153.1,147.4c0,86.1-17.2,118.7-78.5,149.3C7138-212.7,7115-210.8,7053.8-235.7z"/></g></g>
</svg>