<?xml version="1.0" encoding="utf-8"?>
<!-- Svg Vector Icons : http://www.onlinewebfonts.com/icon -->
<!DOCTYPE svg PUBLIC "-//W3C//DTD SVG 1.1//EN" "http://www.w3.org/Graphics/SVG/1.1/DTD/svg11.dtd">
<svg version="1.1" xmlns="http://www.w3.org/2000/svg" xmlns:xlink="http://www.w3.org/1999/xlink" x="0px" y="0px" viewBox="0 0 1000 1000" enable-background="new 0 0 1000 1000" xml:space="preserve">
<metadata> Svg Vector Icons : http://www.onlinewebfonts.com/icon </metadata>
<g><g transform="translate(0.000000,512.000000) scale(0.100000,-0.100000)"><path d="M155.5,4964.5c-59.3-59.3-68.9-105.3-34.5-179.9c28.7-61.3,93.8-90,208.6-90h95.7V445.4v-4249.2H310.5c-97.6,0-124.4-7.7-162.7-47.9c-47.9-45.9-47.9-47.9-47.9-430.7V-4669l55.5-55.5L211-4780h4789h4789l55.5,55.5l55.5,55.5v382.8c0,377.1,0,380.9-47.9,432.6c-40.2,44-61.3,49.8-162.7,49.8h-114.8V445.4v4249.2h95.7c114.8,0,179.9,28.7,208.6,90c34.4,74.6,24.9,120.6-34.5,179.9L9789,5020H5000H211L155.5,4964.5z M9249.2,445.4v-4249.2h-76.6h-76.6l-3.8,4115.2l-5.7,4115.2l-53.6,51.7l-51.7,53.6H5000H1018.7l-51.7-53.6l-53.6-51.7l-5.7-4115.2l-3.8-4115.2h-76.6h-76.6V445.4v4249.2H5000h4249.2V445.4z M3516.6,3963.4c-68.9-1255.6-254.6-2555.3-501.5-3483.6l-49.8-187.6h-857.5h-859.4v1952.3V4197h1140.8H3530L3516.6,3963.4z M4502.3,2244.6V292.3H3909c-403.9,0-593.4,5.7-593.4,21.1c0,9.6,24.9,120.6,55.5,243.1c231.6,920.7,409.6,2193.5,472.8,3397.5l11.5,243.1h323.5h323.5V2244.6z M5172.3,2124V49.2L5222,3.3l49.8-45.9l1739.9-5.7l1739.9-3.8v-151.2v-149.3l-1248-11.5c-1590.6-17.2-3416.6-17.2-5005.3,0l-1249.9,11.5v149.3v151.2l1739.9,3.8l1739.9,5.7L4778,3.3l49.8,45.9V2124V4197H5000h172.3V2124z M6156.1,3944.3C6219.3,2748,6395.4,1473.2,6625,566c32.5-128.2,59.3-243.1,59.3-252.7c0-15.3-189.5-21.1-593.4-21.1h-593.4v1952.3V4197h323.5h321.6L6156.1,3944.3z M8751.6,2244.6V292.3h-859.4h-857.5l-63.2,235.4c-237.4,892-415.4,2145.7-490,3445.3l-11.5,224h1140.8h1140.8V2244.6z M2576.8-812.1c-176.1-396.2-415.3-798.2-629.7-1054.6l-114.8-137.8h-290.9h-292.8v650.8V-703h687.1h689.1L2576.8-812.1z M7076.8-831.3c68.9-164.6,271.8-576.1,354.1-713.9c34.5-57.4,116.7-185.7,183.7-281.4l122.5-178h-95.7c-78.5,0-107.2-9.6-143.6-47.9c-59.3-57.4-63.2-158.9-11.5-222c32.5-40.2,57.4-47.9,197.1-55.5l162.7-9.6l-327.3-717.8c-178-394.3-333-723.5-342.6-729.2c-21.1-15.3-823-19.1-914.9-5.8l-68.9,9.6l38.3,153.1l36.4,151.2H6380c122.5,0,189.5,23,224,76.6c30.6,49.8,34.4,614.4,3.8,669.9c-11.5,21-42.1,47.9-68.9,57.4c-26.8,11.5-239.3,19.1-470.9,19.1h-423l11.5,90c11.5,105.3,53.6,147.4,137.8,132.1c32.5-3.8,93.8-13.4,137.8-21c68.9-13.4,86.1-7.7,128.3,34.5c53.6,55.5,63.2,118.7,28.7,214.4c-36.4,99.5-9.6,157,95.7,208.6c99.5,51.7,116.7,76.6,116.7,166.5c0,59.3-72.7,151.2-120.6,151.2c-13.4,0-45.9,21-68.9,45.9c-36.4,38.3-42.1,59.3-32.5,111c38.3,181.8,36.4,202.9-17.2,254.6c-44,45.9-59.3,49.8-130.2,40.2c-189.5-28.7-208.6-26.8-254.6,45.9c-72.8,114.8-116.8,153.1-178,153.1c-89.9,0-114.8-17.2-166.5-116.7c-51.7-105.3-109.1-132.1-208.6-95.7c-93.8,32.5-160.8,24.9-210.5-26.8c-53.6-51.7-57.4-93.8-26.8-201c32.5-111,11.5-160.8-86.1-208.6c-95.7-44-126.3-86.1-126.3-170.3c0-61.3,51.7-116.8,172.3-181.8c67-36.4,65.1-15.3,26.8-258.4c-9.6-61.3-3.8-80.4,42.1-126.3c45.9-44,65.1-51.7,122.5-42.1c227.8,36.4,222,38.3,256.5-9.6c17.2-24.9,30.6-76.6,30.6-116.8v-72.7h-423c-426.8,0-476.6-7.7-528.3-74.7c-17.2-21-23-126.3-24.9-333v-304.3l55.5-55.5c49.8-49.8,68.9-55.5,179.9-55.5h124.4l38.3-153.1c21.1-84.2,32.5-157,24.9-160.8c-23-11.5-1929.4-7.6-1946.6,3.8c-11.5,7.7-166.5,336.9-344.5,731.2l-327.3,717.8l162.7,9.6c139.7,7.7,164.6,15.3,197.2,55.5c51.7,63.2,47.9,164.6-11.5,222c-36.4,38.3-65.1,47.9-141.6,47.9h-93.8l158.9,239.3c155,231.6,386.6,666.1,497.7,934.1l53.6,128.2H5000h2023.2L7076.8-831.3z M8751.6-1353.8v-650.8h-292.9h-292.8L8064.4-1884c-212.5,252.7-465.1,673.8-641.2,1071.9L7375.3-703h689.1h687.2V-1353.8z M5597.2-1516.5c55.5-26.8,116.8-47.9,135.9-47.9c17.2,0,32.5-13.4,32.5-30.6c0-17.2,21-80.4,47.9-139.7l49.8-109.1l-47.9-103.4c-26.8-57.4-49.8-118.7-49.8-135.9c0-19.1-23-36.4-61.3-44c-32.5-5.7-95.7-30.6-139.7-51.7c-76.6-38.3-84.2-38.3-130.2-7.7c-28.7,17.2-86.1,42.1-130.1,55.5c-70.8,21-82.3,32.5-114.8,124.4c-19.1,55.5-45.9,112.9-57.4,128.2c-19.1,23-15.3,45.9,17.2,111c23,45.9,47.9,109.1,53.6,141.6c7.7,38.3,24.9,61.3,44,61.3c17.2,0,74.6,21,126.3,45.9c53.6,26.8,101.4,47.9,109.1,47.9C5488.1-1468.7,5539.8-1489.7,5597.2-1516.5z M1998.8-2785.5c112.9-248.8,260.3-576.1,329.2-725.4l124.4-273.7h-602.9h-601v727.3v727.3h273.7h271.8L1998.8-2785.5z M8751.6-3057.3v-727.3h-602.9h-601l67,149.3c36.4,80.4,185.7,407.7,329.2,725.4l262.2,580h273.7h271.8V-3057.3z M6301.6-3065v-82.3l-262.2-3.8c-145.5,0-279.5-7.6-296.7-13.4c-40.2-11.5-91.9-103.4-91.9-158.9c0-21,19.1-61.2,44-89.9c34.4-38.3,67-53.6,141.6-59.3l95.7-9.6l-38.3-151.2l-36.4-151.2H5490h-367.5L5090-3645c-19.1,74.6-32.5,143.6-32.5,149.3c0,7.7,40.2,17.2,90,23c160.8,17.2,233.5,170.4,130.2,271.8c-42.1,44-63.2,47.9-233.5,51.7c-103.4,1.9-227.8,0-277.5-1.9l-91.9-5.7v88.1v88h813.5h813.5V-3065z M9574.6-4291.9v-162.7H5000H425.4v162.7v162.7H5000h4574.6V-4291.9z"/></g></g>
</svg>