<?xml version="1.0" encoding="utf-8"?>
<!-- Svg Vector Icons : http://www.onlinewebfonts.com/icon -->
<!DOCTYPE svg PUBLIC "-//W3C//DTD SVG 1.1//EN" "http://www.w3.org/Graphics/SVG/1.1/DTD/svg11.dtd">
<svg version="1.1" xmlns="http://www.w3.org/2000/svg" xmlns:xlink="http://www.w3.org/1999/xlink" x="0px" y="0px" viewBox="0 0 1000 1000" enable-background="new 0 0 1000 1000" xml:space="preserve">
<metadata> Svg Vector Icons : http://www.onlinewebfonts.com/icon </metadata>
<g><g transform="translate(0.000000,486.000000) scale(0.100000,-0.100000)"><path d="M155.5,4455.7l-55.5-55.5v-365.6c0-231.6,7.7-380.9,21.1-411.5c13.4-26.8,51.7-61.3,86.1-78.5l65.1-30.6v-181.8c0-204.8,11.5-241.2,95.7-275.6l57.4-23V-390.7V-3815H310.5c-101.4,0-122.5-5.7-162.7-49.8c-47.9-51.7-47.9-55.5-47.9-432.6v-382.8l55.5-55.5l55.5-55.5h4789h4789l55.5,55.5l55.5,55.5v367.5c0,476.6-9.6,497.7-222,497.7h-103.4v3424.3v3424.2l57.4,23c84.2,34.4,95.7,70.8,95.7,275.6v181.8l65.1,30.6c34.4,17.2,72.7,51.7,86.1,78.5c13.4,30.6,21,179.9,21,411.5v365.6l-55.5,55.5l-55.5,55.5H5000H211L155.5,4455.7z M9574.6,4023.1v-162.7H5000H425.4v162.7v162.7H5000h4574.6V4023.1z M9402.3,3458.4v-76.6H5000H597.7v76.6v76.6H5000h4402.3V3458.4z M911.6-371.6c5.7-1873.9,7.7-3416.6,1.9-3426.2c-7.7-9.6-45.9-17.2-88-17.2h-74.6v3426.2v3426.2h72.7h74.7L911.6-371.6z M8751.6,922.3v-2115h-618.2h-620.2l-30.6,76.6l-28.7,76.6h513h514.9l53.6,45.9l53.6,45.9V920.4v1866.2l-44,44l-44,44H5000H1499.2l-44-44l-44-44V920.4V-947.7l53.6-45.9l53.6-45.9h2314.1h2314.1l-32.5-76.6l-32.5-76.6H3665.9H1248.4v2115v2115H5000h3751.6V922.3z M9249.2-388.8V-3815h-74.7c-42.1,0-80.4,7.7-88,17.2c-5.7,9.6-3.8,1552.3,1.9,3426.2l13.4,3408.9h74.6h72.7V-388.8z M8263.5,922.3v-1627H5000H1736.5l-5.7,1607.8c-1.9,884.3,0,1619.3,5.7,1632.7c5.7,19.1,669.9,23,3267.3,19.1l3259.6-5.7V922.3z M6914.1-1087.5c36.4-26.8,88-47.9,116.7-47.9c74.7,0,132.1-55.5,153.1-151.2c9.6-45.9,36.4-105.3,55.5-132.1c49.8-63.2,49.8-178,0-223.9c-19.1-17.2-42.1-70.8-49.8-116.7c-13.4-97.6-78.5-160.8-158.9-160.8c-28.7,0-80.4-21-116.7-47.9s-90-47.9-120.6-47.9c-30.6,0-80.4,21-112.9,47.9c-36.4,30.6-80.4,47.9-120.6,47.9c-76.6,0-162.7,90-162.7,170.4c0,28.7-21,80.4-47.9,116.7c-59.3,80.4-59.3,128.2-1.9,206.7c24.9,34.4,49.8,95.7,57.4,137.8c13.4,86.1,84.2,153.1,162.7,153.1c28.7,0,80.4,21,116.7,47.9s88,47.9,114.8,47.9S6877.7-1060.7,6914.1-1087.5z M5999.1-1627.2c88-317.7,208.6-505.3,365.6-570.4c44-17.2,120.6-49.8,172.3-72.7l90-38.3V-2412v-101.4h-520.6c-507.2,0-520.6-1.9-564.6-42.1c-26.8-24.9-44-63.2-44-99.5c0-67,160.8-560.8,199.1-614.4c13.4-19.1,57.4-38.3,99.5-45.9l74.7-11.5l90-220.1c49.8-120.6,90-231.6,90-243.1c1.9-19.1-490-24.9-2400.2-24.9H1248.4v1148.4v1148.4h2360h2358.1L5999.1-1627.2z M8751.6-2666.6V-3815h-612.5h-612.5l40.2,101.4c23,53.6,67,166.5,99.5,248.8c55.5,139.7,61.2,147.4,118.7,147.4c38.3,0,74.7,15.3,99.5,44c42.1,47.9,216.3,541.7,216.3,618.2c0,26.8-21,68.9-47.9,93.8l-45.9,47.9h-518.7h-516.8v101.4c0,101.4,0,103.4,82.3,141.6c44,21.1,112.9,49.8,151.2,61.3c122.5,40.2,220.1,147.4,294.8,327.3c76.6,181.8,95.7,233.5,111,312l11.5,51.7h564.6h564.6V-2666.6z M7698.8-2856.1c0-7.6-9.6-42.1-21-76.6l-21.1-59.3l-863.2,3.8l-861.3,5.7l-24.9,72.7l-24.9,70.8h909.2C7289.2-2838.8,7698.8-2846.5,7698.8-2856.1z M7354.3-3340.3c0-13.4-40.2-126.3-90-248.8l-90-225.9h-375.1h-377.1l-88,216.3c-47.9,116.8-93.8,229.7-101.4,248.8c-11.5,30.6,22.9,32.5,555.1,32.5C7224.1-3317.3,7354.3-3323.1,7354.3-3340.3z M9574.6-4303.1v-162.7H5000H425.4v162.7v162.7H5000h4574.6V-4303.1z"/><path d="M2603.6,1856.4c-356-354.1-379-382.8-379-447.9c0-55.5,13.4-82.3,59.3-120.6c109.1-93.8,122.5-84.2,537.9,327.3c352.2,350.3,379,382.8,379,446c-1.9,74.6-26.8,116.8-90,149.3C3017,2260.2,2994.1,2244.9,2603.6,1856.4z"/><path d="M3765.4,2197.1c-30.6-19.1-172.3-151.2-310.1-292.9c-229.7-231.6-254.6-264.1-254.6-325.4c0-95.7,70.8-168.4,166.5-168.4c67,0,90,19.1,363.7,292.8c258.4,258.4,292.8,300.5,292.8,356c0,44-17.2,78.5-55.5,118.7C3903.2,2243,3845.8,2248.7,3765.4,2197.1z"/><path d="M2431.3,878.3c-189.5-189.5-206.7-212.5-206.7-277.5c0-99.5,67-166.5,166.5-166.5c65.1,0,88,17.2,277.5,206.7c189.5,189.5,206.7,212.5,206.7,277.5c0,99.5-67,166.5-166.5,166.5C2643.8,1085,2620.8,1067.8,2431.3,878.3z"/><path d="M6692-1410.9c-111-93.8-38.3-279.4,109.1-279.4c82.3,0,151.2,74.7,151.2,162.7C6952.3-1386,6799.2-1317.1,6692-1410.9z"/></g></g>
</svg>