<?xml version="1.0" encoding="utf-8"?>
<!-- Svg Vector Icons : http://www.onlinewebfonts.com/icon -->
<!DOCTYPE svg PUBLIC "-//W3C//DTD SVG 1.1//EN" "http://www.w3.org/Graphics/SVG/1.1/DTD/svg11.dtd">
<svg version="1.1" xmlns="http://www.w3.org/2000/svg" xmlns:xlink="http://www.w3.org/1999/xlink" x="0px" y="0px" viewBox="0 0 1000 1000" enable-background="new 0 0 1000 1000" xml:space="preserve">
<metadata> Svg Vector Icons : http://www.onlinewebfonts.com/icon </metadata>
<g><g transform="translate(0.000000,512.000000) scale(0.100000,-0.100000)"><path d="M155.5,4964.5L100,4909v-382.8c0-377.1,0-380.9,47.9-432.6c40.2-44,61.3-49.8,162.7-49.8h114.8V120v-3923.8H310.5c-97.6,0-124.4-7.7-162.7-47.9c-47.9-45.9-47.9-47.9-47.9-430.7V-4669l55.5-55.5L211-4780h4789h4789l55.5,55.5l55.5,55.5v382.8c0,377.1,0,380.9-47.9,432.6c-40.2,44-61.3,49.8-162.7,49.8h-114.8V120v3923.8h114.8c101.4,0,122.5,5.7,162.7,49.8c47.9,51.7,47.9,55.5,47.9,432.6V4909l-55.5,55.5L9789,5020H5000H211L155.5,4964.5z M9574.6,4531.9v-162.7H5000H425.4v162.7v162.7H5000h4574.6V4531.9z M9249.2,120v-3923.8H5000H750.8V120v3923.8H5000h4249.2V120z M9574.6-4291.9v-162.7H5000H425.4v162.7v162.7H5000h4574.6V-4291.9z"/><path d="M1171.9,3693.6c-97.6-49.8-95.7-9.6-95.7-1693.9c0-1671,0-1661.4,86.1-1695.9c17.2-5.7,830.7-11.5,1806.9-11.5h1776.3l40.2,44l42.1,44v1607.8c1.9,884.3-3.8,1623.1-11.5,1640.3c-34.5,91.9-7.7,90-1858.6,90C1602.5,3718.4,1210.2,3712.7,1171.9,3693.6z M4502.3,2005.4V617.7H2952H1401.6v1374.3c0,756.1,5.7,1382,13.4,1387.7c5.7,7.7,704.4,13.4,1550.4,13.4h1537V2005.4z"/><path d="M1943.2,2851.4c-348.4-348.4-369.4-373.2-369.4-440.2c0-99.5,67-166.5,166.5-166.5c67,0,91.9,21.1,440.2,369.4c348.4,348.4,369.4,373.2,369.4,440.2c0,99.5-67,166.5-166.5,166.5C2316.5,3220.8,2291.6,3199.7,1943.2,2851.4z"/><path d="M2840.9,2927.9C2573,2658,2550,2631.3,2550,2566.2c0-53.6,13.4-80.4,59.3-118.7c107.2-90,130.2-78.5,451.7,243.1c162.7,158.9,298.6,310.1,306.3,335c13.4,53.6-26.8,153.1-72.7,176.1c-19.1,11.5-63.2,19.1-97.6,19.1C3139.5,3220.8,3101.2,3188.2,2840.9,2927.9z"/><path d="M2014.1,2078.1c-15.3-5.7-120.6-101.4-233.5-212.5c-179.9-178-206.7-212.5-206.7-268c0-34.5,7.7-78.5,19.1-97.6c23-45.9,122.5-86.1,176.1-72.7c24.9,7.7,137.8,105.3,250.7,220.1c172.3,174.2,204.8,218.2,204.8,268C2224.6,2018.8,2104,2112.5,2014.1,2078.1z"/><path d="M5258.4,3697.4c-90-49.8-86.1,7.7-86.1-1701.6V374.6l44-40.2l44-42.1h1783.9c1751.4,0,1783.9,0,1822.2,38.3c21,21.1,42.1,57.4,47.9,80.4c5.7,24.9,7.7,756.1,5.7,1627l-5.7,1582.9l-44,44l-44,44l-1764.8,3.8C5803.9,3716.5,5285.2,3710.8,5258.4,3697.4z M8594.6,2001.5l3.8-1383.9H7048H5497.7v1387.7V3393l1546.6-3.8l1544.6-5.7L8594.6,2001.5z"/><path d="M6020.2,2851.4c-348.4-348.4-369.4-373.2-369.4-440.2c0-99.5,67-166.5,166.5-166.5c67,0,91.9,21.1,442.1,369.4c342.6,340.7,371.3,375.2,373.2,440.2c1.9,99.5-63.2,166.5-166.5,166.5C6391.5,3220.8,6378.1,3209.3,6020.2,2851.4z"/><path d="M6919.8,2927.9c-250.7-250.7-292.9-300.5-292.9-352.2c0-124.4,134-208.6,243.1-151.2c28.7,15.3,172.3,147.4,317.7,292.9c243.1,246.9,262.2,271.8,262.2,338.8c0,97.6-68.9,164.6-166.5,164.6C7216.5,3220.8,7193.5,3201.6,6919.8,2927.9z"/><path d="M6081.4,2074.3c-21-9.6-126.3-107.2-233.5-218.2c-225.9-227.8-243.1-275.6-141.6-379c103.3-103.4,170.3-72.7,419.2,179.9c166.5,172.3,185.7,201,176.1,290.9C6293.9,2034.1,6163.7,2108.7,6081.4,2074.3z"/><path d="M1131.7-88.6l-45.9-36.4v-1628.9v-1627l44-44l44-44l1755.2-5.7c1820.3-3.8,1839.4-3.8,1879.6,72.7c11.5,21,19.1,677.6,19.1,1646.1l1.9,1613.6l-42.1,44l-42.1,45.9H2959.6C1231.2-52.3,1173.8-54.2,1131.7-88.6z M4502.3-1765.4V-3153l-1544.7,3.8l-1546.6,5.7l-5.7,1383.9l-3.8,1382H2952h1550.4V-1765.4z"/><path d="M1943.2-900.2c-357.9-357.9-369.4-371.3-369.4-446c0-80.4,44-139.7,120.6-166.5c70.8-24.9,164.6,47.9,507.2,392.4C2528.9-789.2,2550-762.4,2550-695.4c0,93.8-72.7,164.6-170.4,164.6C2316.5-530.8,2283.9-557.6,1943.2-900.2z"/><path d="M2842.8-823.6c-266-266.1-292.8-298.6-292.8-357.9c1.9-74.7,26.8-116.7,90-149.3c99.5-53.6,132.1-34.4,411.5,241.2c346.4,338.8,375.1,394.3,266,503.4c-40.2,38.3-74.6,55.5-118.7,55.5C3143.4-530.8,3101.2-565.2,2842.8-823.6z"/><path d="M1780.5-1885.9c-189.5-189.5-206.7-212.5-206.7-277.5c0-97.6,67-166.5,164.6-166.5c65.1,0,90,19.1,279.5,206.7c187.6,189.5,206.7,214.4,206.7,279.5c0,97.6-68.9,164.6-166.5,164.6C1993-1679.2,1970-1696.5,1780.5-1885.9z"/><path d="M5214.4-96.3l-42.1-44v-1621.2c0-1588.7,0-1621.2,38.3-1659.5c21-21,57.4-42.1,80.4-47.9c24.9-5.7,830.7-7.7,1789.6-5.7l1745.6,5.7l44,44l44,44l5.7,1582.9c1.9,870.9,0,1602.1-5.7,1627c-5.7,23-26.8,59.3-47.9,80.4c-38.3,38.3-70.8,38.3-1824.1,38.3H5254.6L5214.4-96.3z M8594.6-1759.6l-5.7-1383.9l-1544.6-5.7l-1546.6-3.8v1387.7v1387.7H7048h1550.4L8594.6-1759.6z"/><path d="M6039.3-898.3c-204.8-202.9-375.2-388.6-380.9-411.5c-28.7-107.2,51.7-202.9,168.4-202.9c47.9,0,111,53.6,421.1,361.7C6447-951.9,6619.3-770,6628.9-745.2c21.1,55.5-21,164.6-74.6,193.3C6450.9-496.3,6426-513.5,6039.3-898.3z"/><path d="M6946.6-793c-344.5-342.6-373.2-396.2-264.1-505.3c40.2-38.3,74.6-55.5,118.7-55.5c55.5,0,97.6,34.5,356,292.9C7430.9-787.3,7450-764.3,7450-697.3c0,95.7-72.7,166.5-168.4,166.5C7220.3-530.8,7187.8-555.7,6946.6-793z"/><path d="M5857.5-1885.9c-185.7-185.7-206.7-214.4-206.7-275.6c0-95.7,70.8-168.4,164.6-168.4c63.2,0,90,19.1,260.3,187.6c210.5,204.8,231.6,235.4,229.7,315.8c-1.9,86.1-70.8,147.4-164.6,147.4C6068-1679.2,6052.7-1690.7,5857.5-1885.9z"/></g></g>
</svg>