<?xml version="1.0" encoding="utf-8"?>
<!-- Svg Vector Icons : http://www.onlinewebfonts.com/icon -->
<!DOCTYPE svg PUBLIC "-//W3C//DTD SVG 1.1//EN" "http://www.w3.org/Graphics/SVG/1.1/DTD/svg11.dtd">
<svg version="1.1" xmlns="http://www.w3.org/2000/svg" xmlns:xlink="http://www.w3.org/1999/xlink" x="0px" y="0px" viewBox="0 0 1000 1000" enable-background="new 0 0 1000 1000" xml:space="preserve">
<metadata> Svg Vector Icons : http://www.onlinewebfonts.com/icon </metadata>
<g><g transform="translate(0.000000,512.000000) scale(0.100000,-0.100000)"><path d="M7277.7,4771.2v-248.8h-266.1c-231.6,0-269.9-3.8-310.1-36.4c-26.8-19.1-252.7-346.4-505.3-727.3l-459.4-689.1l-367.5-1.9H5000v86.1c0,67,9.6,90,44,112.9c65.1,42.1,220.1,88,338.8,103.4l105.3,13.4l5.7,168.4l5.7,166.5H4349.2H3200.8v-172.3v-172.3h72.7c86.1,0,250.7-45.9,354.1-97.6c65.1-34.5,70.8-44,70.8-122.5v-86.1h-736.9h-736.9v86.1c0,67,9.6,90,42.1,112.9c67,42.1,222,88,340.7,103.4l105.3,13.4l5.7,168.4l5.7,166.5H1573.8H425.4v-172.3v-172.3h72.7c86.1,0,250.7-45.9,352.2-97.6c67-34.5,72.7-44,72.7-122.5v-86.1H511.5H100v-574.2v-574.2h409.6h411.5l-3.8-2861.5l-3.8-2861.5H507.7H100v-488.1V-4780h4813.9h4813.9v488.1v488.1h-319.6h-321.6l-3.8,2861.5l-3.8,2861.5h411.5H9900v574.2v574.2h-488.1h-488.1v813.5v813.5h-325.4H8273v162.7V5020h-497.7h-497.7V4771.2z M7928.5,3881.1v-813.5h-153.1h-153.1v813.5v813.5h153.1h153.1V3881.1z M8598.4,3718.4v-650.8h-162.7H8273v650.8v650.8h162.7h162.7V3718.4z M7120.8,4179.7c-1.9-9.6-168.4-262.2-369.4-564.6l-363.7-545.5l-130.2-1.9h-128.2l377.1,564.6l375.2,564.6H7004C7072.9,4197,7124.6,4189.3,7120.8,4179.7z M7277.7,3431.3v-363.7h-248.8h-248.8l243.1,363.7c132.1,201,245,363.7,248.8,363.7C7273.9,3795,7277.7,3632.3,7277.7,3431.3z M1927.9,3335.6c-15.3-30.6-28.7-103.4-28.7-162.7v-105.3h-325.4h-325.4v86.1c0,47.9-13.4,118.7-28.7,157c-15.3,36.4-28.7,70.8-28.7,74.6c0,3.8,172.3,7.7,382.8,7.7h384.7L1927.9,3335.6z M4703.3,3335.6c-15.3-30.6-28.7-103.4-28.7-162.7v-105.3h-325.4h-325.4v101.4c0,53.6-13.4,124.4-28.7,155c-15.3,28.7-28.7,57.4-28.7,61.3c0,3.8,172.3,7.7,382.8,7.7h384.7L4703.3,3335.6z M9570.8,2487.7l5.7-243.1h-844.1h-846l-55.5-55.5c-59.3-59.3-68.9-112.9-32.5-179.9c44-86.1,61.3-88.1,518.7-90h434.5v-899.6V120h-325.4h-325.4v248.8v248.8H5000H1899.2V368.8V120h-325.4h-325.4v899.6v899.6h436.4c455.6,1.9,472.8,3.8,516.8,90c36.4,67,26.8,120.6-32.5,179.9l-55.5,55.5h-844.1H425.4V2480c0,130.2,3.8,241.2,7.7,245c3.8,3.8,2061.4,7.7,4570.8,7.7l4561.2-1.9L9570.8,2487.7z M7775.4-1744.3v-2038.5l-86.1-11.5c-45.9-7.7-147.4-11.5-223.9-7.7c-76.6,1.9-185.7,3.8-239.3,1.9l-101.4-3.8v-325.4v-325.4h-518.7h-518.7l109.1,88c233.5,189.5,436.4,511.1,530.2,840.3c38.3,134,44,193.3,42.1,468.9c0,260.3-7.7,342.6-42.1,463.2c-47.9,174.2-147.4,394.3-239.3,535.9c-111,164.6-528.3,635.5-587.6,660.4c-72.7,30.6-164.6,0-199.1-68.9c-26.8-45.9-28.7-47.9-42.1-11.5C5518.7-1084,5313.9-682,5201-572.9c-101.4,93.8-166.5,86.1-285.2-40.2c-187.6-193.3-457.5-518.7-551.3-662.3c-172.3-264.1-294.8-562.7-357.9-874.7c-21.1-101.5-42.1-187.6-45.9-191.4c-3.8-5.8-23,42.1-40.2,105.3c-36.4,128.2-82.3,174.2-174.2,174.2c-90,0-132.1-42.1-216.3-214.4c-298.6-612.5-208.6-1366.6,225.9-1889.2c51.7-63.2,143.6-153.1,202.9-201l107.2-88h-671.8h-671.8v325.4v325.4l-147.4,3.8c-82.3,1.9-195.2,1.9-248.8,0l-101.4-5.7v2048v2050H5000h2775.4V-1744.3z M1899.2-368.1v-162.7h-325.4h-325.4v162.7v162.7h325.4h325.4V-368.1z M8751.6-368.1v-162.7h-325.4h-325.4v162.7v162.7h325.4h325.4V-368.1z M1899.2-1018.9v-162.7h-325.4h-325.4v162.7v162.7h325.4h325.4V-1018.9z M8751.6-1018.9v-162.7h-325.4h-325.4v162.7v162.7h325.4h325.4V-1018.9z M5179.9-1166.2c183.7-380.9,269.9-694.8,296.7-1081.4c13.4-189.5,19.1-222,59.3-264.1c59.3-63.2,168.4-65.1,225.9-3.8c38.3,42.1,139.7,348.4,166.5,507.2c7.7,44,17.2,80.4,21,80.4c13.4,0,145.5-151.2,233.5-266.1c319.6-419.2,382.8-1004.9,157-1462.3c-183.7-373.2-557-677.6-937.9-767.5c-179.9-44-495.7-40.2-677.6,7.7c-467,118.7-857.5,503.4-1008.7,995.3c-36.4,114.8-44,185.7-44,363.7c0,120.6,11.5,258.4,24.9,304.3l24.9,86.1l109.1-210.5c189.5-365.6,264.1-449.8,371.3-421.1c86.1,21,132.1,86.1,122.5,174.2c-3.8,42.1-19.1,174.2-34.5,292.9c-51.7,442.2,51.7,892,294.8,1295.8c97.6,162.7,440.2,583.8,474.7,583.8C5068.9-951.9,5122.5-1049.5,5179.9-1166.2z M1895.4-1673.5l5.7-158.9h-327.3h-325.4v162.7v162.7l321.6-3.8l319.7-5.7L1895.4-1673.5z M8751.6-1669.6v-162.7h-325.4h-325.4v149.3c0,82.3,5.7,157,13.4,162.7c5.7,7.7,153.1,13.4,325.4,13.4h312V-1669.6z M1889.6-2330v-162.7l-319.7-5.7l-321.6-3.8v172.3v172.3l321.6-3.8l319.7-5.7V-2330z M8751.6-2330v-172.3l-319.6,3.8l-321.6,5.7l-5.7,141.7c-3.8,78.5-1.9,153.1,3.8,168.4c7.6,19.1,80.4,24.9,327.3,24.9h315.8V-2330z M1895.4-2984.6l-5.7-158.9l-319.7-5.7l-321.6-3.8v162.7v162.7h325.4h327.3L1895.4-2984.6z M8751.6-2990.4V-3153l-319.6,3.8l-321.6,5.7l-5.7,158.9l-5.7,157h327.3h325.4V-2990.4z M1899.2-3641.1v-162.7h-325.4h-325.4v162.7v162.7h325.4h325.4V-3641.1z M8751.6-3641.1v-162.7h-325.4h-325.4v162.7v162.7h325.4h325.4V-3641.1z M2377.7-4291.9v-162.7h-976.2H425.4v162.7v162.7h976.2h976.2V-4291.9z M9402.3-4291.9v-162.7h-976.2H7450v162.7v162.7h976.2h976.2V-4291.9z"/><path d="M3248.6,2034.1l-440.2-440.2l446-444.1l444.1-446l325.4,325.4l325.4,325.4l325.4-325.4L5000,703.8l325.4,325.4l325.4,325.4l325.4-325.4l325.4-325.4l444.1,446l446,444.1l-440.2,440.2l-440.2,440.2l-325.4-325.4l-325.4-325.4l-331.1,329.2L5000,2483.9l-331.1-331.1l-329.2-329.2l-325.4,325.4l-325.4,325.4L3248.6,2034.1z M3899.4,1383.3l-210.5-210.5l-210.5,210.5l-210.5,210.5l210.5,210.5l210.5,210.5l210.5-210.5l210.5-210.5L3899.4,1383.3z M6521.7,1383.3l-210.5-210.5l-210.5,210.5L5890,1593.8l210.5,210.5l210.5,210.5l210.5-210.5l210.5-210.5L6521.7,1383.3z M5216.3,1789.1l204.8-204.8l-210.5-210.5L5000,1163.2l-210.5,210.5l-210.5,210.5l204.8,204.8c112.9,114.8,210.5,206.7,216.3,206.7S5103.4,1903.9,5216.3,1789.1z"/></g></g>
</svg>