<?xml version="1.0" encoding="utf-8"?>
<!-- Svg Vector Icons : http://www.onlinewebfonts.com/icon -->
<!DOCTYPE svg PUBLIC "-//W3C//DTD SVG 1.1//EN" "http://www.w3.org/Graphics/SVG/1.1/DTD/svg11.dtd">
<svg version="1.1" xmlns="http://www.w3.org/2000/svg" xmlns:xlink="http://www.w3.org/1999/xlink" x="0px" y="0px" viewBox="0 0 1000 1000" enable-background="new 0 0 1000 1000" xml:space="preserve">
<metadata> Svg Vector Icons : http://www.onlinewebfonts.com/icon </metadata>
<g><g transform="translate(0.000000,512.000000) scale(0.100000,-0.100000)"><path d="M923,4547.2v-474.7l55.5-118.7c68.9-145.5,191.4-269.9,323.5-333l97.6-45.9l1.9-252.7v-252.7l-109.1-5.7l-109.1-5.7l-30.6-105.3c-47.9-155-99.5-243.1-227.8-388.5c-132.1-145.5-187.6-287.1-166.5-417.3l11.5-74.6H435H100v-564.6V943h162.7h162.7v-2861.5V-4780H5000h4574.6v2861.5V943h162.7H9900v564.6v564.6h-325.4h-325.4v985.7v985.7h-813.5h-813.5l-3.8-980l-5.7-981.9l-80.4-5.7l-82.3-5.7v660.4V3393H6311.1H5172.3l-3.8-654.6l-5.7-656.5l-80.4-5.7l-82.3-5.7v823v825h-976.2h-976.2l-3.8-817.3l-5.7-819.2l-302.4-5.7l-300.5-5.7l11.5,74.6c21.1,132.1-34.5,271.8-166.5,419.2c-128.2,145.5-179.9,233.5-227.8,388.5l-30.6,105.3l-147.4,5.7l-147.4,5.7v233.5c0,128.2,7.7,243.1,15.3,254.6c7.7,11.5,57.4,44,109.1,70.8c120.6,61.3,241.2,185.7,310.1,319.7l53.6,105.3l5.7,484.3l5.7,482.3h-650.8H923V4547.2z M1401.6,4298.4v-394.3l-49.8,45.9c-90,80.4-103.4,145.5-103.4,457.5v287.1h76.6h76.6V4298.4z M1899.2,4417.1c0-206.7-7.7-296.7-28.7-348.4c-32.5-76.6-82.3-139.7-109.1-139.7c-7.7,0-15.3,172.3-15.3,382.8v382.8h76.6h76.6V4417.1z M8923.8,2905v-813.5h-488.1h-488.1V2905v813.5h488.1h488.1V2905z M4674.6,2742.3v-650.8h-650.8H3373v650.8V3393h650.8h650.8V2742.3z M7124.6,2579.6v-488.1h-813.5h-813.5v488.1v488.1h813.5h813.5V2579.6z M1839.9,2612.1c38.3-65.1,118.7-174.2,179.9-241.2c114.8-130.2,128.2-168.4,78.5-237.3c-28.7-42.1-34.5-42.1-495.7-42.1s-467,0-495.7,42.1c-47.9,68.9-36.4,109.1,63.2,216.3c88,97.6,168.4,210.5,233.5,329.2c30.6,55.5,32.5,55.5,199.1,53.6h170.4L1839.9,2612.1z M9574.6,1507.7v-239.3H5000H425.4v239.3V1747H5000h4574.6V1507.7z M923,734.4c0-218.2,23-264.1,135.9-281.4c55.5-9.6,78.5-1.9,124.4,36.4c53.6,45.9,55.5,55.5,61.2,241.2l7.7,193.3h72.7h72.7l7.7-193.3c5.7-185.7,7.7-195.2,61.2-241.2c45.9-38.3,68.9-45.9,124.4-36.4C1704,470.3,1727,516.2,1727,734.4v189.5h86.1h86.1V738.2c1.9-195.2,13.4-229.7,90-269.9c67-36.4,120.6-26.8,179.9,32.5c53.6,53.6,55.5,63.2,55.5,239.3v183.8h76.6h76.6v-157c0-185.7,38.3-281.4,120.6-310.1c141.7-49.8,224,63.2,224,310.1v157h76.6h76.6V740.2c0-176.1,1.9-185.7,55.5-239.3c59.3-59.3,112.9-68.9,179.9-32.5c76.6,40.2,88.1,74.6,90,269.9v185.7h86.1h86.1V734.4c0-218.2,23-264.1,135.9-281.4c55.5-9.6,78.5-1.9,124.4,36.4c53.6,45.9,55.5,55.5,61.2,241.2l7.7,193.3h74.6h74.6V757.4c0-95.7,11.5-189.5,24.9-216.3c51.7-103.4,179.9-120.6,262.2-38.3c32.5,32.5,38.3,65.1,38.3,229.7v191.4h86.1h86.1V738.2c1.9-195.2,13.4-229.7,90-269.9c67-36.4,120.6-26.8,179.9,32.5c53.6,53.6,55.5,63.2,55.5,239.3v183.8h76.6h76.6v-157c0-185.7,38.3-281.4,120.6-310.1c141.6-49.8,224,63.2,224,310.1v157h76.6h76.6V740.2c0-176.1,1.9-185.7,55.5-239.3c59.3-59.3,112.9-68.9,179.9-32.5c76.6,40.2,88.1,74.6,90,269.9v185.7h86.1h86.1V734.4c0-218.2,23-264.1,135.9-281.4c55.5-9.6,78.5-1.9,124.4,36.4c53.6,45.9,55.5,55.5,61.3,241.2l7.7,193.3h74.6h74.7V757.4c0-95.7,11.5-189.5,24.9-216.3c51.7-103.4,179.9-120.6,262.2-38.3c32.5,32.5,38.3,65.1,38.3,229.7v191.4h86.1h86.1V738.2c1.9-195.2,13.4-229.7,90-269.9c67-36.4,120.6-26.8,179.9,32.5c53.6,53.6,55.5,63.2,55.5,239.3v183.8h76.6h76.6v-157c0-246.9,82.3-359.8,225.9-310.1c80.4,28.7,118.7,124.4,118.7,310.1v157h76.6h76.6V740.2c0-176.1,1.9-185.7,55.5-239.3c59.3-59.3,112.9-68.9,179.9-32.5c76.6,40.2,88.1,74.6,90,269.9v185.7h86.1h86.1V734.4c0-218.2,23-264.1,135.9-281.4c55.5-9.6,78.5-1.9,124.4,36.4c53.6,45.9,55.5,55.5,61.3,241.2l7.7,193.3h74.6h74.7V757.4c0-95.7,11.5-189.5,24.9-216.3c51.7-103.4,179.9-120.6,262.2-38.3c32.5,32.5,38.3,65.1,38.3,229.7v191.4h86.1h86.1v-2689.3v-2689.3h-411.5h-411.5v1760.9v1760.9l-239.3,157l-237.4,158.9l-1.9,283.3v281.4H5000H2052.3v-281.4l-1.9-283.3l-237.3-158.9l-239.3-157v-1760.9v-1760.9h-411.5H750.8v2689.3V923.9h86.1H923V734.4z M7622.3-586.3V-793l239.3-158.9l239.3-158.9v-1671v-1672.9h-736.9H6627v325.4v325.4h-162.7h-162.7v325.4v325.4h-84.2H6135l63.2,168.4c126.3,336.9,128.3,668,7.7,1004.9c-65.1,176.1-151.2,310.1-363.7,564.6c-172.3,206.7-241.2,252.7-329.2,218.2c-32.5-11.5-61.3-21.1-63.2-17.2c-1.9,1.9-32.5,78.5-70.8,170.4c-88,212.5-210.5,423-275.6,472.8c-105.3,82.3-164.6,51.7-373.3-189.5c-289-338.8-430.7-578-507.2-861.3c-19.1-68.9-36.4-128.2-40.2-132.1c-1.9-3.8-23,7.7-44,26.8c-55.5,49.8-160.8,45.9-218.2-7.7c-101.4-95.7-199.1-390.5-214.4-652.7c-15.3-243.1,26.8-444.1,158.9-740.7c7.7-17.2-15.3-24.9-78.5-24.9h-88v-325.4v-325.4h-162.7H3373v-325.4v-325.4h-736.9h-736.9v1672.9v1671l239.3,158.9L2377.7-793v206.7v208.6H5000h2622.3V-586.3z M5080.4-1170.1c95.7-222,143.6-411.5,170.3-669.9c11.5-116.7,28.7-225.8,38.3-245c9.6-17.2,45.9-42.1,82.3-53.6c130.1-42.1,195.2,26.8,260.3,277.5c13.4,53.6,30.6,103.4,38.3,111c21,24.9,128.2-114.8,202.9-264.1c84.2-172.3,130.2-382.8,112.9-535.9c-44-428.8-350.3-792.4-758-899.6c-451.7-120.6-962.8,157-1146.5,620.2c-47.9,122.5-82.3,348.3-65.1,434.5l11.5,65.1l95.7-160.8c128.2-214.4,208.6-250.7,325.4-149.3l59.3,55.5l-24.9,174.2c-68.9,484.2,53.6,907.3,373.2,1292c59.3,72.7,118.7,126.3,130.2,122.5C4998.1-999.7,5042.1-1078.2,5080.4-1170.1z M4232.5-3545.4c382.8-275.6,937.9-317.7,1362.8-103.4c67,32.5,153.1,84.2,191.4,114.8c44,34.5,93.8,55.5,130.2,55.5h59.3v-162.7v-162.7H5000h-976.2v162.7v162.7h57.4C4115.7-3478.4,4175-3505.2,4232.5-3545.4z M6301.6-4291.9v-162.7H5000H3698.4v162.7v162.7H5000h1301.6V-4291.9z"/></g></g>
</svg>