<?xml version="1.0" encoding="utf-8"?>
<!-- Svg Vector Icons : http://www.onlinewebfonts.com/icon -->
<!DOCTYPE svg PUBLIC "-//W3C//DTD SVG 1.1//EN" "http://www.w3.org/Graphics/SVG/1.1/DTD/svg11.dtd">
<svg version="1.1" xmlns="http://www.w3.org/2000/svg" xmlns:xlink="http://www.w3.org/1999/xlink" x="0px" y="0px" viewBox="0 0 1000 1000" enable-background="new 0 0 1000 1000" xml:space="preserve">
<metadata> Svg Vector Icons : http://www.onlinewebfonts.com/icon </metadata>
<g><g transform="translate(0.000000,512.000000) scale(0.100000,-0.100000)"><path d="M3525.7,4772.8v-248.9h-76.6h-76.6v-239.3v-239.3h-86.2h-86.2v-247v-248.9l-49.8-5.7c-45.9-5.7-118.7-124.5-697-1135.4l-645.3-1129.7l-808-9.6l-809.9-9.6l-46-53.6c-59.4-70.8-59.4-155.1,1.9-214.4c38.3-40.2,65.1-47.9,162.7-47.9h114.9V531.7V120h162.7h162.8v-2039.2v-2039.2H586.6H423.8V-4370v-411.7H5000h4576.2v411.7v411.7h-162.8h-162.8v2039.2V120h162.8h162.8v411.7v411.7H9691c97.6,0,124.5,7.7,162.8,47.9c61.3,59.4,61.3,143.6,1.9,214.4l-46,53.6l-809.9,9.6l-809.9,9.6l-645.2,1129.7c-572.5,1003.3-651,1129.7-695.1,1135.4l-49.8,5.7v248.9v247h-86.2h-86.2v239.3v239.3h-76.6h-76.6v248.9v248.9H5000H3525.7V4772.8z M6148.8,4619.6V4543H5000H3851.2v76.6v76.6H5000h1148.8V4619.6z M6302,4121.8v-76.6H5000H3698v76.6v76.6h1302h1302V4121.8z M6464.7,3633.5v-76.6H5000H3535.2l-5.7,53.6c-13.4,116.8-118.7,109.1,1474.3,105.3l1460.9-5.7V3633.5z M7261.3,2245.3l553.4-966.9l-1407.3-5.7c-773.5-1.9-2041.1-1.9-2814.6,0l-1407.3,5.7l509.3,890.3c279.6,490.2,528.5,926.7,555.3,972.7l47.9,80.4l1706-3.8l1706-5.7L7261.3,2245.3z M9250.7,684.8V445.5H5000H749.3v239.3v239.3H5000h4250.7V684.8z M1725.8-1919.2v-2039.2h-325.5h-325.5v2039.2V120h325.5h325.5V-1919.2z M7929.5-1919.2v-2039.2H7313c-377.2,0-647.2,7.7-691.2,21.1c-113,30.6-281.5,201-281.5,285.3c0,11.5,82.3,19.1,229.8,19.1h229.8v488.3v488.3h-335.1h-335.1l38.3,74.7c126.4,250.8,162.8,674,80.4,965c-74.7,266.2-143.6,381-432.7,718c-157,181.9-197.2,206.8-306.4,189.6c-63.2-9.6-67-7.7-97.7,78.5C5354.2-477.4,5191.5-171,5134-109.8c-42.1,46-68.9,57.4-132.1,57.4c-72.8,0-84.2-7.7-250.8-195.3c-285.3-321.7-465.3-626.1-536.1-899.9c-34.5-135.9-34.5-134-76.6-91.9c-47.9,47.9-153.2,49.8-208.7,5.7c-51.7-45.9-143.6-235.5-185.7-388.7c-24.9-88.1-34.5-193.4-34.5-354.2c0-245.1,24.9-375.3,113-570.6l47.9-109.2h-411.7H3047v-488.3v-488.3h306.4c201,0,306.4-7.7,306.4-19.1c0-40.2-55.5-124.5-118.7-185.7c-118.7-114.9-162.7-120.6-850.1-120.6h-620.4v2039.2V120H5000h2929.5V-1919.2z M8925.1-1919.2v-2039.2h-325.5h-325.5v2039.2V120h325.5h325.5V-1919.2z M5063.2-644c97.6-212.5,160.8-446.1,185.7-674c9.6-107.2,19.2-206.8,19.2-222.1c0-47.9,90-120.6,151.3-120.6c93.8,0,149.4,67,201,248.9c24.9,90,53.6,162.7,61.3,160.8c9.6,0,61.3-67,116.8-147.4c360-528.5,183.8-1204.4-386.8-1487.7c-180-90-338.9-116.8-536.1-93.8c-329.3,40.2-670.2,317.9-796.5,647.2c-47.9,128.3-78.5,329.3-63.2,423.1l13.4,76.6l84.3-147.4c101.5-180,130.2-212.5,210.6-227.9c51.7-9.6,70.8-1.9,122.5,47.9c59.4,61.3,59.4,63.2,44,180c-9.6,65.1-17.2,222.1-17.2,348.5c1.9,404,120.6,700.8,419.3,1047.4c44,51.7,84.2,91.9,90,91.9C4988.5-492.7,5026.8-561.6,5063.2-644z M4224.5-3050.8c166.6-120.6,375.3-204.9,593.6-237.4c53.6-7.7-248.9-15.3-674-17.2l-771.6-1.9v162.7v162.8h379.1h377.2L4224.5-3050.8z M6474.3-3144.6v-162.7l-693.1,1.9c-476.8,1.9-658.7,7.7-580.1,19.2c206.8,30.6,436.6,124.5,593.6,245.1l76.6,57.4l302.5,1.9h300.6V-3144.6z M6024.4-3722.8c19.1-51.7,55.5-124.5,80.4-162.8l44-72.8h-1145h-1145l78.5,162.8l76.6,160.8l988,1.9h988L6024.4-3722.8z M9250.7-4379.6v-76.6H5000H749.3v76.6v76.6H5000h4250.7V-4379.6z"/><path d="M1289.3-96.4l-42.1-44v-1780.7c0-1763.5,0-1780.7,38.3-1822.8c78.5-84.3,210.6-67,262.3,34.5c19.1,38.3,24.9,423.1,24.9,1786.4c0,1845.8,1.9,1824.7-86.2,1859.2C1417.6-38.9,1329.5-52.3,1289.3-96.4z"/><path d="M8507.7-65.7c-13.4-5.7-36.4-34.5-51.7-63.2c-24.9-47.9-28.7-298.7-28.7-1809.4v-1755.8l55.5-55.5c59.4-59.4,112.9-68.9,180-32.6c91.9,47.9,88.1-21.1,90,1855.4c0,1765.4,0,1773-40.2,1824.7c-30.6,38.3-55.5,49.8-109.1,47.9C8565.2-54.2,8521.2-60,8507.7-65.7z"/></g></g>
</svg>