<?xml version="1.0" encoding="utf-8"?>
<!-- Svg Vector Icons : http://www.onlinewebfonts.com/icon -->
<!DOCTYPE svg PUBLIC "-//W3C//DTD SVG 1.1//EN" "http://www.w3.org/Graphics/SVG/1.1/DTD/svg11.dtd">
<svg version="1.1" xmlns="http://www.w3.org/2000/svg" xmlns:xlink="http://www.w3.org/1999/xlink" x="0px" y="0px" viewBox="0 0 1000 1000" enable-background="new 0 0 1000 1000" xml:space="preserve">
<metadata> Svg Vector Icons : http://www.onlinewebfonts.com/icon </metadata>
<g><g transform="translate(0.000000,512.000000) scale(0.100000,-0.100000)"><path d="M4176.7,4121.7v-899.9h-239.3H3698l-1.9-492.1v-494l-528.5-568.7l-530.4-570.6h-239.3h-239.3l-382.9-381c-371.5-371.4-381-382.9-367.6-446.1c19.1-99.6,90-149.3,214.4-149.3h103.4V31.9v-90l-407.8,5.7c-222.1,3.8-476.8,5.7-562.9,3.8l-158.9-3.8v-162.7v-162.8H759h162.7v-239.3v-239.3H1161h239.3v-1550.9v-1550.9h-76.6h-76.6v-248.9v-248.9H726.4c-549.5-1.9-559.1-1.9-605-90c-36.4-67-26.8-120.6,32.5-180l55.5-55.5H5000h4790.6l55.5,55.5c59.4,59.3,68.9,112.9,32.6,180c-45.9,88.1-55.5,88.1-603.1,90h-522.7v248.9v248.9h-76.6h-76.6v1550.9v1550.9h239.3h239.3v239.3v239.3H9241h162.7v162.8v162.7l-157,3.8c-88.1,1.9-342.7,0-564.8-3.8l-407.8-5.7v90V120h103.4c137.8,0,210.6,55.5,210.6,160.8c0,65.1-24.9,95.7-342.7,419.3c-189.6,193.4-363.8,360-388.7,373.4c-26.8,13.4-132.1,23-270,23h-224l-530.4,570.6l-528.5,568.7v494l-1.9,492.1h-239.3h-239.3v899.9v899.9H5000h-823.3V4121.7z M5494,3964.7l-5.7-733.3H5000h-488.2l-5.7,733.3l-3.8,731.4H5000h497.8L5494,3964.7z M5976.5,2733.6v-162.7H5000h-976.5v162.7v162.7H5000h976.5V2733.6z M6369,1688.1c285.3-306.4,520.8-564.8,522.7-574.4c3.8-9.6-794.6-17.2-1891.7-17.2c-1081.8,0-1895.5,7.7-1891.7,17.2c3.8,9.6,237.4,268.1,520.8,574.4l517,557.2h854h854L6369,1688.1z M7872,608.2l162.7-162.7H5000H1965.2L2128,608.2L2290.7,771H5000h2709.3L7872,608.2z M7948.6,43.4v-76.6H5000H2051.4v76.6V120H5000h2948.6V43.4z M8752.8-454.4V-531H5000H1247.2v76.6v76.6H5000h3752.8V-454.4z M8270.3-2411.2l3.8-1547.1h-160.8h-162.7l-9.6,63.2c-5.7,32.5-13.4,126.4-19.1,204.9c-38.3,605-342.7,1261.8-813.7,1748.1c-405.9,419.3-850.1,681.7-1390.1,823.3c-526.5,137.9-1122,116.8-1631.3-53.6c-729.5-247-1369-806.1-1719.4-1503C2216-2978,2101.2-3366.6,2080.1-3650c-5.7-80.4-15.3-181.9-21.1-225.9l-9.6-82.3h-162.7h-160.8v1537.5c0,846.3,5.7,1545.2,13.4,1550.9c5.7,7.7,1478.1,11.5,3268.4,9.6l3256.9-5.7L8270.3-2411.2z M5132.1-1457.7c65.1-174.2,97.6-329.3,118.7-553.3c17.2-191.5,23-218.3,67-256.6c26.8-24.9,72.8-44,103.4-44c91.9,0,147.4,68.9,195.3,239.3c24.9,84.3,53.6,155.1,63.2,157c32.6,3.8,180-208.7,229.8-337c26.8-67,59.4-187.6,70.8-268.1c38.3-277.6-65.1-595.5-262.3-796.5c-327.4-335.1-748.6-417.4-1135.4-222.1c-137.9,68.9-350.4,260.4-419.3,379.1c-109.1,187.6-170.4,432.7-147.4,595.5l13.4,84.3l74.7-141.7c116.8-218.3,195.3-275.7,308.3-224c84.3,38.3,99.6,93.8,74.7,262.3c-63.2,407.8,17.2,794.6,233.6,1120.1l72.8,109.1h149.3h151.3L5132.1-1457.7z M4349-1440.5c0-5.7-21.1-59.3-45.9-120.6c-24.9-59.4-59.4-157-76.6-214.5c-19.1-57.4-36.4-116.8-42.1-130.2c-5.7-17.2-19.2-13.4-49.8,13.4c-46,44-130.2,51.7-191.5,19.2c-46-24.9-172.3-289.1-208.7-438.5c-15.3-59.3-26.8-199.1-24.9-325.5c0-233.6,28.7-377.2,113-566.7l46-103.4h-411.7H3047v-325.5v-325.5h-335.1h-333.2l7.7,53.6c3.8,28.7,11.5,124.5,17.2,214.5c21.1,321.7,151.3,735.2,331.2,1043.5C2867-2417,2957-2302.1,3160-2101c283.4,283.4,607,482.5,993.7,612.7C4326-1429,4349-1423.2,4349-1440.5z M6001.4-1547.7c628-247,1139.2-750.6,1403.5-1378.6c118.7-283.4,199.1-639.5,199.1-892.3v-139.8h-402.1h-402.1v325.5v325.5h-335.1h-335.1l36.4,74.7c111.1,218.3,155.1,551.4,109.1,819.5c-53.6,314-155.1,511.2-413.6,808C5704.6-1427.1,5700.8-1429,6001.4-1547.7z M4264.8-3726.6c157-105.3,300.6-166.6,486.3-202.9c111-23,46-24.9-626.1-26.8l-752.5-1.9v162.7v162.8h375.3h375.3L4264.8-3726.6z M6474.3-3795.5v-162.7l-674,1.9c-371.4,1.9-649.1,7.7-618.4,11.5c203,28.7,453.8,130.2,612.7,250.8l76.6,59.4h302.5l300.6,1.9V-3795.5z M8427.3-4379.5v-76.6H5000H1572.7v76.6v76.6H5000h3427.3V-4379.5z"/></g></g>
</svg>