<?xml version="1.0" encoding="utf-8"?>
<!-- Svg Vector Icons : http://www.onlinewebfonts.com/icon -->
<!DOCTYPE svg PUBLIC "-//W3C//DTD SVG 1.1//EN" "http://www.w3.org/Graphics/SVG/1.1/DTD/svg11.dtd">
<svg version="1.1" xmlns="http://www.w3.org/2000/svg" xmlns:xlink="http://www.w3.org/1999/xlink" x="0px" y="0px" viewBox="0 0 1000 1000" enable-background="new 0 0 1000 1000" xml:space="preserve">
<metadata> Svg Vector Icons : http://www.onlinewebfonts.com/icon </metadata>
<g><g transform="translate(0.000000,511.000000) scale(0.100000,-0.100000)"><path d="M4187.7,4957.9c-9.6-28.9-23.2-63.7-27-75.3c-5.8-15.4-42.5-25.1-96.5-25.1h-86.8v-721.6c0-401.3,7.7-766,19.3-823.9c63.7-343.5,384-673.4,733.2-754.4l96.5-21.2v-953.2V628.1L4726,716.8c-189.1,165.9-486.2,281.7-721.6,281.7c-90.7,0-106.1-5.8-152.4-61.7c-48.2-57.9-52.1-71.4-38.6-179.4c19.3-177.5,46.3-277.8,117.7-424.5c152.4-312.6,459.2-571.1,781.5-652.2l104.2-27l5.8-88.8l5.8-88.8l-1051.6-5.8L2727-535.4l-50.2-46.3c-32.8-30.9-50.2-67.5-50.2-106.1c0-32.8,94.5-536.4,210.3-1121.1c115.8-582.7,254.7-1290.8,310.7-1572.5c56-281.7,111.9-538.3,125.4-571.1c38.6-92.6,160.1-218,268.2-274l98.4-52.1H5000h1360.3l98.4,52.1c108.1,55.9,229.6,181.3,268.2,274c13.5,32.8,69.5,289.4,125.4,571.1c56,281.7,194.9,989.9,310.6,1572.5c115.8,584.7,210.3,1088.3,210.3,1121.1c0,38.6-17.4,75.2-50.2,106.1l-50.2,46.3l-1049.6,5.8l-1049.7,3.8v685v683l83,21.2c351.2,88.8,656,337.7,812.3,665.7c71.4,148.6,98.4,248.9,119.6,428.4c11.6,115.8,11.6,121.6-48.2,181.4c-61.7,59.8-63.7,61.7-200.7,48.2c-262.4-23.2-519.1-135.1-702.4-306.8l-63.7-59.8v358.9v358.9l79.1,13.5c42.5,7.7,144.7,46.3,225.8,88.8c254.7,127.3,455.4,374.3,513.3,634.8c38.6,167.9,44.4,1096,7.7,1163.5c-61.7,119.6-129.3,117.7-503.6-15.4c-164-57.9-302.9-106.1-308.7-106.1c-5.8,0-13.5,69.5-17.4,154.4c-3.9,121.6-13.5,162.1-44.4,191c-21.2,21.2-198.7,94.5-395.6,162.1c-196.8,69.5-393.6,138.9-439.9,156.3l-83,28.9L4187.7,4957.9z M4818.6,4433.1c3.9,0,7.7-347.3,7.7-771.8v-771.8h-42.5c-81,0-237.3,90.7-316.4,179.4c-135.1,152.4-142.8,202.6-142.8,912.7v625.2l243.1-86.8C4702.9,4471.7,4814.8,4433.1,4818.6,4433.1z M5671.5,3705.6c-5.8-412.9-5.8-422.6-57.9-519c-81-152.4-272.1-295.2-395.6-297.1h-44.4v528.7v528.7l150.5,54c81,28.9,187.2,67.5,235.4,86.8c48.2,17.4,94.6,32.8,102.3,34.7C5671.5,4124.4,5675.3,3935.3,5671.5,3705.6z M5820,1785.8c-67.5-229.6-231.5-430.3-424.5-519c-225.8-102.3-231.5-98.4-156.3,83c81,198.7,233.5,351.2,432.2,432.2C5812.3,1839.8,5835.5,1839.8,5820,1785.8z M4376.8,564.4c208.4-104.2,368.5-301,420.6-515.2l13.5-54l-88.8,27c-248.9,75.3-463.1,297.1-542.2,567.3C4162.6,651.2,4214.7,645.4,4376.8,564.4z M7002.8-896.2c-5.8-13.5-90.7-436.1-191-935.8l-181.4-912.7H5000H3369.6l-181.4,912.7c-100.3,499.7-185.2,922.3-191,935.8c-5.8,17.4,403.3,23.1,2002.8,23.1C6599.6-873.1,7008.6-878.9,7002.8-896.2z M6483.8-3458.6c-40.5-200.7-83-384-94.6-405.2c-11.6-23.1-42.5-48.2-69.5-57.9c-65.6-25.1-2574-25.1-2639.6,0c-27,9.6-57.9,34.7-69.5,57.9c-11.6,21.2-54,204.5-94.5,405.2l-73.3,366.6H5000h1557.1L6483.8-3458.6z"/><path d="M2327.6-3989.3c-34.7-32.8-48.2-67.5-48.2-119.6c0-67.5,19.3-90.7,304.9-376.3l304.9-304.9H5000h2110.9l304.9,304.9c285.6,285.5,304.9,308.7,304.9,376.3c0,100.3-67.5,167.8-167.9,167.8c-69.5,0-90.7-17.4-324.2-250.8l-250.8-250.8H5000H3022.3l-250.8,250.8c-233.5,233.5-254.7,250.8-324.2,250.8C2395.2-3941,2360.4-3954.5,2327.6-3989.3z"/></g></g>
</svg>