<?xml version="1.0" encoding="utf-8"?>
<!-- Svg Vector Icons : http://www.onlinewebfonts.com/icon -->
<!DOCTYPE svg PUBLIC "-//W3C//DTD SVG 1.1//EN" "http://www.w3.org/Graphics/SVG/1.1/DTD/svg11.dtd">
<svg version="1.1" xmlns="http://www.w3.org/2000/svg" xmlns:xlink="http://www.w3.org/1999/xlink" x="0px" y="0px" viewBox="0 0 1000 1000" enable-background="new 0 0 1000 1000" xml:space="preserve">
<metadata> Svg Vector Icons : http://www.onlinewebfonts.com/icon </metadata>
<g><g transform="translate(0.000000,512.000000) scale(0.100000,-0.100000)"><path d="M5922.6,4978c-24.9-24.9-124.4-246.9-224-493.8l-181.8-449.8l-5.7-415.4l-5.7-413.4l-45.9,45.9c-49.8,49.8-137.8,61.3-202.9,26.8c-21.1-11.5-120.6-187.6-227.8-402l-191.4-382.8V2237v-256.5l-55.5,55.5c-72.7,72.7-174.2,76.6-241.2,7.7l-47.9-45.9v648.9v647l-179.9,635.5c-99.5,350.3-195.2,656.5-212.5,681.4c-51.7,80.4-187.6,84.2-252.7,7.7c-19.1-21.1-112.9-315.8-210.5-654.6l-176.1-618.3l-1.9-252.7v-250.7l-55.5,55.5c-70.8,68.9-164.6,74.6-231.6,13.4c-24.9-23-124.4-206.7-224-409.6l-178-367.5V571.8V-990.1H2684c-116.8,0-216.3-44-239.3-105.3c-11.5-28.7-19.1-283.3-19.1-602.9v-553.2l45.9-53.6c44-49.8,59.3-53.6,225.9-63.2l178-9.6l90-344.5c47.9-189.5,181.8-706.3,294.8-1148.5c179.9-702.5,214.4-809.6,258.4-855.6l51.7-53.6H5000h1429.8l51.7,53.6c44,44,70.8,128.3,183.8,568.5c72.7,285.2,206.7,802,296.7,1148.4l162.7,631.7l178,9.6c166.5,9.6,181.8,13.4,225.9,63.2l45.9,53.6v553.2c0,319.7-7.7,574.2-19.1,602.9c-23,61.2-122.5,105.3-239.3,105.3h-86.1v1558V2126l-183.8,377.1c-101.5,206.7-202.9,392.4-223.9,413.4c-61.3,55.5-158.9,47.9-225.9-19.1l-55.5-55.5v589.5v591.5l-174.2,446c-130.2,331.1-187.6,459.4-229.7,499.6C6066.2,5033.5,5981.9,5037.3,5922.6,4978z M6117.8,4162.6l78.5-195.2V1488.6V-990.1h-168.4h-170.4l-1.9,2461.5l-3.8,2461.5l68.9,174.2c38.3,97.6,76.6,197.2,86.1,222c9.6,24.9,21.1,42.1,24.9,38.3C6037.4,4363.6,6075.7,4271.7,6117.8,4162.6z M4043,3630.5c34.4-124.4,74.6-269.9,86.1-323.5c17.2-70.8,19.1-648.9,7.7-2195.5l-13.4-2101.6h-158.9h-160.8v2139.9l-1.9,2138l82.3,290.9c45.9,158.9,84.2,287.1,88,285.2C3974,3860.2,4006.6,3754.9,4043,3630.5z M5505.3,719.2l1.9-1709.3h-158.9h-160.8l-11.5,1680.6l-13.4,1678.7l90,187.6l90,187.6l82.3-158.9l80.4-158.9V719.2z M3373,2221.7l86.1-176.1V527.7V-990.1h-172.3h-172.3V541.1v1531.3l80.4,162.7c44,90,84.2,162.7,88,162.7C3285,2397.8,3327.1,2319.3,3373,2221.7z M6883.5,546.9l1.9-1537h-172.3h-172.3V527.7v1517.9l88,181.8l88.1,179.9l84.2-162.7l82.3-162.7V546.9z M4816.2,116.2l1.9-1106.3h-162.7h-162.7V110.5v1100.6l80.4,162.7l82.3,162.7l80.4-157l80.4-158.9V116.2z M7229.9-1683v-340.7H5000H2770.1v340.7v338.8H5000h2229.9V-1683z M6768.6-2381.7c0-9.6-118.7-470.9-262.2-1029.8l-262.2-1014.5H5000H3755.8l-262.2,1014.5c-143.6,558.9-262.2,1020.2-264.1,1029.8c0,7.7,796.3,13.4,1770.5,13.4C5974.3-2368.3,6770.5-2374,6768.6-2381.7z"/><path d="M4050.6-2569.2c-72.7-38.3-99.5-128.2-67-210.5c15.3-34.5,44-72.7,65.1-84.2c26.8-13.4,237.4-21,610.6-21c622.1,0,637.4,1.9,677.6,109.1c26.8,70.8-11.5,172.3-78.5,206.7C5178-2527.1,4125.3-2529,4050.6-2569.2z"/><path d="M4555.9-3091.8c-93.8-72.7-97.6-202.9-11.5-271.8c44-32.5,78.5-38.3,283.3-38.3c262.2,0,319.7,23,344.5,132.1c13.4,65.1-28.7,162.7-84.2,193.3c-21.1,9.6-139.7,19.1-264.1,19.1C4640.2-3057.3,4590.4-3065,4555.9-3091.8z"/></g></g>
</svg>