<?xml version="1.0" encoding="utf-8"?>
<!-- Svg Vector Icons : http://www.onlinewebfonts.com/icon -->
<!DOCTYPE svg PUBLIC "-//W3C//DTD SVG 1.1//EN" "http://www.w3.org/Graphics/SVG/1.1/DTD/svg11.dtd">
<svg version="1.1" xmlns="http://www.w3.org/2000/svg" xmlns:xlink="http://www.w3.org/1999/xlink" x="0px" y="0px" viewBox="0 0 1000 1000" enable-background="new 0 0 1000 1000" xml:space="preserve">
<metadata> Svg Vector Icons : http://www.onlinewebfonts.com/icon </metadata>
<g><g transform="translate(0.000000,512.000000) scale(0.100000,-0.100000)"><path d="M4893.3,4983.6l-45.9-36.4l-9.6-2101.6L4828.3,744l-65.1,170.4c-93.8,252.7-248.8,572.3-400,828.8C3833,2637,3090.3,3272.5,2253.9,3544.3c-338.8,111-847.9,178-968.5,126.3c-109.1-45.9-135.9-160.8-59.3-250.7c44-49.8,57.4-53.6,277.5-67c622.1-42.1,1156.1-258.4,1674.8-675.7c616.3-495.7,1146.5-1324.5,1399.2-2193.5l30.6-105.3l-70.8,86.1C3848.3,1301,2828.1,1804.4,1706.5,1856.1l-252.7,11.5l-49.8-49.8c-65.1-65.1-67-168.4-5.8-231.6c40.2-40.2,68.9-45.9,283.3-57.4C2835.7,1463.7,3766,996.7,4357.4,185.1c88-120.6,308.2-524.4,308.2-564.6c0-7.7-67,30.6-147.4,86.1C4016.7,51.1,3285.5,280.8,2474,349.7c-522.5,44-622.1,19.1-622.1-155c0-34.4,17.2-74.6,44-101.4c40.2-40.2,67-45.9,312-57.4C2950.6-0.6,3542-126.9,4005.2-347c363.7-170.3,646.9-413.4,756-646.9l57.4-120.6l-1112.1-9.6l-1112.1-9.6l-36.4-44c-53.6-67-57.4-124.4-51.7-668c5.7-499.6,5.7-499.6,51.7-549.3c44-45.9,59.3-49.7,214.4-49.7c143.6,0,168.4-5.7,178-32.5c5.7-19.1,130.2-507.2,279.4-1087.2c149.3-578,279.5-1077.6,290.9-1106.3c44-114.8-24.9-109.1,1479.6-109.1c1194.4,0,1383.9,3.8,1420.2,28.7c55.5,38.3,59.3,55.5,359.8,1225c143.6,558.9,264.1,1029.8,269.9,1048.9c9.6,26.8,34.5,32.5,178,32.5c155,0,170.3,3.8,214.4,49.7c45.9,49.8,45.9,49.8,51.7,549.3c5.7,543.6,1.9,601-51.7,668l-36.4,44l-1112.1,9.6l-1112.1,9.6l57.4,122.5c70.8,147.4,256.5,346.4,442.2,470.9c482.3,323.5,1194.3,511.1,2111.2,557c245,11.5,271.8,17.2,312,57.4c26.8,26.8,44,67,44,103.4c0,153.1-72.7,181.8-409.6,166.5c-696.7-34.5-1341.7-181.8-1849-426.8c-227.8-109.1-361.7-187.6-482.3-281.4c-40.2-30.6-72.7-47.9-72.7-38.3c0,7.6,42.1,101.4,93.8,206.7c321.6,656.5,932.1,1181,1709.2,1471.9c357.9,134,736.9,208.6,1181,233.5c214.4,11.5,243.1,17.2,283.3,57.4c61.3,63.2,59.3,166.5-5.7,231.6l-49.8,49.8l-252.7-11.5c-807.7-38.3-1581-313.9-2208.8-786.7c-176.1-134-497.6-446-631.6-614.4l-61.3-76.6l30.6,105.3c250.7,867.1,780.9,1697.8,1404.9,2199.2c511.1,411.5,1050.8,627.8,1669.1,669.9c220.1,13.4,233.5,17.2,277.5,67c57.4,68.9,57.4,153.1-3.8,212.5c-51.7,53.6-53.6,53.6-258.4,49.8c-269.9-7.7-612.5-76.6-909.2-187.6c-719.7-268-1408.7-863.2-1896.8-1636.5c-145.5-231.6-379-698.6-470.9-943.6L5172.8,744l-9.6,2101.6l-9.6,2101.6l-45.9,36.4c-24.9,19.1-72.8,36.4-107.2,36.4C4966.1,5020,4918.2,5002.8,4893.3,4983.6z M7153.8-1784.5v-335H5000.5H2847.2v335v335h2153.3h2153.3V-1784.5z M6713.6-2467.8c-1.9-3.8-116.7-449.8-256.5-991.5L6202.5-4445h-1202h-1202l-254.6,985.7c-139.7,541.7-254.6,987.6-256.5,991.5c0,1.9,771.4,3.8,1713.1,3.8C5942.3-2464,6713.6-2465.9,6713.6-2467.8z"/><path d="M4066.5-2655.4c-99.5-78.5-76.6-237.3,40.2-285.2c38.3-15.3,210.5-21.1,595.3-17.2l541.7,5.7l45.9,53.6c63.2,74.7,59.3,155-9.6,225.9l-55.5,55.5h-555.1C4143-2617.1,4112.4-2619,4066.5-2655.4z"/><path d="M4564.1-3153c-59.3-47.9-80.4-124.4-49.8-195.2c36.4-88,105.3-111,331.1-111c187.6,0,202.9,3.8,258.4,49.8c44,36.4,59.3,65.1,59.3,112.9c0,151.2-57.4,181.8-340.7,181.8C4642.6-3114.7,4606.2-3120.5,4564.1-3153z"/></g></g>
</svg>