<?xml version="1.0" encoding="utf-8"?>
<!-- Svg Vector Icons : http://www.onlinewebfonts.com/icon -->
<!DOCTYPE svg PUBLIC "-//W3C//DTD SVG 1.1//EN" "http://www.w3.org/Graphics/SVG/1.1/DTD/svg11.dtd">
<svg version="1.1" xmlns="http://www.w3.org/2000/svg" xmlns:xlink="http://www.w3.org/1999/xlink" x="0px" y="0px" viewBox="0 0 1000 1000" enable-background="new 0 0 1000 1000" xml:space="preserve">
<metadata> Svg Vector Icons : http://www.onlinewebfonts.com/icon </metadata>
<g><g transform="translate(0.000000,512.000000) scale(0.100000,-0.100000)"><path d="M5516.2,4990.9c-122.6-40.2-193.4-82.3-287.3-168.5c-57.5-49.8-86.2-61.3-191.5-70.9c-160.9-15.3-273.9-55.5-388.8-139.8c-157-114.9-262.4-327.5-262.4-530.5c0-84.3-9.6-105.3-74.7-176.2c-80.4-86.2-134.1-181.9-172.4-302.6l-24.9-70.9l-80.4,67c-44,36.4-132.1,90-195.3,118.7c-226,103.4-517.1,57.5-710.5-116.8c-82.3-74.7-103.4-82.4-218.3-93.8c-381.1-34.5-628.1-281.5-662.6-662.6c-9.6-111.1-19.2-136-80.4-203c-151.3-166.6-220.2-411.7-170.4-607.1c15.3-61.3,23-111.1,17.2-111.1c-5.8,0-70.9,11.5-145.6,26.8c-72.8,15.3-204.9,32.6-289.2,40.2c-268.1,23-329.4-42.1-306.4-331.3c7.7-91.9,26.8-226,42.1-296.8c197.3-940.3,993.9-1694.9,1938.1-1836.6l137.9-19.2v-180v-180H2835h-555.4l-61.3-55.5l-63.2-55.5v-605.2v-605.2l53.6-51.7c47.9-49.8,65.1-53.6,233.6-59.4c99.6-3.8,181.9-11.5,181.9-15.3c0-34.5,601.3-2330.7,622.4-2378.6c15.3-34.5,49.8-70.9,78.5-80.4c30.6-11.5,605.2-19.2,1511-19.2h1463.2l51.7,44c55.5,47.9,55.5,51.7,478.8,1702.5l189.6,743.1h145.5c180,0,258.5,26.8,294.9,97.7c42.1,78.5,42.1,1162.5,1.9,1241c-46,88.1-97.7,97.7-490.3,97.7h-363.9v95.8c0,95.8,0,95.8,63.2,95.8c91.9,1.9,367.7,67,517.1,122.6c873.3,329.4,1472.7,1126.1,1537.8,2043.4c11.5,178.1,11.5,181.9-40.2,243.2c-49.8,59.4-55.5,61.3-201.1,61.3c-300.7,0-633.9-84.3-942.2-239.4l-164.7-82.4l-78.5,91.9c-61.3,72.8-78.5,109.2-78.5,166.6c0,185.8-95.8,392.6-237.5,517.1l-84.3,74.7l57.5,116.8c34.5,72.8,67,176.2,80.4,268.1c19.2,130.2,30.6,162.8,101.5,249c82.3,105.3,145.5,247.1,166.6,379.2c26.8,160.9-61.3,411.8-191.5,545.8c-46,49.8-65.1,86.2-65.1,128.3c0,34.5-9.6,107.2-21.1,162.8c-69,329.4-308.3,538.1-649.2,565c-111.1,9.6-132.1,19.2-206.8,86.2C5993.1,5000.5,5730.7,5061.7,5516.2,4990.9z M5893.5,4623.2c34.5-19.2,82.3-68.9,107.2-109.2c80.4-128.3,113-139.8,312.2-111.1c78.5,11.5,111.1,7.7,174.3-24.9c162.8-84.3,235.6-229.8,199.2-398.3c-28.7-128.3-7.7-181.9,111.1-264.3c107.2-76.6,155.1-164.7,155.1-289.2c0-124.5-46-212.6-153.2-293c-124.5-93.8-143.6-139.8-116.8-264.3c32.6-143.6,5.7-231.7-103.4-331.3c-45.9-42.1-99.6-78.5-116.8-78.5c-17.2,0-65.1,30.6-109.2,67c-44,38.3-126.4,91.9-185.8,120.6c-90,44.1-128.3,51.7-277.7,51.7c-145.5,0-189.6-7.7-279.6-49.8c-59.4-28.7-143.6-82.3-187.7-122.6c-74.7-68.9-84.3-70.9-243.2-78.5c-199.2-9.6-298.8,26.8-383,137.9c-51.7,67-55.5,82.3-55.5,256.6c0,201.1-7.7,220.2-116.8,287.3c-84.3,53.6-136,141.7-153.2,262.4c-17.2,134.1,38.3,250.9,155.1,325.6c109.2,68.9,126.4,111.1,113,279.6c-15.3,172.4,19.2,258.5,132.1,340.9c93.8,67,180,86.2,291.1,57.5c113-28.7,166.6-5.8,249,109.1c36.4,51.7,95.8,109.2,130.2,126.4C5629.2,4674.9,5816.9,4671.1,5893.5,4623.2z M3748.6,3378.4c34.5-21.1,88.1-74.7,120.6-118.7c78.5-107.2,124.5-132.1,224.1-118.7c68.9,9.6,80.4,5.7,91.9-28.7c5.7-21.1,47.9-86.2,91.9-139.8c68.9-88.1,82.4-120.6,101.5-247c28.7-193.4,97.7-340.9,216.4-453.9l95.8-91.9l-59.4-116.8c-36.4-72.8-67-176.2-80.4-270c-17.2-126.4-30.6-162.8-82.4-222.1c-72.8-80.4-124.5-178.1-159-293c-28.7-91.9-57.5-105.3-178.1-76.6c-114.9,24.9-181.9,0-252.8-101.5c-86.2-122.6-145.6-159-275.8-168.5c-128.3-9.6-233.7,30.6-285.4,107.2c-67,101.5-459.6,476.9-570.7,549.6c-93.8,59.4-120.6,88.1-134.1,141.7c-13.4,47.9-44,88.1-113,139.8c-122.6,91.9-162.8,166.6-162.8,302.6c0,134.1,46,220.2,155.1,298.8c116.8,80.4,137.9,132.1,109.2,254.7c-40.2,176.2,53.6,348.6,226,415.6c74.7,28.7,99.6,28.7,189.6,9.6c132.1-28.7,183.9-7.7,268.1,113c32.6,47.9,90,101.5,126.4,118.7C3501.5,3430.1,3670,3428.2,3748.6,3378.4z M6052.4,2307.8c36.4-19.1,91.9-70.9,122.6-116.8c72.8-107.2,145.5-137.9,268.1-111.1c128.3,26.8,204.9,7.7,306.4-82.3c109.2-97.7,139.8-185.8,113-333.2c-23-130.2,1.9-199.2,97.7-256.6c38.3-24.9,80.4-61.3,95.8-82.4c26.8-36.4,21.1-46-76.6-136c-128.3-116.8-317.9-358.1-427.1-542c-74.7-126.4-210.7-434.7-212.6-476.9c0-9.6-24.9-32.6-55.5-51.7c-32.6-17.2-80.4-67-107.3-111.1c-126.4-201.1-471.1-201.1-574.5,0c-15.3,28.7-49.8,72.8-78.5,93.9c-44,34.5-68.9,38.3-216.4,28.7c-189.6-11.5-241.3,9.6-339,137.9c-51.7,67-55.5,82.3-55.5,254.7v183.8l-84.3,101.5c-46,53.6-91.9,99.6-99.6,99.6c-46,0-74.7,67-74.7,174.3c0,137.9,34.5,229.8,105.3,277.7c28.7,21.1,78.5,61.3,111.1,90c55.5,51.7,55.5,55.5,42.1,195.3c-15.3,166.6,21.1,273.9,122.6,360c80.4,67,132.1,78.5,281.5,65.1c158.9-15.3,197.2,0,283.4,120.6c38.3,53.6,97.7,111.1,132.1,124.5C5820.7,2353.8,5973.9,2351.9,6052.4,2307.8z M1973.3,1566.7c195.3-49.8,473-191.5,668.4-342.8c143.6-109.2,358.1-337.1,452-478.8c134.1-204.9,247-509.4,285.3-779.5l13.4-91.9h-65.1c-201.1,0-628.2,159-879,327.5c-423.2,285.3-737.3,800.5-810.1,1332.9l-13.4,97.7l84.3-9.6C1754.9,1616.5,1873.7,1591.6,1973.3,1566.7z M8358.2,1344.5c-19.2-147.5-95.8-402.2-168.5-561.1C7921.6,203.1,7341.3-222,6699.7-304.4c-111.1-15.3-109.1-21.1-45.9,245.1c113,459.6,308.3,773.7,677.9,1084c128.3,111.1,239.4,183.8,362,241.3c187.7,90,482.6,176.2,605.2,178.1h72.8L8358.2,1344.5z M4401.6,741.3l61.3-107.2V-109v-745h-86.2h-86.2V-1.8c0,670.3,5.7,852.2,24.9,852.2C4326.9,848.5,4367.1,800.6,4401.6,741.3z M3926.7-97.6V-854h-86.2h-86.2v725.8v723.9l72.8,30.6c38.3,15.3,76.6,28.7,86.2,30.6C3920.9,658.9,3926.7,318,3926.7-97.6z M5106.4-214.4l65.1-11.5V-540V-854h-172.4h-172.4v379.2v381.1l107.2-53.6C4993.4-178,5070-206.7,5106.4-214.4z M5707.7-666.4V-854h-86.2h-86.2v227.9v227.9l86.2-40.2l86.2-40.2V-666.4z M6243.9-624.2V-854h-86.2h-86.2v187.7v187.7l82.3,40.2c44.1,23,82.4,42.1,86.2,42.1C6242-394.4,6243.9-497.8,6243.9-624.2z M7124.9-1572.2v-354.3H4817.2H2509.5v354.3v354.3h2307.7h2307.7V-1572.2z M6646.1-2309.5c0-15.3-400.2-1585.7-519-2033.8l-19.2-72.8H4821h-1287L3266-3376.2c-145.6,570.7-270,1049.5-273.9,1062.9c-5.8,17.2,365.8,23,1823.2,23C6058.2-2290.4,6646.1-2296.1,6646.1-2309.5z"/><path d="M5636.9,3579.4c-116.8-49.8-137.9-185.8-46-279.6c111.1-111.1,287.3-42.1,289.2,113c0,88.1-30.6,136-105.3,168.5C5698.1,3612,5713.5,3613.9,5636.9,3579.4z"/><path d="M3480.4,2323.1c-21.1-11.5-47.9-49.8-63.2-86.2c-23-55.5-23-74.7,0-130.2c49.8-122.6,185.8-145.6,281.5-51.7c70.9,70.9,72.8,151.3,5.7,229.8c-38.3,46-65.1,59.4-118.7,59.4C3545.6,2344.2,3499.6,2334.6,3480.4,2323.1z"/><path d="M5847.5,1275.6c-23-3.8-65.1-32.6-93.8-67c-63.2-74.7-53.6-172.4,21.1-237.5c88.1-78.5,214.5-51.7,270,53.6C6111.8,1154.9,5998.8,1300.5,5847.5,1275.6z"/><path d="M3809.8-2518.2c-93.8-95.8-67-237.5,55.5-287.3c38.3-15.3,220.2-21.1,633.9-17.2l580.3,5.7l46,53.6c65.1,74.7,63.2,183.9-3.8,250.9l-51.7,49.8h-601.4h-603.3L3809.8-2518.2z"/><path d="M4340.3-3048.7c-67-67-68.9-176.2-3.8-250.9c46-51.7,51.7-53.6,270-59.4c239.4-7.7,316,9.6,363.9,80.4c44,61.3,34.5,153.2-21.1,220.2l-49.8,59.4h-254.7C4395.9-2998.9,4390.1-3000.8,4340.3-3048.7z"/></g></g>
</svg>