<?xml version="1.0" encoding="utf-8"?>
<!-- Svg Vector Icons : http://www.onlinewebfonts.com/icon -->
<!DOCTYPE svg PUBLIC "-//W3C//DTD SVG 1.1//EN" "http://www.w3.org/Graphics/SVG/1.1/DTD/svg11.dtd">
<svg version="1.1" xmlns="http://www.w3.org/2000/svg" xmlns:xlink="http://www.w3.org/1999/xlink" x="0px" y="0px" viewBox="0 0 1000 1000" enable-background="new 0 0 1000 1000" xml:space="preserve">
<metadata> Svg Vector Icons : http://www.onlinewebfonts.com/icon </metadata>
<g><g transform="translate(0.000000,512.000000) scale(0.100000,-0.100000)"><path d="M2368.1,5006.9c-91.9-36.4-155-149.3-256.5-455.6c-38.3-116.8-74.6-222-80.4-237.4c-5.7-19.1-101.4,63.2-290.9,252.7C1481.9,4825,1453.2,4848,1390,4848c-93.8,0-170.4-74.6-170.4-168.4c0-63.2,28.7-95.7,348.4-419.2l350.3-352.2l1.9-348.4c0-315.8,5.7-365.6,53.6-539.8c61.3-231.6,218.2-560.8,363.7-759.9l105.3-149.3h-354.1c-375.2,0-463.2-15.3-503.4-91.9c-38.3-72.7-24.9-157,34.4-216.3l55.5-55.5h543.6h541.7l505.3-505.3l507.2-507.2l-365.6-5.7c-357.9-5.7-367.5-7.7-415.4-51.7c-68.9-65.1-68.9-187.6,0-252.7c49.8-45.9,49.8-45.9,555.1-51.7l505.3-5.8l76.6-137.8c76.6-137.8,176.1-419.2,197.2-553.2l11.5-70.8l-118.7,45.9c-65.1,24.9-222,84.2-346.5,132.1c-248.8,97.6-300.5,99.5-375.2,21.1c-55.5-59.3-57.4-172.3-1.9-227.8c23-21.1,218.2-109.1,438.3-193.3c436.4-172.3,405.8-145.5,377.1-310.1l-11.5-63.2h-851.8c-905.4,0-953.2-3.8-1001.1-91.9c-13.4-26.8-21.1-239.3-21.1-612.5v-572.3l49.8-49.8c45.9-45.9,65.1-51.7,223.9-55.5l174.2-5.7L3172-3533.9c273.7-1060.4,302.4-1158,350.3-1200.1l53.6-45.9H5000h1424.1l51.7,45.9c49.8,40.2,78.5,141.7,352.2,1200.1l298.6,1156.1l160.8,5.7c179.9,3.8,233.5,23,266.1,93.8c28.7,63.2,28.7,1140.8,0,1196.3c-47.9,90-82.3,91.9-1184.8,91.9c-1001.1,0-1033.6,1.9-1016.4,34.4c11.5,21.1,191.4,141.7,400,269.9c210.6,126.3,396.2,248.8,415.4,268c47.9,53.6,42.1,166.5-9.6,222c-91.9,97.6-128.2,88.1-463.2-114.9c-168.4-101.4-308.2-181.8-310.1-178c-3.8,1.9-13.4,84.2-19.1,179.9l-13.4,174.2L5467.1-56c185.7,124.4,442.1,202.9,916.9,283.3l197.1,34.5L6852.9-8.1c149.3-149.3,290.9-279.5,315.8-292.9c103.4-51.7,233.5,40.2,233.5,168.4c0,59.4-23,90-210.6,281.4l-212.5,214.4l134,51.7c72.7,28.7,202.9,97.6,289,155l158.9,103.4L7859.7,457c164.6-118.7,317.7-227.8,342.6-239.3c135.9-70.8,289,107.2,214.4,246.9c-13.4,26.8-407.7,327.3-580,442.2c-9.6,7.7,19.2,59.3,61.3,114.9c44,57.4,97.6,141.6,120.6,187.6c38.3,80.4,51.7,88,369.4,241.2c340.7,162.7,392.4,202.9,392.4,302.4c0,80.4-32.5,128.2-109.1,158.9c-67,28.7-68.9,28.7-371.3-112.9l-302.4-143.6l-44,65.1c-23,34.4-80.4,86.1-124.4,114.8l-82.3,51.7v313.9c0,308.2,0,313.9-47.9,359.8c-32.5,34.5-67,47.9-118.7,47.9c-153.1-1.9-178-59.3-178-419.2v-287.1l-82.3-36.4c-51.7-23-116.8-76.6-168.4-139.7c-147.4-178-233.5-254.6-373.3-327.3c-122.5-65.1-447.9-168.4-528.3-168.4c-26.8,0-32.6,36.4-38.3,296.7c-5.7,289-7.7,296.7-55.5,346.5c-76.6,74.7-178,72.7-248.8-7.7l-55.5-61.3v-323.5v-325.4l-109.1-21.1c-212.5-44-438.3-118.7-587.6-193.3c-82.3-40.2-157-74.6-164.6-74.6c-9.6,0-68.9,107.2-134,237.3c-135.9,271.8-137.8,304.3-36.4,507.2c80.4,160.8,252.7,313.9,668,595.3c388.6,264.1,593.4,442.2,714,625.9l78.5,120.6h415.4h415.4l59.4,49.8c78.5,65.1,84.2,176.1,11.5,246.9c-45.9,47.9-49.7,47.9-398.1,47.9c-193.3,0-356,3.8-361.8,9.6c-3.8,5.7,0,55.5,9.6,111l19.1,103.4l352.2,158.9c195.2,88.1,371.3,176.1,390.5,197.1c53.6,59.3,47.9,176.1-11.5,233.5c-72.7,74.6-143.6,61.3-447.9-76.6c-151.2-68.9-281.3-124.4-290.9-124.4c-9.6,0-17.2,13.4-17.2,28.7c0,59.3-63.2,214.4-114.8,279.5l-53.6,67l141.6,248.8c158.9,281.4,176.1,357.9,93.8,438.3c-53.6,55.5-151.2,63.2-214.4,19.1c-23-17.2-109.1-149.3-191.4-296.7l-149.3-268h-95.7c-109.1,0-223.9-47.9-302.4-124.4c-63.2-59.3-24.9-78.5-402,193.3c-191.4,139.7-262.2,179.9-310.1,179.9c-74.6,0-153.1-57.4-170.4-126.3c-26.8-103.4,19.1-151.2,365.6-403.9c245-174.2,342.6-256.5,359.9-300.5c80.4-189.5,44-354.1-112.9-522.6l-103.3-111l-220.1,216.3c-195.2,191.4-225.9,214.4-285.2,214.4c-128.2,0-220.1-130.2-168.4-233.5c13.4-24.9,103.4-126.3,202.9-225.9l179.9-181.8l-233.5-153.1c-277.5-181.8-520.6-413.5-662.3-629.8c-53.6-84.2-101.5-160.8-105.3-172.3c-17.2-53.6-549.4,465.1-692.9,675.7l-93.8,137.8l434.5,434.5c373.3,375.2,436.4,446,447.9,505.3c9.6,61.2,1.9,78.5-47.9,130.2c-44,44-74.7,57.4-130.2,57.4c-68.9,0-93.8-21.1-459.4-384.7l-384.7-384.7l-13.4,90c-7.7,47.8-7.7,206.7,0,352.2c13.4,294.8-5.8,426.9-111,729.3c-72.7,208.6-229.7,536-277.5,578.1C2505.9,5005,2412.1,5024.1,2368.1,5006.9z M2553.8,4120.6c40.2-134,47.8-193.3,42.1-335c-13.4-405.8-1.9-568.5,49.8-746.5c111-377.1,361.8-714,865.2-1154.2c329.2-287.1,359.9-310.1,438.3-310.1c88.1,0,134,49.8,185.7,195.2c120.6,336.9,302.4,530.2,817.3,867.1c438.3,287.1,624,457.5,731.2,673.8c84.2,166.5,103.4,300.5,70.8,455.6c-13.4,63.2-24.9,153.1-24.9,201c-1.9,84.2,0,86.1,80.4,112.9c68.9,21.1,91.9,21.1,153.1-3.8c93.8-36.4,137.8-151.2,151.2-386.7c11.5-202.9-21.1-357.9-112.9-541.7c-101.4-204.8-246.9-338.8-652.7-614.4c-202.9-135.9-424.9-296.7-497.7-356c-245-202.9-396.2-444.1-434.5-692.9c-19.1-126.3-17.2-145.5,28.7-285.2c45.9-137.8,84.2-214.4,291-597.2c107.2-193.3,178-204.8,401.9-61.3C5386.7,702,5513,740.3,6148.5,857.1c689.1,124.4,953.2,262.2,1269,658.5c59.4,74.6,68.9,78.5,134,67c111-21.1,176.1-76.6,176.1-147.4c0-160.8-338.8-507.2-641.2-656.6c-193.3-95.7-350.3-139.7-754.2-210.5C5647,449.4,5331.1,323,5088,74.2c-67-68.9-84.2-99.5-84.2-149.3c1.9-34.5,7.6-187.6,15.3-340.7c5.7-153.1,5.7-342.6-3.8-421.1L5000-980.5l-176.1-5.7l-178-5.7l15.3,63.2c7.7,34.4,13.4,197.1,11.5,359.9c0,243.1-7.7,325.4-42.1,451.7c-88,329.2-258.4,647-511.1,955.1c-86.1,105.3-411.5,446-721.6,756.1c-604.8,606.8-796.3,834.6-941.7,1127.4c-252.7,503.4-268,911.1-65.1,1600.2l40.2,134l36.4-86.1C2488.7,4321.6,2527,4210.6,2553.8,4120.6z M7229.9-1681v-342.6H5000H2770.1v342.6v342.6H5000l2229.9,1.9V-1681z M6766.7-2400.8c-5.7-19.1-124.4-484.3-266.1-1033.6l-256.5-1001.1H5000H3755.8l-256.5,1001.1C3357.7-2885,3239-2419.9,3233.3-2400.8c-7.7,30.6,86.1,32.5,1766.7,32.5C6680.6-2368.2,6774.4-2370.1,6766.7-2400.8z"/><path d="M4048.7-2569.2c-63.2-34.5-99.5-137.8-74.6-206.7c40.2-107.2,55.5-109.1,683.3-109.1c545.5,0,580,1.9,625.9,38.3c93.8,74.7,80.4,222-26.8,277.5C5178-2527.1,4125.2-2529,4048.7-2569.2z"/><path d="M4563.6-3078.3c-53.6-30.6-93.8-128.3-80.4-191.4c24.9-109.1,82.3-132.1,344.5-132.1s319.7,23,344.5,132.1c13.4,65.1-28.7,162.7-84.2,193.3C5040.2-3051.6,4607.6-3051.6,4563.6-3078.3z"/></g></g>
</svg>