<?xml version="1.0" encoding="utf-8"?>
<!-- Svg Vector Icons : http://www.onlinewebfonts.com/icon -->
<!DOCTYPE svg PUBLIC "-//W3C//DTD SVG 1.1//EN" "http://www.w3.org/Graphics/SVG/1.1/DTD/svg11.dtd">
<svg version="1.1" xmlns="http://www.w3.org/2000/svg" xmlns:xlink="http://www.w3.org/1999/xlink" x="0px" y="0px" viewBox="0 0 1000 1000" enable-background="new 0 0 1000 1000" xml:space="preserve">
<metadata> Svg Vector Icons : http://www.onlinewebfonts.com/icon </metadata>
<g><g transform="translate(0.000000,512.000000) scale(0.100000,-0.100000)"><path d="M4735.1,4984.1c-204.9-53.6-358.1-143.6-522.8-306.4c-111.1-109.2-164.7-181.9-224.1-300.7c-97.7-199.2-124.5-329.4-114.9-559.2c13.4-294.9,116.8-520.9,333.2-737.3c166.6-166.6,314.1-247,597.5-329.4c17.2-5.7,23-153.2,23-658.8v-651.1h-130.2h-128.3l-180,180l-178.1,178.1l44.1,84.3c97.7,193.4,116.8,381.1,57.5,570.7c-49.8,162.8-116.8,268.1-241.3,381.1c-323.6,296.8-748.8,296.8-1072.4,0c-363.9-331.3-365.8-833-7.7-1173.9c252.8-241.3,561.1-294.9,877.1-151.3l111.1,47.9l227.9-229.8l227.9-231.7h197.2h195.3V282.7v-813.9h-120.6h-118.7L4400-343.5l-187.7,187.7L4264-54.3c151.3,302.6,86.2,649.2-168.5,903.9c-285.3,287.3-679.8,325.6-1009.2,97.7c-227.9-155.1-352.4-384.9-354.3-654.9c-3.8-268.1,107.2-484.5,329.4-654.9c252.8-191.5,586-220.2,844.5-68.9l65.1,36.4L4204.7-627l235.5-233.6l193.4,1.9l193.4,3.8v-164.7v-162.8H3927c-949.9,0-990.1-3.8-1022.6-86.2c-5.8-17.2-11.5-279.6-11.5-582.2v-551.5l44-40.2c36.4-34.5,67-42.1,172.4-42.1c80.4,0,132.1-9.6,141.7-23c7.7-13.4,176.2-515.1,373.4-1114.6c197.2-599.4,371.5-1103,388.7-1120.3c26.8-26.8,137.9-30.6,957.5-36.4c798.6-3.8,936.4,0,984.3,24.9c53.6,26.8,72.8,80.4,363.8,961.3c168.5,515.1,329.4,1007.3,356.2,1097.3c28.7,90,61.3,174.2,70.9,185.8c13.4,15.3,68.9,24.9,147.5,24.9c109.2,0,136,7.7,170.4,44c38.3,40.2,40.2,61.3,42.1,587.9c1.9,300.7-1.9,561.1-9.6,580.3c-36.4,86.2-68.9,90-1024.5,90h-900.1v76.6v76.6H5346c95.8,0,189.6,7.7,208.7,19.2c19.2,9.6,132.1,116.8,249,239.4l216.4,218.3l80.4-47.9c46-24.9,143.6-59.4,218.3-74.7c247-51.7,476.8,17.2,681.7,204.9c124.5,113,191.5,218.3,241.3,381.1c46,147.5,46,270,0,417.5c-49.8,162.8-116.8,268.1-241.3,381.1c-329.4,300.7-748.8,298.8-1078.2-5.7c-170.4-157-271.9-375.4-271.9-586c0-97.7,42.1-258.5,99.6-369.6l38.3-74.7l-178.1-178.1l-180-180H5302h-130.2V43.3V771h195.3h193.4l233.6,229.8l231.7,231.7l107.2-49.8c57.5-26.8,155.1-57.5,214.5-70.9c367.7-72.8,796.6,222.1,903.9,624.3c36.4,136,32.5,254.7-11.5,398.3c-68.9,224.1-239.4,419.4-455.8,526.6c-99.6,49.8-128.3,53.6-319.8,53.6c-191.5,0-220.2-3.8-319.8-53.6c-59.4-28.7-151.3-91.9-204.9-139.8c-277.7-250.9-360-607.1-212.6-923l59.4-126.4l-187.7-187.7l-187.7-187.7h-118.7h-120.7V1920c0,643.5,5.8,825.4,24.9,831.1c281.5,82.4,429,162.8,595.6,329.4c216.4,216.4,319.8,442.4,333.2,737.3c9.6,229.8-17.2,360-116.8,559.2c-57.5,116.8-114.9,193.4-222.1,300.7c-168.5,166.6-316,252.8-530.5,306.4C5072.2,5032,4917.1,5032,4735.1,4984.1z M5219.6,4666.2c229.8-59.4,398.3-193.4,497.9-398.3c120.6-247,124.5-528.6,9.6-767.9c-74.7-155.1-245.1-316-392.6-371.5c-174.3-65.1-162.8-84.3-162.8,287.3c0,398.3-21.1,455.8-172.3,455.8s-172.4-57.5-172.4-455.8c0-371.5,11.5-352.4-162.8-287.3c-147.5,55.5-317.9,216.4-392.6,371.5c-114.9,239.4-111.1,520.9,9.6,767.9C4444.1,4603,4834.7,4767.7,5219.6,4666.2z M3770,2680.3c166.6-76.6,264.3-268.1,247-482.6c-3.8-67-15.3-130.2-23-143.6c-7.7-13.4-51.7,15.3-124.5,84.3c-86.2,82.4-126.4,107.2-170.4,107.2c-74.7,0-151.3-68.9-166.6-147.5c-11.5-55.5-1.9-72.8,99.6-178.1c122.6-130.2,120.6-139.8-24.9-162.8c-197.2-28.7-409.8,70.9-501.7,237.5c-53.6,97.7-72.8,281.5-42.1,398.3C3139.9,2678.4,3478.9,2816.3,3770,2680.3z M6721,2343.3c91.9-47.9,183.8-166.6,214.5-277.7c28.7-107.2,11.5-293-36.4-386.8c-86.2-170.4-289.2-273.9-490.2-249c-164.7,21.1-168.5,32.6-42.1,164.7c101.5,105.3,111.1,122.6,99.6,178.1c-15.3,78.5-91.9,147.5-166.6,147.5c-44,0-84.3-24.9-170.4-107.2c-72.8-68.9-116.8-97.7-124.5-84.3c-26.8,42.1-32.6,258.5-11.5,337.1C6071.8,2358.6,6426.1,2492.6,6721,2343.3z M3722.1,740.4c197.3-67,316-273.8,294.9-507.5c-5.8-61.3-15.3-120.7-23-132.1c-7.7-13.4-49.8,13.4-114.9,74.7c-55.5,53.6-122.6,101.5-149.4,107.2c-105.3,26.8-227.9-101.5-195.3-203c7.7-24.9,57.4-90,111.1-145.6l93.8-101.5l-49.8-19.2c-28.7-9.6-97.7-19.2-153.2-19.2c-271.9,0-461.5,170.4-484.5,438.5c-21.1,229.8,97.7,440.5,287.3,507.5C3446.3,776.8,3612.9,778.7,3722.1,740.4z M6671.2,571.9c160.9-67,262.4-214.5,275.8-404.1c23-273.8-126.4-480.7-377.3-526.6c-101.5-19.2-271.9-3.8-300.7,26.8c-7.6,7.6,32.6,59.4,90,116.8c86.2,88.1,103.4,114.9,103.4,174.3c0,53.6-13.4,80.4-53.6,114.9c-86.2,76.6-151.3,61.3-281.5-61.3c-134.1-128.3-141.7-122.6-141.7,116.8c0,178.1,46,281.5,166.6,379.2C6282.5,612.1,6508.4,640.8,6671.2,571.9z M6790-1839.2v-321.7l-1771.4,1.9c-974.8,0-1782.9,0-1794.4,0c-19.1,0-24.9,74.7-24.9,312.1c0,172.4,5.7,319.8,13.4,325.6c5.7,7.7,813.9,11.5,1794.4,7.7l1782.9-3.8V-1839.2z M6391.6-2526.7c-3.8-13.4-149.4-453.9-319.8-976.7L5757.8-4457h-758.4h-758.4L3927-3503.3c-170.4,522.8-316,963.3-321.7,976.7c-5.8,17.2,279.6,23,1394.1,23C6114-2503.7,6399.3-2509.4,6391.6-2526.7z"/><path d="M4070.6-2704.8c-65.1-63.2-65.1-166.6,0-229.8l46-47.9h557.3h557.3l45.9,47.9c32.6,30.6,47.9,67,47.9,114.9c0,47.9-15.3,84.3-47.9,114.9l-45.9,47.9h-557.3h-557.3L4070.6-2704.8z"/><path d="M4604.9-3162.5c-113-49.8-130.2-203-32.6-279.6c42.1-32.6,78.5-38.3,264.3-38.3s222.1,5.7,264.3,38.3c101.5,80.4,74.7,243.2-46,285.3C4970.7-3128,4677.7-3131.8,4604.9-3162.5z"/></g></g>
</svg>