<?xml version="1.0" encoding="utf-8"?>
<!-- Svg Vector Icons : http://www.onlinewebfonts.com/icon -->
<!DOCTYPE svg PUBLIC "-//W3C//DTD SVG 1.1//EN" "http://www.w3.org/Graphics/SVG/1.1/DTD/svg11.dtd">
<svg version="1.1" xmlns="http://www.w3.org/2000/svg" xmlns:xlink="http://www.w3.org/1999/xlink" x="0px" y="0px" viewBox="0 0 1000 1000" enable-background="new 0 0 1000 1000" xml:space="preserve">
<metadata> Svg Vector Icons : http://www.onlinewebfonts.com/icon </metadata>
<g><g transform="translate(0.000000,512.000000) scale(0.100000,-0.100000)"><path d="M4823.9,4991.3c-23-15.3-101.4-109.1-174.2-206.7c-610.6-813.5-725.4-1510.2-319.7-1961.9c82.3-91.9,315.8-233.5,384.7-233.5c23,0,26.8-126.3,26.8-731.2v-733.1l-312,312l-312,312l57.4,118.7c47.9,99.5,59.3,147.4,65.1,300.5c9.6,208.6-28.7,356-137.8,524.5c-241.2,377.1-867.1,683.3-1661.4,809.6c-179.9,28.7-212.5,28.7-256.5,3.8c-86.1-44-93.8-90-68.9-361.8c93.8-1043.2,503.4-1672.9,1148.4-1764.8c189.5-26.8,325.4-5.7,503.4,72.7l114.8,51.7l430.7-428.8l428.7-428.8v-842.2V-1038l-313.9,313.9l-312,312l57.4,118.7c114.8,227.8,88,591.4-61.2,815.4c-126.3,187.6-356,379-604.8,503.4c-371.3,185.7-1184.8,384.7-1320.7,323.5c-86.1-38.3-95.7-93.8-70.8-363.7c86.1-960.9,444.1-1579.1,999.1-1732.2c252.7-68.9,461.3-55.5,652.7,42.1l109.1,53.6l235.4-235.4l237.3-237.3h-903.4h-903.4l-53.6-45.9l-53.6-45.9l-5.7-514.9c-3.8-281.4,0-541.7,5.7-576.1c19.1-101.4,74.6-137.8,214.4-137.8c67,0,120.6-1.9,122.5-3.8c0-3.8,36.4-509.1,82.3-1123.6l80.4-1117.8l53.6-44l51.7-45.9h1872c1850.9,0,1873.9,0,1921.7,38.3c26.8,21,53.6,53.6,59.3,72.7c5.8,17.2,45.9,516.8,88.1,1110.1c42.1,593.4,80.4,1087.2,88,1096.7c5.7,9.6,61.3,17.2,124.4,17.2c95.7,0,122.5,7.7,160.8,47.9l47.9,45.9v557v558.9l-55.5,55.5l-55.5,55.5H6470h-819.2l235.4,235.4l235.4,235.4l109.1-53.6c199.1-97.6,403.9-111,654.6-40.2c553.2,153.1,913,777.1,999.1,1726.5c24.9,275.6,15.3,329.2-70.8,369.4c-135.9,61.2-949.4-137.8-1320.7-323.5c-369.4-185.7-631.6-459.4-708.2-740.7c-51.7-189.5-34.5-426.8,42.1-578l57.4-118.7l-356-356c-250.7-250.7-369.4-356-400-356h-42.1v800.1v798.2l516.8,516.8l516.8,514.9l103.3-49.8c400-197.2,928.3-45.9,1225,350.3c235.4,313.9,384.7,767.5,436.4,1332.2c24.9,277.5,17.2,321.6-68.9,367.5c-44,24.9-76.6,24.9-256.5-3.8c-472.8-76.6-899.6-218.2-1217.4-403.9c-160.8-95.7-369.4-285.2-451.7-415.4c-162.7-250.8-181.8-610.6-47.9-851.8l42.1-80.4l-398.1-398.1l-400-400v805.8v803.9l111,34.4c363.7,112.9,652.7,516.8,654.6,916.8c0,396.2-250.8,882.4-696.7,1339.8C5015.3,4997,4982.8,5020,4929.2,5020C4892.8,5020,4846.9,5006.6,4823.9,4991.3z M5191.4,4311.8c112.9-147.4,246.9-398.1,287.1-543.6c45.9-158.9,32.5-409.6-28.7-528.3c-65.1-128.3-151.2-229.7-246.9-290.9c-47.9-28.7-93.8-53.6-101.4-53.6c-7.7,0-15.3,344.5-15.3,765.6c0,421.1,3.8,765.6,7.6,765.6C5099.5,4426.6,5143.6,4375,5191.4,4311.8z M4741.6,3622.7c0-798.2,11.5-750.3-139.7-599.1c-218.2,216.3-243.1,555.1-70.8,937.9c65.1,143.5,189.5,369.4,201,369.4C4737.8,4330.9,4741.6,4011.3,4741.6,3622.7z M3162.5,2981.5c325.4-122.5,591.4-319.6,694.8-514.9c44-84.2,51.7-120.6,51.7-273.7c0-95.7-7.7-181.8-15.3-189.5c-7.7-9.6-266.1,235.4-574.2,543.6l-558.9,558.9l137.8-38.3C2974.9,3046.6,3093.6,3008.3,3162.5,2981.5z M6680.5,2547c-308.2-308.2-566.6-553.2-574.2-543.6c-7.7,7.6-15.3,93.8-15.3,189.5c0,153.1,7.6,189.5,51.7,273.7c97.6,187.6,356,382.8,666.1,505.3c86.1,34.4,388.6,130.2,421.1,132.1C7235.6,3105.9,6988.7,2855.2,6680.5,2547z M3631.4,1743.1c0-5.7-42.1-21-91.9-32.5c-124.4-26.8-323.5,3.8-455.6,68.9c-269.9,132.1-497.7,520.6-589.5,999.1l-26.8,141.6l581.9-581.9C3369.2,2018.8,3631.4,1750.8,3631.4,1743.1z M7526.6,2882c-38.3-189.5-57.4-266.1-99.5-398.1c-143.6-453.6-405.8-725.4-742.7-773.3c-126.3-19.1-315.8,1.9-315.8,32.5c0,11.5,1150.3,1171.4,1161.8,1171.4C7530.4,2914.5,7530.4,2899.2,7526.6,2882z M3047.7,860.7c308.2-101.4,625.9-289,729.3-428.8C3886,286.5,3909,213.8,3909,30c0-95.7-7.7-181.8-15.3-189.5c-7.7-9.6-266.1,237.3-574.2,543.6C2710.8,994.7,2726.1,967.9,3047.7,860.7z M6680.5,384.1C6372.4,76,6115.9-169,6108.2-161.4c-7.6,5.7-17.2,72.7-23,145.5c-23,323.5,153.1,555.1,581.9,761.8c151.2,74.6,486.2,191.4,553.2,195.2C7229.9,943,6988.7,692.3,6680.5,384.1z M3623.8-429.3c-7.7-7.6-103.4-15.3-210.5-15.3c-179.9,0-202.9,3.8-321.6,63.2c-289,141.7-511.1,522.5-604.8,1037.4l-19.1,101.4l585.7-585.7C3375-151.8,3633.4-421.7,3623.8-429.3z M7495.9,585.1c-109.1-505.3-304.3-826.9-587.6-966.6c-118.7-59.3-141.6-63.2-321.6-63.2c-107.2,0-202.9,7.7-210.5,15.3c-11.5,11.5,1131.2,1181,1152.3,1181C7530.4,751.6,7517,677,7495.9,585.1z M7072.9-1788.3l3.8-331.1H6983c-132.1,0-191.4-26.8-220.1-99.5c-15.3-40.2-51.7-463.2-95.7-1106.3c-38.3-574.2-74.6-1062.3-80.4-1087.2l-7.6-42.1H4913.9c-916.8,0-1665.2,1.9-1665.2,5.7c0,1.9-34.4,482.3-76.6,1066.1s-76.6,1081.4-76.6,1106.3c0,24.9-24.9,70.8-55.5,101.4c-49.8,47.9-70.8,55.5-162.7,55.5h-107.2v335v333.1l2149.5-3.8l2147.6-3.8L7072.9-1788.3z"/><path d="M3332.8-2148.2c-63.2-42.1-90-130.1-80.4-258.4c5.7-86.1,19.1-126.3,53.6-162.7c61.3-65.1,174.2-67,239.3,0c42.1,40.2,47.9,63.2,47.9,191.4c0,135.9-3.8,151.2-55.5,202.9C3474.5-2113.7,3396-2102.2,3332.8-2148.2z"/><path d="M3809.4-2165.4c-49.8-44-53.6-55.5-53.6-199.1c0-135.9,5.7-158.9,45.9-202.9c63.2-67,176.1-68.9,241.2-1.9c42.1,40.2,47.9,63.2,47.9,191.4c0,135.9-3.8,151.2-55.5,202.9C3964.5-2106.1,3884.1-2102.2,3809.4-2165.4z"/><path d="M4307.1-2165.4c-49.8-44-53.6-55.5-53.6-199.1c0-135.9,5.7-158.9,45.9-202.9c65.1-68.9,178-68.9,241.2,0c42.1,45.9,47.9,68.9,47.9,193.3c0,132.1-3.8,147.4-55.5,199.1C4462.1-2106.1,4381.8-2102.2,4307.1-2165.4z"/><path d="M4804.8-2165.4c-49.8-44-53.6-55.5-53.6-199.1c0-135.9,5.7-158.9,45.9-202.9c65.1-68.9,178-68.9,241.2,0c42.1,45.9,47.9,68.9,47.9,193.3c0,132.1-3.8,147.4-55.5,199.1C4959.8-2106.1,4879.4-2102.2,4804.8-2165.4z"/><path d="M5302.4-2165.4c-47.9-40.2-53.6-61.2-59.3-187.6c-7.7-132.1-3.8-145.5,44-202.9c51.7-61.3,130.1-80.4,210.5-49.8c53.6,21.1,86.1,114.8,86.1,246.9c0,114.9-5.7,132.1-55.5,183.8C5457.4-2106.1,5377.1-2102.2,5302.4-2165.4z"/><path d="M5800.1-2165.4c-47.8-40.2-53.6-61.2-59.3-187.6c-7.7-132.1-3.8-145.5,44-202.9c51.7-61.3,130.2-80.4,210.5-49.8c53.6,21.1,86.1,114.8,86.1,246.9c0,114.9-5.7,132.1-55.5,183.8C5955.1-2106.1,5874.7-2102.2,5800.1-2165.4z"/><path d="M6297.7-2165.4c-47.9-40.2-53.6-61.2-59.3-187.6c-7.7-132.1-3.8-145.5,44-202.9c40.2-47.9,65.1-61.3,120.6-61.3c128.2,1.9,176.1,72.7,176.1,258.4c0,114.9-5.7,132.1-55.5,183.8C6452.8-2106.1,6372.4-2102.2,6297.7-2165.4z"/></g></g>
</svg>