<?xml version="1.0" encoding="utf-8"?>
<!-- Svg Vector Icons : http://www.onlinewebfonts.com/icon -->
<!DOCTYPE svg PUBLIC "-//W3C//DTD SVG 1.1//EN" "http://www.w3.org/Graphics/SVG/1.1/DTD/svg11.dtd">
<svg version="1.1" xmlns="http://www.w3.org/2000/svg" xmlns:xlink="http://www.w3.org/1999/xlink" x="0px" y="0px" viewBox="0 0 1000 1000" enable-background="new 0 0 1000 1000" xml:space="preserve">
<metadata> Svg Vector Icons : http://www.onlinewebfonts.com/icon </metadata>
<g><g transform="translate(0.000000,512.000000) scale(0.100000,-0.100000)"><path d="M2805,4995.7c-103.5-36.4-203.2-120.8-270.3-230l-57.5-92l-5.7-4514.1c-1.9-3066.9,1.9-4537.1,15.3-4586.9c28.8-101.6,128.4-226.2,239.6-295.2l92-57.5h2179.4h2179.4l92,57.5c109.3,67.1,210.8,191.7,239.6,293.3c26.8,99.7,26.8,8993.6,0,9093.3c-28.8,101.6-130.3,226.2-239.6,293.3l-92,57.5l-2148.7,3.8C3234.4,5022.5,2868.3,5018.7,2805,4995.7z M7154.2,4650.7l47.9-46V1957.6V-687.6H4997.8H2793.5v2645.2v2647.1l47.9,46l46,47.9h2110.4h2110.4L7154.2,4650.7z M7202.2-2700.3v-1669.5l-47.9-46l-46-47.9H5001.7c-2102.7,0-2106.6,0-2158.3,40.3l-49.8,38.3v1677.2v1675.3h2204.3h2204.3V-2700.3z"/><path d="M4666.2,4025.8c-51.8-30.7-93.9-139.9-72.9-193.6c34.5-92,88.2-116.9,260.7-126.5c201.3-11.5,289.4,5.8,346.9,63.3c65.2,65.2,61.3,151.4-9.6,222.4c-55.6,55.6-59.4,55.6-274.1,55.6C4798.5,4046.9,4685.4,4037.3,4666.2,4025.8z"/><path d="M3052.3,1570.4c-61.3-32.6-86.3-74.8-86.3-151.4c0-80.5,67.1-151.4,145.7-151.4c82.4,0,141.9-42.2,162.9-113.1c13.4-44.1,17.3-258.8,13.4-588.5c-5.7-588.5-5.7-586.6-155.3-609.6C3025.4-60.8,2966-120.3,2966-206.5c1.9-176.3,176.4-216.6,391-90.1c88.2,51.8,151.4,122.7,214.7,241.5c32.6,61.3,36.4,116.9,36.4,661.3v594.2l-51.8,97.8C3449.1,1503.3,3186.5,1645.1,3052.3,1570.4z"/><path d="M3015.9-1398.8c-38.3-30.7-49.8-55.6-49.8-113.1c0-99.7,47.9-149.5,161-170.6c161-28.8,155.3-3.8,155.3-653.6c0-649.8,5.7-624.9-155.3-653.6c-113.1-21.1-161-70.9-161-170.6c0-57.5,11.5-82.4,49.8-113.1c105.4-82.4,277.9-38.3,433.2,113.1c161,157.2,168.7,197.4,168.7,824.2s-7.7,667-168.7,824.2C3293.8-1360.4,3121.3-1316.3,3015.9-1398.8z"/></g></g>
</svg>