<?xml version="1.0" encoding="utf-8"?>
<!-- Svg Vector Icons : http://www.onlinewebfonts.com/icon -->
<!DOCTYPE svg PUBLIC "-//W3C//DTD SVG 1.1//EN" "http://www.w3.org/Graphics/SVG/1.1/DTD/svg11.dtd">
<svg version="1.1" xmlns="http://www.w3.org/2000/svg" xmlns:xlink="http://www.w3.org/1999/xlink" x="0px" y="0px" viewBox="0 0 1000 1000" enable-background="new 0 0 1000 1000" xml:space="preserve">
<metadata> Svg Vector Icons : http://www.onlinewebfonts.com/icon </metadata>
<g><g transform="translate(0.000000,503.000000) scale(0.100000,-0.100000)"><path d="M645.5,4801.8l-49.8-44l1.9-4358.3V-3957l-202.9-7.7c-195.2-5.7-204.8-7.6-248.8-59.3c-44-51.7-45.9-65.1-45.9-350.3v-298.6l55.5-55.5l55.5-55.5h4789h4789l55.5,55.5l55.5,55.5v298.6c0,285.2-1.9,298.6-45.9,350.3c-44,51.7-53.6,53.6-248.8,59.3l-202.9,7.7v74.6c0,55.5,7.7,74.7,30.6,74.7c15.3,0,55.5,24.9,86.1,55.5l55.5,55.5v300.5v300.5l-55.5,55.5l-55.5,55.5h-346.5h-346.4v514.9v513l112.9,70.8c141.6,86.1,292.8,250.7,369.4,402c51.7,101.4,61.3,141.6,68.9,298.6c5.7,149.3,0,202.9-32.5,300.5c-22.9,65.1-40.2,137.8-40.2,158.9c0,23,34.5,101.4,78.5,172.3c204.8,346.4,227.8,713.9,55.5,932.2c-32.5,42.1-36.4,67-24.9,185.7c15.3,191.4-24.9,321.6-139.7,449.8c-174.2,193.3-478.5,281.4-710.1,204.8c-158.9-53.6-428.7-287.1-505.3-436.4c-49.8-97.6-70.8-331.1-40.2-444.1c19.1-68.9,15.3-86.1-65.1-248.8c-155-317.7-158.9-585.7-7.7-882.4c70.8-139.7,74.7-158.9,57.4-229.7c-28.7-116.7-23-243.1,19.1-449.8c44-218.2,88-329.2,164.6-419.2c57.4-68.9,179.9-134,252.7-135.9h42.1v-478.5v-478.5h-335c-350.3,0-428.8-15.3-457.5-86.1c-5.7-17.2-11.5-166.5-11.5-333.1c0-325.4,11.5-369.4,105.3-392.4c40.2-9.6,47.9-22.9,47.9-88v-76.6h-248.8h-248.8V399.4l1.9,4358.3l-49.8,44l-49.8,42.1H3937.7H695.3L645.5,4801.8z M6655.7,4441.9l-74.7-76.6H3937.7H1296.3l-61.3,65.1c-34.4,34.5-63.2,68.9-63.2,76.6c0,5.7,1249.9,11.5,2779.2,11.5h2779.2L6655.7,4441.9z M1076.2-165.2v-4293.2h-76.6H923V-90.6v4367.9l76.6-74.6l76.6-74.6V-165.2z M6952.3-94.4v-4364.1h-76.6h-76.6v4291.3v4291.3l70.8,72.7c38.3,40.2,72.7,72.7,76.6,72.7C6950.4,4269.6,6952.3,2305.8,6952.3-94.4z M6473.8-218.8v-4239.6l-2530.4,3.8l-2532.3,5.7l-5.7,4235.8l-3.8,4233.9h2536.1h2536.1V-218.8z M8874.1,881.8c132.1-65.1,155-114.8,156.9-335c1.9-195.2,19.1-262.2,103.4-382.8c76.6-114.8,34.5-354.1-103.4-580c-76.6-124.4-116.7-279.5-97.6-382.8c5.7-38.3,28.7-126.3,49.8-195.2c61.3-199.1,7.7-375.1-160.8-530.2c-137.8-126.3-344.5-216.3-415.4-178c-90,47.9-139.7,266.1-141.7,631.6l-1.9,277.5l-76.6,141.7c-70.8,134-76.6,153.1-76.6,296.7c0,145.5,5.7,164.6,86.1,317.7l86.1,160.8v250.7c0,273.7,9.6,306.3,109.1,375.2c34.5,24.9,95.7,72.7,135.9,107.2c61.3,53.6,84.2,63.2,170.4,63.2C8759.2,920,8826.2,904.7,8874.1,881.8z M9245.4-3392.3l-5.7-80.4l-645-5.7l-647-3.8v86.1v84.2h652.7h650.8L9245.4-3392.3z M9077-4133.1v-325.4h-488.1h-488.1v325.4v325.4h488.1H9077V-4133.1z M578.5-4372.3v-86.1H502h-76.6v86.1v86.1H502h76.6V-4372.3z M7775.4-4372.3v-86.1h-239.3h-239.3v86.1v86.1h239.3h239.3V-4372.3z M9570.8-4376.2l5.7-82.3H9500h-78.5v88v86.1l72.7-5.7C9563.1-4295.8,9565-4297.7,9570.8-4376.2z"/><path d="M1782.5,3645.7l-45.9-49.8V1905.8V215.7l45.9-49.8l45.9-49.8h886.2h884.3l49.8,59.3l49.8,59.3v1663.3c0,1230.7-5.7,1676.7-23,1707.3c-47.9,90-34.4,88.1-964.7,90h-882.4L1782.5,3645.7z M3373,1905.8V441.5h-660.4h-660.4v1464.3V3370h660.4H3373V1905.8z"/><path d="M4226.7,3636.1l-49.8-59.3l3.8-1680.5l5.7-1680.5l45.9-49.8l45.9-49.8h886.2h884.3l49.8,59.3l49.8,59.3v1663.3c0,1230.7-5.7,1676.7-23,1707.3c-47.9,90-34.5,88.1-966.6,90h-882.4L4226.7,3636.1z M5823,1905.8V441.5h-660.4h-660.4v1464.3V3370h660.4H5823V1905.8z"/><path d="M5446-58c-145.5-44-164.6-229.7-30.6-300.5c26.8-15.3,168.4-23,417.3-23c373.2,0,375.1,0,421.1,47.9c70.8,68.9,70.8,164.6-1.9,239.3c-45.9,47.9-51.7,47.9-396.2,51.7C5664.2-40.8,5480.4-46.6,5446-58z"/><path d="M1820.7-563.4c-26.8-15.3-59.3-51.7-72.7-80.4c-15.3-40.2-21.1-493.8-17.2-1724.6l5.7-1672.9l53.6-45.9l53.6-45.9h869h869l53.6,45.9l53.6,45.9v1705.4v1703.5l-44,44l-44,44l-865.2,3.8C2014.1-536.6,1862.9-540.4,1820.7-563.4z M3363.5-2333.9v-1464.3h-650.8h-650.8l-5.7,1445.1c-1.9,794.3,0,1456.6,5.7,1470c5.7,19.1,147.4,23,654.6,19.1l646.9-5.7V-2333.9z"/><path d="M4272.7-559.5c-97.6-49.8-95.7,1.9-90-1799.2l3.8-1682.5l53.6-45.9l53.6-45.9h869h869l53.6,45.9l53.6,45.9v1705.4v1703.5l-44,44l-44,44l-865.2,5.7C4515.7-536.6,4309-540.4,4272.7-559.5z M5813.5-2333.9v-1464.3h-650.8h-650.8l-5.7,1445.1c-1.9,794.3,0,1456.6,5.7,1470c5.7,19.1,147.4,23,654.6,19.1l647-5.7V-2333.9z"/></g></g>
</svg>