<?xml version="1.0" encoding="utf-8"?>
<!-- Svg Vector Icons : http://www.onlinewebfonts.com/icon -->
<!DOCTYPE svg PUBLIC "-//W3C//DTD SVG 1.1//EN" "http://www.w3.org/Graphics/SVG/1.1/DTD/svg11.dtd">
<svg version="1.1" xmlns="http://www.w3.org/2000/svg" xmlns:xlink="http://www.w3.org/1999/xlink" x="0px" y="0px" viewBox="0 0 1000 1000" enable-background="new 0 0 1000 1000" xml:space="preserve">
<metadata> Svg Vector Icons : http://www.onlinewebfonts.com/icon </metadata>
<g><g transform="translate(0.000000,503.000000) scale(0.100000,-0.100000)"><path d="M1776.7,4784.5l-49.8-59.3V384.1v-4343l-767.5-5.7l-767.5-5.7l-45.9-53.6c-44-51.7-45.9-65.1-45.9-350.3v-298.6l55.5-55.5l55.5-55.5h4789h4789l55.5,55.5l55.5,55.5v298.6c0,285.2-1.9,298.6-45.9,350.3l-45.9,53.6l-767.5,5.7l-767.5,5.7v4343v4341.1l-49.8,59.3l-49.8,59.3H5000H1826.5L1776.7,4784.5z M7631.8,4441.9l-74.7-76.6H5000H2442.8l-74.6,76.6l-74.6,76.6H5000h2706.5L7631.8,4441.9z M2224.6-174.8v-4283.7h-72.7h-74.7l-11.5,273.7c-7.7,149.3-13.4,2115-13.4,4367.9v4094.2l86.1-84.2l86.1-84.2V-174.8z M7947.7,179.3c0-2250.9-5.7-4214.8-13.4-4366l-11.5-271.8h-74.6h-72.7V-171v4287.5l68.9,76.6c38.3,42.1,76.6,76.6,86.1,76.6S7947.7,2533.6,7947.7,179.3z M7450-218.8v-4239.6H5000H2550v4239.6v4239.6h2450h2450V-218.8z M1727-4372.3v-86.1h-650.8H425.4v86.1v86.1h650.8H1727V-4372.3z M9570.8-4376.2l5.7-82.3h-650.8H8273v86.1v86.1l647-3.8l645-5.7L9570.8-4376.2z"/><path d="M3133.8,3519.3c-86.1-45.9-86.1-44-86.1-800.1v-721.6l44-40.2l44-42.1h1866.2H6870l40.2,44c40.2,42.1,40.2,55.5,42.1,750.3c1.9,390.5-3.8,723.5-11.5,742.7c-34.5,91.9,1.9,90-1944.7,90C3713.7,3540.4,3160.6,3534.6,3133.8,3519.3z M6627,2728.8v-488.1H5000H3373v488.1v488.1h1627h1627V2728.8z"/><path d="M3172.1,1576.6c-21.1-5.7-57.4-26.8-80.4-49.8l-44-38.3v-714c0-392.4,5.7-727.3,11.5-744.6c34.5-86.1,36.4-86.1,1533.2-86.1c1089.1,0,1424,5.7,1460.4,24.9c26.8,13.4,59.3,51.7,74.7,86.1l28.7,61.3h348.3c335,0,352.2,1.9,398.1,44l49.8,42.1l1.9,639.3v639.3l-47.9,49.8l-49.8,49.8l-1824.1,1.9C4031.5,1584.2,3193.1,1582.3,3172.1,1576.6z M6627,843.5v-402h-335c-375.1,0-430.7-13.4-465.1-114.8l-21.1-57.4H4590.4H3373v488.1v488.1h1627h1627V843.5z"/><path d="M6422.1-58c-126.3-38.3-158.9-172.3-65.1-268l55.5-55.5h384.7c369.4,0,384.7,1.9,430.7,44c28.7,23,55.5,68.9,61.2,101.4c9.6,49.8,0,72.8-45.9,124.4l-57.4,65.1l-352.2,3.8C6642.3-40.8,6456.6-46.6,6422.1-58z"/><path d="M3097.4-421.7l-49.8-38.3v-727.3v-727.3l47.9-45.9l45.9-47.9h1854.7c1799.2,0,1858.6,1.9,1900.7,36.4l45.9,36.4l9.6,610.6c5.7,335,1.9,637.4-5.7,669.9c-26.8,107.2-80.4,120.6-463.2,120.6c-191.4,0-335,7.7-335,17.2s-23,44-49.8,76.6l-49.8,59.3H4598C3160.6-381.5,3147.2-381.5,3097.4-421.7z M5823-739.5c0-17.2,19.1-51.7,42.1-76.6c40.2-42.1,49.8-44,402-44H6627v-411.5v-411.5H5000H3373v488.1v488.1h1225C5735-706.9,5823-708.8,5823-739.5z"/><path d="M3130-2353c-23-9.6-49.8-34.5-61.2-55.5c-13.4-24.9-21.1-283.3-21.1-754.1v-715.9l44-40.2l44-42.1h1866.2H6870l40.2,44c40.2,42.1,40.2,55.5,42.1,754.1c3.8,756.1,1.9,777.1-88,809.6C6803-2328.1,3187.4-2330,3130-2353z M6627-3147.3v-488.1H5000H3373v488.1v488.1h1627h1627V-3147.3z"/></g></g>
</svg>