<?xml version="1.0" encoding="utf-8"?>
<!-- Svg Vector Icons : http://www.onlinewebfonts.com/icon -->
<!DOCTYPE svg PUBLIC "-//W3C//DTD SVG 1.1//EN" "http://www.w3.org/Graphics/SVG/1.1/DTD/svg11.dtd">
<svg version="1.1" xmlns="http://www.w3.org/2000/svg" xmlns:xlink="http://www.w3.org/1999/xlink" x="0px" y="0px" viewBox="0 0 1000 1000" enable-background="new 0 0 1000 1000" xml:space="preserve">
<metadata> Svg Vector Icons : http://www.onlinewebfonts.com/icon </metadata>
<g><g transform="translate(0.000000,469.000000) scale(0.100000,-0.100000)"><path d="M4856.5,4163.9c-156.9-19.1-266-51.7-401.8-118.7c-63.1-32.5-769.3-554.9-1569.1-1163.4c-799.9-606.6-1747.1-1324.2-2106.8-1592.1C419,1019.9,120.4,784.5,112.8,767.3c-44-116.7,30.6-239.2,147.3-239.2c51.7,0,107.2,32.5,267.9,153.1c112.9,84.2,208.6,153.1,214.3,153.1s9.6-114.8,9.6-252.6L750,327.2l-114.8-86.1C463,114.8,340.5-28.7,300.3-145.5c-24.9-80.4-30.6-135.9-19.1-290.8l11.5-193.3l-67-134c-68.9-135.8-124.4-344.4-124.4-468.8s57.4-332.9,114.8-426.7c65.1-103.3,65.1-111,47.8-329.1c-17.2-193.3,38.3-478.4,124.4-654.4c67-133.9,143.5-199,283.2-235.4l80.4-21v-246.9v-248.8H503.1c-243,0-248.8,0-306.2-51.7c-32.5-30.6-65.1-78.4-72.7-111c-19.1-65.1,130.1-1085,166.5-1153.9c11.5-23,38.3-49.8,59.3-61.2c23-13.4,1419.9-19.1,4271.1-19.1c4217.5,0,4234.7,1.9,4320.8,40.2c105.3,47.8,200.9,135.9,254.5,237.3l42.1,76.5l5.7,2636.9c1.9,1448.6,9.6,2635,13.4,2635c5.7,0,101.4-68.9,214.3-153.1c160.7-120.6,216.2-153.1,267.9-153.1c116.7,0,191.4,122.5,147.3,239.2c-7.7,17.2-444,355.9-972.1,752c-526.2,398-1475.3,1115.6-2106.8,1595.9c-631.5,478.4-1199.8,897.5-1264.9,930C5342.5,4146.6,5088,4190.7,4856.5,4163.9z M5250.7,3819.4c67-21,156.9-61.2,199-89.9c132-89.9,2139.3-1617,2219.7-1687.7c42.1-38.3,340.6-266,665.9-509l587.5-440.1V943.4c0-141.6-1.9-147.3-34.4-124.4c-19.1,13.4-805.6,610.4-1745.2,1326.1c-1241.9,941.5-1743.3,1312.7-1827.4,1349.1c-97.6,40.2-143.5,47.8-315.7,47.8c-172.2,0-218.1-7.6-315.7-49.7c-84.2-34.4-581.7-401.8-1827.4-1347.1C1915.3,1429.4,1130.8,832.4,1111.7,819c-32.5-23-34.4-17.2-34.4,124.4v149.3l315.7,239.2c172.2,132,937.6,713.8,1697.3,1293.6c761.6,579.8,1419.9,1077.3,1463.9,1106C4739.8,3855.8,5023,3890.2,5250.7,3819.4z M5199,3193.7c36.4-19.1,889.8-658.3,1896.3-1421.8L8922.8,384.6v-2386.2c0-2363.2,0-2388.1-38.3-2426.4c-36.4-36.4-63.1-38.3-411.4-38.3h-373.1v2399.6V332.9l-59.3,49.8l-59.3,49.7H5076.5H2169.9l-53.6-45.9l-53.6-45.9l-5.7-2403.4l-3.8-2403.4h-225.8h-225.8l67,442l67,444l-40.2,67c-65.1,112.9-134,137.8-392.3,137.8h-225.8v273.6v271.7l99.5,57.4c239.2,139.7,430.5,399.9,476.5,648.7c21,122.5,0,306.2-51.7,428.6c-40.2,97.6-34.4,122.5,59.3,296.6c199,369.3,225.8,637.2,82.3,864.9c-55.5,89.9-59.3,107.2-61.2,287c-1.9,164.6-9.6,204.8-49.8,285.1c-78.5,155-287,306.2-472.7,346.3c-61.2,11.5-5.7,55.5,1733.7,1377.8C3880.6,2512.5,4711,3142,4739.8,3159.2C4879.4,3251.1,5061.2,3264.5,5199,3193.7z M7774.6-132.1v-239.2H5076.5H2378.4v225.8c0,124.4,5.7,233.5,13.4,239.2c5.7,7.7,1220.8,13.4,2698.1,13.4h2684.7V-132.1z M1203.5,19.1c36.4-17.2,84.2-59.3,109.1-91.8c36.4-51.7,42.1-80.4,36.4-210.5c-3.8-179.9,17.2-277.5,93.8-396.1c93.8-149.3,61.2-344.4-103.3-618.1c-101.4-164.6-116.7-357.8-42.1-535.8c70.8-168.4,9.6-396.1-143.5-543.5c-99.5-93.8-306.2-200.9-377-191.4c-122.5,13.4-185.6,227.7-187.5,637.2c0,285.1,5.7,264.1-116.7,488c-28.7,51.7-36.4,105.2-36.4,229.6c1.9,155,5.7,170.3,86.1,323.4l86.1,160.7v250.7c0,137.8,7.7,266,15.3,283.2C639-164.6,882,24.8,941.4,53.5C985.4,74.6,1127,55.5,1203.5,19.1z M7774.6-954.9v-239.2H5076.5H2378.4v239.2v239.2h2698.1h2698.1V-954.9z M7774.6-1777.7v-239.2H5076.5H2378.4v239.2v239.2h2698.1h2698.1V-1777.7z M7774.6-2581.4v-239.2H5076.5H2378.4v225.8c0,124.4,5.7,233.5,13.4,239.2c5.7,7.7,1220.8,13.4,2698.1,13.4h2684.7V-2581.4z M7774.6-3404.2v-239.2H5076.5H2378.4v239.2v239.2h2698.1h2698.1V-3404.2z M1322.1-4068.2c-28.7-193.3-53.6-361.7-53.6-373.1c0-19.1-82.3-24.9-350.2-24.9H568.2l-51.7,350.2c-28.7,191.4-51.7,359.7-51.7,373.1c0,17.2,103.3,23,455.4,23h455.4L1322.1-4068.2z M7774.6-4227.1v-239.2l-2692.4,3.8l-2694.3,5.7l-5.7,235.4l-5.7,233.5h2700h2698.1V-4227.1z"/></g></g>
</svg>