<?xml version="1.0" encoding="utf-8"?>
<!-- Svg Vector Icons : http://www.onlinewebfonts.com/icon -->
<!DOCTYPE svg PUBLIC "-//W3C//DTD SVG 1.1//EN" "http://www.w3.org/Graphics/SVG/1.1/DTD/svg11.dtd">
<svg version="1.1" xmlns="http://www.w3.org/2000/svg" xmlns:xlink="http://www.w3.org/1999/xlink" x="0px" y="0px" viewBox="0 0 1000 1000" enable-background="new 0 0 1000 1000" xml:space="preserve">
<metadata> Svg Vector Icons : http://www.onlinewebfonts.com/icon </metadata>
<g><g transform="translate(0.000000,512.000000) scale(0.100000,-0.100000)"><path d="M4881.4,4967.3c-432.4-357.8-1548-1333.7-1653.2-1444.6c-315.7-340.6-547.3-792.2-662.1-1293.5l-42.1-185.6L2518.3-509c-7.6-2506.6-5.7-2556.3,32.5-2705.6c53.6-212.4,151.2-378.9,325.3-553c114.8-112.9,183.7-162.6,308.1-222c212.4-101.4,308.1-118.6,667.8-118.6h304.2l5.7-288.9l5.7-288.9l53.6-45.9c72.7-61.2,172.2-61.2,233.4,1.9c45.9,44,47.8,53.6,47.8,334.8v287h162.6h162.6v-275.5c0-269.8,1.9-277.5,49.8-334.9c67-80.3,160.7-82.3,239.2-3.8l55.5,55.5v279.4v279.4h162.6h162.6v-287c0-281.3,1.9-290.8,47.8-334.8c49.8-51.7,137.8-63.1,204.7-26.8c68.9,38.3,91.8,132,91.8,399.9v248.8h306.2c361.7,0,453.5,17.2,667.8,118.6c218.1,103.3,438.2,321.5,541.5,531.9c139.7,281.3,132,114.8,124.4,2952.4l-5.7,2548.7l-42.1,185.6c-114.8,501.3-346.3,952.9-662,1293.5c-74.6,78.4-463.1,424.8-863,767.3c-918.4,788.3-845.7,729-908.9,729C4969.4,5019,4917.8,4996,4881.4,4967.3z M5752,3987.6c401.8-346.3,771.1-675.4,820.9-732.9c208.6-244.9,346.3-484.1,453.5-788.3c128.2-365.5,122.4-223.9,130.1-2948.6c5.7-1710.6,0-2508.5-13.4-2602.3c-26.8-177.9-91.8-313.8-208.6-436.3c-193.3-204.7-369.3-262.1-799.8-262.1H5842v160.7v158.8l231.5,11.5c208.6,9.6,243,15.3,352.1,68.9c137.8,68.9,267.9,200.9,338.7,342.5c40.2,80.4,44,120.5,49.7,407.6l5.8,319.6l-61.2,68.9c-99.5,114.8-137.8,126.3-428.6,126.3h-260.2l55.5,82.3c80.4,116.7,151.2,264.1,166.5,344.4l13.4,70.8h210.5c197.1,0,210.5,1.9,256.4,47.8l45.9,45.9L6814-95.6l-5.7,1431.3l-53.6,111c-30.6,61.2-97.6,153.1-147.3,204.7c-51.7,49.7-143.5,116.7-204.7,147.3l-111,53.6H5000H3708.5l-111-53.6c-143.5-72.7-279.4-206.7-350.2-348.3l-55.5-114.8l-5.7-1427.4c-3.8-1385.3-3.8-1429.3,32.5-1473.3c34.4-42.1,53.6-45.9,252.6-55.5l214.3-9.6l23-76.5c28.7-97.6,116.7-267.9,177.9-348.3l45.9-63.1h-260.2c-292.8,0-331-11.5-430.5-124.4l-59.3-68.9v-294.7c0-354,26.8-449.7,172.2-608.5c160.7-176,338.7-243,654.4-243h149.2v-162.6v-162.6h-292.8c-200.9,0-327.2,9.6-405.7,28.7c-327.2,86.1-553,336.8-602.7,669.7c-13.4,89.9-19.1,931.8-13.4,2602.3c5.8,2167.9,9.6,2485.5,36.4,2615.7c91.8,443.9,296.6,847.6,593.2,1169.1c124.4,133.9,1488.7,1310.7,1523.1,1312.6C5009.6,4617.2,5350.2,4334,5752,3987.6z M6232.3,1517.4c103.3-23,166.5-72.7,218.1-172.2l42.1-84.2V-17.2v-1278.2H5000H3507.6V-17.2c0,1197.8,3.8,1280.1,36.4,1352.8c19.1,42.1,53.6,91.8,74.6,111c95.7,86.1,122.5,88,1362.4,88C5627.6,1534.6,6192.1,1527,6232.3,1517.4z M4827.8-1871.3v-252.6l-177.9,9.6c-208.6,11.5-315.7,51.7-442,168.4c-78.5,72.7-141.6,176-174.1,283.2l-11.5,42.1h401.8h403.7V-1871.3z M5966.3-1662.8c-32.5-107.1-95.7-210.5-174.1-283.2c-126.3-116.7-233.4-156.9-442-168.4l-177.9-9.6v252.6v250.7H5576h401.8L5966.3-1662.8z M6488.7-2690.3c-5.7-195.2-11.5-237.3-45.9-281.3c-86.1-116.7-126.3-132-373.1-137.8L5842-3117v78.5v78.4h172.2c202.8,0,273.6,26.8,304.2,116.7c24.9,70.8-11.5,174.1-70.8,206.7c-55.5,28.7-2439.6,28.7-2495.1,0c-59.3-32.5-95.7-135.9-70.8-206.7c30.6-89.9,101.4-116.7,304.2-116.7h172.2v-78.4v-78.5l-227.7,7.7c-195.2,5.7-237.3,11.5-281.3,45.9c-116.7,86.1-132,126.3-137.8,373.1l-7.7,227.7H5000h1496.3L6488.7-2690.3z M4827.8-3036.6v-76.5h-162.6h-162.6v76.5v76.5h162.6h162.6V-3036.6z M5497.5-3036.6v-76.5h-162.6h-162.6v76.5v76.5h162.6h162.6V-3036.6z M4827.8-3620.2v-162.6h-162.6h-162.6v162.6v162.6h162.6h162.6V-3620.2z M5497.5-3620.2v-162.6h-162.6h-162.6v162.6v162.6h162.6h162.6V-3620.2z"/><path d="M4854.6,3813.5c-535.8-139.7-929.9-589.3-1004.6-1148.1c-23-174.1-3.8-241.1,84.2-283.2c128.2-61.2,243,38.3,243,216.2c1.9,315.7,208.6,650.6,497.5,801.7c139.7,74.6,334.8,126.3,474.5,126.3c107.2,0,176,63.1,176,162.6c0,47.8-15.3,84.2-47.8,114.8c-40.2,40.2-63.1,47.8-166.5,45.9C5044.1,3849.9,4929.2,3832.7,4854.6,3813.5z"/><path d="M4883.3,983.5c-53.6-55.5-55.5-61.2-55.5-248.8V541.5h-442h-442l-55.5-55.5c-74.6-76.5-74.6-156.9,0-233.4l55.5-55.5h442h442V34.5v-162.6h-447.7h-447.7l-49.7-59.3c-57.4-67-61.2-111-21.1-187.5c44-86.1,111-97.6,556.8-97.6h409.5v-172.2c0-200.9,26.8-269.8,114.8-306.2c45.9-19.1,68.9-19.1,114.8,0c88,36.3,114.8,105.2,114.8,306.2v172.2h409.5c445.8,0,512.8,11.5,556.8,97.6c42.1,80.4,34.4,128.2-26.8,191.3l-55.5,55.5h-442h-442V34.5v162.6h442h442l55.5,55.5c74.6,76.5,74.6,156.9,0,233.4l-55.5,55.5h-442h-442v193.3c0,187.5-1.9,193.3-55.5,248.8c-38.3,38.3-74.6,55.5-116.7,55.5S4921.6,1021.8,4883.3,983.5z"/></g></g>
</svg>