<?xml version="1.0" encoding="utf-8"?>
<!-- Svg Vector Icons : http://www.onlinewebfonts.com/icon -->
<!DOCTYPE svg PUBLIC "-//W3C//DTD SVG 1.1//EN" "http://www.w3.org/Graphics/SVG/1.1/DTD/svg11.dtd">
<svg version="1.1" xmlns="http://www.w3.org/2000/svg" xmlns:xlink="http://www.w3.org/1999/xlink" x="0px" y="0px" viewBox="0 0 1000 1000" enable-background="new 0 0 1000 1000" xml:space="preserve">
<metadata> Svg Vector Icons : http://www.onlinewebfonts.com/icon </metadata>
<g><g transform="translate(0.000000,512.000000) scale(0.100000,-0.100000)"><path d="M2210.6,4997c-235.5-76.6-434.7-312.1-474.9-561.1c-15.3-99.6,32.6-294.9,95.7-392.6c70.9-107.2,193.4-214.5,296.8-264.3l95.7-44V2124.6V514.1l-287.2,287.2c-157,157-287.2,296.8-287.2,308.3c0,11.5,19.1,63.2,40.2,113c59.4,134,46,344.7-30.6,484.5c-63.2,116.8-199.2,248.9-317.9,312.1c-120.6,65.1-388.7,65.1-519,1.9c-141.7-70.9-256.6-183.8-325.5-325.5c-55.5-111.1-63.2-147.5-63.2-271.9c0-180,46-285.3,183.8-430.9C757.1,845.4,889.3,784.1,1075,784.1c109.2-1.9,166.6,9.6,239.4,42.1l93.8,44.1l407.9-407.9L2224,54.5v-1928.4v-1930.3h-453.8c-436.6,0-459.6-1.9-551.5-46c-195.3-90-310.2-283.4-291.1-490.2l9.6-114.9H571.4c-384.9-1.9-406-5.7-450-90c-36.4-67-26.8-120.6,32.5-180l55.5-55.5h4791.2h4791.2l55.5,55.5c76.6,76.6,68.9,178.1-19.2,245.1c-23,19.2-699,23-3010.3,24.9H3836.4l9.6,120.6c7.7,95.7,1.9,139.8-26.8,206.8c-53.6,120.7-145.5,216.4-258.5,273.9c-97.7,49.8-103.4,49.8-555.3,49.8h-455.8v1518.6v1516.6l735.3,735.4l737.3,737.3l82.3-38.3c122.6-55.5,377.2-51.7,497.9,7.7c134,67,250.9,178.1,323.6,314.1c59.4,109.1,65.1,136,65.1,273.8c0,189.6-42.1,291.1-183.8,440.4c-141.7,149.4-273.8,210.6-457.7,210.6c-178.1,0-319.8-59.4-450-191.5c-189.6-187.7-248.9-436.6-160.9-672.1l40.2-109.2l-614.7-614.7l-614.7-614.7V696v986.2l327.5,327.5l329.4,329.4l88.1-40.2c67-30.6,126.4-42.1,241.3-42.1c137.9,0,164.7,5.7,273.8,65.1c306.4,166.6,440.4,496,327.5,796.6c-59.4,158.9-231.7,331.3-390.6,390.6c-304.5,114.9-662.6-42.1-810-358.1c-67-143.6-70.9-350.4-9.6-484.5l40.2-90l-208.7-206.8l-208.7-208.7v787v785.1l88.1,42.1c136,67,281.5,216.4,342.8,352.4c105.3,233.6,57.5,478.7-132.1,681.7C2683.6,4985.5,2415.5,5064,2210.6,4997z M2549.5,4656.1c113-57.4,157-137.9,157-281.5c0-116.8-30.6-197.2-97.7-258.5c-40.2-38.3-42.1-36.4-95.7,26.8c-44,53.6-67,65.1-126.4,65.1s-82.3-11.5-126.4-65.1c-53.6-63.2-55.5-65.1-95.7-26.8c-103.4,93.8-136,306.4-63.2,430.9c46,80.4,180,151.3,285.3,151.3C2428.9,4698.3,2503.6,4679.1,2549.5,4656.1z M3706.2,3179.7c97.7-55.5,145.5-147.5,145.5-277.7c0-141.7-53.6-237.5-158.9-289.2c-137.9-67-293-49.8-342.8,38.3c-19.2,30.6-53.6,63.2-80.4,72.8c-90,36.4-88.1,277.7,3.8,388.7C3373,3229.5,3566.4,3260.1,3706.2,3179.7z M1279.9,1699.4c90-65.1,124.5-153.2,114.9-293c-3.8-84.3-15.3-126.4-32.6-132.1c-32.6-11.5-97.7-78.5-126.4-130.2c-17.2-30.6-42.1-36.4-143.6-36.4c-157,0-239.4,46-300.6,162.8c-80.4,157-24.9,377.3,116.8,448.1C994.6,1764.6,1207.1,1753.1,1279.9,1699.4z M4502.8,1553.9c157-80.4,214.5-279.6,132.1-450C4583.2,996.7,4487.5,945,4340,945c-101.5,0-113,3.8-176.2,76.6c-38.3,42.1-80.4,76.6-91.9,76.6c-51.7,0-65.1,208.7-21.1,312.1C4121.7,1578.8,4324.7,1643.9,4502.8,1553.9z M3487.9-4168c59.4-59.4,53.6-195.3-11.5-247c-49.8-40.2-68.9-40.2-1083.9-40.2c-1032.2,0-1089.6,3.8-1129.8,65.1c-30.6,44-15.3,183.8,23,222.1s63.2,38.3,1101.1,38.3C3424.7-4129.7,3449.6-4129.7,3487.9-4168z"/><path d="M5381.7,4317.2l-55.5-55.5V3061V1860.3l55.5-55.5l55.5-55.5h2014.5h2014.5l55.5,55.5l55.5,55.5V3061v1200.7l-55.5,55.5l-55.5,55.5H7451.8H5437.3L5381.7,4317.2z M9251.9,3507.2v-540l-235.5,233.6c-283.4,279.6-377.2,333.2-593.6,335.1c-235.5,1.9-291.1-26.8-695.1-371.5c-375.3-321.7-432.8-361.9-515.1-361.9c-26.8,0-160.9,44-296.8,95.7c-210.6,80.4-268.1,95.7-377.3,95.7c-70.8,0-162.8-9.6-203-21.1c-38.3-9.6-197.2-103.4-354.3-206.8c-155.1-101.5-293-191.5-304.5-201.1c-19.2-11.5-24.9,141.7-24.9,733.4v748.8h1800h1800.1V3507.2z M8501.2,3214.2c44-19.2,197.2-155.1,411.7-369.6l338.9-338.9v-204.9v-206.8h-1802c-1704.3,0-1800.1,1.9-1794.3,34.5c3.8,17.2,143.6,126.4,312.1,239.4c377.2,254.7,484.5,319.8,541.9,319.8c23,0,157-44,296.8-99.6c220.2-86.2,270-97.7,386.8-97.7c226,1.9,296.8,40.2,710.4,396.4C8330.8,3252.5,8365.2,3269.7,8501.2,3214.2z"/></g></g>
</svg>