<?xml version="1.0" encoding="utf-8"?>
<!-- Svg Vector Icons : http://www.onlinewebfonts.com/icon -->
<!DOCTYPE svg PUBLIC "-//W3C//DTD SVG 1.1//EN" "http://www.w3.org/Graphics/SVG/1.1/DTD/svg11.dtd">
<svg version="1.1" xmlns="http://www.w3.org/2000/svg" xmlns:xlink="http://www.w3.org/1999/xlink" x="0px" y="0px" viewBox="0 0 1000 1000" enable-background="new 0 0 1000 1000" xml:space="preserve">
<metadata> Svg Vector Icons : http://www.onlinewebfonts.com/icon </metadata>
<g><g transform="translate(0.000000,495.000000) scale(0.100000,-0.100000)"><path d="M1976.9,4656.3c-267.9-97.6-447.7-338.7-447.7-602.7c0-231.5,155-464.9,380.8-570.2l86.1-40.2v-520.4v-522.3l-338.7,338.7c-187.5,185.6-359.7,346.3-384.6,359.7c-93.8,47.8-202.8-17.2-225.8-132c-13.4-59.3,0-74.6,468.8-543.4l480.2-484.1v-1347V-756.5l-338.7,338.7c-187.5,185.6-359.7,346.3-384.6,359.7c-93.8,47.8-202.8-17.2-225.8-132c-13.4-59.3,0-74.6,468.8-543.4l480.2-484.1v-1303v-1303l-443.9-7.7c-415.2-7.6-451.5-9.6-526.2-49.7c-187.5-97.6-283.2-248.7-283.2-447.7v-130.1H480.7c-252.6,0-262.1-1.9-319.5-49.7c-76.5-63.2-82.3-158.8-11.5-227.7l45.9-47.8H5000h4804.4l45.9,47.8c70.8,68.9,65.1,164.5-11.5,227.7l-59.3,49.7H7877.7H5975.8l9.6,42.1c28.7,124.4,430.5,2586.8,430.5,2636.6c0,36.3-17.2,76.5-47.8,105.2c-45.9,47.8-49.7,47.8-392.2,47.8h-344.4v570.2c0,510.9,3.8,575.9,36.3,644.8c65.1,141.6,164.6,200.9,332.9,200.9c191.3-1.9,325.3-103.3,354-271.7l15.3-82.3l158.8-5.7l160.7-5.8l-13.4,91.9c-28.7,212.4-195.1,426.7-413.3,530c-252.6,118.6-526.2,63.1-736.6-149.2c-101.4-101.4-168.4-221.9-200.9-359.7c-9.6-45.9-19.1-325.3-19.1-621.8v-541.5h-497.5h-499.4l-45.9-47.8c-30.6-28.7-47.8-68.9-47.8-105.2c0-49.8,401.8-2512.2,430.5-2634.7l9.6-44h-553h-554.9l19.1,63.1c38.3,132-24.9,304.2-155,422.9c-141.6,126.3-170.3,133.9-654.4,141.6l-436.2,7.7v671.6v673.5l784.5,784.5c704.1,704.1,784.5,790.2,784.5,845.7c0,32.5-5.7,74.6-11.5,91.8c-19.1,45.9-118.6,91.8-177.9,76.5c-30.6-7.7-294.7-256.4-713.7-675.4l-665.8-663.9v1348.9v1347l392.2,394.2c426.7,428.6,440.1,449.6,352.1,562.5c-30.6,38.3-55.5,49.7-116.7,49.7c-76.5,0-89.9-11.5-354-271.7l-273.6-271.7v1151.8v1151.8l97.6,49.7c120.5,59.3,248.7,189.4,308,308.1c63.1,132,63.1,376.9,0,508.9C2587.3,4591.3,2241,4752,1976.9,4656.3z M2336.6,4323.4c72.7-45.9,135.8-168.4,137.8-267.9c0-74.6-68.9-225.8-116.7-254.5c-21-13.4-44-1.9-88,42.1c-84.2,84.2-176,74.6-256.4-24.9c-32.5-40.2-32.5-40.2-74.6-1.9c-141.6,126.3-122.5,396.1,36.4,501.3C2063,4377,2244.8,4378.9,2336.6,4323.4z M6069.6-1975.3c0-13.4-93.8-575.9-206.7-1249.4l-204.7-1224.5h-342.5h-342.5l-204.7,1224.5c-112.9,673.5-206.6,1236-206.6,1249.4c-1.9,17.2,160.7,23,753.8,23C5908.8-1952.3,6071.5-1958.1,6069.6-1975.3z M3220.6-4190.9c45.9-45.9,51.7-164.5,7.7-225.8l-28.7-42.1H2164.4c-1178.6,0-1105.9-9.6-1105.9,155c0,158.8-59.3,151.2,1104,151.2C3157.5-4152.7,3184.2-4154.6,3220.6-4190.9z"/></g></g>
</svg>