<?xml version="1.0" encoding="utf-8"?>
<!-- Svg Vector Icons : http://www.onlinewebfonts.com/icon -->
<!DOCTYPE svg PUBLIC "-//W3C//DTD SVG 1.1//EN" "http://www.w3.org/Graphics/SVG/1.1/DTD/svg11.dtd">
<svg version="1.1" xmlns="http://www.w3.org/2000/svg" xmlns:xlink="http://www.w3.org/1999/xlink" x="0px" y="0px" viewBox="0 0 1000 1000" enable-background="new 0 0 1000 1000" xml:space="preserve">
<metadata> Svg Vector Icons : http://www.onlinewebfonts.com/icon </metadata>
<g><g transform="translate(0.000000,512.000000) scale(0.100000,-0.100000)"><path d="M2132.9,5002.3c-345.2-86.3-629-377.8-711.5-732.6c-44.1-197.5-30.7-1329,19.2-1484.4c95.9-295.3,320.3-577.3,569.6-715.3c214.8-120.8,366.3-147.7,807.4-147.7h379.7v-163v-163h-638.6c-485.2,0-661.6-5.8-726.9-26.9c-176.4-51.8-329.9-197.5-398.9-375.9c-13.4-36.4-26.8-69-28.8-72.9c-1.9-1.9-51.8,17.3-109.3,42.2c-228.2,101.7-583,136.2-778.6,78.6c-132.3-40.3-281.9-164.9-356.7-297.3C107.7,852.2,100,819.5,100,694.9c0-122.7,7.7-159.2,55.6-245.5c65.2-117,164.9-212.9,283.8-274.3c63.3-32.6,128.5-46,274.2-53.7L905.5,110l9.6-757.5c11.5-749.9,11.5-759.5,61.4-920.5c71-228.2,136.2-368.2,257-548.5c197.5-297.2,464.1-529.3,795.9-686.6c360.5-172.6,351-172.6,1480.5-180.3l991.5-5.7v-207.1v-207.1l-579.2-118.9c-320.3-65.2-907.1-186-1307.9-266.6l-724.9-147.7l7.7-155.3c5.7-120.8,21.1-180.3,61.4-264.7c109.3-222.4,360.6-402.7,596.4-425.7c99.7-9.6,272.3,23,1261.9,230.1c631,132.3,1162.2,241.6,1183.3,241.6c21.1,0,552.3-109.3,1183.3-241.6c1286.8-270.4,1273.4-268.5,1497.8-159.2c255.1,124.6,406.6,349,421.9,621.4l7.7,153.4l-724.9,147.7c-400.8,80.5-987.7,201.4-1306,266.6l-581.1,118.9v207.1v207.1l993.4,5.7c962.7,7.7,995.4,9.6,1144.9,51.8c197.5,55.6,479.5,187.9,636.7,301.1c443,316.4,767.1,868.8,803.6,1369.3c5.8,78.6,13.4,420,13.4,757.5l3.8,613.7l191.8,11.5c145.8,7.7,211,21.1,274.2,53.7c118.9,61.4,218.6,157.3,281.9,274.3c47.9,84.4,57.5,124.7,57.5,237.8c0,178.4-71,324.1-216.7,443c-141.9,115.1-266.6,147.7-512.1,134.2c-205.2-13.4-327.9-40.3-477.5-107.4c-51.8-21.1-95.9-38.4-97.8-36.4c-1.9,3.8-15.3,36.4-28.8,72.9c-69,178.4-222.5,324.1-398.9,375.9c-65.2,21.1-241.7,26.9-726.9,26.9h-638.6v161.1v161.1l437.3,7.7c385.5,7.7,448.8,13.4,546.6,49.9c368.2,136.2,650.1,431.5,772.9,809.3c28.8,88.2,34.5,199.5,42.2,705.8c7.7,652.1-3.8,784.4-84.4,962.7c-105.5,232.1-320.3,433.4-558.1,523.6l-111.2,42.2l-2809.6,3.8C2844.4,5025.3,2207.7,5021.5,2132.9,5002.3z M7924.7,4649.4c111.2-51.8,228.2-157.3,278.1-253.2c69-134.2,80.6-272.3,72.9-891.8c-9.6-673.2-15.3-711.5-155.3-912.9c-92.1-136.2-239.7-247.4-397-299.2c-99.7-32.6-249.3-34.5-2723.3-34.5s-2623.6,1.9-2723.3,34.5c-157.3,51.8-304.9,163-397,299.2c-140,201.4-145.7,239.7-155.3,912.9c-9.6,751.8,5.8,843.8,166.8,1012.6c74.8,80.6,143.8,122.7,260.8,159.2c61.4,19.2,655.9,23,2876.7,21.1l2800-3.8L7924.7,4649.4z M6476.7,1759.3v-163H5000H3523.3v163v163H5000h1476.7V1759.3z M8135.6,1243.4c88.2-36.4,126.6-103.6,138.1-237.8c9.6-109.3,7.7-117-67.1-216.7C8053.2,581.7,7970.7,365,7943.8,96.5l-13.4-130.4H5000H2069.6l-13.4,130.4c-5.7,70.9-21.1,166.8-32.6,214.8c-30.7,128.5-140,358.6-226.3,471.8c-65.2,86.3-76.7,117-76.7,193.7c0,120.8,49.9,218.6,134.2,258.9c61.4,32.6,258.9,34.5,3141.4,34.5C7592.9,1270.2,8080,1266.4,8135.6,1243.4z M1106.9,894.3c149.6-44.1,253.2-109.3,364.4-232.1c159.2-174.5,249.3-387.4,249.3-594.5V-33.9h-128.5c-120.8,0-205.2-13.4-304.9-46c-38.4-11.5-42.2-3.8-49.9,122.7c-11.5,159.2-67.1,258.9-189.9,339.4c-71,46-103.6,53.7-285.8,63.3c-234,11.5-291.5,36.4-326,145.8c-47.9,141.9,1.9,270.4,124.7,327.9C635.1,953.8,959.2,940.4,1106.9,894.3z M9435.9,917.4c34.5-13.4,76.7-44.1,97.8-65.2c49.9-55.6,61.3-189.9,23-278.1c-40.3-95.9-118.9-128.5-322.2-128.5c-191.8,0-287.7-38.4-375.9-145.8c-71-86.3-99.7-170.7-99.7-301.1c0-88.2-1.9-92.1-42.2-78.6c-103.6,32.6-186,46-306.8,46h-130.4V67.8c0,228.2,90.1,427.7,278.1,619.4C8661.1,792.7,8716.7,833,8803,865.6C9010.1,940.4,9318.9,967.2,9435.9,917.4z M8277.5-459.6c-122.7-157.3-410.4-421.9-581.1-535.1c-312.6-205.2-80.5-189.9-2696.4-189.9c-2615.9,0-2383.8-15.3-2696.4,189.9c-170.7,113.2-458.4,377.8-581.1,535.1l-63.3,80.6H5000h3340.8L8277.5-459.6z M8500-507.6c34.5-23,34.5-24.9,3.8-24.9c-51.8,0-105.5,34.5-130.4,80.6l-23,42.2l55.6-34.5C8436.7-465.4,8478.9-492.2,8500-507.6z M1337-457.7c0-46,189.9-285.7,364.4-460.3c207.1-205.2,398.9-349,615.6-458.3c280-141.9,115.1-134.2,2683-134.2c1611,0,2330.1,5.8,2393.4,21.1c136.2,32.6,456.4,195.6,607.9,308.8C8252.6-992.8,8663-544,8663-457.7c0,42.2,38.3,21.1,69-38.4c26.9-51.8,28.8-118.9,21.1-475.6c-5.8-352.9-13.4-435.4-49.9-554.2c-136.2-462.2-473.7-840-899.4-1012.6c-299.2-120.8-117-113.1-2803.8-113.1c-2686.9,0-2504.7-7.7-2803.8,113.1c-427.7,172.6-763.3,548.5-899.5,1012.6c-36.4,118.9-44.1,201.4-49.9,554.2c-7.7,356.7-5.8,423.8,21.1,475.6C1298.6-436.6,1337-415.5,1337-457.7z M5168.8-3336.3c1.9-187.9,11.5-341.4,21.1-341.4c26.8,0,2562.2-521.7,2569.9-527.4c17.2-17.3-90.1-168.8-143.8-203.3c-130.4-80.5-166.9-74.8-1432.6,191.8l-1185.2,249.3l-1183.3-249.3c-1263.8-266.6-1300.3-272.3-1430.7-191.8c-53.7,34.5-161.1,186-143.8,203.3c3.8,3.8,588.8,124.6,1298.4,270.4L4827.4-3670v327.9c0,180.3,5.7,335.6,13.4,343.3c7.7,7.7,82.5,9.6,168.8,7.7l153.4-5.7L5168.8-3336.3z"/><path d="M2971,3866.9c-69-28.8-99.7-78.6-99.7-159.2c0-46,26.9-88.2,122.7-188l122.7-130.4L2994,3260.9c-105.5-109.3-122.7-136.2-122.7-197.5c0-90.1,72.9-163,166.9-163c55.6,0,88.2,21.1,193.7,122.7l128.5,122.7l130.4-122.7c109.3-103.6,140-122.7,197.5-122.7c72.9,0,159.2,67.1,163,128.5c5.7,86.3-11.5,118.9-128.5,235.9L3600,3391.3l107.4,103.6c117,115.1,159.2,189.9,145.8,258.9c-9.6,55.6-76.7,118.9-128.5,124.7c-86.3,9.6-115.1-5.7-237.8-124.7l-128.5-122.7l-120.8,120.8C3105.2,3884.2,3059.2,3905.3,2971,3866.9z"/><path d="M6273.4,3882.3c-51.8-7.7-118.9-76.7-122.8-128.5c-9.6-86.3,5.8-115.1,124.7-237.8l122.7-128.5l-120.8-120.8c-132.3-132.3-153.4-178.4-115.1-266.6c28.8-69,78.6-99.7,159.2-99.7c46,0,88.2,26.9,187.9,122.7l130.4,122.7l128.5-122.7c149.6-143.8,220.5-161.1,310.7-72.9c88.2,90.1,70.9,161.1-72.9,310.7l-122.7,128.5l122.7,130.4c103.6,109.3,122.8,140,122.8,197.5c0,72.9-67.1,159.2-128.5,163c-86.3,5.7-118.9-11.5-235.9-128.5l-126.6-122.7l-113.2,115.1C6409.6,3859.3,6346.3,3895.7,6273.4,3882.3z"/><path d="M2593.1,1049.7c-34.5-32.6-47.9-67.1-47.9-117c0-59.5,17.3-88.2,122.7-195.6l124.7-128.5L2667.9,482c-105.5-111.2-122.7-138.1-122.7-197.5c0-95.9,69-164.9,164.9-164.9c59.5,0,88.2,17.3,195.6,122.7l128.5,124.7l126.6-124.7c111.2-105.5,138.1-122.7,197.5-122.7c95.9,0,164.9,69,164.9,164.9c0,59.5-17.3,86.3-122.7,197.5l-124.7,126.6l124.7,128.5c109.3,111.2,122.7,134.2,122.7,201.4c0,99.7-61.4,159.2-161.1,159.2c-63.3,0-90.1-15.3-201.4-122.7l-126.6-124.7l-128.5,124.7c-107.4,105.5-136.2,122.7-195.6,122.7C2660.3,1097.6,2625.8,1084.2,2593.1,1049.7z"/><path d="M6518.9,1053.5c-28.8-30.7-42.2-69-42.2-117c0-63.3,15.3-90.1,122.7-199.4l124.7-128.5L6599.5,482c-105.5-111.2-122.7-138.1-122.7-197.5c0-95.9,69-164.9,164.9-164.9c59.5,0,88.2,17.3,195.6,122.7l128.5,124.7l126.6-124.7c111.3-105.5,138.1-122.7,197.5-122.7c95.9,0,164.9,69,164.9,164.9c0,59.5-17.3,86.3-122.7,197.5l-124.7,126.6l124.7,128.5c105.5,107.4,122.7,136.2,122.7,195.6c0,95.9-69,164.9-164.9,164.9c-59.5,0-86.3-17.3-197.5-122.7l-126.6-124.7l-128.5,124.7c-111.2,109.3-134.2,122.7-201.4,122.7C6582.2,1097.6,6547.7,1084.2,6518.9,1053.5z"/></g></g>
</svg>