<?xml version="1.0" encoding="utf-8"?>
<!-- Svg Vector Icons : http://www.onlinewebfonts.com/icon -->
<!DOCTYPE svg PUBLIC "-//W3C//DTD SVG 1.1//EN" "http://www.w3.org/Graphics/SVG/1.1/DTD/svg11.dtd">
<svg version="1.1" xmlns="http://www.w3.org/2000/svg" xmlns:xlink="http://www.w3.org/1999/xlink" x="0px" y="0px" viewBox="0 0 1000 1000" enable-background="new 0 0 1000 1000" xml:space="preserve">
<metadata> Svg Vector Icons : http://www.onlinewebfonts.com/icon </metadata>
<g><g transform="translate(0.000000,409.000000) scale(0.100000,-0.100000)"><path d="M3581.7,2948.7l-55.5-55.5V1677.8V462.4l-1544.7-1470C1129.8-1815.4,360.3-2548.4,268.4-2638.4L100-2801.1v-955.1v-957l55.5-55.5l55.5-55.5h4789h4789l55.5,55.5l55.5,55.5v957v955.1l-166.5,162.7c-93.8,90-863.2,823-1713.1,1630.8l-1546.6,1470v1215.4v1215.4l-55.5,55.5l-55.5,55.5H5000H3637.2L3581.7,2948.7z M6144.6,1622.3l-5.7-1058.5H5000H3861.1l-5.7,1058.5l-3.8,1056.6H5000h1148.4L6144.6,1622.3z M7775.4-1227.7c842.2-800.1,1531.3-1460.4,1531.3-1464.3c0-3.8-327.3-7.7-725.4-7.7h-725.4l-635.5,794.3c-350.3,438.3-652.7,803.9-671.8,813.5c-132.1,70.8-290.9-68.9-231.6-202.9c11.5-24.9,264.1-346.5,558.9-715.9c294.8-367.5,535.9-673.7,535.9-679.5s-1085.3-9.6-2411.7-9.6c-1326.4,0-2411.7,3.8-2411.7,9.6s241.2,312,535.9,679.5c294.8,369.4,547.4,691,558.9,715.9c59.3,134-99.5,273.7-231.6,202.9c-19.1-9.6-321.6-375.1-671.8-813.5l-635.5-794.3H1415H683.8l86.1,86.1c47.9,47.9,736.9,704.4,1531.2,1462.4L3746.3,227h1249.9l1249.9,1.9L7775.4-1227.7z M9570.8-3765.8l3.8-733.1H8186.9H6799.2v193.3c0,187.6-1.9,193.3-55.5,248.8c-63.2,61.3-111,68.9-191.4,26.8c-72.7-36.4-78.5-57.4-78.5-279.4v-189.5h-162.7h-162.7v193.3c0,187.6-1.9,193.3-55.5,248.8c-63.2,61.3-111,68.9-191.4,26.8c-72.7-36.4-97.6-114.8-97.6-308.2v-160.8h-153.1h-153.1v170.4c0,93.8-7.7,193.3-19.1,220.1c-45.9,124.4-218.2,139.7-287.1,24.9c-30.6-49.8-38.3-95.7-38.3-237.3v-178H5000h-153.1v172.3c0,195.2-28.7,277.5-107.2,306.3c-80.4,30.6-122.5,23-181.8-36.4c-53.6-55.5-55.5-61.2-55.5-248.8v-193.3h-153.1h-153.1v160.8c0,193.3-24.9,271.8-97.6,308.2c-80.4,42.1-128.2,34.5-191.4-26.8c-53.6-55.5-55.5-61.2-55.5-248.8v-193.3h-162.7h-162.7v189.5c0,222-5.7,243.1-78.5,279.4c-80.4,42.1-128.2,34.5-191.4-26.8c-53.6-55.5-55.5-61.2-55.5-248.8v-193.3H1813.1H425.4v723.5c0,398.1,5.7,731.2,13.4,736.9c5.7,7.7,2063.4,11.5,4568.9,7.7l4557.4-3.8L9570.8-3765.8z"/><path d="M7553.4-3369.6c-91.9-36.4-103.4-84.2-103.4-398.1v-294.8l55.5-55.5l55.5-55.5h298.6c285.2,0,298.6,1.9,350.3,45.9c53.6,45.9,53.6,45.9,59.3,327.3c9.6,436.4-1.9,449.8-411.5,447.9C7712.2-3352.3,7574.4-3360,7553.4-3369.6z M7938.1-3762c0-76.6,0-76.6-80.4-82.3l-82.3-5.7v88v88l82.3-5.7C7938.1-3685.4,7938.1-3685.4,7938.1-3762z"/><path d="M8521.9-3373.4c-82.3-44-95.7-99.5-95.7-403.9v-285.2l55.5-55.5l55.5-55.5h300.5h300.5l55.5,55.5l55.5,55.5v298.6c0,285.2-1.9,298.6-45.9,350.3l-45.9,53.6l-294.8,5.7C8652-3350.4,8556.3-3356.2,8521.9-3373.4z M8920-3765.8l5.7-82.3h-86.1h-88v72.7c0,91.9,11.5,103.4,95.7,95.7C8912.4-3685.4,8914.3-3689.2,8920-3765.8z"/><path d="M798.6-3895.9c-65.1-63.2-65.1-160.8,1.9-227.8l51.7-49.8H1325h472.8l51.7,49.8c67,67,67,164.6,1.9,227.8l-45.9,47.9H1325H844.6L798.6-3895.9z"/></g></g>
</svg>