<?xml version="1.0" encoding="utf-8"?>
<!-- Svg Vector Icons : http://www.onlinewebfonts.com/icon -->
<!DOCTYPE svg PUBLIC "-//W3C//DTD SVG 1.1//EN" "http://www.w3.org/Graphics/SVG/1.1/DTD/svg11.dtd">
<svg version="1.1" xmlns="http://www.w3.org/2000/svg" xmlns:xlink="http://www.w3.org/1999/xlink" x="0px" y="0px" viewBox="0 0 1000 1000" enable-background="new 0 0 1000 1000" xml:space="preserve">
<metadata> Svg Vector Icons : http://www.onlinewebfonts.com/icon </metadata>
<g><g transform="translate(0.000000,512.000000) scale(0.100000,-0.100000)"><path d="M155.5,4964.5L100,4909V120v-4789l55.5-55.5L211-4780h4789h4789l55.5,55.5l55.5,55.5V120v4789l-55.5,55.5L9789,5020H5000H211L155.5,4964.5z M9574.6,120v-4574.6H5000H425.4V120v4574.6H5000h4574.6V120z"/><path d="M2588.3,4340.5c-380.9-70.8-669.9-222-953.2-495.7c-402-386.6-610.6-955.1-541.7-1475.7c91.9-683.3,576.1-1278.6,1221.2-1500.6c151.2-49.8,419.2-97.6,560.8-97.6c149.3,0,415.4,47.9,578.1,105.3c560.8,195.2,1008.7,685.2,1165.7,1274.8c63.2,231.6,63.2,610.6,1.9,838.4c-141.7,526.4-505.3,964.7-989.6,1198.2C3311.8,4342.4,2907.9,4401.8,2588.3,4340.5z M2729.9,3976.8c7.7-30.6,38.3-61.3,78.5-80.4c63.2-30.6,70.8-30.6,134,0c42.1,19.1,70.8,49.8,78.5,82.3c11.5,47.9,17.2,49.8,103.4,40.2c246.9-28.7,562.7-181.8,765.6-371.3c214.4-197.1,402-553.2,432.6-817.3c11.5-97.6,11.5-101.4-38.3-114.8c-32.5-7.7-63.2-36.4-82.3-78.5c-30.6-63.2-30.6-70.8,0-134c19.1-42.1,49.8-70.8,82.3-78.5c49.8-13.4,49.8-17.2,38.3-114.8c-30.6-264.1-218.2-620.2-432.6-817.3c-202.9-189.5-518.7-342.6-765.6-371.3c-86.1-9.6-91.9-7.7-103.4,40.2c-7.7,32.5-36.4,63.2-78.5,82.3c-63.2,30.6-70.8,30.6-134,0c-40.2-19.1-70.8-49.8-78.5-80.4c-15.3-59.3-47.9-61.3-246.9-9.6c-503.4,128.2-895.8,522.5-1024,1027.9c-51.7,195.2-49.8,227.8,9.6,243.1c30.6,7.7,61.3,38.3,80.4,76.6c40.2,86.1,15.3,164.6-67,202.9c-72.7,34.4-74.7,57.4-23,258.4c126.3,497.7,503.4,880.5,1004.9,1022.1C2655.3,4038.1,2714.6,4036.2,2729.9,3976.8z"/><path d="M2282,3664.8c-72.7-74.7-76.6-158.9-9.6-224c97.6-99.5,277.5-30.6,277.5,103.4c0,74.6-68.9,151.2-147.4,166.5C2350.9,3720.4,2331.8,3712.7,2282,3664.8z"/><path d="M3296.5,3693.6c-151.2-76.6-101.4-300.5,67-300.5c153.1,0,220.1,178,103.4,275.6C3401.8,3724.2,3367.3,3729.9,3296.5,3693.6z"/><path d="M1792,3174.8c-120.6-101.5-30.6-296.7,124.4-271.8c86.1,13.4,135.9,72.7,135.9,158.9C2052.3,3199.7,1899.2,3268.6,1792,3174.8z"/><path d="M2772,3180.6c-38.3-30.6-49.8-55.5-49.8-114.8c0-149.3,149.3-222,260.3-124.4C3141.4,3075.3,2936.6,3308.8,2772,3180.6z"/><path d="M3746.3,3172.9c-78.5-76.6-63.2-201,30.6-248.8c80.4-42.1,128.2-34.4,191.4,26.8c68.9,68.9,70.8,134,5.7,210.5C3910.9,3238,3815.2,3243.8,3746.3,3172.9z"/><path d="M2328,2723.1c-103.4-42.1-134-174.2-59.3-258.4c91.9-109.1,281.4-38.3,281.4,105.3C2550,2677.2,2423.7,2763.3,2328,2723.1z"/><path d="M3296.5,2707.8c-162.7-80.4-101.4-300.5,82.3-294.8c76.6,1.9,147.4,78.5,147.4,157c0,61.3-65.1,143.6-124.4,160.8C3380.7,2736.5,3332.9,2727,3296.5,2707.8z"/><path d="M1792,2198.7c-111-93.8-38.3-279.5,109.1-279.5c134,0,202.9,179.9,103.4,277.5C1945.2,2258,1860.9,2258,1792,2198.7z"/><path d="M2770.1,2196.8c-68.9-67-67-183.8,1.9-237.3c109.1-86.1,264.1-15.3,264.1,122.5C3036.2,2223.6,2867.7,2296.3,2770.1,2196.8z"/><path d="M3746.3,2196.8c-99.5-97.6-30.6-277.5,105.3-277.5c76.6,0,172.3,90,172.3,162.7c0,30.6-23,72.7-55.5,107.2C3895.6,2259.9,3811.4,2263.8,3746.3,2196.8z"/><path d="M2272.5,1699.1c-61.3-59.3-61.3-143.6-1.9-212.5c93.8-111,279.5-38.3,279.5,109.1C2550,1729.7,2370.1,1798.6,2272.5,1699.1z"/><path d="M3281.2,1733.5c-30.6-11.5-80.4-107.2-80.4-156.9c0-55.5,76.6-134,145.5-147.4c84.2-15.3,179.9,67,179.9,157C3526.2,1704.8,3399.8,1781.4,3281.2,1733.5z"/><path d="M6885.4,4350.1c-645-97.6-1205.9-553.2-1445.1-1171.4c-201-520.6-126.3-1114,201-1604c105.3-153.1,352.2-398.1,513-503.4c346.5-229.7,800.1-338.8,1182.9-281.4c432.6,63.2,784.8,245,1085.3,564.6c363.7,384.7,545.5,911.1,484.2,1403c-28.7,237.4-122.5,514.9-243.1,715.9c-168.5,279.4-476.6,566.6-763.7,708.2C7597.4,4332.9,7203.1,4397.9,6885.4,4350.1z M6979.1,3969.2c15.3-28.7,55.5-65.1,88-78.5c51.7-21.1,70.8-21.1,124.4,5.7c40.2,19.1,70.8,49.8,78.5,80.4c15.3,61.3,61.3,61.3,256.5,7.7c505.3-137.8,888.1-524.5,1016.4-1027.8c49.8-197.2,47.9-220.1-21-246.9c-116.7-44-120.6-220.1-5.7-273.7c74.6-34.4,76.6-55.5,24.9-256.5c-128.2-501.5-526.4-897.7-1027.9-1027.9c-195.2-49.8-227.8-47.9-243.1,11.5c-5.7,26.8-38.3,61.3-70.8,76.6c-84.2,44-164.6,21.1-214.4-61.3c-36.4-65.1-42.1-67-122.5-55.5c-135.9,17.2-369.4,103.4-513,187.6c-158.9,93.8-394.3,327.3-486.2,482.3c-82.3,137.8-170.3,384.7-185.6,516.8c-11.5,97.6-9.6,101.5,38.3,114.8c32.5,7.7,63.2,36.4,82.3,78.5c30.6,63.2,30.6,70.8,0,134c-19.1,42.1-49.8,70.8-82.3,78.5c-47.9,13.4-49.8,17.2-38.3,114.8c5.7,55.5,36.4,170.4,65.1,252.7c158.9,449.8,501.5,767.5,976.2,903.4C6904.5,4038.1,6946.6,4036.2,6979.1,3969.2z"/><path d="M6535.1,3670.6c-147.4-124.4-5.7-335,178-266.1c36.4,15.3,86.1,105.3,86.1,158.9c0,55.5-76.6,134-145.5,147.4C6607.8,3718.4,6582.9,3710.8,6535.1,3670.6z"/><path d="M7505.5,3662.9c-70.8-72.7-74.7-157-7.7-222c97.6-99.5,277.5-30.6,277.5,105.3c0,76.6-90,172.3-162.7,172.3C7582.1,3718.4,7540,3695.5,7505.5,3662.9z"/><path d="M6025.9,3161.4c-65.1-76.6-63.2-141.6,5.8-210.5c63.2-61.2,111-68.9,191.4-26.8c143.6,72.7,82.3,296.7-82.3,296.7C6091,3220.8,6064.2,3207.4,6025.9,3161.4z"/><path d="M7017.4,3174.8c-111-93.8-38.3-279.5,109.1-279.5c137.8,0,208.6,201,101.5,285.2C7161,3234.2,7082.5,3232.3,7017.4,3174.8z"/><path d="M7995.5,3172.9c-99.5-97.6-30.6-277.5,103.4-277.5c88,0,162.7,74.6,162.7,162.7C8261.6,3199.7,8093.1,3272.5,7995.5,3172.9z"/><path d="M6577.2,2723.1c-99.5-40.2-132.1-168.4-65.1-252.7c103.4-134,313.9-26.8,277.5,141.7C6770.5,2696.3,6655.7,2755.7,6577.2,2723.1z"/><path d="M7570.6,2727c-24.9-3.8-61.3-28.7-82.3-55.5c-86.1-109.1-13.4-258.4,124.4-258.4c57.4,0,86.1,11.5,118.7,51.7C7836.6,2587.2,7735.2,2751.8,7570.6,2727z"/><path d="M6031.7,2189.1c-32.5-34.5-55.5-76.6-55.5-107.2c0-72.7,95.7-162.7,172.3-162.7c157,0,214.4,225.9,74.7,296.7C6142.7,2258,6094.8,2250.3,6031.7,2189.1z"/><path d="M7017.4,2198.7c-111-93.8-38.3-279.5,109.1-279.5c82.3,0,151.2,74.6,151.2,162.7C7277.7,2223.6,7124.6,2292.5,7017.4,2198.7z"/><path d="M7995.5,2196.8c-99.5-97.6-30.6-277.5,103.4-277.5c88,0,162.7,74.6,162.7,162.7C8261.6,2223.6,8093.1,2296.3,7995.5,2196.8z"/><path d="M6521.7,1699.1c-70.8-68.9-65.1-164.6,13.4-229.7c72.7-61.3,155-55.5,222,21.1c49.8,55.5,53.6,103.4,13.4,178C6722.7,1762.3,6598.2,1777.6,6521.7,1699.1z"/><path d="M7497.9,1699.1c-61.3-59.3-61.3-143.6-1.9-212.5c93.8-111,279.4-38.3,279.4,109.1C7775.4,1729.7,7595.5,1798.6,7497.9,1699.1z"/><path d="M2693.6,596.6c-438.3-67-809.6-308.2-1048.9-681.4C1441.8-398.7,1369-737.5,1428.4-1084c128.2-740.7,803.9-1286.2,1535.1-1240.3c363.7,24.9,664.2,166.5,945.5,451.7c157,156.9,197.1,210.5,271.8,365.6c124.4,254.6,156.9,384.7,156.9,650.8c0,260.3-32.5,396.2-143.6,625.9C3920.5,326.7,3269.7,684.6,2693.6,596.6z M2764.4,229.1c-116.8-124.4,19.1-319.7,176.1-254.6c109.1,45.9,130.2,202.9,36.4,275.6c-28.7,19.1-23,23,34.5,23c99.5,0,260.3-49.8,413.4-124.4c312-153.1,534-482.3,589.5-869l11.5-86.1l-47.9,51.7c-99.5,107.2-279.5,38.3-279.5-109.1c0-49.8,13.4-76.6,61.3-116.7c74.6-63.2,155-55.5,222,21l44,51.7l-11.5-74.6c-51.7-323.5-135.9-499.6-325.4-687.2c-185.7-187.6-390.5-287.1-668-325.4l-93.8-13.4l53.6,47.9c158.9,135.9-44,371.3-208.6,241.2c-68.9-53.6-70.8-170.4-1.9-237.4c53.6-55.5,55.5-55.5-134-19.1c-285.2,53.6-557,231.6-710.1,463.2c-80.4,122.5-170.4,369.4-185.7,507.2l-7.7,91.9l34.5-45.9c49.8-61.2,134-78.5,204.8-42.1c63.2,32.5,80.4,65.1,80.4,151.2c0,130.1-164.6,197.1-262.2,105.3l-44-40.2v61.3c0,166.5,107.2,430.7,243.1,599.1c172.3,214.4,509.1,392.4,750.3,396.2l65.1,1.9L2764.4,229.1z"/><path d="M2310.7-228.4c-145.5-84.2-93.8-304.3,70.8-302.4c70.8,1.9,112.9,26.8,145.5,90c36.4,67,26.8,120.6-32.5,179.9C2435.2-203.5,2373.9-192,2310.7-228.4z"/><path d="M3256.3-260.9c-68.9-68.9-70.8-134-5.7-210.5c38.3-45.9,65.1-59.3,114.8-59.3c170.4,0,222,222,70.8,302.4C3369.2-192,3315.6-201.6,3256.3-260.9z"/><path d="M2764.4-747.1c-44-47.9-55.5-143.6-23-202.9c30.6-59.3,124.4-88,193.3-57.4c67,26.8,120.6,126.3,99.5,183.8C2992.1-703,2844.8-660.9,2764.4-747.1z"/><path d="M2282-1235.2c-72.7-74.6-76.6-158.9-9.6-223.9c97.6-99.5,277.5-30.6,277.5,103.4c0,74.6-68.9,151.2-147.4,166.5C2350.9-1179.7,2331.8-1187.3,2282-1235.2z"/><path d="M3296.5-1206.4c-151.2-76.6-101.4-300.5,67-300.5c153.1,0,220.1,178,103.4,275.6C3401.8-1175.8,3367.3-1170.1,3296.5-1206.4z"/><path d="M6952.3,600.4c-870.9-120.6-1466.2-981.9-1253.7-1810.7c15.3-63.2,68.9-197.1,118.7-296.7c76.6-157,116.8-208.6,283.3-373.2c149.3-151.2,223.9-210.5,344.5-271.8c476.6-245,966.6-233.5,1420.2,34.4c157,91.9,424.9,363.7,518.7,524.5C8684.6-1082,8654-502.1,8301.8-4.4C8005.1,414.8,7438.5,667.4,6952.3,600.4z M7023.2,250.2c-93.8-72.7-68.9-241.2,42.1-279.4c107.2-38.3,212.5,36.4,212.5,147.4c0,42.1-15.3,84.2-42.1,112.9l-44,47.9l105.3-11.5c327.3-30.6,673.7-268,828.8-564.7c72.7-137.8,105.3-243.1,126.3-402l15.3-101.4l-51.7,49.8c-101.4,97.6-268,36.4-268-97.6c0-90,17.2-120.6,80.4-153.1c70.8-36.4,137.8-23,195.2,40.2l44,45.9l-17.2-118.7c-32.5-256.5-176.1-526.4-365.6-692.9c-130.1-112.9-331.1-210.5-514.9-246.9c-191.4-40.2-195.2-38.3-139.7,17.2c68.9,67,67,183.7-1.9,237.4c-164.6,130.1-367.5-105.3-208.6-241.2l53.6-47.9l-93.8,13.4c-275.6,36.4-478.5,135.9-669.9,327.3c-187.6,185.7-271.8,361.8-323.5,685.3l-11.5,74.6l44-51.7c67-76.6,147.4-84.2,222-21c47.9,40.2,61.3,67,61.3,116.7c0,147.4-179.9,216.3-279.4,109.1l-47.9-51.7l11.5,86.1c67,470.9,371.3,832.6,803.9,957c63.2,19.1,149.3,34.5,189.5,34.5C7044.2,273.1,7050,269.3,7023.2,250.2z"/><path d="M6560-228.4c-149.3-80.4-93.8-302.4,74.7-302.4c49.8,0,76.6,13.4,114.8,59.3c65.1,76.6,63.2,141.7-5.8,210.5C6684.4-203.5,6625-192,6560-228.4z"/><path d="M7505.5-260.9c-59.3-59.3-68.9-112.9-32.5-179.9c32.5-63.2,74.6-88.1,145.5-90c80.4,0,157,76.6,157,157c0,72.7-91.9,168.4-162.7,168.4C7582.1-205.4,7540-228.4,7505.5-260.9z"/><path d="M7015.5-745.2c-57.4-65.1-68.9-120.6-36.4-183.8c40.2-78.5,126.3-111,202.9-80.4c70.8,28.7,95.7,70.8,95.7,158.9C7277.7-718.4,7103.6-649.5,7015.5-745.2z"/><path d="M6535.1-1229.4c-147.4-124.4-5.7-335,178-266.1c36.4,15.3,86.1,105.3,86.1,158.9c0,55.5-76.6,134-145.5,147.4C6607.8-1181.6,6582.9-1189.2,6535.1-1229.4z"/><path d="M7553.4-1200.7c-162.7-65.1-116.8-306.3,59.3-306.3c151.2,0,214.4,160.8,107.2,269.9C7662.5-1179.7,7624.2-1172,7553.4-1200.7z"/><path d="M2477.3-2875.5c-210.5-97.6-342.6-252.7-396.2-463.2c-72.7-285.2,90-591.4,388.5-729.3c298.6-139.7,673.8,9.6,825,329.2c76.6,156.9,88,250.7,49.8,398.1C3244.8-2946.3,2818-2716.6,2477.3-2875.5z M2894.5-3197.1c97.6-63.2,139.7-151.2,139.7-281.4c0-204.8-111-313.9-321.6-315.8c-204.8,0-321.6,116.7-321.6,325.4c0,120.6,45.9,210.5,139.7,271.8C2620.8-3135.8,2804.6-3135.8,2894.5-3197.1z"/><path d="M3981.7-2856.4c-170.3-63.2-323.5-208.6-400-380.9c-134-304.3,15.3-660.4,346.4-826.9c86.1-44,130.2-53.6,248.8-55.5c124.4,0,160.8,7.7,271.8,63.2c231.6,112.9,363.7,312,375.1,562.7c7.7,126.3,1.9,160.8-42.1,258.4c-67,145.5-202.9,283.3-346.4,352.2c-93.8,45.9-137.8,55.5-248.8,53.6C4113.8-2829.6,4020-2843,3981.7-2856.4z M4349.2-3187.5c103.4-51.7,153.1-141.6,153.1-277.5c0-214.4-109.1-327.3-315.8-329.2c-212.5,0-325.4,112.9-325.4,329.2c0,132.1,32.5,193.3,143.6,269.9C4085.1-3141.6,4251.6-3137.7,4349.2-3187.5z"/><path d="M5564.6-2881.2c-141.7-70.8-279.4-208.6-342.6-348.4c-139.7-298.6,7.7-669.9,329.2-826.9c107.2-53.6,147.4-63.2,262.2-63.2c252.7,1.9,482.3,157,599.1,407.7c107.2,225.8,49.8,495.7-143.6,689.1c-134,134-248.8,183.8-436.4,191.4C5694.8-2825.8,5668-2831.5,5564.6-2881.2z M5962.8-3174.1c193.3-99.5,243.1-384.7,91.9-535.9c-101.4-101.5-302.4-116.8-434.5-34.5c-82.3,49.8-122.5,141.7-122.5,281.4c0,134,49.8,223.9,153.1,275.6C5727.3-3149.2,5899.6-3141.6,5962.8-3174.1z"/><path d="M7034.6-2883.2c-243.1-114.8-394.3-340.7-396.2-587.6c0-114.8,7.7-155,61.3-260.3c160.8-329.2,528.3-478.5,830.7-336.9c434.5,202.9,537.9,706.3,214.4,1039.3C7549.5-2827.7,7272-2772.1,7034.6-2883.2z M7469.1-3197.1c93.8-61.3,137.8-147.4,137.8-268c1.9-210.5-112.9-329.2-319.6-329.2c-208.6,0-321.6,111-321.6,315.8c0,130.2,42.1,218.2,139.7,281.4C7195.4-3135.8,7379.2-3135.8,7469.1-3197.1z"/></g></g>
</svg>