<?xml version="1.0" encoding="utf-8"?>
<!-- Svg Vector Icons : http://www.onlinewebfonts.com/icon -->
<!DOCTYPE svg PUBLIC "-//W3C//DTD SVG 1.1//EN" "http://www.w3.org/Graphics/SVG/1.1/DTD/svg11.dtd">
<svg version="1.1" xmlns="http://www.w3.org/2000/svg" xmlns:xlink="http://www.w3.org/1999/xlink" x="0px" y="0px" viewBox="0 0 1000 1000" enable-background="new 0 0 1000 1000" xml:space="preserve">
<metadata> Svg Vector Icons : http://www.onlinewebfonts.com/icon </metadata>
<g><g transform="translate(0.000000,486.000000) scale(0.100000,-0.100000)"><path d="M155.5,4455.7l-55.5-55.5v-365.6c0-231.6,7.7-380.9,21.1-411.5c13.4-26.8,51.7-61.3,86.1-78.5l65.1-30.6v-181.8c0-204.8,11.5-241.2,95.7-275.6l57.4-23V-390.7V-3815H310.5c-101.4,0-122.5-5.7-162.7-49.8c-47.9-51.7-47.9-55.5-47.9-432.6v-382.8l55.5-55.5l55.5-55.5h4789h4789l55.5,55.5l55.5,55.5v367.5c0,476.6-9.6,497.7-222,497.7h-103.4v3424.3v3424.2l57.4,23c84.2,34.4,95.7,70.8,95.7,275.6v181.8l65.1,30.6c34.4,17.2,72.7,51.7,86.1,78.5c13.4,30.6,21,179.9,21,411.5v365.6l-55.5,55.5l-55.5,55.5H5000H211L155.5,4455.7z M9574.6,4023.1v-162.7h-733.1h-731.2l-134,80.4l-134,82.3l-367.5,5.7c-409.6,7.7-459.4-3.8-503.4-111l-23-57.4H5000H3051.5l-19.1,55.5c-38.3,107.2-97.6,120.6-507.2,112.9l-367.5-5.7l-135.9-80.4l-135.9-82.3h-731.2H425.4v162.7v162.7H5000h4574.6V4023.1z M2703.1-140v-3828.1H2550h-153.1V-140v3828.1H2550h153.1V-140z M7603.1-140v-3828.1h-149.3h-151.2l-11.5,520.6c-17.2,673.8-17.2,5087.6,0,6241.8l11.5,893.9h151.2h149.3V-140z M2052.3-193.6v-3747.7l-402,55.5l-402,57.4v3468.3v3468.3l388.5,222c212.5,122.5,392.4,224,402,224C2046.6,3554.1,2052.3,1867.9,2052.3-193.6z M8382.1,3322.5l369.4-210.5V-362c0-2065.3-7.7-3472.1-17.2-3472.1c-21,0-660.4-90-733.1-103.4l-53.6-9.6v3751.6c0,3548.7,1.9,3753.5,32.5,3742C7999.3,3538.8,8179.2,3437.4,8382.1,3322.5z M1286.7,3525.4c0-3.8-55.5-38.3-120.6-76.6c-120.6-67-126.3-67-344.5-67h-224v76.6v76.6h344.5C1131.7,3535,1286.7,3531.2,1286.7,3525.4z M6952.3,3458.4v-76.6H5000H3047.7v76.6v76.6H5000h1952.3V3458.4z M9402.3,3458.4v-76.6h-227.8c-227.8,0-229.7,0-344.5,67c-65.1,38.3-116.7,72.7-116.7,76.6c0,5.7,155,9.6,344.5,9.6h344.5V3458.4z M903.9-388.8V-3815h-76.6h-76.6v3426.2v3426.2h76.6h76.6V-388.8z M6952.3,2874.6V2712H5000H3047.7v162.7v162.7H5000h1952.3V2874.6z M9249.2-388.8V-3815h-76.6h-76.6v3426.2v3426.2h76.6h76.6V-388.8z M6952.3-388.8v-2775.4H5000H3047.7v2775.4v2775.4H5000h1952.3V-388.8z M6952.3-3652.3V-3815H5000H3047.7v162.7v162.7H5000h1952.3V-3652.3z M1648.5-4226.5c520.6-74.7,633.6-86.1,920.7-86.1c365.6,0,426.8,15.3,463.2,116.7l19.1,55.5H5000h1948.5l24.9-59.3c38.3-95.7,107.2-112.9,463.2-112.9c269.9,0,396.2,11.5,913,86.1c514.9,74.7,643.1,86.1,913,86.1h312v-162.7v-162.7H5000H425.4v162.7v162.7h313.9C1011.1-4140.4,1135.5-4151.9,1648.5-4226.5z"/><path d="M5698.6,2013.3c-44-42.1-47.9-61.3-47.9-214.4v-168.4l-187.6-187.6l-185.7-185.7h-149.3c-93.8,0-170.4-9.6-202.9-28.7c-101.5-51.7-120.6-195.2-36.4-271.8c28.7-26.8,76.6-36.4,204.8-40.2l164.6-7.7l197.1-193.3l195.2-195.2V361.5c0-143.6,3.8-162.7,47.9-204.8c63.2-65.1,178-65.1,235.4-3.8c36.4,38.3,42.1,67,42.1,204.8v162.7l195.2,195.2l197.1,197.1h158.9c151.2,0,162.7,3.8,216.3,55.5c68.9,70.8,72.8,151.2,9.6,225.9c-44,49.8-57.4,53.6-216.3,59.3l-168.4,7.7l-195.2,193.3l-197.1,195.2v158.9c0,143.6-3.8,162.7-47.9,204.8C5865.2,2078.4,5761.8,2078.4,5698.6,2013.3z M5957,1209.4l124.4-124.4l-130.2-130.2L5823,826.6l-128.2,128.2L5564.6,1085l124.4,124.4c67,68.9,128.2,124.4,134,124.4S5890,1278.3,5957,1209.4z"/><path d="M3807.5,1215.2c-93.8-72.7-68.9-241.2,42.1-279.4c68.9-24.9,107.2-15.3,170.3,40.2c59.3,53.6,57.4,164.6-1.9,220.1C3968.3,1243.9,3859.2,1253.4,3807.5,1215.2z"/><path d="M5352.2-599.4c-158.9-63.2-120.6-306.3,47.9-306.3c88,0,149.3,42.1,164.6,111c17.2,82.3-19.1,155-95.7,185.7c-36.4,15.3-68.9,28.7-70.8,26.8C5394.3-582.1,5373.2-589.8,5352.2-599.4z"/><path d="M3631.4-1355.4c-70.8-68.9-65.1-164.6,11.5-227.8c76.6-65.1,141.6-63.2,210.5,5.8c61.2,63.2,68.9,111,26.8,191.4C3832.4-1292.3,3708-1277,3631.4-1355.4z"/><path d="M6196.3-2274.2c-126.3-124.4,17.2-331.1,176.1-254.6c28.7,13.4,65.1,49.8,78.5,78.5C6527.4-2291.4,6320.7-2147.9,6196.3-2274.2z"/></g></g>
</svg>