<?xml version="1.0" encoding="utf-8"?>
<!-- Svg Vector Icons : http://www.onlinewebfonts.com/icon -->
<!DOCTYPE svg PUBLIC "-//W3C//DTD SVG 1.1//EN" "http://www.w3.org/Graphics/SVG/1.1/DTD/svg11.dtd">
<svg version="1.1" xmlns="http://www.w3.org/2000/svg" xmlns:xlink="http://www.w3.org/1999/xlink" x="0px" y="0px" viewBox="0 0 1000 1000" enable-background="new 0 0 1000 1000" xml:space="preserve">
<metadata> Svg Vector Icons : http://www.onlinewebfonts.com/icon </metadata>
<g><g transform="translate(0.000000,503.000000) scale(0.100000,-0.100000)"><path d="M149.4,4794.5c-86.1-84.2-55.5-222,59.3-269.8l65.1-26.8V-96.3v-4592.3l47.8-45.9l45.9-47.9h796h796l45.9,47.9l47.8,45.9v1178.7v1176.8H5000h2946.7v-1176.8v-1178.7l47.8-45.9l45.9-47.9h796h796l45.9,47.9l47.8,45.9V-96.3v4594.2l65.1,26.8c114.8,47.8,145.4,185.6,59.3,269.8l-45.9,47.8H5000H195.3L149.4,4794.5z M1077.4,30v-4487H838.3H599.1V30v4487h239.2h239.2V30z M1728,30v-4488.9l-156.9,5.7l-158.8,5.7l-5.7,4458.3c-1.9,2453,0,4469.8,5.7,4483.2c5.7,15.3,57.4,23,162.6,23H1728V30z M7927.6,4354.4v-162.6H5000H2072.4v162.6V4517H5000h2927.6V4354.4z M8587.7,30v-4477.5l-156.9-5.7l-158.8-5.7V30V4519l158.8-5.7l156.9-5.7V30z M9400.9,30v-4487h-239.2h-239.2V30v4487h239.2h239.2V30z M4502.5,1503.4V-859.7H3277.9H2053.3v2363.1v2363.1h1224.6h1224.6V1503.4z M5168.4,1499.5l3.8-2359.3H5000h-172.2V1490c0,1293.5,5.7,2357.4,13.4,2365c7.7,7.7,82.3,9.6,168.4,7.7l153.1-5.7L5168.4,1499.5z M7942.9,1499.5l3.8-2359.3H6722.1H5497.5v2363.1v2363.1l1220.8-3.8l1218.9-5.7L7942.9,1499.5z M7927.6-1349.6v-160.7H5000H2072.4v160.7v162.7H5000h2927.6V-1349.6z M7927.6-1931.3v-76.5H5000H2072.4v76.5v76.5H5000h2927.6V-1931.3z"/><path d="M3134.4,3682.8c-70.8-36.4-690.8-648.7-729-719.5c-40.2-76.5-32.5-126.3,28.7-189.4c40.2-38.3,74.6-55.5,118.6-55.5c55.5,0,103.3,40.2,432.4,369.3c204.7,200.9,375,386.5,382.7,411.4c17.2,68.9-30.6,158.8-101.4,187.5C3189.9,3719.1,3203.3,3719.1,3134.4,3682.8z"/><path d="M3966.7,3692.3c-59.3-23-547.2-503.2-585.5-577.9c-65.1-120.6,68.9-269.8,199-222c68.9,26.8,554.9,509,589.3,585.5C4225.1,3606.2,4094.9,3742.1,3966.7,3692.3z"/><path d="M3168.8,2100.4c-859.1-859.1-840-832.3-740.5-949.1c38.3-45.9,65.1-59.3,118.6-59.3c67,0,107.2,36.4,847.7,780.7c428.6,428.6,782.6,794.1,790.3,813.2c15.3,45.9-34.4,158.8-80.4,183.7C3993.5,2928.9,4003.1,2934.6,3168.8,2100.4z"/><path d="M2606.3,2362.5c-130.1-130.1-210.5-223.9-218.1-258.3c-24.9-111,99.5-231.5,204.7-199c53.6,17.2,390.3,344.4,428.6,415.2c40.2,78.4,32.5,126.3-28.7,189.4c-38.3,38.3-74.6,55.5-118.6,55.5C2822.5,2565.3,2782.3,2534.7,2606.3,2362.5z"/><path d="M6766.1,1124.5C6046.6,405,5975.8,330.4,5975.8,273c0-89.9,72.7-156.9,166.5-156.9c70.8,0,99.5,26.8,853.4,780.7c742.4,742.4,778.8,782.6,778.8,849.6c0,53.6-13.4,80.4-59.3,118.6C7598.5,1964.5,7625.3,1983.6,6766.1,1124.5z"/><path d="M7330.6,885.3c-189.4-189.4-206.6-212.4-206.6-277.4c0-99.5,67-166.5,166.5-166.5c65,0,88,17.2,277.5,206.6c189.4,189.4,206.6,212.4,206.6,277.5c0,99.5-67,166.5-166.5,166.5C7543,1092,7520,1074.8,7330.6,885.3z"/><path d="M7571.7,273c-21.1-3.8-204.7-172.2-405.7-375c-346.3-346.3-367.4-371.2-367.4-440.1c0-97.6,67-164.6,166.5-164.6c67,0,91.8,21.1,440.1,369.3c340.6,340.6,369.3,375,369.3,438.2C7774.5,217.5,7688.4,290.2,7571.7,273z"/><path d="M6268.6-176.6c-258.3-258.3-292.8-300.4-292.8-355.9c0-86.1,88-174.1,174.1-174.1c55.5,0,97.6,34.5,355.9,292.8c258.3,258.3,292.8,300.4,292.8,355.9c0,86.1-88,174.1-174.1,174.1C6569,116.1,6526.9,81.7,6268.6-176.6z"/></g></g>
</svg>