<?xml version="1.0" encoding="utf-8"?>
<!-- Svg Vector Icons : http://www.onlinewebfonts.com/icon -->
<!DOCTYPE svg PUBLIC "-//W3C//DTD SVG 1.1//EN" "http://www.w3.org/Graphics/SVG/1.1/DTD/svg11.dtd">
<svg version="1.1" xmlns="http://www.w3.org/2000/svg" xmlns:xlink="http://www.w3.org/1999/xlink" x="0px" y="0px" viewBox="0 0 1000 1000" enable-background="new 0 0 1000 1000" xml:space="preserve">
<metadata> Svg Vector Icons : http://www.onlinewebfonts.com/icon </metadata>
<g><g transform="translate(0.000000,307.000000) scale(0.100000,-0.100000)"><path d="M5553.2,971.7c-44-34.5-45.9-51.7-55.5-310.1l-9.6-273.7L5268,301.8c-120.6-47.9-342.6-149.3-491.9-223.9L4502.3-60v74.6c0,90-32.5,160.8-109.1,231.6c-97.6,93.8-172.3,111-461.3,111c-235.4,0-271.8-3.8-348.4-42.1c-45.9-24.9-111-76.6-141.6-116.7l-59.3-74.7l-5.7-545.5l-5.7-545.5l-149.3-185.7c-369.4-449.8-635.5-964.7-775.2-1491.1l-44-166.5l-254.6-90c-587.6-210.5-916.8-436.4-1217.3-838.4c-91.9-122.5-141.6-170.4-191.4-189.5c-112.9-40.2-323.5-258.4-488.1-503.4c-90-135.9-151.2-246.9-151.2-275.6s23-72.8,55.5-105.3l55.5-55.5h4789h4789l55.5,55.5l55.5,55.5v367.5c0,468.9-11.5,497.7-202.9,497.7c-45.9,0-84.2,5.7-84.2,15.3c0,7.7,26.8,147.4,61.3,310.1c57.4,279.4,61.3,321.6,61.3,717.8c1.9,535.9-47.9,834.5-218.2,1290.1c-99.5,266-126.3,289-323.5,289c-126.3,0-166.5,7.7-262.2,57.4c-160.8,80.4-313.9,224-392.4,367.5c-61.3,114.8-65.1,130.2-65.1,312c0,170.4,5.7,204.8,55.5,310.1c89.9,195.2,254.6,327.3,493.8,396.2c172.3,49.8,179.9,74.6,122.5,446c-40.2,273.7-49.8,304.3-95.7,344.5c-28.7,24.9-67,44-84.2,44c-17.2,0-532.1-78.5-1142.7-172.3c-610.6-95.7-1127.4-174.2-1148.4-178c-40.2-3.8-38.3-5.7-45.9,212.5c-1.9,24.9-22.9,65.1-49.8,90l-45.9,47.9h-467C5633.5,1008.1,5593.4,1006.2,5553.2,971.7z M6297.7,642.5c-5.7-36.4-32.5-47.9-204.8-86.1c-107.2-24.9-214.4-49.8-233.5-55.5c-32.5-11.5-36.4-1.9-36.4,84.2v97.6h241.2C6299.7,682.7,6303.5,682.7,6297.7,642.5z M8826.2,525.7c1.9-68.9-1.9-74.6-112.9-130.2c-331.1-166.5-572.3-549.3-574.2-909.2c0-237.3,67-432.6,222-645c172.3-233.5,518.7-436.4,748.4-436.4c72.7,0,88-24.9,166.5-258.4c111-340.7,134-503.4,135.9-947.5c0-392.4-3.8-426.8-65.1-736.9c-34.4-178-70.8-331.1-76.6-340.7c-7.6-7.7-1822.2-11.5-4032.9-9.6l-4017.6,5.7l162.7,162.7c258.4,260.3,493.8,388.6,1014.5,557c287.1,91.9,310.1,112.9,333,289c21.1,151.2,172.3,591.4,281.4,813.5c199.1,405.8,451.7,742.7,796.3,1064.2C4423.9-421.7,5045.9-69.5,5832.6,144.8c379,103.4,497.7,126.3,1827.9,335C8920,675,8824.3,671.2,8826.2,525.7z M4177-117.4v-151.2l-90-65.1c-51.7-34.5-158.9-118.7-239.3-185.7l-149.3-120.6V-303v335h239.3H4177V-117.4z M9574.6-4380v-162.7h-4498c-2473,0-4498,5.7-4498,11.5c0,28.7,183.8,245,237.3,277.5c57.4,34.5,168.4,36.4,4410,36.4h4348.7V-4380z"/><path d="M6971.5,41.5c-668-107.2-821.1-141.6-1119.7-260.3C5059.3-527,4316.7-1124.2,3956.8-1740.5c-51.7-86.1-151.2-214.4-233.5-296.7c-128.2-130.2-143.6-153.1-143.6-220.1c0-82.3,68.9-160.8,141.7-160.8c40.2,0,560.8,55.5,2513.2,268c1592.5,172.3,1933.2,210.5,1998.3,222c34.4,5.7,84.2,30.6,109.1,55.5c82.3,82.3,65.1,135.9-137.8,384.7c-197.2,245-333.1,491.9-369.4,673.7c-30.6,147.4-24.9,438.3,9.6,601c42.1,195.2,38.3,258.4-13.4,313.9C7769.6,165.9,7706.5,160.2,6971.5,41.5z M7490.2-366.2c-19.1-178-1.9-394.3,45.9-578.1c40.2-158.9,176.1-440.2,275.6-574.2c42.1-57.4,72.7-107.2,67-112.9c-11.5-11.5-392.4-57.4-490-59.3H7316v222c0,220.1-13.4,281.4-74.7,327.3c-22.9,17.2-266,23-993.4,24.9h-962.8l-45.9-49.8c-47.9-51.7-47.9-55.5-47.9-409.6v-357.9l-497.7-53.6c-273.7-30.6-503.4-49.8-509.1-42.1c-19.1,19.1,118.7,248.8,239.3,401.9c444.1,558.9,1188.6,1041.3,1877.7,1217.3c128.2,32.5,1184.8,212.5,1200.1,202.9C7503.6-207.3,7497.9-280.1,7490.2-366.2z M6990.6-1585.5c0-78.5-1.9-143.6-3.8-145.5c-3.8,0-335-36.4-736.9-82.3l-733.1-80.4v225.9v225.9h736.9h736.9V-1585.5z"/></g></g>
</svg>