<?xml version="1.0" encoding="utf-8"?>
<!-- Svg Vector Icons : http://www.onlinewebfonts.com/icon -->
<!DOCTYPE svg PUBLIC "-//W3C//DTD SVG 1.1//EN" "http://www.w3.org/Graphics/SVG/1.1/DTD/svg11.dtd">
<svg version="1.1" xmlns="http://www.w3.org/2000/svg" xmlns:xlink="http://www.w3.org/1999/xlink" x="0px" y="0px" viewBox="0 0 1000 1000" enable-background="new 0 0 1000 1000" xml:space="preserve">
<metadata> Svg Vector Icons : http://www.onlinewebfonts.com/icon </metadata>
<g><g transform="translate(0.000000,432.000000) scale(0.100000,-0.100000)"><path d="M4779.6,3372.8c-229.7-114.8-467-302.4-767.5-601c-426.8-428.7-738.8-861.3-1002.9-1399.1C2703,750.7,2523.1,94.2,2481-564.2l-13.4-197.1H1369c-1171.3,0-1200-1.9-1247.9-91.9C107.7-878.1,100-1035,100-1268.5c0-491.9,3.8-499.5,239.2-511l95.7-5.7l9.6-813.4c11.5-874.7,13.4-884.3,124.4-1146.5c202.9-482.3,612.5-847.9,1129.2-1010.6l172.3-53.6h3129.3h3129.3l168.4,53.6c589.5,183.8,1027.8,622,1202,1202c42.1,134,44,183.8,53.6,955.1l11.5,813.4l105.3,5.7c124.4,5.7,179.9,30.6,208.6,93.8c28.7,61.3,28.7,779,0,832.6c-47.9,90-76.6,91.9-1247.9,91.9H7531.9l-13.4,197.1C7436.2,676,6890.8,1866.5,5996.9,2760.4c-155,153.1-356,336.9-451.7,407.7c-208.6,155-453.6,281.4-545.5,281.4C4959.6,3449.4,4869.6,3418.8,4779.6,3372.8z M5263.9,2680c260.3-530.2,474.6-1402.9,654.6-2647c40.2-283.3,80.4-579.9,86.1-654.6l15.3-139.7H5001.7H3985.4v44c0,74.6,93.8,765.6,153.1,1142.6c204.8,1270.9,465.1,2134.1,757.9,2526.4l91.9,120.6l90-97.6C5131.8,2915.4,5208.4,2796.7,5263.9,2680z M4320.3,2584.3c-176.1-432.5-350.2-1131.1-486.1-1940.8C3776.7,302.8,3673.4-413,3648.5-640.8l-13.4-120.6h-417.3h-417.2l7.7,53.6c3.8,28.7,13.4,128.2,19.1,220.1c57.4,916.8,463.2,1931.2,1077.6,2693c130.2,162.7,428.7,482.3,438.3,470.8C4349,2670.4,4339.4,2630.2,4320.3,2584.3z M5870.6,2459.9C6657.2,1590.9,7109,544,7179.8-564.2l11.5-197.1h-413.4h-415.3l-21.1,187.6c-176.1,1443.1-411.5,2551.3-681.4,3205.9C5627.5,2708.7,5698.4,2653.2,5870.6,2459.9z M9555-1272.4v-168.4H4999.8H444.5v168.4v166.5h4555.2H9555V-1272.4z M9223.9-2564.3c-7.7-865.1-11.5-893.8-151.2-1182.8c-65.1-135.9-107.2-191.4-252.6-335c-197.1-195.2-357.9-289-614.4-354.1c-147.4-38.3-208.6-38.3-3205.9-38.3c-2997.3,0-3058.5,0-3205.9,38.3c-256.5,65.1-417.2,158.9-614.4,354.1c-145.5,143.6-187.6,199.1-252.6,335c-139.7,289-143.5,317.7-151.2,1182.8l-9.6,769.4h4233.7h4233.7L9223.9-2564.3z"/></g></g>
</svg>