<?xml version="1.0" encoding="utf-8"?>
<!-- Svg Vector Icons : http://www.onlinewebfonts.com/icon -->
<!DOCTYPE svg PUBLIC "-//W3C//DTD SVG 1.1//EN" "http://www.w3.org/Graphics/SVG/1.1/DTD/svg11.dtd">
<svg version="1.1" xmlns="http://www.w3.org/2000/svg" xmlns:xlink="http://www.w3.org/1999/xlink" x="0px" y="0px" viewBox="0 0 1000 1000" enable-background="new 0 0 1000 1000" xml:space="preserve">
<metadata> Svg Vector Icons : http://www.onlinewebfonts.com/icon </metadata>
<g><g transform="translate(0.000000,512.000000) scale(0.100000,-0.100000)"><path d="M2185.4,4993.2c-147.4-42.1-281.4-122.5-417.3-248.8c-120.6-114.8-172.3-179.9-335-432.6c-132.1-204.8-289-658.4-377.1-1089.1c-114.8-568.5-168.4-1466.2-107.2-1824.1c70.8-421.1,218.2-777.1,472.8-1154.2C1670.5-121.2,1749-282,1835.1-616.9l51.7-191.4l5.7-997.2l7.7-995.3l-78.5-55.5c-336.9-233.5-668-846-803.9-1485.3c-51.7-248.8-49.8-333.1,9.6-390.5c38.3-40.2,65.1-47.9,158.9-47.9c151.2,0,206.7,42.1,224,168.4c17.2,124.4,42.1,181.8,101.4,239.3c74.7,70.8,197.2,97.6,310.1,70.8c109.1-26.8,162.7-78.5,239.3-235.4c34.5-68.9,88.1-139.7,130.2-176.1c65.1-49.8,90-57.4,193.3-57.4c172.3,0,246.9,53.6,346.4,250.7c93.8,183.8,157,227.8,317.7,225.9c191.4-1.9,294.8-99.5,317.7-296.7c17.2-143.6,70.8-189.5,220.1-189.5c99.5,0,120.6,5.7,170.4,55.5c30.6,30.6,55.5,70.8,55.5,88c0,90-103.4,524.5-172.3,725.4c-91.9,268-178,444.1-315.8,652.7c-93.8,139.7-298.6,359.8-407.7,434.5l-45.9,30.6l9.6,974.3c7.7,830.7,13.4,993.4,40.2,1115.9c78.5,342.6,187.6,581.9,423,928.3c313.9,463.2,463.2,859.4,507.2,1349.4c19.1,216.3-5.7,826.9-47.9,1156.1c-67,514.9-185.7,991.5-329.2,1332.2c-88,206.7-306.2,534-446,669.9C2776.8,4975.9,2468.7,5071.6,2185.4,4993.2z M2637.1,4629.5c122.5-55.5,246.9-168.4,342.6-308.2l70.8-103.4l-116.8-157c-208.6-275.6-327.3-566.6-369.4-909.2c-59.3-480.4,122.5-991.5,499.6-1412.6c61.3-67,256.5-227.8,390.5-321.6c47.9-34.4,47.9-34.4,23-147.4c-65.1-279.4-185.7-541.7-361.8-796.2c-323.5-468.9-505.3-913-539.8-1318.8c-7.7-90-23-143.6-42.1-160.8c-17.2-13.4-86.1-23-168.4-23h-137.8l-13.4,120.6c-49.8,467-227.8,924.5-513,1322.6c-191.4,268-371.3,662.3-405.8,895.8l-13.4,84.2l112.9,74.7c61.2,40.2,185.7,147.4,275.6,237.3c252.7,252.7,411.5,520.6,501.5,851.7c55.5,208.6,59.3,624,5.7,825c-72.7,273.7-206.7,535.9-379,740.7l-76.6,91.9l88,122.5C2039.9,4660.1,2338.5,4765.4,2637.1,4629.5z M1754.7,3594c220.1-451.7,183.7-993.4-97.6-1418.3c-76.6-116.8-304.3-354.1-375.2-392.4l-40.2-21l13.4,273.7c34.5,719.7,109.1,1192.5,264.1,1661.4l59.3,181.8l45.9-57.4C1649.5,3791.1,1708.8,3689.7,1754.7,3594z M3284.1,3622.7c132.1-426.8,210.5-945.6,235.4-1540.8l11.5-323.5l-78.5,61.3c-595.3,470.8-746.5,1286.2-356,1912.1c49.8,78.5,95.7,135.9,103.4,126.3C3209.4,3850.5,3245.8,3743.3,3284.1,3622.7z M2549.1-2150.1v-796.2l65.1-59.3c34.5-34.5,114.8-95.7,178-139.7c130.2-90,277.5-273.7,386.6-486.2c80.4-157,166.5-379,151.2-392.4c-5.7-5.7-42.1,3.8-84.2,23c-118.7,49.8-319.6,42.1-453.6-19.1c-137.8-63.2-300.5-222-350.3-342.6c-19.1-51.7-42.1-91.9-49.8-91.9c-7.7,0-36.4,45.9-63.2,103.4c-59.3,128.2-206.7,266-350.3,333c-132.1,61.3-331.1,68.9-451.7,17.2c-42.1-19.1-78.5-30.6-82.3-26.8c-24.9,26.8,162.7,430.7,281.4,606.8c90,132.1,273.7,308.2,379,361.8c44,21,88,57.4,99.5,76.6c11.5,24.9,19.1,321.6,19.1,832.6v796.3h162.7h162.7V-2150.1z"/><path d="M2172,1381.3c-128.2-49.8-289-195.2-359.8-325.4c-74.6-139.7-88-344.5-30.6-495.7c53.6-141.6,181.8-285.2,331.1-365.6c109.1-59.3,135.9-65.1,273.7-65.1c189.5,0,290.9,42.1,438.3,181.8c275.6,260.3,285.2,635.5,21.1,907.2c-122.5,128.2-256.5,189.5-430.7,197.2C2304.1,1419.6,2248.6,1413.9,2172,1381.3z M2535.7,1069.3c84.2-36.4,139.7-101.4,166.5-201c78.5-294.7-204.8-520.6-478.5-379c-116.8,59.3-157,139.7-149.3,304.3c7.7,147.4,45.9,216.3,151.2,268C2304.1,1101.9,2449.5,1105.7,2535.7,1069.3z"/><path d="M4932.1,3048.5c-126.3-49.8-130.2-233.5-7.7-296.7c34.5-19.1,112.9-28.7,225.9-28.7h174.2l3.8-3468.3l5.7-3470.2l51.7-111c70.8-151.2,149.3-245,269.9-325.4c195.2-130.2,195.2-130.2,1345.6-124.4l1031.7,5.7l109.1,51.7c189.5,88,342.6,258.4,411.5,461.3c24.9,68.9,28.7,578,26.8,3529.5l-1.9,3447.2l202.9,7.7c195.2,5.7,204.8,7.6,248.8,59.3c67,78.5,61.3,168.4-13.4,231.6l-59.4,49.8l-1992.5-1.9C5868,3065.7,4953.1,3058.1,4932.1,3048.5z M8253,1021.5V-680.1l-189.5-7.7c-170.3-5.7-195.2-11.5-239.3-51.7c-49.8-45.9-65.1-130.2-38.3-202.9c23-59.3,112.9-86.1,294.8-86.1H8253v-162.7v-162.7h-195.3c-174.2,0-199-3.8-239.3-42.1c-61.3-57.4-61.3-172.3,3.8-235.4c42.1-44,59.3-47.8,239.3-47.8H8253v-162.7v-162.7h-191.4c-179.9,0-197.1-3.8-239.3-47.9c-65.1-63.2-65.1-166.5,0-229.7c42.1-44,59.3-47.9,239.3-47.9H8253v-162.7v-162.7h-191.4c-179.9,0-197.1-3.8-239.3-47.9c-65.1-63.2-65.1-166.5,0-229.7c42.1-44,59.3-47.9,239.3-47.9H8253v-162.7v-162.7h-191.4c-179.9,0-197.1-3.8-239.3-47.9c-67-65.1-65.1-178,0-239.2c44-42.1,70.8-47.9,239.3-53.6l191.4-7.7v-262.2c-1.9-354.1-46-447.9-246.9-514.9c-89.9-30.6-1988.7-32.5-2097.8-1.9c-97.6,26.8-210.5,139.7-237.3,237.4c-11.5,42.1-21.1,181.8-21.1,312v233.5h160.8c193.3,0,271.8,24.9,308.2,97.6c42.1,80.4,34.5,128.2-26.8,191.4c-55.5,53.6-61.3,55.5-248.8,55.5h-193.3v162.7v162.7H5847c202.9,1.9,237.4,11.5,277.5,90c36.4,67,26.8,120.6-32.5,179.9c-55.5,53.6-61.3,55.5-248.8,55.5h-193.3v162.7v162.7h199.1c199.1,0,199.1,0,248.8,59.3c26.8,32.5,49.8,78.5,49.8,103.4c0,24.9-23,70.8-49.8,103.3c-49.8,59.3-49.8,59.3-248.8,59.3h-199.1v162.7v162.7h193.3c187.6,0,193.3,1.9,248.8,55.5c61.2,63.2,68.9,111,26.8,191.4c-36.3,72.7-57.4,78.5-279.4,78.5h-189.5v162.7v162.7h193.3c187.6,0,193.3,1.9,248.8,55.5c61.2,63.2,68.9,111,26.8,191.4c-36.3,72.7-114.8,97.6-308.2,97.6h-160.8v1703.5v1703.5h1301.6H8253V1021.5z"/></g></g>
</svg>