<?xml version="1.0" encoding="utf-8"?>
<!-- Svg Vector Icons : http://www.onlinewebfonts.com/icon -->
<!DOCTYPE svg PUBLIC "-//W3C//DTD SVG 1.1//EN" "http://www.w3.org/Graphics/SVG/1.1/DTD/svg11.dtd">
<svg version="1.1" xmlns="http://www.w3.org/2000/svg" xmlns:xlink="http://www.w3.org/1999/xlink" x="0px" y="0px" viewBox="0 0 1000 1000" enable-background="new 0 0 1000 1000" xml:space="preserve">
<metadata> Svg Vector Icons : http://www.onlinewebfonts.com/icon </metadata>
<g><g transform="translate(0.000000,502.000000) scale(0.100000,-0.100000)"><path d="M3493,4513.5L3184.6,4207l-134.9,28.9c-196.6,42.4-480,25.1-661.2-38.6c-202.4-71.3-327.7-152.3-541.7-354.7l-188.9-177.3l-769.2-368.2c-422.2-202.4-776.9-377.8-788.4-387.5c-13.5-13.5,453-487.7,1376.4-1405.3C2245.8,741,2874.2,118.3,2876.2,122.2c1.9,1.9,171.6,354.7,375.9,784.6c368.2,771.1,374,782.6,510.8,925.3c266,281.4,360.5,431.8,424.1,684.3c40.5,160,46.3,435.7,11.6,595.7l-25.1,113.7l304.6,304.6l306.5,306.5L4293,4328.4L3801.5,4820L3493,4513.5z M4150.4,3703.8l-133-133l-81,107.9c-81,111.8-192.8,219.8-323.9,320l-73.3,55.9l131.1,133l131.1,131.1l241-241l241-241L4150.4,3703.8z M3198.1,3831.1c298.8-144.6,499.3-354.7,626.5-653.5c163.9-391.3,88.7-682.4-275.7-1056.4l-196.6-202.4l-281.4-586C2916.7,1008.9,2783.6,739,2774,729.4c-7.7-7.7-485.8,456.9-1060.2,1031.3L667,2807.5l603.4,287.2l603.4,287.2l192.8,185.1c227.5,219.8,285.3,262.2,441.4,321.9c100.2,38.6,146.5,44.3,310.4,38.6C3003.4,3923.6,3018.8,3919.7,3198.1,3831.1z"/><path d="M4707.5,4579c-52.1-84.8-84.8-154.2-75.2-163.9s836.6-539.8,1839-1175.9c1002.4-638.1,1823.6-1162.4,1825.5-1164.3c1.9-1.9-19.3-50.1-46.3-108c-106-223.6-102.2-478.1,13.5-707.5l55.9-107.9l-196.6-227.5c-108-125.3-859.8-990.8-1671.3-1923.9L4977.4-2696.1l-1170.1-1.9h-1172v-345.1v-345l-456.9-7.7c-437.6-7.7-464.6-9.6-599.5-57.8c-198.6-71.3-337.3-158.1-483.9-306.5c-235.2-235.2-347-483.9-362.4-823.1L721-4780h4246.7h4246.7l-11.6,198.5c-15.4,337.3-127.2,586-362.4,821.2c-146.5,148.4-285.3,235.2-483.9,306.5c-134.9,48.2-161.9,50.1-597.6,57.8l-458.8,7.7v345v345.1l-925.3,3.8l-923.4,5.8L7013-891.8L8574.5,902.9l109.9-54c310.4-156.1,684.3-88.7,944.6,169.6c294.9,293,354.7,701.7,152.3,1033.3c-82.9,133-246.7,279.5-397.1,354.7c-138.8,69.4-152.3,71.3-348.9,71.3s-210.1-1.9-347-69.4l-140.7-71.3L6718.1,3501.4c-1006.2,641.9-1850.6,1177.8-1873.7,1195.2C4800,4723.6,4798.1,4721.7,4707.5,4579z M9310.8,2076.9c215.9-127.2,300.7-401,204.3-657.3c-96.4-262.2-426-383.6-709.4-262.2C8541.7,1273,8437.6,1620,8586,1893.7c98.3,179.3,237.1,248.7,480,241C9195.2,2128.9,9237.6,2119.3,9310.8,2076.9z M6953.3-3218.5V-3392H4967.7H2982.2v173.5v173.5h1985.5h1985.5V-3218.5z M8190.8-3760.2c308.4-65.5,589.9-331.6,643.8-609.2l13.5-63.6H4967.7H1089.2l11.6,63.6c23.1,115.7,113.7,273.7,221.7,381.7c115.7,113.8,239,183.1,397.1,221.7C1852.6-3733.2,8038.6-3727.5,8190.8-3760.2z"/></g></g>
</svg>