<?xml version="1.0" encoding="utf-8"?>
<!-- Svg Vector Icons : http://www.onlinewebfonts.com/icon -->
<!DOCTYPE svg PUBLIC "-//W3C//DTD SVG 1.1//EN" "http://www.w3.org/Graphics/SVG/1.1/DTD/svg11.dtd">
<svg version="1.1" xmlns="http://www.w3.org/2000/svg" xmlns:xlink="http://www.w3.org/1999/xlink" x="0px" y="0px" viewBox="0 0 1000 1000" enable-background="new 0 0 1000 1000" xml:space="preserve">
<metadata> Svg Vector Icons : http://www.onlinewebfonts.com/icon </metadata>
<g><g transform="translate(0.000000,460.000000) scale(0.100000,-0.100000)"><path d="M155.6,3951.1l-55.6-55.6v-950.3v-948.4l46-53.7l46-53.6l3479.3-5.7c3770.6-3.8,3571.3-9.6,3603.9,93.9c11.5,36.4,93.9-38.3,643.7-588.2c346.8-346.8,628.4-638,626.5-649.5c-3.8-9.6-406.2-417.7-896.6-902.4c-867.9-860.2-894.7-885.2-998.2-915.8c-434.9-124.5-630.4-611.2-390.9-973.3l47.9-72.8v-929.2v-929.2l-2157.3-3.8l-2157.3-5.7l-46-53.6c-44.1-51.7-46-63.2-46-354.5c1.9-314.2,7.7-339.1,90.1-383.2c30.6-17.2,952.2-23,3684.3-23h3642.2l46,47.9c46,44.1,47.9,57.5,51.7,310.4c3.8,344.9,1.9,352.5-53.6,408.1l-46,47.9l-1092.1,5.7l-1092.1,3.8v860.3v858.3l74.7,59.4c97.7,78.6,187.8,218.4,224.1,348.7c28.7,101.5,57.5,132.2,952.2,1030.8c507.7,507.7,938.8,923.5,956.1,923.5c74.7,0,249.1,84.3,337.2,162.9c51.7,46,122.6,137.9,159,205c59.4,109.2,65.1,136,65.1,274c0,187.8-42.2,289.3-176.3,433c-97.7,103.5-216.5,174.4-354.5,208.8c-78.5,21.1-172.4,109.2-1086.3,1023.1l-1002,1002l3.8,218.4c5.7,289.3,7.7,279.7-47.9,333.4l-46,47.9H3702H211.1L155.6,3951.1z M5828.6,3483.6c0-187.8,1.9-201.2,49.8-245.2c47.9-44.1,59.4-46,400.4-51.7c505.8-9.6,526.9,3.8,526.9,323.8v170.5h76.6h76.6v-737.6v-737.6h-76.6h-76.6v258.7c0,270.1-19.2,354.4-86.2,381.3c-17.2,5.8-1383.3,11.5-3034.8,11.5H680.5l-40.2-44.1c-38.3-40.2-42.2-67.1-46-320l-5.7-277.8l-80.5-5.7l-82.4-5.8v737.6v739.6h2701.5h2701.5V3483.6z M6476.2,3600.5l-5.7-82.4l-157.1-5.7l-159-5.8v88.1v86.2h164.8H6482L6476.2,3600.5z M8802.2,1194.1l-115-115l-691.7,693.6l-691.6,691.7v229.9v229.9l806.6-806.6l806.6-808.5L8802.2,1194.1z M6480.1,2378.1v-153.3H3702H923.9v153.3v153.3H3702h2778.1V2378.1z M9440.2,1019.7c72.8-40.2,143.7-178.2,143.7-279.7c0-109.2-70.9-237.6-153.3-281.6c-86.2-44.1-235.7-44.1-337.2,1.9c-143.7,65.1-201.2,266.3-124.5,436.8c44.1,93.9,99.6,134.1,214.6,157.1C9283.1,1075.3,9361.6,1063.8,9440.2,1019.7z M8148.8-599.3l-774-774l-116.9,116.9l-116.9,115l776,772.1L8693,400.9l113-113l115-115L8148.8-599.3z M6987.8-1430.8c88.1-51.7,130.3-143.7,132.2-283.5c1.9-92-7.7-132.2-38.3-172.4c-76.6-105.4-134.1-132.2-272.1-132.2c-113.1,0-138,7.7-201.2,55.6c-95.8,72.8-128.4,139.9-128.4,260.6c0,147.5,80.5,268.2,203.1,306.5C6757.9-1373.3,6916.9-1390.5,6987.8-1430.8z M6782.8-2365.7c17.2-5.8,23-183.9,23-812.4v-804.7h-86.2h-86.2v823.8v823.8l63.2-11.5C6729.1-2352.3,6769.4-2360,6782.8-2365.7z M9085.7-4396.6v-84.3H5656.2H2226.7v86.2v86.2l3429.5-1.9l3429.5-1.9V-4396.6z"/></g></g>
</svg>