<?xml version="1.0" encoding="utf-8"?>
<!-- Svg Vector Icons : http://www.onlinewebfonts.com/icon -->
<!DOCTYPE svg PUBLIC "-//W3C//DTD SVG 1.1//EN" "http://www.w3.org/Graphics/SVG/1.1/DTD/svg11.dtd">
<svg version="1.1" xmlns="http://www.w3.org/2000/svg" xmlns:xlink="http://www.w3.org/1999/xlink" x="0px" y="0px" viewBox="0 0 1000 1000" enable-background="new 0 0 1000 1000" xml:space="preserve">
<metadata> Svg Vector Icons : http://www.onlinewebfonts.com/icon </metadata>
<g><g transform="translate(0.000000,510.000000) scale(0.100000,-0.100000)"><path d="M100,2550V119.1h2201.2h2201.2v-1961.9v-1961.9h-650.8h-650.8v-488.1v-488.1H5000h1799.2v488.1v488.1h-650.8h-650.8v1961.9V119.1h1464.3h1464.3v-555.1V-991l-239.3-478.5c-256.5-513-275.6-572.3-195.2-647c44-42.1,55.5-42.1,599.1-42.1c614.4,0,627.8,1.9,648.9,122.5c11.5,53.6-21,128.2-227.8,543.6l-241.2,482.3v564.6v564.6h564.6H9900V2550v2430.9H5000H100V2550z M9574.6,4444.9v-248.8H5000H425.4v248.8v248.8H5000h4574.6V4444.9z M9574.6,2157.6V444.5H5000H425.4v1713.1v1713.1H5000h4574.6V2157.6z M5168.4-1837l-5.7-1958.1H5000h-162.7l-5.7,1958.1l-3.8,1956.2H5000h172.3L5168.4-1837z M8703.7-1603.5c57.4-114.8,105.3-214.4,105.3-220.1s-99.5-9.6-220.1-9.6h-220.1l109.1,220.1c61.3,120.6,112.9,220.1,114.8,220.1C8596.5-1393,8646.3-1486.8,8703.7-1603.5z M6473.8-4292.8v-162.7H5000H3526.2v162.7v162.7H5000h1473.8V-4292.8z"/></g></g>
</svg>