<?xml version="1.0" encoding="utf-8"?>
<!-- Svg Vector Icons : http://www.onlinewebfonts.com/icon -->
<!DOCTYPE svg PUBLIC "-//W3C//DTD SVG 1.1//EN" "http://www.w3.org/Graphics/SVG/1.1/DTD/svg11.dtd">
<svg version="1.1" xmlns="http://www.w3.org/2000/svg" xmlns:xlink="http://www.w3.org/1999/xlink" x="0px" y="0px" viewBox="0 0 1000 1000" enable-background="new 0 0 1000 1000" xml:space="preserve">
<metadata> Svg Vector Icons : http://www.onlinewebfonts.com/icon </metadata>
<g><g transform="translate(0.000000,512.000000) scale(0.100000,-0.100000)"><path d="M1760.1,4998.9c-19.1-9.6-42.1-34.5-53.6-55.5c-17.2-32.6-689.3-4348.6-689.3-4429c0-19.2,24.9-61.3,55.5-91.9l55.5-55.5h549.6h547.6l-49.8-80.4C2077.9,129.5,1919-219,1852-418.2c-128.3-386.8-153.2-553.4-155.1-1024.4c0-363.8,5.7-450,44-635.7c185.7-919.1,750.6-1725.3,1556.8-2221.2c934.4-572.5,2091-637.6,3084.8-172.3c957.4,448.1,1646.8,1325.1,1872.7,2378.2c59.4,279.6,72.8,773.6,28.7,1085.7c-59.4,417.4-195.3,821.5-398.3,1183.4l-103.4,181.9l553.4,9.6l555.3,9.6l45.9,53.6c24.9,28.7,46,68.9,46,86.2c0,24.9-614.7,4063.3-662.5,4348.6c-5.8,34.5-30.7,84.2-55.5,109.1l-46,46H5005.7C2872.6,5018.1,1781.1,5012.3,1760.1,4998.9z M8015.9,4652.3c9.6-49.8,603.2-3913.9,603.2-3935c0-9.6-1627.6-15.3-3619.1-15.3c-1989.5,0-3619.1,5.7-3619.1,15.3c0,21.1,593.6,3885.2,603.2,3935l9.6,42.1H5000h3006.3L8015.9,4652.3z M5995.7,91.2c0-266.2,1.9-279.6,46-331.3c44-51.7,53.6-53.6,248.9-59.3l203-7.7v-771.7v-773.6l44-47.9c23-28.7,68.9-55.5,101.5-61.3c49.8-9.6,72.8,0,124.5,45.9l65.1,57.5l5.7,775.5l5.7,775.5l189.6,7.7c168.5,5.7,193.4,11.5,237.5,51.7C7317-201.8,7317-198,7317,83.5c0,329.3,9.6,342.8,128.3,174.2c746.8-1074.2,718.1-2502.7-70.9-3548.2c-595.5-787-1602.7-1231.2-2604.2-1148.9c-291.1,23-469.1,59.4-748.7,153.2C2187.1-3677.2,1430.7-1440.7,2510.7,190.8l116.8,176.2h1683.1h1685.1V91.2z M6991.4,204.2V41.4h-335.1h-335.1v162.8v162.8h335.1h335.1V204.2z"/><path d="M2817.1,12.7c-105.3-55.5-310.2-494-392.5-838.7c-95.7-388.7-103.4-731.5-28.7-1124c170.4-898.1,833-1677.4,1702.3-2004.8c224-84.2,497.9-139.8,739.1-153.2l229.8-9.6l47.9,49.8c111.1,120.6,26.8,279.6-149.4,279.6c-316,0-695.1,93.8-1009.1,248.9c-279.6,137.9-428.9,248.9-653,484.5c-390.6,411.7-593.6,905.7-614.7,1489.7c-17.2,467.2,46,762.1,256.6,1179.6c118.7,239.4,124.5,256.6,101.5,312.1c-23,57.5-105.3,114.9-157,114.9C2876.4,39.5,2843.9,28,2817.1,12.7z"/></g></g>
</svg>