<?xml version="1.0" encoding="utf-8"?>
<!-- Svg Vector Icons : http://www.onlinewebfonts.com/icon -->
<!DOCTYPE svg PUBLIC "-//W3C//DTD SVG 1.1//EN" "http://www.w3.org/Graphics/SVG/1.1/DTD/svg11.dtd">
<svg version="1.1" xmlns="http://www.w3.org/2000/svg" xmlns:xlink="http://www.w3.org/1999/xlink" x="0px" y="0px" viewBox="0 0 1000 1000" enable-background="new 0 0 1000 1000" xml:space="preserve">
<metadata> Svg Vector Icons : http://www.onlinewebfonts.com/icon </metadata>
<g><g transform="translate(0.000000,512.000000) scale(0.100000,-0.100000)"><path d="M1661.9,1704.8C1206.3-119.3,831.2-1642.8,831.2-1683.1c0-44,17.2-97.6,45.9-137.8c91.9-134-24.9-126.3,1728.4-126.3h1581v-507.2v-507.2h162.7h162.7v-411.5v-411.5h-660.4h-660.4v-325.4v-323.5l-166.5-5.7l-168.4-5.7l-5.7-168.4l-5.8-166.5h2164.8h2162.9v172.3v172.3h-162.7h-162.7v325.4v325.4h-669.9h-669.9v411.5v409.6l168.4,5.7l166.5,5.7l5.7,503.4l3.8,501.5h1556.1c1525.5,0,1556.1,0,1617.4,38.3c40.2,24.9,78.5,72.7,103.4,130.2l40.2,90l-107.2,440.2c-59.3,243.1-438.3,1751.4-840.3,3355.4L7492.1,5020H4992.3H2492.6L1661.9,1704.8z M7321.7,4350.1c78.5-315.8,80.4-338.8,53.6-386.6c-59.3-97.6-22.9-227.8,70.8-262.2c36.4-13.4,76.6-160.8,350.3-1251.8c170.4-681.4,304.3-1242.2,298.6-1248c-5.7-5.7-243.1-9.6-526.4-9.6h-514.9l59.3,55.5c99.5,93.8,59.3,250.7-74.7,279.5c-103.4,23-189.5-51.7-191.4-166.5c0-53.6,13.4-80.4,59.3-118.7l59.4-49.8h-449.8h-449.8l55.5,55.5c74.6,76.6,74.6,157,0,233.5c-59.3,59.3-112.9,68.9-179.9,32.5c-65.1-32.5-88-74.7-90-153.1c0-53.6,13.4-80.4,59.3-118.7l59.3-49.8h-453.6h-453.6l59.3,55.5c99.6,93.8,59.3,250.7-74.6,279.5c-103.4,23-189.5-51.7-191.4-166.5c0-53.6,13.4-80.4,59.3-118.7l59.3-49.8h-453.6h-453.6l59.3,55.5c78.5,74.6,80.4,157,3.8,233.5c-59.3,59.3-112.9,68.9-179.9,32.5c-65.1-32.5-88.1-74.7-90-153.1c0-53.6,13.4-80.4,59.3-118.7l59.3-49.8h-453.6h-453.6l59.3,55.5c99.5,93.8,59.3,250.7-74.6,279.5c-103.4,23-189.5-51.7-191.4-166.5c0-53.6,13.4-80.4,59.3-118.7l59.3-49.8h-547.4c-446,0-547.4,5.7-547.4,24.9c0,68.9,233.5,970.4,268,1031.7c21.1,38.3,38.3,105.3,38.3,149.3c0,61.3,158.9,735,289,1230.7c15.3,57.4,26.8,70.8,67,70.8c26.8,0,68.9,21.1,93.8,47.9c67,65.1,63.2,149.3-7.7,220.1l-55.5,55.5l67,264.1c36.4,145.5,72.7,296.7,84.2,336.9l19.1,70.8l2241.4-3.8l2243.3-5.7L7321.7,4350.1z M8204.1,795.7c40.2-155,308.2-1230.7,308.2-1240.3c0-5.7-1584.8-9.6-3523.8-9.6c-3345.8,0-3521.9,1.9-3512.3,34.4c5.7,17.2,80.4,313.9,166.5,660.4l155,625.9h3194.6H8185L8204.1,795.7z M2416-846.6c-99.5-97.6-30.6-277.5,105.3-277.5c70.8,0,172.3,90,172.3,153.1c0,49.8-47.9,147.4-80.4,158.9c-13.4,5.7,170.4,11.5,409.6,11.5l434.5,1.9l-45.9-47.9c-99.5-97.6-30.6-277.5,105.3-277.5c70.8,0,172.3,90,172.3,153.1c0,49.8-47.9,147.4-80.4,158.9c-13.4,5.7,170.4,11.5,409.6,11.5l434.5,1.9l-45.9-47.9c-99.5-97.6-30.6-277.5,105.3-277.5c70.8,0,172.3,90,172.3,153.1c0,49.8-47.9,147.4-80.4,158.9c-13.4,5.7,170.4,11.5,409.6,11.5l434.5,1.9l-45.9-47.9c-99.5-97.6-30.6-277.5,105.3-277.5c70.8,0,172.3,90,172.3,153.1c0,49.8-47.9,147.4-80.4,158.9c-13.4,5.7,170.4,11.5,409.6,11.5l434.5,1.9l-45.9-47.9c-65.1-63.2-65.1-166.5,0-229.7c65.1-67,149.3-63.2,222,7.7c70.8,70.8,72.7,149.3,7.7,220.1l-45.9,49.8h428.7h428.8l-45.9-47.9c-99.5-97.6-30.6-277.5,105.3-277.5c70.8,0,172.3,90,172.3,153.1c0,49.8-47.9,147.4-80.4,158.9c-13.4,5.7,208.6,11.5,493.8,11.5l520.6,1.9l97.6-392.4c53.6-214.4,97.6-400,97.6-411.5s-134-19.1-377.1-17.2c-279.4,0-367.5,5.8-336.9,21.1c23,11.5,51.7,44,63.2,74.6c45.9,111-26.8,227.8-143.6,227.8c-145.5,0-218.2-176.1-114.8-277.5l45.9-47.8h-432.6h-434.5l42.1,38.3c55.5,51.7,70.8,122.5,42.1,193.3c-28.7,67-70.8,93.8-153.1,93.8c-135.9,0-204.8-179.9-105.3-277.5l45.9-47.8l-444.1,1.9c-325.4,0-432.6,5.8-402,21.1c22.9,11.5,51.7,44,63.2,74.6c45.9,111-26.8,227.8-143.6,227.8c-145.5,0-218.2-176.1-114.8-277.5l45.9-47.8l-444,1.9c-325.4,0-432.6,5.8-402,21.1c53.6,24.9,90,114.8,74.7,178c-47.9,187.6-317.8,153.1-317.8-38.3c0-47.9,15.3-84.2,47.9-114.9l45.9-47.8l-444.1,1.9c-325.4,0-432.6,5.8-402,21.1c53.6,24.9,90,114.8,74.6,178c-47.9,187.6-317.7,153.1-317.7-38.3c0-47.9,15.3-84.2,47.9-114.9l45.9-47.8l-444.1,1.9c-325.4,0-432.6,5.8-402,21.1c53.6,24.9,90,114.8,74.6,178c-47.9,187.6-317.7,153.1-317.7-38.3c0-47.9,15.3-84.2,47.9-114.9l45.9-47.8H2527h-434.5l42.1,38.3c55.5,51.7,70.8,122.5,42.1,193.3c-28.7,67-70.8,93.8-153.1,93.8c-135.9,0-204.8-179.9-105.3-277.5l45.9-47.8H1570c-365.6,0-392.4,1.9-384.7,34.5c5.7,17.2,51.7,202.9,103.4,411.5l91.9,377.1h541.7h539.8L2416-846.6z M5507.2-2291.7v-325.4h-497.7h-497.7v325.4v325.4h497.7h497.7V-2291.7z M5181.8-3373.2v-411.5h-162.7h-162.7v411.5v411.5h162.7h162.7V-3373.2z M6502.5-4282.3v-172.3l-1487.2,3.8l-1489.1,5.7l-5.7,141.6c-3.8,78.5-1.9,153.1,3.8,166.5c7.7,21.1,292.9,24.9,1494.9,24.9h1483.4V-4282.3z"/><path d="M2948.1,4503.2c-149.3-61.3-86.1-306.3,80.4-306.3c151.2,0,214.4,160.8,107.2,269.9C3078.3,4522.3,3024.7,4533.8,2948.1,4503.2z"/><path d="M3943.4,4503.2c-149.3-61.3-86.1-306.3,80.4-306.3c151.2,0,214.4,160.8,107.2,269.9C4073.6,4522.3,4020,4533.8,3943.4,4503.2z"/><path d="M4938.7,4503.2c-149.3-61.3-86.1-306.3,80.4-306.3c151.2,0,214.4,160.8,107.2,269.9C5068.9,4522.3,5015.3,4533.8,4938.7,4503.2z"/><path d="M5899.6,4474.5c-103.3-101.4-30.6-277.5,114.8-277.5c151.2,0,214.4,160.8,107.2,269.9C6048.9,4537.7,5964.7,4541.5,5899.6,4474.5z"/><path d="M6929.4,4503.2c-149.3-61.3-86.1-306.3,80.4-306.3c151.2,0,214.4,160.8,107.2,269.9C7059.5,4522.3,7005.9,4533.8,6929.4,4503.2z"/><path d="M3449.6,4001.7c-93.8-49.8-114.8-164.6-45.9-252.7c30.6-38.3,55.5-49.8,114.8-49.8c158.9,0,225.9,158.9,114.8,269.9C3574,4026.6,3514.7,4038.1,3449.6,4001.7z"/><path d="M4444.9,4001.7c-93.8-49.8-114.8-164.6-45.9-252.7c30.6-38.3,55.5-49.8,114.8-49.8c158.9,0,225.9,158.9,114.8,269.9C4569.3,4026.6,4510,4038.1,4444.9,4001.7z"/><path d="M5440.2,4001.7c-93.8-49.8-114.8-164.6-45.9-252.7c30.6-38.3,55.5-49.8,114.9-49.8c158.8,0,225.8,158.9,114.8,269.9C5564.6,4026.6,5505.3,4038.1,5440.2,4001.7z"/><path d="M6435.5,4001.7c-61.3-32.5-86.1-74.6-86.1-149.3c0-93.8,63.2-153.1,160.8-153.1c153.1,0,218.2,160.8,109.1,269.9C6560,4026.6,6500.6,4038.1,6435.5,4001.7z"/><path d="M2952,3504.1c-61.3-32.5-86.1-74.6-86.1-149.3c0-93.8,63.2-153.1,160.8-153.1c153.1,0,218.2,160.8,109.1,269.9C3076.4,3528.9,3017,3540.4,2952,3504.1z"/><path d="M3947.3,3504.1c-61.3-32.5-86.1-74.6-86.1-149.3c0-93.8,63.2-153.1,160.8-153.1c153.1,0,218.2,160.8,109.1,269.9C4071.7,3528.9,4012.3,3540.4,3947.3,3504.1z"/><path d="M4942.6,3504.1c-61.3-32.5-86.1-74.6-86.1-149.3c0-93.8,63.2-153.1,160.8-153.1c153.1,0,218.2,160.8,109.1,269.9C5067,3528.9,5007.7,3540.4,4942.6,3504.1z"/><path d="M5937.9,3504.1c-61.3-32.5-86.1-74.6-86.1-149.3c0-93.8,63.2-153.1,160.8-153.1c153.1,0,218.2,160.8,109.1,269.9C6062.3,3528.9,6003,3540.4,5937.9,3504.1z"/><path d="M6933.2,3504.1c-61.3-32.5-86.1-74.6-86.1-149.3c0-93.8,63.2-153.1,160.8-153.1c153.1,0,218.2,160.8,109.1,269.9C7057.6,3528.9,6998.3,3540.4,6933.2,3504.1z"/><path d="M2454.3,3006.4c-61.3-32.5-86.1-74.6-86.1-149.3c0-93.8,63.2-153.1,160.8-153.1c153.1,0,218.2,160.8,109.1,269.9C2578.7,3031.3,2519.4,3042.8,2454.3,3006.4z"/><path d="M3449.6,3006.4c-61.3-32.5-86.1-74.6-86.1-149.3c0-93.8,63.2-153.1,160.8-153.1c153.1,0,218.2,160.8,109.1,269.9C3574,3031.3,3514.7,3042.8,3449.6,3006.4z"/><path d="M4444.9,3006.4c-61.3-32.5-86.1-74.6-86.1-149.3c0-93.8,63.2-153.1,160.8-153.1c153.1,0,218.2,160.8,109.1,269.9C4569.3,3031.3,4510,3042.8,4444.9,3006.4z"/><path d="M5440.2,3006.4c-61.3-32.5-86.1-74.6-86.1-149.3c0-93.8,63.2-153.1,160.8-153.1c153.1,0,218.2,160.8,109.1,269.9C5564.6,3031.3,5505.3,3042.8,5440.2,3006.4z"/><path d="M6435.5,3006.4c-61.3-32.5-86.1-74.6-86.1-149.3c0-93.8,63.2-153.1,160.8-153.1c153.1,0,218.2,160.8,109.1,269.9C6560,3031.3,6500.6,3042.8,6435.5,3006.4z"/><path d="M7430.9,3006.4c-61.3-32.5-86.1-74.6-86.1-149.3c0-93.8,63.2-153.1,160.8-153.1c153.1,0,218.2,160.8,109.1,269.9C7555.3,3031.3,7495.9,3042.8,7430.9,3006.4z"/><path d="M2952,2508.7c-61.3-32.5-86.1-74.6-86.1-149.3c0-145.5,172.3-212.5,277.5-105.3c67,65.1,63.2,149.3-7.7,222C3076.4,2533.6,3017,2545.1,2952,2508.7z"/><path d="M3947.3,2508.7c-61.3-32.5-86.1-74.6-86.1-149.3c0-145.5,172.3-212.5,277.5-105.3c67,65.1,63.2,149.3-7.7,222C4071.7,2533.6,4012.3,2545.1,3947.3,2508.7z"/><path d="M4942.6,2508.7c-61.3-32.5-86.1-74.6-86.1-149.3c0-145.5,172.3-212.5,277.5-105.3c67,65.1,63.2,149.3-7.6,222C5067,2533.6,5007.7,2545.1,4942.6,2508.7z"/><path d="M5937.9,2508.7c-61.3-32.5-86.1-74.6-86.1-149.3c0-145.5,172.3-212.5,277.5-105.3c67,65.1,63.2,149.3-7.6,222C6062.3,2533.6,6003,2545.1,5937.9,2508.7z"/><path d="M6933.2,2508.7c-61.3-32.5-86.1-74.6-86.1-149.3c0-145.5,172.3-212.5,277.5-105.3c67,65.1,63.2,149.3-7.7,222C7057.6,2533.6,6998.3,2545.1,6933.2,2508.7z"/><path d="M2454.3,2011.1c-61.3-34.5-84.2-76.6-86.1-151.2c0-116.8,111-189.5,220.1-143.6c118.7,49.8,141.6,170.3,49.8,262.2C2578.7,2036,2517.5,2047.5,2454.3,2011.1z"/><path d="M3449.6,2011.1c-61.3-34.5-84.2-76.6-86.1-151.2c0-116.8,111-189.5,220.1-143.6c118.7,49.8,141.6,170.3,49.8,262.2C3574,2036,3512.8,2047.5,3449.6,2011.1z"/><path d="M4444.9,2011.1c-61.3-34.5-84.2-76.6-86.1-151.2c0-116.8,111-189.5,220.1-143.6c118.7,49.8,141.6,170.3,49.8,262.2C4569.3,2036,4508.1,2047.5,4444.9,2011.1z"/><path d="M5440.2,2011.1c-61.3-34.5-84.2-76.6-86.1-151.2c0-116.8,111-189.5,220.1-143.6c118.7,49.8,141.6,170.3,49.8,262.2C5564.6,2036,5503.4,2047.5,5440.2,2011.1z"/><path d="M6435.5,2011.1c-61.3-34.5-84.2-76.6-86.1-151.2c0-116.8,111-189.5,220.1-143.6c118.7,49.8,141.7,170.3,49.8,262.2C6560,2036,6498.7,2047.5,6435.5,2011.1z"/><path d="M7430.9,2011.1c-61.3-34.5-84.2-76.6-86.1-151.2c0-116.8,111-189.5,220.1-143.6c118.7,49.8,141.6,170.3,49.8,262.2C7555.3,2036,7494,2047.5,7430.9,2011.1z"/><path d="M1855.2-3118.6l5.7-828.8l168.4-5.7l166.5-5.7v834.5v832.6h-172.3h-172.3L1855.2-3118.6z"/></g></g>
</svg>