<?xml version="1.0" encoding="utf-8"?>
<!-- Svg Vector Icons : http://www.onlinewebfonts.com/icon -->
<!DOCTYPE svg PUBLIC "-//W3C//DTD SVG 1.1//EN" "http://www.w3.org/Graphics/SVG/1.1/DTD/svg11.dtd">
<svg version="1.1" xmlns="http://www.w3.org/2000/svg" xmlns:xlink="http://www.w3.org/1999/xlink" x="0px" y="0px" viewBox="0 0 1000 1000" enable-background="new 0 0 1000 1000" xml:space="preserve">
<metadata> Svg Vector Icons : http://www.onlinewebfonts.com/icon </metadata>
<g><g transform="translate(0.000000,443.000000) scale(0.100000,-0.100000)"><path d="M3420.4,3621l-47.8-45.9v-843.9v-843.9l-57.4-21.1c-88-28.7-114.8-101.4-114.8-302.4v-172.2h-488h-488v488v488h-899.4H425.5v-486.1v-486.1l-118.7-7.7c-97.6-7.7-124.4-17.2-162.7-61.2c-78.5-91.9-49.8-204.8,65.1-254.5l68.9-26.8l-7.7-644.9c-1.9-354-3.8-939.6-1.9-1299.4l3.8-656.4h342.5h344.5L902-1676.1c-151.2-327.3-199-746.3-141.6-1247.7c36.4-325.3,28.7-537.7-28.7-723.4c-44-139.7-40.2-132.1-346.4-553.1c-132-181.8-250.7-350.2-262.2-373.2c-36.4-67-26.8-120.6,32.5-179.9c53.6-51.7,65.1-55.5,216.3-55.5c472.7,0,821,262.2,1088.9,819.1c178,367.4,243,658.3,266,1161.6c17.2,388.5,34.4,518.6,88,688.9c53.6,162.7,164.6,355.9,271.7,472.7l103.3,111h505.2h505.2v411.4v411.4h1798.9H6798v-411.4v-411.4h497.6h499.5l89.9-84.2c155-145.4,285.2-400,340.6-667.9c17.2-76.5,36.4-313.8,45.9-530.1c13.4-342.5,23-421,72.7-614.3c134-507.1,346.4-893.7,620-1123.3c193.3-162.7,396.1-233.5,662.1-233.5c151.2,0,162.7,3.8,216.2,55.5c99.5,101.4,101.4,97.6-258.3,591.3c-116.7,160.7-233.5,327.2-258.3,369.3c-109.1,187.6-135.9,461.2-88,870.7c59.3,493.7,9.6,920.5-141.6,1245.8l-57.4,120.5h344.5H9726l3.8,656.4c1.9,359.8,0,945.4-1.9,1299.4l-7.6,644.9l68.9,26.8c116.7,49.8,143.5,162.7,63.1,256.4c-45.9,51.7-53.6,53.6-283.2,63.1c-174.1,7.7-220.1,13.4-174.1,24.9c84.2,21.1,243,168.4,290.9,267.9c61.2,126.3,55.5,283.2-17.2,407.6c-103.3,183.7-266,275.6-482.2,275.6h-111v76.5v76.5h-564.5h-564.5v-564.5v-564.5h-574.1H6798v172.2c0,200.9-26.8,273.7-114.8,302.4l-57.4,21.1v832.5c1.9,555-5.7,847.8-19.1,872.6c-11.5,21.1-36.4,45.9-57.4,57.4c-23,11.5-556.9,19.1-1559.6,19.1H3466.3L3420.4,3621z M6300.5,2616.3v-727.2H4999.2H3697.9v727.2v727.2h1301.3h1301.3V2616.3z M8750,1793.4v-401.9h-239.2h-239.2v401.9v401.9h239.2H8750V1793.4z M1899,1965.6v-76.5h-574.1H750.8v76.5v76.5h574.1H1899V1965.6z M9329.8,2021.1c59.3-32.5,70.8-53.6,70.8-145.4c0-122.5-45.9-158.8-200.9-158.8h-124.4v162.7v162.7h107.2C9239.9,2042.2,9306.9,2032.6,9329.8,2021.1z M1899,1468.1v-76.5h-574.1H750.8v76.5v76.5h574.1H1899V1468.1z M6472.7,1468.1v-76.5H4999.2H3525.6v76.5v76.5h1473.5h1473.5V1468.1z M6798,899.7V740.9H4999.2H3200.3v158.8v156.9h1798.9H6798V899.7z M2875,568.6V90.2H1736.4H597.7v478.4v478.4h1138.6H2875V568.6z M9400.6,568.6V90.2H8262H7123.4v478.4v478.4H8262h1138.6V568.6z M6794.2,0.3l3.8-407.6H4999.2H3200.3v398c0,220.1,5.7,405.7,13.4,411.4c5.7,7.7,813.3,11.5,1793.1,9.6l1781.6-5.7L6794.2,0.3z M2875-738.4v-484.2H1736.4H597.7v484.2v484.2h1138.6H2875V-738.4z M9400.6-738.4v-484.2H8262H7123.4v484.2v484.2H8262h1138.6V-738.4z M1711.5-1607.2c-57.4-82.3-151.2-275.6-193.3-400c-70.8-216.3-99.5-415.3-116.7-821c-13.4-329.2-24.9-434.4-63.1-585.6c-97.6-375.1-246.9-667.9-438.2-853.5c-93.8-90-254.5-193.3-273.7-174.1c-5.7,3.8,47.8,84.2,116.7,179.9l124.4,170.3l-67,53.6c-61.2,49.8-65.1,57.4-45.9,114.8c11.5,34.5,26.8,68.9,34.4,76.5c23,26.8,97.6-53.6,112.9-120.5l13.4-67l53.6,101.4c116.7,227.7,166.5,595.2,126.3,932c-36.4,315.8-45.9,648.8-19.1,809.5c30.6,195.2,118.7,432.5,200.9,545.4l67,89.9h202.9h200.9L1711.5-1607.2z M8734.7-1670.4c76.5-114.8,156.9-331.1,187.5-505.2c26.8-162.7,23-428.7-11.5-723.4c-36.4-300.4-26.8-568.4,28.7-784.6c49.7-189.5,88-262.2,281.3-528.2c88-122.5,155-225.8,151.2-229.6c-19.1-19.1-179.9,84.2-273.7,174.1c-195.2,191.4-338.7,472.7-436.3,851.6c-40.2,153.1-51.7,256.4-65.1,587.5c-17.2,405.7-45.9,604.7-116.7,821c-42.1,124.4-135.9,317.7-193.3,400l-38.3,53.6l208.6-5.7l206.7-5.7L8734.7-1670.4z"/><path d="M1363.2,727.5c-116.7-44-151.2-181.8-67-264.1c45.9-47.8,47.8-47.8,436.3-47.8c440.1,0,465,5.7,484.2,135.9c9.6,55.5,1.9,78.5-36.4,124.4l-47.8,55.5l-371.3,3.8C1558.4,737,1378.5,733.2,1363.2,727.5z"/><path d="M7877.4,721.7c-105.3-42.1-134-181.8-55.5-258.3c45.9-47.8,47.8-47.8,440.1-47.8s394.2,0,440.1,47.8c65.1,63.1,65.1,158.8-1.9,222c-47.8,44-57.4,45.9-415.3,49.8C8082.1,737,7898.4,731.3,7877.4,721.7z"/><path d="M1372.8-573.8c-124.4-32.5-166.5-187.5-74.6-275.6c47.8-44,57.4-45.9,405.7-51.7c313.9-3.8,365.5-1.9,424.8,28.7c114.8,59.3,126.3,200.9,24.9,267.9c-44,28.7-103.3,34.4-398,38.3C1566-564.3,1393.8-568.1,1372.8-573.8z"/><path d="M7869.7-593c-38.3-19.1-74.6-57.4-84.2-86.1c-26.8-78.5,5.8-153.1,84.2-193.3c59.3-30.6,111-32.5,424.8-28.7c348.3,5.7,357.9,7.6,405.7,51.7c36.3,34.4,49.7,67,49.7,116.7s-13.4,82.3-49.7,116.7c-47.8,44-57.4,45.9-405.7,51.7C7980.7-560.4,7929-562.3,7869.7-593z"/><path d="M8445.7,3523.4c-49.8-63.1-51.7-143.5-3.8-200.9l36.3-44l-93.8-84.2c-126.3-112.9-155-202.9-97.6-319.6c51.7-105.3,183.7-200.9,281.3-200.9c139.7,0,208.6,147.4,120.6,258.3c-34.4,44-36.3,55.5-15.3,63.1c53.6,17.2,187.5,172.2,200.9,231.6C8920.3,3435.3,8568.2,3678.4,8445.7,3523.4z"/></g></g>
</svg>