<?xml version="1.0" encoding="utf-8"?>
<!-- Svg Vector Icons : http://www.onlinewebfonts.com/icon -->
<!DOCTYPE svg PUBLIC "-//W3C//DTD SVG 1.1//EN" "http://www.w3.org/Graphics/SVG/1.1/DTD/svg11.dtd">
<svg version="1.1" xmlns="http://www.w3.org/2000/svg" xmlns:xlink="http://www.w3.org/1999/xlink" x="0px" y="0px" viewBox="0 0 1000 1000" enable-background="new 0 0 1000 1000" xml:space="preserve">
<metadata> Svg Vector Icons : http://www.onlinewebfonts.com/icon </metadata>
<g><g transform="translate(0.000000,512.000000) scale(0.100000,-0.100000)"><path d="M1422.9,3765V2430.1h-409.2H604.5v-496.9v-496.9h243.6h243.6V350.8c0-1309.6,15.6-1485,157.9-1921.5c343-1046.5,1221.9-1831.8,2334.6-2083.2c179.3-40.9,239.7-42.9,1418.7-48.7l1231.6-7.8l5.8-247.5l5.8-247.5H6743H7240l5.8,415.1l3.9,413.1h1325.2H9900v1820.1V261.1l-101.3,9.7c-56.5,3.9-652.8,7.8-1325.1,5.8l-1223.8-1.9v415.1v415.1H6743h-506.7V861.3V617.7l-403.4,3.9l-405.3,5.8l-5.8,405.3l-3.9,403.4h243.6h243.6v496.9v496.9h-409.2h-409.2V3765v1334.9H3254.8H1422.9V3765z M4755.3,3609.1V2449.6H3254.8H1754.2v1159.5v1159.5h1500.5h1500.5V3609.1z M5573.8,1939v-161.7h-2319h-2319V1939v159.8h2319h2319V1939z M5090.5,1003.6l5.8-434.6l54.6-81.9c31.2-44.8,91.6-105.2,134.5-136.4l79.9-54.6l436.5-5.8l434.6-5.9v-1831.8v-1831.8l-1231.6,7.8c-1171.2,5.8-1241.3,7.8-1408.9,46.8c-861.3,202.7-1522,717.1-1890.3,1477.1c-93.5,191-175.4,422.9-196.8,551.5l-13.6,81.9h335.2c329.3,0,335.2,0,382,48.7c46.8,44.8,48.7,54.6,48.7,331.3v282.6h282.6c276.7,0,286.5,1.9,331.3,48.7c48.7,46.8,48.7,48.7,48.7,438.5v393.7l-56.5,56.5c-74.1,72.1-154,74-224.1,5.8c-50.7-50.7-50.7-56.5-50.7-331.3v-280.6h-282.6c-276.7,0-286.5-2-331.3-48.7c-46.8-44.8-48.7-54.6-48.7-331.3v-282.6H1688h-239.7l-13.6,60.4c-5.9,33.1-11.7,555.4-11.7,1159.5v1099.1h1829.9h1831.8L5090.5,1003.6z M6906.7-1549.3l-3.9-2324.8H6745h-159.8l-3.9,2324.8l-3.9,2322.9H6743h165.6L6906.7-1549.3z M9564.8-1549.3l3.9-1496.6H8409.2H7249.7v1500.5V-44.8l1155.6-3.9L9559-54.6L9564.8-1549.3z"/><path d="M158.2-1091.3c-23.4-19.5-46.8-68.2-54.6-107.2c-9.7-62.4-1.9-79.9,48.7-132.5l58.5-58.5h284.5c154,0,304,7.8,333.2,19.5c56.5,21.4,113,134.5,93.5,189c-5.8,19.5-29.2,54.6-50.7,79.9c-39,40.9-52.6,42.9-356.6,42.9C244-1058.2,193.3-1062.1,158.2-1091.3z"/><path d="M867.5-1562.9c-21.4-9.7-128.6-109.1-237.8-222.1c-169.5-171.5-200.7-212.4-200.7-265c0-87.7,74-157.9,169.5-157.9c66.3,0,89.6,17.5,282.6,210.5c179.3,179.3,210.5,220.2,210.5,270.9C1091.7-1613.6,965-1522,867.5-1562.9z"/><path d="M855.9-2623c-46.8-37-572.9-791.2-629.4-904.2c-163.7-325.4-144.2-738.6,44.8-1001.7c282.6-393.7,931.5-446.3,1276.4-103.3c276.7,274.8,323.5,676.2,126.7,1099.1c-56.5,122.8-500.8,773.7-598.3,882.8C1021.5-2591.9,912.4-2578.2,855.9-2623z M1148.2-3318.7c292.3-415.1,382-660.6,313.8-865.3c-31.2-97.4-196.8-272.8-306-325.4c-185.1-89.6-409.2-42.9-571,118.9c-165.6,165.6-204.6,387.8-113,619.7c48.7,116.9,463.8,726.9,487.2,713.2C965-3061.5,1050.7-3178.4,1148.2-3318.7z"/></g></g>
</svg>