<?xml version="1.0" encoding="utf-8"?>
<!-- Svg Vector Icons : http://www.onlinewebfonts.com/icon -->
<!DOCTYPE svg PUBLIC "-//W3C//DTD SVG 1.1//EN" "http://www.w3.org/Graphics/SVG/1.1/DTD/svg11.dtd">
<svg version="1.1" xmlns="http://www.w3.org/2000/svg" xmlns:xlink="http://www.w3.org/1999/xlink" x="0px" y="0px" viewBox="0 0 1000 1000" enable-background="new 0 0 1000 1000" xml:space="preserve">
<metadata> Svg Vector Icons : http://www.onlinewebfonts.com/icon </metadata>
<g><g transform="translate(0.000000,512.000000) scale(0.100000,-0.100000)"><path d="M1680.1,4770.6v-249.4h-182.2c-191.8,0-282-24.9-305-86.3c-5.8-17.3-11.5-280.1-11.5-583.1c0-690.5-17.3-650.3,283.9-657.9l205.2-5.7l11.5-1716.8c9.6-1509.6,13.4-1732.1,42.2-1845.3c120.8-487.2,337.6-872.8,690.5-1227.6c376-377.9,876.6-617.6,1423.3-684.8c115.1-13.4,792.2-21.1,2000.6-21.1h1826.1V-2503c1.9-124.7,9.6-209.1,24.9-228.3c53.7-69.1,97.8-74.8,646.4-74.8H8877l55.6,55.6c53.7,55.6,55.6,61.4,55.6,249.4v193.7h249.4H9487v1496.2V685h-247.5h-247.4l-7.7,212.9c-7.7,306.9,38.4,285.8-657.9,285.8c-694.4,0-648.3,19.2-661.8-282l-9.6-207.2H6302.9H4950.6l-80.6,44.1c-46,23-105.5,78.6-134.3,122.8L4682,942l-5.8,1127.9l-3.8,1127.9H4870c188,0,201.4,1.9,245.5,49.9l46,49.9v565.9v565.9l-53.7,46c-49.9,42.2-71,46-245.5,46h-189.9v249.4V5020H3176.3H1680.1V4770.6z M4327.2,4607.6v-86.3H3166.7H2006.2v86.3v86.3h1160.5h1160.5V4607.6z M4825.9,3855.7v-331.8H3166.7H1507.5v331.8v329.9h1659.2h1659.2V3855.7z M4327.2,2148.5c0-577.4,7.7-1081.8,19.2-1145.1c9.6-63.3,42.2-161.1,71-218.7c71-138.1,259-312.7,402.8-372.1l111.3-44.1l1358-5.7l1356.1-5.8V-813.1v-1170.1l-1902.8,7.7c-1881.7,5.7-1906.6,7.7-2092.7,49.9c-226.3,49.9-437.3,130.4-617.7,235.9c-211,122.8-201.4,105.5-201.4,345.3v207.2h287.7c287.7,0,289.6,0,335.7,49.9c46,49.9,48,61.4,48,335.7v285.8h283.9c280.1,0,285.8,0,329.9,47.9c65.2,71,63.3,172.6-7.7,232.1c-51.8,46-59.5,46-435.4,46c-224.4,0-399-7.7-420.1-19.2c-71-38.4-82.5-92.1-78.6-377.9l3.8-274.3h-289.6c-282,0-291.6-1.9-335.7-48c-44.1-42.2-47.9-61.4-47.9-224.4V-1262l-97.8,134.3c-117,159.2-253.2,427.7-305,604.2c-94,318.4-95.9,358.7-95.9,2083.1v1618.9h1160.5h1160.5V2148.5z M8648.8-805.4l-3.8-1665l-326.1-5.7l-328-3.8v1668.8V857.6h331.8h329.9L8648.8-805.4z M9157.1-805.4l-5.8-1166.2l-80.6-5.8l-82.5-5.8v1170.1v1172h86.3h86.3L9157.1-805.4z"/><path d="M939.7-492.8c-82.5-36.4-118.9-138.1-76.7-216.8c15.4-28.8,113.2-138.1,218.7-239.8c218.7-214.8,268.5-234,370.2-132.3c61.4,63.3,69.1,111.3,28.8,189.9c-32.6,61.4-379.8,406.7-410.5,406.7c-11.5,0-30.7,3.8-46,9.6C1010.7-471.7,972.3-479.4,939.7-492.8z"/><path d="M584.8-1334.9c-88.2-67.1-95.9-168.8-19.2-245.5l55.6-55.6H932c303.1,0,308.8,1.9,354.9,47.9c65.2,63.3,65.2,166.9,0,230.2c-46,48-51.8,48-358.7,48C713.4-1311.8,606-1317.6,584.8-1334.9z"/><path d="M1081.7-1994.7c-224.4-220.6-257-270.4-228.3-354.9c26.9-78.6,72.9-109.3,161.1-111.3c67.1,0,90.2,15.3,262.8,184.1c103.6,99.7,197.6,207.2,211,237.9c46,113.2-30.7,230.2-149.6,230.2C1281.1-1808.6,1248.5-1831.7,1081.7-1994.7z"/><path d="M2386-2570.2c-88.2-97.8-567.8-790.3-617.6-895.8c-117-247.4-138.1-575.4-49.9-799.9c90.2-230.2,282-406.7,523.7-481.5c168.8-49.9,429.7-42.2,588.9,19.2c230.2,90.2,408.6,285.8,483.4,527.5c72.9,239.8,19.2,569.7-134.3,838.2c-63.3,113.2-493,723.1-556.3,792.2c-36.5,38.4-67.1,51.8-118.9,51.8C2453.1-2518.4,2422.5-2531.8,2386-2570.2z M2698.7-3237.7c95.9-136.2,211-322.2,253.2-410.5c69.1-141.9,78.6-178.4,78.6-297.3c1.9-161.1-36.4-247.4-165-370.2c-218.7-212.9-502.6-212.9-721.2,0c-195.7,189.9-226.3,418.2-90.2,688.6c59.5,117,435.4,650.2,454.6,644.5C2516.4-2986.4,2602.8-3099.6,2698.7-3237.7z"/></g></g>
</svg>