<?xml version="1.0" encoding="utf-8"?>
<!-- Svg Vector Icons : http://www.onlinewebfonts.com/icon -->
<!DOCTYPE svg PUBLIC "-//W3C//DTD SVG 1.1//EN" "http://www.w3.org/Graphics/SVG/1.1/DTD/svg11.dtd">
<svg version="1.1" xmlns="http://www.w3.org/2000/svg" xmlns:xlink="http://www.w3.org/1999/xlink" x="0px" y="0px" viewBox="0 0 1000 1000" enable-background="new 0 0 1000 1000" xml:space="preserve">
<metadata> Svg Vector Icons : http://www.onlinewebfonts.com/icon </metadata>
<g><g transform="translate(0.000000,512.000000) scale(0.100000,-0.100000)"><path d="M4022.1,4771.2v-248.8h-201c-216.3,0-262.2-19.1-287.1-118.7c-5.7-24.9-9.6-279.5-5.7-566.6l5.7-524.5l53.6-45.9c49.8-42.1,70.8-45.9,245-45.9h189.5V1452.2V-316.4l-262.2-369.4c-382.8-543.6-436.4-671.8-423-1014.5c5.7-166.5,13.4-197.2,78.5-329.2c107.2-218.2,317.7-384.7,535.9-424.9l70.8-13.4v-256.5v-256.5h-189.5c-174.2,0-195.2-3.8-245-45.9l-53.6-45.9l-5.7-524.5c-3.8-287.1,0-541.7,5.7-566.6c24.9-99.5,70.8-118.7,287.1-118.7h201v-248.8V-4780h1464.3h1462.3l5.8,243.1l5.7,245l206.7,9.6c300.5,13.4,281.4-30.6,281.4,645v545.5l-55.5,55.5c-55.5,53.6-61.3,55.5-248.8,55.5h-193.3V120v3100.8H7144c187.6,0,193.3,1.9,248.8,55.5l55.5,55.5v545.5c0,675.7,19.1,631.6-281.4,645l-206.7,9.6l-5.7,245l-5.8,243.1H5486.4H4022.1V4771.2z M6625.3,4618v-76.6H5486.4H4347.5v76.6v76.6h1138.9h1138.9V4618z M7122.9,3871.6v-325.4H5486.4H3849.9v325.4V4197h1636.5h1636.5V3871.6z M6625.3,120v-3100.8H5486.4H4347.5v258.4c0,204.8,5.7,258.4,26.8,258.4c13.4,0,86.1,30.6,158.9,67c306.3,153.1,493.8,488.1,455.5,813.5c-30.6,273.7-112.9,446-419.2,880.5l-222,313.9v505.3v503.4l281.4-3.8l281.4-3.8l44,51.7c42.1,49.8,44,67,44,329.2v275.6h277.5c271.8,0,281.4,1.9,325.4,47.9c47.9,45.9,47.9,47.9,47.9,419.2c0,398.1-9.6,451.7-90,488.1c-74.6,34.5-120.6,24.9-179.9-34.5l-55.5-55.5v-269.9v-269.9h-260.3c-386.6,0-388.5-1.9-390.4-377.1V943h-162.7h-162.7v1138.9v1138.9h1138.9h1138.9V120z M4338-948c377.1-534,426.8-786.7,202.9-1041.2c-99.5-112.9-231.6-168.4-403.9-168.4c-126.3,0-157,7.7-231.6,53.6c-103.3,67-183.7,158.9-233.5,269.9c-51.7,116.8-40.2,317.7,28.7,461.3c47.9,103.4,434.5,669.9,455.5,669.9C4161.9-705,4242.3-814.1,4338-948z M7122.9-3631.6V-3957H5486.4H3849.9v325.4v325.4h1636.5h1636.5V-3631.6z M6625.3-4378v-76.6H5486.4H4347.5v76.6v76.6h1138.9h1138.9V-4378z"/><path d="M2902.4,1718.2c-30.6-28.7-47.9-67-47.9-107.2c0-53.6,30.6-91.9,216.3-279.5c250.7-252.7,300.5-275.6,396.2-181.8c40.2,42.1,57.4,76.6,57.4,120.6c0,55.5-28.7,91.9-216.3,279.5c-199.1,199.1-222,216.3-287.1,216.3C2969.4,1766.1,2935,1752.7,2902.4,1718.2z"/><path d="M2651.7,923.9c-105.3-42.1-134-181.8-55.5-258.4c45.9-47.9,51.7-47.9,359.8-47.9c300.5,0,313.9,1.9,352.2,44c55.5,59.3,65.1,99.5,40.2,166.5c-32.5,97.6-93.8,114.8-392.4,112.9C2810.6,941.1,2672.7,933.5,2651.7,923.9z"/><path d="M3090,229.1C2917.7,56.8,2873.7,1.3,2873.7-40.8c0-74.6,93.8-164.6,174.2-164.6c53.6,0,90,28.7,269.9,206.7c187.6,189.5,206.7,214.4,206.7,279.5c0,91.9-68.9,164.6-157,164.6C3313.9,445.4,3277.6,416.7,3090,229.1z"/></g></g>
</svg>