<?xml version="1.0" encoding="utf-8"?>
<!-- Svg Vector Icons : http://www.onlinewebfonts.com/icon -->
<!DOCTYPE svg PUBLIC "-//W3C//DTD SVG 1.1//EN" "http://www.w3.org/Graphics/SVG/1.1/DTD/svg11.dtd">
<svg version="1.1" xmlns="http://www.w3.org/2000/svg" xmlns:xlink="http://www.w3.org/1999/xlink" x="0px" y="0px" viewBox="0 0 1000 1000" enable-background="new 0 0 1000 1000" xml:space="preserve">
<metadata> Svg Vector Icons : http://www.onlinewebfonts.com/icon </metadata>
<g><g transform="translate(0.000000,512.000000) scale(0.100000,-0.100000)"><path d="M2875.5,5085.1c-753.4-126.9-1450.2-692.9-1723.4-1401.4c-150.3-390.4-142.5-300.6-150.3-1772.2l-5.9-1321.4l-160-83.9c-236.2-121-486-374.7-597.3-603.1C94.2-395.5,100-286.2,100-2647.9v-2115.7l56.6-56.6l56.6-56.6H1437h1223.8l56.6,56.6c50.8,50.7,56.6,70.3,56.6,175.7v119.1h2225h2225v-119.1c0-105.4,5.9-124.9,56.6-175.7l56.6-56.6h1223.8h1223.8l56.6,56.6l58.6,58.6l-5.8,2172.3L9888.3-417l-44.9,126.9c-121,335.7-378.7,638.3-683.1,796.3l-160.1,83.9v1245.2c0,1383.8-3.9,1426.8-126.9,1770.3c-115.2,325.9-273.3,571.9-542.6,843.2c-337.7,341.6-765.1,562.1-1233.5,638.2C6845.4,5128.1,3121.4,5126.1,2875.5,5085.1z M7185,4718.2c347.4-82,683.1-269.4,923.2-511.4c232.3-234.2,388.4-509.4,487.9-862.7c41-146.4,41-189.3,48.8-1419l5.8-1268.7l-152.2-3.9c-326-11.7-612.9-144.4-874.4-406C7479.8,104.1,7431,39.7,7366.6-95c-85.9-175.7-142.5-400.1-142.5-566v-97.6H5001H2779.8l-11.7,162C2721.3,67,2149.4,631.1,1501.4,652.6l-152.2,3.9V1849c0,1288.2,5.9,1366.3,107.3,1664.9c230.3,681.2,843.2,1157.4,1590.7,1237.4c37.1,3.9,950.5,5.9,2029.9,5.9C6884.5,4753.3,7050.4,4749.4,7185,4718.2z M1624.4,275.9c255.7-46.8,534.8-253.7,659.7-488c121-228.4,117.1-142.5,119.1-2318.7l1.9-1985h-972h-972l-5.8,1942.1c-2,1272.6,1.9,1986.9,15.6,2074.7c58.6,382.6,347.4,691,718.3,765.1C1351.1,297.4,1487.8,301.3,1624.4,275.9z M8803.1,266.1c181.5-37.1,316.2-107.3,447-230.3c117.1-113.2,177.6-204.9,242-376.7L9537-456v-2029.9v-2029.9h-972h-972l1.9,1996.7c1.9,1920.6,1.9,1998.6,39,2117.7c82,259.6,263.5,476.2,497.7,591.4C8348.3,297.4,8551.3,318.8,8803.1,266.1z M7224.1-1305.1v-175.7H4999H2774v175.7v175.7h2225h2225V-1305.1z M7224.1-3003.1v-1151.6H4999H2774v1151.6v1151.6h2225h2225V-3003.1z"/><path d="M4302.3,4208.8c-74.2-31.2-103.4-82-103.4-173.7c0-54.7,19.5-89.8,103.4-181.5c87.8-95.6,101.5-121,89.8-162c-21.5-74.2-19.5-302.5,2-363c19.5-46.8,11.7-60.5-87.8-165.9c-93.7-97.6-107.3-123-107.3-189.3c0-64.4,11.7-87.8,60.5-128.8c95.6-82,158.1-68.3,290.8,58.5c113.2,107.4,115.1,107.4,189.3,87.8c93.7-27.3,249.8-27.3,337.7-2c64.4,17.6,72.2,15.6,156.1-66.4c152.2-148.3,238.1-165.9,333.8-72.2c41,42.9,56.6,76.1,56.6,128.8c0,60.5-17.6,89.8-107.4,183.5c-101.5,107.3-105.4,115.2-87.8,179.6c25.4,87.8,25.4,269.3-2,347.4c-21.5,60.5-17.6,66.4,87.8,177.6c83.9,87.8,109.3,128.8,109.3,175.7c0,132.7-123,218.6-240.1,167.9c-35.1-15.6-101.5-66.4-148.3-115.2c-78.1-80-89.8-87.8-136.6-68.3c-27.3,11.7-111.3,19.5-187.4,19.5c-74.2,0-160.1-7.8-187.4-19.5c-46.8-19.5-58.6-11.7-136.6,68.3c-46.8,48.8-113.2,101.5-148.3,115.2C4364.7,4241.9,4380.3,4243.9,4302.3,4208.8z M4979.5,3701.3c80-41,136.6-123,136.6-195.2c0-82-126.9-204.9-212.7-204.9c-83.9,0-197.1,115.2-197.1,203c0,95.6,109.3,218.6,201,224.5C4915.1,3730.6,4948.3,3716.9,4979.5,3701.3z"/><path d="M2494.9,2772.2c-21.5-11.7-48.8-50.7-64.4-87.8c-37.1-87.8-5.8-162,113.2-277.1l87.8-83.9l-27.3-101.5c-31.2-124.9-31.2-156.1,0-281.1l27.3-101.5l-97.6-93.7c-117.1-115.2-138.6-165.9-111.3-251.8c27.3-82,85.9-124.9,171.8-124.9c52.7,0,87.8,21.5,179.6,109.3c111.3,105.4,117.1,109.3,177.6,87.8c78.1-27.3,259.6-27.3,347.4-2c64.4,17.6,72.2,13.7,179.6-87.8c93.7-89.8,123-107.3,183.5-107.3c93.7,0,185.4,85.9,185.4,175.7c0,48.8-23.4,85.9-109.3,175.7l-111.2,115.2l23.4,87.8c27.3,111.3,27.3,204.9,0,316.2l-23.4,87.8l111.2,115.2c85.9,89.8,109.3,126.9,109.3,175.7c0,89.8-91.7,175.7-185.4,175.7c-60.5,0-89.8-17.6-183.5-107.4c-105.4-99.5-119.1-107.3-165.9-87.8c-68.3,25.4-306.4,25.4-374.7,0c-48.8-19.5-60.5-11.7-158.1,87.8c-89.8,91.7-115.2,107.4-177.6,107.4C2563.2,2793.7,2514.4,2784,2494.9,2772.2z M3269.7,2208.2c41-44.9,70.3-97.6,70.3-126.9s-29.3-82-70.3-126.9c-93.7-103.4-171.8-107.3-275.2-11.7c-97.6,89.8-99.5,177.6-5.8,275.2C3084.3,2317.5,3174.1,2313.6,3269.7,2208.2z"/><path d="M6025.7,2733.2c-82-95.6-68.3-158.1,58.6-290.8c107.4-113.2,107.4-115.2,87.8-189.3c-27.3-93.7-27.3-249.8-1.9-337.7c17.6-64.4,15.6-72.2-66.4-156.1c-148.3-152.2-165.9-238.1-72.2-333.8c42.9-41,76.1-56.6,128.8-56.6c60.5,0,89.8,17.6,183.5,107.3c107.3,101.5,115.1,105.4,179.5,87.8c89.8-25.4,271.3-25.4,347.4,2c62.4,21.5,66.3,19.5,175.7-87.8c91.7-91.7,121-109.3,179.6-109.3c103.5,0,173.7,72.2,173.7,175.7c0,70.3-13.7,95.6-103.4,191.3l-103.4,111.3l23.4,115.2c21.5,107.3,9.8,308.4-21.5,339.6c-5.8,5.9,39,60.5,97.6,123c93.7,99.5,107.3,121,107.3,193.2c0,109.3-66.4,175.7-175.7,175.7c-70.3,0-93.7-13.7-191.3-105.4c-89.8-83.9-119.1-101.5-150.3-87.8c-56.6,21.5-310.3,21.5-372.8-2c-46.9-19.5-60.5-11.7-165.9,87.8c-97.6,93.7-123,107.4-189.3,107.4C6090.1,2793.7,6066.7,2782,6025.7,2733.2z M6802.5,2245.3c27.3-21.5,64.4-66.4,82-99.5c37.1-72.2,11.7-148.3-74.2-220.6c-85.9-72.2-163.9-64.4-253.7,23.4c-97.6,95.6-99.5,167.8-7.8,267.4C6628.8,2299.9,6720.5,2309.7,6802.5,2245.3z"/><path d="M4259.3,1142.5c-48.8-41-60.5-64.4-60.5-128.8c0-66.4,13.7-91.7,107.3-189.3c99.5-105.4,107.3-119.1,87.8-165.9c-21.5-60.5-23.4-288.9-2-363c11.7-41-1.9-66.4-89.8-162c-83.9-91.7-103.4-126.9-103.4-181.5c0-93.7,29.3-142.5,109.3-175.7c87.8-37.1,162-5.8,279.1,115.1c78.1,80,89.8,87.8,136.6,68.3c66.4-25.4,308.4-25.4,374.7,0c46.8,19.5,58.6,11.7,136.6-68.3c107.4-111.2,179.6-144.4,259.6-121c78.1,23.4,126.9,87.8,128.8,169.8c0,52.7-21.5,87.8-109.3,179.6C5408.9,231,5405,236.9,5426.5,297.4c27.3,78.1,27.3,259.6,2,347.4c-17.6,64.4-13.7,72.2,87.8,179.6c89.8,93.7,107.4,123,107.4,183.5c0,52.7-15.6,85.9-56.6,128.8c-95.6,93.7-181.5,76.1-333.8-72.2c-83.9-82-91.7-83.9-156.1-66.4c-87.8,25.4-244,25.4-337.7-2c-74.2-19.5-76.1-19.5-189.3,87.8C4417.4,1210.8,4355,1224.5,4259.3,1142.5z M5042,613.5c54.6-52.7,74.2-87.8,74.2-134.7c0-113.2-142.5-236.2-244-210.8c-27.3,5.8-74.2,42.9-107.3,78.1c-83.9,95.6-80,183.5,9.8,271.3C4868.3,711.1,4942.4,711.1,5042,613.5z"/><path d="M726.6-4006.4c-50.7-29.3-97.6-99.5-99.5-154.2c0-58.6,52.7-140.5,107.3-165.9c35.1-17.6,242-23.4,714.4-23.4h665.6l66.3,66.4c70.3,70.3,80,115.1,42.9,197.1c-46.9,103.5-74.2,107.4-790.5,107.4C923.7-3981,763.6-3986.8,726.6-4006.4z"/><path d="M7850.6-4006.4c-52.7-29.3-97.6-101.5-99.5-154.2c0-54.6,58.6-144.4,111.3-167.9c31.2-13.6,271.3-21.4,700.7-21.4c708.5,0,737.8,3.9,784.6,107.3c13.7,27.3,23.4,62.5,23.4,78.1c0,54.6-48.8,130.8-99.5,158.1C9195.4-3967.3,7920.9-3967.3,7850.6-4006.4z"/></g></g>
</svg>