<?xml version="1.0" encoding="utf-8"?>
<!-- Svg Vector Icons : http://www.onlinewebfonts.com/icon -->
<!DOCTYPE svg PUBLIC "-//W3C//DTD SVG 1.1//EN" "http://www.w3.org/Graphics/SVG/1.1/DTD/svg11.dtd">
<svg version="1.1" xmlns="http://www.w3.org/2000/svg" xmlns:xlink="http://www.w3.org/1999/xlink" x="0px" y="0px" viewBox="0 0 1000 1000" enable-background="new 0 0 1000 1000" xml:space="preserve">
<metadata> Svg Vector Icons : http://www.onlinewebfonts.com/icon </metadata>
<g><g transform="translate(0.000000,476.000000) scale(0.100000,-0.100000)"><path d="M2341.4,4222.2c-465.6-76.6-906.3-298.9-1245.4-624.6c-333.4-320-525-657.2-632.3-1107.5c-40.2-162.9-61.3-1172.6-28.7-1322.1c34.5-160.9,116.9-306.6,247.2-435l118.8-118.8l-80.5-57.5C452.2,370.9,243.3,83.5,145.6-230.8C88.1-416.6,84.3-784.5,137.9-978c132.2-482.9,488.6-856.5,960-1007.9L1232-2028l9.6-831.6l9.6-829.7l57.5-111.1c93.9-189.7,339.2-381.3,536.5-423.5c46-9.6,67.1-32.6,103.5-109.2c134.1-297,530.8-465.6,873.7-373.6c218.4,57.5,396.6,195.4,479,367.9l49.8,103.5h1644h1645.9l49.8-103.5c84.3-174.4,264.4-310.4,480.9-367.9c343-92,739.6,78.5,873.7,375.5c34.5,76.7,53.7,95.8,101.6,107.3c199.3,42.2,423.4,218.4,530.7,413.9l65.1,120.7l9.6,829.7l9.6,831.6l134.1,42.1c632.3,203.1,1046.2,810.5,1000.2,1469.6c-30.7,415.8-239.5,781.8-601.7,1057.7l-99.6,74.7l99.6,92c122.6,113,212.7,260.6,252.9,412c34.5,136,40.2,937,9.6,1193.7c-172.5,1375.7-1672.7,2280.1-3010.1,1814.5c-751.1-262.5-902.5-295.1-1435.1-310.4c-572.9-15.3-912.1,40.2-1450.5,235.7c-343,124.5-394.7,139.9-599.7,170.5C2841.5,4258.6,2550.3,4258.6,2341.4,4222.2z M3075.3,3896.5c80.5-15.3,274-76.6,429.2-132.2c580.6-212.7,883.3-266.3,1492.6-266.3c609.3,0,912,53.6,1492.6,266.3c383.2,139.9,528.8,168.6,845,168.6c201.2,0,295.1-7.7,427.3-40.2c362.1-90.1,640-237.6,889.1-471.4c300.8-283.6,471.3-590.2,565.2-1017.4c17.2-80.5,24.9-283.6,24.9-680.2v-565.2l-51.7-95.8c-61.3-118.8-115-168.6-228-218.4c-76.7-34.5-122.6-38.3-392.8-34.5c-243.3,1.9-329.6-3.8-427.3-32.6c-507.8-141.8-902.5-521.2-1053.8-1015.5c-23-70.9-40.2-155.2-40.2-185.9v-55.6H5000.9H2954.6l-21.1,120.7C2860.7,68.2,2519.6,497.4,2100,687c-228,103.5-341.1,124.5-657.2,120.7c-164.8,0-316.2,7.7-354.5,19.2c-115,36.4-218.4,120.7-277.8,229.9L753,1158.4l-5.7,469.4c-7.7,523.1,11.5,751.1,86.2,986.8c101.5,323.8,256.8,567.2,509.7,806.7C1799.2,3850.5,2441.1,4028.7,3075.3,3896.5z M1824.1,449.5c381.3-99.6,697.4-431.1,776-810.5c32.6-157.1,30.7-162.9-78.6-214.6c-130.3-61.3-320-249.1-385.1-383.2c-74.7-155.2-93.9-297-86.2-632.3c5.7-260.6,11.5-306.6,49.8-377.5c65.2-122.6,147.5-208.9,256.8-262.5l99.6-49.8h2540.7h2540.7l99.6,49.8c109.2,53.7,193.5,139.9,256.8,262.5c34.5,69,42.1,120.7,49.8,348.7c15.3,469.4-44.1,672.5-254.8,881.4c-63.2,63.2-161,136-216.5,160.9c-115,53.7-118.8,67.1-69,258.7c65.2,254.8,235.7,494.4,450.3,630.4c178.2,113.1,308.5,151.4,544.2,162.9c251,9.6,375.5-11.5,557.6-99.6c369.8-178.2,586.3-509.7,613.1-935c23-348.7-76.6-620.8-306.6-850.7c-182-180.1-356.4-260.6-666.8-304.6c-38.3-5.7-90.1-26.8-115-46l-44.1-36.4l-9.6-927.4l-9.6-927.4l-53.6-82.4c-38.3-55.6-84.3-95.8-153.3-128.4l-99.6-46h-3106c-2270.5,0-3123.2,5.7-3171.1,21.1c-101.5,34.5-189.7,111.2-229.9,197.4c-32.6,72.8-36.4,139.9-36.4,956.1c0,986.8,1.9,973.4-130.3,1007.9c-38.3,9.6-126.5,28.7-195.4,40.3c-182,32.6-346.8,118.8-496.3,258.7c-206.9,195.4-304.7,413.9-321.9,718.5C392.8-148.4,708.9,309.6,1224.4,447.5C1364.2,485.9,1684.2,485.9,1824.1,449.5z M7375-878.4c74.7-38.3,118.8-78.6,161-147.5l57.5-92l5.7-377.5l5.7-379.4l-51.7-40.3l-51.7-40.2H4985.6c-2460.2,0-2517.7,0-2554.1,36.4c-51.7,51.7-65.1,168.6-55.6,475.2c5.7,233.7,13.4,275.9,57.5,371.7c26.8,59.4,74.7,126.5,107.3,149.4c143.7,101.6,11.5,95.8,2458.3,97.7h2274.4L7375-878.4z M2971.8-4283.2c-19.2-53.7-162.9-111.1-295.1-120.7c-153.3-11.5-316.2,32.6-381.3,101.6l-44.1,47.9h366C2939.3-4254.5,2983.3-4258.3,2971.8-4283.2z M7698.8-4302.4c-86.2-92-333.4-132.2-507.8-84.3c-82.4,23-182,86.2-182,115c0,9.6,153.3,17.3,367.9,17.3h366L7698.8-4302.4z"/><path d="M3243.9,1905.7c-84.3-82.4-67.1-147.5,80.5-298.9l126.5-132.2l-126.5-132.2c-107.3-111.1-128.4-143.7-128.4-199.3c0-90.1,76.6-166.7,166.7-166.7c55.6,0,88.1,21.1,199.3,128.4l132.2,126.5l132.2-126.5c136-132.2,187.8-153.3,274-107.3c53.6,28.7,95.8,138,74.7,193.5c-9.6,24.9-70.9,95.8-134.1,159l-116.9,113l113,116.9c162.9,164.8,182,229.9,92,331.5c-28.7,30.7-61.3,42.2-115,42.2c-65.2,0-90.1-13.4-203.1-124.5l-128.4-122.6L3560.1,1829c-109.2,109.2-132.2,124.5-197.4,124.5C3311,1953.6,3276.5,1940.2,3243.9,1905.7z"/><path d="M5865.1,1911.4c-93.9-101.6-72.8-172.5,97.7-341.1l107.3-103.5l-128.4-130.3c-111.1-113-128.4-137.9-128.4-199.3c0-53.6,13.4-80.5,53.6-115c90.1-78.6,151.4-63.2,300.8,82.4l132.2,126.5l132.2-126.5c137.9-134.1,182-151.4,275.9-107.3c26.8,11.5,57.5,42.1,69,69c44.1,93.9,26.8,137.9-107.3,275.9l-126.5,132.2l126.5,132.2c103.5,105.4,128.4,143.7,128.4,191.6c0,88.1-72.8,155.2-166.7,155.2c-65.1,0-88.1-15.3-197.4-124.5l-122.6-122.6L6183.2,1829c-113.1,111.1-138,124.5-203.1,124.5C5926.4,1953.6,5893.8,1942.1,5865.1,1911.4z"/><path d="M1279.9,123.7c-208.8-59.4-364.1-191.6-454.1-387c-65.1-141.8-80.5-358.3-34.5-513.5c34.5-126.5,126.5-281.7,187.8-325.7c63.2-44.1,161-36.4,214.6,19.2c67.1,65.1,61.3,139.9-19.2,245.3c-82.4,109.2-105.4,166.7-105.4,268.3c1.9,107.3,55.6,220.4,143.7,298.9c176.3,155.2,352.6,155.2,546.1,1.9c92-72.8,174.4-76.7,239.5-9.6c34.5,32.6,47.9,67.1,47.9,116.9c0,88.1-76.6,162.9-245.3,243.3C1653.6,150.5,1440.9,167.8,1279.9,123.7z"/><path d="M8311.9,125.6c-212.7-61.3-364.1-183.9-364.1-293.2c0-151.4,162.9-208.9,291.3-101.5c185.9,153.3,385.1,151.4,548-5.8c176.3-168.6,185.9-377.5,24.9-576.7c-72.8-92-76.6-168.6-11.5-231.8c109.2-111.1,251-38.3,358.3,178.2c59.4,118.8,63.2,139.9,63.2,329.6c0,182-5.7,212.7-55.6,321.9C9095.6-100.5,8948.1,37.5,8794.8,95C8660.7,146.7,8430.7,162,8311.9,125.6z"/></g></g>
</svg>