<?xml version="1.0" encoding="utf-8"?>
<!-- Svg Vector Icons : http://www.onlinewebfonts.com/icon -->
<!DOCTYPE svg PUBLIC "-//W3C//DTD SVG 1.1//EN" "http://www.w3.org/Graphics/SVG/1.1/DTD/svg11.dtd">
<svg version="1.1" xmlns="http://www.w3.org/2000/svg" xmlns:xlink="http://www.w3.org/1999/xlink" x="0px" y="0px" viewBox="0 0 1000 1000" enable-background="new 0 0 1000 1000" xml:space="preserve">
<metadata> Svg Vector Icons : http://www.onlinewebfonts.com/icon </metadata>
<g><g transform="translate(0.000000,511.000000) scale(0.100000,-0.100000)"><path d="M4517.6,4990.6c-419.9-44.1-912.7-184.1-1254-356.7C2458.3,4229.4,1952,3537.2,1791,2618.7c-107.4-615.5-49.9-1451.6,143.8-2128.4C2138-215.4,2406.5-729.2,3029.7-1603.6c184.1-258.8,372-542.6,416.1-630.8l82.4-161.1l5.7-807.3c1.9-540.7,11.5-820.7,24.9-847.5c32.6-61.4,99.7-84.4,253.1-84.4l138.1-1.9l220.5-297.2c120.8-164.9,237.8-310.6,258.9-326c55.6-40.3,1094.9-40.3,1150.5,0c21.1,15.3,138,161.1,258.8,326l220.5,297.2l138.1,1.9c153.4,0,220.5,23,253.1,84.4c13.4,26.8,23,304.9,24.9,847.5l5.7,807.3l80.5,161.1c46,88.2,220.5,354.7,391.2,592.5C7629.7-694.7,7913.5-136.7,8111,632.2c117,452.5,149.6,738.2,151.5,1282.8c0,546.5-28.8,757.4-153.4,1142.8c-400.8,1240.6-1566.6,1965.4-3140.9,1952C4809.1,5007.9,4605.8,4998.3,4517.6,4990.6z M5321.1,4666.6c1129.4-80.5,1921.3-535,2322.1-1328.8c159.2-314.5,272.3-759.3,287.6-1133.2l5.8-113.1H5004.7H2072.8l3.8,103.5c13.4,278,88.2,651.9,182.2,901.2c379.7,1004.8,1307.7,1553.2,2697.9,1585.8C5014.3,4683.8,5179.2,4676.2,5321.1,4666.6z M2720.9,1623.5c61.4-686.5,145.7-1083.4,331.7-1558.9C3211.8-340,3388.2-662.1,3720-1154.9c141.9-209,212.8-335.6,255-454.4c59.4-163,143.8-531.2,172.6-757.4l17.3-118.9h-147.7h-147.7l-30.7,124.6c-49.9,197.5-164.9,402.7-540.7,958.8c-404.6,602.1-535,813-698,1137.1c-314.5,627-467.9,1173.5-529.2,1888.7l-11.5,128.5h326h324.1L2720.9,1623.5z M3718,1690.6c5.8-34.5,24.9-166.8,40.3-293.4c74.8-581,199.4-1156.2,327.9-1528.2c38.3-109.3,132.3-339.4,209-513.9c149.6-337.5,182.2-435.3,228.2-686.5c34.5-182.2,126.6-974.1,126.6-1081.5c0-72.9-1.9-72.9-76.7-72.9c-69,0-74.8,3.8-84.4,63.3c-88.2,552.2-170.7,868.6-287.6,1106.4c-34.5,69-166.8,283.8-297.2,479.4C3507.1-240.3,3259.8,323.5,3146.6,893c-42.2,212.8-61.4,352.8-97.8,740.1l-11.5,118.9h335.6h335.6L3718,1690.6z M5950,1623.5C5854.1,835.4,5739.1,277.5,5595.3-108c-26.9-69-111.2-262.7-191.8-429.5c-86.3-184.1-161.1-373.9-187.9-479.4c-51.8-207.1-111.2-617.4-159.1-1100.6c-51.8-500.5-55.6-496.6-118.9,120.8c-47.9,469.8-115,885.9-172.6,1071.9c-23,71-88.2,232-143.8,356.7c-308.7,673-433.4,1158.2-561.8,2191.7l-17.3,128.5h962.6h962.6L5950,1623.5z M6958.6,1633.1C6872.3,603.4,6659.5-4.4,6084.2-867.3c-370.1-556.1-423.8-707.5-563.8-1555.1c-9.6-59.4-13.4-63.3-92.1-63.3h-80.5l42.2,427.6c49.9,489,109.3,872.5,161.1,1027.8c19.2,59.5,95.9,237.8,168.7,395c272.3,582.9,410.4,1104.5,521.6,1975c23,180.2,46,345.2,49.8,370.1c7.7,42.2,11.5,42.2,343.2,42.2h335.6L6958.6,1633.1z M7940.4,1661.9c-5.7-51.8-15.3-157.2-23-235.8c-17.3-212.9-97.8-609.8-172.6-861c-176.4-577.1-435.3-1083.4-926.2-1804.3c-502.4-740.2-590.6-893.6-648.1-1121.7l-30.7-124.6h-149.6h-149.6l7.7,53.7c90.1,529.2,138.1,728.6,226.3,926.1c24.9,57.5,118.9,210.9,209,343.2c596.3,878.2,891.6,1631.8,974.1,2492.7c11.5,120.8,24.9,266.5,30.7,322.1l9.6,99.7h327.9h326L7940.4,1661.9z M6145.6-2984.2v-153.4H5004.7H3863.8v153.4v153.4h1140.9h1140.9V-2984.2z M6145.6-3645.7v-163H5004.7H3863.8v163v163h1140.9h1140.9V-3645.7z M5635.5-4157.7c-7.7-13.4-61.3-88.2-118.9-163l-103.6-140h-408.4h-408.4l-103.5,140c-57.5,74.8-111.2,149.6-118.9,163c-11.5,17.3,120.8,23,630.9,23C5514.7-4134.7,5647.1-4140.4,5635.5-4157.7z"/></g></g>
</svg>