<?xml version="1.0" encoding="utf-8"?>
<!-- Svg Vector Icons : http://www.onlinewebfonts.com/icon -->
<!DOCTYPE svg PUBLIC "-//W3C//DTD SVG 1.1//EN" "http://www.w3.org/Graphics/SVG/1.1/DTD/svg11.dtd">
<svg version="1.1" xmlns="http://www.w3.org/2000/svg" xmlns:xlink="http://www.w3.org/1999/xlink" x="0px" y="0px" viewBox="0 0 1000 1000" enable-background="new 0 0 1000 1000" xml:space="preserve">
<metadata> Svg Vector Icons : http://www.onlinewebfonts.com/icon </metadata>
<g><g transform="translate(0.000000,512.000000) scale(0.100000,-0.100000)"><path d="M3163.9,4970.6c-42.1-40.2-47.8-63.1-47.8-172.2V4674h-116.7c-103.3,0-122.5-5.7-172.2-55.5l-55.5-55.5V1778.5v-2782.6l-76.6-34.5c-89.9-40.2-202.9-156.9-241.1-250.7c-44-105.3-36.4-633.4,11.5-819.1c59.3-235.4,155-400,342.6-585.6c178-176.1,356-283.2,551.2-327.2l101.4-22.9v-472.7v-472.7l49.8-45.9c42.1-38.3,72.7-47.8,214.3-55.5l166.5-9.6l235.4-315.8c130.1-174.1,254.5-325.3,277.5-338.7c55.5-30.6,1119.5-34.5,1184.6-3.8c24.9,11.5,151.2,166.5,283.2,342.6l239.2,323.4l156.9,1.9c139.7,0,162.7,5.8,214.3,49.8l59.3,49.8v476.5c0,440.2,1.9,476.5,34.4,476.5c17.2,0,91.9,21,162.7,45.9c380.8,135.9,696.6,484.2,798,884.2c30.6,114.8,38.3,212.4,38.3,436.3c0,158.9-9.6,319.6-19.1,357.9c-26.8,93.8-151.2,231.6-246.9,275.6l-78.5,34.5v2782.6V4563l-55.5,55.5c-49.8,49.8-68.9,55.5-172.2,55.5h-116.8v124.4c0,111-5.7,132.1-49.7,172.2c-72.7,67-166.5,65.1-239.2-7.6c-49.8-49.8-55.5-68.9-55.5-172.2V4674H6379h-162.7v72.7c0,107.2-34.4,210.5-82.3,243c-68.9,47.8-160.8,36.4-225.8-26.8c-49.8-49.8-55.5-68.9-55.5-172.2V4674h-162.7h-162.7v95.7c0,107.2-38.3,199-93.8,229.6c-63.2,32.5-149.3,21.1-204.8-26.8c-45.9-38.3-53.6-61.2-61.3-172.2L5160,4674h-158.8h-158.8l-7.7,126.3c-7.7,111-15.3,134-61.2,172.2c-55.5,47.9-141.6,59.3-204.8,26.8c-55.5-30.6-93.8-122.5-93.8-229.6V4674h-162.7h-162.7v116.7c0,103.3-5.7,122.5-55.5,172.2c-59.3,59.3-143.5,72.7-216.3,34.4c-51.7-26.8-91.9-132.1-91.9-237.3V4674h-162.7h-162.7v116.7c0,103.3-5.7,122.5-55.5,172.2C3332.3,5035.7,3230.9,5039.5,3163.9,4970.6z M4130.4,1669.4V-990.7H3916h-212.4l38.3,44c55.5,59.3,70.8,122.5,44,185.6c-26.8,67-132,120.6-200.9,103.3c-118.7-28.7-164.6-199-76.6-285.2l45.9-47.8h-218.2h-220.1v2660.1v2660.1h507.1h507.1V1669.4z M5508.3,1669.4V-990.7h-220.1H5070l45.9,47.8c105.3,103.4,32.5,285.2-114.8,285.2c-147.4,0-220.1-181.8-114.8-285.2l45.9-47.8h-218.2H4494v2660.1v2660.1h507.1h507.1V1669.4z M6886.2,1669.4V-990.7h-220.1h-218.2l45.9,47.8c126.3,124.4-5.7,333-176.1,275.6c-120.6-38.3-151.2-181.8-59.3-279.4l40.2-44h-212.4h-214.3v2660.1v2660.1H6379h507.1V1669.4z M7207.7-1354.3c36.4,0,32.5-570.3-5.7-713.8c-82.3-315.8-298.5-535.9-612.4-618.2c-139.7-38.3-3037.1-38.3-3176.8,0c-313.9,82.3-530.1,302.4-612.4,618.2c-34.4,128.2-42.1,706.2-9.6,717.7C2804.2-1346.7,6857.5-1348.6,7207.7-1354.3z M6197.2-3143.7v-86.1H5001.1H3805v86.1v86.1h1196.1h1196.1V-3143.7z M6197.2-3660.4v-86.1H5001.1H3805v86.1v86.1h1196.1h1196.1V-3660.4z M5669.1-4113.9c-7.7-13.4-65.1-91.9-126.3-172.2l-112.9-149.3h-428.7h-428.7l-112.9,149.3c-61.2,80.4-118.7,158.8-126.3,172.2c-11.5,17.2,128.2,22.9,667.9,22.9C5540.8-4091,5680.5-4096.7,5669.1-4113.9z"/><path d="M3546.7,3962.1c-103.3-59.3-116.7-178-30.6-266c30.6-30.6,74.6-55.5,97.6-55.5c67,0,145.4,51.7,170.3,111C3845.2,3898.9,3684.5,4040.6,3546.7,3962.1z"/><path d="M3510.3,3418.6c-70.8-70.8-67-164.6,5.7-239.2c30.6-30.6,74.6-55.5,97.6-55.5c67,0,145.4,51.7,170.3,111C3854.8,3403.3,3640.5,3546.8,3510.3,3418.6z"/><path d="M3508.4,2903.8c-91.9-89.9-40.2-258.3,84.2-287.1c116.7-24.9,231.6,91.9,200.9,208.6C3764.9,2945.9,3596.4,2993.7,3508.4,2903.8z"/><path d="M3508.4,2387.1c-91.9-90-40.2-258.3,84.2-287.1c116.7-24.9,231.6,91.9,200.9,208.6C3764.9,2429.2,3596.4,2477,3508.4,2387.1z"/><path d="M3508.4,1870.4c-84.2-82.3-49.8-237.3,61.2-279.4c116.7-44,254.5,72.7,225.8,191.4C3762.9,1916.3,3602.2,1966.1,3508.4,1870.4z"/><path d="M3508.4,1353.7c-90-88-40.2-260.3,80.4-283.2c116.7-23,237.3,95.7,206.7,200.9C3755.3,1403.4,3600.3,1447.4,3508.4,1353.7z"/><path d="M3508.4,836.9c-32.5-30.6-47.8-67-47.8-114.8c0-160.8,181.8-223.9,292.8-101.4c45.9,47.9,53.6,68.9,44,116.7C3768.7,881,3606,936.5,3508.4,836.9z"/><path d="M3508.4,320.2C3401.2,215,3477.8,42.7,3629,42.7c86.1,0,149.3,55.5,168.4,145.5c7.7,45.9,0,70.8-40.2,118.6C3690.2,387.2,3579.2,392.9,3508.4,320.2z"/><path d="M3562-158.2c-170.3-72.7-118.6-315.8,67-315.8c147.4,0,222,174.2,118.7,275.6C3684.5-137.2,3634.7-125.7,3562-158.2z"/><path d="M4886.3,3937.2c-118.7-118.7-5.7-329.2,153.1-289c124.4,30.6,168.4,199,76.6,289C5052.8,4002.3,4949.5,4002.3,4886.3,3937.2z"/><path d="M4886.3,3420.5c-72.7-70.8-67-181.8,11.5-246.9c32.5-26.8,78.5-49.8,103.3-49.8c24.9,0,70.8,23,103.3,49.8c47.9,40.2,59.3,63.2,59.3,124.4C5163.8,3451.1,4991.6,3527.7,4886.3,3420.5z"/><path d="M4886.3,2903.8c-72.7-70.8-67-181.8,11.5-246.9c32.5-26.8,78.5-49.8,103.3-49.8c24.9,0,70.8,23,103.3,49.8c47.9,40.2,59.3,63.1,59.3,124.4C5163.8,2934.4,4991.6,3011,4886.3,2903.8z"/><path d="M4886.3,2387.1c-67-65.1-65.1-178,0-239.2c107.2-101.4,277.5-28.7,277.5,118.7C5163.8,2417.7,4991.6,2494.3,4886.3,2387.1z"/><path d="M4886.3,1870.4c-67-65.1-65.1-178,0-239.2c107.2-101.4,277.5-28.7,277.5,118.7C5163.8,1901,4991.6,1977.5,4886.3,1870.4z"/><path d="M4886.3,1353.7c-67-65.1-65.1-178,0-239.2c107.2-101.4,277.5-28.7,277.5,118.7C5163.8,1384.3,4991.6,1460.8,4886.3,1353.7z"/><path d="M4888.2,844.6c-68.9-53.6-70.8-181.8-3.8-245c107.2-101.4,279.4-28.7,279.4,116.7C5163.8,863.7,5005,936.5,4888.2,844.6z"/><path d="M4880.6,324.1c-59.3-63.2-57.4-183.7,1.9-239.2c63.2-59.3,183.7-57.4,239.2,1.9c59.3,63.2,57.4,183.7-1.9,239.2C5056.6,385.3,4936.1,383.4,4880.6,324.1z"/><path d="M4962.9-144.8c-126.3-24.9-174.2-210.5-74.6-289c116.7-91.9,275.6-19.1,275.6,128.2C5163.8-198.4,5070-123.8,4962.9-144.8z"/><path d="M6268.1,3946.8c-126.3-99.5-45.9-306.2,120.6-306.2c65.1,0,153.1,101.4,153.1,176.1C6539.8,3958.3,6381,4034.8,6268.1,3946.8z"/><path d="M6268.1,3430.1c-95.7-74.6-80.4-223.9,28.7-279.4c168.4-88,329.2,134,195.2,267.9C6428.8,3479.8,6338.9,3485.6,6268.1,3430.1z"/><path d="M6268.1,2913.4c-95.7-74.6-80.4-223.9,28.7-279.4c166.5-86.1,325.3,128.2,197.1,267.9C6436.5,2963.1,6338.9,2968.9,6268.1,2913.4z"/><path d="M6268.1,2396.7c-95.7-74.6-80.4-223.9,28.7-279.4c114.8-59.3,245,24.9,245,158.8C6541.7,2412,6379,2484.7,6268.1,2396.7z"/><path d="M6258.5,1876.1c-91.9-99.5-61.3-243,59.3-281.3c118.7-40.2,223.9,38.3,223.9,166.5C6541.7,1899.1,6354.2,1975.6,6258.5,1876.1z"/><path d="M6258.5,1359.4c-132.1-143.5,1.9-348.3,178-275.6c174.2,72.7,124.4,317.7-63.1,317.7C6321.6,1401.5,6287.2,1388.1,6258.5,1359.4z"/><path d="M6247,825.5c-61.3-70.8-63.2-130.1-9.6-197.1c59.3-74.6,120.6-93.8,199-61.2c174.2,72.7,124.4,317.7-65,317.7C6310.2,884.8,6287.2,873.3,6247,825.5z"/><path d="M6247,308.8c-26.8-32.5-49.8-78.5-49.8-103.3s23-70.8,49.8-103.3c101.4-120.6,294.7-53.6,294.7,103.3C6541.7,362.3,6348.4,429.3,6247,308.8z"/><path d="M6319.7-148.7c-55.5-22.9-122.5-111-122.5-164.6c0-22.9,23-68.9,49.8-101.4c132-156.9,371.3,11.5,273.7,193.3c-15.3,28.7-130.1,95.7-155,89.9C6361.8-131.4,6340.8-139.1,6319.7-148.7z"/></g></g>
</svg>