<?xml version="1.0" encoding="utf-8"?>
<!-- Svg Vector Icons : http://www.onlinewebfonts.com/icon -->
<!DOCTYPE svg PUBLIC "-//W3C//DTD SVG 1.1//EN" "http://www.w3.org/Graphics/SVG/1.1/DTD/svg11.dtd">
<svg version="1.1" xmlns="http://www.w3.org/2000/svg" xmlns:xlink="http://www.w3.org/1999/xlink" x="0px" y="0px" viewBox="0 0 1000 1000" enable-background="new 0 0 1000 1000" xml:space="preserve">
<metadata> Svg Vector Icons : http://www.onlinewebfonts.com/icon </metadata>
<g><g transform="translate(0.000000,512.000000) scale(0.100000,-0.100000)"><path d="M4523.7,4999.9c-727.4-65.1-1447.1-294.8-1952.4-622.1c-229.7-149.3-474.7-400-562.8-576.2c-38.3-76.6-80.4-185.7-91.9-245c-15.3-74.6-19.1-497.7-13.4-1477.7c7.7-1443.3,7.7-1445.2,99.5-1881.6c99.5-472.8,292.9-953.3,562.8-1395.4c53.6-88.1,97.6-168.5,97.6-176.1c0-9.6,42.1-80.4,93.8-160.8c107.2-164.6,202.9-396.2,243.1-589.6c19.1-90,28.7-298.6,32.5-689.1c5.7-625.9,9.6-645.1,151.2-869c143.6-225.9,371.3-382.8,627.8-428.8l134-23l225.9-302.4c122.5-166.5,243.1-310.1,268-321.6c59.3-28.7,1058.5-28.7,1117.9,0c24.9,11.5,145.5,155.1,268,321.6l225.9,300.5l128.3,24.9c262.3,47.9,491.9,202.9,631.7,426.9c135.9,216.3,141.7,248.8,158.9,857.5c11.5,474.7,19.2,564.7,55.5,698.7c53.6,193.3,166.5,434.5,291,625.9c61.2,93.8,101.4,176.1,107.2,227.8c5.7,44,53.6,151.2,107.2,243.1c298.6,520.7,480.5,1119.8,549.4,1801.2c11.5,112.9,19.1,733.1,19.1,1454.8c0,1385.8,1.9,1368.6-120.6,1598.3c-82.3,157-344.6,419.2-553.2,555.1C6692.4,4854.4,5576.5,5093.7,4523.7,4999.9z M5764.1,4640.1c1001.1-151.2,1726.6-522.6,1950.5-997.3l49.8-105.3V2159.3c0-1443.3-1.9-1485.4-90-1904.6c-90-436.4-382.8-1146.6-467-1133.2c-19.2,3.8-63.2,11.5-95.7,17.2c-44,7.7-105.3-13.4-252.7-88c-107.2-53.6-202.9-97.6-214.4-97.6c-13.4,0-19.1,580-19.1,1761v1762.9l-47.9,45.9c-42.1,44-59.3,47.9-239.3,47.9h-191.4v97.6c0,155-55.5,225.9-174.2,227.8c-103.4,0-157-67-166.5-210.6l-7.7-114.8h-74.6h-74.6v114.8c0,143.6-51.7,210.6-162.7,210.6s-162.7-67-162.7-210.6v-114.8h-76.6h-76.6v103.4c0,139.7-63.2,222-172.3,222c-109.1,0-172.3-82.3-172.3-222v-103.4h-76.6H4673v114.8c0,143.6-51.7,210.6-162.7,210.6c-111,0-162.7-67-162.7-210.6v-114.8h-74.6h-74.7l-7.7,118.7c-7.7,97.6-17.2,124.4-61.3,162.7c-30.6,26.8-76.6,44-112.9,44c-111-1.9-166.5-76.6-166.5-227.8v-97.6h-191.4c-179.9,0-197.2-3.8-239.3-47.9l-47.9-45.9V723.7c0-962.8-5.7-1751.5-11.5-1751.5c-5.7,0-86.1,38.3-178,86.1c-176.1,90-246.9,103.4-327.3,57.4c-26.8-15.3-57.4-26.8-68.9-28.7c-34.5,0-254.6,469-342.6,733.1c-103.4,310.1-174.2,650.8-201,980.1c-13.4,158.9-19.1,698.7-15.3,1493l5.7,1244.2l65.1,132.1c248.8,505.3,1121.7,899.6,2235.7,1006.8C4808.9,4703.2,5471.2,4684.1,5764.1,4640.1z M4347.6,455.7c0-1418.4-5.7-1789.7-23-1789.7c-34.5,0-449.8,107.2-541.7,139.7l-76.6,26.8l-5.7,1707.4l-3.8,1705.5h325.4h325.4V455.7z M5323.8,427v-1818.5l-319.7,3.8l-321.6,5.7l-5.7,1814.6l-3.8,1812.7h325.4h325.4V427z M6300,532.3v-1713.2l-51.7-21c-88-34.5-490-132.1-545.5-132.1h-53.6V455.7v1789.7h325.4H6300V532.3z M3430.7-1420.2c505.3-202.9,1010.7-298.6,1586.8-300.5c702.5-1.9,1341.8,147.4,1950.5,453.7c74.6,36.4,135.9,61.3,135.9,55.5c0-5.7-38.3-72.7-84.2-149.3c-168.5-268-315.8-645.1-350.3-886.3l-11.5-82.3H5008H3358l-13.4,114.8c-30.6,266.1-151.2,601.1-306.3,849.9c-47.9,78.5-88.1,147.4-88.1,153.1c0,5.7,63.2-19.1,139.7-57.4C3164.6-1307.2,3319.7-1376.2,3430.7-1420.2z M6625.4-2731.4v-76.6h-1627h-1627v76.6v76.6h1627h1627V-2731.4z M6625.4-3229.1v-76.6h-1627h-1627v76.6v76.6h1627h1627V-3229.1z M6399.6-3686.5c-124.4-105.3-141.7-107.2-1401.2-107.2c-1259.5,0-1276.7,1.9-1401.2,107.2l-63.2,53.6h1464.3h1464.3L6399.6-3686.5z M5530.5-4291.4l-120.6-160.8h-411.5h-411.5l-120.6,160.8l-118.7,162.7h650.8h650.8L5530.5-4291.4z"/><path d="M3924.6,2054c-17.2-9.6-42.1-44-55.5-76.6c-30.6-76.6,3.8-162.7,80.4-202.9c155-80.4,308.2,137.8,181.8,256.5C4083.4,2075.1,3980.1,2086.6,3924.6,2054z"/><path d="M3955.2,1575.5c-53.6-21.1-84.2-59.3-97.6-128.3c-17.2-82.3,67-178,157-178c164.6,0,225.9,224,82.3,296.7C4037.5,1598.5,4010.7,1600.4,3955.2,1575.5z"/><path d="M3907.3,1049.1c-65.1-70.8-63.2-172.3,7.7-231.6c28.7-24.9,68.9-45.9,90-45.9c53.6,0,143.6,49.8,158.9,86.1C4228.9,1031.9,4029.8,1179.3,3907.3,1049.1z"/><path d="M3943.7,589.7c-72.7-40.2-105.3-128.3-74.7-201c67-160.8,306.3-114.9,306.3,59.3C4175.3,566.7,4045.2,645.2,3943.7,589.7z"/><path d="M3915,74.8c-111-93.8-38.3-279.5,109.1-279.5c134,0,202.9,179.9,103.4,277.6C4068.1,134.1,3983.9,134.1,3915,74.8z"/><path d="M3924.6-396.1c-17.2-9.6-42.1-44-55.5-76.6c-30.6-76.6,3.8-162.7,80.4-202.9c155-80.4,308.2,137.8,181.8,256.5C4083.4-375,3980.1-363.6,3924.6-396.1z"/><path d="M3955.2-874.6c-53.6-21-84.2-59.3-97.6-128.3c-17.2-82.3,67-178,157-178c164.6,0,225.9,224,82.3,296.7C4037.5-851.7,4010.7-849.8,3955.2-874.6z"/><path d="M4889.3,2031.1c-57.4-65.1-65.1-105.3-36.4-176.1c70.8-168.4,308.2-112.9,302.4,70.8C5151.5,2055.9,4975.4,2124.9,4889.3,2031.1z"/><path d="M4925.7,1575.5c-51.7-21.1-105.3-135.9-86.1-185.7c42.1-122.5,189.5-162.7,271.8-74.6c74.6,80.4,49.8,224-47.9,260.3C5006.1,1598.5,4983.1,1598.5,4925.7,1575.5z"/><path d="M4893.1,1054.8c-91.9-80.4-53.6-246.9,63.2-273.7c78.5-17.2,155,19.2,183.8,88.1c32.5,76.6,19.1,143.6-42.1,189.5C5034.8,1108.4,4954.4,1106.5,4893.1,1054.8z"/><path d="M4929.5,591.6c-155-67-99.5-298.6,68.9-298.6c168.4,0,220.1,233.5,67,298.6C4988.8,622.2,5004.1,622.2,4929.5,591.6z"/><path d="M4893.1,76.7c-109.1-91.9-38.3-281.4,105.3-281.4c141.6,0,208.6,176.1,105.3,277.6C5044.3,134.1,4960.1,134.1,4893.1,76.7z"/><path d="M4889.3-419.1c-57.4-65.1-65.1-105.3-36.4-176.1c34.5-84.2,122.5-120.6,204.8-86.1c67,26.8,120.6,126.3,99.5,183.8c-24.9,72.7-88,120.6-158.9,120.6C4950.5-377,4916.1-390.4,4889.3-419.1z"/><path d="M4927.6-874.6c-91.9-36.4-114.8-181.8-42.1-260.3c80.4-86.1,248.8-36.4,269.9,76.6c13.4,68.9-32.5,162.7-90,183.7C5006.1-851.7,4983.1-851.7,4927.6-874.6z"/><path d="M5863.6,2029.2c-118.7-126.3,30.6-333.1,183.8-254.6c78.5,40.2,111,126.3,80.4,202.9c-28.7,70.8-70.8,95.7-158.9,95.7C5926.8,2073.2,5890.4,2057.9,5863.6,2029.2z"/><path d="M5907.6,1573.6c-147.4-84.2-95.7-304.3,72.7-304.3c130.2,0,208.7,178,116.8,268C6051.2,1585.1,5957.4,1602.3,5907.6,1573.6z"/><path d="M5869.3,1049.1c-47.9-45.9-61.3-124.4-36.4-191.4c15.3-36.4,105.3-86.1,158.9-86.1c68.9,0,143.6,82.3,143.6,158.9C6135.4,1077.8,5970.8,1152.5,5869.3,1049.1z"/><path d="M5936.3,605c-170.4-63.2-141.6-312,36.4-312c84.2,0,126.3,24.9,155,95.7c30.6,74.6-1.9,162.7-78.5,201C5991.8,620.3,5982.3,622.2,5936.3,605z"/><path d="M5869.3,72.9c-99.5-97.6-30.6-277.6,103.4-277.6c88,0,162.7,74.7,162.7,162.7C6135.4,99.7,5967,172.4,5869.3,72.9z"/><path d="M5863.6-421c-118.7-126.3,30.6-333.1,183.8-254.6c78.5,40.2,111,126.3,80.4,202.9c-28.7,70.8-70.8,95.7-158.9,95.7C5926.8-377,5890.4-392.3,5863.6-421z"/><path d="M5907.6-876.5c-147.4-84.2-95.7-304.4,72.7-304.4c130.2,0,208.7,178,116.8,268C6051.2-865.1,5957.4-847.8,5907.6-876.5z"/></g></g>
</svg>