<?xml version="1.0" encoding="utf-8"?>
<!-- Svg Vector Icons : http://www.onlinewebfonts.com/icon -->
<!DOCTYPE svg PUBLIC "-//W3C//DTD SVG 1.1//EN" "http://www.w3.org/Graphics/SVG/1.1/DTD/svg11.dtd">
<svg version="1.1" xmlns="http://www.w3.org/2000/svg" xmlns:xlink="http://www.w3.org/1999/xlink" x="0px" y="0px" viewBox="0 0 1000 1000" enable-background="new 0 0 1000 1000" xml:space="preserve">
<metadata> Svg Vector Icons : http://www.onlinewebfonts.com/icon </metadata>
<g><g transform="translate(0.000000,512.000000) scale(0.100000,-0.100000)"><path d="M4789.4,4988.1c-440.4-139.8-871.3-599.4-1254.3-1330.9c-396.4-758.3-651.1-1641.1-767.9-2663.7c-47.9-419.4-47.9-1160.5,0-1417.1c78.5-429,183.8-762.1,451.9-1445.8c97.7-247,206.8-536.2,241.3-639.6l65.1-191.5l1.9-622.4c0-670.2,7.7-739.2,93.8-781.3c26.8-13.4,109.2-24.9,183.8-24.9H3943l226-304.5c126.4-168.5,247-314,271.9-325.5c28.7-13.4,233.6-21.1,566.8-21.1c492.1,0,526.6,1.9,570.7,38.3c26.8,19.2,145.5,166.6,264.3,325.5l214.5,287.2h137.9c74.7,0,157,11.5,183.8,24.9c86.2,42.1,93.8,111.1,93.8,781.3l1.9,622.4l65.1,191.5c34.5,103.4,143.6,392.6,241.3,639.6c270,685.5,373.4,1020.7,451.9,1445.8c47.9,260.4,47.9,1003.4,0,1417.1C7062.4,2471.9,6564.5,3770.2,5884.7,4517C5505.5,4930.7,5124.5,5095.3,4789.4,4988.1z M5273.8,4626.2c319.8-159,641.5-543.9,932.6-1114.5c404.1-798.5,653-1763.7,727.7-2834.1c61.3-901.9-3.8-1252.4-465.3-2443.5c-109.2-283.4-214.5-561.1-231.7-614.7c-19.2-59.4-45.9-101.5-61.3-101.5c-23,0-26.8,300.7-26.8,2116c0,2330.5,5.7,2230.9-114.9,2271.1c-55.5,21.1-57.5,24.9-57.5,134c0,141.7-51.7,208.7-162.8,208.7s-162.8-67-162.8-210.6v-114.9h-74.7h-74.7l-7.7,118.7c-7.7,97.7-17.2,124.5-61.3,162.8c-67,55.5-147.5,55.5-214.5,0c-44-38.3-53.6-65.1-61.3-162.8l-7.7-118.7H5000h-149.4L4843,2041c-7.7,97.7-17.2,124.5-61.3,162.8c-67,55.5-147.5,55.5-214.5,0c-44-38.3-53.6-65.1-61.3-162.8l-7.7-118.7h-74.7h-74.7v114.9c0,143.6-51.7,210.6-162.8,210.6c-109.2,0-162.8-67-162.8-206.8c0-107.2-1.9-113-61.3-139.8c-44-19.2-70.8-47.9-86.2-93.8c-17.2-49.8-23-595.6-23-2177.3c-1.9-1811.5-5.8-2112.2-28.7-2112.2c-15.3,0-42.1,42.1-61.3,101.5c-17.2,53.6-122.5,333.2-233.6,616.6C3221-969.3,3117.6-616.9,3064-184.2c-40.2,327.5,1.9,1104.9,90,1646.9c252.8,1581.7,965.1,2952.8,1660.3,3201.8C4956,4716.2,5120.6,4700.9,5273.8,4626.2z M4827.7-442.7v-2039.4h-316h-316v2039.4v2039.4h316h316V-442.7z M5804.3-442.7v-2039.4h-316h-316v2037.5v2037.5l316,1.9l316,1.9V-442.7z M6129.8-2980v-153.2H5000H3870.2v153.2v153.2H5000h1129.8V-2980z M6129.8-3640.6v-162.8H5000H3870.2v162.8v162.8H5000h1129.8V-3640.6z M5532.4-4287.9l-122.6-157H5000h-409.8L4467.7-4286l-120.6,157h653h653L5532.4-4287.9z"/><path d="M4396.8,1376.5c-67-65.1-63.2-149.4,7.7-222.1c34.5-32.5,76.6-55.5,107.2-55.5c72.8,0,162.8,95.7,162.8,172.3C4674.5,1407.2,4494.5,1476.1,4396.8,1376.5z"/><path d="M4452.3,926.5c-105.3-42.1-134.1-181.9-55.5-258.5c97.7-99.6,277.7-30.6,277.7,103.4C4674.5,880.6,4548.1,966.7,4452.3,926.5z"/><path d="M4410.2,409.5c-114.9-107.2-42.1-287.2,113-287.2c51.7,0,151.3,101.5,151.3,153.2c0,49.8-34.5,116.8-74.7,147.5C4551.9,459.3,4456.2,451.6,4410.2,409.5z"/><path d="M4396.8-98c-99.6-97.7-26.8-266.2,114.9-266.2c55.5,0,82.3,13.4,116.8,53.6c93.8,107.3,24.9,260.4-116.8,260.4C4463.8-50.1,4427.4-65.4,4396.8-98z"/><path d="M4404.4-584.4c-70.8-70.9-72.8-149.4-7.7-220.2c95.8-103.4,277.7-32.5,277.7,107.3c0,72.8-91.9,168.5-162.8,168.5C4481-528.8,4438.9-551.8,4404.4-584.4z"/><path d="M4396.8-1074.6c-67-65.1-63.2-149.4,7.7-222.1c72.8-72.8,141.7-72.8,214.5,0c107.2,109.2,44,270-107.2,270C4463.8-1026.7,4427.4-1042,4396.8-1074.6z"/><path d="M4452.3-1524.6c-105.3-42.1-134.1-181.9-55.5-258.5c97.7-99.6,277.7-30.6,277.7,103.4C4674.5-1570.6,4548.1-1484.4,4452.3-1524.6z"/><path d="M4423.6-2028.2c-40.2-30.6-74.7-97.7-74.7-147.5c0-51.7,99.6-153.2,151.3-153.2c155.1,0,227.9,180,113,287.2C4567.2-1999.5,4471.5-1991.9,4423.6-2028.2z"/><path d="M5373.4,1376.5c-67-65.1-63.2-149.4,7.7-222.1c34.5-32.5,76.6-55.5,107.2-55.5c72.8,0,162.8,95.7,162.8,172.3C5651.1,1407.2,5471.1,1476.1,5373.4,1376.5z"/><path d="M5428.9,926.5c-105.3-42.1-134-181.9-55.5-258.5c97.7-99.6,277.7-30.6,277.7,103.4C5651.1,880.6,5524.7,966.7,5428.9,926.5z"/><path d="M5400.2,422.9c-40.2-30.6-74.7-97.7-74.7-147.5c0-57.5,101.5-153.2,162.8-153.2s162.8,95.7,162.8,153.2c0,93.8-72.8,170.4-162.8,170.4C5457.7,445.9,5417.5,436.3,5400.2,422.9z"/><path d="M5373.4-98c-99.6-97.7-26.8-266.2,114.9-266.2c55.5,0,82.3,13.4,116.8,53.6C5699-203.3,5630-50.1,5488.3-50.1C5440.4-50.1,5404.1-65.4,5373.4-98z"/><path d="M5381.1-584.4c-70.8-72.8-74.7-157-7.7-222.1c97.7-99.6,277.7-28.7,277.7,109.2c0,72.8-91.9,168.5-162.8,168.5C5457.7-528.8,5415.5-551.8,5381.1-584.4z"/><path d="M5373.4-1074.6c-67-65.1-63.2-149.4,7.7-222.1c72.8-72.8,141.7-72.8,214.5,0c107.2,109.2,44,270-107.2,270C5440.4-1026.7,5404.1-1042,5373.4-1074.6z"/><path d="M5428.9-1524.6c-105.3-42.1-134-181.9-55.5-258.5c97.7-99.6,277.7-30.6,277.7,103.4C5651.1-1570.6,5524.7-1484.4,5428.9-1524.6z"/><path d="M5386.8-2041.6c-114.9-107.2-42.1-287.2,113-287.2c51.7,0,151.3,101.5,151.3,153.2c0,49.8-34.5,116.8-74.7,147.5C5528.5-1991.9,5432.8-1999.5,5386.8-2041.6z"/></g></g>
</svg>