<?xml version="1.0" encoding="utf-8"?>
<!-- Svg Vector Icons : http://www.onlinewebfonts.com/icon -->
<!DOCTYPE svg PUBLIC "-//W3C//DTD SVG 1.1//EN" "http://www.w3.org/Graphics/SVG/1.1/DTD/svg11.dtd">
<svg version="1.1" xmlns="http://www.w3.org/2000/svg" xmlns:xlink="http://www.w3.org/1999/xlink" x="0px" y="0px" viewBox="0 0 1000 1000" enable-background="new 0 0 1000 1000" xml:space="preserve">
<metadata> Svg Vector Icons : http://www.onlinewebfonts.com/icon </metadata>
<g><g transform="translate(0.000000,512.000000) scale(0.100000,-0.100000)"><path d="M4617.2,4998.8c-524.5-59.3-1075.8-271.8-1523.7-587.7c-371.4-262.3-777.2-708.3-1001.1-1100.7c-539.8-953.3-574.3-2094.1-88.1-3102.9c168.4-350.3,358-610.7,729.3-999.2c430.7-449.8,654.7-922.7,704.4-1495c9.6-112.9,19.1-547.5,19.1-964.8c1.9-417.3,7.7-773.3,13.4-790.6c21.1-53.6,114.9-86.1,254.6-86.1h135.9l229.7-306.3c126.3-166.5,246.9-313.9,266.1-325.4c40.2-21,1066.2-28.7,1119.8-7.7c15.3,5.8,134,153.1,264.2,325.4l235.4,313.9h147.4c128.2,0,155,5.7,201,45.9l53.6,45.9l11.5,878.6c11.5,867.1,11.5,878.6,61.3,1070c124.4,482.4,390.5,920.7,754.2,1246.2c802,715.9,1228.9,1808.9,1114.1,2854.1c-45.9,423-156.9,786.7-354.1,1171.5c-172.3,333.1-340.8,564.7-620.2,842.3c-289,289-514.9,453.7-869,631.7C5882.5,4956.7,5260.4,5071.6,4617.2,4998.8z M5344.6,4677.2c614.5-70.8,1140.9-296.7,1611.8-691c1093-918.8,1378.2-2565.1,660.4-3815c-145.5-254.6-304.4-447.9-614.5-758c-327.3-325.4-467.1-507.3-624.1-807.8c-160.8-310.1-258.4-624-306.3-995.4l-11.5-91.9h-325.4h-327.3l9.6,970.5c7.7,913.1,9.6,983.9,49.8,1163.8c74.7,342.6,218.2,576.2,417.3,683.4c118.7,65.1,208.6,88,419.2,109.1c139.7,13.4,174.2,24.9,202.9,59.4c49.8,61.3,44,164.6-13.4,220.1c-38.3,40.2-65.1,47.9-162.7,47.9c-174.2,0-394.3-49.8-553.2-128.3C5360,441.1,5137.9-33.7,5092-818.5l-11.5-208.7h-157h-157l-13.4,59.3c-5.7,32.5-11.5,105.3-11.5,158.9c0,155.1-38.3,426.9-88.1,624C4506.2,402.8,4138.7,732,3589.3,766.5c-187.6,13.4-245-3.8-281.4-84.2c-34.5-74.7-24.9-120.6,34.5-180c47.9-45.9,72.7-55.5,151.2-55.5c333.1,0,616.4-158.9,750.4-421.1c151.2-298.6,174.2-495.8,185.7-1592.6l9.6-915h-327.3c-179.9,0-327.3,3.8-327.3,7.6c0,3.8-9.6,95.7-19.1,204.8c-67,658.5-323.5,1204.1-804,1711.3c-365.6,384.7-501.5,568.5-666.1,901.6c-472.8,951.4-396.2,2128.6,197.2,3013C3122.2,4296.3,4221,4805.5,5344.6,4677.2z M5086.2-1917.3v-564.7h-162.7h-162.7v564.7v564.7h162.7h162.7V-1917.3z M6062.5-2979.6v-153.1H4923.5h-1139v153.1v153.1h1139h1138.9V-2979.6z M6062.5-3640v-162.7H4923.5h-1139v162.7v162.7h1139h1138.9V-3640z M5522.7-4189.4c-26.8-34.4-80.4-109.1-120.6-162.7l-74.6-101.4h-407.7h-405.8l-116.8,151.2c-63.2,84.2-114.9,157-114.9,162.7c0,5.7,289.1,11.5,643.2,11.5h643.2L5522.7-4189.4z"/><path d="M2894.4,1574.3c-109.1-63.2-116.8-172.3-17.2-306.3c241.2-329.2,662.3-402,982-168.4l80.4,57.4l111-74.6c145.5-95.7,254.6-126.3,428.8-114.9c141.7,9.6,248.9,49.8,373.3,143.6l63.2,47.9l99.5-68.9c134-91.9,243.1-126.3,394.3-126.3c164.6,1.9,279.5,45.9,463.2,174.2c23,17.2,47.9,7.7,120.6-47.9c306.3-233.5,767.6-132.1,991.6,216.3c68.9,109.1,67,162.7-1.9,233.5c-97.6,95.7-176.1,70.8-298.6-97.6c-172.3-235.4-388.6-250.8-560.8-42.1c-141.7,170.4-170.4,195.3-233.6,195.3c-63.2,0-103.4-34.4-201-172.3c-72.7-103.4-189.5-172.3-290.9-172.3c-97.6,0-204.8,74.6-312,220.1c-124.4,168.4-220.1,168.4-342.6-3.8c-187.6-266.1-398.2-287.1-578.1-61.3c-128.2,158.9-164.6,189.5-227.8,189.5c-45.9,0-74.6-15.3-112.9-59.3c-218.2-256.5-256.5-285.2-379-285.2c-90,0-172.3,49.8-256.5,153.1c-36.4,44-82.3,101.5-103.4,126.3C3041.8,1583.8,2949.9,1604.9,2894.4,1574.3z"/></g></g>
</svg>