<?xml version="1.0" encoding="utf-8"?>
<!-- Svg Vector Icons : http://www.onlinewebfonts.com/icon -->
<!DOCTYPE svg PUBLIC "-//W3C//DTD SVG 1.1//EN" "http://www.w3.org/Graphics/SVG/1.1/DTD/svg11.dtd">
<svg version="1.1" xmlns="http://www.w3.org/2000/svg" xmlns:xlink="http://www.w3.org/1999/xlink" x="0px" y="0px" viewBox="0 0 1000 1000" enable-background="new 0 0 1000 1000" xml:space="preserve">
<metadata> Svg Vector Icons : http://www.onlinewebfonts.com/icon </metadata>
<g><g transform="translate(0.000000,512.000000) scale(0.100000,-0.100000)"><path d="M3518.8,5004.3C2286.2,4855,1246.9,3905.7,982.8,2686.5c-72.7-342.6-78.5-574.2-78.5-3579.1V-3800H550.2c-482.3,0-449.8,34.4-449.8-478.5v-386.6l55.5-55.5l55.5-55.5h870.9c828.8,0,872.8,1.9,914.9,36.4c44,36.4,45.9,45.9,55.5,407.7c9.6,392.4-1.9,472.8-72.7,511c-24.9,13.4-174.2,21-386.6,21h-344.5l5.7,3144.6c5.7,3487.2-3.8,3200.2,132.1,3602.1C1708.2,3898,2544.6,4566,3551.3,4677c241.2,26.8,1515.9,26.8,1709.2,0c562.7-78.5,1048.9-409.6,1316.8-899.6c86.1-156.9,178-432.6,195.2-585.7l13.4-120.6h-208.6c-114.8,0-260.3-9.6-323.5-19.1c-162.7-26.8-375.1-135.9-497.6-258.4c-151.2-153.1-218.2-310.1-338.8-800c-93.8-390.5-99.5-419.2-72.7-468.9c57.4-101.4,13.4-99.5,1617.3-99.5c1611.6,0,1563.7-1.9,1615.4,103.4c22.9,47.8,15.3,93.8-84.2,486.1c-59.3,239.2-128.2,480.4-153.1,535.9c-61.3,134-250.7,329.2-392.4,403.9c-155,82.3-329.2,116.8-602.9,116.8h-231.6l-21.1,158.9c-26.8,187.6-99.5,409.6-197.1,606.7c-275.6,543.6-792.4,962.7-1391.5,1123.5l-187.6,51.7l-832.6,3.8C4026,5017.7,3591.5,5011.9,3518.8,5004.3z M7743,2707.5c95.7-34.4,235.4-156.9,281.4-248.8c28.7-55.5,191.4-648.8,191.4-698.6c0-5.7-564.6-9.6-1253.7-9.6c-840.2,0-1253.7,5.7-1253.7,19.1c0,11.5,36.3,162.7,78.5,334.9c88,350.3,135.9,446,267.9,537.8c132.1,91.9,229.7,101.4,955.1,95.7C7499.9,2734.3,7689.4,2726.7,7743,2707.5z M1727.3-4288v-162.7h-650.8H425.8v162.7v162.7h650.7h650.8V-4288z"/><path d="M8897.1,594.5c-168.4-63.2-298.6-229.7-298.6-384.7v-80.4l-128.2-32.5c-359.8-86.1-656.5-348.3-794.3-698.6c-34.4-90-44-158.8-51.7-423l-11.5-315.8l-1043.1-9.6c-838.3-7.7-1052.7-15.3-1091-36.4c-107.2-59.3-210.5-160.8-256.5-254.6l-49.8-99.5v-1226.8v-1228.8l44-40.2c30.6-28.7,72.7-42.1,156.9-45.9l114.8-5.7l9.6-206.7c13.4-292.8-5.7-281.4,482.3-281.4H6363l55.5,55.5c53.6,55.5,55.5,61.2,55.5,248.8v193.3l1058.4-3.8l1056.5-5.7l9.6-206.7c13.4-292.8-5.7-281.4,482.3-281.4h382.8l55.5,55.5c53.6,55.5,55.5,61.2,55.5,248.8v193.3h114.8c97.6,0,124.4,7.7,164.6,47.9l45.9,45.9l-3.8,2247l-5.7,2247l-57.4,93.8c-36.4,57.4-93.8,114.8-151.2,151.2c-93.8,57.4-97.6,57.4-401.9,63.2C9050.2,621.3,8952.6,615.6,8897.1,594.5z M9538.3,276.8c34.5-19.1,36.4-49.8,36.4-823v-803.9h-325.4h-325.4v803.9c0,742.6,1.9,803.9,34.5,821.1C9002.3,301.7,9490.4,301.7,9538.3,276.8z M8590.8-779.7l-1.9-560.8l-321.5-5.7l-323.5-3.8l7.7,312c5.7,308.1,5.7,312,68.9,438.3c67,135.9,181.8,254.6,306.2,313.9c78.5,38.3,237.3,84.2,254.6,72.7C8588.9-217,8592.8-471.6,8590.8-779.7z M9574.6-2814.3v-1138.8H7536.2H5497.9v1098.6v1100.5l49.8,38.3c51.7,40.2,57.4,40.2,2038.4,40.2h1988.6V-2814.3z M6148.6-4374.1v-76.6h-162.7h-162.7v76.6v76.6h162.7h162.7V-4374.1z M9249.3-4374.1v-76.6h-162.7h-162.7v76.6v76.6h162.7h162.7V-4374.1z"/></g></g>
</svg>