<?xml version="1.0" encoding="utf-8"?>
<!-- Svg Vector Icons : http://www.onlinewebfonts.com/icon -->
<!DOCTYPE svg PUBLIC "-//W3C//DTD SVG 1.1//EN" "http://www.w3.org/Graphics/SVG/1.1/DTD/svg11.dtd">
<svg version="1.1" xmlns="http://www.w3.org/2000/svg" xmlns:xlink="http://www.w3.org/1999/xlink" x="0px" y="0px" viewBox="0 0 1000 1000" enable-background="new 0 0 1000 1000" xml:space="preserve">
<metadata> Svg Vector Icons : http://www.onlinewebfonts.com/icon </metadata>
<g><g transform="translate(0.000000,375.000000) scale(0.100000,-0.100000)"><path d="M155.5,2283.5L100,2228v-3238.6v-3236.7l47.9-46c38.3-40.2,65.1-47.9,162.7-47.9h114.8v-193.3c0-187.6,1.9-193.3,55.5-248.8l55.5-55.5h545.5c675.7,0,631.6-19.1,645,281.4l9.6,206.7l2057.6,5.7c1131.2,3.8,2603.1,0,3269.2-7.6l1209.7-11.5v-191.4c0-176.1,3.8-193.3,47.9-235.4l45.9-47.9h547.4h549.3l55.5,55.5c53.6,53.6,55.5,63.1,55.5,237.3v181.8l118.7,7.7c97.6,7.7,124.4,17.2,162.7,61.3l44,51.7v3234.8V2228l-55.5,55.5L9789,2339H5000H211L155.5,2283.5z M6952.3,1927.5v-86.1H3688.9H425.4v86.1v86.1h3263.5h3263.5V1927.5z M9574.6-513v-2526.6H8435.7H7296.9V-513v2526.6h1138.9h1138.9V-513z M6952.3,865.2V214.4h-91.9c-189.5,0-415.4-162.7-509.2-361.8c-38.3-84.2-40.2-116.8-45.9-899.6c-5.7-922.6-3.8-945.5,135.9-1114c105.3-130.2,246.9-208.7,396.2-222.1l114.8-11.5v-570.4v-572.3H3688.9H425.4v2526.6v2526.6h3263.5h3263.5V865.2z M6952.3-1087.2v-976.2h-68.9c-112.9,0-193.3,49.8-227.8,139.7c-26.8,70.8-28.7,185.7-24.9,874.7c5.7,717.8,9.6,798.2,38.3,842.2c47.9,65.1,107.2,93.8,202.9,95.7h80.4V-1087.2z M9574.6-3690.3v-325.4H8435.7H7296.9v325.4v325.4h1138.9h1138.9V-3690.3z M6952.3-3939.1v-76.6H3688.9H425.4v76.6v76.6h3263.5h3263.5V-3939.1z M1401.6-4436.8v-76.6h-325.4H750.8v76.6v76.6h325.4h325.4V-4436.8z M9249.2-4436.8v-76.6h-325.4h-325.4v76.6v76.6h325.4h325.4V-4436.8z"/><path d="M7497.9,1793.5l-47.9-45.9v-710.1v-712l55.5-55.5l55.5-55.5h855.6c895.8,0,941.7,3.8,972.3,86.1c7.7,15.3,13.4,348.4,13.4,738.8l1.9,710.1l-42.1,45.9l-42.1,45.9h-888.1h-888.1L7497.9,1793.5z M9077,1027.9V539.8h-650.8h-650.8v488.1v488.1h650.8H9077V1027.9z"/><path d="M7497.9-160.8c-45.9-49.8-47.9-59.3-47.9-356s1.9-304.3,47.9-350.3c45.9-47.9,51.7-47.9,363.7-47.9c428.8,0,419.2-9.6,407.7,440.2c-5.7,269.9-5.7,271.8-59.3,317.7c-51.7,44-63.2,45.9-359.8,45.9h-306.2L7497.9-160.8z M7947.7-513v-76.6h-86.1h-86.1v76.6v76.6h86.1h86.1V-513z"/><path d="M8646.3-158.9c-45.9-45.9-47.9-53.6-47.9-350.3c0-279.5,3.8-310.1,40.2-356l38.3-49.8h321.6c419.2,0,400-19.1,403.9,363.7c3.8,359.8,7.7,338.8-47.9,392.4c-45.9,45.9-51.7,47.9-354.1,47.9S8692.2-112.9,8646.3-158.9z M9077-513v-76.6h-76.6h-76.6v76.6v76.6h76.6h76.6V-513z"/><path d="M7534.2-1110.2c-70.8-32.5-84.2-97.6-84.2-398.1c0-273.7,1.9-287.1,45.9-338.8c45.9-53.6,47.9-53.6,312-59.3c455.5-11.5,470.9,1.9,461.3,440.2l-5.7,287.1l-53.6,45.9c-51.7,44-63.2,45.9-344.5,44C7704.6-1089.1,7555.3-1098.7,7534.2-1110.2z M7943.8-1493c-5.7-82.3-5.7-82.3-82.3-82.3s-76.6,0-82.3,82.3l-5.7,80.4h88h88L7943.8-1493z"/><path d="M8646.3-1135c-47.9-45.9-47.9-51.7-47.9-359.8c0-312,0-313.9,49.8-359.8c47.9-44,57.4-46,354.1-46c298.6,0,304.3,0,350.3,47.9c45.9,46,47.9,59.3,49.8,325.4c3.8,361.8,7.7,338.8-47.9,392.4c-45.9,45.9-51.7,47.9-354.1,47.9S8692.2-1089.1,8646.3-1135z M9077-1498.7v-86.1h-76.6h-76.6v86.1v86.1h76.6h76.6V-1498.7z"/><path d="M7505.5-2118.9l-55.5-55.5V-2473c0-285.2,1.9-298.6,45.9-350.3c45.9-53.6,47.9-53.6,310.1-59.3c333.1-7.7,380.9,0,430.7,78.5c34.5,55.5,36.4,90,32.5,354.1l-5.7,294.8l-53.6,45.9c-51.7,44-65.1,45.9-350.3,45.9H7561L7505.5-2118.9z M7938.1-2474.9c0-76.6,0-76.6-80.4-82.3l-82.3-5.7v88v88l82.3-5.7C7938.1-2398.3,7938.1-2398.3,7938.1-2474.9z"/><path d="M8684.6-2086.3c-80.4-44-86.1-68.9-86.1-390.4v-310.1l59.3-49.8c57.4-47.9,65.1-49.8,335-49.8c285.2,0,371.3,19.1,396.2,84.2c5.7,15.3,13.4,158.9,15.3,321.6c5.8,317.7-5.7,367.5-89.9,398.1C9247.3-2055.7,8732.4-2059.5,8684.6-2086.3z M9077-2474.9v-86.1h-76.6h-76.6v86.1v86.1h76.6h76.6V-2474.9z"/><path d="M1462.8,828.8c-224-76.6-415.4-266-501.5-493.8C923,231.6,923,199.1,926.9-1037.4l5.7-1265.2l55.5-114.8c109.1-222,336.9-400,576.1-449.8c65.1-13.4,736.9-19.1,2028.9-15.3l1933.2,5.7l130.2,61.3c178,84.2,323.5,227.8,411.5,405.8l70.8,143.6v1253.7V243.1l-45.9,111c-84.2,212.5-277.5,400-488.1,474.7c-103.3,34.5-174.2,36.4-2072.9,36.4C1677.2,863.2,1558.5,861.3,1462.8,828.8z M5622.1,472.8c67-40.2,107.2-86.1,141.7-153.1l49.8-93.8V-991.5c0-974.3-5.7-1230.7-26.8-1288.2c-36.4-107.2-124.4-197.1-227.8-237.4c-84.2-32.5-202.9-34.5-2042.3-34.5H1562.3l-93.8,49.8c-67,34.5-112.9,74.6-153.1,141.6l-57.4,91.9l-5.7,1226.9c-3.8,849.8,0,1249.9,15.3,1299.6c26.8,93.8,124.4,202.9,220.1,245c72.7,34.5,174.2,36.4,2059.5,30.6l1983-3.8L5622.1,472.8z"/><path d="M1497.3,361.8c-26.8-13.4-59.3-47.9-72.7-78.5c-76.6-157,130.2-298.6,254.6-174.2c80.4,78.5,59.3,201-42.1,254.6C1585.3,392.4,1556.6,392.4,1497.3,361.8z"/><path d="M2471.5,357.9c-55.5-30.6-99.5-126.3-80.4-178c24.9-70.8,88-118.7,158.9-118.7c160.8,0,220.1,222,76.6,296.7C2559.6,392.4,2536.6,392.4,2471.5,357.9z"/><path d="M3459.2,365.6c-147.4-84.2-93.8-306.3,70.8-304.3c201,1.9,222,281.4,23,315.8C3522.3,382.8,3480.2,377.1,3459.2,365.6z"/><path d="M4406.6,333.1c-134-135.9,0-329.2,181.8-260.3c36.4,15.3,86.1,105.3,86.1,158.9c0,57.4-78.5,134-147.4,147.4C4475.5,388.6,4456.4,380.9,4406.6,333.1z"/><path d="M5426.8,367.5c-67-26.8-107.2-105.3-93.8-181.8c24.9-124.4,179.9-168.4,269.9-76.6c67,65.1,63.2,149.3-7.7,222C5537.8,388.6,5499.6,396.2,5426.8,367.5z"/><path d="M1947.1-158.9c-90-88-45.9-239.3,80.4-269.9c101.4-26.8,216.3,88,189.5,189.5C2186.3-112.9,2035.1-68.9,1947.1-158.9z"/><path d="M2950-135.9c-40.2-30.6-74.6-97.6-74.6-147.4c0-57.4,101.4-153.1,158.9-153.1c78.5,0,166.5,88,166.5,164.6C3200.8-147.4,3045.7-63.2,2950-135.9z"/><path d="M3899.4-172.3c-61.3-72.7-55.5-155,21.1-220.1c55.5-51.7,103.4-55.5,178-15.3C4242-335,4180.8-111,4016.2-111C3966.4-111,3939.6-124.4,3899.4-172.3z"/><path d="M4908.1-141.6c-67-45.9-84.2-112.9-53.6-189.5c34.5-80.4,91.9-112.9,176.1-95.7c126.3,23,172.3,189.5,74.7,273.7C5045.9-103.4,4969.4-99.5,4908.1-141.6z"/><path d="M1501.1-618.2c-158.9-68.9-105.3-296.7,68.9-296.7c189.5,0,216.3,260.3,32.5,312C1581.5-597.2,1535.5-602.9,1501.1-618.2z"/><path d="M2481.1-616.3c-155-67-99.5-298.6,68.9-298.6c70.8,0,134,47.9,158.9,118.7c21.1,61.2-26.8,151.2-93.8,179.9C2540.4-585.7,2553.8-585.7,2481.1-616.3z"/><path d="M3487.9-602.9c-170.4-63.2-141.6-312,36.4-312c84.2,0,126.3,24.9,155,95.7c32.5,80.4-3.8,168.4-88,202.9c-36.4,15.3-67,26.8-68.9,24.9C3518.5-591.4,3503.2-597.2,3487.9-602.9z"/><path d="M4452.6-608.7c-101.4-40.2-132.1-168.4-63.2-256.5c84.2-107.2,285.2-36.4,285.2,101.4C4674.6-654.6,4548.3-568.5,4452.6-608.7z"/><path d="M5428.8-608.7c-105.3-42.1-134-181.8-55.5-258.4c97.6-99.5,277.5-30.6,277.5,103.4C5650.8-654.6,5524.5-568.5,5428.8-608.7z"/><path d="M1947.1-1135c-99.5-97.6-28.7-277.5,109.1-277.5c72.7,0,168.4,91.9,168.4,162.7c0,30.6-23,72.7-55.5,107.2C2096.4-1071.9,2012.1-1068,1947.1-1135z"/><path d="M2930.9-1142.7c-32.5-34.5-55.5-76.6-55.5-107.2c0-61.3,95.7-162.7,153.1-162.7c151.2,0,227.8,170.4,122.5,275.6C3082.1-1070,3003.6-1071.9,2930.9-1142.7z"/><path d="M3905.2-1144.6c-47.9-49.8-55.5-68.9-45.9-120.6c24.9-134,179.9-191.4,269.9-99.5c99.5,97.6,30.6,277.5-105.3,277.5C3981.7-1087.2,3945.4-1106.3,3905.2-1144.6z"/><path d="M4894.7-1131.2c-109.1-91.9-38.3-281.4,105.3-281.4c30.6,0,78.5,19.1,105.3,44c109.1,91.9,38.3,281.4-105.3,281.4C4969.4-1087.2,4921.5-1106.3,4894.7-1131.2z"/><path d="M1459-1623.1c-84.2-84.2-55.5-225.8,57.4-264.1c158.9-55.5,287.1,147.4,166.5,260.3C1625.5-1571.4,1512.6-1569.5,1459-1623.1z"/><path d="M2440.9-1627c-57.4-65.1-65.1-105.3-36.4-176.1c32.5-80.4,118.7-114.8,204.8-84.2c65.1,23,120.6,122.5,99.5,181.8c-24.9,72.7-88,120.6-158.9,120.6C2502.1-1584.8,2467.7-1598.2,2440.9-1627z"/><path d="M3415.2-1628.9c-82.3-86.1-40.2-225.8,78.5-268c57.4-21.1,157,32.5,183.8,99.5c30.6,68.9,1.9,162.7-57.4,193.3C3556.8-1569.5,3459.2-1581,3415.2-1628.9z"/><path d="M4389.4-1634.6c-53.6-67-51.7-145.5,5.7-210.5c93.8-109.1,279.5-36.4,279.5,109.1C4674.6-1598.2,4473.6-1527.4,4389.4-1634.6z"/><path d="M5373.2-1632.7c-61.3-59.3-61.3-143.6-1.9-212.4c134-158.9,367.5,45.9,239.3,210.5C5557-1565.7,5440.2-1563.8,5373.2-1632.7z"/><path d="M1985.4-2086.3c-145.5-84.2-93.8-304.3,70.8-302.4c70.8,1.9,112.9,26.8,145.5,90c36.4,67,26.8,120.6-32.5,179.9C2109.8-2061.4,2048.5-2050,1985.4-2086.3z"/><path d="M2930.9-2118.9c-59.3-59.3-68.9-112.9-32.5-179.9c78.5-149.3,304.3-99.5,302.4,67c-1.9,70.8-26.8,112.9-90,145.5C3043.8-2050,2990.2-2059.5,2930.9-2118.9z"/><path d="M3920.5-2105.5c-28.7-24.9-55.5-70.8-61.3-105.3c-9.6-51.7-1.9-70.8,45.9-120.6c74.7-72.7,158.9-76.6,224-9.6c78.5,76.6,63.2,201-30.6,248.8C4023.8-2051.9,3976-2055.7,3920.5-2105.5z"/><path d="M4917.7-2084.4c-21.1-11.5-47.9-49.8-63.2-86.1c-30.6-74.7-13.4-141.7,53.6-187.6c160.8-112.9,336.9,109.1,197.1,246.9C5055.5-2059.5,4977-2050,4917.7-2084.4z"/></g></g>
</svg>