<?xml version="1.0" encoding="utf-8"?>
<!-- Svg Vector Icons : http://www.onlinewebfonts.com/icon -->
<!DOCTYPE svg PUBLIC "-//W3C//DTD SVG 1.1//EN" "http://www.w3.org/Graphics/SVG/1.1/DTD/svg11.dtd">
<svg version="1.1" xmlns="http://www.w3.org/2000/svg" xmlns:xlink="http://www.w3.org/1999/xlink" x="0px" y="0px" viewBox="0 0 1000 1000" enable-background="new 0 0 1000 1000" xml:space="preserve">
<metadata> Svg Vector Icons : http://www.onlinewebfonts.com/icon </metadata>
<g><g transform="translate(0.000000,375.000000) scale(0.100000,-0.100000)"><path d="M155.5,2283.5L100,2228v-3238.6v-3236.7l47.9-46c38.3-40.2,65.1-47.9,162.7-47.9h114.8v-193.3c0-187.6,1.9-193.3,55.5-248.8l55.5-55.5h545.5c675.7,0,631.6-19.1,645,281.4l9.6,206.7l1253.7,5.7c689.1,3.8,2161,0,3269.2-7.6l2013.6-11.5v-191.4c0-176.1,3.8-193.3,47.9-235.4l45.9-47.9h547.4h549.3l55.5,55.5c53.6,53.6,55.5,63.1,55.5,237.3v181.8l118.7,7.7c97.6,7.7,124.4,17.2,162.7,61.3l44,51.7v3244.3v3244.3l-47.9,45.9l-45.9,47.9H5009.6H211L155.5,2283.5z M6148.4-1001v-3014.7H3286.9H425.4V-1001v3014.6h2861.5h2861.5V-1001z M6952.3-1001v-3014.7h-239.3h-239.3V-1001v3014.6h239.3h239.3V-1001z M9574.6,1200.1V386.6H8435.7H7296.9v813.5v813.5h1138.9h1138.9V1200.1z M9574.6-1489.1v-1550.4H8435.7H7296.9v1550.4V61.3h1138.9h1138.9V-1489.1z M9574.6-3690.3v-325.4H8435.7H7296.9v325.4v325.4h1138.9h1138.9V-3690.3z M1401.6-4436.8v-76.6h-325.4H750.8v76.6v76.6h325.4h325.4V-4436.8z M9249.2-4436.8v-76.6h-325.4h-325.4v76.6v76.6h325.4h325.4V-4436.8z"/><path d="M639.8,1797.3c-112.9-120.6,11.5-313.9,168.4-258.4c82.3,28.7,124.4,112.9,95.7,199.1c-24.9,76.6-67,103.4-158.9,103.4C702.9,1841.3,666.6,1826,639.8,1797.3z"/><path d="M1614,1791.6c-86.1-109.1-15.3-264.1,120.6-264.1c97.6,0,155,59.3,155,162.7c0,99.5-57.4,151.2-162.7,151.2C1669.5,1841.3,1644.7,1829.8,1614,1791.6z"/><path d="M2597.9,1793.5c-61.3-59.3-61.3-143.6-1.9-212.5c93.8-111,279.5-38.3,279.5,109.1C2875.4,1824.1,2695.5,1893,2597.9,1793.5z"/><path d="M3583.6,1803.1c-82.3-82.3-63.2-204.8,38.3-258.4c155-80.4,298.6,107.2,189.5,246.9C3761.6,1854.7,3642.9,1862.4,3583.6,1803.1z"/><path d="M4573.2,1818.4c-93.8-72.7-68.9-241.2,42.1-279.4c68.9-24.9,145.5-3.8,185.7,49.8c42.1,53.6,32.5,164.6-17.2,210.5C4733.9,1847.1,4624.8,1856.6,4573.2,1818.4z"/><path d="M5539.8,1797.3c-82.3-86.1-40.2-225.9,78.5-268c57.4-21.1,157,32.5,183.8,99.5c30.6,68.9,1.9,162.7-57.4,193.3C5681.4,1856.6,5583.8,1845.2,5539.8,1797.3z"/><path d="M1131.7,1307.3c-68.9-68.9-70.8-134-5.7-210.5c122.5-145.5,333-1.9,264.1,179.9c-15.3,36.4-105.3,86.1-160.8,86.1C1206.3,1362.8,1162.3,1337.9,1131.7,1307.3z"/><path d="M2119.3,1318.8c-158.9-135.9,42.1-371.3,208.6-241.2c38.3,30.6,49.8,55.5,49.8,112.9c0,91.9-47.9,151.2-135.9,164.6C2188.2,1364.7,2163.4,1357.1,2119.3,1318.8z"/><path d="M3130,1343.7c-91.9-36.4-111-181.8-34.4-258.4c97.6-99.5,266.1-26.8,266.1,114.8C3361.6,1320.7,3248.6,1391.5,3130,1343.7z"/><path d="M4110,1339.8c-145.5-84.2-93.8-304.3,70.8-302.4c70.8,1.9,112.9,26.8,145.5,90c36.4,67,26.8,120.6-32.5,179.9C4234.4,1364.7,4173.1,1376.2,4110,1339.8z"/><path d="M5055.5,1307.3c-70.8-70.8-72.7-149.3-7.7-220.1c95.7-103.4,277.5-36.4,277.5,103.4c0,76.6-90,172.3-162.7,172.3C5132.1,1362.8,5090,1339.8,5055.5,1307.3z"/><path d="M647.4,825c-38.3-30.6-49.8-55.5-49.8-114.8c0-174.2,216.3-229.7,296.7-74.6S787.1,934.1,647.4,825z"/><path d="M1621.7,817.3c-70.8-68.9-65.1-164.6,13.4-229.7c72.7-61.3,155-55.5,222,21.1c49.8,55.5,53.6,103.4,13.4,178C1822.7,880.5,1698.2,895.8,1621.7,817.3z"/><path d="M2597.9,817.3c-61.3-59.3-61.3-143.6-1.9-212.5c93.8-111,279.5-38.3,279.5,109.1C2875.4,847.9,2695.5,916.8,2597.9,817.3z"/><path d="M3606.6,851.8c-30.6-11.5-80.4-107.2-80.4-156.9c0-55.5,76.6-134,145.5-147.4c84.2-15.3,179.9,67,179.9,157C3851.6,823,3725.2,899.6,3606.6,851.8z"/><path d="M4565.5,823c-57.4-65.1-68.9-120.6-36.4-183.7c40.2-78.5,126.3-111,202.9-80.4c70.8,28.7,95.7,70.8,95.7,158.9C4827.7,849.9,4653.6,918.8,4565.5,823z"/><path d="M5547.4,825c-38.3-30.6-49.8-55.5-49.8-114.8c0-174.2,216.3-229.7,296.7-74.6S5687.2,934.1,5547.4,825z"/><path d="M1171.9,361.8c-151.2-76.6-101.4-300.5,67-300.5c153.1,0,220.1,178,103.4,275.6C1277.1,392.4,1242.7,398.1,1171.9,361.8z"/><path d="M2153.8,367.5c-55.5-23-107.2-124.4-90-178c23-78.5,86.1-128.2,160.8-128.2c88,0,153.1,63.2,153.1,147.4c0,86.1-17.2,118.7-78.5,149.3C2238,390.5,2215,392.4,2153.8,367.5z"/><path d="M3133.8,363.7c-61.3-32.5-86.1-74.6-86.1-151.2c0-55.5,11.5-80.4,49.8-111c139.7-109.1,327.3,34.5,246.9,189.5C3300.3,375.2,3210.4,405.8,3133.8,363.7z"/><path d="M4085.1,338.8c-147.4-124.4-5.7-335,178-266.1c36.4,15.3,86.1,105.3,86.1,158.9c0,55.5-76.6,134-145.5,147.4C4157.8,386.6,4132.9,379,4085.1,338.8z"/><path d="M5103.4,367.5c-162.7-65.1-116.8-306.3,59.3-306.3c151.2,0,214.4,160.8,107.2,269.9C5212.5,388.6,5174.2,396.2,5103.4,367.5z"/><path d="M647.4-151.2c-61.3-47.9-68.9-162.7-15.3-225.9c90-112.9,279.5-42.1,279.5,103.4C911.6-135.9,756.5-65.1,647.4-151.2z"/><path d="M1621.7-158.9c-90-88-45.9-239.3,80.4-269.9c101.4-26.8,216.3,88,189.5,189.5C1860.9-112.9,1709.7-68.9,1621.7-158.9z"/><path d="M2597.9-160.8c-65.1-70.8-63.2-149.3,7.7-220.1c72.7-72.7,141.6-72.7,214.4,0c70.8,72.7,74.6,157,7.7,222C2762.5-91.9,2659.1-93.8,2597.9-160.8z"/><path d="M3575.9-170.3c-65.1-76.6-63.2-141.6,5.7-210.5c63.2-61.2,111-68.9,191.4-26.8c143.6,72.7,82.3,296.7-82.3,296.7C3641-111,3614.2-124.4,3575.9-170.3z"/><path d="M4567.4-156.9c-120.6-101.5-30.6-296.7,124.4-271.8c88,13.4,135.9,72.7,135.9,164.6C4827.7-126.3,4674.6-63.2,4567.4-156.9z"/><path d="M5545.5-158.9c-95.7-93.8-45.9-248.8,88-269.9c155-24.9,245,170.3,124.4,271.8C5689.1-97.6,5604.8-97.6,5545.5-158.9z"/><path d="M1158.5-625.9c-74.6-45.9-95.7-130.2-55.5-208.6c32.5-65.1,65.1-80.4,155-80.4c126.3,0,193.3,176.1,101.4,264.1C1294.4-591.4,1229.3-583.8,1158.5-625.9z"/><path d="M2155.7-616.3c-105.3-45.9-122.5-202.9-30.6-271.8c53.6-42.1,164.6-32.5,210.5,17.2c55.5,57.4,55.5,164.6,3.8,220.1c-23,23-47.9,42.1-57.4,42.1c-7.7,0-26.8,3.8-42.1,9.6C2226.5-595.3,2188.2-602.9,2155.7-616.3z"/><path d="M3162.5-602.9c-170.4-63.2-141.6-312,36.4-312c88,0,130.2,28.7,155,103.4c28.7,88-13.4,170.3-97.6,201c-34.5,11.5-61.2,21.1-63.2,19.1C3191.2-591.4,3177.8-597.2,3162.5-602.9z"/><path d="M4127.2-608.7c-158.9-65.1-120.6-306.3,49.8-306.3c91.9,0,151.2,47.9,164.6,135.9C4360.7-662.3,4234.4-562.7,4127.2-608.7z"/><path d="M5103.4-608.7c-105.3-42.1-134-181.8-55.5-258.4c97.6-99.5,277.5-30.6,277.5,103.4C5325.4-654.6,5199.1-568.5,5103.4-608.7z"/><path d="M645.5-1135c-65.1-63.2-65.1-166.5,0-229.7c97.6-99.5,266.1-26.8,266.1,114.8C911.6-1108.2,743.1-1035.5,645.5-1135z"/><path d="M1621.7-1135c-99.5-97.6-30.6-277.5,105.3-277.5c76.6,0,172.3,90,172.3,162.7c0,30.6-23,72.7-55.5,107.2C1771-1071.9,1686.8-1068,1621.7-1135z"/><path d="M2634.2-1110.2c-42.1-19.1-84.2-90-84.2-139.7c0-145.5,185.7-210.6,287.1-101.4C2955.8-1223.1,2795-1031.7,2634.2-1110.2z"/><path d="M3581.7-1142.7c-32.5-34.5-55.5-76.6-55.5-107.2c0-72.7,95.7-162.7,172.3-162.7c84.2,0,153.1,74.7,153.1,162.7C3851.6-1098.7,3690.8-1035.5,3581.7-1142.7z"/><path d="M4567.4-1133.1c-111-93.8-38.3-279.5,109.1-279.5c82.3,0,151.2,74.7,151.2,162.7C4827.7-1108.2,4674.6-1039.3,4567.4-1133.1z"/><path d="M5545.5-1135c-99.5-97.6-30.6-277.5,103.4-277.5c88,0,162.7,74.7,162.7,162.7C5811.6-1108.2,5643.1-1035.5,5545.5-1135z"/><path d="M1139.3-1613.6c-90-63.2-70.8-214.4,32.5-268c155-80.4,298.6,107.2,189.5,246.9C1315.4-1577.2,1208.2-1565.7,1139.3-1613.6z"/><path d="M2123.2-1607.8c-93.8-72.7-68.9-241.2,42.1-279.4c68.9-24.9,107.2-15.3,170.3,40.2c59.3,53.6,57.4,164.6-1.9,220.1C2283.9-1579.1,2174.8-1569.5,2123.2-1607.8z"/><path d="M3089.8-1628.9c-82.3-86.1-40.2-225.8,78.5-268c57.4-21.1,157,32.5,183.8,99.5c30.6,68.9,1.9,162.7-57.4,193.3C3231.4-1569.5,3133.8-1581,3089.8-1628.9z"/><path d="M4064-1634.6c-47.9-61.3-51.7-135.9-9.6-195.2c101.4-145.5,323.5-40.2,285.2,134C4312.9-1581,4136.8-1540.8,4064-1634.6z"/><path d="M5047.9-1632.7c-99.5-97.6-26.8-266.1,114.8-266.1c55.5,0,82.3,13.4,116.7,53.6c93.8,107.2,24.9,260.3-116.7,260.3C5114.8-1584.8,5078.5-1600.1,5047.9-1632.7z"/><path d="M680-2082.5c-91.9-36.4-111-181.8-34.4-258.4c97.6-99.5,266.1-26.8,266.1,114.8C911.6-2105.5,798.6-2034.6,680-2082.5z"/><path d="M1660-2086.3c-147.4-84.2-93.8-302.4,74.6-302.4c49.8,0,76.6,13.4,114.8,59.3c65.1,76.6,63.2,141.6-5.7,210.5C1784.4-2061.4,1723.1-2050,1660-2086.3z"/><path d="M2605.5-2118.9c-70.8-70.8-72.7-149.3-7.7-220.1c95.7-103.3,277.5-36.4,277.5,103.4c0,76.6-90,172.3-162.7,172.3C2682.1-2063.4,2640-2086.3,2605.5-2118.9z"/><path d="M3581.7-2118.9c-68.9-68.9-70.8-134-5.7-210.5c122.5-145.5,333-1.9,264.1,179.9c-15.3,36.4-105.3,86.1-160.8,86.1C3656.3-2063.4,3612.3-2088.2,3581.7-2118.9z"/><path d="M4569.3-2107.4c-158.9-135.9,42.1-371.3,208.6-241.2c38.3,30.6,49.8,55.5,49.8,112.9c0,91.9-47.9,151.2-135.9,164.6C4638.2-2061.4,4613.4-2069.1,4569.3-2107.4z"/><path d="M5580-2082.5c-91.9-36.4-111-181.8-34.5-258.4c97.6-99.5,266.1-26.8,266.1,114.8C5811.6-2105.5,5698.6-2034.6,5580-2082.5z"/><path d="M1156.6-2574.4c-30.6-11.5-80.4-107.2-80.4-157c0-55.5,76.6-134,145.5-147.4c84.2-15.3,179.9,67,179.9,156.9C1401.6-2603.1,1275.2-2526.6,1156.6-2574.4z"/><path d="M2115.5-2603.1c-57.4-65.1-68.9-120.6-36.4-183.8c40.2-78.5,126.3-111,202.9-80.4c70.8,28.7,95.7,70.8,95.7,158.9C2377.7-2576.3,2203.6-2507.4,2115.5-2603.1z"/><path d="M3089.8-2605c-26.8-28.7-42.1-68.9-42.1-114.9c0-170.4,218.2-222,296.7-70.8C3426.6-2633.7,3210.4-2476.8,3089.8-2605z"/><path d="M4071.7-2608.9c-70.8-68.9-65.1-164.6,13.4-229.7c72.7-61.3,155-55.5,222,21.1c49.8,55.5,53.6,103.4,13.4,178C4272.7-2545.7,4148.2-2530.4,4071.7-2608.9z"/><path d="M5047.9-2608.9c-61.3-59.3-61.3-143.6-1.9-212.4c63.2-74.7,170.3-74.7,233.5,0c93.8,107.2,24.9,260.3-116.7,260.3C5114.8-2561,5078.5-2576.3,5047.9-2608.9z"/><path d="M683.8-3062.5c-61.3-32.5-86.1-74.6-86.1-151.2c0-55.5,11.5-80.4,49.8-111c139.7-109.1,327.3,34.5,246.9,189.5C850.3-3051,760.4-3020.4,683.8-3062.5z"/><path d="M1635.1-3087.4c-147.4-124.4-5.7-335,178-266.1c36.4,15.3,86.1,105.3,86.1,158.9c0,55.5-76.6,134-145.5,147.4C1707.8-3039.5,1682.9-3047.2,1635.1-3087.4z"/><path d="M2605.5-3095c-107.2-109.1-44-269.9,107.2-269.9s214.4,160.8,107.2,269.9C2747.1-3022.3,2678.2-3022.3,2605.5-3095z"/><path d="M3621.9-3064.4c-151.2-76.6-101.4-300.5,67-300.5c172.3,0,225.9,222,72.7,302.4C3709.9-3033.8,3681.2-3033.8,3621.9-3064.4z"/><path d="M4603.8-3058.7c-55.5-23-107.2-124.4-90-178c23-78.5,86.1-128.2,160.8-128.2c88,0,153.1,63.2,153.1,147.4c0,86.1-17.2,118.7-78.5,149.3C4688-3035.7,4665-3033.8,4603.8-3058.7z"/><path d="M5583.8-3062.5c-61.3-32.5-86.1-74.6-86.1-151.2c0-55.5,11.5-80.4,49.8-111c139.7-109.1,327.3,34.5,246.9,189.5C5750.3-3051,5660.4-3020.4,5583.8-3062.5z"/><path d="M1125.9-3596.5c-65.1-76.6-63.2-141.7,5.7-210.5c59.3-59.4,112.9-68.9,179.9-32.6c151.2,80.4,99.5,302.4-70.8,302.4C1191-3537.2,1164.2-3550.6,1125.9-3596.5z"/><path d="M2117.4-3583.1c-40.2-34.5-53.6-61.2-53.6-114.8c0-97.6,59.3-155,162.7-155c99.5,0,151.2,57.4,151.2,162.7C2377.7-3552.5,2224.6-3489.3,2117.4-3583.1z"/><path d="M3097.4-3577.4c-36.4-28.7-49.8-57.4-49.8-103.4c0-90,15.3-122.5,78.5-153.1c74.6-40.2,122.5-36.4,181.8,17.2C3466.8-3682.6,3262-3449.1,3097.4-3577.4z"/><path d="M4071.7-3585c-90-88-45.9-239.3,80.4-269.9c101.4-26.8,216.3,88,189.5,189.5C4310.9-3539.1,4159.7-3495.1,4071.7-3585z"/><path d="M5047.9-3585c-67-65.1-63.2-149.3,7.7-222c34.4-32.6,76.6-55.5,107.2-55.5c72.7,0,162.7,95.7,162.7,172.3c0,84.2-74.7,153.1-162.7,153.1C5114.8-3537.2,5078.5-3552.5,5047.9-3585z"/><path d="M7497.9,1640.4c-32.5-30.6-47.9-67-47.9-114.8s15.3-84.2,47.9-114.8l45.9-47.9h888.1H9320l44,47.9c65.1,70.8,63.2,172.3-7.7,231.6l-51.7,45.9h-880.5h-880.5L7497.9,1640.4z"/><path d="M7499.8,989.6c-67-61.3-68.9-164.6-1.9-229.7l45.9-47.9h888.1H9320l44,47.9c65.1,70.8,63.2,172.3-7.7,231.6l-51.7,45.9h-876.7h-876.6L7499.8,989.6z"/><path d="M8158.2-809.6c-141.7-40.2-193.3-65.1-315.8-151.2c-357.9-256.5-482.3-805.8-277.5-1228.8c229.7-472.8,842.2-652.7,1347.5-396.2c145.5,72.7,306.3,246.9,384.7,411.5c264.1,558.9-21,1215.4-593.4,1364.7C8567.8-775.2,8278.8-775.2,8158.2-809.6z M8673.1-1127.4l82.3-36.4l-68.9-76.6c-103.3-114.8-93.8-241.2,23-304.3c63.2-34.5,135.9-11.5,218.2,68.9l72.7,70.8l42.1-95.7c32.5-70.8,44-130.2,44-237.4c0-124.4-7.7-160.8-61.3-269.9c-164.6-335-545.5-484.3-853.7-335c-275.6,132.1-446,434.5-396.2,700.5c34.5,181.8,176.1,377.1,348.4,484.3C8271.1-1066.1,8504.6-1052.7,8673.1-1127.4z"/></g></g>
</svg>