<?xml version="1.0" encoding="utf-8"?>
<!-- Svg Vector Icons : http://www.onlinewebfonts.com/icon -->
<!DOCTYPE svg PUBLIC "-//W3C//DTD SVG 1.1//EN" "http://www.w3.org/Graphics/SVG/1.1/DTD/svg11.dtd">
<svg version="1.1" xmlns="http://www.w3.org/2000/svg" xmlns:xlink="http://www.w3.org/1999/xlink" x="0px" y="0px" viewBox="0 0 1000 1000" enable-background="new 0 0 1000 1000" xml:space="preserve">
<metadata> Svg Vector Icons : http://www.onlinewebfonts.com/icon </metadata>
<g><g transform="translate(0.000000,512.000000) scale(0.100000,-0.100000)"><path d="M7909.6,4972.1c-63.2-61.3-65.2-166.7-3.8-228.1c32.6-32.6,74.7-46,162.9-55.6c187.8-19.2,312.4-99.7,392.9-253c30.7-59.4,40.3-113.1,40.3-230c1.9-134.2-5.8-164.8-53.7-253c-59.4-107.3-155.2-185.9-262.5-216.6c-97.8-28.7-170.6-24.9-170.6,9.6c0,17.2-21.1,51.7-47.9,76.7c-44.1,44.1-59.4,47.9-253,47.9c-502.1,0-1059.8,69-1563.8,193.6c-475.3,116.9-605.6,132.2-1195.8,132.2h-519.3l-7.7,203.1c-5.8,195.5-7.7,205-59.4,249.1c-51.7,44.1-65.2,46-350.7,46h-299l-55.6-55.6c-53.7-55.6-55.6-61.3-55.6-251.1V4194l-80.5,5.8l-82.4,5.7l-1.9,162.9c-3.8,233.8-3.8,228.1-55.6,277.9c-44.1,46-53.7,47.9-335.4,47.9c-300.9,0-383.3-17.2-410.1-86.2c-5.8-17.2-11.5-116.9-11.5-218.5v-187.8l-159.1-32.6c-613.3-132.2-1094.3-592.2-1272.5-1218.8c-30.7-113.1-34.5-210.8-34.5-1082.8V909.3l51.7-95.8c69-132.2,195.5-254.9,322-314.3c92-42.2,136.1-49.8,350.7-55.6l243.4-7.7V167.6v-268.3l55.6-55.6l55.6-55.6H2513h270.2v-695.7v-693.7l-274-277.9c-592.2-599.8-858.6-1100-862.4-1619.4c-1.9-281.7,63.2-482.9,235.7-739.7c433.1-638.2,1439.2-730.2,1985.4-182.1c415.8,417.8,502.1,958.2,245.3,1554.2c-138,323.9-446.5,737.8-799.1,1078.9l-185.9,178.2v697.6v699.5h266.4c254.9,0,270.2,1.9,322,46c53.7,46,53.7,46,59.4,325.8l7.7,279.8l2042.9,3.8l2044.8,5.7l90.1,44.1c143.7,70.9,256.8,184,323.9,322l61.3,122.6l-11.5,283.6c-13.4,322-57.5,557.7-159,850.9c-115,329.6-289.4,653.5-494.5,921.8l-53.7,70.9h151.4c195.5,0,230,30.7,239.6,201.2l5.7,115l105.4,15.3c410.1,57.5,739.7,465.7,703.3,870.1c-38.3,398.6-414,749.3-804.9,753.1C7976.7,5020,7942.2,5006.6,7909.6,4972.1z M3109,4291.8v-76.7h-76.7h-76.7v76.7v76.7h76.7h76.7V4291.8z M4101.7,4287.9l5.8-72.8h-86.2h-88.2v78.6v76.7l82.4-5.8C4094.1,4358.8,4096,4356.9,4101.7,4287.9z M5619.5,3843.3c90.1-15.3,287.5-57.5,440.8-93.9C6549,3630.6,6918.9,3575,7407.6,3552l281.7-13.4v-70.9c0-70.9-1.9-72.8-84.3-84.3c-107.3-17.2-235.7-109.2-272.1-193.6c-55.6-134.2-26.8-243.4,105.4-419.7c369.9-488.7,576.8-1071.3,576.8-1627c0-214.6-32.6-291.3-141.8-341.1c-74.7-34.5-201.2-36.4-3125.7-36.4c-2863.1,0-3050.9,1.9-3112.3,34.5c-36.4,17.3-84.3,57.5-105.4,86.2c-40.3,53.7-40.3,74.7-40.3,977.4c0,1021.5,0,1021.5,124.6,1287.8c161,345,446.5,580.7,829.8,680.3c128.4,34.5,231.9,36.4,1575.3,36.4C5163.4,3870.2,5489.2,3864.4,5619.5,3843.3z M3434.8,276.9V114h-488.7h-488.7v162.9v162.9h488.7h488.7V276.9z M3032.4-2367.8c145.7-458,249.1-1006.1,249.1-1314.6c0-256.8-103.5-611.4-210.8-726.3c-105.4-113.1-226.1-61.3-314.3,132.2c-164.8,367.9-168.7,812.5-9.6,1460.3c74.7,312.4,191.6,674.6,208.9,655.4C2965.3-2168.5,2997.9-2262.4,3032.4-2367.8z M2449.8-2664.8c-116.9-465.7-153.3-741.7-139.9-1069.4c5.8-185.9,21.1-302.8,49.8-404.4c23-76.7,36.4-145.6,30.7-151.4c-5.8-5.7-65.2,44.1-130.3,113.1c-410.1,429.3-369.9,1011.9,115,1661.5c80.5,107.3,149.5,193.6,151.4,189.7C2530.3-2329.5,2495.8-2480.9,2449.8-2664.8z M3609.2-2626.5c264.5-394.8,367.9-774.2,297.1-1080.9c-51.7-218.5-201.2-456.1-356.5-567.3l-53.7-38.3l36.4,118.8c65.2,210.8,86.2,479.1,59.4,766.6c-23,245.3-113.1,703.3-193.6,983.1l-38.3,134.2l76.7-86.2C3478.9-2444.4,3555.6-2547.9,3609.2-2626.5z"/><path d="M2400,3502.2c-149.5-57.5-323.9-235.7-381.4-389c-113.1-300.9,21.1-630.5,327.7-797.2l120.7-65.2l2202-5.7l2202-3.8l82.4,40.2c149.5,70.9,212.7,205.1,172.5,364.1c-32.6,124.6-74.7,168.6-327.7,333.5c-390.9,256.8-753.1,412-1188.2,509.8c-187.8,42.2-216.6,44.1-1648.1,49.8C2514.9,3542.4,2505.4,3542.4,2400,3502.2z M5571.6,3166.8c369.9-84.3,668.8-216.5,1034.9-454.2l208.9-136.1l-2133-5.7c-2067.8-3.8-2134.9-1.9-2215.4,32.6c-107.3,47.9-162.9,149.5-162.9,293.2c0,130.3,47.9,222.3,145.6,279.8l74.7,42.2l1437.3-5.8C5335.9,3207.1,5406.8,3205.2,5571.6,3166.8z"/><path d="M4862.5,1744.8c-88.2-36.4-115-93.9-122.6-262.5c-7.7-205.1,7.7-287.5,65.2-345c65.2-65.2,151.4-61.3,222.3,9.6c55.6,55.6,55.6,59.4,55.6,270.2c0,116.9-9.6,230-21.1,253c-15.4,28.7-130.3,95.8-155.2,90.1C4902.8,1760.2,4883.6,1752.5,4862.5,1744.8z"/><path d="M5523.7,1748.7c-15.3-5.7-47.9-28.7-70.9-49.8c-42.2-36.4-44.1-55.6-44.1-276c0-226.1,1.9-239.6,47.9-283.6c65.2-67.1,149.5-63.2,222.3,7.7c55.6,55.6,55.6,59.4,55.6,277.9c0,201.2-3.8,224.2-42.2,268.3C5646.4,1742.9,5573.5,1767.8,5523.7,1748.7z"/><path d="M6163.8,1742.9c-86.2-34.5-103.5-90.1-103.5-322c0-118.8,7.7-231.9,19.2-251c24.9-47.9,122.7-86.2,182.1-70.9c24.9,5.8,65.2,30.7,86.2,53.7c34.5,36.4,38.3,67.1,38.3,266.4c0,207-3.8,230-42.2,274C6294.1,1748.7,6223.2,1767.8,6163.8,1742.9z"/><path d="M6815.4,1742.9c-86.3-34.5-103.5-90.1-103.5-325.8c1.9-230,11.5-260.6,90.1-302.8c65.1-36.4,130.3-26.8,185.9,24.9c47.9,44.1,49.8,51.7,49.8,283.6c0,220.4-3.8,239.6-42.1,277.9C6941.9,1748.7,6869,1765.9,6815.4,1742.9z"/></g></g>
</svg>