<?xml version="1.0" encoding="utf-8"?>
<!-- Svg Vector Icons : http://www.onlinewebfonts.com/icon -->
<!DOCTYPE svg PUBLIC "-//W3C//DTD SVG 1.1//EN" "http://www.w3.org/Graphics/SVG/1.1/DTD/svg11.dtd">
<svg version="1.1" xmlns="http://www.w3.org/2000/svg" xmlns:xlink="http://www.w3.org/1999/xlink" x="0px" y="0px" viewBox="0 0 1000 1000" enable-background="new 0 0 1000 1000" xml:space="preserve">
<metadata> Svg Vector Icons : http://www.onlinewebfonts.com/icon </metadata>
<g><g transform="translate(0.000000,512.000000) scale(0.100000,-0.100000)"><path d="M3793.8,4987.7c-63.2-17.2-162.8-57.4-220.2-88.1c-130.2-70.9-321.7-256.6-394.4-383l-55.5-95.7h-220.2c-206.8,0-227.9-3.8-348.5-61.3c-170.4-80.4-289.1-193.4-365.7-348.5c-51.7-107.2-61.3-145.5-61.3-270c0-118.7,9.6-162.8,53.6-250.8c84.3-174.2,277.6-350.4,536.1-488.3l111.1-59.4l-913.3-9.6l-915.2-11.5l-53.6-59.4c-72.8-80.4-70.8-158.9,1.9-233.6c55.5-53.6,61.3-55.5,258.5-55.5h203V-408.1c0-1822.8,7.7-3027.2,19.1-3096.2c57.4-348.5,384.9-687.4,706.5-731.4c164.7-21.1,155.1-5.8,155.1-229.8c0-197.2,1.9-203,55.5-258.5c76.6-74.7,157-74.7,233.6,0c53.6,55.5,55.5,61.3,55.5,258.5v202.9h2364.7h2364.7v-208.7v-208.7l59.3-49.8c78.5-67,158.9-65.1,229.8,5.8c53.6,55.5,55.5,61.3,55.5,258.5c0,195.3,1.9,202.9,44,210.6c212.6,40.2,271.9,59.3,377.2,122.5c137.9,82.3,273.8,222.1,350.4,363.8c113,206.8,109.1,88.1,109.1,3350.8v2990.9h203c197.2,0,203,1.9,258.5,55.5c72.8,74.7,74.7,153.2,0,235.5l-53.6,61.3l-1171.8,7.7l-1169.9,9.6l155.1,88.1c304.5,170.4,509.3,413.6,543.8,647.2c11.5,74.7-15.3,225.9-65.1,354.2l-19.2,51.7l-130.2-38.3c-70.8-19.2-132.1-36.4-134-36.4c-1.9,0-9.6,28.7-15.3,63.2c-24.9,113-122.5,277.6-222.1,375.3c-185.7,183.8-428.9,260.4-651,208.7c-67-17.2-149.4-42.1-183.8-55.5c-57.4-23-63.2-21.1-166.6,72.8c-271.9,248.9-607,298.7-942.1,141.7l-126.4-59.4l-72.8,57.4C4393.1,4999.2,4067.6,5066.2,3793.8,4987.7z M4293.6,4627.7c109.1-36.4,250.8-172.3,312.1-298.7c47.9-99.6,82.3-287.2,67-352.3c-11.5-42.1-19.2-46-91.9-34.5c-434.7,68.9-1122.1,289.1-1122.1,360c0,57.4,164.7,247,258.5,296.8C3872.3,4681.3,4102.1,4692.8,4293.6,4627.7z M5440.5,4509c170.4-74.7,277.6-264.2,277.6-486.3c0-65.1-7.6-130.2-17.2-145.5c-15.3-23-70.8-23-338.9-9.6l-323.6,17.2l-11.5,181.9c-9.6,114.9-28.7,224-55.5,293c-49.8,130.2-44,141.7,90,178.1C5170.5,4568.4,5331.4,4556.9,5440.5,4509z M6455.3,4277.3c44-21.1,97.7-63.2,118.7-91.9c51.7-70.8,93.8-210.6,70.8-233.6c-13.4-13.4-469.1-76.6-553.4-76.6c-11.5,0-19.2,59.4-19.2,137.9c0,76.6-5.7,166.6-13.4,199.1c-11.5,49.8-5.7,63.2,28.7,80.4C6162.4,4329,6367.3,4319.4,6455.3,4277.3z M3238.5,3993.9c704.6-358.1,1686.9-532.3,2692.1-480.6c381,19.2,846.3,76.6,1018.6,124.5c107.2,32.5-67-189.6-241.3-300.6c-224-145.5-557.2-256.6-1009.1-337c-241.3-42.1-346.6-49.8-819.5-57.4c-742.9-13.4-1166.1,34.5-1646.7,187.7c-497.8,158.9-806.1,423.2-762.1,654.8c19.1,99.6,114.9,214.5,227.9,271.9c86.2,44,116.8,49.8,224,42.1C3024.1,4091.6,3081.5,4072.4,3238.5,3993.9z M8226.5-475.1c0-3027.2-1.9-3050.2-40.2-3136.4c-47.9-105.3-118.7-181.9-218.3-235.5l-76.6-42.1H5000.1H2108.8l-76.6,42.1c-99.6,53.6-170.4,130.2-218.3,235.5c-38.3,86.2-40.2,109.1-40.2,3136.4v3048.3h3226.4h3226.4V-475.1z"/><path d="M2290.7,821.2V-222.4h2709.4h2709.4V821.2v1043.5H5000.1H2290.7V821.2z M7364.8,821.2V122.3H5000.1H2635.4v698.9v698.9h2364.7h2364.7V821.2z"/><path d="M4330,985.8c-118.7-49.8-151.3-195.3-61.3-285.3l51.7-51.7h679.7h679.7l49.8,49.8c74.7,76.6,72.8,178.1-7.7,248.9l-61.3,55.5l-647.2-1.9C4659.3,1001.1,4351,993.5,4330,985.8z"/><path d="M2290.7-2156.3v-1053.1h2709.4h2709.4v1053.1v1053.1H5000.1H2290.7V-2156.3z M7361-2150.6l3.8-695H5000.1H2635.4v685.5c0,377.2,5.7,693.2,13.4,698.9c5.7,7.7,1068.4,11.5,2359,9.6l2347.5-5.8L7361-2150.6z"/><path d="M4295.5-2005c-103.4-59.4-99.6-241.3,7.7-294.9c80.4-42.1,1313.5-42.1,1393.9,0c107.2,55.5,111,239.3,5.7,294.9C5649.2-1976.3,4343.4-1976.3,4295.5-2005z"/></g></g>
</svg>