<?xml version="1.0" encoding="utf-8"?>
<!-- Svg Vector Icons : http://www.onlinewebfonts.com/icon -->
<!DOCTYPE svg PUBLIC "-//W3C//DTD SVG 1.1//EN" "http://www.w3.org/Graphics/SVG/1.1/DTD/svg11.dtd">
<svg version="1.1" xmlns="http://www.w3.org/2000/svg" xmlns:xlink="http://www.w3.org/1999/xlink" x="0px" y="0px" viewBox="0 0 1000 1000" enable-background="new 0 0 1000 1000" xml:space="preserve">
<metadata> Svg Vector Icons : http://www.onlinewebfonts.com/icon </metadata>
<g><g transform="translate(0.000000,460.000000) scale(0.100000,-0.100000)"><path d="M412.4,3962.7c-229.9-107.3-362.1-356.3-295-559.4c59.4-180.1,203.1-314.2,379.3-356.3l99.6-24.9V472.5c0-1404.1,5.7-2565,11.5-2582.2c26.8-72.8,107.3-88.1,438.7-88.1c174.3,0,316.1-3.8,316.1-5.7c0-3.8-42.1-76.6-91.9-160.9c-185.8-308.4-249-637.9-187.7-965.4c38.3-206.9,40.2-446.3,1.9-555.5c-23-67.1-91.9-145.6-344.8-390.8c-354.4-342.9-365.9-363.9-256.7-473.1l57.5-59.4l281.6,11.5c191.6,7.7,329.5,23,434.8,49.8c500,130.3,810.3,461.6,919.5,980.8c17.2,78.5,38.3,279.7,47.9,448.2c9.6,168.6,30.7,358.2,47.9,421.4c65.1,245.2,214.6,488.5,385,626.4l88.1,72.8h2256.5h2256.5l88.1-70.9c174.3-141.7,318-381.2,385-639.8c17.2-67,40.2-256.7,47.9-419.5c32.6-568.9,145.6-875.4,415.7-1130.2c233.7-220.3,530.6-321.8,986.5-339.1l281.6-11.5l57.5,59.4c109.2,109.2,97.7,130.3-256.7,473.1c-252.9,245.2-321.8,323.8-344.8,390.8c-36.4,107.3-36.4,352.4,0,544c15.3,82.4,28.7,201.1,28.7,262.4c0,233.7-92,528.7-235.6,752.8c-38.3,59.4-70.9,114.9-70.9,118.8c0,5.7,141.8,9.6,316.1,9.6c331.4,0,411.9,15.3,438.7,88.1c5.7,17.2,11.5,1178.1,11.5,2582.2v2549.6l99.6,24.9c304.6,70.9,477,396.5,350.5,660.9c-42.1,90-160.9,208.8-254.8,254.8c-69,34.5-228,36.4-4582.1,40.2l-4511.2,5.7L412.4,3962.7z M9532.5,3635.2c65.1-63.2,65.1-166.7,0-229.9l-46-47.9H5002.2H517.8l-46,47.9c-65.1,63.2-65.1,166.7,0,229.9l46,47.9h4484.4h4484.4L9532.5,3635.2z M9082.3,1892V752.2H5002.2H922V1892v1139.8h4080.2h4080.2V1892z M9082.3-730.4v-1135.9H5002.2H922v1135.9V407.4h4080.2h4080.2V-730.4z M2186.3-2310.8c-189.6-277.8-262.4-528.7-287.3-990.4c-21.1-387-55.5-563.2-149.4-741.3c-105.4-203.1-260.5-316.1-530.6-387c-191.6-49.8-203-42.1-95.8,67.1l93.9,95.8l-53.6,55.5c-47.9,49.8-51.7,63.2-36.4,128.3c19.2,86.2,42.1,97.7,101.5,49.8c30.7-24.9,46-57.5,46-107.3c1.9-68.9,1.9-68.9,34.5-30.6c114.9,141.8,162.8,528.7,103.4,844.7c-38.3,205-38.3,341-1.9,484.7c40.2,155.2,162.8,381.2,283.5,522.9l99.6,120.7h235.6h233.7L2186.3-2310.8z M8312.3-2318.4c136-160.9,266.3-425.3,295-601.5c19.2-113,17.2-170.5-5.7-316.1c-13.4-97.7-26.8-289.2-24.9-427.2c0-337.1,32.6-419.5,243.3-636c162.8-166.7,162.8-174.3-9.6-137.9c-264.3,55.6-477,214.6-578.5,427.2c-76.6,160.9-105.4,323.7-126.4,701.1c-24.9,469.3-93.9,712.6-285.4,994.2l-80.4,116.8h235.6h235.6L8312.3-2318.4z"/><path d="M1626.9,2832.5c-46-34.5-74.7-116.9-61.3-182c7.7-30.7,1.9-88.1-11.5-126.4c-32.6-97.7-113-143.7-258.6-143.7c-208.8-1.9-220.3-30.6-220.3-505.7c0-364,1.9-375.5,46-425.3c38.3-47.9,57.5-53.6,168.6-55.5c203-1.9,287.3-91.9,277.8-295c-3.8-78.5,3.8-105.4,40.2-139.8l44.1-44.1h3350.3h3350.3l42.1,40.2c32.6,34.5,42.1,67,44.1,178.1c5.7,197.3,69,256.7,275.8,260.5c95.8,1.9,128.3,11.5,162.8,44.1c40.2,40.2,42.1,61.3,47.9,409.9c3.8,201.1,1.9,386.9-3.8,411.8c-23,84.3-86.2,120.7-206.9,120.7c-124.5,0-212.6,36.4-249,101.5c-11.5,23-23,95.8-24.9,160.9c-1.9,97.7-11.5,128.3-47.9,168.6l-44.1,47.9H5004.1C2289.7,2857.4,1653.7,2853.6,1626.9,2832.5z M8124.5,2505c0-55.6,91.9-210.7,166.7-279.7c90-84.3,147.5-118.8,241.4-149.4l70.9-24.9v-160.9c0-137.9-5.7-164.7-32.6-174.3c-197.3-65.1-364-212.6-423.3-373.5l-38.3-101.5H5002.2h-3109l-24.9,70.9c-57.5,170.5-201.1,314.2-381.2,383.1l-76.6,30.6l-5.7,162.8L1399,2051l72.8,24.9c101.5,32.6,197.3,95.8,270.1,178.1c67,78.5,137.9,205,137.9,250.9c0,24.9,323.7,28.7,3122.4,28.7C7795.1,2533.7,8124.5,2529.9,8124.5,2505z"/><path d="M4073.1,2160.2c-128.3-126.4,3.8-421.4,245.2-549.8c76.6-42.1,101.5-44.1,639.8-49.8c346.7-3.8,586.2,1.9,632.1,13.4c197.3,53.6,364,239.4,383.1,431c9.6,93.9,5.7,109.2-38.3,153.2c-95.8,95.8-245.2,51.7-272-78.5c-23-114.9-40.2-149.4-86.2-172.4c-34.5-17.2-189.6-24.9-574.7-24.9c-385,0-540.2,7.7-574.7,24.9c-46,23-63.2,57.5-86.2,172.4C4316.4,2208.1,4165,2254,4073.1,2160.2z"/><path d="M1617.3,208.2c-46-40.2-53.6-59.4-49.8-139.8c9.6-208.8-63.2-293.1-256.7-293.1c-111.1,0-130.3-5.7-180.1-55.6l-55.6-55.5v-386.9v-387l55.6-55.5c49.8-49.8,69-55.6,180.1-55.6c193.5,0,266.3-84.3,256.7-293.1c-3.8-80.5,3.8-99.6,49.8-139.8l53.7-46h3331.2h3331.2l53.6,46c46,40.2,53.6,59.4,49.8,139.8c-9.6,208.8,63.2,293.1,256.7,293.1c111.1,0,130.3,5.7,180.1,55.6l55.6,55.5v387v386.9l-55.6,55.5c-49.8,49.8-69,55.6-178.1,55.6c-191.6,0-250.9,61.3-254.8,266.3c-1.9,107.3-9.6,128.3-55.6,166.7l-51.7,46H5002.2H1671L1617.3,208.2z M8132.2-136.6c15.3-78.5,124.5-231.8,218.4-304.6c38.3-28.7,111.1-67,160.9-86.2l91.9-32.6v-162.8v-162.8l-99.6-36.4c-137.9-47.9-323.7-233.7-360.1-362l-26.8-90H4998.3c-2789.1,0-3118.6,3.8-3118.6,28.7c0,61.3-95.8,214.6-187.7,300.8c-55.6,51.7-134.1,103.4-193.5,122.6l-97.7,36.4v162.8V-560l97.7,36.4c59.4,19.2,137.9,70.9,193.5,122.6c91.9,86.2,187.7,239.4,187.7,300.7c0,24.9,329.5,28.7,3120.5,28.7h3120.5L8132.2-136.6z"/><path d="M4069.3-446.9c-139.8-139.8,61.3-511.5,316.1-582.3c93.9-24.9,1139.8-24.9,1233.6,0c176.2,49.8,341,249,356.3,431c7.7,90,1.9,109.2-40.2,151.3c-69,69-153.3,67-226-5.8c-40.2-40.2-55.6-74.7-55.6-124.5c0-47.9-13.4-76.6-49.8-105.4c-49.8-38.3-72.8-40.2-601.5-40.2c-528.7,0-551.7,1.9-601.5,40.2c-36.4,28.7-49.8,57.5-49.8,105.4c0,49.8-15.3,84.3-55.5,124.5C4222.5-379.9,4138.2-378,4069.3-446.9z"/></g></g>
</svg>