<?xml version="1.0" encoding="utf-8"?>
<!-- Svg Vector Icons : http://www.onlinewebfonts.com/icon -->
<!DOCTYPE svg PUBLIC "-//W3C//DTD SVG 1.1//EN" "http://www.w3.org/Graphics/SVG/1.1/DTD/svg11.dtd">
<svg version="1.1" xmlns="http://www.w3.org/2000/svg" xmlns:xlink="http://www.w3.org/1999/xlink" x="0px" y="0px" viewBox="0 0 1000 1000" enable-background="new 0 0 1000 1000" xml:space="preserve">
<metadata> Svg Vector Icons : http://www.onlinewebfonts.com/icon </metadata>
<g><g transform="translate(0.000000,512.000000) scale(0.100000,-0.100000)"><path d="M1464.7,4974.1l-53.6-45.9l-5.7-4279.8l-3.8-4279.8H806.3H211l-55.5-55.5l-55.5-55.5v-463.2V-4669l55.5-55.5L211-4780h4789h4789l55.5,55.5l55.5,55.5v461.3c0,457.5,0,459.4-45.9,513l-45.9,53.6l-604.9,5.7l-604.8,5.7l-3.8,4277.9l-5.7,4279.8l-53.6,45.9l-53.6,45.9H5000H1518.3L1464.7,4974.1z M2052.3,4292.7v-400l-63.2-11.5c-32.5-7.7-105.3-9.6-157-5.7l-95.7,5.7l-5.7,407.7l-3.8,405.8h162.7h162.7V4292.7z M7603.1,120v-4574.6H5000H2396.9v411.5c0,357.9,3.8,411.5,28.7,411.5c17.2,0,51.7,21,76.6,47.9c45.9,45.9,47.9,53.6,47.9,348.4c0,327.3-11.5,371.3-107.2,407.7l-45.9,19.1V120v2928.5l45.9,19.1c95.7,36.4,107.2,80.4,107.2,407.7c0,294.8-1.9,302.4-47.9,348.4c-24.9,26.8-59.3,47.9-76.6,47.9c-24.9,0-28.7,53.6-28.7,411.5v411.5H5000h2603.1V120z M8273,640.6c0-2229.9-5.7-4289.4-13.4-4574.6l-11.5-520.6H8097h-149.3V120v4574.6h162.7H8273V640.6z M2224.6,3469.6V3393h-248.8H1727v76.6v76.6h248.8h248.8V3469.6z M2052.3,120v-2928.5h-162.7H1727V120v2928.5h162.7h162.7V120z M2224.6-3229.6v-76.6h-248.8H1727v76.6v76.6h248.8h248.8V-3229.6z M2052.3-4043.1v-411.5h-151.2h-151.2l-7.7,398.1c-5.7,218.2-5.7,402-1.9,411.5c3.8,7.7,76.6,13.4,160.8,13.4h151.2V-4043.1z M1401.6-4205.8v-248.8H913.5H425.4v248.8v248.8h488.1h488.1V-4205.8z M9574.6-4205.8v-248.8h-488.1h-488.1v248.8v248.8h488.1h488.1V-4205.8z"/><path d="M2804.6,4350.1c-23-9.6-49.8-34.4-61.2-55.5c-15.3-26.8-21.1-689.1-21.1-2141.8V49.2L2772,3.3l49.8-45.9h2180.1H7182l47.9,47.9l47.9,47.9v2101.6c1.9,1485.3-5.7,2111.2-19.1,2138c-11.5,23-42.1,47.9-68.9,57.4C7128.4,4375,2862,4373.1,2804.6,4350.1z M3526.2,3967.3v-76.6h-76.6c-218.2,0-323.5-158.9-193.3-289c49.8-47.9,70.8-55.5,162.7-55.5h107.2v-76.6V3393H3419c-91.9,0-112.9-7.7-162.7-55.5c-68.9-70.8-72.7-151.2-11.5-223.9c38.3-44,65.1-53.6,162.7-61.2l118.7-7.7V2970v-74.6h-114.8c-97.6,0-124.4-7.7-162.7-47.9c-63.2-61.3-63.2-158.9,0-227.8c40.2-44,61.3-49.8,162.7-49.8h114.8v-74.6v-74.6l-118.7-7.7c-97.6-7.7-124.4-17.2-162.7-61.2c-61.2-72.7-57.4-153.1,11.5-223.9c49.8-47.9,70.8-55.5,162.7-55.5h107.2v-76.6v-76.6h-112.9c-95.7,0-118.7-7.7-162.7-49.8c-67-67-67-164.6-1.9-227.8c38.3-40.2,65.1-47.9,162.7-47.9h114.8v-76.6v-76.6h-76.6c-218.2,0-323.5-158.9-193.3-289c49.8-47.9,70.8-55.5,162.7-55.5h107.2v-76.6V943H3419c-91.9,0-112.9-7.7-162.7-55.5c-68.9-70.8-72.7-151.2-9.6-225.9l45.9-53.6H5000h1707.3l45.9,53.6c63.2,74.7,59.3,155-9.6,225.9c-49.8,47.9-70.8,55.5-162.7,55.5h-107.2v76.6v76.6H6581c91.9,0,112.9,7.7,162.7,55.5c130.2,130.2,24.9,289-193.3,289h-76.6v76.6v76.6h114.8c97.6,0,124.4,7.7,162.7,47.9c51.7,49.8,61.3,120.6,24.9,187.6c-36.4,70.8-76.6,88.1-191.4,90h-111v76.6v76.6H6581c91.9,0,112.9,7.7,162.7,55.5c68.9,70.8,72.8,151.2,11.5,223.9c-38.3,44-65.1,53.6-162.7,61.2l-118.7,7.7v74.6v74.6h112.9c95.7,0,118.7,7.7,162.7,49.8c67,67,67,164.6,1.9,227.8c-38.3,40.2-65.1,47.9-162.7,47.9h-114.8v74.6v74.6l118.7,7.7c97.6,7.7,124.4,17.2,162.7,61.2c61.3,72.7,57.4,153.1-11.5,223.9c-49.8,47.9-70.8,55.5-162.7,55.5h-107.2v76.6v76.6H6581c91.9,0,112.9,7.7,162.7,55.5c130.2,130.2,24.9,289-193.3,289h-76.6v76.6v76.6h239.3h239.3V2168V292.3H5000H3047.7V2168v1875.8h239.3h239.3V3967.3z M6144.6,3963.4l5.7-72.7H5001.9H3851.6v63.2c0,36.4,5.7,70.8,13.4,76.6c5.7,7.7,520.6,11.5,1142.7,9.6l1131.2-5.7L6144.6,3963.4z M6148.4,3469.6V3393H5000H3851.6v76.6v76.6H5000h1148.4V3469.6z M6148.4,2972v-76.6H5000H3851.6v76.6v76.6H5000h1148.4V2972z M6148.4,2493.4v-76.6H5000H3851.6v76.6v76.6H5000h1148.4V2493.4z M6148.4,1995.8v-76.6H5000H3851.6v76.6v76.6H5000h1148.4V1995.8z M6144.6,1513.4l5.7-72.7H5001.9H3851.6v63.2c0,36.4,5.7,70.8,13.4,76.6c5.7,7.7,520.6,11.5,1142.7,9.6l1131.2-5.7L6144.6,1513.4z M6148.4,1019.6V943H5000H3851.6v76.6v76.6H5000h1148.4V1019.6z"/><path d="M6521.7-253.2c-68.9-67-67-183.7,1.9-237.4c47.9-38.3,74.7-40.2,442.2-40.2c388.6,0,390.5,0,436.4,47.9c32.5,30.6,47.9,67,47.9,114.8s-15.3,84.2-47.9,114.8c-45.9,47.9-47.9,47.9-440.2,47.9S6567.6-205.4,6521.7-253.2z"/><path d="M2764.4-747.1l-42.1-44v-1619.3c0-1565.7,1.9-1621.2,36.4-1663.3l36.4-45.9l2151.4-5.7c1181-1.9,2178.2,0,2212.7,5.7c124.4,23,118.7-67,118.7,1711.2l1.9,1615.5l-42.1,44l-42.1,45.9H5000H2804.6L2764.4-747.1z M6952.3-2416.1v-1387.7H5000H3047.7v1387.7v1387.7H5000h1952.3V-2416.1z"/><path d="M3736.7-1727.1c-346.4-348.4-371.3-377.1-371.3-442.1c0-91.9,74.6-160.8,174.2-160.8c63.2,0,95.7,26.8,411.5,340.7c189.5,185.7,356,361.8,371.3,390.5c65.1,122.5-5.7,245-139.7,245C4113.8-1353.8,4090.8-1373,3736.7-1727.1z"/><path d="M4632.5-1637.1c-269.9-271.8-283.3-287.1-283.3-359.8c0-99.5,67-168.5,164.6-168.5c61.2,0,91.9,26.8,352.2,285.2c294.8,294.8,331.1,348.4,285.2,434.5c-36.4,67-76.6,90-158.9,91.9C4919.6-1353.8,4902.4-1367.2,4632.5-1637.1z"/><path d="M3765.4-2519.5c-90-57.4-369.4-350.3-390.5-409.6c-42.1-109.1,49.8-223.9,176.1-223.9c26.8,0,116.8,74.7,256.5,216.3c183.7,183.8,216.3,225.8,216.3,275.6C4023.8-2529.1,3874.5-2448.7,3765.4-2519.5z"/></g></g>
</svg>