<?xml version="1.0" encoding="utf-8"?>
<!-- Svg Vector Icons : http://www.onlinewebfonts.com/icon -->
<!DOCTYPE svg PUBLIC "-//W3C//DTD SVG 1.1//EN" "http://www.w3.org/Graphics/SVG/1.1/DTD/svg11.dtd">
<svg version="1.1" xmlns="http://www.w3.org/2000/svg" xmlns:xlink="http://www.w3.org/1999/xlink" x="0px" y="0px" viewBox="0 0 1000 1000" enable-background="new 0 0 1000 1000" xml:space="preserve">
<metadata> Svg Vector Icons : http://www.onlinewebfonts.com/icon </metadata>
<g><g transform="translate(0.000000,512.000000) scale(0.100000,-0.100000)"><path d="M3508.7,4997.8c-113.1-36.4-262.6-136.1-329.7-220.4c-97.8-124.6-130.4-216.6-189.8-538.6c-32.6-174.4-168.7-899-300.9-1610.1c-130.3-711.1-243.4-1313-249.2-1337.9l-11.5-44.1l-61.3,51.8c-122.7,103.5-191.7,122.7-473.5,122.7c-208.9,0-274.1-7.7-335.4-36.4c-174.4-78.6-291.4-233.9-310.5-410.2c-19.2-189.8,109.3-392.9,310.5-485c51.8-24.9,115-46,138-46c38.3,0,40.2-9.6,47.9-262.6c5.7-224.2,13.4-279.8,49.8-360.4c103.5-228.1,316.3-417.9,538.6-483.1c84.3-24.9,118.8-47.9,164.8-109.2c32.6-42.2,93.9-105.4,139.9-139.9c151.4-115,201.3-120.8,994.8-120.8h715v-191.7c0-180.2,3.8-197.4,47.9-239.6c24.9-26.8,59.4-47.9,74.8-47.9c21.1,0,28.8-40.2,34.5-203.2c5.7-195.5,7.7-205.1,59.4-249.2c42.2-36.4,74.8-46,159.1-46h103.5v-162.9V-2336h-103.5c-118.8,0-193.6-46-212.8-132.3c-5.7-30.7-23-59.4-34.5-65.2c-13.4-3.8-467.7-111.2-1008.3-235.8c-762.9-174.4-998.7-235.8-1035.1-268.3c-40.3-34.5-49.8-61.3-55.6-168.7c-5.8-88.2-15.3-126.5-34.5-126.5c-13.4,0-72.8-17.3-132.3-40.2c-139.9-51.8-310.5-208.9-394.9-366.1c-61.3-115-65.2-130.3-65.2-312.4c0-170.6,5.7-203.2,53.7-299c70.9-147.6,214.7-289.5,371.9-366.1c116.9-57.5,145.7-63.3,293.3-63.3c145.7,0,178.3,7.7,289.4,61.3c153.3,76.7,304.8,230,377.6,383.4c44.1,95.8,51.8,136.1,51.8,283.7c0,147.6-7.7,187.9-51.8,281.8c-63.3,134.2-189.8,274.1-320.1,350.8c-72.8,42.2-95.8,67.1-93.9,95.8c5.7,34.5,97.7,59.4,839.6,231.9c458.1,105.4,856.8,199.4,887.5,205.1c92,24.9,59.4-26.8-139.9-226.2c-182.1-182.1-195.5-191.7-308.6-214.7c-247.3-49.8-450.5-205.1-557.8-423.6c-57.5-115-63.3-143.8-63.3-300.9c0-147.6,7.7-187.8,51.8-283.7c72.8-153.3,224.3-306.7,377.6-383.4c111.2-53.7,143.8-61.3,289.4-61.3c147.6,0,176.4,5.7,293.3,63.3c157.2,76.7,300.9,218.5,371.9,366.1c47.9,95.8,53.7,128.4,53.7,299c0,172.5-5.7,201.3-55.6,302.9c-32.6,61.3-105.4,155.3-168.7,218.5l-115,107.3l130.3,130.3l130.3,132.3h260.7h260.7l130.3-132.3l130.4-130.3l-115-107.3c-63.3-63.3-136.1-157.2-168.7-218.5c-49.8-101.6-55.6-130.3-55.6-302.9c0-172.5,5.7-203.2,53.7-302.9c74.8-149.5,220.4-293.3,375.7-366.1c111.2-51.7,147.6-59.4,289.5-59.4c145.7,0,178.3,7.7,289.4,61.3c153.3,76.7,304.8,230,377.6,383.4c44.1,95.8,51.8,136.1,51.8,283.7c0,157.2-5.7,185.9-63.3,300.9c-107.4,218.5-312.5,373.8-552.1,419.8c-107.3,21.1-122.7,30.7-308.6,216.6c-205.1,201.3-237.7,253-143.8,228.1c28.8-5.7,427.5-99.7,885.6-205.1c741.8-172.5,833.8-197.4,839.6-231.9c1.9-28.8-21.1-53.7-93.9-95.8c-130.4-76.7-256.9-216.6-320.1-350.8c-44.1-93.9-51.8-134.2-51.8-281.8c0-147.6,7.7-187.8,51.8-283.7c72.8-153.3,224.3-306.7,377.6-383.4c111.2-53.7,143.8-61.3,289.4-61.3c145.7,0,178.3,7.7,289.4,61.3c155.3,76.7,299,216.6,373.8,364.2c49.8,101.6,55.6,128.4,55.6,302.9c0,182.1-3.8,197.4-65.2,312.4c-84.3,157.2-254.9,314.4-394.9,366.1c-59.4,23-118.8,40.2-132.3,40.2c-19.2,0-28.8,38.3-34.5,126.5c-5.7,107.4-15.3,134.2-55.6,168.7c-36.4,32.6-272.2,93.9-1035.1,268.3c-540.5,124.6-996.8,231.9-1010.2,237.7c-13.4,3.8-30.7,34.5-36.4,65.2c-17.3,84.3-88.2,130.3-208.9,130.3h-103.5v162.9v162.9h97.7c53.7,0,113.1,9.6,136.1,21.1c61.3,32.6,92,136.1,92,314.4c0,134.2,5.8,162.9,28.8,162.9c17.2,0,51.8,21.1,76.7,47.9c44.1,42.2,47.9,61.3,47.9,205.1v157.2l293.3-291.4l293.3-291.4h312.4c304.8,0,310.5,1.9,356.5,47.9c69,67.1,70.9,162.9,3.8,233.8c-36.4,42.2-55.6,44.1-279.9,44.1h-241.5l-162.9,162.9l-162.9,162.9h509.9c567.4,0,644.1,11.5,787.8,120.8c46,34.5,107.3,97.8,139.9,139.9c46,61.3,80.5,84.3,164.8,109.2c222.4,65.2,435.1,255,538.6,483.1c36.4,80.5,44.1,136.1,49.8,358.4l7.7,260.7l69,13.4c214.7,40.3,423.6,272.2,425.5,471.6c0,176.3-120.8,362.3-291.4,446.6c-92,46-116.9,49.8-358.4,49.8c-283.7,0-377.6-24.9-485-128.4l-51.8-49.8l-11.5,46c-5.8,24.9-61.3,322-122.7,659.4c-437,2352-483,2591.6-525.2,2681.7c-57.5,128.4-199.4,270.3-333.5,333.5l-111.2,51.8l-1437.6,3.8C3871,5022.7,3573.9,5017,3508.7,4997.8z M4020.5,4671.9c0-15.4,21.1-51.8,46-80.5c63.3-74.8,170.6-74.8,233.9,0c24.9,28.8,46,65.2,46,80.5c0,23,53.7,26.8,325.9,26.8c272.2,0,325.9-3.8,325.9-26.8c0-15.4,21.1-51.8,46-80.5c34.5-40.3,61.3-53.7,116.9-53.7c55.6,0,82.4,13.4,116.9,53.7c24.9,28.8,46,65.2,46,80.5c0,23,53.7,26.8,325.9,26.8s325.9-3.8,325.9-26.8c0-15.4,21.1-51.8,46-80.5c34.5-40.3,61.3-53.7,116.9-53.7c55.6,0,82.4,13.4,116.9,53.7c24.9,28.8,46,65.2,46,80.5c0,40.2,74.7,32.6,172.5-15.4c63.3-32.6,97.8-67.1,130.3-130.3c55.6-109.3,53.7-145.7-5.7-161c-74.8-19.2-124.6-80.5-124.6-153.3c0-92,53.7-149.5,155.3-162.9l82.4-11.5l197.5-1054.3c120.8-653.6,187.8-1056.2,176.3-1061.9c-49.8-15.4-115-93.9-124.6-147.6c-15.3-78.6,67.1-180.2,145.7-180.2c36.4,0,59.4-11.5,65.2-32.6c24.9-86.3,107.3-575,107.3-644v-74.8l-61.3,51.8c-47.9,40.3-72.8,47.9-118.8,40.3c-72.8-15.4-120.8-59.4-136.1-126.5c-13.4-57.5,28.8-161,70.9-178.3c13.4-5.8-166.8-11.5-400.6-11.5l-425.5-1.9l46,47.9c61.3,59.4,61.3,143.8,1.9,212.8c-101.6,120.8-297.1,30.7-272.2-124.6c5.8-38.3,28.8-84.4,51.8-101.6c38.3-32.6,23-34.5-381.4-34.5H5230l46,47.9c99.7,97.8,26.8,266.4-115,266.4s-214.7-168.7-115-266.4l46-47.9h-423.6c-404.4,0-419.8,1.9-381.5,34.5c113.1,90.1,42.2,279.9-103.5,279.9c-141.8,0-214.7-168.7-115-266.4l46-47.9l-425.5,1.9c-233.9,0-414,5.7-400.6,11.5c13.4,5.8,36.4,34.5,53.7,67.1c57.5,111.2-13.4,233.9-136.1,233.9c-139.9,0-210.9-153.3-122.7-264.5l38.3-49.9h-92c-115,0-212.8,47.9-268.4,132.3c-34.5,51.8-44.1,92-44.1,187.9c0,120.8,1.9,126.5,76.7,191.7c88.2,80.5,101.6,161,38.3,239.6l-36.4,47.9l116.9,634.5l118.8,632.5l51.8-55.6c70.9-74.8,153.3-74.8,230,0c72.8,72.8,72.8,141.8,0,214.7c-65.2,63.3-141.8,72.8-210.8,23c-44.1-30.7-46-30.7-34.5,15.4c5.8,24.9,32.6,170.6,61.3,323.9c63.3,350.8,55.6,333.5,130.3,366.1c116.9,51.7,138,182.1,42.2,270.3l-47.9,44.1l57.5,304.8c32.6,168.7,72.8,331.6,92,364.2c19.2,32.6,70.9,78.6,118.8,103.5c72.8,36.4,115,42.2,291.4,42.2C3980.2,4698.7,4020.5,4693,4020.5,4671.9z M2180.3,1056.8c55.6-55.6,51.8-180.2-9.6-239.6c-44.1-46-57.5-47.9-277.9-47.9c-220.4,0-233.9,1.9-277.9,47.9c-59.4,57.5-63.3,157.2-7.7,228.1c38.3,49.8,42.2,49.8,287.5,49.8C2117.1,1095.1,2145.8,1091.3,2180.3,1056.8z M8389,1045.3c55.6-70.9,51.7-170.6-7.7-228.1c-44.1-46-57.5-47.9-277.9-47.9c-220.4,0-233.8,1.9-277.9,47.9c-61.3,59.4-65.2,184-9.6,239.6c34.5,34.5,63.3,38.3,285.6,38.3C8346.8,1095.1,8350.6,1095.1,8389,1045.3z M2494.7,600.6c42.2-80.5,193.6-210.9,304.8-264.5l99.7-46h801.2h799.3v-86.3v-86.3h-810.8c-695.8,0-824.2-3.8-902.8-30.7c-120.8-42.2-283.7-193.6-348.9-325.8c-26.8-57.5-59.4-103.5-69-103.5c-80.5,0-251.1,168.7-281.8,281.8c-11.5,40.3-21.1,168.7-21.1,283.7v212.8l88.2,23c93.9,24.9,253,124.6,270.3,168.7C2439.1,669.6,2464,660,2494.7,600.6z M7572.4,627.4c17.3-44.1,176.4-143.8,270.3-168.7l88.2-23V222.9c0-115-9.6-243.4-21.1-283.7c-30.7-113.1-201.3-281.8-281.8-281.8c-9.6,0-42.2,46-69,103.5C7490-97.2,7327,50.4,7198.6,88.8c-82.4,23-239.6,28.8-900.9,28.8h-801.2v86.3V290h801.2H7097l97.8,46c115,53.7,237.7,159.1,297.1,253C7534,660,7557.1,669.6,7572.4,627.4z M5170.6,224.9c0-99.7-11.5-107.4-184-107.4h-161v76.7v76.7h172.5C5168.7,270.9,5170.6,270.9,5170.6,224.9z M7164.1-242.8c82.4-40.3,115-101.6,115-214.7c0-118.9-55.6-203.2-147.6-228.1c-99.7-24.9-4169.1-24.9-4266.9,0c-90.1,23-147.6,109.2-147.6,222.3s26.8,172.5,99.7,216.6c61.3,38.3,97.8,38.3,2171.8,38.3C6957.1-208.3,7100.8-210.2,7164.1-242.8z M5323.9-1109.2v-76.7h-325.8h-325.9v76.7v76.7h325.9h325.8V-1109.2z M5166.7-1601.9l-5.8-72.8h-162.9h-162.9l-5.7,72.8l-5.8,70.9h174.4h174.4L5166.7-1601.9z M5162.9-2727.1c5.7-36.4,5.7-74.7-1.9-86.3c-5.7-11.5-76.7-21.1-162.9-21.1c-86.3,0-157.2,9.6-162.9,21.1c-7.7,11.5-7.7,49.9-1.9,86.3l13.4,65.2h151.4h151.4L5162.9-2727.1z M2682.5-3698.9c226.2-115,256.9-521.4,51.7-672.8c-218.5-161-517.5-103.5-630.6,120.8c-49.8,97.8-49.8,285.6-1.9,392.9c40.3,90.1,132.3,166.8,231.9,197.5C2421.9-3635.6,2594.4-3652.9,2682.5-3698.9z M4212.2-3660.6c113.1-24.9,207-99.7,251.1-197.5c47.9-107.3,47.9-295.2-1.9-392.9c-113.1-224.3-412.1-281.8-630.6-120.8c-199.3,147.6-174.4,555.9,40.3,667.1C3991.7-3641.4,4081.8-3629.9,4212.2-3660.6z M6111.7-3698.9c113.1-57.5,174.5-162.9,185.9-320.1c5.7-103.5,0-149.5-30.7-218.5c-130.4-295.2-584.6-302.9-732.2-13.4c-49.9,97.8-49.9,285.6-1.9,392.9C5621-3662.5,5895.1-3587.7,6111.7-3698.9z M7652.9-3660.6c178.3-47.9,277.9-187.9,277.9-391c0-251.1-157.2-412.1-404.4-412.1c-157.2,0-306.7,92-366.1,226.2c-55.6,124.6-42.2,314.4,28.8,421.7C7281-3675.9,7472.7-3610.7,7652.9-3660.6z"/><path d="M3591.1,4330.7c-76.7-67.1-82.4-149.5-21.1-222.4c124.6-147.6,335.4-5.7,266.4,178.3c-15.3,36.4-105.4,86.3-159.1,86.3C3656.3,4372.9,3618,4353.7,3591.1,4330.7z"/><path d="M4566.8,4328.8c-159.1-136.1,42.2-371.9,208.9-241.5c38.3,30.7,49.8,55.6,49.8,113.1c0,92-47.9,151.4-136.1,164.9C4635.8,4374.8,4610.9,4367.1,4566.8,4328.8z"/><path d="M5578.9,4353.7c-95.8-38.3-115-201.3-32.6-266.4c109.3-86.3,264.5-15.3,264.5,122.7C5810.8,4330.7,5697.7,4401.6,5578.9,4353.7z"/><path d="M4068.4,3826.6c-70.9-69-65.2-164.8,11.5-228.1c76.7-65.2,141.8-63.3,210.9,5.7c61.3,63.3,69,111.2,26.8,191.7C4269.7,3889.8,4145.1,3905.2,4068.4,3826.6z"/><path d="M5046,3826.6c-67.1-65.2-63.3-149.5,7.7-222.3c34.5-32.6,76.7-55.6,107.3-55.6c72.8,0,162.9,95.8,162.9,172.5C5323.9,3857.3,5143.7,3926.3,5046,3826.6z"/><path d="M6056.2,3861.1c-32.6-11.5-80.5-109.2-80.5-159.1c0-57.5,101.6-153.3,159.1-153.3c78.6,0,166.8,88.2,166.8,164.9C6301.5,3832.3,6175,3909,6056.2,3861.1z"/><path d="M3618,3370.4c-153.3-76.7-97.8-300.9,72.8-300.9c153.3,0,216.6,176.4,97.8,276C3723.4,3401.1,3688.9,3406.8,3618,3370.4z"/><path d="M4593.6,3366.6c-55.6-30.7-99.7-126.5-80.5-178.3c61.3-172.5,312.4-149.5,312.4,28.8c0,86.3-17.3,118.9-78.6,149.5C4681.8,3401.1,4656.9,3401.1,4593.6,3366.6z"/><path d="M5582.7,3372.3c-61.3-32.6-86.3-74.7-86.3-149.5c0-184,251.1-210.8,312.4-34.5c19.2,53.7-24.9,149.5-84.3,178.3C5661.3,3401.1,5634.5,3401.1,5582.7,3372.3z"/><path d="M6535.4,3347.4c-74.8-61.3-82.4-151.4-21.1-228.1c40.3-49.8,124.6-67.1,199.4-38.3c84.3,32.6,103.5,197.4,30.7,264.5C6681,3403,6602.5,3403,6535.4,3347.4z"/><path d="M4068.4,2849c-97.8-95.8-26.8-277.9,109.3-277.9c72.8,0,168.7,92,168.7,162.9c0,30.7-23,72.8-55.6,107.4C4217.9,2912.3,4133.6,2916.1,4068.4,2849z"/><path d="M5072.8,2872c-40.3-30.7-74.7-97.7-74.7-147.6c0-51.8,99.7-153.3,151.4-153.3c155.3,0,228.1,180.2,113.1,287.5C5216.6,2900.8,5120.7,2908.4,5072.8,2872z"/><path d="M6031.2,2841.3c-32.6-34.5-55.6-76.7-55.6-107.4c0-61.3,93.9-162.9,153.3-162.9c55.6,0,145.7,49.9,161,86.3c24.9,67.1,11.5,145.7-36.4,191.7C6188.4,2916.1,6104.1,2912.3,6031.2,2841.3z"/><path d="M3596.9,2379.4c-17.2-9.6-42.2-44.1-55.6-76.7c-30.7-76.7,3.8-162.9,80.5-203.2c155.3-80.5,308.6,138,182.1,256.8C3756,2400.5,3652.5,2412,3596.9,2379.4z"/><path d="M4572.5,2371.7c-95.8-72.9-72.8-237.7,40.3-276c69-24.9,145.7-3.8,185.9,49.8c42.2,53.7,32.6,164.9-17.3,210.8C4731.6,2404.3,4624.3,2412,4572.5,2371.7z"/><path d="M5538.6,2354.5c-115-120.8,11.5-314.4,170.6-258.8c113.1,38.3,138,230,36.4,283.7C5680.5,2413.9,5582.7,2402.4,5538.6,2354.5z"/><path d="M6516.2,2354.5c-82.4-86.3-40.3-226.2,78.6-268.4c57.5-21.1,157.2,32.6,184,99.7c30.7,69,1.9,162.9-57.5,193.6C6658,2413.9,6560.3,2402.4,6516.2,2354.5z"/><path d="M3129.2,1896.3c-149.5-80.5-93.9-302.9,74.8-302.9c49.8,0,76.7,13.4,115,59.4c65.2,76.7,63.3,141.8-5.7,210.8C3253.8,1921.3,3194.3,1932.8,3129.2,1896.3z"/><path d="M4106.7,1896.3c-145.7-84.3-93.9-304.8,70.9-302.9c70.9,1.9,113.1,26.8,145.7,90.1c36.4,67.1,26.8,120.8-32.6,180.2C4231.3,1921.3,4170,1932.8,4106.7,1896.3z"/><path d="M5053.7,1863.8c-70.9-72.9-74.7-157.2-7.7-222.4c97.7-99.7,277.9-30.7,277.9,105.4c0,76.7-90.1,172.5-162.9,172.5C5130.3,1919.3,5088.2,1896.3,5053.7,1863.8z"/><path d="M6031.2,1863.8c-59.4-59.4-69-113.1-32.6-180.2c78.6-149.5,304.8-99.7,302.9,67.1c-1.9,70.9-26.8,113.1-90.1,145.7C6144.3,1932.8,6090.7,1923.2,6031.2,1863.8z"/><path d="M3570,1359.6c-40.3-47.9-47.9-72.8-40.3-118.8c24.9-116.9,134.2-172.5,237.7-118.8c145.7,74.7,86.3,299-80.5,299C3637.1,1421,3610.3,1407.5,3570,1359.6z"/><path d="M4562.9,1378.8c-57.5-65.2-65.2-105.4-34.5-180.2c67.1-162.9,297.1-113.1,297.1,65.2C4825.6,1405.6,4655,1478.5,4562.9,1378.8z"/><path d="M5546.3,1380.7c-38.3-30.7-49.8-55.6-49.8-115c0-180.2,230-230,297.1-67.1C5860.6,1357.7,5684.3,1488.1,5546.3,1380.7z"/><path d="M6522,1373c-78.6-76.7-63.3-201.3,32.6-251.1c103.5-53.7,212.8,1.9,237.7,118.8c7.7,46,0,70.9-40.2,118.8C6686.8,1438.2,6590.9,1444,6522,1373z"/></g></g>
</svg>