<?xml version="1.0" encoding="utf-8"?>
<!-- Svg Vector Icons : http://www.onlinewebfonts.com/icon -->
<!DOCTYPE svg PUBLIC "-//W3C//DTD SVG 1.1//EN" "http://www.w3.org/Graphics/SVG/1.1/DTD/svg11.dtd">
<svg version="1.1" xmlns="http://www.w3.org/2000/svg" xmlns:xlink="http://www.w3.org/1999/xlink" x="0px" y="0px" viewBox="0 0 1000 1000" enable-background="new 0 0 1000 1000" xml:space="preserve">
<metadata> Svg Vector Icons : http://www.onlinewebfonts.com/icon </metadata>
<g><g transform="translate(0.000000,512.000000) scale(0.100000,-0.100000)"><path d="M2553,5004.7c-228-53.6-463.6-249.1-572.8-469.4c-65.1-130.3-65.1-134.1-65.1-390.8c0-226.1,5.7-272,46-369.7c74.7-189.7,189.7-335.3,402.3-511.5c358.3-296.9,346.8-256.7,346.8-1321.9v-841l-275.9-5.7c-272.1-5.8-277.8-5.8-360.2-63.2c-44.1-32.6-101.5-93.9-124.5-134.1c-42.1-74.7-44.1-93.9-44.1-609.2c0-486.6,3.8-542.2,40.2-649.5c109.2-323.8,406.2-586.2,733.8-645.6c70.9-13.4,413.8-21.1,885.1-21.1h770.2l7.7-189.7c5.7-170.5,11.5-195.4,51.7-239.5c26.8-26.8,63.2-49.8,82.4-49.8c30.6,0,34.5-19.2,34.5-193.5c0-187.7,1.9-193.5,55.6-249.1c49.8-47.9,70.9-55.5,162.8-55.5h107.3v-162.9V-2331H4739c-141.8,0-226.1-55.5-228-147.5c0-28.8-15.3-47.9-42.2-53.6c-24.9-5.8-488.5-113-1030.7-239.5c-831.5-191.6-990.5-233.7-1019.2-268.2c-24.9-30.7-34.5-76.6-34.5-164.8c0-114.9-3.8-122.6-42.1-122.6c-24.9,0-97.7-24.9-160.9-55.6c-381.2-180.1-546-599.6-379.3-954.1c69-143.7,233.7-308.4,381.2-379.3c97.7-47.9,137.9-55.6,277.8-57.5c143.7,0,178.2,7.7,291.2,61.3c241.4,113,417.6,352.5,444.5,595.8c30.7,270.1-141.8,578.6-398.5,714.6c-65.1,32.6-88.1,55.6-84.3,84.3c5.8,32.6,107.3,59.4,858.3,233.7c469.4,107.3,871.7,201.2,896.6,206.9c80.5,19.2,42.2-38.3-153.3-233.7c-187.7-183.9-203.1-195.4-297-206.9c-237.6-30.6-465.5-205-584.3-444.5c-55.6-114.9-63.2-147.5-63.2-283.5c0-132.2,9.6-170.5,61.3-281.6c115-245.2,365.9-427.2,616.9-450.2c410-38.3,820,371.7,781.7,781.6c-15.3,166.7-105.4,342.9-241.4,475.1l-115,111.1l128.4,126.4l130.3,128.4h268.2h268.2l128.4-130.3l128.3-130.3l-86.2-70.9c-162.9-136-277.8-367.8-277.8-557.5c0-268.2,187.8-546,457.9-676.3c90-44.1,134.1-51.7,270.1-53.7c143.7,0,178.2,7.7,291.2,61.3c396.6,187.7,557.5,628.4,364,990.5c-109.2,203.1-354.4,377.4-569,406.1c-90,11.5-107.3,23-291.2,205c-197.3,195.4-235.7,252.9-153.3,233.7c23-5.7,425.3-99.6,894.7-206.9c722.3-166.7,852.5-203.1,852.5-229.9c0-21.1-53.6-70.9-134.1-124.5c-91.9-63.2-157.1-128.4-214.6-210.7c-99.6-145.6-128.4-239.5-128.4-415.7c0-260.5,178.2-521.1,444.5-647.5c113-53.7,147.5-61.3,291.2-61.3c136,1.9,180.1,9.6,270.1,53.7c293.1,141.8,479,440.6,452.2,728c-13.4,159-120.7,369.7-239.5,475.1c-97.7,86.2-295,189.7-362.1,189.7c-40.2,0-44.1,7.7-44.1,122.6c0,88.1-9.6,134.1-34.5,164.8c-28.8,34.5-187.8,76.6-1019.2,268.2c-542.2,126.4-1005.8,233.7-1028.8,239.5c-28.7,5.7-44.1,24.9-44.1,53.6c-1.9,92-86.2,147.5-228,147.5h-97.7v162.8v162.9h107.3c92,0,113,7.7,162.9,55.5c53.6,55.6,55.5,61.3,55.5,249.1c0,174.4,3.9,193.5,34.5,193.5c19.2,0,55.6,21.1,80.5,47.9c38.3,42.1,47.9,76.6,57.5,203.1l9.6,155.2l283.6-289.3l283.5-289.3h306.5h308.5l55.5,55.5c70.9,72.8,74.7,157.1,7.7,222.3c-44,46-57.5,47.9-289.3,47.9h-243.3L6218-1191.1l-164.8,162.9h576.7c329.5,0,624.6,9.6,689.7,21.1c327.6,59.4,624.6,321.8,733.7,645.6c36.4,107.3,40.2,162.9,40.2,649.5c0,515.4-1.9,534.5-44,609.2c-23,40.2-80.5,101.5-124.5,134.1c-82.4,57.5-88.2,57.5-360.2,63.2l-275.9,5.7v888.9c0,977.1,0,982.8,118.8,1155.2c30.7,44.1,124.5,128.4,206.9,187.7c335.3,233.7,492.4,528.8,475.1,896.6c-5.8,153.3-15.4,195.4-70.9,306.5c-86.2,176.3-237.5,323.8-421.5,411.9l-145.6,69l-2413.9,3.8C3675.7,5020,2593.2,5014.2,2553,5004.7z M7511.2,4648.3c101.5-53.6,205-174.3,233.7-272c13.4-40.2,23-130.3,23-199.2c0-237.6-105.4-419.6-327.6-570.9c-157.1-105.4-274-233.7-352.5-383.2c-122.6-233.7-124.5-254.8-124.5-1233.8V1106l-67.1-24.9c-36.4-13.4-93.9-46-124.5-72.8c-97.7-82.4-124.5-149.4-134.1-360.2l-9.6-191.6H4999.5H3371.1l-9.6,195.4c-9.6,178.2-15.3,201.2-67.1,275.9c-38.3,53.6-93.9,101.5-157.1,132.2l-97.7,47.9l-7.7,881.3l-5.7,881.3l-47.9,124.5c-80.5,205-180.1,335.3-394.7,511.5c-208.8,170.5-275.9,252.9-323.8,387c-34.5,99.6-38.3,377.4-5.7,486.6c34.5,114.9,159,239.5,283.5,283.5c101.5,34.5,191.6,34.5,2500.1,30.7l2394.8-3.8L7511.2,4648.3z M3035.8,512.1c0-260.6,11.5-318,74.7-365.9c44.1-34.5,3733.9-34.5,3778,0c63.2,47.9,74.7,105.4,74.7,365.9v260.5h404.2h402.3l-5.7-530.7l-5.8-532.6l-57.5-101.5c-67.1-122.6-136-183.9-277.8-251L7317.6-693H4999.5H2681.4l-120.7,55.5c-128.4,59.4-206.9,136-275.9,266.3c-42.1,76.6-44.1,103.5-49.8,613l-5.8,530.7h402.3h404.2V512.1z M5334.8-1104.9v-76.6h-335.3h-335.3v76.6v76.6h335.3h335.3V-1104.9z M5162.3-1603v-76.6h-162.8h-162.9v76.6v76.6h162.9h162.8V-1603z M5162.3-2742.9v-86.2h-162.8h-162.9v86.2v86.2h162.9h162.8V-2742.9z M2579.8-3654.8c214.6-46,339.1-266.3,281.6-502c-46-193.5-233.7-318-442.6-295c-241.4,28.8-379.3,203.1-354.4,446.4c19.2,182,126.5,314.2,289.3,352.5C2441.9-3631.8,2466.8-3631.8,2579.8-3654.8z M4329-3700.8c116.9-67.1,172.4-178.2,172.4-344.8c0-235.6-122.6-379.3-348.7-404.2c-170.5-21.1-346.8,65.1-417.6,201.2c-76.6,151.3-44.1,383.1,72.8,496.2C3934.3-3629.9,4166.1-3606.9,4329-3700.8z M6037.9-3662.5c130.3-38.3,224.1-141.8,254.8-283.5c82.4-367.9-283.5-634.1-618.8-450.2c-118.8,65.1-176.3,180.1-176.3,350.6c0,251,141.8,394.6,404.2,410C5922.9-3635.7,5984.2-3647.2,6037.9-3662.5z M7758.3-3700.8c116.9-67.1,172.4-180.1,172.4-344.8c0-235.6-122.6-379.3-348.7-404.2c-136-17.2-251,21.1-342.9,114.9c-212.6,210.7-122.6,595.8,155.2,674.4C7516.9-3626.1,7660.6-3643.3,7758.3-3700.8z"/><path d="M4892.2,3667.4c-70.9-72.8-74.7-157.1-7.7-222.2c97.7-99.6,277.8-30.7,277.8,105.4c0,76.6-90,172.4-162.8,172.4C4968.9,3723,4926.7,3700,4892.2,3667.4z"/><path d="M4957.4,2730.6c-24.9-3.8-61.3-28.7-82.4-55.6c-86.2-109.2-13.4-258.6,124.5-258.6c57.5,0,86.2,11.5,118.8,51.7C5223.7,2590.7,5122.1,2755.5,4957.4,2730.6z"/><path d="M4884.6,1701.8c-61.3-59.4-61.3-143.7-1.9-212.7c93.9-111.1,279.7-38.3,279.7,109.2C5162.3,1732.5,4982.3,1801.4,4884.6,1701.8z"/></g></g>
</svg>