<?xml version="1.0" encoding="utf-8"?>
<!-- Svg Vector Icons : http://www.onlinewebfonts.com/icon -->
<!DOCTYPE svg PUBLIC "-//W3C//DTD SVG 1.1//EN" "http://www.w3.org/Graphics/SVG/1.1/DTD/svg11.dtd">
<svg version="1.1" xmlns="http://www.w3.org/2000/svg" xmlns:xlink="http://www.w3.org/1999/xlink" x="0px" y="0px" viewBox="0 0 1000 1000" enable-background="new 0 0 1000 1000" xml:space="preserve">
<metadata> Svg Vector Icons : http://www.onlinewebfonts.com/icon </metadata>
<g><g transform="translate(0.000000,512.000000) scale(0.100000,-0.100000)"><path d="M3042,4992.7c-109.2-40.2-218.4-137.9-272-245.2l-49.8-99.6V2956.2V1266.4l-528.8-5.8l-528.8-5.7l-46-53.6l-46-53.7V115V-917.7l46-53.7l46-53.6l1343-5.8l1343-3.8V-1228c0-178.2,3.8-195.4,47.9-237.6c24.9-26.8,59.4-47.9,74.7-47.9c21.1,0,28.7-40.2,34.5-203.1c5.7-195.4,7.7-205,59.4-249.1c42.2-36.4,74.7-46,159-46h103.5v-162.9v-162.9h-103.5c-118.8,0-193.5-46-212.7-132.2c-5.7-30.7-23-59.4-34.5-65.1c-13.4-3.8-467.5-111.1-1007.7-235.7c-762.5-174.3-998.2-235.7-1034.6-268.2c-40.2-34.5-49.8-61.3-55.6-168.6c-5.8-88.1-15.3-126.4-34.5-126.4c-13.4,0-72.8-17.2-132.2-40.2c-141.8-53.7-327.6-226.1-402.3-375.5c-51.7-101.5-57.5-128.4-57.5-302.7c0-172.4,5.7-203.1,53.6-302.7c74.7-149.4,220.3-293.1,375.5-365.9c111.1-51.7,147.5-59.4,289.3-59.4c145.6,0,178.2,7.7,289.3,61.3c153.3,76.6,304.6,229.9,377.4,383.2c44.1,95.8,51.7,136,51.7,283.5s-7.7,187.7-51.7,281.6c-63.2,134.1-189.7,274-319.9,350.6c-65.1,38.3-97.7,70.9-97.7,95.8c0,34.5,78.6,55.6,867.9,237.6c475.1,109.2,877.5,203.1,890.9,206.9c67.1,26.8,1.9-63.2-172.4-235.6c-187.7-185.8-203.1-195.4-310.4-216.5c-239.5-46-444.5-201.2-551.8-419.6c-57.5-115-63.2-143.7-63.2-300.8c0-147.5,7.7-187.8,51.7-283.5c72.8-153.3,224.1-306.5,377.4-383.2c111.1-53.6,143.7-61.3,289.3-61.3c147.5,0,176.3,5.7,293.1,63.2c157.1,76.6,300.8,218.4,371.7,365.9c47.9,95.8,53.6,128.3,53.6,298.9c0,182-3.8,197.3-65.1,310.4c-34.5,65.1-111.1,164.8-168.6,218.4l-105.4,99.6l130.3,130.3l130.3,132.2H5000h260.5l130.3-132.2l130.3-130.3l-115-107.3c-63.2-63.2-136-157.1-168.6-218.4c-49.8-101.5-55.6-130.3-55.6-302.7c0-172.4,5.7-203.1,53.6-302.7c74.7-149.4,220.3-293.1,375.5-365.9c111.1-51.7,147.5-59.4,289.3-59.4c145.6,0,178.2,7.7,289.3,61.3c153.3,76.6,304.6,229.9,377.4,383.2c44.1,95.8,51.7,136,51.7,283.5c0,157.1-5.7,185.8-63.2,300.8c-107.3,218.4-312.3,373.6-551.8,419.6c-107.3,21.1-122.6,30.7-310.4,216.5c-174.3,172.4-239.5,262.5-170.5,235.6c11.5-3.8,413.8-97.7,889-206.9c789.3-182,867.9-203.1,867.9-237.6c0-24.9-32.6-57.5-97.7-95.8c-130.3-76.6-256.7-216.5-320-350.6c-44.1-93.9-51.7-134.1-51.7-281.6c0-157.1,5.7-185.8,61.3-298.9c76.6-153.3,229.9-304.6,383.2-377.4c93.9-44.1,137.9-51.7,274-51.7c145.6,0,176.3,5.7,293.1,63.2c157.1,76.6,300.8,218.4,371.7,365.9c47.9,95.8,53.6,128.3,53.6,298.9c0,182-3.8,197.3-65.1,312.3c-84.3,157.1-254.8,314.2-394.6,365.9c-59.4,23-118.8,40.2-132.2,40.2c-19.2,0-28.7,38.3-34.5,126.4c-5.7,107.3-15.3,134.1-55.5,168.6c-36.4,32.5-272.1,93.9-1034.6,268.2c-540.3,124.5-996.2,231.8-1009.6,237.6c-13.4,3.8-30.7,34.5-36.4,65.1c-17.2,84.3-88.1,130.3-208.8,130.3h-103.5v162.9v162.9h97.7c53.7,0,113,9.6,136,21.1c61.3,32.6,92,136,92,314.2c0,134.1,5.7,162.9,28.7,162.9c17.2,0,51.7,21.1,76.6,47.9c44.1,42.1,47.9,61.3,47.9,205v157.1l293.1-291.2l293.1-291.2h312.3c304.6,0,310.4,1.9,356.3,47.9c69,67.1,70.9,162.9,3.8,235.6c-36.4,40.2-55.6,42.2-279.7,42.2H6389l-162.9,162.8l-160.9,162.8l1136.1,3.8l1136.1,5.8l46,53.6l46,53.7V115v1032.6l-46,53.7l-46,53.6l-528.8,5.7l-528.8,5.8v1689.8v1691.7l-49.8,99.6c-53.7,107.3-162.8,205-272.1,245.2C6854.5,5029.1,3145.5,5029.1,3042,4992.7z M6912,4663.2l42.1-28.7V2536.6V440.7H5000H3045.8v2095.9v2097.8l42.2,28.7c38.3,26.8,251,30.6,1912,30.6C6661,4693.8,6873.7,4690,6912,4663.2z M2701,115v-823.8h-402.3h-402.3V115v823.8h402.3H2701V115z M8103.7,115v-823.8h-402.3H7299V115v823.8h402.3h402.3V115z M6954.2-293.1v-410H5000H3045.8V-295v410H5000h1954.2V-293.1z M5325.7-1111.2v-76.6H5000h-325.7v76.6v76.6H5000h325.7V-1111.2z M5168.6-1603.5l-5.8-72.8H5000h-162.8l-5.7,72.8l-5.8,70.9H5000h174.3L5168.6-1603.5z M5164.8-2728.1c5.8-36.4,5.8-74.7-1.9-86.2c-5.7-11.5-76.6-21.1-162.8-21.1s-157.1,9.6-162.8,21.1c-7.7,11.5-7.7,49.8-1.9,86.2l13.4,65.1H5000h151.4L5164.8-2728.1z M2685.7-3699.5c111.1-57.5,172.4-162.9,183.9-320c5.8-103.5,0-149.4-30.6-218.4c-130.3-295-584.3-302.7-731.9-13.4c-49.8,97.7-49.8,285.5-1.9,392.7c40.2,90,132.2,166.7,231.8,197.3C2425.1-3636.2,2597.5-3653.5,2685.7-3699.5z M4214.5-3661.2c113-24.9,206.9-99.6,251-197.3c47.9-107.3,47.9-295-1.9-392.7c-113-224.1-411.9-281.6-630.3-120.7c-199.2,147.5-174.3,555.6,40.2,666.7C3994.2-3642,4084.2-3630.5,4214.5-3661.2z M6113.1-3699.5c113-57.5,174.4-162.9,185.8-320c5.7-103.5,0-149.4-30.6-218.4c-130.3-295-584.3-302.7-731.9-13.4c-49.8,97.7-49.8,285.5-1.9,392.7C5622.6-3663.1,5896.6-3588.3,6113.1-3699.5z M7653.4-3661.2c107.3-28.7,199.3-103.5,241.4-197.3c47.9-107.3,47.9-295-1.9-392.7c-113-224.1-411.9-281.6-630.3-120.7c-199.2,147.5-174.3,553.7,40.3,668.6C7415.9-3645.8,7538.5-3630.5,7653.4-3661.2z"/><path d="M4070.8,4320.2c-40.2-38.3-47.9-65.1-47.9-162.8v-115h-115c-147.5,0-210.7-51.7-210.7-168.6c0-107.3,61.3-157.1,208.8-170.5l116.9-11.5v-109.2c0-88.1,7.7-115,44.1-147.5c63.2-57.5,103.5-65.1,176.3-36.4c80.5,34.5,105.4,80.5,105.4,201.2v97.7h76.6c155.2,0,249.1,70.9,249.1,185.8c-1.9,103.5-80.5,159-228,159h-97.7v113c0,95.8-7.7,118.8-49.8,162.8C4231.7,4385.4,4134,4385.4,4070.8,4320.2z"/><path d="M5701.2,4318.3c-42.1-44.1-49.8-67.1-49.8-162.8v-113h-97.7c-147.5,0-226.1-55.5-228-159c0-115,93.9-185.8,249.1-185.8h76.6v-103.4c0-136,53.6-205,159-208.8c111.1-3.8,166.7,61.3,166.7,197.3v109.2l116.9,11.5c147.5,13.4,208.8,63.2,208.8,170.5c0,116.9-63.2,168.6-210.7,168.6h-115v115c0,97.7-7.7,124.5-47.9,162.8C5866,4385.4,5768.2,4385.4,5701.2,4318.3z"/><path d="M4109.1,3042.4c-67.1-38.3-84.3-78.5-86.2-191.6v-111.1h-97.7c-155.2,0-226.1-55.5-228-176.3c0-105.4,84.3-168.6,222.2-168.6h103.5v-109.2c1.9-116.9,19.2-157.1,90-193.5c67.1-36.4,120.7-26.8,180.1,32.6c47.9,49.8,55.6,70.9,55.6,162.8v107.3h107.3c92,0,113,7.7,162.8,55.6c74.7,76.6,74.7,157.1,0,233.7c-49.8,47.9-70.9,55.5-162.8,55.5h-107.3V2847c0,92-7.7,113-55.6,162.9C4233.7,3067.3,4172.4,3078.8,4109.1,3042.4z"/><path d="M5707,3009.8c-47.9-49.8-55.6-70.9-55.6-162.9v-107.3h-107.3c-92,0-113-7.7-162.8-55.5c-74.7-76.6-74.7-157.1,0-233.7c49.8-47.9,70.9-55.6,162.8-55.6h107.3v-107.3c0-92,7.7-113,55.6-162.8c59.4-59.4,113-69,180.1-32.6c70.9,36.4,88.1,76.6,90,193.5v109.2h103.5c139.8,0,222.2,63.2,222.2,172.4c0,109.2-82.4,172.4-222.2,172.4h-103.5v111.1c-1.9,115-19.2,155.2-90,191.6C5820,3078.8,5766.3,3069.2,5707,3009.8z"/><path d="M4137.9,1749.2c-82.4-30.7-115-88.1-115-197.3v-109.2l-116.9-11.5c-147.5-13.4-208.8-63.2-208.8-170.5c0-116.9,63.2-168.6,210.7-168.6h115V977.1c0-97.7,7.7-124.5,47.9-162.9c63.2-65.1,160.9-65.1,228,1.9c42.2,44.1,49.8,67.1,49.8,162.8v113h97.7c147.5,0,226.1,55.6,228,159c0,115-93.9,185.8-249.1,185.8h-76.6v103.5c0,82.4-9.6,115-42.2,153.3C4260.5,1743.4,4187.7,1768.3,4137.9,1749.2z"/><path d="M5754.8,1743.4c-69-26.8-103.5-95.8-103.5-203.1v-97.7l-118.8-11.5c-139.9-13.4-206.9-69-206.9-172.4c1.9-111.1,76.6-166.7,228-166.7h97.7V979c0-95.8,7.7-118.8,49.8-162.8c67.1-67.1,164.8-67.1,228-1.9c40.2,38.3,47.9,65.1,47.9,162.9V1092h115c147.5,0,210.7,51.7,210.7,168.6c0,107.3-61.3,157.1-208.8,170.5l-116.9,11.5v109.2c0,88.1-7.7,115-42.2,149.4C5881.3,1749.2,5808.5,1766.4,5754.8,1743.4z"/></g></g>
</svg>