<?xml version="1.0" encoding="utf-8"?>
<!-- Svg Vector Icons : http://www.onlinewebfonts.com/icon -->
<!DOCTYPE svg PUBLIC "-//W3C//DTD SVG 1.1//EN" "http://www.w3.org/Graphics/SVG/1.1/DTD/svg11.dtd">
<svg version="1.1" xmlns="http://www.w3.org/2000/svg" xmlns:xlink="http://www.w3.org/1999/xlink" x="0px" y="0px" viewBox="0 0 1000 1000" enable-background="new 0 0 1000 1000" xml:space="preserve">
<metadata> Svg Vector Icons : http://www.onlinewebfonts.com/icon </metadata>
<g><g transform="translate(0.000000,512.000000) scale(0.100000,-0.100000)"><path d="M4702.8,5008.9c-653.9-103.5-1240.6-506.2-1580-1083.4c-95.9-163-184.1-383.5-224.4-550.3c-15.3-69-126.6-809.2-249.3-1647.1c-120.8-838-224.4-1541.7-230.1-1564.7c-5.8-26.8-34.5-49.9-78.6-63.3c-88.2-30.7-216.7-143.8-251.2-224.3c-13.4-34.5-24.9-97.8-24.9-140s-9.6-76.7-19.2-76.7c-84.4,0-255,168.8-285.7,281.9c-11.5,40.3-21.1,168.7-21.1,283.8v212.9l88.2,23c170.7,46,327.9,193.7,372,350.9c65.2,224.3-61.4,469.8-295.3,575.3c-113.1,51.8-561.8,51.8-673.1,0c-174.5-78.6-291.5-233.9-310.6-410.4c-19.2-189.8,109.3-393.1,310.6-485.1c51.8-24.9,115-46,140-46c42.2,0,42.2-3.8,42.2-226.3c0-270.4,26.8-373.9,136.1-540.7c92-134.2,237.8-253.1,393.1-316.4c94-38.4,111.2-53.7,151.5-138.1c49.9-107.4,159.2-209,258.9-235.9c40.3-11.5,464-19.2,1031.6-19.2h962.6V-1223c0-180.2,3.8-197.5,47.9-239.7c24.9-26.8,59.4-47.9,72.9-47.9c23,0,30.7-44.1,36.4-203.3c5.7-195.6,9.6-205.2,59.4-249.3c42.2-36.4,76.7-46,159.2-46h103.5v-163v-163h-103.5c-118.9,0-193.7-46-212.8-132.3c-5.7-30.7-23-59.5-34.5-65.2c-13.4-3.8-467.9-111.2-1008.6-235.8c-763.2-174.5-999-235.9-1035.5-268.4c-40.3-34.5-49.9-61.4-55.6-168.8c-5.8-88.2-15.3-126.5-34.5-126.5c-13.4,0-72.9-17.3-132.3-40.3c-140-51.8-310.6-209-395-366.3c-61.4-115-65.2-130.4-65.2-312.5c0-174.5,5.8-201.3,55.6-303c74.8-147.7,218.6-287.6,373.9-364.3c111.2-53.7,143.8-61.4,289.5-61.4c145.7,0,178.3,7.7,289.6,61.4c153.4,76.7,304.9,230.1,377.7,383.5c44.1,95.9,51.8,136.1,51.8,283.8s-7.7,187.9-51.8,281.9c-63.3,134.2-189.8,274.2-320.2,350.9c-71,42.2-95.9,67.1-94,95.9c5.8,32.6,99.7,59.4,839.9,230.1c458.3,107.4,857.1,201.3,887.8,207.1c92,24.9,59.4-26.8-143.8-228.2c-187.9-186-203.2-195.6-310.6-216.7c-239.7-46-444.9-201.3-552.3-419.9c-57.5-115.1-63.3-143.8-63.3-301.1s5.7-186,61.4-299.1c76.7-153.4,230.1-304.9,383.5-377.7c94-44.1,138.1-51.8,274.2-51.8c145.7,0,176.4,5.8,293.4,63.3c157.2,76.7,301,218.6,372,366.3c47.9,95.9,53.7,128.5,53.7,299.1c0,172.6-5.8,201.3-55.6,303c-32.6,61.4-105.5,155.3-168.8,218.6l-115.1,107.4l130.4,130.4l130.4,132.3h260.8h260.8l130.4-132.3l130.4-130.4l-115.1-107.4c-63.3-63.3-136.2-157.2-168.8-218.6c-49.8-101.6-55.6-130.4-55.6-303s5.8-203.3,53.7-303c74.8-149.6,220.5-293.4,375.8-366.3c111.2-51.8,147.7-59.4,289.6-59.4c145.7,0,178.3,7.7,289.5,61.4c153.4,76.7,304.9,230.1,377.8,383.5c44.1,95.9,51.8,136.1,51.8,283.8c0,157.2-5.8,186-63.3,301.1c-107.4,218.6-312.6,373.9-552.3,419.9c-107.4,21.1-122.7,30.7-308.7,216.7c-205.2,201.3-237.8,253.1-143.8,228.2c28.8-5.7,427.6-99.7,885.9-207.1c738.2-170.7,834.1-197.5,839.9-230.1c1.9-28.8-23-53.7-93.9-95.9c-130.4-76.7-257-216.7-320.2-350.9c-44.1-94-51.8-134.2-51.8-281.9s7.7-187.9,51.8-283.8c72.9-153.4,224.4-306.8,377.8-383.5c111.2-53.7,143.8-61.4,289.5-61.4s178.3,7.7,287.6,61.4c153.4,74.8,303,220.5,375.8,366.2c49.9,99.7,55.6,128.5,55.6,301.1c0,182.2-3.8,197.5-65.2,312.5c-84.4,157.2-255,314.5-395,366.3c-59.4,23-118.9,40.3-132.3,40.3c-19.2,0-28.8,36.4-34.5,124.6c-5.8,95.9-17.2,136.1-47.9,166.8c-34.5,32.6-241.6,86.3-1052.7,274.2c-615.5,143.8-1016.3,245.4-1025.9,260.8c-9.6,15.3-17.3,42.2-17.3,59.4c0,61.4-92,111.2-203.3,111.2h-103.5v163v163h97.8c53.7,0,113.1,9.6,136.2,21.1c61.3,32.6,92,136.1,92,314.5c0,134.2,5.8,163,28.8,163c17.2,0,51.8,21.1,76.7,47.9c44.1,42.2,47.9,61.4,47.9,205.2v157.2l293.4-291.5l293.4-291.5h312.6c304.9,0,310.6,1.9,356.7,47.9c65.2,63.3,65.2,178.3,3.8,235.8c-40.3,38.3-65.2,42.2-283.8,42.2h-237.8l-163,163l-163,163h757.4c433.4,0,786.2,7.7,824.5,19.2c99.7,26.9,209,128.5,258.9,235.9c40.3,84.4,57.5,99.7,151.5,138.1c155.3,63.3,301,182.2,393.1,316.4C8557-154.9,8583.8-51.4,8583.8,219c0,222.4,0,226.3,44.1,226.3c65.2,0,226.3,84.4,299.2,155.3c80.5,80.5,155.3,235.8,155.3,326c0,176.4-120.8,362.4-291.5,446.8c-92,46-118.9,49.9-358.6,49.9c-232,0-270.4-5.7-356.7-46c-222.4-101.6-352.8-377.8-276.1-581c57.5-155.3,207.1-291.5,370.1-335.6l88.2-23V224.7c0-115.1-9.6-243.5-21.1-283.8c-30.7-113.1-201.3-281.9-285.7-281.9c-9.6,0-19.2,34.5-19.2,74.8c0,42.2-7.7,97.8-19.2,124.6C7882-59.1,7761.2,57.9,7671.1,92.4c-55.6,21.1-88.2,46-94,72.9c-5.8,23-109.3,726.7-230.1,1564.7c-122.7,838-237.8,1589.6-258.9,1670.2c-94,368.2-304.9,722.9-592.5,999c-414.2,400.8-884,604-1430.5,619.4C4929,5022.4,4764.1,5018.5,4702.8,5008.9z M5456.3,4644.6C6102.5,4487.4,6603,3985,6771.8,3327.3c26.8-103.5,469.8-3098.7,469.8-3173.5c0-32.6-118.9-34.5-2243.5-34.5c-2149.5,0-2243.5,1.9-2243.5,34.5c0,80.5,442.9,3068,471.7,3185c178.3,707.6,755.5,1225.3,1499.5,1344.2C4894.5,4709.8,5272.3,4690.6,5456.3,4644.6z M1853.3,1058.9c55.6-55.6,51.8-180.2-9.6-239.7c-44.1-46-57.5-47.9-278-47.9c-220.5,0-233.9,1.9-278,47.9c-59.4,57.5-63.3,157.2-7.7,228.2c38.3,49.9,42.2,49.9,287.6,49.9C1790.1,1097.2,1818.8,1093.4,1853.3,1058.9z M8716.2,1047.3c55.6-70.9,51.8-170.7-7.7-228.2c-44.1-46-57.5-47.9-278-47.9c-220.5,0-233.9,1.9-278,47.9c-61.4,59.4-65.2,184.1-9.6,239.7c34.5,34.5,63.3,38.3,285.7,38.3C8674,1097.2,8677.8,1097.2,8716.2,1047.3z M7602.1-450.2l-5.8-245.4H4998.1H2399.8l-5.8,245.4l-5.8,243.5h2609.7h2609.7L7602.1-450.2z M5324-1107.9v-76.7h-326h-326v76.7v76.7h326h326V-1107.9z M5166.8-1600.8l-5.8-72.9h-163h-163l-5.8,72.9l-5.8,71h174.5h174.5L5166.8-1600.8z M5163-2726.3c5.8-36.4,5.8-74.8-1.9-86.3c-5.7-11.5-76.7-21.1-163-21.1c-86.3,0-157.2,9.6-163,21.1c-7.7,11.5-7.7,49.9-1.9,86.3l13.4,65.2h151.5h151.5L5163-2726.3z M2679.8-3696.6c228.2-117,258.9-521.6,53.7-675c-220.5-163-529.2-101.6-632.8,128.5c-47.9,101.6-46,281.9,0,385.4c40.3,90.1,132.3,166.8,232,197.5C2422.8-3633.3,2587.7-3650.6,2679.8-3696.6z M4211.9-3660.2c113.1-24.9,207.1-99.7,251.2-197.5c47.9-107.4,47.9-295.3-1.9-393.1c-113.1-224.3-412.3-281.9-630.9-120.8c-197.5,147.7-174.5,556.1,40.3,667.3C3999-3637.2,4073.8-3627.6,4211.9-3660.2z M6112.1-3698.5c42.2-21.1,97.8-72.9,126.6-117c47.9-71,53.7-97.8,53.7-237.8c0-143.8-5.7-164.9-57.5-239.7c-172.6-243.5-567.6-220.5-699.9,42.2c-51.8,101.6-51.8,299.2,0,400.8C5632.8-3658.3,5899.3-3589.2,6112.1-3698.5z M7653.8-3660.2c178.3-47.9,278-187.9,278-391.2c0-251.2-157.2-412.3-404.6-412.3c-157.2,0-306.8,92-366.3,226.3c-55.6,124.6-42.2,314.5,28.8,421.9C7283.8-3673.6,7471.7-3610.3,7653.8-3660.2z"/><path d="M4489.9,3047.3c-111.2-28.8-264.6-187.9-293.4-306.8c-44.1-170.7,49.8-356.7,226.3-444.9c94-47.9,99.7-47.9,579.1-47.9h485.1l99.7,57.5c172.6,97.8,253.1,262.7,214.7,431.4c-30.7,130.4-180.2,280-308.7,312.5C5381.6,3078,4599.2,3076.1,4489.9,3047.3z M5450.6,2730.9c34.5-23,46-80.5,26.8-120.8c-19.2-34.5-46-36.4-479.4-36.4c-433.4,0-460.2,1.9-479.4,36.4c-26.8,51.8-24.9,71,11.5,105.5c24.9,26.8,94,30.7,464,30.7C5233.9,2746.3,5439.1,2738.6,5450.6,2730.9z"/></g></g>
</svg>