<?xml version="1.0" encoding="utf-8"?>
<!-- Svg Vector Icons : http://www.onlinewebfonts.com/icon -->
<!DOCTYPE svg PUBLIC "-//W3C//DTD SVG 1.1//EN" "http://www.w3.org/Graphics/SVG/1.1/DTD/svg11.dtd">
<svg version="1.1" xmlns="http://www.w3.org/2000/svg" xmlns:xlink="http://www.w3.org/1999/xlink" x="0px" y="0px" viewBox="0 0 1000 1000" enable-background="new 0 0 1000 1000" xml:space="preserve">
<metadata> Svg Vector Icons : http://www.onlinewebfonts.com/icon </metadata>
<g><g transform="translate(0.000000,512.000000) scale(0.100000,-0.100000)"><path d="M3049.9,5001.3c-203-47.9-453.9-231.7-557.3-409.8c-72.8-124.5-114.9-302.6-101.5-442.4c11.5-122.6,36.4-197.3,160.9-505.6c195.3-478.8,293-999.7,323.7-1725.6L2889,1600l-151.3-9.6c-180-11.5-273.9-53.6-379.2-168.5c-132.1-145.6-126.4-97.7-126.4-1271.7c0-584.1,5.7-1076.3,11.5-1093.5c32.5-84.3,67-86.2,1107-86.2h984.4l7.7-189.6c5.7-170.4,11.5-195.4,51.7-239.4c26.8-26.8,63.2-49.8,82.4-49.8c30.6,0,34.5-19.2,34.5-193.4c0-187.7,1.9-193.4,55.5-249c49.8-47.9,70.9-55.5,162.8-55.5h107.3V-2169v-162.8H4739c-141.7,0-226-55.5-227.9-147.5c0-28.7-15.3-47.9-42.1-53.6c-24.9-5.8-488.4-113-1030.4-239.4c-831.2-191.5-990.1-233.7-1018.9-268.1c-24.9-30.6-34.5-76.6-34.5-164.7c0-114.9-3.8-122.6-42.1-122.6c-24.9,0-97.7-24.9-160.9-55.5c-381.1-180-545.8-599.4-379.2-953.8c68.9-143.6,233.6-308.3,381.1-379.2c97.7-47.9,137.9-55.5,277.7-57.5c143.6,0,178.1,7.7,291.1,61.3c241.3,113,417.5,352.4,444.3,595.6c30.6,270.1-141.7,578.4-398.4,714.4c-65.1,32.6-88.1,55.5-84.3,84.3c5.7,32.6,107.2,59.4,858,233.7c469.2,107.2,871.4,201.1,896.3,206.8c80.4,19.2,42.1-38.3-153.2-233.7c-187.7-183.8-203-195.4-296.9-206.8c-237.5-30.6-465.4-204.9-584.1-444.3c-55.5-114.9-63.2-147.5-63.2-283.4c0-132.1,9.6-170.4,61.3-281.5c114.9-245.1,365.8-427.1,616.7-450.1c409.8-38.3,819.7,371.6,781.4,781.4c-15.3,166.6-105.3,342.8-241.3,475l-114.9,111.1l128.3,126.4l130.2,128.3h268.1h268.1l128.3-130.2l128.3-130.2l-86.2-70.9c-162.8-136-277.7-367.7-277.7-557.3c0-268.1,187.7-545.8,457.7-676c90-44,134.1-51.7,270-53.6c143.6,0,178.1,7.7,291.1,61.3c396.4,187.7,557.3,628.2,363.9,990.1c-109.2,203-354.3,377.3-568.8,406c-90,11.5-107.2,23-293,204.9c-195.4,195.4-233.7,252.8-151.3,233.7c23-5.7,425.1-99.6,894.4-206.8c750.8-174.3,852.2-201.1,858-233.7c3.8-28.7-19.2-51.7-86.2-86.2c-258.5-136-434.7-459.6-398.4-727.8c32.6-233.7,214.5-471.1,446.3-580.3c113-53.6,147.5-61.3,291.1-61.3c136,1.9,180,9.6,270,53.6c293,141.7,478.8,440.5,452,727.8c-13.4,159-120.7,369.6-239.4,475c-97.7,86.2-295,189.6-362,189.6c-40.2,0-44.1,7.7-44.1,122.6c0,88.1-9.6,134.1-34.4,164.7c-28.7,34.5-187.7,76.6-1018.9,268.1c-542,126.4-1005.5,233.7-1028.4,239.4c-28.7,5.7-44.1,24.9-44.1,53.6c-1.9,91.9-86.2,147.5-227.9,147.5h-97.7v162.8v162.8h107.3c91.9,0,113,7.7,162.8,55.5c53.6,55.5,55.5,61.3,55.5,249c0,174.3,3.9,193.4,34.5,193.4c19.2,0,55.5,21.1,80.4,47.9c38.3,42.1,47.9,76.6,57.5,203l9.6,155.1l283.5-289.2l283.4-289.2h306.4h308.3l55.5,55.5c70.9,72.8,74.7,157.1,7.7,222.2c-44,46-57.5,47.9-289.2,47.9h-243.2l-164.7,162.8l-164.7,162.8h791c831.2,0,879.1,3.8,911.6,86.2c5.8,17.2,11.5,509.4,11.5,1093.5c0,1174,5.8,1126.1-126.4,1271.7c-103.4,114.9-199.2,157-375.4,168.5l-149.4,9.6v116.8c0,216.4,38.3,737.3,67,932.7c65.1,425.2,164.7,783.3,316,1130c137.9,312.2,145.5,542,24.9,779.5c-97.7,193.4-356.2,390.7-582.2,442.4C6836.2,5026.2,3153.3,5026.2,3049.9,5001.3z M6891.7,4685.3c124.5-21.1,262.4-120.6,327.5-237.5c49.8-88.1,57.5-122.6,57.5-239.4c-1.9-114.9-11.5-159-78.5-308.3c-241.3-534.3-371.5-1187.4-400.3-1989.8l-13.4-344.7l-80.5-49.8c-93.8-59.4-176.2-159-212.6-260.5c-19.2-53.6-24.9-210.7-26.8-603.3V119.6H4999.5H3534.4V652c-1.9,392.6-7.7,549.7-26.8,603.3c-36.4,101.5-118.7,201.1-212.6,260.5l-80.4,49.8l-13.4,344.7c-30.6,810.1-160.9,1459.4-400.3,1989.8c-67,149.4-78.5,193.4-78.5,308.3c-1.9,114.9,5.7,149.4,57.5,239.4c61.3,111.1,206.8,218.3,312.2,235.6C3174.4,4696.8,6813.2,4696.8,6891.7,4685.3z M3159,1232.3c24.9-21.1,28.7-128.3,34.5-685.6l5.7-660.7l53.6-46l53.6-45.9h1693h1693l53.6,45.9l53.6,46l5.8,660.7c5.7,578.4,9.6,664.6,36.4,687.5c23,17.2,101.5,24.9,287.3,24.9c233.6,0,260.4-3.8,285.4-36.4c23-32.6,26.8-195.4,26.8-980.6v-942.2H4999.5H2557.7v942.2c0,974.8,0,984.4,76.6,1015C2687.9,1278.3,3128.4,1257.2,3159,1232.3z M5334.7-1106.1v-76.6h-335.1h-335.2v76.6v76.6h335.2h335.1V-1106.1z M5162.3-1604.1v-76.6h-162.8h-162.8v76.6v76.6h162.8h162.8V-1604.1z M5162.3-2743.6v-86.2h-162.8h-162.8v86.2v86.2h162.8h162.8V-2743.6z M2580.7-3655.2c214.5-46,339-266.2,281.5-501.8c-46-193.4-233.6-317.9-442.4-294.9c-241.3,28.7-379.2,203-354.3,446.2c19.2,181.9,126.4,314.1,289.2,352.4C2442.8-3632.2,2467.7-3632.2,2580.7-3655.2z M4329.2-3701.2c116.8-67,172.4-178.1,172.4-344.7c0-235.6-122.6-379.2-348.6-404.1c-170.4-21.1-346.6,65.1-417.5,201.1c-76.6,151.3-44,383,72.8,496C3934.7-3630.3,4166.4-3607.3,4329.2-3701.2z M6037.5-3662.9c130.2-38.3,224.1-141.7,254.7-283.4c82.4-367.7-283.4-633.9-618.6-450.1c-118.8,65.1-176.2,180-176.2,350.5c0,250.9,141.7,394.5,404.1,409.9C5922.6-3636.1,5983.9-3647.5,6037.5-3662.9z M7757.3-3701.2c116.8-67,172.4-180,172.4-344.7c0-235.6-122.6-379.2-348.5-404.1c-136-17.2-250.9,21.1-342.8,114.9c-212.6,210.7-122.6,595.6,155.1,674.1C7516-3626.5,7659.7-3643.7,7757.3-3701.2z"/><path d="M3907.9,4151c-70.9-69-65.1-164.7,13.4-229.8c72.8-61.3,155.1-55.5,222.1,21.1c49.8,55.5,53.6,103.4,13.4,178.1C4109,4214.2,3984.5,4229.5,3907.9,4151z"/><path d="M4884.6,4151c-61.3-59.4-61.3-143.6-1.9-212.6c93.8-111.1,279.6-38.3,279.6,109.2C5162.3,4181.6,4982.3,4250.6,4884.6,4151z"/><path d="M5872.8,4166.3c-23-19.2-46-65.1-51.7-103.4c-13.4-84.2,47.9-164.7,139.8-181.9c51.7-9.6,70.8-1.9,120.6,46c72.8,74.7,76.6,158.9,9.6,224.1C6035.6,4208.4,5932.2,4214.2,5872.8,4166.3z"/><path d="M3974.9,3381.1c-67-24.9-114.9-90-114.9-153.2c0-116.8,122.6-191.5,239.4-147.5c36.4,15.3,86.2,105.3,86.2,159C4185.6,3323.6,4053.4,3411.7,3974.9,3381.1z"/><path d="M4940.1,3375.4c-105.3-42.1-134.1-181.9-55.5-258.5c97.7-99.6,277.7-30.7,277.7,103.4C5162.3,3329.4,5035.9,3415.6,4940.1,3375.4z"/><path d="M5915,3375.4c-107.2-44-130.2-212.6-38.3-277.7c103.4-72.8,262.4,0,262.4,122.6C6139,3329.4,6012.6,3415.6,5915,3375.4z"/><path d="M3909.8,2523.1c-103.4-95.8-36.4-277.7,103.4-277.7c76.6,0,172.4,90,172.4,162.8c0,70.9-95.8,162.8-168.5,162.8C3984.5,2571,3940.4,2551.8,3909.8,2523.1z"/><path d="M4921,2548c-91.9-44-109.2-176.2-34.5-252.8c63.2-61.3,155.1-67,214.5-11.5C5242.7,2417.8,5095.3,2634.2,4921,2548z"/><path d="M5869,2515.4c-32.5-34.5-55.5-76.6-55.5-107.2c0-72.8,95.8-162.8,172.4-162.8c139.8,0,206.8,181.9,103.4,277.7C6018.4,2588.2,5939.9,2586.3,5869,2515.4z"/><path d="M3907.9,1699.6c-70.9-69-65.1-164.7,13.4-229.8c72.8-61.3,155.1-55.5,222.1,21.1c49.8,55.5,53.6,103.4,13.4,178.1C4109,1762.8,3984.5,1778.1,3907.9,1699.6z"/><path d="M4884.6,1699.6c-61.3-59.4-61.3-143.6-1.9-212.6c93.8-111.1,279.6-38.3,279.6,109.2C5162.3,1730.2,4982.3,1799.2,4884.6,1699.6z"/><path d="M5893.9,1734.1c-30.7-11.5-80.5-107.2-80.5-157.1c0-57.5,78.5-134.1,147.5-147.5c51.7-9.6,70.8-1.9,120.6,46c72.8,74.7,76.6,159,9.6,224.1C6047.1,1745.5,5959,1760.9,5893.9,1734.1z"/><path d="M3974.9,929.7c-67-24.9-114.9-90-114.9-153.2c0-116.8,122.6-191.5,239.4-147.5c36.4,15.3,86.2,105.3,86.2,159C4185.6,872.2,4053.4,960.3,3974.9,929.7z"/><path d="M4940.1,923.9c-105.3-42.1-134.1-181.9-55.5-258.5c97.7-99.6,277.7-30.7,277.7,103.4C5162.3,878,5035.9,964.2,4940.1,923.9z"/><path d="M5915,923.9c-107.2-44-130.2-212.6-38.3-277.7c103.4-72.8,262.4,0,262.4,122.6C6139,878,6012.6,964.2,5915,923.9z"/></g></g>
</svg>