<?xml version="1.0" encoding="utf-8"?>
<!-- Svg Vector Icons : http://www.onlinewebfonts.com/icon -->
<!DOCTYPE svg PUBLIC "-//W3C//DTD SVG 1.1//EN" "http://www.w3.org/Graphics/SVG/1.1/DTD/svg11.dtd">
<svg version="1.1" xmlns="http://www.w3.org/2000/svg" xmlns:xlink="http://www.w3.org/1999/xlink" x="0px" y="0px" viewBox="0 0 1000 1000" enable-background="new 0 0 1000 1000" xml:space="preserve">
<metadata> Svg Vector Icons : http://www.onlinewebfonts.com/icon </metadata>
<g><g transform="translate(0.000000,512.000000) scale(0.100000,-0.100000)"><path d="M1899.2,3144.2V1268.4h402h402l-11.5-80.4c-7.7-45.9-19.1-116.7-24.9-158.9l-13.4-76.6l-1276.7-5.7L100,943V120v-823h86.1h86.1v-2038.5V-4780h402h402v1747.5c0,1514,3.8,1762.9,28.7,1860.5c49.8,189.5,151.2,315.8,325.4,409.6c93.8,49.8,103.4,49.8,532.1,55.5l434.5,5.7v-134c0-179.9,53.6-317.7,172.3-447.9c49.8-55.5,137.8-126.3,195.2-157l101.4-57.4l819.2-5.7l817.3-5.7v-246.9v-248.8H4665h162.7v-162.7V-2330H4667h-162.7l-5.7-99.5l-5.7-101.4l-1012.5-233.5c-786.7-181.8-1022.1-241.2-1052.7-271.8c-28.7-28.7-40.2-70.8-45.9-164.6c-7.7-112.9-11.5-124.4-51.7-124.4c-68.9,0-269.9-111-359.8-199.1c-109.1-105.3-176.1-222-216.3-375.1c-26.8-105.3-28.7-143.6-9.6-246.9c45.9-248.8,202.9-451.7,438.3-562.7c112.9-53.6,147.4-61.3,290.9-61.3c145.5,0,178,7.7,289,61.3c153.1,76.6,304.3,229.7,377.1,382.8c44,95.7,51.7,135.9,51.7,283.3c0,149.3-7.7,185.7-53.6,279.4c-70.8,145.5-189.5,275.6-313.9,346.5c-74.6,42.1-101.4,68.9-101.4,99.5c0,40.2,42.1,53.6,851.8,239.3c468.9,109.1,869,201,890,206.7c78.5,21.1,34.4-45.9-153.1-233.5c-183.8-181.8-195.2-191.4-310.1-214.4c-248.8-49.8-461.3-216.3-566.6-440.2c-44-95.7-51.7-135.9-51.7-292.9c0-166.5,5.7-191.4,61.3-296.7c72.7-143.6,239.3-302.4,382.8-369.4c93.8-44,137.8-51.7,273.7-51.7c145.5,0,176.1,5.7,292.8,63.2c155,76.6,292.9,210.5,369.4,361.8c49.8,101.4,55.5,128.3,55.5,302.4c0,181.8-3.8,197.1-65.1,310.1c-34.5,65.1-111,164.6-168.4,218.2l-105.3,99.5l130.2,130.1l130.2,132.1H5000h260.3l130.2-132.1l130.1-130.1l-114.8-107.2c-63.2-63.2-135.9-157-168.4-218.2c-49.8-101.4-55.5-130.2-55.5-302.4c0-170.4,5.7-202.9,53.6-298.6c70.8-147.4,214.4-289,371.3-365.6c116.8-57.4,147.4-63.2,292.9-63.2c135.9,0,179.9,7.7,273.7,51.7c143.6,67,298.6,216.3,379,365.6c61.3,111,65.1,130.1,65.1,300.5c0,166.5-5.7,193.3-63.2,310.1c-107.2,218.2-312,373.2-551.2,419.2c-107.2,21.1-122.5,30.6-308.2,216.3c-193.3,187.6-237.3,256.5-158.9,235.4c21-5.7,421.1-97.6,890-206.7c809.6-185.7,851.8-199.1,851.8-239.3c0-30.6-26.8-57.4-101.4-99.5c-124.4-70.8-243.1-201-313.9-346.5c-45.9-93.8-53.6-130.1-53.6-279.4c0-157,5.7-185.7,61.3-298.6c76.6-153.1,231.6-306.3,382.8-377.1c91.9-42.1,137.8-49.8,273.7-51.7c143.6,0,178,7.7,287.1,59.3c229.7,111,369.4,279.5,430.7,522.6c57.4,220.1-19.1,463.2-201,648.9c-97.6,99.5-298.6,214.4-373.2,214.4c-40.2,0-44,11.5-51.7,124.4c-5.7,93.8-17.2,135.9-45.9,164.6c-30.6,30.6-266.1,90-1052.7,271.8L5507.2-2531l-5.7,101.4l-5.7,99.5h-162.7h-160.8v162.7v162.7H5335h162.7v248.8v248.8h780.9h779l114.8,55.5c143.6,68.9,279.4,206.7,346.4,356c42.1,90,51.7,141.7,51.7,254.6v139.7l451.7-5.7c447.9-5.7,451.7-5.7,549.3-57.4c122.5-63.2,260.3-216.3,308.2-336.9c32.5-84.2,34.5-195.2,40.2-1883.4l3.8-1795.4h402h402v2038.5V-703h86.1h86.1v823v823h-86.1h-86.1v723.5V2392l-325.4,11.5c-178,5.7-470.8,5.7-650.8,0l-325.4-11.5v-725.4V943H7873h-553.2l-21.1,143.6c-11.5,80.4-21,153.1-21,162.7c0,11.5,160.8,19.1,411.5,19.1h411.5v1875.8V5020H5000H1899.2V3144.2z M7775.4,3555.7V2416.9h-335c-183.7,0-335,3.8-335,7.7c0,1.9-38.3,260.3-84.2,570.4c-55.5,371.3-97.6,593.4-122.5,652.7c-57.4,132.1-195.2,268-335,331.1l-118.7,55.5H4990.4H3535.7l-109.1-51.7c-59.3-26.8-145.5-84.2-191.4-128.2c-151.2-137.8-176.1-218.2-273.7-853.7c-47.9-312-86.1-570.4-86.1-576.1c0-3.8-145.5-7.7-325.4-7.7h-325.4v1138.9v1138.9H5000h2775.4V3555.7z M6378.1,3697.4c93.8-21.1,160.8-72.7,204.8-156.9c15.3-30.6,82.3-430.7,151.2-890c67-459.4,151.2-1033.6,189.5-1276.7c239.3-1594.4,323.5-2174.4,323.5-2262.4c0-109.1-32.5-172.3-130.2-243.1c-51.7-40.2-67-40.2-2084.4-45.9c-1117.8-1.9-2061.4,0-2095.9,5.7c-155,28.7-250.7,199.1-214.4,388.6c9.6,53.6,74.6,468.9,143.6,926.4c68.9,455.5,145.5,966.6,172.3,1135c78.5,505.3,135.9,884.3,239.3,1569.5c63.2,424.9,109.1,669.9,130.2,706.3c42.1,70.8,116.8,126.3,197.2,145.5C3704.2,3722.3,6274.8,3720.4,6378.1,3697.4z M2816.1,2049.4c0-13.4-15.3-118.7-32.5-235.4l-34.5-210.5l-262.2-5.7l-262.2-5.7v241.2v239.3h296.7C2747.1,2072.3,2818,2066.6,2816.1,2049.4z M7775.4,1833.1v-239.3h-273.7h-275.6l-23,168.4c-13.4,91.9-28.7,199.1-34.4,239.3l-11.5,70.8h310.1h308.2V1833.1z M8923.8,1507.7V943h-86.1h-86.1v564.6v564.6h86.1h86.1V1507.7z M9402.3,1507.7V943h-76.6h-76.6v564.6v564.6h76.6h76.6V1507.7z M2588.3,579.4c0-21.1-30.6-235.4-67-478.5c-36.4-243.1-67-449.8-67-459.4c0-11.5-168.4-19.1-444.1-19.1c-417.3,0-453.6-3.8-572.3-45.9c-245-86.1-449.8-262.2-570.4-490c-116.8-220.1-116.8-199.1-116.8-1946.6v-1594.4h-76.6h-76.6v2038.5v2038.5h-86.1h-86.1V120v497.7h1081.4C2571.1,617.7,2588.3,617.7,2588.3,579.4z M9264.5,598.5h310.1V110.4v-488.1h-86.1h-86.1v-2038.5v-2038.5h-76.6h-76.6v1594.4c0,1747.5,0,1726.5-116.7,1946.6c-114.8,214.4-302.4,382.8-535.9,482.3c-95.7,40.2-139.7,44-591.5,53.6l-488.1,9.6l-61.3,411.5c-32.5,225.9-67,449.8-72.7,495.7l-13.4,84.2l792.4-11.5C8596.5,604.3,9092.3,598.5,9264.5,598.5z M5168.4-1596.9l-5.7-72.7H5000h-162.7l-5.7,72.7l-5.7,70.8H5000h174.2L5168.4-1596.9z M5164.6-2720.5c5.8-36.4,5.8-74.6-1.9-86.1c-5.7-11.5-76.6-21-162.7-21s-157,9.6-162.7,21c-7.7,11.5-7.7,49.8-1.9,86.1l13.4,65.1H5000h151.2L5164.6-2720.5z M2701.2-3704.3c275.6-168.4,208.6-650.8-99.5-727.3c-181.8-45.9-313.9-15.3-426.8,99.5c-202.9,202.9-122.5,587.6,141.6,671.8C2442.8-3620.1,2594-3637.3,2701.2-3704.3z M4215.2-3652.6c183.8-42.1,287.1-183.8,287.1-390.5c0-310.1-260.3-486.2-557-382.8c-160.8,57.4-245,187.6-246.9,379c0,216.3,99.5,348.4,296.7,398.1C4077.4-3629.7,4117.6-3629.7,4215.2-3652.6z M6112.1-3690.9c227.8-114.8,258.4-518.7,53.6-671.8c-218.2-160.8-516.8-103.3-629.7,120.6c-49.8,97.6-49.8,285.2-1.9,392.4C5622.1-3654.5,5895.8-3579.9,6112.1-3690.9z M7733.3-3683.2c155-78.5,235.4-271.8,193.3-470.9c-70.8-325.4-537.9-407.7-735-130.1c-51.7,74.6-57.4,95.7-57.4,227.8c0,107.2,9.6,168.4,36.4,220.1c40.2,80.4,147.4,162.7,245,187.6C7503.6-3627.7,7651-3643,7733.3-3683.2z"/><path d="M846.5,257.8c-38.3-19.1-74.6-55.5-84.2-84.2C735.5,95.1,768,20.5,846.5-17.8c59.3-30.6,132.1-34.5,641.2-34.5s581.9,3.8,641.2,34.5c38.3,19.1,74.6,55.5,84.2,86.1c26.8,76.6-5.7,151.2-84.2,189.5c-59.3,30.6-132.1,34.4-641.2,34.4S905.8,288.4,846.5,257.8z"/><path d="M7896,278.9c-93.8-17.2-147.4-149.3-99.5-239.3c44-82.3,114.8-91.9,715.9-91.9c451.7,0,580,5.7,631.6,28.7c130.2,53.6,134,220.1,9.6,281.4c-59.3,30.6-130.2,34.4-641.2,32.5C8196.5,288.4,7918.9,282.7,7896,278.9z"/></g></g>
</svg>