<?xml version="1.0" encoding="utf-8"?>
<!-- Svg Vector Icons : http://www.onlinewebfonts.com/icon -->
<!DOCTYPE svg PUBLIC "-//W3C//DTD SVG 1.1//EN" "http://www.w3.org/Graphics/SVG/1.1/DTD/svg11.dtd">
<svg version="1.1" xmlns="http://www.w3.org/2000/svg" xmlns:xlink="http://www.w3.org/1999/xlink" x="0px" y="0px" viewBox="0 0 1000 1000" enable-background="new 0 0 1000 1000" xml:space="preserve">
<metadata> Svg Vector Icons : http://www.onlinewebfonts.com/icon </metadata>
<g><g transform="translate(0.000000,512.000000) scale(0.100000,-0.100000)"><path d="M2892.9,4998.5c-120.7-38.3-185.8-78.5-283.5-176.2c-113-113-187.7-266.3-199.2-408c-5.7-84.3,63.2-498,318-1869.5c180.1-969.2,341-1798.7,358.2-1844.6c44.1-116.8,199.2-279.7,329.5-342.9c107.3-53.6,114.9-53.6,559.3-63.2l450.1-9.6l5.7-80.5l5.8-80.4l-848.6-5.8l-848.6-5.7L2642,60.3c-120.7-63.2-268.2-224.1-296.9-323.7c-13.4-40.2-34.5-74.7-49.8-74.7c-90,0-252.8,159-289.2,285.4c-13.4,40.2-23,168.6-23,287.3v212.6h172.4c182,0,272,26.8,295,86.2c5.8,17.2,11.5,151.3,11.5,298.8v266.3h95.8c105.4,0,199.2,38.3,218.4,86.2c24.9,67,11.5,145.6-36.4,191.6c-51.7,53.6,7.7,49.8-900.3,49.8c-967.3,0-906,3.8-957.8-49.8c-67-65.1-63.2-149.4,7.7-222.2c49.8-47.9,70.9-55.5,162.8-55.5h107.3V828.4V558.3l55.5-55.5c55.6-53.6,61.3-55.5,247.1-55.5h191.6l7.7-262.4c5.7-224.1,13.4-279.6,49.8-360.1c105.4-228,295-400.4,530.6-478.9c101.5-34.5,136-57.5,182-122.6c32.6-42.1,93.9-103.4,137.9-136c149.4-109.2,201.1-114.9,986.5-114.9h714.5v-172.4c0-201.1,26.8-273.9,114.9-302.6l57.5-21.1v-193.4c0-180.1,3.8-197.3,47.9-239.4c38.3-40.2,65.1-47.9,153.2-47.9h105.4v-162.8v-162.8H4636c-88.1,0-114.9-7.7-153.2-47.9c-26.8-24.9-47.9-69-47.9-95.8s-1.9-47.9-3.8-47.9c-3.8,0-465.5-107.3-1026.7-237.5c-817.9-187.7-1030.5-243.3-1063.1-275.8c-30.6-30.7-42.1-70.9-47.9-166.7c-5.8-88.1-15.3-124.5-34.5-124.5c-13.4,0-72.8-17.2-132.2-40.2c-139.8-51.7-310.3-208.8-394.6-365.9c-61.3-114.9-65.1-130.2-65.1-312.2c0-178.1,3.8-199.2,59.4-306.5c74.7-143.7,241.4-302.6,385-369.7c93.9-44.1,137.9-51.7,273.9-51.7c145.6,0,178.1,7.7,287.3,61.3c153.2,74.7,302.6,220.3,375.4,365.8c49.8,99.6,55.5,128.3,55.5,300.7c0,174.3-5.7,201.1-55.5,295c-69,132.2-218.4,291.1-329.5,348.6c-63.2,34.5-84.3,55.6-80.4,84.3c5.7,32.6,105.4,61.3,896.5,243.3c488.5,113,892.6,201.1,898.4,195.4c5.8-3.8-84.3-103.4-199.2-218.4c-195.4-195.4-212.6-208.8-300.7-220.3c-231.8-32.6-471.2-216.4-584.2-446.3c-46-93.9-53.6-132.2-53.6-281.6c0-157.1,5.7-185.8,63.2-300.7c74.7-151.3,220.3-295,383.1-371.6c91.9-46,134.1-53.6,272-55.6c143.7,0,178.1,7.7,291.2,61.3c235.6,111.1,392.7,314.1,438.6,563.1c19.2,103.4,17.2,141.8-9.6,247.1c-47.9,185.8-157.1,350.5-298.8,446.3l-46,32.6l132.2,134.1l132.2,134.1h260.5h260.5l130.3-132.2l132.2-134.1l-107.2-97.7c-72.8-65.1-130.3-141.7-170.5-226c-57.5-114.9-63.2-143.7-63.2-300.7c0-157.1,5.7-185.8,61.3-298.8c76.6-153.3,229.9-304.6,383.1-377.4c93.9-44.1,137.9-51.7,273.9-51.7c141.7,0,178.1,7.7,289.2,59.4c302.6,143.7,477,450.1,436.7,764.3c-38.3,302.6-331.4,586.1-655.1,634c-70.9,11.5-105.4,36.4-277.8,205c-174.3,174.3-239.4,264.3-170.5,239.4c11.5-5.7,413.8-99.6,888.8-208.8c823.7-189.6,867.7-201.1,867.7-241.4c0-30.6-21.1-53.6-78.5-84.3c-199.2-99.6-375.4-363.9-394.6-590c-28.7-312.2,208.8-649.3,528.7-748.9c145.6-46,249-47.9,385-7.7c218.4,65.1,388.8,218.4,492.3,440.6c44.1,93.9,51.7,139.8,53.6,266.3c0,132.2-9.6,170.5-61.3,281.6c-36.4,76.6-99.6,168.6-157.1,226c-99.6,99.6-300.7,210.7-379.3,210.7c-40.2,0-44.1,9.6-44.1,105.4c0,120.7-26.8,187.7-84.3,218.4c-21.1,11.5-475,120.7-1007.5,241.3c-532.5,122.6-982.7,226-1001.8,231.8c-17.2,5.7-32.6,26.8-32.6,47.9c0,21.1-24.9,65.1-55.6,95.8c-49.8,47.9-70.9,55.6-162.8,55.6h-107.2v162.8v162.8h107.2c91.9,0,113,7.7,162.8,55.5c53.6,55.6,55.6,61.3,55.6,249c0,160.9,5.7,193.5,28.7,193.5c17.2,0,51.7,21.1,76.6,47.9c44.1,42.1,47.9,61.3,47.9,205v157.1l293.1-291.1l293.1-291.2h312.2h312.2l55.5,55.5c30.7,30.7,55.6,74.7,55.6,97.7c0,55.5-49.8,145.6-86.2,160.9c-17.2,5.8-136,11.5-266.3,11.5h-231.8l-160.9,160.9l-160.9,162.8l553.6,5.8l553.6,5.7l95.8,51.7c95.8,49.8,277.8,224.1,277.8,264.3c0,13.4,15.3,17.2,38.3,9.6c61.3-19.2,249,24.9,379.3,88.1c157.1,76.6,310.3,233.7,390.8,396.5c61.3,122.6,63.2,137.9,68.9,390.8l7.7,264.3h191.6c185.8,0,191.6,1.9,247.1,55.5l55.6,55.5v270.1v270.1h107.3c92,0,113,7.7,162.8,55.5c70.9,72.8,74.7,157.1,7.7,222.2c-49.8,51.7-23,49.8-957.8,49.8c-875.4,0-850.5,1.9-900.3-49.8c-47.9-46-61.3-124.5-36.4-191.6c19.2-47.9,113-86.2,218.4-86.2h95.8V832.3c0-147.5,5.7-281.6,11.5-298.8c23-59.4,113-86.2,295-86.2h172.4V234.6c0-256.7-21.1-337.1-118.8-448.2c-74.7-86.2-182-137.9-300.7-147.5c-59.4-5.7-67,0-90,65.1c-59.4,172.4-201.1,316-373.5,381.2c-86.2,32.6-160.9,36.4-907.9,36.4h-814.1v86.2V294h507.6c465.5,0,515.3,3.8,613,40.2c136,49.8,298.8,199.2,362,329.5c70.9,149.4,710.6,3618.4,693.4,3765.9c-24.9,216.5-187.7,438.6-394.6,536.3l-105.4,49.8l-2059.2,3.8C3404.4,5021.5,2954.2,5017.6,2892.9,4998.5z M7130,4653.7c74.7-46,139.8-159,139.8-247.1c0-128.3-651.3-3580.1-685.7-3641.4c-19.2-32.6-63.2-78.5-99.6-101.5l-63.2-44.1H5000H3578.7l-63.2,44.1c-36.4,23-80.5,69-99.6,101.5c-36.4,63.2-685.8,3514.9-685.8,3645.2c0,70.9,55.6,182,113,226c17.2,13.4,57.5,32.6,88.1,42.1c34.5,11.5,883,17.2,2097.5,15.3C6999.8,4690.1,7070.7,4688.2,7130,4653.7z M2136.3,935.7V772.9h-325.6h-325.6v162.8v162.8h325.6h325.6V935.7z M8515,935.7V772.9h-325.6h-325.6v162.8v162.8h325.6H8515V935.7z M5086.2,198.2v-76.6h-162.8h-162.8v76.6v76.6h162.8h162.8V198.2z M7124.3-259.6c109.2-103.4,101.5-306.5-13.4-392.7l-53.6-40.2h-2132c-2327.3,0-2204.7-5.7-2264.1,109.2c-36.4,69-34.5,195.4,3.8,266.3c59.4,116.9-47.9,113,2281.4,107.3l2128.1-3.8L7124.3-259.6z M5239.4-1104.3v-76.6h-325.6h-325.6v76.6v76.6h325.6h325.6V-1104.3z M5086.2-1602.3v-76.6h-162.8h-162.8v76.6v76.6h162.8h162.8V-1602.3z M5076.6-2742v-76.6l-157.1-5.7l-159-5.7v88.1v88.1l159-5.7l157.1-5.8V-2742z M2592.2-3688.3c134.1-69,195.4-182,195.4-360.1c-1.9-247.1-160.9-408-402.3-408c-245.2,0-400.3,160.9-402.3,411.8c0,258.6,182,427.2,436.7,402.3C2477.3-3648.1,2553.9-3669.2,2592.2-3688.3z M4132.3-3653.8c293.1-63.2,398.4-461.7,180.1-680c-210.7-210.7-595.7-132.2-678.1,137.9c-74.7,249,46,490.4,272,544C3994.4-3630.8,4019.3-3630.8,4132.3-3653.8z M5938.6-3653.8c103.4-28.7,193.5-99.6,239.4-189.6c51.7-101.5,51.7-298.8,0-400.3c-113-224.1-411.8-281.6-630.2-120.7c-199.2,147.5-174.3,553.6,40.2,668.5C5701.1-3638.5,5823.7-3623.2,5938.6-3653.8z M7585.9-3659.6c318-97.7,373.5-574.7,82.4-739.4c-122.6-70.9-316.1-69-442.5,5.7c-201.1,118.8-247.1,434.8-86.2,618.7c69,78.6,114.9,105.4,206.9,124.5C7451.8-3628.9,7488.3-3630.8,7585.9-3659.6z"/><path d="M4358.3,3697.9c-151.3-76.6-101.5-300.7,67-300.7c153.2,0,220.3,178.1,103.4,275.8C4463.7,3728.5,4429.2,3734.3,4358.3,3697.9z"/><path d="M5335.2,3697.9c-26.8-13.4-59.4-47.9-72.8-78.5c-76.6-157.1,130.3-298.8,254.8-174.3c80.5,78.5,59.4,201.1-42.1,254.8C5423.3,3728.5,5394.6,3728.5,5335.2,3697.9z"/><path d="M4808.4,3176.8c-47.9-46-61.3-124.5-36.4-191.5c15.3-36.4,105.4-86.2,159-86.2c57.5,0,134.1,78.5,147.5,147.5c9.6,51.7,1.9,70.9-46,120.7C4957.9,3240,4873.6,3243.9,4808.4,3176.8z"/><path d="M4358.3,2711.4c-162.8-80.4-101.5-300.7,82.4-295c76.6,1.9,147.5,78.5,147.5,157.1c0,61.3-65.1,143.7-124.5,160.9C4442.6,2740.1,4394.7,2730.5,4358.3,2711.4z"/><path d="M5342.9,2719c-80.4-34.5-116.8-124.5-84.3-203c67-162.8,306.5-116.9,306.5,57.5C5565.1,2692.2,5452.1,2765,5342.9,2719z"/><path d="M4842.9,2228.7c-91.9-36.4-111.1-182-34.5-258.6c65.1-67,149.4-63.2,224.1,9.6c47.9,49.8,55.5,69,46,120.7C5057.5,2213.3,4950.2,2272.7,4842.9,2228.7z"/><path d="M4343,1736.4c-30.6-11.5-80.5-107.3-80.5-157.1c0-55.5,76.6-134.1,145.6-147.5c84.3-15.3,180.1,67,180.1,157.1C4588.2,1707.6,4461.7,1784.3,4343,1736.4z"/><path d="M5300.7,1711.5c-86.2-80.5-65.1-214.5,40.2-264.3c107.3-51.7,224.1,26.8,224.1,149.4C5565.1,1730.6,5400.3,1803.4,5300.7,1711.5z"/></g></g>
</svg>