<?xml version="1.0" encoding="utf-8"?>
<!-- Svg Vector Icons : http://www.onlinewebfonts.com/icon -->
<!DOCTYPE svg PUBLIC "-//W3C//DTD SVG 1.1//EN" "http://www.w3.org/Graphics/SVG/1.1/DTD/svg11.dtd">
<svg version="1.1" xmlns="http://www.w3.org/2000/svg" xmlns:xlink="http://www.w3.org/1999/xlink" x="0px" y="0px" viewBox="0 0 1000 1000" enable-background="new 0 0 1000 1000" xml:space="preserve">
<metadata> Svg Vector Icons : http://www.onlinewebfonts.com/icon </metadata>
<g><g transform="translate(0.000000,512.000000) scale(0.100000,-0.100000)"><path d="M3028.2,5004.4c-285.4-67.1-555.6-346.8-624.5-647.5c-67.1-291.2,84.3-636,364-825.7l114.9-78.5l-1.9-1258.7c0-2208.9-5.7-1971.3,49.8-2025l46-47.9h768.2h768.2l-5.8-80.5l-5.7-82.4l-814.2-9.6c-777.8-9.6-818-11.5-900.4-49.8c-136-65.1-260.5-185.8-329.5-327.6c-53.6-107.3-63.2-151.3-69-302.7c-7.7-164.7-5.8-178.2,40.2-231.8l47.9-55.6l929.1-5.7l929.1-5.7l7.7-187.7c5.7-170.5,11.5-195.4,51.7-239.5c26.8-26.8,63.2-49.8,82.4-49.8c30.6,0,34.5-19.2,34.5-193.5c0-187.7,1.9-193.5,55.6-249c49.8-47.9,70.9-55.6,162.8-55.6h107.3v-162.8v-162.8H4739c-141.8,0-226.1-55.5-228-147.5c0-28.7-15.3-47.9-42.2-53.6c-24.9-5.7-488.5-113-1030.7-239.5c-831.4-191.6-990.5-233.7-1019.2-268.2c-24.9-30.6-34.5-76.6-34.5-164.7c0-114.9-3.8-122.6-42.1-122.6c-24.9,0-97.7-24.9-160.9-55.6c-381.2-180.1-546-599.6-379.3-954c69-143.7,233.7-308.4,381.2-379.3c97.7-47.9,137.9-55.6,277.8-57.5c143.7,0,178.2,7.7,291.2,61.3c241.4,113,417.6,352.5,444.4,595.8c30.7,270.1-141.8,578.6-398.5,714.6c-65.1,32.6-88.1,55.6-84.3,84.3c5.7,32.6,107.3,59.4,858.3,233.7c469.4,107.3,871.7,201.2,896.6,206.9c80.5,19.2,42.2-38.3-153.3-233.7c-187.7-183.9-203.1-195.4-296.9-206.9c-237.5-30.7-465.5-205-584.3-444.5c-55.6-115-63.2-147.5-63.2-283.5c0-132.2,9.6-170.5,61.3-281.6c115-245.2,365.9-427.2,616.9-450.2c410-38.3,820,371.7,781.6,781.6c-15.3,166.7-105.4,342.9-241.4,475.1l-114.9,111.1l128.3,126.4l130.3,128.3h268.2h268.2l128.4-130.3l128.3-130.3l-86.2-70.9c-162.8-136-277.8-367.8-277.8-557.5c0-268.2,187.8-546,457.9-676.3c90-44.1,134.1-51.7,270.1-53.6c143.7,0,178.2,7.7,291.2,61.3c396.6,187.7,557.5,628.4,364,990.5c-109.2,203.1-354.4,377.4-569,406.1c-90,11.5-107.3,23-293.1,205c-195.4,195.4-233.7,252.9-151.3,233.7c23-5.7,425.3-99.6,894.6-206.9c751-174.3,852.5-201.2,858.3-233.7c3.8-28.7-19.2-51.7-86.2-86.2c-258.6-136-434.9-459.8-398.5-728c32.6-233.7,214.6-471.3,446.4-580.5c113-53.6,147.5-61.3,291.2-61.3c136,1.9,180.1,9.6,270.1,53.6c293.1,141.8,478.9,440.6,452.2,728c-13.4,159-120.7,369.7-239.5,475.1c-97.7,86.2-295,189.7-362.1,189.7c-40.2,0-44.1,7.7-44.1,122.6c0,88.1-9.6,134.1-34.5,164.7c-28.7,34.5-187.8,76.6-1019.2,268.2c-542.1,126.4-1005.8,233.7-1028.8,239.5c-28.7,5.7-44.1,24.9-44.1,53.6c-1.9,92-86.2,147.5-228,147.5h-97.7v162.8v162.8h107.3c92,0,113,7.7,162.9,55.6c53.6,55.5,55.5,61.3,55.5,249c0,174.3,3.9,193.5,34.5,193.5c19.2,0,55.6,21.1,80.4,47.9c38.3,42.1,47.9,76.6,57.5,203.1l9.6,155.2l283.5-289.3l283.5-289.3h306.5h308.5l55.5,55.6c70.9,72.8,74.7,157.1,7.7,222.2c-44,46-57.5,47.9-289.3,47.9h-241.4l-162.8,159l-162.8,157.1l731.8,9.6l731.8,9.6l47.9,55.6c46,53.6,47.9,67.1,40.2,231.8c-5.8,151.4-15.3,195.4-69,302.7c-69,141.8-193.5,262.5-329.5,327.6c-82.4,38.3-122.6,40.2-900.4,49.8l-814.2,9.6l-5.7,82.4l-5.8,80.5h768.2h768.2l46,47.9c55.6,53.6,49.8-166.7,49.8,2021.1l-1.9,1274l97.7,57.5c182,107.3,335.3,327.6,383.2,547.9c70.9,331.4-132.2,705-478.9,875.5l-143.7,70.9l-1934.9,3.8C3909.4,5021.6,3072.3,5014,3028.2,5004.4z M7032.1,4648c111.1-59.4,193.5-160.9,229.9-287.4c55.6-191.6,7.7-385.1-130.3-517.3c-130.3-126.4-34.5-120.7-2132.2-120.7c-2097.8,0-2002-5.7-2132.2,120.7c-137.9,132.2-185.8,325.7-130.3,517.3c46,160.9,157.1,272,318,321.9c26.8,7.7,913.8,13.4,1973.2,11.5l1925.3-3.8L7032.1,4648z M3875,3322.3c30.6-69,122.6-111.1,191.6-86.2c28.7,9.6,69,46,90,78.5l38.3,61.3l321.8,1.9c275.9,0,319.9-3.8,319.9-28.7c0-55.6,90-124.5,159-124.5c70.9,0,166.7,70.9,166.7,124.5c0,24.9,44.1,28.7,321.9,28.7l319.9-1.9l38.3-61.3c21.1-32.6,61.3-69,90.1-78.5c69-24.9,160.9,17.2,191.6,86.2l24.9,55.5h320h321.8v-153.3c0-130.3-5.7-157.1-32.6-166.7c-69-23-120.7-88.1-120.7-149.4c0-72.8,65.1-162.8,116.9-162.8c32.6,0,36.4-15.3,36.4-172.4c0-149.4-3.8-172.4-32.6-172.4c-17.2,0-51.7-19.2-76.6-42.1c-86.2-80.4-44.1-228,76.6-270.1c26.8-9.6,32.6-36.4,32.6-176.3c0-134.1-5.7-162.8-28.7-162.8c-55.5,0-124.5-90-124.5-160.9c0-49.8,13.4-76.6,59.4-114.9c32.6-26.8,67.1-49.8,76.6-49.8s17.2-72.8,17.2-162.8c0-145.6-3.8-162.8-34.5-162.8c-53.7,0-120.7-82.4-122.6-149.4c-1.9-74.7,47.9-153.3,109.2-168.6c46-11.5,47.9-17.3,47.9-172.4V446.8h-325.7c-272,0-325.7,3.8-325.7,26.8c0,15.3-21.1,51.7-46,80.5c-34.5,40.2-61.3,53.6-116.9,53.6c-55.5,0-82.4-13.4-116.9-53.6c-24.9-28.7-46-65.1-46-80.5c0-23-53.6-26.8-325.7-26.8c-272,0-325.7,3.8-325.7,26.8c0,15.3-21.1,51.7-46,80.5c-34.5,40.2-61.3,53.6-116.9,53.6c-55.6,0-82.4-13.4-116.9-53.6c-24.9-28.7-46-65.1-46-80.5c0-23-53.6-26.8-325.7-26.8h-325.7l-11.5,46c-28.7,120.7-187.7,157.1-268.2,61.3c-24.9-28.7-46-65.1-46-80.5c0-23-53.6-26.8-325.7-26.8h-325.7v160.9c0,145.6,3.8,162.8,38.3,174.3c114.9,36.4,153.3,183.9,67.1,268.2c-24.9,26.8-59.4,47.9-76.6,47.9c-23,0-28.7,28.7-28.7,162.8c0,90,7.7,162.8,17.2,162.8c9.6,0,44.1,23,76.6,49.8c46,38.3,59.4,65.1,59.4,114.9c0,70.9-69,160.9-124.5,160.9c-23,0-28.7,28.7-28.7,162.8c0,155.2,1.9,164.8,46,182c59.4,21.1,107.3,92,107.3,155.2c0,63.2-67.1,151.3-116.9,151.3c-32.6,0-36.4,15.3-36.4,172.4c0,157.1,3.8,172.4,36.4,172.4c51.7,0,116.9,90,116.9,162.8c0,61.3-51.7,126.5-118.8,149.4c-28.7,9.6-34.5,36.4-34.5,166.7v153.3h321.8h319.9L3875,3322.3z M5162.3,44.5v-76.6h-162.8h-162.8v76.6v76.6h162.8h162.8V44.5z M7127.9-407.6c76.6-36.4,137.9-130.3,145.6-220.3l5.7-65.1L4993.8-695l-2287.4-3.8l13.4,70.9c17.2,97.7,76.6,183.9,149.4,220.3c55.6,26.8,274,30.6,2126.5,30.6C6854-377,7068.5-380.8,7127.9-407.6z M5334.8-1105v-76.6h-335.2h-335.3v76.6v76.6h335.3h335.2V-1105z M5162.3-1603.1v-76.6h-162.8h-162.8v76.6v76.6h162.8h162.8V-1603.1z M5162.3-2743v-86.2h-162.8h-162.8v86.2v86.2h162.8h162.8V-2743z M2579.9-3654.9c214.6-46,339.1-266.3,281.6-501.9c-46-193.5-233.7-318-442.5-295c-241.4,28.7-379.3,203.1-354.4,446.4c19.2,182,126.4,314.2,289.3,352.5C2442-3631.9,2466.9-3631.9,2579.9-3654.9z M4329-3700.8c116.9-67,172.4-178.2,172.4-344.8c0-235.6-122.6-379.3-348.7-404.2c-170.5-21.1-346.7,65.1-417.6,201.2c-76.6,151.3-44.1,383.2,72.8,496.2C3934.3-3630,4166.2-3607,4329-3700.8z M6037.9-3662.5c130.2-38.3,224.1-141.8,254.8-283.5c82.4-367.8-283.5-634.1-618.8-450.2c-118.8,65.1-176.3,180.1-176.3,350.6c0,251,141.8,394.6,404.2,410C5922.9-3635.7,5984.2-3647.2,6037.9-3662.5z M7758.2-3700.8c116.8-67,172.4-180.1,172.4-344.8c0-235.6-122.6-379.3-348.7-404.2c-136-17.2-251,21.1-342.9,115c-212.6,210.7-122.6,595.8,155.2,674.3C7516.8-3626.1,7660.5-3643.4,7758.2-3700.8z"/><path d="M3781.1,3042.6c-26.8-15.3-61.3-53.6-74.7-86.2c-34.5-84.3,13.4-187.7,95.8-203.1l57.5-11.5v-160.9V2420l-63.2-26.8c-145.6-59.4-132.2-254.8,21.1-300.8c42.2-11.5,149.4-19.2,247.1-15.3c153.3,7.6,182,13.4,224.1,53.6c65.1,61.3,69,168.6,5.8,228c-24.9,23-59.4,42.1-76.6,42.1c-26.8,0-32.6,21.1-32.6,141.8c0,78.5-5.7,155.2-11.5,172.4c-9.6,23,0,30.6,34.5,30.6c120.7,0,174.3,182,80.5,270.1c-44.1,42.1-67.1,46-252.9,51.7C3884.5,3069.5,3817.5,3063.7,3781.1,3042.6z"/><path d="M4767.7,3044.6c-65.1-28.7-111.1-120.7-90-180.1c21.1-59.4,88.1-118.8,136-118.8c34.5,0,44.1-7.6,34.5-30.6c-5.8-17.2-11.5-93.9-11.5-172.4c0-124.5-3.8-141.8-34.5-141.8c-38.3,0-105.4-65.1-124.5-118.8c-5.7-19.2-1.9-61.3,9.6-93.9c28.7-82.4,111.1-113,312.3-113c201.1,0,283.5,30.7,312.3,113c11.5,32.6,15.3,74.7,9.6,93.9c-19.2,53.7-86.2,118.8-124.5,118.8c-30.6,0-34.5,17.2-34.5,141.8c0,78.5-5.7,155.2-11.5,172.4c-9.6,23,0,30.6,34.5,30.6c47.9,0,115,59.4,136,118.8c21.1,61.3-26.8,151.4-93.9,180.1C5145.1,3079,4848.2,3079,4767.7,3044.6z"/><path d="M5775.4,3057.9c-15.3-5.7-47.9-28.7-70.9-49.8c-92-82.4-28.7-262.5,88.1-262.5c32.6,0,42.1-7.6,32.6-30.6c-5.7-17.2-11.5-93.9-11.5-172.4c0-124.5-3.8-141.8-34.5-141.8c-57.5,0-118.8-80.5-118.8-155.2c0-47.9,15.3-82.4,49.8-114.9c42.2-40.2,70.9-46,224.2-53.6c97.7-3.8,205,3.8,247.1,15.3c153.3,46,166.7,241.4,21.1,300.8l-63.2,26.8v160.9v160.9l57.5,11.5c82.4,15.3,130.3,118.8,95.8,205c-36.4,84.3-116.8,113-319.9,111.1C5880.8,3069.5,5790.7,3063.7,5775.4,3057.9z"/><path d="M3748.5,1711.2c-90-84.3-65.1-216.5,47.9-266.3c59.4-26.8,61.3-26.8,67.1-187.8c5.7-151.3,3.8-159-36.4-159c-23,0-63.2-26.8-92-61.3c-61.3-72.8-55.6-155.2,21.1-220.3c44.1-40.2,67.1-44.1,249-44.1c272,0,333.3,32.6,333.3,174.3c0,67.1-74.7,151.3-136,151.3c-28.7,0-36.4,7.7-28.7,30.7c5.8,17.2,11.5,88.1,11.5,160.9c0,126.4,1.9,130.3,57.5,153.3c70.9,28.7,95.8,70.9,95.8,159c0,42.1-15.3,78.6-44.1,105.4c-40.2,38.3-65.1,42.1-274,42.1C3815.6,1749.5,3784.9,1745.7,3748.5,1711.2z"/><path d="M4727.5,1707.3c-21.1-24.9-44.1-59.4-49.8-78.5c-21.1-57.5,32.6-157.1,99.6-183.9c57.5-24.9,59.4-28.7,59.4-155.2c0-72.8,5.7-143.7,11.5-160.9c7.7-21.1,0-30.7-24.9-30.7c-103.5,0-174.3-118.8-130.3-222.2c34.5-86.2,88.1-103.5,306.5-103.5c218.4,0,272,17.2,306.5,103.5c44.1,103.4-26.8,222.2-130.3,222.2c-24.9,0-32.6,9.6-24.9,30.7c5.8,17.2,11.5,88.1,11.5,160.9c0,126.4,1.9,130.3,59.4,155.2c67.1,26.8,120.7,126.4,99.6,183.9c-5.8,19.2-28.7,53.6-49.8,78.5c-36.4,38.3-55.6,42.1-272,42.1C4783,1749.5,4763.9,1745.7,4727.5,1707.3z"/><path d="M5702.6,1705.4c-44.1-47.9-55.6-143.7-23-203.1c9.6-19.2,44.1-46,76.6-59.4c55.6-23,57.5-26.8,57.5-153.3c0-72.8,5.8-143.7,11.5-160.9c7.7-21.1,0-30.7-26.8-30.7c-67.1,0-138-72.8-138-143.7c0-151.3,57.5-182,333.3-182c183.9,0,205,3.8,252.9,46c40.2,32.6,53.6,63.2,53.6,113c0,80.5-67.1,166.7-130.3,166.7c-38.3,0-40.2,9.6-34.5,162.8c5.7,153.3,9.6,162.8,51.7,174.3c59.4,15.3,101.5,63.2,116.9,134.1c7.7,46,0,70.9-40.2,118.8l-51.7,61.3h-233.7C5758.2,1749.5,5740.9,1747.6,5702.6,1705.4z"/></g></g>
</svg>