<?xml version="1.0" encoding="utf-8"?>
<!-- Svg Vector Icons : http://www.onlinewebfonts.com/icon -->
<!DOCTYPE svg PUBLIC "-//W3C//DTD SVG 1.1//EN" "http://www.w3.org/Graphics/SVG/1.1/DTD/svg11.dtd">
<svg version="1.1" xmlns="http://www.w3.org/2000/svg" xmlns:xlink="http://www.w3.org/1999/xlink" x="0px" y="0px" viewBox="0 0 1000 1000" enable-background="new 0 0 1000 1000" xml:space="preserve">
<metadata> Svg Vector Icons : http://www.onlinewebfonts.com/icon </metadata>
<g><g transform="translate(0.000000,512.000000) scale(0.100000,-0.100000)"><path d="M3026.3,4990.7c-229.9-61.3-438.8-239.5-551.9-465.6l-70.9-143.7l-5.7-507.8c-3.8-277.9-1.9-527,5.7-551.9c17.2-72.8,103.5-101.6,297-101.6H2873l-3.8-1556l-5.7-1554.1L2781,81.4c-111.1-36.4-277.8-193.5-341.1-321.9c-26.8-57.5-59.4-103.5-69-103.5c-40.2,0-128.4,59.4-193.5,132.2c-82.4,92-109.2,178.2-109.2,362.2c0,132.2,1.9,138,46,138c128.4,0,316.2,143.7,387.1,297c80.5,172.5,51.7,339.2-84.3,492.5c-145.6,161-197.4,178.2-521.2,178.2c-249.1,0-285.5-3.8-354.5-42.2c-107.3-55.6-226.1-189.7-268.3-298.9c-97.7-256.8,103.5-576.8,392.8-624.7l67.1-11.5l11.5-182.1c11.5-207,49.8-312.3,170.5-471.4c90.1-118.8,274-247.2,419.6-289.4c84.3-24.9,118.8-47.9,164.8-109.2c32.6-42.2,93.9-105.4,139.9-139.9c151.4-115,201.2-120.7,994.5-120.7h714.7v-191.6c0-180.1,3.8-197.4,47.9-239.5c24.9-26.8,59.4-47.9,74.7-47.9c21.1,0,28.7-40.2,34.5-203.1c5.7-195.5,7.7-205,59.4-249.1c42.2-36.4,74.7-46,159.1-46h103.5V-2174v-162.9h-103.5c-118.8,0-193.5-46-212.7-132.2c-5.7-30.7-23-59.4-34.5-65.2c-13.4-3.8-467.6-111.1-1007.9-235.7c-762.7-174.4-998.3-235.7-1034.8-268.3c-40.2-34.5-49.8-61.3-55.6-168.6c-5.8-88.1-15.3-126.5-34.5-126.5c-13.4,0-72.8-17.2-132.2-40.2c-139.9-51.7-310.4-208.9-394.7-366c-61.3-115-65.1-130.3-65.1-312.3c0-170.5,5.7-203.1,53.7-298.9c70.9-147.6,214.6-289.4,371.7-366c116.9-57.5,145.6-63.2,293.2-63.2c145.6,0,178.2,7.7,289.3,61.3c153.3,76.7,304.7,230,377.5,383.2c44.1,95.8,51.7,136,51.7,283.6c0,147.5-7.7,187.8-51.7,281.7c-63.2,134.1-189.7,274-320,350.7c-72.8,42.2-95.8,67.1-93.9,95.8c5.7,34.5,97.7,59.4,839.3,231.9c458,105.4,856.5,199.3,887.2,205c92,24.9,59.4-26.8-139.9-226.1c-182-182-195.5-191.6-308.5-214.6c-247.2-49.8-450.3-205-557.6-423.5c-57.5-115-63.2-143.7-63.2-300.8c0-147.6,7.7-187.8,51.7-283.6c72.8-153.3,224.2-306.6,377.5-383.2c111.1-53.7,143.7-61.3,289.3-61.3c147.5,0,176.3,5.7,293.2,63.2c157.1,76.7,300.8,218.5,371.8,366c47.9,95.8,53.7,128.4,53.7,298.9c0,172.5-5.7,201.2-55.6,302.8c-32.6,61.3-105.4,155.2-168.6,218.5l-115,107.3l130.3,130.3l130.3,132.2H5000h260.6l130.3-132.2l130.3-130.3l-115-107.3c-63.3-63.2-136.1-157.1-168.7-218.5c-49.8-101.6-55.6-130.3-55.6-302.8c0-172.5,5.7-203.1,53.7-302.8c74.7-149.5,220.4-293.2,375.6-366c111.2-51.7,147.5-59.4,289.4-59.4c145.6,0,178.2,7.7,289.3,61.3c153.3,76.7,304.7,230,377.5,383.2c44.1,95.8,51.7,136,51.7,283.6c0,157.1-5.7,185.9-63.2,300.8c-107.3,218.4-312.3,373.7-551.9,419.6c-107.3,21.1-122.6,30.7-310.4,216.5c-203.1,201.2-235.7,252.9-141.8,228c28.7-5.8,427.3-99.6,885.3-205c741.6-172.5,833.5-197.4,839.3-231.9c1.9-28.7-21.1-53.6-93.9-95.8c-130.3-76.6-256.8-216.5-320-350.7c-44.1-93.9-51.7-134.1-51.7-281.7c0-157.1,5.7-185.9,61.3-298.9c76.7-153.3,230-304.7,383.3-377.5c93.9-44.1,138-51.7,274-51.7c145.6,0,178.2,7.7,289.3,61.3c155.2,76.7,298.9,216.5,373.7,364.1c49.8,101.6,55.6,128.4,55.6,302.8c0,182-3.8,197.4-65.2,312.3c-84.3,157.1-254.8,314.3-394.7,366c-59.4,23-118.8,40.2-132.2,40.2c-19.2,0-28.7,38.3-34.5,126.5c-5.7,107.3-15.3,134.1-55.6,168.6c-36.4,32.6-272.1,93.9-1034.8,268.3c-540.3,124.6-996.4,231.9-1009.8,237.6c-13.4,3.8-30.7,34.5-36.4,65.2c-17.2,84.3-88.1,130.3-208.9,130.3h-103.5v162.9v162.9h97.7c53.7,0,113.1,9.6,136.1,21.1c61.3,32.6,92,136,92,314.2c0,134.1,5.8,162.9,28.7,162.9c17.2,0,51.7,21.1,76.7,47.9c44.1,42.2,47.9,61.3,47.9,205v157.1l293.2-291.3l293.2-291.3h312.3c304.7,0,310.4,1.9,356.4,47.9c69,67.1,70.9,162.9,3.8,233.8c-36.4,42.2-55.6,44.1-279.8,44.1h-241.4l-162.9,162.9l-162.9,162.9h509.7c567.2,0,643.8,11.5,787.6,120.7c46,34.5,107.3,97.7,139.9,139.9c46,61.3,80.5,84.3,164.8,109.2c145.6,42.2,329.6,170.5,419.7,289.4c120.7,159,159,264.4,170.5,471.4l11.5,182.1l67.1,11.5c289.3,47.9,490.5,367.9,392.8,624.7c-42.2,109.2-161,243.4-268.3,298.9c-69,38.3-105.4,42.2-354.5,42.2c-249.1,0-285.5-3.8-354.5-42.2c-251-136-356.4-387.1-258.7-615.1c69-159,258.7-310.4,392.8-310.4c46,0,47.9-3.8,47.9-138c0-184-26.8-270.2-109.2-362.2C7757.4-284.6,7669.3-344,7629-344c-9.6,0-42.2,46-69,103.5c-67.1,136-235.7,293.2-348.7,321.9l-84.3,23v1557.9v1557.9h172.5c193.5,0,279.8,28.7,297,101.6c7.7,24.9,9.6,272.1,5.7,551.9l-5.7,505.9l-61.3,128.4c-107.3,226.1-310.4,404.3-544.2,477.1c-111.1,34.5-203.1,36.4-1987.1,34.5C3419.1,5019.5,3116.4,5013.7,3026.3,4990.7z M6943,4668.8c118.8-36.4,208.9-107.3,274-218.4c53.7-90.1,53.7-92,59.4-496.3l5.7-408.1H5000H2717.8l5.8,408.1c5.7,404.3,5.7,406.2,59.4,496.3c63.2,107.3,153.3,182,266.4,216.5C3173.9,4707.2,6812.7,4707.2,6943,4668.8z M3850.3,1668V115.9h-325.8h-325.8V1668v1552.1h325.8h325.8V1668z M4827.5,1668V115.9h-316.2h-316.2V1668v1552.1h316.2h316.2V1668z M5804.8,1668V115.9h-316.2h-316.2V1668v1552.1h316.2h316.2V1668z M6801.2,1668V115.9h-325.8h-325.8V1668v1552.1h325.8h325.8V1668z M2185.1,884.3c49.8-61.3,47.9-182-1.9-231.9c-34.5-34.5-63.2-38.3-287.4-38.3s-252.9,3.8-287.4,38.3c-42.2,42.2-51.7,149.5-17.2,212.7c32.6,61.3,90.1,74.7,329.6,69C2133.4,930.3,2150.6,928.4,2185.1,884.3z M8395.5,882.4c30.6-36.4,36.4-65.1,28.7-132.2c-13.4-126.5-38.3-136.1-323.8-136.1c-220.4,0-249.1,3.8-283.6,38.3c-42.2,42.2-51.7,149.5-17.3,212.7c32.6,61.3,90.1,74.7,329.6,69C8345.7,930.3,8359.1,928.4,8395.5,882.4z M7165.3-244.3c82.4-40.2,115-101.6,115-214.6c0-118.8-55.6-203.1-147.5-228c-99.6-24.9-4167.7-24.9-4265.5,0c-90.1,23-147.5,109.2-147.5,222.3c0,113.1,26.8,172.5,99.6,216.5c61.3,38.3,97.7,38.3,2171.1,38.3C6958.4-209.9,7102.1-211.8,7165.3-244.3z M5325.8-1110.5v-76.6H5000h-325.8v76.6v76.7H5000h325.8V-1110.5z M5168.6-1602.9l-5.8-72.8H5000h-162.9l-5.7,72.8l-5.8,70.9H5000h174.4L5168.6-1602.9z M5164.8-2727.8c5.7-36.4,5.7-74.7-1.9-86.2c-5.7-11.5-76.7-21.1-162.9-21.1c-86.2,0-157.1,9.6-162.9,21.1c-7.7,11.5-7.7,49.8-1.9,86.2l13.4,65.2H5000h151.4L5164.8-2727.8z M2685.2-3699.3c226.1-115,256.8-521.2,51.7-672.6c-218.4-160.9-517.4-103.5-630.4,120.7c-49.8,97.7-49.8,285.5-1.9,392.8c40.2,90.1,132.2,166.7,231.9,197.4C2424.6-3636,2597.1-3653.3,2685.2-3699.3z M4214.4-3660.9c113.1-24.9,206.9-99.6,251-197.4c47.9-107.3,47.9-295.1-1.9-392.8c-113.1-224.2-412-281.7-630.4-120.7c-199.3,147.6-174.4,555.7,40.2,666.8C3994-3641.8,4084.1-3630.3,4214.4-3660.9z M6113.3-3699.3c113.1-57.5,174.4-162.9,185.9-320c5.7-103.5,0-149.5-30.7-218.5c-130.3-295.1-584.4-302.8-732-13.4c-49.8,97.7-49.8,285.5-1.9,392.8C5622.8-3662.9,5896.8-3588.1,6113.3-3699.3z M7653.9-3660.9c178.2-47.9,277.9-187.8,277.9-390.9c0-251-157.1-412-404.3-412c-157.1,0-306.6,92-366,226.1c-55.6,124.6-42.2,314.3,28.7,421.6C7282.2-3676.3,7473.8-3611.1,7653.9-3660.9z"/><path d="M4434.7,4490.6c-275.9-143.7-327.7-477.1-101.6-666.8c118.8-101.6,149.5-105.4,666.8-105.4c517.4,0,548,3.8,666.9,105.4c226.1,191.6,174.4,527-105.4,668.8C5471.4,4538.5,4521,4536.6,4434.7,4490.6z M5484.8,4159.1c5.8-21.1,5.8-55.6,0-76.6c-9.6-36.4-26.8-38.3-484.8-38.3h-475.2l-11.5,46c-26.8,107.3-28.7,107.3,486.7,107.3C5458,4197.4,5475.2,4195.5,5484.8,4159.1z"/></g></g>
</svg>