<?xml version="1.0" encoding="utf-8"?>
<!-- Svg Vector Icons : http://www.onlinewebfonts.com/icon -->
<!DOCTYPE svg PUBLIC "-//W3C//DTD SVG 1.1//EN" "http://www.w3.org/Graphics/SVG/1.1/DTD/svg11.dtd">
<svg version="1.1" xmlns="http://www.w3.org/2000/svg" xmlns:xlink="http://www.w3.org/1999/xlink" x="0px" y="0px" viewBox="0 0 1000 1000" enable-background="new 0 0 1000 1000" xml:space="preserve">
<metadata> Svg Vector Icons : http://www.onlinewebfonts.com/icon </metadata>
<g><g transform="translate(0.000000,512.000000) scale(0.100000,-0.100000)"><path d="M3715.8,4986c-181.9-47.9-264.3-84.2-415.5-185.7c-170.4-113-338.9-300.6-432.8-480.6c-151.3-291.1-145.5-235.5-153.2-1401.7c-7.7-1118.3,1.9-1284.9,84.3-1589.4c126.4-473,442.3-932.6,856-1240.9l170.4-128.3l-494.1-9.6c-490.2-9.6-497.9-9.6-607-61.3c-153.2-72.8-338.9-254.7-413.6-405.9c-32.6-67-59.4-132.1-59.4-143.6c0-34.5-134,30.6-208.7,99.6c-111.1,105.3-136,183.8-136,444.3v231.7l88.1,23c162.8,44.1,312.1,180,369.6,335.1c78.5,208.7-57.4,482.5-293,589.8c-63.2,28.7-126.4,36.4-338.9,36.4c-241.3,0-266.2-3.8-358.1-49.8c-220.2-109.2-338.9-360-268.1-564.9c55.5-168.5,208.7-308.3,379.2-348.5l91.9-21.1l7.7-260.4c5.7-250.8,7.7-264.2,70.8-392.6c116.8-235.5,340.9-413.6,591.7-467.2c67-13.4,430.9-21,1095.3-21h991.9l7.7-189.6c5.7-170.4,11.5-195.3,51.7-239.4c26.8-26.8,63.2-49.8,82.3-49.8c30.6,0,34.5-19.2,34.5-199.2c0-199.1,0-199.1,59.4-248.9c47.9-40.2,78.5-49.8,162.8-49.8H4836v-162.8v-162.8h-97.7c-141.7,0-226-55.5-227.9-147.5c0-28.7-15.3-47.9-42.1-53.6c-24.9-5.7-488.3-113-1030.2-239.4c-831.1-191.5-990-233.6-1018.7-268.1c-24.9-30.6-34.5-76.6-34.5-164.7c0-114.9-3.8-122.6-42.1-122.6c-80.4,0-281.5-111.1-381.1-210.6c-325.5-325.5-287.2-810,88.1-1095.3c216.4-166.6,476.8-189.6,729.6-65.1c164.7,82.3,273.8,195.3,360,375.3c49.8,107.2,59.4,145.5,59.4,277.7c0,135.9-7.7,168.5-63.2,283.4c-72.8,147.4-204.9,291.1-329.4,360c-55.5,30.6-86.2,59.4-86.2,84.3c0,32.6,91.9,57.4,852.1,233.6c469.2,107.2,871.3,201.1,896.2,206.8c80.4,19.1,42.1-38.3-153.2-233.6c-185.7-181.9-203-193.4-293-204.9c-214.5-28.7-459.6-203-568.7-405.9c-193.4-361.9-32.5-802.3,363.8-990c113-53.6,147.5-61.3,291.1-61.3c136,1.9,180,9.6,270,53.6c293,141.7,478.7,440.4,451.9,727.7c-15.3,168.5-120.6,371.5-254.7,486.4l-103.4,90l128.3,130.2l128.3,130.2h270h270l128.3-130.2l128.3-130.2l-86.2-72.8c-258.5-216.4-342.8-561.1-208.7-848.3c69-143.6,233.6-308.3,381.1-379.1c97.6-47.9,137.9-55.5,277.7-57.5c143.6,0,178.1,7.7,291.1,61.3c235.5,111.1,392.6,314,438.5,563c53.6,293-130.2,618.5-428.9,762.1c-65.1,32.5-160.9,63.2-214.5,70.8c-90,11.5-107.2,23-291.1,204.9c-197.2,195.3-235.5,252.8-153.2,233.6c23-5.7,425.1-99.6,894.3-206.8c760.2-176.2,852.1-201.1,852.1-233.6c0-24.9-30.6-53.6-86.2-84.3c-132.1-72.8-262.4-216.4-331.3-361.9c-114.9-245.1-74.7-517,114.9-746.8c126.4-155.1,363.8-271.9,553.4-271.9c296.8,0,607,239.4,700.9,543.8c74.7,243.2,1.9,505.5-193.4,700.9c-99.6,99.6-300.6,210.6-379.1,210.6c-40.2,0-44,7.7-44,122.6c0,88.1-9.6,134-34.5,164.7c-28.7,34.5-187.7,76.6-1018.7,268.1C6017.5-2643,5554.1-2535.7,5531.1-2530c-28.7,5.7-44,24.9-44,53.6c-1.9,91.9-86.2,147.5-227.9,147.5h-97.7v162.8v162.8h107.2c91.9,0,113,7.7,162.8,55.5c53.6,55.5,55.5,61.3,55.5,248.9c0,174.2,3.8,193.4,34.5,193.4c19.2,0,55.5,23,82.3,49.8c38.3,42.1,46,70.9,53.6,203l5.7,155.1l281.5-289.1l279.6-291.1h312.1h314.1l55.5,55.5c30.7,30.6,55.5,74.7,55.5,97.6c0,55.5-49.8,145.5-86.2,160.9c-17.2,5.7-135.9,11.5-262.3,11.5h-231.7l-164.7,162.8l-164.7,162.8h798.5c517,0,834.9,7.7,900,21c248.9,53.6,476.8,233.6,593.6,471.1c61.3,124.5,63.2,139.8,68.9,392.5c7.7,256.6,9.6,264.2,47.9,264.2c67,0,229.8,84.3,298.7,155.1c82.3,80.4,155.1,235.5,155.1,325.5c0,172.3-124.5,363.8-291.1,446.2c-91.9,45.9-118.7,49.8-360,49.8s-268.1-3.8-360-49.8c-241.3-120.6-354.3-394.5-252.8-614.7c57.4-128.3,195.3-248.9,327.4-289.1l113-32.5V-98c0-114.9-9.6-245.1-21.1-285.3c-24.9-91.9-155.1-229.8-250.9-270l-70.9-28.7l-21,72.8c-59.4,181.9-266.2,409.8-453.8,497.9c-109.2,51.7-118.7,51.7-607,61.3l-494.1,9.6L6343,87.7c457.6,340.8,764,815.7,898.1,1394.1c47.9,208.7,63.2,2232.8,19.2,2474.1c-84.2,450-423.2,838.7-871.3,999.6l-164.7,59.4l-1187.2,3.8C3926.4,5022.4,3840.2,5020.5,3715.8,4986z M6232,4670.1c264.3-63.2,501.7-245.1,612.8-473c116.8-235.5,120.6-291.1,111.1-1480.2c-7.7-1181.5-7.7-1183.4-136-1526.2C6597.7,597.1,6053.9,135.6,5421.9,5.4c-235.5-47.9-610.8-47.9-846.4,0c-817.7,168.5-1422.8,840.6-1520.4,1687c-26.8,229.8-24.9,2060.4,1.9,2219.4c63.2,377.2,346.6,677.9,714.3,758.3C3953.2,4710.3,6063.4,4708.4,6232,4670.1z M2021.1,734.9c55.5-55.5,51.7-180-9.6-239.4c-44-46-57.4-47.9-277.7-47.9c-220.2,0-233.6,1.9-277.7,47.9c-59.4,57.4-63.2,157-7.7,227.9c38.3,49.8,42.1,49.8,287.2,49.8C1957.9,773.2,1986.6,769.4,2021.1,734.9z M8549,723.4c55.5-70.8,51.7-170.4-7.7-227.9c-44-46-57.5-47.9-273.8-47.9c-203,0-233.6,3.8-279.6,40.2c-40.2,32.5-49.8,55.5-49.8,124.5c0,145.5,30.6,160.9,323.6,160.9C8506.9,773.2,8510.7,773.2,8549,723.4z M7135.8-396.8c95.7-28.7,201.1-118.7,247-210.6c21.1-40.2,38.3-76.6,38.3-80.4c0-5.7-1089.6-9.6-2422.3-9.6c-1332.8,0-2422.4,3.8-2422.4,7.6c0,5.8,17.2,42.1,38.3,84.3c44,84.3,141.7,170.4,233.6,204.9C2936.4-370,7028.6-366.1,7135.8-396.8z M5333.9-1103.4v-76.6h-335.1h-335.1v76.6v76.6h335.1h335.1V-1103.4z M5161.5-1601.3v-76.6h-162.8H4836v76.6v76.6h162.8h162.8V-1601.3z M5161.5-2740.6v-86.2h-162.8H4836v86.2v86.2h162.8h162.8V-2740.6z M2578.3-3652.1c340.8-72.8,411.7-572.6,105.3-748.7c-114.9-65.1-314-63.2-432.8,3.8c-204.9,114.9-252.8,440.4-91.9,624.3C2270-3646.4,2388.7-3611.9,2578.3-3652.1z M4328.5-3698.1c116.8-67,172.3-178.1,172.3-344.7c0-235.5-122.5-379.2-348.5-404.1c-136-17.2-250.8,21.1-342.8,114.9c-206.8,206.8-126.4,586,143.6,672.1C4068.1-3623.4,4229-3638.7,4328.5-3698.1z M6036.6-3659.8c197.2-59.4,300.7-258.5,252.8-486.4c-53.6-264.2-361.9-386.8-616.6-247c-120.6,65.1-191.5,214.5-180,371.5c17.2,241.3,158.9,375.3,407.9,388.8C5921.7-3633,5983-3644.5,6036.6-3659.8z M7727.5-3678.9c266.2-137.9,275.8-570.6,15.3-718.1c-120.6-68.9-316-68.9-436.6,3.8c-287.2,168.5-229.8,647.2,90,735.3C7499.6-3629.2,7649-3638.7,7727.5-3678.9z"/><path d="M4393.6,3666.7c-88.1-90-67-176.2,74.7-316c67-63.2,74.7-80.4,59.4-120.6c-21.1-57.5-21.1-287.2,1.9-340.9c11.5-30.6-3.8-57.4-82.3-139.8c-84.3-86.2-99.6-111.1-99.6-174.3c0-88.1,46-147.5,124.5-164.7c68.9-15.3,139.8,21.1,237.4,120.6c63.2,67,80.4,74.7,120.6,59.4c24.9-9.6,101.5-17.2,168.5-17.2c67,0,143.6,7.7,168.5,17.2c40.2,15.3,57.4,7.7,120.6-59.4c97.7-99.6,168.5-136,237.5-120.6c78.5,17.2,124.5,76.6,124.5,164.7c0,63.2-15.3,88.1-99.6,174.3c-78.5,82.3-93.8,109.1-82.3,139.8c23,53.6,23,283.4,1.9,340.9c-15.3,40.2-7.6,57.4,59.4,120.6c141.7,139.8,162.8,225.9,74.7,316c-88.1,86.2-155.1,76.6-279.6-42.1l-101.5-95.8l-113,19.2c-80.4,15.3-145.5,15.3-224,0l-111.1-19.2l-101.5,95.8C4548.7,3743.3,4481.7,3752.8,4393.6,3666.7z M5127.1,3191.8c88.1-84.3,86.2-164.7-5.7-256.6c-91.9-91.9-212.6-72.8-285.3,44.1c-46,72.8-38.3,135.9,24.9,204.9C4945.1,3274.1,5037.1,3277.9,5127.1,3191.8z"/></g></g>
</svg>