<?xml version="1.0" encoding="utf-8"?>
<!-- Svg Vector Icons : http://www.onlinewebfonts.com/icon -->
<!DOCTYPE svg PUBLIC "-//W3C//DTD SVG 1.1//EN" "http://www.w3.org/Graphics/SVG/1.1/DTD/svg11.dtd">
<svg version="1.1" xmlns="http://www.w3.org/2000/svg" xmlns:xlink="http://www.w3.org/1999/xlink" x="0px" y="0px" viewBox="0 0 1000 1000" enable-background="new 0 0 1000 1000" xml:space="preserve">
<metadata> Svg Vector Icons : http://www.onlinewebfonts.com/icon </metadata>
<g><g transform="translate(0.000000,512.000000) scale(0.100000,-0.100000)"><path d="M1252.7,4990c-356-97.6-681.3-442.1-769.4-815.3c-24.9-107.2-28.7-616.3-28.7-4040.1V-3781l49.8-59.3c45.9-55.5,59.3-59.3,172.2-59.3h122.5v-363.6c0-386.6,13.4-453.6,93.8-497.6c21.1-11.5,172.2-19.1,352.1-19.1c279.4,0,319.6,3.8,361.7,36.4c30.6,24.9,95.7,160.7,206.7,440.2l160.8,403.8H5000h3025.7l160.8-403.8c111-279.4,176.1-415.3,206.7-440.2c42.1-32.5,82.3-36.4,361.7-36.4c179.9,0,331.1,7.7,352.1,19.1c80.4,44,93.8,111,93.8,497.6v363.6h122.5c112.9,0,126.3,3.8,172.2,59.3l49.8,59.3V142.3c0,3519.5-3.8,3934.8-30.6,4042c-99.5,382.8-438.3,733-792.3,813.4c-317.7,72.7-698.6-36.4-949.3-269.9c-65.1-61.2-132.1-111-151.2-111s-88,51.7-155,112.9c-415.3,388.5-1043,382.8-1458.3-15.3c-67-65.1-124.4-116.7-130.1-116.7c-5.8,0-67,49.8-134,112.9c-218.2,199-480.4,308.1-744.5,308.1c-264.1,0-526.3-109.1-744.5-308.1c-67-63.2-128.2-112.9-134-112.9c-7.7,0-59.3,45.9-116.7,101.4c-426.8,411.5-1050.7,424.9-1471.7,30.6c-67-61.2-135.9-112.9-155-112.9c-17.2,0-88,49.8-155,112.9C1960.9,4969,1564.7,5076.2,1252.7,4990z M1631.7,4653.2c149.3-26.8,223.9-67,371.3-199c153.1-135.9,225.8-168.4,384.7-168.4c153.1,0,218.2,30.6,377,178c147.4,137.8,279.4,193.3,472.7,193.3c233.5,1.9,333-40.2,518.6-212.4c143.5-134,279.4-185.6,426.8-162.7c134,19.1,193.3,51.7,315.8,168.4c134,128.2,245,185.6,392.3,202.9c256.5,28.7,432.5-28.7,610.5-202.9c116.7-114.8,178-147.4,315.8-168.4c149.3-23,287.1,30.6,424.9,162.7c179.9,170.3,292.8,216.3,528.2,214.4c183.7-1.9,321.5-59.3,465-195.2c158.8-147.4,223.9-178,377-178c158.8,0,237.3,34.4,378.9,166.5c139.7,126.3,227.8,174.2,378.9,201c216.3,40.2,470.8-38.3,618.2-189.5c176.1-181.8,210.5-352.1,206.7-985.6l-3.8-382.8H5000H808.7l-5.7,382.8c-1.9,210.5,3.8,453.6,13.4,539.7c47.8,388.5,277.5,610.5,683.2,654.5C1511.1,4672.3,1570.4,4664.7,1631.7,4653.2z M9200.8-406.9v-3148.2H5000H799.2v3148.2v3148.2H5000h4200.8V-406.9z M1581.9-3926.4c0-11.5-45.9-128.2-99.5-260.3l-99.5-239.2l-109.1-5.7l-111-5.7v269.8v269.8l210.5-5.7C1509.2-3905.4,1583.8-3913,1581.9-3926.4z M8837.2-4171.4v-264.1h-103.3c-59.3,0-111,9.6-120.6,24.9c-23,28.7-197.1,465.1-197.1,493.8c0,11.5,74.6,17.2,210.5,15.3l210.5-5.8V-4171.4z"/><path d="M1759.9,1847.5c-34.5-13.4-80.4-109.1-80.4-166.5c0-70.8,74.6-145.5,156.9-158.9c61.2-9.6,78.5-1.9,130.1,47.9c114.8,116.7,49.8,292.8-109.1,289C1817.3,1859,1773.3,1853.3,1759.9,1847.5z"/><path d="M3298.6,1801.6c-26.8-32.5-49.8-74.6-49.8-95.7c0-95.7,93.8-189.5,191.4-189.5c19.1,0,61.2,23,93.8,49.8c124.4,103.3,53.6,294.7-111,294.7C3361.8,1860.9,3338.8,1849.5,3298.6,1801.6z"/><path d="M4881.3,1818.8c-55.5-63.2-67-109.1-42.1-181.8c21.1-63.1,97.6-120.6,160.8-120.6c63.1,0,139.7,57.4,160.8,120.6c40.2,120.6-34.5,223.9-160.8,223.9C4942.6,1860.9,4910,1849.5,4881.3,1818.8z"/><path d="M6454.5,1813.1c-72.7-70.8-67-181.8,11.5-246.9c32.5-26.8,74.6-49.8,93.8-49.8c97.6,0,191.4,93.8,191.4,189.5c0,21.1-23,63.2-49.7,95.7C6636.3,1880.1,6525.3,1885.8,6454.5,1813.1z"/><path d="M8023.8,1813.1c-68.9-68.9-65.1-168.4,9.6-243c51.7-49.8,68.9-57.4,130.1-47.9c82.3,13.4,157,88,157,158.9c0,61.2-47.9,153.1-86.1,168.4C8163.5,1876.3,8069.8,1860.9,8023.8,1813.1z"/><path d="M1729.3,404.5c-67-78.5-65.1-158.8,5.7-229.7c38.3-38.3,74.6-55.5,116.7-55.5c84.2,0,172.2,90,172.2,178C2024,454.3,1830.7,525.1,1729.3,404.5z"/><path d="M3302.4,406.4c-49.8-51.7-57.4-68.9-47.8-130.1c21.1-124.4,143.5-191.4,248.8-134c65.1,34.5,88,74.6,90,155C3593.3,456.2,3419.2,521.3,3302.4,406.4z"/><path d="M4883.3,417.9c-101.4-86.1-53.6-266,76.5-289c183.7-36.3,292.8,199,141.6,304.3C5038.3,477.3,4944.5,471.5,4883.3,417.9z"/><path d="M6454.5,416c-34.5-32.5-47.9-67-47.9-118.7c1.9-222,302.4-241.1,338.8-21c9.6,61.2,1.9,78.5-47.9,130.1C6622.9,481.1,6523.4,484.9,6454.5,416z"/><path d="M8023.8,414.1c-67-72.7-65.1-166.5,7.7-239.2c38.3-38.3,74.6-55.5,116.7-55.5c42.1,0,78.5,17.2,116.7,55.5c70.8,70.8,72.8,151.2,5.8,229.7C8203.7,484.9,8092.7,488.7,8023.8,414.1z"/><path d="M1735-988.7c-38.3-38.3-55.5-74.6-55.5-116.7c0-82.3,90-172.2,172.2-172.2c86.1,0,172.2,90,172.2,178c0,51.7-13.4,78.5-59.3,116.8C1886.2-916,1805.8-917.9,1735-988.7z"/><path d="M3304.4-988.7c-38.3-38.3-55.5-74.6-55.5-116.7c0-84.2,90-172.2,178-172.2c97.6,0,166.5,72.7,166.5,172.2C3593.3-942.8,3421.1-873.9,3304.4-988.7z"/><path d="M4902.4-961.9c-179.9-124.4-5.7-398.1,187.6-294.7c21.1,11.5,49.8,49.8,65.1,86.1c49.8,118.6-30.6,237.3-158.8,237.3C4965.6-933.2,4923.4-946.6,4902.4-961.9z"/><path d="M6454.5-981.1c-107.2-105.3-34.5-296.6,112.9-296.6c101.4,0,174.2,70.8,174.2,172.2c0,65.1-11.5,90-53.6,126.3C6615.3-917.9,6515.7-917.9,6454.5-981.1z"/><path d="M8062.1-956.2c-61.2-34.4-84.2-76.6-86.1-153.1c0-86.1,86.1-168.4,176.1-168.4c78.5,0,168.4,91.9,168.4,172.2C8320.5-983,8169.3-895,8062.1-956.2z"/><path d="M1735-2385.8c-70.8-70.8-72.7-151.2-5.7-229.7c38.3-47.9,65.1-59.3,122.5-59.3c158.8,0,229.7,176.1,116.7,289C1892-2311.2,1811.6-2311.2,1735-2385.8z"/><path d="M3315.8-2372.4c-28.7-26.8-53.6-72.7-61.2-114.8c-9.6-61.2-1.9-78.5,47.8-130.1c116.7-114.8,290.9-49.7,290.9,109.1c-1.9,80.4-24.9,120.6-90,155C3440.2-2318.8,3371.3-2326.5,3315.8-2372.4z"/><path d="M4908.1-2351.4c-53.6-30.6-93.8-128.2-80.4-191.4c36.4-160.8,277.5-176.1,336.8-23C5218.2-2424.1,5040.2-2274.8,4908.1-2351.4z"/><path d="M6492.8-2353.3c-63.1-32.5-86.1-76.6-86.1-153.1c0-160.7,174.2-225.8,290.9-111c49.7,51.7,57.4,68.9,47.9,130.1C6724.3-2362.9,6598-2293.9,6492.8-2353.3z"/><path d="M8031.5-2385.8c-112.9-112.9-42.1-289,116.7-289c57.4,0,84.2,11.5,122.5,59.3c67,78.5,65.1,158.9-5.8,229.7C8188.4-2311.2,8108-2311.2,8031.5-2385.8z"/></g></g>
</svg>