<?xml version="1.0" encoding="utf-8"?>
<!-- Svg Vector Icons : http://www.onlinewebfonts.com/icon -->
<!DOCTYPE svg PUBLIC "-//W3C//DTD SVG 1.1//EN" "http://www.w3.org/Graphics/SVG/1.1/DTD/svg11.dtd">
<svg version="1.1" xmlns="http://www.w3.org/2000/svg" xmlns:xlink="http://www.w3.org/1999/xlink" x="0px" y="0px" viewBox="0 0 1000 1000" enable-background="new 0 0 1000 1000" xml:space="preserve">
<metadata> Svg Vector Icons : http://www.onlinewebfonts.com/icon </metadata>
<g><g transform="translate(0.000000,502.000000) scale(0.100000,-0.100000)"><path d="M8824.3,4103.5l-5.7-717.8l-124.4-42.1c-176.1-59.3-298.6-135.9-430.7-269.9s-208.6-252.7-269.9-432.6l-44-124.4l-895.8-11.5c-978.1-11.5-999.2-13.4-1341.8-135.9C4804.8,2049.8,4157.8,1245.8,4033.4,285l-11.5-90l-491.9-9.6c-432.6-7.7-518.7-15.3-712-57.4C2121.2-25.1,1526-360.1,1036-876.9c-243.1-256.5-413.4-497.7-572.3-817.3C216.8-2188,100-2668.4,100-3191v-178h1249.9h1249.9l36.4-155c65.1-292.9,245-601,474.7-815.4c635.5-595.3,1552.3-591.4,2180.1,9.6c246.9,235.4,411.5,526.4,476.6,842.2l24.9,118.7h1251.8h1253.7l-11.5,312c-30.6,849.8-356,1594.4-968.5,2220.3C6822.2-329.4,6228.8-4,5545.5,135.7c-174.2,34.4-292.9,44-687.1,51.7l-474.7,7.7l11.5,114.8c91.9,796.2,677.6,1498.7,1456.6,1743.7c294.8,91.9,384.7,97.6,1269,99.5h828.8l42.1-124.4c112.9-335,380.9-604.8,704.4-708.2l132.1-44v-714v-715.9h535.9H9900v2488.3v2488.3h-535.9h-535.9L8824.3,4103.5z M9536.3,2325.4V191.2h-172.3h-172.3v2134.2v2134.2h172.3h172.3V2325.4z M8828.1,2334.9c0-537.9-5.7-689.1-23-689.1c-57.4,0-231.6,99.5-306.3,176.1c-271.8,269.9-268,758,7.7,1024c68.9,67,258.4,178,308.2,178C8822.4,3024,8828.1,2713.9,8828.1,2334.9z M4785.6-237.6C5446-423.2,5960.9-894.1,6200.1-1531.5c103.3-271.8,122.5-413.4,134-960.9l9.6-513H4196.1H2046.6l11.5,484.3c5.7,336.9,19.1,530.2,40.2,641.2c178,888.1,821.1,1515.9,1734.1,1693.9c26.8,5.7,212.5,7.7,411.5,3.8C4569.3-185.9,4626.8-191.6,4785.6-237.6z M2798.8-235.6c0-3.8-70.8-61.3-157-130.2c-400-315.8-725.4-817.3-861.3-1332.2c-59.3-222-59.3-235.4-68.9-765.6l-7.7-541.7h-622.1h-624l13.4,139.7c17.2,178,97.6,539.8,158.9,712C957.5-1238.6,1681-559.1,2626.6-279.7C2816.1-224.2,2798.8-228,2798.8-235.6z M6071.9-383C6755.2-666.3,7293-1164,7620.4-1814.7c149.3-296.7,271.8-719.7,300.5-1041.3l13.4-149.3h-625.9h-624v476.6c0,514.9-19.1,679.5-107.2,960.9c-158.9,505.3-493.8,966.6-936,1293.9l-57.4,42.1l172.3-45.9C5851.8-302.6,5993.4-350.5,6071.9-383z M5409.6-3487.6c-47.9-208.6-168.5-426.8-321.6-580c-239.2-237.3-534-354.1-891.9-354.1c-438.3,0-803.9,187.6-1031.7,528.3c-90,134-193.3,394.3-193.3,488.1c0,36.4,23,36.4,1232.7,36.4h1232.7L5409.6-3487.6z"/></g></g>
</svg>