<?xml version="1.0" encoding="utf-8"?>
<!-- Svg Vector Icons : http://www.onlinewebfonts.com/icon -->
<!DOCTYPE svg PUBLIC "-//W3C//DTD SVG 1.1//EN" "http://www.w3.org/Graphics/SVG/1.1/DTD/svg11.dtd">
<svg version="1.1" xmlns="http://www.w3.org/2000/svg" xmlns:xlink="http://www.w3.org/1999/xlink" x="0px" y="0px" viewBox="0 0 1000 1000" enable-background="new 0 0 1000 1000" xml:space="preserve">
<metadata> Svg Vector Icons : http://www.onlinewebfonts.com/icon </metadata>
<g><g transform="translate(0.000000,483.000000) scale(0.100000,-0.100000)"><path d="M652.5,4174.8v-277.6h-201c-227.8,0-296.8-23-333.1-111c-15.3-38.3-21.1-225.9-17.2-662.4l5.7-608.8l53.6-45.9c49.8-42.1,68.9-45.9,271.9-45.9h218.3l7.7-2157.7c5.8-2109.9,5.8-2163.5,46-2332c109.1-476.7,310.2-875,614.6-1229.2c388.7-448,903.7-752.4,1506.8-892.2c168.5-40.2,218.3-40.2,2609.6-46l2435.4-7.6V-4460c0-202.9,3.8-222.1,46-271.9l45.9-53.6l608.8-5.7c436.5-3.8,624.2,1.9,662.5,17.2c88.1,36.4,111,105.3,111,333.1v201h277.6H9900v1665.7v1665.7h-277.6h-277.6v201c0,224-21.1,292.9-105.3,331.2c-34.5,15.3-222.1,23-633.7,23c-762,0-735.2,11.5-735.2-342.7v-212.5H6095.7c-1744.2,0-1778.7,1.9-1862.9,40.2c-114.9,51.7-151.3,86.2-202.9,199.1l-45.9,95.7V925.7v1497.2h212.5c354.2,0,342.7-26.8,342.7,735.2c0,411.6-7.7,599.3-23,633.7c-38.3,84.2-107.2,105.3-331.2,105.3h-201v277.6v277.6H2318.2H652.5V4174.8z M3616.3,3989l5.8-91.9H2320.2H1016.3v82.3c0,46,5.7,90,13.4,95.7c5.7,7.7,589.7,11.5,1296.2,9.6l1284.7-5.7L3616.3,3989z M4165.8,3160v-363.8l-1851.4-5.7l-1853.3-3.8v359.9c0,199.1,5.7,367.6,13.4,373.3c5.7,7.7,840.5,11.5,1851.4,9.6l1839.9-5.7V3160z M3620.2,881.7l9.6-1531.7l61.3-130.2c82.3-174.2,247-338.9,421.2-421.2l130.2-61.3l1809.3-9.6l1809.3-9.6v-1292.3v-1292.3l-2268.8-5.7c-2410.5-5.7-2533-1.9-2868.1,84.2c-197.2,51.7-511.2,189.6-677.8,302.5c-492,325.5-840.5,840.5-974.5,1437.8c-44,191.5-44,191.5-49.8,2305.2c-3.8,1164.1-3.8,2125.2,1.9,2140.5c9.6,21.1,237.4,24.9,1298.1,21.1l1288.5-5.7L3620.2,881.7z M8971.4-2574.1v-1847.6l-367.6-5.7l-369.5-3.8v1857.1V-717l369.5-3.8l367.6-5.7V-2574.1z M9526.7-2574.1v-1292.3l-90-5.7l-91.9-5.7v1303.8v1303.8l91.9-5.7l90-5.7V-2574.1z"/></g></g>
</svg>