<?xml version="1.0" encoding="utf-8"?>
<!-- Svg Vector Icons : http://www.onlinewebfonts.com/icon -->
<!DOCTYPE svg PUBLIC "-//W3C//DTD SVG 1.1//EN" "http://www.w3.org/Graphics/SVG/1.1/DTD/svg11.dtd">
<svg version="1.1" xmlns="http://www.w3.org/2000/svg" xmlns:xlink="http://www.w3.org/1999/xlink" x="0px" y="0px" viewBox="0 0 1000 1000" enable-background="new 0 0 1000 1000" xml:space="preserve">
<metadata> Svg Vector Icons : http://www.onlinewebfonts.com/icon </metadata>
<g><g transform="translate(0.000000,443.000000) scale(0.100000,-0.100000)"><path d="M1103,3652.1c-109.1-28.7-260.3-124.4-344.5-222c-126.3-143.6-160.8-252.7-160.8-516.8v-220.1H348.8H100V2119v-574.2h248.8h248.8v-2115v-2115H348.8H100v-574.2v-574.2h248.8h248.8v-220.1c0-174.2,7.7-239.3,40.2-323.5c51.7-137.8,178-275.6,327.3-357.9c109.1-59.3,135.9-65.1,273.7-65.1c193.3,0,323.5,57.4,467,210.5c141.6,149.3,176.1,241.2,191.4,493.8c13.4,237.3,28.7,262.2,164.6,262.2c126.3,0,151.2-42.1,162.7-275.6c13.4-233.5,65.1-365.6,201-499.6c248.8-250.7,610.6-258.4,882.4-23c42.1,38.3,107.2,122.5,141.6,189.5c59.3,109.1,65.1,139.7,74.6,327.3c9.6,189.5,15.3,212.4,57.4,245c61.3,49.8,181.8,47.9,231.6-1.9c32.5-32.5,38.3-63.2,38.3-187.6c0-254.6,68.9-419.2,237.3-574.2c135.9-126.3,239.3-166.5,423-166.5c120.6,1.9,172.3,9.6,245,45.9c139.7,68.9,271.8,199.1,338.8,335c51.7,103.4,61.3,147.4,70.8,325.4c13.4,231.6,30.6,260.3,160.8,260.3c130.2,0,155-40.2,168.5-279.5c11.5-176.1,22.9-229.7,65.1-317.7c61.3-124.4,179.9-239.3,323.5-315.8c86.1-44,124.4-53.6,254.6-53.6c193.3,0,323.5,57.4,467,210.5c141.6,149.3,176.1,241.2,191.4,493.8c13.4,237.3,28.7,262.2,164.6,262.2c126.3,0,151.2-42.1,162.7-275.6c13.4-233.5,65.1-365.6,201-499.6c256.5-258.4,641.2-258.4,897.7-3.8c47.9,47.9,109.1,132.1,139.7,189.5c47.9,91.9,53.6,124.4,59.3,346.4l7.7,243.1h246.9h246.9v86.1v86.1h488.1H9900v402v402h-488.1h-488.1v86.1v86.1H8675h-248.8v2115v2115H8675h248.8v248.8v248.8h76.6c70.8,0,76.6-3.8,76.6-51.7c0-195.2,168.4-400,354.1-434.5c155-30.6,346.4,80.4,423,243.1c42.1,91.9,45.9,122.5,45.9,405.8c0,342.6-17.2,407.7-134,520.6c-178,174.2-413.4,160.8-580-32.5C9122.9,2618.6,9077,2498,9077,2408c0-34.5-11.5-40.2-76.6-40.2h-76.6v239.3v237.3l-243.1,5.8l-245,5.7l-11.5,164.6c-9.6,135.9-21.1,183.8-74.7,283.3c-74.7,137.8-176.1,235.4-325.4,306.3c-149.3,70.8-348.4,70.8-501.5-1.9c-139.7-65.1-271.8-199.1-336.9-336.9c-40.2-88.1-51.7-147.4-61.3-306.3c-7.7-179.9-13.4-202.9-55.5-235.4c-53.6-44-170.3-47.9-223.9-9.6c-30.6,23-38.3,59.3-47.9,237.3c-11.5,248.8-57.4,363.7-202.9,507.2c-139.7,139.7-268,195.2-455.5,195.2c-130.2,0-168.4-9.6-254.6-53.6c-143.6-76.6-262.2-191.4-323.5-315.8c-42.1-88.1-53.6-141.7-65.1-317.7c-13.4-239.3-38.3-279.5-168.5-279.5c-130.1,0-147.4,28.7-160.8,260.3c-9.6,178-19.1,222-70.8,325.4c-67,135.9-199.1,266.1-338.8,335c-72.7,36.4-124.4,44-245,45.9c-183.8,0-287.1-40.2-423-166.5c-168.4-155-237.3-319.6-237.3-574.2c0-124.4-5.7-155-38.3-187.6c-49.8-49.8-170.4-51.7-231.6-1.9c-42.1,32.5-47.9,55.5-57.4,245c-9.6,174.2-19.1,222-63.2,308.2c-212.5,415.4-715.9,505.3-1035.5,185.7c-135.9-135.9-187.6-266.1-201-503.4c-7.7-179.9-13.4-202.9-55.5-235.4c-53.6-44-170.3-47.9-223.9-9.6c-30.6,23-38.3,59.3-47.9,235.4c-9.6,168.4-21.1,227.8-63.2,313.9c-59.3,128.2-223.9,290.9-350.3,346.5C1386.3,3657.9,1198.7,3677,1103,3652.1z M1437.9,3292.3c91.9-67,135.9-185.7,135.9-369.4c0-137.8,7.7-179.9,49.8-264.1c93.8-189.5,279.5-302.4,467-285.2c132.1,11.5,206.7,47.9,308.2,149.3c111,111,137.8,185.7,151.2,423c11.5,220.1,30.6,266,141.6,348.3c74.6,57.4,292.9,57.4,367.5,0c111-82.3,128.2-126.3,141.6-348.3c11.5-179.9,21.1-220.1,68.9-310.1c57.4-105.3,166.5-201,281.4-243.1c149.3-53.6,319.7-13.4,461.3,109.1c116.8,103.4,151.2,191.4,164.6,423c15.3,243.1,45.9,312,172.3,377.1c99.5,49.8,199.1,53.6,306.3,11.5c126.3-49.8,157-114.8,174.2-354.1c9.6-112.9,28.7-235.4,44-271.8c70.8-170.4,281.4-319.7,451.7-319.7c191.4,0,409.6,172.3,467,365.6c17.2,55.5,30.6,166.5,30.6,245c0,183.8,36.4,262.2,155,323.5c68.9,36.4,103.4,44,197.2,36.4c210.5-19.1,298.6-141.7,298.6-415.4c0-137.8,7.7-179.9,49.8-264.1c93.8-189.5,279.5-302.4,467-285.2c132.1,11.5,206.7,47.9,308.2,149.3c111,111,137.8,185.7,151.2,423c11.5,220.1,30.6,266,141.7,348.3c40.2,32.5,80.4,40.2,183.7,40.2c141.7,0,197.1-26.8,275.6-132.1l40.2-51.7V-570.3v-3720.9l-40.2-51.7c-78.5-105.3-134-132.1-275.6-132.1c-103.4,0-143.6,9.6-183.7,40.2c-111,82.3-130.2,128.2-143.6,348.4c-13.4,229.7-28.7,283.3-122.5,398.1c-141.7,172.3-369.4,225.8-560.8,130.1c-199.1-99.5-289-256.5-290.9-505.3c0-273.7-90-396.2-298.6-415.4c-93.8-7.7-128.3,0-197.2,36.4c-118.7,61.3-155,139.7-155,323.5c0,222-40.2,333-168.4,457.5c-114.8,112.9-206.7,153.1-340.7,153.1c-160.8,0-373.3-155.1-442.2-321.6c-15.3-38.3-34.4-160.8-42.1-273.7c-15.3-235.4-47.9-298.6-174.2-350.3c-107.2-42.1-206.7-38.3-306.3,13.4c-126.3,63.2-157,132.1-172.3,375.2c-13.4,225.9-45.9,312-157,417.3c-237.3,227.8-589.5,166.5-752.2-132.1c-49.8-88-57.4-128.2-67-306.3c-11.5-220.1-30.6-266.1-141.6-348.4c-74.6-57.4-292.9-57.4-367.5,0c-111,82.3-130.2,128.2-143.6,348.4c-13.4,229.7-28.7,283.3-122.5,398.1c-227.8,277.5-637.4,220.1-802-111c-42.1-84.2-49.8-126.3-49.8-264.1c0-273.7-88-396.2-298.6-415.4c-141.6-11.5-264.1,45.9-317.7,147.4c-32.5,63.2-34.4,222-34.4,3761.1c0,3539.1,1.9,3698,34.4,3761.1c53.6,101.4,176.1,158.9,317.7,147.4C1342.2,3332.5,1407.3,3313.4,1437.9,3292.3z M8594.6,2201.3l-5.7-321.6h-76.6h-76.6l-5.7,321.6l-3.8,319.7h86.1h86.1L8594.6,2201.3z M9570.8,2216.6c3.8-199.1-1.9-302.4-17.2-319.7c-32.5-38.3-109.1-32.5-132.1,9.6c-21,40.2-26.8,532.1-7.7,585.7c9.6,23,32.5,28.7,82.3,24.9l68.9-5.7L9570.8,2216.6z M578.5,2119v-248.8H502h-76.6V2119v248.8H502h76.6V2119z M578.5-3259.5v-248.8H502h-76.6v248.8v248.8H502h76.6V-3259.5z M8588.9-3259.5v-239.3l-80.4-5.7l-82.3-5.8v237.4c0,130.2,5.7,243.1,13.4,250.7c7.6,7.7,44,11.5,82.3,7.7l67-5.7V-3259.5z M9574.6-3259.5v-76.6h-325.4h-325.4v76.6v76.6h325.4h325.4V-3259.5z"/><path d="M1935.6,2017.5c-162.7-61.3-273.7-164.6-335-310.1c-42.1-101.4-40.2-4455.9,1.9-4557.4c45.9-111,134-206.7,243.1-266c243.1-134,539.8-19.1,664.2,258.4c38.3,84.2,40.2,114.8,40.2,2287.3s-1.9,2203.1-40.2,2287.3C2404.5,1950.6,2134.6,2092.2,1935.6,2017.5z M2192.1,1657.7c30.6-38.3,32.5-172.3,32.5-2228c0-2124.6-1.9-2187.8-36.4-2231.8c-53.6-65.1-199.1-65.1-252.7,0c-34.5,44-36.4,107.2-36.4,2226.1c0,1506.4,5.7,2191.6,21.1,2218.4C1964.3,1724.7,2128.9,1734.3,2192.1,1657.7z"/><path d="M3583.6,2025.2c-135.9-44-268-157-336.9-289c-34.5-65.1-36.4-160.8-36.4-2306.4v-2239.5l42.1-76.6c49.8-91.9,162.7-202.9,254.6-250.8c95.7-49.7,273.7-45.9,375.2,5.8c122.5,65.1,191.4,132.1,245,239.3l49.8,99.5v2222.2V1652l-49.8,99.5c-53.6,107.2-122.5,176.1-241.2,235.4C3801.8,2030.9,3654.4,2048.2,3583.6,2025.2z M3801.8,1676.8l49.8-38.3V-570.3v-2208.8l-51.7-40.2c-42.1-32.5-70.8-40.2-128.2-32.5c-147.4,21-135.9-179.9-141.6,2250.9c-1.9,1416.4,1.9,2197.4,15.3,2229.9C3577.9,1718.9,3715.7,1743.8,3801.8,1676.8z"/><path d="M5191.4,2013.7c-114.8-36.4-237.3-143.6-302.4-266.1l-51.7-97.6V-570.3v-2220.3l51.7-97.6c67-126.3,187.6-229.7,310.1-266c118.7-36.4,134-36.4,260.3,1.9c74.7,23,126.3,55.5,202.9,130.1c172.3,174.2,160.8,0,160.8,2451.9c0,2448.1,11.5,2279.6-158.9,2450c-67,65.1-132.1,109.1-193.3,130.2C5357.9,2048.2,5306.2,2048.2,5191.4,2013.7z M5407.7,1699.8c26.8-11.5,55.5-44,68.9-80.4c28.7-84.2,30.6-4291.3,1.9-4375.5c-40.2-112.9-225.9-135.9-290.9-36.4c-7.6,11.5-15.3,1012.6-15.3,2222.2c0,1211.6,7.7,2210.7,15.3,2222.2C5225.9,1711.3,5323.5,1732.3,5407.7,1699.8z"/><path d="M6835.6,2017.5c-162.7-61.3-273.7-164.6-335-310.1c-42.1-101.4-40.2-4455.9,1.9-4557.4c45.9-111,134-206.7,243.1-266c243.1-134,539.8-19.1,664.2,258.4c38.3,84.2,40.2,114.8,40.2,2287.3s-1.9,2203.1-40.2,2287.3C7304.5,1950.6,7034.6,2092.2,6835.6,2017.5z M7090.2,1659.6c32.5-40.2,34.5-170.4,34.5-2229.9c0-2124.6-1.9-2187.8-36.4-2231.8c-53.6-65.1-199.1-65.1-252.6,0c-34.5,44-36.4,107.2-36.4,2235.6v2189.7l49.8,49.8c42.1,42.1,61.3,47.9,128.3,38.3C7027,1703.6,7071,1684.5,7090.2,1659.6z"/></g></g>
</svg>