<?xml version="1.0" encoding="utf-8"?>
<!-- Svg Vector Icons : http://www.onlinewebfonts.com/icon -->
<!DOCTYPE svg PUBLIC "-//W3C//DTD SVG 1.1//EN" "http://www.w3.org/Graphics/SVG/1.1/DTD/svg11.dtd">
<svg version="1.1" xmlns="http://www.w3.org/2000/svg" xmlns:xlink="http://www.w3.org/1999/xlink" x="0px" y="0px" viewBox="0 0 1000 1000" enable-background="new 0 0 1000 1000" xml:space="preserve">
<metadata> Svg Vector Icons : http://www.onlinewebfonts.com/icon </metadata>
<g><g transform="translate(0.000000,486.000000) scale(0.100000,-0.100000)"><path d="M593.8,4268.1l-5.7-245l-243.1-5.7l-245-5.7v-725.4v-725.4l245-5.7l243.1-5.7V-140v-2689.3l-245-5.7l-243.1-5.7v-725.4v-725.4l243.1-5.7l245-5.7l5.7-243.1l5.7-245h811.6h813.5v248.8v248.8h76.6h76.6v-248.8v-248.8h823h823v248.8v248.8h76.6h76.6v-248.8v-248.8h823h823v248.8v248.8h76.6h76.6v-248.8v-248.8h823h823v248.8v248.8h76.6h76.6v-248.8v-248.8h813.5h811.6l5.7,245l5.7,243.1l245,5.7l243.1,5.7v725.4v725.4l-243.1,5.7l-245,5.7V-140v2689.3l245,5.7l243.1,5.7v725.4v725.4l-243.1,5.7l-245,5.7l-5.7,245l-5.7,243.1h-811.6h-813.5v-248.8v-248.8h-76.6h-76.6v248.8v248.8h-823h-823v-248.8v-248.8h-76.6H5823v248.8v248.8h-823h-823v-248.8v-248.8h-76.6h-76.6v248.8v248.8h-823h-823v-248.8v-248.8h-76.6h-76.6v248.8v248.8h-813.5H599.6L593.8,4268.1z M1899.2-140v-4325.8h-488.1H923V-140v4325.8h488.1h488.1V-140z M3696.5-140v-4325.8h-486.2h-488.1V-140v4325.8h488.1h486.2V-140z M5491.9-140v-4325.8H5000h-491.9V-140v4325.8H5000h491.9V-140z M7277.7-140v-4325.8h-488.1h-488.1V-140v4325.8h488.1h488.1V-140z M9077-140v-4325.8h-488.1h-488.1V-140v4325.8h488.1H9077V-140z M578.5,3286.2v-402H502h-76.6v402v402H502h76.6V3286.2z M2377.7,3286.2v-402h-76.6h-76.6v402v402h76.6h76.6V3286.2z M4177,3286.2v-402h-76.6h-76.6v402v402h76.6h76.6V3286.2z M5976.2,3286.2v-402h-76.6H5823v402v402h76.6h76.6V3286.2z M7775.4,3286.2v-402h-76.6h-76.6v402v402h76.6h76.6V3286.2z M9574.6,3286.2v-402H9498h-76.6v402v402h76.6h76.6V3286.2z M2377.7-140v-2698.8h-76.6h-76.6V-140v2698.8h76.6h76.6V-140z M4177-140v-2698.8h-76.6h-76.6V-140v2698.8h76.6h76.6V-140z M5976.2-140v-2698.8h-76.6H5823V-140v2698.8h76.6h76.6V-140z M7775.4-140v-2698.8h-76.6h-76.6V-140v2698.8h76.6h76.6V-140z M578.5-3566.2v-402H502h-76.6v402v402H502h76.6V-3566.2z M2377.7-3566.2v-402h-76.6h-76.6v402v402h76.6h76.6V-3566.2z M4177-3566.2v-402h-76.6h-76.6v402v402h76.6h76.6V-3566.2z M5976.2-3566.2v-402h-76.6H5823v402v402h76.6h76.6V-3566.2z M7775.4-3566.2v-402h-76.6h-76.6v402v402h76.6h76.6V-3566.2z M9574.6-3566.2v-402H9498h-76.6v402v402h76.6h76.6V-3566.2z"/></g></g>
</svg>