<?xml version="1.0" encoding="utf-8"?>
<!-- Svg Vector Icons : http://www.onlinewebfonts.com/icon -->
<!DOCTYPE svg PUBLIC "-//W3C//DTD SVG 1.1//EN" "http://www.w3.org/Graphics/SVG/1.1/DTD/svg11.dtd">
<svg version="1.1" xmlns="http://www.w3.org/2000/svg" xmlns:xlink="http://www.w3.org/1999/xlink" x="0px" y="0px" viewBox="0 0 1000 1000" enable-background="new 0 0 1000 1000" xml:space="preserve">
<metadata> Svg Vector Icons : http://www.onlinewebfonts.com/icon </metadata>
<g><g transform="translate(0.000000,331.000000) scale(0.100000,-0.100000)"><path d="M1983.2,1397.4C1301.4,1336.1,680.9,920.5,431.9,355.5c-26.8-61.3-72.8-183.9-99.6-275.8c-47.9-155.1-51.7-193.4-61.3-701l-11.5-536.3l-53.6-99.6c-136-260.5-141.7-580.3-13.4-831.2l40.2-76.6l-63.2-128.3c-55.5-113-63.2-145.6-63.2-291.1c0-145.6,7.7-178.1,61.3-289.2c55.5-113,201.1-283.4,279.6-327.5c26.8-13.4,26.8-23,0-86.2c-74.7-181.9,61.3-427.1,279.6-501.8c36.4-11.5,128.3-21.1,204.9-21.1h141.7v-239.4v-239.4h162.8h162.8v-249v-249h172.4h172.4v249v249h153.2h153.2v239.4v239.4h3026h3026v-239.4v-239.4h162.8h162.8v-249v-249h172.4h172.4v249v249h153.2H9079v239.4v239.4h159c111.1,0,180,11.5,233.7,36.4c84.3,38.3,210.7,166.6,239.4,243.2c34.5,90,21.1,222.2-28.7,312.2l-47.9,82.4l67,70.8c38.3,38.3,95.8,124.5,130.2,193.4l61.3,124.5l5.7,890.6c3.8,756.5,0,911.6-24.9,1026.5c-68.9,310.3-331.3,599.5-651.2,722l-114.9,42.1l-2116.3,9.6C4898.2-44.8,4873.3-44.8,4727.7-4.5c-289.2,82.4-386.9,157-825.4,641.6C3406.2,1186.7,2709.1,1462.5,1983.2,1397.4z M2659.3,1043.1c101.5-24.9,264.3-84.3,362-132.1c166.6-82.4,178.1-90,178.1-145.6c0-40.2,19.2-76.6,59.4-116.8c51.7-51.7,67-57.5,139.8-47.9c82.4,11.5,84.3,9.6,199.2-107.2c111.1-116.8,114.9-122.6,105.3-206.8c-7.7-72.8-1.9-90,40.2-130.2c30.6-28.7,74.7-47.9,114.9-47.9c47.9-1.9,88.1-23,147.5-78.5c46-42.1,107.3-93.8,134.1-116.8c42.1-30.6,49.8-53.6,47.9-120.6c-1.9-67,7.7-90,51.7-128.3c70.9-61.3,155.1-59.4,216.4,1.9l47.9,47.9l185.8-42.1c183.9-42.1,210.7-42.1,2292.5-51.7l2106.7-11.5l120.7-55.5c162.8-76.6,277.7-204.9,329.4-369.6c34.5-111.1,38.3-178.1,38.3-641.6c0-283.4-5.7-513.3-13.4-509.4c-197.3,99.6-201.1,101.5-480.7,107.2l-273.9,5.7l47.9,38.3c122.6,95.8,55.5,283.4-99.6,285.4c-141.7,0-208.8-172.4-107.3-275.8l51.7-49.8h-438.6c-308.3,1.9-429,7.6-404.1,21.1c49.8,28.7,93.8,128.3,78.5,176.2c-55.5,187.7-314.1,164.7-314.1-28.7c0-55.5,13.4-86.2,49.8-120.6l51.7-47.9h-436.7h-436.7l51.7,47.9c109.2,101.5,38.3,277.7-113,277.7c-139.8,0-204.9-187.7-97.7-279.6l51.7-45.9h-434.7H5873l51.7,53.6c128.3,134.1-9.6,327.5-187.7,260.5c-36.4-15.3-86.2-105.3-86.2-159c0-21.1,23-63.2,49.8-95.8l49.8-59.4h-425.2h-425.2l49.8,59.4c97.7,114.9,32.6,266.2-113,266.2s-210.7-151.3-113-266.2l49.8-59.4h-427.1h-425.2l40.2,44c107.3,114.9,46,279.6-107.2,281.5c-141.7,0-208.8-172.4-107.3-275.8l51.7-49.8h-438.6c-321.7,1.9-429,5.7-404.1,21.1c46,26.8,93.9,139.8,76.6,183.9c-40.2,116.8-166.6,155.1-262.4,80.4c-70.9-55.5-70.9-172.4,0-237.5l51.7-47.9h-383h-384.9v168.5c0,220.2-51.7,377.3-176.2,557.3c-162.8,231.7-409.8,385-679.9,425.2c-63.2,7.7-118.7,26.8-122.6,40.2c-28.7,84.3-149.4,134.1-241.3,99.6c-36.4-13.4-86.2-105.3-86.2-157c0-28.7-101.5-99.6-143.6-99.6c-5.7,0-9.6,136-9.6,302.6c0,316,23,465.4,95.8,660.7l42.1,113l36.4-59.4C834.1,85.5,960.5,74,1035.2,167.8c84.3,109.2,19.2,249-120.6,258.6l-80.4,5.7l162.8,164.7c90,90,181.9,174.3,206.8,187.7c40.2,21.1,42.1,19.2,42.1-36.4c0-141.7,166.6-201.1,270-97.7c72.8,72.8,72.8,141.7-1.9,216.4c-30.6,30.6-57.5,59.4-57.5,63.2c0,9.6,183.9,82.3,287.3,113C2017.7,1121.6,2352.9,1121.6,2659.3,1043.1z M1297.6-1063.6c262.4-90,427.1-325.6,427.1-612.9c0-172.4,32.6-160.9-457.7-160.9c-438.6,0-614.8-17.2-718.2-70.9c-51.7-26.8-59.4-26.8-80.4,3.8c-38.3,51.7-53.6,235.6-30.6,362c24.9,130.2,122.6,287.3,239.4,381.1C824.6-1040.7,1104.2-998.5,1297.6-1063.6z M9310.8-2205.1c153.2-51.7,233.7-157,256.6-333.2c24.9-181.9-57.5-342.8-210.7-411.8c-72.8-34.5-245.1-36.4-4357.1-36.4c-4111.9,0-4284.3,1.9-4357.1,36.4c-180,80.4-262.4,289.2-199.2,501.8c26.8,84.3,111.1,172.4,218.3,226c76.6,38.3,128.3,38.3,4330.2,40.2C8155.9-2182.1,9262.9-2187.9,9310.8-2205.1z M9381.6-3329.3c15.3-9.6,23-42.1,19.2-80.4l-5.7-65.1l-4297.7-5.7c-3252-1.9-4303.4,1.9-4324.5,19.2c-15.3,11.5-24.9,44.1-21.1,70.8l5.7,49.8l4251.7,9.6c2338.4,5.7,4272.8,11.5,4299.6,13.4C9335.7-3314,9368.2-3319.7,9381.6-3329.3z M1724.7-3886.6v-76.6h-162.8h-162.8v76.6v76.6h162.8h162.8V-3886.6z M8753.4-3886.6v-76.6h-162.8h-162.8v76.6v76.6h162.8h162.8V-3886.6z"/><path d="M2308.8,897.5c-99.6-57.5-116.8-180-36.4-254.7c109.2-101.5,275.8-23,275.8,126.4c0,53.6-101.5,151.3-157.1,151.3C2366.3,920.5,2329.9,909,2308.8,897.5z"/><path d="M1782.1,384.2c-84.3-84.3-55.5-226,57.5-264.3c159-55.5,287.3,147.5,166.6,260.5C1948.8,435.9,1835.8,437.9,1782.1,384.2z"/><path d="M2762.7,378.5c-44.1-47.9-55.6-143.6-23-204.9c28.7-51.7,122.6-78.5,193.4-53.6c65.1,23,120.7,122.6,99.6,181.9C2990.6,422.5,2843.2,464.7,2762.7,378.5z"/><path d="M1332.1-79.2c-99.6-53.6-118.7-176.2-38.3-254.7c65.1-67,149.4-63.2,222.2,7.7c72.8,72.8,72.8,141.7,0,214.5C1456.6-54.3,1397.2-42.8,1332.1-79.2z"/><path d="M2278.2-111.8c-70.9-72.8-74.7-157.1-7.7-222.2c103.4-103.4,277.7-24.9,277.7,124.5c0,57.5-101.5,153.2-162.8,153.2C2354.8-56.3,2312.7-79.2,2278.2-111.8z"/><path d="M3254.9-111.8c-59.4-59.4-69-113-32.6-180c78.5-149.4,304.5-99.6,302.6,67c-1.9,70.8-26.8,113-90,145.5C3367.9-42.8,3314.3-52.4,3254.9-111.8z"/><path d="M1786-592.5c-57.5-53.6-69-118.7-34.5-187.7c80.4-155.1,298.8-101.5,298.8,72.8C2050.3-573.4,1885.6-500.6,1786-592.5z"/><path d="M2762.7-598.3c-44.1-47.9-55.6-143.6-23-203c30.6-59.4,124.5-88.1,193.4-57.5c67,26.8,120.7,126.4,99.6,183.9C2990.6-554.2,2843.2-512.1,2762.7-598.3z"/><path d="M3745.2-602.1c-145.6-143.6,70.9-365.8,222.2-227.9c49.8,46,63.2,130.2,28.7,195.3C3946.3-538.9,3821.8-523.6,3745.2-602.1z"/><path d="M4722-602.1c-99.6-97.7-26.8-266.2,114.9-266.2c55.5,0,82.3,13.4,116.8,53.6c93.8,107.2,24.9,260.5-116.8,260.5C4789-554.2,4752.6-569.5,4722-602.1z"/><path d="M5731.3-567.6c-30.7-11.5-80.4-107.2-80.4-157c0-21.1,21.1-61.3,45.9-90c93.9-109.2,279.6-42.1,279.6,101.5C5976.4-596.3,5848.1-519.7,5731.3-567.6z"/><path d="M6677.4-613.6c-57.5-67-61.3-93.8-21.1-168.5c38.3-76.6,126.4-109.2,201.1-78.5c70.9,28.7,95.8,70.9,95.8,159C6953.2-558,6773.1-498.7,6677.4-613.6z"/><path d="M7665.6-598.3c-44-47.9-55.5-143.6-23-203c30.6-59.4,124.5-88.1,193.4-57.5c67,26.8,120.7,126.4,99.6,183.9C7893.5-554.2,7746.1-512.1,7665.6-598.3z"/><path d="M8648.1-602.1C8502.6-745.7,8719-967.9,8870.3-830c49.8,46,63.2,130.2,28.7,195.3C8849.2-538.9,8724.7-523.6,8648.1-602.1z"/><path d="M2278.2-1088.5c-70.9-72.8-74.7-157-7.7-222.2c97.7-99.6,277.7-28.7,277.7,109.2c0,72.8-91.9,168.5-162.8,168.5C2354.8-1033,2312.7-1056,2278.2-1088.5z"/><path d="M3254.9-1088.5c-59.4-59.4-69-113-32.6-180c80.4-151.3,302.6-99.6,302.6,70.8c0,49.8-13.4,76.6-59.4,114.9C3389-1017.7,3323.9-1019.6,3254.9-1088.5z"/><path d="M4271.9-1057.9c-145.6-72.8-91.9-300.7,70.9-300.7s224.1,224.1,80.4,296.9C4358.1-1027.3,4333.2-1027.3,4271.9-1057.9z"/><path d="M5258.2-1056c-61.3-32.6-86.2-74.7-86.2-151.3c0-130.2,149.4-195.3,254.7-113c63.2,49.8,78.5,120.7,42.1,193.4C5424.8-1044.5,5334.8-1013.8,5258.2-1056z"/><path d="M6235-1056c-145.5-84.3-93.8-304.5,70.9-302.6c157.1,1.9,220.2,189.6,97.7,287.3C6348-1029.2,6292.4-1023.4,6235-1056z"/><path d="M7181.1-1088.5c-70.9-72.8-74.7-157-7.7-222.2c97.7-99.6,277.7-28.7,277.7,109.2c0,72.8-91.9,168.5-162.8,168.5C7257.7-1033,7215.5-1056,7181.1-1088.5z"/><path d="M8157.8-1088.5c-59.4-59.4-69-113-32.6-180c80.4-151.3,302.6-99.6,302.6,70.8c0,49.8-13.4,76.6-59.4,114.9C8291.9-1017.7,8226.8-1019.6,8157.8-1088.5z"/><path d="M9174.8-1057.9c-145.5-72.8-91.9-300.7,70.9-300.7s224.1,224.1,80.4,296.9C9261-1027.3,9236.1-1027.3,9174.8-1057.9z"/></g></g>
</svg>