<?xml version="1.0" encoding="utf-8"?>
<!-- Svg Vector Icons : http://www.onlinewebfonts.com/icon -->
<!DOCTYPE svg PUBLIC "-//W3C//DTD SVG 1.1//EN" "http://www.w3.org/Graphics/SVG/1.1/DTD/svg11.dtd">
<svg version="1.1" xmlns="http://www.w3.org/2000/svg" xmlns:xlink="http://www.w3.org/1999/xlink" x="0px" y="0px" viewBox="0 0 1000 1000" enable-background="new 0 0 1000 1000" xml:space="preserve">
<metadata> Svg Vector Icons : http://www.onlinewebfonts.com/icon </metadata>
<g><g transform="translate(0.000000,512.000000) scale(0.100000,-0.100000)"><path d="M2875.4,4709.9c0-914.9-141.6-2030.8-375.2-2972.5c-179.9-715.9-365.6-1274.8-694.8-2071c-74.6-181.8-135.9-338.8-135.9-348.4c0-15.3,447.9-22.9,1406.8-24.9l1406.8-5.7l-239.3-296.7c-130.2-162.7-237.3-306.2-239.3-315.8c0-11.5,59.3-168.4,132.1-350.3l132.1-329.2l-93.8-40.2c-128.2-55.5-256.5-201-296.7-335c-47.9-164.6-1.9-315.8,139.7-451.7c72.7-70.8,216.3-147.4,279.4-149.3c101.5,0-36.4-505.3-189.5-687.2c-80.4-95.7-145.5-118.7-379-135.9c-134-9.6-248.8-28.7-312-53.6c-325.4-124.4-541.7-451.7-541.7-817.3V-4780H5000h2124.6v105.3c0,281.4-122.5,534-336.9,700.5c-147.4,112.9-268,153.1-516.8,170.4c-128.3,9.6-235.4,26.8-269.9,45.9c-153.1,78.5-285.2,342.6-327.3,658.4c-15.3,112.9-15.3,118.7,23,118.7c74.6,0,231.6,90,312,178c51.7,55.5,90,122.5,109.1,187.6c38.3,122.5,38.3,122.5,1.9,241.2c-38.3,128.3-168.4,273.7-294.8,329.2l-93.8,40.2l132.1,329.2c72.8,181.8,132.1,336.9,132.1,344.5c0,9.6-107.2,151.2-239.3,317.7l-237.4,300.5l1404.9,5.7c972.3,1.9,1406.8,9.6,1406.8,24.9c0,9.6-61.3,168.5-135.9,348.4c-312,752.2-518.7,1366.7-687.2,2051.9c-241.2,972.3-354.1,1812.6-377.1,2800.3l-11.5,501.5H4996.2H2875.4V4709.9z M4155.9,4604.6c0-51.7-101.4-1190.5-223.9-2532.3L3708-368.1l-779-5.7c-430.7-1.9-780.9,0-780.9,3.8c0,5.7,51.7,135.9,112.9,292.9c438.3,1104.4,731.2,2285.4,863.2,3487.4c42.1,380.9,76.6,890,76.6,1127.4v157h478.5h478.5L4155.9,4604.6z M5503.4,4317.5c28.7-828.8,168.4-2365.8,367.5-4006.1c36.4-300.5,70.8-576.1,78.5-614.4l9.6-68.9H5000h-958.9l11.5,68.9c23,149.3,164.6,1364.7,227.8,1963.8c122.5,1150.4,193.3,2042.3,216.3,2666.3l11.5,367.5H5000h491.9L5503.4,4317.5z M6805,4348.2c55.5-1489.1,390.5-3074,941.7-4446.4c57.4-145.5,105.3-268,105.3-271.8c0-3.8-350.3-5.8-779-3.8l-780.9,5.7l-224,2440.4c-122.5,1341.8-223.9,2480.6-223.9,2532.3l-1.9,90h474.7h476.6L6805,4348.2z M5356-1038c145.5-185.7,264.1-346.4,260.3-359.8c-1.9-13.4-57.4-155-120.6-313.9L5379-2004.6h-379h-379l-116.8,292.9c-63.2,158.9-118.7,300.5-120.6,313.9c-3.8,13.4,112.9,174.2,260.3,359.8l266,335h90h90L5356-1038z M5767.5-2364.5c34.5-28.7,42.1-55.5,42.1-128.2c0-72.7-7.6-99.5-42.1-128.2c-42.1-32.5-93.8-34.5-767.5-34.5c-683.3,0-725.4,1.9-767.5,36.4c-38.3,30.6-45.9,53.6-44,128.2c3.8,166.5-23,160.8,811.6,160.8C5673.7-2330,5725.4-2331.9,5767.5-2364.5z M5350.3-3114.8c19.1-153.1,111-434.5,187.6-566.6c30.6-53.6,55.5-103.4,55.5-111c0-5.7-266.1-11.5-593.4-11.5c-325.4,0-593.4,3.8-593.4,7.7c0,3.8,34.4,74.6,74.6,156.9c88,178,145.5,357.9,164.6,514.9c7.7,63.2,19.1,120.6,23,130.2c3.8,7.7,156.9,11.5,336.9,9.6l329.2-5.7L5350.3-3114.8z M6512.1-4169.4c126.3-57.4,248.8-187.6,248.8-266.1c0-13.4-543.6-19.2-1760.9-19.2c-1217.3,0-1760.9,5.7-1760.9,19.2c0,78.5,122.5,208.6,248.8,266.1c84.2,38.3,118.7,40.2,1512.1,40.2C6393.4-4129.2,6427.9-4131.1,6512.1-4169.4z"/></g></g>
</svg>