<?xml version="1.0" encoding="utf-8"?>
<!-- Svg Vector Icons : http://www.onlinewebfonts.com/icon -->
<!DOCTYPE svg PUBLIC "-//W3C//DTD SVG 1.1//EN" "http://www.w3.org/Graphics/SVG/1.1/DTD/svg11.dtd">
<svg version="1.1" xmlns="http://www.w3.org/2000/svg" xmlns:xlink="http://www.w3.org/1999/xlink" x="0px" y="0px" viewBox="0 0 1000 1000" enable-background="new 0 0 1000 1000" xml:space="preserve">
<metadata> Svg Vector Icons : http://www.onlinewebfonts.com/icon </metadata>
<g><g transform="translate(0.000000,503.000000) scale(0.100000,-0.100000)"><path d="M2855.1,4816c-1277-174.2-2339.5-1125.7-2659.3-2383.6c-90-356.1-95.7-455.6-95.7-2270.6c0-1954.7-11.5-1816.9,170.4-2000.7c170.4-168.5,178.1-170.4,963-170.4h666.3v-162.7v-162.7h-695H507.9L389.2-2394c-134-67-233.6-183.8-270-314c-13.4-51.7-19.1-268-15.3-650.9c5.7-631.8,3.8-620.3,134-765.8c107.2-122.5,187.6-151.3,446.1-162.7l229.7-9.6l9.6-206.8c13.4-300.6-30.6-281.4,645.2-281.4h545.6l55.5,55.5c53.6,55.5,55.5,61.3,55.5,248.9v193.4h2776h2776v-193.4c0-187.6,1.9-193.4,55.5-248.9l55.5-55.5H8434c675.8,0,631.8-19.1,645.2,281.4l9.6,206.8l229.7,9.6c258.5,11.5,338.9,40.2,446.1,162.7c132.1,147.4,128.3,128.3,128.3,804.1c0,555.2-3.8,618.4-34.5,683.5c-51.7,103.4-158.9,204.9-270,256.6c-97.6,45.9-97.6,45.9-867.3,45.9h-771.5v162.7v162.7h742.8c842.4,0,857.7,1.9,1014.7,143.6c49.8,44,111,122.5,137.9,174.2l47.9,93.8l5.7,1694.4c3.8,1192.7,0,1755.6-15.3,1903c-155.1,1453.1-1300,2624.8-2753.1,2816.2C6831.6,4856.3,3144.2,4854.3,2855.1,4816z M7308.3,4463.8c287.2-65.1,511.2-145.5,756.2-271.9c767.7-396.3,1284.6-1100.8,1468.4-1998.8c26.8-134,32.5-381,38.3-1931.7c5.7-1342.1,1.9-1793.9-15.3-1834.1c-49.8-118.7,287.2-111-4554.6-111c-4841.8,0-4504.8-7.6-4554.6,111c-17.2,40.2-21,490.1-15.3,1843.7c5.7,1728.8,7.7,1793.9,46,1971.9c86.2,390.6,225.9,727.5,430.8,1035.7c143.6,214.4,515,595.4,723.7,737.1c388.6,264.2,876.8,440.3,1359.3,492c36.4,3.8,980.2,3.8,2096.4,3.8l2029.4-3.8L7308.3,4463.8z M2550.7-2171.9v-162.7H2388h-162.7v162.7v162.7H2388h162.7V-2171.9z M6954.1-2171.9v-162.7H4915.2h-2039v162.7v162.7h2039h2038.9V-2171.9z M7620.3-2175.8l5.7-158.9h-174.2h-172.3v149.3c0,82.3,5.7,157,13.4,164.7c7.6,7.6,82.3,9.6,168.5,7.6l153.2-5.7L7620.3-2175.8z M9531-2708l47.9-47.9l-5.7-576.2c-5.7-543.7-7.6-576.3-42.1-603.1c-32.5-23-683.5-26.8-4533.5-26.8c-4470.4,0-4495.3,0-4533.6,38.3c-36.4,36.4-38.3,63.2-38.3,603.1v566.7l47.9,45.9l45.9,47.9h4481.9h4481.9L9531-2708z M1899.8-4383.2v-76.6h-325.5h-325.5v76.6v76.6h325.5h325.5V-4383.2z M8753.7-4383.2v-76.6h-325.5h-325.5v76.6v76.6h325.5h325.5V-4383.2z"/><path d="M3492.7,4297.2c-187.6-93.8-308.2-298.7-283.4-482.5c24.9-178,185.7-363.8,363.8-415.5c141.7-42.1,2714.8-42.1,2856.4,0c178.1,51.7,338.9,237.4,363.8,415.5c24.9,183.8-95.7,388.6-283.3,482.5l-99.6,49.8H5001.3H3592.2L3492.7,4297.2z M6437.2,3969.8c32.5-42.1,40.2-70.8,32.5-128.3c-19.1-145.5,86.2-135.9-1439.7-141.7c-1525.9-5.7-1470.3-9.6-1495.2,118.7c-13.4,74.7,0,132.1,42.1,174.2c26.8,24.9,206.8,28.7,1424.4,28.7H6397L6437.2,3969.8z"/><path d="M1482.4,2706.2c-32.5-11.5-80.4-109.1-80.4-158.9c0-23,24.9-67,55.5-97.6l55.5-55.5h306.3c304.4,0,304.4,0,356.1,49.8c67,67,67,164.6,1.9,227.8c-46,47.9-51.7,47.9-358,46C1647.1,2717.7,1495.8,2712,1482.4,2706.2z"/><path d="M2598.6,2671.8c-67-65.1-65.1-168.5,1.9-229.7c49.8-45.9,59.4-47.9,356.1-47.9h306.3l55.5,55.5c30.6,30.6,55.5,74.7,55.5,97.6c0,55.5-49.8,145.5-86.2,160.8c-17.2,5.7-168.5,11.5-337,11.5C2652.2,2719.7,2644.5,2717.7,2598.6,2671.8z"/><path d="M3743.5,2677.5c-67-72.7-65.1-168.5,3.8-235.5c45.9-45.9,53.6-47.9,352.3-47.9c294.8,0,308.2,1.9,358,46c70.8,59.3,72.7,160.8,7.7,231.6c-44,47.9-47.9,47.9-363.8,47.9C3795.2,2719.7,3781.8,2717.7,3743.5,2677.5z"/><path d="M5537.4,2671.8c-65.1-70.8-63.2-172.3,7.6-231.6c49.8-44,63.2-46,358-46c298.7,0,306.3,1.9,352.3,47.9c68.9,67,70.8,162.7,3.8,235.5c-38.3,40.2-51.7,42.1-358,42.1C5585.2,2719.7,5581.4,2719.7,5537.4,2671.8z"/><path d="M6709,2706.2c-32.5-11.5-80.4-109.1-80.4-158.9c0-23,24.9-67,55.5-97.6l55.5-55.5H7046c296.8,0,306.3,1.9,356.1,47.9c67,61.3,68.9,164.7,1.9,229.7c-45.9,47.9-51.7,47.9-358,46C6873.7,2717.7,6722.5,2712,6709,2706.2z"/><path d="M7825.2,2671.8c-65.1-63.2-65.1-160.8,1.9-227.8c51.7-49.8,51.7-49.8,356.1-49.8h306.3l55.5,55.5c30.6,30.6,55.5,74.7,55.5,97.6c0,55.5-49.8,145.5-86.2,160.8c-17.2,5.7-168.5,11.5-336.9,11.5C7878.8,2719.7,7871.2,2717.7,7825.2,2671.8z"/><path d="M1482.4,2055.3c-30.6-11.5-80.4-107.2-80.4-157c0-21.1,23-63.2,49.8-95.7l49.8-59.4h314c310.2,0,315.9,0,361.9,47.9c32.5,30.6,47.9,67,47.9,114.9c0,47.9-15.3,84.2-47.9,114.9c-46,47.9-51.7,47.9-358,46C1647.1,2066.8,1495.8,2061.1,1482.4,2055.3z"/><path d="M2598.6,2020.9c-32.5-30.6-47.9-67-47.9-114.9c0-47.9,15.3-84.2,47.9-114.9c45.9-47.9,51.7-47.9,361.8-47.9h314l49.8,59.4c53.6,63.2,61.3,112.9,26.8,176.1c-44,82.3-68.9,88.1-394.4,90C2650.3,2068.7,2644.5,2068.7,2598.6,2020.9z"/><path d="M3747.3,2024.7c-40.2-32.5-51.7-61.3-51.7-118.7c0-57.4,11.5-86.2,51.7-118.7c47.9-42.1,65.1-44,354.2-44c292.9,0,306.3,1.9,356.1,46c70.8,59.3,72.7,160.8,7.7,231.7c-44,47.9-47.9,47.9-356.1,47.9C3812.4,2068.7,3795.2,2066.8,3747.3,2024.7z"/><path d="M5537.4,2020.9c-65.1-70.8-63.2-172.3,7.6-231.7c49.8-44,63.2-46,358-46c298.7,0,306.3,1.9,352.3,47.9c72.7,70.8,70.8,168.5-1.9,235.5c-46,40.2-63.2,42.1-360,42.1C5585.2,2068.7,5581.4,2068.7,5537.4,2020.9z"/><path d="M6703.3,2043.8c-84.2-65.1-93.8-158.9-24.9-241.2l49.8-59.4h314c310.2,0,315.9,0,361.8,47.9c32.6,30.6,47.9,67,47.9,114.9c0,47.9-15.3,84.2-47.9,114.9c-45.9,47.9-51.7,47.9-358,47.9C6831.6,2066.8,6724.4,2061.1,6703.3,2043.8z"/><path d="M7825.2,2020.9c-32.5-30.6-47.9-67-47.9-114.9c0-47.9,15.3-84.2,47.9-114.9c46-47.9,51.7-47.9,361.9-47.9h314l49.8,59.4c53.6,63.2,61.3,112.9,26.8,176.1c-44,82.3-68.9,88.1-394.4,90C7876.9,2068.7,7871.2,2068.7,7825.2,2020.9z"/><path d="M1463.3,1379.5c-78.5-72.7-76.6-176.1,1.9-248.9c36.4-34.5,68.9-38.3,352.3-38.3c308.2,0,314,0,359.9,47.9c32.5,30.6,47.9,67,47.9,114.9c0,47.9-15.3,84.2-47.9,114.9c-46,47.9-51.7,47.9-359.9,47.9C1530.3,1417.8,1501.6,1414,1463.3,1379.5z"/><path d="M2598.6,1369.9c-32.5-30.6-47.9-67-47.9-114.9c0-47.9,15.3-84.2,47.9-114.9c45.9-47.9,51.7-47.9,358-47.9c325.5,1.9,350.4,7.7,394.4,90c34.5,63.2,26.8,113-26.8,176.1l-49.8,59.3h-314C2650.3,1417.8,2644.5,1417.8,2598.6,1369.9z"/><path d="M3747.3,1373.8c-40.2-32.6-51.7-61.3-51.7-118.7s11.5-86.2,51.7-118.7c47.9-42.1,65.1-44,361.8-44c308.2,0,312.1,0,356.1,47.9c65.1,70.8,63.2,172.3-7.7,231.7c-49.8,44-63.2,45.9-356.1,45.9C3812.4,1417.8,3795.2,1415.9,3747.3,1373.8z"/><path d="M5545,1371.8c-70.8-59.4-72.8-160.8-7.6-231.7c44-47.9,47.9-47.9,356.1-47.9c296.8,0,314,1.9,360,44c72.7,65.1,74.6,162.7,1.9,233.6c-46,46-53.6,47.9-352.3,47.9C5608.2,1417.8,5594.8,1415.9,5545,1371.8z"/><path d="M6678.4,1358.4c-53.6-63.2-61.3-113-26.8-176.1c44-82.3,68.9-88.1,394.4-90c306.3,0,312.1,0,358,47.9c32.6,30.6,47.9,67,47.9,114.9c0,47.9-15.3,84.2-47.9,114.9c-45.9,47.9-51.7,47.9-361.8,47.9h-314L6678.4,1358.4z"/><path d="M7825.2,1369.9c-32.5-30.6-47.9-67-47.9-114.9c0-47.9,15.3-84.2,47.9-114.9c46-47.9,51.7-47.9,358-47.9c325.5,1.9,350.4,7.7,394.4,90c34.5,63.2,26.8,113-26.8,176.1l-49.8,59.3h-314C7876.9,1417.8,7871.2,1417.8,7825.2,1369.9z"/><path d="M1457.5,385.9c-70.8-72.8-74.7-157-7.6-222.1c45.9-47.9,51.7-47.9,363.8-47.9c312.1,0,317.8,0,363.8,47.9c51.7,51.7,63.2,151.3,23,202.9c-49.8,63.2-105.3,74.7-396.3,74.7h-291L1457.5,385.9z"/><path d="M2600.5,391.6c-67-67-67-164.7-1.9-227.8c45.9-45.9,53.6-47.9,352.3-47.9c168.5,0,319.7,5.7,337,11.5c36.4,15.3,86.2,105.3,86.2,160.8c0,23-24.9,67-55.5,97.7l-55.5,55.5h-306.3C2652.2,441.4,2652.2,441.4,2600.5,391.6z"/><path d="M3747.3,393.5c-68.9-67-70.8-162.7-3.8-233.6c38.3-42.1,51.7-44,358-44c315.9,0,319.7,0,363.8,47.9c65.1,70.8,63.2,172.3-7.7,231.7c-49.8,44-63.2,45.9-358,45.9C3800.9,441.4,3793.2,439.5,3747.3,393.5z"/><path d="M5545,395.4c-70.8-59.4-72.8-160.8-7.6-231.7c44-47.9,47.9-47.9,363.8-47.9c306.3,0,319.7,1.9,358,44c67,70.8,65.1,166.6-3.8,233.6c-46,46-53.6,47.9-352.3,47.9C5608.2,441.4,5594.8,439.5,5545,395.4z"/><path d="M6684.2,385.9c-30.6-30.6-55.5-74.7-55.5-97.7c0-55.5,49.8-145.5,86.2-160.8c17.2-5.8,168.5-11.5,336.9-11.5c298.7,0,306.3,1.9,352.3,47.9c65.1,63.2,65.1,160.8-1.9,227.8c-51.7,49.8-51.7,49.8-356.1,49.8h-306.3L6684.2,385.9z"/><path d="M7827.1,391.6c-67-67-67-164.7-1.9-227.8c46-45.9,53.6-47.9,352.3-47.9c168.5,0,319.7,5.7,336.9,11.5c36.4,15.3,86.2,105.3,86.2,160.8c0,23-24.9,67-55.5,97.7l-55.5,55.5h-306.3C7878.8,441.4,7878.8,441.4,7827.1,391.6z"/><path d="M1457.5-265.1c-70.8-70.8-74.7-157-9.6-222.1c61.3-61.3,135.9-72.8,432.7-65.1c248.9,7.7,252.7,7.7,298.7,61.3c67,78.5,61.3,168.5-13.4,231.7c-57.4,49.8-63.2,49.8-356.1,49.8h-296.8L1457.5-265.1z"/><path d="M2636.9-232.5C2539.2-288,2522-402.9,2596.7-491c46-53.6,47.9-53.6,312.1-59.3c308.2-7.7,394.4,9.6,436.5,91.9s36.4,130.2-26.8,193.4l-55.5,55.5h-294.8C2784.3-209.6,2661.8-219.1,2636.9-232.5z"/><path d="M3770.3-230.6c-21.1-11.5-47.9-49.8-63.2-86.2c-30.6-72.8-15.3-130.2,49.8-189.6c38.3-34.5,68.9-38.3,344.6-38.3c291,0,304.4,1.9,350.4,44c26.8,24.9,53.6,67,59.3,91.9c15.3,55.5-30.6,151.2-82.3,180C4379.1-201.9,3816.2-203.8,3770.3-230.6z"/><path d="M5569.9-230.6c-61.3-36.4-93.8-126.4-70.8-199.1c36.4-107.2,107.2-128.3,430.8-120.6c266.1,5.7,279.5,7.7,323.6,53.6c72.7,74.7,72.7,170.4,1.9,239.3c-46,46-51.7,47.9-348.4,47.9C5736.5-209.6,5589.1-219.1,5569.9-230.6z"/><path d="M6684.2-265.1c-59.4-59.4-67-101.5-36.4-183.8c32.5-88.1,122.5-109.1,434.6-101.5c277.6,5.7,277.6,5.7,323.5,59.3c49.8,59.4,61.3,155.1,21.1,206.8c-49.8,63.2-105.3,74.6-396.3,74.6h-291L6684.2-265.1z"/><path d="M7836.7-259.3c-74.7-63.2-80.4-153.2-13.4-231.7c45.9-53.6,49.8-53.6,298.7-61.3c296.8-7.7,371.4,3.8,432.7,65.1c65.1,65.1,61.3,151.3-9.6,222.1l-55.5,55.5h-296.7C7899.9-209.6,7894.1-209.6,7836.7-259.3z"/><path d="M1457.5-916c-68.9-70.8-72.7-151.3-9.6-225.9l46-53.6h319.7h319.7l45.9,53.6c63.2,74.7,59.4,155.1-9.6,225.9l-55.5,55.5h-300.6h-300.6L1457.5-916z"/><path d="M2610.1-910.3c-74.7-63.2-80.4-153.2-13.4-231.7l46-53.6l287.2-5.7c317.8-7.7,390.6,11.5,425,103.4c30.6,80.4,23,122.5-36.4,181.9l-55.5,55.5h-296.7C2673.3-860.5,2667.5-860.5,2610.1-910.3z"/><path d="M3774.1-889.2c-61.3-32.6-99.5-126.3-76.6-187.6c9.6-23,36.4-59.4,59.4-80.4c38.3-34.5,74.7-38.3,325.5-44c327.4-7.7,384.8,7.7,421.2,118.7c26.8,82.3-13.4,176.1-88.1,202.9C4337-849,3833.5-856.7,3774.1-889.2z"/><path d="M5579.5-879.6c-23-9.6-55.5-47.9-74.7-84.2c-26.8-55.5-26.8-74.7-5.7-126.4c42.1-103.4,101.5-118.7,421.2-111c268,5.7,287.2,7.7,333.1,51.7c84.2,78.5,70.8,210.6-28.7,260.4C6163.4-856.7,5656.1-849,5579.5-879.6z"/><path d="M6684.2-916c-61.3-63.2-72.8-141.7-26.8-204.9c49.8-74.7,122.5-88.1,421.2-80.4c281.4,5.7,281.4,5.7,327.4,59.3c67,78.5,61.3,168.5-13.4,231.7c-57.4,49.8-63.2,49.8-356.1,49.8h-296.7L6684.2-916z"/><path d="M7832.9-916c-68.9-70.8-72.8-151.3-9.6-225.9l45.9-53.6H8189h319.7l45.9,53.6c63.2,74.7,59.4,155.1-9.6,225.9l-55.5,55.5H8189h-300.6L7832.9-916z"/></g></g>
</svg>