<?xml version="1.0" encoding="utf-8"?>
<!-- Svg Vector Icons : http://www.onlinewebfonts.com/icon -->
<!DOCTYPE svg PUBLIC "-//W3C//DTD SVG 1.1//EN" "http://www.w3.org/Graphics/SVG/1.1/DTD/svg11.dtd">
<svg version="1.1" xmlns="http://www.w3.org/2000/svg" xmlns:xlink="http://www.w3.org/1999/xlink" x="0px" y="0px" viewBox="0 0 1000 1000" enable-background="new 0 0 1000 1000" xml:space="preserve">
<metadata> Svg Vector Icons : http://www.onlinewebfonts.com/icon </metadata>
<g><g transform="translate(0.000000,307.000000) scale(0.100000,-0.100000)"><path d="M1386.4,973.1c-170.4-57.5-308.3-180-404-356.2c-51.7-95.8-51.7-95.8-61.3-593.6l-9.6-496l-80.4-23c-327.5-95.7-616.6-394.5-704.7-725.8c-78.5-306.4,21.1-647.3,260.4-890.4c122.6-124.5,237.5-197.2,407.9-260.4l116.8-42.1l5.7-1227.5l3.8-1227.5H1486h564.9v162.8v162.8h2949h2949v-162.8v-162.8h564.9h564.9l3.8,1227.5l5.7,1227.5l116.8,42.1c335.1,122.5,582.1,386.8,668.3,710.4c124.5,478.7-203,1020.7-704.7,1166.2l-80.4,23l-9.6,496c-9.6,496-9.6,497.9-61.3,595.6c-68.9,132.1-203,262.3-337,327.5l-109.2,53.6l-1451.5,5.7c-1396,3.8-1457.3,3.8-1612.4-34.5c-157-36.4-344.7-116.8-453.8-195.3c-53.6-36.4-53.6-36.4-111.1,3.8c-97.7,68.9-329.4,166.6-473,199.2c-120.6,26.8-319.8,30.6-1560.7,30.6C1593.2,1007.5,1478.3,1005.6,1386.4,973.1z M4410.1,662.9c151.3-32.5,279.6-95.8,415.5-204.9c157-128.3,191.5-128.3,348.5,0c136,109.1,264.2,172.3,415.5,204.9c143.6,30.6,2862.9,30.6,2954.8,0c90-30.6,166.6-107.2,191.5-189.6c11.5-40.2,17.2-243.2,13.4-505.5l-5.7-438.5l-78.5-23c-252.8-74.7-499.8-287.2-622.4-536.2c-90-183.8-113-317.9-113-645.3v-243.2l-1258.1-5.8l-1260-5.7l-109.2-44c-59.4-24.9-153.2-84.3-206.8-130.2l-95.8-88.1l-95.7,88.1c-53.6,46-147.5,105.3-206.8,130.2l-109.2,44l-1258.1,5.7l-1260,5.8v233.6c-1.9,461.5-70.9,676-291.1,907.7c-134,137.9-231.7,203-406,266.2l-116.8,42.1l-5.7,427c-3.8,235.5,0,457.7,5.7,492.1c15.3,80.4,111.1,189.6,189.6,212.6C1535.8,689.7,4285.7,689.7,4410.1,662.9z M1365.4-853.8c134-59.4,237.5-162.8,300.6-298.7l49.8-107.2l5.7-1641.1l3.8-1643H1486h-239.4v1551.1v1551.1h-172.3H901.9v-317.9v-316l-42.1,11.5c-180,53.6-342.8,224.1-402.1,417.5c-111.1,365.8,63.2,714.3,415.6,831.1C992-777.2,1239-794.4,1365.4-853.8z M9207.1-846.1c118.7-51.7,260.4-195.3,314-319.8c97.7-220.2,53.6-530.4-99.6-704.7c-76.6-86.2-193.4-166.6-279.6-193.4l-44-11.5v316v317.9h-172.3h-172.3v-1551.1v-1551.1h-239.4h-239.4v1604.7c0,1759.8-3.8,1706.2,114.9,1884.3c67,101.5,174.3,180,312.1,229.8C8837.5-777.2,9069.2-786.8,9207.1-846.1z M4603.5-2286.2c23-11.5,122.6-99.6,220.2-195.3l176.2-176.2l178.1,176.2c95.7,95.7,195.3,183.8,218.3,195.3c28.7,15.3,411.7,21.1,1286.9,21.1h1246.6v-239.4v-239.4H5000H2070.1v239.4v239.4h1246.6C4191.8-2265.1,4574.8-2270.9,4603.5-2286.2z M7929.8-3643.9v-574.5H6553H5176.1l-7.7,279.6c-5.7,279.6-5.7,279.6-59.3,325.5c-68.9,59.4-149.4,59.4-218.3,0c-53.6-45.9-53.6-45.9-59.4-325.5l-5.8-279.6H3446.9H2070.1v574.5v574.5H5000h2929.9V-3643.9z"/><path d="M2598.6-15c-84.3-76.6-70.9-162.8,46-285.3l95.7-101.5l-23-107.2c-19.2-86.2-17.2-134,1.9-226l23-118.7l-95.8-97.7c-76.6-76.6-97.7-113-97.7-158.9c0-90,72.8-166.6,160.9-166.6c57.4,0,86.2,15.3,170.4,99.6c93.8,93.8,107.2,99.6,155.1,80.4c28.7-9.6,103.4-19.2,164.7-19.2s136,9.6,164.7,19.2c47.9,19.2,61.3,13.4,155.1-80.4c84.3-82.3,113-99.6,168.5-99.6c74.7,0,157,65.1,162.8,132.1c9.6,84.3-3.8,111.1-95.7,208.7c-90,95.7-93.8,103.4-76.6,166.6c24.9,84.3,24.9,220.2,0,304.5c-17.2,63.2-15.3,70.9,74.7,162.8c120.6,122.6,134,204.9,49.8,287.2c-76.6,78.5-147.5,65.1-268.1-49.8l-101.5-95.7l-118.7,23c-91.9,17.2-139.8,17.2-222.1,0l-105.3-24.9l-103.4,97.7C2761.4,50.1,2684.8,63.5,2598.6-15z M3276.5-455.5c126.4-65.1,149.4-180,55.5-287.2c-82.3-91.9-166.6-93.8-258.5-1.9c-88.1,88.1-86.2,147.5,9.6,243.2C3163.5-419.1,3194.2-413.3,3276.5-455.5z"/><path d="M4883.1-22.7c-53.6-55.5-55.5-61.3-55.5-260.4c0-233.6,23-300.7,116.8-333.2c44-15.3,72.8-13.4,120.6,5.7c91.9,38.3,111.1,107.2,103.4,346.6c-5.7,197.2-7.7,206.8-59.3,250.9C5034.4,50.1,4954,46.2,4883.1-22.7z"/><path d="M6196.8-15c-84.3-82.3-70.9-164.7,49.8-287.2c90-91.9,91.9-99.6,74.7-162.8c-24.9-86.2-24.9-250.9,0-317.9c19.2-47.9,13.4-59.4-65.1-139.8c-134-136-149.4-229.8-57.5-310.2c91.9-80.4,155.1-65.1,296.8,72.8c78.5,76.6,91.9,82.3,139.8,63.2c67-24.9,262.3-24.9,329.4,0c47.9,19.2,61.3,13.4,155.1-80.4c84.2-84.3,113-99.6,170.4-99.6c88.1,0,160.9,76.6,160.9,166.6c0,46-21.1,82.3-97.7,158.9l-95.8,97.7l23,114.9c19.2,88.1,19.2,139.8,1.9,226l-23,111.1l95.7,101.5c114.9,122.6,128.3,201.1,46,283.4C7317,65.4,7240.4,52,7116-64.8l-103.4-97.7l-105.3,24.9c-82.3,17.2-130.2,17.2-222.1,0l-118.7-23l-101.5,95.7C6344.2,50.1,6273.4,63.5,6196.8-15z M6916.8-501.4c95.7-95.7,97.7-155.1,9.6-243.2c-88.1-88.1-166.6-88.1-254.7-3.8c-97.7,95.7-82.3,210.6,38.3,283.4C6798.1-411.4,6832.6-417.2,6916.8-501.4z"/><path d="M4902.3-815.5c-59.4-46-74.7-107.2-74.7-310.2c0-199.2,1.9-204.9,55.5-260.4c70.9-68.9,151.3-72.8,226-9.6c51.7,44,53.6,55.5,59.3,241.3c7.7,224.1,0,271.9-57.4,325.5C5063.1-784.9,4950.2-777.2,4902.3-815.5z"/><path d="M4923.4-1617.9c-67-36.4-95.7-103.4-95.7-239.4c0-99.6,7.7-126.4,49.8-176.2c70.8-84.2,174.3-84.2,247,1.9c47.9,55.5,51.7,72.8,44,201.1c-5.7,107.2-15.3,147.4-44,178.1C5074.6-1602.5,4982.7-1587.2,4923.4-1617.9z"/></g></g>
</svg>