<?xml version="1.0" encoding="utf-8"?>
<!-- Svg Vector Icons : http://www.onlinewebfonts.com/icon -->
<!DOCTYPE svg PUBLIC "-//W3C//DTD SVG 1.1//EN" "http://www.w3.org/Graphics/SVG/1.1/DTD/svg11.dtd">
<svg version="1.1" xmlns="http://www.w3.org/2000/svg" xmlns:xlink="http://www.w3.org/1999/xlink" x="0px" y="0px" viewBox="0 0 1000 1000" enable-background="new 0 0 1000 1000" xml:space="preserve">
<metadata> Svg Vector Icons : http://www.onlinewebfonts.com/icon </metadata>
<g><g transform="translate(0.000000,324.000000) scale(0.100000,-0.100000)"><path d="M1612.1,1312.8C1145.1,1219,714.4,861,530.7,409.3C456,223.7,425.4,28.4,425.4-266.3v-269.9L320.1-639.6C257-700.8,191.9-788.9,161.3-854l-51.7-111l-5.7-1697.8L100-4360.5l80.4-5.8l82.3-5.7l5.7-243.1l5.7-245h486.2h488.1v237.3v235.4l116.8,13.4c155,15.3,7114.6,15.3,7269.6,0l116.7-13.4v-235.4v-237.3h488.1h486.2l5.7,245l5.7,243.1l82.3,5.7l80.4,5.8l-3.8,1697.8L9890.4-965l-51.7,111c-30.6,65.1-95.7,153.1-157,212.5L9578.4-540l-9.6,333c-11.5,377.1-32.5,480.4-149.3,715.9c-145.5,294.8-384.7,535.9-675.7,677.6c-304.3,151.2-223.9,143.6-1728.4,151.2c-1293.9,5.7-1351.3,3.8-1508.3-32.5c-155-38.3-344.5-118.7-453.6-197.2c-53.6-36.4-53.6-36.4-111,3.8c-97.6,68.9-329.2,166.5-472.8,199.1c-120.6,26.8-306.3,30.6-1435.5,28.7C2054.3,1337.6,1705.9,1331.9,1612.1,1312.8z M4531.1,962.5c63.2-23,155-70.8,204.8-105.3l91.9-61.3V-394.6c0-656.5-3.8-1192.5-7.7-1192.5c-3.8,0-53.6,21.1-112.9,47.9c-224,103.4-248.8,105.3-1835.6,105.3h-1470v220.1c0,174.2-7.7,239.3-40.2,325.4c-76.6,206.7-312,400-514.9,424.9L750.8-452v222c0,277.5,36.4,447.9,132.1,643.1c114.8,231.6,319.6,421.1,557,514.9c210.5,84.2,252.7,86.1,1646.1,82.3l1330.3-3.8L4531.1,962.5z M8364.9,985.4c440.2-90,759.9-411.5,855.6-861.3c15.3-72.7,28.7-231.6,28.7-354.1v-222l-95.7-11.5c-130.2-15.3-271.8-95.7-382.8-218.2C8638.6-825.3,8600.3-942,8594.6-1210l-5.7-214.4l-1521.7-9.6c-1651.8-11.5-1586.8-7.7-1803-116.8c-40.2-19.1-76.6-36.4-82.3-36.4s-9.6,535.9-9.6,1192.5V796l91.9,61.3c229.7,156.9,222,155,1674.8,156.9C8037.6,1016.1,8238.6,1012.2,8364.9,985.4z M859.9-804.2c80.4-28.7,176.1-130.2,197.1-208.6c11.5-40.2,19.1-633.6,19.1-1544.7v-1479.6H750.8H425.4v1489.1c0,920.7,7.7,1514,19.1,1556.1C488.5-836.7,695.3-741,859.9-804.2z M9438.7-836.7c26.8-19.1,65.1-59.3,86.1-88.1c40.2-51.7,40.2-70.8,45.9-1582.9l3.8-1529.3h-325.4h-325.4V-2546c0,1008.7,5.7,1510.2,21,1546.6c26.8,70.8,107.2,156.9,179.9,189.5C9201.4-773.6,9375.5-788.9,9438.7-836.7z M4441.1-1788c160.8-36.4,292.9-111,442.2-250.7L5000-2146l128.2,116.8c143.6,132.1,310.1,222,463.2,250.7c63.2,11.5,660.4,19.1,1544.6,19.1h1443.2v-239.3v-239.3H5000H1420.7v239.3v239.3h1447C4092.7-1759.3,4332-1763.2,4441.1-1788z M8594.6-3309.7v-727.3H4998.1H1401.6v727.3v727.3h3596.5h3598.4L8594.6-3309.7z M923-4458.1v-76.6H760.4H597.7v76.6v76.6h162.7H923V-4458.1z M9402.3-4458.1v-76.6h-162.7H9077v76.6v76.6h162.7h162.7V-4458.1z"/><path d="M2433.2,309.8c-93.8-93.8-74.6-158.9,93.8-333l107.2-109.1l-116.8-120.6c-65.1-65.1-124.4-141.7-130.2-168.4C2358.6-540,2488.7-651.1,2603.6-609c28.7,11.5,101.5,67,160.8,126.3l109.1,109.1l114.8-109.1c63.2-59.3,135.9-116.8,162.7-128.3c101.5-38.3,222,55.5,222,172.3c0,24.9-51.7,95.7-128.2,174.2l-128.2,134l107.2,109.1c168.4,172.3,187.6,237.4,93.8,331.1c-93.8,91.9-155,78.5-310.1-72.7l-132.1-126.3l-132.1,126.3C2588.3,388.3,2527,401.7,2433.2,309.8z"/><path d="M6682.5,309.8c-93.8-93.8-74.7-158.9,93.8-331.1l107.2-109.1l-128.3-134c-130.1-134-143.6-168.4-109.1-260.3c21-57.4,132.1-111,185.7-91.9c19.1,5.7,93.8,63.2,164.6,126.3l130.1,114.8l109.1-107.2C7295-542,7367.7-597.5,7396.4-609c114.8-42.1,245,68.9,216.3,187.6c-5.7,26.8-65.1,103.4-128.2,168.4l-118.7,118.7l105.3,111c59.3,61.2,116.8,130.1,130.2,155c51.7,97.6-38.3,233.5-155,233.5c-44,0-86.1-28.7-189.5-128.2l-132.1-126.3l-132.1,126.3C6837.5,388.3,6776.2,401.7,6682.5,309.8z"/></g></g>
</svg>