<?xml version="1.0" encoding="utf-8"?>
<!-- Svg Vector Icons : http://www.onlinewebfonts.com/icon -->
<!DOCTYPE svg PUBLIC "-//W3C//DTD SVG 1.1//EN" "http://www.w3.org/Graphics/SVG/1.1/DTD/svg11.dtd">
<svg version="1.1" xmlns="http://www.w3.org/2000/svg" xmlns:xlink="http://www.w3.org/1999/xlink" x="0px" y="0px" viewBox="0 0 1000 1000" enable-background="new 0 0 1000 1000" xml:space="preserve">
<metadata> Svg Vector Icons : http://www.onlinewebfonts.com/icon </metadata>
<g><g transform="translate(0.000000,358.000000) scale(0.100000,-0.100000)"><path d="M4714.3,1989.1c-607.5-95.8-1343.4-452.3-2054.3-992.7c-159.1-122.7-300.9-205-632.4-369.9c-233.8-116.9-494.4-254.9-578.7-304.7C1251.4,201.1,1011.9,9.5,870-145.8c-97.7-105.4-124.6-124.6-212.7-143.7c-216.6-46-417.8-205-507.8-400.5l-42.2-90.1L101.6-2547c-3.8-1749.6-3.8-1766.9,36.4-1872.3c51.7-141.8,199.3-300.9,339.2-369.9l109.2-53.7h4417.2h4417.2l90.1,42.2c126.5,57.5,274,201.2,335.4,329.6l53.7,107.3v1791.8v1791.8l-42.2,90.1c-88.1,193.5-298.9,360.3-507.8,400.5c-90.1,17.2-118.8,34.5-168.7,95.8c-86.2,107.3-367.9,348.8-536.6,459.9c-78.6,53.7-358.4,203.1-619,335.4c-373.7,187.8-519.3,272.1-680.3,394.8c-628.6,479.1-1261,804.9-1834,946.7C5296.9,1996.7,4902.1,2019.7,4714.3,1989.1z M5480.8,1613.5c404.4-101.6,849-314.3,1331.9-636.2c230-151.4,243.4-164.8,201.2-182.1c-408.2-159.1-693.7-410.1-872-770.4c-95.8-195.5-134.1-333.4-153.3-536.6c-13.4-139.9-11.5-141.8,46-199.3c65.2-67.1,113.1-72.8,195.5-30.7c61.3,32.6,63.2,38.3,95.8,285.5c24.9,201.2,70.9,331.5,170.6,482.9c151.4,235.7,400.5,412,674.6,477.2c220.4,51.7,228,47.9,707.1-191.6C8361.2,68.9,8585.4-71,8786.6-256.9l132.2-120.7l-69-53.7c-38.3-28.7-95.8-92-128.4-138c-99.6-143.7-118.8-224.2-116.9-488.7c0-132.2-3.8-266.4-9.6-300.9l-11.5-61.3l-847-5.8l-845.1-5.8l-153.3-53.7c-84.3-30.7-207-88.1-274-130.3l-120.7-74.7l-128.4,76.7c-70.9,44.1-197.4,101.6-281.7,130.3l-153.3,51.7h-776.1h-776.1l-153.3-51.7c-84.3-28.8-210.8-86.2-281.7-130.3l-128.4-76.7l-120.7,74.7c-67.1,42.2-189.7,99.7-274,130.3l-153.3,53.7l-856.6,5.8l-856.6,5.8l-5.8,329.6c-5.7,304.7-9.6,337.3-51.7,425.4c-26.8,53.7-93.9,139.9-149.5,195.5L1094.3-370l130.3,116.9c201.2,184,427.4,325.8,904.5,565.3c479.1,241.5,486.8,243.4,707.1,191.6c360.3-86.2,676.5-369.9,791.5-712.9c19.2-57.5,44.1-174.4,55.6-260.6c28.7-230,30.7-239.5,93.9-272.1c82.4-42.2,130.3-36.4,195.5,30.7c57.5,57.5,59.4,59.4,46,199.3c-19.2,205.1-57.5,341.1-155.2,536.6c-176.3,360.3-461.8,613.2-870,770.4c-42.2,17.2-28.8,30.7,201.2,182.1c442.7,293.2,791.5,469.5,1167.1,590.2C4760.3,1693.9,5107.1,1709.3,5480.8,1613.5z M958.2-672.8c115-82.4,116.9-101.6,116.9-1115.3c0-1013.8-1.9-998.4,120.7-1124.9c34.5-36.4,95.8-82.4,138-105.4l76.7-42.2h3593.2h3593.2l76.7,42.2c42.2,23,103.5,69,138,105.4c122.6,126.5,120.7,111.1,120.7,1132.6c0,921.8,0,925.6,42.2,1009.9c55.6,105.4,143.7,153.3,291.3,155.2c138,1.9,218.5-42.2,274-155.2l44.1-84.3v-1046.3c0-1113.4-7.7-1205.4-95.8-1381.7c-95.8-185.9-308.5-350.7-519.3-398.6c-116.9-26.8-7813.1-26.8-7930,0c-304.7,69-544.2,327.7-596,643.9c-11.5,61.3-19.2,576.8-19.2,1146c0,973.5,3.8,1038.7,36.4,1115.3c59.4,130.3,178.2,184,352.6,157.1C862.4-626.8,927.5-651.7,958.2-672.8z M3106.5-1778.5c157.1-34.5,318.1-128.4,454.2-260.6l99.6-97.7l101.6,92c139.9,124.6,235.7,187.8,369.9,241.5c113.1,44.1,130.3,46,810.6,51.7c467.6,3.8,730.1-1.9,801.1-15.3c149.5-30.7,343-136.1,482.9-260.6l118.8-107.3l124.6,115c136.1,128.4,312.4,224.2,467.6,253c57.5,11.5,438.8,19.2,877.7,19.2h772.3l-3.8-482.9l-5.7-484.8l-1046.3-5.8l-1048.3-3.8l-23,57.5c-28.7,69-70.9,95.8-153.3,95.8c-63.2,0-153.3-72.8-153.3-124.6c0-24.9-124.6-28.7-1149.8-28.7c-1025.3,0-1149.8,3.8-1149.8,28.7c0,51.7-90.1,124.6-153.3,124.6c-82.4,0-124.6-26.8-153.3-95.8l-23-57.5l-1048.3,3.8l-1046.3,5.8l-5.7,484.8l-3.8,482.9h776.1C2832.4-1747.9,2999.1-1753.6,3106.5-1778.5z M699.5-3892.3c53.7-30.7,162.9-76.7,241.5-101.6l143.7-44.1h3928.6h3928.6l153.3,53.7c164.8,59.4,300.9,138,417.8,241.5l72.8,67.1l-5.7-339.2c-5.7-375.6-17.2-410.1-151.4-477.2c-61.3-32.6-312.4-34.5-4424.9-34.5c-4112.5,0-4363.6,1.9-4424.9,34.5c-134.2,67.1-145.6,101.6-151.4,477.2l-5.8,337.3l90.1-80.5C561.5-3802.2,645.8-3861.6,699.5-3892.3z"/></g></g>
</svg>