<?xml version="1.0" encoding="utf-8"?>
<!-- Svg Vector Icons : http://www.onlinewebfonts.com/icon -->
<!DOCTYPE svg PUBLIC "-//W3C//DTD SVG 1.1//EN" "http://www.w3.org/Graphics/SVG/1.1/DTD/svg11.dtd">
<svg version="1.1" xmlns="http://www.w3.org/2000/svg" xmlns:xlink="http://www.w3.org/1999/xlink" x="0px" y="0px" viewBox="0 0 1000 1000" enable-background="new 0 0 1000 1000" xml:space="preserve">
<metadata> Svg Vector Icons : http://www.onlinewebfonts.com/icon </metadata>
<g><g transform="translate(0.000000,375.000000) scale(0.100000,-0.100000)"><path d="M2084.9,2317.5c-382.8-91.9-683.3-478.5-683.3-880.5v-74.6h-262.2c-145.5,0-302.4-9.6-348.4-21.1c-218.2-49.8-449.8-222-570.4-421.1C100,719.2,98.1,702,103.8-528.7l5.7-1110.2l59.3-86.1c59.3-82.3,59.3-84.2,24.9-132.1c-80.4-111-93.8-193.3-93.8-606.7c0-513,11.5-555.1,193.3-733.1l132.1-130.2v-298.6c0-289,1.9-298.6,47.9-342.6c38.3-40.2,65.1-47.9,162.7-47.9h114.8v-356v-356l55.5-55.5l55.5-55.5h298.6c281.4,0,298.6,1.9,344.5,44c30.6,26.8,97.6,168.5,195.2,411.5l145.5,367.5H5000h3154.4l145.5-367.5c97.6-243.1,164.6-384.7,195.2-413.4c45.9-40.2,63.2-42.1,344.5-42.1h298.6l55.5,55.5l55.5,55.5v356v356h114.8c97.6,0,124.4,7.7,162.7,47.9c45.9,44,47.9,53.6,47.9,342.6v298.6l132.1,130.2c181.8,178,193.3,220.1,193.3,733.1c0,413.4-13.4,495.7-93.8,606.7c-34.4,47.9-34.4,49.8,24.9,132.1l59.3,86.1l5.7,1110.2c5.7,1230.7,3.8,1248-116.8,1448.9c-120.6,199.1-352.2,371.3-570.4,421.1c-45.9,11.5-202.9,21.1-346.5,21.1h-264.1v74.6c0,405.8-302.4,790.5-691,880.5c-135.9,32.5-2281.6,26.8-2400.2-5.7c-149.3-40.2-290.9-118.7-403.9-229.7l-103.4-99.5l-107.2,103.4c-65.1,63.2-160.8,128.2-252.7,172.3l-147.4,70.8l-1167.6,3.8C2674.4,2334.7,2125.1,2327.1,2084.9,2317.5z M4540.6,1963.4c101.4-45.9,195.2-137.8,243.1-235.4c32.5-65.1,34.4-174.2,40.2-1682.5l3.8-1611.7l-1219.3,3.8l-1221.2,5.7l-13.4,107.2c-40.2,323.5-264.1,706.3-518.7,888.1L1748-484.7l-5.7,851.8c-9.6,1355.2-13.4,1240.3,53.6,1370.5c59.3,118.7,178,218.2,302.4,254.6c34.5,11.5,549.3,17.2,1207.8,15.3C4427.7,2003.6,4456.4,2003.6,4540.6,1963.4z M7857.7,2001.7c183.8-30.6,357.9-204.8,392.4-390.5c7.7-47.9,11.5-537.9,7.7-1091l-9.6-1004.9l-105.3-76.6c-254.6-185.7-476.6-566.6-516.8-888.1l-13.4-107.2l-1221.2-5.7l-1219.3-3.8V20.6c0,1351.3,3.8,1598.2,28.7,1665.2c51.7,145.5,147.4,237.3,304.3,292.9c88,30.6,199.1,32.5,1188.6,34.4C7295,2013.1,7817.5,2007.4,7857.7,2001.7z M1401.6,355.6c0-616.3-3.8-681.4-30.6-669.9c-88.1,34.5-331.1,51.7-622.1,45.9l-325.4-5.7l5.7,468.9c5.7,468.9,5.7,468.9,57.4,568.5c109.1,206.7,266,271.8,652.7,273.7h262.2V355.6z M9205.2,1008.3c137.8-40.2,245-126.3,306.3-243.1l53.6-101.4l5.7-468.9l5.7-468.9l-323.5,5.7c-287.1,7.7-534-11.5-624-45.9c-26.8-11.5-30.6,53.6-30.6,669.9V1037H8853C9023.4,1037,9140.1,1027.4,9205.2,1008.3z M1296.3-637.8c277.5-72.7,532.1-279.5,650.8-530.2c59.3-122.5,122.5-367.5,103.4-388.6c-3.8-3.8-369.4-9.6-811.6-11.5l-803.9-3.8l-5.7,436.4c-3.8,367.5,0,444.1,24.9,480.4c28.7,45.9,32.5,45.9,379,45.9C1085.7-609.1,1214-616.8,1296.3-637.8z M9545.9-655.1c24.9-36.4,28.7-112.9,24.9-482.3l-5.7-438.3l-70.8,1.9c-40.2,0-405.8,1.9-811.6,3.8l-740.8,3.8l13.4,97.6c49.8,375.2,313.9,683.3,700.5,815.4c111,38.3,162.7,44,491.9,44C9513.4-609.1,9517.2-609.1,9545.9-655.1z M9475.1-1941.3c90-63.2,99.5-112.9,99.5-528.3c0-424.9-15.3-495.7-114.8-545.5c-61.3-30.6-8829.6-36.4-8908-5.7c-26.8,9.6-67,45.9-88,80.4c-36.4,59.3-38.3,90-34.4,490l5.7,428.8l63.2,55.5l61.3,55.5h4436.8C8985.1-1910.7,9436.8-1914.5,9475.1-1941.3z M9245.4-3531.9l5.7-158.9H5000H750.8v149.3c0,82.3,5.7,155,11.5,160.8c5.7,7.7,1916,9.6,4243.5,9.6l4233.9-3.8L9245.4-3531.9z M1470.5-4067.8c-7.7-19.1-49.8-126.3-93.8-239.3l-80.4-206.7h-109.1h-111v239.2v239.3h202.9C1464.7-4035.3,1482-4039.1,1470.5-4067.8z M8923.8-4274.6v-239.2h-109.1h-111l-80.4,206.7c-44,112.9-86.1,220.1-93.8,239.3c-11.5,28.7,5.7,32.5,191.4,32.5h202.9V-4274.6z"/><path d="M2597.9,1314.5c-82.3-80.4-67-164.6,55.5-292.8l103.4-109.1l-21-111c-13.4-76.6-13.4-135.9,0-199.1l21-90l-103.4-112.9c-82.3-88-103.4-124.4-103.4-176.1c0-95.7,68.9-166.5,160.8-166.5c63.2,0,88,15.3,181.8,105.3c91.9,88.1,114.8,101.5,155,90c68.9-21.1,229.7-23,298.6-1.9c55.5,15.3,67,11.5,143.6-68.9C3591.2,78,3677.4,34,3740.6,58.9c84.2,32.5,120.6,95.7,112.9,199.1c0,19.1-47.9,84.2-103.4,143.6c-88.1,91.9-101.5,116.8-88.1,157c21.1,72.7,19.1,239.3-1.9,298.6c-19.1,47.9-13.4,61.2,84.2,158.9c130.2,134,145.5,214.4,59.3,298.6c-78.5,80.4-147.4,65.1-275.6-57.4l-111-105.3l-109.1,23c-84.2,15.3-134,15.3-206.7-1.9l-97.6-21.1l-111,105.3c-91.9,88.1-120.6,105.3-179.9,105.3C2664.8,1362.4,2630.4,1347.1,2597.9,1314.5z M3306.1,824.5c86.1-76.6,90-149.3,11.5-229.7c-76.6-74.6-153.1-74.6-229.7,3.8c-78.5,76.6-76.6,137.8,5.7,220.1C3174,899.2,3218,901.1,3306.1,824.5z"/><path d="M6196.3,1314.5c-86.1-84.2-70.8-164.6,59.3-298.6c97.6-97.6,103.4-111,84.2-158.9c-23-65.1-24.9-210.5-1.9-290.9c15.3-55.5,11.5-67-68.9-143.6c-143.6-137.8-164.6-243.1-70.8-325.4c90-76.6,178-53.6,312,84.2c76.6,80.4,88,84.2,143.6,68.9c68.9-21.1,229.7-19.1,298.6,1.9c40.2,11.5,63.2-1.9,157-91.9c95.7-93.8,120.6-107.2,181.8-105.3C7383,57,7450,129.7,7450,223.5c0,51.7-21,88.1-103.4,176.1l-103.3,112.9l21.1,91.9c15.3,67,15.3,118.7-1.9,199.1l-23,107.2l105.3,109.1c88,91.9,105.3,122.5,105.3,179.9c0,90-74.7,162.7-166.5,162.7c-53.6,0-86.1-19.1-176.1-105.3l-111-105.3l-97.6,21.1c-72.7,17.2-122.5,17.2-206.7,1.9l-109.1-23l-111,105.3C6343.7,1379.6,6274.8,1394.9,6196.3,1314.5z M6906.4,818.8c82.3-82.3,84.2-143.6,5.8-220.1c-76.6-78.5-153.1-78.5-229.7-3.8c-78.5,80.4-74.7,153.1,11.5,229.7C6782,901.1,6826,899.2,6906.4,818.8z"/></g></g>
</svg>