<?xml version="1.0" encoding="utf-8"?>
<!-- Svg Vector Icons : http://www.onlinewebfonts.com/icon -->
<!DOCTYPE svg PUBLIC "-//W3C//DTD SVG 1.1//EN" "http://www.w3.org/Graphics/SVG/1.1/DTD/svg11.dtd">
<svg version="1.1" xmlns="http://www.w3.org/2000/svg" xmlns:xlink="http://www.w3.org/1999/xlink" x="0px" y="0px" viewBox="0 0 1000 1000" enable-background="new 0 0 1000 1000" xml:space="preserve">
<metadata> Svg Vector Icons : http://www.onlinewebfonts.com/icon </metadata>
<g><g transform="translate(0.000000,332.000000) scale(0.100000,-0.100000)"><path d="M2085.8,1477.5c-310.2-74.7-595.6-367.7-662.6-683.6c-13.4-63.2-21.1-333.2-21.1-712.4v-610.9l-348.5-208.7C860.3-853.1,684.1-954.6,659.2-962.2c-49.8-15.3-168.5-113-195.3-162.8C433.2-1180.5,100-2513.4,100-2578.5c0-34.5,78.5-369.6,174.3-744.9c189.6-746.8,204.9-781.3,350.4-848.3c59.4-26.8,124.5-36.4,266.2-36.4h185.8v-325.5v-325.5h197.2h195.3l325.5,325.5l325.6,325.5h2882.1h2882.1l325.5-325.5l325.5-325.5h195.3h197.2v323.6v323.6l206.8,7.7c189.6,5.7,214.5,11.5,287.3,57.5c44,30.6,91.9,78.5,107.2,109.2c32.5,61.3,350.4,1285,369.6,1413.3c7.6,65.1-26.8,227.9-168.5,785.2c-197.3,779.4-203,789-379.2,875.2c-47.9,23-237.5,130.2-417.5,239.4l-331.3,197.3V71.9c0,329.4-9.6,643.4-19.1,700.9c-63.2,331.3-348.5,630-672.2,704.7c-136,32.6-2282.7,26.8-2401.4-5.7c-149.4-40.2-291.1-118.7-404.1-229.8l-103.4-99.6l-107.2,103.4c-65.1,63.2-160.9,128.3-252.8,172.3l-147.5,70.9l-1168.1,3.8C2675.7,1494.7,2126.1,1487.1,2085.8,1477.5z M4542.8,1123.2c103.4-47.9,191.5-132.1,241.3-231.7c34.5-68.9,36.4-139.8,42.1-1285l3.8-1210.3l-1401.8,3.8l-1403.7,5.7l-147.5,507.5l-147.5,507.5l3.8,681.7l3.8,679.8l57.4,114.9c61.3,118.7,180,218.3,304.5,254.7c34.5,11.5,549.6,17.2,1208.4,15.3C4427.9,1163.4,4458.5,1161.5,4542.8,1123.2z M7897.8,1153.9c130.2-36.4,248.9-134.1,312.1-256.6l57.5-114.9l3.8-670.2l5.7-672.2l-149.4-517l-147.5-517l-1403.7-5.7l-1401.8-3.8v1183.5c0,712.4,7.7,1208.4,19.1,1246.7c40.2,145.5,158.9,260.4,323.7,319.8C5605.6,1178.7,7786.8,1184.5,7897.8,1153.9z M1591.8-1299.3l120.6-421.3l-65.1-82.3c-289.2-369.6-312.1-392.6-323.6-360c-42.1,114.9-268.1,1047.5-254.7,1051.4c9.6,3.8,99.6,57.5,199.2,120.6c99.6,61.3,187.7,113,193.4,113C1467.3-876,1524.8-1065.6,1591.8-1299.3z M8742.3-1000.5c103.4-61.3,189.6-116.8,195.3-122.6c5.7-9.6-229.8-961.3-262.4-1057.1c-5.7-15.3-76.6,68.9-317.9,377.3l-63.2,78.5l120.6,423.2c67,231.7,124.5,419.4,130.2,417.5C8550.8-887.5,8638.9-939.2,8742.3-1000.5z M921.5-1954.2l155.1-609v-660.7v-658.8H913.9c-90,0-162.8,3.8-162.8,9.6c0,3.8-74.7,298.8-164.7,653l-164.7,643.4l160.9,630c86.2,344.7,164.7,622.4,172.3,614.7C760.7-1339.5,837.3-1619,921.5-1954.2z M9422.2-1956.1l158.9-620.5l-166.6-653l-166.6-653H9087h-158.9v656.8v654.9l155.1,618.5c86.2,339,162.8,616.6,168.5,616.6C9259.4-1335.6,9336-1615.2,9422.2-1956.1z M8208.1-2159.1c101.5-126.4,183.8-233.6,183.8-239.4s-1530.1-9.6-3399.1-9.6h-3401l193.4,239.4l193.4,239.4h3021.9h3023.8L8208.1-2159.1z M8583.4-3317.7v-564.9H4992.8H1402.2v564.9v564.9h3590.6h3590.6V-3317.7z M1651.1-4213.9c0-1.9-55.5-61.3-124.5-128.3l-124.5-122.5v128.3v128.3h124.5C1595.6-4208.1,1651.1-4210,1651.1-4213.9z M8602.5-4332.6c0-68.9-1.9-124.5-5.7-124.5c-1.9,0-61.3,55.5-128.3,124.5l-122.6,124.5h128.3h128.3V-4332.6z"/></g></g>
</svg>