<?xml version="1.0" encoding="utf-8"?>
<!-- Svg Vector Icons : http://www.onlinewebfonts.com/icon -->
<!DOCTYPE svg PUBLIC "-//W3C//DTD SVG 1.1//EN" "http://www.w3.org/Graphics/SVG/1.1/DTD/svg11.dtd">
<svg version="1.1" xmlns="http://www.w3.org/2000/svg" xmlns:xlink="http://www.w3.org/1999/xlink" x="0px" y="0px" viewBox="0 0 1000 1000" enable-background="new 0 0 1000 1000" xml:space="preserve">
<metadata> Svg Vector Icons : http://www.onlinewebfonts.com/icon </metadata>
<g><g transform="translate(0.000000,324.000000) scale(0.100000,-0.100000)"><path d="M1156.1,1315.2C811.5,1231,516.6,926.5,443.9,580c-11.5-59.4-21.1-312.1-21.1-608.8v-507.4L317.5-639.6C254.3-700.9,189.2-788.9,158.6-854l-51.7-111l-5.7-1642.7c-3.8-1167.9,1.9-1652.3,17.2-1681c11.5-21.1,49.8-51.7,86.2-67l65.1-26.8v-239.3v-239.3h488.2h488.2v237.4c0,197.2,5.7,239.3,30.6,248.9c40.2,15.3,7210.3,15.3,7357.8,0l116.8-13.4v-235.5v-237.4h488.2h486.3l5.7,245.1l5.7,243.2l82.3,5.7l80.4,5.8l-3.8,1698.2l-5.7,1698.3l-51.7,111c-30.6,65.1-95.7,153.2-158.9,214.4l-105.3,103.4v507.4c0,296.8-9.6,549.5-21,608.8c-72.8,348.4-379.1,662.4-725.6,740.9C8691.9,1351.6,1286.3,1345.8,1156.1,1315.2z M8827.8,985.9c183.8-55.5,292.9-153.2,377.2-342.7c28.7-65.1,34.5-147.4,40.2-585.9l5.7-509.3l-97.6-11.5c-195.3-23-413.5-197.2-507.4-402.1c-40.2-86.2-47.9-135.9-51.7-329.3l-5.7-229.8l-3593.7-5.7l-3591.8-3.8l-7.7,252.7c-5.7,220.2-13.4,266.1-51.7,338.9C1240.3-645.3,1027.8-486.4,844-463.4L746.4-452l5.8,509.3l5.7,511.2l65.1,130.2c72.8,147.4,168.5,229.8,333.1,283.4c91.9,28.7,382.9,32.5,3834.9,32.5C8343.4,1016.5,8735.9,1012.7,8827.8,985.9z M934-833c28.7-21.1,68.9-63.2,90-91.9c40.2-51.7,40.2-70.8,45.9-1583.4l3.8-1529.8H748.3H422.8v1489.6c0,920.9,7.7,1514.4,19.1,1556.6c21.1,76.6,97.6,155.1,181.9,187.6C710-773.6,874.6-788.9,934-833z M9436.7-834.9c26.8-21,67-61.3,88.1-90c40.2-51.7,40.2-70.8,45.9-1583.4l3.8-1529.8H9249h-325.5v1506.8c0,1480,0,1506.8,40.2,1587.2c53.6,114.9,158.9,166.6,312.1,153.2C9344.8-794.7,9407.9-813.8,9436.7-834.9z M8578.9-1999v-239.3H4998.7H1418.4v239.3v239.3h3580.3h3580.3V-1999z M4826.3-3310.4V-4038H3112.8H1399.2v727.5v727.5h1713.6h1713.6V-3310.4z M8594.2-3310.4V-4038H6882.6H5171v727.5v727.5h1711.6h1713.6L8594.2-3310.4z M920.6-4459.2v-76.6H757.9H595.1v76.6v76.6h162.7h162.7V-4459.2z M9402.2-4459.2v-76.6h-162.7h-162.7v76.6v76.6h162.7h162.7V-4459.2z"/><path d="M1814.7,507.2c-53.6-28.7-90-93.8-90-162.7c0-21.1,47.9-88.1,105.3-149.3c57.4-61.3,101.5-114.9,95.7-120.6c-26.8-26.8-42.1-206.8-26.8-310.2l19.1-113l-74.7-78.5c-135.9-139.8-151.3-212.5-63.2-300.6c88.1-86.2,155.1-76.6,279.5,42.1l103.4,97.6l109.1-23c84.2-17.2,135.9-17.2,222.1,0l114.9,21.1l101.5-95.7c124.4-118.7,191.5-128.3,279.5-42.1c88.1,90,67,176.1-74.7,315.9c-67,63.2-74.7,80.4-59.4,120.6c21.1,55.5,21.1,287.2,0,340.8c-13.4,30.6,3.8,59.4,86.2,147.4c109.1,114.9,120.6,155.1,74.7,243.1c-65.1,126.4-201,113-342.7-32.5c-67-70.8-78.5-74.7-132.1-59.4c-34.5,9.6-103.4,17.2-157,17.2c-53.6,0-122.5-7.7-157-17.2c-53.6-15.3-65.1-11.5-132.1,59.4c-67,68.9-170.4,132.1-212.5,130.2C1876,536,1843.4,522.6,1814.7,507.2z M2519.3-19.3c84.2-93.8,80.4-147.4-19.1-241.2c-82.3-78.5-141.7-80.4-227.8-5.7c-107.2,95.7-107.2,180,1.9,283.3C2348.9,86,2435,74.6,2519.3-19.3z"/><path d="M4462.6,524.5c-70.8-26.8-114.9-90-114.9-162.7c0-63.2,15.3-90,95.7-176.1c90-95.7,93.8-103.4,76.6-166.6c-24.9-84.2-24.9-199.1,1.9-292.9c21.1-72.8,19.1-74.7-76.6-172.3c-82.3-84.2-97.6-109.1-97.6-170.4c0-128.3,120.6-202.9,235.5-145.5c23,11.5,76.6,55.5,118.7,95.7l78.5,74.7l109.1-21.1c86.2-17.2,135.9-17.2,218.3,0l105.3,24.9l80.4-76.6c135.9-132.1,227.8-153.2,308.3-70.8c80.4,78.5,67,164.7-49.8,287.2c-95.7,99.6-95.7,103.4-76.6,176.1c26.8,91.9,26.8,206.8,1.9,291c-17.2,61.3-13.4,70.8,76.6,168.5c114.9,126.4,130.2,216.3,47.9,292.9c-84.2,78.5-164.7,63.2-283.4-53.6c-93.8-93.8-107.2-99.6-155.1-80.4c-28.7,9.6-103.4,19.1-164.7,19.1c-61.3,0-135.9-9.6-164.7-19.1c-47.9-19.2-61.3-13.4-149.3,74.7C4588.9,514.9,4520,547.5,4462.6,524.5z M5130.8-7.8c84.3-95.7,78.5-158.9-17.2-247c-42.1-38.3-93.8-68.9-114.9-68.9s-72.7,30.6-114.9,68.9c-95.7,88.1-101.5,151.3-17.2,247c47.9,53.6,72.8,67,132.1,67S5082.9,45.8,5130.8-7.8z"/><path d="M7049.2,511.1c-53.6-30.6-95.7-99.6-97.6-160.8c0-28.7,38.3-84.2,103.4-153.2c82.3-88.1,99.5-116.8,86.2-147.4c-21.1-53.6-21.1-285.3,0-340.8c15.3-40.2,7.7-57.4-59.4-120.6c-141.7-139.8-162.7-225.9-74.7-315.9c88.1-86.2,155.1-76.6,279.5,42.1l103.4,97.6l109.1-23c84.2-17.2,135.9-17.2,222.1,0l114.9,21.1l101.5-95.7c124.4-118.7,191.5-128.3,279.5-42.1c88.1,88.1,72.8,160.8-63.2,300.6l-74.7,78.5l19.2,113c15.3,103.4,0,283.3-26.8,310.2c-5.7,5.7,38.3,59.4,95.7,120.6c57.4,61.3,105.3,128.3,105.3,149.3c0,70.8-36.4,134-95.7,164.6c-82.3,42.1-160.8,13.4-266.1-93.8c-76.6-76.6-88.1-82.3-143.6-67c-76.6,23-233.6,23-312.1,0c-53.6-15.3-65.1-11.5-132.1,59.4c-65.1,68.9-170.4,132.1-212.5,130.2C7102.8,536,7074.1,524.5,7049.2,511.1z M7721.2,15.2c111-103.4,111-185.7,3.8-281.4c-84.3-72.8-141.7-72.8-225.9,0c-109.1,95.7-107.2,181.9,5.8,279.5C7569.9,72.6,7659.9,72.6,7721.2,15.2z"/></g></g>
</svg>