<?xml version="1.0" encoding="utf-8"?>
<!-- Svg Vector Icons : http://www.onlinewebfonts.com/icon -->
<!DOCTYPE svg PUBLIC "-//W3C//DTD SVG 1.1//EN" "http://www.w3.org/Graphics/SVG/1.1/DTD/svg11.dtd">
<svg version="1.1" xmlns="http://www.w3.org/2000/svg" xmlns:xlink="http://www.w3.org/1999/xlink" x="0px" y="0px" viewBox="0 0 1000 1000" enable-background="new 0 0 1000 1000" xml:space="preserve">
<metadata> Svg Vector Icons : http://www.onlinewebfonts.com/icon </metadata>
<g><g transform="translate(0.000000,324.000000) scale(0.100000,-0.100000)"><path d="M1545.1,1312.1C999.6,1193.4,557.5,741.7,452.2,196.2c-15.3-84.2-26.8-262.2-26.8-436.4v-296.7L320.1-640.3C257-701.5,191.9-789.6,161.3-854.7l-51.7-111l-5.7-1697.8L100-4361.2l80.4-5.7l82.3-5.7l5.7-243.1l5.7-245h486.2h488.1v237.4v235.4l116.8,13.4c155,15.3,7114.6,15.3,7269.6,0l116.7-13.4v-235.4v-237.4h488.1h486.2l5.7,245l5.7,243.1l82.3,5.7l80.4,5.7l-3.8,1697.8l-5.7,1697.8l-51.7,111c-30.6,65.1-95.7,153.1-158.9,214.4l-105.3,103.4v298.6c0,549.3-107.2,847.9-419.2,1159.9c-166.5,166.5-346.4,279.5-566.6,356l-153.1,53.6l-641.2,5.7c-524.5,5.7-668,1.9-784.8-23c-141.7-30.6-373.2-128.2-480.4-202.9l-53.6-40.2l-130.1,78.5c-70.8,42.1-199.1,101.4-283.3,130.2l-153.1,51.7H5000h-909.2l-153.1-51.7c-84.2-28.7-212.5-88-283.3-130.2l-130.2-78.5l-53.6,40.2c-103.4,72.7-336.9,172.3-470.9,201C2819.9,1350.4,1717.4,1350.4,1545.1,1312.1z M2971.1,984.8c157-34.5,319.7-128.2,453.6-260.3l99.5-99.5l91.9,86.1c128.2,120.6,256.5,204.8,384.7,252.7c107.2,40.2,130.2,42.1,999.1,42.1c863.2,0,893.9-1.9,999.1-40.2c126.3-47.9,256.5-134,384.7-254.6l91.9-86.1l99.5,99.5c137.8,135.9,298.6,225.9,463.2,262.2c199.1,44,1330.3,32.5,1470-15.3c279.5-95.7,497.7-277.5,614.4-513c93.8-191.4,126.3-357.9,126.3-660.4v-250.7l-95.7-11.5c-204.8-24.9-438.3-218.2-516.8-426.8c-34.5-95.7-40.2-151.2-42.1-488.1l-1.9-380.9h-865.2c-945.6,0-962.8-1.9-1100.6-112.9c-36.4-28.7-86.1-63.2-111-76.6c-47.9-24.9-61.3-21-223.9,90c-51.7,34.4-124.4,70.8-162.7,80.4c-90,24.9-2168.6,24.9-2258.6,0c-38.3-9.6-111-45.9-162.7-80.4c-162.7-111-176.1-114.8-224-90c-24.9,13.4-74.6,47.9-111,76.6c-137.8,111-155,112.9-1102.5,112.9h-869v382.8c0,338.8-3.8,392.4-40.2,488.1c-76.6,206.7-312,400-514.9,424.9l-95.7,11.5V-202c0,302.4,32.5,468.9,126.3,660.4c95.7,193.3,246.9,340.7,451.7,440.2c88,42.1,206.7,86.1,264.1,95.7s361.8,17.2,675.7,19.1C2722.3,1015.4,2865.8,1009.7,2971.1,984.8z M859.9-804.9C940.3-833.6,1036-935,1057-1013.5c11.5-40.2,19.1-633.6,19.1-1544.6v-1479.6H750.8H425.4v1489.1c0,920.7,7.7,1514,19.1,1556.1C488.5-837.4,695.3-741.7,859.9-804.9z M9366-804.9c90-30.6,166.5-107.2,189.5-187.6c11.5-42.1,19.1-635.5,19.1-1556.1v-1489.1h-325.4h-325.4v1491.1c0,1008.7,5.7,1510.2,21,1546.6C9008.1-833.6,9191.8-747.5,9366-804.9z M3177.8-2133.2c95.7-80.4,214.4-124.4,338.8-124.4c155,0,241.2,26.8,335,105.3l80.4,67h1068h1068l80.4-67c179.9-151.2,482.3-141.7,673.8,19.1l57.4,47.9h849.8h849.9v-239.3v-239.3H5000H1420.7v239.3v239.3h849.8h849.8L3177.8-2133.2z M1478.1-2931.4c-15.3-13.4-38.3-38.3-51.7-53.6c-19.1-24.9-23-21-24.9,24.9c0,44,7.7,51.7,51.7,51.7C1495.4-2908.4,1501.1-2912.3,1478.1-2931.4z M2440.9-2950.5c-57.4-65.1-65.1-105.3-36.4-176.1c34.5-84.2,122.5-120.6,202.9-88c107.2,44,134,176.1,55.5,260.3l-42.1,45.9h417.3h417.3l-40.2-44c-118.7-126.3,24.9-333,181.8-258.4c105.3,49.8,126.3,183.8,40.2,264.1l-42.1,38.3H4020h423l-45.9-47.9c-67-65.1-63.2-149.3,9.6-223.9c49.8-47.9,68.9-55.5,120.6-45.9c68.9,13.4,147.4,89.9,147.4,147.4c0,49.8-49.8,145.5-80.4,157c-13.4,5.7,166.5,11.5,400,11.5l424.9,1.9l-45.9-47.9c-91.9-90-34.5-245,99.5-269.9c51.7-9.6,70.8-1.9,120.6,45.9c72.7,74.6,76.6,158.9,9.6,223.9l-45.9,47.9h423h424.9l-42.1-38.3c-86.1-80.4-65.1-214.4,40.2-264.1c158.9-76.6,302.4,130.2,176.1,254.6l-45.9,47.9h423h423l-38.3-44c-57.4-63.2-65.1-103.4-36.4-174.2c55.5-132.1,235.4-132.1,290.9,0c28.7,70.8,21.1,111-36.4,176.1l-38.3,42.1h426.8h426.8l-51.7-40.2c-38.3-30.6-49.8-55.5-49.8-109.1c1.9-158.9,162.7-225.8,279.4-116.8l40.2,36.4l1.9-386.6c1.9-214.4-3.8-400-11.5-413.4c-13.4-17.2-24.9-15.3-51.7,15.3c-49.8,55.5-151.2,51.7-210.5-9.6c-26.8-24.9-47.9-59.3-47.9-76.6c0-24.9-45.9-28.7-335-28.7c-317.7,0-335,1.9-335,36.4c0,49.8-88,116.7-151.2,116.7c-63.2,0-134-47.9-155-107.2l-19.1-45.9h-325.4c-281.4,0-325.4,3.8-325.4,28.7c0,55.5-90,124.4-160.8,124.4c-49.8,0-76.6-13.4-114.8-59.3c-26.8-32.5-49.8-67-49.8-76.6s-139.7-17.2-325.4-17.2c-281.4,0-325.4,3.8-325.4,28.7c0,17.2-21,51.7-47.9,76.6c-84.2,86.1-231.6,47.9-268-67c-11.5-36.4-26.8-38.3-335-38.3c-308.2,0-323.5,1.9-335,38.3c-36.4,114.8-183.8,153.1-268,67c-26.8-24.9-47.9-59.3-47.9-76.6c0-24.9-44-28.7-325.4-28.7c-185.7,0-325.4,7.7-325.4,17.2s-23,44-49.8,76.6c-38.3,45.9-65.1,59.3-114.8,59.3c-70.8,0-160.8-68.9-160.8-124.4c0-24.9-45.9-28.7-335-28.7c-317.7,0-335,1.9-335,36.4c0,49.8-88,116.7-151.2,116.7c-63.2,0-134-47.9-155-107.2l-19.1-45.9h-325.4c-281.4,0-325.4,3.8-325.4,28.7c0,17.2-21.1,51.7-47.9,76.6c-63.2,65.1-153.1,63.2-224-3.8l-53.6-51.7v428.8v426.8l44-40.2c114.8-107.2,279.5-45.9,281.4,107.2c0,42.1-15.3,78.5-47.9,109.1l-45.9,47.9h423h423L2440.9-2950.5z M8598.4-2960.1c0-42.1-3.8-47.9-23-24.9c-13.4,15.3-38.3,38.3-53.6,51.7c-24.9,19.1-21,23,24.9,24.9C8590.8-2908.4,8598.4-2916.1,8598.4-2960.1z M923-4458.8v-76.6H760.4H597.7v76.6v76.6h162.7H923V-4458.8z M9402.3-4458.8v-76.6h-162.7H9077v76.6v76.6h162.7h162.7V-4458.8z"/><path d="M3459.2,341.6c-80.4-44-86.1-68.9-86.1-392.4c0-285.2,3.8-315.8,38.3-350.3c51.7-51.7,122.5-65.1,183.8-34.4c93.8,44,105.3,91.9,99.5,413.4l-5.7,294.8l-53.6,45.9C3577.9,368.4,3520.4,376.1,3459.2,341.6z"/><path d="M6364.7,318.7l-53.6-45.9L6305.4-22c-5.7-321.6,5.7-369.4,99.5-413.4c61.2-30.6,132.1-17.2,183.7,34.4c34.5,34.4,38.3,65.1,38.3,342.6c0,168.4-5.7,319.6-11.5,336.9c-15.3,36.4-105.3,86.1-158.9,86.1C6435.5,364.6,6393.4,343.6,6364.7,318.7z"/><path d="M3420.9-831.7c-47.9-45.9-47.9-51.7-47.9-359.8c0-302.4,1.9-313.9,44-354.1c26.8-24.9,68.9-42.1,103.4-42.1c155,0,178,51.7,178,409.6c0,269.9-1.9,277.5-49.8,335C3585.5-766.6,3489.8-760.9,3420.9-831.7z"/><path d="M6351.3-843.2c-47.9-57.4-49.8-65.1-49.8-335c0-357.9,23-409.6,179.9-409.6c40.2,0,76.6,15.3,103.3,44c40.2,42.1,42.1,63.2,42.1,356c0,304.3-1.9,310.1-47.9,356C6510.2-760.9,6414.5-766.6,6351.3-843.2z"/><path d="M1956.6-3440.5c-134-135.9,0-329.2,181.8-260.3c36.4,15.3,86.1,105.3,86.1,158.9c0,57.4-78.5,134-147.4,147.4C2025.5-3385,2006.4-3392.7,1956.6-3440.5z"/><path d="M2929-3444.4c-49.8-51.7-57.4-68.9-47.9-130.2c23-134,176.1-185.7,271.8-90c67,65.1,63.2,149.3-7.7,222C3070.6-3369.7,3003.6-3369.7,2929-3444.4z"/><path d="M3947.3-3411.8c-26.8-13.4-59.3-47.9-72.7-78.5c-76.6-156.9,130.2-298.6,254.6-174.2c80.4,78.5,59.3,201-42.1,254.6C4035.3-3381.2,4006.6-3381.2,3947.3-3411.8z"/><path d="M4921.5-3415.7c-55.5-30.6-99.5-126.3-80.4-178c5.7-17.2,28.7-51.7,49.8-74.6c76.6-86.1,225.9-44,268,74.6c19.1,53.6-24.9,149.3-84.2,178C5009.6-3381.2,4984.7-3381.2,4921.5-3415.7z"/><path d="M5909.2-3408c-63.2-36.4-86.1-78.5-86.1-153.1c0-147.4,179.9-204.8,277.5-90c57.4,67,55.5,151.2-5.7,210.5C6052.7-3396.5,5957-3381.2,5909.2-3408z"/><path d="M6856.6-3440.5c-134-135.9,0-329.2,181.8-260.3c36.4,15.3,86.1,105.3,86.1,158.9c0,57.4-78.5,134-147.4,147.4C6925.5-3385,6906.4-3392.7,6856.6-3440.5z"/><path d="M7878.8-3406.1c-162.7-65.1-116.8-306.3,59.3-306.3c151.2,0,214.4,160.8,107.2,269.9C7987.8-3385,7949.6-3377.4,7878.8-3406.1z"/></g></g>
</svg>