<?xml version="1.0" encoding="utf-8"?>
<!-- Svg Vector Icons : http://www.onlinewebfonts.com/icon -->
<!DOCTYPE svg PUBLIC "-//W3C//DTD SVG 1.1//EN" "http://www.w3.org/Graphics/SVG/1.1/DTD/svg11.dtd">
<svg version="1.1" xmlns="http://www.w3.org/2000/svg" xmlns:xlink="http://www.w3.org/1999/xlink" x="0px" y="0px" viewBox="0 0 1000 1000" enable-background="new 0 0 1000 1000" xml:space="preserve">
<metadata> Svg Vector Icons : http://www.onlinewebfonts.com/icon </metadata>
<g><g transform="translate(0.000000,341.000000) scale(0.100000,-0.100000)"><path d="M425.4,773.9v-899.6H262.7H100v-1875.8v-1875.8h162.7h162.7v-239.3v-239.3h162.7h162.7v-248.8v-248.8h162.7h162.7l3.8,82.3c3.8,44,5.7,153.1,5.7,243.1v162.7l158.9,5.7l157,5.7v237.4v239.3H5000h3598.4v-239.3v-237.4l158.9-5.7l157-5.7v-162.7c0-90,1.9-199.1,5.7-243.1l3.8-82.3h162.7h162.7v248.8v248.8h162.7h162.7v239.3v239.3h162.7H9900v1875.8v1875.8h-162.7h-162.7v899.6v899.6H5000H425.4V773.9z M4827.7,46.5V-1255H3124.2H1420.7v564.6v564.6l-329.2,3.8l-331.1,5.7l-5.7,733.1l-3.8,731.2h2038.5h2038.5V46.5z M9245.4,616.9l-5.7-733.1l-329.2-5.7l-331.1-3.8v-564.6V-1255H6875.8H5172.3V46.5v1301.6h2038.5h2038.5L9245.4,616.9z M1076.2-1676.1v-1225H5000h3923.8v1225v1225h325.4h325.4v-1550.4v-1550.4H5000H425.4v1550.4v1550.4h325.4h325.4V-1676.1z M8579.3-2078.1v-478.5H5000H1420.7v478.5v478.5H5000h3579.3V-2078.1z M1076.2-3953.9v-76.6H913.5H750.8v76.6v76.6h162.7h162.7V-3953.9z M9249.2-3953.9v-76.6h-162.7h-162.7v76.6v76.6h162.7h162.7V-3953.9z"/></g></g>
</svg>