<?xml version="1.0" encoding="utf-8"?>
<!-- Svg Vector Icons : http://www.onlinewebfonts.com/icon -->
<!DOCTYPE svg PUBLIC "-//W3C//DTD SVG 1.1//EN" "http://www.w3.org/Graphics/SVG/1.1/DTD/svg11.dtd">
<svg version="1.1" xmlns="http://www.w3.org/2000/svg" xmlns:xlink="http://www.w3.org/1999/xlink" x="0px" y="0px" viewBox="0 0 1000 1000" enable-background="new 0 0 1000 1000" xml:space="preserve">
<metadata> Svg Vector Icons : http://www.onlinewebfonts.com/icon </metadata>
<g><g transform="translate(0.000000,341.000000) scale(0.100000,-0.100000)"><path d="M950,1639.6c-51.7-17.2-147.4-65.1-208.7-103.4c-91.9-57.4-130.2-97.6-195.3-208.7c-45.9-74.7-91.9-178-101.5-231.7c-13.4-57.4-21.1-430.7-21.1-989.8v-896l-93.8-59.3c-112.9-72.8-206.8-206.8-222.1-317.8c-7.7-42.1-9.6-281.4-5.7-530.3l5.7-453.7l59.4-74.7l59.4-72.7l-55.5-99.6c-107.2-189.5-88.1-402,51.7-585.8l65.1-84.2l-44-42.1c-63.2-59.3-126.4-197.2-139.8-304.4c-34.5-291,252.7-616.5,543.7-616.5H749V-4387v-356.1l55.5-55.5l55.5-55.5h298.7c281.4,0,298.7,1.9,344.6,44c30.6,26.8,97.6,168.5,195.3,411.6l145.5,367.6h3155h3155l145.5-367.6c97.6-243.1,164.6-384.8,195.3-413.5c46-40.2,63.2-42.1,344.6-42.1H9138l55.5,55.5l55.5,55.5v356.1v356.1h101.4c291,0,578.2,325.5,543.7,616.5c-13.4,107.2-76.6,245-139.7,304.4l-44.1,42.1l65.1,84.2c141.7,183.8,158.9,396.3,49.8,589.6c-51.7,90-53.6,105.3-28.7,126.3c17.2,13.4,46,57.4,67,95.7c32.5,67,36.4,116.8,36.4,528.4c0,250.8-7.7,484.4-19.1,520.7c-28.7,101.5-111.1,208.7-214.4,273.8l-91.9,59.3v896c0,559-7.7,932.3-21.1,989.8c-9.6,53.6-57.4,157-101.5,233.6c-68.9,112.9-103.4,149.3-204.8,212.5c-225.9,139.7-118.7,132.1-2037,132.1c-1520.1,0-1738.3-3.8-1830.2-30.6c-109.1-32.5-260.4-116.8-344.6-193.4c-42.1-38.3-51.7-42.1-61.3-17.2c-11.5,30.6-180,143.6-294.8,197.2c-67,32.5-197.2,34.5-1853.2,38.3C1175.9,1672.2,1038.1,1670.2,950,1639.6z M4549.1,1337.1c24.9-9.6-13.4-59.3-170.4-218.2c-212.5-214.4-227.8-243.1-174.2-342.7c30.6-61.3,63.2-78.5,151.2-78.5c51.7,0,88.1,28.7,250.8,191.4c105.3,105.3,197.2,191.4,204.8,191.4c9.6,0,15.3-650.9,15.3-1445.4c0-794.5-5.7-1445.4-13.4-1445.4c-7.7,0-101.5,86.2-206.8,191.4c-170.4,168.5-202.9,191.4-260.4,191.4c-72.7-1.9-114.9-26.8-147.4-90c-46-86.1-26.8-120.6,180-331.2c157-158.9,195.3-208.7,170.4-218.3c-17.2-5.7-509.2-11.5-1093.1-11.5c-832.8,0-1062.5,5.7-1068.3,24.9c-3.8,11.5-15.3,78.5-24.9,147.4c-70.8,463.3-448,896-928.5,1068.3c-118.7,42.1-180,49.8-411.6,57.4L749-772.6v895.9c0,493.9,5.7,911.3,11.5,928.5c9.6,24.9,55.5-11.5,208.7-160.8c174.2-172.3,202.9-193.4,264.2-193.4c78.5,0,162.7,63.2,168.5,124.4c7.7,91.9-11.5,120.6-195.3,306.3c-124.4,128.3-183.8,201-166.5,206.8C1076.4,1350.5,4510.9,1350.5,4549.1,1337.1z M8952.4,1337.1c24.9-9.6-11.5-55.5-160.8-208.7c-107.2-107.2-195.3-212.5-195.3-231.6c-7.7-128.3,49.8-199.1,160.8-199.1c70.9,0,90,13.4,271.9,193.4c153.2,149.3,199.1,185.7,208.7,160.8c5.7-17.2,11.5-436.5,11.5-930.4v-897.9h-224c-271.8,0-419.2-32.5-627.9-134c-377.2-181.9-687.3-574.3-756.2-957.2c-13.4-68.9-26.8-143.6-30.6-166.6l-7.7-44H6542.1c-583.9,0-1075.9,5.7-1093.1,11.5c-24.9,9.6,13.4,59.4,170.4,218.3c224,225.9,239.3,260.4,153.2,361.8c-38.3,45.9-65.1,59.4-116.8,59.4c-61.3,0-90-21.1-264.2-191.4c-105.3-105.3-199.1-191.4-206.8-191.4s-13.4,650.9-13.4,1445.4c0,794.5,5.7,1445.4,15.3,1445.4c7.7,0,99.6-86.2,204.9-191.4c170.4-170.4,197.2-191.4,258.4-191.4c74.7,1.9,116.8,26.8,149.3,90c46,86.1,26.8,120.6-180,331.2c-130.2,134-193.4,210.6-176.1,216.3C5479.6,1350.5,8914.1,1350.5,8952.4,1337.1z M1250.6-1130.6c394.4-82.3,698.8-384.8,779.2-771.5c40.2-197.2,134-176.1-792.6-176.1H423.5v446.1c0,371.4,5.7,451.8,30.6,488.2c28.7,40.2,40.2,42.1,348.4,42.1C1005.5-1101.9,1170.2-1113.3,1250.6-1130.6z M9543.9-1144c24.9-36.4,30.6-116.8,30.6-488.2v-446.1h-813.6c-926.6,0-832.8-21.1-792.6,176.1c59.3,287.2,271.8,564.8,524.6,685.4c187.6,90,321.6,111,693,112.9C9505.6-1101.9,9515.2-1103.8,9543.9-1144z M9453.9-2436.2c135.9-63.2,162.7-289.1,45.9-392.5l-59.3-53.6H4999H557.5l-59.4,53.6c-114.9,103.4-90,338.9,44,396.3c53.6,23,693,26.8,4453,28.7C9061.5-2403.7,9392.7-2405.6,9453.9-2436.2z M9507.5-3290c86.2-99.6,80.4-285.3-11.5-369.5c-40.2-36.4-137.9-36.4-4468.3-42.1c-2862.1-1.9-4445.3,1.9-4477.9,15.3c-65.1,24.9-126.4,126.3-126.4,210.6c0,88.1,55.5,193.3,114.9,224c38.3,19.1,961,23,4485.5,19.1l4439.6-3.8L9507.5-3290z M1468.8-4082.6c-7.7-19.1-49.8-126.3-93.8-239.3l-80.4-206.8h-109.1h-111v239.3v239.3h202.9C1463.1-4050.1,1480.3-4053.9,1468.8-4082.6z M8923.6-4289.4v-239.3h-109.2h-111l-80.4,206.8c-44,113-86.1,220.2-93.8,239.3c-11.5,28.7,5.7,32.5,191.4,32.5h202.9V-4289.4z"/><path d="M2272.9,324.4c-36.4-32.5-49.8-65.1-49.8-114.9c0-61.3,17.2-88.1,122.5-197.2l122.5-128.3l-122.5-130.2c-101.5-107.2-122.5-139.8-122.5-195.3c0-95.7,70.8-170.4,160.8-170.4c61.3,0,86.2,17.2,199.1,128.3l128.3,128.3l128.3-128.3c109.1-109.1,139.7-128.3,195.3-128.3c97.6,0,164.6,68.9,164.6,166.5c0,65.1-13.4,90-122.5,202.9l-124.4,126.4l124.4,128.3c105.3,107.2,122.5,135.9,122.5,195.3c0,49.8-13.4,84.2-47.9,116.8c-86.1,88.1-187.6,57.4-342.7-103.4l-93.8-95.7L2583,247.8C2431.8,391.4,2362.9,408.6,2272.9,324.4z"/><path d="M6846.5,324.4c-34.5-32.5-47.9-67-47.9-118.7c0-65.1,15.3-88.1,124.4-197.2L7045.6-114l-122.5-128.3c-111.1-112.9-124.4-137.8-124.4-202.9c0-97.6,67-166.5,164.6-166.5c57.4,0,86.1,19.1,195.3,128.3l128.3,128.3L7415-483.5c113-111,137.9-128.3,199.1-128.3c90,0,160.8,74.7,160.8,170.4c0,55.5-21.1,88.1-122.5,195.3l-122.5,130.2l122.5,128.3C7757.7,121.5,7775,148.3,7775,209.5c0,90-74.7,162.7-164.6,162.7c-53.6,0-88.1-23-195.3-124.4l-132.1-122.5l-93.8,95.7C7034.1,381.8,6932.6,412.5,6846.5,324.4z"/></g></g>
</svg>