<?xml version="1.0" encoding="utf-8"?>
<!-- Svg Vector Icons : http://www.onlinewebfonts.com/icon -->
<!DOCTYPE svg PUBLIC "-//W3C//DTD SVG 1.1//EN" "http://www.w3.org/Graphics/SVG/1.1/DTD/svg11.dtd">
<svg version="1.1" xmlns="http://www.w3.org/2000/svg" xmlns:xlink="http://www.w3.org/1999/xlink" x="0px" y="0px" viewBox="0 0 1000 1000" enable-background="new 0 0 1000 1000" xml:space="preserve">
<metadata> Svg Vector Icons : http://www.onlinewebfonts.com/icon </metadata>
<g><g transform="translate(0.000000,366.000000) scale(0.100000,-0.100000)"><path d="M4063.1,2134.4c-241.4-65.1-477-249.1-603.5-473.2l-61.3-107.3l-90,63.2C2848.5,1944.7,2271.8,1847,1973,1392.9c-42.2-65.1-92-164.8-109.2-218.4c-30.6-99.6-49.8-120.7-72.8-82.4c-24.9,40.2-249.1,137.9-381.3,166.7c-160.9,32.6-319.9,23-482.8-32.6C595.5,1111.3,317.7,783.7,239.1,412c-38.3-182-36.4-201.2,28.7-601.6l57.5-350.6l-57.5-72.8c-88.1-111.1-153.3-270.1-164.8-406.2c-28.7-293.1,143.7-620.7,406.2-774l84.3-49.8v-831.5c0-798.9,1.9-833.4,40.2-938.8c51.7-136,222.2-312.3,350.6-362.1l88.1-34.5v-362.1v-364l55.6-55.5l55.6-55.6h297c266.3,0,300.8,3.8,344.8,38.3c32.6,26.8,90,141.8,185.8,387c76.6,193.5,147.5,362.1,159,375.5c26.8,34.5,5632.5,34.5,5659.4,0c11.5-13.4,82.4-182,159-375.5c95.8-245.2,153.3-360.2,185.8-387c44.1-34.5,78.5-38.3,344.8-38.3h297l55.5,55.6l55.6,55.5v362.1v360.2l99.6,46c122.6,55.5,260.5,191.6,321.9,318l47.9,95.8l5.7,856.4l5.7,858.3l70.9,36.4c90,46,274,237.5,327.6,342.9c141.8,277.8,120.7,590.1-55.6,823.8l-76.6,101.5l57.5,341c30.6,189.7,57.5,398.5,57.5,465.6c-1.9,448.3-350.6,885.1-781.7,975.2c-128.4,26.8-356.3,13.4-492.4-28.7c-51.7-15.3-145.6-59.4-208.8-97.7c-61.3-36.4-116.9-67.1-124.5-67.1c-7.6,0-24.9,40.2-36.4,90c-88.1,327.6-402.3,603.5-743.3,657.1c-235.7,36.4-452.1-15.3-676.3-162.8l-124.5-82.4l-67.1,114.9c-136,231.8-356.3,400.4-605.4,465.5C5768.2,2178.4,4220.2,2176.5,4063.1,2134.4z M5990.5,1783.8c113-49.8,256.7-191.6,304.6-300.8c63.2-147.5,47.9-287.4-199.2-1827.7c-130.3-806.6-239.5-1467.5-243.3-1471.4c-1.9-3.8-99.6-26.8-212.6-51.7c-115-26.8-306.5-78.5-423.4-116.9l-216.5-69l-214.6,69c-118.8,38.3-310.4,90-425.3,116.9c-113,24.9-210.7,47.9-212.7,51.7c-3.8,3.8-97.7,582.4-210.7,1289.4c-111.1,706.9-220.3,1379.4-241.4,1498.2c-19.2,118.8-36.4,249.1-36.4,289.3c0,251,201.2,496.2,454.1,557.5c40.2,9.6,456,17.2,925.3,15.3C5888.9,1829.7,5890.8,1829.7,5990.5,1783.8z M3036.3,1442.7c130.3-67.1,272.1-241.4,302.7-369.8c5.8-26.8,107.3-655.2,224.2-1398.6c116.9-743.3,216.5-1371.7,220.3-1398.6l9.6-47.9l-454.1-1.9c-333.4,0-505.8-9.6-638-32.6c-99.6-17.2-182-28.7-182-26.8c-1.9,1.9-78.5,530.7-170.5,1172.5c-92,643.7-178.2,1251-195.4,1350.7c-15.3,99.6-23,220.3-15.3,268.2c30.7,235.6,183.9,419.6,417.6,502C2687.6,1507.9,2927.1,1498.3,3036.3,1442.7z M7452.2,1458.1c205-78.5,342.9-226.1,394.7-421.5l28.7-118.8L7680.2-455.8c-107.3-754.8-197.4-1375.6-199.3-1377.5c0-1.9-82.4,9.6-182,26.8c-132.2,23-304.6,32.6-638,32.6l-454.1,1.9l9.6,47.9c3.8,26.8,103.5,655.2,220.3,1398.6C6553.7,417.8,6655.3,1046.2,6661,1073c42.1,176.3,208.8,348.7,388.9,404.2C7143.8,1506,7352.6,1496.4,7452.2,1458.1z M1526.6,904.4c122.6-63.2,208.8-149.4,264.4-258.6c40.2-86.2,70.9-264.4,220.3-1306.6c93.9-662.9,172.4-1214.6,172.4-1226.1c0-17.2-229.9-105.4-274-105.4c-7.7,0-13.4,187.8-13.4,417.6c0,302.7-7.7,448.3-28.7,538.4c-101.5,427.2-492.4,747.2-911.9,749.1c-80.5,0-185.8-11.5-235.6-26.8c-67.1-21.1-92-21.1-97.7-5.8c-34.5,101.5-86.2,555.6-76.6,649.5c32.6,272,235.6,511.5,513.4,601.6C1179.8,971.5,1425,956.1,1526.6,904.4z M9105.6,866.1c222.2-111.1,358.3-319.9,358.3-555.6c0-59.4-19.2-228-42.1-373.6l-42.2-266.3l-59.4,13.4c-30.7,5.7-136,15.3-229.9,23c-153.3,9.6-189.7,3.8-310.4-38.3c-331.4-114.9-593.9-411.9-657.1-741.4c-9.6-55.6-19.2-285.5-19.2-509.6c0-226.1-5.8-410-11.5-410c-47.9,0-275.9,84.3-275.9,101.5c0,111.1,339.1,2362.2,365.9,2438.9c61.3,164.8,201.2,298.9,379.4,365.9c44.1,17.2,130.3,23,243.3,19.2C8956.2,929.3,8996.4,919.7,9105.6,866.1z M1139.6-643.6c132.2-46,316.1-231.8,375.5-381.2c44.1-113,46-122.6,55.6-1028.8c9.6-843,11.5-917.7,44.1-948.3c24.9-24.9,78.6-38.3,201.2-47.9c218.4-15.3,6151.7-15.3,6370.1,0c264.4,21.1,243.3-57.5,243.3,931.1c0,871.7,9.6,988.6,86.2,1141.8c166.7,327.6,492.4,454.1,791.2,304.6c141.8-69,203.1-139.9,243.3-270.1c42.2-141.8,36.4-256.7-17.2-373.6c-84.3-178.2-274-274-542.2-274c-124.5,0-147.5-5.7-187.7-47.9c-67.1-65.1-63.2-149.4,7.7-222.2c49.8-47.9,70.9-55.6,162.9-55.6h107.3V-2707c0-883.2,0-883.2-136-956c-61.3-32.6-224.2-34.5-3944.7-34.5c-3720.5,0-3883.4,1.9-3944.7,34.5c-136,72.8-136,72.8-136,956v791.2h107.3c92,0,113,7.7,162.8,55.6c70.9,72.8,74.7,157.1,7.7,222.2c-40.2,42.1-63.2,47.9-187.7,47.9c-431.1,0-668.6,272.1-559.4,641.8C524.6-685.7,846.5-544,1139.6-643.6z M3984.6-2136c224.2-34.5,505.8-101.5,703.1-166.7l130.3-44.1l5.7-187.7l5.8-185.8l-1461.8,3.8l-1461.8,5.7v182v180.1l195.4,63.2c226.1,72.8,592,149.4,839.1,176.3C3172.3-2084.3,3737.5-2097.7,3984.6-2136z M7023.1-2109.2c275.9-26.8,634.2-99.6,875.5-176.3l195.4-63.2v-180.1v-182l-1461.8-5.7l-1461.8-3.8l5.7,185.8l5.8,185.8l93.9,36.4c218.4,80.5,726.1,185.8,1017.3,210.7C6469.4-2086.2,6827.7-2090,7023.1-2109.2z M1800.5-4055.7c0-7.7-40.2-116.9-90-239.5l-90-226.1h-111.1h-111.1v239.5v239.5h201.2C1710.5-4042.3,1800.5-4048,1800.5-4055.7z M8601.7-4281.8v-239.5h-111.1h-111.1l-90,226.1c-49.8,122.6-90,231.8-90,239.5c0,7.7,90,13.4,201.2,13.4h201.2V-4281.8z"/></g></g>
</svg>