<?xml version="1.0" encoding="utf-8"?>
<!-- Svg Vector Icons : http://www.onlinewebfonts.com/icon -->
<!DOCTYPE svg PUBLIC "-//W3C//DTD SVG 1.1//EN" "http://www.w3.org/Graphics/SVG/1.1/DTD/svg11.dtd">
<svg version="1.1" xmlns="http://www.w3.org/2000/svg" xmlns:xlink="http://www.w3.org/1999/xlink" x="0px" y="0px" viewBox="0 0 1000 1000" enable-background="new 0 0 1000 1000" xml:space="preserve">
<metadata> Svg Vector Icons : http://www.onlinewebfonts.com/icon </metadata>
<g><g transform="translate(0.000000,358.000000) scale(0.100000,-0.100000)"><path d="M4598.5,1986.9c-302.8-44.1-634.3-145.6-883.4-270.2c-419.6-212.7-816.3-582.5-975.3-912.1l-44.1-88.1l-184-21.1c-266.3-30.7-461.8-88.1-701.3-203.1c-323.8-155.2-632.3-408.1-824-676.4c-51.7-70.9-67.1-80.5-203.1-109.2C315.9-394.9,13.1-835.7,122.3-1263c53.7-210.8,212.7-427.3,389-530.8l80.5-47.9l5.8-854.6l5.7-856.5l47.9-95.8c61.3-126.5,199.3-262.5,321.9-318.1l99.6-46v-360.2v-362.2l55.6-55.6l55.6-55.6h297c266.4,0,300.8,3.8,344.9,38.3c34.5,26.8,92,147.5,197.4,412l149.5,373.7h2828.3h2828.3l149.5-373.7c105.4-264.4,162.9-385.1,197.4-412c44.1-34.5,78.6-38.3,344.9-38.3h297l55.6,55.6l55.6,55.6v362.2v360.2l99.6,46c122.6,55.6,260.6,191.6,321.9,318.1l47.9,95.8l5.8,856.5l5.7,854.6l82.4,49.8c279.7,162.9,454.1,538.4,396.6,848.9c-30.7,168.6-97.7,287.4-233.8,417.7c-128.4,122.6-302.8,212.7-471.4,241.4c-111.1,19.2-120.7,24.9-187.8,122.6c-90.1,132.2-348.8,381.3-505.9,486.7c-170.5,116.9-480.9,260.6-663,308.5c-84.3,21.1-235.7,49.8-337.2,61.3l-185.9,21.1l-42.2,88.1c-161,333.4-555.7,699.4-983,915.9c-180.1,90.1-540.4,208.9-751.1,245.3C5290.2,2009.9,4826.5,2019.4,4598.5,1986.9z M5560.4,1630.5c572.9-120.7,1050.1-415.8,1318.3-818.2c53.7-78.6,95.8-149.5,95.8-157.1s-57.5-49.8-126.5-95.8c-216.5-143.7-371.7-412-371.7-647.7c0-136,113.1-214.6,239.5-166.7c44.1,17.2,86.2,109.2,86.2,193.5c0,161,141.8,356.4,300.8,410.1c97.7,34.5,400.5,28.7,576.8-9.6c367.9-80.5,714.7-287.4,954.2-567.2l86.2-101.6l-122.6-72.8c-141.8-86.2-306.6-254.8-381.3-392.8c-95.8-176.3-111.1-281.7-111.1-758.8c0-258.7-7.7-436.9-17.2-436.9s-42.1,9.6-72.8,21.1c-107.3,40.2-423.5,115-647.7,153.3c-333.4,55.6-898.7,69-1245.5,28.7c-318.1-36.4-609.3-99.6-906.3-195.4l-216.5-69l-178.2,59.4c-235.7,76.6-517.4,145.6-783.7,187.8c-302.8,47.9-1048.1,47.9-1345.2,0c-228-38.3-559.5-115-684.1-159c-42.2-15.3-84.3-26.8-93.9-26.8c-9.6,0-17.2,195.5-17.2,436.9c0,492.5-19.2,605.5-136,801c-76.7,128.4-266.3,306.6-389,367.9c-107.3,53.7-105.4,59.4,84.3,249.1c228,228,486.7,375.6,801,458c218.4,55.6,523.1,69,641.9,26.8c155.2-53.7,272.1-205,293.2-379.4c21.1-182,63.2-235.7,180.1-235.7c90.1,0,153.3,72.8,153.3,178.2c0,235.7-157.1,505.9-375.6,649.6c-67.1,44.1-122.6,86.2-122.6,93.9s42.2,76.7,93.9,155.2c306.6,458,875.7,774.1,1546.4,858.4C4878.3,1695.6,5347.7,1676.4,5560.4,1630.5z M1187.7-655.5c134.1-47.9,285.5-197.4,337.2-331.5c32.6-86.2,34.5-168.6,40.2-1004.1c1.9-500.1,9.6-929.3,15.3-952.3c5.7-24.9,32.6-59.4,61.3-76.7c49.8-32.6,226.1-34.5,3081.2-40.2c3249.8-7.7,3585.2-1.9,3656.1,53.6l42.2,34.5l9.6,946.6C8444.3-941,8440.4-966,8611-791.6c124.6,124.6,268.3,184,461.8,184c212.7,1.9,360.2-84.3,456-262.5c53.6-99.6,59.4-350.7,9.6-440.7c-86.2-160.9-260.6-256.8-490.5-270.2c-214.6-13.4-231.9-19.2-266.4-93.9c-61.3-128.4,40.3-239.5,224.2-239.5h76.7v-789.5c0-755-1.9-793.3-38.3-854.6c-21.1-34.5-65.2-78.6-99.6-99.6c-63.2-38.3-105.4-38.3-3939.7-38.3c-4213.7,0-3922.4-7.7-4027.8,105.4l-47.9,51.7l-5.7,812.5l-5.8,812.5h78.6c184,0,285.5,109.2,224.2,239.5c-36.4,74.7-57.5,82.4-262.5,90.1c-224.2,9.6-406.2,111.1-494.4,274c-46,84.3-44.1,341.1,3.8,431.1C603.3-621,865.8-538.7,1187.7-655.5z M3912.5-2117.6c245.3-32.6,527-95.8,758.8-170.5l157.1-49.8v-189.7v-191.6l-1460.1,3.8l-1462,5.7l-5.8,182l-5.8,184l63.2,21.1c270.2,93.9,565.3,164.8,858.4,206.9C3077.1-2079.2,3648.1-2081.2,3912.5-2117.6z M7166.2-2113.7c260.6-36.4,519.3-93.9,753.1-166.7l187.8-61.3l-5.7-183.9l-5.7-184l-1460.1-5.7l-1462-3.8v191.6v189.7l151.4,47.9c283.6,90.1,580.6,155.2,873.8,189.7C6353.7-2081.2,6984.1-2090.8,7166.2-2113.7z M1800.9-4054.8c0-7.7-40.2-116.9-90.1-239.5l-90-226.1h-111.2h-111.1v239.5v239.5h201.2C1710.8-4041.4,1800.9-4047.2,1800.9-4054.8z M8603.3-4280.9v-239.5h-111.1H8381l-90.1,226.1c-49.8,122.6-90.1,231.9-90.1,239.5c0,7.7,90.1,13.4,201.2,13.4h201.2V-4280.9z"/><path d="M4397.3,490.3c-78.6-76.6-65.1-147.5,49.8-268.3c95.8-99.6,95.8-103.5,76.7-176.3c-26.8-93.9-26.8-205,0-298.9c19.2-72.8,19.2-76.7-76.7-176.3c-78.6-82.4-97.7-116.9-97.7-166.7c1.9-70.9,26.8-113.1,90.1-145.6c74.7-40.2,120.7-24.9,226.1,74.7l101.6,95.8l116.9-23c90.1-17.2,143.7-17.2,233.8,0l116.9,23l101.6-95.8c105.4-99.6,151.4-115,226.1-74.7c63.2,32.6,88.1,74.7,90.1,145.6c0,49.8-19.2,84.3-97.7,166.7c-95.8,99.6-95.8,103.5-76.7,176.3c26.8,93.9,26.8,205,0,298.9c-19.2,72.8-19.2,76.7,76.7,176.3c115,120.7,128.4,191.6,49.8,268.3c-78.6,80.5-164.8,67.1-285.5-47.9c-95.8-90.1-103.5-93.9-166.7-76.7c-34.5,11.5-103.5,19.2-151.4,19.2c-47.9,0-116.9-7.7-151.4-19.2c-63.2-17.2-70.9-13.4-166.7,76.7C4562.1,557.4,4475.9,570.8,4397.3,490.3z M5127.4,13.2c99.6-99.6,76.7-224.2-51.7-291.3c-80.5-40.2-122.6-32.6-197.4,38.3c-92,86.2-93.9,162.9-3.8,252.9c47.9,47.9,82.4,65.2,126.5,65.2C5045,78.4,5081.4,61.1,5127.4,13.2z"/></g></g>
</svg>