<?xml version="1.0" encoding="utf-8"?>
<!-- Svg Vector Icons : http://www.onlinewebfonts.com/icon -->
<!DOCTYPE svg PUBLIC "-//W3C//DTD SVG 1.1//EN" "http://www.w3.org/Graphics/SVG/1.1/DTD/svg11.dtd">
<svg version="1.1" xmlns="http://www.w3.org/2000/svg" xmlns:xlink="http://www.w3.org/1999/xlink" x="0px" y="0px" viewBox="0 0 1000 1000" enable-background="new 0 0 1000 1000" xml:space="preserve">
<metadata> Svg Vector Icons : http://www.onlinewebfonts.com/icon </metadata>
<g><g transform="translate(0.000000,341.000000) scale(0.100000,-0.100000)"><path d="M425.4,773.9v-899.6H262.7H100v-1875.8v-1875.8h162.7h162.7v-239.3v-239.3h162.7h162.7v-248.8v-248.8h162.7h162.7l3.8,82.3c3.8,44,5.7,153.1,5.7,243.1v162.7l158.9,5.7l157,5.7v237.4v239.3H5000h3598.4v-239.3v-237.4l158.9-5.7l157-5.7v-162.7c0-90,1.9-199.1,5.7-243.1l3.8-82.3h162.7h162.7v248.8v248.8h162.7h162.7v239.3v239.3h162.7H9900v1875.8v1875.8h-162.7h-162.7v899.6v899.6H5000H425.4V773.9z M3353.9,46.5V-1255h-966.6h-966.6l-3.8,570.4l-5.7,568.5l-329.2,5.7l-331.1,3.8v727.3v727.3h1301.6h1301.6V46.5z M6301.6,46.5V-1255H5000H3698.4V46.5v1301.6H5000h1301.6V46.5z M9249.2,620.7v-727.3l-329.2-3.8l-331.1-5.7l-5.7-568.5l-3.8-570.4h-966.6h-966.6V46.5v1301.6h1301.6h1301.6V620.7z M1076.2-1676.1v-1225H5000h3923.8v1225v1225h325.4h325.4v-1537V-3527l-731.2-11.5c-951.3-17.2-6735.6-17.2-7685,0L425.4-3527v1538.9v1537h325.4h325.4V-1676.1z M4827.7-2078.1v-478.5H3124.2H1420.7v478.5v478.5h1703.5h1703.5V-2078.1z M8579.3-2078.1v-478.5H6875.8H5172.3v478.5v478.5h1703.5h1703.5V-2078.1z M1076.2-3953.9v-76.6H913.5H750.8v76.6v76.6h162.7h162.7V-3953.9z M9249.2-3953.9v-76.6h-162.7h-162.7v76.6v76.6h162.7h162.7V-3953.9z"/></g></g>
</svg>