<?xml version="1.0" encoding="utf-8"?>
<!-- Svg Vector Icons : http://www.onlinewebfonts.com/icon -->
<!DOCTYPE svg PUBLIC "-//W3C//DTD SVG 1.1//EN" "http://www.w3.org/Graphics/SVG/1.1/DTD/svg11.dtd">
<svg version="1.1" xmlns="http://www.w3.org/2000/svg" xmlns:xlink="http://www.w3.org/1999/xlink" x="0px" y="0px" viewBox="0 0 1000 1000" enable-background="new 0 0 1000 1000" xml:space="preserve">
<metadata> Svg Vector Icons : http://www.onlinewebfonts.com/icon </metadata>
<g><g transform="translate(0.000000,315.000000) scale(0.100000,-0.100000)"><path d="M555.5,709.1L100,255.5v-2180.1v-2178.2l55.5-55.5l55.5-55.5h269.9h269.9v-269.9v-269.9l55.5-55.5l55.5-55.5h549.3h547.4l45.9,47.9c45.9,44,47.9,53.6,47.9,325.4v277.5H5000h2947.7v-277.5c0-271.8,1.9-281.4,47.9-325.4l45.9-47.9h547.4h549.3l55.5,55.5l55.5,55.5v269.9v269.9h269.9H9789l55.5,55.5l55.5,55.5v2178.2V255.5l-455.5,453.6l-453.6,455.5H5000H1009.2L555.5,709.1z M1593,600l-239.3-239.3h-344.5H664.6L903.9,600l239.3,239.3h344.5h344.5L1593,600z M4674.6-299.6v-1138.9H3535.7H2396.9v1138.9V839.3h1138.9h1138.9V-299.6z M7603.1-299.6v-1138.9H6301.6H5000v1138.9V839.3h1301.6h1301.6V-299.6z M9096.1,600l239.3-239.3h-344.5h-344.5L8407,600l-239.3,239.3h344.5h344.5L9096.1,600z M1818.8-1834.7l-235.4-281.4l-5.7,1117.8l-3.8,1119.7L1807.3,355l235.4,235.4l5.7-1071.9l3.8-1073.8L1818.8-1834.7z M8422.3-996.3l-5.7-1117.8l-233.5,277.5l-235.4,279.4v1077.6V600l239.3-239.3l239.3-239.3L8422.3-996.3z M1237-16.3c5.7-19.1,9.6-761.8,9.6-1649.9c0-1561.9,1.9-1619.3,36.4-1665.2l36.4-49.8l1678.6-5.7l1676.7-3.8v-248.8v-248.8H2550H425.4v1952.3V16.2h400C1191,16.2,1227.4,12.4,1237-16.3z M9574.6-1936.1v-1952.3H7287.3H5000v248.8v248.8h1827.9h1829.8l45.9,47.9c55.5,53.6,49.8-187.6,47.9,2053.8l-1.9,1305.4h413.4h411.5V-1936.1z M4674.6-2089.3v-325.4H3216.1c-1385.8,0-1454.7,1.9-1427.9,34.5c15.3,17.2,137.8,164.6,273.7,325.4l245,290.9h1182.9h1184.8V-2089.3z M7932.3-2045.2c128.3-155,250.7-302.4,269.9-325.4l34.4-44H6619.3H5000v325.4v325.4h1347.5H7695L7932.3-2045.2z M4674.6-2912.3v-153.1H3124.2H1573.8v153.1v153.1h1550.4h1550.4V-2912.3z M8426.2-2912.3v-153.1H6713.1H5000v153.1v153.1h1713.1h1713.1V-2912.3z M1727-4376.6v-162.7h-325.4h-325.4v162.7v162.7h325.4H1727V-4376.6z M8923.8-4376.6v-162.7h-325.4H8273v162.7v162.7h325.4h325.4V-4376.6z"/><path d="M2764.4-27.8c-44-47.9-55.5-143.6-23-204.8c28.7-51.7,122.5-78.5,193.3-53.6c65.1,23,120.6,122.5,99.5,181.8C2992.1,16.2,2844.8,58.3,2764.4-27.8z"/><path d="M3415.2-27.8c-118.7-126.3,30.6-333.1,183.7-254.6c78.5,40.2,111,126.3,80.4,202.9c-28.7,70.8-70.8,95.7-158.9,95.7C3478.3,16.2,3442,0.9,3415.2-27.8z"/><path d="M4064-33.6c-84.2-109.1-15.3-264.1,118.7-264.1c126.3,0,197.2,120.6,139.7,233.5c-32.5,65.1-65.1,80.4-155,80.4C4121.4,16.2,4092.7,2.8,4064-33.6z"/><path d="M3130-481.4c-91.9-36.4-111-181.8-34.4-258.4c97.6-99.5,266.1-26.8,266.1,114.8C3361.6-504.4,3248.6-433.6,3130-481.4z"/><path d="M3784.6-485.3c-149.3-80.4-93.8-302.4,74.6-302.4c49.8,0,76.6,13.4,114.8,59.3c65.1,76.6,63.2,141.6-5.7,210.5C3909-460.4,3849.6-448.9,3784.6-485.3z"/><path d="M5539.8-27.8c-80.4-86.1-40.2-225.9,76.6-268c55.5-19.1,149.3,24.9,179.9,86.1c34.5,65.1,13.4,155-44,199.1C5696.7,31.5,5587.6,21.9,5539.8-27.8z"/><path d="M6190.5-27.8c-120.6-128.2,32.5-333.1,187.6-252.7c153.1,78.5,99.5,296.7-72.7,296.7C6253.7,16.2,6219.3,2.8,6190.5-27.8z"/><path d="M6847.1-31.6c-99.5-97.6-26.8-266.1,114.8-266.1c55.5,0,82.3,13.4,116.7,53.6c93.8,107.2,24.9,260.3-116.7,260.3C6914.1,16.2,6877.7,0.9,6847.1-31.6z"/><path d="M5909.2-485.3c-99.5-53.6-118.7-176.1-38.3-254.6c65.1-67,149.3-63.2,223.9,9.6c47.9,49.8,55.5,68.9,45.9,120.6C6119.7-494.8,6003-433.6,5909.2-485.3z"/><path d="M6560-485.3c-147.4-84.2-93.8-302.4,74.7-302.4c49.8,0,76.6,13.4,114.8,59.3c65.1,76.6,63.2,141.6-5.8,210.5C6684.4-460.4,6623.1-448.9,6560-485.3z"/></g></g>
</svg>