<?xml version="1.0" encoding="utf-8"?>
<!-- Svg Vector Icons : http://www.onlinewebfonts.com/icon -->
<!DOCTYPE svg PUBLIC "-//W3C//DTD SVG 1.1//EN" "http://www.w3.org/Graphics/SVG/1.1/DTD/svg11.dtd">
<svg version="1.1" xmlns="http://www.w3.org/2000/svg" xmlns:xlink="http://www.w3.org/1999/xlink" x="0px" y="0px" viewBox="0 0 1000 1000" enable-background="new 0 0 1000 1000" xml:space="preserve">
<metadata> Svg Vector Icons : http://www.onlinewebfonts.com/icon </metadata>
<g><g transform="translate(0.000000,324.000000) scale(0.100000,-0.100000)"><path d="M1545.1,1312.1C999.6,1193.4,557.5,741.7,452.2,196.2c-15.3-84.2-26.8-262.2-26.8-436.4v-296.7L320.1-640.3C257-701.5,191.9-789.6,161.3-854.7l-51.7-111l-5.7-1697.8L100-4361.2l80.4-5.7l82.3-5.7l5.7-243.1l5.7-245h486.2h488.1v237.4v235.4l116.8,13.4c155,15.3,7114.6,15.3,7269.6,0l116.7-13.4v-235.4v-237.4h488.1h486.2l5.7,245l5.7,243.1l82.3,5.7l80.4,5.7l-3.8,1697.8l-5.7,1697.8l-51.7,111c-30.6,65.1-95.7,153.1-158.9,214.4l-105.3,103.4v298.6c0,549.3-107.2,847.9-419.2,1159.9c-166.5,166.5-346.4,279.5-566.6,356l-153.1,53.6l-641.2,5.7c-524.5,5.7-668,1.9-784.8-23c-141.7-30.6-373.2-128.2-480.4-202.9l-53.6-40.2l-130.1,78.5c-70.8,42.1-199.1,101.4-283.3,130.2l-153.1,51.7H5000h-909.2l-153.1-51.7c-84.2-28.7-212.5-88-283.3-130.2l-130.2-78.5l-53.6,40.2c-103.4,72.7-336.9,172.3-470.9,201C2819.9,1350.4,1717.4,1350.4,1545.1,1312.1z M3040,971.4c53.6-17.2,149.3-67,214.4-109.1l118.7-76.6V-536.9c0-727.3-5.7-1318.8-13.4-1315c-168.4,86.1-114.8,82.3-1062.3,88l-895.8,5.7v380.9c0,338.8-3.8,392.4-40.2,488.1c-76.6,206.7-312,400-514.9,424.9l-95.7,11.5V-202c0,302.4,32.5,468.9,126.3,660.4c95.7,193.3,246.9,340.7,451.7,440.2c88,42.1,206.7,86.1,264.1,95.7s384.7,15.3,727.3,13.4C2844.8,1003.9,2957.7,998.2,3040,971.4z M6001.1,963.7c61.3-23,151.2-70.8,201-107.2l90-63.2l5.7-1324.5l3.8-1324.5l-80.4,42.1l-82.3,44H5000H3861.1l-80.4-44l-82.3-42.1V-535V785.7l82.3,59.3c93.8,68.9,166.5,103.4,306.2,141.6c80.4,21.1,264.1,26.8,951.3,23C5863.2,1005.8,5893.9,1003.9,6001.1,963.7z M8508.5,971.4c279.5-95.7,497.7-277.5,614.4-513c93.8-191.4,126.3-357.9,126.3-660.4v-250.7l-95.7-11.5c-204.8-24.9-438.3-218.2-516.8-426.8c-34.5-95.7-40.2-151.2-42.1-488.1l-1.9-379l-892-5.7c-945.5-5.7-891.9-1.9-1058.5-88c-9.6-3.8-15.3,587.6-15.3,1315V783.8l82.3,55.5c243.1,166.5,296.7,176.1,1066.1,168.4C8309.4,1003.9,8431.9,998.2,8508.5,971.4z M859.9-804.9C940.3-833.6,1036-935,1057-1013.5c11.5-40.2,19.1-633.6,19.1-1544.6v-1479.6H750.8H425.4v1489.1c0,920.7,7.7,1514,19.1,1556.1C488.5-837.4,695.3-741.7,859.9-804.9z M9438.7-837.4c26.8-19.1,65.1-59.3,86.1-88.1c40.2-51.7,40.2-70.8,45.9-1582.9l3.8-1529.3h-325.4h-325.4v1491.1c0,1008.7,5.7,1510.2,21,1546.6c26.8,70.8,107.2,156.9,179.9,189.5C9201.4-774.3,9375.5-789.6,9438.7-837.4z M3177.8-2133.2c95.7-80.4,214.4-124.4,338.8-124.4c155,0,241.2,26.8,335,105.3l80.4,67h1068h1068l80.4-67c179.9-151.2,482.3-141.7,673.8,19.1l57.4,47.9h849.8h849.9v-239.3v-239.3H5000H1420.7v239.3v239.3h849.8h849.8L3177.8-2133.2z M8594.6-3473.1l-1.9-564.6H4998.1H1401.6v564.6v564.6H5000h3596.5L8594.6-3473.1z M923-4458.8v-76.6H760.4H597.7v76.6v76.6h162.7H923V-4458.8z M9402.3-4458.8v-76.6h-162.7H9077v76.6v76.6h162.7h162.7V-4458.8z"/><path d="M1621.7,316.8c-34.4-32.5-47.9-67-47.9-118.7c0-65.1,15.3-88,124.4-197.1l122.5-122.5l-122.5-128.2c-111-112.9-124.4-137.8-124.4-202.9c0-76.6,44-137.8,120.6-164.6c55.5-21.1,149.3,32.5,262.2,147.4L2060-362.7L2190.2-491c114.8-114.8,137.8-128.2,201-126.3c91.9,1.9,158.9,74.6,158.9,168.4c0,55.5-21.1,88-122.5,195.2L2305-123.5L2427.5,4.8C2532.8,113.9,2550,140.7,2550,201.9c0,90-72.7,162.7-166.5,162.7c-55.5,0-88-21.1-195.2-124.4L2060,115.8l-95.7,97.6C1809.3,374.2,1707.8,404.8,1621.7,316.8z"/><path d="M4557.9,309.1c-93.8-93.8-74.6-158.9,93.8-331.1l107.2-109.1l-128.2-134c-76.6-78.5-128.2-149.3-128.2-174.2c0-116.8,120.6-210.5,222-172.3c26.8,11.5,99.5,68.9,162.7,128.2l114.8,109.1L5111-483.3c59.3-59.3,132.1-114.8,160.8-126.3c105.3-40.2,225.9,51.7,225.9,170.4c0,24.9-51.7,95.7-128.2,174.2l-128.3,134L5348.4-22c168.4,172.3,187.6,237.4,93.8,331.1c-93.8,91.9-155,78.5-310.1-72.7L5000,110l-132.1,126.3C4712.9,387.6,4651.6,401,4557.9,309.1z"/><path d="M7499.8,316.8c-36.4-32.5-49.8-65.1-49.8-114.8c0-61.3,17.2-88,122.5-197.1L7695-123.5l-122.5-130.2C7471-360.8,7450-393.4,7450-448.9c0-95.7,67-166.5,160.8-166.5c65.1,0,88,15.3,201,126.3L7940-362.7l103.4-107.2c112.9-114.8,206.7-168.4,262.2-147.4c76.6,26.8,120.6,88,120.6,164.6c0,65.1-13.4,90-124.4,202.9l-122.5,128.2L8301.8,0.9C8410.9,110,8426.2,133,8426.2,198.1c0,51.7-13.4,86.1-47.9,118.7c-86.1,88-187.6,57.4-342.6-103.4l-95.7-97.6l-128.2,124.4C7662.5,383.8,7591.6,401,7499.8,316.8z"/></g></g>
</svg>