<?xml version="1.0" encoding="utf-8"?>
<!-- Svg Vector Icons : http://www.onlinewebfonts.com/icon -->
<!DOCTYPE svg PUBLIC "-//W3C//DTD SVG 1.1//EN" "http://www.w3.org/Graphics/SVG/1.1/DTD/svg11.dtd">
<svg version="1.1" xmlns="http://www.w3.org/2000/svg" xmlns:xlink="http://www.w3.org/1999/xlink" x="0px" y="0px" viewBox="0 0 1000 1000" enable-background="new 0 0 1000 1000" xml:space="preserve">
<metadata> Svg Vector Icons : http://www.onlinewebfonts.com/icon </metadata>
<g><g transform="translate(0.000000,324.000000) scale(0.100000,-0.100000)"><path d="M1612.1,1312.8C1145.1,1219,714.4,861,530.7,409.3C456,223.7,425.4,28.4,425.4-266.3v-269.9L320.1-639.6C257-700.8,191.9-788.9,161.3-854l-51.7-111l-5.7-1697.8L100-4360.5l80.4-5.8l82.3-5.7l5.7-243.1l5.7-245h486.2h488.1v237.3v235.4l116.8,13.4c155,15.3,7114.6,15.3,7269.6,0l116.7-13.4v-235.4v-237.3h488.1h486.2l5.7,245l5.7,243.1l82.3,5.7l80.4,5.8l-3.8,1697.8L9890.4-965l-51.7,111c-30.6,65.1-95.7,153.1-157,212.5L9578.4-540l-9.6,333c-11.5,377.1-32.5,480.4-149.3,715.9c-145.5,294.8-384.7,535.9-675.7,677.6c-304.3,151.2-223.9,143.6-1728.4,151.2c-1293.9,5.7-1351.3,3.8-1508.3-32.5c-155-38.3-344.5-118.7-453.6-197.2c-53.6-36.4-53.6-36.4-111,3.8c-97.6,68.9-329.2,166.5-472.8,199.1c-120.6,26.8-306.3,30.6-1435.5,28.7C2054.3,1337.6,1705.9,1331.9,1612.1,1312.8z M4410.5,995c160.8-34.4,323.5-120.6,461.3-248.8L5000,629.4l128.2,116.8c137.8,128.2,300.5,214.4,461.3,248.8c68.9,13.4,516.8,21.1,1364.7,21.1c1079.5,0,1284.3-3.8,1410.7-30.6c440.2-90,759.9-411.5,855.6-861.3c15.3-72.7,28.7-231.6,28.7-354.1v-222l-95.7-11.5c-130.2-15.3-271.8-95.7-382.8-218.2C8638.6-825.3,8600.3-942,8594.6-1210l-5.7-214.4l-1521.7-9.6c-1412.6-9.6-1529.3-13.4-1627-45.9c-118.7-38.3-308.2-132.1-386.6-187.6c-53.6-36.4-53.6-36.4-109.1,1.9c-103.4,74.6-336.9,174.2-470.9,202.9c-111,23-380.9,28.7-1602.1,28.7h-1470v220.1c0,174.2-7.7,239.3-40.2,325.4c-76.6,206.7-312,400-514.9,424.9L750.8-452v222c0,277.5,36.4,447.9,132.1,643.1c147.4,300.5,409.6,497.7,758,574.2C1792,1021.8,4255.4,1027.6,4410.5,995z M859.9-804.2c80.4-28.7,176.1-130.2,197.1-208.6c11.5-40.2,19.1-633.6,19.1-1544.7v-1479.6H750.8H425.4v1489.1c0,920.7,7.7,1514,19.1,1556.1C488.5-836.7,695.3-741,859.9-804.2z M9366-804.2c90-30.6,166.5-107.2,189.5-187.6c11.5-42.1,19.1-635.5,19.1-1556.1v-1489.1h-325.4h-325.4V-2546c0,1008.7,5.7,1510.2,21,1546.6C9008.1-832.9,9191.8-746.8,9366-804.2z M4441.1-1788c160.8-36.4,292.9-111,442.2-250.7L5000-2146l128.2,116.8c143.6,132.1,310.1,222,463.2,250.7c63.2,11.5,660.4,19.1,1544.6,19.1h1443.2v-239.3v-239.3H5000H1420.7v239.3v239.3h1447C4092.7-1759.3,4332-1763.2,4441.1-1788z M8598.4-2666.6c0-45.9-5.7-97.6-11.5-114.8c-9.6-26.8-17.2-24.9-59.3,7.6c-26.8,21.1-65.1,38.3-86.1,38.3c-51.7,0-141.6-49.8-157-86.1c-67-176.1,126.3-315.8,258.4-189.5l51.7,49.8v-424.9v-424.9l-40.2,38.3c-82.3,76.6-191.4,70.8-256.5-13.4c-38.3-49.8-30.6-157,17.2-206.7l40.2-44h-417.3h-417.3l42.1,45.9c78.5,84.2,51.7,216.3-55.5,260.3c-80.4,32.5-168.4-3.8-202.9-88c-28.7-70.8-21.1-111,36.4-174.2l38.3-44h-415.4h-415.3l38.3,49.8c61.2,76.6,53.6,166.5-21.1,227.8c-47.9,40.2-72.7,47.9-118.7,40.2c-72.7-15.3-120.6-59.3-135.9-126.3c-13.4-57.4,28.7-160.8,70.8-178c13.4-5.7-166.5-11.5-400-11.5l-424.9-1.9l45.9,47.9c99.5,97.6,26.8,266.1-114.8,266.1s-214.4-168.4-114.8-266.1l45.9-47.9h-423c-403.9,0-419.2,1.9-380.9,34.5c112.9,90,42.1,279.5-103.4,279.5c-141.6,0-214.4-168.4-114.8-266.1l45.9-47.9h-423h-424.9l42.1,38.3c86.1,80.4,65.1,214.4-40.2,264.1c-157,74.6-300.5-132.1-181.8-258.4l40.2-44h-417.3h-417.3l42.1,45.9c78.5,84.2,51.7,216.3-55.5,260.3c-80.4,32.5-168.4-3.8-202.9-88c-28.7-70.8-21.1-111,36.4-176.1l38.3-42.1h-417.3h-417.3l40.2,44c65.1,68.9,57.4,170.4-19.1,233.5c-70.8,59.3-147.4,55.5-220.1-13.4l-44-40.2v426.8v428.8l53.6-51.7c134-128.2,327.3,9.6,260.3,187.6c-15.3,36.4-105.3,86.1-158.9,86.1c-21.1,0-63.2-23-95.7-49.8l-59.3-49.8v126.3v126.3H5000h3598.4V-2666.6z M1476.2-4012.2c23-21.1,19.1-24.9-23-24.9c-44,0-51.7,7.7-51.7,51.7s3.8,47.9,24.9,24.9C1437.9-3975.8,1460.9-4000.7,1476.2-4012.2z M8598.4-4010.3c0-15.3-19.1-26.8-47.9-26.8c-45.9,0-45.9,1.9-13.4,34.5C8573.6-3962.4,8598.4-3966.2,8598.4-4010.3z M923-4458.1v-76.6H760.4H597.7v76.6v76.6h162.7H923V-4458.1z M9402.3-4458.1v-76.6h-162.7H9077v76.6v76.6h162.7h162.7V-4458.1z"/><path d="M4931.1,510.8c-95.7-42.1-107.2-97.6-99.5-507.2l5.7-369.4l53.6-45.9c30.6-24.9,78.5-45.9,109.1-45.9c30.6,0,78.5,21.1,109.1,45.9l53.6,45.9l5.7,369.4c7.7,415.3-3.8,465.1-103.3,507.2C4990.4,541.4,5003.8,541.4,4931.1,510.8z"/><path d="M4831.6-1102.8l5.7-168.4H5000h162.7l5.7,168.4l5.7,166.5H5000h-174.2L4831.6-1102.8z"/><path d="M2477.3-2754.6c-59.3-24.9-105.3-135.9-82.3-199.1c53.6-139.7,256.5-139.7,310.1,0c24.9,67-23,174.2-88,199.1C2557.7-2731.7,2536.6-2731.7,2477.3-2754.6z"/><path d="M3459.2-2758.5c-149.3-80.4-93.8-302.4,74.6-302.4c90,0,172.3,95.7,157,179.9C3669.7-2768,3553-2706.8,3459.2-2758.5z"/><path d="M4408.6-2785.3c-45.9-38.3-59.3-65.1-59.3-114.8c0-170.4,222-222,302.4-70.8c36.4,67,26.8,120.6-32.5,179.9C4550.2-2722.1,4485.1-2720.2,4408.6-2785.3z"/><path d="M5380.9-2791c-61.3-63.2-68.9-111-26.8-191.4c72.7-143.6,296.7-82.3,296.7,82.3c0,49.8-13.4,76.6-59.3,114.8C5514.9-2720.2,5449.8-2722.1,5380.9-2791z"/><path d="M6370.5-2777.6c-76.6-67-82.3-149.3-21-222c124.4-147.4,335-5.7,266.1,178c-15.3,36.4-105.3,86.1-158.9,86.1C6435.5-2735.5,6397.3-2754.6,6370.5-2777.6z"/><path d="M7377.3-2754.6c-59.3-24.9-105.3-135.9-82.3-199.1c40.2-103.4,168.4-137.8,254.6-68.9c61.3,45.9,74.6,112.9,42.1,189.5C7557.2-2748.9,7469.1-2718.3,7377.3-2754.6z"/><path d="M1947.1-3281c-67-65.1-63.2-149.3,7.7-222c34.5-32.5,76.6-55.5,107.2-55.5c61.3,0,162.7,93.8,162.7,153.1c0,55.5-49.8,145.5-86.1,160.8C2071.5-3219.7,1993-3233.1,1947.1-3281z"/><path d="M2955.8-3246.6c-32.5-11.5-80.4-109.1-80.4-158.9c0-59.3,101.4-153.1,162.7-153.1c72.7,0,162.7,95.7,162.7,172.3C3200.8-3275.3,3070.6-3200.6,2955.8-3246.6z"/><path d="M3912.8-3271.4c-55.5-53.6-70.8-120.6-38.3-185.7c74.6-155,302.4-109.1,302.4,61.3C4177-3258,4010.4-3179.6,3912.8-3271.4z"/><path d="M4890.9-3275.3c-57.4-65.1-65.1-105.3-36.4-176.1c70.8-168.5,308.2-112.9,302.4,70.8C5153.1-3250.4,4977-3181.5,4890.9-3275.3z"/><path d="M5870.9-3281c-78.5-76.6-63.2-201,32.5-250.7c103.3-53.6,212.5,1.9,237.3,118.7c7.7,45.9,0,70.8-40.2,118.7C6035.5-3215.9,5939.8-3210.2,5870.9-3281z"/><path d="M6847.1-3281c-70.8-68.9-65.1-164.6,11.5-227.8c76.6-65.1,141.7-63.2,210.5,5.7c61.3,63.2,68.9,111,26.8,191.4C7048-3217.8,6923.6-3202.5,6847.1-3281z"/><path d="M7855.8-3246.6c-32.5-11.5-80.4-109.1-80.4-158.9c0-59.3,101.4-153.1,162.7-153.1c72.7,0,162.7,95.7,162.7,172.3C8100.8-3275.3,7970.6-3200.6,7855.8-3246.6z"/></g></g>
</svg>