<?xml version="1.0" encoding="utf-8"?>
<!-- Svg Vector Icons : http://www.onlinewebfonts.com/icon -->
<!DOCTYPE svg PUBLIC "-//W3C//DTD SVG 1.1//EN" "http://www.w3.org/Graphics/SVG/1.1/DTD/svg11.dtd">
<svg version="1.1" xmlns="http://www.w3.org/2000/svg" xmlns:xlink="http://www.w3.org/1999/xlink" x="0px" y="0px" viewBox="0 0 1000 1000" enable-background="new 0 0 1000 1000" xml:space="preserve">
<metadata> Svg Vector Icons : http://www.onlinewebfonts.com/icon </metadata>
<g><g transform="translate(0.000000,511.000000) scale(0.100000,-0.100000)"><path d="M932.3,4335.5c-65.2-32.6-124.7-84.4-161.1-136.2l-57.5-82.5l-5.8-636.7l-5.8-636.7l-94-32.6c-211-74.8-404.7-297.3-471.8-544.7C101.9,2143.4,100,2041.8,100,649.5V-836.8l61.4-163c32.6-90.1,84.4-218.6,115.1-287.7l53.7-124.6l9.6-786.3c11.5-847.7,11.5-843.8,122.7-1035.6c63.3-107.4,243.6-272.3,351-322.2c92-42.2,97.8-42.2,1261.9-42.2h1169.9l128.5,63.3c193.7,94,345.2,280,420,512.1c17.3,53.7,26.9,303,34.5,853.4l11.5,776.7l82.5,180.3c155.3,339.4,147.7,230.1,147.7,1900.5v1486.3l-44.1,122.7c-86.3,239.7-218.6,395.1-425.8,496.7l-105.5,51.8l-934,5.7l-934,5.8l-5.8,631l-5.8,629l-57.5,82.5c-86.3,120.8-226.3,189.9-393.1,189.9C1058.9,4389.2,1014.8,4379.6,932.3,4335.5z M1275.6,4051.6c42.2-28.8,42.2-32.6,42.2-584.9v-554.2h-153.4H1011v554.2c0,552.3,0,556.2,42.2,584.9c23,17.3,72.9,30.7,111.2,30.7C1202.7,4082.3,1252.6,4068.9,1275.6,4051.6z M3481.1,2511.6c82.5-44.1,178.4-140,220.5-224.4c17.3-32.6,40.3-115.1,49.9-182.2c26.8-163,26.8-2683,1.9-2865.2c-11.5-74.8-46-189.9-78.6-258.9c-145.8-306.8-138.1-255.1-149.6-1112.3c-11.5-759.4-13.4-778.6-55.6-872.6c-51.8-115.1-140-211-237.8-260.8c-67.1-34.5-124.7-36.4-1148.8-36.4c-1052.9,0-1081.6,0-1162.2,40.3c-90.1,44.1-159.2,115.1-222.5,235.9c-40.3,76.7-42.2,101.6-53.7,864.9c-11.5,855.3-7.7,824.7-136.2,1108.5c-46,103.6-84.4,222.5-94,301.1C403-673.8,397.3-35.2,401.1,768.4l5.8,1386.6l44.1,97.8c24.9,53.7,76.7,128.5,115.1,164.9c143.8,138.1,44.1,128.5,1515.1,130.4C3352.6,2548.1,3412,2546.2,3481.1,2511.6z"/><path d="M704.1,1167.3V93.3h1380.8h1380.8v1074v1074H2084.9H704.1V1167.3z M3139.7,1167.3V419.3H2084.9H1030.1v747.9v747.9h1054.8h1054.8V1167.3z"/><path d="M809.6-248.1C669.6-315.2,589-445.6,589-606.7c0-157.3,76.7-285.8,214.8-356.7c57.5-30.7,113.1-36.4,299.2-36.4c276.2,0,362.5,34.5,452.6,178.3c115.1,187.9,69,420-107.4,542.7c-74.8,53.7-90.1,55.6-320.3,61.4C924.7-213.5,874.8-219.3,809.6-248.1z M1294.8-543.4c28.8-28.8,28.8-97.8,0-126.6c-13.4-13.4-84.4-23-187.9-23c-174.5,0-211,15.3-211,86.3c0,71,36.4,86.3,211,86.3C1210.4-520.4,1281.4-530,1294.8-543.4z"/><path d="M2784.9-240.4c-147.7-63.3-253.2-245.5-234-404.6c13.4-122.7,99.7-255.1,203.3-310.7c74.8-38.4,111.2-44.1,312.6-44.1c245.5,0,322.2,23,412.3,118.9c134.2,141.9,134.2,404.6,0,550.4c-82.5,90.1-176.4,117-416.2,115.1C2923-215.4,2821.4-225,2784.9-240.4z M3250.9-543.4c13.4-13.4,23-40.3,23-63.3c0-71-36.4-86.3-211-86.3s-211,15.3-211,86.3c0,71,36.4,86.3,211,86.3C3166.6-520.4,3237.5-530,3250.9-543.4z"/><path d="M1822.2-1086.1c-163-44.1-293.4-120.8-429.6-253.2c-508.2-490.9-379.7-1323.3,255.1-1634c295.3-145.7,579.2-145.7,876.4,0c514,253.2,711.5,864.9,448.8,1388.5c-61.4,120.8-291.5,349-420,416.2C2351.5-1061.2,2044.6-1026.7,1822.2-1086.1z M2382.2-1391.1c151.5-67.1,299.2-214.8,368.2-364.4c47.9-105.5,53.7-138.1,53.7-318.3c0-182.2-5.7-212.9-55.6-312.6c-69-141.9-209-281.9-351-352.9c-101.6-47.9-130.4-53.7-312.6-53.7c-182.2,0-211,5.7-312.6,53.7c-141.9,71-281.9,211-351,352.9c-49.9,99.7-55.6,130.4-55.6,312.6c0,180.3,5.8,212.9,53.7,316.4c90.1,191.8,255.1,335.6,464.1,406.6C2010.1-1310.5,2246-1327.8,2382.2-1391.1z"/><path d="M1910.4-1709.4c-214.8-113.2-285.8-372.1-159.2-569.6c161.1-245.5,506.3-245.5,667.4,0c130.4,201.4,51.8,464.1-174.5,577.3C2161.6-1659.6,1996.7-1663.4,1910.4-1709.4z M2163.5-2018.2c34.5-65.2-5.8-132.3-78.6-132.3c-42.2,0-63.3,11.5-78.6,46c-30.7,67.1,5.8,126.6,78.6,126.6C2123.3-1977.9,2148.2-1991.3,2163.5-2018.2z"/><path d="M6802.7,4358.5c-107.4-46-193.7-122.7-232-207.1c-32.6-71-36.4-134.2-36.4-692.3v-613.7l-95.9-34.5c-257-92.1-444.9-343.3-498.6-669.3c-24.9-155.3-24.9-2734.8,0-2926.5c11.5-82.5,47.9-211,88.2-306.8c36.4-92.1,82.5-201.4,99.7-243.6c26.9-65.2,32.6-195.6,42.2-863c11.5-847.7,11.5-845.7,122.8-1035.6c63.3-107.4,243.5-272.3,350.9-322.2c92.1-42.2,97.8-42.2,1261.9-42.2h1169.9l128.5,63.3c193.7,94,345.2,280,420,512.1c17.3,53.7,26.9,303,34.5,853.4l11.5,776.7l82.5,180.3c155.4,339.4,147.7,230.1,147.7,1900.5v1486.3l-44.1,122.7c-86.3,239.7-235.9,412.3-437.3,504.4c-94,44.1-103.6,44.1-1027.9,49.9l-934,5.8l-5.8,631l-5.8,629l-57.5,82.5c-86.3,120.8-228.2,189.9-391.2,189.9C6927.4,4387.3,6839.1,4373.8,6802.7,4358.5z M7105.7,4051.6c42.2-28.8,42.2-32.6,42.2-584.9v-554.2h-153.4h-153.4v554.2c0,552.3,0,556.2,42.2,584.9c23,17.3,72.9,30.7,111.2,30.7C7032.8,4082.3,7082.7,4068.9,7105.7,4051.6z M9311.2,2511.6c97.8-49.9,186-145.8,237.8-260.8l44.1-95.9l5.8-1371.2c5.7-1505.5,1.9-1599.4-94-1802.7c-145.8-306.8-138.1-255.1-149.6-1112.3c-11.5-759.4-13.4-778.6-55.6-872.6c-51.8-115.1-140-211-237.8-260.8c-67.1-34.5-124.6-36.4-1148.8-36.4c-1052.9,0-1081.6,0-1162.2,40.3c-95.9,46-168.8,126.6-224.4,247.4c-38.3,82.5-40.3,128.5-51.8,863c-11.5,845.7-7.7,815.1-136.2,1100.8c-53.7,118.9-82.5,216.7-95.9,316.4c-9.6,80.5-15.3,761.3-11.5,1517l5.8,1371.2l44.1,97.8c24.9,53.7,76.7,128.5,115.1,164.9c143.8,138.1,44.1,128.5,1515,130.4C9182.7,2548.1,9242.1,2546.2,9311.2,2511.6z"/><path d="M6534.2,1167.3V93.3H7915h1380.8v1074v1074H7915H6534.2V1167.3z M8969.8,1167.3V419.3H7915H6860.2v747.9v747.9H7915h1054.8V1167.3z"/><path d="M6639.7-248.1c-140-67.1-220.5-197.5-220.5-358.6c0-157.3,76.7-285.8,214.8-356.7c57.5-30.7,113.1-36.4,299.2-36.4c276.2,0,362.5,34.5,452.6,178.3c115.1,187.9,69,420-107.4,542.7c-74.8,53.7-90.1,55.6-320.3,61.4C6754.8-213.5,6704.9-219.3,6639.7-248.1z M7124.9-543.4c13.4-13.4,23-40.3,23-63.3c0-71-36.4-86.3-211-86.3s-211,15.3-211,86.3c0,71,36.4,86.3,211,86.3C7040.5-520.4,7111.5-530,7124.9-543.4z"/><path d="M8615-240.4c-147.7-63.3-253.2-245.5-234-404.6c13.4-122.7,99.7-255.1,203.3-310.7c74.8-38.4,111.2-44.1,312.6-44.1c245.5,0,322.2,23,412.3,118.9c134.3,141.9,134.3,404.6,0,550.4c-82.5,90.1-176.4,117-416.2,115.1C8753.1-215.4,8651.5-225,8615-240.4z M9081-543.4c13.4-13.4,23-40.3,23-63.3c0-71-36.4-86.3-211-86.3s-211,15.3-211,86.3c0,71,36.5,86.3,211,86.3C8996.7-520.4,9067.6-530,9081-543.4z"/><path d="M7652.3-1086.1c-161.1-44.1-283.8-115.1-423.8-249.3c-515.9-485.2-387.4-1325.2,249.3-1637.8c295.3-145.7,579.2-145.7,876.4,0c514,253.2,711.5,866.8,448.8,1388.5c-65.2,124.6-295.3,354.8-421.9,420C8170.1-1059.3,7872.8-1026.7,7652.3-1086.1z M8212.3-1391.1c151.5-67.1,299.2-214.8,368.2-364.4c47.9-105.5,53.7-138.1,53.7-318.3c0-182.2-5.8-212.9-55.6-312.6c-69-141.9-209-281.9-351-352.9c-101.6-47.9-130.4-53.7-312.6-53.7c-184.1,0-211,5.7-316.4,55.6c-141.9,70.9-278.1,207.1-349,351c-47.9,99.7-53.7,130.4-53.7,312.6c0,180.3,5.8,212.9,53.7,316.4c90.1,191.8,255.1,335.6,464.1,406.6C7840.2-1310.5,8076.1-1327.8,8212.3-1391.1z"/><path d="M7740.5-1709.4c-214.8-113.2-285.8-372.1-159.2-569.6c161.1-245.5,506.3-245.5,667.4,0c130.4,201.4,51.8,464.1-174.5,577.3C7991.7-1659.6,7826.8-1663.4,7740.5-1709.4z M7993.6-2018.2c34.6-65.2-5.7-132.3-78.6-132.3c-42.2,0-63.3,11.5-78.6,46c-30.7,67.1,5.7,126.6,78.6,126.6C7953.4-1977.9,7978.3-1991.3,7993.6-2018.2z"/><path d="M5306.8,4331.6c-88.2-88.2-67.1-172.6,71-293.4c44.1-40.3,82.5-82.5,82.5-92.1s-283.8-17.3-686.6-17.3h-688.5l-40.3-44.1c-42.2-44.1-53.7-115.1-30.7-176.4c30.7-80.6,88.2-86.3,786.3-86.3H5466l-107.4-113.1c-61.4-63.3-109.3-128.5-109.3-145.8c0-46,51.8-138.1,86.3-151.5c97.8-36.4,130.4-17.3,398.9,253.1c214.8,218.6,262.7,276.2,262.7,320.3c0,46-47.9,103.6-264.6,320.3c-230.1,230.1-272.3,264.7-326,264.7C5370.1,4370,5329.8,4354.7,5306.8,4331.6z"/><path d="M4267.4-3259c-345.2-343.3-343.3-310.7-28.8-631c253.1-260.8,312.6-301.1,400.8-270.4c55.6,19.2,111.2,99.7,111.2,159.2c0,17.3-47.9,82.5-109.3,145.7l-107.4,113.2h665.5c678.9,0,719.2,3.8,772.9,74.8c36.4,46,28.8,124.7-15.3,182.2l-38.3,49.9h-690.4c-377.8,0-688.5,5.8-688.5,13.4c0,7.7,44.1,59.5,99.7,115.1c74.8,76.7,97.8,113.1,97.8,159.2c0,78.6-71,153.4-147.7,153.4C4539.7-2994.3,4491.8-3034.6,4267.4-3259z"/></g></g>
</svg>