<?xml version="1.0" encoding="utf-8"?>
<!-- Svg Vector Icons : http://www.onlinewebfonts.com/icon -->
<!DOCTYPE svg PUBLIC "-//W3C//DTD SVG 1.1//EN" "http://www.w3.org/Graphics/SVG/1.1/DTD/svg11.dtd">
<svg version="1.1" xmlns="http://www.w3.org/2000/svg" xmlns:xlink="http://www.w3.org/1999/xlink" x="0px" y="0px" viewBox="0 0 1000 1000" enable-background="new 0 0 1000 1000" xml:space="preserve">
<metadata> Svg Vector Icons : http://www.onlinewebfonts.com/icon </metadata>
<g><g transform="translate(0.000000,511.000000) scale(0.100000,-0.100000)"><path d="M1776.8,5001.4c-30.6-5.1-74.1-30.6-97.1-56.2c-20.4-23-191.6-544.1-375.5-1154.6L969.6,2681.9l5.1-1277.2c2.5-1509.7-23-1392.2,311.7-1392.2c122.6,0,199.2-10.2,199.2-28.1c0-12.8-99.6-260.5-222.3-549.2L1038.6-1086H895.5c-171.1,0-296.3-38.3-329.5-102.2c-38.3-74.1-33.2-178.8,76.6-1532.7c122.6-1473.9,99.6-1387.1,367.8-1399.9l168.6-7.7v-242.7c0-242.7,20.4-327,99.6-385.7c30.7-25.5,866-30.7,3709.1-33.2c3573.7,0,3670.8,2.5,3729.6,48.5c56.2,43.4,61.3,74.1,74.1,327l12.8,275.9l155.8,7.7c275.9,12.8,250.4-86.8,383.2,1476.5c61.3,743.4,112.4,1364.1,112.4,1382c0,17.9-28.1,61.3-61.3,99.6c-53.6,63.9-81.7,71.5-260.5,84.3l-199.3,15.3l-224.8,523.7C8587.1-263.4,8484.9-18.2,8484.9-8c0,10.2,92,20.4,201.8,20.4c160.9,0,214.6,10.2,260.5,48.5l61.3,48.5l7.6,1261.9l7.7,1264.5l-321.9,1062.7c-176.3,585-319.3,1080.6-319.3,1101c0,23-33.2,76.6-74.1,122.6l-74.1,84.3l-3203.3,2.6C3271.2,5011.6,1804.9,5009,1776.8,5001.4z M8249.9,3721.6c143.1-475.1,260.6-873.6,260.6-881.3c0-20.4-7009.5-25.5-7030-5.1c-10.2,10.2,444.5,1568.5,500.7,1714.1c12.8,30.6,513.5,35.8,3011.8,35.8h2999L8249.9,3721.6z M8587.1,1412.3V433.9l-3594.2,5.1l-3596.7,5.1l-7.7,970.7l-5.1,973.3h3601.8h3601.8V1412.3z M8249.9-549.6l229.9-536.4H4992.9c-2212.2,0-3481.8,10.2-3476.6,25.5c5.1,12.8,104.7,252.9,224.8,533.9l217.1,513.5h3029.6H8020L8249.9-549.6z M8993.3-1640.3c0-69-35.8-559.4-81.7-1093.3l-81.7-970.7l-3839.4-7.7c-2110-2.6-3836.9-2.6-3836.9,0c0,5.1-40.9,485.3-89.4,1067.8c-48.5,582.4-89.4,1075.4-89.4,1093.3c0,23,820,30.7,4010.6,30.7h4010.5L8993.3-1640.3z M8382.8-4253.6v-102.2H4998.1H1613.3v102.2v102.2h3384.7h3384.7V-4253.6z"/><path d="M4244.5,1966.6v-217.1h638.6h638.6v217.1v217.1h-638.6h-638.6V1966.6z"/><path d="M4244.5-2184.4v-204.4h638.6h638.6v204.4v204.4h-638.6h-638.6V-2184.4z"/></g></g>
</svg>