<?xml version="1.0" encoding="utf-8"?>
<!-- Svg Vector Icons : http://www.onlinewebfonts.com/icon -->
<!DOCTYPE svg PUBLIC "-//W3C//DTD SVG 1.1//EN" "http://www.w3.org/Graphics/SVG/1.1/DTD/svg11.dtd">
<svg version="1.1" xmlns="http://www.w3.org/2000/svg" xmlns:xlink="http://www.w3.org/1999/xlink" x="0px" y="0px" viewBox="0 0 1000 1000" enable-background="new 0 0 1000 1000" xml:space="preserve">
<metadata> Svg Vector Icons : http://www.onlinewebfonts.com/icon </metadata>
<g><g transform="translate(0.000000,511.000000) scale(0.100000,-0.100000)"><path d="M324.2,4783.1c-43.4-43.4-76-138.4-119.4-333.8c-358.2-1687.8,217.1-3486.8,1489.7-4659c336.5-312.1,670.2-540,1096.2-751.6c583.4-290.3,1174.9-461.3,1763.8-510.1l244.2-19l8.1-214.3c8.1-195.4,2.7-211.7-40.7-192.7c-27.1,10.8-116.7,40.7-198.1,62.4c-390.7,103.1-900.9-154.6-1098.9-561.7c-92.3-184.5-122.1-477.6-67.8-670.3c84.1-301.2,388-640.4,1031.1-1153.2c493.9-390.7,512.8-404.3,599.7-404.3c97.7,0,822.2,575.3,1177.6,933.4c417.9,420.6,534.6,716.4,436.9,1101.7c-119.4,461.3-510.1,765.2-993.1,767.9c-130.2,2.7-238.8-13.6-303.9-43.4l-103.1-43.4v211.6v211.7l238.8,16.3c130.3,10.9,379.9,48.9,553.6,84.1C7951.7-983,9406.1,490.4,9824,2454.9c67.8,314.8,73.3,393.5,76,966c0,548.1-8.1,662.1-62.4,933.4c-65.1,325.6-95,401.6-165.5,455.9c-113.9,86.8-328.3-10.9-328.3-149.2c0-40.7,24.4-189.9,54.3-331c301.2-1457.1-111.2-2919.7-1117.9-3975.2C7609.8-345.4,6839.2-779.5,5878.6-993.9c-230.6-51.6-347.3-59.7-862.9-59.7c-515.6,0-635,8.1-871,59.7c-2121.9,461.3-3617,2263-3619.8,4366c0,325.6,57,824.9,122.1,1066.4c54.3,206.2,51.6,263.2-27.1,339.2C535.8,4864.5,408.3,4867.2,324.2,4783.1z M4581.6-2288.2c59.7-27.1,165.5-100.4,236.1-162.8c173.7-154.7,244.2-149.2,445,24.4c176.4,154.7,303.9,200.8,496.6,173.6c276.8-35.2,445-206.2,480.3-491.1c35.3-293.1-146.5-534.5-800.5-1055.5c-360.9-290.4-426-331.1-461.3-298.5c-24.4,19-195.4,157.4-382.6,306.6c-597,480.3-786.9,719.1-786.9,990.4c2.7,265.9,141.1,464,371.8,526.4C4361.8-2225.8,4456.8-2228.5,4581.6-2288.2z"/></g></g>
</svg>