<?xml version="1.0" encoding="utf-8"?>
<!-- Svg Vector Icons : http://www.onlinewebfonts.com/icon -->
<!DOCTYPE svg PUBLIC "-//W3C//DTD SVG 1.1//EN" "http://www.w3.org/Graphics/SVG/1.1/DTD/svg11.dtd">
<svg version="1.1" xmlns="http://www.w3.org/2000/svg" xmlns:xlink="http://www.w3.org/1999/xlink" x="0px" y="0px" viewBox="0 0 1000 1000" enable-background="new 0 0 1000 1000" xml:space="preserve">
<metadata> Svg Vector Icons : http://www.onlinewebfonts.com/icon </metadata>
<g><g><path d="M777.1,225.7c-2.7-4.5-61.4-87.5-181.4-119.1V49.7h58.7c10.8,0,19.9-9,19.9-19.9s-9-19.9-19.9-19.9H342.2c-10.8,0-19.9,9-19.9,19.9s9,19.9,19.9,19.9h58.7v56.9C281.7,138.1,225.8,221.2,223,225.7c-5.4,9-3.6,20.8,5.4,27.1c9,6.3,20.8,3.6,27.1-5.4c0.9-1.8,10.8-15.3,28-32.5V898l-58.7,58.7c-7.2,7.2-7.2,19.9,0,28c3.6,3.6,9,5.4,13.5,5.4c4.5,0,9.9-1.8,13.5-5.4l58.7-58.7h368.2l58.7,58.7c3.6,3.6,9,5.4,13.5,5.4c4.5,0,9.9-1.8,13.5-5.4c7.2-7.2,7.2-19.9,0-28l-52.3-52.3V212.1c20.8,19,31.6,33.4,32.5,35.2c3.6,5.4,9.9,8.1,16.2,8.1c3.6,0,7.2-0.9,10.8-3.6C780.7,246.4,783.4,234.7,777.1,225.7z M439.6,48.8h117.3v49.6c-18-2.7-37.9-4.5-58.7-4.5c-20.8,0-39.7,1.8-58.7,4.5V48.8L439.6,48.8z M673.3,887.1H323.2V574.9h351v312.2L673.3,887.1L673.3,887.1z M673.3,536.1H323.2v-77.6h351v77.6H673.3z M323.2,418.8V183.3c39.7-26.2,97.5-51.4,175.1-51.4c76.7,0,134.5,23.5,175.1,49.6v236.4H323.2V418.8z"/></g><g></g><g></g><g></g><g></g><g></g><g></g><g></g><g></g><g></g><g></g><g></g><g></g><g></g><g></g><g></g></g>
</svg>