<?xml version="1.0" encoding="utf-8"?>
<!-- Svg Vector Icons : http://www.onlinewebfonts.com/icon -->
<!DOCTYPE svg PUBLIC "-//W3C//DTD SVG 1.1//EN" "http://www.w3.org/Graphics/SVG/1.1/DTD/svg11.dtd">
<svg version="1.1" xmlns="http://www.w3.org/2000/svg" xmlns:xlink="http://www.w3.org/1999/xlink" x="0px" y="0px" viewBox="0 0 1000 1000" enable-background="new 0 0 1000 1000" xml:space="preserve">
<metadata> Svg Vector Icons : http://www.onlinewebfonts.com/icon </metadata>
<g><g transform="translate(0.000000,511.000000) scale(0.100000,-0.100000)"><path d="M1545.9,3375.9c-52.6-55.9-98.7-134.8-98.7-174.3c0-49.3,131.6-207.2,417.7-496.6c368.4-371.6,430.8-421,526.2-421c141.4,0,240.1,98.7,240.1,240.1c0,92.1-52.6,157.9-401.3,506.5C1766.3,3491,1697.2,3523.9,1545.9,3375.9z"/><path d="M8222.5,3445c-26.3-9.9-230.2-197.3-450.6-414.4c-351.9-348.6-404.5-414.4-404.5-506.5c0-141.4,98.7-240.1,240.1-240.1c95.4,0,157.9,49.3,526.2,421c286.2,289.4,417.7,447.3,417.7,496.6c0,82.2-167.7,266.4-236.8,263.1C8291.6,3464.7,8248.8,3454.9,8222.5,3445z"/><path d="M4614.5,2580c-924.2-134.8-1756.3-782.8-2101.6-1637.9C2332,494.8,2325.4,429,2309-699.1l-13.2-1062.3h-138.1c-95.4,0-171-23-230.2-69.1c-85.5-65.8-85.5-72.4-85.5-476.9v-407.8h-233.5c-233.5,0-342-32.9-414.4-128.3c-82.2-108.6-23-299.3,111.8-361.8c111.8-52.6,7275.2-52.6,7390.3,0c115.1,52.6,171,200.6,121.7,322.3c-52.6,125-161.1,167.7-430.8,167.7h-230.2v407.8c0,404.5,0,411.1-85.5,476.9c-59.2,46-134.9,69.1-230.2,69.1h-138.1l-13.2,1062.3c-16.4,1128.1-23,1193.9-203.9,1641.2c-131.6,328.9-289.4,555.8-578.8,851.8C6295.2,2415.5,5459.8,2701.7,4614.5,2580z M5519,2037.3c391.4-92.1,684.1-263.1,1009.7-592c230.2-230.2,325.6-351.9,417.7-542.7c217.1-444,230.2-529.5,246.7-1651.1l16.4-1013H4999.3H2789.1l16.4,1013c16.4,1121.5,29.6,1207.1,246.7,1651.1c92.1,190.8,187.5,312.5,417.7,542.7c322.3,325.6,611.7,496.6,986.7,588.7C4716.5,2096.5,5259.1,2096.5,5519,2037.3z M7663.4-2501.5v-213.8h-2664H2335.3v213.8v213.8h2664.1h2664V-2501.5z"/><path d="M4581.6,1645.9C3940.3,1491.3,3391,925.6,3259.5,284.3c-85.5-417.7-19.7-611.7,210.5-611.7c164.4,0,230.2,85.5,256.5,335.4c32.9,305.9,138.1,542.7,335.5,756.5c220.4,236.8,453.9,358.5,802.5,414.4c289.4,46,348.6,78.9,378.2,200.6c23,95.4-49.3,263.1-128.3,292.7C5028.9,1705.1,4769.1,1692,4581.6,1645.9z"/><path d="M171.1,2011c-95.4-102-95.4-256.6,3.3-342.1c39.5-36.2,368.4-187.5,733.4-335.5c700.5-286.1,782.8-302.6,884.7-157.9c62.5,88.8,62.5,217.1,3.3,296c-55.9,72.4-1348.5,615-1466.9,615C279.7,2086.6,210.6,2053.8,171.1,2011z"/><path d="M8903.3,1807.1c-358.5-151.3-674.2-302.6-697.3-335.5c-62.5-78.9-62.5-207.2,0-296c102-144.7,184.2-128.3,884.7,157.9c365.1,148,694,299.3,736.7,335.5c157.9,144.7,39.5,421-177.6,414.4C9597.3,2083.3,9261.8,1958.4,8903.3,1807.1z"/><path d="M223.7,129.7C59.3,37.6,65.9-222.2,230.3-304.4c55.9-29.6,253.3-42.8,611.8-42.8c486.8,0,536.1,6.6,618.3,69.1c111.8,88.8,121.7,282.8,16.4,378.2c-62.5,55.9-131.6,62.5-618.3,69.1C421.1,175.8,296.1,169.2,223.7,129.7z"/><path d="M8617.2,156C8433,87,8386.9-159.7,8538.2-278.1c82.2-62.5,131.6-69.1,618.3-69.1c575.6,0,670.9,23,723.6,167.8c42.7,128.3,0,253.2-111.8,309.1c-72.4,39.5-210.5,49.3-598.6,46C8893.5,175.8,8643.5,165.9,8617.2,156z"/></g></g>
</svg>