<?xml version="1.0" encoding="utf-8"?>
<!-- Svg Vector Icons : http://www.onlinewebfonts.com/icon -->
<!DOCTYPE svg PUBLIC "-//W3C//DTD SVG 1.1//EN" "http://www.w3.org/Graphics/SVG/1.1/DTD/svg11.dtd">
<svg version="1.1" xmlns="http://www.w3.org/2000/svg" xmlns:xlink="http://www.w3.org/1999/xlink" x="0px" y="0px" viewBox="0 0 1000 1000" enable-background="new 0 0 1000 1000" xml:space="preserve">
<metadata> Svg Vector Icons : http://www.onlinewebfonts.com/icon </metadata>
<g><g transform="translate(0.000000,386.000000) scale(0.100000,-0.100000)"><path d="M161.6,2567.1c-48.6-40.8-54.5-62.2-60.3-188.7c-19.4-404.6,178.9-735.2,544.6-910.2c163.4-75.8,371.5-138.1,470.7-138.1c50.6,0,54.5-3.9,44.7-62.2c-60.3-352-75.9-552.4-66.1-881.1c9.7-363.7,37-548.5,120.6-857.7c140-515.4,408.4-921.9,713.8-1081.4l122.5-64.2l1804.9-5.8l1803-3.9v-1093.1c0-785.8,5.8-1112.5,23.3-1167c29.2-101.1,169.2-254.8,274.2-305.4c72-35,120.6-40.8,350.1-40.8c245.1,0,276.2,3.9,359.8,46.7c93.4,48.6,167.3,116.7,227.6,212l33.1,52.5h832.4h834.4l5.8-295.6c3.9-241.2,13.6-311.2,40.8-369.5c52.5-105,161.4-208.1,274.2-260.6c87.5-40.9,128.4-46.7,332.6-46.7c206.2,0,245.1,5.8,330.6,46.7c118.6,56.4,227.6,167.3,280.1,284c38.9,85.6,40.8,122.5,40.8,1382.9v1295.4l-60.3,118.6c-62.2,124.5-157.6,215.9-278.1,266.5c-107,44.7-540.7,38.9-643.8-7.8c-108.9-48.6-196.4-128.4-258.7-233.4c-50.6-87.5-52.5-97.2-62.2-478.5l-9.7-389l-811-3.9l-813-1.9v507.6v509.6l130.3,68.1c387,200.3,680.7,717.7,795.5,1410.1c42.8,245.1,48.6,896.6,11.7,1147.5c-108.9,744.9-412.3,1293.4-834.4,1501.5l-149.8,73.9l-3349.2,5.8l-3351.1,3.9L161.6,2567.1z M6937.8,2236.4c367.6-171.2,595.1-665.2,659.3-1425.7l13.6-161.4H5940.1H4269.4l-301.5,303.4c-165.3,165.3-324.8,315.1-354,330.6c-42.8,21.4-171.2,27.2-671,27.2h-620.4l-36.9,62.2c-19.4,33.1-93.4,118.6-163.4,186.7c-217.8,213.9-507.6,414.3-918,634.1l-163.4,89.5h2898h2898L6937.8,2236.4z M846.2,2012.8c484.3-241.2,470.7-231.5,439.6-311.2c-31.1-70-58.3-73.9-264.5-31.1c-262.6,56.4-441.5,177-527.1,355.9c-40.8,87.5-66.1,178.9-50.6,178.9C451.4,2205.3,632.3,2117.8,846.2,2012.8z M1725.3,1472.1c62.2-48.6,116.7-93.4,120.6-95.3c3.9-3.9-11.7-70-33.1-147.8C1667,733,1744.8,128.1,1995.7-179.2c81.7-101.1,182.8-151.7,270.4-136.1c83.6,15.6,225.6,151.7,287.8,276.2c114.8,227.6,182.8,606.8,159.5,875.2L2699.8,980h155.6H3011l15.6-130.3c23.3-219.8-5.8-809.1-48.6-1025c-83.6-412.3-225.6-733.3-408.4-931.6c-124.5-134.2-225.6-188.7-352-188.7c-361.8,0-690.5,558.2-778,1320.6c-35,291.7-15.6,912.2,35,1143.6c54.5,247,99.2,394.8,120.6,394.8C1604.8,1563.5,1663.1,1522.6,1725.3,1472.1z M2260.2,983.9l110.8-7.8l13.6-126.4c15.6-147.8-1.9-367.6-40.8-515.4c-38.9-153.6-105-297.6-126.4-276.2c-9.7,9.7-38.9,75.8-66.1,147.8c-66.1,177-99.2,429.8-79.7,643.8c11.7,149.8,17.5,169.2,44.7,157.5C2135.7,999.5,2199.9,987.8,2260.2,983.9z M3792.8,659.1l320.9-320.9h1748.5h1748.5l-13.6-159.5c-62.2-748.8-282-1237-637.9-1415.9l-118.6-58.3H4829.5H2818.4l68.1,87.5c165.3,217.8,342.3,653.5,424,1036.7c31.1,147.8,40.8,291.7,48.6,671l9.7,480.4h52.5C3462.2,980,3540,911.9,3792.8,659.1z M6632.5-2723.2c0-1050.3-1.9-1098.9-37-1141.7c-35-44.7-48.6-46.7-280.1-46.7c-212,0-249,3.9-284,37c-40.8,36.9-40.8,42.8-40.8,1143.6v1104.7h320.9h320.9V-2723.2z M9530.5-1840.2c38.9-38.9,38.9-64.2,38.9-1332.3v-1295.3l-48.6-46.7c-44.7-46.7-58.3-48.6-278.1-48.6c-204.2,0-235.4,3.9-272.3,38.9l-42.8,40.8v1301.2c0,1277.8,0,1303.1,38.9,1342c35,35,64.2,38.9,282,38.9S9495.4-1805.2,9530.5-1840.2z M8593-3263.9l3.9-326.7H7780h-816.9v330.6v330.6l813-3.9l811-5.8L8593-3263.9z"/></g></g>
</svg>