<?xml version="1.0" encoding="utf-8"?>
<!-- Svg Vector Icons : http://www.onlinewebfonts.com/icon -->
<!DOCTYPE svg PUBLIC "-//W3C//DTD SVG 1.1//EN" "http://www.w3.org/Graphics/SVG/1.1/DTD/svg11.dtd">
<svg version="1.1" xmlns="http://www.w3.org/2000/svg" xmlns:xlink="http://www.w3.org/1999/xlink" x="0px" y="0px" viewBox="0 0 1000 1000" enable-background="new 0 0 1000 1000" xml:space="preserve">
<metadata> Svg Vector Icons : http://www.onlinewebfonts.com/icon </metadata>
<g><g transform="translate(0.000000,511.000000) scale(0.100000,-0.100000)"><path d="M257,3439.6c-63.2-28.7-90-55.5-118.7-118.7c-34.4-74.6-38.3-128.2-38.3-627.8c0-604.8,9.6-681.4,118.7-884.3c72.7-135.9,245-300.5,384.7-367.5l103.4-47.9l11.5-426.8C729.7,507.2,760.4,268,844.6-72.7c187.6-738.8,526.4-1347.5,1054.6-1891.1c336.9-348.4,679.5-604.8,1083.4-811.6c1546.6-794.3,3479.8-593.4,4783.2,495.7C8376.4-1770.5,8810.9-1135,9059.7-388.5c160.8,482.3,227.8,920.7,227.8,1487.2v290.9l105.3,51.7c143.6,67,315.8,229.7,388.6,367.5c109.1,202.9,118.7,279.5,118.7,884.3c0,495.7-3.8,553.2-36.4,625.9c-26.8,57.4-59.3,91.9-114.8,118.7l-76.6,40.2H5005.7C425.4,3477.9,337.3,3476,257,3439.6z M9287.5,2524.7c0-313.9-3.8-346.4-42.1-424.9c-86.1-168.4,348.4-153.1-4247.3-153.1H928.8l-63.2,44c-137.8,91.9-143.6,111-149.3,513l-5.7,361.8h4287.5h4289.4V2524.7z M8675,1075.7c0-522.5-84.2-1003-250.7-1422.1c-472.8-1192.5-1496.8-2017.4-2783.1-2245.2c-356-63.2-926.4-63.2-1282.4,0c-754.1,134-1416.4,467-1944.7,980C1700.2-914.9,1325,7.7,1325,1070v264.1h3675h3675V1075.7z"/><path d="M4709.1-279.4c-635.5-222-834.5-1001-382.8-1491.1c187.6-202.9,386.6-287.1,673.8-287.1c281.4,0,480.4,82.3,664.2,275.6c373.2,396.2,325.4,1031.7-103.4,1359c-170.3,128.3-300.5,172.3-532.1,181.8C4866-235.4,4818.2-241.2,4709.1-279.4z M5174.2-891.9c245-162.7,122.5-557-174.2-557s-419.2,394.3-174.2,557c47.9,32.5,91.9,44,174.2,44C5082.3-847.9,5126.3-859.4,5174.2-891.9z"/></g></g>
</svg>