<?xml version="1.0" encoding="utf-8"?>
<!-- Svg Vector Icons : http://www.onlinewebfonts.com/icon -->
<!DOCTYPE svg PUBLIC "-//W3C//DTD SVG 1.1//EN" "http://www.w3.org/Graphics/SVG/1.1/DTD/svg11.dtd">
<svg version="1.1" xmlns="http://www.w3.org/2000/svg" xmlns:xlink="http://www.w3.org/1999/xlink" x="0px" y="0px" viewBox="0 0 1000 1000" enable-background="new 0 0 1000 1000" xml:space="preserve">
<metadata> Svg Vector Icons : http://www.onlinewebfonts.com/icon </metadata>
<g><path d="M10,10v980h980V10H10z M276,945.2H54.8V54.8H276V945.2z M945.2,945.2H320.8V54.8h624.4V945.2z"/><path d="M858.2,100.1H456.6v223.2h401.5V100.1z M813.3,278.5H501.4V144.9h311.9V278.5z"/><path d="M479.1,590.6c0,24.6,20,44.6,44.6,44.6c24.6,0,44.6-20,44.6-44.6c0-24.6-20-44.6-44.6-44.6C499,546,479.1,566,479.1,590.6z"/><path d="M611.4,590.6c0,24.6,20,44.6,44.6,44.6c24.6,0,44.6-20,44.6-44.6c0-24.6-20-44.6-44.6-44.6C631.4,546,611.4,566,611.4,590.6z"/><path d="M746.6,590.6c0,24.6,20,44.6,44.6,44.6c24.6,0,44.6-20,44.6-44.6c0-24.6-20-44.6-44.6-44.6C766.6,546,746.6,566,746.6,590.6z"/><path d="M479.1,458.4c0,24.6,20,44.6,44.6,44.6c24.6,0,44.6-20,44.6-44.6s-20-44.6-44.6-44.6C499,413.8,479.1,433.8,479.1,458.4z"/><path d="M611.4,458.4c0,24.6,20,44.6,44.6,44.6c24.6,0,44.6-20,44.6-44.6s-20-44.6-44.6-44.6C631.4,413.8,611.4,433.8,611.4,458.4z"/><path d="M746.6,458.4c0,24.6,20,44.6,44.6,44.6c24.6,0,44.6-20,44.6-44.6s-20-44.6-44.6-44.6C766.6,413.8,746.6,433.8,746.6,458.4z"/><path d="M479.1,724.3c0,24.6,20,44.6,44.6,44.6c24.6,0,44.6-20,44.6-44.6c0-24.6-20-44.6-44.6-44.6C499,679.8,479.1,699.7,479.1,724.3z"/><path d="M611.4,724.3c0,24.6,20,44.6,44.6,44.6c24.6,0,44.6-20,44.6-44.6c0-24.6-20-44.6-44.6-44.6C631.4,679.8,611.4,699.7,611.4,724.3z"/><path d="M746.6,724.3c0,24.6,20,44.6,44.6,44.6c24.6,0,44.6-20,44.6-44.6c0-24.6-20-44.6-44.6-44.6C766.6,679.8,746.6,699.7,746.6,724.3z"/><path d="M479.1,859.5c0,24.6,20,44.6,44.6,44.6c24.6,0,44.6-20,44.6-44.6c0-24.6-20-44.6-44.6-44.6C499,814.9,479.1,834.9,479.1,859.5z"/><path d="M611.4,859.5c0,24.6,20,44.6,44.6,44.6c24.6,0,44.6-20,44.6-44.6c0-24.6-20-44.6-44.6-44.6C631.4,814.9,611.4,834.9,611.4,859.5L611.4,859.5z"/><path d="M746.6,859.5c0,24.6,20,44.6,44.6,44.6c24.6,0,44.6-20,44.6-44.6c0-24.6-20-44.6-44.6-44.6C766.6,814.9,746.6,834.9,746.6,859.5L746.6,859.5z"/></g>
</svg>