<?xml version="1.0" encoding="utf-8"?>
<!-- Svg Vector Icons : http://www.onlinewebfonts.com/icon -->
<!DOCTYPE svg PUBLIC "-//W3C//DTD SVG 1.1//EN" "http://www.w3.org/Graphics/SVG/1.1/DTD/svg11.dtd">
<svg version="1.1" xmlns="http://www.w3.org/2000/svg" xmlns:xlink="http://www.w3.org/1999/xlink" x="0px" y="0px" viewBox="0 0 1000 1000" enable-background="new 0 0 1000 1000" xml:space="preserve">
<metadata> Svg Vector Icons : http://www.onlinewebfonts.com/icon </metadata>
<g><g transform="translate(0.000000,512.000000) scale(0.100000,-0.100000)"><path d="M3475.4,4993.2c-90-49.8-95.7-86.1-97.6-581.9c0-505.3,7.7-549.3,105.3-593.4c26.8-13.4,95.7-23,153.1-23h105.3v-493.8v-493.8l-99.5-42.1c-298.6-124.4-735-511.1-891.9-792.4c-101.5-178-168.4-363.7-195.2-541.7c-13.4-91.9-19.1-1025.9-15.3-2966.8l5.7-2832.8l40.2-88c57.4-124.4,155-227.8,266.1-277.5l95.7-45.9h1416.4c1347.5,0,1420.2,1.9,1496.8,36.4c112.9,51.7,227.8,178,273.7,300.5c38.3,103.4,38.3,130.2,38.3,2970.6c0,3135.2,5.7,2976.4-114.8,3263.5c-157,375.2-560.8,779-970.4,968.5c-55.5,26.8-101.4,53.6-101.4,63.2c0,7.7,176.1,15.3,392.4,15.3c298.6,0,394.3-5.7,400-23c26.8-103.4,45.9-139.7,88-170.3c38.3-28.7,342.6-78.5,1512.1-245c1320.7-189.5,1468.1-206.7,1523.6-183.8c124.4,51.7,122.5,40.2,122.5,1100.6c0,669.9-5.7,972.3-21,1001c-36.4,70.8-99.5,109.1-183.8,109.1c-112.9,0-2855.8-379-2918.9-403.9c-65.1-26.8-111-95.7-111-170.4V3795h-281.4c-260.3,1.9-279.5,3.8-231.6,30.6c28.7,15.3,61.3,42.1,70.8,61.2c28.7,53.6,32.5,981.9,3.8,1033.6c-51.7,97.6-68.9,99.5-981.9,99.5C3703.2,5018.1,3511.8,5012.3,3475.4,4993.2z M4966.5,4407.5V4197h-134c-120.6,0-139.7-5.7-195.2-55.5l-63.2-55.5l-5.7-252.7c-7.7-292.9-3.8-321.6,65.1-388.6l51.7-51.7h541.7h543.6v-76.6v-76.6h-535.9h-535.9l-61.3-55.5l-63.2-55.5l-5.7-269.9l-7.7-269.9l67-67c38.3-38.3,86.1-67,111-67c74.6-1.9,290.9-103.4,447.9-210.5c248.8-174.2,440.2-419.2,532.1-689.1l42.1-124.4l5.7-2874.9c3.8-2608.9,1.9-2876.8-26.8-2903.6c-26.8-28.7-166.5-30.6-1391.5-26.8l-1360.9,5.7l-24.9,47.9c-19.1,38.3-23,606.8-19.1,2880.7c5.7,2664.4,7.7,2840.5,40.2,2947.7c126.3,421.1,518.7,807.7,947.5,936c143.6,42.1,187.6,76.6,210.6,158.9c26.8,95.7,26.8,1349.4,1.9,1445.1c-30.6,109.1-95.7,149.3-241.2,149.3h-122.5v210.5V4618h593.4h593.4V4407.5z M8622.4,3316.5c0-625.9-1.9-669.9-32.5-669.9c-19.1-1.9-566.6,74.6-1215.4,166.5l-1182.9,168.4v338.8c0,187.6,1.9,340.7,5.7,340.7c162.7,28.7,2304.5,321.6,2354.3,323.5l70.8,1.9V3316.5z"/><path d="M2401.7,3383.5c-444.1-91.9-784.8-333-955.1-681.4c-155-319.6-143.6-134-151.2-2499.8l-5.7-2111.2l-53.6-26.8c-63.2-34.4-178-156.9-225.9-245c-28.7-53.6-34.5-109.1-34.5-350.3c0-277.5,1.9-290.9,51.7-375.2c193.3-331.1,574.2-384.7,832.6-118.7c118.7,124.4,158.9,248.8,158.9,499.6c-1.9,289-65.1,436.4-243.1,562.7l-82.3,59.3V102.8c0,2187.8-1.9,2159.1,109.1,2384.9c105.3,214.4,313.9,388.5,558.9,467c103.4,34.5,189.5,42.1,461.3,49.8c357.9,7.7,407.7,19.1,451.7,105.3c45.9,90,34.4,164.6-38.3,237.3l-65.1,65.1l-321.6-1.9C2662,3410.3,2474.4,3396.9,2401.7,3383.5z M1593.9-2519.5c5.7-264.1,3.8-269.9-114.8-269.9c-95.7,0-111,34.4-111,258.4c0,237.4,13.4,262.2,130.2,254.6l90-5.7L1593.9-2519.5z"/></g></g>
</svg>