<?xml version="1.0" encoding="utf-8"?>
<!-- Svg Vector Icons : http://www.onlinewebfonts.com/icon -->
<!DOCTYPE svg PUBLIC "-//W3C//DTD SVG 1.1//EN" "http://www.w3.org/Graphics/SVG/1.1/DTD/svg11.dtd">
<svg version="1.1" xmlns="http://www.w3.org/2000/svg" xmlns:xlink="http://www.w3.org/1999/xlink" x="0px" y="0px" viewBox="0 0 1000 1000" enable-background="new 0 0 1000 1000" xml:space="preserve">
<metadata> Svg Vector Icons : http://www.onlinewebfonts.com/icon </metadata>
<g><path d="M149.7,608.1c0,4-3.4,7.3-7.6,7.3l0,0c-4.2,0-7.6-3.3-7.6-7.3V508c0-4.1,3.4-7.4,7.6-7.4l0,0c4.2,0,7.6,3.3,7.6,7.4V608.1z"/><path d="M866,599.5c0,4-3.4,7.4-7.6,7.4l0,0c-4.1,0-7.6-3.3-7.6-7.4V499.3c0-4.1,3.5-7.3,7.6-7.3l0,0c4.2,0,7.6,3.2,7.6,7.3V599.5z"/><path d="M533.4,96.3v807.3h293.5V96.3H533.4z M796.9,875.5h-234V123.2h234V875.5z"/><path d="M176.3,96.3v807.3h293.5V96.3H176.3z M439.8,875.5h-234V123.2h234V875.5z"/><path d="M71.3,10v980h857.5V10H71.3z M895.2,957.7L103.8,959l-0.4-917.6h791.8L895.2,957.7z"/></g>
</svg>