<?xml version="1.0" encoding="utf-8"?>
<!-- Svg Vector Icons : http://www.onlinewebfonts.com/icon -->
<!DOCTYPE svg PUBLIC "-//W3C//DTD SVG 1.1//EN" "http://www.w3.org/Graphics/SVG/1.1/DTD/svg11.dtd">
<svg version="1.1" xmlns="http://www.w3.org/2000/svg" xmlns:xlink="http://www.w3.org/1999/xlink" x="0px" y="0px" viewBox="0 0 1000 1000" enable-background="new 0 0 1000 1000" xml:space="preserve">
<metadata> Svg Vector Icons : http://www.onlinewebfonts.com/icon </metadata>
<g><g transform="translate(0.000000,511.000000) scale(0.100000,-0.100000)"><path d="M1604.3,3849.7c-107.8-44.1-132.3-115.2-132.3-396.9v-264.6H847.3H220l-58.8-61.3l-61.2-58.8V-229.6v-3297.7l61.2-58.8l58.8-61.3h4780h4779.9l58.8,61.3l61.3,58.8v3297.7v3297.7l-61.3,58.8l-58.8,61.3h-823.2H8136v267.1c0,249.9-4.9,274.4-58.8,338.1l-58.8,68.6l-3182.6,4.9C3074.3,3869.3,1631.2,3861.9,1604.3,3849.7z M7744,3335.2v-147H4804H1864v147v147h2940h2940V3335.2z M9508-229.6v-3025.8H5000H492v3025.8v3025.7h4508h4508V-229.6z"/><path d="M6396.5,2340.5c-210.7-90.6-350.4-306.3-352.8-536.5c0-276.8,159.2-490,423.9-568.4c426.3-122.5,825.6,284.2,700.7,715.4c-46.6,161.7-176.4,318.5-318.5,382.2C6729.7,2389.5,6514.1,2391.9,6396.5,2340.5z M6737.1,1946c26.9-24.5,58.8-78.4,66.1-122.5c12.3-66.1,2.5-90.6-58.8-154.3c-41.7-39.2-98-73.5-127.4-73.5s-85.8,34.3-127.4,73.5c-61.3,63.7-71,88.2-58.8,154.3c17.1,95.6,95.5,164.2,186.2,164.2C6653.7,1987.7,6707.7,1968.1,6737.1,1946z"/><path d="M2224.2,1914.2c-744.8-237.7-994.7-1176-468-1739.5L1864,59.5v-943.3c0-1073.1,4.9-1109.8,176.4-1305.8c139.6-159.2,303.8-232.8,509.6-230.3c88.2,0,193.5,14.7,237.7,29.4c147,53.9,286.6,176.4,362.6,313.6l73.5,132.3l7.3,1002L3238.5,62l110.2,117.6c347.9,372.4,365,957.9,36.8,1389.1c-100.5,132.3-333.2,291.6-509.6,345.5C2675,1975.4,2415.2,1975.4,2224.2,1914.2z M2819.5,1519.7c240.1-107.8,416.5-370,416.5-619.9c0-208.2-66.2-355.2-227.8-512l-151.9-147L2844-822.5l-12.3-1065.7l-80.8-71.1c-63.7-56.3-100.4-71-196-71c-66.2,0-139.7,17.2-171.5,39.2c-125,88.2-127.4,102.9-127.4,1198.1V226.1l-156.8,154.3c-132.3,127.4-166.6,178.9-200.9,296.5c-100.4,350.3,53.9,695.8,382.2,842.8C2430,1588.3,2670,1588.3,2819.5,1519.7z"/><path d="M4495.3,934.2C4367.9,882.7,4363,853.3,4363,93.8v-705.6l61.3-61.3l58.8-58.8l2148.6,4.9l2146.2,7.3l46.5,58.8c44.1,53.9,46.6,105.4,46.6,764.4v705.6l-58.8,68.6l-58.8,68.6l-2104.6,4.9C5492.4,953.8,4522.3,946.4,4495.3,934.2z M8479,113.4v-453.2H6617H4755v453.2v453.3h1862h1862V113.4z"/><path d="M4559-1417.8v-294h294h294v294v294h-294h-294V-1417.8z"/><path d="M5735-1417.8v-294h294h294v294v294h-294h-294V-1417.8z"/><path d="M6911-1417.8v-294h294h294v294v294h-294h-294V-1417.8z"/><path d="M8087-1417.8v-294h294h294v294v294h-294h-294V-1417.8z"/><path d="M4559-2593.8v-294h294h294v294v294h-294h-294V-2593.8z"/><path d="M5735-2593.8v-294h294h294v294v294h-294h-294V-2593.8z"/><path d="M6911-2593.8v-294h294h294v294v294h-294h-294V-2593.8z"/><path d="M8087-2593.8v-294h294h294v294v294h-294h-294V-2593.8z"/></g></g>
</svg>