<?xml version="1.0" encoding="utf-8"?>
<!-- Svg Vector Icons : http://www.onlinewebfonts.com/icon -->
<!DOCTYPE svg PUBLIC "-//W3C//DTD SVG 1.1//EN" "http://www.w3.org/Graphics/SVG/1.1/DTD/svg11.dtd">
<svg version="1.1" xmlns="http://www.w3.org/2000/svg" xmlns:xlink="http://www.w3.org/1999/xlink" x="0px" y="0px" viewBox="0 0 1000 1000" enable-background="new 0 0 1000 1000" xml:space="preserve">
<metadata> Svg Vector Icons : http://www.onlinewebfonts.com/icon </metadata>
<g><g transform="translate(0.000000,512.000000) scale(0.100000,-0.100000)"><path d="M1640,4997c-21.1-11.5-53.6-38.3-70.8-61.2c-32.5-38.3-34.5-319.6-34.5-4800.4c0-3650.1,5.7-4771.7,23-4810c49.8-111-162.7-105.3,3441.4-105.3c3058.6,0,3319,1.9,3368.7,32.5c30.6,17.2,63.2,51.7,74.7,76.6c32.5,68.9,28.7,9516.6-1.9,9585.5c-49.7,111,162.7,105.3-3445.3,105.3C2620,5018,1666.8,5012.3,1640,4997z M8061.6,120v-4498H4999.1H1936.7V120v4498h3062.5h3062.5V120z"/><path d="M2411.3,4141.4l-63.2-55.5V120v-3965.9l63.2-55.5l61.3-55.5h2524.6c2517,0,2522.7,0,2572.5,40.2c28.7,21.1,59.3,70.8,70.8,109.1c15.3,49.8,19.1,1248,15.3,3981.2l-5.7,3912.3l-63.2,55.5l-61.3,55.5H4999.1H2472.6L2411.3,4141.4z M4788.6,1957.5V120H3774.2H2759.7v1837.5V3795h1014.4h1014.4V1957.5z M7238.6,1957.5V120H6224.1H5209.7v1837.5V3795h1014.4h1014.4V1957.5z M4788.6-1918.5V-3555H3774.2H2759.7v1636.5V-282h1014.4h1014.4V-1918.5z M7238.6-1918.5V-3555H6224.1H5209.7v1636.5V-282h1014.4h1014.4V-1918.5z"/></g></g>
</svg>