<?xml version="1.0" encoding="utf-8"?>
<!-- Svg Vector Icons : http://www.onlinewebfonts.com/icon -->
<!DOCTYPE svg PUBLIC "-//W3C//DTD SVG 1.1//EN" "http://www.w3.org/Graphics/SVG/1.1/DTD/svg11.dtd">
<svg version="1.1" xmlns="http://www.w3.org/2000/svg" xmlns:xlink="http://www.w3.org/1999/xlink" x="0px" y="0px" viewBox="0 0 1000 1000" enable-background="new 0 0 1000 1000" xml:space="preserve">
<metadata> Svg Vector Icons : http://www.onlinewebfonts.com/icon </metadata>
<g><g transform="translate(0.000000,392.000000) scale(0.100000,-0.100000)"><path d="M100-1080v-3751.6h488.1h488.1v325.4v325.4H1237h158.9l9.6-139.7c11.5-166.5,55.5-262.2,172.3-369.4c199.1-183.8,432.6-185.7,639.3-3.8c107.2,95.7,160.8,218.2,160.8,379v134H2550h172.3v-134c0-160.8,53.6-283.3,160.8-379c206.7-181.8,440.2-179.9,639.3,3.8c114.8,105.3,158.9,199.1,170.4,367.5l11.5,141.7H3863h160.8v-130.2c0-101.4,11.5-151.2,49.8-229.7c84.2-170.4,269.9-290.9,446-290.9c151.2,0,357.9,145.5,434.5,302.4c21.1,40.2,38.3,130.1,42.1,210.5l7.7,137.8h160.8h160.8v-118.7c0-212.5,118.7-396.2,315.8-486.2c112.9-53.6,199.1-57.4,319.6-15.3c204.8,68.9,340.7,264.2,340.7,490v130.2h162.7H6627v-91.9c0-143.6,47.9-275.6,135.9-375.2c111-126.3,208.6-172.3,361.8-174.2c143.6,0,256.5,53.6,363.7,174.2c84.2,95.7,114.8,178,128.2,335l11.5,132.1h158.9h160.8v-325.4v-325.4h488.1h488.1v86.1v86.1h239.3h239.3v239.3v239.3h193.3c187.6,0,193.3,1.9,248.8,55.5c59.3,59.3,68.9,112.9,32.5,179.9c-40.2,78.5-74.6,88.1-277.5,90h-197.1v248.8v248.8h-239.3h-239.3v2038.5V719.2h239.3h239.3v239.3v239.3h86.1h86.1v-107.2c0-93.8,7.7-112.9,57.4-164.6c49.8-47.9,68.9-55.5,120.6-45.9c34.4,5.7,80.4,32.5,105.3,61.3c40.2,45.9,42.1,61.2,42.1,430.7c0,380.9,0,382.8-47.9,428.7c-63.2,65.1-166.5,65.1-229.7,0c-40.2-38.3-47.9-65.1-47.9-162.7v-116.8l-80.4,5.7l-82.3,5.7l-5.7,245l-5.7,243.1h-237.4h-239.3v325.4v325.4h-488.1h-488.1v-325.4v-325.4h-160.8H7628l-13.4,135.9c-15.3,160.8-42.1,235.4-126.3,331.1c-147.4,166.5-352.2,222-532.1,145.5c-197.1-84.2-329.2-294.8-329.2-520.6v-91.9h-162.7h-162.7v130.2c-1.9,202.9-90,356-266.1,459.4c-111,65.1-294.8,72.7-407.7,17.2c-181.8-90-302.4-285.2-302.4-486.2v-120.6h-160.8h-160.8l-7.7,139.7c-7.7,158.9-49.8,258.4-149.3,357.9c-185.7,185.7-447.9,197.1-646.9,28.7c-114.8-99.5-176.1-235.4-176.1-396.2v-130.2h-162.7h-162.7v91.9c0,229.7-130.2,434.5-329.2,520.6c-220.1,93.8-480.4-15.3-601-250.7c-36.4-72.7-45.9-122.5-45.9-227.8v-134H2550h-172.3v134c0,160.8-53.6,283.3-160.8,379c-206.7,181.8-440.2,179.9-639.3-3.8c-114.8-105.3-158.9-199.1-170.4-367.5l-11.5-141.6H1237h-160.8v325.4v325.4H588.1H100V-1080z M750.8-1080v-3426.2H588.1H425.4V-1080v3426.2h162.7h162.7V-1080z M2014.1,2307.9c38.3-38.3,38.3-63.2,38.3-3384.1c0-2729.5-3.8-3351.5-24.9-3380.2c-38.3-51.7-183.8-63.2-239.3-19.1l-44,36.4V-1080v3359.2l42.1,34.4C1843.7,2359.6,1966.2,2355.7,2014.1,2307.9z M3313.7,2313.6l42.1-34.4V-1080v-3359.2l-44-36.4c-55.5-44-201-32.5-239.3,19.1c-21,28.7-24.9,650.8-24.9,3380.2c0,3320.9,0,3345.8,38.3,3384.1C3133.8,2355.7,3256.3,2359.6,3313.7,2313.6z M4626.8,2298.3l47.9-45.9V-1080v-3332.4l-47.9-45.9c-57.4-59.3-157-63.2-227.8-7.7l-49.8,38.3V-1080v3347.7l49.8,38.3C4469.8,2361.5,4569.3,2357.7,4626.8,2298.3z M5926.4,2306l49.8-38.3V-1080v-3347.7l-49.8-38.3c-70.8-55.5-170.4-51.7-227.8,7.7l-47.9,45.9V-1080v3332.4l47.9,45.9C5756.1,2357.7,5855.6,2361.5,5926.4,2306z M7239.5,2307.9c38.3-38.3,38.3-63.2,38.3-3387.9c0-3324.7,0-3349.6-38.3-3387.9c-47.9-47.9-170.4-51.7-227.8-3.8l-42.1,32.5V-1080v3359.2l42.1,34.4C7069.1,2359.6,7191.6,2355.7,7239.5,2307.9z M8592.7-1074.3l-3.8-3422.3l-157-5.7l-158.9-5.7V-1080v3426.2h162.7h160.8L8592.7-1074.3z M1401.6-1080v-2775.4h-162.7h-162.7V-1080v2775.4h162.7h162.7V-1080z M2703.1-1080v-2775.4H2550h-153.1V-1080v2775.4H2550h153.1V-1080z M4023.8-1080v-2775.4h-162.7h-162.7V-1080v2775.4h162.7h162.7V-1080z M5325.4-1080v-2775.4h-162.7H5000V-1080v2775.4h162.7h162.7V-1080z M6627-1080v-2777.3l-157,5.7l-158.9,5.7l-5.7,2746.7c-1.9,1510.2,0,2758.2,5.7,2771.6c5.7,15.3,57.4,23,162.7,23H6627V-1080z M7928.5-1080v-2775.4h-153.1h-153.1V-1080v2775.4h153.1h153.1V-1080z M9077,1370v-325.4h-76.6h-76.6V1370v325.4h76.6h76.6V1370z M9077-4008.5v-325.4h-76.6h-76.6v325.4v325.4h76.6h76.6V-4008.5z"/></g></g>
</svg>