<?xml version="1.0" encoding="utf-8"?>
<!-- Svg Vector Icons : http://www.onlinewebfonts.com/icon -->
<!DOCTYPE svg PUBLIC "-//W3C//DTD SVG 1.1//EN" "http://www.w3.org/Graphics/SVG/1.1/DTD/svg11.dtd">
<svg version="1.1" xmlns="http://www.w3.org/2000/svg" xmlns:xlink="http://www.w3.org/1999/xlink" x="0px" y="0px" viewBox="0 0 1000 1000" enable-background="new 0 0 1000 1000" xml:space="preserve">
<metadata> Svg Vector Icons : http://www.onlinewebfonts.com/icon </metadata>
<g><path d="M841.6,947.4H534.7v-43.6h304.7c11.8,0,21.3-9.5,21.3-21.3V31.3c0-11.8-9.5-21.3-21.3-21.3h-681c-11.8,0-21.3,9.5-21.3,21.3v851.2c0,11.8,9.5,21.3,21.3,21.3h333.7v43.6H159.5c-11.8,0-21.3,9.5-21.3,21.3s9.5,21.3,21.3,21.3h682.1c11.8,0,21.3-9.5,21.3-21.3S853.3,947.4,841.6,947.4z M179.7,850.6V63.2c0-5.9,4.8-10.6,10.6-10.6h617.2c5.9,0,10.6,4.8,10.6,10.6v787.4c0,5.9-4.8,10.6-10.6,10.6H190.4C184.5,861.2,179.7,856.5,179.7,850.6z"/><path d="M328.7,95.1c-58.8,0-106.4,47.6-106.4,106.4c0,58.8,47.6,106.4,106.4,106.4c58.8,0,106.4-47.6,106.4-106.4C435.1,142.8,387.5,95.1,328.7,95.1z M328.7,265.4c-35.2,0-63.8-28.6-63.8-63.8c0-35.2,28.6-63.8,63.8-63.8s63.8,28.6,63.8,63.8C392.5,236.7,363.9,265.4,328.7,265.4z"/></g>
</svg>