<?xml version="1.0" encoding="utf-8"?>
<!-- Svg Vector Icons : http://www.onlinewebfonts.com/icon -->
<!DOCTYPE svg PUBLIC "-//W3C//DTD SVG 1.1//EN" "http://www.w3.org/Graphics/SVG/1.1/DTD/svg11.dtd">
<svg version="1.1" xmlns="http://www.w3.org/2000/svg" xmlns:xlink="http://www.w3.org/1999/xlink" x="0px" y="0px" viewBox="0 0 1000 1000" enable-background="new 0 0 1000 1000" xml:space="preserve">
<metadata> Svg Vector Icons : http://www.onlinewebfonts.com/icon </metadata>
<g><g transform="translate(0.000000,332.000000) scale(0.100000,-0.100000)"><path d="M155.5,1442.3l-55.5-55.5V-626.8v-2011.7l44-44c42.1-42.1,61.3-44,453.6-55.5c532.1-17.2,8272.6-17.2,8804.7,0c392.4,11.5,411.5,13.4,453.6,55.5l44,44v2011.7v2013.6l-55.5,55.5l-55.5,55.5H5000H211L155.5,1442.3z M9574.6-617.2v-1789.6h-86.1h-88l1.9,426.8c1.9,233.5-3.8,440.2-9.6,459.4c-38.3,93.8,187.6,90-4392.8,90c-4563.1,0-4356.4,3.8-4390.9-86.1c-5.7-17.2-11.5-225.8-11.5-461.3v-428.8h-86.1h-86.1v1789.6v1789.6H5000h4574.6V-617.2z M9077-2081.5v-325.4H5000H923v325.4v325.4h4077h4077V-2081.5z"/><path d="M965.2,630.8c-82.3-86.1-40.2-225.9,78.5-268c57.4-21.1,157,32.5,183.8,99.5c30.6,68.9,1.9,162.7-57.4,193.3C1106.8,690.1,1009.2,678.6,965.2,630.8z"/><path d="M1459,636.5c-84.2-84.2-55.5-225.9,57.4-264.1c158.9-55.5,287.1,147.4,166.5,260.3C1625.5,688.2,1512.6,690.1,1459,636.5z"/><path d="M1939.4,625c-53.6-67-51.7-145.5,5.7-210.5c93.8-109.1,279.5-36.4,279.5,109.1C2224.6,661.4,2023.6,732.2,1939.4,625z"/><path d="M2440.9,632.7c-57.4-65.1-65.1-105.3-36.4-176.1c32.5-80.4,118.7-114.8,204.8-84.2c65.1,23,120.6,122.5,99.5,181.8c-24.9,72.7-88,120.6-158.9,120.6C2502.1,674.8,2467.7,661.4,2440.9,632.7z"/><path d="M2923.2,626.9c-61.3-59.3-61.3-143.6-1.9-212.5c134-158.9,367.5,45.9,239.3,210.5C3107,693.9,2990.2,695.8,2923.2,626.9z"/><path d="M3415.2,630.8c-82.3-86.1-40.2-225.9,78.5-268c57.4-21.1,157,32.5,183.8,99.5c30.6,68.9,1.9,162.7-57.4,193.3C3556.8,690.1,3459.2,678.6,3415.2,630.8z"/><path d="M3909,636.5c-84.2-84.2-55.5-225.9,57.4-264.1c158.9-55.5,287.1,147.4,166.5,260.3C4075.5,688.2,3962.6,690.1,3909,636.5z"/><path d="M5865.2,630.8c-82.3-86.1-40.2-225.9,78.5-268c57.4-21.1,157,32.5,183.8,99.5c30.6,68.9,1.9,162.7-57.4,193.3C6006.8,690.1,5909.2,678.6,5865.2,630.8z"/><path d="M6359,636.5c-86.1-86.1-63.2-214.4,45.9-258.4c74.6-30.6,114.8-23,179.9,34.4c59.3,53.6,57.4,164.6-1.9,220.1C6525.5,688.2,6412.6,690.1,6359,636.5z"/><path d="M6839.4,625c-128.2-164.6,105.3-369.4,239.3-210.5c97.6,111,24.9,260.3-124.4,260.3C6894.9,674.8,6870,663.3,6839.4,625z"/><path d="M7340.9,632.7c-57.4-65.1-65.1-105.3-36.4-176.1c32.5-80.4,118.7-114.8,204.8-84.2c65.1,23,120.6,122.5,99.5,181.8c-24.9,72.7-88,120.6-158.9,120.6C7402.1,674.8,7367.7,661.4,7340.9,632.7z"/><path d="M7823.2,626.9c-61.3-59.3-61.3-143.6-1.9-212.5c93.8-111,279.4-38.3,279.4,109.1C8100.8,657.6,7920.8,726.5,7823.2,626.9z"/><path d="M8315.2,630.8c-82.3-86.1-40.2-225.9,78.5-268c57.4-21.1,157,32.5,183.8,99.5c30.6,68.9,1.9,162.7-57.4,193.3C8456.8,690.1,8359.2,678.6,8315.2,630.8z"/><path d="M8809,636.5c-84.2-84.2-55.5-225.9,57.4-264.1c158.9-55.5,287.1,147.4,166.5,260.3C8975.5,688.2,8862.6,690.1,8809,636.5z"/><path d="M965.2-20c-118.7-126.3,30.6-333.1,183.7-254.6c78.5,40.2,111,126.3,80.4,202.9C1200.6-0.9,1158.5,24,1070.4,24C1028.3,24,992,8.7,965.2-20z"/><path d="M1459-14.3c-82.3-82.3-63.2-204.8,38.3-258.4c157-82.3,313.9,134,185.7,254.6C1625.5,37.4,1512.6,39.3,1459-14.3z"/><path d="M1947.1-23.9c-99.5-97.6-26.8-266,114.8-266c55.5,0,82.3,13.4,116.8,53.6C2272.5-129.1,2203.6,24,2061.9,24C2014.1,24,1977.7,8.7,1947.1-23.9z"/><path d="M2440.9-18.1c-55.5-61.2-65.1-101.4-40.2-168.4c45.9-135.9,239.3-141.6,294.8-7.7C2741.4-85.1,2668.7,24,2550,24C2502.1,24,2467.7,10.6,2440.9-18.1z"/><path d="M2923.2-23.9c-99.5-97.6-26.8-266,114.8-266c55.5,0,82.3,13.4,116.8,53.6C3248.6-129.1,3179.7,24,3038.1,24C2990.2,24,2953.9,8.7,2923.2-23.9z"/><path d="M3415.2-20c-118.7-126.3,30.6-333.1,183.7-254.6c78.5,40.2,111,126.3,80.4,202.9C3650.6-0.9,3608.5,24,3520.4,24C3478.3,24,3442,8.7,3415.2-20z"/><path d="M3909-14.3c-82.3-82.3-63.2-204.8,38.3-258.4c157-82.3,313.9,134,185.7,254.6C4075.5,37.4,3962.6,39.3,3909-14.3z"/><path d="M5865.2-20c-118.7-126.3,30.6-333.1,183.8-254.6c78.5,40.2,111,126.3,80.4,202.9C6100.6-0.9,6058.5,24,5970.4,24C5928.3,24,5891.9,8.7,5865.2-20z"/><path d="M6359-14.3c-82.3-82.3-63.2-204.8,38.3-258.4c157-82.3,313.9,134,185.7,254.6C6525.5,37.4,6412.6,39.3,6359-14.3z"/><path d="M6847.1-23.9c-99.5-97.6-26.8-266,114.8-266c55.5,0,82.3,13.4,116.7,53.6C7172.5-129.1,7103.6,24,6961.9,24C6914.1,24,6877.7,8.7,6847.1-23.9z"/><path d="M7340.9-18.1c-57.4-65.1-65.1-105.3-36.4-176.1c34.4-84.2,122.5-120.6,204.8-86.1c67,26.8,120.6,126.3,99.5,183.8C7584-23.9,7520.8,24,7450,24C7402.1,24,7367.7,10.6,7340.9-18.1z"/><path d="M7823.2-23.9c-99.5-97.6-26.8-266,114.8-266c55.5,0,82.3,13.4,116.7,53.6C8148.6-129.1,8079.7,24,7938.1,24C7890.2,24,7853.9,8.7,7823.2-23.9z"/><path d="M8315.2-20c-118.7-126.3,30.6-333.1,183.8-254.6c78.5,40.2,111,126.3,80.4,202.9C8550.6-0.9,8508.5,24,8420.4,24C8378.3,24,8341.9,8.7,8315.2-20z"/><path d="M8809-14.3c-82.3-82.3-63.2-204.8,38.3-258.4c157-82.3,313.9,134,185.7,254.6C8975.5,37.4,8862.6,39.3,8809-14.3z"/><path d="M965.2-670.8c-82.3-88-36.4-243.1,82.3-273.7c101.4-24.9,218.2,91.9,193.3,193.3C1210.2-630.6,1047.5-582.8,965.2-670.8z"/><path d="M1482-640.2c-42.1-17.2-84.2-120.6-70.8-178c15.3-67,63.2-111,135.9-126.3c45.9-7.7,70.8,0,118.7,40.2c120.6,99.5,59.3,279.5-93.8,275.6C1535.5-628.7,1495.4-634.4,1482-640.2z"/><path d="M1947.1-674.6c-61.3-59.3-61.3-143.6-1.9-212.5c101.5-120.6,296.7-30.6,271.8,124.4C2195.9-628.7,2040.9-578.9,1947.1-674.6z"/><path d="M2440.9-668.9c-57.4-65.1-65.1-105.3-36.4-176.1c70.8-168.4,308.2-112.9,302.4,70.8C2703.1-644,2527-575.1,2440.9-668.9z"/><path d="M2923.2-674.6c-99.5-97.6-26.8-266,114.8-266c55.5,0,82.3,13.4,116.8,53.6c93.8,107.2,24.9,260.3-116.8,260.3C2990.2-626.8,2953.9-642.1,2923.2-674.6z"/><path d="M3415.2-670.8c-118.7-126.3,24.9-333.1,181.8-258.4c65.1,30.6,109.1,116.7,93.8,178C3660.2-630.6,3497.5-582.8,3415.2-670.8z"/><path d="M3932-640.2c-42.1-17.2-84.2-120.6-70.8-178c15.3-67,63.2-111,135.9-126.3c82.3-15.3,179.9,67,179.9,155c0,93.8-63.2,162.7-149.3,160.8C3989.4-628.7,3945.4-634.4,3932-640.2z"/><path d="M5865.2-670.8c-82.3-88-36.4-243.1,82.3-273.7c101.4-24.9,218.2,91.9,193.3,193.3C6110.2-630.6,5947.5-582.8,5865.2-670.8z"/><path d="M6382-640.2c-42.1-17.2-84.2-120.6-70.8-178c15.3-67,63.2-111,135.9-126.3c82.3-15.3,179.9,67,179.9,155c0,93.8-63.2,162.7-149.3,160.8C6439.4-628.7,6395.4-634.4,6382-640.2z"/><path d="M6847.1-674.6c-61.3-59.3-61.3-143.6-1.9-212.5c101.4-120.6,296.7-30.6,271.8,124.4C7095.9-628.7,6940.9-578.9,6847.1-674.6z"/><path d="M7340.9-668.9c-57.4-65.1-65.1-105.3-36.4-176.1c70.8-168.4,308.2-112.9,302.4,70.8C7603.1-644,7427-575.1,7340.9-668.9z"/><path d="M7823.2-674.6c-99.5-97.6-26.8-266,114.8-266c55.5,0,82.3,13.4,116.7,53.6c93.8,107.2,24.9,260.3-116.7,260.3C7890.2-626.8,7853.9-642.1,7823.2-674.6z"/><path d="M8315.2-670.8c-82.3-88-36.4-243.1,82.3-273.7c101.4-24.9,218.2,91.9,193.3,193.3C8560.2-630.6,8397.5-582.8,8315.2-670.8z"/><path d="M8832-640.2c-42.1-17.2-84.2-120.6-70.8-178c15.3-67,63.2-111,135.9-126.3c82.3-15.3,179.9,67,179.9,155c0,93.8-63.2,162.7-149.3,160.8C8889.4-628.7,8845.4-634.4,8832-640.2z"/><path d="M4582.7-1941.8c-32.5-11.5-80.4-109.1-80.4-158.9c0-23,24.9-67,55.5-97.6l55.5-55.5H5000h386.6l55.5,55.5c30.6,30.6,55.5,74.6,55.5,97.6c0,55.5-49.8,145.5-86.1,160.8C5373.2-1926.4,4619.1-1926.4,4582.7-1941.8z"/><path d="M1286.7-3277.8c-38.3-40.2-45.9-72.7-53.6-208.6c-3.8-90-1.9-193.3,3.8-233.5c30.6-158.9,191.4-216.3,287.1-101.4c47.9,55.5,49.8,68.9,49.8,277.5s-1.9,222-47.9,266.1C1460.9-3210.8,1348-3212.7,1286.7-3277.8z"/><path d="M1947.1-3277.8c-45.9-44-47.9-57.4-47.9-277.5s1.9-233.5,47.9-277.5c63.2-65.1,160.8-65.1,227.8,1.9c47.9,49.8,49.8,57.4,49.8,279.5c0,216.3-1.9,229.7-47.9,273.7c-30.6,32.5-67,47.9-114.8,47.9S1977.7-3245.2,1947.1-3277.8z"/><path d="M2597.9-3277.8c-45.9-44-47.9-57.4-47.9-277.5s1.9-233.5,47.9-277.5c63.2-65.1,166.5-65.1,229.7,0c45.9,44,47.9,57.4,47.9,277.5s-1.9,233.5-47.9,277.5c-30.6,32.5-67,47.9-114.8,47.9S2628.5-3245.2,2597.9-3277.8z"/><path d="M7172.5-3277.8c-45.9-44-47.9-57.4-47.9-277.5s1.9-233.5,47.9-277.5c63.2-65.1,166.5-65.1,229.7,0c45.9,44,47.9,57.4,47.9,277.5s-1.9,233.5-47.9,277.5c-30.6,32.5-67,47.9-114.8,47.9S7203.1-3245.2,7172.5-3277.8z"/><path d="M7823.2-3277.8c-45.9-44-47.9-57.4-47.9-277.5c0-225.9,1.9-233.5,49.8-277.5c68.9-63.2,166.5-63.2,227.8,0c45.9,44,47.9,57.4,47.9,277.5s-1.9,233.5-47.9,277.5c-30.6,32.5-67,47.9-114.8,47.9S7853.9-3245.2,7823.2-3277.8z"/><path d="M8474-3277.8c-45.9-44-47.9-59.3-47.9-258.4c0-273.7,34.5-342.6,168.4-344.5c80.4,0,149.3,67,168.4,160.8c5.8,40.2,7.7,143.6,3.8,233.5c-7.6,135.9-15.3,168.5-53.6,208.6C8652-3212.7,8539.1-3210.8,8474-3277.8z"/><path d="M1292.5-4252c-53.6-45.9-53.6-47.9-53.6-279.5s0-233.5,53.6-279.5c59.3-49.8,155-61.3,206.7-21.1c59.3,45.9,74.6,107.2,74.6,315.8c0,195.2-3.8,212.5-47.9,260.3C1464.7-4190.8,1367.1-4188.9,1292.5-4252z"/><path d="M1947.1-4253.9c-45.9-44-47.9-57.4-47.9-277.5s1.9-233.5,47.9-277.5c63.2-65.1,166.5-65.1,229.7,0c45.9,44,47.9,57.4,47.9,277.5s-1.9,233.5-47.9,277.5c-30.6,32.5-67,47.9-114.8,47.9S1977.7-4221.4,1947.1-4253.9z"/><path d="M2597.9-4253.9c-45.9-44-47.9-57.4-47.9-277.5s1.9-233.5,47.9-277.5c63.2-65.1,166.5-65.1,229.7,0c45.9,44,47.9,57.4,47.9,277.5s-1.9,233.5-47.9,277.5c-30.6,32.5-67,47.9-114.8,47.9S2628.5-4221.4,2597.9-4253.9z"/><path d="M7172.5-4253.9c-45.9-44-47.9-57.4-47.9-277.5s1.9-233.5,47.9-277.5c63.2-65.1,166.5-65.1,229.7,0c45.9,44,47.9,57.4,47.9,277.5s-1.9,233.5-47.9,277.5c-30.6,32.5-67,47.9-114.8,47.9S7203.1-4221.4,7172.5-4253.9z"/><path d="M7823.2-4253.9c-45.9-44-47.9-57.4-47.9-277.5s1.9-233.5,47.9-277.5c63.2-65.1,166.5-65.1,229.7,0c45.9,44,47.9,57.4,47.9,277.5s-1.9,233.5-47.9,277.5c-30.6,32.5-67,47.9-114.8,47.9S7853.9-4221.4,7823.2-4253.9z"/><path d="M8474-4255.8c-45.9-47.9-47.9-65.1-47.9-275.6c0-216.3,1.9-225.9,49.8-275.6c103.4-101.4,258.4-42.1,287.1,111c5.8,40.2,7.7,145.5,3.8,235.4c-7.6,151.2-13.4,168.4-61.3,210.5C8632.9-4188.9,8535.3-4190.8,8474-4255.8z"/></g></g>
</svg>