<?xml version="1.0" encoding="utf-8"?>
<!-- Svg Vector Icons : http://www.onlinewebfonts.com/icon -->
<!DOCTYPE svg PUBLIC "-//W3C//DTD SVG 1.1//EN" "http://www.w3.org/Graphics/SVG/1.1/DTD/svg11.dtd">
<svg version="1.1" xmlns="http://www.w3.org/2000/svg" xmlns:xlink="http://www.w3.org/1999/xlink" x="0px" y="0px" viewBox="0 0 1000 1000" enable-background="new 0 0 1000 1000" xml:space="preserve">
<metadata> Svg Vector Icons : http://www.onlinewebfonts.com/icon </metadata>
<g><g transform="translate(0.000000,512.000000) scale(0.100000,-0.100000)"><path d="M4622.5,5001.2C3246,4840.4,2060.9,3821.9,1697.2,2485.5C1297,1017.1,1917.3-524.1,3238.3-1339.6c315.9-193.4,748.6-363.8,1095.1-430.8l168.5-30.6v-178.1v-178h-74.7c-109.1,0-191.5-36.4-222.1-97.6c-38.3-70.8-42.1-1039.6-5.7-1118.1c30.6-67,109.1-105.3,216.3-105.3h86.2v-237.4v-239.3l-440.3-5.7c-547.6-7.6-522.7,5.7-532.2-292.9l-7.7-201h-187.6c-172.3,0-193.4-3.8-241.2-46c-72.7-61.3-72.7-172.3,1.9-235.5l49.8-44h1855.2h1855.2l49.8,44c72.8,61.3,72.8,176.1,0,237.4c-44,40.2-68.9,44-239.3,44h-187.6l-7.7,201c-9.6,298.7,15.3,285.3-532.2,292.9l-440.3,5.7v239.3v237.4h86.2c107.2,0,185.7,38.3,216.3,105.3c30.6,67,32.5,1010.8,1.9,1100.8c-26.8,72.8-109.1,114.9-227.8,114.9h-76.6v178v178.1l168.5,30.6c1298,247,2406.5,1344,2684.1,2661.2c346.5,1640.7-568.6,3296.8-2163.4,3913.2C5723.4,4982.1,5116.5,5058.6,4622.5,5001.2z M5334.7,4677.7c1016.6-116.8,1862.8-668.2,2362.5-1541.2c371.4-649,493.9-1481.8,325.5-2240C7789.1-156.5,7011.8-1018,5995.2-1351.1c-379.1-124.5-520.7-143.6-995.5-143.6s-618.4,21.1-995.5,145.5C2390.2-817,1528.7,917.6,2055.2,2571.7c296.7,928.5,1039.6,1671.4,1968.1,1968.1C4456,4677.7,4909.7,4725.5,5334.7,4677.7z M5168.2-2004l-5.7-153.2h-166.6h-168.5v153.2v153.2h174.2h174.2L5168.2-2004z M5493.6-2819.5l-5.7-319.7h-488.2h-488.2l-5.7,319.7l-3.8,317.8h497.8h497.8L5493.6-2819.5z M5170.1-3717.4l1.9-239.3h-172.3h-172.3v239.3v239.3h170.4h168.5L5170.1-3717.4z M6138.8-4368.4v-76.6H4999.7H3860.6l-5.7,53.6c-13.4,109.1-76.6,103.4,1148.7,101.5l1135.3-1.9V-4368.4z"/><path d="M4530.6,4495.8c-319.7-49.8-670.1-168.5-941.9-317.8c-193.4-107.2-229.7-166.6-168.5-283.3c34.5-67,38.3-68.9,342.7-128.3c478.6-93.8,739-202.9,802.2-338.9c46-95.7,42.1-130.2-44-377.2c-45.9-126.4-82.3-273.8-90-348.4c-11.5-130.2-11.5-130.2-114.9-208.7c-55.5-44-128.3-109.1-160.8-145.5l-57.4-67l-195.3,86.2c-428.9,189.5-779.2,256.6-1054.9,199.1c-206.8-42.1-344.6-114.9-471-241.2c-262.3-268-358-693.1-270-1206.1c72.8-423.1,239.3-834.7,486.3-1196.6c256.6-375.3,821.3-873,989.8-873c49.8,0,153.2,99.6,153.2,147.4c0,19.1-23,103.4-49.8,187.6c-132.1,409.7-178,802.2-113,959.2c36.4,88.1,135.9,130.2,371.4,160.8c174.2,23,365.7,74.7,413.5,114.9c15.3,13.4,55.5,1.9,128.3-38.3c59.3-32.6,170.4-74.7,247-93.8l141.7-36.4l24.9-197.2c84.2-698.8,344.6-1141.1,754.3-1278.9c143.6-49.8,392.5-53.6,560.9-11.5c518.8,130.2,1120,706.5,1435.9,1372.7c164.6,346.5,269.9,769.6,279.5,1116.2c5.8,187.6-7.6,231.7-80.4,270c-101.5,51.7-147.4,23-356.1-210.6c-269.9-302.5-472.9-471-616.5-509.3c-118.7-32.5-197.2,3.8-321.7,147.4c-204.8,235.5-300.6,333.1-352.3,363.8c-46,28.7-55.5,47.9-65.1,157c-7.6,68.9-34.5,191.5-61.3,269.9l-47.9,143.6l53.6,38.3c281.4,202.9,492,415.4,635.6,639.4c135.9,208.7,164.7,304.4,164.7,557.1c1.9,220.2,1.9,224-72.8,371.4c-82.3,168.5-256.5,359.9-434.6,474.8c-216.3,141.7-614.6,279.5-961.1,329.3C5177.7,4530.2,4747,4530.2,4530.6,4495.8z M5591.3,4132c363.8-93.8,599.2-210.6,792.6-392.5c166.6-155.1,214.4-254.6,214.4-449.9c0-137.9-7.6-164.6-65.1-273.8c-88.1-162.7-256.6-340.8-484.4-513.1c-168.5-126.4-195.3-139.7-224-118.7c-17.2,15.3-63.2,53.6-101.5,86.2c-105.3,88.1-227.8,157-384.8,212.5c-114.9,40.2-172.3,47.9-354.2,47.9c-143.6,1.9-212.5,7.7-208.7,21.1c124.4,325.5,166.6,539.9,130.2,673.9c-63.2,233.6-315.9,430.8-717.9,562.9c-132.1,44-132.1,44-76.6,67c30.6,11.5,111,36.4,178,55.5c264.2,72.8,386.7,86.2,748.6,80.4C5350,4185.6,5417,4178,5591.3,4132z M5315.6,2343.9c53.6-23,128.3-65.1,168.5-93.8c86.2-57.4,231.7-239.3,271.9-337c45.9-109.1,65.1-304.4,45.9-446.1c-74.7-541.8-668.2-848.1-1175.5-606.9c-132.1,61.3-285.3,225.9-361.8,390.6c-55.5,116.8-59.4,137.8-59.4,344.6c0,208.7,3.8,225.9,63.2,354.2c99.6,212.5,247,342.7,459.5,413.5C4881,2414.7,5179.7,2405.1,5315.6,2343.9z M3173.3,2282.6c166.6-28.7,337-88.1,560.9-191.4c164.6-78.5,195.3-99.6,183.8-126.4c-42.1-107.2-68.9-314-59.4-446.1c15.3-212.5,111-474.8,218.3-599.2c15.3-17.2,24.9-36.4,19.1-42.1c-5.7-5.8-90-23-189.5-38.3c-358-53.6-509.3-141.7-626-363.8c-44-84.2-51.7-122.5-57.4-315.9c-3.8-141.7,3.8-271.9,21.1-363.8c15.3-78.5,24.9-147.4,21.1-151.2c-3.8-3.8-65.1,51.7-135.9,124.4c-375.2,388.6-624.1,890.3-704.5,1424.4c-36.4,233.6-36.4,369.5,1.9,549.5c63.2,312.1,204.8,484.4,442.3,539.9C2970.3,2307.5,3041.2,2307.5,3173.3,2282.6z M6236.5,998c208.7-254.6,405.9-348.4,627.9-302.5c157,32.5,379.1,151.2,555.2,298.7l151.2,126.4l-13.4-70.8c-107.2-564.8-465.2-1143-938.1-1510.5c-264.2-206.8-490.1-298.7-729.4-298.7c-363.8,0-570.5,283.3-650.9,894.1c-44,337-49.8,315.9,95.7,358c283.3,80.4,549.5,310.2,696.9,601.2C6081.4,1191.3,6077.5,1193.3,6236.5,998z"/></g></g>
</svg>