<?xml version="1.0" encoding="utf-8"?>
<!-- Svg Vector Icons : http://www.onlinewebfonts.com/icon -->
<!DOCTYPE svg PUBLIC "-//W3C//DTD SVG 1.1//EN" "http://www.w3.org/Graphics/SVG/1.1/DTD/svg11.dtd">
<svg version="1.1" xmlns="http://www.w3.org/2000/svg" xmlns:xlink="http://www.w3.org/1999/xlink" x="0px" y="0px" viewBox="0 0 1000 1000" enable-background="new 0 0 1000 1000" xml:space="preserve">
<metadata> Svg Vector Icons : http://www.onlinewebfonts.com/icon </metadata>
<g><g transform="translate(0.000000,511.000000) scale(0.100000,-0.100000)"><path d="M1402.7,4980.9c-37.6-19.8-94.9-69.2-128.5-110.7l-61.3-77.1V1218.6v-3574.5l61.3-77.1c79.1-98.9,172-144.3,300.5-144.3h102.8v-632.6v-632.6h-581.2c-385.5,0-601-7.9-646.5-23.7c-160.1-53.4-294.6-195.7-338.1-359.8c-79.1-294.6,257-626.7,553.6-549.6c235.3,63.3,421.1,334.1,365.7,537.8l-19.8,79.1h3989.6h3991.6l-19.8-51.4c-51.4-134.5-4-282.7,138.4-423.1c209.6-211.5,423.1-211.5,632.6,0c148.3,148.3,185.8,268.9,134.4,442.9c-31.6,108.7-215.5,292.6-324.2,324.2c-55.4,15.8-264.9,23.7-658.4,23.7h-575.3v630.7v630.7l128.5,7.9c104.8,5.9,140.4,17.8,199.7,67.2c39.5,31.6,89,89,108.7,126.5c35.6,65.2,37.6,197.7,37.6,3598.2c0,3321.4-2,3532.9-35.6,3596.2c-17.8,37.6-67.2,94.9-108.7,128.5l-77.1,61.3l-3550.7,5.9C1669.6,5014.5,1466,5012.5,1402.7,4980.9z M1835.7,4200c0-563.5,4-583.2,144.3-695.9l77.1-61.3l2918.1-5.9c2817.2-4,2922-4,2989.2,31.6c37.6,21.7,94.9,71.2,128.5,110.7l59.3,75.1l5.9,521.9l5.9,521.9h156.2h158.2v-790.8v-790.8H4998.9H1519.4v790.8v790.8h158.2h158.2V4200z M7845.8,4223.7v-474.5H4998.9H2152v474.5v474.5h2846.9h2846.9V4223.7z M8478.5,269.6V-2261H4998.9H1519.4V269.6v2530.6h3479.6h3479.6V269.6z M8004-3209.9v-632.6H4998.9H1993.9v632.6v632.6h3005.1H8004V-3209.9z M689-4198.4c25.7-25.7,39.5-65.2,39.5-118.6c0-104.8-53.4-158.2-158.2-158.2c-53.4,0-92.9,13.8-118.6,39.5c-53.4,53.4-53.4,183.9,0,237.2c25.7,25.7,65.2,39.5,118.6,39.5S663.3-4172.7,689-4198.4z M9546.1-4198.4c25.7-25.7,39.5-65.2,39.5-118.6c0-104.8-53.4-158.2-158.2-158.2c-104.8,0-158.2,53.4-158.2,158.2c0,104.8,53.4,158.2,158.2,158.2C9480.8-4158.9,9520.4-4172.7,9546.1-4198.4z"/><path d="M5473.4,4223.7v-158.2h237.2h237.2v158.2v158.2h-237.2h-237.2V4223.7z"/><path d="M6264.2,4223.7v-158.2h237.2h237.2v158.2v158.2h-237.2h-237.2V4223.7z"/><path d="M7055,4223.7v-158.2h237.2h237.2v158.2v158.2h-237.2H7055V4223.7z"/><path d="M2310.2,2404.8v-79.1h-237.2h-237.2v-158.2v-158.2h237.2h237.2v-474.5v-474.5h-237.2h-237.2V902.3V744.1h237.2h237.2V269.6v-474.5h-237.2h-237.2V-363v-158.2h237.2h237.2v-474.5v-474.5h-237.2h-237.2v-158.2v-158.2h237.2h237.2v-79.1v-79.1h158.2h158.2v79.1v79.1h158.2h158.2v-79.1v-79.1H3101h158.2v79.1v79.1h158.2h158.2v-79.1v-79.1h158.2h158.2v79.1v79.1H4050h158.2v-79.1v-79.1h158.2h158.2v79.1v79.1h158.2h158.2v-79.1v-79.1h158.2h158.2v79.1v79.1h158.2h158.2v-79.1v-79.1h158.2h158.2v79.1v79.1h158.2h158.2v-79.1v-79.1h158.2h158.2v79.1v79.1h158.2h158.2v-79.1v-79.1h158.2H7055v79.1v79.1h158.2h158.2v-79.1v-79.1h158.2h158.2v79.1v79.1h237.2h237.2v158.2v158.2h-237.2h-237.2v474.5v474.5h237.2h237.2V-363v158.2h-237.2h-237.2v474.5v474.5h237.2h237.2v158.2v158.2h-237.2h-237.2v474.5v474.5h237.2h237.2v158.2v158.2h-237.2h-237.2v79.1v79.1h-158.2h-158.2v-79.1v-79.1h-158.2H7055v79.1v79.1h-158.2h-158.2v-79.1v-79.1h-158.2h-158.2v79.1v79.1h-158.2h-158.2v-79.1v-79.1h-158.2h-158.2v79.1v79.1h-158.2h-158.2v-79.1v-79.1h-158.2h-158.2v79.1v79.1h-158.2h-158.2v-79.1v-79.1h-158.2h-158.2v79.1v79.1h-158.2h-158.2v-79.1v-79.1H4050h-158.2v79.1v79.1h-158.2h-158.2v-79.1v-79.1h-158.2h-158.2v79.1v79.1H3101h-158.2v-79.1v-79.1h-158.2h-158.2v79.1v79.1h-158.2h-158.2V2404.8z M2942.8,1534.9v-474.5h-158.2h-158.2v474.5v474.5h158.2h158.2V1534.9z M3575.5,1534.9v-474.5h-158.2h-158.2v474.5v474.5h158.2h158.2V1534.9z M4208.1,1534.9v-474.5H4050h-158.2v474.5v474.5H4050h158.2V1534.9z M4840.8,1534.9v-474.5h-158.2h-158.2v474.5v474.5h158.2h158.2V1534.9z M5473.4,1534.9v-474.5h-158.2h-158.2v474.5v474.5h158.2h158.2V1534.9z M6106.1,1534.9v-474.5h-158.2h-158.2v474.5v474.5h158.2h158.2V1534.9z M6738.7,1534.9v-474.5h-158.2h-158.2v474.5v474.5h158.2h158.2V1534.9z M7371.4,1534.9v-474.5h-158.2H7055v474.5v474.5h158.2h158.2V1534.9z M2942.8,269.6v-474.5h-158.2h-158.2v474.5v474.5h158.2h158.2V269.6z M3575.5,269.6v-474.5h-158.2h-158.2v474.5v474.5h158.2h158.2V269.6z M4208.1,269.6v-474.5H4050h-158.2v474.5v474.5H4050h158.2V269.6z M4840.8,269.6v-474.5h-158.2h-158.2v474.5v474.5h158.2h158.2V269.6z M5473.4,269.6v-474.5h-158.2h-158.2v474.5v474.5h158.2h158.2V269.6z M6106.1,269.6v-474.5h-158.2h-158.2v474.5v474.5h158.2h158.2V269.6z M6738.7,269.6v-474.5h-158.2h-158.2v474.5v474.5h158.2h158.2V269.6z M7371.4,269.6v-474.5h-158.2H7055v474.5v474.5h158.2h158.2V269.6z M2942.8-995.7v-474.5h-158.2h-158.2v474.5v474.5h158.2h158.2V-995.7z M3575.5-995.7v-474.5h-158.2h-158.2v474.5v474.5h158.2h158.2V-995.7z M4208.1-995.7v-474.5H4050h-158.2v474.5v474.5H4050h158.2V-995.7z M4840.8-995.7v-474.5h-158.2h-158.2v474.5v474.5h158.2h158.2V-995.7z M5473.4-995.7v-474.5h-158.2h-158.2v474.5v474.5h158.2h158.2V-995.7z M6106.1-995.7v-474.5h-158.2h-158.2v474.5v474.5h158.2h158.2V-995.7z M6738.7-995.7v-474.5h-158.2h-158.2v474.5v474.5h158.2h158.2V-995.7z M7371.4-995.7v-474.5h-158.2H7055v474.5v474.5h158.2h158.2V-995.7z"/></g></g>
</svg>