<?xml version="1.0" encoding="utf-8"?>
<!-- Svg Vector Icons : http://www.onlinewebfonts.com/icon -->
<!DOCTYPE svg PUBLIC "-//W3C//DTD SVG 1.1//EN" "http://www.w3.org/Graphics/SVG/1.1/DTD/svg11.dtd">
<svg version="1.1" xmlns="http://www.w3.org/2000/svg" xmlns:xlink="http://www.w3.org/1999/xlink" x="0px" y="0px" viewBox="0 0 1000 1000" enable-background="new 0 0 1000 1000" xml:space="preserve">
<metadata> Svg Vector Icons : http://www.onlinewebfonts.com/icon </metadata>
<g><g transform="translate(0.000000,512.000000) scale(0.100000,-0.100000)"><path d="M2894.5,4983.6c-36.4-19.1-91.9-67-124.4-105.3l-57.4-72.7l-5.7-505.3l-5.7-505.3h-304.3h-306.3v-153.1v-153.1h306.3h306.3v-153.1v-153.1h-306.3h-306.3v-153.1v-153.1h306.3h306.3V1115.3V-645.6h-306.3h-306.3v-153.1v-153.1h306.3h306.3V-1105v-153.1h-306.3h-306.3v-153.1v-153.1h306.3h306.3v-484.3c0-541.7,3.8-560.8,141.6-673.8c72.7-57.4,74.6-57.4,346.4-63.2l273.7-5.7l7.7-199.1c5.7-187.6,9.6-201,63.2-269.9c122.5-149.3,34.4-141.7,1464.3-141.7c1429.8,0,1341.7-7.7,1464.3,141.7c53.6,68.9,57.4,82.3,63.2,269.9l7.7,199.1l273.7,5.7c271.8,5.7,273.7,5.7,346.4,63.2c137.8,112.9,141.7,132.1,141.7,673.8v484.3h306.3h306.2v153.1v153.1h-306.2h-306.3v153.1v153.1h306.3h306.2v153.1v153.1h-306.2h-306.3v1760.9v1760.9h306.3h306.2v153.1v153.1h-306.2h-306.3v153.1v153.1h306.3h306.2v153.1V3795h-306.2h-304.3l-5.7,505.3l-5.7,505.3l-57.4,72.7c-32.5,38.3-88,86.1-124.4,105.3c-63.2,34.5-155,36.4-2105.5,36.4C3049.6,5020,2957.7,5018.1,2894.5,4983.6z M6990.6,4560.6v-153.1H5000H3009.4v153.1v153.1H5000h1990.6V4560.6z M6990.6,1574.7V-951.9H5000H3009.4v2526.6v2526.6H5000h1990.6V1574.7z M6990.6-1870.6v-612.5H5000H3009.4v612.5v612.5H5000h1990.6V-1870.6z M6225-2942.5v-153.1H5000H3775v153.1v153.1h1225h1225V-2942.5z"/><path d="M4904.3,2688.7c-30.6-24.9-47.9-67-59.3-143.6c-17.2-134-80.4-271.8-235.4-520.6c-268-424.9-363.7-679.5-365.6-957c0-158.9,5.7-183.8,65.1-304.3c84.2-170.3,243.1-331.1,415.4-415.4c112.9-55.5,149.3-65.1,275.6-65.1c126.3,0,162.7,9.6,275.6,65.1c172.3,84.2,331.1,245,415.3,415.4c59.3,120.6,65.1,145.5,63.2,304.3c0,281.4-97.6,532.1-363.7,957c-155,248.8-218.2,386.6-235.4,520.6c-17.2,122.5-67,178-155,178C4971.3,2723.1,4927.3,2707.8,4904.3,2688.7z M5181.8,1762.3c269.9-455.5,331.1-694.8,231.6-905.3c-172.3-365.6-654.6-365.6-826.9,0c-99.5,210.5-38.3,449.8,231.6,905.3c95.7,158.9,176.1,290.9,181.8,290.9S5088,1921.1,5181.8,1762.3z"/><path d="M3468.7,1191.9v-153.1h153.1H3775v153.1V1345h-153.1h-153.1V1191.9z"/><path d="M6225,1191.9v-153.1h153.1h153.1v153.1V1345h-153.1H6225V1191.9z"/><path d="M4885.2-1598.8c-157-86.1-227.8-258.4-157-386.6c86.1-157,258.4-227.8,386.6-157c157,86.1,227.8,258.4,157,386.6C5185.7-1598.8,5013.4-1528,4885.2-1598.8z"/><path d="M4387.5-4090.9v-382.8H2243.7H100v-153.1V-4780h2168.6c2074.9,0,2170.6,1.9,2233.7,36.4c36.4,19.1,91.9,67,124.4,105.3l57.4,72.7l5.7,428.7l5.7,428.8h-153.1h-155V-4090.9z"/><path d="M5310.1-4136.9l5.7-428.7l57.4-72.7c32.5-38.3,88-86.1,124.4-105.3c63.2-34.5,158.9-36.4,2233.7-36.4H9900v153.1v153.1H7756.2H5612.5v382.8v382.8h-155h-153.1L5310.1-4136.9z"/></g></g>
</svg>