<?xml version="1.0" encoding="utf-8"?>
<!-- Svg Vector Icons : http://www.onlinewebfonts.com/icon -->
<!DOCTYPE svg PUBLIC "-//W3C//DTD SVG 1.1//EN" "http://www.w3.org/Graphics/SVG/1.1/DTD/svg11.dtd">
<svg version="1.1" xmlns="http://www.w3.org/2000/svg" xmlns:xlink="http://www.w3.org/1999/xlink" x="0px" y="0px" viewBox="0 0 1000 1000" enable-background="new 0 0 1000 1000" xml:space="preserve">
<metadata> Svg Vector Icons : http://www.onlinewebfonts.com/icon </metadata>
<g><g transform="translate(0.000000,433.000000) scale(0.100000,-0.100000)"><path d="M100-421.2v-3893.2l245-5.7l243.1-5.7l5.7-243.1l5.7-245h486.2h488.1v248.8v248.8H5000h3426.2v-248.8v-248.8h488.1h486.2l5.7,245l5.7,243.1l245,5.7l243.1,5.7v3893.2v3895.1H5000H100V-421.2z M9574.6-402v-3588.9H5000H425.4V-402v3588.9H5000h4574.6V-402z M1248.4-4412v-76.6h-162.7H923v76.6v76.6h162.7h162.7V-4412z M9077-4412v-76.6h-162.7h-162.7v76.6v76.6h162.7H9077V-4412z"/><path d="M750.8-402v-3263.5h3512.3h3512.3V-402v3263.5H4263.1H750.8V-402z M2224.6,1148.4V-239.3h-574.2h-574.2v130.2V19.1l245,245l243.1,243.1L1669.5,400c112.9-114.8,206.7-168.4,262.2-147.4c72.7,24.9,120.6,88,120.6,156.9c0,61.3-23,91.9-243.1,312l-245,245l-243.1-243.1l-245-245v95.7v95.7l243.1,243.1l243.1,243.1l128.2-122.5c111-109.1,137.8-124.4,201-124.4c97.6,0,160.8,59.3,160.8,151.2c0,61.3-23,91.9-243.1,312l-245,245l-243.1-243.1l-245-245v95.7v95.7l248.8,248.8l248.8,248.8l130.2-130.2c143.6-143.6,204.8-160.8,298.6-88.1c38.3,30.6,49.8,55.5,49.8,116.8c0,72.7-13.4,90-239.3,319.6l-237.3,241.2L1325,2028.8L1076.2,1780v379v377.1h574.2h574.2V1148.4z M4177,1148.4V-239.3h-813.5H2550v1387.7v1387.7h813.5H4177V1148.4z M5976.2,1148.4V-239.3h-736.9h-736.9v1387.7v1387.7h736.9h736.9V1148.4z M7450,2407.8v-130.2l-243.1-243.1l-243.1-243.1l-130.1,124.4c-109.1,103.4-141.6,122.5-199.1,122.5c-88.1,0-160.8-70.8-160.8-157c0-55.5,30.6-93.8,243.1-306.3l245-245l243.1,243.1l245,245v-95.7v-95.7L7201.2,1378l-246.9-246.9l-134,128.2c-105.3,103.4-143.6,128.2-191.4,128.2c-86.1,0-155-72.7-155-164.6c0-63.2,21-90,239.3-312l237.4-241.2l250.7,248.8l248.8,248.8v-95.7v-95.7l-248.8-248.8l-246.9-246.9l-134,128.2c-139.7,134-176.1,149.3-268,99.5c-61.2-30.6-78.5-63.2-78.5-147.4c0-49.8,36.4-97.6,233.5-296.7c128.3-130.2,239.3-233.5,246.9-231.6c7.7,3.8,122.5,107.2,254.6,231.6L7450,491.8V126.3v-365.6h-574.2h-574.2v1387.7v1387.7h574.2H7450V2407.8z M2224.6-1952.4v-1387.7h-574.2h-574.2v130.2v128.2l245,245l243.1,243.1l105.3-107.2c112.9-114.8,206.7-168.5,262.2-147.4c72.7,24.9,120.6,88,120.6,157c0,61.2-23,91.9-243.1,312l-245,245l-243.1-243.1l-245-245v95.7v95.7l243.1,243.1l243.1,243.1l128.2-122.5c111-109.1,137.8-124.4,201-124.4c97.6,0,160.8,59.3,160.8,151.2c0,61.2-23,91.9-243.1,312l-245,245l-243.1-243.1l-245-245v95.7v95.7l243.1,243.1l243.1,243.1l130.2-124.4c111-105.3,141.6-122.5,201-122.5c97.6,0,158.9,61.3,158.9,155c0,67-17.2,90-243.1,313.9l-241.2,241.2l-246.9-245l-245-245v379v377.1h574.2h574.2V-1952.4z M4177-1952.4v-1387.7h-813.5H2550v1387.7v1387.7h813.5H4177V-1952.4z M5976.2-1952.4v-1387.7h-736.9h-736.9v1387.7v1387.7h736.9h736.9V-1952.4z M7450-694.9v-128.2L7203.1-1070l-248.8-248.8l-130.1,128.3c-107.2,107.2-139.7,128.2-193.3,128.2c-88.1,0-157-70.8-157-164.6c0-63.2,21-90,239.3-312l237.4-241.2l250.7,248.8l248.8,248.8v-95.7v-95.7l-248.8-248.8l-246.9-246.9l-134,128.3c-105.3,103.4-143.6,128.2-191.4,128.2c-86.1,0-155-72.7-155-164.6c0-65.1,19.1-91.9,239.3-312l239.3-241.2l248.8,248.8l248.8,248.8v-105.3v-105.3l-233.5-233.5c-130.2-130.2-243.1-235.4-252.7-235.4s-76.6,55.5-147.4,124.4c-130.2,126.3-174.2,143.6-252.7,101.4c-63.2-32.5-88.1-74.6-90-147.4c0-57.4,24.9-91.9,233.5-302.4c128.3-128.3,243.1-235.4,252.7-235.4c11.5,0,126.3,105.3,254.6,233.5l235.4,235.4v-369.4v-367.5h-574.2h-574.2v1387.7v1387.7h574.2H7450V-694.9z"/><path d="M3279.3,2030.7l-235.4-237.3l-68.9,45.9c-78.5,53.6-101.5,55.5-174.2,17.2c-61.3-30.6-78.5-63.2-78.5-149.3c0-49.8,26.8-88.1,157-218.2l158.9-158.9l243.1,243.1l243.1,243.1l134-128.2c134-128.2,187.6-151.2,279.5-116.8c45.9,19.1,91.9,118.7,76.6,178c-9.6,42.1-457.5,518.7-488.1,518.7C3520.4,2268.1,3409.4,2160.9,3279.3,2030.7z"/><path d="M3292.7,1374.2c-229.7-229.7-245-241.2-277.5-212.5c-126.3,114.8-290.9,59.3-292.8-99.5c0-59.3,19.1-86.1,162.7-229.7l162.7-162.7l245,245l243.1,243.1l124.4-124.4c109.1-109.1,132.1-124.4,195.2-124.4c124.4,0,199.1,116.8,143.6,222c-17.2,30.6-128.2,153.1-246.9,269.9l-216.3,216.3L3292.7,1374.2z"/><path d="M3292.7,725.4l-241.2-243.1l-57.4,42.1c-122.5,86.1-271.8,24.9-271.8-111c0-67,76.6-164.6,245-317.7l82.3-72.7l243.1,241.2l243.1,243.1l122.5-122.5c67-67,141.6-126.3,164.6-132.1c120.6-21.1,227.8,103.4,183.7,212.5c-13.4,30.6-124.4,155-246.9,277.5l-224,224L3292.7,725.4z"/><path d="M5245,2025l-243.1-243.1l-49.8,45.9c-105.3,99.5-277.5,26.8-277.5-118.7c0-47.9,28.7-88,162.7-223.9l160.8-164.6l245,241.2l245,241.2l65.1-44c36.4-24.9,76.6-45.9,89.9-45.9c97.6,0,191.4,109.1,170.4,197.1c-7.7,24.9-82.3,114.8-168.4,201l-157,157L5245,2025z"/><path d="M5245,1374.2l-243.1-243.1l-47.9,44c-105.3,97.6-279.5,24.9-279.5-116.8c0-47.9,28.7-88,162.7-223.9l160.8-164.6l245,245l245,243.1l40.2-38.3c105.3-107.2,283.3-40.2,283.3,103.4c0,63.2-17.2,88-162.7,231.6l-160.8,162.7L5245,1374.2z"/><path d="M5245,725.4l-241.2-243.1l-51.7,42.1c-112.9,88-277.5,19.1-277.5-114.8c0-49.8,26.8-88.1,162.7-225.9l160.8-164.6l245,243.1l245,243.1l53.6-47.9c109.1-93.8,269.9-24.9,269.9,114.8c0,63.2-17.2,88-162.7,231.6l-160.8,162.7L5245,725.4z"/><path d="M3277.3-1072c-208.6-208.6-241.2-235.4-268-210.5c-53.6,49.8-128.2,67-191.4,45.9c-68.9-24.9-95.7-68.9-95.7-155c0-55.5,23-88,162.7-225.9l162.7-162.7l245,243.1l243.1,243.1l126.3-122.5c128.2-124.4,183.8-147.4,275.6-112.9c45.9,19.1,91.9,118.7,76.6,178c-9.6,42.1-457.5,518.7-488.1,518.7C3520.4-832.7,3409.4-939.9,3277.3-1072z"/><path d="M3292.7-1726.6l-241.2-241.2l-51.7,42.1c-118.7,91.9-277.5,24.9-277.5-114.8c0-57.4,21.1-86.1,162.7-227.8l162.7-162.7l245,245l243.1,243.1l124.4-124.4c109.1-109.1,132.1-124.4,195.2-124.4c124.4,0,199.1,116.7,143.6,222c-17.2,30.6-128.2,153.1-246.9,269.9l-216.3,216.3L3292.7-1726.6z"/><path d="M3296.5-2373.5c-132.1-132.1-248.8-239.3-260.3-239.3c-11.5,0-36.4,17.2-55.5,38.3c-23,24.9-59.3,38.3-105.3,38.3c-91.9,0-153.1-63.2-153.1-158.9c0-63.2,17.2-90,145.5-223.9c80.4-84.2,156.9-153.1,168.4-153.1c11.5,0,128.2,107.2,260.3,239.3l239.3,239.3l124.4-122.5c68.9-68.9,145.5-128.2,172.3-135.9c68.9-15.3,164.6,49.8,181.8,122.5c17.2,84.2-19.1,139.7-262.2,379l-216.3,216.3L3296.5-2373.5z"/><path d="M5245-1075.8l-243.1-243.1l-49.8,45.9c-105.3,99.5-277.5,26.8-277.5-118.7c0-47.9,28.7-88,162.7-224l160.8-164.6l245,241.2l245,241.2l67-45.9c116.7-82.3,256.5-17.2,256.5,118.7c0,61.3-19.1,88-162.7,229.7l-160.8,162.7L5245-1075.8z"/><path d="M5245-1724.6l-241.2-243.1l-51.7,42.1c-76.6,59.3-187.6,55.5-237.3-9.6c-76.6-97.6-57.4-149.3,122.5-331.2l160.8-164.6l245,243.1l245,243.1l53.6-47.9c109.1-93.8,269.9-24.9,269.9,114.8c0,63.2-17.2,88-162.7,231.6l-160.8,162.7L5245-1724.6z"/><path d="M5245-2375.4l-241.2-243.1l-51.7,42.1c-112.9,88-277.5,19.1-277.5-114.8c0-49.8,26.8-88.1,162.7-225.9l160.8-164.6l245,243.1l245,243.1l53.6-47.9c109.1-93.8,269.9-24.9,269.9,114.8c0,63.2-17.2,88-162.7,231.6l-160.8,162.7L5245-2375.4z"/><path d="M8100.8,2373.4v-488.1H8675h574.2v488.1v488.1H8675h-574.2V2373.4z M8923.8,2373.4v-162.7H8675h-248.8v162.7v162.7H8675h248.8V2373.4z"/><path d="M8100.8,1224.9V736.8H8675h574.2v488.1V1713H8675h-574.2V1224.9z M8923.8,1224.9v-162.7H8675h-248.8v162.7v162.7H8675h248.8V1224.9z"/><path d="M8424.3-1929.5c-202.9-84.2-363.7-246.9-438.3-447.9c-59.3-157-47.9-377.1,26.8-530.2c70.8-143.6,206.7-281.3,357.9-357.9c111-59.3,137.8-65.1,294.8-65.1c155,0,185.7,5.7,302.4,61.3c254.6,120.6,413.4,350.3,430.7,620.1c9.6,178-23,290.9-132.1,453.6C9086.5-1929.5,8713.3-1810.8,8424.3-1929.5z M8807.1-2222.3c3.8-3.8-40.2-59.3-99.5-120.6c-91.9-95.7-109.1-124.4-109.1-183.7c0-88,68.9-162.7,153.1-162.7c47.9,0,86.1,24.9,179.9,114.8c67,63.2,126.3,109.1,132.1,101.4c7.7-5.7,13.4-67,13.4-134c0-132.1-38.3-231.6-118.7-306.3c-153.1-143.6-446-132.1-593.4,24.9c-70.8,74.7-91.9,141.7-91.9,279.5c0,214.4,112.9,359.8,308.2,396.2C8655.9-2199.3,8786-2205.1,8807.1-2222.3z"/></g></g>
</svg>