<?xml version="1.0" encoding="utf-8"?>
<!-- Svg Vector Icons : http://www.onlinewebfonts.com/icon -->
<!DOCTYPE svg PUBLIC "-//W3C//DTD SVG 1.1//EN" "http://www.w3.org/Graphics/SVG/1.1/DTD/svg11.dtd">
<svg version="1.1" xmlns="http://www.w3.org/2000/svg" xmlns:xlink="http://www.w3.org/1999/xlink" x="0px" y="0px" viewBox="0 0 1000 1000" enable-background="new 0 0 1000 1000" xml:space="preserve">
<metadata> Svg Vector Icons : http://www.onlinewebfonts.com/icon </metadata>
<g><path d="M955.5,333.8c-17.9-33.3-36.3-46.7-39.8-49.1c-12.1-8.1-31.4-13.9-45.9-13.9H134.3c-14.6,0-34,6-46.1,14.4c-2.2,1.5-22.2,16-41.3,50C22.4,378.8,10,433.8,10,498.9c0,141.9,73.9,209.5,77.1,212.3c11.7,10.4,31.5,18,47.2,18h735.5c14.3,0,33.5-5.6,45.6-13.2c3.6-2.3,22.3-15.3,40.2-48.9c22.8-42.8,34.4-99.3,34.4-168.1C990,432.1,978.4,376.5,955.5,333.8z M643.6,678.3H409.3v-72.3h234.3V678.3z M912.9,638.8c-11.8,23.7-23.5,33.2-25.1,34.3c-4.2,2.5-13.4,5.1-18,5.1H694.6v-87.6c0-19.7-16-35.7-35.7-35.7H394.1c-19.7,0-35.7,16-35.7,35.7v87.6H134.3c-3.2,0-10.7-2.8-13.2-5c-1-1-15.7-15-30.1-42.5c-19.9-38-30-82.4-30-131.9c0-67.8,15.5-111.1,28.6-135.5c13.2-24.7,26.5-35.4,27.9-36.5c3.7-2.5,12.6-5.2,16.9-5.2h735.5c4.4,0,13.4,2.7,17.3,5.2c1.5,1.1,13.5,11,25.5,34.8c12.1,24,26.5,67.3,26.5,137.2C939.1,570.9,924.8,614.7,912.9,638.8z"/><path d="M775.5,397.8c-37.2,0-68.7,32.6-68.7,71.2c0,37.9,30.8,68.7,68.7,68.7c37.9,0,68.7-30.8,68.7-68.7C844.2,430.4,812.7,397.8,775.5,397.8z M775.5,486.8c-9.8,0-17.8-8-17.8-17.8c0-10.4,8.6-20.2,17.8-20.2c9.1,0,17.8,9.8,17.8,20.2C793.3,478.8,785.3,486.8,775.5,486.8z"/></g>
</svg>