<?xml version="1.0" encoding="utf-8"?>
<!-- Svg Vector Icons : http://www.onlinewebfonts.com/icon -->
<!DOCTYPE svg PUBLIC "-//W3C//DTD SVG 1.1//EN" "http://www.w3.org/Graphics/SVG/1.1/DTD/svg11.dtd">
<svg version="1.1" xmlns="http://www.w3.org/2000/svg" xmlns:xlink="http://www.w3.org/1999/xlink" x="0px" y="0px" viewBox="0 0 1000 1000" enable-background="new 0 0 1000 1000" xml:space="preserve">
<metadata> Svg Vector Icons : http://www.onlinewebfonts.com/icon </metadata>
<g><g transform="translate(0.000000,511.000000) scale(0.100000,-0.100000)"><path d="M722.3,4704.4v-312.9l-103-27.7c-184.2-47.5-372.3-277.3-372.3-455.5c0-178.2,188.1-408,372.3-455.5l103-27.7V977.2v-2447.8l-103-27.7c-184.2-47.5-372.3-277.2-372.3-455.5c0-146.6,142.6-356.5,291.1-425.8c41.6-19.8,77.2-37.6,81.2-39.6c2-2-67.3-150.5-152.5-328.8c-263.4-540.7-360.4-903.1-366.4-1354.6c-2-235.7,2-265.4,45.5-346.6c63.4-122.8,170.3-231.7,289.1-293.1c140.6-73.3,334.7-73.3,475.3,0c118.8,61.4,243.6,192.1,291.1,303c19.8,43.6,51.5,188.1,75.3,322.8c73.3,457.5,174.3,689.2,554.5,1299.2l243.6,388.2H5000h2923.1l245.6-390.2c380.2-608,491.1-873.4,564.4-1342.7c39.6-245.6,87.1-360.4,202-467.4c124.8-120.8,231.7-164.4,392.1-164.4c110.9,0,158.4,9.9,237.6,51.5c118.8,61.4,225.8,170.3,289.1,293.1c43.6,81.2,47.5,110.9,45.6,346.6c-6,451.5-103,813.9-366.4,1354.6c-85.2,178.2-154.5,326.8-152.5,328.8c4,2,39.6,19.8,81.2,39.6c148.5,69.3,291.1,279.2,291.1,425.8c0,178.2-188.1,408-372.3,455.5l-103,27.7V977.2V3425l103,27.7c184.2,47.5,372.3,277.3,372.3,455.5c0,178.2-188.1,408-372.3,455.5l-103,27.7v312.9v312.9H5000H722.3V4704.4z M8960.9,4542v-158.4H5000H1039.1V4542v158.4H5000h3960.9V4542z M9396.6,4027.1c53.5-53.5,53.5-184.2,0-237.7c-39.6-39.6-65.4-39.6-4396.6-39.6c-4331.2,0-4357,0-4396.6,39.6c-25.7,25.7-39.6,65.4-39.6,118.8c0,53.5,13.9,93.1,39.6,118.8c39.6,39.6,65.4,39.6,4396.6,39.6C9331.2,4066.7,9357,4066.7,9396.6,4027.1z M8960.9,977.2v-2455.7h-158.4H8644v475.3v475.3H5000H1356v-475.3v-475.3h-158.4h-158.4V977.2v2455.7H5000h3960.9V977.2z M8327.1-1161.7v-316.9H5000H1672.9v316.9v316.9H5000h3327.1V-1161.7z M9396.6-1835c53.5-53.5,53.5-184.2,0-237.7c-39.6-39.6-65.4-39.6-4396.6-39.6c-4331.2,0-4357,0-4396.6,39.6c-25.7,25.7-39.6,65.4-39.6,118.8s13.9,93.1,39.6,118.8c39.6,39.6,65.4,39.6,4396.6,39.6C9331.2-1795.4,9357-1795.4,9396.6-1835z M1692.7-2439.1c0-5.9-75.3-130.7-166.4-275.3C1156-3304.5,1051-3562,959.9-4102.6c-23.8-148.5-53.5-255.5-75.3-287.2c-110.9-148.5-374.3-126.8-451.5,35.6c-27.7,59.4-31.7,107-21.8,310.9c23.8,427.8,99,675.3,382.2,1243.7l186.2,370.4h356.5C1532.2-2429.2,1692.7-2433.1,1692.7-2439.1z M9206.5-2799.5c283.2-568.4,358.4-815.9,382.2-1243.7c9.9-204,5.9-251.5-21.8-310.9c-77.2-162.4-340.6-184.2-451.5-35.6c-21.8,31.7-51.5,138.6-75.3,287.2c-49.5,287.1-99,469.4-190.1,699.1c-83.2,204-134.7,299.1-366.4,669.4c-97.1,154.5-176.3,285.2-176.3,293.1c0,5.9,160.4,11.9,356.5,11.9h356.5L9206.5-2799.5z"/><path d="M4603.9,3104.2c-441.6-31.7-962.5-118.8-1346.7-225.8c-469.4-128.7-732.8-231.7-1465.5-570.4l-425.8-198L1360,949.5l-4-1160.5h3644h3644l-4,1160.5l-5.9,1160.5l-425.8,198c-233.7,108.9-528.8,239.6-653.5,293.1c-566.4,237.7-1192.2,400.1-1841.8,475.3C5514.9,3098.2,4788.1,3118,4603.9,3104.2z M5812,2749.7c324.8-45.5,665.4-116.8,948.6-198c398.1-116.8,586.2-192.1,1414-572.3l152.5-69.3v-903.1V105.8H5000H1672.9l4,903.1l5.9,903.1l297.1,138.6c707,326.8,1051.6,455.5,1513.1,568.4c255.5,63.4,659.5,130.7,942.7,160.4C4699,2805.1,5542.6,2787.3,5812,2749.7z"/><path d="M2465,1927.8v-79.2h-237.7h-237.7v-158.4v-158.4h237.7H2465v-316.9V898h-237.7h-237.7V739.5V581.1h237.7H2465v-79.2v-79.2h158.4h158.4v79.2v79.2h633.7h633.7v-79.2v-79.2h158.4h158.4v79.2v79.2H5000h633.7v-79.2v-79.2h158.4h158.4v79.2v79.2h633.7h633.7v-79.2v-79.2h158.4H7535v79.2v79.2h237.7h237.7v158.4V898h-237.7H7535v316.9v316.9h237.7h237.7v158.4v158.4h-237.7H7535v79.2v79.2h-158.4h-158.4v-79.2v-79.2h-633.7h-633.7v79.2v79.2h-158.4h-158.4v-79.2v-79.2H5000h-633.7v79.2v79.2h-158.4h-158.4v-79.2v-79.2h-633.7h-633.7v79.2v79.2h-158.4H2465V1927.8z M4049.4,1214.8V898h-633.7h-633.7v316.9v316.9h633.7h633.7V1214.8z M5633.7,1214.8V898H5000h-633.7v316.9v316.9H5000h633.7V1214.8z M7218.1,1214.8V898h-633.7h-633.7v316.9v316.9h633.7h633.7V1214.8z"/><path d="M3890.9-1161.7v-158.4h1109h1109v158.4v158.4H5000h-1109V-1161.7z"/></g></g>
</svg>