<?xml version="1.0" encoding="utf-8"?>
<!-- Svg Vector Icons : http://www.onlinewebfonts.com/icon -->
<!DOCTYPE svg PUBLIC "-//W3C//DTD SVG 1.1//EN" "http://www.w3.org/Graphics/SVG/1.1/DTD/svg11.dtd">
<svg version="1.1" xmlns="http://www.w3.org/2000/svg" xmlns:xlink="http://www.w3.org/1999/xlink" x="0px" y="0px" viewBox="0 0 1000 1000" enable-background="new 0 0 1000 1000" xml:space="preserve">
<metadata> Svg Vector Icons : http://www.onlinewebfonts.com/icon </metadata>
<g><path d="M496.6,990c-232,0-396.5-160.3-396.5-381.2c0-117.3,70.6-243.6,73.6-248.9c6.1-10.9,18.2-16.8,30.7-15.4c12.4,1.6,22.6,10.5,25.8,22.6c0.2,0.7,19.2,71.6,44.3,111c16.9,26.5,34,45.2,53.2,58.2c-13-56.2-23-140.8-6.8-227.6C365.4,70.5,553.6,13.5,561.6,11.2c10.4-3,21.4-0.3,29.3,6.9c7.9,7.2,11.5,18,9.4,28.4c-0.3,1.7-31.4,168.5,34.5,310.6c6,12.9,14.3,27.9,23.3,42.9c2.5-20.6,6.5-42.5,12.6-63.8c24.2-84.3,86.7-113.1,89.4-114.3c10.4-4.7,22.6-3.2,31.6,3.9c9,7.1,13.3,18.5,11.2,29.7c-0.3,2.1-9,59.4,39.9,140.8c44.2,73.5,57,121.1,57,212.5C899.9,829.7,730.3,990,496.6,990z M195.9,457.5c-16.9,42.5-34.3,99-34.3,151.3c0,185.4,138.6,319.9,335,319.9c198.1,0,341.8-134.5,341.8-319.9c0-80.1-9.9-117.2-48.2-180.9c-25.6-42.5-38.2-80.7-44.3-111.2c-6.1,9.8-11.8,21.8-15.9,36.3c-18.8,65.4-14,141.8-14,142.6c0.9,13.7-7.5,26.3-20.4,30.9c-13,4.6-27.4,0.1-35.4-11.2c-2.3-3.3-57-80.5-81.2-132.5C528.9,274.9,529.8,158.2,534.9,91c-50.7,29.4-128.5,95.2-153.5,229c-24.3,130.2,22.9,260.3,23.5,261.6c4.1,10.6,1.9,22.7-5.6,31.2c-7.5,8.5-19.1,12.3-30.3,9.6c-3.8-0.9-90.4-23.4-146.5-111.4C212.4,495.2,203.4,476.1,195.9,457.5z"/></g>
</svg>