<?xml version="1.0" encoding="utf-8"?>
<!-- Svg Vector Icons : http://www.onlinewebfonts.com/icon -->
<!DOCTYPE svg PUBLIC "-//W3C//DTD SVG 1.1//EN" "http://www.w3.org/Graphics/SVG/1.1/DTD/svg11.dtd">
<svg version="1.1" xmlns="http://www.w3.org/2000/svg" xmlns:xlink="http://www.w3.org/1999/xlink" x="0px" y="0px" viewBox="0 0 1000 1000" enable-background="new 0 0 1000 1000" xml:space="preserve">
<metadata> Svg Vector Icons : http://www.onlinewebfonts.com/icon </metadata>
<g><g transform="translate(0.000000,511.000000) scale(0.100000,-0.100000)"><path d="M1004.8,4952.5l-53.1-57.5L945.1,52.5L940.6-4790H5000h4059.4V54.7v4846.9l-55.3,53.1L8951,5010H5004.4H1057.9L1004.8,4952.5z M8683.3,4359.6v-294.2H5000H1316.7v280.9c0,154.9,6.6,287.6,15.5,294.2c6.6,8.9,1665.8,15.5,3683.3,15.5h3667.8V4359.6z M8683.3,21.5v-3683.3H5000H1316.7V21.5v3683.3H5000h3683.3V21.5z M8683.3-4225.9v-188H5000H1316.7v188v188H5000h3683.3V-4225.9z"/><path d="M2068.8,121.1v-3207.7H5000h2931.2V121.1v3207.7H5000H2068.8V121.1z M7555.1,2477v-475.6H5000H2444.9v460.1c0,254.4,6.6,469,15.5,475.6c6.6,8.9,1157,15.5,2555.1,15.5h2539.6V2477z M7555.1-553.7v-2179l-2548.4,4.4l-2550.7,6.6L2449.4-547l-4.4,2172.4H5000h2555.1V-553.7z"/><path d="M2843.1,2565.5v-188h276.5h276.5v188v188h-276.5h-276.5V2565.5z"/><path d="M3794.4,2634.1c0-64.2-6.6-150.4-13.3-188l-13.3-68.6h289.8h289.8v188v188h-276.5h-276.5V2634.1z"/><path d="M4723.5,2565.5v-188H5000h276.5v188v188H5000h-276.5V2565.5z"/><path d="M5674.7,2565.5v-188h276.5h276.5v188v188h-276.5h-276.5V2565.5z"/><path d="M6619.3,2673.9c-6.6-42-6.6-126.1,0-188l13.3-108.4h272.1H7179v188v188h-274.3h-272.1L6619.3,2673.9z"/></g></g>
</svg>