<?xml version="1.0" encoding="utf-8"?>
<!-- Svg Vector Icons : http://www.onlinewebfonts.com/icon -->
<!DOCTYPE svg PUBLIC "-//W3C//DTD SVG 1.1//EN" "http://www.w3.org/Graphics/SVG/1.1/DTD/svg11.dtd">
<svg version="1.1" xmlns="http://www.w3.org/2000/svg" xmlns:xlink="http://www.w3.org/1999/xlink" x="0px" y="0px" viewBox="0 0 1000 1000" enable-background="new 0 0 1000 1000" xml:space="preserve">
<metadata> Svg Vector Icons : http://www.onlinewebfonts.com/icon </metadata>
<g><g transform="translate(0.000000,512.000000) scale(0.100000,-0.100000)"><path d="M147.9,4972.1l-47.9-45.9V120v-4806.2l47.9-45.9l45.9-47.9H5000h4806.2l45.9,47.9l47.9,45.9V120v4806.2l-47.9,45.9l-45.9,47.9H5000H193.8L147.9,4972.1z M9593.7,120v-4593.7H5000H406.2V120v4593.7H5000h4593.7V120z"/><path d="M1018.7,4382.6c-36.4-11.5-111-65.1-162.7-118.7c-135.9-134-174.2-277.5-120.6-457.5c30.6-105.3,189.5-264.1,294.8-294.8c179.9-53.6,323.5-15.3,457.5,120.6c195.2,193.3,195.2,438.3,0,631.6C1353.7,4399.8,1196.8,4438.1,1018.7,4382.6z M1277.1,4053.4c95.7-93.8,28.7-258.4-105.3-258.4c-78.5,0-153.1,74.6-153.1,153.1s74.6,153.1,153.1,153.1C1208.2,4101.2,1248.4,4084,1277.1,4053.4z"/><path d="M4569.3,4388.4c-765.6-80.4-1517.8-377.1-2153.3-847.9c-233.5-174.2-662.3-602.9-836.5-836.4C635.9,1435,452.2-184.3,1087.7-1629.5c201-459.4,497.7-884.3,888.1-1274.8c269.9-269.9,501.5-455.5,796.3-635.5c1003-616.3,2222.2-784.8,3376.4-467c539.8,147.4,1070,417.3,1517.9,771.4c176.1,137.8,549.3,511.1,689.1,687.1C9316.2-1327,9551.6,309.5,8969.8,1735.5c-224,549.3-520.6,989.6-962.8,1427.9c-650.8,645-1416.4,1035.5-2327.5,1188.6C5413.4,4396,4835.4,4415.2,4569.3,4388.4z M5384.7,4080.2c775.2-78.5,1506.4-377.1,2113.1-859.4c1029.8-821.1,1596.3-2170.5,1464.3-3485.5c-158.9-1565.7-1213.5-2892.2-2695-3386c-2097.8-700.5-4360.2,432.6-5045.5,2526.6C951.8-303,951.8,543,1221.6,1364.1C1614,2562.3,2559.6,3509.8,3755.9,3898.4C4297.5,4074.5,4848.8,4135.7,5384.7,4080.2z"/><path d="M4980.9,3775.9c-365.6-38.3-476.6-74.6-622.1-212.5c-111-105.3-183.8-235.4-233.5-419.2c-49.8-185.7-44-614.4,11.5-878.6c34.5-158.9,162.7-589.5,220.1-729.3c7.7-21.1-23-45.9-116.8-95.7c-93.8-45.9-181.8-118.7-312-248.8c-151.2-149.3-199.1-212.5-275.6-361.8l-91.9-179.9l-176.1,11.5c-373.2,21.1-627.8,170.4-1200.1,708.2c-359.8,336.9-415.3,379-526.4,392.4c-74.6,7.7-88.1,1.9-149.3-61.2c-116.8-118.7-158.9-336.9-178-930.2c-11.5-402,13.4-817.3,63.2-1039.3C1453.2-527,1650.4-705,1975.8-793c93.8-24.9,193.3-32.5,402-32.5c336.9,1.9,549.3,42.1,966.6,181.8c166.5,55.5,289,88.1,292.8,76.6c19.1-59.3,176.1-275.6,277.5-380.9c120.6-124.4,319.7-268,440.2-319.6c57.4-23,67-36.4,78.5-116.7c5.7-49.8,1.9-143.6-7.7-210.5c-51.7-323.5-241.2-614.4-740.7-1138.9c-298.6-312-354.1-390.5-357.9-493.8c-5.7-239.3,269.9-313.9,1146.5-315.8c769.5-1.9,993.4,40.2,1179.1,220.1c195.2,191.4,275.6,465.1,260.3,888.1c-13.4,306.3-63.2,549.3-185.7,909.2c-42.1,124.4-76.6,235.4-76.6,246.9c0,9.6,53.6,45.9,116.7,80.4c208.6,111,461.3,375.2,580,602.9c49.8,97.6,53.6,99.5,155,112.9c55.5,5.7,155,1.9,220.1-9.6c329.2-59.3,606.8-243.1,1140.8-750.3c302.4-289,380.9-344.5,484.3-348.4c237.3-5.7,313.9,268,315.8,1146.5c1.9,769.5-38.3,993.4-220.1,1179.1c-317.7,327.3-1006.8,354.1-1814.6,70.8c-120.6-44-223.9-68.9-225.8-59.3c-3.8,9.6-49.8,86.1-99.5,170.3c-147.4,237.3-423,488.1-654.6,591.4l-74.7,34.4v145.5c0,379,160.8,662.3,710.1,1242.2c403.9,428.8,461.3,539.8,352.2,669.9c-107.2,126.3-377.1,176.1-1033.6,185.7C5350.3,3789.3,5070.8,3785.4,4980.9,3775.9z M6158,3450.5c63.2-11.5,122.5-28.7,132.1-38.3s-97.6-135.9-241.2-285.2c-289-300.5-426.8-470.9-570.4-708.2c-124.4-208.6-174.2-365.6-185.7-597.2l-11.5-183.8l-231.6,1.9c-126.3,1.9-266-1.9-308.2-7.7l-74.6-9.6l-65.1,172.3c-91.9,246.9-174.2,581.9-201,809.6c-36.4,338.8,36.4,647,183.7,758c65.1,49.8,204.8,84.2,434.5,109.1C5218.2,3492.6,6018.3,3477.3,6158,3450.5z M1989.2,1130.6C2506,638.7,2831.4,455,3290.7,403.3l193.3-23l-9.6-174.2c-5.7-99.5-1.9-229.7,11.5-306.3c13.4-74.7,15.3-137.8,5.7-147.4c-28.7-28.7-467-170.3-673.8-218.2c-384.7-88.1-702.5-78.5-914.9,22.9c-139.7,67-185.7,137.8-224,333.1c-70.8,371.3-47.9,1493,30.6,1493C1719.3,1383.3,1845.6,1270.4,1989.2,1130.6z M5258.4,1316.3c350.3-72.7,677.6-327.3,830.7-645c239.3-493.8,147.4-1043.2-237.4-1424c-476.6-472.8-1236.5-467-1715,9.6c-482.3,482.3-482.3,1244.1,0,1726.5C4435.4,1279.9,4845,1402.4,5258.4,1316.3z M7913.2,673.2c124.4-26.8,258.4-93.8,317.7-156.9c61.3-65.1,93.8-206.7,120.6-501.5c36.4-398.1,0-1159.9-55.5-1219.3c-7.7-7.6-134,99.5-283.3,239.3c-329.2,312-417.3,384.7-606.8,507.2c-281.4,183.8-461.3,246.9-740.7,262.2l-162.7,7.7l9.6,63.2c5.7,34.5,7.7,172.3,7.7,306.3l-1.9,243.1l149.3,57.4C7130.4,657.9,7624.2,734.4,7913.2,673.2z M5407.7-1568.2c220.1-606.8,264.1-1125.5,118.7-1414.5c-70.8-139.7-134-179.9-338.8-220.1c-327.3-63.2-1435.6-42.1-1479.6,30.6c-3.8,7.7,112.9,141.7,260.3,298.6c317.7,335,484.3,549.3,599.1,773.3c103.4,199.1,143.6,350.3,151.2,553.2l3.8,153.1l191.4-9.6c105.3-5.8,235.4-1.9,287.1,7.6c53.6,9.6,105.3,19.1,114.8,21.1C5327.3-1374.9,5369.4-1461,5407.7-1568.2z"/><path d="M4772.2,1008.1C4288,878,3987.5,374.6,4110-100.1c128.2-490,629.7-794.3,1110.2-669.9c490,128.2,794.3,629.7,669.9,1106.3C5761.8,832,5252.7,1138.3,4772.2,1008.1z M5258.4,673.2c120.6-57.4,235.4-172.3,296.7-294.8c67-137.8,67-379,0-516.8c-59.3-122.5-174.2-237.4-296.7-296.7c-137.8-67-379-67-516.8,0c-497.7,243.1-455.5,947.5,67,1137C4929.2,745.9,5134,732.5,5258.4,673.2z"/><path d="M8675,4382.6c-93.8-30.6-254.6-195.2-283.3-292.9c-53.6-179.9-15.3-323.5,120.6-457.5c97.6-99.5,195.2-143.6,315.8-143.6c237.4,0,459.4,222,459.4,459.4c0,120.6-44,218.2-143.6,315.8C9010,4399.8,8853,4438.1,8675,4382.6z M8933.4,4053.4c30.6-28.7,47.9-68.9,47.9-105.3s-17.2-76.6-47.9-105.3c-28.7-30.6-68.9-47.9-105.3-47.9s-76.6,17.2-105.3,47.9c-30.6,28.7-47.9,68.9-47.9,105.3s17.2,76.6,47.9,105.3c28.7,30.6,68.9,47.9,105.3,47.9S8904.7,4084,8933.4,4053.4z"/><path d="M1018.7-3273.6c-93.8-30.6-254.6-195.2-283.3-292.8c-53.6-179.9-15.3-323.5,120.6-457.5c134-135.9,277.5-174.2,457.5-120.6c105.3,30.6,264.1,189.5,294.8,294.8c53.6,179.9,15.3,323.5-120.6,457.5C1353.7-3256.4,1196.8-3218.1,1018.7-3273.6z M1277.1-3602.9c30.6-28.7,47.9-68.9,47.9-105.3s-17.2-76.6-47.9-105.3c-28.7-30.6-68.9-47.9-105.3-47.9s-76.6,17.2-105.3,47.9c-30.6,28.7-47.9,68.9-47.9,105.3s17.2,76.6,47.9,105.3c28.7,30.6,68.9,47.9,105.3,47.9S1248.4-3572.2,1277.1-3602.9z"/><path d="M8675-3273.6c-93.8-30.6-254.6-195.2-283.3-292.8c-53.6-179.9-15.3-323.5,120.6-457.5c193.3-195.2,438.3-195.2,631.6,0c99.5,97.6,143.6,195.2,143.6,315.8s-44,218.2-143.6,315.8C9010-3256.4,8853-3218.1,8675-3273.6z M8933.4-3602.9c95.7-93.8,28.7-258.4-105.3-258.4c-78.5,0-153.1,74.7-153.1,153.1s74.7,153.1,153.1,153.1C8864.5-3555,8904.7-3572.2,8933.4-3602.9z"/></g></g>
</svg>