<?xml version="1.0" encoding="utf-8"?>
<!-- Svg Vector Icons : http://www.onlinewebfonts.com/icon -->
<!DOCTYPE svg PUBLIC "-//W3C//DTD SVG 1.1//EN" "http://www.w3.org/Graphics/SVG/1.1/DTD/svg11.dtd">
<svg version="1.1" xmlns="http://www.w3.org/2000/svg" xmlns:xlink="http://www.w3.org/1999/xlink" x="0px" y="0px" viewBox="0 0 1000 1000" enable-background="new 0 0 1000 1000" xml:space="preserve">
<metadata> Svg Vector Icons : http://www.onlinewebfonts.com/icon </metadata>
<g><g transform="translate(0.000000,511.000000) scale(0.100000,-0.100000)"><path d="M3632.5,4929.9c-365.9-245.3-525.3-678.6-361.8-991.4c65.4-126.7,124.7-192.1,337.3-376.1c198.3-173.8,247.3-245.3,247.3-357.7c-2-177.8-108.3-343.4-294.3-468.1c-114.5-75.6-134.9-104.3-134.9-188.1c0-65.4,85.9-151.3,149.2-151.3c65.4,0,271.9,134.9,363.8,239.2c233,259.6,300.5,592.8,171.7,840.1c-63.4,122.6-124.7,190.1-335.2,372c-198.3,173.7-247.3,245.3-247.3,357.7c0,165.6,81.8,282.1,365.9,523.3c79.7,69.5,85.8,161.5,12.3,233C3836.9,5034.1,3777.7,5025.9,3632.5,4929.9z"/><path d="M5098.1,4925.8c-71.5-49.1-171.7-143.1-226.9-208.5c-132.9-165.6-184-306.6-186-511c-2-247.3,67.5-361.8,394.5-643.9c198.3-173.8,247.3-245.3,247.3-357.7c-2-177.8-108.3-343.4-294.4-468.1c-114.5-75.6-134.9-104.3-134.9-188.1c0-65.4,85.9-151.3,149.2-151.3c69.5,0,275.9,139,380.2,257.6c220.8,251.4,284.1,576.4,157.4,817.6c-65.4,126.7-124.7,192.1-337.3,376.1c-198.3,173.7-247.3,245.3-247.3,357.7c0,165.6,81.8,282.1,365.9,523.3c79.7,69.5,85.8,161.5,12.3,233C5308.7,5034.1,5245.3,5025.9,5098.1,4925.8z"/><path d="M6569.8,4925.8c-71.5-49.1-171.7-143.1-226.9-208.5c-132.9-165.6-184-306.6-186-511c-2-247.3,67.5-361.8,394.5-643.9c198.3-173.8,247.3-245.3,247.3-357.7c-2-177.8-108.3-343.4-294.4-468.1c-114.5-75.6-134.9-104.3-134.9-188.1c0-61.3,83.8-151.3,143.1-151.3c120.6,0,419,249.4,509,425.2c116.5,226.9,128.8,470.1,34.7,650c-65.4,126.7-124.7,192.1-337.3,376.1c-198.3,173.7-247.3,245.3-247.3,357.7c0,165.6,81.8,282.1,365.9,523.3c79.7,69.5,85.8,161.5,12.2,233C6780.4,5034.1,6717,5025.9,6569.8,4925.8z"/><path d="M625.7,2051.8c-143.1-47-247.3-134.9-318.9-267.8c-36.8-69.5-38.8-177.8-38.8-2820.8V-3786l45-81.8c75.6-143.1,204.4-237.1,359.7-265.7l75.6-14.3v-251.4c0-139,8.2-275.9,18.4-302.5c26.6-69.5,128.8-108.3,204.4-77.7c87.9,36.8,104.2,100.1,104.2,378.2v253.4l75.6,14.3c245.3,45,392.5,224.8,410.8,494.7l10.2,149.2h157.4h157.4l10.2-149.2c14.3-220.8,100.2-359.8,282.1-455.8c106.3-57.2,629.6-57.2,735.9,0c181.9,96.1,267.8,235.1,282.1,457.9l10.2,147.2h157.4h157.4l10.2-147.2c14.3-222.8,100.2-361.8,282.1-457.9c106.3-57.2,629.6-57.2,735.9,0c181.9,96.1,267.8,235.1,282.1,457.9l10.2,147.2H5000h157.4l10.2-149.2c14.3-220.8,100.1-359.8,282.1-455.8c61.3-32.7,118.5-38.8,367.9-38.8c265.7,0,304.6,4.1,378.1,45c173.8,92,257.6,233,271.9,449.7l10.2,149.2h157.4h157.4l10.2-149.2c14.3-220.8,100.1-359.8,282.1-455.8c61.3-32.7,118.5-38.8,367.9-38.8c265.7,0,304.6,4.1,378.1,45c173.7,92,257.5,233,271.8,449.7l10.2,149.2h157.4h157.4l10.2-149.2c18.4-269.8,165.6-449.7,410.8-494.7l75.6-14.3v-251.4c0-139,8.2-275.9,18.4-302.5c26.6-69.5,128.8-108.3,204.4-77.7c87.9,36.8,104.2,100.1,104.2,378.2v253.4l75.6,14.3c157.4,28.6,286.2,126.7,365.9,276c36.8,69.5,38.8,177.8,38.8,2820.8c0,2643-2,2751.3-38.8,2820.8c-53.1,100.2-130.8,179.9-226.9,231c-73.6,40.9-112.4,45-378.1,45c-265.7,0-304.6-4.1-378.2-45c-173.7-92-257.5-233-271.9-449.7l-10.2-149.2h-157.4h-157.4l-10.2,149.2c-14.3,216.7-98.1,357.7-271.8,449.7c-73.6,40.9-112.4,45-378.1,45c-265.7,0-304.6-4.1-378.2-45c-173.7-92-257.5-233-271.8-449.7l-10.2-149.2h-157.4h-157.4l-10.2,149.2c-14.3,216.7-98.1,357.7-271.9,449.7c-73.6,40.9-112.4,45-378.1,45c-249.4,0-306.6-6.1-367.9-38.8c-181.9-96.1-267.8-235.1-282.1-455.8l-10.2-149.2H5000h-157.4l-10.2,149.2c-14.3,220.8-100.2,359.8-282.1,455.8c-61.3,32.7-118.5,38.8-367.9,38.8c-265.7,0-304.6-4.1-378.2-45c-173.7-92-257.6-233-271.9-449.7l-10.2-149.2h-157.4h-157.4l-10.2,149.2c-14.3,216.7-98.1,357.7-271.9,449.7c-73.6,40.9-112.4,45-378.1,45c-249.4,0-306.6-6.1-367.9-38.8c-181.9-96.1-267.8-235.1-282.1-455.8l-10.2-149.2h-157.4h-157.4l-10.2,149.2c-14.3,220.8-102.2,361.8-282.1,455.8c-57.2,30.7-124.7,38.8-337.3,42.9C795.4,2066.1,654.3,2062.1,625.7,2051.8z M1187.8,1692.1l51.1-49.1v-2679.8v-2679.7l-51.1-49.1c-47-49.1-63.4-51.1-275.9-51.1s-228.9,2-275.9,51.1l-51.1,49.1v2679.7V1643l51.1,49.1c47,49.1,63.4,51.1,275.9,51.1S1140.8,1741.1,1187.8,1692.1z M2823.1,1692.1l51.1-49.1v-2679.8v-2679.7l-51.1-49.1c-47-49.1-63.4-51.1-275.9-51.1s-228.9,2-275.9,51.1l-51.1,49.1v2679.7V1643l51.1,49.1c47,49.1,63.4,51.1,275.9,51.1S2776.1,1741.1,2823.1,1692.1z M4458.3,1692.1l51.1-49.1v-2679.8v-2679.7l-51.1-49.1c-47-49.1-63.4-51.1-275.9-51.1s-228.9,2-276,51.1l-51.1,49.1v2679.7V1643l51.1,49.1c47,49.1,63.4,51.1,276,51.1S4411.3,1741.1,4458.3,1692.1z M6093.6,1692.1l51.1-49.1v-2679.8v-2679.7l-51.1-49.1c-47-49.1-63.4-51.1-276-51.1c-212.6,0-228.9,2-275.9,51.1l-51.1,49.1v2679.7V1643l51.1,49.1c47,49.1,63.3,51.1,275.9,51.1C6030.2,1743.2,6046.6,1741.1,6093.6,1692.1z M7728.8,1692.1l51.1-49.1v-2679.8v-2679.7l-51.1-49.1c-47-49.1-63.3-51.1-275.9-51.1c-212.6,0-228.9,2-275.9,51.1l-51.1,49.1v2679.7V1643l51.1,49.1c47,49.1,63.3,51.1,275.9,51.1C7665.5,1743.2,7681.8,1741.1,7728.8,1692.1z M9364.1,1692.1l51.1-49.1v-2679.8v-2679.7l-51.1-49.1c-47-49.1-63.4-51.1-275.9-51.1s-228.9,2-275.9,51.1l-51.1,49.1v2679.7V1643l51.1,49.1c47,49.1,63.4,51.1,275.9,51.1S9317,1741.1,9364.1,1692.1z M1893,925.6V762h-163.5H1566v163.5v163.5h163.5H1893V925.6z M3528.3,925.6V762h-163.5h-163.5v163.5v163.5h163.5h163.5V925.6z M5163.5,925.6V762H5000h-163.5v163.5v163.5H5000h163.5V925.6z M6798.8,925.6V762h-163.5h-163.5v163.5v163.5h163.5h163.5V925.6z M8434,925.6V762h-163.5H8107v163.5v163.5h163.5H8434V925.6z M1893-1036.7v-1471.7h-163.5H1566v1471.7V435h163.5H1893V-1036.7z M3528.3-1036.7v-1471.7h-163.5h-163.5v1471.7V435h163.5h163.5V-1036.7z M5163.5-1036.7v-1471.7H5000h-163.5v1471.7V435H5000h163.5V-1036.7z M6798.8-1036.7v-1471.7h-163.5h-163.5v1471.7V435h163.5h163.5V-1036.7z M8434-1036.7v-1471.7h-163.5H8107v1471.7V435h163.5H8434V-1036.7z M1893-2999v-163.5h-163.5H1566v163.5v163.5h163.5H1893V-2999z M3528.3-2999v-163.5h-163.5h-163.5v163.5v163.5h163.5h163.5V-2999z M5163.5-2999v-163.5H5000h-163.5v163.5v163.5H5000h163.5V-2999z M6798.8-2999v-163.5h-163.5h-163.5v163.5v163.5h163.5h163.5V-2999z M8434-2999v-163.5h-163.5H8107v163.5v163.5h163.5H8434V-2999z"/></g></g>
</svg>