<?xml version="1.0" encoding="utf-8"?>
<!-- Svg Vector Icons : http://www.onlinewebfonts.com/icon -->
<!DOCTYPE svg PUBLIC "-//W3C//DTD SVG 1.1//EN" "http://www.w3.org/Graphics/SVG/1.1/DTD/svg11.dtd">
<svg version="1.1" xmlns="http://www.w3.org/2000/svg" xmlns:xlink="http://www.w3.org/1999/xlink" x="0px" y="0px" viewBox="0 0 1000 1000" enable-background="new 0 0 1000 1000" xml:space="preserve">
<metadata> Svg Vector Icons : http://www.onlinewebfonts.com/icon </metadata>
<g><path d="M559.8,488H440.2v47.8h119.7V488z M847,368.5h-146c72.5-45.3,98.1-117.7,98.1-191.2H607.7h-47.9H488V57.8h71.8v119.5c5.9-0.5,27.6,0,47.9,0v-47.8h71.8V81.7h-71.8V10H440.2v167.3H200.8c0,29.9,0,14.1,0,23.9c0,74.3,20.3,131,75.8,167.3H153c-41.6,0-47.9,36-47.9,46.7v524.9c0,10.7,6.2,49.9,49.4,49.9h691.1c35.5,0,49.4-11.2,49.4-49.9V415.2C894.9,373.4,874.8,368.5,847,368.5z M248.7,225.1h502.6c0,67.2-50.9,117.2-124.1,143.4H371.8C299.1,342.6,248.7,293,248.7,225.1z M847,942.2H153V655.4H847L847,942.2L847,942.2z M847,607.6H153V416.4H847L847,607.6L847,607.6z"/></g>
</svg>