<?xml version="1.0" encoding="utf-8"?>
<!-- Svg Vector Icons : http://www.onlinewebfonts.com/icon -->
<!DOCTYPE svg PUBLIC "-//W3C//DTD SVG 1.1//EN" "http://www.w3.org/Graphics/SVG/1.1/DTD/svg11.dtd">
<svg version="1.1" xmlns="http://www.w3.org/2000/svg" xmlns:xlink="http://www.w3.org/1999/xlink" x="0px" y="0px" viewBox="0 0 1000 1000" enable-background="new 0 0 1000 1000" xml:space="preserve">
<metadata> Svg Vector Icons : http://www.onlinewebfonts.com/icon </metadata>
<g><path d="M147.5,297.1h221.5c33.8,0,61.1-27.3,61.1-61.1V89.8h217.1c12,0,20.7-9.8,20.7-20.7c0-12-9.8-20.7-20.7-20.7H160.5c-2.2,0-4.4,0-6.5,1.1c-2.2-2.2-4.4-2.2-6.5-2.2c-34.9,0-62.2,27.3-62.2,61.1V236C85.3,269.8,112.5,297.1,147.5,297.1z M127.8,108.4c0-10.9,8.7-18.5,18.5-18.5c2.2,0,4.4,0,6.5-1.1c2.2,1.1,4.4,1.1,6.5,1.1h226.9V236c0,10.9-8.7,18.5-18.5,18.5H147.5c-10.9,0-18.5-8.7-18.5-18.5V108.4H127.8z M916.5,514.2V399.6c0-33.8-27.3-61.1-61.1-61.1h-708c-33.8,0-61.1,27.3-61.1,60L70,756.4H44.9c-19.6,0-34.9,15.3-34.9,34.9v127.6c0,18.5,15.3,33.8,34.9,33.8h429.8c18.5,0,34.9-15.3,34.9-34.9V791.3c0-18.5-15.3-34.9-34.9-34.9h-41.5l-2.2-195.3l266.2-22.9c8.7,21.8,30.5,37.1,56.7,37.1h100.4C888.2,575.3,916.5,548,916.5,514.2z M874,419.3L874,419.3H670c-5.5,0-10.9,4.4-10.9,10.9s4.4,10.9,10.9,10.9h204l0,0v73.1c0,10.9-8.7,18.5-18.5,18.5H755.1c-10.9,0-18.5-7.6-18.5-17.5v-22.9l-346.9,30.5l1.1,255.3c0,3.3,1.1,7.6,3.3,9.8c3.3,6.5,10.9,10.9,18.5,10.9h54.5v112.4H52.5V798.9h38.2c12,0,20.7-9.8,20.7-20.7c0-1.1,0-2.2,0-3.3l16.4-375.3c0-10.9,8.7-18.5,19.6-18.5h708c10.9,0,18.5,8.7,18.5,18.5V419.3z M711.4,612.4c-10.9-3.3-22.9,4.4-26.2,15.3l-8.7,36c-3.3,10.9,4.4,22.9,15.3,25.1c2.2,0,3.3,1.1,5.5,1.1c9.8,0,18.5-6.5,20.7-16.4l8.7-36C730,626.5,722.4,615.6,711.4,612.4z M682,730.2c-10.9-3.3-22.9,4.4-26.2,15.3l-14.2,56.7c-3.3,10.9,4.4,22.9,15.3,25.1c2.2,0,3.3,1.1,5.5,1.1c9.8,0,18.5-6.5,20.7-16.4l14.2-56.7C700.5,744.4,694,733.5,682,730.2z M647.1,868.7c-10.9-3.3-22.9,4.4-26.2,15.3l-7.6,36c-3.3,10.9,4.4,22.9,15.3,25.1c2.2,0,3.3,1.1,5.5,1.1c9.8,0,18.5-6.5,20.7-16.4l8.7-36C665.6,884,659.1,872,647.1,868.7z M804.2,606.9c-12,0-20.7,9.8-20.7,20.7v37.1c0,12,9.8,20.7,20.7,20.7c12,0,20.7-9.8,20.7-20.7v-37.1C824.9,616.7,815.1,606.9,804.2,606.9z M804.2,729.1c-12,0-20.7,9.8-20.7,20.7v58.9c0,12,9.8,20.7,20.7,20.7c12,0,20.7-9.8,20.7-20.7v-58.9C824.9,737.8,815.1,729.1,804.2,729.1z M804.2,872c-12,0-20.7,9.8-20.7,20.7v38.2c0,12,9.8,20.7,20.7,20.7c12,0,20.7-9.8,20.7-20.7v-37.1C824.9,881.8,815.1,872,804.2,872z M918.7,688.7c12-2.2,18.5-13.1,16.4-25.1l-7.6-36c-2.2-10.9-13.1-18.5-25.1-16.4s-18.5,13.1-16.4,25.1l7.6,36c2.2,9.8,10.9,16.4,20.7,16.4C915.4,688.7,917.6,688.7,918.7,688.7z M948.2,829.5c12-2.2,18.5-13.1,16.4-25.1l-12-57.8c-2.2-10.9-13.1-18.5-25.1-16.4s-18.5,13.1-16.4,25.1l12,57.8c2.2,9.8,10.9,16.4,20.7,16.4C944.9,829.5,947.1,829.5,948.2,829.5z M989.6,922.2l-7.6-36c-2.2-10.9-13.1-18.5-25.1-16.4s-18.5,13.1-16.4,25.1l7.6,36c2.2,9.8,10.9,16.4,20.7,16.4c1.1,0,3.3,0,4.4,0C984.2,945.1,991.8,934.2,989.6,922.2z M350.4,762.9h-204c-5.5,0-10.9,4.4-10.9,10.9c0,5.5,4.4,10.9,10.9,10.9h204c5.5,0,10.9-4.4,10.9-10.9C361.3,767.3,356.9,762.9,350.4,762.9z"/></g>
</svg>