<?xml version="1.0" encoding="utf-8"?>
<!-- Svg Vector Icons : http://www.onlinewebfonts.com/icon -->
<!DOCTYPE svg PUBLIC "-//W3C//DTD SVG 1.1//EN" "http://www.w3.org/Graphics/SVG/1.1/DTD/svg11.dtd">
<svg version="1.1" xmlns="http://www.w3.org/2000/svg" xmlns:xlink="http://www.w3.org/1999/xlink" x="0px" y="0px" viewBox="0 0 1000 1000" enable-background="new 0 0 1000 1000" xml:space="preserve">
<metadata> Svg Vector Icons : http://www.onlinewebfonts.com/icon </metadata>
<g><g transform="translate(0.000000,512.000000) scale(0.100000,-0.100000)"><path d="M3618.6,4776.9l-5.7-245l-206.7-9.6c-300.5-13.4-281.4,30.6-281.4-645v-545.5l55.5-55.5c55.5-53.6,61.3-55.5,252.7-55.5h195.2l-11.5-444.1c-15.3-654.6-49.8-794.3-325.4-1355.2c-245-495.7-323.5-815.4-323.5-1301.6c0-490,78.5-803.9,327.3-1311.1c273.7-555.1,304.3-681.4,321.6-1336l11.5-453.6H3433c-191.4,0-197.2-1.9-252.7-55.5l-55.5-55.5v-545.5c0-675.7-19.1-631.6,281.4-645l206.7-9.6l5.7-243.1l5.7-245h1462.3H6551v248.8v248.8h197.1c187.6,0,201,1.9,245,49.8l45.9,49.8l5.7,522.5c7.7,687.2,11.5,679.5-325.4,679.5h-172.3l9.6,491.9c7.7,421.1,15.3,516.8,49.8,652.7c49.8,197.1,128.2,388.5,271.8,664.2c130.2,248.8,212.5,474.7,269.9,742.6c61.3,281.4,61.3,817.3,0,1098.7c-59.4,273.7-139.7,488.1-302.4,809.6c-248.8,493.8-294.8,700.5-294.8,1336v405.8h170.4c333,0,331.1-3.8,323.5,689.1l-5.7,513l-45.9,49.8c-44,47.8-57.4,49.8-245,49.8H6551v248.8V5020H5086.7H3624.4L3618.6,4776.9z M6225.6,4618v-76.6H5086.7H3947.8l-11.5,47.9c-26.8,111-91.9,105.3,1150.4,105.3h1138.9V4618z M6719.4,3877.3l-5.7-321.6l-1630.8-5.7l-1632.7-3.8v325.4V4197h1636.5h1636.5L6719.4,3877.3z M6225.6,2815c0-660.3,55.5-916.8,317.7-1450.9c275.6-562.7,323.5-740.7,323.5-1244.1c0-497.7-51.7-696.7-308.2-1207.8c-268-532.1-313.9-735-327.3-1399.2l-9.6-493.8H5079H3936.4l-1.9,455.5c-3.8,658.4-57.4,895.8-331.1,1439.4c-245,488.1-312,746.5-312,1196.3c0,463.2,67,723.5,312,1215.4c283.3,568.5,342.6,855.6,333,1594.4l-3.8,300.5H5079h1146.5V2815z M6719.4-3635.4l3.8-321.6H5086.7H3450.2v325.4v325.4l1632.7-3.8l1630.8-5.7L6719.4-3635.4z M6225.6-4378v-76.6h-1137c-756,0-1142.7,5.7-1150.3,19.1c-7.7,11.5-7.7,45.9,0,76.6l13.4,57.4h1136.9h1137V-4378z"/><path d="M1402.1,1262.7c-67-34.5-105.3-109.1-88.1-178c9.6-34.5,91.9-132.1,220.1-260.3c187.6-189.5,210.5-206.7,275.6-206.7c93.8,0,166.5,68.9,166.5,157c0,53.6-30.6,91.9-225.9,287.1c-135.9,135.9-241.2,225.9-262.2,225.9C1467.2,1287.6,1428.9,1276.1,1402.1,1262.7z"/><path d="M8243,1073.2c-189.5-187.6-218.2-225.8-218.2-279.5c0-88,72.7-157,164.6-157c63.2,0,90,19.1,250.8,178c183.8,178,235.4,248.8,235.4,317.7c0,57.4-78.5,134-149.3,147.4C8465,1291.4,8453.6,1283.7,8243,1073.2z"/><path d="M1084.4,422.4c-45.9-21-84.2-91.9-84.2-151.2c0-21.1,24.9-65.1,55.5-95.7l55.5-55.5h298.6c285.2,0,298.6,1.9,348.4,45.9c74.6,63.2,74.6,170.4,0,233.5c-49.8,44-63.2,45.9-342.6,44C1254.8,443.5,1105.5,433.9,1084.4,422.4z"/><path d="M8243,399.5c-74.6-63.2-74.6-170.4,0-233.5c49.8-44,63.2-45.9,348.3-45.9H8890l55.5,55.5c59.4,59.3,68.9,105.3,34.5,179.9c-34.5,76.6-93.8,90-400,90C8308.1,445.4,8292.8,443.5,8243,399.5z"/><path d="M8065-82.9c-80.4-103.4-61.2-145.5,178-388.6c201-202.9,223.9-220.1,289-220.1c101.4,0,170.4,80.4,155,178c-7.6,55.5-49.7,109.1-218.2,275.6C8271.7-44.6,8256.4-33.1,8181.8-33.1C8120.5-33.1,8095.6-44.6,8065-82.9z"/><path d="M1541.9-247.5c-158.9-158.9-201-210.5-208.6-266c-15.3-97.6,53.6-178,155-178c65.1,0,88,17.2,279.5,210.5c178,181.8,208.6,220.1,208.6,273.7c0,86.1-72.7,155-164.6,155C1746.7-52.3,1721.8-71.4,1541.9-247.5z"/></g></g>
</svg>