<?xml version="1.0" encoding="utf-8"?>
<!-- Svg Vector Icons : http://www.onlinewebfonts.com/icon -->
<!DOCTYPE svg PUBLIC "-//W3C//DTD SVG 1.1//EN" "http://www.w3.org/Graphics/SVG/1.1/DTD/svg11.dtd">
<svg version="1.1" xmlns="http://www.w3.org/2000/svg" xmlns:xlink="http://www.w3.org/1999/xlink" x="0px" y="0px" viewBox="0 0 1000 1000" enable-background="new 0 0 1000 1000" xml:space="preserve">
<metadata> Svg Vector Icons : http://www.onlinewebfonts.com/icon </metadata>
<g><g transform="translate(0.000000,512.000000) scale(0.100000,-0.100000)"><path d="M654.6,4972.9l-47.9-45.9V3070.2c0-1020.2,5.7-1870.1,11.5-1887.4c34.4-86.1,30.6-86.1,1625.1-86.1h1506.4l55.5,55.5c30.6,30.6,55.5,74.6,55.5,97.6c0,55.5-49.8,145.5-86.1,160.8c-17.2,5.7-664.2,11.5-1437.5,11.5h-1405v1713.2c0,1833.8,0,1814.6-91.9,1864.4C775.2,5034.1,704.3,5024.5,654.6,4972.9z"/><path d="M1305.4,4972.9l-47.9-45.9V3395.6c0-842.2,5.7-1544.7,11.5-1562c32.5-84.2,53.6-86.1,1284.4-86.1c892,0,1175.3,5.7,1211.7,24.9c103.3,51.7,120.6,179.9,38.3,262.2c-36.4,36.4-68.9,38.3-1129.4,38.3H1582.9l-3.8,1428l-5.7,1428l-53.6,45.9C1448.9,5034.1,1364.7,5034.1,1305.4,4972.9z"/><path d="M8479.6,4974.8l-53.6-45.9l-5.7-1428l-3.8-1428H7327.3c-1217.4,0-1158.1,7.7-1181-135.9c-9.6-55.5-1.9-78.5,36.4-124.4l47.9-55.5l1175.3-5.7c645.1-1.9,1192.5,0,1217.4,5.7c23,5.7,59.4,26.8,80.4,47.9c38.3,38.3,38.3,70.8,38.3,1579.2v1542.8l-47.9,45.9C8634.7,5034.1,8550.4,5034.1,8479.6,4974.8z"/><path d="M9130.4,4974.8l-53.6-45.9l-5.7-1753.4l-3.8-1753.4h-1405c-773.3,0-1420.3-5.7-1437.5-11.5c-36.4-15.3-86.1-105.3-86.1-160.8c0-23,24.9-67,55.5-97.6l55.5-55.5h1506.4c1594.5,0,1590.7,0,1625.1,86.1c5.7,17.2,11.5,867.1,11.5,1887.4v1856.7l-47.9,45.9C9285.5,5034.1,9201.3,5034.1,9130.4,4974.8z"/><path d="M7493.8,3340.1c-178-178-206.7-214.4-206.7-269.9c0-34.5,7.7-76.6,19.1-95.7c23-45.9,122.5-86.1,176.1-72.7c24.9,7.7,137.8,105.3,250.7,220.1c225.9,231.6,241.2,264.2,155.1,365.6c-38.3,45.9-65.1,59.3-118.7,59.3C7708.2,3546.8,7679.5,3525.8,7493.8,3340.1z"/><path d="M4069.4,2023.1c-44-47.9-45.9-57.4-51.7-409.6c-7.7-403.9,7.6-465.1,112.9-501.5l55.5-19.1V832.5V570.3l-181.8,181.8c-260.3,258.4-231.6,266.1-650.8-153.1c-428.8-428.8-423-380.9-95.7-708.2c132.1-132.1,239.3-245,239.3-252.7c0-9.6-587.6-15.3-1305.5-15.3H884.3l-99.5-45.9c-359.9-168.4-455.6-595.3-199.1-876.7c51.7-55.5,114.9-112.9,141.7-128.2c36.4-19.2,53.6-55.5,86.1-185.7c178-717.8,763.8-1349.5,1659.6-1787.8c568.5-277.5,1184.8-451.7,1833.8-520.6l204.8-23v-363.7c1.9-382.8,5.7-403.9,90-447.9c55.5-30.6,733.1-30.6,796.3-1.9c78.5,36.4,90,91.9,90,465.2v350.3l149.3,13.4c80.4,7.7,250.7,30.6,377.1,51.7c1066.2,179.9,1952.4,599.1,2549.7,1205.9c333,338.8,541.7,700.6,629.7,1089.2c23,101.4,40.2,134,78.5,155c97.6,51.7,233.5,225.9,266.1,336.9c76.6,260.3-63.2,545.5-327.3,668l-95.7,45.9H7784.8H6456.4l241.2,245c135.9,135.9,246.9,266.1,254.6,292.9c7.7,32.5,1.9,72.7-15.3,105.3c-45.9,86.1-627.9,654.6-687.2,668c-70.8,17.2-118.7-11.5-287.1-178l-149.3-147.4v243.1v241.2l57.4,21.1c101.4,34.5,118.7,109.1,111,509.2c-5.7,340.7-7.7,352.2-51.7,400.1l-45.9,49.8h-884.3h-884.3L4069.4,2023.1z M5660.1,1594.4c0-141.6-1.9-153.1-42.1-162.7c-24.9-5.7-319.7-7.7-656.5-3.8l-612.5,3.8l-5.7,158.9l-5.8,157h662.3h660.4V1594.4z M5487.8,369.3V-358h-488.1h-488.1v727.4v727.4h488.1h488.1V369.3z M4186.2-122.6V-358h-111H3966L3688.5-80.5l-277.5,277.5l172.3,172.3l172.3,172.3l214.4-214.4l216.3-216.3V-122.6z M6291.7-80.5L6014.2-358h-99.5h-101.4V-115v245L6018,334.9l206.7,206.7L6397,369.3l172.3-172.3L6291.7-80.5z M9140-733.2c139.7-97.6,124.4-371.3-26.8-428.8c-67-26.8-8160-26.8-8227,0c-109.1,40.2-160.8,224-97.6,344.6C853.6-693,488-702.6,4999.7-702.6C8682.5-702.6,9101.7-706.4,9140-733.2z M8870.1-1552.5c-5.7-15.3-21.1-63.2-32.5-105.3c-11.5-42.1-45.9-134-76.6-201c-340.7-759.9-1255.7-1374.4-2440.5-1636.6c-451.7-99.5-698.7-124.4-1292.1-124.4c-369.4-1.9-633.6,7.7-765.7,24.9C2898-3418.8,1843.3-2867.5,1351.3-2071.2c-88,141.7-185.7,367.5-216.3,493.9l-11.5,51.7h3878.1C8366.7-1525.7,8877.8-1529.5,8870.1-1552.5z M5162.4-4209.3v-245h-162.7H4837v245v243.1h162.7h162.7V-4209.3z"/></g></g>
</svg>