<?xml version="1.0" encoding="utf-8"?>
<!-- Svg Vector Icons : http://www.onlinewebfonts.com/icon -->
<!DOCTYPE svg PUBLIC "-//W3C//DTD SVG 1.1//EN" "http://www.w3.org/Graphics/SVG/1.1/DTD/svg11.dtd">
<svg version="1.1" xmlns="http://www.w3.org/2000/svg" xmlns:xlink="http://www.w3.org/1999/xlink" x="0px" y="0px" viewBox="0 0 1000 1000" enable-background="new 0 0 1000 1000" xml:space="preserve">
<metadata> Svg Vector Icons : http://www.onlinewebfonts.com/icon </metadata>
<g><path d="M414,861.5H160.3c-13.1,0-24-10.9-24-24c0-12-9.8-22.9-22.9-22.9c-13.1,0-21.8,10.9-21.8,22.9c0,38.1,30.5,68.6,68.6,68.6H414c38.1,0,68.6-30.5,68.6-68.6V703.6c5.4,2.2,10.9,3.3,17.4,3.3s12-1.1,17.4-3.3v133.9c0,38.1,30.5,68.6,68.6,68.6h253.7c38.1,0,68.6-30.5,68.6-68.6V583.8c0-38.1-30.5-68.6-68.6-68.6h-135c2.2-9.8,2.2-20.7,0-30.5h135c38.1,0,68.6-30.5,68.6-68.6V162.4c0-38.1-30.5-68.6-68.6-68.6H586c-38.1,0-68.6,30.5-68.6,68.6v133.9c-5.4-2.2-10.9-3.3-17.4-3.3s-12,1.1-17.4,3.3V162.4c0-38.1-30.5-68.6-68.6-68.6H160.3c-38.1,0-68.6,30.5-68.6,68.6v253.7c0,38.1,30.5,68.6,68.6,68.6h135c-1.1,4.4-2.2,9.8-2.2,15.2s1.1,10.9,2.2,15.2h-135c-38.1,0-68.6,30.5-68.6,68.6v144.8c0,12,9.8,22.9,22.9,22.9c13.1,0,22.9-9.8,22.9-22.9V583.8c0-13.1,10.9-24,24-24h168.8L439,668.8v168.8C437.9,850.6,427,861.5,414,861.5z M839.7,561c13.1,0,24,10.9,24,24v252.6c0,3.3-1.1,5.4-1.1,7.6L721,703.6c-4.4-4.4-12-4.4-16.3,0s-4.4,12,0,16.3l140.5,140.5c-1.1,0-3.3,1.1-5.4,1.1H586c-13.1,0-24-10.9-24-24V668.8L671,559.9h168.8V561z M562.1,324.7V162.4c0-13.1,10.9-24,24-24h253.7c13.1,0,24,10.9,24,24v253.7c0,13.1-10.9,24-24,24H671l-110-110C562.1,328,562.1,325.8,562.1,324.7z M329,440.1c-1.1,0-1.1,0-2.2,0H160.3c-13.1,0-24-10.9-24-24V162.4c0-13.1,10.9-24,24-24H414c13.1,0,24,10.9,24,24V329v1.1L329,440.1z M343.2,510.9c-5.4-5.4-5.4-15.2,0-21.8l145.9-145.9c3.3-3.3,6.5-4.4,10.9-4.4s7.6,1.1,10.9,4.4l145.9,145.9c5.4,5.4,5.4,15.2,0,21.8L510.9,656.8c-5.4,5.4-15.2,5.4-21.8,0L343.2,510.9z M956.2,10H43.8C25.2,10,10,25.2,10,43.8v912.5c0,18.5,15.2,33.8,33.8,33.8h912.5c18.5,0,33.8-15.2,33.8-33.8V43.8C990,25.2,974.8,10,956.2,10z M945.4,945.4H54.6V54.6h889.6v890.7H945.4z"/></g>
</svg>