<?xml version="1.0" encoding="utf-8"?>
<!-- Svg Vector Icons : http://www.onlinewebfonts.com/icon -->
<!DOCTYPE svg PUBLIC "-//W3C//DTD SVG 1.1//EN" "http://www.w3.org/Graphics/SVG/1.1/DTD/svg11.dtd">
<svg version="1.1" xmlns="http://www.w3.org/2000/svg" xmlns:xlink="http://www.w3.org/1999/xlink" x="0px" y="0px" viewBox="0 0 1000 1000" enable-background="new 0 0 1000 1000" xml:space="preserve">
<metadata> Svg Vector Icons : http://www.onlinewebfonts.com/icon </metadata>
<g><g transform="translate(0.000000,511.000000) scale(0.100000,-0.100000)"><path d="M1785.7,4953.8c-45.9-51-51-89.3-51-484.9c0-423.6,0-431.3,63.8-492.5c38.3-38.3,91.9-63.8,137.8-63.8h74l10.2-1089.7l10.2-1092.3l68.9-255.2c94.4-344.5,329.2-814.1,541-1077c336.9-421.1,763.1-722.2,1283.7-911.1c298.6-107.2,571.7-142.9,1087.2-142.9c696.7,0,913.7-58.7,1186.7-319c607.4-579.3,336.9-1544-495.1-1760.9c-122.5-30.6-334.3-38.3-1140.8-38.3h-990.2v74c0,40.8-23,99.5-48.5,132.7c-48.5,58.7-61.2,61.3-484.9,68.9l-436.4,7.6l-63.8-63.8l-63.8-63.8v-1031v-1031.1l58.7-53.6c56.2-53.6,84.2-56.2,492.6-56.2c421.1,0,436.4,2.5,490,58.7c33.2,35.7,56.2,91.9,56.2,140.4v81.7h1069.3c1148.5,0,1270.9,10.2,1684.4,140.4c995.3,316.5,1766,1225,1916.6,2256.1c45.9,308.8,20.4,773.3-58.7,1079.5C7974.5-234.5,7420.7,429,6657.7,799.1c-441.5,214.4-798.8,280.7-1490.4,280.7c-418.5,0-515.5,7.7-655.9,51c-311.3,94.4-553.8,329.2-689.1,663.5c-56.1,135.3-58.7,176.1-66.3,1130.6l-7.7,987.7h79.1c48.5,0,102.1,23,140.4,63.8c63.8,61.3,63.8,68.9,63.8,479.8c0,385.4-5.1,423.6-53.6,487.5l-51,66.4H2883.1C1841.9,5010,1839.3,5010,1785.7,4953.8z M3623.2,4474.1v-153.1h-740.1H2143v153.1v153.1h740.1h740.1V4474.1z M3342.5,3466v-446.6h-459.4h-459.4V3466v446.6h459.4h459.4V3466z M3342.5,2725.9v-89.3h-459.4h-459.4v89.3v89.3h459.4h459.4V2725.9z M3350.2,2177.2c28.1-472.1,191.4-844.7,490-1117.8c140.4-127.6,410.9-283.3,587-336.9c58.7-17.9,380.3-38.3,765.6-51c610-17.9,681.4-25.5,888.1-86.8C6525,452,6818.5,283.5,7140-27.8c375.2-359.8,615.1-819.2,704.4-1347.5l17.9-97h-472.1H6918l-40.8,148c-140.4,479.8-548.7,877.9-1048.9,1015.7c-112.3,30.6-293.5,43.4-712.1,48.5c-604.8,10.2-829.4,40.8-1133.1,155.7C3411.4,110,2906.1,587.2,2640.7,1164c-137.8,301.2-194,548.7-209.3,944.3l-15.3,349.6h459.4h459.4L3350.2,2177.2z M7859.7-1765.8v-89.3h-459.4H6941v89.3v89.3h459.4h459.4V-1765.8z M7834.2-2092.4c0-30.6-23-140.4-51-242.5c-224.6-811.6-854.9-1434.3-1709.9-1692c-183.8-56.2-232.2-58.7-1344.9-68.9l-1156.1-7.6v459.4v459.4l1066.8,7.7l1064.2,7.7l204.2,71.5c474.7,158.2,760.5,449.2,980,995.3l28.1,68.9h459.4h459.4V-2092.4z M3163.9-3654.3v-752.9h-140.4h-140.4v752.9v752.9h140.4h140.4V-3654.3z"/></g></g>
</svg>