<?xml version="1.0" encoding="utf-8"?>
<!-- Svg Vector Icons : http://www.onlinewebfonts.com/icon -->
<!DOCTYPE svg PUBLIC "-//W3C//DTD SVG 1.1//EN" "http://www.w3.org/Graphics/SVG/1.1/DTD/svg11.dtd">
<svg version="1.1" xmlns="http://www.w3.org/2000/svg" xmlns:xlink="http://www.w3.org/1999/xlink" x="0px" y="0px" viewBox="0 0 1000 1000" enable-background="new 0 0 1000 1000" xml:space="preserve">
<metadata> Svg Vector Icons : http://www.onlinewebfonts.com/icon </metadata>
<g><g transform="translate(0.000000,511.000000) scale(0.100000,-0.100000)"><path d="M157,4282.2c-49.9-46.3-57-221-57-1347.4c0-1208.4,3.6-1297.5,64.2-1350.9c57-49.9,156.9-60.6,659.4-60.6h591.7l71.3,92.7c42.8,57,74.9,146.1,74.9,217.4v124.8l249.5-14.3c263.8-14.3,374.3-67.7,513.3-256.6c60.6-78.4,74.9-164,85.5-488.3l14.3-388.5h-139c-245.9,0-260.2-39.2-260.2-741.4c0-588.1,3.6-609.5,78.4-663c42.8-32.1,131.9-57,192.5-57h110.5l21.4-295.9c114.1-1450.7,1172.7-2698.3,2623.5-3079.7c295.9-78.4,417-92.7,894.7-92.7s598.8,14.2,891.1,89.1c1037.3,278,1821.4,916.1,2281.3,1864.2c338.6,695.1,331.5,634.5,345.8,2987l14.2,2056.7h124.7c85.6,0,153.3,28.5,213.9,89.1c89.1,89.1,89.1,89.1,78.4,680.8c-10.7,534.7-17.8,595.3-78.4,641.6c-57,39.2-303,49.9-1361.6,49.9H7161.2l-53.5-78.4c-46.3-64.2-57-192.5-57-645.2c0-548.9,3.5-563.2,89.1-648.7c57-60.6,124.8-89.1,213.9-89.1h124.8V1063.5c0-1072.9-14.3-1889.2-35.6-2003.2c-85.6-452.7-388.6-841.2-812.7-1040.8c-213.9-99.8-278-114.1-630.9-124.8c-324.4-10.7-427.7,0-595.3,57c-534.7,188.9-894.7,634.5-973.1,1211.9l-25,185.4H4552c99.8,0,171.1,25,217.4,71.3c64.2,64.2,71.3,117.6,71.3,670.1c0,688-10.7,720-278,720H4413V1534c0,816.3-28.5,990.9-235.3,1383c-156.8,295.8-524,659.4-816.3,809.1c-381.4,192.5-541.8,221-1201.2,221h-598.8v117.6c0,64.2-25,153.3-57,196c-53.5,74.9-74.9,78.4-673.7,78.4C317.4,4339.3,203.4,4328.6,157,4282.2z M1347.6,2949.1V1737.2H812.9H278.2v1187c0,655.9,10.7,1201.2,25,1211.9c10.7,14.3,253.1,25,534.7,25h509.7V2949.1z M9688.5,3626.4v-534.7H8476.5H7264.6v534.7V4161h1211.9h1211.9V3626.4z M3001.5,3665.6c292.3-103.4,520.4-256.7,748.5-502.6c385-420.6,491.9-798.4,477.6-1721.6L4217,828.2h-802h-802l-17.8,409.9c-10.7,245.9-35.6,445.6-67.7,499c-149.7,278-431.3,427.7-794.9,427.7h-171.1v805.6v809.1l616.7-21.4C2680.7,3744,2830.4,3729.7,3001.5,3665.6z M9250.1,803.3c-14.3-2334.8,0-2213.5-295.9-2840.9C8501.5-2996.4,7671-3648.7,6623-3866.2c-434.9-92.7-1119.3-71.3-1550.5,42.8c-638,167.5-1322.4,613.1-1728.8,1126.4c-399.2,499-687.9,1233.3-720,1814.3L2613-668.8l812.7,10.7l809.1,7.1v-171.1c0-648.7,584.6-1318.9,1276.1-1465c937.5-196.1,1817.9,270.9,2078.1,1105c64.2,199.6,67.7,352.9,67.7,2138.7v1921.3h802h805.5L9250.1,803.3z M4655.4,90.4l10.7-527.5H3432.8H2203V76.1c0,506.2,0,516.9,82,527.6c42.8,7.1,591.7,10.7,1219.1,10.7h1140.6L4655.4,90.4z"/></g></g>
</svg>