<?xml version="1.0" encoding="utf-8"?>
<!-- Svg Vector Icons : http://www.onlinewebfonts.com/icon -->
<!DOCTYPE svg PUBLIC "-//W3C//DTD SVG 1.1//EN" "http://www.w3.org/Graphics/SVG/1.1/DTD/svg11.dtd">
<svg version="1.1" xmlns="http://www.w3.org/2000/svg" xmlns:xlink="http://www.w3.org/1999/xlink" x="0px" y="0px" viewBox="0 0 1000 1000" enable-background="new 0 0 1000 1000" xml:space="preserve">
<metadata> Svg Vector Icons : http://www.onlinewebfonts.com/icon </metadata>
<g><g transform="translate(0.000000,511.000000) scale(0.100000,-0.100000)"><path d="M3425.1,3177.4c-30.2-16.1-58.5-42.3-64.5-58.5c-6.1-16.1-112.9-455.7-235.9-974c-123-518.2-227.9-959.8-233.9-978c-10.1-32.3-40.3-36.3-282.3-36.3h-270.2V973.4V814.1l488-12.1c619-18.2,1459.9-18.2,2099.1,0l498.1,12.1v159.3v157.3h-272.2c-207.7,0-276.3,6-284.3,26.2c-6,16.1-112.9,461.8-240,992.1c-179.5,752.1-237.9,973.9-272.2,1006.2c-38.3,40.3-64.5,42.3-459.7,46.4C3560.2,3205.6,3467.5,3201.6,3425.1,3177.4z M4120.8,2830.5c36.3-125,395.2-1667.6,389.2-1673.7c-4-4-292.4-4-641.2-2l-635.2,6l195.6,822.7c106.9,451.7,199.6,834.8,207.7,851c8.1,24.2,56.5,30.2,242,30.2C4082.5,2864.8,4110.7,2860.8,4120.8,2830.5z"/><path d="M7236.3,2834.6c-30.3-16.1-58.5-44.4-66.6-60.5c-6.1-18.1-12.1-780.4-14.1-1695.8l-2-1661.6H3675.2H198.8l-48.4-50.4L100-682.1v-1101v-1101l50.4-48.4l48.4-50.4h4791.1H9783l58.5,58.5l58.5,60.5L9896-51l-6,2813l-46.4,46.4l-46.4,46.4l-1254.2,4C7482.3,2862.8,7280.6,2858.8,7236.3,2834.6z M9557.2,1574.3V626.5H8518.7H7480.2v947.7V2522h1038.5h1038.5V1574.3z M9557.2-1178.2v-1461.9H8520.7H7486.3l-4,1461.9l-2,1461.9h1038.5h1038.5V-1178.2z M2675-1783.1v-857H1549.8H422.6v857v857h1127.2H2677L2675-1783.1z M4737.9-1783.1v-857h-857h-857v857v857h857h857V-1783.1z M7137.5-1268.9v-342.8H6109.1H5080.7v342.8v342.8h1028.4h1028.4V-1268.9z M7137.5-2297.3v-342.8H6109.1H5080.7v342.8v342.8h1028.4h1028.4V-2297.3z"/><path d="M7661.7,1231.5V808h171.4h171.4v423.5v423.5h-171.4h-171.4V1231.5z"/><path d="M7661.7-321.2v-423.5h171.4h171.4v423.5v423.5h-171.4h-171.4V-321.2z"/><path d="M2156.8-1531.1v-423.5h171.4h171.4v423.5v423.5h-171.4h-171.4V-1531.1z"/><path d="M3245.7-1147.9c-22.2-22.2-44.4-60.5-50.4-86.7c-6-24.2-10.1-252.1-6-506.1l6-459.8l56.5-48.4l56.5-48.4h552.5c302.5,0,574.7,8.1,602.9,20.2c28.2,10.1,58.5,36.3,70.6,56.5c12.1,24.2,22.2,231.9,22.2,520.2c2,443.6,0,481.9-36.3,530.3l-38.3,52.4l-596.9,6C3310.2-1107.6,3284-1109.6,3245.7-1147.9z M4229.7-1696.4l6.1-258.1h-354.9H3528v262.1v262.1l348.8-4l346.8-6L4229.7-1696.4z"/></g></g>
</svg>