<?xml version="1.0" encoding="utf-8"?>
<!-- Svg Vector Icons : http://www.onlinewebfonts.com/icon -->
<!DOCTYPE svg PUBLIC "-//W3C//DTD SVG 1.1//EN" "http://www.w3.org/Graphics/SVG/1.1/DTD/svg11.dtd">
<svg version="1.1" xmlns="http://www.w3.org/2000/svg" xmlns:xlink="http://www.w3.org/1999/xlink" x="0px" y="0px" viewBox="0 0 1000 1000" enable-background="new 0 0 1000 1000" xml:space="preserve">
<metadata> Svg Vector Icons : http://www.onlinewebfonts.com/icon </metadata>
<g><g transform="translate(0.000000,511.000000) scale(0.100000,-0.100000)"><path d="M201,3678.1c-82-67.7-85.5-82-85.5-623.8c0-484.8,7.1-563.2,64.2-616.7c57-57,164-64.2,1229.7-74.8c894.7-7.1,1187,3.5,1254.7,39.2c89.1,46.4,89.1,46.4,99.8,630.9c10.7,563.2,7.1,591.7-67.7,652.3c-67.7,53.5-185.3,60.6-1244,60.6C354.3,3745.8,279.5,3742.2,201,3678.1z M2592.8,3050.7v-481.2H1452.2H311.5v481.2v481.2h1140.6h1140.6V3050.7z"/><path d="M2984.9,3674.5c-64.2-64.2-71.3-117.6-71.3-616.7c0-413.5,10.7-563.2,49.9-616.7c49.9-64.2,110.5-67.7,1247.6-78.4l1197.7-10.7l89.1,89.1c85.5,85.5,89.1,103.4,89.1,609.5c0,506.2-3.6,524-89.1,606l-85.5,89.1H4232.5C3102.5,3745.8,3052.6,3742.2,2984.9,3674.5z M5373.1,3050.7v-481.2l-1130,7.1l-1133.5,10.7l-10.7,424.2c-3.6,235.3,0,449.1,7.1,474.1c14.3,35.6,249.5,46.3,1144.2,46.3h1122.8V3050.7z"/><path d="M5786.6,3670.9l-92.7-71.3v-602.4c0-331.5-10.7-623.8-21.4-655.9c-17.8-49.9-106.9-57-616.6-57c-802,0-752.1,46.3-752.1-670.1c0-306.5,17.8-584.6,35.6-613.1c25-42.8,142.6-57,559.6-71.3c438.4-14.3,527.5-28.5,527.5-71.3c0-46.3-167.5-57-1222.6-71.3c-1033.7-14.3-1226.2-25-1254.7-71.3c-17.8-28.5-35.6-303-35.6-609.5c0-474.1,7.1-566.7,57-605.9c42.8-35.6,199.6-57.1,491.9-67.7c409.9-17.8,424.2-21.4,288.7-60.6c-99.8-32.1-445.6-46.3-1147.8-46.3c-998.1,0-1005.2,0-1058.6-78.4c-46.3-64.2-57-185.4-57-584.6c0-456.3,7.1-513.3,74.9-598.9c71.3-89.1,85.5-92.7,424.2-92.7c295.8,0,349.3-7.1,335.1-53.5c-17.8-42.8-188.9-53.5-1051.5-60.6c-930.3-10.7-1033.7-17.8-1090.7-74.8c-57-53.5-64.2-131.9-64.2-616.6c0-541.8,3.6-556.1,85.5-623.8c78.4-64.2,185.4-67.7,3372-67.7c3186.6,0,3293.6,3.5,3372,67.7l85.6,67.7l10.7,1568.4L7052-257.1l256.7,25c142.6,14.2,281.6,32.1,313.7,42.7c82,25,327.9-360,338.6-527.5c7.1-139,844.8-1792.9,987.4-1949.8c342.2-370.7,951.7-135.4,951.7,370.7c0,221-49.9,303-495.5,819.8C8802.1-777.6,8467.1-424.7,8385.1-403.3c-78.4,17.8-338.6,360-338.6,445.6c0,21.4,103.4,242.4,231.7,488.3c221,424.2,231.7,459.8,192.5,570.3c-60.6,178.2-755.7,737.9-1269,1026.6l-185.4,99.8l-10.7,673.7l-10.7,673.7l-99.8,85.5c-96.3,82-124.8,85.5-556,85.5C5929.2,3745.8,5872.1,3738.6,5786.6,3670.9z M6310.6,3417.8c-60.6-64.2-174.7-213.9-256.6-327.9l-146.2-210.3V3204v327.9h256.7H6421L6310.6,3417.8z M6791.8,2933.1c3.5-317.3-3.6-577.5-17.8-577.5c-10.7,0-139,39.2-281.6,89.1c-213.9,74.9-274.4,82-349.3,49.9c-96.3-42.8-106.9-71.3-142.6-285.2c-32.1-178.2,35.6-901.8,121.2-1290.3C6225,441.5,6403.2-96.7,6495.9-203.7c57.1-67.7,114.1-92.7,210.3-92.7h128.3v-1507.8v-1507.8H4770.7H2710.4l-103.4,224.6c-92.7,199.6-103.4,256.7-103.4,595.3c0,342.2,10.7,392.1,103.4,588.1c121.2,246,466.9,613.1,787.8,827c253.1,167.5,520.4,295.8,955.3,459.8c609.5,224.6,855.5,431.3,1076.5,887.6c213.9,442,281.6,712.9,338.6,1386.6c42.8,484.8,135.4,794.9,349.3,1154.9c160.4,270.9,566.8,730.7,627.3,709.3C6766.8,3514.1,6784.7,3318,6791.8,2933.1z M6645.6,2170.3c449.1-185.3,1044.4-573.9,1507.8-987.4l160.4-142.6l-228.1-438.4c-124.8-242.4-245.9-459.8-263.8-488.3c-64.2-74.9-164-99.8-670.1-164c-456.3-53.5-477.7-53.5-524,7.1c-71.3,96.2-249.5,698.6-331.5,1115.7c-74.8,395.7-128.3,1094.3-92.7,1194.1C6232.2,2334.2,6264.2,2327.1,6645.6,2170.3z M5565.6,1714c-10.7-196-35.6-409.9-46.3-474.1l-25-114.1h-495.4h-499l-10.7,474.1l-10.7,470.5H5038h556.1L5565.6,1714z M5337.5,573.4c0-71.3-185.4-409.9-303-556c-64.2-78.4-213.9-196-331.5-256.7l-213.9-114.1h-698.6h-698.6v456.2c0,253.1,10.7,470.5,25,481.2C3156,626.9,5337.5,612.6,5337.5,573.4z M8891.3-1198.2c709.3-809.1,791.3-908.9,816.3-1033.7c25-124.8-57-310.1-160.4-367.1c-121.2-64.2-313.7-42.8-409.9,46.3c-85.5,74.9-381.4,606-784.2,1411.6l-196,388.5l78.4,57.1c42.8,28.5,96.3,53.5,121.2,53.5C8378-638.5,8620.3-891.6,8891.3-1198.2z M3180.9-970c-285.2-228.1-552.5-502.6-663-670.1l-110.5-174.7h-352.9h-352.9v481.2v481.2l812.7-3.5h809.1L3180.9-970z M2272-2517c0-181.8,60.6-442,153.3-659.4l57-135.4H1395.1H311.5v481.2v481.2h980.2H2272V-2517z"/><path d="M7048.4,1460.9c0-42.8,128.3-224.6,299.4-424.2c392.1-452.7,406.3-463.4,466.9-442c110.5,42.8,42.8,178.2-288.7,552.5C7187.4,1535.8,7048.4,1624.9,7048.4,1460.9z"/><path d="M6560.1,1158c-21.4-57,395.7-948.2,474.1-1015.9c53.5-42.8,156.9-3.6,156.9,60.6c0,28.5-106.9,267.3-238.8,531.1C6777.5,1083.1,6692,1215,6645.6,1215C6610,1215,6574.3,1190,6560.1,1158z"/><path d="M183.2,2195.2c-89.1-89.1-89.1-96.3-78.4-620.2c7.1-381.4,24.9-545.4,60.6-584.6c39.2-49.9,128.3-60.6,573.9-60.6c463.4,0,531.1,7.1,581,64.2c49.9,57,60.6,153.3,60.6,606c0,712.9,28.5,684.4-623.8,684.4C286.6,2284.3,268.8,2280.8,183.2,2195.2z M1167,1589.3v-481.2H739.3H311.5v481.2v481.2h427.7H1167V1589.3z"/><path d="M1573.4,2195.2c-89.1-89.1-89.1-96.3-78.4-620.2c7.1-381.4,24.9-545.4,60.6-584.6c42.8-53.5,178.2-60.6,1283.2-60.6c916.1,0,1247.6,10.7,1279.6,42.8c28.5,28.5,42.8,217.4,42.8,620.2c0,559.6-3.6,581-78.4,634.5c-67.7,49.9-249.5,57-1251.1,57H1662.5L1573.4,2195.2z M3983,1589.3v-481.2H2842.3H1701.7v481.2v481.2h1140.6H3983V1589.3z"/><path d="M165.4,726.7c-39.2-42.8-49.9-192.5-49.9-598.8c0-484.8,7.1-552.5,67.7-620.2c67.7-74.8,92.7-74.8,1269-74.8c1119.2,0,1204.8,3.6,1258.3,64.2c49.9,57.1,60.6,156.8,60.6,641.6c0,531.1-3.6,577.5-67.7,613.1C2657,773,2190,787.3,1423.7,787.3C340,787.3,208.2,780.1,165.4,726.7z M2585.7,120.7l10.7-474.1H1452.2H311.5v481.2V609l1133.5-7.1L2575,591.2L2585.7,120.7z"/><path d="M165.4-734.8c-39.2-42.8-49.9-192.5-49.9-598.8c0-727.2-28.5-695.1,630.9-695.1c663,0,634.5-32.1,634.5,687.9c0,705.8,39.2,666.6-648.7,666.6C293.7-674.2,204.6-684.9,165.4-734.8z M1167-1333.6v-481.2H739.3H311.5v481.2v481.2h427.7H1167V-1333.6z"/></g></g>
</svg>