<?xml version="1.0" encoding="utf-8"?>
<!-- Svg Vector Icons : http://www.onlinewebfonts.com/icon -->
<!DOCTYPE svg PUBLIC "-//W3C//DTD SVG 1.1//EN" "http://www.w3.org/Graphics/SVG/1.1/DTD/svg11.dtd">
<svg version="1.1" xmlns="http://www.w3.org/2000/svg" xmlns:xlink="http://www.w3.org/1999/xlink" x="0px" y="0px" viewBox="0 0 1000 1000" enable-background="new 0 0 1000 1000" xml:space="preserve">
<metadata> Svg Vector Icons : http://www.onlinewebfonts.com/icon </metadata>
<g><path d="M948.8,904.5H41.2C24,904.5,10,918.4,10,935.7c0,17.2,14,31.2,31.2,31.2h907.6c17.3,0,31.2-14,31.2-31.2C980,918.4,966.1,904.5,948.8,904.5z"/><path d="M958.8,754.8H41.2c-17.2,0-31.2,14-31.2,31.2c0,17.3,14,31.2,31.2,31.2h917.6c17.2,0,31.2-14,31.2-31.2C990,768.8,976,754.8,958.8,754.8z"/><path d="M196.9,637c-12.2,12.2-12.2,32,0,44.2c6.1,6.1,14.1,9.1,22.1,9.1c8,0,16-3,22.1-9.1c94.2-94.2,94.2-247.4,0-341.5c-33.8-33.8-52.4-78.8-52.4-126.6c0-47.8,18.6-92.8,52.4-126.6c12.2-12.2,12.2-32,0-44.2c-12.2-12.2-32-12.2-44.2,0c-45.6,45.6-70.7,106.3-70.7,170.8s25.1,125.2,70.7,170.8C266.7,453.6,266.7,567.2,196.9,637z"/><path d="M476.2,383.8c69.8,69.8,69.8,183.4,0,253.2c-12.2,12.2-12.2,32,0,44.2c6.1,6.1,14.1,9.1,22.1,9.1c8,0,16-3,22.1-9.1c94.1-94.2,94.1-247.4,0-341.5c0,0,0,0,0,0c-33.8-33.8-52.4-78.8-52.4-126.6c0-47.8,18.6-92.8,52.5-126.6c12.2-12.2,12.2-32,0-44.2c-12.2-12.2-32-12.2-44.2,0c-45.6,45.6-70.7,106.3-70.7,170.8c0,64.4,25.1,125.1,70.6,170.7C476.1,383.7,476.2,383.8,476.2,383.8z"/><path d="M744,637c-12.2,12.2-12.2,32,0,44.2c6.1,6.1,14.1,9.1,22.1,9.1c8,0,16-3,22.1-9.1c94.2-94.2,94.2-247.4,0-341.5c-69.8-69.8-69.8-183.4,0-253.2c12.2-12.2,12.2-32,0-44.2s-31.9-12.2-44.2,0c-94.2,94.2-94.2,247.4,0,341.5C813.7,453.6,813.7,567.2,744,637z"/></g>
</svg>