<?xml version="1.0" encoding="utf-8"?>
<!-- Svg Vector Icons : http://www.onlinewebfonts.com/icon -->
<!DOCTYPE svg PUBLIC "-//W3C//DTD SVG 1.1//EN" "http://www.w3.org/Graphics/SVG/1.1/DTD/svg11.dtd">
<svg version="1.1" xmlns="http://www.w3.org/2000/svg" xmlns:xlink="http://www.w3.org/1999/xlink" x="0px" y="0px" viewBox="0 0 1000 1000" enable-background="new 0 0 1000 1000" xml:space="preserve">
<metadata> Svg Vector Icons : http://www.onlinewebfonts.com/icon </metadata>
<g><g transform="translate(0.000000,511.000000) scale(0.100000,-0.100000)"><path d="M100,110v-4607.1h4809.9h4809.9v1058.8v1058.9H7027.6H4335.4V402.9v2782.3h292.9h292.9v-621.8c0-416.8,9-653.3,27-711.9c36-123.9,200.5-299.6,322.2-344.7c155.4-60.8,380.7-40.5,520.4,47.3c132.9,81.1,234.3,236.6,250.1,380.7l13.5,101.4h-184.7c-180.2,0-182.5,0-182.5-56.3c0-117.2-139.7-178-308.7-132.9c-85.6,22.5-96.9,117.1-96.9,743.4v594.8h775h777.2l6.8-657.8l6.8-660.1l60.8-103.6c117.2-198.2,274.9-290.6,500.1-290.6c259.1,0,473.1,153.2,542.9,392c51.8,175.7,56.3,171.2-157.7,171.2h-191.5v-65.3c0-85.6-72.1-137.4-191.5-137.4c-49.6,0-114.9,15.8-141.9,36c-49.6,33.8-49.6,38.3-49.6,675.9v639.8h766h766v-574.5c0-635.3,15.8-750.2,119.4-905.7c182.5-272.6,608.3-317.6,847.1-90.1c87.8,83.4,182.5,270.3,182.5,360.5v60.8h-180.2h-180.2l-15.8-67.6c-6.8-38.3-33.8-83.4-60.8-101.4c-69.8-49.6-229.8-42.8-283.8,11.3c-42.8,42.8-45.1,74.3-45.1,675.9v630.8h292.9h292.9v191.5v191.5H7027.6H4335.4v574.5v574.5H2217.7H100V110z M2033,984.1l4.5-3363.5h-777.2H483V972.8c0,1845.1,4.5,3359,11.3,3365.8c6.8,6.8,353.7,11.3,772.7,9l759.2-2.3L2033,984.1z M3869.1,4343.1l83.4-13.5V975.1v-3354.5h-777.2h-777.2V972.8c0,1845.1,4.5,3359,11.3,3365.8C2425,4354.4,3765.4,4358.9,3869.1,4343.1z M9336.8-3438.3v-675.9H4909.9H483v664.6v664.6l1933,6.8c1061.1,2.3,3052.6,6.7,4426.9,11.3l2493.9,4.5V-3438.3z"/><path d="M1451.7,1168.8V684.5h191.5h191.5v484.4v484.4h-191.5h-191.5V1168.8z"/><path d="M3384.7,1626.2c-4.5-15.8-6.8-150.9-4.5-299.6s4.5-353.7,6.8-455.1l2.3-187h180.2h180.2v484.4v484.4h-178C3450,1653.2,3391.4,1644.2,3384.7,1626.2z"/><path d="M4335.4-3156.7v-191.5h574.5h574.5v191.5v191.5h-574.5h-574.5V-3156.7z"/></g></g>
</svg>