<?xml version="1.0" encoding="utf-8"?>
<!-- Svg Vector Icons : http://www.onlinewebfonts.com/icon -->
<!DOCTYPE svg PUBLIC "-//W3C//DTD SVG 1.1//EN" "http://www.w3.org/Graphics/SVG/1.1/DTD/svg11.dtd">
<svg version="1.1" xmlns="http://www.w3.org/2000/svg" xmlns:xlink="http://www.w3.org/1999/xlink" x="0px" y="0px" viewBox="0 0 1000 1000" enable-background="new 0 0 1000 1000" xml:space="preserve">
<metadata> Svg Vector Icons : http://www.onlinewebfonts.com/icon </metadata>
<g><g transform="translate(0.000000,511.000000) scale(0.100000,-0.100000)"><path d="M5959.8,211v-4748.5h290.5h290.5v-101v-101h189.4h189.4v101v101h1010.3h1010.3v-101v-101h189.4h189.4v101v101h290.5H9900V211v4748.5H7929.9H5959.8V211z M9495.9,3646.1v-909.3h-1566h-1566v909.3v909.3h1566h1566V3646.1z M9495.9,1322.4V312.1h-1566h-1566v1010.3v1010.3h1566h1566V1322.4z M9495.9-988.7v-921.9h-1566h-1566v921.9v921.9h1566h1566V-988.7z M9495.9-3224v-909.3h-1566h-1566v909.3v909.3h1566h1566V-3224z"/><path d="M100,110V-92.1h101h101v-2323.7v-2323.7h202.1h202.1v1919.6v1919.6H2891h2184.8v-1919.6v-1919.6h202.1h202.1v2323.7V-92.1h138.9h138.9V110v202.1H2928.9H100V110z M5075.8-294.1v-202.1H2891H706.2v202.1v202.1H2891h2184.8V-294.1z"/></g></g>
</svg>