<?xml version="1.0" encoding="utf-8"?>
<!-- Svg Vector Icons : http://www.onlinewebfonts.com/icon -->
<!DOCTYPE svg PUBLIC "-//W3C//DTD SVG 1.1//EN" "http://www.w3.org/Graphics/SVG/1.1/DTD/svg11.dtd">
<svg version="1.1" xmlns="http://www.w3.org/2000/svg" xmlns:xlink="http://www.w3.org/1999/xlink" x="0px" y="0px" viewBox="0 0 1000 1000" enable-background="new 0 0 1000 1000" xml:space="preserve">
<metadata> Svg Vector Icons : http://www.onlinewebfonts.com/icon </metadata>
<g><g transform="translate(0.000000,443.000000) scale(0.100000,-0.100000)"><path d="M4349.2,3210.3c0-417.3,3.8-467,40.2-564.6c51.7-137.8,210.5-312,340.7-373.2l97.6-44v-220.1v-220.1l-44,40.2c-61.3,57.4-166.5,55.5-218.2,0c-95.7-105.3-74.6-170.3,126.3-369.4c103.4-101.4,135.9-145.5,135.9-185.7v-53.6h-210.5h-210.5l-59.3-128.2c-107.2-237.3-130.2-310.1-153.1-484.3c-26.8-206.7,0-539.8,55.5-721.6L4288-235h-380.9h-380.9v76.6v76.6h95.7c105.3,0,199.1,38.3,218.2,86.1c24.9,67,11.5,145.5-36.4,191.4l-45.9,47.9h-882.4H1993l-45.9-47.9c-32.5-30.6-47.9-67-47.9-109.1c1.9-112.9,76.6-168.4,227.8-168.4h97.6v-76.6V-235h-145.5h-143.6l-132.1,105.3c-269.9,220.1-581.9,377.1-911.1,461.3c-187.6,45.9-488.1,84.2-679.5,84.2H100v-914.9c0-1003,3.8-1045.1,114.8-1238.4c112.9-197.1,388.5-405.8,589.5-442.1c32.5-5.8,61.3-19.1,61.3-30.6c0-9.6-134-549.3-296.7-1200.1S272.3-4622.1,272.3-4654.6c0-130.1,149.3-199.1,252.7-116.7c44,32.5,78.5,160.8,342.6,1215.4c162.7,647,298.6,1177.1,304.3,1177.1s168.4-511.1,361.8-1135c193.3-622.1,363.7-1159.9,379-1192.5c26.8-61.3,93.8-103.4,160.8-103.4c49.8,0,151.2,99.5,151.2,147.4c0,21.1-168.4,572.3-373.2,1228.8c-204.8,654.6-373.2,1200.1-373.2,1209.7s245,17.2,612.5,17.2c522.5,0,614.4,3.8,624,28.7c32.5,82.3-53.6,748.4-116.8,914.9c-13.4,30.6,28.7,32.5,706.3,32.5h719.7v-325.4v-325.4H4265h239.3l-5.7-788.6l-5.7-790.5l-53.6-153.1c-141.7-398.1-423-673.7-826.9-807.7c-143.6-47.9-181.8-51.7-645-61.3c-468.9-11.5-495.7-13.4-534-51.7c-59.3-61.3-55.5-176.1,11.5-231.6l49.8-44H5000h2505.5l49.8,44c67,55.5,70.8,170.4,11.5,231.6c-38.3,38.3-65.1,40.2-534,51.7c-463.2,9.6-501.5,13.4-645,61.3c-403.9,134-685.2,409.6-826.9,807.7l-53.6,153.1l-5.7,790.5l-5.7,788.6H5735h241.2v325.4v325.4h719.7c677.6,0,719.7-1.9,706.3-32.5c-63.2-168.4-149.3-830.7-118.7-914.9c11.5-24.9,82.3-28.7,555.1-28.7h545.5l-308.2-1228.8c-285.2-1138.9-304.3-1230.7-279.5-1276.7c59.3-103.3,183.8-124.4,260.3-42.1c23,24.9,134,436.4,329.2,1217.3c160.8,647,296.7,1175.2,298.6,1173.3c1.9-3.8,170.4-535.9,371.3-1182.9c394.3-1263.3,394.3-1263.3,520.6-1263.3c78.5,0,151.2,74.7,151.2,155c0,45.9-671.8,2243.3-738.8,2419.4c-5.8,13.4,36.4,28.7,126.3,42.1c356,55.5,668,329.2,756.1,666.1c23,93.8,28.7,266.1,28.7,1027.9v914.9h-112.9c-191.4,0-491.9-38.3-679.5-84.2c-329.2-84.2-641.2-241.2-911.1-461.3L8064.4-235h-143.6h-145.5v76.6v76.6h97.6c151.2,0,225.9,55.5,227.8,168.4c0,42.1-15.3,78.5-47.9,109.1l-45.9,47.9h-882.4h-882.4l-45.9-47.9c-47.9-45.9-61.3-124.4-36.4-191.4c19.1-47.9,112.9-86.1,218.2-86.1h95.7v-76.6V-235h-380.9H5712l36.4,114.8c57.4,185.7,82.3,503.4,57.4,719.7c-17.2,151.2-40.2,227.8-114.8,398.1l-91.9,212.5l-214.4,5.7l-212.5,5.7v214.4v216.3l135.9,132.1c193.3,189.5,218.2,264.1,126.3,369.4c-51.7,55.5-157,57.4-218.2,0l-44-40.2v135.9v135.9l114.8,61.3c134,70.8,225.9,166.5,300.5,308.2c47.9,91.9,53.6,124.4,59.3,346.4l7.7,243.1h-241.2h-241.2V3507v162.7h-411.5h-411.5V3210.3z M4827.7,2961.4c0-210.5-7.7-382.8-15.3-382.8c-26.8,0-95.7,82.3-116.8,139.7c-11.5,30.6-21.1,183.8-21.1,340.7v285.2h76.6h76.6V2961.4z M5325.4,2980.6c0-61.3-47.9-158.9-103.4-208.6l-49.8-45.9v145.5v147.4h76.6C5313.9,3018.9,5325.4,3013.1,5325.4,2980.6z M5417.3,806.2c65.1-132.1,86.1-344.5,63.2-597.2c-22.9-243.1-63.2-348.4-160.8-405.8c-53.6-32.5-97.6-38.3-321.6-38.3c-239.3,0-266.1,3.8-325.4,44c-95.7,63.2-130.2,151.2-153.1,400c-24.9,254.6-5.7,453.6,59.3,595.3l40.2,90h377.1h379L5417.3,806.2z M840.7,15.7C1436-137.4,1901.1-527.9,2184.4-1115.5c105.3-218.2,168.4-428.8,187.6-637.4l11.5-132.1l-773.3,7.7c-759.9,7.6-775.2,7.6-872.8,51.7c-111,49.8-216.3,153.1-268,264.1c-30.6,65.1-34.4,157-40.2,855.6l-5.7,782.8l130.2-11.5C626.4,59.7,754.6,36.8,840.7,15.7z M9570.8-707.8l-5.7-780.9l-51.7-95.7c-63.2-120.6-134-187.6-254.6-243.1c-93.8-42.1-111-44-869-49.8l-773.3-5.7l11.5,130.1c28.7,294.8,168.4,664.2,359.8,947.5c124.4,181.8,371.3,426.8,547.4,545.5c279.5,185.7,669.9,319.6,949.4,329.2l91.9,1.9L9570.8-707.8z M3200.8-158.5V-235h-325.4H2550v76.6v76.6h325.4h325.4V-158.5z M7450-158.5V-235h-325.4h-325.4v76.6v76.6h325.4H7450V-158.5z M7737.1-594.9c0-7.7-9.6-24.9-21-36.4c-11.5-11.5-53.6-74.6-93.8-141.6l-72.7-122.5L5000-897.3H2452.4l-78.5,130.1c-42.1,72.7-84.2,135.9-93.8,141.6c-9.6,5.8-17.2,17.2-17.2,28.7c0,9.6,1039.3,17.2,2737.1,17.2C6506.4-579.6,7737.1-587.2,7737.1-594.9z M5650.8-1393v-162.7h-239.3h-239.3v-913c0-853.7,3.8-926.4,38.3-1077.6c74.7-306.2,250.7-601,495.8-826.9l118.7-111h-825h-823l132.1,124.4c237.3,225.9,407.7,513,480.4,819.2c34.4,145.5,38.3,227.8,38.3,1071.9v913h-239.3h-239.3v162.7v162.7H5000h650.8V-1393z"/></g></g>
</svg>