<?xml version="1.0" encoding="utf-8"?>
<!-- Svg Vector Icons : http://www.onlinewebfonts.com/icon -->
<!DOCTYPE svg PUBLIC "-//W3C//DTD SVG 1.1//EN" "http://www.w3.org/Graphics/SVG/1.1/DTD/svg11.dtd">
<svg version="1.1" xmlns="http://www.w3.org/2000/svg" xmlns:xlink="http://www.w3.org/1999/xlink" x="0px" y="0px" viewBox="0 0 1000 1000" enable-background="new 0 0 1000 1000" xml:space="preserve">
<metadata> Svg Vector Icons : http://www.onlinewebfonts.com/icon </metadata>
<g><g transform="translate(0.000000,512.000000) scale(0.100000,-0.100000)"><path d="M100,2824.1V618.6h508.2h508.2l28.8-44.1c15.3-24.9,61.4-63.3,103.6-86.3c63.3-36.4,103.6-42.2,278.1-42.2h203.3V283V120h-565.8H598.6v-326v-326H349.3H100v-2128.8v-2128.8h2052.1h2052.1v1137.3c0,623.3-5.8,1582.2-13.4,2128.8l-11.5,991.5h-237.8h-235.9v326v326h-575.3h-575.3v163v163h203.3c228.2,0,308.8,24.9,377.8,118.9l40.3,53.7h504.4h504.4v2205.5v2205.5H2142.5H100V2824.1z M3858.9,2824.1V944.7h-326h-326v47.9c0,72.9-47.9,153.4-128.5,214.8l-69,53.7l-841.9,5.8l-841.9,5.8l-78.6-44.1c-80.5-46-168.8-170.7-168.8-241.6c0-42.2-3.8-42.2-326-42.2H426v1879.5v1879.5h1716.4h1716.4V2824.1z M1730.1,848.8v-78.6l-157.3,5.8l-159.2,5.8l-5.7,72.9l-5.8,71h163h164.9V848.8z M2228.8,522.7V120h-86.3h-86.3v226.3c0,126.6,5.8,306.8,11.5,402.7l13.4,176.4h72.9h74.8V522.7z M2880.8,848.8v-76.7h-163h-163v76.7v76.7h163h163V848.8z M3369.9-603c-11.5-356.7-17.3-408.5-57.5-496.7c-24.9-55.6-71-118.9-107.4-145.8c-140-101.6-134.2-101.6-1062.5-101.6h-863l-105.5,51.8c-59.5,28.8-126.6,78.6-149.6,111.2c-88.2,117-99.7,191.8-99.7,596.4V-206H2154h1227.4L3369.9-603z M596.7-977c46-270.4,235.9-512.1,494.8-634.8l130.4-61.4l880.3-5.8c840-5.7,888-3.8,1010.7,34.5c295.3,88.2,525.5,352.9,579.2,663.6l21.1,122.7h72.9h72.9v-489v-489H2142.5H426v489v489h74.8h74.8L596.7-977z M3858.9-2651.2v-489H2142.5H426v475.6c0,262.7,5.8,483.3,13.4,489c5.7,7.7,778.6,13.4,1716.4,13.4h1703V-2651.2z M3858.9-3974.5v-489H2142.5H426v489v489h1716.4h1716.4V-3974.5z"/><path d="M1317.8,4341.1c-30.7-19.2-207.1-186-387.4-370.1c-318.3-320.3-331.8-337.5-331.8-410.4c0-99.7,59.5-161.1,155.3-161.1c61.4,0,97.8,32.6,444.9,379.7c418.1,420,427.7,437.3,322.2,542.7C1455.9,4387.1,1398.4,4392.9,1317.8,4341.1z"/><path d="M1872.1,4087.9c-272.3-274.2-295.3-303-295.3-366.3c0-53.7,13.4-80.5,61.4-120.8c101.6-86.3,141.9-65.2,462.2,255.1c260.8,258.9,281.9,287.7,281.9,351c0,92.1-49.9,149.6-140,164.9l-72.9,11.5L1872.1,4087.9z"/><path d="M805.8,3019.7c-189.9-189.9-207.1-212.9-207.1-278.1c0-94,69-166.9,155.3-166.9c53.7,0,92.1,30.7,270.4,207.1c243.6,241.6,266.6,293.4,172.6,387.4c-42.2,40.3-76.7,57.5-120.8,57.5C1020.5,3226.9,984.1,3198.1,805.8,3019.7z"/><path d="M1902.7-2670.4v-163h239.7h239.7v163v163h-239.7h-239.7V-2670.4z"/><path d="M1902.7-3974.5v-163h239.7h239.7v163v163h-239.7h-239.7V-3974.5z"/><path d="M4357.5,120v-4909.6h2771.2H9900V120v4909.6H7128.8H4357.5V120z M6639.7,4540.5v-163H6517c-235.9,0-450.7-95.9-621.3-276.2c-111.2-117-186-258.9-218.6-418.1c-24.9-117-11.5-191.8,42.2-245.5c36.4-36.4,69-38.4,1089.3-38.4h1052.9l38.3,44.1c59.4,65.2,65.2,103.6,42.2,232.1c-72.9,406.6-433.4,701.9-855.4,701.9h-120.8v163v163h1313.7h1313.7l-1.9-2535.4V-369l-38.4,97.8C9503-142.7,9393.7-18.1,9265.2,52.9c-90.1,49.9-122.8,57.5-247.4,57.5c-111.2,0-163-9.6-226.3-44.1c-291.5-153.4-420-479.5-293.4-738.4c141.9-291.5,475.6-425.8,740.3-301.1c130.4,63.3,266.6,205.2,314.5,329.9l38.4,101.6v-1960l1.9-1961.9H7138.4H4683.6V120v4583.6h978.1h978.1V4540.5z M7385.8,3984.4c69-38.4,122.7-86.3,159.2-141.9c28.8-47.9,53.7-94,53.7-101.7c0-7.7-352.9-15.3-786.3-15.3c-648.2,0-786.3,3.8-786.3,24.9c0,40.3,103.6,172.6,164.9,214.8c117,76.7,189.9,86.3,650.1,80.6l441.1-3.8L7385.8,3984.4z M9144.4-234.8c126.6-51.8,163-278.1,63.3-385.5c-99.7-105.5-304.9-95.9-389.3,17.2c-47.9,65.2-53.7,211-13.4,287.7C8858.6-215.6,9012.1-179.2,9144.4-234.8z"/><path d="M5456.4,2734c-82.5-15.3-120.8-94-120.8-239.7c0-122.7,5.8-138.1,55.6-189.9c70.9-71,149.6-72.9,220.5-7.7c46,42.2,49.9,59.5,49.9,189.9c0,122.7-5.7,151.5-42.2,191.8C5571.5,2730.1,5521.6,2745.5,5456.4,2734z"/><path d="M6087.4,2718.6c-74.8-32.6-99.7-92.1-99.7-241.7c0-103.6,5.7-122.7,55.6-172.6c72.9-71,157.2-74.8,222.5-7.7c42.2,40.3,47.9,63.3,47.9,197.5c0,132.3-5.8,155.3-42.2,189.9C6210.1,2739.7,6160.3,2749.3,6087.4,2718.6z"/><path d="M6743.3,2720.6c-78.7-34.5-111.3-117-99.7-262.7c7.7-99.7,17.3-126.6,61.4-164.9c69-57.5,153.4-57.5,212.9,3.8c42.2,40.3,47.9,63.3,47.9,197.5c0,132.3-5.8,155.3-42.2,189.9C6862.2,2739.7,6812.3,2749.3,6743.3,2720.6z"/><path d="M7395.4,2720.6c-78.6-34.5-113.2-130.4-97.8-278.1c13.4-124.7,72.9-193.7,166.9-193.7s153.4,69,166.9,193.7c15.3,149.6-19.2,243.6-101.6,278.1C7454.8,2751.2,7470.1,2751.2,7395.4,2720.6z"/><path d="M8078.1,2734c-15.3-5.8-47.9-28.8-71-49.9c-38.4-34.5-44.1-57.5-44.1-189.9c0-134.2,5.7-157.3,47.9-197.5c59.4-61.4,143.8-61.4,212.9-3.8c44.1,38.4,53.7,65.2,61.4,164.9c11.5,149.6-21.1,228.2-103.6,262.7c-36.4,15.3-67.1,26.8-69.1,24.9C8108.8,2745.5,8093.4,2739.7,8078.1,2734z"/><path d="M5383.6,2028.2c-42.2-40.3-47.9-63.3-47.9-172.6c0-184.1,47.9-257,168.8-258.9c42.2,0,78.7,15.3,109.3,47.9c42.2,40.3,47.9,63.3,47.9,191.8c0,128.5-5.7,151.5-47.9,191.8C5550.4,2093.4,5446.8,2093.4,5383.6,2028.2z"/><path d="M6068.2,2062.7c-46-17.3-80.5-118.9-80.5-234c0-94,7.7-124.7,49.9-172.6c63.3-76.7,159.2-82.5,228.2-11.5c42.2,40.3,47.9,63.3,47.9,187.9c0,180.3-40.3,243.6-149.6,241.7C6125.8,2074.2,6081.6,2068.5,6068.2,2062.7z"/><path d="M6697.3,2037.8c-49.9-49.9-63.3-113.1-53.7-243.6c7.7-88.2,19.2-117,61.4-153.4c69-57.5,153.4-57.5,212.9,3.8c42.2,40.3,47.9,63.3,47.9,197.5c0,132.3-5.8,155.3-44.1,191.8C6864.1,2089.6,6751,2091.5,6697.3,2037.8z"/><path d="M7347.4,2026.3c-40.3-42.2-46-67.1-46-193.7c0-134.2,3.8-145.7,53.7-189.9c69.1-59.5,149.6-59.5,218.6,0c49.9,44.1,53.7,55.6,53.7,189.9c0,126.6-5.7,151.5-46,193.7C7516.2,2095.3,7412.6,2095.3,7347.4,2026.3z"/><path d="M8005.2,2032.1c-36.4-38.4-42.2-67.1-42.2-193.7c0-130.4,5.7-153.4,47.9-193.7c101.6-103.6,255.1-30.7,272.3,128.5c13.4,117-7.7,220.5-53.7,266.6C8175.9,2093.4,8058.9,2089.6,8005.2,2032.1z"/><path d="M5416.2,1410.7c-47.9-19.2-80.6-118.9-80.6-245.5c0-109.3,5.8-132.3,47.9-172.6c30.7-32.6,67.1-47.9,115.1-47.9s84.4,15.3,115.1,47.9c42.2,40.3,47.9,63.3,47.9,191.8s-5.7,151.5-47.9,191.8C5569.6,1422.2,5481.4,1437.5,5416.2,1410.7z"/><path d="M6068.2,1410.7c-109.3-44.1-105.5-412.3,5.8-454.5c67.1-24.9,145.7-11.5,191.8,36.4c42.2,40.3,47.9,63.3,47.9,191.8s-5.8,151.5-47.9,191.8C6221.6,1422.2,6133.4,1437.5,6068.2,1410.7z"/><path d="M6697.3,1376.2c-38.4-40.3-47.9-74.8-53.7-180.3c-7.7-117-3.8-134.2,44.1-189.9c65.2-78.6,172.6-86.3,235.9-17.3c36.4,38.4,42.2,67.1,42.2,199.5c0,145.7-3.8,159.2-49.9,195.6C6844.9,1439.4,6752.9,1435.6,6697.3,1376.2z"/><path d="M7347.4,1374.2c-40.3-42.2-46-67.1-46-189.9c0-122.7,5.8-147.7,46-189.9c65.2-69,168.8-69,234,0c40.3,42.2,46,67.1,46,189.9c0,122.7-5.7,147.7-46,189.9C7516.2,1443.3,7412.6,1443.3,7347.4,1374.2z"/><path d="M8012.9,1383.8c-46-36.4-49.9-49.9-49.9-197.5c0-140,5.7-163,44.1-199.4c63.3-59.5,166.9-55.6,226.3,7.7c40.3,42.2,46,67.1,46,189.9c0,122.7-5.8,147.7-46,189.9C8175.9,1435.6,8083.8,1439.4,8012.9,1383.8z"/><path d="M5410.4,747.1c-53.7-42.2-74.8-105.5-74.8-234c0-109.3,5.8-132.3,47.9-172.6c30.7-32.6,67.1-47.9,115.1-47.9s84.4,15.3,115.1,47.9c42.2,40.3,47.9,63.3,47.9,191.8s-5.7,151.5-47.9,191.8C5561.9,775.9,5462.2,787.4,5410.4,747.1z"/><path d="M6037.5,712.6c-42.2-47.9-49.9-78.6-49.9-172.6c0-120.8,34.5-214.8,86.3-235.9c74.8-28.8,159.2-11.5,199.5,38.4c32.6,42.2,40.3,78.6,40.3,193.7c0,124.7-5.8,147.7-47.9,187.9C6196.7,795.1,6100.8,789.3,6037.5,712.6z"/><path d="M6704.9,727.9c-42.2-36.4-53.7-65.2-61.4-153.4c-15.3-193.7,36.4-281.9,164.9-281.9c120.8,0,157.3,55.6,157.3,237.8c0,130.4-5.8,153.4-47.9,193.7C6858.4,785.5,6774,785.5,6704.9,727.9z"/><path d="M7355.1,726c-49.8-44.1-53.7-55.6-53.7-189.9c0-126.6,5.8-151.5,46-193.7c65.2-69,168.8-69,234,0c40.3,42.2,46,67.1,46,193.7c0,134.2-3.8,145.7-53.7,189.9C7504.6,785.5,7424.1,785.5,7355.1,726z"/><path d="M8011,724.1c-42.2-40.3-47.9-63.3-47.9-197.5c0-132.3,5.7-155.3,44.1-191.8c57.5-55.6,170.7-57.5,224.4-3.8c49.9,49.9,63.3,113.1,53.7,243.6c-7.7,88.2-19.2,117-61.4,153.4C8154.8,785.5,8070.4,785.5,8011,724.1z"/><path d="M5391.2,64.4c-51.8-51.8-55.6-67.1-55.6-191.8c0-113.1,7.7-141.9,46-186c34.5-40.3,61.4-53.7,117-53.7s82.5,13.4,117,53.7c40.3,44.1,46,72.9,46,191.8c0,126.6-5.7,145.8-49.9,191.8C5542.7,137.3,5464.1,135.3,5391.2,64.4z"/><path d="M6043.3,64.4c-49.9-49.9-55.6-69-55.6-172.6c0-153.4,23-209,103.6-241.6c74.8-30.7,115.1-23,180.3,34.5c36.4,34.5,42.2,57.5,42.2,189.9c0,134.2-5.8,157.3-47.9,197.5C6200.5,139.2,6116.2,135.3,6043.3,64.4z"/><path d="M6704.9,75.9c-44.1-38.4-53.7-65.2-61.4-164.9c-11.5-149.6,21.1-228.2,103.5-262.7c71-28.8,111.3-21.1,176.4,36.4c36.4,34.5,42.2,57.5,42.2,189.9c0,134.2-5.8,157.3-47.9,197.5C6858.4,133.4,6774,133.4,6704.9,75.9z"/><path d="M7357,75.9c-42.2-36.4-53.7-65.2-61.4-151.5c-3.8-59.4,1.9-138.1,15.3-178.3c49.9-153.4,257-151.5,306.9,0c38.3,113.2,13.4,278.1-47.9,331.8C7504.6,131.5,7422.2,131.5,7357,75.9z"/><path d="M8011,72.1c-42.2-40.3-47.9-63.3-47.9-197.5c0-132.3,5.7-155.4,44.1-189.9c63.3-57.5,103.6-65.2,174.5-36.4c82.5,34.5,115.1,113.1,103.6,262.7c-7.7,99.7-17.3,126.6-61.4,164.9C8154.8,133.4,8070.4,133.4,8011,72.1z"/><path d="M5391.2-587.7c-51.8-51.8-55.6-67.1-55.6-191.8c0-111.2,7.7-141.9,44.1-182.2c23-28.8,69-55.6,103.6-61.4c51.8-9.6,71-1.9,120.8,46c53.7,53.7,57.5,67.1,57.5,199.5c-1.9,145.7-17.3,184.1-90.1,222.5C5504.4-518.6,5450.7-528.2,5391.2-587.7z"/><path d="M6041.4-589.6c-55.6-57.5-57.5-63.3-49.9-201.4c7.7-161.1,38.4-211,141.9-232.1c46-7.7,71,0,118.9,40.3c59.5,49.9,61.4,57.5,61.4,191.8c0,170.7-7.7,195.6-78.6,230.1C6154.5-518.6,6106.6-526.3,6041.4-589.6z"/><path d="M6706.9-576.2c-49.9-42.2-57.5-61.4-63.3-178.3c-5.8-151.5,19.2-214.8,99.7-253.2c61.3-30.7,132.3-17.3,184.1,34.5c32.6,32.6,38.3,65.2,38.3,189.9c0,176.4-28.8,226.3-136.2,243.6C6775.9-530.1,6751-537.8,6706.9-576.2z"/><path d="M7381.9-553.1c-82.5-47.9-115.1-245.5-63.3-370.2c55.6-134.2,235.9-134.2,291.5,0c53.7,128.5,17.3,326-65.2,370.2C7495.1-526.3,7426-526.3,7381.9-553.1z"/><path d="M8045.5-551.2c-63.3-26.9-82.5-80.6-82.5-237.8c0-157.2,26.9-209,120.8-232.1c128.5-32.6,212.9,80.5,201.4,274.2c-7.7,105.5-15.3,130.4-61.4,168.8C8170.1-530.1,8116.4-522.5,8045.5-551.2z"/><path d="M5439.2-1203.3c-74.8-30.7-103.6-94-103.6-235.9c0-118.9,5.8-136.2,55.6-187.9c69-69.1,134.2-71,211-5.8c57.5,47.9,59.4,55.6,59.4,193.7c0,132.3-3.8,147.7-55.6,199.5C5548.5-1182.2,5510.1-1174.5,5439.2-1203.3z"/><path d="M6091.2-1203.3c-74.8-30.7-103.6-94-103.6-235.9c0-118.9,5.7-136.2,55.6-187.9c59.4-59.5,113.1-69.1,180.3-32.6c74.8,38.4,88.2,76.7,90.1,230.1c0,140-1.9,147.7-59.4,195.6C6192.9-1182.2,6158.4-1176.4,6091.2-1203.3z"/><path d="M6735.6-1209c-24.9-13.4-57.5-46-71-71c-30.7-61.4-30.7-245.5,0-306.9c51.8-103.6,180.3-120.8,262.8-38.3c30.7,30.7,38.3,65.2,38.3,180.3c0,172.6-7.7,197.5-78.6,232.1C6821.9-1178.4,6797-1178.4,6735.6-1209z"/><path d="M7385.8-1212.9c-140-76.7-117-414.2,30.7-456.4c34.5-9.6,78.6-7.7,111.2,3.8c138.1,53.7,147.7,383.6,11.5,452.6C7474-1178.4,7449-1178.4,7385.8-1212.9z"/><path d="M8049.3-1207.1c-72.9-38.4-86.3-76.7-86.3-228.2c0-172.6,28.8-222.5,136.2-239.7c53.7-9.6,78.6-1.9,122.7,36.4c47.9,40.3,55.6,63.3,63.3,170.7c9.6,143.8-26.8,235.9-103.6,264.7C8120.3-1180.3,8097.3-1180.3,8049.3-1207.1z"/><path d="M5439.2-1855.3c-74.8-30.7-103.6-94-103.6-235.9c0-118.9,5.8-136.2,55.6-187.9c59.4-59.5,113.1-69.1,180.3-32.6c72.9,38.4,88.2,76.7,90.1,220.5c0,117-7.7,145.7-42.2,186C5569.6-1849.6,5498.6-1830.4,5439.2-1855.3z"/><path d="M6077.8-1866.8c-67.1-36.4-90.1-95.9-90.1-239.7c0-103.6,5.7-122.8,55.6-172.6c72.9-71,157.2-74.8,222.5-7.7c42.2,40.3,47.9,63.3,47.9,197.5c0,132.3-5.8,155.4-42.2,191.8C6210.1-1841.9,6141.1-1830.4,6077.8-1866.8z"/><path d="M6733.7-1864.9c-71-38.3-99.7-122.7-90.1-260.8c7.7-99.7,17.3-126.6,61.4-164.9c69-57.5,153.4-57.5,212.9,3.8c42.2,40.3,47.9,63.3,47.9,197.5c0,132.3-5.8,155.4-42.2,191.8C6864.1-1843.8,6793.1-1830.4,6733.7-1864.9z"/><path d="M7395.4-1863c-78.6-34.5-113.2-130.4-97.8-278.1c30.7-293.4,339.5-245.5,339.5,51.8c0,120.8-36.4,195.6-107.4,226.3C7454.8-1832.3,7470.1-1832.3,7395.4-1863z"/><path d="M8078.1-1849.6c-15.3-5.8-47.9-28.8-71-49.9c-38.4-34.5-44.1-57.5-44.1-189.9c0-134.2,5.7-157.3,47.9-197.5c59.4-61.4,143.8-61.4,212.9-3.8c44.1,38.3,53.7,65.2,61.4,164.9c9.6,140-19.2,222.5-94,260.8C8133.7-1834.3,8124.1-1832.3,8078.1-1849.6z"/><path d="M5383.6-2555.3c-42.2-40.3-47.9-63.3-47.9-172.6c0-184.1,47.9-257,168.8-258.9c42.2,0,78.7,15.3,109.3,47.9c42.2,40.3,47.9,63.3,47.9,187.9c0,115.1-7.7,151.5-40.3,193.7C5567.7-2488.2,5450.7-2486.3,5383.6-2555.3z"/><path d="M6068.2-2520.8c-46-17.3-80.5-118.9-80.5-235.9c0-105.5,5.7-124.7,55.6-174.5c72.9-71,157.2-74.8,222.5-7.7c42.2,40.3,47.9,63.3,47.9,187.9c0,180.3-40.3,243.6-149.6,241.7C6125.8-2509.3,6081.6-2515.1,6068.2-2520.8z"/><path d="M6697.3-2545.8c-49.9-49.9-63.3-113.2-53.7-243.6c7.7-88.2,19.2-117,61.4-153.4c69-57.5,153.4-57.5,212.9,3.8c42.2,40.3,47.9,63.3,47.9,197.5c0,132.3-5.8,155.4-44.1,191.8C6864.1-2494,6751-2492.1,6697.3-2545.8z"/><path d="M7347.4-2557.3c-40.3-42.2-46-67.1-46-193.7c0-134.2,3.8-145.8,53.7-189.9c69.1-59.5,149.6-59.5,218.6,0c49.9,44.1,53.7,55.6,53.7,189.9c0,126.6-5.7,151.5-46,193.7C7516.2-2488.2,7412.6-2488.2,7347.4-2557.3z"/><path d="M8005.2-2551.5c-36.4-38.4-42.2-67.1-42.2-193.7c0-130.4,5.7-153.4,47.9-193.7c59.4-61.4,143.8-61.4,212.9-3.8c42.2,36.4,53.7,65.2,61.4,153.4c9.6,130.4-3.8,193.7-53.7,243.6C8175.9-2490.1,8058.9-2494,8005.2-2551.5z"/><path d="M5383.6-3207.4c-42.2-40.3-47.9-63.3-47.9-172.6c0-132.3,32.6-226.3,86.3-247.4c67.1-24.9,145.8-11.5,191.8,36.4c42.2,40.3,47.9,63.3,47.9,191.8s-5.7,151.5-47.9,191.8c-30.7,32.6-67.1,47.9-115.1,47.9S5414.2-3174.8,5383.6-3207.4z"/><path d="M6068.2-3172.9c-71-28.8-109.3-280-57.5-375.9c53.7-101.6,176.4-122.8,255.1-42.2c42.2,40.3,47.9,63.3,47.9,191.8s-5.8,151.5-47.9,191.8C6221.6-3161.4,6133.4-3146,6068.2-3172.9z"/><path d="M6687.7-3220.8c-47.9-55.6-51.8-72.9-44.1-189.9c5.8-105.5,15.3-140,53.7-180.3c55.6-59.4,147.7-63.3,218.6-7.7c46,36.4,49.9,49.9,49.9,197.5c0,140-5.8,163-44.1,199.4C6852.6-3136.4,6751-3144.1,6687.7-3220.8z"/><path d="M7347.4-3209.3c-40.3-42.2-46-67.1-46-189.9c0-122.7,5.8-147.7,46-189.9c34.5-36.4,67.1-49.9,117-49.9s82.5,13.4,117,49.9c40.3,42.2,46,67.1,46,189.9c0,122.8-5.7,147.7-46,189.9c-34.5,36.4-67.1,49.9-117,49.9S7381.9-3172.9,7347.4-3209.3z"/><path d="M8005.2-3203.6c-36.4-38.4-42.2-67.1-42.2-199.5c0-145.7,3.8-159.2,49.9-195.6c71-55.6,163-51.8,220.5,9.6c40.3,42.2,46,67.1,46,189.9c0,122.8-5.8,147.7-46,189.9C8172.1-3144.1,8064.6-3140.3,8005.2-3203.6z"/></g></g>
</svg>