<?xml version="1.0" encoding="utf-8"?>
<!-- Svg Vector Icons : http://www.onlinewebfonts.com/icon -->
<!DOCTYPE svg PUBLIC "-//W3C//DTD SVG 1.1//EN" "http://www.w3.org/Graphics/SVG/1.1/DTD/svg11.dtd">
<svg version="1.1" xmlns="http://www.w3.org/2000/svg" xmlns:xlink="http://www.w3.org/1999/xlink" x="0px" y="0px" viewBox="0 0 1000 1000" enable-background="new 0 0 1000 1000" xml:space="preserve">
<metadata> Svg Vector Icons : http://www.onlinewebfonts.com/icon </metadata>
<g><g transform="translate(0.000000,511.000000) scale(0.100000,-0.100000)"><path d="M100,110v-4205.3h207.7h207.7v765.8v765.8h4490.8H9497v-765.8v-765.8h189.5h192.1l15.6,1066.9c7.8,586.7,7.8,2479,0,4205.3l-15.6,3138.4h-192.1H9497v-389.4v-389.4H5006.2H515.3v389.4v389.4H307.7H100V110z M1294.1,1459.8V-201.5H904.7H515.3v1661.4v1661.3h389.4h389.4V1459.8z M2462.2,1459.8V-201.5h-389.4h-389.4v1661.4v1661.3h389.4h389.4V1459.8z M3630.4,1459.8V-201.5H3241h-389.4v1661.4v1661.3H3241h389.4V1459.8z M4798.5,1459.8V-201.5h-376.4h-376.4v1661.4v1661.3h376.4h376.4V1459.8z M5966.6,1459.8V-201.5h-376.4h-376.4v1661.4v1661.3h376.4h376.4V1459.8z M7160.7,1459.8V-201.5h-389.4H6382v1661.4v1661.3h389.4h389.4V1459.8z M8328.9,1459.8V-201.5h-389.4h-389.4v1661.4v1661.3h389.4h389.4V1459.8z M9497,1459.8V-201.5h-389.4h-389.4v1661.4v1661.3h389.4H9497V1459.8z M9471.1-1382.6v-765.8H4993.2H515.3v765.8v765.8h4477.9h4477.9V-1382.6z"/></g></g>
</svg>