<?xml version="1.0" encoding="utf-8"?>
<!-- Svg Vector Icons : http://www.onlinewebfonts.com/icon -->
<!DOCTYPE svg PUBLIC "-//W3C//DTD SVG 1.1//EN" "http://www.w3.org/Graphics/SVG/1.1/DTD/svg11.dtd">
<svg version="1.1" xmlns="http://www.w3.org/2000/svg" xmlns:xlink="http://www.w3.org/1999/xlink" x="0px" y="0px" viewBox="0 0 1000 1000" enable-background="new 0 0 1000 1000" xml:space="preserve">
<metadata> Svg Vector Icons : http://www.onlinewebfonts.com/icon </metadata>
<g><g transform="translate(0.000000,503.000000) scale(0.100000,-0.100000)"><path d="M2875.4,3293.5V1743.1h976.2h976.2v-162.7v-162.7H3397.9c-1221.2,1.9-1420.2,5.7-1359,26.8c197.2,70.8,338.8,264.1,338.8,461.3c0,132.1-32.5,210.5-128.2,315.8c-103.4,116.8-231.6,172.3-392.4,172.3H1727v86.1v86.1h-564.6H597.7v-574.2v-574.2H348.8H100V931.5V443.4l82.3-5.7l80.4-5.7l1.9-1952.3c1.9-1073.8,3.8-2247.1,5.7-2607l1.9-656.5h1464.3h1464.3v1952.3v1952.3H5000h1799.2v-1952.3v-1952.3h1464.3h1464.3l1.9,656.5c1.9,359.8,3.8,1533.2,5.8,2607l1.9,1952.3l82.3,5.7l80.4,5.7v488.1v486.2h-162.7h-162.7v976.2V3370h-488.1h-488.1v-162.7v-162.7H8273h-325.4v-813.5v-813.5H6560H5172.3v162.7v162.7h976.2h976.2v1550.4v1550.4H5000H2875.4V3293.5z M6799.2,3293.5v-1225H5000H3200.8v1225v1225H5000h1799.2V3293.5z M9249.2,2231.2v-813.5h-162.7h-162.7v813.5v813.5h162.7h162.7V2231.2z M8594.6,2068.5v-650.8h-160.8H8273v650.8v650.8h160.8h160.8V2068.5z M1401.6,1829.2v-411.5h-239.3H923v411.5v411.5h239.3h239.3V1829.2z M2014.1,2030.2c26.8-26.8,38.3-63.2,38.3-120.6c0-128.2-30.6-155-189.5-162.7l-135.9-7.7v164.6v164.6h124.4C1950.9,2068.5,1983.4,2060.8,2014.1,2030.2z M9574.6,929.6V766.9H5000H425.4v162.7v162.7H5000h4574.6V929.6z M2875.4-46.6v-488.1H1736.5H597.7v488.1v488.1h1138.9h1138.9V-46.6z M6795.4-50.4l3.8-484.3H5000H3200.8V-60c0,262.2,5.7,482.3,13.4,488.1c5.7,7.7,813.5,11.5,1793.5,9.6l1782-5.7L6795.4-50.4z M9402.3-46.6v-488.1H8263.5H7124.6v488.1v488.1h1138.9h1138.9V-46.6z M2875.4-1357.7v-478.5H1736.5H597.7v478.5v478.5h1138.9h1138.9V-1357.7z M9402.3-1357.7v-478.5H8263.5H7124.6v478.5v478.5h1138.9h1138.9V-1357.7z M2875.4-2668.8v-488.1H1736.5H597.7v488.1v488.1h1138.9h1138.9V-2668.8z M9402.3-2668.8v-488.1H8263.5H7124.6v488.1v488.1h1138.9h1138.9V-2668.8z M2875.4-3970.4v-488.1H1736.5H597.7v488.1v488.1h1138.9h1138.9V-3970.4z M9402.3-3970.4v-488.1H8263.5H7124.6v488.1v488.1h1138.9h1138.9V-3970.4z"/><path d="M4603.8,97c-55.5-23-107.2-124.4-90-178c5.7-23,30.6-61.3,51.7-84.2c38.3-42.1,49.8-44,434.5-44c384.7,0,396.2,1.9,434.5,44c21.1,23,44,57.4,49.8,76.6c19.1,53.6-36.4,164.6-91.9,185.7C5331.1,120,4661.2,120,4603.8,97z"/><path d="M1363.3-1198.8c-116.8-44-155-191.4-70.8-269.9c40.2-38.3,67-42.1,273.7-44c543.6-3.8,560.8-1.9,610.6,49.8c61.3,59.3,61.3,143.6,1.9,214.4l-45.9,53.6l-371.3,3.8C1558.5-1189.3,1378.6-1193.1,1363.3-1198.8z"/><path d="M7896-1198.8c-59.3-11.5-120.6-95.7-120.6-162.7c0-32.5,19.1-74.6,47.9-101.4c42.1-44,61.3-47.9,243.1-49.8c109.1-1.9,287.1-1.9,398.1,0c187.6,3.8,202.9,7.6,245,51.7c59.3,67,55.5,160.8-7.6,220.1c-47.9,45.9-55.5,45.9-405.8,47.9C8098.9-1191.2,7918.9-1193.1,7896-1198.8z"/><path d="M1296.3-2554c-65.1-63.2-65.1-158.9,1.9-222c47.9-45.9,51.7-45.9,442.2-45.9h392.4l45.9,53.6c59.3,70.8,59.3,155-1.9,214.4c-45.9,47.9-47.9,47.9-440.2,47.9S1342.2-2506.1,1296.3-2554z"/><path d="M7823.2-2554c-61.3-59.3-61.3-143.6-1.9-214.4l45.9-53.6h392.4c390.5,0,394.3,0,442.2,45.9c67,63.2,67,158.9,1.9,222c-45.9,47.9-47.9,47.9-440.2,47.9S7869.2-2506.1,7823.2-2554z"/><path d="M1296.3-3855.5c-28.7-28.7-47.9-68.9-47.9-103.4c0-158.9,45.9-174.2,497.7-174.2h367.5l55.5,55.5c59.3,59.3,68.9,112.9,32.5,179.9c-44,84.2-65.1,88.1-470.8,90C1344.1-3807.7,1342.2-3807.7,1296.3-3855.5z"/><path d="M7850-3832.6c-88.1-67-95.7-168.4-19.1-245l55.5-55.5h367.5c451.7,0,497.7,15.3,497.7,174.2c0,34.5-19.1,74.7-47.9,103.4c-45.9,47.9-47.9,47.9-434.5,47.9C7993.6-3809.6,7871.1-3815.4,7850-3832.6z"/><path d="M1114.5,3565.3c-68.9-68.9-74.6-147.4-19.1-220.1l38.3-47.9l-67-42.1c-74.6-45.9-162.7-179.9-162.7-246.9c0-59.3,44-135.9,118.7-204.8c143.6-135.9,269.9-139.7,336.9-13.4c32.5,61.2,28.7,109.1-19.1,168.4c-36.4,45.9-38.3,53.6-9.6,68.9c78.5,45.9,147.4,120.6,178,199.1c30.6,82.3,30.6,86.1-13.4,176.1c-49.8,101.4-160.8,189.5-260.3,208.6C1183.4,3620.8,1164.2,3613.1,1114.5,3565.3z"/></g></g>
</svg>