<?xml version="1.0" encoding="utf-8"?>
<!-- Svg Vector Icons : http://www.onlinewebfonts.com/icon -->
<!DOCTYPE svg PUBLIC "-//W3C//DTD SVG 1.1//EN" "http://www.w3.org/Graphics/SVG/1.1/DTD/svg11.dtd">
<svg version="1.1" xmlns="http://www.w3.org/2000/svg" xmlns:xlink="http://www.w3.org/1999/xlink" x="0px" y="0px" viewBox="0 0 1000 1000" enable-background="new 0 0 1000 1000" xml:space="preserve">
<metadata> Svg Vector Icons : http://www.onlinewebfonts.com/icon </metadata>
<g><g transform="translate(0.000000,511.000000) scale(0.100000,-0.100000)"><path d="M656.6,4997.8c-19.7-7.9-25.6-765.6-25.6-3695.9c0-3627,0-3688,37.4-3709.7c25.6-11.8,342.4-19.7,895.4-19.7h858v-1157.2c0-873.8,5.9-1163.1,23.6-1180.8c31.5-31.5,1895.2-33.5,1914.9-2c7.9,9.8,13.8,1174.9,13.8,2587.9V386.8h647.5h647.5V215.6c0-96.4,7.9-185,15.7-198.8c13.8-17.7,124-23.6,488.1-19.7l470.4,5.9l5.9,192.8l5.9,190.9h753.8c741.9,0,753.7,0,791.1-41.3c35.4-39.4,37.4-108.2,43.3-2219.9c3.9-2015.2,5.9-2178.6,37.4-2202.2c43.3-29.5,991.9-33.5,1050.9-3.9c37.4,21.7,37.4,70.8,37.4,2613.5v2591.8l-47.2,98.4c-59,124-169.2,232.2-297.2,287.3c-96.4,43.3-108.2,43.3-1230,45.3l-1131.6,2l-2,169.2c0,94.5-7.9,185-13.8,202.7c-11.8,27.5-64.9,31.5-472.3,31.5c-356.2,0-466.4-5.9-482.2-25.6c-11.8-13.8-23.6-104.3-27.6-202.7l-5.9-175.1h-639.6h-639.6l-2,623.9c-2,342.4-7.9,637.6-13.8,653.4c-11.8,27.5-112.2,31.5-899.4,31.5h-885.6v1048.9c0,789.2-5.9,1054.8-23.6,1072.6c-17.7,17.7-253.9,23.6-950.5,21.7C1097.5,5009.6,668.4,5003.7,656.6,4997.8z M2418,3206.9l-5.9-1649.2l-279.5-2l-277.5-3.9l-185-112.2c-275.5-169.2-251.9-125.9-251.9-474.3V666.3l232.2-139.7l230.3-139.7h271.6h269.6V-931.7v-1318.6h-816.7H788.5v3552.2v3552.2h816.7h816.7L2418,3206.9z M4212.8,2140.3c0-527.4-2-570.7-33.5-578.6c-29.5-7.9-1298.9-3.9-1525.2,3.9l-74.8,2v570.7V2709h816.7h816.7V2140.3z M6495.7,1685.7v-118.1h-135.8c-204.7,0-198.8,17.7-198.8-590.4c0-608.1-5.9-590.4,198.8-590.4h135.8V268.7V150.7h-334.6h-334.6v826.6v826.6h334.6h334.6V1685.7z M2362.9,1002.8c88.6-214.5,167.3-401.5,171.2-415.2c7.9-19.7-35.4-23.6-202.7-19.7l-212.5,5.9l-157.4,372l-155.5,371.9l43.3,37.4c35.4,27.5,78.7,35.4,198.8,35.4h151.5L2362.9,1002.8z M2955.3,973.3l171.2-409.3h-202.7H2723l-171.2,403.4c-92.5,220.4-169.3,407.4-169.3,413.3c0,5.9,90.5,7.9,200.7,5.9l198.8-5.9L2955.3,973.3z M3522,1002.8c90.5-214.5,169.3-401.5,173.2-415.2c7.9-19.7-33.5-23.6-192.9-19.7l-204.7,5.9l-94.5,226.3c-53.1,124-129.9,309-171.2,409.3l-76.7,181.1H3156h202.7L3522,1002.8z M4114.4,973.3l173.2-409.3h-202.7c-143.7,0-204.7,7.9-212.5,25.6c-5.9,11.8-80.7,192.9-169.2,401.5c-88.6,208.6-159.4,383.8-159.4,389.7c0,5.9,88.6,7.9,198.8,5.9l198.8-5.9L4114.4,973.3z M4685.1,993c92.5-218.4,171.2-403.4,173.2-413.3c3.9-7.9-84.6-15.7-196.8-15.7h-202.7l-157.4,377.9c-86.6,206.6-163.3,393.6-171.2,413.3c-13.8,33.4,0,35.4,187,35.4h200.7L4685.1,993z M5267.6,987.1c90.5-216.5,165.3-399.5,165.3-407.4c0-9.9-88.6-15.7-194.8-15.7h-194.8l-157.4,371.9c-86.6,204.7-163.3,389.7-171.2,413.3c-11.8,41.3-9.8,43.3,187,37.4l200.7-5.9L5267.6,987.1z M5669.1,977.2c0-316.9-5.9-413.3-23.6-413.3c-13.8,0-90.5,157.4-171.2,350.3c-80.7,190.9-157.5,377.9-173.2,413.3l-25.6,63h196.8h196.8V977.2z M9010.8,1349.2c51.2-25.6,106.3-74.8,137.8-122l53.1-80.7l5.9-2534.8l3.9-2534.8h-167.3H8877v2308.5V691.9l-47.2,100.4c-25.6,55.1-76.7,124-114.1,151.5c-149.6,114.2-118.1,112.2-1294.9,112.2H6338.2v167.3v167.3h1293C8908.4,1390.5,8924.2,1390.5,9010.8,1349.2z M1804,904.4c76.8-183,131.9-334.6,122-338.5c-9.8-2-90.5,39.4-179.1,92.5l-161.4,100.4l-5.9,212.5c-3.9,183,0,216.5,29.5,236.2c17.7,13.8,37.4,25.6,45.3,25.6C1660.3,1233.1,1727.2,1085.5,1804,904.4z M8595.5,847.3c29.5-21.7,70.8-70.8,88.6-108.2c33.5-63,35.4-216.5,35.4-2363.5v-2298.6h-157.4h-157.4v2103.8c0,1444.5-5.9,2123.5-21.6,2160.9c-29.5,78.7-94.5,143.7-185,185c-72.8,33.4-145.6,37.4-968.3,37.4h-891.5v167.3v167.3l1100.1-3.9C8516.8,888.7,8540.4,888.7,8595.5,847.3z M4212.8-2122.4v-2509.2h-816.7h-816.7v2509.2V386.8h816.7h816.7V-2122.4z"/></g></g>
</svg>