<?xml version="1.0" encoding="utf-8"?>
<!-- Svg Vector Icons : http://www.onlinewebfonts.com/icon -->
<!DOCTYPE svg PUBLIC "-//W3C//DTD SVG 1.1//EN" "http://www.w3.org/Graphics/SVG/1.1/DTD/svg11.dtd">
<svg version="1.1" xmlns="http://www.w3.org/2000/svg" xmlns:xlink="http://www.w3.org/1999/xlink" x="0px" y="0px" viewBox="0 0 1000 1000" enable-background="new 0 0 1000 1000" xml:space="preserve">
<metadata> Svg Vector Icons : http://www.onlinewebfonts.com/icon </metadata>
<g><g transform="translate(0.000000,511.000000) scale(0.100000,-0.100000)"><path d="M680.4,3630.3c-236.6-77.5-417.4-240.5-524.8-471.1C106,3053.8,100,3020,100,2823.2c0-204.7,4-226.6,63.6-351.9c83.5-174.9,218.7-322,375.7-401.5c2-2-7.9-63.6-23.9-141.1c-33.8-182.9-39.8-3409.1-6-3633.8c21.9-139.1,21.9-143.1-23.9-172.9c-125.2-79.5-240.5-212.7-312.1-355.8c-71.6-145.1-73.6-155-73.6-367.8c0-198.8,6-232.6,55.7-337.9C265-3176,445.9-3335.1,684.4-3408.6c304.1-95.4,624.2-11.9,852.8,220.6l109.3,109.3l131.2-39.8c131.2-41.7,151.1-41.7,3222.3-41.7c3071.2,0,3091.1,0,3222.3,41.7l131.2,39.8l109.3-109.3c425.4-433.3,1121.1-308.1,1381.5,248.5c49.7,105.4,55.7,139.2,55.7,337.9c0,212.7-2,222.6-73.6,367.8c-71.6,143.1-186.8,276.3-312.1,357.8c-47.7,29.8-47.7,31.8-25.8,172.9c35.8,216.7,31.8,3442.9-4,3631.8c-15.9,77.5-25.8,139.1-23.8,141.1c157,79.5,292.2,226.6,375.7,401.5c59.6,125.2,63.6,147.1,63.6,351.9c0,204.7-4,226.6-61.6,347.9c-151.1,312.1-437.3,497-773.3,497c-246.5,0-542.7-143.1-663.9-322l-49.7-69.6l-139.2,41.7l-141.1,41.7H5000c-3069.2,0-3071.2,0-3210.3-41.7l-141.1-41.7l-57.6,77.5c-77.5,101.4-222.6,208.7-353.8,258.4C1086,3672.1,829.5,3680,680.4,3630.3z M1139.6,3238.7c109.3-53.7,182.9-133.2,230.6-248.5c63.6-153.1,141.1-176.9,332-101.4c81.5,31.8,194.8,69.6,252.4,81.5c149.1,31.8,5941.6,31.8,6090.7,0c57.6-13.9,169-47.7,246.5-79.5c190.8-75.5,274.3-51.7,337.9,99.4c47.7,115.3,121.3,194.8,230.6,248.5c234.6,117.3,516.8,21.9,630.1-212.7c53.7-109.3,55.7-290.2,4-403.5c-47.7-103.4-180.9-216.7-302.1-256.4c-105.4-35.8-157.1-89.4-157.1-165c0-25.8,19.9-111.3,43.7-188.8l45.7-143.1V99.9v-1769.2l-43.7-143.1c-25.8-77.5-45.7-155-45.7-170.9c0-53.7,95.4-145.1,172.9-169c103.4-31.8,232.6-143.1,282.3-248.5c55.7-115.3,55.7-290.2,0-405.5c-49.7-105.4-171-210.7-274.3-240.5c-238.5-71.6-453.2,21.9-576.5,252.5c-53.7,101.4-75.5,123.2-137.1,141.1c-63.6,19.9-87.5,15.9-190.8-29.8c-256.4-113.3-107.3-109.3-3311.7-109.3s-3055.3-4-3311.7,109.3c-103.4,45.7-127.2,49.7-190.8,29.8c-61.6-17.9-83.5-39.8-137.2-141.1c-123.2-230.6-337.9-324-576.5-252.5c-103.4,29.8-224.6,135.2-274.3,240.5c-53.7,109.3-55.7,290.2-4,403.5c45.7,97.4,182.9,218.7,286.2,250.5c77.5,23.9,172.9,115.3,172.9,169c0,15.9-19.9,93.4-43.7,170.9l-45.7,143.1V99.9v1769.2l45.7,143.1c23.9,77.5,43.7,165,43.7,194.8c0,67.6-75.5,141.1-172.9,167c-101.4,27.8-240.5,149.1-286.2,248.5c-51.7,113.3-49.7,294.2,4,403.5C622.8,3260.6,905.1,3356,1139.6,3238.7z"/><path d="M1924.8,2161.3c-75.5-11.9-147.1-107.3-276.3-371.7c-508.9-1039.6-506.9-2230.4,6-3403.2c115.3-264.4,169-328,270.3-328c45.7,0,91.4,13.9,117.3,35.8c79.5,71.6,256.4,483.1,361.8,834.9c244.5,819,226.6,1775.1-47.7,2600.1c-91.4,272.3-216.7,544.7-270.3,590.4C2042.1,2157.3,1986.4,2171.2,1924.8,2161.3z M2034.2,1280.7c117.3-409.5,151.1-675.9,151.1-1151c-2-345.9-9.9-471.1-43.7-656c-41.7-228.6-115.3-508.9-176.9-671.9c-37.8-103.4-41.7-99.4-127.2,159c-276.3,840.8-248.5,1757.2,71.6,2510.6C1950.7,1566.9,1954.6,1561,2034.2,1280.7z"/><path d="M6121.1,2097.7c-95.4-37.8-141.1-202.8-81.5-280.3c121.3-157,375.7-47.7,337.9,147.1C6357.7,2067.9,6218.5,2139.4,6121.1,2097.7z"/><path d="M5614.2,1602.7c-145.1-145.1,11.9-365.8,210.7-300.2c87.5,29.8,137.2,117.3,121.3,210.7C5918.4,1660.4,5725.6,1712,5614.2,1602.7z"/><path d="M6520.7,1616.6c-77.5-69.6-87.5-170.9-21.9-248.5c29.8-33.8,79.5-67.6,111.3-75.5c65.6-13.9,167,29.8,198.8,87.5C6904.3,1559,6673.7,1747.8,6520.7,1616.6z"/><path d="M6119.1,1213.1c-180.9-77.5-123.2-367.7,71.6-367.7c143.1,0,230.6,131.2,174.9,262.4C6317.9,1221,6228.5,1258.8,6119.1,1213.1z"/><path d="M4181,239.1c-113.3-63.6-129.2-196.8-37.8-290.2c75.5-73.6,174.9-77.5,254.4-9.9C4554.7,76.1,4363.9,340.4,4181,239.1z"/><path d="M3698-236c-95.4-95.4-79.5-242.5,31.8-300.2c71.6-37.8,125.2-37.8,196.8,0c176.9,91.4,103.4,347.9-99.4,347.9C3767.5-188.3,3733.7-200.2,3698-236z"/><path d="M4608.4-224.1c-145.1-113.3-69.6-332,117.3-332c105.4,0,174.9,75.5,174.9,188.8C4900.6-226.1,4719.7-136.7,4608.4-224.1z"/><path d="M4169.1-639.6c-67.6-27.8-103.4-188.8-59.6-270.3c55.7-105.4,192.8-127.2,288.2-45.7c45.7,39.8,55.7,63.6,55.7,141.1c0,77.5-9.9,101.4-55.7,141.1C4344-627.6,4238.7-611.7,4169.1-639.6z"/><path d="M7262.1-725c-53.7-53.7-59.6-71.6-49.7-145.1c25.8-184.9,260.4-232.6,343.9-67.6C7657.7-744.9,7415.2-572,7262.1-725z"/><path d="M6872.5-1132.5c-93.4-39.8-135.2-143.1-95.4-236.6c33.8-83.5,83.5-111.3,190.8-111.3c103.4,0,178.9,71.6,178.9,172.9c0,93.4-31.8,143.1-109.3,176.9C6956-1096.8,6954-1096.8,6872.5-1132.5z"/><path d="M7769-1132.5c-174.9-75.5-127.2-347.9,63.6-347.9c97.4,0,147.1,29.8,180.9,111.3c39.8,95.4-2,196.8-99.4,236.6C7832.7-1096.8,7848.6-1096.8,7769-1132.5z"/><path d="M7299.9-1571.8c-101.4-55.7-125.2-208.7-45.7-300.2c39.8-45.7,63.6-55.7,137.1-55.7c107.4,0,167,45.7,184.9,143.1c15.9,87.5-23.8,178.9-93.4,214.7C7413.2-1532.1,7371.5-1534.1,7299.9-1571.8z"/></g></g>
</svg>