<?xml version="1.0" encoding="utf-8"?>
<!-- Svg Vector Icons : http://www.onlinewebfonts.com/icon -->
<!DOCTYPE svg PUBLIC "-//W3C//DTD SVG 1.1//EN" "http://www.w3.org/Graphics/SVG/1.1/DTD/svg11.dtd">
<svg version="1.1" xmlns="http://www.w3.org/2000/svg" xmlns:xlink="http://www.w3.org/1999/xlink" x="0px" y="0px" viewBox="0 0 1000 1000" enable-background="new 0 0 1000 1000" xml:space="preserve">
<metadata> Svg Vector Icons : http://www.onlinewebfonts.com/icon </metadata>
<g><g transform="translate(0.000000,512.000000) scale(0.100000,-0.100000)"><path d="M4525.9,4962.2c-42.1-30.6-1043.4-794.5-2226.6-1700.1C28.7,1521.8,78.5,1563.9,107.2,1433.7c24.9-113,45.9-120.6,1062.6-382.9c530.3-137.9,966.8-252.7,970.7-254.6c1.9-3.8-444.2-350.4-993.6-771.5C273.8-641.6,143.6-748.8,118.7-812c-24.9-65.1-23-80.4,3.8-139.8c19.1-38.3,57.4-76.6,93.8-93.8c34.5-15.3,467.1-132.1,963-258.5c495.9-126.4,915.1-237.4,932.4-245.1c24.9-9.6-191.5-185.7-919-740.9c-522.7-400.1-978.3-752.4-1012.8-781.1c-114.9-101.5-97.6-262.3,36.4-325.5c34.5-15.3,1257.8-337,2720.5-714.1c2622.9-675.8,2655.4-683.5,2718.6-654.8c68.9,32.5,4179.4,3869.2,4219.6,3936.3c47.9,80.4,17.2,189.5-67,245c-28.7,19.2-359.9,84.3-892.2,172.3c-463.3,78.5-857.7,149.3-876.8,157c-23,9.6,166.6,197.2,811.8,798.4C9829.1,1456.7,9900,1527.5,9900,1594.6c0,67-36.4,139.8-88.1,174.2c-26.8,17.2-394.4,88.1-901.7,174.2c-472.9,78.5-869.2,147.4-882.6,151.2c-13.4,5.7,386.7,394.4,890.3,863.5c503.5,471,930.4,878.8,947.7,905.6c61.3,90,34.5,201-61.3,258.5c-36.4,21.1-899.8,174.2-2588.4,461.4c-1393.8,237.4-2550.1,430.8-2573.1,430.8C4619.7,5013.9,4568,4990.9,4525.9,4962.2z M5046.7,4554.4c178-32.6,331.2-57.4,338.9-57.4s15.3-30.6,15.3-68.9c0-88.1,26.8-134,99.6-172.3c105.3-55.5,237.4,3.8,273.8,122.5c5.7,23,23,42.1,36.4,42.1c80.4,0,821.3-139.8,867.3-162.7c32.5-17.2,80.4-24.9,120.6-19.1c82.3,11.5,1581.4-245.1,1575.7-270c-1.9-9.6-15.3-44-28.7-78.5c-47.9-124.4,82.3-268,218.3-241.2c103.4,19.1,160.8,107.2,149.3,231.7c-1.9,23,7.7,42.1,23,42.1c59.3,1.9,532.2-86.2,528.4-97.6c-3.8-5.7-844.3-796.4-1870.5-1753.7L5529.1,327.1l-183.8,49.8c-101.5,26.8-204.9,63.2-229.7,82.3c-28.7,23-76.6,36.4-134,36.4c-132.1-1.9-1535.5,363.8-1546.9,402.1c-32.5,101.5-55.5,139.8-103.4,162.7c-86.2,45.9-158.9,36.4-229.7-30.6l-61.3-57.4l-672,174.2c-369.5,93.8-691.1,178-714.1,183.8c-38.3,11.5-40.2,13.4-11.5,78.5c68.9,166.6-82.3,317.8-248.9,247c-76.6-30.6-111-82.3-113-166.6c-1.9-30.6-9.6-55.5-19.1-55.5c-30.6,0-484.4,120.6-499.7,134c-9.6,9.6,1950.9,1529.7,2263,1753.7c26.8,19.1,30.6,11.5,24.9-61.3c-5.7-72.7,0-91.9,49.8-141.7c124.4-122.5,329.3-34.5,329.3,141.7c0,67-91.9,164.7-170.4,180l-63.2,13.4l216.3,166.6l218.3,164.6l26.8-44c36.4-59.4,101.5-91.9,174.2-90c168.5,3.8,241.2,201,122.5,331.2c-24.9,26.8-7.7,44,149.3,164.6c166.6,128.3,178,132.1,224,109.1c65.1-34.5,105.3-32.5,174.2,1.9c72.7,36.4,95.7,82.3,95.7,183.8c0,67,9.6,91.9,53.6,126.4c28.7,23,55.5,42.1,61.3,44C4717.4,4611.9,4866.7,4585.1,5046.7,4554.4z M8454.5,1623.3c442.2-74.7,807.9-139.8,811.8-143.6c3.8-3.8-11.5-21.1-32.6-40.2c-21.1-19.1-859.6-800.3-1860.9-1738.4C6371.5-1237,5540.6-2004.7,5525.3-2008.6C5498.5-2014.3,817.5-812,771.5-787.1c-17.2,7.7,292.9,256.6,899.8,719.9c509.3,390.6,936.2,716,947.7,723.7c13.4,7.7,677.7-155.1,1476.1-361.8C4893.5,89.7,5567.4-78.7,5592.3-78.7c26.8,0,74.7,17.2,105.3,38.3c32.5,19.2,480.5,432.7,995.6,917.1c516.9,484.4,942,882.6,947.7,882.6C7646.6,1759.2,8012.3,1697.9,8454.5,1623.3z M8462.2-729.7c436.5-74.7,798.3-139.8,802.2-141.7c9.6-9.6-3710.3-3484.4-3737.1-3492.1c-15.3-3.8-3526.6,894.1-4709.7,1204.2c-72.8,19.1-72.8,21.1-38.3,55.5c70.8,67,1847.5,1416.7,1864.7,1416.7c9.6,0,668.2-168.5,1462.7-373.3c796.4-204.9,1462.7-373.3,1483.8-373.3c21.1,0,51.7,5.7,68.9,11.5c17.2,7.7,469.1,421.2,1001.3,919c534.2,499.7,978.3,907.5,989.8,907.5C7660-595.7,8025.7-656.9,8462.2-729.7z"/><path d="M4929.9,4020.3c-124.4-53.6-158.9-210.6-68.9-310.2c46-49.8,68.9-61.3,137.9-61.3c68.9,0,91.9,11.5,137.8,61.3c36.4,42.1,53.6,80.4,53.6,126.4C5190.3,3960.9,5040.9,4066.2,4929.9,4020.3z"/><path d="M6090.1,4004.9c-44-23-74.7-57.4-91.9-105.3c-24.9-63.2-23-78.5,7.6-143.6c59.4-120.6,206.8-145.5,302.5-51.7C6461.5,3859.4,6283.4,4102.6,6090.1,4004.9z"/><path d="M7269.4,4008.8c-78.5-42.1-105.3-84.2-107.2-166.6c0-84.2,70.8-178,147.4-193.4c68.9-13.4,164.6,26.8,204.9,84.2C7619.8,3884.3,7432.2,4094.9,7269.4,4008.8z"/><path d="M4294.3,3396.1c-68.9-57.4-90-126.4-61.3-210.6c63.2-193.4,363.8-147.4,363.8,57.4c0,90-24.9,135.9-95.7,172.3C4420.6,3457.4,4359.4,3451.6,4294.3,3396.1z"/><path d="M5492.8,3413.4c-67-34.5-91.9-82.3-91.9-170.4c0-204.9,300.6-250.8,363.8-57.4c28.7,84.2,7.7,153.2-61.3,210.6C5640.2,3449.7,5569.3,3455.5,5492.8,3413.4z"/><path d="M6633.8,3378.9c-126.4-126.4-46-315.9,132.1-317.8c199.1,0,256.6,269.9,76.6,361.8C6767.8,3461.2,6702.7,3447.8,6633.8,3378.9z"/><path d="M7857.2,3424.8c-61.3-24.9-105.3-103.4-105.3-185.7c0-147.4,201-237.4,308.3-137.8C8226.7,3256.4,8067.8,3509.1,7857.2,3424.8z"/><path d="M2523.3,2804.5c-86.2-80.4-91.9-201-13.4-279.5c118.7-118.7,325.5-32.5,325.5,137.9C2835.4,2825.6,2640.1,2913.7,2523.3,2804.5z"/><path d="M3700.8,2802.6c-30.6-26.8-61.3-70.8-67-99.6c-13.4-68.9,26.8-164.6,84.2-204.8c141.7-99.6,348.4,63.2,285.3,225.9C3955.4,2852.4,3806.1,2890.7,3700.8,2802.6z"/><path d="M4862.9,2791.1c-132.1-141.7-3.8-361.8,185.7-315.9c212.5,53.6,170.4,375.2-49.8,375.2C4933.7,2850.5,4908.8,2839,4862.9,2791.1z"/><path d="M6053.7,2810.3c-93.8-88.1-93.8-214.4,1.9-294.8c135.9-114.9,342.7,9.6,308.2,187.6C6339,2829.4,6147.5,2896.4,6053.7,2810.3z"/><path d="M7217.8,2795c-135.9-137.9-3.8-367.6,183.8-319.7c63.2,15.3,120.6,72.8,135.9,135.9C7585.3,2798.8,7355.6,2930.9,7217.8,2795z"/><path d="M1991.1,2249.3c-91.9-30.6-143.6-137.9-113-231.7c38.3-116.8,158.9-166.6,268-111c114.9,59.3,137.8,208.7,45.9,300.6C2134.7,2262.7,2075.3,2276.1,1991.1,2249.3z"/><path d="M3185.8,2260.8c-118.7-19.1-183.8-218.3-99.5-308.2c90-97.6,212.5-95.7,296.7,3.8c88.1,105.3,36.4,260.4-97.6,296.8C3252.8,2260.8,3208.7,2264.6,3185.8,2260.8z"/><path d="M4351.7,2253.2c-180-47.9-168.5-329.3,15.3-367.6c128.3-24.9,229.7,61.3,229.7,195.3C4596.8,2211,4487.6,2287.6,4351.7,2253.2z"/><path d="M5540.6,2260.8c-23-3.8-63.2-28.7-90-55.5c-93.8-91.9-53.6-268,68.9-310.1c164.6-57.4,315.9,109.1,237.4,262.3c-17.2,32.5-40.2,65.1-49.8,70.8C5670.8,2251.2,5582.7,2268.5,5540.6,2260.8z"/><path d="M6710.4,2253.2c-78.5-19.1-124.4-74.7-135.9-162.7c-17.2-134,122.5-247,247-199.1c132.1,49.8,172.3,197.2,82.3,304.4C6850.2,2260.8,6796.6,2276.1,6710.4,2253.2z"/><path d="M2575,1663.5c-23-7.7-59.4-40.2-84.2-70.8c-32.6-42.1-40.2-68.9-32.6-130.2c15.3-101.5,84.2-162.7,187.6-162.7c214.4,0,262.3,289.1,61.3,365.7C2651.6,1686.5,2628.6,1686.5,2575,1663.5z"/><path d="M3723.7,1646.3c-109.1-67-122.5-206.8-32.5-298.7c97.6-97.6,268-55.5,312.1,76.6c28.7,84.2-13.4,187.6-93.8,227.8C3834.8,1692.2,3796.5,1690.3,3723.7,1646.3z"/><path d="M4910.7,1652c-178-88.1-111-352.3,88.1-352.3c201,0,266.1,268,86.1,354.2C5006.5,1690.3,4985.4,1690.3,4910.7,1652z"/><path d="M6078.6,1646.3c-78.5-47.9-113-143.6-82.3-225.9c61.3-178,331.2-157,367.6,28.7c13.4,74.7-30.6,168.5-99.6,202.9C6189.6,1692.2,6151.4,1690.3,6078.6,1646.3z"/><path d="M4319.2,1066.1c-91.9-51.7-122.5-155.1-76.6-250.8c86.2-183.8,354.2-120.6,354.2,82.3C4596.8,1043.2,4443.6,1137,4319.2,1066.1z"/><path d="M5456.4,1033.6c-44-44-55.5-72.8-55.5-135.9c0-201,268-266.1,354.2-86.2c36.4,78.5,36.4,93.8,0,172.3C5697.6,1100.6,5550.2,1125.5,5456.4,1033.6z"/></g></g>
</svg>