<?xml version="1.0" encoding="utf-8"?>
<!-- Svg Vector Icons : http://www.onlinewebfonts.com/icon -->
<!DOCTYPE svg PUBLIC "-//W3C//DTD SVG 1.1//EN" "http://www.w3.org/Graphics/SVG/1.1/DTD/svg11.dtd">
<svg version="1.1" xmlns="http://www.w3.org/2000/svg" xmlns:xlink="http://www.w3.org/1999/xlink" x="0px" y="0px" viewBox="0 0 1000 1000" enable-background="new 0 0 1000 1000" xml:space="preserve">
<metadata> Svg Vector Icons : http://www.onlinewebfonts.com/icon </metadata>
<g><g transform="translate(0.000000,511.000000) scale(0.100000,-0.100000)"><path d="M4670.3,4990.2c-1175.2-118.1-2224.2-856.9-2732.8-1921.9c-156.2-330.3-244.2-624.6-318.3-1077.1c-14-86.1-26-1155.2-34-3093.1c-16-3441.5-42-3065.1,220.2-3197.2c706.7-354.4,2196.2-542.5,3799.8-478.5c1261.3,50,2030,192.2,2582.6,476.5C8324-4231.1,8368-4199,8392.1-4145c28,60.1,32,362.4,32,3017.1v2949l-48.1,292.3C8111.8,3696.9,6882.5,4846.1,5301,4992.2C5040.7,5016.2,4926.6,5016.2,4670.3,4990.2z M5661.3,4507.7c576.6-136.1,1039.1-394.4,1451.5-804.8c312.3-312.3,548.6-678.7,690.7-1067.1c62.1-168.2,126.1-404.4,116.1-416.4c-4-4-74.1,14-156.2,40c-518.5,164.2-1187.2,256.3-2156.2,294.3c-1259.3,48.1-2638.7-72.1-3329.4-294.3c-82.1-26-158.2-48-168.2-48c-24,0,2,120.1,76.1,338.3c360.4,1055.1,1255.3,1809.8,2364.4,1996c108.1,18,280.3,24,530.5,18C5387,4557.8,5487.1,4547.8,5661.3,4507.7z M6382,2083.3c626.6-66.1,1149.2-174.2,1439.5-298.3c132.1-56.1,152.1-72.1,158.2-120.1c6-48.1-4-60.1-90.1-96.1C7355,1338.5,6546.2,1220.4,5341,1196.4c-1357.4-26-2502.5,102.1-3147.2,348.3c-128.1,50.1-146.1,64.1-152.1,112.1c-6,50,4,60.1,108.1,106.1c352.4,156.2,1103.1,292.3,1919.9,346.3C4486.1,2139.3,6017.7,2121.3,6382,2083.3z M2235.9,1082.3c362.4-114.1,848.9-202.2,1483.5-266.3c446.4-44,2108.1-52,2552.6-10c646.6,60.1,1247.2,170.2,1577.6,290.3l134.1,50l-4-2542.6l-6-2544.6l-162.2-64.1c-332.3-134.1-812.8-234.2-1459.5-304.3c-410.4-44-2086.1-50-2512.5-10c-788.8,76.1-1357.4,190.2-1747.8,354.4l-74.1,30v2544.6c0,2100.1,4,2542.5,26,2534.5C2057.7,1138.3,2143.8,1110.3,2235.9,1082.3z"/><path d="M2982.6,19.2c-126.1-56-124.1-28-124.1-1473.5c0-1441.4-4-1405.4,126.1-1465.5c64.1-30,358.4-70.1,844.9-118.1c366.4-36,2046.1-34,2432.5,2c306.3,28,380.4,52,418.4,136.1c16,32,22,470.5,22,1399.4v1353.3l-62.1,60.1l-60.1,62.1l-204.2-12c-834.8-52-1017-58.1-1595.6-48.1c-622.6,12-1085.1,44.1-1509.5,104.1c-120.1,16-220.2,30-220.2,30C3048.7,47.2,3018.6,35.2,2982.6,19.2z M4149.8-493.3c390.4-22,1847.9-12,2048.1,14l84.1,12v-1071.1v-1071.1l-274.3-16c-680.7-44.1-1944-16-2522.5,54.1l-186.2,22v1065.1v1065.1l226.2-24C3647.3-457.3,3929.6-479.3,4149.8-493.3z"/></g></g>
</svg>