<?xml version="1.0" encoding="utf-8"?>
<!-- Svg Vector Icons : http://www.onlinewebfonts.com/icon -->
<!DOCTYPE svg PUBLIC "-//W3C//DTD SVG 1.1//EN" "http://www.w3.org/Graphics/SVG/1.1/DTD/svg11.dtd">
<svg version="1.1" xmlns="http://www.w3.org/2000/svg" xmlns:xlink="http://www.w3.org/1999/xlink" x="0px" y="0px" viewBox="0 0 1000 1000" enable-background="new 0 0 1000 1000" xml:space="preserve">
<metadata> Svg Vector Icons : http://www.onlinewebfonts.com/icon </metadata>
<g><g transform="translate(0.000000,511.000000) scale(0.100000,-0.100000)"><path d="M3459.2,4454.1c-89.7-39.4-181.6-151-199.1-242.9l-13.1-74.4l-411.4-6.6c-450.8-6.6-470.5-13.1-577.7-157.6c-41.6-54.7-46-96.3-52.5-474.9l-6.6-413.6h-175.1c-142.2,0-172.9,6.6-172.9,32.8c0,19.7-24.1,59.1-54.7,87.5c-81,83.2-168.5,72.2-282.3-32.8c-89.7-83.2-102.9-87.5-229.8-87.5c-105.1,0-133.5,6.6-133.5,32.8c0,19.7-24.1,59.1-54.7,87.5c-81,83.2-168.5,72.2-282.3-32.8l-94.1-87.5h-256c-242.9,0-258.2-2.2-308.6-54.7c-72.2-70-72.2-170.7,0-240.7c43.8-46,74.4-54.7,175.1-54.7c94.1,0,120.4-6.6,120.4-32.8c0-19.7,24.1-59.1,54.7-87.5c81-83.2,168.5-72.2,282.3,32.8c89.7,83.2,102.9,87.5,229.8,87.5c105,0,133.5-6.6,133.5-32.8c0-19.7,24.1-59.1,54.7-87.5c81-83.2,168.5-72.2,282.3,32.8l94.1,87.5h308.6h308.6l6.6-413.6c6.6-378.6,10.9-420.2,52.5-474.9c107.2-144.4,126.9-151,575.5-157.5l413.6-6.6l13.1-105c28.5-223.2,190.4-435.5,404.9-536.2c98.5-43.8,129.1-45.9,1245.2-52.5l1142.3-6.6V773.2c0-124.7,10.9-234.1,30.6-277.9c37.2-94.1,148.8-186,240.7-203.5l74.4-13.1l8.8-236.3c4.4-199.2,13.1-247.3,52.5-297.6c96.3-131.3,146.6-151,400.5-157.5l236.3-8.8l13.1-245.1c19.7-315.1,70-612.8,144.5-836l61.3-179.4l-109.4-91.9c-59.1-52.5-126.9-124.7-148.8-162c-50.4-83.2-54.7-273.5-8.8-361.1c43.8-85.3,151-170.7,247.3-199.1c46-10.9,326.1-21.9,647.8-21.9H8510l-15.3-135.7c-19.7-172.9-105-428.9-192.6-584.3c-91.9-159.7-315.1-391.7-461.7-479.2c-65.7-39.4-192.6-98.5-282.3-131.3c-144.4-52.5-188.2-56.9-477.1-56.9c-389.5,0-606.2,48.1-932.3,203.5C5750.4-3511.6,5525-3332.2,4816-2649.4c-251.7,242.9-562.4,520.8-689.3,617.1c-286.7,216.6-678.4,413.6-973.8,492.4c-197,52.5-258.2,56.9-590.9,56.9c-330.5,0-396.1-6.6-579.9-54.7c-586.5-157.6-1052.6-516.5-1426.8-1103c-179.4-280.1-453-949.8-455.2-1109.5c0-81,87.5-168.5,170.7-168.5c102.9,0,153.2,61.3,201.3,234.2c227.6,829.4,774.7,1507.8,1407.1,1746.3c492.4,183.8,1072.3,151,1580-87.5c326.1-155.4,610.6-385.2,1284.6-1032.9c431.1-418,660.9-612.8,892.9-761.6c787.8-512.1,1717.9-590.9,2374.4-203.5c183.8,107.2,472.7,393.9,577.7,571.2c140,238.5,232,520.8,258.2,787.8l13.1,146.6h207.9c253.9,0,352.3,28.4,472.7,133.5c267,234.2,385.1,787.8,354.5,1661c-43.8,1313-354.5,2567-829.4,3359.2c-113.8,188.2-328.3,450.8-453,555.8l-109.4,91.9V3419c0,485.8-328.3,910.4-803.1,1032.9C7523,4497.9,3564.2,4500.1,3459.2,4454.1z M7748.5,4069c140.1-70,271.4-201.3,339.2-339.2c43.8-89.7,54.7-155.4,63.5-376.4l13.1-264.8l131.3-96.3C8873.3,2567.7,9317.5,1432,9501.3-89c54.7-448.6,56.9-1291.2,2.2-1564.7c-48.2-238.5-144.5-453-223.2-488c-41.6-19.7-319.5-26.3-976-26.3c-827.2,0-919.1,4.4-932.3,35c-15.3,43.8,32.8,85.4,260.4,218.8l166.3,100.7l-61.3,89.7c-87.5,133.5-166.3,345.8-221,606.2c-46,214.5-50.3,302-61.3,1229.9c-13.1,965.1-15.3,1002.3-59.1,1059.2c-24.1,32.8-72.2,81-105.1,105c-59.1,46-85.3,46-1759.5,56.9c-1917,13.1-1796.7,0-1884.2,181.6c-46,91.9-46,118.2-46,1356.8v1262.7l2019.9-4.4l2017.7-6.6L7748.5,4069z M3251.3,3609.4v-175.1h-120.4c-146.6,0-229.8-63.5-229.8-175.1c0-111.6,83.2-175.1,229.8-175.1h120.4v-175.1v-175.1h-120.4c-146.6,0-229.8-63.5-229.8-175.1c0-111.6,83.2-175.1,229.8-175.1h120.4v-175.1v-175.1h-350.1H2551v875.4v875.4h350.1h350.1V3609.4z M7102.9,458.1V-67.1h-175.1h-175.1v350.1v350.1h-175.1h-175.1v175.1v175.1h350.1h350.1V458.1z"/><path d="M4006.3,3029.5c-35-32.8-54.7-78.8-54.7-120.4c0-41.6,19.7-87.5,54.7-120.4l52.5-54.7h1643.5h1643.5l52.5,54.7c72.2,70,72.2,170.7,0,240.7l-52.5,54.7H5702.3H4058.8L4006.3,3029.5z"/></g></g>
</svg>