<?xml version="1.0" encoding="utf-8"?>
<!-- Svg Vector Icons : http://www.onlinewebfonts.com/icon -->
<!DOCTYPE svg PUBLIC "-//W3C//DTD SVG 1.1//EN" "http://www.w3.org/Graphics/SVG/1.1/DTD/svg11.dtd">
<svg version="1.1" xmlns="http://www.w3.org/2000/svg" xmlns:xlink="http://www.w3.org/1999/xlink" x="0px" y="0px" viewBox="0 0 1000 1000" enable-background="new 0 0 1000 1000" xml:space="preserve">
<metadata> Svg Vector Icons : http://www.onlinewebfonts.com/icon </metadata>
<g><g transform="translate(0.000000,511.000000) scale(0.100000,-0.100000)"><path d="M4461.7,5013.6c-386.9-46.2-628.7-217.6-725.4-516.5c-19.8-59.4-41.8-211-48.4-334.1l-13.2-224.2l-228.6-92.3l-226.4-90.1l-153.9,145.1c-202.2,189-338.5,259.4-538.5,272.5c-189,11-292.3-15.4-468.2-120.9c-294.6-180.2-921-828.7-1044.1-1083.6c-59.4-123.1-68.1-167-70.3-318.7c0-226.4,63.7-362.7,274.8-589.1l151.7-162.7l-96.7-228.6l-96.7-228.6l-237.4-13.2c-140.7-8.8-281.3-30.8-347.3-52.8c-156.1-57.1-342.9-248.4-404.4-413.2C85.3,679,67.8,74.6,160.1-103.5c63.8-118.7,195.6-215.4,340.7-246.2c79.1-17.6,455-22,1213.3-17.6c1208.9,6.6,1158.4,2.2,1314.4,147.2c101.1,92.3,129.7,171.5,160.5,452.8c15.4,145.1,50.5,334.1,76.9,417.6c237.4,773.7,923.2,1285.9,1723.3,1290.3c534.1,2.2,971.6-184.6,1334.2-573.7c303.3-325.3,461.6-681.4,490.2-1110c8.8-98.9,24.2-219.8,37.4-268.2c28.6-116.5,127.5-237.4,244-301.1c92.3-48.4,94.5-48.4,1268.3-48.4c1171.6,0,1176,0,1266.1,48.4c105.5,55,200,160.4,246.2,270.4c26.4,61.5,28.6,140.7,19.8,395.7c-22,512.1-83.5,710-281.3,888c-149.5,134.1-325.3,189-600.1,189h-202.2l-92.3,233l-92.3,233l134.1,147.3c235.2,255,318.7,463.8,281.4,701.2c-39.6,259.4-164.9,433-661.6,916.6c-391.3,382.5-529.7,477-749.5,512.1c-261.6,41.8-470.4-39.6-718.8-272.5l-151.7-145.1l-233,96.7l-230.8,94.5v169.3c0,325.3-79.1,542.9-255,694.6c-127.5,114.3-285.8,173.7-531.9,202.2C5297,5037.8,4663.9,5037.8,4461.7,5013.6z M5439.9,4398.2c92.3-13.2,178.1-37.4,197.8-55c26.4-26.4,35.2-112.1,44-397.8l11-364.9l76.9-70.3c50.5-44,151.7-94.5,285.8-142.9c114.3-39.6,303.3-116.5,417.6-171.5c389.1-186.8,422-180.2,749.5,138.5c173.7,169.2,248.4,228.6,290.1,228.6c70.3,0,233-134.1,558.3-463.8c244-250.6,358.3-393.5,358.3-452.8c0-17.6-107.7-142.9-239.6-281.3c-316.5-325.3-318.7-342.9-156.1-696.8c63.8-136.3,149.5-340.7,189-452.8c134.1-382.5,160.5-400,604.5-400c224.2,0,329.7-8.8,358.3-28.6c50.5-37.4,76.9-164.9,79.1-362.7V265.8l-916.6,4.4l-918.8,6.6l-15.4,147.3c-65.9,677-494.6,1365-1094.6,1751.9c-241.8,156.1-452.8,248.4-745.1,325.3c-178.1,48.4-263.8,57.1-551.7,59.3c-360.5,2.2-479.2-15.4-780.3-112.1c-472.6-151.7-890.2-450.6-1195.8-855c-235.2-307.7-430.8-797.9-474.8-1189.2L2556,265.8h-923.2H707.4l13.2,206.6c11,197.8,37.4,290.1,90.1,325.3c13.2,8.8,167.1,17.6,338.5,17.6c450.6,0,488,24.2,608.9,384.7c30.8,96.7,112.1,290.2,178,430.8c120.9,259.4,142.9,369.3,94.5,466c-15.4,26.4-127.5,153.9-252.8,283.6c-125.3,129.7-228.6,248.4-228.6,266c0,59.4,191.2,285.8,466,556.1c276.9,272.5,391.3,360.5,466,360.5c24.2,0,140.7-96.7,263.8-217.6c235.2-233,347.3-301.1,457.2-277c35.2,8.8,164.9,63.8,287.9,120.9c123.1,59.4,318.7,138.5,433,178.1c156.1,52.7,230.8,92.3,292.3,153.9l81.3,81.3v296.7c0,459.4,8.8,474.8,252.8,501.2C4762.9,4422.4,5261.8,4420.2,5439.9,4398.2z"/><path d="M4107.8,734c-125.3-136.3-228.6-439.6-228.6-677c0-417.6,252.8-822.1,619.9-997.9c81.3-37.4,158.3-87.9,171.4-112.1c13.2-26.4,22-679.2,22-1866.2v-1824.4l48.4-33c37.4-26.4,109.9-35.2,305.6-35.2c252.8,0,259.4,2.2,303.3,57.1c46.2,59.3,46.2,70.3,46.2,1899.1c0,1725.5,2.2,1842,39.6,1872.8c19.8,17.6,85.7,59.3,142.9,92.3c160.5,92.3,336.3,283.6,422,461.6C6174-63.9,6149.8,351.5,5934.4,679c-63.7,94.5-87.9,114.3-140.7,114.3c-112.1,0-134.1-44-134.1-281.3c0-116.5-6.6-235.2-13.2-261.6c-8.8-28.6-140.7-164.9-299-303.3c-224.2-200-296.7-252.8-347.3-252.8c-65.9,0-244,140.7-542.9,430.8L4340.8,235v244c0,206.6-6.6,246.2-39.6,276.9C4241.9,810.9,4171.6,802.1,4107.8,734z"/></g></g>
</svg>