<?xml version="1.0" encoding="utf-8"?>
<!-- Svg Vector Icons : http://www.onlinewebfonts.com/icon -->
<!DOCTYPE svg PUBLIC "-//W3C//DTD SVG 1.1//EN" "http://www.w3.org/Graphics/SVG/1.1/DTD/svg11.dtd">
<svg version="1.1" xmlns="http://www.w3.org/2000/svg" xmlns:xlink="http://www.w3.org/1999/xlink" x="0px" y="0px" viewBox="0 0 1000 1000" enable-background="new 0 0 1000 1000" xml:space="preserve">
<metadata> Svg Vector Icons : http://www.onlinewebfonts.com/icon </metadata>
<g><path d="M961.6,830.7L765.7,634.7l24.5-24.5l-24.5-24.5l-79.6,79.6L563.6,536.7l153.1-153.1c18.4,6.1,42.9,12.2,61.2,12.2c49,0,98-18.4,134.7-55.1c55.1-55.1,73.5-140.8,42.9-208.2l-12.2-24.5l-85.7,85.7h-67.4v-61.2l85.7-85.7l-24.5-12.2C833,16.3,808.5,10.1,784,10.1c-49,0-98,18.4-134.7,55.1c-55.1,55.1-73.5,128.6-49,202.1L447.3,420.4L226.8,200l30.6-24.5L116.6,34.6L37,108.1l140.8,147l24.5-24.5L422.8,451L269.7,598c-24.5-6.1-42.9-6.1-67.4-6.1c-49,0-98,18.4-134.7,55.1C12.5,702.1-5.9,787.8,24.7,855.2L37,879.6l85.7-85.7H184v67.4L98.2,947l24.5,12.2c24.5,12.2,49,18.4,73.5,18.4c49,0,98-18.4,134.7-55.1c55.1-55.1,67.4-128.6,42.9-202.1l165.3-159.2l128.6,128.6l-79.6,79.6l24.5,24.5l24.5-24.5L833,965.4c18.4,18.4,42.9,24.5,67.4,24.5c24.5,0,49-12.2,67.4-24.5C998.4,922.5,998.4,867.4,961.6,830.7L961.6,830.7z M86,108.1l24.5-24.5l91.9,91.9L177.8,200L86,108.1L86,108.1z M343.2,720.4c24.5,61.2,12.2,122.5-30.6,171.5c-30.6,30.6-67.4,42.9-110.2,42.9c-12.2,0-24.5,0-36.7-6.1l55.1-55.1V757.2H104.4l-55.1,55.1c-12.2-49,0-104.1,42.9-147c30.6-24.5,67.4-42.9,110.2-42.9c18.4,0,42.9,6.1,61.2,12.2l12.2,6.1l367.4-367.4l-6.1-12.2c-24.5-61.2-12.2-128.6,30.6-171.5c30.6-30.6,67.4-42.9,110.2-42.9c12.2,0,24.5,0,36.7,6.1l-55.1,55.1v116.3h116.3l55.1-55.1c12.2,49,0,104.1-42.9,147c-30.6,30.6-67.4,42.9-110.2,42.9c-18.4,0-42.9-6.1-61.2-12.2l-12.2-6.1L337,708.2L343.2,720.4L343.2,720.4z M937.1,934.8c-12.2,12.2-24.5,18.4-36.7,18.4s-30.6-6.1-36.7-18.4L667.7,738.8l79.6-79.6l195.9,195.9C955.5,879.6,955.5,910.3,937.1,934.8L937.1,934.8z"/></g>
</svg>