<?xml version="1.0" encoding="utf-8"?>
<!-- Svg Vector Icons : http://www.onlinewebfonts.com/icon -->
<!DOCTYPE svg PUBLIC "-//W3C//DTD SVG 1.1//EN" "http://www.w3.org/Graphics/SVG/1.1/DTD/svg11.dtd">
<svg version="1.1" xmlns="http://www.w3.org/2000/svg" xmlns:xlink="http://www.w3.org/1999/xlink" x="0px" y="0px" viewBox="0 0 1000 1000" enable-background="new 0 0 1000 1000" xml:space="preserve">
<metadata> Svg Vector Icons : http://www.onlinewebfonts.com/icon </metadata>
<g><g transform="translate(0.000000,511.000000) scale(0.100000,-0.100000)"><path d="M4769.2,5000.9c-640.8-52.1-1215.5-260.3-1738.1-626.8c-236.3-166.2-626.8-556.7-801-801c-160.2-226.3-370.4-638.8-454.6-895.1c-58.1-172.2-120.1-444.5-148.2-640.8l-12-82.1l138.2-42c789-240.3,1830.2-350.4,3306-350.4c1447.8,0,2378.9,96.1,3179.8,332.4c142.2,42.1,144.2,42.1,144.2,110.1c0,38.1-18,162.2-42.1,272.3c-268.3,1325.6-1317.6,2380.9-2637.2,2657.2C5383.9,5000.9,5049.5,5024.9,4769.2,5000.9z M5660.3,4508.3c574.7-136.2,1041.3-394.5,1451.8-805c310.4-310.4,548.7-680.8,690.8-1067.3c66.1-182.2,126.2-404.5,112.1-418.5c-4-4-94.1,18-200.2,52.1C7114,2461.8,6231,2557.9,5049.5,2557.9c-1155.4,0-1986.4-86.1-2691.2-278.3c-134.2-38.1-250.3-68.1-256.3-68.1c-38,0,100.1,416.5,224.3,674.8c424.5,887.1,1237.5,1495.8,2222.7,1660c108.1,18,280.3,24,530.6,18C5385.9,4558.4,5486.1,4548.4,5660.3,4508.3z"/><path d="M1595.4,1348.5c0-92.1-6-1347.6-12-2791.4c-12-2358.8-10-2631.2,18-2697.3c26-62.1,58.1-88.1,198.2-158.2c304.4-152.2,764.9-282.4,1307.6-366.5c656.8-102.1,1672-148.2,2497-114.1c1265.5,52.1,2028.4,192.2,2583.1,476.6c136.2,70.1,180.2,102.1,204.3,156.2c28,60.1,32,348.4,32,2851.4c0,1605.9-8,2785.4-18,2785.4s-138.2-30-284.3-68.1c-718.9-184.2-1515.8-266.3-2741.3-286.4c-1465.8-22-2655.2,82.1-3560.3,312.4c-88.1,24-176.2,48-192.2,54.1C1599.4,1512.7,1595.4,1492.7,1595.4,1348.5z M3407.6-1.1c448.5-56.1,718.9-72.1,1371.7-84.1c596.7-10,785-4,1595.9,46.1l204.2,14l60.1-62.1l62.1-60.1v-1363.6v-1363.7l-56.1-62.1c-68.1-76.1-106.1-82.1-702.8-120.1c-440.5-26-1804.2-14-2144.6,20c-474.6,48-754.9,88.1-815,116.1c-130.2,60.1-126.2,24-126.2,1467.8c0,1443.7-4,1405.7,126.2,1469.8c36,18,90.1,28,124.2,22C3141.2,34.9,3275.4,16.9,3407.6-1.1z"/><path d="M3297.4-1480.9c0-845,6-1073.3,26-1073.3c12,0,138.2-14,278.3-30c622.7-70.1,1804.2-88.1,2505-36l174.2,12V-1539v1067.3l-224.3-14c-124.1-10-622.7-16-1107.3-14c-678.8,0-961.2,8-1231.5,34c-192.2,20-366.4,40.1-384.5,46.1C3299.4-409.6,3297.4-469.7,3297.4-1480.9z"/></g></g>
</svg>