<?xml version="1.0" encoding="utf-8"?>
<!-- Svg Vector Icons : http://www.onlinewebfonts.com/icon -->
<!DOCTYPE svg PUBLIC "-//W3C//DTD SVG 1.1//EN" "http://www.w3.org/Graphics/SVG/1.1/DTD/svg11.dtd">
<svg version="1.1" xmlns="http://www.w3.org/2000/svg" xmlns:xlink="http://www.w3.org/1999/xlink" x="0px" y="0px" viewBox="0 0 1000 1000" enable-background="new 0 0 1000 1000" xml:space="preserve">
<metadata> Svg Vector Icons : http://www.onlinewebfonts.com/icon </metadata>
<g><path d="M990,911.6V88.4c0-43.3-35.1-78.4-78.4-78.4H88.4C45.1,10,10,45.1,10,88.4v823.2c0,43.3,35.1,78.4,78.4,78.4h823.2C954.9,990,990,954.9,990,911.6z M350.6,735.7l130.6,130.6l-84.5,84.5H135.5L350.6,735.7z M950.8,135.5v261.2L508.9,838.6L378.3,708L950.8,135.5z M725.7,677.3l130.5,130.5l-143,143h-261L725.7,677.3z M883.9,780.1L753.4,649.6l197.4-197.4v261.7l-0.4-0.4L883.9,780.1z M950.1,80.8L747.8,283L611.1,146.3l97.1-97.1h203.4C930.6,49.2,946.5,62.8,950.1,80.8z M49.2,389.4l124.3-124.3l131.7,131.7l-256,256V389.4z M332.9,369.1L201.2,237.4L389.4,49.2h263.3L332.9,369.1z M88.4,49.2H334L49.2,334V88.4C49.2,66.8,66.8,49.2,88.4,49.2z M49.2,911.6V708.2L583.4,174l136.8,136.8L80.8,950.1C62.8,946.5,49.2,930.6,49.2,911.6z M768.6,950.8l182.2-182.2v143c0,21.6-17.6,39.2-39.2,39.2H768.6z"/></g>
</svg>