<?xml version="1.0" encoding="utf-8"?>
<!-- Svg Vector Icons : http://www.onlinewebfonts.com/icon -->
<!DOCTYPE svg PUBLIC "-//W3C//DTD SVG 1.1//EN" "http://www.w3.org/Graphics/SVG/1.1/DTD/svg11.dtd">
<svg version="1.1" xmlns="http://www.w3.org/2000/svg" xmlns:xlink="http://www.w3.org/1999/xlink" x="0px" y="0px" viewBox="0 0 1000 1000" enable-background="new 0 0 1000 1000" xml:space="preserve">
<metadata> Svg Vector Icons : http://www.onlinewebfonts.com/icon </metadata>
<g><path d="M724,383.2c0.3-1.1,0.7-2.1,0.7-3.3c0-2-0.5-3.8-1.2-5.5c-11.8-152.2-99.6-209.3-128.9-224.2l0.3-95.5c0-11.8-4.5-22.9-12.8-31.3c-8.3-8.4-19.4-13-31.2-13.1L453.9,10c-24.3,0-44.2,19.8-44.2,44.1l-0.3,95.5c-29.3,14.7-116.8,70.9-130.2,221.6c-1.4,2.1-2.5,4.5-2.5,7.2c0,2.2,0.6,4.1,1.6,6c-0.5,8.1-0.9,16.2-1,24.9l-1.5,447.3c-0.4,1.2-0.7,2.3-0.7,3.6c0,1.3,0.4,2.4,0.7,3.6l-0.3,80.6c0,11.8,4.5,22.9,12.9,31.3c8.3,8.4,19.4,13,31.2,13.1l359.1,1.2c0,0,0.2,0,0.2,0c24.3,0,44.1-19.8,44.2-44.1l1.8-535.1C724.9,401.2,724.5,392.2,724,383.2z M303.7,409.4c0-6.1,0.5-11.8,0.7-17.6l48.6,0.2l-1.5,455.4l-49.3-0.2L303.7,409.4z M379.3,392l63.8,0.2l-1.5,455.4l-63.8-0.2L379.3,392z M469.5,392.3l63.8,0.2l-1.5,455.4l-63.8-0.2L469.5,392.3z M559.6,392.6l63.8,0.2l-1.5,455.4l-63.8-0.2L559.6,392.6z M649.7,392.9l48.2,0.2c0.2,5.9,0.6,11.5,0.6,17.7l-1.4,437.8l-48.9-0.2L649.7,392.9z M435.7,144.4l0.1-21.2l132.5,0.5l-0.1,21.2L435.7,144.4z M454,36.4l96.7,0.3c9.9,0,17.9,8.1,17.8,18l-0.1,42.7l-132.5-0.5l0.1-42.6C436,44.4,444.1,36.4,454,36.4z M426.5,170.7c0.1,0,0.1,0,0.2,0l150.7,0.5c14.5,6.1,103.7,50.3,118.8,195.4l-389.8-1.3C322.4,220.1,412.2,176.7,426.5,170.7z M678.9,963.6v13.2V963.6l-359.2-1.2c-4.8,0-9.3-1.9-12.6-5.3c-3.4-3.4-5.2-7.9-5.2-12.7l0.2-71l394.9,1.3l-0.2,71C696.7,955.6,688.7,963.6,678.9,963.6z"/><g></g><g></g><g></g><g></g><g></g><g></g><g></g><g></g><g></g><g></g><g></g><g></g><g></g><g></g><g></g></g>
</svg>