<?xml version="1.0" encoding="utf-8"?>
<!-- Svg Vector Icons : http://www.onlinewebfonts.com/icon -->
<!DOCTYPE svg PUBLIC "-//W3C//DTD SVG 1.1//EN" "http://www.w3.org/Graphics/SVG/1.1/DTD/svg11.dtd">
<svg version="1.1" xmlns="http://www.w3.org/2000/svg" xmlns:xlink="http://www.w3.org/1999/xlink" x="0px" y="0px" viewBox="0 0 1000 1000" enable-background="new 0 0 1000 1000" xml:space="preserve">
<metadata> Svg Vector Icons : http://www.onlinewebfonts.com/icon </metadata>
<g><path d="M893.7,150V95.7c0-47.3-38.4-85.7-85.7-85.7H244.5c-47.3,0-85.7,38.4-85.7,85.7V150h-16.1c-39.5,0-71.5,32-71.5,71.5v119.8c0,39.5,32,71.5,71.5,71.5l329.5-0.1c20.1,0,36.5,16.4,36.5,36.5V570h-69.9v420h175V570h-70V449.3c0-39.5-32-71.5-71.5-71.5h-43.3v0.1H142.8c-20.1,0-36.5-16.4-36.5-36.5V221.5c0-20.1,16.4-36.5,36.5-36.5h16.1v54.3c0,47.3,38.3,85.7,85.7,85.7H808c47.3,0,85.7-38.4,85.7-85.7V185h35v-35H893.7L893.7,150z M578.7,954.9h-105v-350h105V954.9z M858.7,239.3c0,28-22.8,50.7-50.7,50.7H244.5c-28,0-50.7-22.7-50.7-50.7V95.7c0-28,22.7-50.7,50.7-50.7H808c28,0,50.7,22.7,50.7,50.7V239.3z"/></g>
</svg>