<?xml version="1.0" encoding="utf-8"?>
<!-- Svg Vector Icons : http://www.onlinewebfonts.com/icon -->
<!DOCTYPE svg PUBLIC "-//W3C//DTD SVG 1.1//EN" "http://www.w3.org/Graphics/SVG/1.1/DTD/svg11.dtd">
<svg version="1.1" xmlns="http://www.w3.org/2000/svg" xmlns:xlink="http://www.w3.org/1999/xlink" x="0px" y="0px" viewBox="0 0 1000 1000" enable-background="new 0 0 1000 1000" xml:space="preserve">
<metadata> Svg Vector Icons : http://www.onlinewebfonts.com/icon </metadata>
<g><g transform="translate(0.000000,511.000000) scale(0.100000,-0.100000)"><path d="M4463,4000.3L2891.5,2943.5L2344.7,2399c-301-298.7-551.4-567.5-558.3-595.1c-32.2-121.8,34.5-216,438.8-627.2c409-413.5,473.3-503.2,549.1-755.9c73.5-250.4,29.9-576.7-108-811c-82.7-140.1-170-218.3-1217.7-1095.9c-514.7-434.2-976.4-838.6-1027-900.6c-202.2-257.3-321.7-618-321.7-971.9c0-418.1,128.7-716.8,448-1038.5c234.4-239,434.2-351.5,728.3-413.6c425-91.9,948.9,41.3,1277.4,323.9c55.2,48.2,468.7,537.6,923.6,1089c452.6,551.4,859.3,1027,905.2,1054.6c238.9,158.5,618,229.7,889.1,165.4c268.8-62,351.5-121.8,804.1-567.5c383.7-376.8,436.5-420.4,505.4-420.4s126.4,50.5,631.8,556l556,558.3L8819.1-489C9444,436.9,9878.2,1105.4,9889.7,1153.7c11.5,43.7,13.8,105.7,4.6,137.9c-6.9,36.8-698.4,744.4-1865.6,1913.8c-1656.5,1656.5-1858.7,1854.1-1923,1854.1C6050.6,5059.5,5694.5,4829.7,4463,4000.3z M8552.6-208.7L7601.4-1601L5437.1,563.2C3755.4,2242.7,3277.5,2732.1,3300.4,2752.8c13.8,16.1,647.9,436.5,1403.8,937.4l1378.5,912.1l1709.3-1709.4l1711.7-1711.7L8552.6-208.7z M6988-2285.7l-383.7-383.7L6262-2333.9c-303.3,298.7-363,344.6-535.3,427.3c-105.7,50.6-250.4,105.7-319.4,121.8c-163.1,39.1-551.4,39.1-712.2,0c-163.1-41.4-429.6-163.1-565.2-259.6c-62-43.6-457.2-494-974.1-1109.7C2245.9-4234,2179.3-4302.9,1915-4406.3c-369.9-144.7-815.6-46-1137.3,255c-413.6,388.3-500.9,863.9-250.4,1390c41.4,89.6,124.1,218.3,183.8,282.6c59.7,66.6,539.9,475.6,1066,909.8c879.9,723.7,969.6,804.1,1077.5,965C3027-344.3,3093.7-119.1,3096,211.7c0,489.4-124.1,739.8-624.9,1247.5c-273.4,275.7-307.9,319.4-280.3,349.2c18.4,16.1,199.9,181.5,402.1,365.3l367.6,333.1L5166,303.6L7371.6-1902L6988-2285.7z"/><path d="M1446.3-2628c-165.4-52.9-342.3-236.7-392.9-411.3c-82.7-280.3,6.9-606.5,202.2-749c340-245.8,840.9-135.6,1008.6,225.1c64.3,135.5,68.9,163.1,59.7,335.4c-11.5,227.5-62,337.8-216,473.3C1933.4-2600.5,1689.9-2554.5,1446.3-2628z M1784.1-2991c151.6-55.1,176.9-94.2,176.9-261.9c0-137.9-4.6-151.7-78.1-225.2c-71.2-71.2-91.9-78.1-209.1-78.1c-117.2,0-137.8,6.9-209.1,78.1c-66.6,66.6-78.1,94.2-78.1,190.7C1388.9-3030.1,1549.7-2908.3,1784.1-2991z"/></g></g>
</svg>