<?xml version="1.0" encoding="utf-8"?>
<!-- Svg Vector Icons : http://www.onlinewebfonts.com/icon -->
<!DOCTYPE svg PUBLIC "-//W3C//DTD SVG 1.1//EN" "http://www.w3.org/Graphics/SVG/1.1/DTD/svg11.dtd">
<svg version="1.1" xmlns="http://www.w3.org/2000/svg" xmlns:xlink="http://www.w3.org/1999/xlink" x="0px" y="0px" viewBox="0 0 1000 1000" enable-background="new 0 0 1000 1000" xml:space="preserve">
<metadata> Svg Vector Icons : http://www.onlinewebfonts.com/icon </metadata>
<g><g transform="translate(0.000000,511.000000) scale(0.100000,-0.100000)"><path d="M4897.9,4978.2c-29.5-20.4-170.1-344.8-397-907.4l-349.4-875.6h-154.3c-136.1,0-163.3-6.8-211-56.7c-54.4-52.2-56.7-65.8-56.7-374.3c0-254.1-6.8-317.6-31.8-317.6c-15.9,0-102.1-36.3-188.3-79.4c-195.1-97.5-326.7-233.7-421.9-437.8l-72.6-152l-6.8-3228.1l-4.5-3228.1l54.4-54.4l56.7-56.7H5000h1885.1l56.7,56.7l54.5,54.4l-4.5,3228.1l-6.8,3228.1l-72.6,152c-95.3,204.2-226.8,340.3-421.9,437.8c-86.2,43.1-172.4,79.4-188.3,79.4c-25,0-31.8,63.5-31.8,317.6c0,308.5-2.3,322.1-56.7,374.3c-47.6,49.9-74.9,56.7-211,56.7h-154.3l-349.4,875.6c-226.8,562.6-367.5,887-397,907.4c-22.7,18.1-70.3,31.8-102.1,31.8C4968.2,5010,4920.6,4996.4,4897.9,4978.2z M5224.6,3780.5c115.7-290.4,215.5-542.2,222.3-555.8c9.1-22.7-88.5-29.5-446.9-29.5c-358.4,0-456,6.8-446.9,29.5c322.1,807.6,435.6,1082.1,446.9,1082.1C5006.8,4306.8,5108.9,4068.6,5224.6,3780.5z M5907.4,2650.7v-181.5H5000h-907.4v181.5v181.5H5000h907.4V2650.7z M6256.8,2079.1c124.8-36.3,313.1-224.6,349.3-349.4c20.4-72.6,27.2-812.1,27.2-3126V-4427H5000H3366.7v3030.7c0,2313.9,6.8,3053.4,27.2,3126c34,115.7,224.6,310.8,335.7,347.1C3847.6,2113.1,6132,2115.4,6256.8,2079.1z"/><path d="M5238.2,1686.6c-36.3-34-56.7-81.7-56.7-124.8c0-43.1,20.4-90.7,56.7-124.8c52.2-54.4,65.8-56.7,363-56.7h306.3V-922.2V-3227l56.7-54.5c72.6-74.9,176.9-74.9,249.5,0l56.7,54.5v2429.6v2429.6l-56.7,54.4c-54.5,56.7-59,56.7-487.7,56.7S5292.6,1743.3,5238.2,1686.6z"/></g></g>
</svg>