<?xml version="1.0" encoding="utf-8"?>
<!-- Svg Vector Icons : http://www.onlinewebfonts.com/icon -->
<!DOCTYPE svg PUBLIC "-//W3C//DTD SVG 1.1//EN" "http://www.w3.org/Graphics/SVG/1.1/DTD/svg11.dtd">
<svg version="1.1" xmlns="http://www.w3.org/2000/svg" xmlns:xlink="http://www.w3.org/1999/xlink" x="0px" y="0px" viewBox="0 0 1000 1000" enable-background="new 0 0 1000 1000" xml:space="preserve">
<metadata> Svg Vector Icons : http://www.onlinewebfonts.com/icon </metadata>
<g><g transform="translate(0.000000,511.000000) scale(0.100000,-0.100000)"><path d="M7639.6,4968.9c-195.8-83.1-253.2-182-166.2-292.7c27.7-35.6,59.3-51.4,104.8-51.4c77.1,0,338.2,122.6,356,168.1c21.8,57.4,13.8,122.6-21.8,166.1C7857.2,5024.2,7774.1,5026.2,7639.6,4968.9z"/><path d="M6739.7,4569.3c-73.2-35.6-114.7-69.2-126.6-104.8c-27.7-81.1,0-154.3,75.2-189.9c63.3-29.7,73.2-29.7,180,15.8c183.9,75.2,237.4,187.9,138.5,284.8C6945.4,4638.5,6876.2,4636.6,6739.7,4569.3z"/><path d="M3341.7,4373.5c-13.9-5.9-37.6-35.6-53.4-65.3c-25.7-47.5-29.7-201.7-29.7-959.3c0-949.4,4-992.9,89-1026.5c17.8-5.9,205.7-11.9,417.3-11.9h383.7v-116.7v-114.7l-128.6-13.8c-585.4-59.3-1163-381.7-1511.1-844.6c-276.9-365.9-427.2-718-528.1-1234.2c-33.6-162.2-35.6-369.9-43.5-2403.1c-2-1224.3,0-2244.9,5.9-2268.6c25.7-108.8-61.3-104.8,2361.6-104.8c1619.9,0,2248.8,5.9,2284.4,21.8c25.7,13.8,59.3,47.5,71.2,75.2c15.8,39.6,19.8,680.4,13.9,2278.5c-7.9,2363.6-5.9,2296.3-102.9,2668.1c-164.2,627-514.3,1143.2-994.9,1457.7c-288.8,189.9-650.7,320.4-983,354l-128.6,13.8v114.7v116.7h383.7c211.6,0,399.5,5.9,417.3,11.9c85.1,33.6,89,77.1,89,1026.5s-3.9,992.9-89,1026.5C5226.6,4389.3,3379.3,4389.3,3341.7,4373.5z M5034.8,3790l5.9-292.7h-286.8c-249.2,0-290.8-4-330.3-37.6c-63.3-51.4-63.3-170.1,0-221.5c39.6-33.6,81.1-37.6,330.3-37.6h286.8l-5.9-290.8l-5.9-292.7h-721.9H3585l-5.9,725.9l-4,725.9l43.5,5.9c25.7,4,352.1,7.9,727.9,7.9l682.4-2L5034.8,3790z M4821.2,1711.3C5596.5,1509.5,6114.7,930,6308.5,51.9c33.6-152.3,41.5-280.8,49.5-729.8l9.9-547.9l-83.1-160.2c-280.9-538-686.3-973.1-1097.7-1176.8c-237.3-118.7-389.6-156.3-632.9-158.3c-223.5-2-282.8,21.8-328.3,132.5c-31.7,73.2-35.6,381.7-9.9,903.9c13.8,294.7,11.9,367.9-15.8,484.6c-59.3,247.2-187.9,403.5-399.5,484.6c-168.1,65.3-490.5,67.3-700.2,2c-243.3-73.2-407.4-172.1-585.4-348.1c-87-87-183.9-189.9-211.6-227.5l-53.4-69.2l7.9,613.1c7.9,652.7,21.8,779.3,132.5,1113.5c245.3,749.6,846.5,1267.8,1612,1388.5C4204.1,1788.4,4609.5,1764.7,4821.2,1711.3z M3658.2-992.5c106.8-29.7,185.9-104.8,221.5-211.6c37.6-112.7,41.5-435.1,9.9-846.5c-45.5-567.6,63.3-850.5,362-951.3c138.5-45.5,464.8-39.6,678.4,9.9c476.7,114.7,919.7,429.2,1287.6,917.7l146.4,193.8V-2733v-850.5h-2057h-2057v723.9v721.9l51.4,152.3c120.7,360,354,694.2,591.4,844.6c96.9,63.3,288.8,140.4,385.7,154.3C3381.3-968.7,3587-972.7,3658.2-992.5z M6363.9-4186.7v-286.8h-2057h-2057v286.8v286.8h2057h2057V-4186.7z"/><path d="M6053.4,4272.6c-67.2-31.7-140.4-73.2-164.2-93c-53.4-47.5-53.4-154.3,2-209.7c55.4-55.4,162.2-43.5,318.4,31.7c122.6,57.4,168.1,130.5,136.5,213.6C6302.6,4326,6211.6,4343.8,6053.4,4272.6z"/><path d="M6112.7,3596.2c-108.8-43.5-128.6-174-41.5-257.1c35.6-33.6,69.2-39.6,207.7-39.6c150.3,0,170.1,4,213.6,49.5c79.1,77.1,63.3,189.9-31.6,237.3C6399.5,3618,6183.9,3623.9,6112.7,3596.2z"/><path d="M6844.5,3596.2c-96.9-41.5-116.7-189.9-33.6-255.1c41.6-31.7,81.1-41.5,176.1-41.5c154.3,0,227.5,47.5,227.5,148.3c0,110.8-53.4,154.3-199.8,162.2C6945.4,3612,6868.3,3608.1,6844.5,3596.2z"/><path d="M7586.2,3556.6c-49.5-51.4-57.4-71.2-47.5-124.6c19.8-106.8,71.2-132.5,263-132.5c150.3,0,170.1,4,213.6,49.5c53.4,51.4,61.3,100.9,27.7,174c-31.7,69.2-96.9,93-257.1,93C7657.5,3616,7641.6,3612,7586.2,3556.6z"/><path d="M5970.3,2882.2c-91-35.6-126.6-130.5-81.1-217.6c23.8-43.5,276.9-176,336.3-176c67.2,0,112.7,33.6,136.5,100.9c31.6,94.9-6,154.3-146.4,227.5C6065.3,2896,6029.6,2905.9,5970.3,2882.2z"/><path d="M6783.2,2403.5c-43.5-45.5-55.4-118.7-31.6-182c15.8-41.5,229.4-148.3,294.7-148.3c71.2,0,128.6,65.3,128.6,148.3c0,79.1-39.6,128.6-156.3,187.9C6913.8,2462.9,6836.6,2460.9,6783.2,2403.5z"/><path d="M7453.7,2041.6c-83-104.8-49.4-176,124.6-272.9c178-100.9,278.9-93,326.3,23.7c37.6,91,2,150.3-142.4,229.4C7604,2110.8,7513,2116.8,7453.7,2041.6z"/></g></g>
</svg>