<?xml version="1.0" encoding="utf-8"?>
<!-- Svg Vector Icons : http://www.onlinewebfonts.com/icon -->
<!DOCTYPE svg PUBLIC "-//W3C//DTD SVG 1.1//EN" "http://www.w3.org/Graphics/SVG/1.1/DTD/svg11.dtd">
<svg version="1.1" xmlns="http://www.w3.org/2000/svg" xmlns:xlink="http://www.w3.org/1999/xlink" x="0px" y="0px" viewBox="0 0 1000 1000" enable-background="new 0 0 1000 1000" xml:space="preserve">
<metadata> Svg Vector Icons : http://www.onlinewebfonts.com/icon </metadata>
<g><g transform="translate(0.000000,512.000000) scale(0.100000,-0.100000)"><path d="M406.2,4979.8c-114.8-51.7-204.8-141.6-260.3-256.5l-45.9-95.7V131.5c0-3389.8,5.7-4513.4,23-4570.8c30.6-105.3,158.9-241.2,273.7-294.8l95.7-45.9H5000h4507.6l95.7,45.9c114.8,55.5,204.8,145.5,256.5,260.3c38.3,86.1,40.2,101.4,40.2,4593.7v4507.6l-45.9,95.7c-53.6,114.8-189.5,243.1-294.8,273.7c-57.4,17.2-1179.1,23-4570.8,23C507.7,5020,492.4,5018.1,406.2,4979.8z M9555.5,4675.5c38.3-38.3,38.3-63.2,38.3-4555.5c0-4492.3,0-4517.2-38.3-4555.5s-63.2-38.3-4555.5-38.3c-4492.3,0-4517.2,0-4555.5,38.3s-38.3,63.2-38.3,4555.5c0,4492.3,0,4517.2,38.3,4555.5s63.2,38.3,4555.5,38.3C9492.3,4713.7,9517.2,4713.7,9555.5,4675.5z"/><path d="M1765.2,3927.1c-157-30.6-346.4-139.7-474.7-273.7c-363.7-377.1-354.1-909.2,23-1270.9c377.1-361.8,911.1-352.2,1270.9,23c354.1,367.5,354.1,878.5,3.8,1244.1C2360.5,3886.9,2067.7,3986.4,1765.2,3927.1z M2207.4,3590.2c112.9-51.7,239.3-176.1,292.9-290.9c61.3-132.1,57.4-415.4-5.7-545.5c-59.3-120.6-160.8-222-281.4-281.4c-78.5-38.3-122.5-45.9-275.6-45.9c-216.3,0-313.9,36.4-440.2,162.7c-103.4,103.4-157,225.9-168.4,384.7c-21.1,304.3,122.5,539.8,388.5,635.5C1845.6,3655.3,2083,3645.7,2207.4,3590.2z"/><path d="M1822.7,3301.2c-157-86.1-227.8-258.4-157-386.6c86.1-157,258.4-227.8,386.6-157c157,86.1,227.8,258.4,157,386.6C2123.2,3301.2,1950.9,3372,1822.7,3301.2z"/><path d="M3399.8,3925.2c-23-9.6-51.7-40.2-63.2-65.1c-28.7-67-28.7-1594.4,0-1659.5c11.5-26.8,42.1-57.4,68.9-68.9c32.5-15.3,499.6-21.1,1594.4-21.1c1094.8,0,1561.9,5.7,1594.4,21.1c26.8,11.5,57.4,42.1,68.9,68.9c28.7,65.1,28.7,1592.5,0,1657.6c-11.5,26.8-42.1,57.4-68.9,68.9C6533.2,3955.8,3459.2,3953.9,3399.8,3925.2z M6378.1,3029.4v-612.5H5000H3621.9v612.5v612.5H5000h1378.1V3029.4z"/><path d="M3928.1,3029.4v-306.2h153.1h153.1v306.2v306.3h-153.1h-153.1V3029.4z"/><path d="M4540.6,3029.4v-306.2h153.1h153.1v306.2v306.3h-153.1h-153.1V3029.4z"/><path d="M5153.1,3029.4v-306.2h153.1h153.1v306.2v306.3h-153.1h-153.1V3029.4z"/><path d="M5765.6,3029.4v-306.2h153.1h153.1v306.2v306.3h-153.1h-153.1V3029.4z"/><path d="M7890.2,3927.1c-157-30.6-346.4-139.7-474.7-273.7c-363.7-377.1-354.1-909.2,23-1270.9c377.1-361.8,911.1-352.2,1270.9,23c354.1,367.5,354.1,878.5,3.8,1244.1C8485.5,3886.9,8192.7,3986.4,7890.2,3927.1z M8332.4,3590.2c112.9-51.7,239.3-176.1,292.9-290.9c61.2-132.1,57.4-415.4-5.8-545.5c-59.3-120.6-160.8-222-281.3-281.4c-78.5-38.3-122.5-45.9-275.6-45.9c-216.3,0-313.9,36.4-440.2,162.7c-103.4,103.4-157,225.9-168.4,384.7c-21.1,304.3,122.5,539.8,388.6,635.5C7970.6,3655.3,8208,3645.7,8332.4,3590.2z"/><path d="M7966.8,3314.6c-72.7-28.7-168.4-130.2-193.3-202.9c-32.5-101.4-5.8-189.5,86.1-283.3c137.8-135.9,268-137.8,403.9,0c126.3,126.3,135.9,246.9,28.7,377.1C8198.4,3318.4,8077.8,3358.6,7966.8,3314.6z"/><path d="M1784.4,120v-1684.4h153.1h153.1V120v1684.4h-153.1h-153.1V120z"/><path d="M7909.4,120v-1684.4h153.1h153.1V120v1684.4h-153.1h-153.1V120z"/><path d="M1765.2-1891.7c-157-30.6-346.4-139.7-474.7-273.7c-363.7-377.1-354.1-909.2,23-1270.9c377.1-361.8,911.1-352.2,1270.9,23c354.1,367.5,354.1,878.5,3.8,1244.1C2360.5-1931.9,2067.7-1832.3,1765.2-1891.7z M2207.4-2228.6c112.9-51.7,239.3-176.1,292.9-290.9c61.3-132.1,57.4-415.3-5.7-545.5c-59.3-120.6-160.8-222-281.4-281.3c-78.5-38.3-122.5-45.9-275.6-45.9c-216.3,0-313.9,36.4-440.2,162.7c-103.4,103.4-157,225.9-168.4,384.7c-21.1,304.3,122.5,539.8,388.5,635.5C1845.6-2163.5,2083-2173,2207.4-2228.6z"/><path d="M1822.7-2517.6c-157-86.1-227.8-258.4-157-386.6c86.1-157,258.4-227.8,386.6-157c157,86.1,227.8,258.4,157,386.6C2123.2-2517.6,1950.9-2446.7,1822.7-2517.6z"/><path d="M7890.2-1891.7c-157-30.6-346.4-139.7-474.7-273.7c-363.7-377.1-354.1-909.2,23-1270.9c377.1-361.8,911.1-352.2,1270.9,23c354.1,367.5,354.1,878.5,3.8,1244.1C8485.5-1931.9,8192.7-1832.3,7890.2-1891.7z M8332.4-2228.6c112.9-51.7,239.3-176.1,292.9-290.9c61.2-132.1,57.4-415.3-5.8-545.5c-59.3-120.6-160.8-222-281.3-281.3c-78.5-38.3-122.5-45.9-275.6-45.9c-216.3,0-313.9,36.4-440.2,162.7c-103.4,103.4-157,225.9-168.4,384.7c-21.1,304.3,122.5,539.8,388.6,635.5C7970.6-2163.5,8208-2173,8332.4-2228.6z"/><path d="M7947.7-2517.6c-157-86.1-227.8-258.4-157-386.6c86.1-157,258.4-227.8,386.6-157c157,86.1,227.8,258.4,157,386.6C8248.2-2517.6,8075.9-2446.7,7947.7-2517.6z"/></g></g>
</svg>