<?xml version="1.0" encoding="utf-8"?>
<!-- Svg Vector Icons : http://www.onlinewebfonts.com/icon -->
<!DOCTYPE svg PUBLIC "-//W3C//DTD SVG 1.1//EN" "http://www.w3.org/Graphics/SVG/1.1/DTD/svg11.dtd">
<svg version="1.1" xmlns="http://www.w3.org/2000/svg" xmlns:xlink="http://www.w3.org/1999/xlink" x="0px" y="0px" viewBox="0 0 1000 1000" enable-background="new 0 0 1000 1000" xml:space="preserve">
<metadata> Svg Vector Icons : http://www.onlinewebfonts.com/icon </metadata>
<g><g transform="translate(0.000000,511.000000) scale(0.100000,-0.100000)"><path d="M4549.7,4568.7v-441.3h-979c-1106.2,0-1221.2-12.3-1510.5-151.9c-342.7-164.2-574.7-539.8-412.5-667c114.9-90.3,192.9-53.4,322.2,151.9c108.8,170.3,314,279.1,595.2,314c59.5,8.2,529.5,12.3,1046.7,8.2l937.9-6.2v-437.1v-437.2l-260.6-12.3c-303.8-14.4-486.4-57.5-738.9-180.6C3035,2463,2657.4,1995.1,2513.7,1426.6l-47.2-182.7V-941.8v-2185.8l45.2-180.6c186.8-730.6,706-1249.9,1436.7-1436.7c178.5-45.2,203.2-45.2,1473.6-45.2c1147.3,0,1311.5,4.1,1451,34.9c385.8,86.2,734.7,281.2,999.5,560.3c236,250.4,390,523.3,478.2,855.8c45.1,170.4,45.1,174.5,51.3,2313c8.2,2358.1,10.3,2323.3-117,2676.3c-248.3,681.4-909.2,1186.3-1625.5,1239.6l-180.6,12.3v1052.9V5010h-964.6h-964.6V4568.7z M6130,3788.8v-872.3h-615.7h-613.7l2.1,872.3l2,872.3h613.7H6130V3788.8z M6704.7,2545.1c207.3-24.6,467.9-110.8,630.1-205.2c65.7-39,192.9-143.7,283.2-234c178.6-178.6,291.4-365.3,383.8-636.2l47.2-143.7l6.2-2196c6.2-2395.1,8.2-2350-110.8-2647.5c-143.7-357.1-463.8-673.2-829.2-814.8c-281.2-110.8-262.7-108.8-1693.2-108.8c-1332,0-1334,0-1496.2,47.2c-275,80-472,195-669.1,394.1c-195,192.9-309.9,385.8-394.1,656.8l-47.2,153.9l-6.2,2169.3c-4.1,2085.2-4.1,2177.5,34.9,2366.4C2975.5,1991,3484.5,2461,4143.3,2545.1C4338.3,2571.8,6501.5,2571.8,6704.7,2545.1z"/><path d="M3221.8,1451.2l-57.5-49.2l-6.2-1147.3c-4.1-630.1,0-1176,6.2-1212.9c18.5-98.5,75.9-147.8,172.4-147.8c63.6,0,90.3,12.3,123.1,53.3c43.1,53.4,43.1,71.8,43.1,1254v1198.6l-51.3,49.2C3388,1514.8,3297.7,1514.8,3221.8,1451.2z"/><path d="M3221.8-1524.7l-57.5-49.2v-599.3v-599.3l57.5-49.2c88.3-75.9,213.5-53.4,258.6,47.2c24.6,53.4,32.8,1145.2,10.3,1206.8c-16.4,39-112.9,92.4-170.3,92.4C3297.7-1475.4,3252.6-1498,3221.8-1524.7z"/></g></g>
</svg>