<?xml version="1.0" encoding="utf-8"?>
<!-- Svg Vector Icons : http://www.onlinewebfonts.com/icon -->
<!DOCTYPE svg PUBLIC "-//W3C//DTD SVG 1.1//EN" "http://www.w3.org/Graphics/SVG/1.1/DTD/svg11.dtd">
<svg version="1.1" xmlns="http://www.w3.org/2000/svg" xmlns:xlink="http://www.w3.org/1999/xlink" x="0px" y="0px" viewBox="0 0 1000 1000" enable-background="new 0 0 1000 1000" xml:space="preserve">
<metadata> Svg Vector Icons : http://www.onlinewebfonts.com/icon </metadata>
<g><g transform="translate(0.000000,511.000000) scale(0.100000,-0.100000)"><path d="M1407.4,3148.5c-115-40.9-241.8-169.7-280.8-288.6c-19.5-52.7-33.2-150.2-33.2-218.4v-122.9H917.9H742.4v56.6c0,64.4-64.4,165.8-140.4,222.3c-78,58.5-226.2,66.3-321.8,15.6c-111.2-54.6-167.7-140.4-177.5-267.2c-7.8-85.8,0-119,40.9-189.2c85.8-144.3,136.5-158,575.3-165.8l374.4-7.8V-188.4c1.9-1932.7,5.8-2387.1,27.3-2447.5c39-107.3,119-200.9,222.3-261.3l91.7-54.6l2121.8-5.9l2119.9-3.9l97.5,41c52.7,23.4,128.7,76.1,167.7,119c140.4,156,130.7-39,130.7,2605.5l-1.9,2383.2h261.3h261.3V-202c0-1983.4,3.9-2400.7,27.3-2455.4c40.9-99.5,148.2-208.7,255.5-257.4c97.5-46.8,103.4-46.8,856.2-46.8c530.4,0,782,7.8,834.7,23.4c103.3,31.2,255.5,169.7,300.3,273c35.1,80,37.1,193.1,42.9,2469l3.9,2383.2H9261c454.4,2,530.5,29.3,612.4,212.6c72.2,159.9-7.8,354.9-173.6,423.2c-187.2,80-405.6-41-446.6-243.8l-13.7-60.5h-159.9h-159.9l-11.7,142.4c-17.6,243.8-105.3,384.2-296.4,473.9c-97.5,46.8-97.5,46.8-867.9,46.8c-733.3,0-774.2-2-858.1-41c-101.4-44.8-179.4-115.1-239.9-212.6c-31.2-50.7-44.8-111.2-52.7-234l-9.7-165.8h-251.6h-253.5l-3.9,138.5c-3.9,78-17.6,169.7-33.2,206.7c-42.9,103.4-150.2,212.6-257.4,261.3l-97.5,46.8l-2096.5-2C1742.8,3179.7,1483.5,3175.8,1407.4,3148.5z M5725.2,2805.2c25.4-37.1,29.3-388.1,29.3-2697.2c0-2586-2-2656.2-37.1-2701.1l-37-46.8H3583.9c-1745.5,0-2100.4,3.9-2125.8,27.3c-31.2,23.4-33.2,237.9-33.2,2722.5c0,2236.9,3.9,2699.1,25.3,2718.6c19.5,15.6,602.6,23.4,2082.8,25.4c1131.1,3.9,2079,1.9,2110.2-1.9C5672.6,2848.1,5709.6,2826.7,5725.2,2805.2z M8551.1,2807.2c27.3-39,31.2-327.6,31.2-2710.8c0-2980,13.7-2712.8-146.3-2736.2c-46.8-7.8-393.9-11.7-770.3-7.8l-686.5,7.8l-37.1,46.8c-35.1,44.8-37.1,115-37.1,2701.1c0,2371.5,3.9,2660.1,31.2,2699.1l29.2,42.9h778.2h778.1L8551.1,2807.2z"/></g></g>
</svg>