<?xml version="1.0" encoding="utf-8"?>
<!-- Svg Vector Icons : http://www.onlinewebfonts.com/icon -->
<!DOCTYPE svg PUBLIC "-//W3C//DTD SVG 1.1//EN" "http://www.w3.org/Graphics/SVG/1.1/DTD/svg11.dtd">
<svg version="1.1" xmlns="http://www.w3.org/2000/svg" xmlns:xlink="http://www.w3.org/1999/xlink" x="0px" y="0px" viewBox="0 0 1000 1000" enable-background="new 0 0 1000 1000" xml:space="preserve">
<metadata> Svg Vector Icons : http://www.onlinewebfonts.com/icon </metadata>
<g><path d="M907.1,155.4C787.3,56,542.6-29.3,288.3,18.3c-65,12.2-114.3,47.2-139,98.6c-25.9,53.9-21.9,120.3,11,182c3.4,6.4,10.1,10.5,17.4,10.5h310.1c3.4,0,6.8-0.9,9.8-2.6c51.3-29.2,64.1-106.4,40.5-150.9c-5.1-9.6-17-13.3-26.7-8.2c-9.6,5.1-13.3,17-8.2,26.7c2,3.8,3.6,8.3,4.7,13.3c-1.5-0.6-3.1-0.9-4.8-0.9H173.7c-0.6,0-1.2,0.1-1.7,0.1c0.8-18.8,5-36.7,12.9-53c19.1-39.8,58.4-67.1,110.7-76.9c231-43.3,469.8,31.9,586.4,128.7c44.3,36.7,68.6,74.6,68.6,106.6l-0.6,624.8c0,10.9,8.8,19.7,19.7,19.7c0,0,0,0,0,0c10.9,0,19.7-8.8,19.7-19.7l0.6-624.9C990,247.8,961.3,200.4,907.1,155.4z M503.1,213.1c2.3,0,4.5-0.6,6.4-1.7c-1.3,22.1-10,46-27.4,58.4H189.9c-8.8-18.9-14.4-38.1-16.8-56.8c0.2,0,0.4,0,0.6,0L503.1,213.1L503.1,213.1z"/><path d="M169.6,564l12.7-34.4c2.4-6.6-1-13.9-7.5-16.3c-1.4-0.5-2.9-0.8-4.4-0.8c-5.3,0-10.1,3.3-11.9,8.3l-12.7,34.4c-2.4,6.6,1,13.9,7.5,16.3c1.4,0.5,2.9,0.8,4.4,0.8c0.5,0,0.9,0,1.4-0.1C163.9,571.7,168,568.5,169.6,564z"/><path d="M149.5,582.1c-1.4-0.5-2.9-0.8-4.4-0.8c-5.3,0-10.1,3.3-11.9,8.3L112,647c-2.4,6.6,1,13.9,7.5,16.3c1.4,0.5,2.9,0.8,4.4,0.8c0.5,0,0.9,0,1.4-0.1c4.8-0.5,8.9-3.7,10.6-8.2l21.1-57.4C159.4,591.8,156,584.5,149.5,582.1z"/><path d="M200.6,406.1l-21.1,57.4c-2.4,6.6,1,13.9,7.5,16.3c1.4,0.5,2.9,0.8,4.4,0.8c0.5,0,0.9,0,1.4-0.1c4.8-0.5,8.9-3.7,10.6-8.2l21.1-57.4c2.4-6.6-1-13.9-7.5-16.3c-1.4-0.5-2.9-0.8-4.4-0.8C207.3,397.7,202.5,401.1,200.6,406.1z"/><path d="M82,765.6c-1.4-0.5-2.9-0.8-4.4-0.8c-5.3,0-10.1,3.3-11.9,8.3l-21.1,57.4c-2.4,6.6,1,13.9,7.5,16.3c1.4,0.5,2.9,0.8,4.4,0.8c0.5,0,0.9,0,1.4-0.1c4.8-0.5,8.9-3.7,10.6-8.2l21.1-57.4C91.9,775.3,88.5,768,82,765.6z"/><path d="M107.3,696.8c-1.4-0.5-2.9-0.8-4.4-0.8c-5.3,0-10.1,3.3-11.9,8.3l-12.7,34.4c-2.4,6.6,1,13.9,7.5,16.3c1.4,0.5,2.9,0.8,4.4,0.8c0.5,0,0.9,0,1.4-0.1c4.8-0.5,8.9-3.7,10.6-8.2l12.7-34.4C117.2,706.5,113.8,699.2,107.3,696.8z"/><path d="M39.8,880.3c-1.4-0.5-2.9-0.8-4.4-0.8c-5.3,0-10.1,3.3-11.9,8.3l-12.7,34.4c-1.2,3.2-1,6.6,0.4,9.7c1.4,3.1,4,5.4,7.1,6.6c1.4,0.5,2.9,0.8,4.4,0.8c0.5,0,0.9,0,1.4-0.1c4.8-0.5,8.9-3.7,10.6-8.2l12.7-34.4C49.7,890.1,46.3,882.8,39.8,880.3z"/><path d="M220.8,388c1.4,0.5,2.9,0.8,4.4,0.8c0.5,0,0.9,0,1.4-0.1c4.8-0.5,8.9-3.7,10.6-8.2l12.7-34.4c2.4-6.6-1-13.9-7.5-16.3c-1.4-0.5-2.9-0.8-4.4-0.8c-5.3,0-10.1,3.3-11.9,8.3l-12.7,34.4C210.9,378.2,214.3,385.5,220.8,388z"/><path d="M184.4,919.6c-0.8-0.1-1.5-0.2-2.2-0.2c-6.2,0-11.4,4.4-12.5,10.5l-6.5,36.1c-0.6,3.3,0.1,6.7,2.1,9.5c1.9,2.8,4.8,4.7,8.2,5.3c0.8,0.1,1.5,0.2,2.3,0.2c0.5,0,0.9,0,1.4-0.1c5.6-0.6,10.2-4.9,11.1-10.4l6.5-36.1c0.6-3.3-0.1-6.7-2.1-9.5C190.7,922.1,187.8,920.2,184.4,919.6z"/><path d="M288.2,342.2c-0.8-0.1-1.5-0.2-2.2-0.2c-6.2,0-11.4,4.4-12.5,10.5l-6.5,36.1c-1.2,6.9,3.4,13.5,10.3,14.8c0.8,0.1,1.5,0.2,2.3,0.2c0.5,0,0.9,0,1.4-0.1c5.6-0.6,10.2-4.9,11.1-10.4l6.5-36.1c0.6-3.3-0.1-6.7-2.1-9.5C294.5,344.6,291.6,342.8,288.2,342.2z"/><path d="M275.2,414.3c-0.8-0.1-1.5-0.2-2.2-0.2c-6.2,0-11.4,4.4-12.5,10.5l-10.8,60.2c-0.6,3.3,0.1,6.7,2.1,9.5c1.9,2.8,4.8,4.7,8.2,5.3c0.8,0.1,1.5,0.2,2.3,0.2c0.5,0,0.9,0,1.4-0.1c5.6-0.6,10.2-4.9,11.1-10.4l10.8-60.1c0.6-3.3-0.1-6.7-2.1-9.5C281.5,416.8,278.6,414.9,275.2,414.3z"/><path d="M219,727.1c-0.8-0.1-1.5-0.2-2.2-0.2c-6.2,0-11.4,4.4-12.5,10.5l-6.5,36.1c-0.6,3.3,0.1,6.7,2.1,9.5c1.9,2.8,4.8,4.7,8.2,5.3c0.8,0.1,1.5,0.2,2.3,0.2c0.5,0,0.9,0,1.4-0.1c5.6-0.6,10.2-4.9,11.1-10.4l6.5-36.1c0.6-3.3-0.1-6.7-2.1-9.5C225.3,729.6,222.4,727.7,219,727.1z"/><path d="M206,799.3c-0.8-0.1-1.5-0.2-2.2-0.2c-6.2,0-11.4,4.4-12.5,10.5l-10.8,60.1c-0.6,3.3,0.1,6.7,2.1,9.5c1.9,2.8,4.8,4.7,8.2,5.3c0.8,0.1,1.5,0.2,2.3,0.2c0.5,0,0.9,0,1.4-0.1c5.6-0.6,10.2-4.9,11.1-10.4l10.8-60.1c0.6-3.3-0.1-6.7-2.1-9.5C212.3,801.8,209.4,799.9,206,799.3z"/><path d="M253.6,534.6c-0.8-0.1-1.5-0.2-2.2-0.2c-6.2,0-11.4,4.4-12.5,10.5l-6.5,36.1c-0.6,3.3,0.1,6.7,2.1,9.5c1.9,2.8,4.8,4.7,8.2,5.3c0.8,0.1,1.5,0.2,2.3,0.2c0.5,0,0.9,0,1.4-0.1c5.6-0.6,10.2-4.9,11.1-10.4l6.5-36.1C265.1,542.5,260.5,535.9,253.6,534.6z"/><path d="M240.6,606.8c-0.8-0.1-1.5-0.2-2.2-0.2c-6.2,0-11.4,4.4-12.5,10.5l-10.8,60.2c-0.6,3.3,0.1,6.7,2.1,9.5c1.9,2.8,4.8,4.7,8.2,5.3c0.8,0.1,1.5,0.2,2.3,0.2c0.5,0,0.9,0,1.4-0.1c5.6-0.6,10.2-4.9,11.1-10.4l10.8-60.2c0.6-3.3-0.1-6.7-2.1-9.5C246.9,609.3,244,607.4,240.6,606.8z"/><path d="M334.1,810.9L334.1,810.9L334.1,810.9L334.1,810.9c-7,0-12.7,5.7-12.8,12.7l-0.2,61.1c0,7,5.7,12.7,12.7,12.8c0.5,0,1,0,1.4-0.1c6.4-0.7,11.3-6.1,11.3-12.6l0.2-61.1C346.8,816.7,341.1,811,334.1,810.9z"/><path d="M334.3,737.6L334.3,737.6L334.3,737.6c-7,0-12.7,5.7-12.8,12.7l-0.1,36.7c0,7,5.7,12.7,12.7,12.8c0.5,0,1,0,1.4-0.1c6.4-0.7,11.3-6.1,11.3-12.6l0.1-36.7C347,743.4,341.3,737.6,334.3,737.6z"/><path d="M334.8,615.4L334.8,615.4L334.8,615.4c-7,0.1-12.7,5.7-12.8,12.7l-0.2,61.1c0,7,5.7,12.7,12.7,12.8c0.5,0,1,0,1.4-0.1c6.4-0.7,11.3-6.1,11.3-12.6l0.2-61.1C347.4,621.1,341.8,615.4,334.8,615.4z"/><path d="M333.7,933.2L333.7,933.2L333.7,933.2c-7,0-12.7,5.7-12.8,12.7l-0.1,36.7c0,7,5.7,12.7,12.7,12.8c0.5,0,1,0,1.4-0.1c6.4-0.7,11.3-6.1,11.3-12.6l0.1-36.7C346.4,938.9,340.7,933.2,333.7,933.2z"/><path d="M335,542L335,542L335,542c-7,0-12.7,5.7-12.8,12.7l-0.1,36.7c0,7,5.7,12.7,12.7,12.8c0.5,0,0.9,0,1.4-0.1c6.4-0.7,11.3-6.1,11.3-12.6l0.1-36.7C347.7,547.8,342,542.1,335,542z"/><path d="M335.6,346.5L335.6,346.5L335.6,346.5c-7,0-12.7,5.7-12.8,12.7l-0.1,36.7c0,7,5.7,12.7,12.7,12.8c0.5,0,1,0,1.4-0.1c6.4-0.7,11.3-6.1,11.3-12.6l0.1-36.7C348.3,352.2,342.7,346.5,335.6,346.5z"/><path d="M335.4,419.8L335.4,419.8L335.4,419.8c-7,0.1-12.7,5.7-12.8,12.7l-0.2,61.1c0,7,5.7,12.7,12.7,12.8c0.5,0,1,0,1.4-0.1c6.4-0.7,11.3-6.1,11.3-12.6l0.2-61.1C348.1,425.6,342.4,419.8,335.4,419.8z"/><path d="M459.5,789.2l0.1,0l0.7-0.1c6.9-1.2,11.6-7.8,10.4-14.7l-6.2-36.1c-1.1-6.1-6.3-10.5-12.6-10.5c-0.7,0-1.4,0.1-2.1,0.2c-6.9,1.2-11.6,7.8-10.4,14.7l6.2,36.1c1.1,6.1,6.3,10.5,12.5,10.5C458.6,789.3,459,789.2,459.5,789.2z"/><path d="M476.1,885.5l0.1,0l0.7-0.1c6.9-1.2,11.6-7.8,10.4-14.7l-10.4-60.2c-1.1-6.1-6.3-10.6-12.4-10.6c-0.8,0-1.5,0.1-2.3,0.2c-6.8,1.2-11.5,7.8-10.3,14.7l10.4,60.2c1.1,6.1,6.3,10.5,12.5,10.5C475.2,885.6,475.7,885.6,476.1,885.5z"/><path d="M497.7,931c-1.1-6.1-6.3-10.5-12.5-10.5c-0.7,0-1.4,0.1-2.1,0.2c-6.9,1.2-11.6,7.8-10.4,14.7l6.2,36.1c1.1,6.1,6.3,10.5,12.5,10.5c0.5,0,0.9,0,1.4-0.1l0.1,0l0.7-0.1c6.9-1.2,11.6-7.8,10.4-14.7L497.7,931z"/><path d="M442.8,692.8l0.1,0l0.7-0.1c6.9-1.2,11.6-7.8,10.4-14.7l-10.4-60.2c-1.1-6.1-6.3-10.5-12.5-10.5c-0.7,0-1.5,0.1-2.2,0.2c-6.9,1.2-11.5,7.8-10.3,14.7l10.4,60.2c1.1,6.1,6.3,10.5,12.5,10.5C441.9,692.9,442.4,692.9,442.8,692.8z"/><path d="M426.2,596.5l0.1,0l0.7-0.1c6.9-1.2,11.6-7.8,10.4-14.7l-6.2-36.1c-1.1-6.1-6.4-10.5-12.6-10.5c-0.7,0-1.3,0-2,0.2c-7,1.2-11.6,7.8-10.4,14.7l6.2,36.1c1.1,6.1,6.3,10.5,12.5,10.5C425.3,596.6,425.7,596.5,426.2,596.5z"/><path d="M392.9,403.8l0.1,0l0.7-0.1c6.9-1.2,11.6-7.8,10.4-14.7l-6.2-36.1c-1.1-6.1-6.3-10.5-12.5-10.5c-0.7,0-1.5,0.1-2.2,0.2c-6.9,1.2-11.5,7.8-10.4,14.7l6.3,36.1c1.1,6.1,6.3,10.5,12.5,10.5C391.9,403.8,392.4,403.8,392.9,403.8z"/><path d="M409.5,500.1l0.1,0l0.7-0.1c6.9-1.2,11.6-7.8,10.4-14.7l-10.4-60.2c-1.1-6.1-6.3-10.5-12.6-10.5c-0.7,0-1.4,0.1-2.1,0.2c-6.9,1.2-11.6,7.8-10.4,14.7l10.4,60.2c1.1,6.1,6.3,10.5,12.5,10.5C408.6,500.2,409.1,500.2,409.5,500.1z"/><path d="M644.2,889.9c-1.8-5-6.6-8.4-11.9-8.4c-1.5,0-2.9,0.3-4.3,0.8c-3.2,1.1-5.7,3.5-7.2,6.5c-1.4,3.1-1.6,6.5-0.5,9.7l12.4,34.5c1.8,5,6.6,8.4,12,8.4c0.4,0,0.9,0,1.3-0.1c1-0.1,2-0.3,3-0.7c3.2-1.1,5.7-3.5,7.2-6.5c1.4-3.1,1.6-6.5,0.5-9.7L644.2,889.9z"/><path d="M556.8,658.2c1.4-3.1,1.6-6.5,0.5-9.7l-20.7-57.5c-1.8-5-6.6-8.4-11.9-8.4c-1.5,0-3,0.3-4.4,0.8c-3.2,1.1-5.7,3.5-7.2,6.5c-1.4,3.1-1.6,6.5-0.5,9.7l20.7,57.5c1.8,5,6.6,8.4,12,8.4c0.4,0,0.9,0,1.3-0.1c1-0.1,2-0.3,3-0.7C552.8,663.6,555.3,661.2,556.8,658.2z"/><path d="M470.2,407c-1.8-5-6.6-8.4-11.9-8.4c-1.5,0-2.9,0.3-4.3,0.8c-3.2,1.1-5.7,3.5-7.2,6.5c-1.4,3.1-1.6,6.5-0.5,9.7l20.7,57.5c1.8,5,6.6,8.4,12,8.4c0.4,0,0.9,0,1.4-0.1c1-0.1,2-0.3,3-0.7c3.2-1.1,5.7-3.5,7.2-6.5c1.4-3.1,1.6-6.5,0.5-9.7L470.2,407z"/><path d="M623.1,842.2c1.4-3.1,1.6-6.5,0.5-9.7l-20.7-57.5c-1.8-5-6.6-8.4-11.9-8.4c-1.5,0-2.9,0.3-4.3,0.8c-3.2,1.1-5.7,3.5-7.2,6.5c-1.4,3.1-1.6,6.5-0.5,9.7l20.7,57.5c1.8,5,6.6,8.4,12,8.4c0.4,0,0.9,0,1.3-0.1c1-0.1,2-0.3,3-0.7C619.1,847.6,621.6,845.2,623.1,842.2z"/><path d="M579.8,757.4c1-0.1,2-0.3,3-0.7c3.2-1.1,5.7-3.5,7.2-6.5c1.4-3.1,1.6-6.5,0.5-9.7l-12.4-34.5c-1.8-5-6.6-8.4-11.9-8.4c-1.5,0-2.9,0.3-4.3,0.8c-3.2,1.1-5.7,3.5-7.2,6.5c-1.4,3.1-1.6,6.5-0.5,9.7l12.4,34.5c1.8,5,6.6,8.4,12,8.4C578.9,757.5,579.3,757.4,579.8,757.4z"/><path d="M445.4,338c-1.8-5-6.6-8.4-11.9-8.4c-1.5,0-2.9,0.3-4.3,0.8c-3.2,1.1-5.7,3.5-7.2,6.5c-1.4,3.1-1.6,6.5-0.5,9.7l12.4,34.5c1.8,5,6.6,8.4,12,8.4c0.4,0,0.9,0,1.3-0.1c1-0.1,2-0.3,3-0.7c3.2-1.1,5.7-3.5,7.2-6.5c1.4-3.1,1.6-6.5,0.5-9.7L445.4,338z"/><path d="M487.8,530.6l12.4,34.5c1.8,5,6.6,8.4,12,8.4c0.4,0,0.9,0,1.4-0.1c1-0.1,2-0.3,3-0.7c3.2-1.1,5.7-3.5,7.2-6.5c1.4-3.1,1.6-6.5,0.5-9.7L511.7,522c-1.8-5-6.6-8.4-11.9-8.4c-1.5,0-2.9,0.3-4.3,0.8c-3.2,1.1-5.7,3.5-7.2,6.5C486.8,523.9,486.6,527.4,487.8,530.6z"/><path d="M868.1,331.3c-10.9,0-19.7,8.8-19.7,19.7v506.3c0,10.9,8.8,19.7,19.7,19.7s19.7-8.8,19.7-19.7V351C887.8,340.1,878.9,331.3,868.1,331.3z"/></g>
</svg>