<?xml version="1.0" encoding="utf-8"?>
<!-- Svg Vector Icons : http://www.onlinewebfonts.com/icon -->
<!DOCTYPE svg PUBLIC "-//W3C//DTD SVG 1.1//EN" "http://www.w3.org/Graphics/SVG/1.1/DTD/svg11.dtd">
<svg version="1.1" xmlns="http://www.w3.org/2000/svg" xmlns:xlink="http://www.w3.org/1999/xlink" x="0px" y="0px" viewBox="0 0 1000 1000" enable-background="new 0 0 1000 1000" xml:space="preserve">
<metadata> Svg Vector Icons : http://www.onlinewebfonts.com/icon </metadata>
<g><g transform="translate(0.000000,511.000000) scale(0.100000,-0.100000)"><path d="M208.3,4964.1C106,4913,94.9,4859.6,101.6,4397l6.7-431.5l62.3-53.4c62.3-51.2,71.2-53.4,473.7-53.4h409.2V773.9c0-1999.5,8.9-3120.4,24.5-3185c80.1-349.2,395.9-660.6,749.5-734c80.1-17.8,729.5-24.5,2079.6-24.5c2108.5,0,2086.2-2.2,2313.1,113.4c135.7,71.2,353.6,300.3,422.6,444.8c31.2,69,69,189.1,80.1,266.9c15.6,93.4,24.5,1181,24.5,3173.8v3029.3h313.6h313.6l64.5,66.7l66.7,66.7L7499,4437c-6.7,427-8.9,444.8-57.8,493.8l-51.2,51.1l-3563.1,4.5C997.9,4990.8,252.8,4986.4,208.3,4964.1z M7125.3,4425.9v-189H3800.3H475.2v189v189.1h3325.1h3325.1V4425.9z M1809.7,2579.9c0-838.5,8.9-1316.7,24.5-1394.5c86.7-415.9,420.4-769.5,840.7-894.1c93.4-26.7,224.6-35.6,571.6-35.6H3698l6.7-802.9l6.7-802.9l62.3-53.4c33.4-28.9,89-53.4,122.3-53.4c77.8,0,1552.4,978.6,1585.8,1052c11.1,26.7,122.3,994.2,249.1,2150.7l226.9,2101.8h200.2H6358V722.7v-3124.9l-48.9-91.2c-64.5-122.3-206.8-242.4-324.7-273.6c-69-20-640.6-24.5-2141.9-20l-2048.4,6.7l-109,66.7c-66.7,42.2-133.4,109-175.7,175.7l-66.7,109L1436,716l-4.4,3142.7h189h189.1V2579.9z M3700.2,2232.9V607.1l-460.4,8.9c-411.5,8.9-476,15.6-587.2,60c-169,64.5-315.8,197.9-391.5,353.6l-62.3,126.8l-6.7,1352.3l-6.7,1350H2944h756.2V2232.9z M5575.1,3843.2c11.1-20-418.1-3994.5-435.9-4043.5c-8.9-17.8-246.9-186.8-531.6-378.1l-518.2-344.7l-6.7,2362c-2.2,1301.1,0,2377.6,6.7,2393.2c6.7,20,177.9,26.7,742.9,26.7C5234.8,3858.7,5570.7,3852.1,5575.1,3843.2z"/><path d="M8744.5-1990.7c-151.2-37.8-382.5-171.3-573.8-333.6c-449.3-378.1-900.8-609.4-1278.9-656.1c-231.3-28.9-273.6-133.4-249.1-620.5c28.9-576,197.9-947.5,498.2-1096.5c106.7-51.2,162.3-62.3,340.3-68.9c618.3-24.5,1305.6,253.5,1812.7,734c571.6,540.5,738.4,1063.1,502.6,1561.3c-100.1,204.6-202.4,311.4-395.9,407c-151.2,75.6-186.8,82.3-371.4,89C8918-1972.9,8789-1979.6,8744.5-1990.7z M9209.4-2366.6c97.8-48.9,229.1-184.6,286.9-293.6c60.1-117.9,66.7-322.5,13.4-458.2c-97.9-255.8-393.7-625-671.7-834.1c-204.6-155.7-549.4-320.3-811.8-387c-286.9-71.2-609.4-84.5-718.4-24.5c-95.6,51.1-195.7,195.7-238,335.8c-42.3,140.1-77.8,491.5-62.3,609.4c11.1,86.7,13.3,89,137.9,115.7c375.9,84.5,827.3,331.4,1263.3,693.9c200.2,166.8,326.9,246.9,451.5,286.9C8942.5-2295.4,9111.5-2315.5,9209.4-2366.6z"/><path d="M5641.8-3529.8c-91.2-89-182.4-191.3-200.2-226.9c-62.3-122.3,22.2-258,162.3-258c69,0,102.3,22.2,246.9,162.4c184.6,177.9,240.2,262.4,220.2,340.3c-20,80.1-100.1,142.4-186.8,142.4C5819.8-3369.7,5782-3394.1,5641.8-3529.8z"/><path d="M4478.6-3576.5c-31.1-15.6-69-55.6-84.5-86.7c-60.1-126.8-33.4-157.9,560.5-660.6c162.4-137.9,202.4-162.4,273.6-162.4c62.3,0,95.6,15.6,133.4,60.1c111.2,126.8,73.4,184.6-349.2,544.9C4596.5-3529.8,4585.4-3523.2,4478.6-3576.5z"/></g></g>
</svg>