<?xml version="1.0" encoding="utf-8"?>
<!-- Svg Vector Icons : http://www.onlinewebfonts.com/icon -->
<!DOCTYPE svg PUBLIC "-//W3C//DTD SVG 1.1//EN" "http://www.w3.org/Graphics/SVG/1.1/DTD/svg11.dtd">
<svg version="1.1" xmlns="http://www.w3.org/2000/svg" xmlns:xlink="http://www.w3.org/1999/xlink" x="0px" y="0px" viewBox="0 0 1000 1000" enable-background="new 0 0 1000 1000" xml:space="preserve">
<metadata> Svg Vector Icons : http://www.onlinewebfonts.com/icon </metadata>
<g><g transform="translate(0.000000,511.000000) scale(0.100000,-0.100000)"><path d="M2732.1,3696.7V2383.4h562.8h562.8v1313.3V5010h-562.8h-562.8V3696.7z M3482.5,3685.7v-949.1h-187.6h-187.6v949.1v949.1h187.6h187.6V3685.7z"/><path d="M8201.5,4630.4l-6.6-381.8l-423.8-6.6l-423.8-4.4l-46.3-61.8c-59.6-72.8-46.3-194.2,24.3-251.6c44.2-37.5,128-39.7,1061.7-39.7h1013.1l53,55.2c68.4,66.2,70.6,161.1,8.8,238.4l-44.1,59.6l-423.8,4.4l-423.8,6.6l-6.6,381.8l-4.4,379.6h-176.6H8206L8201.5,4630.4z"/><path d="M7312,3431.8c-35.3-33.1-55.2-79.5-55.2-121.4c0-41.9,19.9-88.3,55.2-121.4l53-55.2h1017.5h1017.5l53,55.2c35.3,33.1,55.2,79.5,55.2,121.4c0,41.9-19.9,88.3-55.2,121.4l-53,55.2H8382.5H7365L7312,3431.8z"/><path d="M7312,2681.4c-35.3-33.1-55.2-79.5-55.2-121.4c0-41.9,19.9-88.3,55.2-121.4c53-55.2,57.4-55.2,474.6-55.2H8206V1246.7V110h-203.1c-225.1,0-298-24.3-342.1-110.4c-17.7-35.3-97.1-898.3-216.3-2346.3c-176.6-2136.6-187.6-2297.7-154.5-2346.2c19.9-30.9,59.6-64,90.5-75c33.1-13.2,463.5-22.1,1026.4-22.1h973.4l64,64c35.3,35.3,64,83.9,64,105.9s-83.9,1048.4-187.6,2280C9216.9-1108.4,9133-82,9133-60c0,22.1-28.7,70.6-64,105.9c-64,61.8-70.6,64-286.9,64h-222.9v1136.7v1136.7h428.2h430.4l44.1,57.4c61.8,79.5,59.6,174.4-8.8,240.6l-53,55.2H8382.5H7365L7312,2681.4z M8788.7-391c8.8-70.6,83.9-966.8,167.7-1993.1c83.9-1026.3,156.7-1902.6,163.3-1946.8l8.8-83.9h-737.2h-737.2v79.4c0,44.2,75.1,971.2,165.5,2061.5c90.5,1090.4,165.5,1988.7,165.5,1995.3c0,6.6,178.8,13.2,395.1,13.2h395.1L8788.7-391z"/><path d="M3107.3,377.1V-1605l-130.2-13.2c-181-19.9-465.7-114.8-690.9-229.6c-640.1-328.9-1097-951.3-1209.5-1644.4l-26.5-167.7l-105.9-13.3C800.8-3693,641.9-3801.2,558-3938c-57.4-97.1-66.2-128-66.2-275.9c0-249.4,103.7-417.1,320-518.7c99.3-46.3,117-46.3,2348.5-53c2511.8-6.6,2403.7-11,2575.8,143.5c134.6,123.6,183.2,231.8,185.4,415c0,130.2-11,172.2-64,271.5c-66.2,117-163.3,207.5-264.9,247.2c-48.5,17.7-57.4,35.3-57.4,105.9c0,46.4-22.1,167.8-46.3,269.3c-225.1,885.1-949.1,1560.5-1838.6,1708.4l-156.7,26.5L3487,381.5l-4.4,1979.9h-187.6h-187.6V377.1z M3802.6-2020c72.8-19.9,216.3-77.3,320-123.6c567.3-264.9,933.6-770.3,1048.4-1436.9l13.2-83.9H3306H1429.8v68.4c0,97.1,77.3,388.5,143.5,536.4c163.3,370.8,498.8,721.7,860.8,900.5c130.2,66.2,353.2,139.1,507.7,170C3107.3-1955.9,3643.7-1975.8,3802.6-2020z M5535.2-4081.5c35.3-68.4,26.5-247.2-15.4-293.6c-33.1-37.5-134.6-39.7-2310.9-39.7c-1251.5,0-2288.9,8.8-2304.3,17.6c-66.2,41.9-79.5,256-19.9,331.1c15.5,19.9,507.7,26.5,2324.2,26.5C5462.4-4039.5,5513.2-4039.5,5535.2-4081.5z"/></g></g>
</svg>