<?xml version="1.0" encoding="utf-8"?>
<!-- Svg Vector Icons : http://www.onlinewebfonts.com/icon -->
<!DOCTYPE svg PUBLIC "-//W3C//DTD SVG 1.1//EN" "http://www.w3.org/Graphics/SVG/1.1/DTD/svg11.dtd">
<svg version="1.1" xmlns="http://www.w3.org/2000/svg" xmlns:xlink="http://www.w3.org/1999/xlink" x="0px" y="0px" viewBox="0 0 1000 1000" enable-background="new 0 0 1000 1000" xml:space="preserve">
<metadata> Svg Vector Icons : http://www.onlinewebfonts.com/icon </metadata>
<g><g transform="translate(0.000000,512.000000) scale(0.100000,-0.100000)"><path d="M4116.4,4997.6c-166.8-59.4-299-180.2-368-335.4c-34.5-74.8-42.2-138-47.9-417.9l-7.7-329.7l-943.1-5.8c-922-5.7-943.1-5.7-1033.2-47.9c-126.5-59.4-291.4-220.4-352.7-348.9c-53.7-105.4-53.7-113.1-59.4-534.8l-5.8-425.5l57.5-57.5c51.8-51.8,69-57.5,182.1-57.5h126.5l3.8-3329.5l5.7-3331.4l44.1-109.3c63.3-155.2,207-306.7,364.2-383.4l128.4-63.2H5000h2788.9l107.3,49.8c203.2,95.8,354.6,274.1,410.2,486.9c24.9,99.7,28.8,492.6,28.8,3396.6v3283.5h126.5c113.1,0,130.4,5.7,182.1,57.5l57.5,57.5l-5.7,425.5c-5.8,421.7-5.8,429.4-59.4,534.8c-61.3,128.4-226.2,289.4-352.7,348.9c-90.1,42.2-111.2,42.2-1033.2,47.9l-943,5.8l-7.7,329.7c-5.8,314.4-9.6,335.4-59.4,439c-57.5,118.8-159.1,220.4-285.6,287.5c-82.4,44.1-86.3,44.1-925.8,47.9C4371.3,5022.5,4170,5018.7,4116.4,4997.6z M5822.3,4639.1c32.6-11.5,69-36.4,78.6-55.6c11.5-19.2,19.2-178.3,19.2-352.7v-318.2H5000h-920.1V4227c0,172.5,5.7,329.7,11.5,346.9c30.7,78.6,97.8,84.3,900.9,86.3C5506,4660.2,5782.1,4652.6,5822.3,4639.1z M8206.8,3504.4c105.4-69,118.8-113.1,124.6-419.8l7.7-283.7H5001.9H1664.8v245.3c0,134.2,9.6,274.1,19.2,312.4c23,80.5,88.2,147.6,164.8,170.6c30.7,7.7,1462.5,13.4,3180,13.4C7980.6,3538.9,8157,3537,8206.8,3504.4z M7951.9-885c0-3203-1.9-3323.7-36.4-3387c-19.2-36.4-65.1-84.3-99.6-105.4c-65.2-38.3-99.7-38.3-2815.8-38.3c-2716.1,0-2750.6,0-2815.8,38.3c-34.5,21.1-80.5,69-99.7,105.4c-34.5,63.2-36.4,184-36.4,3387v3321.8H5000h2951.9V-885z"/><path d="M3261.5,1861.7c-92-38.3-132.3-174.4-82.4-268.3c11.5-23,51.8-53.7,88.2-69c55.6-23,74.8-23,128.4-1.9c86.3,36.4,118.8,82.4,118.8,168.7C3514.5,1817.6,3376.5,1909.6,3261.5,1861.7z"/><path d="M4377,1863.6c-97.8-42.2-138-141.9-97.8-241.5c40.3-93.9,138-136.1,228.1-99.7c86.3,36.4,118.8,82.4,118.8,168.7C4626.2,1815.7,4488.2,1911.5,4377,1863.6z"/><path d="M5488.8,1863.6c-69-30.7-115-97.8-115-174.4c0-84.3,34.5-130.3,120.8-166.8c174.4-72.8,327.8,168.7,187.8,299C5632.5,1867.5,5544.4,1886.6,5488.8,1863.6z"/><path d="M6541.1,1815.7c-61.3-61.3-69-78.6-59.4-139.9c23-132.3,136.1-199.3,256.9-149.5c164.8,69,124.6,320.1-55.6,348.9C6619.7,1884.7,6604.4,1879,6541.1,1815.7z"/><path d="M2707.5,1305.8c-97.8-38.3-138-203.2-69-285.6c46-57.5,138-80.5,207-49.8c72.8,30.7,103.5,69,116.9,151.4c9.6,59.4,1.9,76.7-57.5,136.1C2837.9,1325,2786.1,1338.4,2707.5,1305.8z"/><path d="M3821.2,1307.8c-155.3-67.1-143.8-300.9,15.3-343.1c124.6-34.5,233.9,44.1,233.9,170.6C4070.4,1259.8,3932.3,1355.7,3821.2,1307.8z"/><path d="M4942.5,1311.6c-105.4-40.2-155.3-159.1-107.3-253c38.3-70.9,84.3-97.8,168.7-97.8c166.8,0,241.5,199.3,116.9,310.5C5080.5,1309.7,4986.6,1328.8,4942.5,1311.6z"/><path d="M5994.8,1271.3c-151.4-134.2-26.8-358.4,168.7-306.7c78.6,21.1,128.4,93.9,126.5,184c-1.9,84.4-69,155.3-162.9,168.7C6069.6,1326.9,6048.5,1319.3,5994.8,1271.3z"/><path d="M7097,1259.8c-61.3-61.3-69-78.6-59.4-138c13.4-82.4,44.1-120.8,116.9-151.4c118.8-49.8,241.5,32.6,241.5,164.9c0,95.8-63.2,168.7-157.1,184C7175.6,1328.8,7160.2,1323.1,7097,1259.8z"/><path d="M3255.7,744.2c-70.9-34.5-115-136.1-93.9-210.8c23-84.3,82.4-128.4,172.5-128.4c95.8,0,168.7,63.2,184,157.2c9.6,63.3,3.8,78.6-57.5,139.9C3389.9,773,3336.2,784.5,3255.7,744.2z"/><path d="M4386.6,755.7c-95.8-34.5-145.7-134.2-115-228.1c26.8-80.5,84.3-122.7,168.7-122.7c84.3,0,130.3,26.8,168.7,97.8C4679.9,642.6,4534.2,809.4,4386.6,755.7z"/><path d="M5438.9,715.5c-130.3-116.9-59.4-310.5,113.1-310.5c90.1,0,147.6,40.3,176.3,122.7c36.4,111.2-32.6,214.7-157.2,235.8C5515.6,771.1,5492.6,763.4,5438.9,715.5z"/><path d="M6541.1,704c-61.3-61.3-69-78.6-59.4-138c13.4-82.4,44.1-120.8,116.9-151.4c118.8-49.8,241.5,32.6,241.5,164.8c0,95.8-63.2,168.7-157.2,184C6619.7,773,6604.4,767.2,6541.1,704z"/><path d="M2707.5,194.1C2644.3,169.2,2604,98.3,2604,15.8c0-218.5,322-228.1,358.4-9.6c9.6,63.2,3.8,78.6-57.5,139.9C2837.9,213.3,2786.1,226.7,2707.5,194.1z"/><path d="M3821.2,196c-93.9-40.3-136.1-145.7-95.8-243.4c30.7-74.7,78.6-103.5,170.6-103.5c101.6,0,174.4,70.9,174.4,172.5c0,67.1-11.5,90.1-63.3,136.1C3943.8,213.3,3892.1,224.8,3821.2,196z"/><path d="M4888.8,165.3c-74.8-61.3-92-141.8-53.7-218.5c38.3-70.9,84.3-97.7,168.7-97.7c84.3,0,141.8,42.2,168.7,122.7c24.9,78.6,3.9,143.8-69,201.3C5034.5,226.7,4957.8,224.8,4888.8,165.3z"/><path d="M5985.2,148.1c-63.2-63.3-69-78.6-59.4-141.8c15.3-92,88.2-157.2,178.3-157.2c92,0,139.9,28.8,170.6,101.6c49.8,120.7-17.2,233.8-149.5,256.8C6063.8,217.1,6046.6,209.4,5985.2,148.1z"/><path d="M7125.7,184.5c-105.4-57.5-118.8-222.4-23-297.1c122.6-95.8,293.2-17.3,293.2,132.2C7396,163.4,7248.4,253.5,7125.7,184.5z"/><path d="M3265.3-359.9c-116.9-49.8-149.5-208.9-57.5-299c101.6-103.5,285.6-38.3,310.5,109.3c9.6,63.2,3.8,78.6-57.5,139.9C3393.7-342.6,3342-329.2,3265.3-359.9z"/><path d="M4340.6-382.9c-72.8-57.5-93.9-122.7-69-201.3c26.8-80.5,84.3-122.7,168.7-122.7c84.3,0,130.3,26.8,168.7,97.8c38.3,76.7,21.1,157.2-53.7,218.5C4486.3-331.1,4409.6-329.2,4340.6-382.9z"/><path d="M5444.7-390.5c-74.7-61.3-92-141.8-53.7-218.5c38.3-70.9,84.3-97.8,168.7-97.8c84.3,0,141.8,42.2,168.7,122.7c24.9,78.6,3.9,143.8-69,201.3C5590.4-329.2,5513.7-331.1,5444.7-390.5z"/><path d="M6541.1-407.8c-63.2-63.3-69-78.6-59.4-141.8c15.3-95.8,88.2-157.2,187.9-157.2c222.4,0,233.8,322,13.4,358.4C6619.7-338.8,6604.4-344.5,6541.1-407.8z"/><path d="M2659.6-954.1c-74.8-74.7-78.6-191.7-7.7-260.7c93.9-95.8,277.9-42.2,306.7,88.2C2998.9-948.3,2788-827.5,2659.6-954.1z"/><path d="M3777.1-946.4c-69-57.5-86.3-132.3-51.8-214.7c30.7-70.9,78.6-101.6,162.9-101.6c80.5,0,128.4,28.8,164.8,97.8c38.3,76.7,21.1,157.2-53.7,218.5C3926.6-885,3849.9-885,3777.1-946.4z"/><path d="M4888.8-946.4c-74.8-61.3-92-141.8-53.7-218.5c38.3-70.9,84.3-97.8,168.7-97.8c84.3,0,141.8,42.2,168.7,122.7c24.9,78.6,3.9,143.8-69,201.3C5034.5-885,4957.8-887,4888.8-946.4z"/><path d="M5983.3-965.6c-61.3-61.3-67.1-76.7-57.5-139.9c15.3-92,88.2-157.2,178.3-157.2c92,0,139.9,28.8,170.6,101.6c34.5,82.4,17.2,157.2-51.7,214.7C6140.5-877.4,6065.7-883.1,5983.3-965.6z"/><path d="M7125.7-927.2c-63.2-34.5-101.6-122.7-84.4-199.4c28.8-130.3,212.8-184,306.7-88.2c70.9,69,67.1,185.9-7.7,260.7C7277.2-892.7,7206.2-883.1,7125.7-927.2z"/><path d="M3219.3-1506.1c-126.5-118.8-57.5-312.4,111.2-312.4c99.7,0,172.5,61.3,187.9,157.2c9.6,63.3,3.8,78.6-57.5,139.9C3376.5-1437.1,3299.8-1431.3,3219.3-1506.1z"/><path d="M4340.6-1494.6c-72.8-57.5-93.9-122.7-69-201.3c26.8-80.5,84.3-122.7,168.7-122.7c84.3,0,130.3,26.8,168.7,97.7c38.3,76.7,21.1,157.2-53.7,218.5C4486.3-1442.9,4409.6-1440.9,4340.6-1494.6z"/><path d="M5444.7-1502.3c-74.7-61.3-92-141.8-53.7-218.5c38.3-70.9,84.3-97.7,168.7-97.7c84.3,0,141.8,42.2,168.7,122.7c24.9,78.6,3.9,143.8-69,201.3C5590.4-1440.9,5513.7-1442.9,5444.7-1502.3z"/><path d="M6569.9-1483.1c-63.2-34.5-101.6-122.7-84.3-199.4c28.8-130.3,212.8-184,306.7-88.2c70.9,69,67.1,185.9-7.6,260.7C6721.3-1448.6,6650.4-1439,6569.9-1483.1z"/><path d="M2659.6-2065.8c-74.8-74.7-78.6-191.7-7.7-260.7c93.9-95.8,277.9-42.2,306.7,88.2C2998.9-2060.1,2788-1939.3,2659.6-2065.8z"/><path d="M3784.8-2050.5c-72.8-57.5-93.9-122.7-69-201.3c26.8-80.5,84.3-122.7,168.7-122.7c84.3,0,130.3,26.8,168.7,97.7c38.3,76.7,21.1,157.2-53.7,218.5C3930.4-1998.7,3853.8-1996.8,3784.8-2050.5z"/><path d="M4888.8-2058.1c-74.8-61.3-92-141.9-53.7-218.5c38.3-70.9,84.3-97.7,168.7-97.7c84.3,0,141.8,42.2,168.7,122.7c24.9,78.6,3.9,143.8-69,201.3C5034.5-1996.8,4957.8-1998.7,4888.8-2058.1z"/><path d="M5983.3-2077.3c-61.3-61.3-67.1-76.7-57.5-139.9c15.3-92,88.2-157.2,178.3-157.2c92,0,139.9,28.7,170.6,101.6c34.5,82.4,17.2,157.2-51.7,214.7C6140.5-1989.1,6065.7-1994.9,5983.3-2077.3z"/><path d="M7125.7-2039c-63.2-34.5-101.6-122.7-84.4-199.4c28.8-130.3,212.8-184,306.7-88.2c70.9,69,67.1,185.9-7.7,260.7C7277.2-2004.5,7206.2-1994.9,7125.7-2039z"/><path d="M3219.3-2617.9c-126.5-116.9-57.5-312.4,109.2-312.4c92,0,168.7,55.6,185.9,136.1C3552.8-2619.8,3349.6-2497.1,3219.3-2617.9z"/><path d="M4340.6-2606.3c-72.8-57.5-93.9-122.7-69-201.3c26.8-80.5,84.3-122.7,168.7-122.7c84.3,0,130.3,26.8,168.7,97.8c38.3,76.7,21.1,157.2-53.7,218.5C4486.3-2554.6,4409.6-2552.7,4340.6-2606.3z"/><path d="M5444.7-2614c-74.7-61.3-92-141.9-53.7-218.5c38.3-70.9,84.3-97.8,168.7-97.8c84.3,0,141.8,42.2,168.7,122.7c24.9,78.6,3.9,143.8-69,201.3C5590.4-2552.7,5513.7-2554.6,5444.7-2614z"/><path d="M6569.9-2594.8c-63.2-34.5-101.6-122.7-84.3-199.3c28.8-130.3,212.8-184,306.7-88.2c36.4,34.5,47.9,67.1,47.9,132.3c0,70.9-9.6,92-59.4,134.2C6715.5-2560.3,6644.6-2554.6,6569.9-2594.8z"/><path d="M2663.4-3171.8c-49.8-42.2-59.4-63.3-59.4-134.2c0-115,61.3-180.2,168.7-180.2c193.6,0,266.4,249.2,97.8,335.4C2791.8-3108.5,2728.6-3116.2,2663.4-3171.8z"/><path d="M3784.8-3162.2c-72.8-57.5-93.9-122.7-69-201.3c28.8-82.4,86.3-122.7,178.3-122.7c134.2,0,216.6,132.3,157.2,254.9C3999.4-3122,3876.8-3089.4,3784.8-3162.2z"/><path d="M4888.8-3169.9c-74.8-61.3-92-141.9-53.7-218.5c38.3-70.9,84.3-97.8,168.7-97.8c84.3,0,141.8,42.2,168.7,122.7c24.9,78.6,3.9,143.8-69,201.3C5034.5-3108.5,4957.8-3110.5,4888.8-3169.9z"/><path d="M6014-3150.7c-159.1-86.3-90.1-335.4,92-335.4c90.1,0,138,30.7,168.7,101.6c34.5,82.4,17.2,157.2-51.7,214.7C6159.6-3116.2,6088.7-3110.5,6014-3150.7z"/><path d="M7125.7-3150.7c-105.4-57.5-118.8-222.3-23-297.1c120.7-93.9,293.2-13.4,293.2,138C7396-3164.1,7254.1-3081.7,7125.7-3150.7z"/><path d="M3219.3-3729.6c-128.4-118.8-57.5-312.4,113.1-312.4c187.8,0,258.8,251.1,93.9,335.4C3345.8-3664.4,3282.6-3672.1,3219.3-3729.6z"/><path d="M4340.6-3718.1c-72.8-57.5-93.9-122.7-69-201.3c26.8-80.5,84.3-122.7,168.7-122.7c84.3,0,130.3,26.8,168.7,97.8c38.3,76.7,21.1,157.2-53.7,218.5C4486.3-3666.3,4409.6-3664.4,4340.6-3718.1z"/><path d="M5465.8-3700.8c-55.6-26.8-107.3-139.9-92-201.3c19.2-80.5,93.9-139.9,176.4-139.9c92,0,149.5,40.3,178.2,122.7C5778.2-3766,5615.3-3628,5465.8-3700.8z"/><path d="M6569.9-3706.6c-161-88.2-90.1-335.4,97.8-335.4c105.4,0,172.5,69,172.5,180.2c0,70.9-9.6,92-59.4,134.2C6715.5-3672.1,6644.6-3666.3,6569.9-3706.6z"/></g></g>
</svg>