<?xml version="1.0" encoding="utf-8"?>
<!-- Svg Vector Icons : http://www.onlinewebfonts.com/icon -->
<!DOCTYPE svg PUBLIC "-//W3C//DTD SVG 1.1//EN" "http://www.w3.org/Graphics/SVG/1.1/DTD/svg11.dtd">
<svg version="1.1" xmlns="http://www.w3.org/2000/svg" xmlns:xlink="http://www.w3.org/1999/xlink" x="0px" y="0px" viewBox="0 0 1000 1000" enable-background="new 0 0 1000 1000" xml:space="preserve">
<metadata> Svg Vector Icons : http://www.onlinewebfonts.com/icon </metadata>
<g><g transform="translate(0.000000,511.000000) scale(0.100000,-0.100000)"><path d="M4823.5,5001.9c-360.2-33.6-680.8-148.4-993.5-354.2c-441.3-292.9-771.8-678.8-1037-1209.2C2504,2852.6,2369.4,2255,2369.4,1542.5c2-692.7,124.7-1256.7,403.7-1836.6c340.4-706.5,839.1-1211.2,1440.8-1456.6c89.1-37.6,154.4-75.2,154.4-91c0-15.8-85.1-548.2-188-1183.5c-102.9-635.3-188-1187.4-188-1225c0-205.8,245.4-387.9,668.9-496.7c243.4-63.3,449.2-57.4,696.6,21.8c322.6,102.9,508.6,225.6,564,374.1c33.7,85.1,31.7,91-156.3,1240.8c-102.9,635.3-192,1181.5-194,1213.2c-5.9,51.4,2,59.4,93,91c637.3,221.7,1191.4,740.2,1551.6,1458.6C7374.5-30.8,7517,422.3,7584.3,826.1c43.5,257.3,61.3,906.4,31.6,1189.4c-83.1,785.7-378,1531.8-827.2,2082c-403.7,492.8-1021.2,853-1539.7,896.5C5001.6,5013.8,4967.9,5013.8,4823.5,5001.9z M5421.1,4647.6c502.7-130.6,967.7-480.9,1298.3-977.7C7625.8,2310.4,7511,285.8,6464.1-899.6c-290.9-328.5-670.9-560.1-1100.4-668.9c-166.2-41.6-170.2,31.7,65.3-1397.2c112.8-694.6,201.9-1274.5,197.9-1288.4c-5.9-13.9-61.3-49.5-124.7-81.1c-298.8-152.4-573.9-182.1-851-93c-211.8,67.3-352.3,148.4-348.3,197.9c0,21.8,93,603.6,205.8,1294.3c186,1149.8,199.9,1258.7,174.2,1306.2c-21.8,39.6-71.3,65.3-205.8,112.8c-350.3,118.8-591.7,271.1-860.9,542.2c-659,661-1017.2,1743.6-934.1,2816.2c97,1231,672.9,2244.3,1517.9,2669.8c122.7,63.3,399.8,150.4,544.2,174.2C4908.6,4711,5247,4693.2,5421.1,4647.6z"/><path d="M4665.1,4093.5c-688.7-186-1225-868.8-1424.9-1812.8c-53.4-257.3-75.2-813.4-41.6-1090.5C3319.4,226.4,3820.1-561.3,4487-830.4c417.6-168.2,851-128.6,1260.6,114.8c154.4,93,409.7,340.4,544.2,524.5c215.7,300.8,387.9,712.5,473,1128.1c51.5,253.3,71.3,793.6,39.6,1070.7c-122.7,1050.9-732.3,1907.8-1488.2,2091.9C5144.1,4141,4831.4,4139,4665.1,4093.5z M5209.4,3804.6c615.5-128.6,1108.3-783.7,1268.6-1682.2c45.5-263.2,45.5-777.8,0-1039c-100.9-570-330.5-1037-663-1349.7c-502.7-473-1122.1-475-1624.8-4C3930.9-24.9,3770.6,242.3,3636,646c-108.8,330.5-144.5,562.1-144.5,951.9c0,356.2,29.7,581.8,114.8,880.7c57.4,197.9,207.8,528.4,308.7,676.8c235.5,348.3,544.2,577.9,870.8,649.1C4952.1,3840.2,5041.2,3840.2,5209.4,3804.6z"/><path d="M5126.2,3335.5c-211.7-182.1-1231-1096.4-1276.5-1145.9c-59.4-63.3-71.2-144.5-27.7-199.9c37.6-49.5,122.7-77.2,176.1-57.4c43.5,17.8,1229,1066.7,1355.7,1199.3c73.2,79.2,81.2,140.5,21.8,215.7S5223.2,3418.6,5126.2,3335.5z"/><path d="M4950.1,2421.2c-132.6-112.8-245.4-221.7-253.3-239.5c-39.6-106.9,25.7-207.8,136.6-207.8c55.4,0,100.9,27.7,251.3,154.4c356.2,298.8,380,334.5,290.9,447.3c-29.7,39.6-57.4,51.5-112.8,51.5C5197.5,2627,5159.9,2601.3,4950.1,2421.2z"/></g></g>
</svg>