<?xml version="1.0" encoding="utf-8"?>
<!-- Svg Vector Icons : http://www.onlinewebfonts.com/icon -->
<!DOCTYPE svg PUBLIC "-//W3C//DTD SVG 1.1//EN" "http://www.w3.org/Graphics/SVG/1.1/DTD/svg11.dtd">
<svg version="1.1" xmlns="http://www.w3.org/2000/svg" xmlns:xlink="http://www.w3.org/1999/xlink" x="0px" y="0px" viewBox="0 0 1000 1000" enable-background="new 0 0 1000 1000" xml:space="preserve">
<metadata> Svg Vector Icons : http://www.onlinewebfonts.com/icon </metadata>
<g><g><g><path d="M399.6,410.1c0-20.2-7.4-36.5-36.5-36.5v-37.9h-91.3v37.9c-18.3,0-36.5,16.3-36.5,36.5V500h164.3V410.1z"/><path d="M746.5,410.1c0-20.2-7.7-36.5-36.5-36.5v-37.9h-91.3v37.9c-18.3,0-36.5,16.3-36.5,36.5V500h164.3V410.1z"/><rect x="545.7" y="737.4" width="200.9" height="36.5"/><rect x="545.7" y="664.3" width="200.9" height="54.8"/><path d="M746.5,953.6c0,19.1,6,36.4,30,36.4c31.1,0,31.7-33,31.7-34.7c-0.1-5-3.4-9-8.5-8.9c-5,0.1-8.6,4.3-8.6,9.3c0,2.5,2.1,16-14.3,16c-11.9,0-12-8.7-12-18.3v-51.7h22.1c16.4,0,32.7-14.2,32.7-35.9v-54v-18.3v-9.1v-18.3v-9.1V579.1v-41.2v-18.3v-9.1v-18.3v-9.1V287.8v-3.8l-2.7-1.6L563.9,128.4V87.1c0-43.2-32.1-77.1-73-77.1c-41.6,0-73,32.5-73,75.6v45.7L182.9,282.3l-2.4,1.6v4.2v195.1v18.3v18.3v18.3v41.2v177.9v18.3v18.3v18.3V867c0,12.2,4.9,34.7,24.1,34.7h49v55.4c0,0.7-0.3,14.6-12.3,14.6c-15.2,0-15.6-13.5-15.5-15.8c0.2-5-2.7-9.3-7.7-9.5c-5.4-0.6-8.9,3.6-9.1,8.7c-0.1,1.7-1.7,34.8,32.1,34.8c22.8,0,30.8-16.5,30.8-36.5v-51.7h286.2h188.6L746.5,953.6L746.5,953.6z M436.1,136.2V85.6c0-32.7,23.6-57.3,54.8-57.3c30.7,0,54.8,25.8,54.8,58.8v46c0,2.5,248.3,166,248.3,166H199.3C199.3,299.1,436.1,139.3,436.1,136.2z M198.7,483.2V317.4h602.6v165.8v35.1h-42.5H594.4H411.8H247.5h-48.8V483.2z M198.7,537.9v-1.4h48.8h164.3h389.5v73h-75.9c20.2,0,21.1-33.2,21.1-53.4v-1.4H582.2c0.1,20.3,2.5,54.8,18.2,54.8H379.1c20.2,0,20.5-33.2,20.5-53.4v-1.4H235.2v1.4c0,20.2,0.1,53.4,20.3,53.4h-56.8L198.7,537.9L198.7,537.9z M198.7,757.1V627.8c0,0,21.5,0,27.2,0l575.8-0.1l-0.4,164.4h-42.5H557.9H198.7V757.1z M545.7,828.7v54.8H215.1c-9.7,0-16.4-11.9-16.4-23.3v-48.3v-1.4h359.2h200.9h42.5v1.4v43.4c0,7.4-1.1,28.2-18.6,28.2h-36.1v-54.8H545.7z"/><path d="M582.2,554.8L582.2,554.8c0-0.3,0-0.6,0-0.9V554.8z"/></g></g><g></g><g></g><g></g><g></g><g></g><g></g><g></g><g></g><g></g><g></g><g></g><g></g><g></g><g></g><g></g></g>
</svg>