<?xml version="1.0" encoding="utf-8"?>
<!-- Svg Vector Icons : http://www.onlinewebfonts.com/icon -->
<!DOCTYPE svg PUBLIC "-//W3C//DTD SVG 1.1//EN" "http://www.w3.org/Graphics/SVG/1.1/DTD/svg11.dtd">
<svg version="1.1" xmlns="http://www.w3.org/2000/svg" xmlns:xlink="http://www.w3.org/1999/xlink" x="0px" y="0px" viewBox="0 0 1000 1000" enable-background="new 0 0 1000 1000" xml:space="preserve">
<metadata> Svg Vector Icons : http://www.onlinewebfonts.com/icon </metadata>
<g><g transform="translate(0.000000,511.000000) scale(0.100000,-0.100000)"><path d="M2553.4,3538.5c-44.3-4-179.4-18.1-302.3-30.2c-534.1-52.4-1084.4-197.5-1471.3-391c-362.8-181.4-574.4-385-645-620.8c-46.4-153.2-46.4-4611.5,0-4764.7c116.9-395,701.4-745.7,1535.8-921.1c606.7-127,336.6-120.9,4466.4-127l3763-8v2410.6v2408.6H7832.1H5766.2l4,469.6c4,495.8-4,558.3-92.7,699.4c-249.9,393-1001.7,715.5-1947,836.4C3492.6,3530.4,2726.7,3556.6,2553.4,3538.5z M3885.7,3151.5c693.3-108.8,1177.1-286.2,1410.9-522c199.5-197.5,193.5-352.7-20.2-560.3c-245.9-239.9-707.5-409.2-1402.8-516c-251.9-40.3-376.9-46.4-896.9-46.4c-640.9-2-844.5,14.1-1271.8,98.8C1128.4,1722.5,697.1,1922,525.8,2157.8c-302.3,409.2,366.8,842.5,1533.8,997.7c352.7,48.4,372.9,48.4,987.6,42.3C3500.7,3193.8,3676,3183.7,3885.7,3151.5z M799.9,1563.2c370.9-183.4,905-320.5,1485.4-383c268.1-26.2,763.9-32.2,3795.2-34.3l3486.9-4l6-2059.9l4-2061.9H6050.4c-3835.6,0-3817.4,0-4371.7,112.9c-614.7,127-1068.2,352.7-1191.2,594.6c-38.3,74.6-40.3,129-40.3,2053.8v1977.3l86.7-52.4C580.2,1676.1,699.1,1613.6,799.9,1563.2z M5445.7,1625.7v-131h-235.8l-237.8,2l161.3,84.6c88.7,46.4,189.5,104.8,221.7,129c34.3,24.2,66.5,46.3,76.6,46.3C5439.6,1756.7,5445.7,1698.3,5445.7,1625.7z"/><path d="M2529.2,2843.1c-620.8-52.4-1034-243.9-1034-483.7c0-209.6,227.7-364.8,655-449.5c651-127,1541.9-76.6,1943,110.8c520,241.9,350.7,624.8-334.6,761.9C3377.7,2859.2,2972.6,2879.4,2529.2,2843.1z M3605.5,2474.3c249.9-46.4,463.6-112.9,427.3-133c-66.5-38.3-340.6-104.8-542.2-131c-251.9-34.3-804.2-38.3-1058.2-8.1c-191.5,24.2-552.3,108.8-582.5,139.1c-32.3,32.3,344.7,127,673.2,169.3C2682.4,2530.7,3444.3,2504.5,3605.5,2474.3z"/></g></g>
</svg>