<?xml version="1.0" encoding="utf-8"?>
<!-- Svg Vector Icons : http://www.onlinewebfonts.com/icon -->
<!DOCTYPE svg PUBLIC "-//W3C//DTD SVG 1.1//EN" "http://www.w3.org/Graphics/SVG/1.1/DTD/svg11.dtd">
<svg version="1.1" xmlns="http://www.w3.org/2000/svg" xmlns:xlink="http://www.w3.org/1999/xlink" x="0px" y="0px" viewBox="0 0 1000 1000" enable-background="new 0 0 1000 1000" xml:space="preserve">
<metadata> Svg Vector Icons : http://www.onlinewebfonts.com/icon </metadata>
<g><path d="M72.8,254.8c-35.2,0-62.8,39.4-62.8,89.7v311c0,50.3,27.6,89.7,62.8,89.7c35.2,0,62.8-39.4,62.8-89.7v-311C135.6,294.3,108,254.8,72.8,254.8z M99.7,655.5c0,30.8-14.2,53.8-26.9,53.8c-12.7,0-26.9-23-26.9-53.8v-311c0-30.8,14.2-53.8,26.9-53.8c12.7,0,26.9,23,26.9,53.8V655.5z M927.2,254.8c-35.2,0-62.8,39.4-62.8,89.7v311c0,50.3,27.6,89.7,62.8,89.7c35.2,0,62.8-39.4,62.8-89.7v-311C990,294.3,962.5,254.8,927.2,254.8z M954.1,655.5c0,30.8-14.2,53.8-26.9,53.8s-26.9-23-26.9-53.8v-311c0-30.8,14.2-53.8,26.9-53.8s26.9,23,26.9,53.8V655.5z M829.6,302.7c-9.9,0-17.9,8.1-17.9,17.9v21H188.4v-21c0-9.9-8-17.9-17.9-17.9c-9.9,0-17.9,8.1-17.9,17.9v358.8c0,9.9,8,17.9,17.9,17.9c9.9,0,17.9-8.1,17.9-17.9v-20.9h623.3v20.9c0,9.9,8,17.9,17.9,17.9c9.9,0,17.9-8.1,17.9-17.9V320.6C847.5,310.7,839.5,302.7,829.6,302.7z M811.7,622.6H188.4v-57.8h623.3V622.6z M811.7,529H188.4v-57.8h623.3V529z M811.7,435.2H188.4v-57.8h623.3V435.2z"/></g>
</svg>