<?xml version="1.0" encoding="utf-8"?>
<!-- Svg Vector Icons : http://www.onlinewebfonts.com/icon -->
<!DOCTYPE svg PUBLIC "-//W3C//DTD SVG 1.1//EN" "http://www.w3.org/Graphics/SVG/1.1/DTD/svg11.dtd">
<svg version="1.1" xmlns="http://www.w3.org/2000/svg" xmlns:xlink="http://www.w3.org/1999/xlink" x="0px" y="0px" viewBox="0 0 1000 1000" enable-background="new 0 0 1000 1000" xml:space="preserve">
<metadata> Svg Vector Icons : http://www.onlinewebfonts.com/icon </metadata>
<g><g transform="translate(0.000000,512.000000) scale(0.100000,-0.100000)"><path d="M7714.6,4917.6c-67-57.4-1653.4-1362.6-3526.9-2901.2C2314.1,477.9,758.3-808.1,727.7-838.8c-70.8-76.6-68.9-156.9,3.8-229.6c89.9-89.9,145.4-76.5,334.9,78.5c89.9,72.7,168.4,134,174.1,134s9.6-507.1,9.6-1129.1v-1129.1H842.5c-407.6,0-409.5,0-512.9-53.6c-67-34.5-122.5-80.4-160.7-134l-57.4-84.2l-5.7-639.2l-5.7-641.1l57.4-55.5l55.5-57.4H5001H9789l55.5,55.5l55.5,55.5v4041.7v4041.7l-55.5,55.5l-55.5,55.5h-612.4h-612.4l-101.4-53.6c-74.6-38.3-118.6-78.5-160.8-147.4l-57.4-91.9l-9.6-518.6l-9.6-518.6l-70.8-5.7l-72.7-5.7v1243.9v1243.9l863.1,5.7l863.1,5.7l45.9,53.6c61.3,72.7,61.3,172.2-1.9,233.5l-45.9,47.8h-985.5h-985.6L7714.6,4917.6z M7737.5,3336.9V2192.5l-430.6-1.9c-484.1-3.8-524.4-13.4-637.2-149.3c-88-105.3-99.5-189.5-99.5-704.2V866.3h-76.5h-76.5V2137v1270.7l654.5,537.7c359.8,296.6,656.4,537.7,660.2,537.7C7735.6,4483.2,7737.5,3968.4,7737.5,3336.9z M9565.1-626.3v-3817.8H5001H436.8l-5.7,491.8l-3.8,491.8l683.2,5.7l685.1,5.7l88,51.7c47.8,28.7,112.9,88,143.5,132l55.5,80.4l5.7,533.9l5.7,532h673.6c752.1,0,771.2,3.8,882.2,135.9c103.3,120.6,107.2,147.4,107.2,687v497.6h646.8c411.4,0,671.7,7.7,721.5,21c101.4,28.7,246.9,174.2,275.6,275.6c13.4,45.9,21,266,21,558.8V541l694.7-1.9h692.7l53.6,59.3l51.7,57.4v602.8v602.8h660.2c729.1,0,744.4,1.9,866.9,120.6c126.3,120.6,128.2,126.3,134,673.6c1.9,273.7,9.6,509,13.4,522.4c7.7,19.1,114.8,23,491.8,19.1l484.1-5.7V-626.3z M6072.6,1997.3V868.2l-359.7-5.7c-356-5.7-361.7-5.7-440.2-57.4c-42.1-28.7-103.3-93.8-132.1-143.5l-53.6-91.9l-5.7-511l-5.8-512.9H4999h-74.6V862.5V2181l570.3,470.8c311.9,258.3,570.3,470.8,574.1,470.8C6070.7,3124.5,6072.6,2617.4,6072.6,1997.3z M4580,713.2V-454.1h-394.2c-432.5,0-503.3-11.5-610.5-99.5c-130.1-109.1-132-120.5-143.5-704.2l-9.6-526.3l-80.4-5.7l-82.3-5.7l1.9,1307.1v1307l644.9,530.1c354,290.9,650.7,530.1,660.2,530.1C4574.2,1880.6,4580,1356.2,4580,713.2z M2915-634v-1157.8l-445.9-5.7l-447.8-5.7l-68.9-53.6c-38.3-28.7-93.8-84.2-122.5-122.5l-53.6-68.9l-5.7-533.9l-5.7-532h-84.2h-86.1v1278.3v1278.3L2251-17.8c359.8,296.6,656.4,539.7,660.2,539.7C2913.1,521.9,2915,1.3,2915-634z"/></g></g>
</svg>