<?xml version="1.0" encoding="utf-8"?>
<!-- Svg Vector Icons : http://www.onlinewebfonts.com/icon -->
<!DOCTYPE svg PUBLIC "-//W3C//DTD SVG 1.1//EN" "http://www.w3.org/Graphics/SVG/1.1/DTD/svg11.dtd">
<svg version="1.1" xmlns="http://www.w3.org/2000/svg" xmlns:xlink="http://www.w3.org/1999/xlink" x="0px" y="0px" viewBox="0 0 1000 1000" enable-background="new 0 0 1000 1000" xml:space="preserve">
<metadata> Svg Vector Icons : http://www.onlinewebfonts.com/icon </metadata>
<g><g transform="translate(0.000000,511.000000) scale(0.100000,-0.100000)"><path d="M1441.4,4816.5c-271.2-51.5-645.4-254-847.9-456.6C360,4123,181.5,3766,133.5,3429.6c-44.6-329.6-44.6-6343.9,0-6642.6c44.6-267.8,219.7-648.8,391.3-844.5c151-178.5,418.8-357,690-463.4l206-82.4l4143.5-10.3l4140-10.3l99.6,85.8l96.1,82.4v3199.4v3199.4l-96.1,82.4l-96.1,82.4h-992.1h-992.1l-10.3,1005.8c-10.3,937.2-13.7,1012.7-82.4,1160.3c-92.7,199.1-291.8,398.2-490.9,490.9c-157.9,72.1-185.4,72.1-2852.7,79C2804.2,4843.9,1523.8,4833.6,1441.4,4816.5z M6964.9,4253.5c212.9-109.9,206,10.3,206-2962.6v-2708.5l-178.5,44.7c-267.8,72.1-5231.7,68.7-5557.8,0c-240.3-51.5-604.2-216.3-679.7-309c-27.5-30.9-58.4-54.9-75.5-54.9c-17.2,0-30.9,1119.1-30.9,2574.6c0,2502.6,3.4,2578.1,68.7,2760c89.3,236.9,284.9,460,518.4,587l185.4,103l2574.7,20.6c1417.8,10.3,2639.9,13.7,2722.3,6.9C6796.7,4311.9,6910,4280.9,6964.9,4253.5z M8276.2,1363c17.2-216.3,103-319.2,264.3-319.2c171.6,3.4,278,147.6,278,374.2v140.8h274.6h274.6v-2815v-2815h-274.6h-274.6v140.8c0,226.6-106.4,370.7-278,374.2c-161.3,0-247.2-103-264.3-322.7l-17.2-192.3l-3419.1,6.9l-3419.1,10.3l-185.4,103c-769,425.7-782.7,1507-24,1939.6c96.1,58.4,192.2,103,216.3,103c27.5,0,44.6-164.8,51.5-587l10.3-587l96.1-82.4l99.6-85.8l2646.7,10.3c2619.3,10.3,2653.6,10.3,2808.1,82.4c199.1,92.7,398.2,291.8,490.9,490.9c72.1,154.5,72.1,202.5,82.4,2193.6l10.3,2032.3h267.8h271.2L8276.2,1363z M6964.9-1925.7c271.2-140.8,271.2-580.1,0-720.9c-85.8-44.6-422.2-51.5-2523.2-51.5H2021.6v412v411.9h2420.2C6542.6-1874.2,6879.1-1881.1,6964.9-1925.7z"/><path d="M8368.9,360.6c-79-61.8-82.4-85.8-92.7-576.7c-10.3-556.1,13.7-655.7,168.2-710.6c144.2-51.5,267.8,0,326.1,133.9c68.7,164.8,68.7,944-3.4,1077.9C8688.2,443,8509.7,473.9,8368.9,360.6z"/><path d="M8368.9-1630.4c-79-61.8-82.4-85.8-92.7-576.7c-10.3-556.1,13.7-655.7,168.2-710.6c133.9-44.6,264.3,0,322.7,116.7c72.1,140.8,72.1,957.8,0,1095.1C8688.2-1548.1,8509.7-1517.2,8368.9-1630.4z"/></g></g>
</svg>