<?xml version="1.0" encoding="utf-8"?>
<!-- Svg Vector Icons : http://www.onlinewebfonts.com/icon -->
<!DOCTYPE svg PUBLIC "-//W3C//DTD SVG 1.1//EN" "http://www.w3.org/Graphics/SVG/1.1/DTD/svg11.dtd">
<svg version="1.1" xmlns="http://www.w3.org/2000/svg" xmlns:xlink="http://www.w3.org/1999/xlink" x="0px" y="0px" viewBox="0 0 1000 1000" enable-background="new 0 0 1000 1000" xml:space="preserve">
<metadata> Svg Vector Icons : http://www.onlinewebfonts.com/icon </metadata>
<g><g transform="translate(0.000000,486.000000) scale(0.100000,-0.100000)"><path d="M807.2,4455.2l-55.5-57.4l3.8-1370.3l5.7-1372.3l45.9-36.4c42.1-34.4,91.9-36.4,1257.4-36.4c1182.8,0,1215.3,1.9,1251.7,38.3c21.1,21.1,42.1,57.4,47.8,80.4c5.7,24.9,7.7,645,5.7,1379.9l-5.7,1337.8l-53.6,45.9l-53.6,45.9H2060.8H862.7L807.2,4455.2z M3048.3,3046.6V1907.8h-985.6H1077v1138.8v1138.8h985.6h985.6V3046.6z"/><path d="M1289.5,3963.3c-40.2-49.8-40.2-70.8-40.2-918.7c0-476.6,5.7-880.4,11.5-897.6c30.6-80.4,86.1-86.1,811.5-86.1h692.8l55.5,55.5l55.5,55.5v874.6v872.7l-47.8,45.9l-45.9,47.8H2055h-727.3L1289.5,3963.3z M2550.7,3037v-650.7h-488h-488V3037v650.7h488h488V3037z"/><path d="M7878.9,3364.3c-114.8-49.8-137.8-199-44-277.5c47.9-40.2,78.5-49.8,162.7-49.8h103.3v-488v-488h-840.2c-463.1,0-855.5-5.7-872.7-11.5c-36.4-15.3-86.1-105.3-86.1-158.8c0-21.1,23-63.2,49.8-95.7c44-53.6,59.3-59.3,162.7-59.3h112.9v-488v-488h-844h-844l-55.5-55.5c-68.9-68.9-70.8-134-7.7-210.5c44-51.7,63.2-57.4,168.4-63.2l118.7-5.7l5.7-482.3l3.8-484.2h-842.1c-568.4,0-857.4-7.7-884.2-21c-53.6-28.7-95.7-137.8-74.6-193.3c30.6-82.3,91.9-118.7,212.4-126.3l114.8-7.7v-476.5v-476.6l-44-9.6c-24.9-7.7-403.8-7.7-842.1-1.9l-796.2,9.6l-59.3-47.9c-45.9-38.3-57.4-65.1-57.4-122.5c0-109.1,82.3-172.3,222-172.3h103.3v-489.9v-491.9l-821,9.6c-868.9,11.5-911,7.6-956.9-78.5c-11.5-21-21.1-61.2-21.1-91.9c1.9-103.3,80.4-158.8,227.8-158.8h97.6v-488v-488H474.2c-271.8,0-281.3-1.9-325.4-47.8c-65.1-63.2-65.1-166.5,0-229.7l45.9-47.9h4796.2H9789l55.5,55.5l55.5,55.5v3975.1v3973.2l-47.8,45.9l-45.9,47.8h-658.4c-361.7,0-786.6,3.8-943.5,9.6C8043.5,3377.7,7901.9,3373.9,7878.9,3364.3z M9574.6,2307.8v-727.3l-59.3-21.1c-134-45.9-134-252.6,0-298.6l59.3-21.1V914.6c0-304.3-1.9-327.3-34.5-327.3c-42.1,0-109.1-68.9-126.3-128.2c-19.1-59.3,32.5-149.3,103.3-178l57.4-23V-65.4c0-300.5-1.9-323.4-34.5-323.4c-19.1,0-55.5-21-80.4-47.8c-84.2-90-45.9-237.3,68.9-266l45.9-11.5v-325.4c0-271.8-3.8-325.4-26.8-325.4c-15.3,0-51.7-21-80.4-45.9c-40.2-34.5-53.6-61.2-53.6-116.7s13.4-82.3,53.6-116.7c28.7-24.9,65.1-45.9,80.4-45.9c23,0,26.8-53.6,26.8-325.4c0-271.8-3.8-325.4-26.8-325.4c-15.3,0-51.7-21-80.4-45.9c-74.6-63.2-74.6-170.3,0-233.5c28.7-24.9,65.1-45.9,80.4-45.9c23,0,26.8-53.6,26.8-323.4v-323.4l-55.5-19.1c-67-23-124.4-120.6-105.3-181.8c17.2-59.3,84.2-128.2,126.3-128.2c32.5,0,34.5-23,34.5-325.4v-325.4l-65.1-26.8c-42.1-17.2-70.8-45.9-84.2-86.1l-21.1-59.3h-325.4c-304.3,0-327.3,1.9-327.3,34.4c0,42.1-68.9,109.1-128.2,126.3c-61.3,19.1-158.8-38.3-181.8-105.3l-19.1-55.5H8099c-269.9,0-323.5,3.8-323.5,26.8c0,15.3-21,51.7-45.9,80.4c-63.2,74.6-170.3,74.6-233.5,0c-24.9-28.7-45.9-65.1-45.9-80.4c0-23-53.6-26.8-325.4-26.8h-325.4l-11.5,45.9c-28.7,114.8-176.1,153.1-266,68.9c-26.8-24.9-47.9-61.3-47.9-80.4c0-32.5-23-34.4-323.4-34.4h-323.4l-24.9,59.3c-26.8,67-126.3,120.6-183.7,99.5c-55.5-19.1-120.6-86.1-120.6-124.4c0-32.5-23-34.4-334.9-34.4c-306.2,0-334.9,3.8-334.9,34.4c-1.9,47.9-42.1,95.7-103.3,118.7c-74.6,26.8-170.3-17.2-201-93.8l-24.9-59.3h-323.4c-300.5,0-323.5,1.9-323.5,34.4c0,42.1-68.9,109.1-128.2,126.3c-61.2,19.1-158.8-38.3-181.8-105.3l-19.1-55.5H2300H1077v488v488h681.3h681.3l55.5,55.5l55.5,55.5v595.2v595.2h650.7c712,0,767.5,7.7,803.8,105.3c11.5,28.7,19.1,292.8,19.1,633.5v581.8h685.2h687.1l45.9,49.8l45.9,49.8l5.7,601l5.8,601h679.4h679.4l45.9,47.8l47.9,45.9v604.8v602.9h671.8c683.3,0,723.5,3.8,777.1,74.6c17.2,23,23,189.5,24.9,629.7V3037h574.2h574.2V2307.8z"/><path d="M9010,1061.9c-145.4-78.5-95.7-302.4,67-302.4c76.6,0,172.2,90,172.2,162.7c0,63.2-95.7,162.7-156.9,162.7C9067.5,1084.9,9031.1,1073.4,9010,1061.9z"/><path d="M8506.7,573.9c-42.1-17.2-84.2-120.6-70.8-178c40.2-179.9,315.8-151.2,315.8,32.5C8751.7,545.2,8623.4,621.7,8506.7,573.9z"/><path d="M8034,87.7c-63.2-36.4-86.1-78.5-86.1-153.1c0-137.8,174.2-204.8,267.9-103.3c57.4,61.3,61.3,166.5,7.7,220.1C8177.5,99.2,8083.7,116.5,8034,87.7z"/><path d="M8983.2,59c-145.4-122.5-1.9-333,179.9-264.1c36.4,15.3,86.1,105.3,86.1,160.8c0,57.4-101.4,153.1-158.8,153.1C9063.6,108.8,9015.8,85.8,8983.2,59z"/><path d="M7498.1-436.7c-67-65.1-63.2-149.3,7.7-222c72.7-72.7,141.6-72.7,214.3,0c107.2,109.1,44,269.8-107.2,269.8C7565.1-388.8,7528.7-404.1,7498.1-436.7z"/><path d="M8487.6-427.1c-88-82.3-70.8-204.8,36.3-266c97.6-55.5,227.8,26.8,227.8,145.5C8751.7-413.7,8585.2-337.1,8487.6-427.1z"/><path d="M7046.4-896c-55.5-30.6-99.5-126.3-80.4-178c61.3-174.2,312-149.3,312,32.5c0,86.1-26.8,128.2-97.6,153.1C7105.7-863.4,7107.6-861.5,7046.4-896z"/><path d="M8045.4-888.3c-65.1-26.8-95.7-74.6-97.6-153.1c-1.9-179.9,260.3-208.6,315.8-36.4c19.1,59.3-24.9,151.2-88,181.8C8114.4-863.4,8108.6-863.4,8045.4-888.3z"/><path d="M9038.7-880.7c-67-24.9-114.8-90-114.8-153.1c0-116.7,122.5-191.4,239.2-147.4c36.4,15.3,86.1,105.3,86.1,158.9C9249.3-938.1,9117.2-850,9038.7-880.7z"/><path d="M6522-1412.7c-99.5-97.6-28.7-277.5,109.1-277.5c72.7,0,168.4,91.9,168.4,162.7c0,30.6-23,72.7-55.5,107.2C6671.3-1349.6,6587.1-1345.7,6522-1412.7z"/><path d="M7511.5-1403.2c-88.1-82.3-70.8-204.8,36.3-266c97.6-53.6,227.8,26.8,227.8,143.5C7775.6-1393.6,7605.3-1315.1,7511.5-1403.2z"/><path d="M8481.8-1420.4c-32.5-34.4-55.5-76.6-55.5-107.2c0-72.7,95.7-162.7,172.2-162.7c84.2,0,153.1,74.6,153.1,162.7C8751.7-1376.4,8590.9-1313.2,8481.8-1420.4z"/><path d="M6039.7-1891.2c-93.8-65.1-68.9-222,40.2-267.9c158.8-67,289,109.1,181.8,246.9C6215.8-1854.8,6108.6-1843.3,6039.7-1891.2z"/><path d="M7025.3-1881.6c-17.2-11.5-42.1-49.8-53.6-84.2c-28.7-86.1,13.4-170.3,95.7-199c158.8-55.5,287.1,147.4,166.5,260.3C7186.1-1860.6,7082.8-1849.1,7025.3-1881.6z"/><path d="M7990-1906.5c-82.3-86.1-40.2-225.8,78.5-267.9c57.4-21.1,156.9,32.5,183.8,99.5c30.6,68.9,1.9,162.7-57.4,193.3C8131.6-1847.2,8034-1858.7,7990-1906.5z"/><path d="M8964.1-1912.2c-49.8-65.1-51.7-141.6-1.9-204.8s120.6-78.5,191.4-42.1c74.6,38.3,101.4,93.8,88,174.2c-15.3,78.5-74.6,122.5-166.5,122.5C9019.6-1862.5,8992.8-1874,8964.1-1912.2z"/><path d="M5580.4-2360.1c-91.9-36.4-111-181.8-34.4-258.4c97.6-99.5,266-26.8,266,114.8C5811.9-2383.1,5699-2312.2,5580.4-2360.1z"/><path d="M6560.3-2363.9c-145.4-84.2-93.8-304.3,70.8-302.4c70.8,1.9,112.9,26.8,145.4,90c36.4,67,26.8,120.6-32.5,179.9C6684.7-2339.1,6623.4-2327.6,6560.3-2363.9z"/><path d="M7505.7-2396.5c-70.8-70.8-72.7-149.3-7.7-220.1c61.3-67,164.6-68.9,229.7-1.9c67,65.1,63.2,149.3-7.7,222C7647.4-2323.7,7578.5-2323.7,7505.7-2396.5z"/><path d="M8481.8-2396.5c-68.9-68.9-70.8-134-5.8-210.5c122.5-145.4,333-1.9,264.1,179.9c-15.3,36.4-105.3,86.1-160.8,86.1C8556.4-2341,8512.4-2365.8,8481.8-2396.5z"/><path d="M5048.3-2886.4c-61.2-59.3-61.2-143.5-1.9-212.4c63.2-74.6,170.3-74.6,233.5,0c93.8,107.2,24.9,260.3-116.8,260.3C5115.3-2838.6,5079-2853.9,5048.3-2886.4z"/><path d="M6056.9-2852c-30.6-11.5-80.4-107.2-80.4-156.9c0-55.5,76.6-134,145.4-147.4c84.2-15.3,179.9,67,179.9,156.9C6301.9-2880.7,6175.6-2804.1,6056.9-2852z"/><path d="M7015.8-2880.7c-57.4-65.1-68.9-120.6-36.3-183.7c40.2-78.5,126.3-111,202.9-80.4c70.8,28.7,95.7,70.8,95.7,158.8C7278-2853.9,7103.8-2785,7015.8-2880.7z"/><path d="M7990-2882.6c-26.8-28.7-42.1-68.9-42.1-114.8c0-170.3,218.2-222,296.7-70.8C8326.8-2911.3,8110.5-2754.3,7990-2882.6z"/><path d="M8971.8-2886.4c-70.8-68.9-65.1-164.6,13.4-229.7c72.7-61.3,155-55.5,222,21c49.8,55.5,53.6,103.3,13.4,178C9172.7-2823.3,9048.3-2807.9,8971.8-2886.4z"/><path d="M4604.3-3336.2c-55.5-23-107.2-124.4-89.9-178c23-78.5,86.1-128.2,160.8-128.2c88,0,153.1,63.2,153.1,147.4c0,86.1-17.2,118.7-78.5,149.3C4688.5-3313.2,4665.5-3311.3,4604.3-3336.2z"/><path d="M5584.2-3340c-61.3-32.5-86.1-74.6-86.1-151.2c0-55.5,11.5-80.4,49.8-111c139.7-109.1,327.3,34.5,246.9,189.5C5750.7-3328.5,5660.8-3297.9,5584.2-3340z"/><path d="M6535.4-3364.9c-147.4-124.4-5.7-334.9,178-266c36.4,15.3,86.1,105.3,86.1,158.9c0,55.5-76.6,134-145.4,147.4C6608.1-3317,6583.3-3324.7,6535.4-3364.9z"/><path d="M7505.7-3372.5c-107.2-109.1-44-269.9,107.2-269.9c151.2,0,214.4,160.8,107.2,269.9C7647.4-3299.8,7578.5-3299.8,7505.7-3372.5z"/><path d="M8522-3341.9c-151.2-76.6-101.4-300.5,67-300.5c172.3,0,225.8,222,72.7,302.4C8610-3311.3,8581.3-3311.3,8522-3341.9z"/><path d="M4072.2-3862.5c-90-88-45.9-239.2,80.4-269.8c101.4-26.8,216.3,88,189.5,189.5C4311.5-3816.6,4160.3-3772.5,4072.2-3862.5z"/><path d="M5048.3-3864.4c-28.7-30.6-47.8-74.6-47.8-107.2c0-72.7,91.9-168.4,162.7-168.4c72.7,0,162.7,95.7,162.7,172.2C5325.8-3828,5144-3761.1,5048.3-3864.4z"/><path d="M6026.3-3874c-65.1-76.6-63.2-141.6,5.8-210.5c63.2-61.3,111-68.9,191.4-26.8c143.5,72.7,82.3,296.7-82.3,296.7C6091.4-3814.6,6064.6-3828,6026.3-3874z"/><path d="M7017.7-3860.6c-120.6-101.4-30.6-296.7,124.4-271.7c88,13.4,135.9,72.7,135.9,164.6C7278-3830,7124.9-3766.8,7017.7-3860.6z"/><path d="M7995.7-3862.5c-95.7-93.8-45.9-248.8,88-269.8c155-24.9,245,170.3,124.4,271.7C8139.2-3801.2,8055-3801.2,7995.7-3862.5z"/><path d="M8971.8-3862.5c-90-88-45.9-239.2,80.4-269.8c101.4-26.8,216.3,88,189.5,189.5C9211-3816.6,9059.8-3772.5,8971.8-3862.5z"/></g></g>
</svg>