<?xml version="1.0" encoding="utf-8"?>
<!-- Svg Vector Icons : http://www.onlinewebfonts.com/icon -->
<!DOCTYPE svg PUBLIC "-//W3C//DTD SVG 1.1//EN" "http://www.w3.org/Graphics/SVG/1.1/DTD/svg11.dtd">
<svg version="1.1" xmlns="http://www.w3.org/2000/svg" xmlns:xlink="http://www.w3.org/1999/xlink" x="0px" y="0px" viewBox="0 0 1000 1000" enable-background="new 0 0 1000 1000" xml:space="preserve">
<metadata> Svg Vector Icons : http://www.onlinewebfonts.com/icon </metadata>
<g><path d="M759.3,250.9L208,779.7c-8.2,8.2-8.2,20.4,0,28.6c4.1,4.1,10.2,6.1,14.3,6.1c4.1,0,10.2-2,14.3-6.1l551.3-528.8c8.2-8.2,8.2-20.4,0-28.6C779.7,242.8,767.5,242.8,759.3,250.9z"/><path d="M624.5,524.5l-196,196c-8.2,8.2-8.2,20.4,0,28.6c4.1,4.1,10.2,6.1,14.3,6.1c4.1,0,10.2-2,14.3-6.1l196-196c8.2-8.2,8.2-20.4,0-28.6S632.7,516.3,624.5,524.5z"/><path d="M544.9,367.3c6.1,0,10.2-2,14.3-6.1l196-196c8.2-8.2,8.2-20.4,0-28.6c-8.2-8.2-20.4-8.2-28.6,0l-196,196c-8.2,8.2-8.2,20.4,0,28.6C534.7,365.3,540.8,367.3,544.9,367.3z"/><path d="M990,91.7c0-44.9-36.7-81.7-81.7-81.7H91.7C46.8,10,10,46.8,10,91.7v816.7c0,44.9,36.8,81.7,81.7,81.7h816.7c44.9,0,81.7-36.7,81.7-81.7V91.7z M949.2,908.3c0,22.5-18.4,40.8-40.8,40.8H91.7c-22.5,0-40.8-18.4-40.8-40.8V91.7c0-22.5,18.4-40.8,40.8-40.8h816.7c22.5,0,40.8,18.4,40.8,40.8V908.3z"/></g>
</svg>