<?xml version="1.0" encoding="utf-8"?>
<!-- Svg Vector Icons : http://www.onlinewebfonts.com/icon -->
<!DOCTYPE svg PUBLIC "-//W3C//DTD SVG 1.1//EN" "http://www.w3.org/Graphics/SVG/1.1/DTD/svg11.dtd">
<svg version="1.1" xmlns="http://www.w3.org/2000/svg" xmlns:xlink="http://www.w3.org/1999/xlink" x="0px" y="0px" viewBox="0 0 1000 1000" enable-background="new 0 0 1000 1000" xml:space="preserve">
<metadata> Svg Vector Icons : http://www.onlinewebfonts.com/icon </metadata>
<g><g><path d="M948.8,676.9c0-1-0.7-1.8-0.8-2.7c0.1-0.5,0.6-0.8,0.6-1.4c0-90.4-74.5-163.9-166.1-163.9c-85.9,0-155.8,64.9-164.3,147.5c-12-15.4-29.1-25.6-48.8-25.6h-40.8V59.2c0-29.4-19-49.2-47.2-49.2C453.1,10,434,29.8,434,59.2v571.6h-40.9c-16.6,0-31.5,7.5-43,18.9v-173c0-6.6-5.4-12.1-12.1-12.1H113.5c-6.7,0-12.1,5.5-12.1,12.1v5.7H59v64.2h42.4v1.9c0,6.7,5.4,12,12.1,12h63v20c0,26.7-21.6,48.4-48.1,48.4c-6.7,0-12.1,5.4-12.1,12c0,6.7,5.4,12,12.1,12c39.8,0,72.2-32.5,72.2-72.5v-20h30.7v128.1H124c-40.2,0-72.8,32.9-72.8,73.1v216.3c0,6.7,5.4,12,12.1,12h274.9c0.4,0,0.6-0.4,1-0.4c0.4,0.1,0.6,0.4,0.9,0.4h282.4c6.7,0,12.1-5.5,12.1-12V781.3L668.4,980c1,5.8,6,10,11.8,10h202.4c5.8,0,10.8-4.2,11.9-9.8L948.4,689c0.4-2.2-0.6-4.4-1.3-6.4C947.5,680.7,948.8,678.9,948.8,676.9z M481.2,34.1c8.6,0,23.1,3.2,23.1,25.1v441.7h-46.1V59.2C458.1,37.4,472.6,34.1,481.2,34.1z M458.1,525h46.2v105.8h-46.2V525z M125.5,536.3v-47.6h200.5v144h-70.6v-84.3c0-6.6-5.4-12-12.1-12L125.5,536.3L125.5,536.3z M123.9,712.7h119.4c6.6,0,12.1-5.4,12.1-12v-43.9H326v145.6l-1.1-0.5c-16.3,26.7-43.7,71.3-118.2,28.1c-68.9-40-110.8-28-131.5-15.4v-53C75.3,734.7,97.1,712.7,123.9,712.7z M75.3,965.8V844c1-0.6,2.2-0.6,3-1.7c1.4-1.6,34.1-39.2,116.4,8.5c26.3,15.4,48.5,21.2,67.1,21.2c29.5,0,50-14.8,64.3-30.7v124.4H75.3L75.3,965.8z M610.4,965.8h-45.7V842.3c0-6.6-5.4-12-12.1-12c-6.6,0-12.1,5.4-12.1,12v123.5h-47.3V842.3c0-6.6-5.4-12-12.1-12c-6.6,0-12.1,5.4-12.1,12v123.5h-47.3V842.3c0-6.6-5.4-12-12.1-12c-6.6,0-12.1,5.4-12.1,12v123.5h-45.7V703.1c0-26.6,18.4-48.2,41.1-48.2H434h94.4h40.8c22.7,0,41.1,21.7,41.1,48.2V965.8L610.4,965.8z M906.6,781.8l-0.2-0.1c-8.8,16.4-23.4,43.7-49.2,50.2c-18,4.4-39.9-1.7-65.2-18.4c-68-45.3-109.9-31-130.4-16.8l-15-87.7c35.7,15.4,94.9,20.5,135.9,20.5c41.8,0,102.5-5.4,137.8-21.5L906.6,781.8z M924.6,676.6c-2.4,8.2-48.2,28.6-142.2,28.6c-94,0-139.8-20.5-142.3-28.2c2.5-8.1,48.5-28.7,142.3-28.7C876.3,648.5,922.2,668.9,924.6,676.6z M782.4,533c69.1,0,126.6,49,139.2,113.5c-35.1-16.7-96.8-22.1-139.2-22.1c-42.4,0-104.2,5.5-139.3,22.1C655.7,582,713.3,533,782.4,533z M872.5,965.8H690.3l-24.1-141.9c1.6-2.3,33.2-43.2,112.4,9.5c23.9,15.9,46.3,24,66.7,24c6.1,0,12-0.7,17.8-2.2c13.7-3.5,24.3-11.1,33.5-19.8L872.5,965.8z"/></g><g></g><g></g><g></g><g></g><g></g><g></g><g></g><g></g><g></g><g></g><g></g><g></g><g></g><g></g><g></g></g>
</svg>