<?xml version="1.0" encoding="utf-8"?>
<!-- Svg Vector Icons : http://www.onlinewebfonts.com/icon -->
<!DOCTYPE svg PUBLIC "-//W3C//DTD SVG 1.1//EN" "http://www.w3.org/Graphics/SVG/1.1/DTD/svg11.dtd">
<svg version="1.1" xmlns="http://www.w3.org/2000/svg" xmlns:xlink="http://www.w3.org/1999/xlink" x="0px" y="0px" viewBox="0 0 1000 1000" enable-background="new 0 0 1000 1000" xml:space="preserve">
<metadata> Svg Vector Icons : http://www.onlinewebfonts.com/icon </metadata>
<g><g transform="translate(0.000000,511.000000) scale(0.100000,-0.100000)"><path d="M7489.9,4976.2c-351.8-95.8-654.7-345.2-821.7-677c-86.9-178.1-120.3-322.9-120.3-550v-204.9l-115.8-37.9c-347.4-111.3-610.1-412-694.8-795c-11.1-49-26.7-62.3-71.2-62.3c-71.3,0-164.8-93.5-164.8-167c0-31.2,24.5-82.4,55.7-111.3l53.5-55.7h1111.2h1111.2l46.7,51.2c102.5,109.1,26.7,282.8-122.5,282.8c-64.6,0-69,6.7-82.4,98c-8.9,55.7-44.5,160.3-82.4,231.6c-122.5,249.4-320.7,425.3-581.2,521.1l-129.2,46.8v180.4c0,300.6,80.2,518.8,256.1,692.5c302.9,305.1,857.3,338.5,1200.3,75.7c122.5-95.7,227.1-233.8,287.2-380.8l49-118l6.7-2331.5l4.5-2333.7l-4177.5-4.5l-4177.5-6.7l-42.3-53.4c-62.3-77.9-55.7-189.3,15.6-245c53.4-42.3,89.1-46.7,365.2-46.7h305.1L992-1230c69-915.2,409.7-1761.4,933-2322.6c82.4-84.6,147-162.5,147-169.2c0-8.9-115.8-204.9-256.1-436.5c-140.3-233.8-256.1-443.1-256.1-467.6c0-24.5,20-71.3,46.8-104.7c51.2-64.6,162.6-80.2,224.9-29c20,13.4,138.1,198.2,265,405.3c124.7,209.3,238.3,389.7,251.6,405.3c17.8,20,55.7,11.1,162.6-40.1c75.7-35.6,213.8-84.6,309.5-109.1c164.8-42.3,251.6-44.5,2180-44.5c1928.4,0,2015.3,2.2,2180.1,44.5c95.8,24.5,238.3,75.7,316.2,113.6c77.9,40.1,147,66.8,151.5,62.4c2.2-4.5,118-196,253.8-423.1c138.1-229.4,265-423.1,285-429.8c17.8-6.7,62.4-13.4,98-13.4c71.3,0,155.9,89.1,155.9,162.6c0,24.5-109.1,227.1-245,449.8c-133.6,222.7-249.4,418.7-256.1,436.5c-6.7,17.8,49,95.8,133.6,187.1c507.7,541.1,841.7,1351.7,926.3,2242.4l29,282.8l316.2,6.7c273.9,6.7,322.9,13.3,363,49c60.1,53.5,62.4,169.2,4.4,238.3c-40.1,51.2-57.9,53.4-367.4,60.1l-325.1,8.9v2298.1c0,2529.7,6.7,2418.3-138,2694.4c-98,184.8-367.4,454.3-545.6,545.6C8068.8,5007.3,7750.4,5045.2,7489.9,4976.2z M6951,3172.5c189.3-64.6,360.8-267.2,380.8-447.6l6.7-64.6l-628-6.7l-630.2-4.5v49c2.2,77.9,84.6,242.7,162.6,325.1c73.5,77.9,162.6,131.4,260.5,162.6C6599.1,3214.8,6848.5,3208.1,6951,3172.5z M8685.7-1056.3c0-111.3-53.4-530-91.3-725.9c-193.7-977.6-708.1-1719.1-1358.3-1955.1l-164.8-60.1l-2008.6-6.7c-2175.6-6.7-2142.2-6.7-2413.9,113.6c-189.3,84.6-469.9,311.8-619.1,494.3C1628.9-2697.4,1399.5-2045,1326-1196.6l-15.6,171.5h3687.6C8135.6-1025.1,8685.7-1029.6,8685.7-1056.3z"/></g></g>
</svg>