<?xml version="1.0" encoding="utf-8"?>
<!-- Svg Vector Icons : http://www.onlinewebfonts.com/icon -->
<!DOCTYPE svg PUBLIC "-//W3C//DTD SVG 1.1//EN" "http://www.w3.org/Graphics/SVG/1.1/DTD/svg11.dtd">
<svg version="1.1" xmlns="http://www.w3.org/2000/svg" xmlns:xlink="http://www.w3.org/1999/xlink" x="0px" y="0px" viewBox="0 0 1000 1000" enable-background="new 0 0 1000 1000" xml:space="preserve">
<metadata> Svg Vector Icons : http://www.onlinewebfonts.com/icon </metadata>
<g><g transform="translate(0.000000,511.000000) scale(0.100000,-0.100000)"><path d="M2600.4,4342.5c-293.9-84-531.9-274-669.9-533.9c-124-236-130-287.9-130-1271.8V1651L1166.7,221.3L530.8-1206.4l-10,373.9c-12,427.9-24,465.9-158,505.9c-90,26-166,0-226-82c-34-48-36-128-36-1589.7c0-845.8-2-1649.7,0-1785.7c0-245.9,0-248,58-305.9c42-42,78-58,130-58c162,0,232,86,232,288v132H5000h4479.2v-130c0-152,28-222,102-261.9c94-48,194-36,260,30c58,58,58,60,58,305.9c2,136,0,939.8,0,1785.7c0,1461.7-2,1541.7-36,1589.7c-60,82-136,108-226,82c-134-40-146-78-158-505.9l-10-373.9L8839.3,207.3l-629.9,1413.8l-10,959.8l-10,959.8l-56,140c-96,244-302,471.9-537.9,591.9c-196,100-140,98-2605.5,96C3200.3,4366.5,2670.4,4360.6,2600.4,4342.5z M7389.6,3894.6c116-54,234-160,299.9-274c82-140,92-268,86-1059.8l-6-739.9h-170h-170l-26,190c-44,310-148,477.9-369.9,595.9l-104,54h-619.9h-619.9l-114-56c-124-62-232-168-298-297.9c-34-66-48-134-56-285.9l-12-200h-210h-210l-12,200c-8,152-22,220-56,285.9c-66,130-174,235.9-297.9,297.9l-114,56h-619.9h-619.9l-104-54c-226-120-329.9-287.9-371.9-597.9l-24-188h-170h-170l-6,739.9c-6,749.9,4,911.8,70,1037.8c42,82,184,230,253.9,266c162,86,124,84,2481.6,80l2259.6-4L7389.6,3894.6z M4230.1,2222.9c122-52,130-94,130-621.9c0-513.9-8-559.9-114-607.9c-30-14-250-22-615.9-22h-565.9l-60,50c-34,28-66,76-72,106c-8,30,14,264,48,521.9c52,413.9,64,473.9,104,517.9c26,26,64,56,86,64c22,10,254,18,515.9,18C4054.2,2250.9,4176.1,2244.9,4230.1,2222.9z M6837.7,2224.9c108-54,122-102,183.9-593.9c32-256,52-487.9,46-511.9c-8-26-40-70-72-98l-60-50h-565.9c-365.9,0-585.9,8-615.9,22c-106,48-114,94-114,607.9c0,525.9,10,569.9,126,619.9C5851.8,2258.9,6765.7,2262.9,6837.7,2224.9z M2510.4,1197.1c0-164,8-212,48-290c64-132,186-250,317.9-311.9l114-54h649.9h649.9l114,54c251.9,118,375.9,325.9,375.9,625.9v170h220h220v-170c0-299.9,124-507.9,375.9-625.9l114-54h649.9h649.9l110,52c136,64,244,168,315.9,303.9c48,92,54,126,54,300v194h180h180l749.9-1689.7c411.9-929.8,753.9-1699.7,755.9-1709.7c6-14-1491.7-20-4355.2-20c-4147.2,0-4363.2,2-4349.2,36c6,18,347.9,787.9,755.9,1707.7l743.9,1675.7h180h180V1197.1z M9479.2-2878.1v-429.9H5000H520.8v429.9v429.9H5000h4479.2V-2878.1z"/></g></g>
</svg>