<?xml version="1.0" encoding="utf-8"?>
<!-- Svg Vector Icons : http://www.onlinewebfonts.com/icon -->
<!DOCTYPE svg PUBLIC "-//W3C//DTD SVG 1.1//EN" "http://www.w3.org/Graphics/SVG/1.1/DTD/svg11.dtd">
<svg version="1.1" xmlns="http://www.w3.org/2000/svg" xmlns:xlink="http://www.w3.org/1999/xlink" x="0px" y="0px" viewBox="0 0 1000 1000" enable-background="new 0 0 1000 1000" xml:space="preserve">
<metadata> Svg Vector Icons : http://www.onlinewebfonts.com/icon </metadata>
<g><g><path d="M62.4,224.1v53.4v472.3V831v69.8c0,13.5,10.9,24.4,24.4,24.4c13.5,0,24.4-10.9,24.4-24.4v-45.4h777.6v45.4c0,13.5,10.9,24.4,24.4,24.4c13.5,0,24.4-10.9,24.4-24.4V831v-81.2V277.5v-53.4c30.3-10.3,52.4-38.7,52.4-72.5c0-42.3-34.5-76.8-76.8-76.8c-42.3,0-76.8,34.5-76.8,76.8c0,33.8,22.1,62.2,52.4,72.5v53.4H736.2H263.8H111.2v-53.4c30.4-10.3,52.4-38.7,52.4-72.5c0-42.3-34.5-76.8-76.8-76.8c-42.3,0-76.8,34.5-76.8,76.8C10,185.4,32,213.8,62.4,224.1z M885.2,151.6c0-15.4,12.5-28,28-28c15.5,0,28,12.6,28,28c0,15.4-12.5,28-28,28C897.7,179.6,885.2,167,885.2,151.6z M888.8,806.6H111.2v-56.8h152.6h472.3h152.6L888.8,806.6L888.8,806.6z M888.8,326.3V701H736.1V326.3H888.8z M687.4,701h-163V326.3h163V701z M475.6,326.3V701h-163V326.3H475.6z M263.8,326.3V701H111.2V326.3H263.8z M86.8,123.6c15.4,0,28,12.6,28,28c0,15.4-12.6,28-28,28c-15.5,0-28-12.6-28-28C58.8,136.2,71.3,123.6,86.8,123.6z"/></g><g></g><g></g><g></g><g></g><g></g><g></g><g></g><g></g><g></g><g></g><g></g><g></g><g></g><g></g><g></g></g>
</svg>