<?xml version="1.0" encoding="utf-8"?>
<!-- Svg Vector Icons : http://www.onlinewebfonts.com/icon -->
<!DOCTYPE svg PUBLIC "-//W3C//DTD SVG 1.1//EN" "http://www.w3.org/Graphics/SVG/1.1/DTD/svg11.dtd">
<svg version="1.1" xmlns="http://www.w3.org/2000/svg" xmlns:xlink="http://www.w3.org/1999/xlink" x="0px" y="0px" viewBox="0 0 1000 1000" enable-background="new 0 0 1000 1000" xml:space="preserve">
<metadata> Svg Vector Icons : http://www.onlinewebfonts.com/icon </metadata>
<g><g transform="translate(0.000000,511.000000) scale(0.100000,-0.100000)"><path d="M3204.3,4970.9c-409.4-110.4-756.6-462.3-864.7-871.6c-27.6-112.7-34.5-315.1-34.5-1168.3V1898.3L1576,253.9L844.6-1390.5l-11.5,188.6c-13.8,177.1-18.4,193.2-87.4,255.3c-103.5,92-227.7,92-331.2,0l-75.9-66.7v-1821.5v-1821.5l75.9-66.7c52.9-48.3,96.6-66.7,161-66.7c167.9,0,257.6,124.2,257.6,356.5v126.5h4160.4H9154l9.2-174.8c6.9-163.3,13.8-179.4,82.8-241.5c131.1-117.3,326.6-75.9,393.3,87.4c18.4,48.3,25.3,533.6,20.7,1842.2l-6.9,1780.1l-75.9,66.7c-103.5,92-227.7,92-331.2,0c-69-62.1-73.6-78.2-87.4-255.3l-11.5-188.6L8418,253.9l-731.4,1644.4v1032.6c0,853.2-6.9,1055.6-34.5,1168.3c-108.1,416.3-457.7,765.8-873.9,873.9C6580.5,5023.8,3395.2,5021.5,3204.3,4970.9z M6778.3,4455.7c147.2-71.3,285.2-209.3,356.5-356.5l57.5-115l6.9-959l6.9-961.3h-195.5c-225.4,0-200.1-29.9-241.5,287.5c-32.2,241.5-115,404.8-271.4,531.3c-207,170.2-209.3,170.2-1501.8,170.2c-1292.5,0-1294.8,0-1501.8-170.2c-156.4-126.5-239.2-289.8-271.4-531.3c-41.4-317.4-16.1-287.5-241.5-287.5h-195.5l6.9,961.3l6.9,959l62.1,117.3c34.5,64.4,87.4,147.2,119.6,186.3c62.1,73.6,257.6,188.6,368,216.2c39.1,9.2,800.4,13.8,1692.7,13.8l1621.4-4.6L6778.3,4455.7z M6134.3,2537.6c50.6-23,92-62.1,112.7-110.4c43.7-94.3,163.3-1076.3,142.6-1159.1c-9.2-32.2-43.7-85.1-75.9-115l-59.8-55.2h-1258h-1258l-59.8,55.2c-32.2,29.9-66.7,82.8-75.9,115c-20.7,82.8,98.9,1064.8,142.6,1159.1c59.8,140.3,69,140.3,1246.5,142.6C5867.5,2569.8,6069.9,2562.9,6134.3,2537.6z M3121.5,1557.9c-6.9-11.5-13.8-105.8-13.8-207c0-315.1,135.7-535.9,411.7-671.6l154.1-75.9h1322.4h1322.4l126.5,59.8c170.2,78.2,276,174.8,358.8,324.3c62.1,112.7,66.7,140.3,66.7,356.5v236.9h209.3h209.3l857.9-1925c471.5-1060.2,862.4-1945.7,867-1966.4c11.5-39.1-190.9-41.4-4017.8-41.4c-3826.9,0-4029.3,2.3-4020.1,41.4c6.9,20.7,397.9,906.2,869.3,1966.4l855.5,1925h218.5C3054.8,1580.9,3130.7,1571.7,3121.5,1557.9z M9158.6-3329.3v-494.5H4995.9H833.1v494.5v494.5h4162.7h4162.7V-3329.3z"/></g></g>
</svg>