<?xml version="1.0" encoding="utf-8"?>
<!-- Svg Vector Icons : http://www.onlinewebfonts.com/icon -->
<!DOCTYPE svg PUBLIC "-//W3C//DTD SVG 1.1//EN" "http://www.w3.org/Graphics/SVG/1.1/DTD/svg11.dtd">
<svg version="1.1" xmlns="http://www.w3.org/2000/svg" xmlns:xlink="http://www.w3.org/1999/xlink" x="0px" y="0px" viewBox="0 0 1000 1000" enable-background="new 0 0 1000 1000" xml:space="preserve">
<metadata> Svg Vector Icons : http://www.onlinewebfonts.com/icon </metadata>
<g><g transform="translate(0.000000,511.000000) scale(0.100000,-0.100000)"><path d="M2419.8,4872c-375.1-120-635.5-472.1-635.5-854.9v-148l-94.4-30.6c-158.2-48.5-354.7-199.1-454.3-342c-114.8-165.9-165.9-334.3-165.9-541v-158.2l-127.6-81.7C390.9,2360.7,368,1564.4,901.4,1197c222-150.6,306.2-165.9,990.2-165.9H2499v-1225v-1225h-178.6h-178.6v265.4c0,148-12.8,298.6-28.1,339.4c-30.6,81.7-655.9,926.4-686.5,926.4S771.2-732.4,740.6-814.1c-15.3-40.8-28.1-191.4-28.1-339.4v-265.4H406.2H100v-204.2v-204.2h306.2h306.2v-510.4v-510.4H406.2H100v-204.2v-204.2h306.2h306.2V-3971v-714.6h714.6h714.6v714.6v714.6l479.8-5.1l477.2-7.7l7.7-709.5l5.1-706.9h701.8h701.8v714.6v714.6H5000h484.9V-3971v-714.6h714.6h714.6v714.6v714.6h472.1h472.1V-3971v-714.6h714.6h714.6v714.6v714.6h306.3H9900v204.2v204.2h-306.3h-306.3v510.4v510.4h306.3H9900v204.2v204.2h-306.3h-306.3v265.4c0,148-10.2,296.1-25.5,331.8c-12.8,35.7-173.5,265.4-359.8,513l-336.9,446.6l-347.1-464.5l-347.1-464.5l-7.7-313.9l-10.2-313.9h-214.4h-214.4v1314.3v1314.3h454.3c561.5,0,643.1,23,849.8,227.1c158.2,158.2,227.1,316.5,227.1,510.4c0,242.5-122.5,482.3-316.5,617.6c-109.7,79.1-112.3,81.7-122.5,252.7c-10.2,125-33.2,206.7-79.1,288.4c-81.7,140.4-239.9,283.3-357.3,324.1c-81.7,30.6-89.3,43.4-102.1,168.4c-28.1,275.6-178.6,497.7-421.1,615.1c-196.5,94.4-464.5,99.5-655.9,7.7c-242.5-120-377.7-306.3-428.8-599.7c-25.5-145.5-33.2-160.8-107.2-188.8c-227.1-81.7-418.6-357.3-441.5-632.9c-10.2-150.6-17.9-163.3-112.3-227.1c-395.6-275.6-426.2-847.3-66.3-1171.4c183.8-165.9,296-191.4,829.4-191.4h441.5V-104.6v-1314.3h-63.8h-63.8v296c0,173.5-12.8,316.5-30.6,349.6c-43.4,84.2-653.3,888.1-671.2,888.1c-25.5,0-650.8-839.6-676.3-911.1c-15.3-35.7-25.5-191.4-25.5-344.5v-278.2h-482.3h-482.3L4510-1105l-7.7,313.9l-347.1,464.5l-347.1,464.5l-342-451.7l-342-454.3l-7.7-324.1l-10.2-326.7h-99.5h-99.5v1222.4v1225l658.4,7.7c612.5,7.7,663.5,12.8,778.4,63.8c183.8,86.8,382.8,288.4,467,474.7c181.2,398.1,25.5,913.7-336.9,1128l-130.2,76.6l-15.3,216.9c-7.7,137.8-30.6,260.3-66.4,339.4c-79.1,183.8-283.3,382.8-474.7,467l-160.8,68.9l-10.2,186.3c-23,347.1-211.8,622.7-530.8,770.7C2912.4,4910.2,2601,4930.6,2419.8,4872z M2914.9,4466.2c99.5-43.4,234.8-181.2,270.5-278.2c56.1-145.5,33.2-301.2-74-525.7c-56.2-114.8-102.1-211.8-102.1-214.4c0-5.1,104.6,5.1,229.7,17.9c265.4,25.5,385.4,2.6,513-104.6c194-163.3,224.6-405.8,89.3-689.1c-86.8-178.7-86.8-181.2-33.2-196.5c30.6-7.7,91.9-15.3,132.7-15.3c229.7,0,461.9-168.4,523.2-375.2c68.9-227.1-51-500.2-262.9-597.2c-102.1-43.4-186.3-48.5-1505.7-48.5c-1324.5,0-1403.6,2.6-1493,48.5c-120,61.3-196.5,142.9-247.6,262.9c-127.6,308.8,79.1,653.3,421.1,696.7c63.8,7.6,153.1,20.4,196.5,28.1l84.2,12.8l-89.3,176.1c-142.9,283.3-112.3,528.3,89.3,696.7c125,104.6,239.9,130.2,507.9,102.1c127.6-12.8,232.2-17.9,232.2-15.3c0,5.1-45.9,99.5-102.1,211.8c-112.3,222-132.7,387.9-66.4,543.6c43.4,102.1,155.7,219.5,257.8,262.9C2588.3,4509.6,2810.3,4512.1,2914.9,4466.2z M7368.3,3853.7c120-61.3,188.9-158.2,201.6-275.6c10.2-89.3-7.6-148-91.9-321.6c-97-199.1-99.5-209.3-45.9-199.1c186.3,40.8,400.7,40.8,487.5,5.1c199.1-84.2,247.5-316.5,117.4-576.8l-76.6-150.6l148-15.3c79.1-7.6,188.9-33.2,242.5-56.2c181.2-76.6,252.7-311.3,145.5-484.9c-97-160.8-89.3-160.8-1281.2-160.8c-1010.6,0-1084.6,2.6-1158.6,48.5c-89.3,53.6-163.3,191.4-163.3,301.2c0,86.8,79.1,219.5,163.3,275.6c33.2,23,140.4,53.6,234.8,66.4c94.4,12.8,176.1,28.1,183.8,33.2c5.1,5.1-25.5,79.1-68.9,165.9c-91.9,181.2-99.5,306.2-28.1,423.6c86.8,140.4,193.9,173.5,454.3,145.5c122.5-12.8,224.6-20.4,229.7-17.9c2.6,2.6-40.8,104.6-99.5,224.6c-84.2,178.6-102.1,237.3-89.3,308.8C6916.6,3817.9,7174.4,3953.2,7368.3,3853.7z M1593-752.8l140.4-191.4v-237.3v-237.3h-306.3h-306.3v237.3v237.3l145.5,196.5c81.7,109.7,155.7,194,165.9,191.4C1442.4-561.4,1513.9-648.2,1593-752.8z M3963.9-742.6l142.9-188.9v-245v-242.5h-306.2h-306.3v232.2v234.8l148,199.1c79.1,109.7,153.1,199.1,160.8,201.6C3813.3-551.2,3884.7-638,3963.9-742.6z M6352.6-752.8L6505.7-957v-229.7v-232.2h-306.3h-306.3v247.6v245l140.4,188.9c79.1,102.1,145.5,186.3,153.1,186.3C6191.8-551.2,6265.8-643.1,6352.6-752.8z M8733.7-752.8l145.5-199.1v-234.8v-232.2h-306.3h-306.3v237.3v237.3l145.5,196.5c79.1,107.2,153.1,196.5,160.8,196.5C8580.6-553.8,8652-643.1,8733.7-752.8z M1733.3-2337.7v-510.4h-306.3h-306.3v510.4v510.4h306.3h306.3V-2337.7z M3106.3-2342.8l5.1-505.3h-484.9h-484.9v510.4v510.4l479.8-5.1l477.2-7.7L3106.3-2342.8z M4106.8-2337.7v-510.4h-306.2h-306.3v492.5c0,273.1,7.7,502.8,17.9,510.4c7.7,10.2,145.5,17.9,306.3,17.9h288.4V-2337.7z M5484.9-2337.7v-510.4H5000h-484.9v510.4v510.4H5000h484.9V-2337.7z M6505.7-2337.7v-510.4h-306.3h-306.3v510.4v510.4h306.3h306.3V-2337.7z M7858.3-2337.7v-510.4h-467h-469.6l-15.3,487.4c-10.2,268-12.8,497.7-2.6,510.4c7.7,12.8,224.6,23,484.9,23h469.6V-2337.7z M8879.2-2337.7v-510.4h-306.3h-306.3v510.4v510.4h306.3h306.3V-2337.7z M1733.3-3766.8v-510.4h-306.3h-306.3v510.4v510.4h306.3h306.3V-3766.8z M4111.9-3338.1c5.1-45.9,15.3-275.6,17.9-510.4l7.7-428.7h-321.6h-321.6v492.5c0,273.1,7.7,502.8,17.9,510.4c7.7,10.2,145.5,17.9,301.1,17.9h285.8L4111.9-3338.1z M6505.7-3766.8v-510.4h-306.3h-306.3v510.4v510.4h306.3h306.3V-3766.8z M8879.2-3766.8v-510.4h-306.3h-306.3v510.4v510.4h306.3h306.3V-3766.8z"/></g></g>
</svg>