<?xml version="1.0" encoding="utf-8"?>
<!-- Svg Vector Icons : http://www.onlinewebfonts.com/icon -->
<!DOCTYPE svg PUBLIC "-//W3C//DTD SVG 1.1//EN" "http://www.w3.org/Graphics/SVG/1.1/DTD/svg11.dtd">
<svg version="1.1" xmlns="http://www.w3.org/2000/svg" xmlns:xlink="http://www.w3.org/1999/xlink" x="0px" y="0px" viewBox="0 0 1000 1000" enable-background="new 0 0 1000 1000" xml:space="preserve">
<metadata> Svg Vector Icons : http://www.onlinewebfonts.com/icon </metadata>
<g><g transform="translate(0.000000,511.000000) scale(0.100000,-0.100000)"><path d="M2218.8,4390.7C1100.7,4062.3,168.1,3771.5,143,3749c-60.2-55.1-57.7-180.5,10-391.1c67.7-220.6,233.1-411.2,426.2-493.9c230.6-100.3,348.5-85.2,1105.5,135.4c368.5,110.3,674.4,193,679.4,188c7.5-5,513.9-1769.9,1130.6-3920.8C4718.2-5010.2,4643-4782.1,4821-4747c92.8,17.5,165.5,97.8,165.5,183c0,35.1-288.3,1067.9-641.8,2296.3c-351,1230.9-854.9,2983.2-1118.1,3898.3c-260.7,915-468.8,1669.6-461.3,1677.1c7.5,7.5,315.9,102.8,684.4,213.1c368.5,110.3,706.9,220.6,752.1,248.2c110.3,67.7,230.6,210.6,288.3,340.9c77.7,178,85.2,330.9,20,571.6c-60.2,220.6-95.3,275.8-200.6,298.3C4269.4,4989.9,3539.9,4784.3,2218.8,4390.7z M4159.1,4410.8c0-117.8-65.2-245.7-155.4-303.3C3926,4057.3,962.8,3189.9,870,3189.9c-135.4,0-320.9,142.9-320.9,248.2c0,32.6,373.5,150.4,1787.4,569.1c980.2,290.8,1792.5,523.9,1805,518.9C4151.6,4521.1,4159.1,4468.4,4159.1,4410.8z"/><path d="M5783.6,3453.1c-418.6-80.2-772.1-263.2-1025.3-531.5c-87.7-95.3-193-238.2-230.6-315.9c-80.2-168-142.9-423.7-142.9-604.2c0-105.3-12.5-135.4-90.3-220.6c-135.4-150.4-185.5-278.3-185.5-483.8c0-270.7,122.8-486.3,335.9-594.1c60.2-32.6,87.7-80.2,168-310.8c137.9-391.1,346-792.2,534-1030.4c90.2-112.8,155.4-210.6,145.4-215.6c-10-7.5-67.7-20-130.4-30.1c-333.4-55.2-902.5-265.7-902.5-333.4c0-25.1,22.6-110.3,47.6-193c35.1-110.3,57.7-147.9,87.7-142.9c32.6,5,40.1-17.5,40.1-132.9c0-100.3,50.1-313.4,173-734.5c95.3-325.9,198-686.9,230.6-799.7l60.2-208.1h1649.6h1647.1l-5-443.7l-7.5-446.2l-1509.2-7.5c-1188.3-5-1511.7-12.5-1511.7-37.6c0-17.5,10-67.7,22.6-112.8c15-45.1,15-112.8,2.5-155.4l-22.5-75.2h2369H9900v599.2c0,774.6-52.6,1065.4-275.8,1506.7c-183,361-526.5,764.6-887.5,1037.9c-446.2,338.4-1105.5,621.7-1632,701.9c-40.1,5-80.2,12.5-85.3,12.5c-5,2.5,37.6,52.6,95.3,115.3c218.1,235.7,378.5,524,576.6,1032.9c135.4,343.5,142.9,358.5,263.2,438.7c82.7,55.2,150.4,127.8,200.6,220.6c67.7,120.3,77.7,163,77.7,325.9c0,213.1-52.6,356-185.5,506.4c-70.2,82.7-77.7,105.3-77.7,263.2c0,363.5-125.3,661.8-386.1,925.1c-315.9,315.9-754.6,483.8-1318.6,501.4C6079.5,3485.7,5906.5,3475.7,5783.6,3453.1z M6834,2994.4c426.2-157.9,676.9-423.7,732-779.6c25.1-152.9,10-160.4-208.1-137.9c-554,57.7-962.6,310.8-1160.7,727c-105.3,218.1-173,265.7-300.8,220.6c-70.2-22.6-77.7-35.1-198-295.8c-85.2-188-278.3-381.1-498.9-496.4c-188-97.8-378.6-162.9-403.6-137.9c-10,7.5,7.5,92.8,37.6,190.5c90.3,298.3,320.9,534,654.3,669.4c273.3,110.3,431.2,135.4,802.2,125.3C6593.4,3072.1,6648.5,3064.6,6834,2994.4z M6124.6,2207.2c325.9-323.4,797.2-518.9,1250.9-521.4c127.9,0,173-10,185.5-37.6c7.5-22.5,52.6-55.2,97.8-75.2c95.3-37.6,185.5-168,185.5-263.2c0-35.1-20-102.8-45.1-150.4c-32.6-70.2-67.7-95.3-165.5-127.8l-125.3-37.6l-105.3-318.4c-258.2-772.1-584.1-1271-900-1371.3c-125.3-42.6-516.4-42.6-661.8-2.5c-300.8,85.2-649.3,611.7-905,1378.8L4826,1006.4l-95.3,15c-180.5,32.6-275.8,240.7-193,423.7c42.6,92.8,258.2,225.6,473.8,288.3c313.4,95.3,564.1,240.7,764.6,443.7c95.3,100.3,178,183,183,183C5964.1,2362.6,6036.8,2292.4,6124.6,2207.2z M5653.3-1051.8c102.8-47.6,180.5-57.7,473.8-65.2c351-10,428.7,2.5,671.9,107.8c27.6,10-60.2-142.9-203.1-358.5c-208.1-313.4-265.8-421.2-333.4-629.2l-82.7-253.2l-90.3,255.7c-70.2,203-140.4,335.9-330.9,629.2c-135.4,203.1-240.7,368.5-235.6,368.5S5585.6-1021.7,5653.3-1051.8z M5427.7-1580.8c193-290.8,210.6-330.9,376-827.3l173-521.4l198.1,7.5l198,7.5l168,501.4c157.9,468.8,180.5,521.4,376,822.3c233.1,358.5,185.5,333.4,471.3,253.2l130.4-37.6V-2200v-827.3H6177.2H4836v824.8v824.8l120.3,40.1c120.4,37.6,198.1,57.7,243.2,62.7C5214.6-1274.9,5314.9-1412.8,5427.7-1580.8z M8090-1620.9c604.2-308.4,1113.1-885,1303.6-1481.6c82.7-258.2,105.3-433.7,105.3-844.8v-383.6h-451.3h-451.2v651.8v651.8H8258h-338.4v739.5c0,406.1,5,739.5,12.5,739.5C7939.6-1548.2,8009.8-1580.8,8090-1620.9z"/><path d="M3306.8-1839c-230.6-223.1-436.2-503.9-574.1-777.1c-225.6-448.7-278.3-734.5-278.3-1516.7v-574.1h977.7c539,0,977.7,7.5,977.7,20.1c0,10-20,90.3-45.1,180.5c-42.6,142.9-55.2,162.9-112.8,170.5l-67.7,7.5v243.2c0,213.1-15,290.8-115.3,649.3l-117.8,408.6h-82.7h-85.2v-651.8v-651.8h-463.8h-463.8v383.6c0,210.6,12.5,451.2,27.6,534c80.2,453.8,303.3,882.5,651.8,1251l117.8,125.3l-52.6,195.5c-30.1,105.3-65.2,193-77.7,193C3512.4-1648.4,3414.6-1733.7,3306.8-1839z"/></g></g>
</svg>