<?xml version="1.0" encoding="utf-8"?>
<!-- Svg Vector Icons : http://www.onlinewebfonts.com/icon -->
<!DOCTYPE svg PUBLIC "-//W3C//DTD SVG 1.1//EN" "http://www.w3.org/Graphics/SVG/1.1/DTD/svg11.dtd">
<svg version="1.1" xmlns="http://www.w3.org/2000/svg" xmlns:xlink="http://www.w3.org/1999/xlink" x="0px" y="0px" viewBox="0 0 1000 1000" enable-background="new 0 0 1000 1000" xml:space="preserve">
<metadata> Svg Vector Icons : http://www.onlinewebfonts.com/icon </metadata>
<g><g><path d="M972.6,861.9h-61.9V107.8c0-9.5-7.7-17.3-17.3-17.3c-9.5,0-17.3,7.7-17.3,17.3v150.9H540.7l10.3-50.1c0.9-4.7-2.1-9.2-6.7-10.2c-4.7-0.9-9.2,2-10.2,6.7l-11,53.6h-45.5l-6.5-53.4c-0.6-4.7-4.9-8.2-9.6-7.5c-4.7,0.6-8.1,4.9-7.5,9.6l6.3,51.3H123.7V107.8c0-9.5-7.7-17.3-17.3-17.3s-17.3,7.7-17.3,17.3v761c0,2.2,0.5,4.2,1.2,6.1H27.3c-9.5,0-17.3,7.7-17.3,17.3c0,9.6,7.7,17.3,17.3,17.3h158.4c9.5,0,17.3-7.7,17.3-17.3c0-9.5-7.7-17.3-17.3-17.3h-63.2c0.7-1.9,1.2-4,1.2-6.1V293.3h289.6l0,178.7L366,422.2c-6.9-7.3-19.2-7-25.8,0.5l-40.8,46.6c-6.5,7.4-6.2,18.8,0.6,25.9l98.2,101.5c5.4,5.5,14.9,9.6,22.6,9.6h33.5c9.5,0,17.6-7.4,19-17.1c4.1-29.3,23-65.1,39.1-65.1c16.1,0,34.9,35.8,39.1,65.2c1.4,9.7,9.5,17,19,17h21.8c7.7,0,17.3-4,22.6-9.6L713,495.2c6.9-7.1,7.2-18.5,0.7-25.9l-40.8-46.6c-6.6-7.5-18.9-7.7-25.8-0.5L599.6,472V293.3h276.7v568.6h-62c-9.6,0-17.3,7.7-17.3,17.3c0,9.5,7.7,17.3,17.3,17.3h158.4c9.5,0,17.3-7.7,17.3-17.3C989.9,869.6,982.2,861.9,972.6,861.9z M603.8,492.6l55.9-58.5l40.8,46.6c0.5,0.6,0.5,1.9-0.1,2.5l-98.2,101.5c-2.1,2.1-7.2,4.3-10.2,4.3h-21.8c-0.8,0-1.7-1.1-1.9-2.2c-4-27.9-24.5-80-56.2-80c-31.7,0-52.2,52.1-56.2,80c-0.2,1.1-1.1,2.2-1.9,2.2h-33.5c-3,0-8.1-2.2-10.2-4.3l-98.2-101.5c-0.6-0.6-0.6-1.9-0.1-2.5l41.1-46.6l55.6,58.5c3.9,4.1,7.7,5,10.2,5c5.5,0,11.4-4.2,11.4-13.6l1-190.7h150.6V484c0,3.1,0.6,5.8,1.9,8c2,3.5,5.6,5.5,9.5,5.5C596.2,497.5,600,496.7,603.8,492.6z"/></g><g></g><g></g><g></g><g></g><g></g><g></g><g></g><g></g><g></g><g></g><g></g><g></g><g></g><g></g><g></g></g>
</svg>