<?xml version="1.0" encoding="utf-8"?>
<!-- Svg Vector Icons : http://www.onlinewebfonts.com/icon -->
<!DOCTYPE svg PUBLIC "-//W3C//DTD SVG 1.1//EN" "http://www.w3.org/Graphics/SVG/1.1/DTD/svg11.dtd">
<svg version="1.1" xmlns="http://www.w3.org/2000/svg" xmlns:xlink="http://www.w3.org/1999/xlink" x="0px" y="0px" viewBox="0 0 1000 1000" enable-background="new 0 0 1000 1000" xml:space="preserve">
<metadata> Svg Vector Icons : http://www.onlinewebfonts.com/icon </metadata>
<g><g transform="translate(0.000000,511.000000) scale(0.100000,-0.100000)"><path d="M3342,4986.5c-69.6-41.3-91.3-82.6-119.5-243.4c-39.1-213-34.8-578.2,8.7-762.9c126.1-532.5,513-947.7,1112.8-1197.6c180.4-73.9,567.3-182.6,654.2-182.6c52.2,0,102.1-58.7,241.2-282.6l86.9-141.3l-63-239.1c-32.6-130.4-60.9-265.2-63-297.8c-2.2-136.9,150-126.1-1830.1-126.1c-1706.2,0-1801.9-2.2-1791-37c6.5-21.7,84.8-371.7,173.9-778.1c91.3-406.5,169.5-760.7,176-786.8c10.9-45.6,26.1-47.8,213-54.3l200-6.5l167.4-2238.7c91.3-1230.2,167.4-2275.7,167.4-2319.2l2.2-82.6h2312.6h2314.8l13,113c6.5,63,80.4,1049.8,163,2190.9c84.8,1141.1,158.7,2136.6,165.2,2212.6l13.1,134.8h200h197.8l171.7,778.1c95.6,426,176,797.7,182.6,825.9l8.7,47.8H6982.6H5543.7l15.2,93.5c56.5,360.8,210.8,749.9,367.3,915c71.7,76.1,108.7,97.8,191.3,108.7c267.3,39.1,719.4,241.3,971.6,434.7c430.4,330.4,723.8,902,771.6,1501.9c23.9,302.1-41.3,347.8-476,330.4c-304.3-13-528.2-67.4-745.5-176.1c-547.7-276-893.3-897.7-958.5-1721.4c-15.2-206.5-21.7-223.9-95.6-321.7l-78.2-104.3l-95.6,150c-86.9,134.8-97.8,167.4-123.9,365.1c-121.7,978.1-704.2,1643.2-1647.5,1880.1C3446.3,5019.1,3402.8,5021.3,3342,4986.5z M3913.6,4499.6c428.2-189.1,760.7-560.8,915.1-1021.6c65.2-195.6,119.5-463,97.8-484.7c-19.6-19.6-293.4,60.9-471.6,139.1c-254.3,108.7-399.9,202.1-558.6,358.6c-241.3,239.1-347.8,499.9-347.8,860.7c0,276,0,273.9,136.9,232.6C3746.2,4567,3848.4,4527.9,3913.6,4499.6z M7491.2,4464.8c-123.9-708.6-560.8-1208.5-1245.4-1428c-206.5-67.4-206.5-67.4-191.3,80.4c23.9,213,97.8,463,202.1,678.1c82.6,167.4,134.8,236.9,267.4,369.5c91.3,91.3,215.2,191.3,278.2,223.9c150,80.4,397.8,143.5,565.1,143.5l136.9,2.2L7491.2,4464.8z M7960.7,1113.3c0-17.4-19.6-113-41.3-213c-23.9-100-67.4-293.4-100-432.5l-56.5-252.1H5002.5c-1517.1,0-2762.5,6.5-2769.1,15.2c-6.5,10.9-206.5,884.6-206.5,906.4c0,4.3,1334.5,6.5,2966.9,6.5C7543.3,1143.7,7960.7,1139.4,7960.7,1113.3z M7286.9-208.2c0-28.3-69.6-969.4-152.1-2093.1C7050-3425,6982.6-4361.8,6982.6-4381.4c0-37-106.5-39.1-1977.9-39.1H3026.8l-8.7,50c-6.5,26.1-73.9,943.3-152.1,2036.6c-80.4,1093.3-150,2030.1-156.5,2082.2l-10.9,91.3h2293.1h2295.2V-208.2z"/></g></g>
</svg>