<?xml version="1.0" encoding="utf-8"?>
<!-- Svg Vector Icons : http://www.onlinewebfonts.com/icon -->
<!DOCTYPE svg PUBLIC "-//W3C//DTD SVG 1.1//EN" "http://www.w3.org/Graphics/SVG/1.1/DTD/svg11.dtd">
<svg version="1.1" xmlns="http://www.w3.org/2000/svg" xmlns:xlink="http://www.w3.org/1999/xlink" x="0px" y="0px" viewBox="0 0 1000 1000" enable-background="new 0 0 1000 1000" xml:space="preserve">
<metadata> Svg Vector Icons : http://www.onlinewebfonts.com/icon </metadata>
<g><g transform="translate(0.000000,512.000000) scale(0.100000,-0.100000)"><path d="M6083.4,5011.5c-86.3-36.4-109.3-88.2-124.6-289.4c-13.4-170.6-24.9-212.8-93.9-356.5c-42.2-90.1-155.3-281.7-249.2-425.5c-93.9-143.8-205.1-320.1-249.2-391c-203.2-333.5-343.1-693.8-387.2-992.8c-30.7-216.6-11.5-655.5,36.4-833.7c176.3-644,640.2-992.8,1316.7-989c116.9,0,270.2,13.4,345,28.8c72.8,15.3,138,24.9,141.8,21.1c9.6-11.5-82.4-377.6-155.3-615.3l-57.5-193.6l-132.2-9.6c-157.2-11.5-366.1-103.5-498.3-222.3l-88.2-78.6l-101.6,38.3c-295.2,111.2-645.9,42.2-852.9-172.5l-90.1-92l-157.2-9.6C4448.5-587.1,4241.5-698.3,4138-865l-42.2-67.1l-88.2,78.6C3724-604.4,3281.2-472.1,2727.3-472.1c-302.8,0-550.1-40.3-783.9-124.6c-343.1-126.5-1259.3-527.1-1663.7-730.3c-153.3-78.6-199.3-147.6-172.5-256.8c23-90.1,124.6-159.1,207-141.8c30.7,5.7,222.3,86.2,421.7,180.2c672.8,312.4,1219,544.3,1437.5,611.4c207,65.2,504.1,88.2,772.4,63.3c281.7-26.8,412.1-61.3,609.5-157.2c134.2-65.2,191.7-111.2,406.3-323.9c281.7-279.8,364.2-329.7,747.5-450.4c419.7-132.2,824.2-205.1,1320.6-239.6c346.9-24.9,507.9-97.7,534.7-243.4c19.2-103.5-23-193.6-113.1-245.3c-143.8-84.3-251.1-92-1144.2-82.4c-904.7,7.7-941.1,11.5-1473.9,138c-245.3,59.4-302.8,49.8-368-55.6c-44.1-70.9-46-111.2-7.7-182.1c38.3-74.7,115-107.3,414-172.5c553.9-122.7,599.9-126.5,1531.4-126.5c747.5,0,868.3,3.8,983.3,32.6c153.3,40.2,262.6,93.9,368,178.3C6873-2705,8578.9-1560.8,8720.7-1482.2c262.6,145.7,542.4,203.2,667,139.9c189.7-99.7,141.8-316.3-120.8-534.7c-134.2-111.2-2386.2-1610-3049.4-2029.8c-726.4-458.1-783.9-484.9-1092.5-471.5c-302.8,13.4-285.6,5.7-1772.9,772.4c-803.1,414-923.8,461.9-1138.5,444.7c-168.7-13.4-335.4-95.8-745.6-366.1c-228.1-149.5-289.4-199.3-312.4-253c-34.5-82.4-19.2-141.8,49.8-208.9c97.7-93.9,153.3-78.6,504.1,149.5c402.5,260.7,446.6,281.8,578.8,281.8c99.7,0,141.8-17.3,552-228.1c245.3-124.6,718.8-366.1,1052.3-536.7c335.4-172.5,680.4-335.4,766.7-366.1c446.6-151.4,805-118.8,1213.2,111.2c360.3,203.2,1602.3,1010.1,2922.9,1897.5c724.5,488.8,895.1,624.8,1006.3,816.5c235.7,402.5,30.7,843.3-435.1,931.5c-161,30.7-415.9-15.3-668.9-122.7c-24.9-11.5-40.3,5.7-67.1,78.6c-157.2,425.5-603.8,661.2-1052.3,553.9l-95.8-23l-116.9,118.8c-72.9,72.8-162.9,139.9-241.5,178.2l-124.6,61.3l55.6,185.9c30.7,101.6,86.3,320.1,124.6,483c36.4,162.9,70.9,299,72.8,302.8c1.9,1.9,42.2-9.6,88.2-26.8c109.2-40.3,360.4-40.3,488.7-1.9c210.8,63.3,465.8,230,594.2,391c157.2,193.6,258.7,460,297.1,764.7c42.2,346.9-38.3,739.8-233.8,1128.9c-241.5,483-661.3,929.6-1232.4,1311c-253,170.6-406.3,256.8-730.2,419.8C6250.1,5009.6,6150.4,5040.2,6083.4,5011.5z M6865.4,4235.2c603.8-373.7,1033.1-801.2,1268.8-1266.9c124.6-243.4,184-460,195.5-709.2c23-458.1-151.4-806.9-484.9-977.5c-95.8-49.8-134.2-57.5-256.8-57.5c-97.7,0-162.9,11.5-205.1,32.6l-59.4,34.5l9.6,415.9c17.2,657.4-42.2,1054.2-249.2,1673.2c-93.9,283.7-130.3,366.1-178.2,417.8c-82.4,82.4-178.3,86.3-258.8,5.8c-76.7-76.7-72.9-161,13.4-396.8c239.6-657.4,323.9-1207.5,279.8-1818.9c-13.4-176.3-28.8-327.7-34.5-337.3c-3.8-9.6-80.5-40.2-166.8-67.1c-136.1-46-189.8-53.7-396.7-53.7c-203.2-1.9-258.8,5.7-368,42.2c-224.2,78.6-387.1,212.7-483,404.4c-126.5,245.3-174.4,624.8-118.8,935.3c65.2,373.8,178.2,611.4,582.7,1228.6c182.1,279.8,289.4,483,348.8,661.2l42.2,128.4l164.8-90.1C6602.8,4392.4,6761.9,4298.5,6865.4,4235.2z M6813.6-454.9c139.9-26.8,262.6-111.2,325.8-222.3c67.1-118.8,134.2-191.7,191.7-205.1c24.9-7.7,107.3,9.6,191.7,36.4c287.5,93.9,507.9,55.6,649.8-111.2c67.1-78.6,136.1-260.7,118.8-308.6c-7.7-21.1-1270.7-881.7-1328.2-904.7c-11.5-5.7-32.6,26.8-46,70.9c-36.4,109.2-166.8,247.3-302.8,320.1c-153.3,82.4-316.3,116.9-642.1,138c-149.5,7.7-354.6,30.7-454.3,47.9c-341.2,57.5-833.7,195.5-998.6,279.8c-103.5,51.7-113.1,72.8-84.3,161c53.7,153.3,180.2,210.8,427.4,189.7c182.1-15.3,228.1,7.7,304.7,147.6c63.2,118.8,162.9,170.6,318.2,170.6c128.4,0,222.4-34.5,312.4-115c69-59.4,151.4-74.8,220.4-38.3c19.2,11.5,70.9,67.1,113.1,124.6c82.4,111.2,182.1,187.8,300.9,231.9C6506.9-414.6,6625.8-418.4,6813.6-454.9z"/></g></g>
</svg>