<?xml version="1.0" encoding="utf-8"?>
<!-- Svg Vector Icons : http://www.onlinewebfonts.com/icon -->
<!DOCTYPE svg PUBLIC "-//W3C//DTD SVG 1.1//EN" "http://www.w3.org/Graphics/SVG/1.1/DTD/svg11.dtd">
<svg version="1.1" xmlns="http://www.w3.org/2000/svg" xmlns:xlink="http://www.w3.org/1999/xlink" x="0px" y="0px" viewBox="0 0 1000 1000" enable-background="new 0 0 1000 1000" xml:space="preserve">
<metadata> Svg Vector Icons : http://www.onlinewebfonts.com/icon </metadata>
<g><g transform="translate(0.000000,512.000000) scale(0.100000,-0.100000)"><path d="M4790.4,4964.3c-74.7-76.6-70.9-132.2,23-251c180.1-228,178.2-352.5-13.4-584.3c-195.4-237.6-247.1-375.5-233.7-651.4c5.7-157.1,15.3-193.5,78.5-321.9c74.7-149.4,178.2-262.5,245.2-262.5c53.6,0,143.7,49.8,159,86.2c24.9,69,9.6,143.7-44.1,205c-93.9,107.3-139.9,220.3-139.9,339.1c0,139.9,32.6,214.6,155.2,356.3c122.6,141.8,187.8,272.1,214.6,427.2c38.3,218.4-34.5,465.6-189.7,632.2C4951.4,5041,4874.7,5048.6,4790.4,4964.3z"/><path d="M3430.2,4657.8c-74.7-74.7-70.9-132.2,21.1-252.9c40.2-55.6,80.5-124.5,86.2-155.2c19.2-80.5-23-180.1-120.7-289.3c-212.7-239.5-266.3-582.4-134.1-844.9c111.1-218.4,231.8-277.8,342.9-166.7c69,69,70.9,128.4,7.7,214.6c-72.8,99.6-124.5,212.7-124.5,275.9c0,82.4,57.5,195.4,153.3,306.5c237.6,275.9,241.4,657.1,7.7,898.5C3583.5,4732.5,3510.7,4736.4,3430.2,4657.8z"/><path d="M6380.6,4657.8c-74.7-74.7-70.9-132.2,21.1-252.9c40.2-55.6,80.5-124.5,86.2-155.2c19.2-80.5-23-180.1-120.7-289.3c-212.7-239.5-266.3-582.4-134.1-844.9c111.1-218.4,231.8-277.8,342.9-166.7c69,69,70.9,128.4,7.7,214.6c-72.8,99.6-124.5,212.7-124.5,275.9c0,80.5,57.5,195.4,151.4,302.7c99.6,116.9,145.6,205,172.4,342.9c36.4,170.5-9.6,365.9-120.7,513.4C6566.4,4724.9,6468.7,4745.9,6380.6,4657.8z"/><path d="M2114,4253.6c-51.7-21.1-105.4-136-84.3-185.8c7.7-19.2,38.3-70.9,69-116.9c55.6-80.5,55.6-84.3,24.9-143.7c-19.2-34.5-63.2-97.7-99.6-143.7c-36.4-46-74.7-116.9-88.1-160.9c-95.8-356.3,136-739.5,339.1-563.3c70.9,59.4,72.8,151.3,3.8,243.3c-92,122.6-86.2,193.5,26.8,321.9c145.6,166.7,178.2,390.8,84.3,584.3c-34.5,69-76.6,124.5-115,147.5C2209.8,4276.6,2181.1,4278.5,2114,4253.6z"/><path d="M7894.1,4217.2c-72.8-74.7-72.8-147.5,1.9-241.4c32.6-40.2,57.5-92,57.5-114.9c0-24.9-34.5-86.2-76.6-136c-149.4-180.1-191.6-404.2-115-609.2c46-118.8,147.5-222.2,222.2-222.2c69,0,160.9,97.7,160.9,168.6c0,32.6-23,84.3-57.5,128.4c-78.5,99.6-76.6,174.3,9.6,281.6c118.8,145.6,153.3,237.6,153.3,398.5c-1.9,164.8-44.1,266.3-143.7,352.5C8028.2,4288,7965,4286.1,7894.1,4217.2z"/><path d="M504.7,3106c-178.2-61.3-341-231.8-388.9-410c-82.4-302.7,168.6-649.5,502-695.5c193.5-26.8,429.2,101.5,536.4,289.3l59.4,105.4h3789.5h3791.5l34.5-70.9c19.2-40.2,69-107.3,111.1-151.3c285.5-285.5,716.5-205,913.9,168.6c61.3,116.9,61.3,335.3,0,452.1c-97.7,185.8-274,316.1-465.5,341c-191.6,26.8-421.5-97.7-536.4-287.4l-65.1-105.4l-3787.6-1.9H1213.6l-59.4,105.4c-69,122.6-199.2,226.1-335.3,268.2C696.3,3150,629.2,3150,504.7,3106z M824.6,2765c74.7-57.5,107.3-176.3,74.7-277.8c-34.5-107.3-107.3-159-224.2-159c-115,0-183.9,36.4-222.2,115c-59.4,128.4-17.3,287.4,92,342.9C621.6,2826.3,755.7,2814.8,824.6,2765z M9457.4,2786c155.2-72.8,164.8-350.6,15.3-431.1c-76.6-42.1-222.2-34.5-287.4,13.4c-113,84.3-128.4,256.7-32.6,369.8C9219.9,2818.6,9348.2,2839.7,9457.4,2786z"/><path d="M1500.9,2201.7c-103.5-51.7-203.1-168.6-231.8-272c-40.2-141.8,36.4-603.5,164.8-990.5c53.6-164.8,274-661,327.6-739.5c274-402.3,578.6-752.9,852.5-977.1c86.2-70.9,168.6-139.9,182-151.3c19.2-17.2-115-333.4-676.3-1592.1c-649.5-1450.3-703.1-1576.7-705-1678.3c-1.9-134.1,59.4-262.5,166.7-348.7c65.1-53.7,84.3-59.4,208.8-59.4c116.9,0,153.3,7.7,228,53.7c49.8,28.7,105.4,74.7,126.4,105.4c19.2,28.7,176.3,365.9,346.8,751c170.5,385.1,316.1,705,323.8,712.7c7.7,7.6,99.6-7.7,205-34.5c390.8-95.8,1111.2-199.3,1387.1-199.3h95.8l5.8-628.4l5.7-630.3l57.5-93.9c128.4-205,375.5-272.1,547.9-151.4c46,32.6,109.2,95.8,141.8,141.8l57.5,82.4l5.7,639.9l5.7,639.9h95.8c277.8,0,946.4,95.8,1356.4,193.5c130.3,30.7,239.5,53.7,243.3,49.8c3.8-1.9,149.4-327.6,323.8-722.3c285.5-643.7,327.6-726.1,400.4-797c120.7-111.2,293.1-153.3,427.2-101.6c130.3,47.9,254.8,243.3,254.8,398.5c0,69-120.7,354.4-682,1613.1C7374.9-1743,7072.2-1047.6,7074.1-1038c3.8,9.6,76.6,70.9,160.9,134.1c850.6,638,1404.3,1613.1,1513.5,2659.2c15.3,145.6-36.4,283.5-139.9,373.6c-137.9,120.7,120.7,113-3609.5,113H1583.3L1500.9,2201.7z M4351.7,1889.4c0-15.3,21.1-51.7,46-80.5c63.2-74.7,170.5-74.7,233.7,0c24.9,28.7,46,65.1,46,80.5c0,23,222.2,26.8,1638,26.8c1546.1,0,1638-1.9,1638-32.6c1.9-51.7,46-99.6,111.1-122.6c76.6-26.8,160.9,15.3,195.4,97.7c19.2,47.9,34.5,57.5,88.1,57.5c34.5,0,69-9.6,74.7-21.1c19.2-28.7-7.7-151.4-32.6-151.4c-13.4,0-42.1-19.2-67.1-42.1c-61.3-57.5-59.4-166.7,3.8-229.9l46-47.9l-55.6-208.8c-30.6-115-76.6-260.6-101.5-323.8c-42.2-107.3-47.9-115-118.8-126.4c-42.1-7.7-88.1-30.7-109.2-55.6c-42.1-53.6-44.1-149.4-3.8-208.8c28.7-40.2,28.7-47.9-1.9-105.4l-32.6-61.3l-53.6,53.6c-105.4,105.4-268.2,44.1-268.2-101.5c0-86.2,65.1-170.5,134.1-170.5c38.3,0,36.4-5.7-23-90c-97.7-139.8-467.5-515.4-639.9-649.5c-86.2-67.1-160.9-122.6-164.8-122.6c-5.7,0-90-49.8-189.7-109.2c-159-95.8-266.3-149.4-544.1-274c-166.7-72.8-274-99.6-316.1-76.6c-53.7,28.7-130.3,9.6-191.6-46c-59.4-55.5-348.7-107.3-362.1-65.1c-3.8,13.4-32.6,49.8-63.2,80.4c-46,44.1-65.1,51.7-116.9,42.1c-61.3-11.5-147.5-90-147.5-134.1c0-19.2-38.3-23-157.1-15.3c-88.1,5.7-162.8,17.3-166.7,26.8c-17.2,47.9-93.9,113-147.5,122.6c-46,7.7-70.9,0-118.8-40.2c-74.7-63.2-120.7-57.5-452.1,49.8C3445.5-1016.9,2878.4-651,2479.9-227.6c-84.3,90.1-101.5,118.8-101.5,178.2c0,82.4-69,164.8-137.9,164.8c-32.6,0-63.2,28.7-114.9,111.1c-76.6,116.9-281.6,502-283.5,526.9c0,7.7,17.2,13.4,38.3,13.4c55.5,0,145.6,49.8,160.9,86.2c63.2,168.6-124.5,316.1-251,199.2l-42.2-42.1l-21.1,51.7c-9.6,28.7-13.4,97.7-7.7,153.3c11.5,88.1,5.7,105.4-36.4,157.1c-67.1,80.5-120.7,390.8-67.1,390.8c36.4,0,111.1,80.5,111.1,118.8c0,32.6,53.6,34.5,1312.3,34.5C4169.7,1916.2,4351.7,1912.4,4351.7,1889.4z M3163.9-1177.8c32.6-17.2,57.5-40.2,57.5-53.6c0-38.3-1335.3-3023.2-1366-3053.9c-21.1-23-36.4-23-78.6-3.8c-42.1,21.1-51.7,34.5-42.1,72.8c3.8,28.7,268.2,632.2,586.3,1343c751,1685.9,770.2,1724.3,779.7,1724.3C3104.5-1149.1,3133.2-1162.5,3163.9-1177.8z M7449.6-2712.4c362.1-810.4,661-1490.5,662.9-1511.6c5.7-46-93.9-101.5-124.5-70.9c-11.5,11.5-320,691.6-685.9,1511.6l-664.8,1490.5l59.4,32.6c32.5,17.2,67.1,30.6,76.6,26.8C6782.9-1235.3,7087.5-1900.1,7449.6-2712.4z M4135.2-1568.7c124.5-30.6,258.6-61.3,298.9-69l70.9-11.5v-611.1c0-337.2-3.8-613.1-9.6-613.1c-32.6,0-1513.5,231.8-1519.3,239.5c-3.8,3.8,118.8,291.2,274,638l279.7,630.3l189.7-74.7C3824.9-1480.5,4010.7-1538,4135.2-1568.7z M6574.1-1953.7c128.4-289.3,249.1-561.3,268.2-605.4l34.5-78.5l-712.7-109.2c-390.8-59.4-739.5-113-772.1-120.7l-63.2-9.6v603.5v603.5l159,21.1c199.3,28.8,559.4,118.8,722.3,180.1c69,24.9,126.4,46,128.4,44.1C6338.4-1425,6445.7-1664.5,6574.1-1953.7z M4999.3-3068.8l-5.7-1385.2l-57.5-5.7c-109.2-13.4-105.4-59.4-105.4,1417.7v1356.4h86.2h86.2L4999.3-3068.8z"/><path d="M1776.8,1684.4c-59.4-69-61.3-103.5-13.4-183.9c46-74.7,128.4-97.7,208.8-55.6c63.2,32.6,80.5,65.1,80.5,153.3C2052.7,1740,1870.7,1797.5,1776.8,1684.4z"/><path d="M4073.9,1695.9c-70.9-69-65.1-164.8,13.4-229.9c72.8-61.3,155.2-55.6,222.2,21.1c49.8,55.6,53.6,103.5,13.4,178.2C4275.1,1759.1,4150.6,1774.5,4073.9,1695.9z"/><path d="M4725.3,1695.9c-61.3-59.4-61.3-143.7-1.9-212.7c93.9-111.1,279.7-38.3,279.7,109.2C5003.1,1726.6,4823,1795.5,4725.3,1695.9z"/><path d="M7020.5,1701.7c-57.5-65.1-69-120.7-36.4-183.9c40.2-78.5,126.4-111.1,203.1-80.5c70.9,28.7,95.8,70.9,95.8,159C7282.9,1728.5,7108.6,1797.5,7020.5,1701.7z"/><path d="M7670,1699.8c-44.1-47.9-55.6-143.7-23-203.1c30.6-59.4,124.5-88.1,193.5-57.5c67.1,26.8,120.7,126.5,99.6,183.9C7897.9,1743.8,7750.4,1786,7670,1699.8z"/><path d="M2115.9,1376c-59.4-65.1-69-120.7-34.5-187.7c80.5-155.2,297-99.6,297,74.7c0,59.4-11.5,84.3-49.8,114.9C2259.6,1431.5,2165.7,1429.6,2115.9,1376z"/><path d="M3748.2,1370.2c-126.5-124.5,17.2-331.4,176.3-254.8c28.7,13.4,65.1,49.8,78.5,78.5C4079.7,1353,3872.8,1496.7,3748.2,1370.2z"/><path d="M4399.6,1370.2c-70.9-69-65.1-164.8,11.5-228c76.6-65.1,141.8-63.2,210.7,5.7c61.3,63.2,69,111.1,26.8,191.6C4600.8,1433.4,4476.2,1448.8,4399.6,1370.2z"/><path d="M7340.4,1370.2c-82.4-88.1-40.2-243.3,74.7-268.2c157.1-34.5,260.5,153.3,149.4,274C7509,1435.4,7399.8,1433.4,7340.4,1370.2z"/><path d="M8003.3,1377.9c-36.4-28.7-49.8-57.5-49.8-103.5c0-90,15.3-122.6,80.5-155.2c111.1-57.5,233.7,13.4,233.7,136C8267.7,1395.1,8114.4,1466,8003.3,1377.9z"/><path d="M4073.9,1044.5c-90-88.1-46-239.5,80.5-270.1c101.5-26.8,216.5,88.1,189.7,189.7C4313.4,1090.5,4162,1134.6,4073.9,1044.5z"/><path d="M4725.3,1044.5c-67.1-65.1-63.2-149.4,7.7-222.2c34.5-32.6,76.6-55.6,107.3-55.6c70.9,0,162.9,95.8,162.9,168.6C5003.1,1073.3,4823,1144.2,4725.3,1044.5z"/><path d="M7022.4,1046.4c-40.2-34.5-53.7-61.3-53.7-115c0-97.7,59.4-155.2,162.9-155.2c99.6,0,151.3,57.5,151.3,162.9C7282.9,1077.1,7129.7,1140.3,7022.4,1046.4z"/><path d="M7677.6,1052.2c-93.9-72.8-53.6-249.1,61.3-275.9c76.6-15.3,149.4,17.2,185.8,84.3c36.4,72.8,21.1,143.7-42.2,193.5C7819.4,1103.9,7742.8,1102,7677.6,1052.2z"/><path d="M2117.8,720.8C2006.7,626.9,2079.5,441,2227,441c134.1,0,203.1,180.1,103.5,277.8C2271.1,780.1,2186.8,780.1,2117.8,720.8z"/><path d="M4399.6,718.8c-90-88.1-46-239.5,80.5-270.1c101.5-26.8,216.5,88.1,189.7,189.7C4639.1,764.8,4487.7,808.9,4399.6,718.8z"/><path d="M5083.6,753.3c-32.6-11.5-80.5-109.2-80.5-159c0-59.4,101.5-153.3,162.8-153.3c72.8,0,162.8,95.8,162.8,172.4C5328.8,724.6,5198.5,799.3,5083.6,753.3z"/><path d="M7350,724.6c-90-78.5-53.6-247.1,57.5-275.9c113-28.7,208.8,51.7,205,170.5c-1.9,76.6-78.6,147.5-157.1,147.5C7424.7,766.7,7376.8,747.6,7350,724.6z"/><path d="M2445.5,397c-109.2-93.9-38.3-281.6,107.3-281.6c141.8,0,208.8,185.8,101.5,283.5C2593,452.5,2508.7,452.5,2445.5,397z"/><path d="M4727.2,391.2c-90-92-47.9-237.6,78.6-268.2c101.5-26.8,216.5,88.1,189.7,189.7C4964.8,439.1,4819.2,481.3,4727.2,391.2z"/><path d="M5390.1,402.7c-88.1-82.4-70.9-205,36.4-266.3c97.7-55.5,228,26.8,228,145.6C5654.5,416.1,5487.8,492.8,5390.1,402.7z"/><path d="M4437.9,92.4c-145.6-78.5-95.8-302.7,67.1-302.7c76.6,0,172.4,90.1,172.4,162.9c0,63.2-95.8,162.8-157.1,162.8C4495.4,115.3,4459,103.8,4437.9,92.4z"/><path d="M5087.4,92.4c-42.1-19.2-84.3-90-84.3-139.9c0-51.7,42.1-120.7,90-141.8c72.8-34.5,130.3-24.9,185.8,28.7C5409.3-28.3,5256,174.7,5087.4,92.4z"/><path d="M7350,71.3c-74.7-63.2-74.7-174.4-1.9-235.7c109.2-95.8,264.4-26.8,264.4,116.9C7612.5,94.3,7457.3,165.2,7350,71.3z"/><path d="M4112.2-233.3c-145.6-78.5-95.8-302.7,67.1-302.7c76.6,0,172.4,90,172.4,162.9c0,63.2-95.8,162.8-157.1,162.8C4169.7-210.3,4133.3-221.8,4112.2-233.3z"/><path d="M4763.6-233.3c-59.4-34.5-84.3-76.6-86.2-145.6c-1.9-166.7,224.2-216.5,302.7-67.1c36.4,67.1,26.8,120.7-32.6,180.1C4888.2-208.4,4826.8-196.9,4763.6-233.3z"/><path d="M4437.9-559c-59.4-34.5-84.3-76.6-86.2-145.6c-1.9-166.7,224.2-216.5,302.7-67.1c36.4,67.1,26.8,120.7-32.6,180.1C4562.5-534.1,4501.2-522.6,4437.9-559z"/><path d="M5058.7-591.6c-70.9-72.8-74.7-157.1-7.7-222.2c97.7-99.6,277.8-30.7,277.8,105.4c0,76.6-90,172.4-162.8,172.4C5135.3-536,5093.2-559,5058.7-591.6z"/><path d="M4733-917.3c-70.9-72.8-74.7-157.1-7.7-222.2c97.7-99.6,277.8-30.7,277.8,105.4c0,76.6-90,172.4-162.9,172.4C4809.6-861.7,4767.5-884.7,4733-917.3z"/><path d="M5384.3-917.3c-61.3-63.2-69-111.1-26.8-191.6c70.9-139.8,297-82.4,297,74.7c0,76.6-90.1,172.4-162.9,172.4C5461-861.7,5418.8-884.7,5384.3-917.3z"/></g></g>
</svg>