<?xml version="1.0" encoding="utf-8"?>
<!-- Svg Vector Icons : http://www.onlinewebfonts.com/icon -->
<!DOCTYPE svg PUBLIC "-//W3C//DTD SVG 1.1//EN" "http://www.w3.org/Graphics/SVG/1.1/DTD/svg11.dtd">
<svg version="1.1" xmlns="http://www.w3.org/2000/svg" xmlns:xlink="http://www.w3.org/1999/xlink" x="0px" y="0px" viewBox="0 0 1000 1000" enable-background="new 0 0 1000 1000" xml:space="preserve">
<metadata> Svg Vector Icons : http://www.onlinewebfonts.com/icon </metadata>
<g><g transform="translate(0.000000,503.000000) scale(0.100000,-0.100000)"><path d="M1382.7,4830.1c-172.3-55.5-333.1-199.1-407.8-361.8c-42.1-88.1-42.1-107.2-47.9-1261.6l-5.8-1173.5h-247H425.5v746.6v746.6H262.7H100V1286.5V-953.4h162.7h162.7l3.8,742.8l5.7,740.9l245,5.7l243.1,5.8V-781.1v-1322.9l-47.9-63.2c-145.5-191.4-135.9-413.5,26.8-624.1c30.6-42.1,45.9-155.1,107.2-842.3c45.9-513.1,80.4-817.5,99.6-865.3c57.4-143.6,262.3-283.3,415.4-283.3c122.5,0,291,109.1,365.7,239.3c47.9,80.4,53.6,126.3,124.4,897.9l74.7,815.5l68.9,97.6c137.8,202.9,132.1,394.4-21.1,578.2l-45.9,55.5v3222c0,3216.2,0,3223.9-40.2,3331.1c-47.9,130.2-191.4,283.3-315.9,338.9C1637.3,4835.8,1457.3,4855,1382.7,4830.1z M1662.2,4474c109.1-70.8,103.4,105.3,103.4-3292.8v-3130.1h-248.9h-248.9v3155c0,3097.5,0,3155,38.3,3214.3C1367.4,4520,1549.2,4548.7,1662.2,4474z M923.2,1276.9V865.3H683.9H444.6v411.6v411.6h239.3h239.3V1276.9z M1849.8-2316.4c55.5-24.9,76.6-70.8,72.8-168.5c-3.8-122.5-38.3-134-413.5-134c-180,0-336.9,7.6-348.4,15.3c-34.5,23-65.1,93.8-65.1,151.3c0,61.3,26.8,105.3,86.1,135.9C1235.3-2285.8,1786.6-2285.8,1849.8-2316.4z M1736.8-3063.1c-5.7-55.5-36.4-381-67-723.6c-47.9-524.6-61.3-626-90-645.2c-72.7-55.5-178-9.6-178,76.6c0,23-26.8,321.6-57.4,664.3c-32.5,340.8-57.4,645.2-57.4,673.9v53.6h231.6h229.7L1736.8-3063.1z"/><path d="M2669.2,4812.9c-55.5-21.1-134-63.2-172.3-93.8c-88.1-70.8-189.5-216.3-214.4-312.1c-13.4-47.9-17.2-1098.9-15.3-3172.2l5.7-3097.5l57.4-103.4c149.3-269.9,467.1-390.5,721.7-275.7c124.4,57.4,254.6,183.8,312,302.5l47.9,103.4v3116.7c0,3022.9-1.9,3118.6-36.4,3197.1C3249.2,4755.4,2931.4,4904.8,2669.2,4812.9z M2998.4,4474c23-15.3,53.6-51.7,65.1-78.5c17.2-34.5,23-838.5,23-3120.5c0-3382.8,7.7-3153-118.7-3206.7c-84.2-34.5-212.5-30.6-271.8,9.6c-114.9,74.7-107.2-143.6-103.4,3225.8c5.7,3049.7,5.7,3080.3,44,3122.4C2720.8,4521.9,2891.2,4544.9,2998.4,4474z"/><path d="M4043.7,4830.1c-176.1-57.4-323.5-183.8-400.1-346.5l-49.8-105.3V1286.5c0-3001.8,1.9-3093.7,36.4-3187.5c45.9-118.7,181.9-266.1,308.2-331.2c137.8-72.8,323.5-70.8,465.2,1.9c124.4,65.1,233.6,176.1,292.9,296.7l45.9,90v3120.5v3120.5l-45.9,95.7c-59.4,120.6-178,237.4-294.8,294.8C4304.1,4835.8,4122.2,4856.9,4043.7,4830.1z M4329,4468.3c26.8-19.2,59.4-65.1,72.8-101.5c30.6-86.2,34.5-6057.2,5.7-6166.4c-11.5-38.3-42.1-88.1-67-107.2c-111-88.1-310.1-67-373.3,40.2c-38.3,59.3-38.3,120.6-38.3,3155v3093.7l40.2,51.7C4039.9,4525.7,4227.5,4542.9,4329,4468.3z"/><path d="M5351.3,4820.5c-172.3-55.5-300.6-172.3-381-344.6l-45.9-97.6V1275v-3103.3l57.4-116.8c227.8-451.8,796.4-451.8,1037.6,0l44,82.3l9.6,1196.5l9.6,1196.5h248.9h248.9v-742.8v-740.9h168.5h166.6V42.1v997.4l164.6-5.7l166.6-5.7l36.4-134c162.7-597.3,698.8-1024.2,1288.4-1024.2c495.8,0,970.6,308.2,1196.5,775.3c180,371.4,176.1,737.1-11.5,1119.9c-76.6,155.1-116.8,208.7-264.2,356.1c-275.7,273.8-551.3,392.5-920.8,392.5c-365.6,0-652.8-124.4-932.3-403.9c-137.9-139.8-178-195.3-250.8-346.5c-47.9-99.6-97.6-229.7-111-289.1l-23-111h-170.4h-168.5l-3.8,1077.8l-5.7,1075.9l-157,5.7l-158.9,5.7l-1.9-101.5c0-55.5-1.9-392.5-1.9-746.6l-1.9-647.1h-254.6H6073l-3.8,1192.7l-5.7,1190.8l-47.9,91.9C5889.2,4757.4,5588.7,4899,5351.3,4820.5z M5651.8,4479.8c101.5-63.2,95.7,103.4,91.9-3227.7l-5.7-3082.2L5692-1880c-97.6-103.4-289.1-103.4-386.7,0l-46,49.8v3107.1c0,3080.3,0,3107.1,38.3,3149.2C5380,4520,5548.4,4544.9,5651.8,4479.8z M8408.6,1774.7v-411.6H7997h-409.7l11.5,63.2c32.5,172.3,134,356.1,273.7,492c130.2,126.4,273.8,199.1,532.2,266.1C8406.7,2186.3,8408.6,2000.6,8408.6,1774.7z M9013.6,2092.5c68.9-32.5,160.8-86.2,204.8-120.6c149.3-118.7,285.3-344.6,329.3-545.6l13.4-63.2h-413.5H8734V1767v405.8l76.6-11.5C8852.8,2155.7,8944.6,2125,9013.6,2092.5z M6570.8,1276.9V865.3h-239.3h-239.3v411.6v411.6h239.3h239.3V1276.9z M8408.6,624.1V210.6l-70.8,11.5c-229.7,42.1-522.6,256.5-633.7,467.1c-49.8,95.7-118.7,287.2-118.7,333.1c0,7.7,185.7,15.3,411.6,15.3h411.6V624.1z M9557.2,1014.7c0-13.4-11.5-65.1-26.8-112.9c-93.8-308.2-323.5-549.4-618.4-647.1c-193.4-65.1-178-95.7-178,358c0,220.2,5.7,405.9,13.4,411.6c5.7,7.7,191.4,13.4,411.6,13.4C9465.4,1037.6,9557.2,1031.9,9557.2,1014.7z"/></g></g>
</svg>