<?xml version="1.0" encoding="utf-8"?>
<!-- Svg Vector Icons : http://www.onlinewebfonts.com/icon -->
<!DOCTYPE svg PUBLIC "-//W3C//DTD SVG 1.1//EN" "http://www.w3.org/Graphics/SVG/1.1/DTD/svg11.dtd">
<svg version="1.1" xmlns="http://www.w3.org/2000/svg" xmlns:xlink="http://www.w3.org/1999/xlink" x="0px" y="0px" viewBox="0 0 1000 1000" enable-background="new 0 0 1000 1000" xml:space="preserve">
<metadata> Svg Vector Icons : http://www.onlinewebfonts.com/icon </metadata>
<g><g transform="translate(0.000000,511.000000) scale(0.100000,-0.100000)"><path d="M2657.7,3135.7c-191.6-225.9-419.6-492.2-506.3-593l-155.3-183.6V-479v-2836.1l110.9-2c60.5,0,496.2-2,968.2-2s885.5,2,917.8,2l60.5,2v2830v2828l-508.3,595c-278.4,326.8-512.4,597.1-522.4,601.1C3014.8,3543.1,2849.4,3361.6,2657.7,3135.7z M3385.9,2605.2l324.8-383.3V-386.2v-2606.1l-689.9,4l-691.9,6l-6,2596.1l-4,2596l94.8,117c54.5,66.6,209.8,252.1,349,415.5c195.7,227.9,258.2,290.5,276.4,270.3C3051.1,2998.5,3208.4,2817,3385.9,2605.2z"/><path d="M2871.5,1104.4c-110.9-50.4-175.5-143.2-185.6-274.3c-22.2-260.2,227.9-441.8,463.9-336.9c127.1,54.5,183.5,143.2,193.6,296.5c10.1,149.3-42.4,240-177.5,308.6C3057.1,1152.8,2980.5,1154.8,2871.5,1104.4z"/><path d="M2841.3-1324.2c-36.3-24.2-88.8-76.7-115-115c-40.3-58.5-46.4-88.8-40.3-187.6c10.1-123.1,46.4-191.6,145.2-264.3c42.4-32.3,84.7-42.4,183.6-42.4c143.2,0,207.8,34.3,288.4,153.3c40.3,56.5,46.4,88.8,40.3,189.6c-4,80.7-20.2,141.2-46.4,175.5C3196.3-1277.8,2974.4-1233.4,2841.3-1324.2z"/><path d="M6456,2950.1L5949.7,2353V-481v-2834.1l151.3-2c82.7,0,536.5-2,1008.6-2s867.4,2,877.5,2c14.1,2,20.2,960.1,20.2,2832.1v2830l-504.3,595c-278.4,326.8-512.4,595.1-522.5,599.1C6972.4,3541.1,6736.4,3276.9,6456,2950.1z M7329.4,2623.3l334.8-395.4V-382.2v-2610.2h-683.8h-683.8l-12.1,96.8c-14.1,131.1-10.1,5069.1,6.1,5109.4c16.1,44.4,665.7,804.8,685.8,804.8C6986.5,3018.7,7143.8,2841.2,7329.4,2623.3z"/><path d="M6817.1,1096.3c-100.9-52.4-181.5-181.5-181.5-290.5c0-236,244.1-405.4,459.9-318.7c221.9,88.8,286.4,351,131.1,536.6C7121.6,1146.8,6966.3,1175,6817.1,1096.3z"/><path d="M6805-1314.1c-145.2-92.8-201.7-258.2-139.2-417.6c46.4-125.1,143.2-195.7,282.4-207.8c203.7-16.2,363.1,127.1,361.1,328.8c0,199.7-115,316.7-320.7,328.8C6895.7-1277.8,6853.4-1283.9,6805-1314.1z"/><path d="M150.4,1778.1l-50.4-48.4V803.9c0-883.5,2-929.9,38.3-974.3l38.3-48.4l819-6l819-6.1v173.5V114h-695.9H422.7v685.8v685.8l691.9,4l689.9,6l6,167.4l6.1,165.4h-808.9H198.8L150.4,1778.1z"/><path d="M4235.1,1657.1v-171.5h766.5h766.5v171.5v171.5h-766.5h-766.5V1657.1z"/><path d="M8188.7,1657.1v-171.5h685.8h685.8V799.8V114h-685.8h-685.8V-57.4v-171.5h794.8h796.8l56.5,48.4l56.5,48.4v931.9v931.9l-56.5,48.4l-56.5,48.4h-796.8h-794.8V1657.1z"/><path d="M4235.1-57.4v-171.5h766.5h766.5v171.5V114h-766.5h-766.5V-57.4z"/><path d="M202.9-594C100-634.4,102-618.2,100-1612.7v-929.9l46.4-42.4c46.4-44.4,52.5-44.4,857.3-44.4h810.9v161.4v161.4l-689.9,4l-691.9,6v685.8v685.8l691.9,6l691.9,4l-6.1,167.4l-6,165.4l-776.6,4C563.9-575.8,231.1-581.9,202.9-594z"/><path d="M4235.1-743.3v-171.5h766.5h766.5v171.5v171.5h-766.5h-766.5V-743.3z"/><path d="M8188.7-743.3v-171.5h685.8h685.8v-695.9v-695.9h-685.8h-685.8v-161.4v-161.4h806.9c776.6,0,808.9,2,847.2,40.3c22.2,22.2,44.4,60.5,50.4,84.7c6,26.2,8.1,447.8,6,938l-6,891.6l-46.4,46.4l-46.4,46.4l-804.8,6.1l-806.9,6V-743.3z"/><path d="M4235.1-2467.9v-161.4h766.5h766.5v161.4v161.4h-766.5h-766.5V-2467.9z"/></g></g>
</svg>