<?xml version="1.0" encoding="utf-8"?>
<!-- Svg Vector Icons : http://www.onlinewebfonts.com/icon -->
<!DOCTYPE svg PUBLIC "-//W3C//DTD SVG 1.1//EN" "http://www.w3.org/Graphics/SVG/1.1/DTD/svg11.dtd">
<svg version="1.1" xmlns="http://www.w3.org/2000/svg" xmlns:xlink="http://www.w3.org/1999/xlink" x="0px" y="0px" viewBox="0 0 1000 1000" enable-background="new 0 0 1000 1000" xml:space="preserve">
<metadata> Svg Vector Icons : http://www.onlinewebfonts.com/icon </metadata>
<g><g transform="translate(0.000000,511.000000) scale(0.100000,-0.100000)"><path d="M3203.9,4476.1c-130.3-25-230.5-85.2-330.7-195.4l-90.2-100.2l-120.2,60.1c-365.7,185.4-779-50.1-849.2-481l-15-102.7l-105.2,35.1c-255.5,90.2-571.1-50.1-703.9-310.6c-35.1-70.1-150.3-789.1-440.9-2763c-40.1-268-157.8-1067.1-263-1773.5C177.9-1861.5,95.2-2442.6,100.2-2447.7c10-7.5,3890.2-586.1,3895.2-581.2c2.5,0,67.6,425.8,145.3,941.9c77.7,516,167.8,1044.6,202.9,1169.8c142.8,536,375.7,1044.6,588.7,1297.6c238,280.6,383.2,651.3,340.7,874.2c-22.6,122.7-152.8,253-290.6,290.6c-130.3,37.6-398.3,2.5-531.1-65.1c-40.1-20-80.2-32.6-87.7-25c-7.5,5,50.1,438.4,127.8,959.4c77.7,521,140.3,1004.5,140.3,1072.1c-2.5,323.1-253,561.1-593.7,563.6c-145.3,0-155.3,2.5-177.8,70.1c-35.1,100.2-172.9,250.5-278.1,303.1C3471.9,4478.6,3321.6,4501.1,3203.9,4476.1z M3461.9,4020.2c22.6-27.5,42.6-82.7,42.6-120.2c0-37.6-95.2-708.9-212.9-1490.5c-117.7-784-210.4-1425.3-207.9-1430.3c12.5-10,378.2-62.6,383.3-55.1c2.5,5,92.7,593.7,200.4,1307.6c105.2,716.4,205.4,1322.6,220.4,1347.7c47.6,75.1,152.8,105.2,235.5,65.1c145.3-70.1,150.3-17.5-112.7-1768.5c-192.9-1300.1-233-1615.7-207.9-1633.2c57.6-32.6,333.2-55.1,350.7-27.6c10,15,37.6,165.3,62.6,333.2c40.1,283.1,50.1,315.6,122.7,390.8c102.7,107.7,285.6,202.9,430.9,222.9c110.2,15,112.7,12.5,112.7-52.6c0-95.2-100.2-283.1-250.5-468.4c-230.5-285.6-385.8-591.2-558.6-1087.2C3940.3-834.5,3885.2-1090,3770-1861.5l-105.2-713.9l-72.6,7.5c-258,30.1-3021,450.9-3033.5,463.4c-7.5,7.5,90.2,698.9,215.4,1535.5c233,1558.1,333.2,2229.4,475.9,3203.9c45.1,303.1,97.7,576.1,115.2,606.2c70.1,112.7,260.5,105.2,320.6-12.5c32.6-62.6,22.5-162.8-112.7-1057.1c-80.2-541.1-140.3-992-132.8-999.5c7.5-7.5,97.7-27.6,200.4-42.6l185.4-25l12.5,75.2c27.6,157.8,263,1768.5,313.1,2131.7c60.1,430.9,85.2,528.5,150.3,563.6c122.7,65.1,300.6-17.5,300.6-142.8c0-30.1-85.2-621.2-187.9-1312.6S2226.9,1147,2226.9,1131.9c0-27.6,443.4-107.7,460.9-82.7c5,2.5,105.2,666.3,225.4,1470.4c117.7,806.6,230.5,1480.4,245.5,1500.5C3236.4,4110.3,3384.2,4112.9,3461.9,4020.2z"/><path d="M6573,3226.1c-177.9-45.1-393.3-228-428.3-360.7c-12.5-57.6-25.1-60.1-172.9-60.1c-328.1,0-588.7-250.5-588.7-563.6c0-80.2,62.6-561.1,137.8-1067.1c75.2-508.5,137.8-936.9,137.8-951.9c0-20-45.1-10-130.3,25c-182.9,72.6-473.4,77.6-593.7,7.5c-150.3-87.7-190.4-167.8-190.4-373.2c0-162.8,10-202.9,105.2-393.3c57.6-115.2,162.8-278,232.9-360.7c217.9-255.5,440.9-751.5,591.2-1302.6c45.1-162.8,335.7-1968.9,335.7-2079.1c0-7.5,25-12.5,57.6-12.5c97.7,0,3812.6,558.6,3832.6,576.2c10,10-172.8,1305.1-408.3,2878.2c-320.6,2159.3-438.4,2885.7-476,2958.4c-65.1,127.8-227.9,263-363.2,300.6c-105.2,30.1-255.5,25.1-378.2-12.5c-50.1-15-57.6-2.5-82.7,112.7c-15,70.1-42.6,157.8-62.6,197.9c-52.6,100.2-220.4,243-328.1,278.1c-127.7,42.6-358.2,20-483.4-45.1c-57.6-30.1-105.2-45.1-105.2-35.1c0,37.6-160.3,182.9-250.5,230.5C6853.6,3228.6,6675.7,3253.7,6573,3226.1z M6821,2792.7c62.6-55.1,72.6-110.2,283-1523C7221.8,463.1,7322-200.7,7327-203.2c17.5-25,460.9,55.1,460.9,82.7c0,15-85.2,596.2-187.9,1287.6c-102.7,691.4-187.9,1280-187.9,1310.1c0,127.7,175.4,212.9,300.6,145.3c65.1-35.1,90.2-132.8,160.3-638.8c62.6-448.4,278-1908.8,303.1-2056.6l12.5-75.1l185.4,25c102.7,15,192.9,35.1,200.4,42.6c7.5,7.5-52.6,458.4-132.8,1002c-162.8,1074.6-162.8,1084.6-20,1134.7c90.2,32.6,195.4-5,235.5-85.2c32.6-65.1,821.6-5308,799.1-5328.1c-7.5-7.5-2755.5-425.8-3058.6-463.4c-45.1-7.5-55.1,42.6-155.3,706.4c-112.7,771.5-167.8,1029.5-300.6,1415.3c-175.4,506-323.1,796.6-561.1,1092.1c-150.3,187.9-248,370.7-248,463.4c0,65.1,2.5,67.6,112.7,52.6c145.3-20.1,328.2-115.2,430.9-222.9c72.7-75.2,82.7-107.7,122.8-390.8c25.1-167.8,52.6-318.1,62.6-333.2c17.5-27.5,293-5,350.7,27.6c35.1,22.5,40.1-17.5-290.6,2179.3c-172.8,1159.8-172.8,1154.8-30.1,1222.4c57.6,27.6,85.2,27.6,145.3,5c40.1-17.5,85.2-50.1,95.2-72.6c12.5-22.5,110.2-626.2,215.4-1342.7C6455.3,265.2,6543-323.4,6545.5-325.9c5-5,375.7,47.6,383.2,55.1c5,2.5-87.7,643.8-205.4,1427.8s-212.9,1457.9-212.9,1495.5c0,90.2,100.2,195.4,185.4,195.4C6730.8,2847.8,6786,2822.8,6821,2792.7z"/></g></g>
</svg>