<?xml version="1.0" encoding="utf-8"?>
<!-- Svg Vector Icons : http://www.onlinewebfonts.com/icon -->
<!DOCTYPE svg PUBLIC "-//W3C//DTD SVG 1.1//EN" "http://www.w3.org/Graphics/SVG/1.1/DTD/svg11.dtd">
<svg version="1.1" xmlns="http://www.w3.org/2000/svg" xmlns:xlink="http://www.w3.org/1999/xlink" x="0px" y="0px" viewBox="0 0 1000 1000" enable-background="new 0 0 1000 1000" xml:space="preserve">
<metadata> Svg Vector Icons : http://www.onlinewebfonts.com/icon </metadata>
<g><g transform="translate(0.000000,512.000000) scale(0.100000,-0.100000)"><path d="M2808.3,4981.5c-336.9-116.8-583.8-442.2-583.8-773.3c0-210.6,114.9-455.6,285.2-604.9c84.2-76.6,291-189.5,342.6-189.5c17.2,0,23-145.5,23-662.3v-662.3l-80.4,13.4c-248.8,40.2-513,179.9-692.9,363.7c-212.5,218.2-319.7,453.7-359.9,796.3c-26.8,229.7-61.3,285.2-176.1,285.2c-49.8,0-76.6-13.4-116.8-61.3c-49.8-59.3-51.7-67-38.3-204.8c68.9-735,604.9-1345.7,1311.2-1491.1l153.1-32.5v-157v-158.9h-55.5c-91.9,0-308.2,51.7-482.4,114.8c-455.6,164.6-830.7,503.4-1050.9,947.5c-112.9,229.7-168.4,436.4-201,744.6c-19.1,199.1-28.7,233.5-67,264.2c-90,72.7-231.6,23-260.3-93.8c-21.1-78.5,26.8-447.9,80.4-631.7c178-614.4,629.8-1158.1,1207.8-1449c231.6-114.9,595.3-222,763.8-222h65.1V-929.5c0-2224.3,1.9-2199.4-107.2-2488.4c-147.4-392.4-484.3-742.7-865.2-899.7c-281.4-116.8-338.8-124.4-1062.4-134l-668.1-11.5l-36.4-45.9c-51.7-63.2-47.9-164.6,11.5-222l45.9-47.9H5000h4806.5l45.9,47.9c59.3,57.4,63.2,158.9,11.5,222l-36.4,45.9l-2639.6,9.6l-2637.7,9.6l-168.4,53.6C3797.9-4208.5,3417-3819.9,3254.3-3238l-44,153.1l-5.7,2101.8l-5.8,2099.8h72.7c101.5,1.9,373.3,63.2,528.3,122.5c869,327.3,1464.3,1119.8,1519.9,2025.2c11.5,179.9,9.6,185.7-38.3,233.5c-65.1,65.1-168.5,67-231.6,5.7c-38.3-38.3-45.9-70.8-55.5-233.5c-45.9-735-470.9-1361-1131.3-1665.3c-157-72.7-390.5-139.7-551.3-157l-111-11.5V1603c0,147.4,3.8,164.6,34.5,164.6c78.5,0,346.5,80.4,480.5,143.6c195.2,93.8,356,212.5,511.1,379c149.3,160.8,229.7,287.1,323.5,505.4c63.2,143.6,124.4,419.2,124.4,555.1c0,76.6-42.1,168.4-86.1,185.7c-126.3,47.9-239.3-30.6-239.3-168.4c0-116.8-45.9-342.6-95.7-476.6c-57.4-151.2-210.6-377.1-325.4-476.6c-179.9-157-426.9-277.6-645.1-312l-82.3-13.4v662.3c0,547.5,3.8,662.3,26.8,662.3c68.9,0,298.6,141.6,392.4,239.3c344.6,363.7,296.7,895.8-109.1,1200.2C3298.3,5014,3039.9,5060,2808.3,4981.5z M3258.1,4648.4c189.5-95.7,279.5-262.2,264.2-491.9c-13.4-168.4-82.3-287.1-214.4-369.4c-88.1-53.6-109.1-57.4-268-57.4c-197.2,0-252.7,21.1-365.6,137.8c-86.1,90-132.1,239.3-118.7,388.6c19.1,208.6,137.8,358,338.8,423C2969.1,4703.9,3185.4,4686.7,3258.1,4648.4z M2875.3-4175.9v-277.6l-281.4,1.9c-271.8,0-281.4,1.9-235.4,32.5c120.6,82.3,306.3,258.4,402,382.8c57.4,74.7,107.2,135.9,111,135.9C2873.4-3898.4,2875.3-4022.8,2875.3-4175.9z M3355.7-4082.1c84.2-101.5,227.8-233.5,371.3-340.7c34.5-26.8,11.5-28.7-243.1-30.6h-283.3v283.3c1.9,254.6,3.8,277.5,30.6,243.1C3246.6-3948.1,3302.1-4019,3355.7-4082.1z"/></g></g>
</svg>