<?xml version="1.0" encoding="utf-8"?>
<!-- Svg Vector Icons : http://www.onlinewebfonts.com/icon -->
<!DOCTYPE svg PUBLIC "-//W3C//DTD SVG 1.1//EN" "http://www.w3.org/Graphics/SVG/1.1/DTD/svg11.dtd">
<svg version="1.1" xmlns="http://www.w3.org/2000/svg" xmlns:xlink="http://www.w3.org/1999/xlink" x="0px" y="0px" viewBox="0 0 1000 1000" enable-background="new 0 0 1000 1000" xml:space="preserve">
<metadata> Svg Vector Icons : http://www.onlinewebfonts.com/icon </metadata>
<g><g transform="translate(0.000000,512.000000) scale(0.100000,-0.100000)"><path d="M4568.8,5016c-30.7-3.8-139.9-17.3-239.6-28.8c-402.5-44.1-918.1-172.5-1293.8-322c-902.8-356.5-1698.3-987.1-2183.2-1730.8c-360.4-552-552-1140.5-580.8-1778.7c-61.3-1385.8,761-2710.3,2171.7-3496.2c563.5-314.3,1219.1-519.4,1966.6-615.3l88.2-11.5l-19.2-70.9c-47.9-174.4-187.8-337.4-356.5-414c-78.6-34.5-435.1-115-1165.4-264.5l-1052.3-216.6l1.9-149.5c1.9-124.6,11.5-166.8,63.3-270.3c78.6-161,247.3-318.2,398.7-375.7c172.5-65.2,256.8-67.1,542.4-11.5c753.3,143.8,1278.5,191.7,2089.3,191.7c812.7,0,1382-51.8,2079.7-191.7c377.6-76.7,563.5-38.3,776.3,159.1c162.9,149.5,233.9,300.9,237.7,498.4l1.9,149.5l-1035,212.8c-569.3,116.9-1069.5,224.3-1111.7,237.7c-180.2,59.4-345,216.6-410.2,392.9c-23,61.3-38.3,113.1-34.5,116.9c3.8,3.8,80.5,17.3,168.7,28.7c1635,201.3,3066.8,1152,3707,2463.1c726.5,1485.5,306.7,3197.2-1061.9,4341.5c-713,596.1-1539.2,962.2-2518.6,1111.7c-187.9,28.8-371.9,42.2-713,46C4833.3,5021.7,4601.4,5019.8,4568.8,5016z M5676.7,4651.8c433.2-53.7,998.6-207,1341.7-360.4l113.1-51.8l-9.6-722.6c-9.6-759-17.3-837.6-113.1-1125.1c-354.6-1069.6-1506.6-1658-2620.2-1339.8c-346.9,99.7-634.4,270.3-895.1,532.9c-300.9,304.8-473.4,621-573.1,1065.7c-26.8,116.9-34.5,277.9-42.2,866.4l-9.6,722.6l113.1,49.8c440.9,197.4,1052.3,345,1610.1,392.9C4860.2,4703.6,5377.7,4690.1,5676.7,4651.8z M2592.6,2641.1c44.1-203.2,130.3-460,205.1-607.6c197.4-394.8,519.4-759,877.9-992.9l141.8-92l-649.8-7.7c-718.8-9.6-760.9-15.3-1015.9-141.8c-264.5-130.3-494.5-364.2-621-632.5c-32.6-67.1-65.2-122.7-72.8-122.7c-24.9,0-490.7,289.4-665.1,412.1c-105.4,72.8-168.7,132.3-178.3,162.9c-7.7,26.8-13.4,212.8-11.5,412.1c0,318.2,7.7,394.9,51.8,607.6c203.2,964.1,799.3,1778.7,1711.7,2344.2l170.6,103.5l11.5-645.9C2556.2,2930.6,2565.8,2761.9,2592.6,2641.1z M7702.7,3938.8c325.8-205.1,734.1-567.4,962.2-858.7c345-437,567.4-908.5,680.5-1443.3c44.1-210.8,51.7-287.5,51.7-605.7c1.9-199.3-3.8-385.3-11.5-412.1c-9.6-30.7-72.8-90.1-178.3-162.9c-166.8-116.9-640.2-412.1-665.1-412.1c-7.7,0-40.2,55.6-72.8,122.7c-126.5,268.3-356.5,502.2-621,632.5C7591.6,925.6,7551.3,931.4,6832.5,941l-647.9,7.7l149.5,99.7c446.6,300.9,797.4,745.6,973.7,1234.4c113.1,318.2,130.3,456.2,139.9,1159.6l9.6,646l69-42.2C7566.6,4023.1,7645.2,3975.2,7702.7,3938.8z M7559,578.7c316.3-99.7,601.9-379.5,653.6-640.2l11.5-59.4l-262.6-111.2C7329-500.4,6661.9-678.7,5929.7-774.6c-385.3-49.8-1474-49.8-1859.3,0c-736,95.8-1397.3,272.2-2029.9,542.5c-300.9,128.4-293.3,115-189.8,327.8c138,283.7,396.8,454.3,772.5,511.8c26.8,3.8,1127.1,5.8,2443.9,3.8C7181.4,607.4,7474.6,603.6,7559,578.7z M1080.3-115.2C1965.9-648,2993.2-983.5,4152.9-1119.6c392.9-46,1301.5-46,1694.4,0c958.4,113.1,1801.8,354.6,2593.4,741.8c199.3,97.8,613.4,335.4,782,448.5l51.7,36.4l-59.4-170.6C8814.5-1202,7712.3-2131.6,6347.6-2486.2C4317.7-3013.3,2148-2298.4,1141.7-770.7C999.8-554.1,861.8-283.8,785.1-63.4l-59.4,170.6l51.8-36.4C808.1,51.6,942.3-32.8,1080.3-115.2z M5201.4-3080.4c42.2-162.9,143.8-329.7,285.6-471.5c224.3-222.4,243.4-230,1332.1-454.3c517.5-105.4,941.1-199.3,941.1-205.1c0-32.6-93.9-147.6-151.4-185.9c-109.2-72.8-168.7-72.8-592.3,1.9C5874.1-4196,4823.7-4161.5,3715.9-4288c-312.4-36.4-454.3-57.5-950.7-145.7c-222.3-38.3-304.8-26.8-410.2,61.3c-53.7,46-126.5,157.2-111.2,170.6c3.8,1.9,427.4,92,943,197.4c1081.1,222.4,1102.1,230,1326.4,452.4c136.1,134.2,226.2,279.8,274.1,442.8c13.4,42.2,26.8,88.2,32.6,101.6c5.7,17.3,51.7,23,184,19.2l176.3-5.7L5201.4-3080.4z"/><path d="M4469.1,4015.4c-57.5-7.7-120.7-92-120.7-159.1c0-28.8,21.1-76.7,46-105.4c61.3-72.8,172.5-72.8,235.8,1.9C4735.6,3875.5,4634,4040.4,4469.1,4015.4z"/><path d="M5446.7,4015.4c-57.5-7.7-120.8-92-120.8-159.1c0-28.8,21.1-76.7,46-105.4c134.2-157.2,369.9,46,241.5,207C5575.1,4007.8,5521.5,4026.9,5446.7,4015.4z"/><path d="M3907.5,3503.7c-65.2-70.9-63.2-172.5,7.7-231.9c28.8-24.9,69-46,90.1-46c53.7,0,143.8,49.8,159.1,86.3C4229.6,3486.4,4030.2,3634,3907.5,3503.7z"/><path d="M4894.7,3509.4c-92-80.5-53.7-247.3,63.2-274.1c78.6-17.2,155.3,19.2,184,88.2c32.6,76.7,19.2,143.8-42.2,189.8C5036.5,3563.1,4956,3561.2,4894.7,3509.4z"/><path d="M5874.1,3511.3c-38.3-30.7-49.8-55.6-49.8-113.1c0-105.4,51.7-162.9,151.4-162.9c101.6,0,162.9,57.5,162.9,153.3C6138.7,3528.6,5987.2,3599.5,5874.1,3511.3z"/><path d="M4451.9,3053.2c-105.4-42.2-134.2-182.1-55.6-258.8c97.8-99.7,277.9-30.7,277.9,103.5C4674.2,3007.2,4547.7,3093.5,4451.9,3053.2z"/><path d="M5429.5,3053.2c-105.4-42.2-134.2-182.1-55.6-258.8c97.8-99.7,277.9-30.7,277.9,103.5C5651.8,3007.2,5525.3,3093.5,5429.5,3053.2z"/><path d="M3915.2,2528c-111.2-93.9-38.3-279.8,109.3-279.8c82.4,0,151.4,74.8,151.4,162.9C4175.9,2553,4022.5,2622,3915.2,2528z"/><path d="M4894.7,2530c-109.3-92-38.3-281.8,105.4-281.8c141.8,0,208.9,176.3,105.4,277.9C5046.1,2587.5,4961.8,2587.5,4894.7,2530z"/><path d="M5872.2,2526.1c-99.7-97.8-30.7-277.9,103.5-277.9c88.2,0,162.9,74.8,162.9,162.9C6138.7,2553,5970,2625.8,5872.2,2526.1z"/></g></g>
</svg>