<?xml version="1.0" encoding="utf-8"?>
<!-- Svg Vector Icons : http://www.onlinewebfonts.com/icon -->
<!DOCTYPE svg PUBLIC "-//W3C//DTD SVG 1.1//EN" "http://www.w3.org/Graphics/SVG/1.1/DTD/svg11.dtd">
<svg version="1.1" xmlns="http://www.w3.org/2000/svg" xmlns:xlink="http://www.w3.org/1999/xlink" x="0px" y="0px" viewBox="0 0 1000 1000" enable-background="new 0 0 1000 1000" xml:space="preserve">
<metadata> Svg Vector Icons : http://www.onlinewebfonts.com/icon </metadata>
<g><g transform="translate(0.000000,512.000000) scale(0.100000,-0.100000)"><path d="M3541.5,4776.9l-5.7-245l-206.7-9.6c-300.5-13.4-281.4,30.6-281.4-645v-545.5l55.5-55.5c55.5-53.6,61.3-55.5,248.8-55.5h193.3V120v-3100.8H3352c-187.6,0-193.3-1.9-248.8-55.5l-55.5-55.5v-545.5c0-675.7-19.1-631.6,281.4-645l206.7-9.6l5.7-243.1l5.7-245H5000h1452.8l5.7,245l5.7,243.1l206.7,9.6c300.5,13.4,281.4-30.6,281.4,645v545.5l-55.5,55.5c-55.5,53.6-61.3,55.5-248.8,55.5h-193.3V120v3100.8H6648c187.6,0,193.3,1.9,248.8,55.5l55.5,55.5v545.5c0,675.7,19.1,631.6-281.4,645l-206.7,9.6l-5.7,245l-5.7,243.1H5000H3547.2L3541.5,4776.9z M6144.6,4614.2l5.8-72.7H5001.9H3851.6v63.2c0,36.4,5.7,70.8,13.4,76.6c5.7,7.7,520.6,11.5,1142.7,9.6l1131.2-5.7L6144.6,4614.2z M6627,3871.6v-325.4H5000H3373v325.4V4197h1627h1627V3871.6z M6148.4,120v-3100.8H5000H3851.6V120v3100.8H5000h1148.4V120z M6627-3631.6V-3957H5000H3373v325.4v325.4h1627h1627V-3631.6z M6144.6-4372.3l-5.7-72.7H5000H3861.1l-5.7,72.7l-5.7,70.8H5000h1150.4L6144.6-4372.3z"/></g></g>
</svg>