<?xml version="1.0" encoding="utf-8"?>
<!-- Svg Vector Icons : http://www.onlinewebfonts.com/icon -->
<!DOCTYPE svg PUBLIC "-//W3C//DTD SVG 1.1//EN" "http://www.w3.org/Graphics/SVG/1.1/DTD/svg11.dtd">
<svg version="1.1" xmlns="http://www.w3.org/2000/svg" xmlns:xlink="http://www.w3.org/1999/xlink" x="0px" y="0px" viewBox="0 0 1000 1000" enable-background="new 0 0 1000 1000" xml:space="preserve">
<metadata> Svg Vector Icons : http://www.onlinewebfonts.com/icon </metadata>
<g><g transform="translate(0.000000,503.000000) scale(0.100000,-0.100000)"><path d="M154.3,4789.5c-59.4-59.4-68.9-105.3-34.5-180c28.7-61.3,93.8-90,208.7-90h95.7V116.2v-4401.5l245.1-5.7l243.1-5.7l5.7-243.1L924-4785h486.3h488.2v248.9v248.9H5000h3101.5v-248.9V-4785h488.2H9076l5.7,245.1l5.7,243.1l245.1,5.7l243.1,5.7V116.2v4403.4h95.7c114.9,0,180,28.7,208.7,90c34.5,74.7,24.9,120.6-34.5,180l-55.5,55.5H5000H209.9L154.3,4789.5z M9250.2,3217.7V1915.8H5000H749.8v1301.9v1301.9H5000h4250.2V3217.7z M9250.2,269.3v-1301.9H5000H749.8V269.3v1301.9H5000h4250.2V269.3z M9250.2-2659.9v-1301.9H5000H749.8v1301.9V-1358H5000h4250.2V-2659.9z M1573-4383v-76.6h-162.7h-162.7v76.6v76.6h162.7H1573V-4383z M8752.4-4383v-76.6h-162.7H8427v76.6v76.6h162.7h162.7V-4383z"/><path d="M1075.2,3217.7v-976.4H5000h3924.8v976.4v976.4H5000H1075.2V3217.7z M4829.6,3839.9c-105.3-32.6-271.9-145.5-333.1-225.9c-109.1-143.6-137.9-224-137.9-396.3c0-134,7.7-180,45.9-258.5c68.9-137.8,237.4-300.6,365.7-350.4l105.3-40.2H3139.1l-1738.4-1.9v650.9v650.9l1757.5-1.9C4676.4,3866.7,4902.3,3862.9,4829.6,3839.9z M8599.3,3217.7v-650.9l-1736.5,1.9H5124.4l105.3,40.2c128.3,49.8,298.7,212.5,361.8,350.4c65.1,139.8,74.7,315.9,23,453.7c-74.7,195.3-237.4,354.2-430.8,421.2c-93.8,32.5-40.2,32.5,1659.9,34.5h1755.6V3217.7z M5116.8,3522.1c189.5-63.2,264.2-283.3,166.6-476.7c-55.5-107.2-141.7-153.2-283.3-153.2c-141.7,0-227.8,45.9-281.4,153.2C4571.1,3332.5,4814.3,3623.5,5116.8,3522.1z"/><path d="M1075.2,269.3v-976.4H5000h3924.8v976.4v976.4H5000H1075.2V269.3z M4776,880c-134-51.7-296.7-202.9-361.8-335c-72.7-147.4-82.3-325.5-28.7-471c74.7-195.3,237.4-354.2,430.8-421.2c93.8-32.6,40.2-32.6-1658-34.5H1400.7v650.9v650.9l1738.4-1.9h1736.5L4776,880z M8599.3,269.3v-650.9l-1755.6,1.9c-1520.1,0-1746,3.8-1673.3,26.8c201,63.2,404,271.9,461.4,476.7c34.5,126.4,15.3,296.7-49.8,426.9c-67,132.1-225.9,277.6-358,329.3l-99.6,38.3h1738.4l1736.5,1.9V269.3z M5172.3,560.3c99.6-51.7,157-176.1,149.3-315.9c-13.4-185.7-128.3-291-321.6-291c-193.4,0-308.2,105.3-321.6,291c-13.4,216.3,109.1,350.4,321.6,350.4C5065.1,594.8,5132.1,581.4,5172.3,560.3z"/><path d="M1075.2-2659.9v-976.4H5000h3924.8v976.4v976.4H5000H1075.2V-2659.9z M4814.3-2045.3c-340.8-116.8-538-472.9-438.4-788.8c61.3-193.4,224-363.8,419.3-442.3c76.6-30.6-3.8-32.5-1656.1-32.5l-1738.4-1.9v650.9v650.9h1757.5C4871.7-2010.9,4911.9-2010.9,4814.3-2045.3z M8599.3-2659.9v-650.9l-1736.5,1.9c-1654.1,0-1734.5,1.9-1658,32.5c350.4,139.8,530.3,515,400.1,830.9c-82.3,199.1-220.2,333.1-419.3,400.1c-97.6,34.5-57.4,34.5,1658,36.4h1755.6V-2659.9z M5189.5-2388c132.1-97.6,172.3-270,101.5-430.8c-97.6-222.1-478.6-227.8-580.1-7.7c-86.2,193.4-7.7,417.4,166.6,472.9C4959.8-2326.8,5134-2345.9,5189.5-2388z"/></g></g>
</svg>