<?xml version="1.0" encoding="utf-8"?>
<!-- Svg Vector Icons : http://www.onlinewebfonts.com/icon -->
<!DOCTYPE svg PUBLIC "-//W3C//DTD SVG 1.1//EN" "http://www.w3.org/Graphics/SVG/1.1/DTD/svg11.dtd">
<svg version="1.1" xmlns="http://www.w3.org/2000/svg" xmlns:xlink="http://www.w3.org/1999/xlink" x="0px" y="0px" viewBox="0 0 1000 1000" enable-background="new 0 0 1000 1000" xml:space="preserve">
<metadata> Svg Vector Icons : http://www.onlinewebfonts.com/icon </metadata>
<g><g transform="translate(0.000000,512.000000) scale(0.100000,-0.100000)"><path d="M1464.7,4974.1l-53.6-45.9l-5.7-1607.8l-3.8-1607.8l49.8-59.3l49.8-59.3H5000h3498.9l49.8,59.3l49.8,59.3l-3.8,1607.8l-5.7,1607.8l-53.6,45.9l-53.6,45.9H5000H1518.3L1464.7,4974.1z M8273,3306.9V1919.2H5000H1727v1387.7v1387.7h3273h3273V3306.9z"/><path d="M2115.5,4323.3l-53.6-45.9v-970.4v-970.4l53.6-45.9l53.6-45.9H5000h2830.9l53.6,45.9l53.6,45.9v970.4v970.4l-53.6,45.9l-53.6,45.9H5000H2169.1L2115.5,4323.3z M7618.4,3303.1l3.8-733.1H5000H2377.7v723.5c0,398.1,5.7,731.2,13.4,736.9c5.7,7.7,1184.8,11.5,2616.5,9.6l2605-5.7L7618.4,3303.1z"/><path d="M3168.2,3425.6c-273.7-273.7-292.8-296.7-292.8-363.7c0-95.7,72.7-166.5,168.4-166.5c59.3,0,90,23,281.4,210.5l212.5,210.5l206.7-210.5c277.5-283.3,268-283.3,555.1,0l214.4,210.5l208.6-210.5c187.6-189.5,216.3-210.5,277.5-210.5c61.3,0,90,21.1,277.5,210.5l208.6,210.5l214.4-210.5c287.1-283.3,277.5-283.3,555.1,0l206.7,210.5l212.5-210.5c191.4-187.6,222-210.5,281.4-210.5c91.9,0,168.4,76.6,168.4,170.4c0,61.3-24.9,91.9-292.9,359.8c-375.2,375.1-342.6,371.3-633.6,82.3l-212.5-208.6l-212.5,208.6c-285.2,283.3-275.6,283.3-560.8-3.8L5000,3287.8l-212.5,216.3c-285.2,287.1-275.6,287.1-560.8,3.8l-212.5-208.6l-212.5,208.6C3510.9,3796.9,3543.4,3800.7,3168.2,3425.6z"/><path d="M1127.9,1247.4c-116.8-26.8-224-91.9-329.2-197.1c-139.7-139.7-189.5-252.7-197.1-446l-7.7-158.9H398.6c-120.6-1.9-204.8-9.6-223.9-24.9c-70.8-53.6-74.6-91.9-74.6-807.7v-700.5l47.9-45.9c42.1-44,59.3-47.9,239.3-47.9h191.4v-411.5v-411.5h-111c-95.7,0-118.7-7.7-157-47.9c-65.1-70.8-63.2-172.3,7.7-231.6l51.7-45.9h-67c-90,0-155-32.5-181.8-90c-15.3-32.5-21.1-380.9-21.1-1146.5V-4669l55.5-55.5L211-4780h788.6h788.6l55.5,55.5c53.6,55.5,55.5,61.2,55.5,248.8v193.3H5000h3100.8v-193.3c0-187.6,1.9-193.3,55.5-248.8l55.5-55.5h788.6H9789l55.5,55.5l55.5,55.5v1114v1114l-55.5,55.5c-44,44-72.7,55.5-135.9,55.5h-78.5l51.7,45.9c70.8,59.3,72.8,160.8,7.7,231.6c-38.3,40.2-61.3,47.9-157,47.9h-111v411.5v411.5h191.4c179.9,0,197.1,3.8,239.3,47.9l47.9,45.9v700.5c0,715.9-3.8,754.1-74.7,807.7c-19.1,15.3-103.3,23-223.9,24.9h-195.2l-7.7,158.9c-3.8,114.8-17.2,181.8-49.8,246.9c-70.8,143.6-201,273.7-344.5,344.5l-128.2,63.2l-3837.7,3.8C2840.9,1262.7,1170,1257,1127.9,1247.4z M8914.3,893.3c111-57.4,162.7-156.9,162.7-317.7V445.4h-189.5c-170.3,0-197.1-3.8-241.2-44l-51.7-42.1v-725.4v-723.5l44-45.9c40.2-42.1,57.4-45.9,241.2-45.9H9077v-411.5v-411.5h-107.2c-128.3,0-166.5-19.1-199.1-93.8c-28.7-70.8-13.4-141.6,42.1-193.3l42.1-38.3h-220.1h-218.2l-24.9,101.4c-11.5,53.6-53.6,162.7-91.9,241.2c-84.2,170.3-289,386.6-449.8,478.5l-105.3,59.3l7.6,160.8c15.3,287.1,5.7,302.4-451.7,756.1C6843.2-79.1,6789.6-44.6,6550.4-44.6c-225.9,0-281.4-34.5-715.9-453.6c-436.4-421.1-490-499.6-490-725.4v-130.2h-424.9h-426.8l-1.9,130.2c-1.9,223.9-36.4,273.7-474.7,708.2c-446,444.1-484.3,468.9-729.3,470.9C3043.8-42.7,2996-73.3,2527-544.2c-365.6-367.5-396.2-405.8-424.9-501.5c-38.3-132.1-38.3-264.1,0-379l30.6-90l-53.6-36.4c-30.6-21.1-112.9-97.6-183.8-170.4c-139.7-141.6-269.9-375.2-294.8-526.4l-13.4-82.3h-220.1c-222,0-222,0-181.8,38.3c78.5,72.7,80.4,176.1,1.9,248.8c-32.5,28.7-67,38.3-153.1,38.3H923v411.5v411.5h197.1c302.4,0,279.5-67,281.4,798.2c1.9,488.1-3.8,721.6-17.2,750.3c-34.5,65.1-84.2,78.5-277.5,78.5H923v124.4c0,199.1,70.8,304.3,231.6,352.2c42.1,11.5,1441.3,17.2,3874.1,15.3l3809-3.8L8914.3,893.3z M1076.2-368.1v-488.1H750.8H425.4v488.1V120h325.4h325.4V-368.1z M9574.6-368.1v-488.1h-325.4h-325.4v488.1V120h325.4h325.4V-368.1z M3380.7-368.1c91.9-44,790.5-754.2,807.7-821.1c7.7-30.6,5.7-78.5-3.8-105.3l-17.2-49.8l-870.9-5.7c-972.3-5.7-918.8-11.5-918.8,128.3c0,61.2,30.6,97.6,377.1,446C3200.8-329.8,3241-303,3380.7-368.1z M6655.7-375.8c32.5-21,222-199.1,424.9-398.1c382.8-377.1,405.8-409.6,365.6-526.4l-19.1-53.6h-865.2c-646.9,0-870.9,5.7-888.1,23c-30.6,30.6-28.7,139.7,3.8,202.9c30.6,55.5,717.8,725.4,784.8,763.7C6521.7-329.8,6590.6-333.6,6655.7-375.8z M3262-1717.5c-88.1-82.3-70.8-204.8,36.4-266.1c153.1-84.2,306.3,132.1,179.9,256.5l-45.9,47.9H3863h430.7l-51.7-45.9c-120.6-101.4-30.6-296.7,124.4-271.8c134,21,183.8,176.1,88,269.9l-45.9,47.9h432.6h432.6l-51.7-40.2c-107.2-84.2-36.4-285.2,101.5-285.2c147.4,0,220.1,185.7,109.1,279.4l-51.7,45.9h430.7h430.7l-45.9-47.9c-78.5-76.6-63.2-201,30.6-248.8c80.4-42.1,128.3-34.5,191.4,26.8c68.9,68.9,70.8,134,5.8,210.5l-49.8,59.3h423h421.1l-45.9-47.9c-67-65.1-63.2-149.3,7.7-222c34.4-32.5,76.6-55.5,107.2-55.5s72.7,23,107.2,55.5c72.8,72.7,72.8,151.2,3.8,222l-53.6,51.7l86.1-13.4c287.1-47.9,530.2-245,622.1-505.3c42.1-122.5,38.3-135.9-38.3-135.9c-57.4,0-70.8,9.6-93.8,65.1c-28.7,67-118.7,114.8-179.9,93.8c-53.6-19.1-118.7-86.1-118.7-124.4c0-32.5-23-34.5-335-34.5s-335,1.9-335,34.5c0,38.3-65.1,105.3-120.6,124.4c-57.4,21.1-157-32.5-183.8-99.5l-24.9-59.3h-319.7h-317.7l-28.7,63.2c-15.3,32.5-51.7,72.7-80.4,86.1c-72.7,34.4-181.8-11.5-212.5-91.9l-21.1-57.4h-321.6c-268,0-321.6,3.8-321.6,26.8c0,15.3-19.1,51.7-44,78.5c-63.2,74.7-174.2,74.7-235.4,1.9c-24.9-28.7-45.9-65.1-45.9-80.4c0-23-53.6-26.8-323.5-26.8h-323.5l-21.1,57.4c-21.1,65.1-128.2,122.5-187.6,101.4c-55.5-19.1-120.6-86.1-120.6-124.4c0-32.5-23-34.5-325.4-34.5h-325.4l-26.8,65.1c-28.7,67-118.7,114.8-179.9,93.8c-53.6-19.1-118.7-86.1-118.7-124.4c0-32.5-23-34.5-335-34.5c-302.4,0-335,3.8-335,32.5c0,17.2-23,55.5-49.8,84.2l-51.7,53.6l53.6,88c28.7,49.8,86.1,124.4,130.2,168.4l76.6,76.6l26.8-67c47.9-118.7,166.5-143.6,256.5-55.5c61.2,63.2,68.9,111,26.8,193.3c-26.8,51.7-26.8,55.5,15.3,63.2c23,3.8,204.8,9.6,403.9,11.5l363.7,1.9L3262-1717.5z M1076.2-3413.3c0-482.4,7.7-769.5,19.1-794.3c36.4-67,120.6-93.8,306.3-93.8h172.3v-76.6v-76.6H999.6H425.4v899.6v899.6h325.4h325.4V-3413.3z M8592.7-3310l1.9-647H4998.1H1401.6v637.4c0,352.2,5.7,645,13.4,650.8c5.7,7.7,1623.1,11.5,3592.7,9.6l3581.2-5.7L8592.7-3310z M9574.6-3555v-899.6h-574.2h-574.2v76.6v76.6h172.3c185.7,0,269.9,26.8,306.3,93.8c11.5,24.9,19.1,312,19.1,794.3v758h325.4h325.4V-3555z"/></g></g>
</svg>