<?xml version="1.0" encoding="utf-8"?>
<!-- Svg Vector Icons : http://www.onlinewebfonts.com/icon -->
<!DOCTYPE svg PUBLIC "-//W3C//DTD SVG 1.1//EN" "http://www.w3.org/Graphics/SVG/1.1/DTD/svg11.dtd">
<svg version="1.1" xmlns="http://www.w3.org/2000/svg" xmlns:xlink="http://www.w3.org/1999/xlink" x="0px" y="0px" viewBox="0 0 1000 1000" enable-background="new 0 0 1000 1000" xml:space="preserve">
<metadata> Svg Vector Icons : http://www.onlinewebfonts.com/icon </metadata>
<g><g transform="translate(0.000000,512.000000) scale(0.100000,-0.100000)"><path d="M1508.7,4932l-172.3-84.2H766.1H193.8l-45.9-47.9l-47.9-45.9V43.4V-4669l55.5-55.5L211-4780h298.6c285.2,0,298.6,1.9,350.3,45.9c47.9,40.2,53.6,61.2,59.3,189.5l7.7,145.5l380.9-189.5l380.9-191.4h294.8c285.2,0,298.6,1.9,350.3,45.9c51.7,44,53.6,53.6,59.3,248.8l7.7,202.9H5000h2599.3l7.7-202.9c5.7-195.2,7.6-204.8,59.3-248.8c51.7-44,65.1-45.9,350.3-45.9h294.8l380.9,191.4l380.9,189.5l7.7-145.5c5.7-128.3,11.5-149.3,59.3-189.5c51.7-44,65.1-45.9,350.3-45.9H9789l55.5,55.5l55.5,55.5V43.4v4710.5l-47.9,45.9l-45.9,47.9h-572.3h-570.4l-178,86.1l-176.1,86.1h-292.9c-264.1,0-298.6-3.8-342.6-38.3c-24.9-21.1-53.6-59.3-59.3-86.1l-11.5-47.9H5000H2396.9l-11.5,47.9c-5.7,26.8-34.5,65.1-59.3,86.1c-44,34.4-78.5,38.3-348.4,36.4h-298.6L1508.7,4932z M2052.3,120v-4574.6h-76.6h-76.6V120v4574.6h76.6h76.6V120z M8100.8,120v-4574.6h-76.6h-76.6V120v4574.6h76.6h76.6V120z M1554.7,120v-4459.8l-315.8,157L923-4023.9V120v4143.9l312,157c170.4,86.1,312,156.9,315.8,156.9C1552.8,4579.8,1554.7,2573.8,1554.7,120z M9077,120v-4143.9l-315.8-158.9l-315.8-157V120v4459.8l315.8-157l315.8-158.9V120z M658.9,4508.9c-13.4-5.7-36.4-34.4-53.6-65.1c-24.9-49.8-26.8-570.4-26.8-4473.2l1.9-4415.7l-76.6-5.7l-78.5-5.7V32v4490.4l130.2-1.9C626.4,4520.4,672.3,4514.7,658.9,4508.9z M7603.1,4445.8v-76.6H5000H2396.9v76.6v76.6H5000h2603.1V4445.8z M9574.6,33.9v-4488.5h-80.4h-82.3l5.7,4406.2c1.9,2425.1,0,4427.2-5.7,4452.1c-5.7,23-26.8,59.3-47.9,80.4c-38.3,38.3-38.3,38.3,86.1,38.3h124.4V33.9z M4827.7,3393v-650.8H3612.3H2396.9V3393v650.8h1215.4h1215.4V3393z M7603.1,3393v-650.8H6387.7H5172.3V3393v650.8h1215.4h1215.4V3393z M4827.7,2158.5v-239.3h-151.2h-151.2l-7.7,118.7c-7.7,97.6-17.2,124.4-61.2,162.7c-72.7,61.2-153.1,57.4-223.9-11.5c-47.9-49.8-55.5-70.8-55.5-162.7v-107.2h-76.6h-76.6v97.6c0,147.4-55.5,225.9-158.9,227.8c-114.8,0-185.7-93.8-185.7-248.8v-76.6h-76.6h-76.6v114.8c0,97.6-7.7,124.4-47.9,162.7c-63.2,65.1-160.8,65.1-227.8-1.9c-42.1-44-49.8-67-49.8-162.7v-112.9h-76.6h-76.6v107.2c0,91.9-7.7,112.9-55.5,162.7c-70.8,68.9-151.2,72.7-223.9,11.5c-44-38.3-53.6-65.1-61.2-162.7l-7.7-118.7h-151.2h-151.2v239.3v239.3h1215.4h1215.4V2158.5z M7603.1,1747v-650.8H6387.7H5172.3V1747v650.8h1215.4h1215.4V1747z M2707,1390.9c5.7-195.2,7.7-204.8,59.3-248.8c74.7-63.2,155-59.3,225.9,9.6c53.6,55.5,55.5,61.3,55.5,248.8v193.3h76.6h76.6v-193.3c0-187.6,1.9-193.3,55.5-248.8c67-65.1,147.4-72.7,214.4-19.1c42.1,32.5,45.9,55.5,55.5,245l9.6,206.7l72.7,5.7l70.8,5.7v-164.6c0-97.6,11.5-189.5,26.8-229.7c49.8-118.7,170.3-141.6,262.2-49.8c53.6,55.5,55.5,61.3,55.5,248.8v193.3h76.6h76.6v-193.3c0-187.6,1.9-193.3,55.5-248.8c88-88.1,202.9-70.8,260.3,40.2c19.1,38.3,28.7,111,28.7,229.7v172.3h153.1h153.1V-282v-1875.8h-82.3h-82.3l1.9,139.7c0,116.8-7.7,151.2-51.7,227.8c-30.6,47.9-90,120.6-134,157c-135.9,116.7-197.1,126.3-867.1,126.3c-691,0-735-7.7-886.2-143.6c-128.2-116.7-185.7-246.9-168.4-396.2l11.5-111H2483h-86.1V-282v1875.8h151.2h151.2L2707,1390.9z M5681.4,751.6c-187.6-57.4-356-283.3-356-476.6c0-74.6,59.3-218.2,111-275.6c24.9-28.7,26.8-40.2,7.7-67c-99.5-137.8-141.6-306.3-99.5-413.4c17.2-49.8,17.2-49.8-76.6-49.8h-95.7V120v650.8l283.3-1.9C5643.1,768.9,5719.7,761.2,5681.4,751.6z M7603.1,120v-650.8h-95.7c-93.8,0-93.8,0-76.6,49.8c42.1,107.2,13.4,254.6-70.8,367.5l-47.9,63.2l45.9,70.8c122.5,185.7,120.6,346.4-5.7,532.1c-57.4,84.2-172.3,172.3-258.4,199.1c-38.3,9.6,38.3,17.2,227.8,17.2l281.4,1.9V120z M7076.8,397.5c32.5-30.6,47.9-67,47.9-114.8s-15.3-84.2-47.9-114.8l-45.9-47.9h-643.1h-643.1l-45.9,47.9c-32.5,30.6-47.9,67-47.9,114.8s15.3,84.2,47.9,114.8l45.9,47.9h643.1h643.1L7076.8,397.5z M7076.8-253.2c32.5-30.6,47.9-67,47.9-114.8s-15.3-84.2-47.9-114.8l-45.9-47.9h-643.1h-643.1l-45.9,47.9c-32.5,30.6-47.9,67-47.9,114.8s15.3,84.2,47.9,114.8l45.9,47.9h643.1h643.1L7076.8-253.2z M7603.1-1510.8v-647H6387.7H5172.3v647v645h1215.4h1215.4V-1510.8z M4263.1-1859.2c51.7-21,67-42.1,76.6-93.8c15.3-76.6,1.9-134-40.2-176.1c-24.9-24.9-126.3-28.7-685.2-28.7c-503.4,0-662.3,5.7-689.1,24.9c-17.2,13.4-38.3,61.3-44,105.3c-13.4,93.8,26.8,168.4,93.8,181.8c24.9,3.8,310.1,9.6,633.5,11.5C4079.3-1832.3,4209.5-1838.1,4263.1-1859.2z M4827.7-2990.4v-488.1H3612.3H2396.9v488.1v488.1h1215.4h1215.4V-2990.4z M7603.1-2990.4v-488.1H6387.7H5172.3v488.1v488.1h1215.4h1215.4V-2990.4z M7603.1-3880.4v-76.6H5000H2396.9v76.6v76.6H5000h2603.1V-3880.4z"/><path d="M5373.2,3172.9c-67-65.1-65.1-168.4,1.9-229.7l51.7-47.9h964.7h964.7l45.9,47.9c32.5,30.6,47.9,67,47.9,114.8s-15.3,84.2-47.9,114.8l-45.9,47.9h-968.5h-968.5L5373.2,3172.9z"/></g></g>
</svg>