<?xml version="1.0" encoding="utf-8"?>
<!-- Svg Vector Icons : http://www.onlinewebfonts.com/icon -->
<!DOCTYPE svg PUBLIC "-//W3C//DTD SVG 1.1//EN" "http://www.w3.org/Graphics/SVG/1.1/DTD/svg11.dtd">
<svg version="1.1" xmlns="http://www.w3.org/2000/svg" xmlns:xlink="http://www.w3.org/1999/xlink" x="0px" y="0px" viewBox="0 0 1000 1000" enable-background="new 0 0 1000 1000" xml:space="preserve">
<metadata> Svg Vector Icons : http://www.onlinewebfonts.com/icon </metadata>
<g><g transform="translate(0.000000,512.000000) scale(0.100000,-0.100000)"><path d="M155.5,4964.5L100,4909V120v-4789l55.5-55.5L211-4780h298.6c283.3,0,298.6,1.9,348.4,44c44,38.3,53.6,65.1,61.2,162.7l7.7,118.7H5000h4073.1l7.7-118.7c7.6-97.6,17.2-124.4,61.3-162.7c49.8-42.1,65.1-44,348.3-44H9789l55.5,55.5l55.5,55.5V120v4789l-55.5,55.5L9789,5020H5000H211L155.5,4964.5z M9574.6,120v-4574.6h-88h-90l11.5,80.4c13.4,93.8-23,193.3-78.5,224c-28.7,15.3-1295.8,21-4335.3,21c-4199.5,0-4297.1,0-4341.1-36.4c-36.4-28.7-47.9-61.2-55.5-158.9l-9.6-120.6l-80.4-5.7l-82.3-5.7V118.1v4576.5H5000h4574.6V120z"/><path d="M639.8,4478.3l-42.1-45.9V282.7L595.7-3867l42.1-45.9l42.1-44h4320h4320l40.2,44l42.1,45.9l1.9,4149.7v4149.7l-42.1,44l-42.1,45.9H5000H680L639.8,4478.3z M9077,3546.2v-650.8H5000H923v650.8V4197h4077h4077V3546.2z M9077,1919.2v-650.8H5000H923v650.8V2570h4077h4077V1919.2z M9077,282.7v-641.2H5000H923v641.2v641.2h4077h4077V282.7z M9077-1353.8v-650.8H5000H923v650.8V-703h4077h4077V-1353.8z M9077-2980.8v-650.8H5000H923v650.8v650.8h4077h4077V-2980.8z"/><path d="M4557.9,3662.9c-61.2-63.2-68.9-111-26.8-191.4c42.1-82.3,114.8-97.6,468.9-97.6s426.8,15.3,468.9,97.6c42.1,80.4,34.5,128.2-26.8,191.4l-55.5,55.5H5000h-386.6L4557.9,3662.9z"/><path d="M4592.3,2060.9c-101.5-55.5-116.8-174.2-34.5-258.4l55.5-55.5h382.8c352.2,0,384.7,3.8,430.7,38.3c93.8,74.6,80.4,222-26.8,277.5C5321.6,2104.9,4668.9,2103,4592.3,2060.9z"/><path d="M4552.1,386.1c-26.8-32.5-49.8-78.5-49.8-103.4s23-70.8,49.8-103.4l49.8-59.3H5000h398.1l49.8,59.3c26.8,32.5,49.8,78.5,49.8,103.4s-23,70.8-49.8,103.4l-49.8,59.3H5000h-398.1L4552.1,386.1z"/><path d="M4557.9-1237.1c-61.2-63.2-68.9-111-26.8-191.4c42.1-82.3,114.8-97.6,468.9-97.6s426.8,15.3,468.9,97.6c42.1,80.4,34.5,128.3-26.8,191.4l-55.5,55.5H5000h-386.6L4557.9-1237.1z"/><path d="M4592.3-2839.1c-101.5-55.5-116.8-174.2-34.5-258.4l55.5-55.5h382.8c352.2,0,384.7,3.8,430.7,38.3c93.8,74.7,80.4,222-26.8,277.5C5321.6-2795.1,4668.9-2797,4592.3-2839.1z"/></g></g>
</svg>