<?xml version="1.0" encoding="utf-8"?>
<!-- Svg Vector Icons : http://www.onlinewebfonts.com/icon -->
<!DOCTYPE svg PUBLIC "-//W3C//DTD SVG 1.1//EN" "http://www.w3.org/Graphics/SVG/1.1/DTD/svg11.dtd">
<svg version="1.1" xmlns="http://www.w3.org/2000/svg" xmlns:xlink="http://www.w3.org/1999/xlink" x="0px" y="0px" viewBox="0 0 1000 1000" enable-background="new 0 0 1000 1000" xml:space="preserve">
<metadata> Svg Vector Icons : http://www.onlinewebfonts.com/icon </metadata>
<g><g transform="translate(0.000000,512.000000) scale(0.100000,-0.100000)"><path d="M4683.1,4998.1c-408.2-74.7-759-260.7-1059.9-563.5c-251.1-253-406.3-515.6-509.8-858.6c-44.1-145.7-51.7-212.7-61.3-498.3l-7.7-331.6h-898.9c-981.3,0-1013.9-3.8-1052.2-105.4c-11.5-30.7-19.2-429.3-19.2-1035V622.5l-291.3-7.7c-322-9.6-379.5-23-502.1-130.3C119.7,340.8,56.5,128,131.2-36.8C181-153.7,290.3-270.6,393.8-320.4c47.9-23,141.8-46,218.5-51.7l136.1-11.5v-484.9v-486.8h287.5c159.1,0,287.5-3.8,287.5-7.7s-24.9-61.3-55.6-128.4c-132.2-295.2-212.7-661.2-212.7-979.4c0-90.1,13.4-279.8,30.7-421.6c47.9-392.9,15.3-693.8-90.1-875.9c-24.9-42.1-141.8-208.9-258.7-369.9c-360.3-494.5-358.4-490.6-258.7-592.2c53.7-51.8,65.2-55.6,216.6-55.6c266.4,0,471.5,72.8,661.2,233.8c277.9,231.9,488.7,615.2,621,1125c51.7,193.6,61.3,272.1,74.8,615.2c9.6,216.6,23,431.2,28.8,479.2c51.8,337.3,189.7,665,366.1,860.5l107.3,116.9H2801h247.2v-325.8V-2007h1954.9H6958v325.8v325.8h247.2h247.2l92-103.5c180.2-197.4,299-456.2,362.2-782c17.3-88.2,38.3-339.2,47.9-561.6c13.4-348.8,23-431.2,72.8-622.9c130.3-504,346.9-897,621-1126.9c193.6-162.9,396.7-233.8,663.1-233.8c151.4,0,162.9,3.8,216.6,55.6c99.7,99.6,97.8,101.6-279.8,621c-105.4,145.7-212.7,299-237.7,341.2c-107.3,182.1-138,486.8-90.1,874c70.9,588.4,13.4,973.6-231.9,1514.1c-7.7,19.2,55.6,24.9,279.8,24.9h289.4v486.8v484.9l132.2,11.5c157.1,13.4,239.6,44.1,335.4,128.4C9844.4-138.4,9900-23.4,9900,120.4c0,147.6-57.5,262.6-185.9,371.8c-116.9,99.7-226.2,126.5-527.1,126.5h-254.9v985.1c0,607.6-7.7,1006.2-19.2,1036.9c-38.3,101.6-70.9,105.4-1050.3,105.4h-898.9l-11.5,331.6c-7.7,279.8-15.3,354.6-57.5,492.6c-67.1,220.4-132.3,364.2-251.1,546.2C6212.5,4775.7,5422.9,5132.2,4683.1,4998.1z M5300.2,4672.2c525.1-92,954.5-415.9,1176.8-891.2c151.4-325.8,143.7-228.1,149.5-1776.7l7.6-1385.7h-1631h-1631l5.8,1385.7c7.7,1370.4,7.7,1385.7,49.8,1523.7C3678.8,4344.5,4455,4819.8,5300.2,4672.2z M3029.1,2084.9v-316.2h-814.5H1400v316.2v316.2h814.5h814.5V2084.9z M8606.3,2084.9v-316.2h-814.5h-814.6v316.2v316.2h814.6h814.5V2084.9z M3029.1,1097.8V772h-814.5H1400v325.8v325.8h814.5h814.5V1097.8z M8606.3,1097.8V772h-814.5h-814.6v325.8v325.8h814.6h814.5V1097.8z M9520.5,258.4c76.7-42.2,80.5-231.9,3.8-272.2C9501.3-27.2,8006.4-33,5037.6-33c-2449.4,0-4471.4,0-4494.4,0c-65.2,0-120.7,65.2-120.7,141.8c0,93.9,17.2,128.4,78.6,153.3C581.6,296.7,9461.1,292.9,9520.5,258.4z M8928.3-698l-5.8-322h-971.7h-971.7l-5.8,162.9l-5.7,162.9H5003.1H3038.7l-5.7-162.9l-5.8-162.9h-971.7h-971.7l-5.7,322l-3.8,320.1h3929h3929L8928.3-698z M6632.2-1355.4v-325.8H5003.1H3374.1v325.8v325.8h1629.1h1629.1V-1355.4z M2074.6-1407.1c-65.2-93.9-174.4-325.8-224.2-479.2c-78.6-235.7-105.4-444.6-124.6-897c-17.3-467.6-49.8-642.1-180.2-958.3c-82.4-207-162.9-331.6-299-477.2c-90.1-95.8-276-220.4-299-199.3c-3.8,3.8,49.8,84.3,118.8,180.1l124.6,170.6l-61.3,49.8c-55.6,44.1-59.4,57.5-47.9,118.8c7.7,38.3,21.1,74.8,28.7,80.5c30.7,17.2,101.6-57.5,115-124.6l13.4-67.1l53.7,103.5c126.5,245.3,166.7,544.3,124.6,935.3c-42.2,410.2-32.6,780,26.8,1002.4c47.9,184,128.4,381.4,216.6,530.9l47.9,82.4h201.2H2111L2074.6-1407.1z M8410.8-1566.2c193.6-391,249.2-762.8,185.9-1293.7c-51.8-431.2-17.3-782,95.8-1006.2c26.8-51.8,120.7-197.4,208.9-320.1c90.1-124.6,159.1-228.1,155.2-231.9c-15.3-15.3-178.2,80.5-243.4,141.8c-170.6,159.1-285.6,343.1-381.4,603.7c-111.2,306.7-134.2,437-151.4,889.3c-26.8,663.2-115,1015.8-346.9,1366.5l-40.3,63.3l207-5.8l208.9-5.8L8410.8-1566.2z"/><path d="M5568.5,4012.9c-107.3-69-1692.3-1677-1705.7-1728.7c-26.8-113.1,103.5-231.9,207-189.7c23,7.7,425.5,400.6,895,870.1c803,805,850.9,856.7,850.9,921.9C5815.8,4014.9,5679.7,4085.8,5568.5,4012.9z"/><path d="M4792.3,3959.3c-15.3-5.7-212.8-191.7-435.1-415.9c-389.1-385.2-408.2-408.2-408.2-477.2c0-93.9,67.1-166.7,157.2-166.7c55.6,0,105.4,44.1,479.1,417.8c368,368,417.8,423.6,417.8,477.2C5003.1,3897.9,4884.3,3989.9,4792.3,3959.3z"/><path d="M5434.4,3052.7c-21.1-7.7-162.9-139.9-312.4-293.2c-258.7-260.7-276-281.7-276-350.7c0-90.1,70.9-161,162.9-161c51.8,0,99.7,38.3,352.7,293.2c254.9,253,293.2,300.9,293.2,352.7C5654.8,3004.8,5530.2,3094.9,5434.4,3052.7z"/><path d="M1984.5,2224.8c-97.8-55.6-116.9-178.2-38.3-254.9c44.1-46,57.5-47.9,272.2-47.9c235.7,1.9,266.4,9.6,308.6,90.1c36.4,67.1,26.8,120.7-32.6,180.2c-55.6,55.6-59.4,55.6-264.5,55.6C2111,2247.8,2007.5,2238.2,1984.5,2224.8z"/><path d="M7511.9,2192.2c-70.9-72.8-72.9-151.4-5.8-220.4c49.8-47.9,57.5-49.8,279.8-49.8c216.6,0,230,1.9,274.1,47.9c32.6,30.7,47.9,67.1,47.9,109.2c-1.9,134.2-72.8,168.7-335.4,168.7C7573.3,2247.8,7567.5,2245.9,7511.9,2192.2z"/><path d="M1955.8,1216.7c-72.8-74.8-76.7-159.1-9.6-224.2c44.1-46,57.5-47.9,277.9-47.9c220.4,0,233.8,1.9,277.9,47.9c61.3,59.4,61.3,143.7,1.9,214.7c-46,51.7-51.8,53.7-268.3,59.4l-222.3,7.7L1955.8,1216.7z"/><path d="M7559.9,1251.2c-105.4-42.2-134.2-182.1-55.6-258.7c44.1-46,57.5-47.9,277.9-47.9c220.4,0,233.8,1.9,277.9,47.9c67.1,65.2,63.2,149.5-7.7,222.3c-55.6,53.7-61.3,55.6-254.9,53.7C7688.3,1268.4,7580.9,1260.7,7559.9,1251.2z"/><path d="M4407.1-1238.5c-70.9-72.8-74.7-157.2-7.7-222.3l46-47.9h557.7h557.7l46,47.9c67.1,65.2,63.3,149.5-7.7,222.3l-55.6,55.6h-540.5h-540.5L4407.1-1238.5z"/></g></g>
</svg>