<?xml version="1.0" encoding="utf-8"?>
<!-- Svg Vector Icons : http://www.onlinewebfonts.com/icon -->
<!DOCTYPE svg PUBLIC "-//W3C//DTD SVG 1.1//EN" "http://www.w3.org/Graphics/SVG/1.1/DTD/svg11.dtd">
<svg version="1.1" xmlns="http://www.w3.org/2000/svg" xmlns:xlink="http://www.w3.org/1999/xlink" x="0px" y="0px" viewBox="0 0 1000 1000" enable-background="new 0 0 1000 1000" xml:space="preserve">
<metadata> Svg Vector Icons : http://www.onlinewebfonts.com/icon </metadata>
<g><g transform="translate(0.000000,511.000000) scale(0.100000,-0.100000)"><path d="M2697.5,4953.3l-56.7-54.4V110v-4788.8l56.7-54.5l54.4-56.7H5000h2248.1l54.4,56.7l56.7,54.5V110v4788.8l-56.7,54.4l-54.4,56.7H5000H2751.9L2697.5,4953.3z M6996.3,110v-4537H5000H3003.7V110v4537H5000h1996.3V110z"/><path d="M3423.4,4227.4l-56.7-54.4V110v-4062.9l56.7-54.5l54.4-56.7H5000h1522.2l54.5,56.7l56.7,54.5V110v4062.9l-56.7,54.4l-54.5,56.7H5000H3477.8L3423.4,4227.4z M6270.4,110v-3811.1H5000H3729.6V110v3811.1H5000h1270.4V110z"/><path d="M4512.3,3501.4c-36.3-36.3-56.7-79.4-56.7-129.3c0-61.3,34-106.6,233.7-306.3c199.6-199.6,245-233.7,306.3-233.7c99.8,0,186,86.2,186,186c0,61.3-34,106.6-233.7,306.3c-199.6,199.6-245,233.7-306.3,233.7C4591.7,3558.2,4548.6,3537.7,4512.3,3501.4z"/><path d="M5238.2,3501.4c-36.3-36.3-56.7-79.4-56.7-129.3c0-61.3,34-106.6,233.7-306.3c199.6-199.6,245-233.7,306.3-233.7c99.8,0,186,86.2,186,186c0,61.3-34,106.6-233.7,306.3c-199.6,199.6-245,233.7-306.2,233.7C5317.6,3558.2,5274.5,3537.7,5238.2,3501.4z"/><path d="M5238.2,2775.5c-36.3-36.3-56.7-79.4-56.7-129.3c0-61.3,34-106.6,233.7-306.3c199.6-199.6,245-233.7,306.3-233.7c99.8,0,186,86.2,186,186c0,61.3-34,106.6-233.7,306.3c-199.6,199.6-245,233.7-306.2,233.7C5317.6,2832.2,5274.5,2811.8,5238.2,2775.5z"/></g></g>
</svg>