<?xml version="1.0" encoding="utf-8"?>
<!-- Svg Vector Icons : http://www.onlinewebfonts.com/icon -->
<!DOCTYPE svg PUBLIC "-//W3C//DTD SVG 1.1//EN" "http://www.w3.org/Graphics/SVG/1.1/DTD/svg11.dtd">
<svg version="1.1" xmlns="http://www.w3.org/2000/svg" xmlns:xlink="http://www.w3.org/1999/xlink" x="0px" y="0px" viewBox="0 0 1000 1000" enable-background="new 0 0 1000 1000" xml:space="preserve">
<metadata> Svg Vector Icons : http://www.onlinewebfonts.com/icon </metadata>
<g><g transform="translate(0.000000,512.000000) scale(0.100000,-0.100000)"><path d="M100,207.4v-4813.9h162.7c135.9,0,162.7-5.7,162.7-30.6c0-42.1,105.3-141.7,151.2-141.7c68.9,0,134,42.1,164.6,107.2l30.6,65.1h2275.8c2061.4,0,2277.7-1.9,2277.7-30.6c0-42.1,105.3-141.7,151.2-141.7c68.9,0,134,42.1,164.6,107.2l30.6,65.1H5823h153.1V207.4v4813.9H3038.1H100V207.4z M5650.8,207.4v-4488.5H3038.1H425.4V207.4v4488.5h2612.7h2612.7V207.4z"/><path d="M1744.2,4529.4l-1142.7-5.7l-7.7-1135c-5.7-622.1-5.7-2094-3.8-3267.3c3.8-1173.3,5.7-2610.8,7.7-3190.7v-1058.5h2450h2450V197.8v4325.8H4431.5c-587.6,0-1175.2,3.8-1307.3,5.7C2992.1,4533.2,2372,4533.2,1744.2,4529.4z M2875.4,3384.7v-813.5h-976.2H923v813.5v813.5h976.2h976.2V3384.7z M5172.3,3384.7v-813.5h-985.7h-985.7v813.5v813.5h985.7h985.7V3384.7z M2875.4,1346.3V444.7l-243.1,5.7l-245,5.7l-5.7,733.1l-3.8,731.2h-727.3H923v162.7v162.7h976.2h976.2V1346.3z M5162.7,1346.3v-890l-980-5.7l-981.9-3.8v899.6v899.6l981.9-3.8l980-5.7V1346.3z M1076.2,1020.9V446.7h-76.6H923v574.2v574.2h76.6h76.6V1020.9z M1564.3,1020.9V456.2h-76.6h-76.6l-5.7,545.5c-1.9,300.5,0,557,5.7,570.4c5.7,17.2,34.4,23,80.4,19.1l72.7-5.7V1020.9z M2052.3,1020.9V446.7h-76.6h-76.6v574.2v574.2h76.6h76.6V1020.9z M2875.4-778.3v-899.6h-976.2H923v899.6v899.6h976.2h976.2V-778.3z M5168.4-121.8l-5.7-245l-80.4-5.7l-82.3-5.7v86.1v88h-650.8h-650.8V-941v-736.9h-248.8h-248.8v899.6v899.6h985.7h987.6L5168.4-121.8z M4177-1103.7v-574.2h-76.6h-76.6v574.2v574.2h76.6h76.6V-1103.7z M4674.6-1103.7v-574.2H4598h-76.6v574.2v574.2h76.6h76.6V-1103.7z M5153.1-1189.9v-488.1h-76.6H5000v488.1v488.1h76.6h76.6V-1189.9z M2875.4-2902.9v-899.6h-976.2H923v899.6v899.6h976.2h976.2V-2902.9z M4674.6-2079.9v-74.7l245-5.7l243.1-5.7v-813.5V-3793l-980-5.7l-981.9-3.8v899.6v899.6h736.9h736.9V-2079.9z"/><path d="M1504.9-2183.3c-139.7-61.2-122.5-254.6,24.9-298.6c45.9-13.4,197.1-19.1,411.5-15.3c327.3,5.7,338.8,7.6,386.6,51.7c68.9,65.1,68.9,168.4,0,233.5c-47.9,44-57.4,45.9-405.8,49.8C1652.3-2158.4,1549-2164.1,1504.9-2183.3z"/><path d="M3813.3-2169.9c-118.7-44-155-191.4-65.1-275.6c47.9-44,57.4-45.9,405.8-51.7c313.9-3.8,365.6-1.9,424.9,28.7c126.3,65.1,126.3,214.4,0,277.5c-57.4,28.7-118.7,34.5-402,32.5C3993.2-2158.4,3828.6-2164.1,3813.3-2169.9z"/><path d="M7453.8,136.6c5.7-478.5,5.7-486.2,57.4-593.4c61.3-132.1,183.7-258.4,323.5-333l103.4-55.5v-248.8V-1343l-112.9-9.6l-114.8-9.6l-21-86.1c-34.5-132.1-97.6-241.2-212.5-367.5c-135.9-147.4-178-241.2-179.9-392.4v-120.6h-497.7h-497.7v-650.8v-648.9l285.2-5.7l287.1-5.7l-201-465.1c-231.6-541.7-239.3-583.8-120.6-645c153.1-80.4,179.9-44,447.9,578l229.7,532.1l870.9,5.7l872.8,3.8l225.9-530.2c139.7-331.1,243.1-549.3,273.7-574.2c97.6-91.9,254.6-21.1,254.6,112.9c0,38.3-76.6,243.1-191.4,511.1c-105.3,245-191.4,453.6-191.4,463.2s118.7,17.2,277.5,17.2H9900v650.8v650.8h-463.2h-465.1l-1.9,130.2c0,155-30.6,216.3-176.1,377.1c-109.1,120.6-179.9,250.7-214.4,388.6l-21,80.4h-141.7H8273v258.4v258.4l91.9,42.1c116.8,55.5,269.9,208.6,329.2,331.1c45.9,93.8,47.9,109.1,53.6,589.5l5.7,491.9h-652.7h-652.7L7453.8,136.6z M7928.5-102.7v-396.2l-57.4,55.5c-32.5,30.6-67,86.1-76.6,122.5c-21,76.6-26.8,581.9-5.7,601c5.7,7.7,40.2,13.4,76.6,13.4h63.2V-102.7z M8426.2-3.1c0-260.3-5.7-308.2-38.3-373.2c-21-42.1-55.5-84.2-76.6-95.7c-38.3-21-38.3-13.4-38.3,373.2v392.4h76.6h76.6V-3.1z M8380.2-1802.4c40.2-68.9,118.7-176.1,174.2-239.3c111-122.5,126.3-185.7,63.2-248.8c-36.4-36.4-63.2-38.3-484.3-38.3c-490,0-491.9,0-520.6,118.7c-11.5,42.1,3.8,68.9,109.1,183.8c67,72.7,147.4,181.8,179.9,241.2l55.5,107.2h174.2h174.2L8380.2-1802.4z M9574.6-2979.5v-325.4H8100.8H6627v325.4v325.4h1473.8h1473.8V-2979.5z"/></g></g>
</svg>