<?xml version="1.0" encoding="utf-8"?>
<!-- Svg Vector Icons : http://www.onlinewebfonts.com/icon -->
<!DOCTYPE svg PUBLIC "-//W3C//DTD SVG 1.1//EN" "http://www.w3.org/Graphics/SVG/1.1/DTD/svg11.dtd">
<svg version="1.1" xmlns="http://www.w3.org/2000/svg" xmlns:xlink="http://www.w3.org/1999/xlink" x="0px" y="0px" viewBox="0 0 1000 1000" enable-background="new 0 0 1000 1000" xml:space="preserve">
<metadata> Svg Vector Icons : http://www.onlinewebfonts.com/icon </metadata>
<g><g transform="translate(0.000000,511.000000) scale(0.100000,-0.100000)"><path d="M4888.9,4972.3C4294.1,4814,3890.7,4209,3987.7,3632l25.5-163.4L2925.7,2376c-748-748-1102.9-1085-1128.4-1074.8c-20.4,7.7-112.3,20.4-204.2,28.1c-679.1,56.2-1302-525.9-1302-1217.7s622.9-1273.9,1302-1217.8c91.9,7.7,183.8,20.4,204.2,28.1c25.5,10.2,319.1-265.5,931.8-878.2l891-891l-206.8-194c-114.9-107.2-262.9-268.1-329.3-357.4l-122.5-165.9h-518.2H1925v-612.7V-4790h3267.7h3267.7v612.7v612.7h-518.2h-520.8l-94.5,137.9c-120,173.6-464.6,508-653.5,630.6c-485.1,319.1-1062,482.5-1605.8,451.8l-227.2-12.8L3768.2-1282.3L2696-207.5l28.1,158.3c20.4,114.9,20.4,206.8,0,319.1L2696,430.7l1031.4,1033.9l1031.4,1033.9l278.3-280.8l280.8-280.8l-53.6-204.2c-63.8-252.7-79.1-885.9-25.5-1110.5c122.5-505.5,334.5-929.3,622.9-1248.4c53.6-56.2,104.6-104.7,114.9-104.7c35.7,0,3742.5,3719.6,3732.4,3745.1c-33.2,86.8-411,357.4-681.6,492.7c-579.5,285.9-1233,354.9-1848.3,191.5l-135.3-35.7l-574.4,571.8c-605.1,599.9-689.3,663.8-988,740.3C5299.9,5023.4,5070.2,5020.8,4888.9,4972.3z M5537.4,4528.1c97-45.9,283.4-214.4,765.9-691.8l638.2-633.1l165.9,51.1c234.9,74,518.2,122.5,730.1,125.1c382.9,0,860.3-127.6,1153.9-314l132.8-81.7L7559.3,1418.7L5994.3-143.7L5915.2-11c-326.8,541.2-390.6,1118.2-199.1,1825.4l61.3,224.6l-633.1,638.2c-727.6,735.2-753.1,773.5-755.7,1097.8c0,219.6,28.1,316.6,145.5,490.2C4740.9,4571.5,5190.2,4688.9,5537.4,4528.1z M3484.8,1811.8l-975.2-975.2l-132.7,127.6l-135.3,130.2l980.3,985.4l980.3,985.4l130.2-137.9l130.2-137.9L3484.8,1811.8z M1902,823.8c171-91.9,250.2-173.6,349.7-365.1c56.2-109.8,66.4-163.4,68.9-347.2c0-199.1-7.7-229.8-86.8-377.8c-97-178.7-176.1-255.3-370.2-357.4c-112.3-58.7-160.8-68.9-347.2-66.4c-255.3,0-411,61.3-574.4,227.2C773.6-294.3,712.4-143.7,714.9,111.6c0,255.3,61.3,411,227.2,574.4C1197.4,941.3,1577.8,994.9,1902,823.8z M4350.3-2469.4c0-7.6-81.7-45.9-181.3-86.8l-181.3-71.5l-873.1,873.1l-873.1,873.1l127.6,132.7l130.2,135.3l926.7-921.6C3934.1-2040.5,4350.3-2461.8,4350.3-2469.4z M5813.1-2837c255.3-74,372.7-127.6,587.2-273.2c158.3-107.2,477.4-395.7,477.4-431.4c0-12.8-725-23-1687.5-23H3505.2l68.9,89.3c86.8,114.9,393.1,362.5,574.4,467.2c165.9,94.4,482.5,201.7,681.6,234.9C5088.1-2732.4,5560.4-2763,5813.1-2837z M8052-4177.3v-204.2H5192.7H2333.5v204.2v204.2h2859.2H8052V-4177.3z"/></g></g>
</svg>