<?xml version="1.0" encoding="utf-8"?>
<!-- Svg Vector Icons : http://www.onlinewebfonts.com/icon -->
<!DOCTYPE svg PUBLIC "-//W3C//DTD SVG 1.1//EN" "http://www.w3.org/Graphics/SVG/1.1/DTD/svg11.dtd">
<svg version="1.1" xmlns="http://www.w3.org/2000/svg" xmlns:xlink="http://www.w3.org/1999/xlink" x="0px" y="0px" viewBox="0 0 1000 1000" enable-background="new 0 0 1000 1000" xml:space="preserve">
<metadata> Svg Vector Icons : http://www.onlinewebfonts.com/icon </metadata>
<g><g transform="translate(0.000000,512.000000) scale(0.100000,-0.100000)"><path d="M1101,4960.7c-59.3-57.4-59.3-59.3-47.9-216.3c36.4-467,264.1-922.6,668-1343.7c333.1-346.5,648.9-572.3,1115.9-802c252.7-124.4,643.1-271.8,886.2-335l80.4-21.1v-390.5v-392.4l-80.4-49.8c-543.6-335-920.7-779-1144.6-1345.6c-139.7-354.1-191.4-890-124.4-1286.2c26.8-164.6,111-457.5,170.4-593.4c13.4-28.7-21.1-32.5-346.5-38.3c-348.4-7.7-363.7-9.6-468.9-61.3c-151.2-74.7-273.7-199.1-344.5-352.2c-51.7-107.2-61.2-149.3-59.3-271.8c0-137.8,11.5-179.9,241.2-805.8c183.8-499.6,254.6-669.9,290.9-702.5c47.9-42.1,63.2-44,423-44c413.4,0,405.8,3.8,321.6-126.3c-84.2-130.2-245-216.3-405.8-218.2c-105.3,0-195.2-80.4-195.2-172.3c0-90,90-172.3,185.7-172.3c340.7,1.9,696.7,287.1,817.3,654.6c9.6,32.5,122.5,34.5,2002.1,34.5c1879.6,0,1992.5-1.9,2002.1-32.5c120.6-369.4,476.6-654.6,817.3-656.5c153.1,0,237.4,166.5,141.7,279.4c-38.3,42.1-68.9,55.5-174.2,67c-168.4,21.1-300.5,93.8-375.1,204.8c-32.5,47.9-57.4,97.6-57.4,112.9c0,19.1,74.7,24.9,371.3,24.9c359.8,0,375.2,1.9,421.1,42.1c38.3,34.4,107.2,204.8,287.1,698.6c130.2,359.8,243.1,696.7,248.8,746.5c34.5,256.5-145.5,560.8-405.8,689.1c-109.1,53.6-111,53.6-560.8,59.3l-451.7,7.7l63.2,166.5C7610.8-1156.7,7616.5-513.5,7429,9c-197.2,549.3-587.6,1037.4-1073.8,1341.8l-158.9,99.5v396.2v396.2l82.3,23c618.2,164.6,1232.7,468.9,1682.5,834.5c206.7,168.4,497.7,484.3,635.5,689.1c210.5,317.7,323.5,627.8,350.3,955.1c11.5,156.9,11.5,158.9-47.9,216.3l-57.4,59.3H5000H1158.5L1101,4960.7z M8588.9,4635.3c0-88-65.1-285.2-153.1-467c-254.6-528.3-815.4-1024-1502.5-1326.4c-591.5-262.2-1223.1-388.6-1939-386.6c-1048.9,0-1946.6,279.5-2681.6,832.6c-216.3,164.6-480.4,434.5-606.8,624c-151.2,227.8-294.8,580-294.8,723.5v40.2H5000h3588.9V4635.3z M4416.2,2125.9c359.8-44,1205.9-23,1403,34.5c30.6,9.6,32.5-11.5,32.5-269.9c0-260.3-1.9-281.4-32.5-268c-116.7,44-413.4,105.3-604.8,124.4c-166.5,15.3-279.5,17.2-434.5,0c-181.8-17.2-493.8-82.3-597.2-124.4c-32.5-13.4-34.4,7.7-34.4,268c0,258.4,1.9,279.5,34.4,269.9C4199.9,2154.6,4305.2,2139.3,4416.2,2125.9z M5530.2,1337.3c855.6-220.1,1426-800.1,1638.4-1667.1c24.9-105.3,32.5-216.3,30.6-507.2c0-338.8-5.8-390.5-51.7-558.9c-166.5-622.1-616.3-1165.7-1188.6-1433.6c-336.9-157-660.4-218.2-1071.9-202.9c-578.1,21.1-1054.6,229.7-1458.5,633.6c-178,178-379,457.5-459.4,639.3c-511,1154.2,3.8,2513.2,1125.5,2978.3c352.2,145.5,572.3,185.7,962.8,174.2C5285.2,1387.1,5382.8,1375.6,5530.2,1337.3z M2930.9-2351c147.4-199.1,424.9-463.2,627.8-597.2c463.2-306.2,897.7-442.1,1422.1-442.1c319.7-1.9,486.2,23,754.1,107.2c539.8,172.3,991.5,490,1328.4,939.8l112.9,149.3l528.3-5.7c587.6-5.7,618.2-11.5,692.9-135.9c72.7-116.8,55.5-199.1-160.8-794.3c-111-302.4-206.7-564.6-212.4-581.9c-13.4-32.5-170.4-34.5-2938.1-34.5c-2767.8,0-2924.7,1.9-2938.1,34.5c-7.7,17.2-103.4,279.5-212.5,580c-208.6,574.2-229.7,668-172.3,780.9c70.8,135.9,145.5,153.1,643.1,153.1l411.5,1.9L2930.9-2351z"/><path d="M2651.4,4271.6c-55.5-53.6-57.4-63.2-47.9-172.3c17.2-189.5,176.1-476.6,313.9-566.6c111-72.7,262.2,3.8,262.2,135.9c0,49.8-19.1,86.1-78.5,151.2c-101.4,111-137.8,181.8-158.9,315.8C2911.8,4325.2,2770.1,4392.2,2651.4,4271.6z"/><path d="M3516.6,3483c-93.8-47.8-120.6-166.5-57.4-248.8c47.9-61.3,294.8-143.6,597.2-202.9c237.3-45.9,721.6-88,796.2-68.9c135.9,32.5,185.7,193.3,90,287.1c-38.3,40.2-65.1,47.9-157,47.9c-310.1,0-692.9,59.3-1004.9,153.1C3570.2,3515.5,3579.8,3515.5,3516.6,3483z"/><path d="M4770.3,1059.8c-126.3-55.5-151.2-201-51.7-290.9c55.5-49.8,74.7-55.5,195.2-55.5s139.7,5.7,195.2,55.5c80.4,72.7,84.2,170.4,9.6,245c-44.1,45.9-68.9,53.6-180,57.4C4866,1075.1,4791.4,1069.4,4770.3,1059.8z"/><path d="M5840.3,391.8c-601-313.9-970.4-570.4-1121.7-777.1c-109.1-151.2-53.6-405.8,132.1-604.8c176.1-189.5,432.6-287.1,587.6-222c202.9,84.2,549.3,572.3,890,1249.9c118.7,239.2,128.2,333,44,428.7c-44,49.8-72.8,61.2-149.3,68.9C6137,541.1,6108.2,531.5,5840.3,391.8z M5834.5-178.6c-153.1-287.1-317.7-551.3-400-643.1c-72.7-80.4-118.7-90-227.8-44c-126.3,53.6-181.8,126.3-202.9,266.1c-11.5,70.8-5.7,82.3,63.2,145.5C5178-352.8,5920.7,77.9,5943.6,53C5949.4,49.2,5899.6-54.2,5834.5-178.6z"/><path d="M3174-523.1c-76.6-63.2-82.3-170.4-15.3-248.8c74.7-86.1,323.5-90,411.5-7.7c55.5,51.7,70.8,122.5,42.1,193.3c-34.4,80.4-109.1,112.9-256.5,112.9C3250.5-473.4,3223.7-481,3174-523.1z"/><path d="M6462.3-500.2c-61.2-34.5-103.3-128.2-86.1-193.3c26.8-107.2,139.7-157,321.6-139.7c124.4,13.4,187.6,76.6,187.6,185.7c0,114.8-65.1,162.7-235.4,168.4C6556.1-475.3,6496.8-481,6462.3-500.2z"/><path d="M4739.7-2224.7c-103.4-55.5-114.8-204.8-23-277.5c40.2-30.6,78.5-38.3,197.1-38.3s157,7.7,197.2,38.3c93.8,74.7,80.4,222-26.8,277.5C5015.3-2188.3,4804.8-2188.3,4739.7-2224.7z"/></g></g>
</svg>