<?xml version="1.0" encoding="utf-8"?>
<!-- Svg Vector Icons : http://www.onlinewebfonts.com/icon -->
<!DOCTYPE svg PUBLIC "-//W3C//DTD SVG 1.1//EN" "http://www.w3.org/Graphics/SVG/1.1/DTD/svg11.dtd">
<svg version="1.1" xmlns="http://www.w3.org/2000/svg" xmlns:xlink="http://www.w3.org/1999/xlink" x="0px" y="0px" viewBox="0 0 1000 1000" enable-background="new 0 0 1000 1000" xml:space="preserve">
<metadata> Svg Vector Icons : http://www.onlinewebfonts.com/icon </metadata>
<g><g transform="translate(0.000000,507.000000) scale(0.100000,-0.100000)"><path d="M2387.3,4876.2c-114.8-53.6-243.1-189.5-273.7-294.8c-13.4-42.1-23-187.6-23-327.3v-250.7h-545.5c-363.7,0-558.9-7.7-591.4-21.1c-80.4-38.3-95.7-107.2-70.8-329.2c68.9-606.8,442.1-1552.3,1025.9-2585.9l181.8-325.4v-2044.2v-2044.2h-86.1c-162.7,0-158.9,5.7-480.4-635.5l-294.8-589.5H664.6H100v-105.3v-105.3h4900h4900v105.3v105.3h-564.6h-564.6l-294.8,589.5c-321.6,641.2-317.7,635.5-480.4,635.5h-86.1v1223.1v1225l522.5,5.7c516.8,5.7,520.6,5.7,627.8,55.5c137.8,65.1,256.5,183.8,321.6,321.6l49.8,107.2V1563v1971.5L9366,3655c-68.9,128.2-162.7,218.2-308.2,292.9c-84.2,44-101.4,45.9-616.3,51.7l-532.1,5.7v250.7c0,139.7-9.6,285.2-23,329.2c-30.6,105.3-208.6,283.3-313.9,313.9c-59.3,17.2-679.5,23-2584,23H2483L2387.3,4876.2z M7564.8,4577.6c34.5-34.4,38.3-63.2,38.3-306.3v-268H7450h-153.1v-153.1v-153.1H7450h153.1V175.3v-3521.9H5306.2H3009.4v-153.1v-153.1h2478.7h2478.7l229.7-459.4l229.7-459.4H5000H1573.8l229.7,459.4l229.7,459.4h335h335v153.1v153.1H2550h-153.1V175.3v3521.9h2296.9h2296.9v153.1v153.1H4693.7H2396.9v268c0,243.1,3.8,271.8,38.3,306.3c38.3,38.3,63.2,38.3,2564.8,38.3C7501.7,4615.9,7526.6,4615.9,7564.8,4577.6z M2090.6,2535.3c0-715.9-7.7-1154.2-17.2-1144.6c-34.5,36.4-421.1,823-528.3,1079.5c-137.8,325.4-285.2,769.5-325.4,978.1c-17.2,90-34.4,181.8-40.2,206.7l-7.7,42.1h459.4h459.4V2535.3z M9013.8,3647.4c28.7-21.1,68.9-68.9,86.1-105.3c32.5-61.2,34.5-195.2,34.5-1988.7c0-1793.5-1.9-1927.5-34.5-1988.7c-17.2-36.4-57.4-84.2-86.1-105.3c-51.7-38.3-84.2-40.2-580-45.9l-524.5-5.7v155v153.1h264.1c235.4,0,271.8,5.7,357.9,45.9c114.8,55.5,204.8,145.5,256.5,260.3c38.3,84.2,40.2,118.7,40.2,1531.3v1445.1l-45.9,95.7c-53.6,114.8-189.5,243.1-294.8,273.7c-42.1,13.4-187.6,23-327.3,23h-250.7V3544v155l524.5-5.7C8929.6,3687.6,8962.1,3685.7,9013.8,3647.4z M8483.6,3046.4c38.3-38.3,38.3-63.2,38.3-1493s0-1454.7-38.3-1493c-34.5-34.5-63.2-38.3-306.3-38.3h-268v1531.3v1531.2h268C8420.4,3084.6,8449.1,3080.8,8483.6,3046.4z"/><path d="M4845,3362.2c-128.2-40.2-264.1-141.6-336.9-246.9c-128.2-187.6-122.5-9.6-116.7-2989.8l5.7-2696.9l53.6-101.4c67-128.2,176.1-237.3,304.3-304.3c145.5-74.6,344.5-74.6,490,0c128.2,67,237.3,176.1,304.3,304.3l53.6,101.4V165.7v2737.1l-49.8,107.2C5421.1,3289.5,5105.3,3446.4,4845,3362.2z M5187.6,3034.9c91.9-68.9,118.7-149.3,118.7-365.6v-197.1h-153.1H5000V2319v-153.1h153.1h153.1v-153.1v-153.1h-153.1H5000v-153.1v-153.1h153.1h153.1v-153.1v-153.1h-153.1H5000V1094V940.9h153.1h153.1V787.8V634.6h-153.1H5000V481.5V328.4h153.1h153.1V175.3V22.1h-153.1H5000V-131v-153.1h153.1h153.1v-153.1v-153.1h-153.1H5000v-153.1v-153.1h153.1h153.1v-153.1v-153.1h-153.1H5000V-1356v-153.1h153.1h153.1v-153.1v-153.1h-153.1H5000v-153.1v-153.1h153.1h153.1v-195.2c0-312-70.8-407.7-306.3-407.7c-151.2,0-216.3,34.5-273.7,145.5c-30.6,61.3-32.5,224-28.7,2777.3c5.7,2708.4,5.7,2712.2,45.9,2765.8c21.1,28.7,68.9,68.9,105.3,88C4934.9,3098.1,5112.9,3088.5,5187.6,3034.9z"/><path d="M4846.9-4112.2v-153.1H5000h153.1v153.1v153.1H5000h-153.1V-4112.2z"/></g></g>
</svg>