<?xml version="1.0" encoding="utf-8"?>
<!-- Svg Vector Icons : http://www.onlinewebfonts.com/icon -->
<!DOCTYPE svg PUBLIC "-//W3C//DTD SVG 1.1//EN" "http://www.w3.org/Graphics/SVG/1.1/DTD/svg11.dtd">
<svg version="1.1" xmlns="http://www.w3.org/2000/svg" xmlns:xlink="http://www.w3.org/1999/xlink" x="0px" y="0px" viewBox="0 0 1000 1000" enable-background="new 0 0 1000 1000" xml:space="preserve">
<metadata> Svg Vector Icons : http://www.onlinewebfonts.com/icon </metadata>
<g><g transform="translate(0.000000,511.000000) scale(0.100000,-0.100000)"><path d="M3592.2,1512.3L100-1979.9l1403.4-1401.2l1401.2-1403.4L6401.2-1288L9900,2210.8L8503.1,3607.7c-768.3,768.3-1401.2,1396.9-1407.8,1396.9S5512.9,3433.1,3592.2,1512.3z M7579.9,4028.9l475.8-475.8l-763.9-763.9c-451.8-451.8-763.9-783.6-766.1-807.6c-8.7-144.1,48-216.1,165.9-216.1c74.2,0,124.4,45.8,846.9,768.3l768.3,768.3l203-203c109.1-111.3,200.8-211.7,200.8-222.6c0-13.1-152.8-174.6-338.3-360.1c-344.9-344.9-366.7-377.6-325.2-491.1c19.6-50.2,133.2-102.6,189.9-87.3c26.2,8.7,203,168.1,392.9,355.8l342.7,342.7l211.7-213.9l213.9-211.7L6150.3-1037L2904.7-4282.5l-862.1,862.1l-862.1,862.1l456.2,458.3c251,251,467.1,480.2,480.2,506.4c54.6,106.9-34.9,233.5-163.7,233.5c-69.8,0-113.5-37.1-550-473.6l-473.6-473.6l-163.7,163.7L602-1979.9l3241.2,3241.2c1783.2,1783.2,3245.6,3241.2,3252.1,3241.2S7320.1,4288.6,7579.9,4028.9z"/><path d="M5541.3,2304.6c-648.2-648.2-1154.6-1172.1-1163.3-1200.4c-30.6-124.4,111.3-251,227-205.2c32.7,15.3,571.8,539.1,1198.3,1165.5c1041.1,1041.1,1139.3,1145.9,1139.3,1211.4c0,96-82.9,179-179,179C6698.1,3454.9,6593.3,3354.5,5541.3,2304.6z"/><path d="M6429.6,377.4c-24-8.7-390.7-364.5-811.9-790.1c-698.4-698.4-770.5-779.2-770.5-842.5c0-96.1,82.9-179,179-179c63.3,0,144,72,831.6,759.6c419.1,416.9,774.8,783.6,792.3,816.3C6722.1,281.3,6573.7,440.7,6429.6,377.4z"/><path d="M3432.9-740.1c-434.4-436.5-796.7-814.1-803.2-838.1c-15.3-56.8,41.5-172.4,89.5-192.1c120-45.8,126.6-39.3,945.1,779.2c816.3,816.3,822.9,822.9,777,942.9C4426-9,4321.2,50,4264.4,50C4242.6,50,3878.1-297.1,3432.9-740.1z"/><path d="M3723.2-1717.9c-24-8.7-279.4-255.4-565.3-543.5C2673.3-2746,2634-2791.8,2634-2861.7c0-135.3,115.7-209.5,242.3-155c85.1,39.3,1076,1038.9,1078.2,1091.3c4.4,85.1-6.6,131-41.5,168.1C3867.2-1711.4,3779.9-1691.8,3723.2-1717.9z"/></g></g>
</svg>