<?xml version="1.0" encoding="utf-8"?>
<!-- Svg Vector Icons : http://www.onlinewebfonts.com/icon -->
<!DOCTYPE svg PUBLIC "-//W3C//DTD SVG 1.1//EN" "http://www.w3.org/Graphics/SVG/1.1/DTD/svg11.dtd">
<svg version="1.1" xmlns="http://www.w3.org/2000/svg" xmlns:xlink="http://www.w3.org/1999/xlink" x="0px" y="0px" viewBox="0 0 1000 1000" enable-background="new 0 0 1000 1000" xml:space="preserve">
<metadata> Svg Vector Icons : http://www.onlinewebfonts.com/icon </metadata>
<g><g transform="translate(0.000000,511.000000) scale(0.100000,-0.100000)"><path d="M1759.6,4977.9c-41.5-17.3-89.9-62.2-110.6-100.3c-27.7-45-38-895.4-38-2665.6c0-2268-6.9-2596.4-51.9-2582.6c-27.7,13.8-165.9,31.1-311.2,44.9c-242,20.8-266.2,17.3-345.7-55.3c-155.6-145.2-121-228.2,311.2-802.1l397.6-525.5V-3164c0-1576.5,0-1573.1,190.1-1621.5c69.1-17.3,248.9,38.1,300.8,93.4c3.4,3.4,17.3,518.6,27.7,1140.9l17.3,1134l293.9-397.6c165.9-224.7,331.9-411.4,380.3-432.2c103.7-41.5,1465.9-245.4,1631.8-245.4c141.7,0,269.7,117.5,269.7,248.9c0,48.4-55.3,159-121,245.5c-65.7,86.4-121,169.4-121,179.8c0,10.4,127.9,165.9,286.9,338.8c1217,1355.3,1967.2,3004.4,2306,5071.8c62.2,380.3,93.4,694.9,159,1618l20.8,248.9h705.3h705.3V-80.1c0-4940.5-10.4-4653.5,190.1-4705.4c100.3-24.2,273.1,51.9,307.7,134.9c27.6,76.1,27.6,9431.4,0,9507.5c-62.3,159,6.9,155.6-3771.9,152.1C3429.5,5009,1801.1,4995.2,1759.6,4977.9z M3571.2,3985.6c-65.7-1396.7-373.4-2624.1-871.2-3460.7c-152.1-255.8-473.7-667.3-539.3-691.4c-17.3-6.9-31.1,992.2-31.1,2306v2319.8h732.9H3592L3571.2,3985.6z M6682.8,3985.6C6589.4,1956.2,5960.2,27.1,4919.6-1425c-245.5-342.3-753.7-933.5-788.3-919.6c-13.8,6.9-318.1,401-677.6,874.7c-407.9,539.3-688,881.6-746.8,909.2l-96.8,48.4l89.9,107.2c373.4,459.8,743.3,1130.5,930,1683.7c273.1,815.9,401,1562.7,490.9,2879.9l20.7,300.8h1279.2h1282.6L6682.8,3985.6z M2205.6-1006.7l269.7-41.5l622.3-829.8c598.1-798.6,618.8-833.2,563.5-898.9c-48.4-51.9-89.9-58.8-217.8-41.5c-404.5,55.3-321.5-17.3-1054.5,954.2c-369.9,490.9-674.2,902.4-674.2,916.2c0,10.4,51.9,13.8,114.1,3.5C1887.5-954.8,2060.4-982.5,2205.6-1006.7z"/></g></g>
</svg>