<?xml version="1.0" encoding="utf-8"?>
<!-- Svg Vector Icons : http://www.onlinewebfonts.com/icon -->
<!DOCTYPE svg PUBLIC "-//W3C//DTD SVG 1.1//EN" "http://www.w3.org/Graphics/SVG/1.1/DTD/svg11.dtd">
<svg version="1.1" xmlns="http://www.w3.org/2000/svg" xmlns:xlink="http://www.w3.org/1999/xlink" x="0px" y="0px" viewBox="0 0 1000 1000" enable-background="new 0 0 1000 1000" xml:space="preserve">
<metadata> Svg Vector Icons : http://www.onlinewebfonts.com/icon </metadata>
<g><g transform="translate(0.000000,511.000000) scale(0.100000,-0.100000)"><path d="M2133.9,4676.3c-32.8-16.4-73.9-65.7-93.1-112.2c-32.8-76.7-27.4-95.8,52-238.2l84.9-156l-186.1-150.6c-399.7-328.5-752.8-886.9-897.9-1431.7c-63-238.2-71.2-328.5-73.9-684.4c0-364.1,8.2-440.7,73.9-684.4c63-235.4,328.5-834.9,369.6-834.9c5.5,0,514.6,301.1,1127.8,670.7c613.2,369.6,1127.8,670.7,1141.5,670.7c10.9,0,104-131.4,208-290.2l183.4-287.4V-357.8v-1502.9l-988.2,5.5l-988.2,8.2L1310-349.6C464.1,1161.4,434,1205.2,288.9,1205.2c-76.6,0-188.9-120.4-188.9-208.1c0-43.8,328.5-657,837.7-1565.8c687.1-1229.1,832.2-1505.6,810.3-1552.1c-13.7-30.1-287.4-487.3-607.7-1012.9C819.9-3661.9,540.7-4130,516.1-4179.3c-54.7-115-8.2-235.4,109.5-284.7c169.7-71.2,177.9-63,873.2,1084l646,1067.6l988.2,8.2l991,5.5v-917v-919.8l68.4-65.7c87.6-90.3,213.5-90.3,301.1,0l68.4,65.7v919.8v917h1842.3h1845l624.1-1032c342.2-569.4,648.8-1056.6,676.1-1081.3c123.2-109.5,350.4-5.5,350.4,153.3c0,95.8-1346.8,2318.6-1428.9,2362.4c-49.3,27.4-511.9,35.6-1984.6,35.6H4562v1565.8v1563.1l-221.7,342.2c-180.7,279.2-213.5,347.7-183.4,375c19.2,19.2,484.5,301.1,1034.7,629.6c550.2,328.5,1015.6,610.4,1037.5,629.6c84.8,82.1-449,719.9-804.8,963.6c-834.9,563.9-1809.4,651.5-2762.1,240.9c-57.5-24.6-106.8-41.1-109.5-35.6c-5.5,5.5-46.5,65.7-93.1,134.1C2350.2,4711.9,2270.8,4742,2133.9,4676.3z M4488.1,4178.1c407.9-120.4,711.7-303.9,1012.8-613.2l161.5-161.5l-282-172.5l-282-169.7l-52,65.7c-235.4,295.6-391.5,462.6-580.3,613.2c-224.5,180.7-596.8,388.7-799.3,451.7c-216.3,63-134.1,87.6,232.7,71.2C4159.6,4252,4307.4,4230.1,4488.1,4178.1z M3152.2,3874.2c438-76.6,834.9-271,1141.5-555.7c156-145.1,405.1-432.5,405.1-470.8c0-13.7-183.4-134.1-407.9-271l-410.6-246.4l-481.8,752.8c-459.9,717.2-528.3,832.2-498.2,832.2C2905.9,3915.3,3020.8,3896.1,3152.2,3874.2z M3015.4,2875.1c262.8-410.6,479.1-755.5,479.1-763.7c-2.7-19.2-813-503.7-862.3-517.4c-38.3-8.2-147.8,229.9-238.2,514.6c-54.7,175.2-63,262.8-63,615.9c0,320.3,10.9,446.2,49.3,574.9c68.4,216.3,125.9,353.1,145.1,336.7C2530.8,3627.9,2752.6,3285.7,3015.4,2875.1z M1901.2,3107.8c-71.2-468.1,16.4-1040.2,238.2-1552.1l90.3-213.5l-290.2-175.2c-167-101.3-303.9-167-317.5-153.3c-63,63-158.8,492.7-172.5,782.9c-19.2,358.6,30.1,648.8,167,982.7c84.9,210.8,282,553,303.9,528.3C1925.9,3302.1,1917.7,3211.8,1901.2,3107.8z"/></g></g>
</svg>