<?xml version="1.0" encoding="utf-8"?>
<!-- Svg Vector Icons : http://www.onlinewebfonts.com/icon -->
<!DOCTYPE svg PUBLIC "-//W3C//DTD SVG 1.1//EN" "http://www.w3.org/Graphics/SVG/1.1/DTD/svg11.dtd">
<svg version="1.1" xmlns="http://www.w3.org/2000/svg" xmlns:xlink="http://www.w3.org/1999/xlink" x="0px" y="0px" viewBox="0 0 1000 1000" enable-background="new 0 0 1000 1000" xml:space="preserve">
<metadata> Svg Vector Icons : http://www.onlinewebfonts.com/icon </metadata>
<g><g transform="translate(0.000000,511.000000) scale(0.100000,-0.100000)"><path d="M411.8,2511.2c-116.9-52.6-208.5-144.2-265-261.1c-40.9-85.7-46.8-126.7-46.8-321.5c0-257.2,25.3-337.1,146.1-457.9c79.9-77.9,206.6-144.2,278.6-146.1h42.9V-288.9c0-1746-2-1720.6,105.2-1859c27.3-37,97.4-93.5,152-124.7c245.5-134.5,561.2-25.4,666.4,229.9c27.3,64.3,31.2,276.7,31.2,1720.6v1646.6H4991h3468.5V-322.1c0-1818.1-5.8-1722.6,122.8-1857c189-198.8,477.4-204.6,666.4-13.6c152,150,146.1,76,146.1,1903.8v1613.5h56.5c157.8,0,327.4,111.1,403.3,263.1c46.8,99.4,48.7,116.9,42.9,364.4c-3.9,200.7-13.6,274.7-40.9,329.3c-48.7,97.4-144.2,191-237.7,233.8c-74,35.1-261.1,37-4598.7,37C515.1,2552.1,499.5,2550.2,411.8,2511.2z M9552.7,2183.9c54.6-56.5,56.5-62.4,56.5-255.3v-198.8l-66.3-66.3l-66.2-66.3H5031.9c-4889.1,0-4526.6-9.7-4590.9,116.9c-37,72.1-39,360.5-2,426.7c58.5,103.3-218.2,97.4,4587,99.4h4470.1L9552.7,2183.9z M1210.7-302.6v-1629l-48.7-46.8c-60.4-62.4-146.1-62.4-218.2-1.9l-54.6,46.8l-2,1615.4c-1.9,886.6,0,1619.3,5.9,1629c3.9,7.8,77.9,13.6,163.7,13.6h153.9V-302.6z M9098.7-304.5l-5.8-1629.1l-54.6-46.8c-72.1-60.4-157.9-60.4-218.3,1.9l-48.7,46.8v1629v1627.1H8937h165.6L9098.7-304.5z"/></g></g>
</svg>