<?xml version="1.0" encoding="utf-8"?>
<!-- Svg Vector Icons : http://www.onlinewebfonts.com/icon -->
<!DOCTYPE svg PUBLIC "-//W3C//DTD SVG 1.1//EN" "http://www.w3.org/Graphics/SVG/1.1/DTD/svg11.dtd">
<svg version="1.1" xmlns="http://www.w3.org/2000/svg" xmlns:xlink="http://www.w3.org/1999/xlink" x="0px" y="0px" viewBox="0 0 1000 1000" enable-background="new 0 0 1000 1000" xml:space="preserve">
<metadata> Svg Vector Icons : http://www.onlinewebfonts.com/icon </metadata>
<g><g transform="translate(0.000000,511.000000) scale(0.100000,-0.100000)"><path d="M3047.7,2858.6V707.2l-324.1-319c-181.2-176.1-370-354.7-421.1-400.7l-97-79.1v-2350.5V-4790h191.4h191.4v1837.5V-1115H2818h229.7v-1327.1v-1327.1h191.4h191.4v1327.1V-1115h1556.8H6544v-1327.1v-1327.1h191.4h191.4v1327.1V-1115h229.7h229.7v-1837.5V-4790h204.2h204.2v2355.6l-2.5,2353l-431.3,367.5l-433.9,365v2179.5V5010h-191.4H6544v-204.2v-204.2H4987.2H3430.5v204.2V5010h-191.4h-191.4V2858.6z M6544,3887.1v-306.2H4987.2H3430.5v306.2v306.3h1556.8H6544V3887.1z M6544,2968.3v-204.2H4987.2H3430.5v204.2v204.2h1556.8H6544V2968.3z M6544,2151.7v-204.2H4987.2H3430.5v204.2v204.2h1556.8H6544V2151.7z M6538.9,1151.2l-7.7-390.5h-1544h-1544l-7.7,390.5l-7.7,387.9h1559.3h1559.3L6538.9,1151.2z M6842.6,196.8c109.7-94.4,204.2-178.6,206.7-191.4c5.1-12.8-867.7-23-2059.5-23c-1237.8,0-2069.7,10.2-2069.7,23c0,12.8,84.2,99.5,186.3,191.4l183.8,168.4h1676.7h1676.7L6842.6,196.8z M7386.2-553.5v-153.1h-2399h-2399v135.3c0,76.6,7.7,145.5,17.9,153.1c7.6,10.2,1087.2,17.9,2399,17.9h2381.1V-553.5z"/></g></g>
</svg>