<?xml version="1.0" encoding="utf-8"?>
<!-- Svg Vector Icons : http://www.onlinewebfonts.com/icon -->
<!DOCTYPE svg PUBLIC "-//W3C//DTD SVG 1.1//EN" "http://www.w3.org/Graphics/SVG/1.1/DTD/svg11.dtd">
<svg version="1.1" xmlns="http://www.w3.org/2000/svg" xmlns:xlink="http://www.w3.org/1999/xlink" x="0px" y="0px" viewBox="0 0 1000 1000" enable-background="new 0 0 1000 1000" xml:space="preserve">
<metadata> Svg Vector Icons : http://www.onlinewebfonts.com/icon </metadata>
<g><g transform="translate(0.000000,511.000000) scale(0.100000,-0.100000)"><path d="M2435.4,4933.3c-133-115.1-150.9-184.2-140.7-532c7.7-263.4,15.3-319.7,61.4-381.1c107.4-145.8,176.5-161.1,734-161.1H3594l-5.1-1859.4l-7.7-1859.4l-115.1-20.5C3005.8,38,2757.7-18.2,2555.6-92.4c-1000-355.5-800.5-977,393.9-1240.4c117.7-25.6,217.4-51.1,220-56.3c2.6-5.1-186.7-726.3-424.6-1606.2c-248.1-925.8-422-1618.9-414.3-1649.6c46-148.3,232.7-194.4,335-84.4c35.8,43.5,171.4,506.4,468,1618.9c230.2,859.3,424.6,1583.1,437.3,1613.8c17.9,48.6,30.7,51.2,181.6,33.3c87-12.8,322.2-28.1,519.2-35.8c196.9-7.7,396.4-20.5,442.5-28.1l81.8-12.8v-1445v-1445l63.9-61.4c79.3-81.8,189.3-81.8,278.8,0l66.5,61.4v1445v1445l84.4,12.8c43.5,7.7,243,20.5,439.9,28.1c196.9,7.7,432.2,23,519.2,35.8c150.9,17.9,163.7,15.3,181.6-33.3c12.8-30.7,209.7-759.6,439.9-1621.5c268.5-1002.6,434.8-1588.3,465.5-1618.9c97.2-102.3,291.6-48.6,335.1,92.1c7.7,30.7-168.8,728.9-414.3,1649.6c-368.3,1365.8-424.6,1601-391.3,1616.4c23,7.7,138.1,38.4,258.3,66.5c1163.7,271.1,1296.7,900.3,260.9,1240.4c-150.9,48.6-386.2,110-521.8,135.5l-250.6,46v1874.7v1874.7h404.1c442.5,0,526.9,20.5,629.2,161.1c46,61.4,53.7,117.7,61.4,381.1c10.2,347.8-7.7,416.9-140.7,532L7479,5010H5000.7H2522.4L2435.4,4933.3z M7302.5,4434.5v-166.2H5000.7H2698.8v166.2v166.2h2301.8h2301.8V4434.5z M4898.4,2045.8V232.4l-209.7-15.4c-117.6-7.7-319.7-20.5-447.6-28.1l-237.9-12.8v1841.5v1841.5h447.6h447.6V2045.8z M6197.6,2012.5c-5.1-1455.3-15.3-1846.6-38.4-1844c-17.9,5.1-217.4,15.3-442.5,25.6l-409.2,15.3v1826.1v1823.5h447.6h447.6L6197.6,2012.5z M5678.4-207.5c542.2-33.2,1063.9-107.4,1442.5-204.6c306.9-81.8,565.2-184.2,565.2-227.6c0-117.6-532-286.4-1214.9-383.6c-1383.7-199.5-3278.8-74.2-4020.5,266c-173.9,79.3-173.9,125.3,0,204.6C3041.6-281.7,4430.3-133.3,5678.4-207.5z"/></g></g>
</svg>