<?xml version="1.0" encoding="utf-8"?>
<!-- Svg Vector Icons : http://www.onlinewebfonts.com/icon -->
<!DOCTYPE svg PUBLIC "-//W3C//DTD SVG 1.1//EN" "http://www.w3.org/Graphics/SVG/1.1/DTD/svg11.dtd">
<svg version="1.1" xmlns="http://www.w3.org/2000/svg" xmlns:xlink="http://www.w3.org/1999/xlink" x="0px" y="0px" viewBox="0 0 1000 1000" enable-background="new 0 0 1000 1000" xml:space="preserve">
<metadata> Svg Vector Icons : http://www.onlinewebfonts.com/icon </metadata>
<g><g transform="translate(0.000000,511.000000) scale(0.100000,-0.100000)"><path d="M4335.6,4998.5c-1767.5-112.3-3017.7-554.7-3352.3-1190.8l-61.6-118.9l-6.6-695.6c-6.6-662.5-4.4-700,39.6-818.8C1168.1,1606.6,2138.8,1164.1,3574,979.2c162.9-19.8,299.4-37.4,301.6-39.6c11-6.6,74.8-572.3,107.9-937.7c37.4-427,50.6-1525.4,22-1776.3l-17.6-136.5l-151.9-44c-638.3-195.9-1129.2-578.9-1274.4-1001.5c-94.6-275.1-77-506.3,57.2-779.2c400.6-816.6,1910.6-1261.2,3266.5-959.7c909.1,204.7,1512.2,678,1611.2,1265.6c96.8,589.9-409.4,1173.2-1263.5,1452.7l-213.5,70.4l-17.6,101.2c-26.4,165.1-17.6,1397.7,11,1719.1c30.8,314.7,112.2,1019.1,121.1,1023.5c2.2,2.2,138.7,22,301.6,41.8C7808.9,1155.3,8740,1558.1,9028.3,2104l59.4,110.1v737.4v737.4l-61.6,118.9c-261.9,495.2-1047.7,865-2269.4,1069.7c-182.7,30.8-490.8,70.4-684.5,88C5636.4,5007.3,4745,5022.7,4335.6,4998.5z M5962.2,4338.2c1232.6-114.5,2262.7-446.8,2476.3-799c59.4-96.9,11-187.1-171.7-321.4c-922.3-669.1-3704.5-876.1-5516-409.4c-526.1,134.3-913.5,306-1102.8,488.7c-138.7,132.1-136.5,198.1,11,341.2c367.6,354.4,1426.3,640.5,2674.4,722C4676.7,4382.2,5623.2,4371.2,5962.2,4338.2z M1749.2,2480.4c717.6-334.6,1763.1-528.3,3002.3-556.9c1437.3-33,2799.8,193.7,3596.6,598.7c61.6,30.8,116.7,55,123.3,55c22,0,11-112.3-19.8-182.7c-88-211.3-548.1-446.8-1190.8-609.7c-695.5-176.1-1325.1-246.5-2234.1-248.7c-959.7-2.2-1631,74.8-2372.8,270.7c-550.3,147.5-994.9,378.6-1094,574.5c-28.6,52.8-46.2,195.9-24.2,195.9C1537.9,2577.3,1634.8,2533.2,1749.2,2480.4z M5458.1,750.3c-6.6-79.2-28.6-281.7-46.2-451.2c-103.5-979.5-92.5-1829.1,35.2-2956.1c26.4-222.3,41.8-409.4,35.2-413.8c-22-22-578.9-37.4-772.6-19.8l-195.9,15.4l15.4,114.4c167.3,1373.5,173.9,2566.5,15.4,3713.3c-8.8,70.4-15.4,132.1-11,134.3c2.2,4.4,215.7,6.6,471,6.6h466.6L5458.1,750.3z M3884.3-2952c-61.6-464.4-41.8-523.9,217.9-642.7c217.9-99,453.4-132.1,902.5-132.1c460,0,688.9,33,915.6,138.7c136.5,63.8,211.3,140.9,235.5,246.5c8.8,33-4.4,200.3-28.6,374.2c-24.2,171.7-44,328-44,343.4c0,19.8,28.6,17.6,116.7-17.6c420.4-162.9,713.2-477.6,664.7-708.7c-52.8-244.3-365.4-486.5-825.4-640.5c-356.6-118.8-589.9-151.9-1034.5-151.9c-444.6,0-677.9,33-1034.5,151.9c-460,154.1-772.6,396.2-825.4,640.5c-48.4,231.1,224.5,528.3,642.7,699.9c70.4,28.6,129.9,48.4,134.3,44C3926.1-2608.6,3908.5-2764.9,3884.3-2952z"/></g></g>
</svg>