<?xml version="1.0" encoding="utf-8"?>
<!-- Svg Vector Icons : http://www.onlinewebfonts.com/icon -->
<!DOCTYPE svg PUBLIC "-//W3C//DTD SVG 1.1//EN" "http://www.w3.org/Graphics/SVG/1.1/DTD/svg11.dtd">
<svg version="1.1" xmlns="http://www.w3.org/2000/svg" xmlns:xlink="http://www.w3.org/1999/xlink" x="0px" y="0px" viewBox="0 0 1000 1000" enable-background="new 0 0 1000 1000" xml:space="preserve">
<metadata> Svg Vector Icons : http://www.onlinewebfonts.com/icon </metadata>
<g><g transform="translate(0.000000,511.000000) scale(0.100000,-0.100000)"><path d="M4890,3491.6c-32-20-1124-1104-2424-2406l-2366-2366v-96c0-80,10-108,58-156c68-68,182-78,262-26c28,18,276,258,552,532c276,276,508,492,514,484c4-10,174-594,374-1298s378-1308,394-1344c62-136-128-126,2882-122l2720,6l52,48c30,28,62,82,72,120c12,40,138,626,280,1302c144,676,266,1244,272,1258c6,20,176-136,504-462c272-270,516-506,544-524c80-52,194-42,262,26c48,48,58,76,58,156v96l-2374,2376c-1308,1308-2400,2390-2430,2406C5024,3539.6,4962,3537.6,4890,3491.6z M4780-50.4v-2820H3690H2602l-40,136c-152,512-722,2528-722,2548s2916,2956,2934,2956C4778,2769.6,4780,1501.6,4780-50.4z M7854,137.6c-10-10-696,58-944,94c-580,84-816,156-940,288c-206,218-466,842-600,1444c-44,196-130,706-130,776c0,10,590-570,1310-1290S7856,139.6,7854,137.6z M5508,421.6c154-242,282-344,542-438c290-104,898-210,1390-244c284-20,274-8,132-196c-218-290-404-704-484-1074c-46-224-48-616-2-810c40-166,102-328,170-444l48-86H6262H5220v1926v1924l108-222C5386,635.6,5468,483.6,5508,421.6z M7880-1570.4c-122-564-224-1032-230-1036c-12-14-96,182-132,306c-46,166-38,604,18,804c90,332,264,668,466,894c48,54,88,90,92,78C8098-534.4,8002-1004.4,7880-1570.4z"/></g></g>
</svg>