<?xml version="1.0" encoding="utf-8"?>
<!-- Svg Vector Icons : http://www.onlinewebfonts.com/icon -->
<!DOCTYPE svg PUBLIC "-//W3C//DTD SVG 1.1//EN" "http://www.w3.org/Graphics/SVG/1.1/DTD/svg11.dtd">
<svg version="1.1" xmlns="http://www.w3.org/2000/svg" xmlns:xlink="http://www.w3.org/1999/xlink" x="0px" y="0px" viewBox="0 0 1000 1000" enable-background="new 0 0 1000 1000" xml:space="preserve">
<metadata> Svg Vector Icons : http://www.onlinewebfonts.com/icon </metadata>
<g><g transform="translate(0.000000,511.000000) scale(0.100000,-0.100000)"><path d="M1589.1,224.5v-4785.4h369.1h369.1v-114.6V-4790h203.6h203.6v114.5v114.6H5000h2265.4v-114.6V-4790h203.6h203.6v114.5v114.6h369.1h369.1V224.5V5010H5000H1589.1V224.5z M8024,3668.5l-7.6-936.7l-3008.7-7.6l-3011.3-5.1v941.8v941.8h3016.4h3016.4L8024,3668.5z M8024,1377.6l-7.6-936.7l-3008.7-7.6l-3011.3-5.1V1370v941.8h3016.4h3016.4L8024,1377.6z M8024-913.3l-7.6-936.7l-3008.7-7.6l-3011.3-5.1v941.8V20.9h3016.4h3016.4L8024-913.3z M8024-3204.2l-7.6-936.7l-3008.7-7.6l-3011.3-5.1v941.8v941.8h3016.4h3016.4L8024-3204.2z"/></g></g>
</svg>