<?xml version="1.0" encoding="utf-8"?>
<!-- Svg Vector Icons : http://www.onlinewebfonts.com/icon -->
<!DOCTYPE svg PUBLIC "-//W3C//DTD SVG 1.1//EN" "http://www.w3.org/Graphics/SVG/1.1/DTD/svg11.dtd">
<svg version="1.1" xmlns="http://www.w3.org/2000/svg" xmlns:xlink="http://www.w3.org/1999/xlink" x="0px" y="0px" viewBox="0 0 1000 1000" enable-background="new 0 0 1000 1000" xml:space="preserve">
<metadata> Svg Vector Icons : http://www.onlinewebfonts.com/icon </metadata>
<g><g transform="translate(0.000000,511.000000) scale(0.100000,-0.100000)"><path d="M1356,3030.8c-297.6-107.1-502-390.9-502-696.4c0-79.4,196.4-1706.4,228.2-1896.9l11.9-63.5l-168.7-6c-138.9-5.9-176.6-15.9-206.4-47.6c-21.8-21.8-168.7-273.8-329.4-561.5C195.2-590.3,100-782.8,100-822.4c0-35.7,17.9-77.4,49.6-107.1c43.7-45.6,61.5-49.6,248-49.6H596v-932.6v-932.6h168.7h168.7v932.6v932.6h89.3h89.3v-426.6v-426.6h168.7h168.7v426.6v426.6h3472.3h3472.3v-426.6v-426.6h158.7h158.7l2,85.3c2,45.6,4,236.1,6,420.6l2,337.3l174.6,5.9l172.6,5.9v-934.5v-932.6h168.7h168.7v932.6v932.6h198.4c186.5,0,204.4,4,248,49.6c33.7,31.7,49.6,69.4,47.6,113.1c-2,91.3-583.3,1127-652.8,1160.7c-27.8,13.9-115.1,25.8-194.5,25.8h-144.8l11.9,65.5c5.9,33.7,59.5,456.4,121,936.5c119.1,946.5,123,1047.6,47.6,1250c-57.5,146.8-202.4,297.6-367.1,379l-119.1,57.5l-3571.5,4C1588.1,3066.5,1455.2,3066.5,1356,3030.8z M8522.8,2729.2c105.2-29.8,256-180.6,285.7-285.7c19.8-67.5,4-232.2-101.2-1075.4l-125-998H5000.9H1419.5l-125,998c-103.2,829.4-119,1008-101.2,1073.4c27.8,99.2,164.7,244.1,265.9,279.8c67.5,23.8,607.2,27.8,3531.8,29.8C7457.3,2751.1,8465.3,2745.1,8522.8,2729.2z M9257-286.7c99.2-174.6,182.5-327.4,184.5-337.3c4-9.9-1700.4-17.9-4440.6-17.9c-2740.1,0-4444.5,7.9-4440.6,17.9c4,9.9,87.3,162.7,184.5,337.3L923.4,32.7h4077.5h4077.5L9257-286.7z"/><path d="M1965.1,2066.5v-168.7h3035.8h3035.8v168.7v168.7H5000.9H1965.1V2066.5z"/><path d="M1965.1,1213.3v-168.7h3035.8h3035.8v168.7V1382H5000.9H1965.1V1213.3z"/></g></g>
</svg>