<?xml version="1.0" encoding="utf-8"?>
<!-- Svg Vector Icons : http://www.onlinewebfonts.com/icon -->
<!DOCTYPE svg PUBLIC "-//W3C//DTD SVG 1.1//EN" "http://www.w3.org/Graphics/SVG/1.1/DTD/svg11.dtd">
<svg version="1.1" xmlns="http://www.w3.org/2000/svg" xmlns:xlink="http://www.w3.org/1999/xlink" x="0px" y="0px" viewBox="0 0 1000 1000" enable-background="new 0 0 1000 1000" xml:space="preserve">
<metadata> Svg Vector Icons : http://www.onlinewebfonts.com/icon </metadata>
<g><g transform="translate(0.000000,511.000000) scale(0.100000,-0.100000)"><path d="M2239.5,4664.5c-61.3-24.5-132.4-115.2-132.4-171.6c0-19.6,80.9-181.4,179-357.9l181.4-321.1l-225.5-149.5C1182.8,2953.3,435.1,1896.7,190,756.7c-71.1-326.1-78.4-1029.7-12.3-1311.6C241.4-841.7,315-1055,425.3-1273.2c78.5-161.8,120.1-213.3,188.8-252.5l90.7-46.6l306.4,294.2C1705-608.8,2229.7-177.3,2511.6-42.5C2872,131.6,4240,550.8,4306.1,506.6c17.2-12.3,605.5-1041.9,1306.7-2289.7l1272.4-2267.7l-3334.1-12.3l-3336.6-12.2l-58.8-68.7c-78.4-90.7-73.5-152,12.3-240.2l71.1-71.1h4760.9h4760.9l71.1,71.1c90.7,90.7,90.7,159.3,0,250l-71.1,71.1H8537.5H7316.7l-73.5,142.2c-41.7,76-635,1137.5-1321.4,2358.4C5235.3-344,4669,673.4,4664.1,695.4c-12.3,41.7,384.9,426.6,875.2,848.3c350.6,299.1,566.3,456,745.3,534.4c301.5,132.4,912,326,1691.6,536.9c228,61.3,419.2,117.7,426.6,122.6c14.7,17.2-183.9,357.9-299.1,512.4c-495.2,661.9-1211.1,1088.5-2115.7,1267.5c-331,66.2-948.7,90.7-1304.2,51.5c-549.1-58.8-1164.5-230.4-1642.5-456c-127.5-61.3-240.3-103-250.1-93.2c-9.8,12.3-90.7,147.1-179,304c-88.3,156.9-174.1,296.7-191.2,308.9C2369.4,4674.3,2293.4,4686.6,2239.5,4664.5z M5578.5,4196.2c676.6-68.6,1289.5-306.5,1762.7-688.9c220.6-174.1,514.8-512.4,470.7-536.9c-17.2-9.8-193.7-61.3-397.2-120.1c-777.2-218.2-1336.1-429-1571.4-585.9l-78.5-53.9l-137.3,208.4C5178.9,3093,4531.7,3674.1,3972.7,3904.5c-107.9,46.6-193.7,85.8-188.8,90.7c14.7,14.7,343.2,100.5,544.3,139.7C4747.4,4220.8,5149.5,4240.4,5578.5,4196.2z M3538.8,3647.1c426.6-112.8,784.5-338.3,1216-769.8c264.8-267.2,475.6-529.5,661.9-826.2l49-73.5l-228-196.1c-122.6-105.4-384.9-343.2-581-524.6l-355.5-333.4L3909,818c-414.3-112.8-1164.5-353-1375.3-438.8l-127.5-51.5l-85.8,188.8c-103,225.5-193.7,512.4-255,791.9c-34.3,156.9-44.1,308.9-41.7,635c0,394.7,7.4,446.2,68.6,649.7c103,335.9,218.2,536.9,431.5,747.7c176.5,176.5,340.8,281.9,500.1,321.1C3153.9,3691.2,3391.7,3686.3,3538.8,3647.1z M1707.5,2600.3c-68.6-257.4-85.8-882.6-34.3-1208.6c51.5-318.7,154.5-674.2,291.7-995.4l107.9-257.4l-88.3-61.3C1839.9-25.3,1332.4-459.3,1016.1-751c-338.3-313.8-306.5-316.2-414.3,51.5c-154.5,534.4-137.3,1140,49,1745.5c88.3,281.9,372.6,845.8,561.4,1105.7c127.5,179,512.4,625.2,536.9,625.2C1751.6,2776.8,1734.4,2695.9,1707.5,2600.3z"/></g></g>
</svg>