<?xml version="1.0" encoding="utf-8"?>
<!-- Svg Vector Icons : http://www.onlinewebfonts.com/icon -->
<!DOCTYPE svg PUBLIC "-//W3C//DTD SVG 1.1//EN" "http://www.w3.org/Graphics/SVG/1.1/DTD/svg11.dtd">
<svg version="1.1" xmlns="http://www.w3.org/2000/svg" xmlns:xlink="http://www.w3.org/1999/xlink" x="0px" y="0px" viewBox="0 0 1000 1000" enable-background="new 0 0 1000 1000" xml:space="preserve">
<metadata> Svg Vector Icons : http://www.onlinewebfonts.com/icon </metadata>
<g><g transform="translate(0.000000,341.000000) scale(0.100000,-0.100000)"><path d="M2138.1,1661c-216.4-55.5-356.2-245.2-386.9-522.9l-11.5-109.1l-522.8-5.8l-520.9-5.7l-49.8-46C584.9,914,581,822.1,632.7,757l36.4-46h2043.5h2043.5l36.4,46c42.1,51.7,46,149.4,9.6,197.3c-47.9,63.2-124.5,72.8-626.3,72.8h-496v63.2c0,147.5-90,367.7-185.8,455.8c-128.3,120.7-136,122.6-743.1,126.4C2446.4,1674.3,2170.6,1668.6,2138.1,1661z M3273.7,1310.5c44.1-49.8,69-107.2,88.1-210.7l13.4-72.8h-662.7H2050l11.5,72.8c23,126.4,49.8,195.4,91.9,224.1c34.5,23,130.2,28.7,559.2,28.7C3227.8,1352.6,3233.5,1352.6,3273.7,1310.5z"/><path d="M6696.2,1285.6c-26.8-24.9-47.9-68.9-47.9-95.8c0-26.8-23-93.8-51.7-149.4c-72.8-141.7-74.7-306.4,0-455.8c63.2-130.2,63.2-147.5,5.7-264.3c-26.8-51.7-53.6-136-61.3-187.7c-9.6-82.3-5.8-101.5,32.5-145.5c24.9-28.7,72.8-57.5,107.3-63.2c51.7-9.6,70.9-1.9,120.7,46c32.6,34.5,57.5,78.5,57.5,105.3c0,26.8,23,91.9,49.8,145.6c72.8,137.9,72.8,306.4,1.9,442.4c-63.2,122.6-65.1,166.6-3.8,289.2c30.6,57.5,51.7,134.1,53.6,191.5c3.8,84.2-1.9,103.4-49.8,143.6C6839.8,1346.9,6755.5,1346.9,6696.2,1285.6z"/><path d="M7330.1,1293.2c-30.6-24.9-49.8-57.5-49.8-90c0-28.7-23-95.8-51.7-147.5c-74.7-137.9-76.6-337.1,0-490.3c28.7-59.4,51.7-114.9,51.7-124.5c0-9.6-23-59.4-49.8-111.1c-30.7-55.5-53.6-137.9-59.4-201.1c-7.6-90-3.8-113,30.7-149.4c97.7-101.5,226-67,268.1,70.9c13.4,47.9,46,128.3,70.8,180c67,137.9,63.2,283.4-13.4,455.8l-57.5,132.1l49.8,99.6c30.6,57.5,55.5,141.7,61.3,206.8c9.6,99.6,5.7,114.9-38.3,159C7481.4,1344.9,7400.9,1348.8,7330.1,1293.2z"/><path d="M812.8,483.1l-53.6-46V-681.3v-1116.5l49.8-107.2c59.4-124.5,151.3-224.1,258.5-277.7c70.9-34.5,136-36.4,1614.5-42.1c1729.4-5.7,1654.7-11.5,1802.2,134.1c44,42.1,103.4,124.5,130.2,183.8l51.7,109.2v1116.5V437.2l-53.6,46c-86.2,72.8-187.7,59.4-233.7-32.6c-24.9-46-28.7-220.2-28.7-1108.9c0-1164.4,1.9-1152.9-118.7-1225.7c-61.3-38.3-91.9-38.3-1518.7-38.3c-1407.6,0-1457.4,1.9-1516.8,38.3c-114.9,69-111.1,28.7-120.6,1231.5l-9.6,1108.9l-46,36.4C958.3,542.5,877.9,538.7,812.8,483.1z"/><path d="M5713.7-338.5c-42.1-44-42.1-51.7-42.1-733.5c0-766.1,5.7-819.7,120.7-969.1c34.5-46,105.3-103.4,164.7-134.1l101.5-53.6h894.4h894.4l99.6,49.8c107.3,53.6,191.5,137.9,256.6,262.4c40.2,72.8,44,113,53.6,463.5l9.6,383l775.6,159c551.6,113,785.2,166.6,808.2,191.5c19.2,17.2,38.3,59.4,46,93.8c9.6,51.7,1.9,70.9-46,120.7c-32.6,30.7-70.9,57.5-86.2,57.5c-15.3,0-348.6-65.1-739.3-143.6c-392.6-78.5-725.8-143.6-741.2-143.6c-21.1,0-26.8,38.3-26.8,181.9c0,287.3,141.7,258.5-1288.9,258.5H5753.9L5713.7-338.5z M7950.6-1150.5c0-513.3-1.9-553.5-38.3-630.1c-70.9-143.6-59.4-141.7-972.9-141.7H6135l-59.4,49.8c-32.5,26.8-67,80.4-78.5,118.7c-11.5,40.2-19.2,302.6-19.2,612.9v540.1h986.3h986.3V-1150.5z"/><path d="M433.6-2596.5c-61.3-21.1-176.2-99.6-216.4-149.4c-13.4-15.3-42.1-63.2-67-105.3c-42.1-74.7-42.1-91.9-47.9-810.1c-7.7-861.8-3.8-886.7,147.5-1038C416.3-4866-6.9-4852.5,4838.4-4852.5c4747.7,0,4406.8-9.6,4561.9,124.5c44,36.4,99.6,107.3,124.5,159c44,88.1,44,99.6,49.8,813.9c7.7,861.8,3.8,882.9-155.1,1038c-61.3,59.4-130.2,105.3-178.1,120.7C9136.1-2565.8,523.6-2565.8,433.6-2596.5z M9147.6-2906.7c34.5-15.3,72.8-44.1,84.3-65.1c13.4-26.8,21.1-277.7,21.1-746.9v-706.7l-49.8-51.7l-51.7-49.8h-4313h-4313l-51.7,49.8l-49.8,51.7v706.7c0,469.2,7.7,720.1,21.1,745c51.7,95.8-159,91.9,4389.6,93.8C8454.3-2879.9,9092-2883.8,9147.6-2906.7z"/><path d="M2431.1-3192.1c-383-109.2-522.8-568.8-262.4-863.7c109.2-124.5,204.9-168.5,381.1-180c187.7-11.5,310.3,38.3,430.9,172.4c157,174.3,185.8,406,74.7,609C2936.7-3236.1,2672.4-3125.1,2431.1-3192.1z M2733.7-3557.9c166.6-166.6,3.8-427.1-224.1-358.1c-139.8,42.1-199.2,222.2-111.1,335.2c49.8,63.2,99.6,86.2,197.3,86.2C2653.2-3492.8,2682-3506.2,2733.7-3557.9z"/><path d="M6677-3184.4c-160.9-42.1-319.8-176.2-384.9-321.8c-19.2-42.1-32.6-126.4-32.6-199.2c-5.7-406,419.4-660.7,789.1-475c204.9,103.4,304.5,285.4,285.3,524.7c-17.2,197.3-128.3,350.5-314.1,432.8C6927.9-3180.6,6759.4-3163.4,6677-3184.4z M6918.3-3525.3c57.5-34.5,113-128.3,113-191.5c0-63.2-74.7-160.9-147.5-189.6c-97.7-42.1-181.9-21.1-252.8,61.3C6466.3-3657.5,6700-3397,6918.3-3525.3z"/><path d="M3271.8-3588.5c-93.9-74.7-82.4-203,26.8-258.5c47.9-24.9,103.4-30.6,260.5-24.9c193.4,5.7,203,7.7,247.1,59.4c49.8,57.5,59.4,137.9,21.1,187.7c-46,59.4-107.3,74.7-306.4,74.7C3350.4-3550.2,3314-3556,3271.8-3588.5z"/><path d="M7506.3-3607.7c-47.9-49.8-55.5-68.9-45.9-120.7c24.9-122.6,61.3-137.9,319.8-137.9c229.8,0,231.8,0,277.7,53.6c49.8,59.4,57.5,103.4,24.9,172.4c-32.6,72.8-95.8,90-316,90C7567.6-3550.2,7563.7-3550.2,7506.3-3607.7z"/></g></g>
</svg>