<?xml version="1.0" encoding="utf-8"?>
<!-- Svg Vector Icons : http://www.onlinewebfonts.com/icon -->
<!DOCTYPE svg PUBLIC "-//W3C//DTD SVG 1.1//EN" "http://www.w3.org/Graphics/SVG/1.1/DTD/svg11.dtd">
<svg version="1.1" xmlns="http://www.w3.org/2000/svg" xmlns:xlink="http://www.w3.org/1999/xlink" x="0px" y="0px" viewBox="0 0 1000 1000" enable-background="new 0 0 1000 1000" xml:space="preserve">
<metadata> Svg Vector Icons : http://www.onlinewebfonts.com/icon </metadata>
<g><g transform="translate(0.000000,512.000000) scale(0.100000,-0.100000)"><path d="M1173.8,3579.3l5.7-1442.6l44.1-93.9c70.9-153.3,162.8-252.9,306.5-321.9c116.9-57.5,145.6-63.2,342.9-70.9l216.5-5.8v-611.2V422h-162.8c-183.9,0-247.1-21.1-277.8-93.9c-13.4-34.5-19.2-726.1-15.3-2348.8l5.7-2299l46-86.2c126.4-239.5,325.7-373.6,557.5-373.6c229.9,1.9,448.3,147.5,553.7,371.7l49.8,107.3l5.7,2289.4c3.8,1613.1-1.9,2304.8-17.2,2339.3c-28.7,72.8-92,93.9-275.9,93.9h-162.8v611.1v611.2l214.6,7.7c183.9,5.7,233.7,15.3,323.8,57.5c137.9,63.2,256.7,180.1,321.9,319.9l49.8,107.3l5.7,1442.6l3.8,1440.7h-153.3h-153.3V3598.4c0-1318.1-1.9-1429.2-34.5-1488.6c-17.3-36.4-57.5-84.3-86.2-105.4c-51.7-38.3-78.5-40.2-645.6-40.2c-567.1,0-593.9,1.9-645.6,40.2c-28.7,21.1-69,69-86.2,105.4c-32.6,59.4-34.5,170.5-34.5,1488.6V5020h-153.3H1170L1173.8,3579.3z M2549.4-2072.5c0-2046.1-1.9-2193.6-34.5-2254.9c-55.6-111.1-120.7-145.6-272.1-145.6c-151.3,0-216.5,34.5-272.1,145.6c-32.6,61.3-34.5,208.8-34.5,2254.9V115.4h306.5h306.5V-2072.5z"/><path d="M1783.1,3640.6V2261.2h153.3h153.3v1379.4V5020h-153.3h-153.3V3640.6z"/><path d="M2396.1,3640.6V2261.2h153.3h153.3v1379.4V5020h-153.3h-153.3V3640.6z"/><path d="M4988.3,4985.5c-183.9-65.2-291.2-160.9-390.8-348.7l-46-86.2l-5.7-2299c-3.8-1622.7,1.9-2314.3,15.3-2348.8c30.7-72.8,93.9-93.9,277.8-93.9h162.9v-459.8c0-352.5-5.7-461.7-23-467.5c-13.4-3.8-97.7-19.2-187.7-36.4c-365.9-70.9-645.6-287.4-810.4-626.5C3766-2223.8,3720-2856,3861.8-3390.5c168.6-628.4,615-1203.1,1048-1352.6c134.1-47.9,356.3-47.9,490.4,0c434.9,149.4,879.4,726.1,1049.9,1360.2c139.9,523,92,1162.9-118.8,1597.8c-105.4,216.5-293.1,419.6-480.9,517.3c-126.4,67.1-373.6,137.9-479,137.9h-63.2v469.4v469.4h162.9c183.9,0,247.1,21.1,275.9,93.9c15.3,34.5,21.1,726.1,17.2,2339.2l-5.7,2289.4l-49.8,107.3C5574.5,4924.2,5250.8,5079.4,4988.3,4985.5z M5342.7,4663.7c28.7-21.1,67.1-69,84.3-105.4c32.6-61.3,34.5-208.8,34.5-2253V115.4H5155h-306.5l3.8,2210.9c5.7,2203.2,5.7,2212.8,46,2266.4c21.1,28.7,69,69,105.4,88.1C5089.8,4726.9,5268,4717.3,5342.7,4663.7z M5467.2-1446c549.9-116.9,787.4-563.3,754.9-1413.9c-21.1-542.2-191.6-980.9-517.3-1327.7c-201.2-212.7-341-285.5-549.9-285.5c-124.5,0-162.8,9.6-268.2,61.3c-201.2,99.6-427.2,346.8-567.1,624.6c-157.1,306.5-237.6,662.9-237.6,1036.5c0,785.5,235.6,1191.7,751,1304.7C4994-1411.5,5306.3-1411.5,5467.2-1446z"/><path d="M8421.5,4998.9c-722.3-103.5-1335.3-670.5-1536.5-1417.7c-28.7-109.2-32.6-285.5-38.3-1712.8c-3.8-873.6-1.9-1611.2,3.8-1638c7.7-26.8,174.3-210.7,383.2-421.5l373.6-373.6l3.8-1877.5l5.7-1877.5l53.6-101.5c162.8-308.5,498.1-440.6,781.7-306.5c137.9,63.2,256.7,180.1,321.9,319.9l49.8,107.3l5.8,4588.5c1.9,3253.1-1.9,4603.8-17.2,4638.3C8775.9,5018.1,8678.2,5035.3,8421.5,4998.9z M8526.8,226.6c0-4235.9-1.9-4492.7-34.5-4554c-55.6-111.1-120.7-145.6-272.1-145.6s-216.5,34.5-272.1,145.6c-32.6,61.3-34.5,193.5-34.5,1958c0,1605.5-3.8,1900.5-26.8,1944.6c-15.3,28.7-187.8,210.7-383.2,406.2l-356.3,354.4v118.8v120.7h153.3H7454v153.3v153.3h-153.3h-153.3V1035v153.3h153.3H7454v153.3v153.3h-153.3h-153.3v153.3v153.3h153.3H7454v153.3v153.3h-153.3h-153.3v153.3v153.3h153.3H7454v153.3V2721h-153.3h-153.3v153.3v153.3h153.3H7454v153.3v153.3h-151.4h-153.3l11.5,72.8c72.8,507.7,388.9,942.6,839.1,1155.3c143.7,67.1,310.4,120.7,440.6,137.9c32.6,3.8,63.2,9.6,72.8,11.5C8521.1,4711.5,8526.8,2694.2,8526.8,226.6z"/></g></g>
</svg>