<?xml version="1.0" encoding="utf-8"?>
<!-- Svg Vector Icons : http://www.onlinewebfonts.com/icon -->
<!DOCTYPE svg PUBLIC "-//W3C//DTD SVG 1.1//EN" "http://www.w3.org/Graphics/SVG/1.1/DTD/svg11.dtd">
<svg version="1.1" xmlns="http://www.w3.org/2000/svg" xmlns:xlink="http://www.w3.org/1999/xlink" x="0px" y="0px" viewBox="0 0 1000 1000" enable-background="new 0 0 1000 1000" xml:space="preserve">
<metadata> Svg Vector Icons : http://www.onlinewebfonts.com/icon </metadata>
<g><path d="M526.5,990c-126.9,0-266.8-8-268.2-8.1l-5.8-1.3c-3.5-1.5-86.8-35.5-174.9-132.4l-28.2-31.1h878.4l-22.1,29.6c-3.5,4.7-87.7,115.9-212,134.9C657.9,987.2,601.7,990,526.5,990z M263.7,945.1c21.7,1.2,147.7,7.8,262.8,7.8c73.3,0,127.6-2.6,161.5-7.8c71.4-10.9,129.5-58.8,161.3-90.8H135.3C197.2,913.2,251.5,939.6,263.7,945.1z"/><path d="M536,854.2c-124,0-275.6-4-277.1-4.1l-5.6-0.1l-4.6-3.2c-5.1-3.6-125.2-88.4-135.1-190.8c-9.1-95.9-0.4-181.5,0-185.1l1.7-16.6h716.7l-1,229c-2.2,6.4-54.9,156.6-147.3,166.8C659.1,852.9,609.3,854.2,536,854.2z M265.7,813.2c28.9,0.7,160.5,3.9,270.3,3.9c72,0,120.3-1.3,143.7-4c56.2-6.2,101.2-99.8,115.3-139.1V491.3H149.3c-2.1,29.2-5.1,93.2,1.4,161.1C157.9,728.2,245.1,797.8,265.7,813.2z"/><path d="M806.2,753.7l-12.4-35c1.3-0.4,127-46.2,119.5-121.5c-1.6-15.5-6.4-25.4-14.3-29.4c-19.9-9.9-59,8.9-71.2,16.2l-19.3-31.7c6.5-4,65.4-38.5,106.9-17.7c13.8,6.9,31.1,22.7,34.7,59C960.5,697.7,812.5,751.5,806.2,753.7z"/><path d="M294.8,775.6C241.6,736.9,241,675.3,241,672.7V568.2h18.6v104.5c0,0.5,0.8,54.9,46.2,87.9L294.8,775.6z"/><path d="M347.5,296.6l-1.5-2c-14.2-19.2-51.8-70.1,7-123.9c11.7-10.7,16.9-21.5,15.5-32c-2.8-20.5-30.3-38.5-40.6-43.7l8.3-16.6c1.9,0.9,45.8,23.3,50.7,57.7c2.4,16.9-4.8,33.1-21.3,48.3c-46.5,42.6-19.2,79.4-4.6,99.2l1.5,2.1L347.5,296.6z"/><path d="M489.7,299.8c-2.3-0.9-56.1-21.6-62.7-63.6c-4.2-27,12.1-55.3,48.5-84.1c29.2-23.2,42.7-45.4,39.8-66c-4.9-36.3-57.3-58.8-57.8-59l7.2-17.1c2.6,1.1,62.7,26.9,69,73.6c3.8,27.6-12,55.6-46.7,83.1c-30.8,24.4-44.8,46.8-41.6,66.8c4.1,26,38.1,44.2,50.9,49L489.7,299.8z"/><path d="M614.9,298.3c-2.1-1.7-50.8-42-48.1-84.8c1.2-19.2,12.3-35.5,32.8-48.3c18.8-11.8,28.2-23.6,27.9-35.2c-0.5-19.4-27.3-34.9-27.6-35.1l9.1-16.2c1.5,0.8,36.3,20.7,37,50.8c0.4,18.6-11.9,35.9-36.6,51.4c-15.4,9.6-23.3,20.7-24.2,33.8c-1.8,27.7,29.2,59.4,41.3,69.3L614.9,298.3z"/></g>
</svg>