<?xml version="1.0" encoding="utf-8"?>
<!-- Svg Vector Icons : http://www.onlinewebfonts.com/icon -->
<!DOCTYPE svg PUBLIC "-//W3C//DTD SVG 1.1//EN" "http://www.w3.org/Graphics/SVG/1.1/DTD/svg11.dtd">
<svg version="1.1" xmlns="http://www.w3.org/2000/svg" xmlns:xlink="http://www.w3.org/1999/xlink" x="0px" y="0px" viewBox="0 0 1000 1000" enable-background="new 0 0 1000 1000" xml:space="preserve">
<metadata> Svg Vector Icons : http://www.onlinewebfonts.com/icon </metadata>
<g><g transform="translate(0.000000,511.000000) scale(0.100000,-0.100000)"><path d="M4732.9,4984.6c-245.2-61.3-554-258.4-659.1-416l-48.2-74.4l-985.3-6.6c-893.4-6.6-991.9-10.9-1055.4-46c-92-48.2-214.6-173-262.7-262.8c-52.6-96.4-50.4-330.6,0-427c59.1-109.5,203.6-238.7,306.5-273.7c70.1-21.9,94.2-41.6,98.5-83.2c10.9-89.8-157.6-389.7-416-746.7c-262.7-361.3-328.4-486.1-365.7-685.3c-17.5-87.6-24.1-970-24.1-2750.2c0-2861.8-2.2-2793.9,127-3102.6c137.9-330.6,378.8-606.5,641.6-735.7c335-164.2,122.6-153.3,2877.1-162c2688.8-6.6,2627.5-8.8,2892.5,113.9c240.8,111.7,543,468.6,683.2,803.6c140.1,341.6,135.8,232.1,135.8,3111.4c0,2756.7-2.2,2783-98.5,2977.9c-21.9,39.4-122.6,183.9-227.7,319.7c-317.5,418.2-416,573.7-466.4,733.5c-48.2,157.7-39.4,188.3,50.4,190.5c63.5,0,236.5,133.6,302.2,232.1c113.8,175.2,116,367.8,0,540.8c-72.3,109.5-194.9,203.6-306.6,234.3c-43.8,13.1-462,21.9-1000.7,21.9H6005l-120.4,129.2c-227.7,247.4-497,372.2-829.9,387.6C4927.7,5013.1,4813.9,5006.5,4732.9,4984.6z M5387.6,4577.4l148.9-74.4l-267.1-6.6c-148.9-2.2-389.8-2.2-534.3,0l-264.9,6.6l85.4,48.2c146.7,83.2,306.5,116,503.6,107.3C5210.2,4651.8,5264.9,4638.7,5387.6,4577.4z M7934.1,4097.8c28.5-28.5,43.8-72.3,43.8-131.4c0-59.1-15.3-102.9-43.8-131.4c-43.8-43.8-72.3-43.8-2934.1-43.8c-2861.8,0-2890.3,0-2934.1,43.8c-28.5,28.5-43.8,72.3-43.8,131.4c0,59.1,15.3,102.9,43.8,131.4c43.8,43.8,72.3,43.8,2934.1,43.8C7861.8,4141.6,7890.3,4141.6,7934.1,4097.8z M7507.1,3338c19.7-142.3,118.2-387.6,210.2-532.1c43.8-65.7,175.2-243,293.4-394.1c346-442.3,306.5-41.6,313.1-3113.6c6.6-2956,13.1-2813.6-148.9-3142.1c-111.7-225.5-317.5-442.3-499.2-527.7l-124.8-59.1l-2441.4-4.4c-1681.6-4.4-2483,0-2572.8,17.5c-356.9,63.5-643.7,321.9-797,716l-56.9,146.7l-6.6,2702c-4.4,2369.2-2.2,2717.3,28.5,2818c21.9,78.8,105.1,214.6,260.6,431.3c352.5,488.3,448.9,665.6,518.9,945.9l24.1,98.5H5000h2491.8L7507.1,3338z"/><path d="M7721.7-609.8c-26.3-10.9-56.9-39.4-70.1-63.5c-15.3-28.5-24.1-407.3-24.1-1147.3c0-913.1-6.6-1136.4-35-1285.3c-41.6-227.7-116.1-429.2-227.7-617.5c-100.7-168.6-109.5-238.7-32.8-313.1c70.1-72.3,170.8-72.3,240.9-2.2c65.7,65.7,232.1,396.3,291.2,582.4c105.1,317.5,113.9,459.8,113.9,1642.2c0,1026.9-2.2,1114.5-37.2,1158.3C7894.6-603.2,7791.7-579.2,7721.7-609.8z"/></g></g>
</svg>