<?xml version="1.0" encoding="utf-8"?>
<!-- Svg Vector Icons : http://www.onlinewebfonts.com/icon -->
<!DOCTYPE svg PUBLIC "-//W3C//DTD SVG 1.1//EN" "http://www.w3.org/Graphics/SVG/1.1/DTD/svg11.dtd">
<svg version="1.1" xmlns="http://www.w3.org/2000/svg" xmlns:xlink="http://www.w3.org/1999/xlink" x="0px" y="0px" viewBox="0 0 1000 1000" enable-background="new 0 0 1000 1000" xml:space="preserve">
<metadata> Svg Vector Icons : http://www.onlinewebfonts.com/icon </metadata>
<g><g transform="translate(0.000000,511.000000) scale(0.100000,-0.100000)"><path d="M4979.1,4675.5c-94.2-37.7-188.5-125.6-236.6-213.6l-46.1-88l-6.3-3815.3l-4.2-3817.4h-345.5h-347.6l31.4,58.6c16.8,31.4,35.6,92.1,44,134c23,123.5-134,3526.3-169.6,3652c-14.7,58.6-60.7,146.6-98.4,196.8l-71.2,92.1l69.1,92.1c100.5,129.8,134,263.8,134,536.1c0,293.2-39.8,481.6-144.5,693.1c-152.9,305.7-425.1,529.8-766.4,628.2c-148.7,44-437.6,50.3-596.8,12.6c-345.5-81.7-659.6-332.9-812.5-653.3c-108.9-226.2-129.8-337.1-129.8-674.3c0-316.2,16.7-391.6,111-534l69.1-100.5L1593,774.3c-37.7-54.4-77.5-136.1-90-178c-18.8-75.4-165.4-3053.1-169.6-3478.2c-2.1-134,8.4-228.3,29.3-286.9l33.5-90H855.9c-527.7,0-542.3-2.1-611.5-48.2C114.7-3392.8,100-3453.5,100-3872.3c0-408.3,8.4-448.1,125.6-546.6l67-54.4l4717.8,4.2l4717.8,6.3l56.5,52.4c106.8,100.5,115.2,136.1,115.2,538.2c0,418.8-14.7,479.5-144.5,565.4c-67,46.1-90,48.2-467,48.2h-395.8l31.4,60.7c18.8,33.5,37.7,98.4,46,142.4c20.9,140.3-136.1,3517.9-171.7,3643.6c-16.8,58.6-60.7,148.7-98.4,198.9l-69.1,90l69.1,90c98.4,129.8,131.9,265.9,131.9,536.1c0,286.9-39.8,479.5-136.1,678.5c-165.4,335-483.7,575.8-873.2,661.7c-58.6,12.6-58.6,14.7-58.6,180.1c0,90-10.5,188.5-23,217.8c-48.2,106.8-215.7,115.2-268,14.7c-12.6-23-23-121.5-23-217.8v-178l-140.3-33.5c-349.7-88-649.2-330.9-797.8-642.9c-108.9-226.2-129.8-337.1-129.8-674.3c0-316.2,16.7-391.6,111-534l69.1-100.5L6493,774.3c-37.7-54.4-77.5-134-90-175.9c-18.8-75.4-167.5-3111.7-169.6-3492.8c0-117.3,10.5-219.9,31.4-274.3l31.4-90h-343.4h-345.5V548.1v3806.9l-52.4,106.8c-79.6,159.1-186.4,224.1-374.8,230.3C5098.4,4696.4,5008.4,4688,4979.1,4675.5z M5253.4,4365.5l50.3-39.8l6.3-3792.3l4.2-3792.3h-157.1H5000V520.9v3781.8l52.3,50.3C5113.1,4415.8,5186.4,4420,5253.4,4365.5z M3010.7,2508.1c245-96.3,458.6-303.6,548.6-531.9c35.6-94.2,46.1-169.6,52.3-418.8c10.5-341.3-8.4-397.9-144.5-481.6c-64.9-39.8-106.8-41.9-755.9-41.9c-770.6,0-791.5,4.2-877.4,142.4c-90,146.6-71.2,626.1,37.7,854.4c111,234.5,343.4,429.3,596.8,500.5C2610.7,2571,2880.8,2560.5,3010.7,2508.1z M7933.7,2499.8c230.3-90,433.5-291.1,525.6-523.5c37.7-96.3,46.1-167.5,52.4-418.8c8.4-341.3-8.4-397.9-144.5-481.6c-67-39.8-100.5-41.9-781.1-37.7c-674.3,6.3-714.1,8.4-768.5,48.2c-117.2,88-131.9,142.4-129.8,450.2c2.1,240.8,10.5,301.5,50.3,408.3c115.2,299.4,333,502.6,634.5,586.3C7521.2,2573.1,7780.8,2558.4,7933.7,2499.8z M3471.4,671.7c148.7-98.4,138.2-6.3,219.9-1805c41.9-898.3,73.3-1706.6,69.1-1794.6c-6.3-144.5-12.6-167.5-69.1-226.2c-33.5-35.6-94.2-73.3-136.1-85.8c-46.1-12.6-372.7-18.9-904.6-14.7c-799.9,6.3-833.4,8.4-890,50.2c-31.4,23-75.4,75.4-96.3,117.3c-35.6,73.3-35.6,129.8,44,1832.3c87.9,1922.3,79.6,1840.6,217.8,1930.7c67,41.9,94.2,44,772.7,44C3393.9,719.9,3402.3,719.9,3471.4,671.7z M8411.2,648.7c33.5-31.4,73.3-83.8,85.8-115.2c27.2-67,184.3-3463.5,165.4-3561.9c-8.4-37.7-48.2-102.6-90.1-144.5l-75.4-75.4l-858.6-6.3c-835.5-6.3-860.6-4.2-944.4,37.7c-62.8,33.5-96.3,69.1-125.6,134c-39.8,90-37.7,104.7,41.9,1836.4c85.8,1911.8,77.5,1832.3,215.7,1922.3c67,44,85.8,44,795.7,39.8l726.6-6.3L8411.2,648.7z M9585.9-3876.5v-303.6H5000H414.1v303.6v303.6H5000h4585.9V-3876.5z"/></g></g>
</svg>