<?xml version="1.0" encoding="utf-8"?>
<!-- Svg Vector Icons : http://www.onlinewebfonts.com/icon -->
<!DOCTYPE svg PUBLIC "-//W3C//DTD SVG 1.1//EN" "http://www.w3.org/Graphics/SVG/1.1/DTD/svg11.dtd">
<svg version="1.1" xmlns="http://www.w3.org/2000/svg" xmlns:xlink="http://www.w3.org/1999/xlink" x="0px" y="0px" viewBox="0 0 1000 1000" enable-background="new 0 0 1000 1000" xml:space="preserve">
<metadata> Svg Vector Icons : http://www.onlinewebfonts.com/icon </metadata>
<g><g transform="translate(0.000000,511.000000) scale(0.100000,-0.100000)"><path d="M2757.2,4965.7c-256.4-55.7-697.9-205.1-1092.6-374.6c-508.4-216.3-515.1-238.6-194-606.5c392.4-450.4,646.6-854,771.5-1226.4c169.5-508.4,75.8-816.1-521.8-1716.9c-176.1-263.1-356.8-559.7-403.6-657.8C1060.3-162.8,877.5-1027.9,902-1569.7c60.2-1239.8,820.6-2368,1962.2-2907.6c249.7-118.2,486.1-196.2,782.7-260.9c298.8-64.7,900.8-69.1,1217.5-11.2c1192.9,220.8,2238.7,1126,2617.8,2269.9c147.1,441.5,158.3,521.8,160.5,1235.3c2.2,593.1,6.7,662.3,51.3,825c66.9,243.1,247.5,604.3,495,992.3c450.4,709.1,546.3,867.4,657.8,1103.7c272.1,577.5,323.3,1056.9,162.8,1536.3c-223,660-827.3,1286.6-1409.2,1465c-131.6,40.1-191.8,46.8-434.8,35.7c-243-8.9-343.4-24.5-695.7-116c-722.4-182.8-920.9-169.5-1948.8,144.9C3646.8,5008.1,3220.9,5061.6,2757.2,4965.7z M3716,4586.7c122.6-26.8,434.8-111.5,693.5-189.5c778.2-234.1,941-265.3,1357.9-267.6c356.8,0,359,0,791.6,111.5c394.7,100.3,459.3,109.3,691.2,111.5h256.4l205.1-109.3c508.4-272,887.5-764.8,998.9-1297.7c42.4-202.9,42.4-338.9,2.2-548.5c-66.9-345.6-205.1-626.6-662.2-1344.6C7615.8,370.2,7437.5,11.2,7334.9-374.6c-42.4-160.5-46.8-243-51.3-858.5c-2.2-657.8-4.5-686.8-60.2-903.1c-272-1034.6-952.1-1786-1931-2138.4c-321.1-113.7-582-156.1-1007.9-156.1c-441.5-2.2-640,29-1012.3,158.3C2106.1-3868.6,1323.4-2820.7,1261-1578.7c-22.3,417,80.3,1005.6,258.7,1516.2c102.6,287.6,171.7,414.7,472.7,867.4c321.1,479.4,501.7,798.3,575.3,1014.6l55.7,158.3h116h118.2v178.4v178.4h-84.7H2688l-26.7,185.1c-64.7,454.9-330,976.6-773.7,1527.4c-82.5,102.6-147.2,189.5-142.7,194c4.5,4.5,133.8,58,287.6,118.2c305.5,122.6,579.7,211.8,802.7,260.9C3031.4,4664.7,3428.3,4649.1,3716,4586.7z"/><path d="M6781.9,3911c-463.8-140.5-804.9-446-956.6-851.8c-62.5-165-113.7-432.6-113.7-590.9v-133.8h-178.4h-178.4v-178.4v-178.4h178.4h178.4l2.2,162.8v160.5l42.4-165c109.3-410.3,370.2-860.7,874.1-1500.6l140.5-180.6l185.1,198.4c579.7,615.4,1030.1,1291,1190.7,1781.6c64.6,202.9,71.3,524,11.1,695.7c-102.6,292.1-385.7,613.2-660,749.2C7301.4,3975.7,7031.6,3986.9,6781.9,3911z M7372.8,3540.9c256.4-120.4,450.4-401.4,472.7-680.1c29-336.7-216.3-840.6-689-1431.5c-287.6-356.8-347.8-419.2-383.5-390.2c-71.3,60.2-448.2,642.2-537.4,833.9c-167.2,352.3-198.4,564.1-133.8,874.1c49.1,227.4,147.2,412.5,292.1,544.1C6721.7,3592.2,7078.5,3681.4,7372.8,3540.9z"/><path d="M3214.3,2156.2v-178.4h178.4H3571v178.4v178.4h-178.4h-178.4V2156.2z"/><path d="M3927.8,2156.2v-178.4h178.4h178.4v178.4v178.4h-178.4h-178.4V2156.2z"/><path d="M4641.3,2156.2v-178.4h178.4h178.4v178.4v178.4h-178.4h-178.4V2156.2z"/><path d="M6311.4-2441.6c-26.8-29-107.1-144.9-180.6-258.6c-73.6-116-234.1-312.2-365.7-450.4c-182.9-191.7-231.9-256.4-231.9-305.5c2.2-100.3,93.7-185.1,200.7-185.1c136,0,869.6,887.4,869.6,1052.5C6603.5-2428.2,6411.8-2332.3,6311.4-2441.6z"/><path d="M5053.8-3696.9c-111.5-109.3-33.4-301,122.6-301c91.4,0,178.4,87,178.4,178.4c0,91.4-86.9,178.4-178.4,178.4C5134.1-3641.2,5087.3-3661.3,5053.8-3696.9z"/></g></g>
</svg>