<?xml version="1.0" encoding="utf-8"?>
<!-- Svg Vector Icons : http://www.onlinewebfonts.com/icon -->
<!DOCTYPE svg PUBLIC "-//W3C//DTD SVG 1.1//EN" "http://www.w3.org/Graphics/SVG/1.1/DTD/svg11.dtd">
<svg version="1.1" xmlns="http://www.w3.org/2000/svg" xmlns:xlink="http://www.w3.org/1999/xlink" x="0px" y="0px" viewBox="0 0 1000 1000" enable-background="new 0 0 1000 1000" xml:space="preserve">
<metadata> Svg Vector Icons : http://www.onlinewebfonts.com/icon </metadata>
<g><g transform="translate(0.000000,447.000000) scale(0.100000,-0.100000)"><path d="M4851.4,3128.6c-284.8-47.9-564.9-260.9-684.6-521.8c-79-177.1-100.5-462-43.1-653.5c45.5-162.8,193.9-373.4,323.1-462c93.4-64.6,98.1-76.6,98.1-186.7c0-93.3-12-129.3-59.8-174.7l-57.5-59.8h-892.9c-957.5,0-1072.4-12-1359.6-126.9c-517-210.6-892.8-620-1079.6-1177.7c-55-162.8-57.5-191.5-69.4-1304.6l-12-1137l-375.8-12c-356.7-12-378.2-14.4-435.6-69.4c-98.1-91-122.1-208.3-88.6-414.1c76.6-466.8,416.5-852.1,876.1-993.4c136.4-40.7,325.5-43.1,4009.4-43.1c3683.9,0,3873,2.4,4009.4,43.1c395,122.1,701.3,414.1,823.4,787.5c100.5,311.2,88.5,502.7-35.9,620c-57.5,55-81.4,57.4-435.7,69.4l-375.8,12l-12,1137c-12,1108.3-14.3,1141.8-69.4,1304.6C8702.8,371.1,8272,801.9,7668.7,1000.6c-162.8,52.7-201.1,55-1101.1,62.2c-512.3,4.8-957.5,12-986.2,19.1c-93.4,21.5-126.9,79-126.9,213c0,122.1,4.8,131.7,95.8,193.9c126.9,88.6,253.7,265.7,316,435.7c67,193.9,52.6,490.7-33.5,677.4c-126.9,272.9-380.6,471.6-675,524.2C5002.2,3154.9,5011.7,3154.9,4851.4,3128.6z M5176.9,2807.9c215.4-64.6,366.3-237,418.9-474c62.2-270.5-76.6-512.2-395-703.7c-38.3-21.5-47.9-67-57.4-263.3c-12-227.4-14.4-237-76.6-272.9c-59.8-31.1-74.2-31.1-131.7,0c-62.2,35.9-67,50.3-71.8,203.5c-12,284.8-21.5,313.6-134,378.2c-227.4,136.4-335.1,316-335.1,557.7c2.4,258.5,174.7,497.9,414.1,572.1C4949.5,2848.5,5038.1,2848.5,5176.9,2807.9z M7470.1,732.5c191.5-38.3,538.6-217.8,694.2-356.7c165.2-148.4,332.7-395,414.1-608c93.4-246.6,110.1-514.6,102.9-1522.4l-7.2-921.6H4999.8H1325.5l-7.2,945.5c-4.8,584.1,2.4,1022.1,19.1,1146.6c67,514.6,361.5,938.3,816.2,1175.3c327.9,170,201.1,162.8,2826.9,165.2C6591.6,758.9,7383.9,751.7,7470.1,732.5z M9586.1-3099.8c-50.3-380.6-347.1-701.3-727.7-782.7c-179.5-38.3-7537.7-38.3-7717.2,0c-378.2,81.4-684.6,409.3-730.1,785.1l-14.4,122.1h4603.1h4603.1L9586.1-3099.8z"/></g></g>
</svg>