<?xml version="1.0" encoding="utf-8"?>
<!-- Svg Vector Icons : http://www.onlinewebfonts.com/icon -->
<!DOCTYPE svg PUBLIC "-//W3C//DTD SVG 1.1//EN" "http://www.w3.org/Graphics/SVG/1.1/DTD/svg11.dtd">
<svg version="1.1" xmlns="http://www.w3.org/2000/svg" xmlns:xlink="http://www.w3.org/1999/xlink" x="0px" y="0px" viewBox="0 0 1000 1000" enable-background="new 0 0 1000 1000" xml:space="preserve">
<metadata> Svg Vector Icons : http://www.onlinewebfonts.com/icon </metadata>
<g><g transform="translate(0.000000,480.000000) scale(0.100000,-0.100000)"><path d="M3248.9,4372c-23-9.6-51.7-40.2-63.2-65.1c-15.3-34.5-21.1-516.9-21.1-1663.7V1025.5h153.2H3471v1531.6v1531.6h1684.7h1684.7v-765.8v-765.8h153.2h153.2V3409c0,582-5.7,865.4-21.1,896c-11.5,26.8-42.1,57.4-68.9,68.9C6993.6,4402.6,3308.2,4400.7,3248.9,4372z"/><path d="M3777.3,2403.9V1331.8h153.2h153.2v1072.1V3476h-153.2h-153.2V2403.9z"/><path d="M6310.1,2227.8c-55.5-26.8-70.8-70.8-147.4-407.8c-199.1-876.8-266.1-1443.5-224-1914.5c45.9-515,155.1-918.9,356.1-1321c289.1-578.2,739-1041.5,1257.8-1296.1l204.9-101.5l1.9-836.6v-838.5h-306.3h-306.3v842.4v842.4h-153.2h-153.2v-229.7v-229.7h-919h-918.9v-153.2v-153.2h918.9h919v-459.5v-459.5H5643.9H4447.3l63.2,82.3c76.6,101.5,141.7,248.9,166.6,379.1c28.7,145.5,24.9,4596.7-1.9,4656c-11.5,26.8-42.1,57.4-68.9,68.9c-32.5,15.3-664.3,21.1-2207.4,21.1S224,713.4,191.4,698.1c-26.8-11.5-57.4-42.1-68.9-68.9c-28.7-61.3-30.6-4508.6-1.9-4659.8c65.1-354.2,388.6-677.7,744.7-744.7c68.9-13.4,1537.3-19.1,4340.1-19.1h4238.7v153.2v153.2h-689.2h-689.2v838.5l1.9,836.6l204.9,101.5c365.7,178,748.6,511.2,1010.8,874.9c149.3,210.6,350.4,606.9,428.8,850c130.2,404,206.8,964.9,183.8,1361.2c-15.3,287.2-70.8,658.6-166.5,1125.7c-128.3,628-147.4,696.9-220.2,729.4C9444.1,2258.4,6371.4,2256.5,6310.1,2227.8z M9358,1806.6C9616.4,671.3,9654.7,72.1,9509.2-582.7c-122.5-549.5-354.2-989.8-717.9-1368.9c-206.8-212.5-337-315.9-576.3-455.6c-149.3-84.2-164.6-90-296.7-90c-114.9,0-160.8,9.6-241.2,49.8c-287.2,147.4-639.5,451.8-867.3,754.3c-367.6,486.3-582,1194.6-582,1922.1c0,346.5,113,1083.6,252.7,1635l19.2,80.4h1412.9h1412.9L9358,1806.6z M4386.1-1821.3l-5.7-2236.1l-40.2-88.1c-53.6-114.9-178-239.3-292.9-291c-70.8-32.5-134-42.1-331.2-47.9l-245-7.7v461.4v461.4h306.3h306.3v153.2v153.2h-306.3H3471v1684.7V106.5h-153.2h-153.2v-2297.4v-2299.3l-1162.1,5.7c-1144.9,5.7-1165.9,5.7-1252.1,45.9c-114.9,53.6-239.3,178.1-292.9,292.9l-40.2,88.1l-5.7,2236.1l-3.8,2234.2h1991.1h1991.1L4386.1-1821.3z"/><path d="M6840.4,183.1v-1455h153.2h153.2v1455v1455h-153.2h-153.2V183.1z"/><path d="M8793.2-856.4c-170.4-350.4-467.1-696.9-823.2-961.1c-68.9-49.8-122.5-99.6-118.7-109.1c11.5-40.2,137.8-225.9,153.2-225.9c9.6,0,88.1,53.6,178,118.7c201,145.5,490.1,438.4,631.8,639.4c103.4,143.6,304.4,480.5,304.4,507.3c0,9.6-256.6,134-273.8,132.1C8843-756.9,8820-800.9,8793.2-856.4z"/><path d="M717.9-3410.4c7.7-285.3,9.6-308.2,59.3-404c67-128.3,176.1-237.4,304.4-304.4c99.6-51.7,111-53.6,480.5-59.3l377.2-7.7v155.1v155.1h-348.4c-384.8,0-442.2,13.4-520.7,120.6c-36.4,47.9-40.2,86.2-45.9,350.4l-5.8,294.8H863.4H710.3L717.9-3410.4z"/></g></g>
</svg>