<?xml version="1.0" encoding="utf-8"?>
<!-- Svg Vector Icons : http://www.onlinewebfonts.com/icon -->
<!DOCTYPE svg PUBLIC "-//W3C//DTD SVG 1.1//EN" "http://www.w3.org/Graphics/SVG/1.1/DTD/svg11.dtd">
<svg version="1.1" xmlns="http://www.w3.org/2000/svg" xmlns:xlink="http://www.w3.org/1999/xlink" x="0px" y="0px" viewBox="0 0 1000 1000" enable-background="new 0 0 1000 1000" xml:space="preserve">
<metadata> Svg Vector Icons : http://www.onlinewebfonts.com/icon </metadata>
<g><g transform="translate(0.000000,511.000000) scale(0.100000,-0.100000)"><path d="M3703.5,4995.1c-37.6-9.9-104.8-59.3-152.3-106.8c-96.9-96.9-138.4-209.6-118.7-326.3l11.9-75.2l-104.8-33.6c-524.1-170.1-984.9-597.3-1194.6-1105.6c-37.6-89-77.1-209.6-91-272.9l-23.7-110.8l-336.2-7.9c-332.3-5.9-340.2-7.9-470.7-69.2c-185.9-87-316.4-215.6-407.4-399.5l-73.2-148.3l-5.9-1271.7l-5.9-1271.7H630c-164.2,0-251.2-37.6-371.8-158.2C151.4-469.5,100-570.4,100-679.2c0-108.8,51.4-209.7,158.2-316.4c120.6-120.7,207.7-158.2,371.8-158.2h98.9l7.9-480.6l5.9-480.6l73.2-148.3c91-183.9,221.5-312.5,407.4-399.5c130.5-61.3,138.4-63.3,470.7-69.2l336.2-7.9l21.8-104.8c81.1-385.7,377.7-830.7,731.8-1095.7c142.4-104.8,389.6-233.4,551.8-286.8l98.9-31.6v-124.6c-2-104.8,5.9-138.5,53.4-207.7c83.1-128.6,185.9-185.9,350.1-197.8c187.9-11.9,304.6,21.7,405.4,122.6c93,92.9,136.5,217.6,118.7,328.3l-11.9,75.2l104.8,33.6c130.5,43.5,389.6,172.1,508.3,251.2c132.5,93,360,316.4,458.8,450.9c178,245.3,322.4,589.4,348.1,832.6l11.9,116.7h174h176v-63.3c0-92.9,51.4-294.7,110.8-448.9c124.6-314.5,375.8-640.8,654.7-850.4c142.4-104.8,389.6-233.4,551.8-286.8l98.9-31.6v-124.6c-2-104.8,5.9-138.5,53.4-207.7c29.7-45.5,91-106.8,136.5-136.5c75.1-51.4,96.9-55.4,272.9-55.4c176,0,197.8,4,272.9,55.4c45.5,29.7,106.8,91,136.5,136.5c47.5,69.2,55.4,102.9,53.4,207.7v124.6l98.9,31.6c528.1,170.1,1000.8,617.1,1206.5,1137.2c128.6,330.3,120.6,116.7,120.6,3202c0,2606.7-2,2808.4-35.6,2935c-144.4,567.6-528.1,1046.2-1030.4,1293.5c-89,43.5-205.7,93-261.1,110.8l-98.9,31.7v124.6c2,104.8-5.9,138.4-53.4,207.7c-29.7,45.5-91,106.8-136.5,136.5c-75.2,51.4-96.9,55.4-272.9,55.4c-176,0-197.8-4-272.9-55.4c-45.5-29.7-106.8-91-136.5-136.5c-47.5-69.2-55.4-102.8-53.4-207.7v-124.6l-98.9-31.7c-621-199.8-1137.2-759.5-1287.5-1394.3c-15.8-69.2-29.7-156.2-29.7-189.9v-65.3h-178h-178v65.3c0,91-51.4,292.7-110.7,447c-124.6,314.5-375.8,640.8-654.7,850.4c-142.4,104.8-389.6,233.4-551.8,286.8l-98.9,31.7v124.6c2,104.8-5.9,138.4-53.4,207.7c-29.7,45.5-89,106.8-134.5,136.5c-67.2,45.5-104.8,53.4-241.3,59.3C3842,5012.9,3739.1,5006.9,3703.5,4995.1z M4045.7,4621.3v-69.2h-148.3c-140.4,0-148.3,2-154.3,45.5c-13.8,93,4,104.8,158.2,98.9l144.4-5.9V4621.3z M8159.5,4621.3v-69.2h-148.3c-140.4,0-148.3,2-154.3,45.5c-13.8,93,4,104.8,158.2,98.9l144.4-5.9V4621.3z M4322.6,4176.3c522.1-140.4,929.6-543.9,1101.6-1087.8l45.5-138.4l5.9-2763c4-2685.8,4-2768.9-33.6-2954.8c-122.6-599.3-597.3-1072-1200.5-1198.5c-227.4-45.5-565.6-39.6-769.4,13.8c-425.2,114.7-806.9,431.2-996.8,826.7c-162.2,338.2-150.3,71.2-150.3,3237.6c0,3164.5-11.9,2901.4,148.3,3235.7c215.6,447,640.8,769.4,1131.3,858.4C3753,4231.6,4180.2,4213.8,4322.6,4176.3z M8436.3,4176.3c423.3-114.7,795.1-419.3,986.9-810.9c174-350.1,160.2-73.2,160.2-3253.5c0-3166.4,11.9-2899.4-150.3-3237.6c-148.3-310.5-405.4-567.6-716-716C8462-3964.3,8341.4-3990,8011.1-3990s-450.9,25.7-706.1,148.3c-310.5,148.3-567.6,405.4-716,716c-162.2,338.2-150.3,71.2-150.3,3237.6c0,3164.5-11.9,2901.4,148.3,3235.7c215.6,447,640.8,769.4,1131.3,858.4C7866.8,4231.6,8293.9,4213.8,8436.3,4176.3z M1998.7,2487.3V2331l-205.7-7.9c-195.8-5.9-209.6-9.9-280.8-65.3c-39.6-33.6-89-91-108.8-128.6c-35.6-65.3-37.6-156.2-37.6-2017.3c0-1861.1,2-1952.1,37.6-2017.3c19.8-37.6,69.2-94.9,108.8-128.6c71.2-55.4,85-59.3,280.8-65.3l205.7-7.9v-156.3v-156.2h-282.8c-344.1,0-431.2,23.7-545.9,148.3c-43.5,45.5-87,118.7-98.9,160.2c-13.9,47.5-21.8,310.5-21.8,676.4v597.3H772.4c-251.2,0-280.8,4-316.4,39.6c-53.4,53.4-53.4,183.9,0,237.3c35.6,35.6,65.3,39.6,316.4,39.6h276.9V869.4c0,1550.6-4,1507.1,134.5,1641.6c112.7,110.8,189.9,128.6,524.1,130.5l290.7,2V2487.3z M6112.5,111.9v-2373.3h-158.2H5796V111.9v2373.3h158.2h158.2V111.9z M1998.7,111.9v-1898.7h-158.2h-158.2V111.9v1898.7h158.2h158.2V111.9z M4045.7-4397.4v-69.2h-148.3c-140.4,0-148.3,2-154.3,45.5c-13.8,93,4,104.8,158.2,98.9l144.4-5.9V-4397.4z M8159.5-4397.4v-69.2h-148.3c-140.4,0-148.3,2-154.3,45.5c-13.8,93,4,104.8,158.2,98.9l144.4-5.9V-4397.4z"/><path d="M4688.5,586.6V-995.6h158.2h158.2V586.6v1582.2h-158.2h-158.2V586.6z"/><path d="M4688.5-1470.3v-158.2h158.2h158.2v158.2v158.2h-158.2h-158.2V-1470.3z"/><path d="M4688.5-2103.2v-158.2h158.2h158.2v158.2v158.2h-158.2h-158.2V-2103.2z"/><path d="M7184.4-542.7c-37.6-11.9-104.8-59.3-152.3-106.8c-144.4-144.4-162.2-324.4-49.5-480.6c93-128.6,178-168.1,379.7-178c197.8-9.9,209.6-21.8,126.6-142.4c-61.3-91-110.8-239.3-110.8-334.2c0-100.9,45.5-247.2,106.8-340.2c49.5-75.1,51.4-83.1,51.4-423.2v-346.1h474.7h474.7v346.1v344.1l59.3,93c69.2,110.8,106.8,276.9,89,401.5c-5.9,49.4-43.5,146.4-81.1,215.6c-37.6,67.3-67.2,136.5-67.2,150.3c0,19.8,45.5,29.7,176,35.6c150.3,5.9,187.9,15.8,257.1,61.3c255.1,170.1,255.1,490.5-2,660.6l-83.1,55.4l-791.1,4C7572.1-524.9,7222-530.8,7184.4-542.7z M8792.3-916.5v-69.2l-310.5-5.9l-312.5-5.9v-83v-83.1h-158.2h-158.2v83.1v83l-310.5,5.9c-310.5,5.9-312.5,5.9-318.4,51.4c-15.8,106.8-47.5,102.9,791.1,98.9l777.3-5.9V-916.5z M8167.4-1505.9c98.9-49.4,146.3-124.6,156.2-247.2c9.9-118.7-17.8-189.9-102.9-269c-49.5-47.5-51.4-55.4-51.4-302.6v-253.2h-158.2h-158.2v253.2c0,247.2-2,255.1-51.4,302.6c-85.1,79.1-112.7,150.3-102.9,269c15.8,178,132.5,282.8,312.5,282.8C8060.6-1470.3,8129.8-1486.1,8167.4-1505.9z"/></g></g>
</svg>