<?xml version="1.0" encoding="utf-8"?>
<!-- Svg Vector Icons : http://www.onlinewebfonts.com/icon -->
<!DOCTYPE svg PUBLIC "-//W3C//DTD SVG 1.1//EN" "http://www.w3.org/Graphics/SVG/1.1/DTD/svg11.dtd">
<svg version="1.1" xmlns="http://www.w3.org/2000/svg" xmlns:xlink="http://www.w3.org/1999/xlink" x="0px" y="0px" viewBox="0 0 1000 1000" enable-background="new 0 0 1000 1000" xml:space="preserve">
<metadata> Svg Vector Icons : http://www.onlinewebfonts.com/icon </metadata>
<g><g transform="translate(0.000000,511.000000) scale(0.100000,-0.100000)"><path d="M931.9,4956.3c-30.1-27.9-53.7-68.8-53.7-92.4c0-21.5-77.4-1732.2-171.9-3799.7C549.3-2393.7,534.3-2774.1,534.3-3689.6v-995l53.7-51.6l51.6-53.7h4354.1c2746.6,0,4369.2,8.6,4392.8,21.5c66.6,34.4,98.9,139.7,66.6,214.9c-34.4,86-79.5,107.5-212.8,107.5h-109.6v773.7v773.7h113.9c118.2,2.1,163.4,23.6,204.2,101c19.3,34.4-12.9,906.9-146.2,3836.2c-94.6,2082.5-176.2,3810.4-182.7,3838.3c-6.4,25.8-30.1,66.6-53.8,90.3c-43,43-88.1,43-4061.8,43h-4021L931.9,4956.3z M1899,4339.5c-6.4-180.5-40.8-1659.1-75.2-3283.9c-34.4-1624.7-70.9-3103.3-77.4-3281.7l-12.9-328.8h-427.7H880.3l8.6,103.1c6.4,55.9,79.5,1648.4,163.3,3539.6c81.7,1891.2,154.7,3470.8,161.2,3509.5l10.7,68.8H1568h343.9L1899,4339.5z M8795.5,4532.9c15-159,313.8-6836.3,313.8-6984.7v-103.1h-3516h-3516l12.9,339.6c8.6,184.8,43,1682.8,77.4,3324.7c36.5,1644.1,70.9,3116.2,77.4,3273.1l12.9,283.7h3262.4h3262.4L8795.5,4532.9z M2425.5-3360.8c0-464.2,0-464.2,53.7-515.8c27.9-30.1,73.1-53.7,101-53.7c25.8,0,156.9,36.5,290.1,79.5l242.8,79.5l242.9-79.5c133.2-43,264.3-79.5,290.1-79.5c27.9,0,73.1,23.6,101,53.7c53.7,51.6,53.7,51.6,53.7,515.8v462.1h2493h2493v-773.7v-773.7H4832.5H878.1v773.7v773.7h773.7h773.7V-3360.8z M3457.1-3208.3v-309.5l-171.9,55.9l-171.9,55.9l-171.9-55.9l-171.9-55.9v309.5v309.5h343.9h343.9V-3208.3z"/><path d="M5354.7,3088.7c-152.6-36.5-363.2-144-475-238.6l-92.4-79.5l-137.5,25.8c-440.6,83.8-829.6-210.6-969.3-732.9c-58-214.9-49.4-543.7,21.5-762.9c101-313.8,348.2-625.4,597.5-752.2l103.2-51.6V54.1c0-438.4,0-440.6,53.7-492.2l51.6-53.7h1091.8c825.3,2.1,1100.4,8.6,1126.1,27.9c75.2,58,83.8,116.1,83.8,539.4v419.1l131.1,68.8c165.5,88.1,397.6,333.1,487.9,517.9c98.9,202,135.4,363.2,135.4,608.2c0,477.1-199.9,861.8-535.1,1025.1c-135.4,66.6-156.9,70.9-380.4,70.9h-236.4l-105.3,81.7C6023.1,3082.2,5670.7,3163.9,5354.7,3088.7z M5935,2699.7c68.8-32.2,178.4-111.8,251.5-184.8c137.5-135.4,169.8-146.1,296.6-92.4c122.5,53.7,275.1,45.1,404-19.3c208.5-105.3,333.1-322.4,348.2-606.1c23.7-466.4-247.1-915.5-597.4-988.6c-40.8-8.6-96.7-34.4-122.5-60.2c-47.3-43-49.4-55.9-49.4-470.7v-425.5h-859.6h-859.6v395.4c0,219.2-8.6,421.2-21.5,451.3c-21.5,55.9-36.5,64.5-219.2,131.1c-296.6,103.2-533,520.1-533,939.2c0,509.3,376.1,831.7,756.5,651.2c105.3-51.6,167.6-30.1,279.4,88.1c178.4,191.3,378.2,270.8,642.6,257.9C5771.7,2759.9,5846.9,2742.7,5935,2699.7z"/><path d="M4974.4,1977.6c-38.7-30.1-55.9-64.5-55.9-107.5c0-88.1,167.6-750,204.2-805.9c64.5-98.9,230-77.4,283.7,36.5c23.6,47.3,17.2,98.9-49.4,365.4c-40.8,169.8-83.8,346-96.7,389C5219.4,2012,5088.3,2067.9,4974.4,1977.6z"/><path d="M6005.9,1975.4c-45.1-40.8-70.9-116-141.8-397.6c-47.3-191.3-86-376.1-86-410.5c0-141.8,161.2-221.4,264.3-128.9c47.3,40.8,73.1,111.7,152.6,434.1c101,408.3,103.2,451.3,8.6,515.8C6137,2035.6,6070.4,2031.3,6005.9,1975.4z"/></g></g>
</svg>