<?xml version="1.0" encoding="utf-8"?>
<!-- Svg Vector Icons : http://www.onlinewebfonts.com/icon -->
<!DOCTYPE svg PUBLIC "-//W3C//DTD SVG 1.1//EN" "http://www.w3.org/Graphics/SVG/1.1/DTD/svg11.dtd">
<svg version="1.1" xmlns="http://www.w3.org/2000/svg" xmlns:xlink="http://www.w3.org/1999/xlink" x="0px" y="0px" viewBox="0 0 1000 1000" enable-background="new 0 0 1000 1000" xml:space="preserve">
<metadata> Svg Vector Icons : http://www.onlinewebfonts.com/icon </metadata>
<g><g transform="translate(0.000000,512.000000) scale(0.100000,-0.100000)"><path d="M1016.4,4989.7C597,4897.8,214.1,4511,126,4089.7C1.5,3496.1,332.8,2929.3,930.2,2716.8c111.1-40.2,155.1-42.1,1148.9-53.6c888.5-9.6,1045.5-15.3,1112.5-42.1c304.5-118.7,484.5-302.5,584-589.8c40.2-116.8,42.1-164.7,53.6-852.1l11.5-727.6l53.6-113C3951.8,216,3955.6,193,3925,193c-47.9,0-578.3-220.2-852.1-356.2c-854-419.3-1449.5-957.4-1568.2-1415c-23-95.7-28.7-271.9-28.7-1085.7v-972.7l-76.6-38.3c-262.3-134-390.6-488.3-273.8-750.6c57.4-124.5,180-252.8,298.7-304.4l99.6-46h3475.4h3475.4l99.6,46c118.7,51.7,241.3,180,298.7,304.4c116.8,262.3-11.5,616.6-273.8,750.6l-76.6,38.3v972.7c0,1053.2-1.9,1081.9-107.2,1292.5C8154.9-852.5,7375.5-297.1,6353,97.3c-155.1,59.4-287.2,113-291.1,118.7c-5.7,5.7,13.4,61.3,42.1,122.5l53.6,113l11.5,727.6c11.5,687.4,13.4,735.3,53.6,852.1c99.6,287.2,279.6,471,584,589.8c67,26.8,224,32.6,1112.5,42.1c993.8,11.5,1037.8,13.4,1148.9,53.6c199.2,70.9,338.9,158.9,488.3,310.2c361.9,363.8,444.2,882.7,216.4,1340.4c-99.6,197.2-325.5,423.2-522.8,522.7c-245.1,122.6-321.7,130.2-1200.6,124.5l-775.5-5.7l-55.5-63.2c-76.6-84.3-76.6-178.1,0-254.7l55.5-55.5h706.6c756.4,0,915.3-13.4,1072.3-86.2c145.5-65.1,300.6-220.2,375.3-371.5c57.5-118.7,61.3-137.9,61.3-337c0-204.9-1.9-218.3-65.1-342.8c-78.5-153.2-220.2-291.1-381-369.6l-109.1-53.6l-1014.9-11.5c-957.4-9.6-1022.5-13.4-1164.2-51.7c-384.9-105.3-706.6-379.1-855.9-731.5c-88.1-210.6-99.6-281.5-113-729.6l-11.5-434.7L5656,1227.1l-120.6,109.2l105.3,821.5c59.4,451.9,111.1,840.6,114.9,865.5c9.6,40.2,17.2,42.1,248.9,42.1c338.9,0,321.7-19.2,459.6,530.4c57.4,233.6,105.3,442.3,105.3,463.4c0,21.1-30.6,68.9-68.9,107.2l-67,67l-1443.8-3.8l-1441.9-5.7l-47.9-44c-80.4-76.6-78.5-130.2,24.9-545.7c113-450,122.5-480.6,187.6-530.4c40.2-32.6,78.5-38.3,283.4-38.3c229.8,0,237.4-1.9,247-42.1c3.8-24.9,55.5-413.6,114.9-865.5l105.3-821.5l-120.6-109.2L4223.7,1116l-11.5,434.7c-13.4,448.1-24.9,518.9-113,729.6c-149.4,352.3-471,626.2-855.9,731.5c-141.7,38.3-206.8,42.1-1164.2,51.7l-1014.9,11.5l-109.2,53.6c-160.8,78.5-302.5,216.4-381,369.6c-63.2,124.5-65.1,137.9-65.1,342.8c0,199.1,3.8,218.3,61.3,337c74.7,151.3,229.8,306.4,375.3,371.5c157,72.8,315.9,86.2,1070.4,86.2c700.8,0,702.7,0,752.5,44c32.5,26.8,53.6,68.9,61.3,120.6c9.6,68.9,1.9,88.1-47.9,143.6l-57.5,65.1l-792.7,3.8C1311.3,5014.6,1114.1,5010.8,1016.4,4989.7z M4018.8,3741.2l5.8-101.5h189.6h189.6l5.8,101.5l5.7,99.6h191.5h191.5l5.7-99.6l5.7-101.5h189.6h189.6l5.7,101.5l5.7,99.6h191.5h191.5l5.7-99.6l5.8-101.5h189.6h189.6l5.7,101.5c5.7,97.7,7.6,99.6,68.9,105.3c74.7,7.7,76.6-13.4,17.2-235.5l-42.1-153.2H4999.2H3974.8l-42.1,153.2c-59.4,222.1-57.4,243.2,19.2,235.5C4011.2,3840.8,4013.1,3838.9,4018.8,3741.2z M5355.4,2984.9c-5.8-34.5-49.8-369.6-97.7-743c-47.9-373.4-90-698.9-95.7-720c-7.6-38.3-21.1-40.2-162.8-40.2c-141.7,0-155.1,1.9-162.8,40.2c-5.7,21.1-47.9,346.6-95.7,720c-47.9,373.4-91.9,708.5-97.7,743l-11.5,61.3h367.6h367.7L5355.4,2984.9z M5259.7,1029.8c99.6-49.8,214.4-162.8,264.2-256.6c70.9-139.8,70.9-388.7,0-528.5c-49.8-93.8-164.7-204.9-264.2-258.5c-84.3-44.1-120.7-51.7-260.4-51.7c-139.8,0-176.2,7.6-260.4,51.7c-99.6,53.6-214.5,164.7-264.2,258.5c-70.9,139.8-70.9,388.7,0,528.5c68.9,130.2,216.4,252.8,371.5,302.5C4939.9,1106.4,5156.2,1083.4,5259.7,1029.8z M4342.5-211c187.6-170.4,404-252.7,656.8-252.7c252.8,0,469.1,82.3,656.8,252.7l105.3,97.7l126.4-38.3c409.8-128.3,1051.2-425.1,1390.2-647.2c417.4-271.9,660.6-507.4,781.2-748.7l70.9-143.6l9.6-1095.3l9.6-1095.3l46-49.8c24.9-26.8,76.6-55.5,114.9-61.3c141.7-26.8,210.6-91.9,212.5-201.1c0-90-57.5-162.8-149.4-189.6c-97.7-26.8-6650.2-26.8-6747.9,0c-91.9,26.8-149.4,99.6-149.4,189.6c1.9,109.1,70.8,174.2,212.5,201.1c38.3,5.7,90,34.5,114.9,61.3l46,49.8l9.6,1095.3l9.6,1093.4l65.1,134c99.6,203,394.5,488.3,739.1,716.1C3090.1-567.1,3806.3-232,4231.4-115.2C4235.2-113.3,4285-157.4,4342.5-211z"/></g></g>
</svg>