<?xml version="1.0" encoding="utf-8"?>
<!-- Svg Vector Icons : http://www.onlinewebfonts.com/icon -->
<!DOCTYPE svg PUBLIC "-//W3C//DTD SVG 1.1//EN" "http://www.w3.org/Graphics/SVG/1.1/DTD/svg11.dtd">
<svg version="1.1" xmlns="http://www.w3.org/2000/svg" xmlns:xlink="http://www.w3.org/1999/xlink" x="0px" y="0px" viewBox="0 0 1000 1000" enable-background="new 0 0 1000 1000" xml:space="preserve">
<metadata> Svg Vector Icons : http://www.onlinewebfonts.com/icon </metadata>
<g><g transform="translate(0.000000,511.000000) scale(0.100000,-0.100000)"><path d="M4151.9,4993.8c-146.3-43.5-280.7-162.1-361.8-314.3c-63.3-124.5-63.3-310.4,0-434.9c63.3-120.6,152.2-211.5,270.8-272.8c94.9-51.4,114.7-53.4,440.9-59.3l340-7.9v-867.9v-867.9h-158.2h-158.2v-235.2v-235.3l-320.3-7.9c-314.3-5.9-326.2-7.9-454.7-69.2c-239.2-112.7-419.1-332.1-468.5-569.4C3268.2,990.5,2781.9-7.8,2005-1567.6C633-4319.5,690.3-4187,759.5-4396.6c49.4-146.3,197.7-300.5,340-353.9c134.4-49.4,213.5-49.4,346,0c144.3,53.4,245.1,142.3,310.4,274.8c31.6,61.3,512,1120.9,1069.5,2354.5C3382.9-887.6,3839.5,124.6,3841.5,126.6c2,2,79.1,0,172-7.9l168-11.8l-223.4-1336.4L3734.8-2566v-755.2v-757.1H5000h1265.2v757.1v755.2l-223.4,1336.4L5818.4,106.9l168,11.8c92.9,7.9,170,9.9,172,7.9c2-2,474.5-1049.8,1049.8-2326.8C8159.1-4309.6,8263.9-4531,8345-4614c94.9-98.8,262.9-176,381.5-176c203.6,0,444.8,185.8,514,393.4c69.2,209.5,126.5,77.1-1245.5,2829C7218.1-7.8,6731.8,990.5,6717.9,1051.8c-49.4,237.2-229.3,456.7-468.5,569.4c-128.5,61.3-140.4,63.3-452.7,69.2l-322.2,7.9v235.3v235.2h-158.2h-158.2v867.9v867.9l342,7.9c375.6,5.9,438.9,23.7,583.2,162.1c282.7,264.9,207.6,695.9-154.2,883.7c-88.9,47.4-88.9,47.4-899.5,51.4C4543.3,5011.6,4193.4,5005.7,4151.9,4993.8z M5881.7,4632c59.3-59.3,67.2-79.1,67.2-170s-7.9-110.7-67.2-170l-67.2-67.2H5000h-814.5l-67.2,67.2c-59.3,59.3-67.2,79.1-67.2,170s7.9,110.7,67.2,170l67.2,67.2H5000h814.5L5881.7,4632z M5158.2,1773.4v-79.1H5000h-158.2v79.1v79.1H5000h158.2V1773.4z M6115,1356.3c41.5-11.9,114.7-55.4,160.1-98.8c251.1-233.3,168-691.9-144.3-798.7c-134.5-45.5-2131.1-45.5-2259.6,0c-306.4,108.7-397.4,555.5-160.1,786.8C3845.5,1376,3827.7,1376,4990.1,1376C5678.1,1378,6063.6,1370.1,6115,1356.3z M3562.8,272.9c-7.9-23.7-682-1514.3-688-1520.3c-4-4-69.2,25.7-146.3,63.3l-140.4,71.2l399.3,798.7l399.3,798.7l89-100.8C3525.2,328.3,3564.8,278.8,3562.8,272.9z M7014.5-316.2l397.3-796.7l-142.3-71.2c-79.1-39.5-146.3-63.3-150.2-55.4c-2,9.9-160.1,355.8-347.9,769l-342,751.2l91,100.8c49.4,55.4,92.9,100.8,92.9,98.8C6615.2,480.5,6795,120.7,7014.5-316.2z M4683.7-519.8h158.2v-346v-346l-108.7-53.4c-59.3-29.6-108.7-61.3-108.7-69.2c0-15.8,114.7-253,128.5-268.9c4-4,25.7,2,47.4,15.8c39.5,19.8,41.5,17.8,41.5-118.6v-138.4l-108.7-53.4c-59.3-29.6-108.7-61.3-108.7-69.2c0-15.8,114.7-253,128.5-268.9c4-4,25.7,2,47.4,15.8c39.5,19.8,41.5,17.8,41.5-116.7V-2477l-98.8-49.4c-90.9-45.5-116.6-49.4-395.4-49.4h-300.5l11.9,55.4c5.9,29.6,104.8,622.7,221.4,1318.6C4395.1-506,4493.9,77.2,4501.8,93c7.9,15.8,15.8-114.7,19.8-290.6l4-322.2H4683.7z M5158.2-45.4v-158.2H5000h-158.2v158.2v158.2H5000h158.2V-45.4z M5719.6-1201.9c116.6-705.8,217.5-1304.8,223.4-1328.5l9.9-45.5h-282.7l-284.7,2l-55.4,122.6c-79.1,177.9-81,179.9-130.5,154.2c-39.5-21.7-41.5-19.8-41.5,116.7v138.4l108.7,53.4c59.3,29.6,108.7,61.3,108.7,69.2c0,15.8-114.7,253-128.5,268.9c-4,4-25.7-2-47.4-15.8c-39.5-19.8-41.5-17.8-41.5,118.6v138.4l108.7,53.4c59.3,29.6,108.7,61.3,108.7,69.2c0,15.8-114.7,253-128.5,268.9c-4,4-25.7-2-47.4-15.8c-41.5-21.8-41.5-17.8-41.5,247.1v266.9h158.2h158.2v320.3c0,175.9,7.9,312.4,15.8,302.5C5500.2,91,5603-494.1,5719.6-1201.9z M2609.9-1478.7c75.1-39.5,132.5-79.1,126.5-89c-7.9-11.9-296.5-650.4-644.5-1419.4c-427-947-646.5-1411.5-682-1441.2c-33.6-31.6-75.1-45.5-128.5-45.5c-146.3,0-235.3,81-235.3,217.5c0,61.3,1379.9,2846.8,1409.5,2846.8C2463.6-1409.5,2532.8-1441.1,2609.9-1478.7z M8258-2803.2c442.8-887.6,695.9-1415.5,695.9-1453c0-136.4-89-217.5-235.3-217.5c-53.4,0-94.9,13.8-130.4,45.5c-33.6,29.7-253,492.3-682.1,1445.1c-347.9,769-636.6,1407.6-642.5,1417.4c-9.9,15.8,235.3,152.2,276.8,156.2C7552.2-1409.5,7874.5-2036.1,8258-2803.2z M5948.9-3327.1V-3762H5000h-948.9v434.9v434.9H5000h948.9V-3327.1z"/><path d="M3977.9,1038c-106.8-51.4-102.8-215.5,5.9-266.9c130.5-63.3,260.9,59.3,205.6,193.7C4153.9,1049.8,4066.9,1081.5,3977.9,1038z"/><path d="M5875.8,1038c-106.8-51.4-102.8-215.5,6-266.9c130.5-63.3,260.9,59.3,205.6,193.7C6051.7,1049.8,5964.7,1081.5,5875.8,1038z"/><path d="M4367.4-3366.6v-158.2h395.4h395.4v158.2v158.2h-395.4h-395.4V-3366.6z"/><path d="M5474.5-3366.6v-158.2h158.2h158.1v158.2v158.2h-158.1h-158.2V-3366.6z"/></g></g>
</svg>