<?xml version="1.0" encoding="utf-8"?>
<!-- Svg Vector Icons : http://www.onlinewebfonts.com/icon -->
<!DOCTYPE svg PUBLIC "-//W3C//DTD SVG 1.1//EN" "http://www.w3.org/Graphics/SVG/1.1/DTD/svg11.dtd">
<svg version="1.1" xmlns="http://www.w3.org/2000/svg" xmlns:xlink="http://www.w3.org/1999/xlink" x="0px" y="0px" viewBox="0 0 1000 1000" enable-background="new 0 0 1000 1000" xml:space="preserve">
<metadata> Svg Vector Icons : http://www.onlinewebfonts.com/icon </metadata>
<g><g transform="translate(0.000000,511.000000) scale(0.100000,-0.100000)"><path d="M3205.9,3540.5c-248.9-47.1-417.1-145.8-610-356.6l-118.9-132.3l-62.8,53.8c-33.6,29.1-118.9,69.5-188.4,89.7c-300.5,87.5-616.7-51.6-760.2-334.1c-53.8-103.2-69.5-253.4-300.5-2567.7C1030.7-1059,914-2209.4,907.3-2261l-13.5-96.4H667.4c-199.6,0-237.7-6.7-334.1-58.3c-58.3-33.6-136.8-100.9-170.4-150.2c-56.1-80.8-62.8-109.9-62.8-273.6c0-161.5,6.7-192.9,60.6-275.8c33.6-49.3,109.9-121.1,168.2-154.7l107.6-62.8h4552.4h4554.6l109.9,58.3c67.3,33.6,139,94.2,179.4,152.5c60.6,87.4,67.3,112.1,67.3,280.3c0,166-6.7,195.1-62.8,275.9c-33.6,49.3-112.1,116.6-170.4,150.2c-96.4,51.6-134.6,58.3-334.1,58.3h-226.5l-13.4,94.2c-6.7,53.8-123.3,1204.2-257.9,2556.5c-266.9,2686.6-246.7,2552-412.6,2726.9c-210.8,226.5-598.7,269.1-841,94.2l-87.5-62.8l-69.5,96.4c-204.1,284.8-587.5,448.5-923.9,394.7c-208.6-33.6-408.2-139-556.2-289.3l-125.6-130.1l-109.9,118.9c-130.1,143.5-365.5,266.9-567.4,298.3c-298.3,49.3-648.1-76.3-854.4-300.5L4177,3118.9l-80.7,94.2C3892.2,3457.5,3513.2,3596.6,3205.9,3540.5z M3627.5,3161.5c139-69.5,246.7-174.9,314-302.7l60.6-114.4l11.2-2260.5l11.2-2262.7l53.8-42.6c67.3-53.8,139-53.8,206.3,0l53.8,42.6l11.2,2274l11.2,2271.7l49.3,89.7c65,121.1,195.1,246.7,318.4,307.2c145.8,71.7,396.9,71.7,542.7,0c123.3-60.6,253.4-186.2,318.4-307.2l49.3-89.7l11.2-2271.7l11.2-2274l53.8-42.6c71.7-58.3,150.2-53.8,215.3,13.5l56.1,53.8V463.7c0,2540.8-15.7,2348,201.8,2565.5c100.9,100.9,154.7,134.6,257.9,163.7c322.9,94.2,648.1-53.8,787.1-358.8c53.8-114.4,58.3-174.9,174.9-2345.7c67.3-1226.7,127.8-2244.8,136.8-2267.2c6.7-20.2,44.8-49.3,83-65c56.1-22.4,78.5-22.4,125.6,4.5c31.4,17.9,67.3,47.1,78.5,67.3c15.7,26.9-11.2,695.2-94.2,2215.6c-114.4,2128.2-116.6,2182-76.2,2262.8c58.3,116.6,168.2,183.9,300.5,183.9c94.2,0,123.3-11.2,197.4-78.5c47.1-44.8,94.2-103.2,100.9-132.3c11.2-42.6,506.8-4947.1,506.8-5012.1c0-17.9-1150.4-24.6-3767.5-24.6c-3388.5,0-3767.5,4.5-3767.5,35.9c0,17.9,112.1,1143.7,246.7,2502.7c179.4,1787.3,257.9,2489.2,282.6,2543.1c109.9,228.7,459.7,217.5,576.3-17.9c40.4-80.7,38.1-136.8-76.2-2260.5c-83-1538.4-112.1-2191-94.2-2215.6c11.2-22.4,47.1-51.6,78.5-69.5c47.1-26.9,69.5-26.9,125.6-4.5c38.1,15.7,76.3,44.8,83,65c9,22.4,69.5,1042.8,136.8,2269.5L2712.6,2722l67.3,139c78.5,159.2,197.3,264.6,367.8,325.2C3293.4,3240,3495.2,3228.8,3627.5,3161.5z M9554.6-2736.4c58.3-71.8,53.8-150.3-13.4-215.3l-53.8-56.1H5000H512.6l-53.8,56.1c-85.2,83-65,215.3,40.4,257.9c29.2,11.2,1975.7,17.9,4530,15.7l4482.9-4.5L9554.6-2736.4z"/></g></g>
</svg>