<?xml version="1.0" encoding="utf-8"?>
<!-- Svg Vector Icons : http://www.onlinewebfonts.com/icon -->
<!DOCTYPE svg PUBLIC "-//W3C//DTD SVG 1.1//EN" "http://www.w3.org/Graphics/SVG/1.1/DTD/svg11.dtd">
<svg version="1.1" xmlns="http://www.w3.org/2000/svg" xmlns:xlink="http://www.w3.org/1999/xlink" x="0px" y="0px" viewBox="0 0 1000 1000" enable-background="new 0 0 1000 1000" xml:space="preserve">
<metadata> Svg Vector Icons : http://www.onlinewebfonts.com/icon </metadata>
<g><g><path d="M551.7,107.1V54.6c0-24.6-20-44.6-44.6-44.6s-44.6,20-44.6,44.6v50c-68,9.9-114.9,45-114.9,87.2V733V749c0,0.9,0.3,1.7,0.5,2.6c-0.2,0.9-0.5,1.7-0.5,2.6c0,42.7,48.2,77.5,114.9,87.2v104c0,24.6,20,44.6,44.6,44.6c24.6,0,44.6-20,44.6-44.6l0-106.4c59.3-12.2,100.8-45.1,100.8-84.7c0-0.9-0.3-1.7-0.5-2.6c0.2-0.9,0.5-1.7,0.5-2.6v-8.6V191.8C652.4,152.9,612.3,119.6,551.7,107.1z M486.1,54.6c0-11.6,9.4-21,21-21c11.6,0,21,9.4,21,21V166c0,11.6-9.4,21-21,21c-11.6,0-21-9.4-21-21V54.6z M462.4,128.4V166c0,24.6,20,44.6,44.6,44.6s44.6-20,44.6-44.6v-34.7c45.4,10.7,77.1,35,77.1,60.5c0,35.9-59,66.3-128.8,66.3c-69.8,0-128.8-30.4-128.8-66.3C371.2,163.3,409.7,137,462.4,128.4z M528,945.4c0,11.6-9.4,21-21,21c-11.6,0-21-9.4-21-21V843.8c4.6,0.2,9.2,0.4,13.9,0.4c9.6,0,19-0.6,28-1.5V945.4z M500,820.5c-69.8,0-128.8-30.4-128.8-66.3c0-0.9-0.3-1.7-0.5-2.6c0.2-0.9,0.5-1.7,0.5-2.6V733V240.4c26.8,25,73.9,41.3,128.8,41.3c54.9,0,102-16.3,128.8-41.3v500.1v8.6c0,0.9,0.3,1.7,0.5,2.6c-0.2,0.9-0.5,1.7-0.5,2.6C628.8,790.2,569.8,820.5,500,820.5z"/><path d="M591.6,307.5c-6.5,0-11.8,5.3-11.8,11.8v404.3c0,6.5,5.3,11.8,11.8,11.8s11.8-5.3,11.8-11.8V319.3C603.4,312.8,598.1,307.5,591.6,307.5z"/></g><g></g><g></g><g></g><g></g><g></g><g></g><g></g><g></g><g></g><g></g><g></g><g></g><g></g><g></g><g></g></g>
</svg>