<?xml version="1.0" encoding="utf-8"?>
<!-- Svg Vector Icons : http://www.onlinewebfonts.com/icon -->
<!DOCTYPE svg PUBLIC "-//W3C//DTD SVG 1.1//EN" "http://www.w3.org/Graphics/SVG/1.1/DTD/svg11.dtd">
<svg version="1.1" xmlns="http://www.w3.org/2000/svg" xmlns:xlink="http://www.w3.org/1999/xlink" x="0px" y="0px" viewBox="0 0 1000 1000" enable-background="new 0 0 1000 1000" xml:space="preserve">
<metadata> Svg Vector Icons : http://www.onlinewebfonts.com/icon </metadata>
<g><g transform="translate(0.000000,511.000000) scale(0.100000,-0.100000)"><path d="M2141.1,4990.4c-193.8-64.6-285.8-191.8-287.7-389.5c0-528.5,657.6-1139.1,1282-1184.1l150.7-11.7v-477.6v-475.6l-117.4-146.8C2215.5,1105.3,1597-611.2,1718.4-1723c60.7-555.9,276-953.2,604.8-1113.7c113.5-56.8,148.8-64.6,287.7-64.6c142.9,0,172.2,5.9,305.3,72.4c231,113.5,471.7,368,685,722.2l90,152.7l11.7-405.2c13.7-463.9,45-655.7,158.5-941.4c184-456,489.3-839.7,876.9-1098C5139.7-4666.7,5535-4790,5997-4790c612.6,0,1162.6,231,1605,675.3c268.1,266.2,460,575.4,577.4,929.7c121.3,356.2,117.4,250.5,117.4,3744.2c0,3458.5,5.8,3262.8-103.8,3325.4c-33.3,19.6-506.9,27.4-2250.8,35.2l-2207.8,9.8l-45,131.1c-174.2,499.1-759.4,927.7-1293.8,947.3C2284,5013.9,2190.1,5006.1,2141.1,4990.4z M2650,4548.1c307.3-144.8,624.4-430.6,679.2-612.6c21.5-74.4,19.6-82.2-23.5-117.4c-64.6-52.8-182-35.2-369.9,52.8c-184,88.1-352.3,207.5-499.1,358.2c-133.1,135.1-185.9,223.1-187.9,309.3C2248.8,4663.6,2395.6,4667.5,2650,4548.1z M7885.7,3068.4c0-414.9,0-420.8-41.1-420.8c-23.5,0-70.5-29.4-107.6-66.5c-92-92-92-185.9,0-277.9c37.1-37.2,84.1-66.5,107.6-66.5h41.1V-135.6c0-1305.5-7.8-2450.5-17.6-2542.5c-101.8-965-808.4-1642.2-1765.4-1695c-765.3-43.1-1452.3,352.3-1779.2,1021.7c-180.1,369.9-180.1,369.9-193.8,1487.5c-9.8,732-17.6,990.4-37.2,1021.7c-37.2,66.5-103.7,103.7-182,103.7c-103.7,0-162.5-56.8-223.1-221.2C3374.2-1795.4,3063-2316,2792.9-2449.1c-125.3-62.6-174.2-62.6-299.5-3.9c-166.4,76.3-277.9,240.8-344.5,501.1c-41.1,162.5-35.2,755.5,9.8,1027.6c164.4,996.2,628.3,2045.3,1282,2892.8c82.2,107.6,160.5,211.4,176.2,231c17.6,23.5,50.9,37.2,94,37.2c97.9,0,201.6,105.7,201.6,205.5c0,56.8-15.7,88.1-66.5,139c-37.2,37.2-84.2,66.5-107.6,66.5c-41.1,0-41.1,5.9-41.1,420.8v420.8h2094.3h2094.3V3068.4z"/><path d="M4736.5,2620.2c-60.7-33.3-97.9-103.7-99.8-184c0-50.9,17.6-84.2,66.5-133.1l66.5-66.5h246.6c287.7,0,350.3,21.5,395.4,131.1c37.2,84.2,9.8,182-64.6,240.7c-45,35.2-78.3,39.2-307.3,39.2C4865.6,2645.6,4767.8,2637.8,4736.5,2620.2z"/><path d="M6235.7,2608.4c-27.4-21.5-60.7-70.5-72.4-107.6c-19.6-58.7-17.6-80.2,13.7-140.9c52.9-107.7,97.9-123.3,385.6-123.3h250.5l66.6,66.5c74.4,74.4,86.1,150.7,39.1,244.7c-45,84.2-105.7,99.8-381.7,99.8C6316,2647.6,6280.8,2643.7,6235.7,2608.4z"/></g></g>
</svg>