<?xml version="1.0" encoding="utf-8"?>
<!-- Svg Vector Icons : http://www.onlinewebfonts.com/icon -->
<!DOCTYPE svg PUBLIC "-//W3C//DTD SVG 1.1//EN" "http://www.w3.org/Graphics/SVG/1.1/DTD/svg11.dtd">
<svg version="1.1" xmlns="http://www.w3.org/2000/svg" xmlns:xlink="http://www.w3.org/1999/xlink" x="0px" y="0px" viewBox="0 0 1000 1000" enable-background="new 0 0 1000 1000" xml:space="preserve">
<metadata> Svg Vector Icons : http://www.onlinewebfonts.com/icon </metadata>
<g><g transform="translate(0.000000,511.000000) scale(0.100000,-0.100000)"><path d="M970.2,4972.4c-422.5-103-754.5-443.5-844.9-868c-79.9-380.4,31.5-756.7,306.9-1032c136.6-138.7,367.8-273.2,519.1-304.8c88.3-16.8,208.1-151.3,237.5-264.8c14.7-50.4,18.9-130.3,10.5-185c-14.7-92.5-39.9-121.9-502.3-590.6c-441.4-445.6-493.9-506.5-538.1-620c-35.7-90.4-48.3-170.2-50.4-283.7c-2.1-317.4-199.7-96.7,2673.5-2967.7C5650.9-5009,5392.4-4777.8,5728.6-4777.8c334.2,0,191.3-124,2240.5,1929.4C9894.4-921,9844-975.7,9890.2-725.6c27.3,132.4-4.2,319.5-73.6,454c-35.7,69.4-775.6,821.8-2599.9,2642C4349.9,5233,4616.8,4995.5,4267.9,4995.5c-285.8,0-327.9-29.4-882.8-578c-254.3-252.2-483.4-468.7-508.6-481.3c-67.2-33.6-252.2-27.3-334.2,10.5c-84.1,39.9-218.6,182.9-218.6,231.2c0,21-33.6,107.2-75.7,193.4C2025.3,4833.7,1472.5,5094.3,970.2,4972.4z M1516.7,4491.1c195.5-88.3,357.3-298.5,397.2-519.2c10.5-58.8,50.4-111.4,163.9-222.8c298.5-287.9,603.2-361.5,960.5-231.2c103,37.8,172.4,98.8,599,521.3c525.4,519.1,573.8,552.8,723,506.5c61-16.8,588.5-533.9,2574.7-2522.2l2499-2499l10.5-119.8l10.5-117.7l-365.7-367.8l-365.7-365.7l-477.1,477.1l-479.2,479.2l-77.8-79.9l-79.9-77.8L8089-1127c262.7-262.7,477.1-483.4,477.1-491.8s-25.2-31.5-54.6-50.4l-52.5-35.7l-189.2,187.1l-187.1,187l-77.8-79.9l-79.9-77.8l185-185c100.9-100.9,182.9-195.5,182.9-208.1c0-12.6-546.5-563.3-1212.7-1223.3C5785.4-4386.9,5806.4-4370.1,5644.6-4326c-58.8,16.8-561.2,508.6-2578.9,2526.4L558.2,707.9v100.9c0,56.7,10.5,121.9,23.1,147.1s128.2,153.4,256.4,283.7l235.4,235.4l746.1-746.1l748.2-746.1l77.8,79.9l77.8,77.8L1987.5,876c-405.6,405.6-735.6,746.1-735.6,756.7c0,12.6,48.3,69.4,105.1,126.1l105.1,103l262.7-260.6l262.7-262.7l77.8,79.9l79.9,77.8l-277.4,279.5L1588.1,2053l33.6,105.1c44.1,142.9,29.4,401.4-31.5,561.2c-33.6,88.3-90.4,168.1-203.9,287.9c-134.5,142.9-168.1,168.1-245.9,178.7c-203.9,31.5-426.7,187.1-517,363.6c-92.5,185-94.6,437.2-2.1,626.3c52.5,109.3,222.8,273.2,330,317.4C1142.5,4573,1335.9,4573,1516.7,4491.1z"/><path d="M1069,4123.3c-185-111.4-174.4-416.2,18.9-517.1c208.1-107.2,445.6,31.5,445.6,260.6c0,117.7-58.8,216.5-155.5,266.9C1291.8,4177.9,1148.8,4173.7,1069,4123.3z"/><path d="M4068.2,3082.9l-71.5-75.7L4600,2404l603.2-603.2l77.8,79.9l79.9,77.8l-599,599c-330,330-603.2,599-609.5,599C4143.9,3156.4,4108.2,3122.8,4068.2,3082.9z"/><path d="M4068.2-910.5l-71.5-75.7l309-309l309-309l77.8,79.9l79.9,77.8l-304.8,304.8c-168.1,168.1-309,304.8-315.3,304.8C4143.9-837,4108.2-870.6,4068.2-910.5z"/></g></g>
</svg>