<?xml version="1.0" encoding="utf-8"?>
<!-- Svg Vector Icons : http://www.onlinewebfonts.com/icon -->
<!DOCTYPE svg PUBLIC "-//W3C//DTD SVG 1.1//EN" "http://www.w3.org/Graphics/SVG/1.1/DTD/svg11.dtd">
<svg version="1.1" xmlns="http://www.w3.org/2000/svg" xmlns:xlink="http://www.w3.org/1999/xlink" x="0px" y="0px" viewBox="0 0 1000 1000" enable-background="new 0 0 1000 1000" xml:space="preserve">
<metadata> Svg Vector Icons : http://www.onlinewebfonts.com/icon </metadata>
<g><g transform="translate(0.000000,511.000000) scale(0.100000,-0.100000)"><path d="M2326.8,4967.4c-125.6-48.1-257.5-167.5-324.5-295.2c-41.9-79.5-48.1-127.7-54.4-399.8l-8.4-311.9l64.9-131.9c41.9-83.7,98.4-159.1,150.7-201c92.1-71.2,263.8-144.4,343.3-144.4c50.2,0,52.3-4.2,52.3-157v-157h-71.2c-111,0-326.6-75.4-443.8-154.9c-194.7-131.9-339.1-353.8-385.2-588.2c-16.7-92.1-20.9-1025.7-16.7-3443.5l6.3-3317.9l56.5-106.7c75.4-142.4,226.1-272.1,357.9-311.9c159.1-48.1,5731.5-48.1,5890.6,0c131.9,39.8,282.6,169.6,357.9,311.9l56.5,106.7l6.3,3317.9c4.2,2407.3,0,3351.4-16.7,3443.5c-46.1,234.5-188.4,456.3-385.2,588.2c-117.2,79.5-332.8,154.9-443.8,154.9h-71.2v157c0,152.8,2.1,157,52.3,157c167.5,0,399.8,159.1,496.1,339.1c44,83.7,48.1,115.1,48.1,424.9s-4.2,341.2-48.1,424.9c-69.1,129.8-201,247-330.7,297.3c-113,41.9-146.5,41.9-2673.1,39.8C2492.2,5009.3,2433.6,5009.3,2326.8,4967.4z M7612.4,4655.5c106.8-64.9,150.7-184.2,150.7-408.2c0-224-44-343.3-150.7-408.2c-69.1-41.9-98.4-41.9-2608.2-41.9c-2796.7,0-2608.3-8.4-2708.7,129.8c-39.8,58.6-48.1,100.5-54.4,280.5c-10.5,253.3,31.4,376.8,146.5,448c69.1,41.9,96.3,41.9,2612.4,41.9C7514.1,4697.4,7543.4,4697.4,7612.4,4655.5z M7139.4,3290.7c14.7-303.5,87.9-395.6,332.8-422.8c180-18.8,318.2-83.7,425-203.1c171.6-190.5,159.1,104.7,159.1-3604.7c0-3663.3,10.5-3399.5-136.1-3489.6c-67-41.9-96.3-41.9-2922.3-41.9c-2761.1,0-2857.4,2.1-2916,39.8c-31.4,20.9-77.5,67-98.4,98.4c-37.7,58.6-39.8,163.3-39.8,3380.7c0,3724-12.6,3426.8,159.1,3617.2c106.8,119.3,244.9,184.2,424.9,203.1c244.9,27.2,318.2,119.3,332.8,422.8l8.4,192.6h2131h2131L7139.4,3290.7z"/><path d="M4780.2,2532.9c-351.7-87.9-623.8-383.1-686.6-753.6l-23-138.2h-653.1c-642.6,0-653.1,0-722.2-48.1c-154.9-102.6-144.4,77.4-144.4-2520.4v-2329.8H5000h2449.2v2329.8c0,2597.8,10.5,2417.8-144.4,2520.4c-69.1,48.1-79.6,48.1-722.2,48.1h-653.1l-23,138.2C5814.3,2317.3,5299.3,2660.6,4780.2,2532.9z M5213.5,2214.7c213.5-71.2,366.3-280.5,393.5-535.9c18.8-163.3,58.6-234.4,165.4-297.2c60.7-35.6,117.2-37.7,713.8-37.7l648.9,2.1V-799.6v-2143.6H5000H2864.8v2143.6v2143.5h648.9c590.3,2.1,657.3,4.2,715.9,39.8c102.6,60.7,140.2,129.8,161.2,293.1c31.4,255.4,182.1,464.7,387.3,538C4893.2,2254.5,5096.3,2256.6,5213.5,2214.7z"/></g></g>
</svg>