<?xml version="1.0" encoding="utf-8"?>
<!-- Svg Vector Icons : http://www.onlinewebfonts.com/icon -->
<!DOCTYPE svg PUBLIC "-//W3C//DTD SVG 1.1//EN" "http://www.w3.org/Graphics/SVG/1.1/DTD/svg11.dtd">
<svg version="1.1" xmlns="http://www.w3.org/2000/svg" xmlns:xlink="http://www.w3.org/1999/xlink" x="0px" y="0px" viewBox="0 0 1000 1000" enable-background="new 0 0 1000 1000" xml:space="preserve">
<metadata> Svg Vector Icons : http://www.onlinewebfonts.com/icon </metadata>
<g><g transform="translate(0.000000,511.000000) scale(0.100000,-0.100000)"><path d="M4359.4,4996.6C1888.6,4890.4,259.1,4172.1,116.6,3126.8C13.2,2386.1,614.1,1754.4,1788,1360.3c1626.7-542.2,4357.4-584.2,6123.8-92.2C9289.7,1651,9994,2316.2,9887.8,3137.9C9781.6,3968.1,8649.7,4622.1,6872.1,4882C6156.5,4988.2,5186.7,5030.2,4359.4,4996.6z M6343.8,4535.4c967.1-109,1727.3-301.9,2263.9-573c279.5-142.5,427.6-243.2,606.5-422.1c846.9-838.5-279.5-1783.2-2501.5-2093.4c-1922.9-268.3-4128.2-53.1-5302.1,519.9C502.3,2411.3,267.5,3001,781.8,3532c500.3,514.3,1660.2,902.8,3046.5,1017.4c206.8,16.8,433.2,33.5,503.1,39.1C4616.5,4613.7,5991.6,4577.4,6343.8,4535.4z"/><path d="M3898.2,4158.1c-1473-128.6-2392.5-491.9-2543.4-1014.6c-50.3-176.1-33.5-282.3,50.3-341c139.7-97.8,304.7,0,335.4,201.3c78.3,486.3,1405.9,818.9,3261.7,818.9c1830.7,0,3161.1-327,3256.2-804.9c44.7-209.6,176.1-307.5,313-229.2c109,61.5,134.2,164.9,78.3,352.2c-53.1,187.3-246,396.9-489.1,533.8c-335.4,190-967.1,360.5-1649,444.4C6075.5,4172.1,4362.2,4197.2,3898.2,4158.1z"/><path d="M217.2,1720.9c-97.8-33.5-131.4-139.7-103.4-338.2c72.7-536.6,573-1020.2,1394.7-1350c793.8-318.6,1841.9-497.5,3144.4-531c2591-72.7,4639.7,545,5131.6,1540c92.3,190.1,142.6,461.2,100.6,581.4c-30.8,95-167.7,145.3-268.3,95c-72.7-33.5-83.9-61.5-139.8-313C9326.1,739.9,8141,189.2,6399.7-26c-321.4-39.1-612.1-50.3-1411.5-50.3c-1109.6,0-1470.2,30.7-2222,181.7C1407.9,379.3,510.7,938.3,502.3,1516.9C502.3,1684.6,376.5,1774,217.2,1720.9z"/><path d="M161.3,253.5c-67.1-78.3-72.7-123-47.5-307.5c97.8-709.9,916.7-1294,2261.1-1615.5c802.2-190.1,1459-251.5,2655.2-251.5c1009,2.8,1408.7,30.7,2104.6,156.5C8823-1465.4,9865.5-786.2,9899,32.7c8.4,187.3-50.3,268.3-192.9,268.3c-128.6,0-192.8-75.5-212.4-246c-55.9-483.5-640.1-922.3-1626.7-1221.4c-760.2-229.2-1470.2-324.2-2604.9-341c-1428.2-25.1-2400.9,89.5-3289.7,385.7C1078.1-822.6,566.6-411.7,510.7,55.1c-11.2,83.9-39.1,164.9-69.9,195.7C376.5,315,217.2,317.8,161.3,253.5z"/><path d="M164.1-1177.5c-55.9-44.7-64.3-75.5-58.7-212.4c41.9-1014.6,1512.1-1760.8,3831.9-1942.5c486.3-36.3,1618.3-36.3,2101.8,2.8c2258.4,176.1,3717.3,877.6,3851.5,1847.5c33.5,257.1-22.4,357.8-204.1,357.8c-109,0-173.3-83.8-192.8-248.8C9365.2-2466,6651.2-3184.3,3730.5-2896.4c-1878.2,181.7-3130.4,777-3219.8,1526.1c-11.2,83.8-39.1,164.9-69.9,195.6C376.5-1110.4,248-1110.4,164.1-1177.5z"/><path d="M186.5-2580.6c-81.1-47.5-103.4-145.3-72.7-338.2c150.9-972.6,1554-1657.4,3770.4-1839.1c547.8-44.7,1827.9-39.1,2361.8,14c2238.8,215.2,3627.9,950.3,3650.2,1934.1c5.6,134.2-5.6,167.7-58.7,209.6c-148.1,120.2-315.8,22.4-343.8-209.6c-81.1-626.1-1050.9-1171.1-2535-1428.2c-609.3-106.2-1073.3-139.8-1928.5-139.8c-905.6-2.8-1308,25.2-1973.3,137c-1090,184.5-1830.7,480.7-2266.7,911.2c-170.5,170.5-251.5,321.4-276.7,514.3C485.5-2591.7,340.2-2491.1,186.5-2580.6z"/></g></g>
</svg>