<?xml version="1.0" encoding="utf-8"?>
<!-- Svg Vector Icons : http://www.onlinewebfonts.com/icon -->
<!DOCTYPE svg PUBLIC "-//W3C//DTD SVG 1.1//EN" "http://www.w3.org/Graphics/SVG/1.1/DTD/svg11.dtd">
<svg version="1.1" xmlns="http://www.w3.org/2000/svg" xmlns:xlink="http://www.w3.org/1999/xlink" x="0px" y="0px" viewBox="0 0 1000 1000" enable-background="new 0 0 1000 1000" xml:space="preserve">
<metadata> Svg Vector Icons : http://www.onlinewebfonts.com/icon </metadata>
<g><path d="M361,761.2H33c-12.5,0-23-10.4-23-25.1V514.6c0-12.5,10.4-25.1,23-25.1H361c12.5,0,25.1,10.4,25.1,25.1v223.6C386.1,750.7,375.7,761.2,361,761.2z M51.8,719.4h292.5V531.3H51.8V719.4z"/><path d="M344.3,493.7h-41.8V157.3c0-12.5,10.4-23,23-23h246.6c12.5,0,23,10.4,23,23V314h-41.8V176.1h-209V493.7z"/><path d="M365.2,301.5h167.2v20.9H365.2V301.5L365.2,301.5z"/><path d="M365.2,217.9h167.2v20.9H365.2V217.9L365.2,217.9z"/><path d="M365.2,259.7h167.2v20.9H365.2V259.7L365.2,259.7z"/><path d="M990,863.6H760.1l0-415.8H990V863.6z M801.9,821.8h146.3V489.6H801.9V821.8z"/><path d="M365.2,343.3h127.5v20.9H365.2V343.3z"/><path d="M801.9,865.7H488.5V301.5H779c12.5,0,23,10.4,23,23V865.7z M530.3,823.9h229.8V343.3H530.3V823.9z"/><path d="M801.9,811.3V780c46,0,83.6-37.6,83.6-83.6c0-46-37.6-83.6-83.6-83.6v-31.3c62.7,0,114.9,52.2,114.9,114.9S866.7,811.3,801.9,811.3z"/><path d="M921,537.6c0,10.4-8.4,18.8-18.8,18.8s-18.8-8.4-18.8-18.8c0-10.4,8.4-18.8,18.8-18.8S921,527.2,921,537.6"/><path d="M175.1,761.2h41.8v83.6h-41.8V761.2z"/><path d="M300.4,761.2h41.8v83.6h-41.8V761.2z"/><path d="M49.7,823.9H990v41.8H49.7V823.9z"/><path d="M530.3,594h234v20.9h-234V594L530.3,594z"/><path d="M553.3,406h20.9v125.4h-20.9V406L553.3,406z"/><path d="M553.3,677.6h20.9V803h-20.9V677.6z"/></g>
</svg>