<?xml version="1.0" encoding="utf-8"?>
<!-- Svg Vector Icons : http://www.onlinewebfonts.com/icon -->
<!DOCTYPE svg PUBLIC "-//W3C//DTD SVG 1.1//EN" "http://www.w3.org/Graphics/SVG/1.1/DTD/svg11.dtd">
<svg version="1.1" xmlns="http://www.w3.org/2000/svg" xmlns:xlink="http://www.w3.org/1999/xlink" x="0px" y="0px" viewBox="0 0 1000 1000" enable-background="new 0 0 1000 1000" xml:space="preserve">
<metadata> Svg Vector Icons : http://www.onlinewebfonts.com/icon </metadata>
<g><g transform="translate(0.000000,511.000000) scale(0.100000,-0.100000)"><path d="M4490.4,3805.6c-423.9-51.4-911.4-218-1264.2-431.2c-215.6-127.4-529.2-409.2-666.4-595.4l-88.2-120h-646.8H1178V1340.9V22.8L795.8-479.4c-210.7-274.4-404.2-543.9-433.6-597.8c-39.2-73.5-53.9-156.8-61.3-335.7l-9.8-240.1h-95.5H100v-980v-980h686h686v120.1c0,66.1,12.2,151.9,26.9,191.1c36.8,102.9,166.6,225.4,267.1,252.3c53.9,14.7,1242.2,24.5,3234,24.5s3180.1-9.8,3234-24.5c100.4-26.9,230.3-149.4,267.1-252.3c14.7-39.2,26.9-125,26.9-191.1V-3613h686h686v980v980h-95.6h-95.5l-9.8,227.8c-9.8,301.4-51.4,377.3-509.6,972.7L8822,25.3v1318.1V2659h-646.8h-646.8l-88.2,117.6c-298.9,409.2-820.8,749.7-1416.1,921.2C5588,3822.8,4975.5,3866.9,4490.4,3805.6z M5698.3,3381.8c274.4-61.3,472.8-132.3,722.7-259.7c374.8-191.1,656.6-453.3,806.1-749.7l51.4-105.3h575.8H8430v-980V307h-183.8h-183.8v132.3c0,259.7-115.2,460.6-323.4,563.5l-127.4,63.7H6433.3H5254.8l-125-61.3L5007.3,944l-132.3,61.3l-132.3,61.3H3571.7c-1288.7,0-1271.6,2.5-1433.3-154.3c-120.1-115.2-178.9-245-193.6-436.1l-14.7-169h-178.9H1570v980v980l570.8,4.9l568.4,7.3l71,134.8c102.9,193.5,448.4,526.7,686,659c232.7,132.3,661.5,281.8,945.7,330.8C4683.9,3452.8,5448.3,3438.1,5698.3,3381.8z M4755,625.5c36.7-36.8,49-80.8,49-183.8V307l-1229.9,4.9l-1232.3,7.3l-7.3,112.7c-4.9,83.3,4.9,127.4,44.1,176.4l51.5,66.2h1139.3C4674.2,674.5,4708.5,672.1,4755,625.5z M7614.2,620.6c44.1-41.6,56.3-78.4,56.3-183.8V307l-1229.9,4.9l-1232.3,7.3l-7.4,112.7c-4.9,83.3,4.9,127.4,44.1,176.4l51.4,66.2h1131.9C7552.9,674.5,7557.8,674.5,7614.2,620.6z M8633.3-364.3c117.6-154.4,213.2-286.7,213.2-294c0-7.4-1732.2-14.7-3849-14.7s-3844,9.8-3839.1,19.6c4.9,9.8,100.4,142.1,215.6,294l208.3,272L5002.5-85h3417.7L8633.3-364.3z M9218.9-1158.1c75.9-75.9,80.8-90.7,90.7-286.7l7.3-208.3H5000H683.1l7.4,205.8c9.8,178.8,17.1,215.6,71,271.9c34.3,36.7,83.3,76,110.2,88.2c27,9.8,1898.7,17.1,4157.7,14.7l4111.1-4.9L9218.9-1158.1z M9508-2633v-588h-311.2h-313.6l-46.6,110.2c-61.3,149.5-232.7,321-401.8,399.3l-139.6,66.2H5000H1704.8l-139.7-66.2c-173.9-80.8-338.1-242.5-401.8-394.4l-46.5-115.2H805.6H492v588v588h4508h4508V-2633z"/></g></g>
</svg>