<?xml version="1.0" encoding="utf-8"?>
<!-- Svg Vector Icons : http://www.onlinewebfonts.com/icon -->
<!DOCTYPE svg PUBLIC "-//W3C//DTD SVG 1.1//EN" "http://www.w3.org/Graphics/SVG/1.1/DTD/svg11.dtd">
<svg version="1.1" xmlns="http://www.w3.org/2000/svg" xmlns:xlink="http://www.w3.org/1999/xlink" x="0px" y="0px" viewBox="0 0 1000 1000" enable-background="new 0 0 1000 1000" xml:space="preserve">
<metadata> Svg Vector Icons : http://www.onlinewebfonts.com/icon </metadata>
<g><g transform="translate(0.000000,511.000000) scale(0.100000,-0.100000)"><path d="M4350.1,4981.2c-23.4-17.1-85.2-115.1-136.4-221.6l-93.7-191.8l-172.6-25.6c-304.7-42.6-353.7-72.4-353.7-213.1c0-57.5,29.8-98,161.9-236.5l164.1-166.2l-36.2-191.8c-44.7-247.2-42.6-270.6,19.2-332.4c76.7-78.8,157.7-68.2,368.6,46.9l183.2,100.1l185.4-100.1c238.6-130,332.4-132.1,392-12.8c29.8,53.3,27.7,85.2-2.1,274.9l-36.2,213.1l161.9,168.3c140.6,142.8,164.1,179,164.1,240.8c0,121.4-66,161.9-317.5,202.4l-219.5,34.1l-93.7,191.8c-51.1,104.4-110.8,204.6-130,219.5C4509.9,5019.6,4403.4,5019.6,4350.1,4981.2z M4556.8,4282.4c38.3-40.5,78.8-59.6,121.4-59.6c81,0,83.1-12.8,8.5-91.6c-51.1-51.1-59.7-76.7-55.4-166.2c2.1-57.5,2.1-104.4-2.1-104.4c-4.3,0-36.2,14.9-68.2,32c-78.8,40.5-130,40.5-208.8,0c-32-17-63.9-32-68.2-32c-4.3,0-8.5,46.9-8.5,104.4c0,83.1-12.8,119.3-55.4,172.6c-32,36.2-53.3,68.2-49,72.4c4.3,2.1,46.9,14.9,93.8,25.6c63.9,14.9,98,38.3,138.5,102.3c46.9,72.4,55.4,76.7,74.6,42.6C4488.6,4359.1,4524.9,4314.3,4556.8,4282.4z"/><path d="M2543.3,3538.8c-19.2-12.8-81-110.8-134.2-217.3c-55.4-108.7-102.3-198.2-104.4-202.4c-4.3-4.3-98-21.3-213.1-38.3c-242.9-36.2-272.7-49-308.9-136.4c-38.3-91.6,0-170.4,153.4-300.4c68.2-61.8,134.2-125.7,142.7-144.9c10.7-19.2,6.4-98-10.7-193.9c-42.6-238.6-38.3-304.7,19.2-357.9c76.7-72.5,168.3-59.7,370.7,51.1l179,95.9l176.8-95.9c202.4-110.8,304.7-125.7,375-55.4c51.1,51.1,53.3,149.1,12.8,381.4l-27.7,155.5l136.4,132.1c164.1,153.4,206.7,225.9,187.5,313.2c-19.2,87.4-81,121.4-277,147c-247.2,34.1-255.7,40.5-351.6,238.6c-46.9,98-106.5,193.9-130,215.2C2688.2,3566.5,2600.9,3572.9,2543.3,3538.8z M2677.6,2901.7c34.1-81,98-127.8,172.6-127.8c85.2,0,87.4-21.3,17-102.3c-57.5-66.1-66-87.4-55.4-168.3c6.4-63.9,2.1-89.5-14.9-83.1c-125.7,53.3-179,59.7-242.9,25.6c-95.9-49-106.5-44.7-95.9,57.5c10.6,81,2.1,102.3-55.4,168.3c-70.3,81-68.2,102.3,17,102.3c74.6,0,138.5,46.9,172.6,127.8c14.9,34.1,34.1,63.9,42.6,63.9S2662.7,2935.8,2677.6,2901.7z"/><path d="M461.7-1199.8v-2761.3l53.3-51.2c49-51.1,59.7-53.3,362.2-53.3h308.9v-362.2V-4790h181.1h181.1v362.2v362.2H5000h3451.7v-362.2V-4790h181.1h181.1v362.2v362.2h308.9c302.6,0,313.2,2.1,362.2,53.3l53.3,51.2v2761.3v2759.2h-174.7h-176.8v-355.8V845.6l-4180.4-6.4L826,835l-12.8,95.9c-8.5,51.1-12.8,164.1-8.5,249.3c2.1,85.2,4.3,206.7,2.1,268.5l-4.3,110.8H632.1H461.7V-1199.8z M1910.5-1072v-1544.7h-551.8H809l4.3,1199.6c2.1,658.4,4.3,1353,6.4,1544.7l4.3,345.2h543.3h543.3V-1072z M3359.4-1072v-1544.7h-543.3h-543.3V-1072V472.7h543.3h543.3V-1072z M4829.5-1072v-1544.7h-554h-554V-1072V472.7h554h554V-1072z M6278.4-1072v-1544.7h-554h-554V-1072V472.7h554h554V-1072z M7727.2-1072v-1544.7h-543.3h-543.3V-1072V472.7h543.3h543.3V-1072z M9176.1-1072v-1544.7h-543.3h-543.3V-1072V472.7h543.3h543.3V-1072z M9176.1-3341.2v-362.2H4991.5H806.9l-2.1,326c0,176.8,4.3,340.9,10.7,362.2c10.7,34.1,228,36.2,4186.8,36.2h4174V-3341.2z"/></g></g>
</svg>