<?xml version="1.0" encoding="utf-8"?>
<!-- Svg Vector Icons : http://www.onlinewebfonts.com/icon -->
<!DOCTYPE svg PUBLIC "-//W3C//DTD SVG 1.1//EN" "http://www.w3.org/Graphics/SVG/1.1/DTD/svg11.dtd">
<svg version="1.1" xmlns="http://www.w3.org/2000/svg" xmlns:xlink="http://www.w3.org/1999/xlink" x="0px" y="0px" viewBox="0 0 1000 1000" enable-background="new 0 0 1000 1000" xml:space="preserve">
<metadata> Svg Vector Icons : http://www.onlinewebfonts.com/icon </metadata>
<g><g transform="translate(0.000000,511.000000) scale(0.100000,-0.100000)"><path d="M258,2902.2c-107.6-64.1-158-153.4-158-283.9c0-187.8,295.4-2243.9,345.8-2408.8c68.7-222.1,190-453.4,329.7-625.1l119.1-151.1l-169.4-867.8c-185.5-954.8-194.6-1064.7-96.2-1170c119.1-128.2,256.4-155.7,405.3-80.1c45.8,25.2,103,73.3,123.7,109.9c20.6,36.6,105.3,421.3,190,854.1c82.4,435,158,812.9,164.9,842.6c11.4,50.4,16,50.4,409.9,50.4c393.8,0,398.4,0,409.9-50.4c6.9-29.8,80.1-407.6,162.6-842.6c82.4-432.8,167.1-817.4,185.5-849.5c20.6-34.3,75.6-84.7,121.4-109.9c151.1-84.7,300-52.7,421.3,89.3c84.7,103,80.1,180.9-77.8,996c-75.6,391.6-137.4,723.6-137.4,739.6c0,18.3,38.9,27.5,123.6,27.5c100.7,0,137.4,11.4,196.9,59.6c178.6,151.1,183.2,352.6,11.4,512.9l-61.8,57.2l-860.9,11.4c-851.8,11.4-865.5,11.4-973.1,66.4c-123.7,59.5-219.8,176.3-304.5,364.1c-77.9,171.7-84.7,213-249.6,1408.2C729.7,2812.9,734.3,2794.6,580.8,2899.9C487,2964,365.6,2964,258,2902.2z"/><path d="M9416.9,2902.2c-45.8-27.5-98.5-75.6-119.1-109.9c-25.2-41.2-87-428.2-187.8-1149.4c-82.4-595.3-162.6-1131.1-176.3-1188.4c-64.1-261-199.2-474-357.2-565.6l-107.6-64.1l-874.7-11.4l-872.4-11.4l-61.8-57.2c-171.7-160.3-167.1-361.8,11.4-512.9c59.5-48.1,96.2-59.6,196.9-59.6c82.4,0,123.7-9.1,123.7-27.5c0-16-61.8-348-137.4-739.6c-158-815.1-162.6-893-77.9-996c160.3-187.8,393.8-178.6,538.1,22.9c27.5,38.9,91.6,325.1,192.3,858.6c84.7,441.9,158,819.7,162.6,842.6c11.4,34.3,50.4,38.9,409.9,38.9c391.5,0,396.1,0,407.6-50.4c6.9-29.8,82.4-407.6,164.9-842.6c84.7-432.8,169.5-817.4,190-854.1c20.6-36.6,77.9-84.7,123.7-109.9c148.8-75.6,286.2-48.1,405.3,80.1c98.5,103,89.3,215.2-98.5,1170l-167.1,867.8l109.9,139.7C9352.7-260,9490.1-1.2,9554.3,211.8c50.4,167.1,345.7,2225.6,345.7,2417.9C9900,2877,9632.1,3025.8,9416.9,2902.2z"/><path d="M2717.1,1553.5c-226.7-137.4-212.9-455.6,22.9-570.1c96.2-45.8,130.5-48.1,1018.9-48.1h920.5l-4.6-1492.9l-6.9-1495.2l-217.5-11.5c-245-13.7-316-45.8-375.5-171.7c-84.7-176.3-18.3-368.6,153.4-446.5c87-41.2,153.4-45.8,771.6-45.8s684.6,4.6,771.6,45.8c171.7,77.9,238.1,270.2,153.4,446.5c-59.6,125.9-130.5,158-375.5,171.7l-217.5,11.5l-6.9,1495.2l-4.6,1492.9H6241c881.5,0,922.8,2.3,1016.6,48.1c73.3,34.3,109.9,73.3,148.8,148.8c77.9,164.8,32.1,327.4-123.6,421.3c-71,43.5-132.8,45.8-2282.9,45.8C2850,1599.3,2788.1,1597,2717.1,1553.5z"/></g></g>
</svg>