<?xml version="1.0" encoding="utf-8"?>
<!-- Svg Vector Icons : http://www.onlinewebfonts.com/icon -->
<!DOCTYPE svg PUBLIC "-//W3C//DTD SVG 1.1//EN" "http://www.w3.org/Graphics/SVG/1.1/DTD/svg11.dtd">
<svg version="1.1" xmlns="http://www.w3.org/2000/svg" xmlns:xlink="http://www.w3.org/1999/xlink" x="0px" y="0px" viewBox="0 0 1000 1000" enable-background="new 0 0 1000 1000" xml:space="preserve">
<metadata> Svg Vector Icons : http://www.onlinewebfonts.com/icon </metadata>
<g><g transform="translate(0.000000,511.000000) scale(0.100000,-0.100000)"><path d="M4277.3,4362.6c-904-142.1-1656.2-563.5-2067.8-1156.4l-53.9-80.8h-392H1374V1687.2V246.6L989.3-378.2C452.8-1250.4,482.2-1184.2,470-1559.1l-7.4-313.6H281.3H100v-1151.5v-1151.5h793.8h791.4l12.2,154.4c22.1,252.3,124.9,409.1,338.1,504.7c107.8,49,144.6,51.4,2949.8,51.4c2058,0,2864-7.3,2932.6-27c215.6-66.2,362.6-267.1,384.7-529.2l12.2-154.4h791.3H9900v1151.5v1151.5h-183.8h-183.8v252.3c0,159.2-14.7,301.3-39.2,384.6c-27,88.2-171.5,328.3-453.3,752.2L8626,136.3v1494.5v1494.5h-494.9l-497.3,2.5l-83.3,120c-122.5,183.8-482.6,512.1-705.6,644.3c-396.9,237.7-850.2,394.5-1342.6,470.4C5205.8,4406.7,4556.5,4406.7,4277.3,4362.6z M5441,3980.4c830.6-112.7,1597.4-558.6,1884.1-1097.6l78.4-149.5h416.5H8234V1643.1V552.8h-340.6h-340.5l-9.8,338.1c-7.3,294-14.7,350.4-66.2,453.3c-80.8,164.2-247.4,328.3-414,404.2l-139.7,66.2l-1844.9,7.3c-1614.6,4.9-1864.4,2.5-1996.7-31.8c-279.3-71-487.6-252.3-583.1-502.3c-36.8-98-46.5-188.7-46.5-428.8V552.8h-343h-343v1090.3v1090.2h313.6h313.6l51.5,105.3c75.9,154.4,257.3,384.7,392,497.4C3490.8,3882.4,4436.5,4117.6,5441,3980.4z M6898.7,1388.3c112.7-49,222.9-169,252.3-267c9.8-36.7,17.2-176.4,17.2-311.2v-245H5000H2831.7l-7.3,213.2c-2.5,120,4.9,259.7,19.6,313.6c34.3,125,132.3,240.1,257.3,296.5c93.1,41.6,203.3,46.5,1898.7,46.5C6695.4,1434.8,6805.7,1429.9,6898.7,1388.3z M8417.8-243.4C8562.3-466.3,8675-655,8670.1-659.9c-7.3-7.3-1673.3-9.8-3704.4-7.3L1276-659.9l249.9,409.2l252.3,411.6h3187.5h3187.5L8417.8-243.4z M8915.1-1096c44.1-24.5,112.7-88.2,151.9-144.6c71.1-95.5,73.5-110.3,73.5-367.5v-264.6l-4145.4,4.9l-4147.8,7.3l-7.3,159.2c-12.2,222.9,12.3,345.4,85.8,458.2c68.6,107.8,129.8,154.3,240.1,181.3c41.7,9.8,1783.6,14.7,3871,14.7C8633.3-1051.9,8839.1-1054.4,8915.1-1096z M9503.1-3029.1l-7.3-766.9l-411.6-7.3l-409.2-4.9l-26.9,66.2c-102.9,276.9-313.6,502.3-553.7,600.3l-142.1,56.3H4987.7H2023.3l-142.1-66.2c-240.1-112.7-428.8-323.4-529.2-588l-27-68.6H908.5H492v771.8v771.7h4508h4508L9503.1-3029.1z"/></g></g>
</svg>