<?xml version="1.0" encoding="utf-8"?>
<!-- Svg Vector Icons : http://www.onlinewebfonts.com/icon -->
<!DOCTYPE svg PUBLIC "-//W3C//DTD SVG 1.1//EN" "http://www.w3.org/Graphics/SVG/1.1/DTD/svg11.dtd">
<svg version="1.1" xmlns="http://www.w3.org/2000/svg" xmlns:xlink="http://www.w3.org/1999/xlink" x="0px" y="0px" viewBox="0 0 1000 1000" enable-background="new 0 0 1000 1000" xml:space="preserve">
<metadata> Svg Vector Icons : http://www.onlinewebfonts.com/icon </metadata>
<g><g transform="translate(0.000000,511.000000) scale(0.100000,-0.100000)"><path d="M4841.9,4614.8v-316.1h-316.1h-316.1v-553.2v-553.2h-472.2h-472.2l-7.9,205.5c-5.9,195.6-9.9,209.4-65.2,280.6c-106.7,130.4-158.1,146.2-484.1,146.2c-326,0-377.4-15.8-484.1-146.2c-55.3-71.1-59.3-85-65.2-276.6l-7.9-203.5l-175.8-21.7C1265.7,3081.6,706.6,2536.3,594,1829c-9.9-71.1-19.8-330-19.8-575V809.4L724.4,355c83-249,167.9-476.2,187.7-505.8c21.7-27.7,77.1-71.1,122.5-92.9c79-37.5,120.5-41.5,523.6-41.5h438.6v-474.2v-474.2h158.1h158.1v158.1v158.1H2471H2629v158.1v158.1H2471h-158.1v158.1v158.1h349.7c308.2,0,357.6,4,430.7,39.5c140.3,69.2,166,122.5,231.2,501.9c45.4,272.7,65.2,343.8,98.8,373.4c37.5,31.6,120.5,33.6,1124.2,33.6h1084.7V-443.2v-1106.4H3081.5c-1940.2,0-2572.5-5.9-2633.7-23.7c-108.7-31.6-292.4-215.4-324-324c-17.8-59.3-23.7-385.3-23.7-1211.2v-1128.2h237.1h237.1v-237.1V-4711h474.2h474.2v237.1v237.1H4921h3398.4v-237.1V-4711h474.2h474.2v237.1v237.1h237.1h237.1v806.1c0,1151.9-39.5,1958-140.3,2809.6C9540.4-91.5,9487,457.7,9471.2,724.5l-15.8,250.9l112.6,7.9c88.9,5.9,130.4,21.7,185.7,67.2C9900,1167.1,9900,1173,9900,1848.7c0,675.7-2,683.6-144.2,798.2c-61.3,49.4-96.8,61.3-199.6,67.2l-124.5,7.9l-25.7,100.8c-33.6,130.4-203.5,308.2-328,345.8c-57.3,15.8-282.6,23.7-737,23.7h-654v553.2v553.2H7371h-316.1v316.1V4931h-158.1h-158.1v-79v-79h-790.3h-790.3v79v79H5000h-158.1V4614.8z M5316.1,4140.6v-316.1h-79h-79v316.1v316.1h79h79V4140.6z M5790.3,4140.6v-316.1h-79h-79v316.1v316.1h79h79V4140.6z M6264.5,4140.6v-316.1h-79h-79v316.1v316.1h79h79V4140.6z M6738.7,4140.6v-316.1h-79h-79v316.1v316.1h79h79V4140.6z M4841.9,3666.4v-316.1H5000h158.1v79v79h790.3h790.3v-79v-79h158.1h158.1v316.1v316.1h158.1H7371v-395.2v-395.2H5948.4H4525.8v395.2v395.2h158.1h158.1V3666.4z M2945.2,3350.3v-158.1h-237.1H2471v158.1v158.1h237.1h237.1V3350.3z M9066.2,2840.6c35.6-35.6,37.5-96.8,49.4-875.3c13.8-987.9,57.3-1657.7,162-2487.5c98.8-798.2,130.4-1306,142.3-2404.6l11.8-993.8H4922.9H416.1v987.9c0,962.2,2,989.9,39.5,1027.4c39.5,39.5,65.2,39.5,2766.1,39.5h2726.6v1422.6V979.4H4709.6c-1337.6-2-1317.9,0-1458.1-108.7c-134.4-100.8-167.9-177.8-225.2-517.7l-53.3-312.2l-908.9-5.9l-906.9-4l-134.4,401.1L890.3,833.1v462.3c0,541.4,19.8,661.9,140.3,906.9c156.1,318.1,480.1,569,827.9,642.1c106.7,23.7,715.2,29.6,3651.3,29.6C8906.2,2876.1,9032.6,2874.1,9066.2,2840.6z M9583.9,1848.7v-553.2h-67.2c-61.3,0-67.2,5.9-79,75.1c-5.9,39.5-11.8,288.5-11.8,553.2v478.1h79h79V1848.7z M1206.5-4315.8v-79h-158.1H890.3v79v79h158.1h158.1V-4315.8z M8951.6-4315.8v-79h-158.1h-158.1v79v79h158.1h158.1V-4315.8z"/><path d="M6892.8,2532.3c-193.6-71.1-310.2-171.9-407-355.6c-43.5-83-53.3-126.5-53.3-249c0-132.4,7.9-162,67.2-272.7c77-140.3,154.1-217.3,304.3-296.4l102.8-53.3H7529h622.4l124.5,67.2c140.3,77.1,217.3,156.1,294.4,304.3c43.5,85,53.3,128.4,53.3,250.9c0,122.5-9.9,166-53.3,250.9c-77.1,148.2-154.1,227.2-294.4,304.3l-124.5,67.2l-592.7,4C7104.2,2558,6948.1,2554.1,6892.8,2532.3z M8159.3,2208.3c114.6-57.3,150.1-124.5,150.1-280.6c0-156.1-35.6-223.3-150.1-280.6c-59.3-31.6-132.4-35.6-630.3-35.6s-571,4-630.3,35.6c-114.6,57.3-150.1,124.5-150.1,280.6c0,156.1,35.6,223.3,150.1,280.6c59.3,31.6,132.4,35.6,630.3,35.6S8100,2239.9,8159.3,2208.3z"/><path d="M1996.8,1998.9v-245l-51.4-11.9c-79-19.8-219.3-173.9-245-268.7c-45.4-171.9,43.5-361.6,211.4-442.6c77.1-39.5,83-47.4,85-124.5v-85h158.1h158.1v85c2,77.1,7.9,85,85,124.5c167.9,81,256.9,270.7,211.4,442.6c-25.7,94.8-166,249-245,268.7l-51.4,11.9v245v245h-158.1h-158.1V1998.9z M2303,1374.5v-69.2h-148.2c-140.3,0-148.2,2-154.1,45.4c-13.8,92.9,4,104.7,158.1,98.8l144.2-5.9V1374.5z"/><path d="M6738.7,821.3V663.2h158.1h158.1v158.1v158.1h-158.1h-158.1V821.3z"/><path d="M7371,821.3V663.2H7529h158.1v158.1v158.1H7529H7371V821.3z"/><path d="M8003.2,821.3V663.2h158.1h158.1v158.1v158.1h-158.1h-158.1V821.3z"/><path d="M7274.1,317.5c-353.7-77.1-705.3-353.7-867.4-683.6c-185.7-377.4-185.7-731.1,0-1104.5c65.2-130.4,118.6-203.5,243-326c420.8-420.8,1007.7-499.9,1507.5-203.5c142.3,83,371.4,312.2,454.4,454.4C8908.1-1045.8,8829.1-459,8408.3-38.2C8094.1,277.9,7685.1,406.4,7274.1,317.5z M7776,1.3c420.8-110.6,701.4-476.2,701.4-918.8c0-535.4-412.9-948.4-948.4-948.4s-948.4,412.9-948.4,948.4C6580.6-287.1,7163.5,159.4,7776,1.3z"/><path d="M7367-310.8c-197.6-75.1-310.2-173.9-407-357.6c-43.5-83-53.3-126.4-53.3-248.9c0-132.4,7.9-162,67.2-272.7c77-140.3,156.1-217.3,304.3-294.4c146.2-75.1,355.6-75.1,501.9,0c148.2,77.1,227.2,154.1,304.3,294.4c57.3,110.6,65.2,142.3,65.2,272.7c0,122.5-9.9,166-53.3,250.9C8019-518.3,7942-439.3,7803.7-364.2C7661.4-289.1,7485.6-267.4,7367-310.8z M7722.7-652.7c86.9-65.2,126.5-160,116.6-290.4c-11.9-197.6-130.4-298.4-335.9-284.5c-197.6,11.9-298.4,130.4-284.5,335.9c7.9,130.4,51.4,203.5,154.1,256.9C7461.8-587.5,7645.6-597.3,7722.7-652.7z"/><path d="M7212.9-3446.5v-158.1h553.2h553.2v158.1v158.1h-553.2h-553.2V-3446.5z"/><path d="M8635.5-3446.5v-158.1h158.1h158.1v158.1v158.1h-158.1h-158.1V-3446.5z"/></g></g>
</svg>