<?xml version="1.0" encoding="utf-8"?>
<!-- Svg Vector Icons : http://www.onlinewebfonts.com/icon -->
<!DOCTYPE svg PUBLIC "-//W3C//DTD SVG 1.1//EN" "http://www.w3.org/Graphics/SVG/1.1/DTD/svg11.dtd">
<svg version="1.1" xmlns="http://www.w3.org/2000/svg" xmlns:xlink="http://www.w3.org/1999/xlink" x="0px" y="0px" viewBox="0 0 1000 1000" enable-background="new 0 0 1000 1000" xml:space="preserve">
<metadata> Svg Vector Icons : http://www.onlinewebfonts.com/icon </metadata>
<g><g transform="translate(0.000000,512.000000) scale(0.100000,-0.100000)"><path d="M1985.5,4998.6c-88.1-47.9-86.2,3.8-86.2-1606.5v-1528l46-53.6l45.9-53.6h3010.1h3010.1l45.9,53.6l46,53.6v1526.1c-1.9,1614.2,1.9,1560.6-90,1608.5C7955.9,5029.3,2041,5031.2,1985.5,4998.6z M7777.8,3384.4V2072.8H5001.3H2224.8v1311.7v1311.7h2776.5h2776.5V3384.4z"/><path d="M2433.5,4474l-46-49.8V3380.6V2337l53.6-46l53.6-46h2506.5h2506.5l53.6,46l53.6,46v1043.6v1043.6l-46,49.8l-45.9,49.8H5001.3H2479.5L2433.5,4474z M7280,3384.4v-813.8H5001.3H2722.7v813.8v813.8h2278.7H7280V3384.4z"/><path d="M3168.8,3426.6c-273.8-273.8-293-296.8-293-363.8c0-95.7,72.8-166.6,168.5-166.6c59.4,0,90,23,281.5,210.6l212.6,210.6l206.8-210.6c277.7-283.4,268.1-283.4,555.3,0l214.5,210.6l208.7-210.6c187.6-189.6,216.4-210.6,277.7-210.6s90,21.1,277.6,210.6l208.7,210.6l214.5-210.6c287.2-283.4,277.6-283.4,555.3,0l206.8,210.6l212.5-210.6c191.5-187.7,222.1-210.6,281.5-210.6c91.9,0,168.5,76.6,168.5,170.4c0,61.3-24.9,91.9-293,360c-375.3,375.3-342.8,371.5-633.8,82.3l-212.5-208.7l-212.5,208.7c-285.3,283.4-275.7,283.4-561-3.8l-212.6-216.4l-212.5,216.4c-285.3,287.2-275.7,287.2-561,3.8l-212.6-208.7l-212.5,208.7C3511.6,3798,3544.1,3801.9,3168.8,3426.6z"/><path d="M2519.7,1067.5C1962.5,944.9,1510.6,537.1,1322.9-14.4c-59.4-174.2-63.2-197.2-70.9-532.3c-7.7-348.5-7.7-352.3-49.8-340.8c-279.6,76.6-593.6-17.2-823.4-245.1c-235.5-233.6-329.4-541.9-252.8-827.2c40.2-151.3,143.6-331.3,254.7-442.3l101.5-99.6l-28.7-111.1c-80.4-306.4,17.2-626.2,270-880.8c158.9-162.8,346.6-262.3,551.5-296.8l126.4-21.1v-170.4c0-178.1,26.8-268.1,86.2-291.1c17.2-5.7,78.5-11.5,136-11.5H1727v-86.2c0-65.1-7.6-86.2-28.7-86.2c-17.2,0-51.7-21.1-76.6-47.9c-65.1-63.2-65.1-166.6,0-229.8c44-46,57.4-47.9,277.7-47.9s233.6,1.9,277.7,47.9c65.1,63.2,65.1,166.6,0,229.8c-24.9,26.8-59.4,47.9-76.6,47.9c-21.1,0-28.7,21.1-28.7,86.2v86.2h111.1c91.9,0,118.7,7.7,153.2,44c38.3,40.2,42.1,65.1,42.1,239.4v195.3h2623.3h2623.3V-4003c0-181.9,3.8-201.1,44-239.4c34.5-32.5,68.9-42.1,153.2-42.1H7931v-86.2c0-65.1-7.7-86.2-28.7-86.2c-17.2,0-51.7-21.1-76.6-47.9c-65.1-63.2-65.1-166.6,0-229.8c44-46,57.4-47.9,277.6-47.9s233.6,1.9,277.7,47.9c65.1,63.2,65.1,166.6,0,229.8c-24.9,26.8-59.4,47.9-76.6,47.9c-21.1,0-28.7,21.1-28.7,86.2v86.2h103.4c57.5,0,118.7,5.7,135.9,11.5c59.4,23,86.2,113,86.2,291.1v170.4l132.1,23c210.6,38.3,388.7,134,545.7,294.9c252.7,256.6,350.4,574.5,270,882.8l-28.7,111.1l101.5,101.5c365.8,365.7,371.5,888.5,13.4,1256.1c-229.8,233.6-551.5,333.2-834.9,254.7c-42.1-11.5-42.1-7.7-49.8,340.8c-7.6,294.9-17.2,371.5-53.6,484.4c-172.3,540-551.5,919.1-1101,1103l-134,46l-2412.7,3.8C3096.1,1092.4,2613.5,1088.5,2519.7,1067.5z M7461.9,742c348.5-72.8,674-325.5,831-641.5c113-229.8,135.9-361.9,135.9-796.6v-365.7l-76.6-84.2c-44-46-113-153.2-155.1-237.4c-63.2-126.4-78.5-181.9-88.1-302.5l-11.5-147.5H4999.4H1899.3v91.9c0,189.6-103.4,436.6-248.9,595.5l-76.6,84.2v365.7c0,434.7,23,564.9,136,796.6c153.2,310.2,482.5,566.8,821.5,639.6C2720.8,782.2,7266.6,782.2,7461.9,742z M1240.6-1241.8c105.3-49.8,233.6-174.3,268.1-258.5c36.4-88.1,68.9-254.7,55.5-294.9c-7.7-26.8-44-34.5-178.1-44c-264.2-17.2-461.5-103.4-654.9-281.5c-45.9-42.1-90-76.6-97.7-76.6c-7.7,0-46,36.4-82.3,80.4c-201.1,235.5-155.1,633.8,95.7,819.5C807.8-1180.5,1066.3-1155.6,1240.6-1241.8z M9164.2-1211.2c314-82.3,482.5-402.1,384.9-729.5c-24.9-86.2-145.5-256.6-180-256.6c-7.7,0-51.7,34.5-97.7,76.6c-193.4,178.1-390.6,264.2-654.9,281.5c-120.6,7.7-170.4,19.2-178.1,40.2c-21.1,55.5,32.6,270,88.1,354.2c97.7,147.4,294.9,256.6,467.2,260.4C9026.3-1182.5,9102.9-1195.9,9164.2-1211.2z M8831-2214.5c134-51.7,216.4-118.7,306.4-250.9c90-134,124.5-268.1,107.2-428.9c-28.7-287.2-210.6-494-488.3-559.1c-158.9-38.3-7351-38.3-7510,0c-277.7,63.2-459.6,271.9-488.3,559.1c-17.2,160.8,17.2,294.9,107.2,428.9c88.1,130.2,170.4,199.2,300.6,248.9c88.1,34.5,218.3,36.4,3829.7,38.3C8641.4-2178.2,8737.2-2178.2,8831-2214.5z M2052.5-3882.4v-76.6h-162.8H1727v76.6v76.6h162.8h162.8V-3882.4z M8275.7-3882.4v-76.6h-162.8h-162.8v76.6v76.6h162.8h162.8V-3882.4z"/><path d="M2339.7-47c-67-24.9-114.9-90-114.9-157c0-57.5,19.2-86.2,128.3-197.2l128.3-128.3l-128.3-134c-107.2-111.1-128.3-143.6-128.3-197.2c0-118.7,116.8-195.3,227.9-149.4c30.6,11.5,139.8,107.2,241.3,212.6L2881.6-608l199.2-195.3c218.3-216.4,247-237.4,321.7-218.3c78.5,19.1,124.5,78.5,124.5,160.8c0,63.2-15.3,86.2-124.5,195.3l-122.5,122.6l122.5,130.2c109.2,114.9,124.5,139.8,124.5,204.9c0,61.3-11.5,84.2-61.3,126.4c-97.7,82.3-145.5,59.4-383-178.1l-206.8-204.9L2671-259.5C2473.7-64.2,2406.7-22.1,2339.7-47z"/><path d="M6537-81.4c-49.8-42.1-61.3-65.1-61.3-128.3c0-68.9,13.4-90,124.5-204.9l122.6-128.3l-122.6-122.6c-109.2-109.1-124.5-132.1-124.5-195.3c0-82.3,46-141.7,124.5-160.8c74.7-19.2,103.4,1.9,321.7,218.3L7121.1-608l187.6-189.6c101.5-105.3,210.6-201.1,241.3-212.6c111.1-45.9,227.9,30.7,227.9,149.4c0,53.6-21.1,86.2-128.3,197.2l-128.3,134l128.3,128.3c109.1,111.1,128.3,139.8,128.3,197.2c0,90-70.9,158.9-164.7,158.9c-59.4,0-90-23-277.7-210.6l-210.6-210.6L6920-259.5C6682.5-20.1,6634.7,0.9,6537-81.4z"/><path d="M4465.2-372.5c-70.8-26.8-114.9-90-114.9-164.7c0-65.1,13.4-90,124.5-203l122.6-128.3L4474.7-991c-109.2-109.2-124.5-132.1-124.5-197.2c0-88.1,68.9-166.6,143.6-166.6c82.3,0,143.6,44,331.3,235.5l176.2,180l178.1-180c241.3-248.9,319.8-283.4,423.2-187.6c36.4,32.6,49.8,65.1,49.8,114.9c0,61.3-17.2,88.1-122.5,197.2l-122.6,128.3l122.6,130.2c107.2,111.1,122.5,137.9,122.5,201.1c0,95.7-68.9,164.7-164.7,164.7c-59.4,0-90-23-275.7-208.7l-210.6-210.6L4796.4-585C4599.2-389.7,4532.2-347.6,4465.2-372.5z"/></g></g>
</svg>