<?xml version="1.0" encoding="utf-8"?>
<!-- Svg Vector Icons : http://www.onlinewebfonts.com/icon -->
<!DOCTYPE svg PUBLIC "-//W3C//DTD SVG 1.1//EN" "http://www.w3.org/Graphics/SVG/1.1/DTD/svg11.dtd">
<svg version="1.1" xmlns="http://www.w3.org/2000/svg" xmlns:xlink="http://www.w3.org/1999/xlink" x="0px" y="0px" viewBox="0 0 1000 1000" enable-background="new 0 0 1000 1000" xml:space="preserve">
<metadata> Svg Vector Icons : http://www.onlinewebfonts.com/icon </metadata>
<g><g transform="translate(0.000000,512.000000) scale(0.100000,-0.100000)"><path d="M199.5,4997c-32.5-32.5-32.5-2907.5,0-2940c13.4-13.4,65.1-23,114.8-23h91.9V1000.5V-33.1H276.1c-76.6,0-139.7-9.6-153.1-23c-15.3-15.3-23-90-23-210.5c0-166.5,3.8-189.5,38.3-210.5c38.3-24.9,38.3-45.9,38.3-2139.9c0-1621.2,5.7-2122.7,23-2139.9c32.5-32.5,9568.4-32.5,9600.9,0c17.2,17.2,23,518.7,23,2139.9c0,2094,0,2115,38.3,2139.9c34.5,21.1,38.3,44,38.3,210.5c0,120.6-7.7,195.2-23,210.5c-13.4,13.4-76.6,23-153.1,23h-130.2v1033.6v1033.6h91.9c49.8,0,101.4,9.6,114.8,23c32.5,32.5,32.5,2907.5,0,2940c-32.5,32.5-3749.6,32.5-3782.2,0c-13.4-13.4-23-65.1-23-114.8v-91.9h-497.7H5000v91.9c0,49.8-9.6,101.5-23,114.8c-17.2,17.2-208.6,23-742.7,23s-725.4-5.7-742.7-23c-13.4-13.4-23-65.1-23-114.8v-91.9h-497.7h-497.7v91.9c0,49.8-9.6,101.5-23,114.8C2417.9,5029.6,232.1,5029.6,199.5,4997z M2320.3,3527V2187.2H1325H329.7V3527v1339.8H1325h995.3V3527z M4846.9,4024.7v-842.2h-612.5h-612.5v842.2v842.2h612.5h612.5V4024.7z M7836.6,3620.8c5.7-1163.7,7.6-1249.9,40.2-1269c23-15.3,42.1-15.3,67,0c30.6,19.1,32.5,105.3,38.3,1269l3.8,1246h842.2h842.2V3527V2187.2H7909.4H6148.4V3527v1339.8h842.2h842.2L7836.6,3620.8z M3464.9,3886.9l-5.7-750.3l-382.8-333c-210.5-183.7-432.6-375.2-491.9-428.8l-111-95.7v1179.1v1179.1h497.7h497.7L3464.9,3886.9z M5995.3,3458.1V2279.1l-99.5,88.1c-55.5,45.9-277.5,239.3-493.8,426.8l-392.4,342.6l-5.7,750.3l-3.8,750.3h497.7h497.7V3458.1z M5380.9,2614l480.4-417.3l-813.5-5.7c-447.9-1.9-1177.1-1.9-1623.1,0l-809.7,5.7l478.5,415.4l480.4,417.3h664.2h662.3L5380.9,2614z M9440.6,1000.5V-33.1H5000H559.4v1033.6v1033.6H5000h4440.6V1000.5z M9746.9-262.8v-76.6H5000H253.1v76.6v76.6H5000h4746.9V-262.8z M2320.3-2559.7v-2067.2H1325H329.7v1416.4v1416.4l901.5,3.8c836.4,5.7,905.4,7.7,924.5,40.2c15.3,23,15.3,42.1,0,67c-19.1,30.6-88.1,32.5-924.5,38.3l-901.5,3.8v574.2v574.2H1325h995.3V-2559.7z M5995.3-837v-344.5H4234.4H2473.4V-837v344.5h1760.9h1760.9V-837z M7836.6-2465.9c5.7-1856.6,7.6-1975.3,40.2-1996.4c23-15.3,42.1-15.3,67,0c30.6,21.1,32.5,139.7,38.3,1996.4l3.8,1973.4h842.2h842.2v-2067.2v-2067.2H7909.4H6148.4v2067.2v2067.2h842.2h842.2L7836.6-2465.9z M5995.3-2368.3v-1033.6H4234.4H2473.4v1033.6v1033.6h1760.9h1760.9V-2368.3z M5995.3-4090.9v-535.9H4234.4H2473.4v535.9v535.9h1760.9h1760.9V-4090.9z"/><path d="M1958.6,3155.7c-15.3-17.2-21.1-132.1-17.2-365.6c5.7-300.5,9.6-342.6,40.2-361.7c23-15.3,42.1-15.3,67,0c28.7,19.1,32.5,61.2,38.3,361.7c5.7,350.3-1.9,392.4-72.7,392.4C1994.9,3182.5,1970,3171,1958.6,3155.7z"/><path d="M8391.7,4537.7c-11.5-11.5-23-38.3-23-55.5c0-61.3,47.9-76.6,239.3-70.8c153.1,3.8,191.4,11.5,208.6,40.2c15.3,23,15.3,42.1,0,67c-17.2,26.8-55.5,34.5-210.5,38.3C8474,4560.6,8408.9,4554.9,8391.7,4537.7z"/><path d="M9004.2,4537.7c-13.4-13.4-23-36.4-23-53.6c0-57.4,44-76.6,176.1-76.6h130.2l3.8-518.7c5.7-470.9,9.6-522.5,40.2-541.7c23-15.3,42.1-15.3,67,0c28.7,19.1,32.5,72.7,38.3,591.4c3.8,403.9-1.9,578.1-17.2,595.3C9390.9,4568.3,9038.7,4572.1,9004.2,4537.7z"/><path d="M7471,3155.7c-15.3-17.2-21-132.1-17.2-365.6c5.7-300.5,9.6-342.6,40.2-361.7c23-15.3,42.1-15.3,67,0c28.7,19.1,32.5,61.2,38.3,361.7c5.7,350.3-1.9,392.4-72.7,392.4C7507.4,3182.5,7482.5,3171,7471,3155.7z"/><path d="M8236.7,3155.7c-15.3-17.2-21-132.1-17.2-365.6c5.7-300.5,9.6-342.6,40.2-361.7c23-15.3,42.1-15.3,67,0c28.7,19.1,32.5,61.2,38.3,361.7c5.7,350.3-1.9,392.4-72.7,392.4C8273,3182.5,8248.2,3171,8236.7,3155.7z"/><path d="M965.2-745.2c-13.4-13.4-23-38.3-23-55.5c0-67,44-76.6,392.4-70.8c300.5,5.7,342.6,9.6,361.8,40.2c15.3,23,15.3,42.1,0,67c-19.1,28.7-61.2,32.5-363.7,38.3C1081.9-722.2,982.4-727.9,965.2-745.2z"/><path d="M1958.6-2127.1c-15.3-17.2-21.1-132.1-17.2-365.6c5.7-300.5,9.6-342.6,40.2-361.8c23-15.3,42.1-15.3,67,0c28.7,19.1,32.5,61.3,38.3,361.8c5.7,350.3-1.9,392.4-72.7,392.4C1994.9-2100.3,1970-2111.8,1958.6-2127.1z"/><path d="M580.4-2892.7c-15.3-17.2-21.1-82.3-17.2-176.1c3.8-114.8,13.4-151.2,40.2-168.4c23-15.3,42.1-15.3,67,0c24.9,17.2,34.5,53.6,38.3,168.4c5.7,155-11.5,202.9-72.7,202.9C616.8-2865.9,591.9-2877.4,580.4-2892.7z"/><path d="M580.4-3505.2c-15.3-17.2-21.1-151.2-17.2-442.1c5.7-373.2,9.6-419.2,40.2-438.3c23-15.3,42.1-15.3,67,0c28.7,19.1,32.5,65.1,38.3,438.3c3.8,430.7-1.9,468.9-72.7,468.9C616.8-3478.4,591.9-3489.9,580.4-3505.2z"/><path d="M3336.7-672.4c-166.5-91.9-95.7-356,93.8-356c97.6,0,191.4,93.8,191.4,189.5C3621.9-695.4,3463-601.6,3336.7-672.4z M3461.1-819.8c19.1-32.5-24.9-68.9-51.7-42.1c-23,23-7.7,63.2,21.1,63.2C3440-798.8,3453.4-808.3,3461.1-819.8z"/><path d="M4944.5-672.4c-166.5-91.9-95.7-356,93.8-356c97.6,0,191.4,93.8,191.4,189.5C5229.7-695.4,5070.8-601.6,4944.5-672.4z M5068.9-819.8c19.1-32.5-24.9-68.9-51.7-42.1c-23,23-7.7,63.2,21.1,63.2C5047.9-798.8,5061.2-808.3,5068.9-819.8z"/><path d="M7471-749c-15.3-17.2-21-132.1-17.2-365.6c5.7-300.5,9.6-342.6,40.2-361.7c23-15.3,42.1-15.3,67,0c28.7,19.1,32.5,61.2,38.3,361.7c5.7,350.3-1.9,392.4-72.7,392.4C7507.4-722.2,7482.5-733.7,7471-749z"/><path d="M8236.7-749c-15.3-17.2-21-132.1-17.2-365.6c5.7-300.5,9.6-342.6,40.2-361.7c23-15.3,42.1-15.3,67,0c28.7,19.1,32.5,61.2,38.3,361.7c5.7,350.3-1.9,392.4-72.7,392.4C8273-722.2,8248.2-733.7,8236.7-749z"/><path d="M3108.9-1510.8c-30.6-30.6-28.7-82.3,3.8-109.1c17.2-15.3,331.1-19.1,1131.2-17.2c1029.8,5.7,1108.3,7.7,1127.4,40.2c15.3,23,15.3,42.1,0,67c-19.1,30.6-97.6,32.5-1131.2,38.3C3394.1-1487.8,3126.1-1493.6,3108.9-1510.8z"/><path d="M3108.9-1893.6c-32.5-32.5-32.5-1146.5,0-1179.1c32.5-32.5,2218.4-32.5,2250.9,0c32.5,32.5,32.5,1146.5,0,1179.1C5327.3-1861.1,3141.4-1861.1,3108.9-1893.6z M5229.7-2483.1v-459.4h-995.3h-995.3v459.4v459.4h995.3h995.3V-2483.1z"/></g></g>
</svg>