<?xml version="1.0" encoding="utf-8"?>
<!-- Svg Vector Icons : http://www.onlinewebfonts.com/icon -->
<!DOCTYPE svg PUBLIC "-//W3C//DTD SVG 1.1//EN" "http://www.w3.org/Graphics/SVG/1.1/DTD/svg11.dtd">
<svg version="1.1" xmlns="http://www.w3.org/2000/svg" xmlns:xlink="http://www.w3.org/1999/xlink" x="0px" y="0px" viewBox="0 0 1000 1000" enable-background="new 0 0 1000 1000" xml:space="preserve">
<metadata> Svg Vector Icons : http://www.onlinewebfonts.com/icon </metadata>
<g><g><path d="M913.4,545.9h-30.6H270.5c0,0-0.1,0-0.1,0H117.2H86.6c-25.3,0-45.9,20.6-45.9,45.9c0,8.5,6.9,15.3,15.3,15.3c8.5,0,15.3-6.9,15.3-15.3c0-8.4,6.9-15.3,15.3-15.3h12.5L63.6,789.9c-5.4,32.3,0.9,65.5,17.8,93.6l20.5,34.2v55.1c0,9.5,7.7,17.2,17.2,17.2h761.8c9.5,0,17.2-7.7,17.2-17.2v-55.1l20.5-34.2c16.8-28.1,23.1-61.3,17.8-93.6l-35.6-213.3h12.5c8.4,0,15.3,6.9,15.3,15.3c0,8.5,6.9,15.3,15.3,15.3c8.5,0,15.3-6.9,15.3-15.3C959.4,566.5,938.8,545.9,913.4,545.9z M815.8,867.7l-18.3,30.4h-45.3l10.8-27c8.4-21,11.5-43.9,9-66.4l-25.3-228.1h46.5l36.4,218.3C833.8,820,828.9,845.9,815.8,867.7z M673.4,898.1l10.2-35.8c4.5-15.9,6.2-32.3,4.9-48.7l-18.8-237.1H716l25.7,231.5c1.9,17.5-0.5,35.3-7,51.6l-15.4,38.4H673.4z M592.8,898.1l3.2-56c0.2-3.3,0.3-6.6,0.2-9.9l-4-255.7H639L658,816c1,12.8-0.3,25.6-3.8,37.9l-12.6,44.2H592.8z M515.3,898.1V576.6h46.2l4,256.2c0,2.6,0,5.1-0.2,7.7l-3.2,57.7H515.3z M437.8,898.1l-3.6-57.3c-0.2-2.8-0.2-5.7-0.2-8.5l4.4-255.7h46.2v321.6H437.8z M202.4,898.1l-18.3-30.4c-13.1-21.8-18-47.7-13.8-72.8l36.4-218.3h46.5l-25.3,228.1c-2.5,22.5,0.6,45.4,9,66.4l10.8,27H202.4z M280.7,898.1l-15.4-38.4c-6.5-16.3-9-34.2-7-51.6L284,576.6h46.3l-18.9,236.9c-1.3,16.6,0.3,33.1,4.9,49.1l10.2,35.6H280.7z M358.4,898.1l-12.7-44.1c-3.6-12.4-4.9-25.3-3.8-38.2L361,576.6h46.8l-4.4,255.2c-0.1,3.6,0,7.3,0.2,11l3.5,55.4H358.4z M93.8,794.9l36.4-218.3h45.5l-35.6,213.3c-5.4,32.3,0.9,65.5,17.8,93.6l8.8,14.7h-40.8l-18.3-30.4C94.5,845.9,89.6,820,93.8,794.9z M867.5,959.4h-735v-30.6h61.2c0,0,0,0,0,0s0,0,0,0h76.5c0,0,0,0,0,0c0,0,0.1,0,0.1,0h76.4c0,0,0,0,0,0c0,0,0,0,0.1,0h306.2c0,0,0,0,0.1,0c0,0,0,0,0,0h76.4c0,0,0.1,0,0.1,0c0,0,0,0,0,0h76.5c0,0,0,0,0,0c0,0,0,0,0,0h61.2V959.4z M892.4,867.7l-18.3,30.4h-40.8l8.8-14.7c16.8-28.1,23.1-61.3,17.8-93.6l-35.5-213.3h45.5l36.4,218.3C910.4,820,905.5,845.9,892.4,867.7z"/><path d="M209.1,515.3c8.5,0,15.3-6.9,15.3-15.3V40.6h551.3V500c0,8.5,6.9,15.3,15.3,15.3c8.5,0,15.3-6.9,15.3-15.3V40.6c0-16.9-13.7-30.6-30.6-30.6H224.4c-16.9,0-30.6,13.7-30.6,30.6V500C193.8,508.5,200.6,515.3,209.1,515.3z"/><path d="M729.7,515.3c8.5,0,15.3-6.9,15.3-15.3V86.6c0-8.5-6.9-15.3-15.3-15.3H270.3c-8.5,0-15.3,6.9-15.3,15.3V500c0,8.5,6.9,15.3,15.3,15.3c8.5,0,15.3-6.9,15.3-15.3V270.3h153.1c8.5,0,15.3-6.9,15.3-15.3c0-8.5-6.9-15.3-15.3-15.3H285.6V101.9h199.1V500c0,8.5,6.9,15.3,15.3,15.3c8.5,0,15.3-6.9,15.3-15.3V270.3h199.1V500C714.4,508.5,721.2,515.3,729.7,515.3z M515.3,239.7V101.9h199.1v137.8H515.3z"/></g><g></g><g></g><g></g><g></g><g></g><g></g><g></g><g></g><g></g><g></g><g></g><g></g><g></g><g></g><g></g></g>
</svg>