<?xml version="1.0" encoding="utf-8"?>
<!-- Svg Vector Icons : http://www.onlinewebfonts.com/icon -->
<!DOCTYPE svg PUBLIC "-//W3C//DTD SVG 1.1//EN" "http://www.w3.org/Graphics/SVG/1.1/DTD/svg11.dtd">
<svg version="1.1" xmlns="http://www.w3.org/2000/svg" xmlns:xlink="http://www.w3.org/1999/xlink" x="0px" y="0px" viewBox="0 0 1000 1000" enable-background="new 0 0 1000 1000" xml:space="preserve">
<metadata> Svg Vector Icons : http://www.onlinewebfonts.com/icon </metadata>
<g><path d="M333.9,645.9h300.7v44.5H333.9V645.9z"/><path d="M544.2,692.5H590v222.7h-45.8V692.5z"/><path d="M378.4,692.5h48v222.7h-48V692.5z"/><path d="M657.3,417.1h-62.5V189.4h62.5V417.1L657.3,417.1z M646.6,201h-41v21h41V201L646.6,201z M676.8,139.5h62v277.6h-62V139.5L676.8,139.5z M729.6,150.2h-42.3v21.6h42.3V150.2L729.6,150.2z M873.2,398.4l-59.4,19.4l-70.6-216.6l59.4-19.4L873.2,398.4L873.2,398.4z M796.1,196.2l-39,12.7l6.5,20l39-12.7L796.1,196.2L796.1,196.2z"/><path d="M443.1,83.5H97.8c-12.3,0-22.3,10-22.3,22.3v233.6c0,12.3,10,21.9,22.3,21.9h158.7v28.8h27.7v-28.8H443c12.3,0,22.3-9.6,22.3-21.9V105.7C465.3,93.4,455.4,83.5,443.1,83.5L443.1,83.5L443.1,83.5z M442,337.9h-343v-59.8h343V337.9L442,337.9z M98.9,254.7V106.9h343v147.9H98.9L98.9,254.7z M256,293.9h28.8v28.3H256V293.9L256,293.9z M215.3,389.5c-7.7,0-14.4,6.1-14.4,13.8c0,7.7,6.2,13.9,13.9,13.9h111.4c7.7,0,13.9-6.2,13.9-13.9c0-7.7-6.7-13.8-14.4-13.8H215.3L215.3,389.5z"/><path d="M963.5,435.5h-927c-14.6,0-26.5,12-26.5,26.7v24.5c0,14.8,11.9,26.7,26.5,26.7h927c14.6,0,26.5-12,26.5-26.7v-24.5C990,447.5,978.1,435.5,963.5,435.5z M956.9,491.2c-228.4,0-913.8,0-913.8,0c-15.1,0-15.1-33.4,0-33.4h913.8C972,457.8,972,491.2,956.9,491.2z"/><path d="M879.9,515.4v378.6h-33.4V515.4h-22.3v400.9h78V515.4H879.9z"/><path d="M153.5,515.6v378.6h-33.4V515.6H97.8v400.9h78V515.6H153.5z"/></g>
</svg>