<?xml version="1.0" encoding="utf-8"?>
<!-- Svg Vector Icons : http://www.onlinewebfonts.com/icon -->
<!DOCTYPE svg PUBLIC "-//W3C//DTD SVG 1.1//EN" "http://www.w3.org/Graphics/SVG/1.1/DTD/svg11.dtd">
<svg version="1.1" xmlns="http://www.w3.org/2000/svg" xmlns:xlink="http://www.w3.org/1999/xlink" x="0px" y="0px" viewBox="0 0 1000 1000" enable-background="new 0 0 1000 1000" xml:space="preserve">
<metadata> Svg Vector Icons : http://www.onlinewebfonts.com/icon </metadata>
<g><g transform="translate(0.000000,511.000000) scale(0.100000,-0.100000)"><path d="M457.7,4179.8c-141-42.9-247.3-132.9-318.8-267.8C102,3844.6,100,3779.2,100,2890.1c0-934,0-952.4,45-1032.1c51.1-96.1,130.8-173.7,230.9-226.8c69.5-36.8,169.6-38.8,2493.4-38.8c2323.8,0,2423.9,2.1,2493.4,38.8c100.2,53.1,179.8,130.8,230.9,226.8c45,79.7,45,98.1,45,1032.1c0,934,0,952.4-45,1032.1c-51.1,96.1-130.8,173.7-230.9,226.9c-69.5,36.8-171.7,38.8-2462.8,42.9C1585.8,4194.1,486.3,4187.9,457.7,4179.8z M2705.8,2890.1v-981H1612.4H516.9l-49.1,51.1l-51.1,49.1v880.9V3771l51.1,49l49.1,51.1h1095.5h1093.4V2890.1z M5270.8,3820.1l51.1-49v-880.9v-880.9l-51.1-49.1l-49.1-51.1H4126.3H3032.8v981v981h1093.4h1095.5L5270.8,3820.1z"/><path d="M2135.6,2536.5c-110.4-55.2-98.1-233,20.4-280c181.9-75.6,308.6,202.3,128.8,284.1C2221.5,2569.2,2196.9,2569.2,2135.6,2536.5z"/><path d="M3447.7,2538.6c-112.4-55.2-102.2-233,16.4-282c181.9-75.6,308.6,202.3,128.8,284.1C3531.5,2567.2,3507,2567.2,3447.7,2538.6z"/><path d="M6317.2,3188.5c-116.5-42.9-214.6-126.7-269.8-237.1l-51.1-100.1v-944.2V964.9l55.2-100.1l53.1-100.2l-53.1-100.1l-55.2-100.1V-1363v-1929.4l63.3-108.3c40.9-71.5,92-128.8,151.3-163.5c87.9-53.1,89.9-57.2,92-161.5c0-143.1,24.5-198.3,100.2-230.9c130.8-53.1,226.8,38.8,226.8,214.6v92h1308h1308v-92c0-118.5,32.7-186,104.2-216.6c45-18.4,73.6-18.4,118.6,0c75.6,32.7,104.2,98.1,104.2,237.1c0,67.4,8.2,112.4,22.5,112.4c59.3,0,202.3,128.8,251.4,228.9L9900-3274v1913V552l-53.1,106.3l-53.1,106.3l53.1,106.3l53.1,106.3v932v932l-53.1,106.3c-28.6,59.3-83.8,130.8-118.6,157.4c-151.2,114.5-110.4,112.4-1788.3,112.4C6703.5,3215.1,6380.6,3209,6317.2,3188.5z M9534.1,2837l49.1-53.2V1905v-878.8l-57.2-49l-57.2-49.1H7938H6409.2l-53.1,63.4l-53.1,63.3v854.3v854.3l53.1,63.4l53.1,63.3h1536.9h1539L9534.1,2837z M9534.1,547.9l49.1-53.2V-1361v-1855.8l-49.1-53.2l-49-53.1h-1539H6409.2l-53.1,63.4l-53.1,63.4V-1361V474.4l53.1,63.4l53.1,63.3h1536.9h1539L9534.1,547.9z"/><path d="M6719.9,2538.6c-24.5-10.2-55.2-42.9-67.5-69.5c-24.5-55.2-32.7-1021.9-10.2-1107.7c20.4-75.6,108.3-106.3,312.7-106.3c102.2,0,206.4,10.2,235,22.5c73.6,34.7,106.3,124.7,73.6,204.4c-30.7,73.6-89.9,100.1-216.6,100.1h-89.9v327v327h92c118.5,0,186,32.7,216.6,104.2c30.7,75.6-4.1,167.6-75.6,200.3C7126.6,2569.2,6779.1,2567.2,6719.9,2538.6z"/><path d="M6715.8,253.6c-24.5-10.2-55.2-42.9-65.4-71.5c-12.3-30.7-20.4-277.9-20.4-564.1c0-549.8,10.2-613.1,106.3-639.7c79.7-20.4,400.6-14.3,453.7,10.2c71.5,32.7,106.3,124.7,75.6,200.3c-30.7,71.5-98.1,104.2-216.6,104.2h-92v327v327h92c118.5,0,186,32.7,216.6,104.2c30.7,75.6-8.2,177.8-77.7,204.4C7124.5,280.2,6777.1,278.2,6715.8,253.6z"/><path d="M457.7-71.3c-141-42.9-247.3-132.9-318.8-267.8C102-406.5,100-484.2,100-1851.5v-1440.9l45-83.8c49.1-89.9,161.5-200.3,228.9-222.8c36.8-10.2,42.9-30.7,42.9-122.6c0-139,30.7-204.4,104.2-237.1c45-18.4,73.6-18.4,118.5,0c71.5,30.7,104.2,98.1,104.2,216.6v92h2125.5h2125.6v-89.9c0-126.7,26.6-186,100.1-216.6c49-20.4,75.6-20.4,122.6-2c73.6,32.7,104.2,98.1,104.2,237.1c0,92,6.1,112.4,42.9,122.6c67.5,22.5,179.9,132.9,228.9,222.8l45,83.8v1440.9c0,1436.8,0,1440.9-45,1522.6c-51.1,96.1-130.8,173.7-230.9,226.9c-69.5,36.8-171.7,38.8-2462.8,42.9C1585.8-57,486.3-63.2,457.7-71.3z M5270.8-431c49.1-47,51.1-59.3,51.1-327V-1034H2869.3H416.8V-758c0,267.8,2,280,51.1,327l49.1,51.1h2352.4h2352.4L5270.8-431z M2705.8-2342v-981H1612.4H516.9l-49.1,51.1l-51.1,49.1v932v929.9h1144.5h1144.5V-2342z M5321.9-2290.9v-932l-51.1-49.1l-49.1-51.1H4126.3H3032.8v981v981h1144.5h1144.5V-2290.9z"/><path d="M2139.7-1712.5c-110.4-53.1-106.3-222.8,6.1-275.9c134.9-65.4,269.8,61.3,212.6,200.3C2321.6-1700.2,2231.7-1667.5,2139.7-1712.5z"/><path d="M3447.7-1712.5c-110.4-53.1-106.3-222.8,6.1-275.9c134.9-65.4,269.8,61.3,212.6,200.3C3629.6-1700.2,3539.7-1667.5,3447.7-1712.5z"/></g></g>
</svg>