<?xml version="1.0" encoding="utf-8"?>
<!-- Svg Vector Icons : http://www.onlinewebfonts.com/icon -->
<!DOCTYPE svg PUBLIC "-//W3C//DTD SVG 1.1//EN" "http://www.w3.org/Graphics/SVG/1.1/DTD/svg11.dtd">
<svg version="1.1" xmlns="http://www.w3.org/2000/svg" xmlns:xlink="http://www.w3.org/1999/xlink" x="0px" y="0px" viewBox="0 0 1000 1000" enable-background="new 0 0 1000 1000" xml:space="preserve">
<metadata> Svg Vector Icons : http://www.onlinewebfonts.com/icon </metadata>
<g><g transform="translate(0.000000,511.000000) scale(0.100000,-0.100000)"><path d="M513.4,4248.7c-49.9-67.7-57-231.6-57-1062c0-830.3,7.1-994.2,57-1062l53.5-78.4h1443.3c926.5,0,1468.2,14.3,1514.5,35.6c64.1,35.6,67.7,85.5,67.7,1097.6c0,780.4-10.7,1072.7-42.8,1104.7c-32.1,32.1-416.9,42.8-1511,42.8H566.8L513.4,4248.7z M3414.2,3186.7v-926.5h-1372h-1372v926.5v926.6h1372h1372V3186.7z"/><path d="M4155.4,4252.2c-60.6-32.1-64.1-139-64.1-1421.9V1440.5H2184.7H274.6l-85.5-89.1l-89.1-85.5V-352c0-1396.9,7.1-1625,53.5-1664.2c42.8-35.6,64.1-35.6,106.9,0c46.3,39.2,53.5,220.9,53.5,1233V407.1h1496.7h1496.7V-801c0-1083.3,7.1-1211.6,57-1229.5c124.7-49.9,156.8,42.8,156.8,445.4v388.5l1364.9-7.1l1361.3-10.7l10.7-402.7c7.1-320.7,21.4-406.3,64.1-424.1c28.5-10.7,71.3-3.6,89.1,14.3c28.5,28.5,39.2,990.7,35.6,2747.5c-3.5,716.3-7.1,719.9-413.4,719.9h-267.3v1364.9c0,1279.4-3.5,1372-64.1,1425.4c-57,53.5-163.9,60.6-776.9,60.6C4511.8,4291.5,4191,4273.6,4155.4,4252.2z M5580.9,2752l7.1-1311.4h-659.3h-659.3v1318.6v1318.5l652.1-7.1l648.6-10.7L5580.9,2752z M3307.3,923.8V620.9H1810.5H313.8v302.9v302.9h1496.7h1496.7V923.8z M6265.1,710V193.3h-1372h-1372V710v516.7h1372h1372V710z M6258-508.8l-10.7-491.8L4886-1011.2l-1364.9-7.1v498.9v498.9h1372h1375.6L6258-508.8z"/><path d="M4661.5,3596.5c-82-99.8,17.8-160.4,267.3-160.4c235.2,0,331.4,53.4,288.6,160.4C5188.9,3671.4,4725.6,3671.4,4661.5,3596.5z"/><path d="M4818.3,2206.7c-35.6-89.1,14.2-160.4,103.3-160.4c49.9,0,106.9,25,131.9,53.5c60.6,71.3-10.7,160.4-131.9,160.4C4875.3,2260.2,4828.9,2235.2,4818.3,2206.7z"/><path d="M4604.4,816.9c-39.2-96.2,25-124.7,292.2-124.7c256.6,0,263.7,3.6,263.7,89.1s-7.1,89.1-267.3,89.1C4690,870.4,4618.7,856.1,4604.4,816.9z"/><path d="M4604.4-394.7c-49.9-131.9,10.7-163.9,278-153.2c249.4,10.7,260.1,14.2,260.1,99.8c0,85.5-10.7,89.1-260.1,99.8C4675.7-341.3,4622.3-348.4,4604.4-394.7z"/><path d="M7491,1832.5c-42.8-14.2-110.5-74.8-153.3-128.3c-71.3-92.7-74.8-124.7-74.8-1176V-555.1h-135.4c-235.2,0-256.6-53.4-256.6-648.6c0-456.1,7.1-523.9,64.1-573.7c35.6-35.6,110.5-60.6,160.4-60.6c92.7,0,96.2-7.1,96.2-206.7c0-310,24.9-324.3,605.8-335l481.1-10.7l10.7-299.4c7.1-163.9-3.5-313.6-21.4-331.4c-17.8-17.8-192.5-74.8-384.9-128.3c-295.8-82-352.8-110.5-352.8-167.5c0-99.8,114-106.9,427.6-21.4c146.1,42.7,281.5,74.8,302.9,74.8c17.8,0,35.6-106.9,42.8-238.8c10.7-213.8,17.8-242.3,82-242.3c64.1,0,71.3,28.5,82,242.3c7.1,131.9,25,238.8,46.3,238.8c17.8,0,149.7-32.1,288.7-71.3c331.4-92.6,420.5-92.6,420.5,0c0,85.5-49.9,110.5-438.3,213.8l-313.6,82l10.7,324.3l10.7,324.3l481.1,10.7c580.9,10.7,605.8,25,605.8,335c0,199.6,3.5,206.7,92.6,206.7c49.9,0,121.2,17.8,160.4,35.6c64.2,35.6,67.7,82,67.7,605.8c0,634.3-3.6,641.4-263.7,641.4h-124.7l-10.7,1104.7l-10.7,1104.7l-99.8,96.2l-96.2,99.8l-866,7.1C7954.3,1861,7530.2,1850.4,7491,1832.5z M9251.4,1611.6c32.1-32.1,42.8-327.9,42.8-1104.7v-1062H9173c-178.2,0-235.2-74.8-235.2-306.5V-1054h-534.6h-534.5v178.2c0,220.9-82,320.7-267.3,320.7h-124.7v1062c0,776.9,10.7,1072.7,42.8,1104.7C7580.1,1672.2,9190.8,1672.2,9251.4,1611.6z M7654.9-1196.5v-427.6h-285.1h-285.1v427.6v427.6h285.1h285.1V-1196.5z M9721.8-1196.5v-427.6h-285.1h-285.1v427.6v427.6h285.1h285.1V-1196.5z M8937.8-1488.8c0-285.1,53.4-349.2,292.2-349.2h174.6l-10.7-167.5l-10.7-171h-997.8h-997.8l-10.7,171l-10.7,167.5h178.2c256.6,0,324.3,74.8,324.3,356.4v213.8h534.5h534.6V-1488.8z"/><path d="M1240.4,1743.4c-35.6-42.8-35.6-64.1,0-106.9c39.2-46.3,163.9-53.5,816.1-46.3l769.8,10.7v89.1v89.1l-769.8,10.7C1404.3,1796.9,1279.6,1789.8,1240.4,1743.4z"/><path d="M7501.7-3569.9c-82-82,25-245.9,131.9-206.7c89.1,35.6,60.6,206.7-32.1,220.9C7558.7-3548.5,7515.9-3555.7,7501.7-3569.9z"/><path d="M9055.4-3605.5c-25-64.2,21.4-160.4,85.5-181.8c21.4-7.1,64.1,10.7,96.2,42.8c42.7,42.8,46.3,74.8,21.4,128.3C9212.2-3534.3,9087.5-3527.2,9055.4-3605.5z"/><path d="M8296.4-3919.2c-96.2-117.6,64.1-256.6,171-149.6c46.3,46.3,49.9,71.3,21.4,121.1C8435.4-3865.7,8353.4-3855,8296.4-3919.2z"/></g></g>
</svg>