<?xml version="1.0" encoding="utf-8"?>
<!-- Svg Vector Icons : http://www.onlinewebfonts.com/icon -->
<!DOCTYPE svg PUBLIC "-//W3C//DTD SVG 1.1//EN" "http://www.w3.org/Graphics/SVG/1.1/DTD/svg11.dtd">
<svg version="1.1" xmlns="http://www.w3.org/2000/svg" xmlns:xlink="http://www.w3.org/1999/xlink" x="0px" y="0px" viewBox="0 0 1000 1000" enable-background="new 0 0 1000 1000" xml:space="preserve">
<metadata> Svg Vector Icons : http://www.onlinewebfonts.com/icon </metadata>
<g><g transform="translate(0.000000,511.000000) scale(0.100000,-0.100000)"><path d="M1255.4,4980.8c-59.3-30.7-118.6-124.7-118.6-182c0-106.3,153.3-229,253.5-202.4c81.8,20.4,163.6,120.6,163.6,204.5c0,59.3-14.3,87.9-75.7,143.1C1396.5,5019.7,1341.3,5027.9,1255.4,4980.8z M1363.8,4803c-2.1-24.5-30.7-18.4-38.9,8.2c-6.1,12.3,2,20.4,16.3,16.3C1353.6,4821.4,1363.8,4811.2,1363.8,4803z"/><path d="M2026.2,4625.1c-77.7-30.7-141.1-120.6-141.1-198.3c0-57.2,14.3-85.9,75.6-141.1c83.8-77.7,128.8-85.9,218.8-38.8c61.3,32.7,122.7,124.7,122.7,184c0,59.3-61.3,151.3-122.7,184C2114.1,4649.6,2085.5,4651.7,2026.2,4625.1z M2106,4418.6c-6.1-10.2-20.4-14.3-30.7-6.1c-10.2,6.1-14.3,20.4-6.1,30.7c6.1,10.2,20.4,14.3,30.7,6.1C2110.1,4443.1,2114.1,4428.8,2106,4418.6z"/><path d="M5082.8,4377.7c-122.7-55.2-218.8-151.3-278.1-274c-40.9-87.9-49.1-132.9-49.1-318.9c0-245.4,4.1-249.4,143.1-282.1c114.5-24.5,163.6-83.8,163.6-190.1c0-98.1-71.6-179.9-157.5-179.9c-32.7,0-79.7-14.3-104.3-32.7c-42.9-28.6-45-47-45-263.8v-231l-179.9-8.2c-114.5-4.1-194.2-16.4-214.7-34.8c-30.7-22.5-34.8-75.7-34.8-351.7v-325.1h-51.1c-112.5,0-374.1-67.5-498.9-128.8c-235.1-116.5-466.2-368-625.6-689c-196.3-390.5-480.5-1480.2-543.8-2083.4c-36.8-351.7-14.3-887.3,53.2-1239c65.4-357.8,190.1-866.9,284.2-1177.6c239.2-783.1,560.2-1177.7,1077.5-1320.8c120.6-34.8,259.6-36.8,1705.2-36.8c1465.9,0,1584.5,2,1707.2,36.8c588.8,167.7,895.5,613.4,1183.8,1731.7c274,1055,310.8,1647.9,153.3,2463.7c-57.3,290.3-182,803.5-261.7,1067.3c-249.4,832.1-607.2,1245.1-1163.3,1351.4l-177.9,32.7v300.6c0,388.5-4.1,392.5-253.5,404.8l-175.8,6.1v699.2c0,656.3-4.1,703.3-42.9,789.2c-55.2,122.7-151.3,218.8-274,278.1c-100.2,47-114.5,49.1-674.7,49.1C5215.7,4420.6,5168.7,4416.6,5082.8,4377.7z M6415.9,4097.6l67.5-65.4l6.1-715.6l6.1-715.6h-748.3H5001l2.1,149.2v147.2l96.1,61.3c132.9,85.9,214.7,243.3,202.4,392.6c-10.2,134.9-87.9,255.6-210.6,329.2l-92,55.2l6.1,147.2c6.1,122.7,14.3,155.4,57.3,200.4c28.6,30.7,69.5,63.4,92,73.6c22.5,8.2,300.5,14.3,617.5,12.3l578.6-4.1L6415.9,4097.6z M6918.8,2122.6l6.1-216.7H5747.3H4571.7v220.8v218.8l1169.5-2.1l1171.5-4.1L6918.8,2122.6z M7382.9,1609.4c192.2-51.1,296.5-110.4,431.4-245.3c206.5-210.6,376.2-590.9,545.9-1232.9l71.6-269.9h-2707c-2570,0-2709,2-2698.8,36.8c4.1,18.4,34.8,126.8,63.4,239.2c261.7,981.4,513.2,1361.7,981.4,1474.1c75.7,18.4,503,26.6,1645.9,26.6C7047.6,1640.1,7278.7,1636,7382.9,1609.4z M8532-615c147.2-740.1,116.6-1277.8-137-2285.8c-175.8-699.2-345.5-1112.2-550-1331c-134.9-145.2-218.7-202.4-394.6-265.8l-128.8-47H5737.1c-1578.4,0-1584.5,0-1727.6,45c-449.8,141.1-693.1,550-960.9,1621.3c-161.5,639.9-214.7,995.7-214.7,1421c0,316.9,20.4,523.4,85.9,854.6l42.9,218.8l2762.2-4.1l2762.2-6.1L8532-615z"/><path d="M1288.1,4257.1c-59.3-22.5-151.3-137-151.3-186.1c0-100.2,112.5-222.9,206.5-222.9c69.5,0,157.4,63.4,194.2,141.1c30.7,63.4,30.7,75.6,0,139s-139,151.3-186.1,147.2C1341.3,4275.5,1312.7,4267.3,1288.1,4257.1z M1363.8,4046.5c-26.6-26.6-53.2-6.1-32.7,24.5c6.1,12.3,22.5,16.4,34.8,10.2C1378.1,4073.1,1378.1,4060.8,1363.8,4046.5z"/><path d="M2762.3,4248.9c-79.7-34.8-132.9-114.5-132.9-198.3c0-87.9,114.5-202.4,204.5-202.4c92,0,204.5,114.5,204.5,208.5c0,87.9-47,155.4-134.9,192.2C2823.6,4281.6,2837.9,4281.6,2762.3,4248.9z M2846.1,4038.3c-20.4-20.4-38.9,10.2-20.4,36.8c12.3,22.5,16.4,22.5,24.5,0C2854.3,4060.8,2852.2,4044.4,2846.1,4038.3z"/><path d="M1977.2,3856.3c-26.6-18.4-59.3-65.4-75.6-102.2c-24.5-59.3-24.5-79.7,0-137c32.7-81.8,112.4-137,198.3-137c87.9,0,202.4,114.5,202.4,204.5c0,92-114.5,204.5-208.5,204.5C2056.9,3889.1,2003.7,3874.7,1977.2,3856.3z M2118.2,3684.6c0-10.2-8.2-20.4-18.4-20.4c-12.3,0-26.6,10.2-32.7,20.4c-6.1,12.3,2.1,20.4,18.4,20.4C2103.9,3705,2118.2,3696.9,2118.2,3684.6z"/><path d="M3451.3,3837.9c-108.4-92-100.2-241.3,20.4-325.1c149.3-104.3,370.1,67.5,302.6,233.1C3715,3889.1,3561.7,3932,3451.3,3837.9z M3610.7,3682.6c0-10.2-14.3-18.4-30.7-18.4c-30.7,0-40.9,24.5-18.4,47C3578,3727.5,3610.7,3709.1,3610.7,3682.6z"/><path d="M1206.4,3451.5c-94.1-94.1-94.1-175.8,0-269.9c112.4-112.5,255.6-87.9,331.2,55.2c61.3,122.7-49.1,284.2-196.3,284.2C1294.3,3521,1255.4,3500.6,1206.4,3451.5z M1372,3316.6c6.1-10.2-2-20.4-18.4-20.4c-18.4,0-32.7,10.2-32.7,20.4c0,12.3,8.2,20.4,18.4,20.4C1351.5,3337,1365.8,3328.9,1372,3316.6z"/><path d="M2698.9,3451.5c-79.7-79.7-90-157.4-34.8-237.2c53.1-79.7,92-100.2,173.8-102.2c106.3,0,200.4,96.1,200.4,204.5c0,63.4-12.3,90-71.6,141.1C2866.5,3543.5,2788.8,3541.5,2698.9,3451.5z M2854.3,3316.6c0-10.2-8.2-20.4-20.4-20.4c-10.2,0-20.4,10.2-20.4,20.4c0,12.3,10.2,20.4,20.4,20.4C2846.1,3337,2854.3,3328.9,2854.3,3316.6z"/><path d="M4228.2,3494.5c-126.8-71.6-149.2-220.8-47-323c89.9-87.9,200.4-83.8,286.2,12.3c85.9,100.2,83.8,177.9-6.1,267.8C4385.6,3527.2,4312,3539.4,4228.2,3494.5z M4346.8,3316.6c0-10.2-8.2-20.4-20.4-20.4c-10.2,0-20.4,10.2-20.4,20.4c0,12.3,10.2,20.4,20.4,20.4C4338.6,3337,4346.8,3328.9,4346.8,3316.6z"/><path d="M1991.5,3116.2c-32.7-18.4-71.6-65.4-89.9-104.3c-30.7-63.4-30.7-75.6,0-139c40.9-85.9,147.2-153.3,216.7-139c28.6,6.1,81.8,42.9,118.6,81.8c90,96.1,87.9,169.7-6.1,265.8C2148.9,3161.2,2079.4,3173.5,1991.5,3116.2z M2118.2,2952.7c0-26.6-24.5-45-45-32.7c-20.4,12.3-2,49.1,26.6,49.1C2110.1,2969,2118.2,2960.8,2118.2,2952.7z"/><path d="M3484,3120.3c-61.3-32.7-118.6-124.7-118.6-192.2c0-22.5,30.7-75.6,69.5-116.5c55.2-61.3,83.8-75.6,143.1-75.6c85.9,0,188.1,83.8,206.5,173.8c16.3,73.6-34.8,171.7-112.5,212.6C3598.5,3161.2,3555.5,3159.2,3484,3120.3z M3598.5,2926.1c-6.1-10.2-20.4-14.3-30.7-6.1c-10.2,6.1-14.3,20.4-6.1,30.7c6.1,10.2,20.4,14.3,30.7,6.1C3602.6,2950.6,3606.6,2936.3,3598.5,2926.1z"/><path d="M1255.4,2752.3c-59.3-30.7-118.6-124.7-118.6-182c0-61.3,61.3-153.3,124.7-184c81.8-42.9,159.5-24.5,235.1,53.2c85.9,90,79.7,186.1-18.4,276C1396.5,2791.1,1341.3,2799.3,1255.4,2752.3z M1369.9,2558.1c-6.1-10.2-20.4-14.3-30.7-6.1c-10.2,6.1-14.3,20.4-6.1,30.7c6.1,10.2,20.4,14.3,30.7,6.1C1374,2582.6,1378.1,2568.3,1369.9,2558.1z"/><path d="M2737.7,2746.2c-34.7-22.5-75.6-59.3-85.8-81.8c-83.8-153.3,85.8-353.7,243.3-288.3c145.2,61.3,188.1,216.7,87.9,327.1C2909.5,2783,2823.6,2799.3,2737.7,2746.2z M2858.3,2570.3c0-10.2-10.2-22.5-22.5-26.6c-12.3-4.1-22.5,8.2-22.5,26.6s10.2,30.7,22.5,26.6C2848.1,2592.8,2858.3,2580.6,2858.3,2570.3z"/><path d="M2001.7,2376.1c-81.8-49.1-134.9-145.2-116.5-214.7c16.4-63.4,139-173.8,194.2-173.8c102.2,0,222.8,116.5,222.8,214.7c0,59.3-67.5,151.3-134.9,184C2085.5,2425.2,2081.4,2425.2,2001.7,2376.1z M2112.1,2179.8c-18.4-18.4-57.2,12.3-42.9,36.8c8.2,12.3,20.4,12.3,34.7-2C2116.2,2202.3,2120.3,2188,2112.1,2179.8z"/><path d="M1288.1,2018.3c-83.8-34.8-151.3-124.7-151.3-198.3c0-81.8,116.5-200.4,198.3-200.4c149.2,0,265.8,161.5,202.4,282.1C1480.3,2014.2,1382.2,2059.2,1288.1,2018.3z M1363.8,1817.9c-26.6-26.6-53.2-6.1-32.7,24.5c6.1,12.3,22.5,16.4,34.8,10.2C1378.1,1844.5,1378.1,1832.3,1363.8,1817.9z"/></g></g>
</svg>