<?xml version="1.0" encoding="utf-8"?>
<!-- Svg Vector Icons : http://www.onlinewebfonts.com/icon -->
<!DOCTYPE svg PUBLIC "-//W3C//DTD SVG 1.1//EN" "http://www.w3.org/Graphics/SVG/1.1/DTD/svg11.dtd">
<svg version="1.1" xmlns="http://www.w3.org/2000/svg" xmlns:xlink="http://www.w3.org/1999/xlink" x="0px" y="0px" viewBox="0 0 1000 1000" enable-background="new 0 0 1000 1000" xml:space="preserve">
<metadata> Svg Vector Icons : http://www.onlinewebfonts.com/icon </metadata>
<g><g transform="translate(0.000000,511.000000) scale(0.100000,-0.100000)"><path d="M9041.2,3039.3c-192.1-69.9-347.4-287.2-372.6-526c-34.9-324.1,128.1-782.1,485.2-1348.8c279.5-444.4,388.2-733.6,341.6-906.3c-23.3-87.3-116.5-180.5-178.5-180.5c-64.1,0-151.4-56.3-182.4-116.5c-38.8-73.7-36.9-135.8,3.9-194.1c60.2-87.3,85.4-99,211.5-91.2c229,15.5,452.2,194.1,522.1,413.4c71.8,231,3.9,603.6-176.6,962.6c-38.8,77.6-137.8,246.5-217.4,374.6c-427,681.2-520.1,1106.2-269.8,1238.2c102.9,54.4,143.6,157.2,102.9,256.2C9264.4,3031.5,9155.7,3080,9041.2,3039.3z"/><path d="M7872.8,1742.8c-277.5-153.3-306.6-493-77.6-949c36.9-71.8,106.7-194.1,155.3-267.8c114.5-176.6,165-287.2,165-364.9c0-54.3-9.7-66-87.3-100.9c-155.3-67.9-186.3-238.7-64-341.6c104.8-89.3,287.2-54.3,428.9,83.5c198,192.1,157.2,533.7-120.3,987.9c-137.8,227.1-207.6,374.6-225.1,471.6c-11.6,62.1-3.9,77.6,66,149.4c58.2,60.2,79.6,97,79.6,141.7c0,73.8-46.6,166.9-95.1,194.1C8047.5,1771.9,7921.3,1770,7872.8,1742.8z"/><path d="M222.3-786C100-838.4,100-836.5,100-1816.6v-885l66-66l66-66h4611.3c4149.4,0,4619.1,3.9,4671.5,31.1c112.6,56.3,114.5,77.6,114.5,1009.2c0,941.3,0,947.1-126.2,1005.3c-58.2,27.2-512.4,31.1-4642.4,31.1C1004.4-758.9,274.7-762.7,222.3-786z M2991.8-1804.9V-2426l-1236.3,3.9l-1238.2,5.8l-5.8,617.2l-3.9,615.2h1242.1h1242.1V-1804.9z M8383.3-1799.1l-5.8-617.2l-2478.4-5.8l-2480.3-3.9v621.1v621h2484.2h2484.2L8383.3-1799.1z M9202.3-1804.9V-2426h-203.8h-203.8v621.1v621h203.8h203.8V-1804.9z"/></g></g>
</svg>