<?xml version="1.0" encoding="utf-8"?>
<!-- Svg Vector Icons : http://www.onlinewebfonts.com/icon -->
<!DOCTYPE svg PUBLIC "-//W3C//DTD SVG 1.1//EN" "http://www.w3.org/Graphics/SVG/1.1/DTD/svg11.dtd">
<svg version="1.1" xmlns="http://www.w3.org/2000/svg" xmlns:xlink="http://www.w3.org/1999/xlink" x="0px" y="0px" viewBox="0 0 1000 1000" enable-background="new 0 0 1000 1000" xml:space="preserve">
<metadata> Svg Vector Icons : http://www.onlinewebfonts.com/icon </metadata>
<g><path d="M716,180.4c-29.5-0.5-59-1-88.5-1.6c-8.4-0.1-13.8,6.8-14.5,14.5c-1.4,15.3-2.7,30.6-4.1,45.9c4.8-4.8,9.7-9.7,14.5-14.5c-45.9,0-91.7,0-137.6,0c4.7,3.6,9.3,7.1,14,10.7c-18.8-45.9-37.7-91.8-56.5-137.7c-2.5-6.1-7-10.7-14-10.7c-40.7,0-81.3,0-122,0c4.8,4.8,9.7,9.7,14.5,14.5c0-25.5,0-51,0-76.5c-4.8,4.8-9.7,9.7-14.5,14.5c78.8,0,157.7,0,236.5,0c17.5,0,34.4,0.2,49.1,11.9c11.4,9.1,21.3,20.7,31.7,30.8c21.3,20.7,42.7,41.4,64.3,61.9c8.9,8.4,18,16.7,26.8,25.2c11.5,11.1,8.2,8.2,5.6,9.3C720.3,179.2,710.7,181,716,180.4c-18.4,2.2-18.6,31.3,0,29.1c15.7-1.9,33.3-9.2,35.4-26.9c3.3-27.6-32.9-50.3-50.4-67c-24.8-23.6-49.4-47.5-73.9-71.5c-16.2-15.8-31.5-27.7-54.6-32.4c-14.6-3-31.4-1.2-46.1-1.2c-29.1,0-58.1,0-87.2,0c-43.9,0-87.9,0-131.8,0c-7.9,0-14.5,6.6-14.5,14.5c0,25.5,0,51,0,76.5c0,7.9,6.6,14.5,14.5,14.5c40.6,0,81.3,0,122,0c-4.7-3.6-9.3-7.1-14-10.7c18.8,45.9,37.7,91.8,56.5,137.7c2.5,6.1,7,10.7,14,10.7c45.9,0,91.7,0,137.6,0c8.5,0,13.8-6.6,14.5-14.5c1.4-15.3,2.7-30.6,4.1-45.9c-4.8,4.8-9.7,9.7-14.5,14.5c29.5,0.5,59,1,88.5,1.6C734.7,209.8,734.7,180.7,716,180.4L716,180.4z"/><path d="M295.8,79c-15.4-4.1-30.7-8.3-46.1-12.4c3.6,4.7,7.1,9.3,10.7,14c0-9.9,0-19.8,0-29.6c-3.6,4.7-7.1,9.3-10.7,14c15.4-5.4,30.7-10.8,46.1-16.3c-6.1-4.7-12.3-9.3-18.4-14c0,19.4,0,38.9,0,58.3c0,18.8,29.1,18.8,29.1,0c0-19.4,0-38.9,0-58.3c0-8.9-9.4-17.2-18.4-14c-15.4,5.4-30.7,10.8-46.1,16.3c-6.2,2.2-10.7,7.2-10.7,14c0,9.9,0,19.8,0,29.6c0,6.4,4.4,12.3,10.7,14c15.4,4.1,30.7,8.3,46.1,12.4C306.2,111.9,313.9,83.8,295.8,79z"/><path d="M645.4,240c-61.5,0-122.9,0-184.4,0c-7.9,0-14.5,6.6-14.5,14.5c0,20.4,0,40.8,0,61.2c0,7.9,6.6,14.5,14.5,14.5c61.5,0,122.9,0,184.4,0c7.9,0,14.5-6.6,14.5-14.5c0-20.4,0-40.8,0-61.2c0-18.8-29.1-18.8-29.1,0c0,20.4,0,40.8,0,61.2c4.8-4.8,9.7-9.7,14.5-14.5c-61.5,0-122.9,0-184.4,0c4.8,4.8,9.7,9.7,14.5,14.5c0-20.4,0-40.8,0-61.2c-4.8,4.8-9.7,9.7-14.5,14.5c61.5,0,122.9,0,184.4,0C664.2,269.1,664.2,240,645.4,240z"/><path d="M398.7,703.9c0.8-57.3,13.4-116.1,58.7-154.8c8.3-7.1,17.8-12.1,25.5-19.9c23.6-23.9,10.2-50.2-5.3-72.9c-9.7-14.2,9.7-28.8,15-39.8c4.5-9.4,3.2-23.4-2-32.3c-6.9-11.7-21.9-28-4.7-39.5c5.5-3.6-8.5,0.9-3.8,0.9c3.3,0,6.6,0,9.9-0.1c48.3-0.3,96.7-1.3,145,0.1c-4.2-2.4-8.4-4.8-12.6-7.2c66.9,109.4,109.7,238.4,113.9,367.2c2.1,64,0.1,128.4,0.1,192.5c0,8.6,0,17.1,0,25.7c0,10.8-0.3,28.5-10.7,35.3c-0.7,0.5,5.4-0.2-0.4-0.2c-30.1,0-60.2,0-90.3,0c-76.9,0-153.8,0-230.7,0c-14.9,0-7.6-97.2-7.6-106.9C398.7,802.7,398.7,753.3,398.7,703.9c0-18.7-29.1-18.7-29.1,0c0,71.9,0,143.7,0,215.6c0,23.2-4.7,53.4,20,65.7c17.7,8.8,49.3,2.8,67.9,2.8c84.1,0,168.3,0,252.4,0c20.6,0,33.2,0.4,46.8-18.1c17.1-23.3,10.8-66.6,10.8-94c0-61.4,2.7-123.4-0.8-184.8c-2.9-51.5-12.3-102.7-25.2-152.5c-9.4-36.3-21.9-71.8-36.2-106.4c-7.1-17.2-15-34.1-23.3-50.8c-9.3-18.8-19.7-45.6-34.7-60.6c-9.8-9.8-38.8-4.7-51.2-4.7c-27.1-0.1-54.1,0.1-81.2,0.2c-30.2,0.2-62.3-1.2-65.3,39.3c-0.9,11.6,0.3,21,6.9,30.8c3.3,4.9,12.6,12.3,9.3,19.2c-2.1,4.3-6.5,7.6-9,11.7c-17.3,27-8.3,47.2,8.3,71.2c11.7,17-12.6,27.9-23.1,36.1c-14,10.9-25.5,23.9-35.7,38.5c-28.4,40.5-35.9,92.6-36.5,140.9C369.4,722.6,398.4,722.6,398.7,703.9z"/><path d="M263.8,295.4c44.3-47.4,74-112.9,75.2-178.5c-4.8,4.8-9.7,9.7-14.5,14.5c28,0,56,0,84.1,0c-4.7-6.1-9.3-12.3-14-18.4c-8.7,46.4-27.1,88.4-58.1,124.2c-11.4,13.2-24.7,25-38.6,35.5c-5.6,4.2-11.5,8-17.4,11.8c-4.2,2.6-8.5,5.1-12.8,7.3C244.9,304.3,264,295.2,263.8,295.4c14.1-12.4-6.6-32.9-20.6-20.6c-14.4,12.7-14.9,37.9,3.8,47c22.6,11.1,53.1-14.8,70-27.5c56.7-42.5,92.5-104.4,105.6-173.6c1.7-9.2-4-18.4-14-18.4c-28,0-56,0-84.1,0c-8,0-14.4,6.6-14.5,14.5c-1.1,57.8-27.7,116.3-66.7,158C230.4,288.5,251,309.1,263.8,295.4L263.8,295.4z"/></g>
</svg>