<?xml version="1.0" encoding="utf-8"?>
<!-- Svg Vector Icons : http://www.onlinewebfonts.com/icon -->
<!DOCTYPE svg PUBLIC "-//W3C//DTD SVG 1.1//EN" "http://www.w3.org/Graphics/SVG/1.1/DTD/svg11.dtd">
<svg version="1.1" xmlns="http://www.w3.org/2000/svg" xmlns:xlink="http://www.w3.org/1999/xlink" x="0px" y="0px" viewBox="0 0 1000 1000" enable-background="new 0 0 1000 1000" xml:space="preserve">
<metadata> Svg Vector Icons : http://www.onlinewebfonts.com/icon </metadata>
<g><path d="M132.8,650.7C52.2,650.7,10,492.9,10,337.1C10,181.2,52.2,23.4,132.8,23.4c80.5,0,122.6,157.8,122.6,313.7C255.4,492.9,213.3,650.7,132.8,650.7z M132.8,67.1c-32.2,0-79,105.2-79,269.9s46.8,269.9,79,269.9c32.2,0,78.8-105.2,78.8-269.9C211.6,172.3,164.9,67.1,132.8,67.1z"/><path d="M867.3,650.7V607c32.2,0,78.9-105.2,78.9-269.9S899.5,67.1,867.3,67.1V23.4c80.5,0,122.7,157.8,122.7,313.7C990,492.9,947.9,650.7,867.3,650.7z"/><path d="M133.4,607h742.5v43.8H133.4V607L133.4,607z"/><path d="M124.7,23.4h742.5v43.8H124.7V23.4L124.7,23.4z"/><path d="M254.2,616.8v-4V616.8z"/><path d="M132.6,448.9c-20.4,0-29.9-10.2-29.9-103.8c0-93.6,9.6-103.8,29.9-103.8c22.1,0,30,15.7,30,103.8C162.6,433.1,154.7,448.9,132.6,448.9z"/><path d="M10,369h43.8v607.5H10V369z"/><path d="M819.6,628.9h43.8v347.8h-43.8V628.9L819.6,628.9z"/><path d="M111.4,920.7h63.8v43.8h-63.8V920.7z"/><path d="M229.4,920.7h63.7v43.8h-63.7V920.7z"/><path d="M347.2,920.7H411v43.8h-63.8V920.7z"/><path d="M465.1,920.7h63.7v43.8h-63.7V920.7L465.1,920.7z"/><path d="M583,920.7h63.8v43.8H583V920.7z"/><path d="M700.8,920.7h63.8v43.8h-63.8V920.7z"/></g>
</svg>