<?xml version="1.0" encoding="utf-8"?>
<!-- Svg Vector Icons : http://www.onlinewebfonts.com/icon -->
<!DOCTYPE svg PUBLIC "-//W3C//DTD SVG 1.1//EN" "http://www.w3.org/Graphics/SVG/1.1/DTD/svg11.dtd">
<svg version="1.1" xmlns="http://www.w3.org/2000/svg" xmlns:xlink="http://www.w3.org/1999/xlink" x="0px" y="0px" viewBox="0 0 1000 1000" enable-background="new 0 0 1000 1000" xml:space="preserve">
<metadata> Svg Vector Icons : http://www.onlinewebfonts.com/icon </metadata>
<g><g transform="translate(0.000000,511.000000) scale(0.100000,-0.100000)"><path d="M7530.4,3652.7c-33-26.8-47.4-59.7-47.4-113.3c0-142.1,12.4-144.2,560.2-156.5l488.1-10.3v-103v-103l-786.7-4.1l-788.7-4.1l-123.6-55.6c-313-140-484-506.6-376.9-811.4c22.6-61.8,47.4-129.7,57.7-148.3c14.4-35-144.2-37.1-3155-37.1H186.5l-43.2-47.4c-59.7-63.8-57.7-148.3,6.2-210.1l49.4-51.5h475.7h473.7v-103v-103H691.1c-496.3,0-545.7-10.3-580.7-105c-26.8-80.3,0-158.6,70-193.6c47.4-24.7,148.3-30.9,514.8-30.9h453.1V211.5V-838.8h1215h1215.1l4.1,337.7l6.2,337.7l560.2-385.1c308.9-210,558.1-389.2,556-397.5c-2.1-8.2-722.9-510.7-1600.2-1118.3c-877.3-607.5-1616.6-1124.4-1641.4-1147.1c-63.8-59.7-61.8-148.3,4.1-212.1c72.1-74.1,133.9-63.8,292.4,45.3c76.2,51.5,829.9,572.5,1674.3,1157.4c842.3,582.8,1546.6,1060.6,1565.1,1060.6c16.5,0,772.3-512.8,1678.4-1140.9c906.1-626.1,1674.3-1149.1,1705.2-1161.5c121.5-47.4,243,94.7,177.1,210.1c-18.5,33-652.8,484-1645.5,1173.9C6024.9-1464.9,5295.9-954.1,5293.8-945.9c-2.1,8.2,710.5,508.7,1583.7,1112.1l1587.8,1095.6H9112c537.5,0,656.9,6.2,706.4,30.9c107.1,55.6,107.1,218.3,0,271.8c-41.2,20.6-702.2,26.8-3144.7,26.8H3578.4v103v103h3109.7h3111.8l49.4,51.5c65.9,63.8,67.9,152.4,4.1,212.1c-47.4,43.3-61.8,45.3-578.7,45.3c-498.4,0-531.3,2.1-516.9,37.1c88.5,201.8,90.6,222.4,92.7,844.4V3591l-51.5,49.4l-49.4,51.5h-584.9C7623,3691.9,7573.6,3689.8,7530.4,3652.7z M8533.3,2616.9c-6.2-257.4-28.8-325.4-135.9-413.9c-35-30.9-96.8-63.8-140-76.2c-100.9-26.8-1143-26.8-1243.9,0c-160.6,45.3-267.7,185.3-267.7,352.2c0,138,72.1,259.5,187.4,321.3c90.6,47.4,96.8,47.4,848.5,47.4h757.9L8533.3,2616.9z M3265.4,716c2.1-589-2.1-1110-8.2-1159.4l-10.3-86.5l-889.7,4.1l-889.7,6.2l-6.2,1132.7c-2.1,624,0,1145,6.2,1159.4c6.2,20.6,197.7,24.7,900,20.6l891.7-6.2L3265.4,716z M7841.3,1212.3c-39.1-26.8-696.1-479.8-1458.1-1007l-1386-957.6L4293-264.2l-704.3,486l-6.2,521l-4.1,519h2166.5h2168.6L7841.3,1212.3z"/></g></g>
</svg>