<?xml version="1.0" encoding="utf-8"?>
<!-- Svg Vector Icons : http://www.onlinewebfonts.com/icon -->
<!DOCTYPE svg PUBLIC "-//W3C//DTD SVG 1.1//EN" "http://www.w3.org/Graphics/SVG/1.1/DTD/svg11.dtd">
<svg version="1.1" xmlns="http://www.w3.org/2000/svg" xmlns:xlink="http://www.w3.org/1999/xlink" x="0px" y="0px" viewBox="0 0 1000 1000" enable-background="new 0 0 1000 1000" xml:space="preserve">
<metadata> Svg Vector Icons : http://www.onlinewebfonts.com/icon </metadata>
<g><g transform="translate(0.000000,512.000000) scale(0.100000,-0.100000)"><path d="M155.5,4964.5L100,4909V120v-4789l55.5-55.5L211-4780h298.6c283.3,0,298.6,1.9,348.4,44c44,38.3,53.6,65.1,61.2,162.7l7.7,118.7H5000h4073.1l7.7-118.7c7.6-97.6,17.2-124.4,61.3-162.7c49.8-42.1,65.1-44,348.3-44H9789l55.5,55.5l55.5,55.5V120v4789l-55.5,55.5L9789,5020H5000H211L155.5,4964.5z M9574.6,120v-4574.6h-88h-90l11.5,80.4c13.4,93.8-23,193.3-78.5,224c-28.7,15.3-1295.8,21-4335.3,21c-4199.5,0-4297.1,0-4341.1-36.4c-36.4-28.7-47.9-61.2-55.5-158.9l-9.6-120.6l-80.4-5.7l-82.3-5.7V118.1v4576.5H5000h4574.6V120z"/><path d="M639.8,4478.3l-42.1-45.9V282.7V-3867l42.1-45.9l40.2-44h2113.1h2113.1l45.9,47.9l47.9,45.9V282.7v4145.9l-47.9,45.9l-45.9,47.9H2793.1H680L639.8,4478.3z M4674.6,3469.6v-727.3H2798.8H923v727.3V4197h1875.8h1875.8V3469.6z M4674.6,2158.5v-239.3h-574.2h-574.2v114.8c0,97.6-7.7,124.4-47.9,162.7c-63.2,65.1-160.8,65.1-227.8-1.9c-42.1-44-49.8-67-49.8-162.7v-112.9h-76.6h-76.6v107.2c0,91.9-7.7,112.9-55.5,162.7c-70.8,68.9-151.2,72.7-223.9,11.5c-44-38.3-53.6-65.1-61.2-162.7l-7.7-118.7h-74.6H2550v114.8c0,143.6-51.7,210.5-162.7,210.5s-162.7-67-162.7-210.5v-114.8H2150h-74.6l-7.7,118.7c-7.7,97.6-17.2,124.4-61.2,162.7c-76.6,65.1-166.5,59.3-229.7-15.3c-40.2-47.9-49.8-78.5-49.8-162.7v-103.4h-402H923v239.3v239.3h1875.8h1875.8V2158.5z M1727,1400.5c0-187.6,1.9-193.3,55.5-248.8c70.8-68.9,151.2-72.7,225.9-9.6c51.7,44,53.6,53.6,59.3,248.8l7.7,202.9h74.6h74.6v-201c0-195.2,1.9-204.8,49.8-248.8c55.5-51.7,120.6-61.3,185.7-24.9c78.5,40.2,88.1,74.6,90,279.4v195.2h74.6h74.6l7.7-202.9c5.7-195.2,7.7-204.8,59.3-248.8c74.7-63.2,155-59.3,225.9,9.6c53.6,55.5,55.5,61.3,55.5,248.8v193.3h76.6h76.6v-193.3c0-187.6,1.9-193.3,55.5-248.8c67-65.1,147.4-72.7,214.4-19.1c42.1,32.5,45.9,55.5,55.5,245l9.6,206.7l570.4,5.7l568.5,3.8V-368.1V-2330H2798.8H923v1961.9v1961.9h402h402V1400.5z M4674.6-3143.5v-488.1H2798.8H923v488.1v488.1h1875.8h1875.8V-3143.5z"/><path d="M5212.5,4478.3l-42.1-45.9V282.7V-3867l42.1-45.9l42.1-44h2032.7H9320l40.2,44l42.1,45.9l1.9,4149.7v4149.7l-42.1,44l-42.1,45.9H7287.3H5254.6L5212.5,4478.3z M9077,3546.2v-650.8H7287.3H5497.7v650.8V4197h1789.6H9077V3546.2z M9077,1919.2v-650.8H7287.3H5497.7v650.8V2570h1789.6H9077V1919.2z M9077,282.7v-641.2H7287.3H5497.7v641.2v641.2h1789.6H9077V282.7z M9077-1353.8v-650.8H7287.3H5497.7v650.8V-703h1789.6H9077V-1353.8z M9077-2980.8v-650.8H7287.3H5497.7v650.8v650.8h1789.6H9077V-2980.8z"/><path d="M6885.4,3695.5c-101.4-53.6-118.7-187.6-36.4-266c47.9-45.9,51.7-45.9,442.2-45.9h392.4l45.9,53.6c76.6,90,57.4,204.8-44,258.4C7629.9,3726.1,6938.9,3726.1,6885.4,3695.5z"/><path d="M6914.1,2078.1c-65.1-24.9-114.8-90-114.8-151.2c0-164.6,42.1-179.9,495.8-179.9c361.7,0,361.7,0,421.1,49.8c78.5,65.1,82.3,170.4,9.6,239.3c-47.9,45.9-55.5,45.9-415.4,49.8C7107.4,2087.7,6929.4,2083.8,6914.1,2078.1z"/><path d="M6847.1,397.5c-32.5-30.6-47.9-67-47.9-114.8s15.3-84.2,47.9-114.8c45.9-47.9,47.9-47.9,440.2-47.9s394.3,0,440.2,47.9c32.5,30.6,47.9,67,47.9,114.8s-15.3,84.2-47.9,114.8c-45.9,47.9-47.9,47.9-440.2,47.9S6893,445.4,6847.1,397.5z"/><path d="M6885.4-1204.5c-101.4-53.6-118.7-187.6-36.4-266c47.9-45.9,51.7-45.9,442.2-45.9h392.4l45.9,53.6c76.6,90,57.4,204.8-44,258.4C7629.9-1173.9,6938.9-1173.9,6885.4-1204.5z"/><path d="M6914.1-2821.9c-65.1-24.9-114.8-90-114.8-151.2c0-164.6,42.1-179.9,495.8-179.9c361.7,0,361.7,0,421.1,49.8c74.6,63.2,80.4,153.1,13.4,231.6l-45.9,53.6l-371.3,3.8C7109.3-2812.3,6929.4-2816.2,6914.1-2821.9z"/></g></g>
</svg>