<?xml version="1.0" encoding="utf-8"?>
<!-- Svg Vector Icons : http://www.onlinewebfonts.com/icon -->
<!DOCTYPE svg PUBLIC "-//W3C//DTD SVG 1.1//EN" "http://www.w3.org/Graphics/SVG/1.1/DTD/svg11.dtd">
<svg version="1.1" xmlns="http://www.w3.org/2000/svg" xmlns:xlink="http://www.w3.org/1999/xlink" x="0px" y="0px" viewBox="0 0 1000 1000" enable-background="new 0 0 1000 1000" xml:space="preserve">
<metadata> Svg Vector Icons : http://www.onlinewebfonts.com/icon </metadata>
<g><g transform="translate(0.000000,511.000000) scale(0.100000,-0.100000)"><path d="M3140.2,4911.8c-268.2-7.5-283.2-10-333.3-72.7c-65.2-82.7-62.7-157.9,2.5-243.1c45.1-57.6,67.7-65.2,213-65.2c105.3,0,160.4-10,160.4-30.1c0-15-694.3-2042.7-1541.4-4504C794.3-2464.5,100-4497.2,100-4519.7c0-22.6,22.6-70.2,52.6-107.8c65.2-80.2,215.6-92.7,283.2-17.5c22.6,25.1,127.8,295.8,233.1,601.5l190.5,553.9h1333.4h1333.4l-162.9-468.7c-198-573.9-198-579-130.3-666.7c70.2-90.2,218.1-95.2,293.3-10c27.6,32.6,348.4,924.9,761.9,2127.9c406,1180.5,719.3,2057.7,729.4,2040.2c17.5-30.1,388.5-1105.3,1110.3-3210.7c210.5-614.1,333.3-942.4,368.5-970c117.8-102.8,320.8-22.5,320.8,127.8c0,40.1-72.7,283.2-162.9,541.4c-90.2,255.7-162.9,473.7-162.9,478.7c0,5,599,7.5,1330.9,5l1330.9-7.5l195.5-561.4c115.3-333.3,213-576.5,240.6-596.5c67.7-50.1,203-40.1,260.7,17.5c27.6,27.6,50.1,82.7,50.1,122.8c0,42.6-413.6,1273.2-917.3,2739.5C7087.8,3721.3,6817.1,4510.8,6817.1,4520.8c0,5,67.7,10,150.4,10c120.3,0,157.9,10,200.5,55.1c67.7,75.2,65.2,198-7.5,268.2l-60.2,52.7l-1839.7,7.5C4248.1,4916.8,3295.7,4916.8,3140.2,4911.8z M6265.7,4495.7c0-20-70.2-235.6-152.9-476.2l-152.9-441.1l-957.4,5l-954.9,7.5l-155.4,438.6c-85.2,240.6-155.4,453.7-155.4,471.2c-2.5,22.6,265.7,30.1,1263.2,30.1C6075.3,4530.8,6265.7,4525.8,6265.7,4495.7z M6559,3583.4c-82.7-5-152.9-2.5-160.4,2.5c-5,7.5,25.1,117.8,70.2,245.6l82.7,233.1l77.7-238.1l80.2-235.6L6559,3583.4z M3556.3,3799l75.2-220.6h-160.4c-90.2,0-162.9,10-162.9,20c0,27.6,117.8,373.5,137.9,408.5C3468.6,4042.1,3468.6,4044.6,3556.3,3799z M3922.3,2736.2c82.7-243.1,155.4-451.2,157.9-463.7c5-12.5-270.7-22.5-616.6-22.5H2837l147.9,433.6c82.7,235.6,155.4,446.1,160.4,463.7c7.5,22.6,95.2,30.1,318.3,30.1h308.3L3922.3,2736.2z M5809.6,3147.3c-7.5-17.5-77.7-228.1-157.9-466.2L5503.8,2250l-498.8,5l-498.8,7.5l-160.4,458.7l-157.9,456.2H5005C5646.6,3177.4,5817.1,3169.9,5809.6,3147.3z M7002.6,2743.8c82.7-235.6,152.9-446.2,160.4-461.2c7.5-25.1-122.8-32.6-606.5-32.6c-368.4,0-616.6,10-616.6,22.5c0,15,67.7,220.6,150.4,458.7c82.7,238.1,150.4,436.1,150.4,438.6c0,5,137.9,7.5,308.3,7.5h305.8L7002.6,2743.8z M4373.4,1417.9c80.2-238.1,150.4-448.7,157.9-463.7c7.5-25.1-218-32.6-1072.7-32.6c-1022.6,0-1082.8,2.5-1065.2,45.1c10,22.6,72.7,200.5,137.9,393.5c65.2,193,132.8,381,147.9,421.1l27.6,67.7h759.4h759.4L4373.4,1417.9z M5358.4,1828.9c-2.5-12.5-75.2-220.6-157.9-463.7c-117.8-348.4-160.4-443.6-193-443.6c-25.1,0-45.1,2.5-45.1,7.5c0,2.5-67.7,200.5-150.4,438.6c-82.7,238.1-150.4,443.6-150.4,458.7c0,12.5,147.9,22.6,353.4,22.6C5208,1849,5363.4,1839,5358.4,1828.9z M7466.3,1405.4c85.2-245.6,152.9-453.6,152.9-463.7c0-12.5-483.7-20-1077.8-20H5466.2l150.4,433.6c80.2,235.6,152.9,446.1,160.4,463.7c7.5,22.6,185.5,30.1,772,30.1h762L7466.3,1405.4z M4736.8,357.7l55.1-162.9l-105.3-313.3l-105.3-313.3H3255.5c-731.9,0-1325.9,10-1325.9,22.5c0,25.1,238.1,724.4,285.7,842.2l37.6,87.7h1215.6h1213.1L4736.8,357.7z M7935,44.4c87.7-255.7,160.4-466.2,160.4-471.2c0-2.5-599-2.5-1333.4,0l-1330.9,7.5l-107.8,305.8l-107.8,305.8l47.6,140.4c25.1,75.2,55.1,150.4,62.7,162.9c10,17.5,448.7,22.5,1233.2,20l1215.6-7.5L7935,44.4z M4431-862.9c-7.5-17.5-77.7-228.1-160.4-463.7l-147.9-433.6H2789.4H1453.5l150.4,433.6c82.7,235.6,155.4,446.1,162.9,463.7c7.5,22.6,300.8,30.1,1343.4,30.1C4165.4-832.9,4438.6-840.4,4431-862.9z M8383.6-1264c80.2-238.1,150.4-448.7,157.9-466.2c7.5-25.1-260.7-30.1-1323.4-25.1l-1333.4,7.5L5726.9-1289L5569-832.9h1333.4h1333.4L8383.6-1264z M3827-2617.4l-157.9-458.7l-1335.9-7.5c-1065.2-5-1333.4,0-1323.4,25.1c5,17.5,77.7,228.1,157.9,463.7l147.9,433.6H2649h1333.4L3827-2617.4z M8696.9-2168.7c0-2.5,67.7-200.5,150.4-438.6s150.4-443.6,150.4-458.7c0-12.5-511.3-22.5-1325.9-22.5H6348.4L6193-2642.5c-82.7,243.1-152.9,453.7-152.9,463.7c0,10,599,17.5,1328.4,17.5C8100.4-2161.2,8696.9-2163.8,8696.9-2168.7z"/></g></g>
</svg>