<?xml version="1.0" encoding="utf-8"?>
<!-- Svg Vector Icons : http://www.onlinewebfonts.com/icon -->
<!DOCTYPE svg PUBLIC "-//W3C//DTD SVG 1.1//EN" "http://www.w3.org/Graphics/SVG/1.1/DTD/svg11.dtd">
<svg version="1.1" xmlns="http://www.w3.org/2000/svg" xmlns:xlink="http://www.w3.org/1999/xlink" x="0px" y="0px" viewBox="0 0 1000 1000" enable-background="new 0 0 1000 1000" xml:space="preserve">
<metadata> Svg Vector Icons : http://www.onlinewebfonts.com/icon </metadata>
<g><path d="M400.5,128.3v25.7c-8.9,5.2-21.2,13.2-34.5,24.4c-32.9,27.8-57.9,63.2-72.1,102.4l-3.3,9v9.6v6.1h-34.6v-17.4v-8.8l-2.8-8.4c-8.5-25.6-33.8-66.3-80.5-90.7c1.8-3.1,3.9-6.3,6.2-9.7c12.8-18.6,28.3-32.8,46.2-42.4L400.5,128.3 M330.7,434.7c1.2,1,2.5,2.1,3.7,3.2c6.2,5.7,14.2,14.6,17.1,25.2c1.2,4.2,4.7,17.1-10.2,41.3l-32.8,53.4l57.5,25c1.5,0.6,150.8,65.5,237.2,103.2c45.7,19.9,74.4,44.8,85.5,74c11,28.8,6.1,66.2-14.6,110.9l-0.5,1l-0.5,1.2l0-0.1c-4.6,11.2-18.3,39.8-35.1,62.5H180.7c-1.9-1.6-4.4-4.1-6.9-7.9c-6.4-9.6-14.1-28.3-14.1-63.2V628.3c2.3-17.1,17.2-113.9,64.6-193.6H330.7 M862.2,10c-18,0-32.5,14.6-32.5,32.5c0,18,14.6,32.5,32.5,32.5s32.5-14.6,32.5-32.5C894.7,24.6,880.2,10,862.2,10L862.2,10z M780.4,54.9c-17.3,0-31.4,14.1-31.4,31.4c0,17.4,14.1,31.4,31.4,31.4c17.3,0,31.4-14.1,31.4-31.4C811.8,68.9,797.7,54.9,780.4,54.9L780.4,54.9z M522.2,73.9h-45.6v122.4h41l22.6-20.2V95.8L522.2,73.9L522.2,73.9z M455,73.9H212.9c-78.5,33.7-103.1,113.4-103.1,113.4v29.2c71.7,11.2,91.9,71.8,91.9,71.8v71.8h143.5v-60.6C372,225.4,437,196.3,437,196.3H455V73.9L455,73.9z M862.2,113.2c-18,0-32.5,14.6-32.5,32.5c0,18,14.6,32.5,32.5,32.5s32.5-14.6,32.5-32.5C894.7,127.8,880.2,113.2,862.2,113.2L862.2,113.2z M701.9,117.7c-16.1,0-29.1,13.1-29.1,29.2c0,16.1,13,29.2,29.1,29.2c16.1,0,29.1-13.1,29.1-29.2C731.1,130.8,718,117.7,701.9,117.7L701.9,117.7z M777,158.1c-16.7,0-30.3,13.6-30.3,30.3s13.5,30.3,30.3,30.3c16.7,0,30.3-13.6,30.3-30.3S793.7,158.1,777,158.1L777,158.1z M858.9,200.7c-18.6,0-33.6,15.1-33.6,33.7c0,18.6,15.1,33.7,33.6,33.7c18.6,0,33.6-15.1,33.6-33.7C892.5,215.8,877.4,200.7,858.9,200.7L858.9,200.7z M450.5,236.7h-33.6C340.7,304,381,313,381,313c44.8,4.5,91.9,101,91.9,101c15,11.4,24.9,15.6,31.3,15.6c17.5,0,9.1-31.3,9.1-31.3C457.2,362.3,450.5,236.7,450.5,236.7L450.5,236.7z M347.4,380.3H194.9c-74,103.2-89.7,244.6-89.7,244.6v239.7c0,110,62.8,125.5,62.8,125.5h495.1c35.9-35.9,60.5-96.3,60.5-96.3c67.2-145.9-11.2-219.5-98.6-257.6C537.6,598,387.7,532.9,387.7,532.9C448.3,434.1,347.4,380.3,347.4,380.3L347.4,380.3z"/></g>
</svg>