<?xml version="1.0" encoding="utf-8"?>
<!-- Svg Vector Icons : http://www.onlinewebfonts.com/icon -->
<!DOCTYPE svg PUBLIC "-//W3C//DTD SVG 1.1//EN" "http://www.w3.org/Graphics/SVG/1.1/DTD/svg11.dtd">
<svg version="1.1" xmlns="http://www.w3.org/2000/svg" xmlns:xlink="http://www.w3.org/1999/xlink" x="0px" y="0px" viewBox="0 0 1000 1000" enable-background="new 0 0 1000 1000" xml:space="preserve">
<metadata> Svg Vector Icons : http://www.onlinewebfonts.com/icon </metadata>
<g><g transform="translate(0.000000,511.000000) scale(0.100000,-0.100000)"><path d="M4907.7,4624c-57.5-30.7-88.2-70.9-138.1-178.3c-7.7-15.3-684.6-280-1584-617.5L1615,3239.4l-412.3-1.9c-226.3,0-471.8-9.6-544.6-19.2c-234-34.5-404.6-163-508.2-381.6L100,2729.3V-607.6v-3336.8l53.7-109.3c78.6-159.2,232-293.4,393.1-341.3c128.5-38.4,159.2-38.4,4491.3-34.5c4997.6,5.7,4458.7-15.3,4671.5,195.6c209,209,189.9-170.7,189.9,3645.6v3317.7l-63.3,128.5c-74.8,153.4-193.7,264.6-347.1,324.1c-97.8,40.3-147.7,44.1-596.4,49.9l-489,7.7l-1574.4,586.8L5254.8,4413l-26.8,76.7C5180,4629.7,5030.4,4691.1,4907.7,4624z M4978.7,4184.8c38.4-7.7,84.4,1.9,143.8,30.7l86.3,40.3l1357.7-508.2l1357.8-508.2H4999.8H2075.3l1371.2,513.9l1371.2,513.9l51.8-36.4C4896.2,4211.6,4946.1,4190.6,4978.7,4184.8z M9406.7,2834.7c34.5-21.1,78.6-65.2,99.7-99.7c38.4-63.3,38.4-103.5,38.4-3333c0-3229.5,0-3269.7-38.4-3333c-21.1-34.5-65.2-78.7-99.7-99.7c-63.3-38.4-107.4-38.4-4408.8-38.4H652.3L589-4025c-34.5,23-82.5,67.1-103.6,95.9l-40.3,53.7v3264c0,3258.2,0,3264,40.3,3331.1c21.1,36.4,67.1,86.3,103.6,109.3l63.3,44.1h4345.6C9299.3,2873.1,9343.4,2873.1,9406.7,2834.7z"/><path d="M863.3,2480c-23-17.3-51.8-61.4-63.3-101.6c-11.5-47.9-19.2-1041.3-19.2-2991.6c0-3131.6-3.8-3018.5,92.1-3070.3c28.8-15.3,1238.8-21.1,4136.5-21.1h4096.2l46,47.9l47.9,46V-598v3012.7l-47.9,46l-46,47.9H5005.5C1356.1,2508.7,899.7,2504.9,863.3,2480z M8854.4,719.5v-1446l-195.6-13.4c-565.7-36.4-1273.4-188-1812.2-385.5c-462.2-170.7-1045.2-502.4-1357.7-774.7c-132.3-115.1-134.2-115.1-163-74.8c-176.4,255-560,657.8-843.8,884.1C3793.5-540.5,2907.5-151.2,1921.8,32.9c-191.8,36.4-659.7,97.8-742.2,97.8c-32.6,0-34.5,59.5-34.5,1016.4v1016.4h3854.6h3854.6V719.5z M1523-70.6c1098.8-143.8,2119.1-556.1,2872.7-1166c186-149.6,525.4-490.9,671.2-675c295.3-370.1,560-845.7,724.9-1307.9l51.8-140H3494.4H1145.2v1658.8V-41.9h74.8C1262.1-41.9,1398.3-55.3,1523-70.6z M8854.4-2122.6v-1236.9l-1421,3.8l-1421,5.7l-74.8,211c-84.4,237.8-255.1,596.4-387.4,820.8c-49.9,82.5-90.1,157.2-90.1,164.9c0,24.9,243.6,222.5,421.9,345.2c686.5,471.8,1595.5,782.4,2611.9,891.7c130.4,15.3,264.6,26.8,299.2,28.8l61.4,1.9V-2122.6z"/><path d="M7032.5,1494.3c-270.4-88.2-431.5-303-431.5-577.2c0-237.8,113.2-420,326-533.1c82.5-44.1,118.9-51.8,258.9-51.8c134.2,0,180.3,7.7,258.9,47.9c444.9,218.6,446.8,857.2,1.9,1073.9C7347.1,1501.9,7122.7,1524.9,7032.5,1494.3z M7393.1,1298.6c151.5-74.8,249.3-264.6,226.3-437.2c-46-335.6-446.8-494.8-700-276.2c-111.2,94-155.3,189.9-155.3,331.8c0,141.9,44.1,237.8,155.3,331.8C7053.6,1363.8,7220.5,1381.1,7393.1,1298.6z"/></g></g>
</svg>