<?xml version="1.0" encoding="utf-8"?>
<!-- Svg Vector Icons : http://www.onlinewebfonts.com/icon -->
<!DOCTYPE svg PUBLIC "-//W3C//DTD SVG 1.1//EN" "http://www.w3.org/Graphics/SVG/1.1/DTD/svg11.dtd">
<svg version="1.1" xmlns="http://www.w3.org/2000/svg" xmlns:xlink="http://www.w3.org/1999/xlink" x="0px" y="0px" viewBox="0 0 1000 1000" enable-background="new 0 0 1000 1000" xml:space="preserve">
<metadata> Svg Vector Icons : http://www.onlinewebfonts.com/icon </metadata>
<g><g><path d="M139.4,858.3h721.1c10.2,0,18.5-8.3,18.5-18.5V359c0-10.2-8.3-18.5-18.5-18.5H139.4c-10.2,0-18.5,8.3-18.5,18.5v480.8C120.9,850,129.2,858.3,139.4,858.3z M157.9,377.5h684.2v443.8H157.9V377.5z M971.5,229.6H605.3C603,140.2,575.8,49.3,505,49.3c-70.8,0-98,90.9-100.3,180.3H28.5c-10.2,0-18.5,8.3-18.5,18.5v684.2c0,10.2,8.3,18.5,18.5,18.5h943c10.2,0,18.5-8.3,18.5-18.5V248.1C990,237.9,981.7,229.6,971.5,229.6z M505,86.3c46.6,0,61.4,87.5,63.3,143.3H441.7C443.6,173.8,458.4,86.3,505,86.3z M953,913.7H47V266.6h906V913.7z M540.1,136.3c0,19.2-15.5,34.7-34.7,34.7c-19.2,0-34.7-15.5-34.7-34.7s15.5-34.7,34.7-34.7C524.6,101.7,540.1,117.2,540.1,136.3z"/></g><g></g><g></g><g></g><g></g><g></g><g></g><g></g><g></g><g></g><g></g><g></g><g></g><g></g><g></g><g></g></g>
</svg>