<?xml version="1.0" encoding="utf-8"?>
<!-- Svg Vector Icons : http://www.onlinewebfonts.com/icon -->
<!DOCTYPE svg PUBLIC "-//W3C//DTD SVG 1.1//EN" "http://www.w3.org/Graphics/SVG/1.1/DTD/svg11.dtd">
<svg version="1.1" xmlns="http://www.w3.org/2000/svg" xmlns:xlink="http://www.w3.org/1999/xlink" x="0px" y="0px" viewBox="0 0 1000 1000" enable-background="new 0 0 1000 1000" xml:space="preserve">
<metadata> Svg Vector Icons : http://www.onlinewebfonts.com/icon </metadata>
<g><g transform="translate(0.000000,511.000000) scale(0.100000,-0.100000)"><path d="M2040.6,4975.1c-100.2-43.6-167.8-108.9-222.2-213.5c-41.4-82.8-43.6-137.3-43.6-4644.7c0-3398.5,6.5-4579.3,26.1-4636c30.5-95.8,198.3-248.3,291.9-263.6c37-6.5,1372.5-8.7,2969.4-6.5l2899.7,6.5l82.8,67.5c45.8,34.9,102.4,93.7,126.4,126.4l45.7,58.8l6.5,4607.7c4.4,4496.6,4.4,4607.7-37.1,4688.3c-52.3,102.4-122,167.8-224.4,211.3c-71.9,28.3-409.6,32.7-2962.8,32.7C2474.1,5007.8,2108.1,5003.5,2040.6,4975.1z M7861.7,4646.2c37.1-32.7,39.2-202.6,39.2-4540.1c0-4065.2-4.4-4507.4-34.8-4538c-30.5-30.5-320.3-34.9-2862.6-34.9c-2542.4,0-2832.1,4.4-2862.6,34.9c-30.5,30.5-34.9,472.8-34.9,4533.6c0,4158.9,2.2,4505.3,37,4542.3c32.7,37,150.3,39.2,2856.1,39.2C7593.7,4683.2,7824.7,4681,7861.7,4646.2z"/><path d="M3352.1,2977.4c-411.8-411.8-461.9-470.6-461.9-533.7c0-91.5,65.4-156.9,159-156.9c63.2,0,119.8,50.1,533.8,464c429.2,429.2,461.9,468.4,461.9,540.3c0,98-54.5,150.3-154.7,150.3C3822.6,3441.4,3774.7,3402.2,3352.1,2977.4z"/><path d="M3920.7,2151.7c-915-915-1030.5-1037-1030.5-1098c0-85,78.4-161.2,165.6-161.2c54.5,0,200.4,137.2,1093.6,1030.5c760.3,762.5,1028.3,1041.4,1028.3,1080.6c0,26.2-28.3,78.4-63.2,113.3c-34.9,34.9-87.1,63.2-113.3,63.2C4962,3180,4683.2,2912,3920.7,2151.7z"/><path d="M5652.6-1412.4c-446.6-444.4-540.3-549-540.3-599.1c0-85,89.3-167.8,176.5-167.8c63.2,0,128.5,56.6,601.3,529.4c494.5,492.4,529.4,533.7,529.4,605.6c0,95.9-74.1,172.1-163.4,172.1C6201.6-872.1,6110.1-952.7,5652.6-1412.4z"/><path d="M6001.2-2174.9c-954.2-952-941.1-934.6-843.1-1058.8c32.7-43.6,63.2-56.6,124.2-56.6c76.3,0,122,41.4,956.4,877.9c836.6,834.4,878,880.2,878,956.4c0,61-13.1,91.5-56.6,124.2C6935.8-1233.8,6953.2-1220.7,6001.2-2174.9z"/></g></g>
</svg>