<?xml version="1.0" encoding="utf-8"?>
<!-- Svg Vector Icons : http://www.onlinewebfonts.com/icon -->
<!DOCTYPE svg PUBLIC "-//W3C//DTD SVG 1.1//EN" "http://www.w3.org/Graphics/SVG/1.1/DTD/svg11.dtd">
<svg version="1.1" xmlns="http://www.w3.org/2000/svg" xmlns:xlink="http://www.w3.org/1999/xlink" x="0px" y="0px" viewBox="0 0 1000 1000" enable-background="new 0 0 1000 1000" xml:space="preserve">
<metadata> Svg Vector Icons : http://www.onlinewebfonts.com/icon </metadata>
<g><g transform="translate(0.000000,511.000000) scale(0.100000,-0.100000)"><path d="M1452.2,4980.2c-29.8-13.7-75.6-57.3-103.1-91.6l-45.8-64.1l201.5-2088.8c109.9-1149.8,293.2-3037,407.7-4195.9c132.8-1371.9,210.7-2267.5,219.9-2567.5c16-453.5,16-460.4,80.2-552c34.4-50.4,105.4-114.5,160.3-146.6l96.2-55l2450.7-6.9c1349-4.6,2494.2,0,2544.6,6.9c119.1,16,258.8,105.4,329.8,213c55,77.9,57.3,103,71,506.2c6.9,295.4,137.4,1724.6,421.4,4656.3l410,4232.6l-45.8,61.8c-27.5,36.6-73.3,77.9-103.1,91.6c-43.5,22.9-820,29.8-3547.8,29.8S1495.7,5003.1,1452.2,4980.2z M8190.4,4467.2c-4.6-36.6-105.4-1083.3-224.4-2331.6c-121.4-1248.2-290.9-3011.8-377.9-3918.8c-89.3-909.3-160.3-1662.8-160.3-1678.8c0-18.3-629.9-25.2-2427.8-25.2c-1461.2,0-2427.8,9.2-2427.8,20.6c0,25.2-751.2,7844.5-762.7,7933.8l-9.2,61.8H5000h3199.6L8190.4,4467.2z M7404.9-4140v-171.8H5000H2595.1v171.8v171.8H5000h2404.9V-4140z"/><path d="M7647.6,4132.8c-36.6-27.5-57.3-169.5-153.4-1140.6c-61.9-609.2-110-1149.8-112.2-1200.2c0-105.4,29.7-148.9,103.1-148.9c112.2,0,116.8,22.9,226.8,1168.1c59.5,597.8,112.2,1126.9,119.1,1172.7c9.2,66.4,2.3,93.9-34.3,130.5C7741.5,4169.4,7704.9,4174,7647.6,4132.8z"/><path d="M7349.9,1317.9c-43.5-61.8-48.1-272.5-9.2-311.5c41.2-41.2,151.2-34.4,174.1,13.7c34.3,66.4,50.4,256.5,27.5,304.6C7507.9,1386.6,7393.4,1382.1,7349.9,1317.9z"/></g></g>
</svg>