<?xml version="1.0" encoding="utf-8"?>
<!-- Svg Vector Icons : http://www.onlinewebfonts.com/icon -->
<!DOCTYPE svg PUBLIC "-//W3C//DTD SVG 1.1//EN" "http://www.w3.org/Graphics/SVG/1.1/DTD/svg11.dtd">
<svg version="1.1" xmlns="http://www.w3.org/2000/svg" xmlns:xlink="http://www.w3.org/1999/xlink" x="0px" y="0px" viewBox="0 0 1000 1000" enable-background="new 0 0 1000 1000" xml:space="preserve">
<metadata> Svg Vector Icons : http://www.onlinewebfonts.com/icon </metadata>
<g><g transform="translate(0.000000,511.000000) scale(0.100000,-0.100000)"><path d="M2534.5,4982.8c-77.7-43.8-109.6-111.6-119.5-261c-15.9-265,103.6-615.6,314.8-928.4c135.5-199.2,269-350.6,697.3-787c571.8-583.7,695.3-733.2,802.9-962.3c121.5-257,77.7-454.3-149.4-681.4c-169.4-171.3-368.6-294.9-832.8-522c-484.1-237.1-631.6-332.7-810.9-522c-227.1-239.1-324.7-474.2-324.7-785c0-470.2,251-978.2,787-1597.9c292.9-336.7,1014.1-1020.1,1540.1-1458.4c73.7-61.8,77.7-75.7,23.9-75.7c-179.3,0-284.9-255-153.4-372.6c89.7-83.7,113.6-85.7,685.4-85.7c629.6,0,663.4,6,731.2,145.4c67.7,139.5-8,276.9-171.4,310.8c-61.7,11.9-59.8,15.9,334.7,360.6c476.2,414.4,1135.6,1069.9,1354.8,1344.8c426.4,535.9,621.6,950.3,641.5,1354.8c10,245.1-15.9,382.5-109.6,571.8c-85.7,171.3-296.8,398.4-482.1,522c-71.7,47.8-308.8,173.3-526,278.9c-579.8,278.9-862.7,482.1-1002.1,719.2c-49.8,85.7-57.8,119.5-55.8,239.1c2,270.9,151.4,488.1,794.9,1145.6c643.5,655.5,775,818.8,938.4,1163.5c101.6,215.2,157.4,462.2,143.4,639.5c-11.9,135.5-49.8,211.2-127.5,245C7383.8,5020.7,2598.3,5016.7,2534.5,4982.8z M7104.9,4486.7c-17.9-95.6-115.5-292.9-211.2-434.3c-127.5-187.3-286.9-364.6-777-866.7c-597.7-613.6-775-866.7-850.7-1217.3c-115.6-530,249-1018.1,1073.9-1438.5c123.5-61.8,314.8-155.4,424.4-205.2c247.1-115.5,428.3-249,539.9-402.4c47.8-65.8,87.7-125.5,87.7-135.5s-406.4-19.9-904.5-21.9c-872.6-6-906.5-8-948.3-45.8c-117.5-103.6-115.5-259,2-358.6l61.8-49.8h904.5c498.1,0,904.5-4,904.5-6c0-31.9-89.6-257-141.4-352.6c-41.9-77.7-71.7-113.6-89.6-105.6c-51.8,19.9-296.9-35.9-416.4-93.7c-67.8-33.9-195.2-127.5-296.9-221.2c-191.3-173.3-267-217.2-384.5-217.2c-149.4,0-217.1,35.9-406.4,209.2c-211.2,195.3-366.6,280.9-563.8,310.8c-290.9,45.8-535.9-43.8-816.8-302.8c-189.3-173.3-267-217.2-384.5-217.2c-147.4,0-217.2,35.9-408.4,211.2c-219.2,199.2-362.6,276.9-577.8,310.8l-153.4,21.9l-77.7,171.3c-43.8,93.7-83.7,195.3-91.7,227.1l-12,53.8h876.6c976.2,0,962.3-2,1026,131.5c41.8,89.7,19.9,193.3-61.8,269l-51.8,47.8l-884.6,6c-486.1,2-884.6,12-884.6,21.9s39.8,69.7,87.7,135.5c107.6,147.4,286.9,282.9,508,386.5c691.3,326.7,958.3,490.1,1209.3,743.1c278.9,282.9,386.5,581.8,322.8,902.5c-69.7,350.6-251,611.6-852.7,1229.3c-492.1,506-651.5,683.4-777,868.7c-95.6,141.5-193.3,338.7-211.2,434.3l-12,63.8H5001h2117.8L7104.9,4486.7z M5092.6-1627.7c67.7-17.9,133.5-63.7,272.9-189.3c201.2-183.3,352.6-271,528-308.8c143.4-29.9,342.7-11.9,482.1,39.9c59.8,21.9,109.6,37.9,113.6,33.9c11.9-12-565.8-545.9-980.2-908.5c-219.2-189.3-422.4-366.6-452.3-394.5l-53.8-49.8l-284.9,247c-533.9,460.2-1179.4,1051.9-1165.5,1067.9c4,4,59.8-6,125.5-23.9c147.4-37.9,286.9-37.9,436.3,0c169.3,45.8,276.9,109.6,482.1,296.9C4823.7-1611.8,4905.4-1581.9,5092.6-1627.7z"/><path d="M3961,4171.9c-105.6-81.7-121.5-249-29.9-334.7c109.6-103.6,239.1-97.6,334.7,11.9c55.8,61.8,61.8,79.7,51.8,161.4c-14,123.5-97.6,201.2-221.1,201.2C4040.7,4211.8,3992.9,4197.8,3961,4171.9z"/><path d="M4821.7,4156c-145.4-147.4-51.8-390.5,151.4-390.5c135.5,0,227.1,95.6,227.1,239.1c0,55.8-15.9,87.7-67.7,139.5c-57.8,57.8-81.7,67.7-161.4,67.7C4895.4,4211.8,4867.5,4201.8,4821.7,4156z"/><path d="M5742.1,4185.9c-67.8-39.8-109.6-109.6-109.6-195.3c0-155.4,141.4-263,286.9-219.2c103.6,31.9,157.4,105.6,157.4,215.2c0,75.7-10,99.6-67.7,157.4c-53.8,53.8-83.7,67.7-143.4,67.7C5821.8,4209.8,5768,4199.8,5742.1,4185.9z"/><path d="M4867.5-268.9c-79.7-49.8-105.6-97.6-105.6-199.2c0-117.5,79.7-201.2,201.2-215.2c81.7-10,99.6-4,155.4,45.8c73.7,67.7,101.6,153.4,79.7,239.1C5160.4-259,4991-191.2,4867.5-268.9z"/><path d="M3670.1-4369.1c-133.5-65.7-161.4-255-55.8-362.6l51.8-51.8l1303-6c830.8-2,1320.9,2,1354.8,15.9c63.7,23.9,131.5,129.5,131.5,205.2c0,83.7-49.8,163.4-127.5,201.2c-59.8,27.9-203.2,31.9-1330.9,31.9C3873.3-4335.3,3727.9-4339.3,3670.1-4369.1z"/></g></g>
</svg>