<?xml version="1.0" encoding="utf-8"?>
<!-- Svg Vector Icons : http://www.onlinewebfonts.com/icon -->
<!DOCTYPE svg PUBLIC "-//W3C//DTD SVG 1.1//EN" "http://www.w3.org/Graphics/SVG/1.1/DTD/svg11.dtd">
<svg version="1.1" xmlns="http://www.w3.org/2000/svg" xmlns:xlink="http://www.w3.org/1999/xlink" x="0px" y="0px" viewBox="0 0 1000 1000" enable-background="new 0 0 1000 1000" xml:space="preserve">
<metadata> Svg Vector Icons : http://www.onlinewebfonts.com/icon </metadata>
<g><g><g><path d="M622.5,540.8H479.6c-11.3,0-20.4-9.1-20.4-20.4V295.8c0-11.3,9.1-20.4,20.4-20.4c11.3,0,20.4,9.1,20.4,20.4V500h122.5c11.3,0,20.4,9.1,20.4,20.4C642.9,531.7,633.8,540.8,622.5,540.8z"/><path d="M806.3,990H193.8C92.4,990,10,907.6,10,806.3V193.8C10,92.4,92.4,10,193.8,10h612.5C907.6,10,990,92.4,990,193.8v612.5C990,907.6,907.6,990,806.3,990z M193.8,50.8C115,50.8,50.8,115,50.8,193.8v612.5c0,78.8,64.1,142.9,142.9,142.9h612.5c78.8,0,142.9-64.1,142.9-142.9V193.8c0-78.8-64.1-142.9-142.9-142.9H193.8z"/><path d="M500,867.5c-202.6,0-367.5-164.8-367.5-367.5c0-202.6,164.9-367.5,367.5-367.5c202.7,0,367.5,164.9,367.5,367.5C867.5,702.7,702.7,867.5,500,867.5z M500,173.3c-180.1,0-326.7,146.5-326.7,326.7c0,180.1,146.5,326.7,326.7,326.7S826.7,680.1,826.7,500C826.7,319.9,680.1,173.3,500,173.3z"/></g></g><g></g><g></g><g></g><g></g><g></g><g></g><g></g><g></g><g></g><g></g><g></g><g></g><g></g><g></g><g></g></g>
</svg>