<?xml version="1.0" encoding="utf-8"?>
<!-- Svg Vector Icons : http://www.onlinewebfonts.com/icon -->
<!DOCTYPE svg PUBLIC "-//W3C//DTD SVG 1.1//EN" "http://www.w3.org/Graphics/SVG/1.1/DTD/svg11.dtd">
<svg version="1.1" xmlns="http://www.w3.org/2000/svg" xmlns:xlink="http://www.w3.org/1999/xlink" x="0px" y="0px" viewBox="0 0 1000 1000" enable-background="new 0 0 1000 1000" xml:space="preserve">
<metadata> Svg Vector Icons : http://www.onlinewebfonts.com/icon </metadata>
<g><path d="M793.2,10c-113.5,0-175.4,53.6-175.4,103.2v10.3c0,0-4.1,4.1-6.2,4.1H71.1c-14.4,0-28.9,6.2-35.1,18.6c-8.3,12.4-6.2,26.8,0,41.3l28.9,45.4c2.1,4.1,2.1,8.3,0,12.4L36,303c-6.2,10.3-6.2,22.7-2.1,35.1l35.1,82.5c2.1,4.1,2.1,8.3,0,12.4l-33,61.9c-6.2,12.4-6.2,26.8,0,39.2l33,66c2.1,4.1,2.1,8.3,0,12.4L34,682.6c-6.2,12.4-6.2,24.8,0,37.1l30.9,61.9c2.1,4.1,2.1,8.3,0,12.4L36,841.5c-8.3,12.4-8.3,24.8,0,37.1c8.3,12.4,20.6,16.5,35.1,16.5h540.5c2.1,0,4.1,4.1,6.2,4.1c6.2,20.6,22.7,47.5,70.1,68.1C719,979.7,758.2,990,791.2,990c33,0,72.2-8.3,105.2-20.6c59.8-24.8,74.3-57.8,74.3-80.5V113.2C968.6,63.6,906.7,10,793.2,10z M617.9,849.7H71.1l28.9-41.3c10.3-16.5,10.3-33,2.1-49.5L71.1,697l35.1-70.1c8.3-14.4,8.3-33,0-49.5l-33-66l33-61.9c8.3-14.4,8.3-30.9,2.1-47.5l-35.1-82.5l28.9-57.8c8.3-16.5,8.3-35.1-2.1-51.6l-28.9-41.3h546.7V849.7z M927.3,882.7c0,35.1-80.5,61.9-134.1,61.9c-53.6,0-134.1-26.8-134.1-61.9V113.2c0-35.1,66-61.9,134.1-61.9s134.1,26.8,134.1,61.9V882.7z"/><path d="M824.2,808.4c-12.4,0-20.6,8.3-20.6,20.6v41.3c0,12.4,8.3,20.6,20.6,20.6c12.4,0,20.6-8.3,20.6-20.6v-41.3C844.8,816.7,836.6,808.4,824.2,808.4z"/><path d="M824.2,499c-12.4,0-20.6,8.3-20.6,20.6v41.3c0,12.4,8.3,20.6,20.6,20.6c12.4,0,20.6-8.3,20.6-20.6v-41.3C844.8,507.2,836.6,499,824.2,499z"/><path d="M824.2,705.3c-12.4,0-20.6,8.3-20.6,20.6v41.3c0,12.4,8.3,20.6,20.6,20.6c12.4,0,20.6-8.3,20.6-20.6v-41.3C844.8,713.5,836.6,705.3,824.2,705.3z"/><path d="M824.2,602.1c-12.4,0-20.6,8.3-20.6,20.6V664c0,12.4,8.3,20.6,20.6,20.6c12.4,0,20.6-8.3,20.6-20.6v-41.3C844.8,610.4,836.6,602.1,824.2,602.1z"/><path d="M824.2,86.3c-12.4,0-20.6,8.3-20.6,20.6v41.3c0,12.4,8.3,20.6,20.6,20.6c12.4,0,20.6-8.3,20.6-20.6V107C844.8,94.6,836.6,86.3,824.2,86.3z"/><path d="M824.2,189.5c-12.4,0-20.6,8.3-20.6,20.6v41.3c0,12.4,8.3,20.6,20.6,20.6c12.4,0,20.6-8.3,20.6-20.6v-41.3C844.8,197.7,836.6,189.5,824.2,189.5z"/><path d="M824.2,395.8c-12.4,0-20.6,8.3-20.6,20.6v41.3c0,12.4,8.3,20.6,20.6,20.6c12.4,0,20.6-8.3,20.6-20.6v-41.3C844.8,404.1,836.6,395.8,824.2,395.8z"/><path d="M824.2,292.7c-12.4,0-20.6,8.3-20.6,20.6v41.3c0,12.4,8.3,20.6,20.6,20.6c12.4,0,20.6-8.3,20.6-20.6v-41.3C844.8,300.9,836.6,292.7,824.2,292.7z"/></g>
</svg>