<?xml version="1.0" encoding="utf-8"?>
<!-- Svg Vector Icons : http://www.onlinewebfonts.com/icon -->
<!DOCTYPE svg PUBLIC "-//W3C//DTD SVG 1.1//EN" "http://www.w3.org/Graphics/SVG/1.1/DTD/svg11.dtd">
<svg version="1.1" xmlns="http://www.w3.org/2000/svg" xmlns:xlink="http://www.w3.org/1999/xlink" x="0px" y="0px" viewBox="0 0 1000 1000" enable-background="new 0 0 1000 1000" xml:space="preserve">
<metadata> Svg Vector Icons : http://www.onlinewebfonts.com/icon </metadata>
<g><g transform="translate(0.000000,511.000000) scale(0.100000,-0.100000)"><path d="M3111.3,4965.7c-277.3-94.4-473.6-304.2-544.9-581.5c-63.5-240.7-38.5-387,132.9-731.6c152.1-310,221.4-537.2,234.9-779.8c15.4-273.4-23.1-356.2-523.7-1136c-627.7-976.2-903-1565.3-1039.7-2233.4c-231-1126.3,157.9-2373.9,1157.1-3715.9c200.2-269.6,375.4-440.9,527.5-516l121.3-61.6H5000h1823.3l117.4,59.7c177.1,92.4,292.7,206,531.4,525.6c471.7,627.7,789.4,1203.3,989.6,1784.8c298.4,864.5,308.1,1592.3,34.6,2416.3C8327,502.8,8086.3,964.9,7591.5,1735c-500.6,777.8-541,864.5-525.6,1137.9c13.5,244.5,82.8,471.7,234.9,779.8c67.4,138.6,132.9,288.8,142.5,336.9c98.2,431.3-173.3,879.9-604.6,993.5c-77,21.2-446.7,27-1848.3,27l-1752.1-1.9L3111.3,4965.7z M6823.3,4553.7c100.1-53.9,173.3-148.2,209.9-269.6c38.5-127.1,25-190.6-107.8-458.2c-186.8-381.2-271.5-691.2-275.3-1010.8c-5.8-313.8,77-498.7,568-1261.1C7959.3,400.7,8201.9-169.2,8273.1-920.1c59.7-629.6-138.6-1392-560.3-2164.1c-244.5-446.7-731.6-1128.2-879.9-1230.3c-159.8-111.7-90.5-107.8-1832.9-107.8c-1740.5,0-1673.1-3.8-1831,105.9c-198.3,136.7-743.2,931.9-999.3,1461.3c-583.4,1197.6-600.7,2135.2-59.7,3253.8c169.4,354.3,310,593,683.5,1174.5c479.4,747,589.2,999.3,560.3,1299.6c-32.7,344.6-115.5,618-283,953.1c-104,206-117.4,244.5-117.4,350.4c-1.9,186.8,105.9,335,286.9,400.5c63.5,23.1,352.3,27,1788.6,23.1l1713.6-3.9L6823.3,4553.7z"/><path d="M3906.4,2948c-88.6-26.9-130.9-105.9-144.4-273.4c-27-308.1-169.4-618-593-1274.6C2526,398.8,2298.8-69.1,2175.6-650.5c-53.9-254.2-48.1-791.3,9.6-1055.1c146.3-656.6,539.1-1426.7,1072.4-2102.5c140.5-179.1,181-209.9,277.2-211.8c48.1,0,80.9,17.3,129,65.5c111.7,111.7,100.1,154-142.5,477.5c-606.5,808.6-939.6,1561.4-978.1,2210.3C2506.7-665.9,2743.5-24.8,3344.2,909c658.5,1022.4,795.2,1309.2,822.1,1727c13.5,204.1-7.7,259.9-119.4,306.1c-36.6,15.4-69.3,27-71.2,25C3971.9,2967.2,3941.1,2957.6,3906.4,2948z"/></g></g>
</svg>