<?xml version="1.0" encoding="utf-8"?>
<!-- Svg Vector Icons : http://www.onlinewebfonts.com/icon -->
<!DOCTYPE svg PUBLIC "-//W3C//DTD SVG 1.1//EN" "http://www.w3.org/Graphics/SVG/1.1/DTD/svg11.dtd">
<svg version="1.1" xmlns="http://www.w3.org/2000/svg" xmlns:xlink="http://www.w3.org/1999/xlink" x="0px" y="0px" viewBox="0 0 1000 1000" enable-background="new 0 0 1000 1000" xml:space="preserve">
<metadata> Svg Vector Icons : http://www.onlinewebfonts.com/icon </metadata>
<g><g transform="translate(0.000000,511.000000) scale(0.100000,-0.100000)"><path d="M2389.9,5003.7c-69.4-27.8-83.3-115-83.3-549.2v-426.3l-63.4-11.9c-35.7-7.9-515.5-103.1-1064.6-214.1C224.9,3610,177.3,3598.1,139.7,3546.5L100,3495l281.5-1475.1c765.3-4034.6,1215.3-6405.8,1243.1-6562.4c37.7-196.3,75.3-253.8,172.5-253.8c35.7,0,1340.2,281.5,2900.6,624.5l2839.1,624.5h1130.1c1112.2,0,1130.1,0,1181.6,41.6l51.5,39.6V737.2c0,4175.4,0,4201.1-39.6,4240.8c-39.6,39.6-65.4,39.6-3741.2,37.7C4081.1,5015.6,2403.8,5009.7,2389.9,5003.7z M9598.6,2569.1l4-2141.2l-432.2,432.2c-368.8,368.8-438.2,430.2-489.7,430.2s-190.3-130.9-1094.4-1034.9L6549.4-781.5l-57.5,59.5c-29.7,33.7-374.7,418.3-763.3,856.5c-388.6,438.1-723.7,803-745.5,808.9c-21.8,7.9-59.5,5.9-83.3,0c-25.8-7.9-547.2-515.5-1159.8-1126.1L2623.8-1297v2995.7c0,1647.5,5.9,3001.7,13.9,3007.6c5.9,7.9,1574.2,11.9,3483.4,9.9l3471.5-5.9L9598.6,2569.1z M2306.6,150.3c0-2563.5,5.9-3570.7,21.8-3604.4c11.9-27.8,43.6-59.5,71.4-71.4c33.7-15.9,573-21.8,1845.8-23.8c1048.8,0,1772.5-7.9,1738.7-17.9c-160.6-47.6-4042.5-892.2-4050.4-882.3c-6,5.9-45.6,186.4-85.3,402.5C1464-2030.5,464.8,3253.1,458.8,3290.8l-5.9,49.6l902.1,182.4c495.6,101.1,914,182.4,927.9,184.4C2300.7,3709.1,2306.6,2985.4,2306.6,150.3z M9602.6-1628.1V-3230H6113.2H2623.8v747.5v749.4l1144,1144c630.5,630.5,1151.9,1146,1157.8,1146c7.9,0,352.9-382.6,769.2-850.5c485.8-545.2,773.2-854.5,803-862.4c27.7-6,69.4-4,95.2,5.9c25.8,9.9,505.6,479.8,1066.6,1042.8l1021,1025l460-473.8l462-471.9V-1628.1z"/><path d="M6380.9,3746.8c-158.6-23.8-378.7-103.1-531.3-190.3c-192.3-111-424.3-358.8-525.4-561.1c-124.9-251.8-168.5-452-158.6-721.7c17.9-390.6,142.7-674.1,422.3-953.6c271.6-271.6,606.7-412.4,991.3-412.4c243.9,2,424.3,41.6,634.4,144.7c828.7,402.5,1058.7,1479,469.9,2192.8C7378.1,3615.9,6852.7,3818.1,6380.9,3746.8z M6842.8,3421.6c356.9-85.2,662.2-358.9,797-713.7c55.5-146.7,75.4-444.1,39.7-610.6c-53.5-263.7-249.8-547.2-483.8-703.8c-436.2-287.5-1025-224-1397.7,152.7c-222.1,222.1-325.2,473.8-325.2,785.1s103.1,563.1,323.2,783.1C6075.5,3393.9,6468.1,3508.9,6842.8,3421.6z"/></g></g>
</svg>