<?xml version="1.0" encoding="utf-8"?>
<!-- Svg Vector Icons : http://www.onlinewebfonts.com/icon -->
<!DOCTYPE svg PUBLIC "-//W3C//DTD SVG 1.1//EN" "http://www.w3.org/Graphics/SVG/1.1/DTD/svg11.dtd">
<svg version="1.1" xmlns="http://www.w3.org/2000/svg" xmlns:xlink="http://www.w3.org/1999/xlink" x="0px" y="0px" viewBox="0 0 1000 1000" enable-background="new 0 0 1000 1000" xml:space="preserve">
<metadata> Svg Vector Icons : http://www.onlinewebfonts.com/icon </metadata>
<g><g transform="translate(0.000000,511.000000) scale(0.100000,-0.100000)"><path d="M1937,4881.3c-12.3-14.4-26.7-96.6-32.9-180.8c-59.6-844.4-766.4-1549.2-1623.1-1619l-168.5-14.4V108.5v-2956.6l195.2-26.7c493.1-65.8,871.2-267.1,1181.4-626.7c234.2-271.2,394.5-651.3,415-986.2c10.3-162.3,16.4-182.8,55.5-191.1c24.7-6.2,1407.4-8.2,3073.7-6.2l3030.6,6.2l14.4,164.4c41.1,437.6,238.3,852.7,552.7,1152.6c304.1,287.6,616.4,431.5,1056.1,486.9l205.5,24.7l6.1,2948.4c4.1,2342.2,0,2948.4-20.5,2962.7c-14.4,8.2-69.8,16.4-123.3,16.4c-123.3,0-341.1,47.3-511.6,108.9c-641.1,232.2-1105.4,844.4-1162.9,1534.8c-6.1,84.2-22.6,160.3-34.9,168.5c-12.3,8.2-1386.9,16.4-3055.2,16.4C2586.2,4906,1951.3,4899.8,1937,4881.3z M7716.6,4439.6c28.8-137.7,121.2-398.6,189-530.1c285.6-569.1,819.8-1000.6,1438.2-1160.9l137.7-37l6.1-2611.4l4.1-2611.4l-55.5-12.3c-439.6-98.6-846.5-328.7-1158.8-657.5c-275.3-291.8-470.5-655.4-560.9-1060.2l-12.3-57.5h-2710h-2710l-32.9,137.7c-94.5,371.9-271.2,690.3-542.4,973.9c-330.8,347.2-704.7,560.9-1160.9,663.7l-55.5,12.3l4.1,2611.4l6.2,2613.5l154.1,39c591.7,152,1142.4,599.9,1417.7,1146.5c69.9,141.8,164.4,400.6,193.1,540.4l12.3,55.5h2712.1h2712.1L7716.6,4439.6z"/><path d="M4811.4,3804.7c-127.4-63.7-232.2-180.8-312.3-347.2c-199.3-419.1-162.3-846.5,133.5-1510.1c102.7-232.2,337-657.5,361.6-657.5c20.5,0,228,369.8,330.8,591.7c275.3,591.7,347.2,1031.4,232.2,1395.1c-84.2,269.1-217.8,450-390.4,532.1C5033.3,3872.5,4942.9,3870.5,4811.4,3804.7z M5183.2,3365c104.8-115.1,59.6-312.3-84.2-382.2c-211.6-100.7-431.5,129.4-324.6,339c39,76,80.1,106.8,162.3,125.3C5029.1,3465.7,5115.5,3436.9,5183.2,3365z M5043.5,2415.8c94.5-43.1,92.5-187-4.1-224c-51.4-18.5-123.3,4.1-154.1,51.4c-30.8,45.2-14.4,113,37,154.1C4986,2448.7,4977.8,2446.6,5043.5,2415.8z"/><path d="M2573.9,2869.9c-291.7-55.5-417.1-308.2-324.6-661.6c102.7-398.6,378-686.2,883.5-928.7c289.7-139.7,978-363.7,1012.9-330.8c30.8,32.9-139.7,587.6-281.5,912.2c-195.2,454.1-421.2,733.5-710.9,881.4C2921.1,2861.6,2738.3,2902.7,2573.9,2869.9z M2970.4,2473.3c57.5-57.5,69.9-86.3,69.9-154.1c0-174.6-115.1-283.5-273.3-263c-174.6,24.7-273.3,221.9-180.8,369.8c51.4,84.2,108.9,113,226,115.1C2886.2,2543.2,2910.9,2532.9,2970.4,2473.3z M3521.1,1750.1c71.9-69.9,16.4-213.7-84.2-213.7c-55.5,0-129.4,67.8-129.4,119.2C3307.4,1762.4,3447.1,1824.1,3521.1,1750.1z"/><path d="M7032.4,2830.8c-382.1-135.6-602-349.3-832.1-811.6c-143.8-285.6-365.7-922.5-365.7-1047.9c0-47.2,63.7-34.9,439.7,86.3c865,277.4,1284.1,593.8,1448.5,1088.9c80.1,240.4,45.2,497.2-82.2,616.4C7517.3,2876,7246.1,2906.9,7032.4,2830.8z M7309.8,2514.4c164.4-90.4,166.5-334.9,4.1-431.5c-215.7-125.3-456.2,113-339,337C7032.4,2528.8,7198.8,2578.1,7309.8,2514.4z M6656.4,1717.2c26.7-51.4,26.7-63.7,0-113c-61.6-108.9-226-69.9-226,51.4C6430.4,1785,6592.7,1828.2,6656.4,1717.2z"/><path d="M2021.2,714.6c-279.4-41.1-579.4-199.3-694.5-365.7c-82.2-117.1-98.6-306.1-37-427.3c125.3-244.5,517.8-439.7,883.5-439.7c359.6,0,904,187,1428,489c108.9,63.7,197.2,125.3,193.1,137.7c-10.3,30.8-363.7,226-620.5,343.1c-297.9,135.6-552.7,217.8-791,254.8C2171.2,737.2,2175.3,737.2,2021.2,714.6z M2029.4,311.9c24.7-16.4,59.6-57.5,76-90.4c119.2-230.1-131.5-464.3-349.3-328.7c-135.6,84.2-152,289.7-30.8,396.5c49.3,43.1,82.2,55.5,160.3,55.5C1941.1,344.8,2002.7,330.4,2029.4,311.9z M2888.3,168.1c76-113-51.4-240.4-164.4-164.4c-100.7,63.7-49.3,217.8,71.9,217.8C2836.9,221.5,2865.6,205,2888.3,168.1z"/><path d="M7628.2,714.6c-160.2-22.6-378-84.2-591.7-164.4c-187-74-735.6-349.3-811.6-410.9c-61.6-49.3-78.1-34.9,224-201.3C6979-355.9,7463.8-518.2,7811.1-518.2c410.9,0,832.1,234.2,912.3,505.4c37,129.4,26.7,205.5-45.2,330.8C8522,587.2,8039.1,770.1,7628.2,714.6z M8271.3,274.9c57.5-57.5,69.9-86.3,69.9-154.1c0-166.4-100.7-269.1-258.9-269.1c-106.9,0-234.2,127.4-234.2,234.2c0,162.3,94.5,258.9,252.7,258.9C8187.1,344.8,8211.7,334.5,8271.3,274.9z M7281,188.6c18.5-16.4,32.9-59.6,32.9-90.4c0-131.5-191.1-162.3-234.2-37C7038.6,180.4,7192.7,276.9,7281,188.6z"/><path d="M4895.6,650.9c-445.8-84.2-614.3-624.6-293.8-943.1c349.3-351.3,945.1-104.8,945.1,388.3c0,98.6-14.4,164.4-49.3,238.3C5392.8,560.5,5133.9,696.1,4895.6,650.9z"/><path d="M3985.4-768.8c-673.9-172.6-1296.5-491-1510.1-770.5c-90.4-119.2-205.5-353.4-234.2-478.7c-106.8-466.4,180.8-747.9,641-626.7c474.6,123.3,803.4,495.2,1068.4,1202c100.7,267.1,203.4,626.7,195.2,673.9C4139.5-729.8,4137.5-729.8,3985.4-768.8z M3529.3-1366.7c16.4-12.3,24.7-51.4,20.5-94.5c-4.1-53.4-20.5-80.1-61.6-102.7c-51.4-28.8-59.6-28.8-113,10.3c-80.1,59.6-84.2,135.6-14.4,191.1C3416.3-1319.5,3471.8-1319.5,3529.3-1366.7z M2884.1-1861.9c143.8-59.6,201.4-228.1,121.2-363.7c-37-63.7-137.7-121.2-211.6-121.2c-117.1,0-246.6,133.6-246.6,258.9c0,88.4,80.1,199.3,164.4,228.1C2804-1829,2804-1829,2884.1-1861.9z"/><path d="M5842.8-754.5c-26.7-65.8,211.6-778.7,351.3-1060.2c98.6-197.2,273.2-441.7,392.4-550.6c127.4-117.1,386.3-250.6,560.9-289.7c353.4-82.2,618.4,108.9,618.4,441.7c0,246.6-137.7,558.9-330.8,754c-261,265-760.2,507.5-1395.1,682.1C5883.9-733.9,5851-729.8,5842.8-754.5z M6605-1344.1c53.4-24.7,84.2-96.6,65.7-147.9c-6.1-16.4-34.9-45.2-63.7-63.7c-43.1-28.8-59.6-30.8-108.9-6.2c-80.1,37-92.5,160.3-22.6,209.6C6531.1-1313.3,6537.2-1313.3,6605-1344.1z M7283.1-1861.9c82.2-34.9,154.1-139.7,154.1-228.1c0-156.1-164.4-281.5-310.2-238.3c-228.1,67.8-248.6,371.9-30.8,466.4C7178.3-1827,7196.7-1827,7283.1-1861.9z"/><path d="M4881.2-1253.7c-51.4-86.3-143.8-265-205.5-394.5c-345.2-731.4-388.3-1199.9-152-1647.8c119.2-226,281.5-345.2,470.5-345.2c197.2,0,355.4,121.2,478.7,365.7c189,376,182.8,747.9-20.5,1294.4c-115.1,306.1-415,887.6-458.2,887.6C4984-1093.5,4932.6-1165.4,4881.2-1253.7z M5078.5-2011.9c78.1-69.8,22.6-211.6-82.2-211.6c-111,0-166.4,127.4-92.5,209.6C4944.9-1968.7,5029.1-1966.7,5078.5-2011.9z M5131.9-2790.6c145.9-100.7,137.7-349.3-16.4-429.4c-168.5-86.3-367.8,26.7-369.8,211.6c0,145.9,102.7,250.7,246.6,250.7C5043.5-2757.7,5107.2-2772.1,5131.9-2790.6z"/><path d="M307.7,4846.4c-39-20.5-98.6-71.9-133.5-113c-55.5-69.9-61.6-90.4-61.6-228.1s6.2-158.2,63.7-230.1c84.2-104.8,178.7-150,312.3-150c123.3,0,195.2,30.8,273.3,117.1c82.2,88.3,102.7,141.8,102.7,263c0,226-156.2,380.1-388.3,380.1C420.7,4885.4,348.8,4869,307.7,4846.4z"/><path d="M9337.7,4856.7c-76-34.9-164.4-127.4-193.1-203.4c-28.8-76-28.8-252.7,0-308.2c34.9-65.8,123.3-158.2,187-191.1c69.9-37,244.5-37,330.8,0c137.7,57.5,219.9,191.1,219.9,351.3c0,226-156.1,382.2-384.2,380.1C9444.5,4883.4,9372.6,4871,9337.7,4856.7z"/><path d="M367.2-3926.8c-240.4-78.1-343.1-365.7-205.5-581.5c182.9-287.6,622.6-211.6,696.5,123.3c34.9,154.1-28.8,320.5-158.2,404.8C615.9-3922.7,455.6-3898,367.2-3926.8z"/><path d="M9384.9-3926.8c-302-98.6-359.6-519.8-94.5-694.5c69.9-47.3,108.9-57.5,211.6-57.5c102.7,0,141.8,10.3,211.6,57.5c221.9,145.9,226,497.2,6.2,641C9633.5-3922.7,9475.3-3898,9384.9-3926.8z"/></g></g>
</svg>