<?xml version="1.0" encoding="utf-8"?>
<!-- Svg Vector Icons : http://www.onlinewebfonts.com/icon -->
<!DOCTYPE svg PUBLIC "-//W3C//DTD SVG 1.1//EN" "http://www.w3.org/Graphics/SVG/1.1/DTD/svg11.dtd">
<svg version="1.1" xmlns="http://www.w3.org/2000/svg" xmlns:xlink="http://www.w3.org/1999/xlink" x="0px" y="0px" viewBox="0 0 1000 1000" enable-background="new 0 0 1000 1000" xml:space="preserve">
<metadata> Svg Vector Icons : http://www.onlinewebfonts.com/icon </metadata>
<g><g transform="translate(0.000000,511.000000) scale(0.100000,-0.100000)"><path d="M4527.3,4990.6c-391.8-66.3-817.8-301.4-1077-594.8c-178.8-202.9-345.6-494.3-401.9-703.3l-22.1-80.4l-144.7,24.1c-363.7,64.3-787.6-12.1-1093.1-194.9C1324.5,3162.1,1017,2609.6,1017,2057c0-229.1,50.2-387.8,194.9-626.9C1611.8,767,2827.4-390.3,3464.4-713.8l88.4-44.2l-58.3-44.2c-251.2-188.9-456.1-424-562.6-649c-36.2-78.4-82.4-213-100.5-301.4c-54.2-265.2-26.1-407.9,200.9-992.6c223-578.7,255.2-681.2,255.2-831.9c0-102.5-6-118.5-90.4-213c-70.3-78.4-90.4-116.5-90.4-170.8c0-126.6,124.6-200.9,237.1-142.6c92.4,48.2,219,204.9,257.2,317.5c74.3,223,12.1,486.3-311.4,1310.1c-98.5,251.2-128.6,349.6-136.6,464.2c-22.1,275.3,104.5,544.5,371.7,795.7c136.6,128.6,341.6,275.3,502.3,357.7c48.2,24.1,90.4,56.3,96.5,72.3c6,14.1,72.3,72.3,148.7,128.6C4430.9-539,4641.8-318,4901,1.5c158.7,196.9,186.9,223,217,200.9c18.1-12.1,86.4-68.3,150.7-120.6c180.8-146.7,377.8-273.3,480.2-307.4c70.3-24.1,102.5-50.2,140.6-114.5c78.4-136.7,209-484.3,267.2-713.3c46.2-190.9,52.3-253.2,54.3-556.6c0-407.9-34.2-558.6-192.9-843.9c-293.4-530.5-357.7-705.3-373.8-1014.7c-22.1-407.9,98.5-665.1,524.4-1131.2c168.8-182.9,233.1-217,317.5-172.8c68.3,36.2,94.4,80.4,96.4,152.7c0,54.3-30.2,98.4-174.8,259.2c-309.4,337.6-415.9,524.4-442.1,773.6c-22.1,227.1,48.2,452.1,261.2,815.8c205,351.6,279.3,564.6,319.5,926.3c44.2,393.8-44.2,906.2-235.1,1380.4c-52.2,128.6-92.4,235.1-88.4,239.1c4,2,62.3,34.2,128.6,70.3C7018.9,210.5,8347,1689.3,8775,2545.3c188.9,375.8,229.1,544.5,198.9,825.8c-80.4,703.3-580.7,1316.1-1263.9,1549.2c-516.4,174.8-1135.3,90.4-1605.4-221c-60.3-38.2-116.5-70.3-128.6-70.3c-10.1,0-48.2,22.1-82.4,48.2c-88.4,66.3-319.5,182.9-466.2,233.1C5170.3,4998.7,4784.5,5032.8,4527.3,4990.6z M5206.5,4639c174.8-44.2,422-172.8,580.7-299.4c92.4-74.3,158.7-112.5,192.9-112.5c36.2,0,102.5,38.2,192.9,110.5c166.8,134.6,409.9,257.2,600.8,303.4c192.9,46.2,558.6,46.2,743.5-2c632.9-160.7,1073-679.1,1127.2-1326.2c18.1-198.9-16.1-337.6-150.7-598.8C8122,1978.7,7069.1,771.1,6301.5,198.4c-72.3-52.2-162.8-126.6-200.9-160.7c-96.4-88.4-146.7-98.5-204.9-36.2c-26.1,28.1-46.2,56.3-44.2,62.3c0,8-56.3,52.2-128.6,98.4c-154.7,102.5-405.9,305.4-420,339.6c-4,14.1,22.1,68.3,60.3,122.6c257.2,359.7,622.9,1044.8,729.4,1362.3c102.5,317.5,84.4,610.8-60.3,924.3c-94.4,202.9-188.9,341.6-337.6,490.3c-335.6,333.5-711.3,480.2-1179.5,458.1c-128.6-6-287.3-26.1-353.6-44.2c-180.8-50.2-426-172.8-574.7-285.3c-126.6-98.5-132.6-100.5-186.9-72.3c-66.3,34.2-64.3,72.3,16.1,269.2c78.4,196.9,174.8,339.6,333.5,500.3c223,227,492.3,369.7,817.8,432C4750.3,4693.3,5027.6,4685.2,5206.5,4639z M4975.4,3471.6c202.9-68.3,424-209,552.6-355.6c184.9-209,331.5-604.8,301.4-817.8c-56.3-415.9-504.3-1207.6-1143.3-2027.4c-219-283.3-705.3-785.6-799.7-829.8c-74.3-32.1-76.4-32.1-110.5,10c-20.1,26.1-140.7,114.5-267.2,196.9c-440,291.3-918.3,693.2-1350.3,1139.3c-383.8,397.9-624.9,709.3-745.4,964.5c-58.3,124.6-64.3,150.7-62.3,335.6c2,231.1,36.2,375.7,140.6,574.7c144.7,277.3,405.9,494.3,729.4,608.8c150.7,52.3,200.9,60.3,393.8,60.3c164.8,2,249.2-8,331.5-36.2c132.6-44.2,303.4-128.6,409.9-200.9c126.6-84.4,170.8-72.3,349.6,94.4c277.3,259.2,544.5,361.7,898.2,347.6C4754.4,3529.9,4846.8,3513.8,4975.4,3471.6z"/></g></g>
</svg>