<?xml version="1.0" encoding="utf-8"?>
<!-- Svg Vector Icons : http://www.onlinewebfonts.com/icon -->
<!DOCTYPE svg PUBLIC "-//W3C//DTD SVG 1.1//EN" "http://www.w3.org/Graphics/SVG/1.1/DTD/svg11.dtd">
<svg version="1.1" xmlns="http://www.w3.org/2000/svg" xmlns:xlink="http://www.w3.org/1999/xlink" x="0px" y="0px" viewBox="0 0 1000 1000" enable-background="new 0 0 1000 1000" xml:space="preserve">
<metadata> Svg Vector Icons : http://www.onlinewebfonts.com/icon </metadata>
<g><g transform="translate(0.000000,512.000000) scale(0.100000,-0.100000)"><path d="M976.3,4997.6c-111.1-40.2-197.3-116.9-250.9-226l-49.8-99.6V122.5V-4429l46-99.6c51.7-111.1,162.8-205,279.7-235.6c47.9-13.4,1425.2-17.2,4045.7-15.3l3974.8,5.7l93.8,57.5c57.5,36.4,114.9,93.9,151.3,151.3l57.5,93.8V120.5v4591.7L9267,4806c-36.4,57.5-93.9,114.9-151.3,151.3l-93.8,57.5l-3986.3,3.8C1738.7,5022.5,1037.6,5018.7,976.3,4997.6z M8989.2,1509.3V-1661H5004.8H1020.4v3170.3v3170.3h3984.4h3984.4V1509.3z M8989.2-3222.2v-1216.4H5004.8H1020.4v1216.4v1216.4h3984.4h3984.4V-3222.2z"/><path d="M2428.3,3580.1c-388.9-95.8-649.4-459.7-616.8-854.4c21.1-247.1,149.4-471.2,346.7-601.5c164.7-109.2,245.2-132.2,461.7-134.1c178.1-1.9,201.1,1.9,321.8,59.4c517.2,245.2,649.4,888.8,264.4,1294.9C3001.1,3560.9,2708,3649,2428.3,3580.1z M2849.8,3187.4c164.7-92,264.3-308.4,222.2-484.6c-99.6-421.4-639.8-507.6-858.2-136c-44.1,74.7-53.6,114.9-53.6,216.5C2160.1,3152.9,2524.1,3367.4,2849.8,3187.4z"/><path d="M5730.8,2384.8c-36.4-40.2-296.9-367.8-582.3-726c-283.5-360.1-523-655.1-530.6-655.1c-5.7-1.9-124.5,139.8-262.4,312.2c-137.9,172.4-264.4,319.9-281.6,325.7c-63.2,24.9-116.9,9.6-174.3-49.8c-32.6-34.5-400.4-492.3-818-1017.2C2422.6-254.9,2323-389,2323-444.6c0-46,13.4-74.7,49.8-103.5l51.7-40.2h2842.7h2842.7l46,47.9c67,65.1,59.4,124.5-34.5,250.9c-147.5,199.2-2141.6,2699.1-2174.2,2724C5886,2482.4,5799.8,2463.3,5730.8,2384.8z M6765.2,861.9C7240.3,262.3,7629.1-230,7629.1-235.8c0-3.8-1065.1-7.7-2367.7-7.7c-1597.6,0-2365.8,5.7-2360,19.2C2913-186,3999.1,1172.2,4014.4,1168.4c7.7-1.9,145.6-168.6,308.4-371.6l293.1-367.8l620.6,783.5c465.5,586.2,626.4,775.8,641.7,760.5C5891.7,1959.5,6290.1,1459.5,6765.2,861.9z"/><path d="M3018.3-3126.4c-65.1-46-90-147.5-53.6-218.4c15.3-32.5,46-67.1,65.1-78.5c24.9-13.4,683.9-19.2,1975-19.2c1291.1,0,1950.1,5.7,1975,19.2c19.2,11.5,49.8,46,65.1,78.5c42.1,78.6,9.6,178.2-67,218.4C6893.5-3082.3,3079.6-3082.3,3018.3-3126.4z"/></g></g>
</svg>