<?xml version="1.0" encoding="utf-8"?>
<!-- Svg Vector Icons : http://www.onlinewebfonts.com/icon -->
<!DOCTYPE svg PUBLIC "-//W3C//DTD SVG 1.1//EN" "http://www.w3.org/Graphics/SVG/1.1/DTD/svg11.dtd">
<svg version="1.1" xmlns="http://www.w3.org/2000/svg" xmlns:xlink="http://www.w3.org/1999/xlink" x="0px" y="0px" viewBox="0 0 1000 1000" enable-background="new 0 0 1000 1000" xml:space="preserve">
<metadata> Svg Vector Icons : http://www.onlinewebfonts.com/icon </metadata>
<g><path d="M759.3,36.7l-4.5-2.3l-19.6-9.8l-19.6,9.8v0L500,142.2L290.7,37.6l-6.3-3.1l-19.6-9.8l-19.6,9.8l0,0L10,152v823.4L264.8,848l211.3,105.7l4.3,2.1l19.6,9.8l19.6-9.8l9.3-4.6L735.2,848L990,975.4V152L759.3,36.7z M245.2,813.9l-196,98V176.2l196-98V813.9z M480.4,911.9l-196-98V78.2l196,98V911.9z M715.6,813.9l-196,98V176.2l196-98V813.9z M950.8,911.9l-196-98V78.2l196,98V911.9z"/></g>
</svg>