<?xml version="1.0" encoding="utf-8"?>
<!-- Svg Vector Icons : http://www.onlinewebfonts.com/icon -->
<!DOCTYPE svg PUBLIC "-//W3C//DTD SVG 1.1//EN" "http://www.w3.org/Graphics/SVG/1.1/DTD/svg11.dtd">
<svg version="1.1" xmlns="http://www.w3.org/2000/svg" xmlns:xlink="http://www.w3.org/1999/xlink" x="0px" y="0px" viewBox="0 0 1000 1000" enable-background="new 0 0 1000 1000" xml:space="preserve">
<metadata> Svg Vector Icons : http://www.onlinewebfonts.com/icon </metadata>
<g><g transform="translate(0.000000,512.000000) scale(0.100000,-0.100000)"><path d="M4651.6,5000.6c-227.8-68.9-468.9-384.7-601-784.7c-45.9-139.7-53.6-195.2-53.6-392.4c-1.9-220.1,0-235.4,59.3-357.9c95.7-204.8,281.4-375.1,470.8-436.4l70.8-23V2788v-218.2h-727.3c-819.2,0-840.3-3.8-890-122.5c-24.9-59.3-28.7-447.9-28.7-2834.7v-2765.8h-939.8c-652.7,0-951.3-5.7-980-21c-67-34.5-109.1-97.6-109.1-170.4c0-36.4,95.7-354.1,212.5-702.4c183.7-553.1,218.2-643.1,269.9-685.2l57.4-47.9H5000h3537.1l57.4,47.9c51.7,42.1,86.1,132.1,269.9,685.2c116.7,348.3,212.5,666.1,212.5,702.4c0,72.7-42.1,135.9-109.1,170.4c-28.7,15.3-382.8,21-1190.5,21H6626.9v2794.5v2794.5l-55.5,61.3l-55.5,63.2l-758,5.7l-757.9,5.8v214.4v216.3l120.6,51.7c306.2,134,514.9,467,486.2,780.9c-13.4,156.9-72.7,250.7-310.1,497.6C5178,4455.1,5067,4581.5,5049.8,4614c-17.2,32.5-38.3,112.9-47.8,178c-13.4,99.5-26.8,128.2-76.6,174.2C4862.2,5023.6,4764.6,5035.1,4651.6,5000.6z M4705.2,4403.5c30.6-59.3,134-185.7,256.5-310.1c112.9-116.8,214.4-231.6,227.8-254.6c28.7-55.5,1.9-176.1-61.3-271.8c-63.2-95.7-218.2-174.2-338.8-174.2c-183.7,0-367.5,158.9-394.3,338.8c-17.2,114.8,19.1,304.3,88,468.9c53.6,130.1,147.4,302.4,162.7,302.4C4651.6,4503,4678.4,4459,4705.2,4403.5z M6225,521.8v-1626.9h-141.7c-124.4,0-151.2,5.7-197.1,45.9l-53.6,45.9l-11.5,323.5c-15.3,396.2-36.4,468.9-187.6,620.1c-132.1,130.1-254.6,179.9-451.7,178c-227.8-1.9-417.3-122.5-530.2-336.9c-38.3-72.7-44-118.7-53.6-423l-9.6-342.6l-63.2-55.5c-86.1-76.6-189.5-76.6-275.6,0l-63.2,55.5l-9.6,457.5c-11.5,493.8-19.1,534-135.9,706.3c-122.5,179.9-350.3,321.6-557,344.5l-111,13.4v809.6v811.5H4799H6225V521.8z M3487.9,100.7c36.4-9.6,99.5-45.9,139.7-78.5C3759.7-86.8,3763.5-104.1,3775-617c9.6-449.8,11.5-461.3,61.3-555.1c201-384.7,696.7-459.4,995.3-149.3c130.1,134,156.9,225.8,164.6,551.2c1.9,158.9,9.6,308.2,15.3,331.1c28.7,132.1,220.1,183.8,327.3,91.9l53.6-45.9l11.5-323.5c15.3-396.2,36.4-468.9,187.6-620.1c128.2-128.2,229.7-168.4,467-183.8l166.5-11.5v-809.6v-811.6H4799H3373.1v1636.5c0,1295.8,5.7,1636.5,24.9,1636.5C3409.4,119.9,3451.6,112.2,3487.9,100.7z M8458.6-3966.5l-137.8-411.5H5000H1679.2l-137.8,411.5L1405.5-3555H5000h3594.5L8458.6-3966.5z"/></g></g>
</svg>