<?xml version="1.0" encoding="utf-8"?>
<!-- Svg Vector Icons : http://www.onlinewebfonts.com/icon -->
<!DOCTYPE svg PUBLIC "-//W3C//DTD SVG 1.1//EN" "http://www.w3.org/Graphics/SVG/1.1/DTD/svg11.dtd">
<svg version="1.1" xmlns="http://www.w3.org/2000/svg" xmlns:xlink="http://www.w3.org/1999/xlink" x="0px" y="0px" viewBox="0 0 1000 1000" enable-background="new 0 0 1000 1000" xml:space="preserve">
<metadata> Svg Vector Icons : http://www.onlinewebfonts.com/icon </metadata>
<g><g transform="translate(0.000000,511.000000) scale(0.100000,-0.100000)"><path d="M4531.3,4976.9c-330.1-116-554.2-390.1-586.2-716.2l-14-132l-160-46c-444.1-130-844.3-408.1-1132.3-788.2c-206.1-274.1-356.1-662.2-396.1-1028.3c-34-306.1-28-4521.3,6-4715.4c74-408.1,322.1-746.2,676.2-916.3l154-74v-594.2c2-416.1,10-610.2,26-646.2c52-114-18-110,1894.6-110c1208.4,0,1774.5,6,1808.5,22c100,46,104,68,114,694.2l10,588.2l108,36c328.1,116,580.2,414.1,694.2,820.2c34,122.1,36,278.1,44,2390.7c6,2360.7,2,2554.8-78,2870.8c-194.1,770.2-766.2,1340.4-1490.4,1486.4l-138,28l-14,124c-30,278.1-212.1,528.2-474.2,658.2l-150,74l-400.1,6C4691.3,5012.9,4617.3,5006.9,4531.3,4976.9z M5349.5,4568.8c106.1-32,236.1-162,268.1-268.1c14-50,24-204.1,24-382.1v-298.1l-144,38c-280.1,74-790.2,66-1090.3-18l-46-12v296.1c0,164,10,332.1,22,376.1c26,94,170,242.1,262.1,270.1C4743.3,4598.8,5251.5,4596.8,5349.5,4568.8z M6233.8,3670.5c558.2-172.1,960.3-640.2,1076.3-1256.4c28-146.1,32-454.1,32-2500.7c0-2508.7,2-2442.7-100-2644.8c-68-132.1-240.1-298.1-310.1-298.1c-6,0-10,46-10,100c0,118-36,202.1-104,236.1c-30,16-170,26-396.1,30l-350.1,4l-6,294.1l-6,294.1l126,66c186,98,408.1,328.1,512.1,528.1c98,190.1,174.1,462.1,204.1,718.2c28,246.1,26,2292.7-2,2554.7c-68,624.2-296.1,1128.3-668.2,1470.4l-170,156v146c0,78,8,144.1,18,144.1C6089.7,3712.5,6159.8,3692.5,6233.8,3670.5z M3941.1,3554.5v-118l-134-106c-328.1-262.1-554.2-668.2-670.2-1210.4c-40-188.1-42-266.1-50-1428.4c-6-816.2-2-1294.4,12-1420.4c74-634.2,298.1-1032.3,714.2-1266.4l118-66v-298.1v-300.1l-350.1-4c-440.1-8-474.1-22-500.1-222.1l-10-88l-98,74c-114,88-242.1,278.1-284.1,420.1c-24,90-28,420.1-24,2472.7l6,2368.7l64,190.1c174.1,508.1,556.2,908.3,1036.3,1082.3C3935.1,3694.5,3941.1,3690.5,3941.1,3554.5z M5411.5,3242.4c494.2-134,836.2-506.2,988.3-1074.3c86-316.1,92-432.1,92-1686.5c0-1156.3-2-1208.3-44-1396.4c-124-562.2-410.1-804.2-1034.3-874.3c-98-12-180-18-182-16c-4,4-10,120-12,262.1l-6,254.1l124,60c164.1,76,310.1,226.1,390.1,396.1c54,112.1,64,162.1,70,308.1c14,338.1-124,626.2-522.1,1078.3c-256.1,292.1-334.1,290.1-598.2-18c-286.1-330.1-402.1-516.1-474.1-752.2c-50-162.1-54-362.1-12-506.2c70-234,288.1-462.1,514.2-538.1c86-28,98-38,88-76c-6-22-12-138-12-256.1v-214l-104,10c-634.2,62-960.3,298.1-1096.3,790.2c-22,82-48,240.1-60,350.1c-26,266.1-24,2116.6,2,2414.7c90,1024.3,628.2,1560.5,1538.5,1524.5C5187.5,3278.4,5345.5,3260.4,5411.5,3242.4z M5115.4,79.4c320.1-418.1,348.1-730.2,84-894.2c-168-102-336.1-90-478.1,38c-158,142-176,324.1-58,564.2c76,154,294.1,448.1,324.1,438.1C5001.4,221.5,5057.4,155.5,5115.4,79.4z M5641.6-2441.3v-208.1h-640.2h-640.2v208.1v208h640.2h640.2V-2441.3z M6499.9-3729.7l4-640.2H5001.4H3499l4,640.2l2,640.2h1496.4h1496.4L6499.9-3729.7z"/></g></g>
</svg>