<?xml version="1.0" encoding="utf-8"?>
<!-- Svg Vector Icons : http://www.onlinewebfonts.com/icon -->
<!DOCTYPE svg PUBLIC "-//W3C//DTD SVG 1.1//EN" "http://www.w3.org/Graphics/SVG/1.1/DTD/svg11.dtd">
<svg version="1.1" xmlns="http://www.w3.org/2000/svg" xmlns:xlink="http://www.w3.org/1999/xlink" x="0px" y="0px" viewBox="0 0 1000 1000" enable-background="new 0 0 1000 1000" xml:space="preserve">
<metadata> Svg Vector Icons : http://www.onlinewebfonts.com/icon </metadata>
<g><g transform="translate(0.000000,511.000000) scale(0.100000,-0.100000)"><path d="M4764.8,4999.4c-284.7-68.1-565.3-297.1-701.5-567.4c-41.3-82.5-80.5-185.7-86.7-229l-14.4-78.4h-156.8c-542.6,0-998.6-375.5-1077-887.2c-55.7-361.1,130-796.4,431.2-1010.9c59.8-43.3,117.6-82.5,127.9-86.7c10.3-4.1-6.2-76.3-35.1-160.9c-45.4-136.2-51.6-179.5-43.3-381.7c8.2-169.2,20.6-255.8,55.7-344.6c253.8-649.9,1006.8-866.5,1603.1-458l132,90.8l132.1-90.8c396.1-270.3,887.2-276.5,1256.4-12.4c363.1,262,524.1,845.9,344.6,1252.3l-39.2,88.7l113.5,74.3c150.6,101.1,262,233.1,359,431.2c198.1,398.2,142.4,829.4-148.5,1138.9c-214.6,229-445.6,334.2-767.5,354.9l-206.3,12.4l-22.7,94.9c-66,253.8-299.2,546.7-538.5,672.6C5245.5,5028.3,5014.5,5059.2,4764.8,4999.4z M5313.6,4613.6c241.4-111.4,365.2-313.6,385.8-625.1c18.6-276.5,74.3-323.9,290.9-247.6c72.2,24.8,169.2,41.3,268.2,41.3c274.4,2.1,480.7-134.1,604.5-396.1c198.1-422.9,2.1-856.2-443.6-984.1c-204.2-57.8-237.3-173.3-99-350.7c109.3-140.3,150.6-257.9,152.7-435.3c0-123.8-8.3-165.1-66-282.6c-80.5-160.9-187.8-262-375.5-350.7c-111.4-53.6-158.9-64-278.5-64c-235.2,0-458,125.8-575.6,326c-97,165.1-255.8,167.1-350.7,4.1c-175.4-299.2-548.8-412.6-864.5-264.1c-451.8,210.4-573.6,715.9-262,1093.5c72.2,86.7,80.5,183.6,24.8,247.6c-18.6,24.8-94.9,64-167.1,86.7c-338.4,111.4-515.8,365.2-493.1,701.5c20.6,266.1,189.8,519.9,418.8,623.1c132,57.8,363.1,61.9,515.8,6.2c127.9-45.4,189.8-43.3,249.6,12.4c37.1,35.1,45.4,70.1,53.6,231.1c12.4,247.6,64,371.4,216.6,509.6c148.5,136.2,305.3,189.8,526.1,177.4C5156.8,4667.2,5237.3,4650.7,5313.6,4613.6z"/><path d="M4731.8,3540.8c-317.7-107.3-559.1-387.9-621-720.1c-66-363.1,150.6-759.2,513.7-938.7c150.6-76.3,165.1-78.4,375.5-78.4c210.4,0,224.9,2.1,375.5,78.4c363.1,177.4,583.9,579.8,517.8,938.7C5792.3,3365.4,5233.1,3712,4731.8,3540.8z M5204.3,3206.5c268.2-94.9,410.6-398.2,326-693.2c-70.2-237.3-257.9-369.3-526.1-369.3c-235.2,0-398.2,88.7-486.9,264.1c-163,319.8-16.5,715.9,299.2,804.6C4921.6,3243.7,5107.3,3241.6,5204.3,3206.5z"/><path d="M1894.9,1766.5c-123.8-41.3-239.3-105.2-328-183.6l-80.5-70.1l-125.9,51.6c-103.2,41.3-160.9,51.6-321.9,51.6c-171.2,0-212.5-6.2-319.8-55.7c-167.1-78.4-247.6-144.4-330.1-268.2c-148.5-226.9-175.4-546.7-66-786.1l51.6-111.4l-61.9-59.8c-33-30.9-94.9-127.9-136.2-212.5C102.1-26.4,100-36.8,100-259.6c0-206.3,6.2-237.3,55.7-330.1c146.5-280.6,505.5-468.3,823.2-433.3c115.5,14.4,115.5,14.4,142.4-53.6c39.2-90.8,237.3-290.9,346.6-346.6c140.3-72.2,328-111.4,458-97c321.9,37.1,654,356.9,695.3,672.6c12.4,84.6,16.5,88.7,150.6,113.5c189.8,39.2,441.5,233.1,540.6,416.8c117.6,216.6,115.5,480.7-8.3,711.8c-72.2,138.2-218.7,290.9-326,346.6l-78.4,39.2l-8.3,214.6c-6.2,198.1-12.4,226.9-84.6,371.4c-84.6,173.3-200.1,288.8-361,367.3C2326.1,1791.2,2024.9,1807.7,1894.9,1766.5z M2315.8,1399.2c169.2-84.6,235.2-181.6,245.5-356.9c6.2-105.2-2.1-142.4-45.4-224.9c-99-185.7-49.5-305.4,138.2-330.1c206.3-28.9,342.5-142.4,385.8-326c47.5-196-28.9-402.3-187.7-507.5c-80.5-53.6-105.2-57.8-284.7-59.8c-253.8,0-243.5,2.1-280.6-72.2c-26.8-51.6-28.9-80.5-12.4-165c59.8-276.5-111.4-499.3-402.3-528.2c-260-26.8-482.8,173.3-482.8,433.3c0,74.3-84.6,158.9-156.8,158.9c-30.9,0-105.2-24.8-165.1-53.6c-94.9-45.4-132-53.7-245.5-45.4c-109.3,6.2-146.5,18.6-210.4,72.2c-109.3,86.7-191.9,251.7-191.9,379.6c0,183.6,84.6,307.4,274.4,402.3c160.9,82.5,177.4,210.4,43.3,336.3c-231.1,218.7-196,540.6,78.4,709.7c111.4,70.2,247.6,90.8,352.8,57.8c39.2-14.4,123.8-70.1,189.8-125.9c165.1-146.5,264.1-138.2,342.5,28.9C1824.8,1448.7,2053.8,1529.2,2315.8,1399.2z"/><path d="M1521.5,708c-288.8-103.2-451.8-441.5-338.4-705.6c51.6-119.7,204.2-274.4,319.8-321.8c247.6-105.2,557.1,35,682.9,305.3c97,210.4,41.3,441.5-148.5,608.6C1882.6,730.7,1698.9,769.9,1521.5,708z M1800,359.4c70.1-35.1,84.6-68.1,84.6-177.4c0-117.6-70.1-183.6-196-183.6c-130,0-196,64-196,191.9c0,49.5,12.4,103.2,26.8,121.7C1583.4,392.4,1701,413,1800,359.4z"/><path d="M7616.1,1758.2c-323.9-121.7-511.7-412.6-511.7-794.3V782.3l-80.5-39.2c-115.5-59.8-264.1-216.6-332.2-350.7c-167.1-332.2-111.4-656.1,154.7-907.8c113.5-109.4,266.2-193.9,381.7-218.7c134.1-26.8,138.2-28.9,150.6-115.5c18.6-138.2,125.9-332.2,251.7-449.8c260-245.5,577.7-288.8,901.6-123.8c109.3,55.7,307.4,255.8,346.6,346.6c26.8,68.1,26.8,68.1,142.4,53.6c317.7-35.1,662.3,144.4,819.1,427.1c55.7,103.2,59.8,123.8,59.8,336.3c0,222.8-2.1,233.1-76.3,381.7c-41.3,84.6-103.2,181.6-136.2,212.5l-61.9,59.8l51.6,111.4c107.3,235.2,78.4,565.3-66,786.1c-82.5,125.8-163,189.8-330.1,268.2c-107.3,49.5-150.6,55.7-319.8,55.7c-163,0-216.6-8.3-321.8-51.6l-125.9-51.6l-80.4,70.1c-43.3,39.2-140.3,99-214.6,134.1c-113.5,53.6-163,66-319.8,70.2C7760.5,1793.3,7688.3,1785,7616.1,1758.2z M8059.7,1434.3c88.7-37.1,173.3-125.9,233.1-243.5c88.7-175.4,181.6-185.7,348.7-37.1c66,55.7,150.6,111.4,189.8,125.9c167.1,53.6,392-35.1,509.6-204.3c45.4-66,64-115.5,70.1-206.3c10.3-144.4-28.9-235.2-158.9-369.3c-127.9-130-109.3-241.4,53.7-323.9c189.8-94.9,274.4-218.7,274.4-402.3c0-127.9-82.5-293-191.9-381.7c-66-53.7-99-64-216.6-70.2c-117.6-6.2-152.7,0-237.3,45.4c-53.7,28.9-127.9,53.6-160.9,53.6c-78.4,0-163-80.4-163-158.9c0-260-222.8-460.1-482.8-433.3c-290.9,28.9-468.3,260-404.4,528.2c20.6,84.6,18.6,111.4-8.3,165c-39.2,74.3-26.8,72.2-284.7,72.2c-185.7,2.1-204.2,6.2-288.8,63.9c-150.6,105.2-233.1,336.3-183.6,519.9c45.4,165.1,191.9,282.6,387.9,309.5c115.5,16.5,191.9,80.5,191.9,165.1c0,30.9-22.7,103.2-51.6,158.9c-127.9,253.8-10.3,528.2,268.2,627.2C7843,1469.3,7981.3,1467.3,8059.7,1434.3z"/><path d="M8123.6,681.2C7857.5,561.6,7715.1,248,7814.2,8.6c43.3-103.2,196-257.9,301.2-305.3c109.3-49.5,270.3-53.6,375.5-8.3c107.3,45.4,253.8,185.7,303.3,293C8981.9,388.3,8523.9,862.8,8123.6,681.2z M8441.3,328.4c57.8-53.6,61.9-202.2,8.3-268.2c-47.5-59.8-210.4-66-272.3-10.3c-57.8,51.6-57.8,220.8,0,278.5S8379.5,384.1,8441.3,328.4z"/><path d="M4828.8,377.9c-8.3-8.2-14.4-307.4-14.4-662.3v-647.8l-119.7,150.6c-154.7,193.9-323.9,346.6-530.2,482.8c-187.7,121.7-402.3,222.8-422.9,200.1c-16.5-18.6-125.9-301.2-117.6-305.3c2.1-2.1,82.5-41.3,179.5-88.7c449.8-220.8,798.4-627.2,947-1105.8c76.3-245.5,206.3-218.7-1072.8-218.7H2561.3l-61.9-61.9c-51.6-53.6-59.8-74.3-49.5-130c6.2-37.1,35.1-86.7,66-111.4c47.4-43.3,72.2-47.5,268.2-47.5c189.8,0,214.6-4.1,214.6-35.1c0-92.8,247.6-2475.8,260-2508.8c37.1-97,24.8-97,1741.3-97s1704.2,0,1741.3,97c12.4,33,260,2415.9,260,2508.8c0,30.9,24.8,35.1,214.6,35.1c198.1,0,220.7,4.1,272.3,49.5c43.3,37.1,57.8,66,57.8,125.8c0,59.8-14.4,88.7-57.8,125.9l-55.7,49.5H6318.4H5204.3l12.4,47.4c179.5,629.3,486.9,1021.3,1008.9,1283.3l171.2,86.7l-59.8,152.7c-33,84.6-64,156.8-68.1,160.9c-16.5,14.4-247.6-105.2-416.8-214.6c-191.9-125.8-470.4-389.9-583.9-557.1L5196-961l-10.3,670.5L5175.4,380l-165.1,6.2C4917.5,388.3,4837,386.2,4828.8,377.9z M6650.5-2190.7c0-37.1-204.3-2081.7-216.6-2178.7l-12.4-88.7H5000H3578.5l-12.4,88.7c-12.4,97-216.6,2141.6-216.6,2178.7c0,16.5,456,22.7,1650.5,22.7C6194.6-2168,6650.5-2174.2,6650.5-2190.7z"/></g></g>
</svg>