<?xml version="1.0" encoding="utf-8"?>
<!-- Svg Vector Icons : http://www.onlinewebfonts.com/icon -->
<!DOCTYPE svg PUBLIC "-//W3C//DTD SVG 1.1//EN" "http://www.w3.org/Graphics/SVG/1.1/DTD/svg11.dtd">
<svg version="1.1" xmlns="http://www.w3.org/2000/svg" xmlns:xlink="http://www.w3.org/1999/xlink" x="0px" y="0px" viewBox="0 0 1000 1000" enable-background="new 0 0 1000 1000" xml:space="preserve">
<metadata> Svg Vector Icons : http://www.onlinewebfonts.com/icon </metadata>
<g><g transform="translate(0.000000,381.000000) scale(0.100000,-0.100000)"><path d="M1949,2431.2C974.7,2289.6,188,1453.1,107.7,475c-15.3-187.6-3.8-245,53.6-300.5c42.1-38.3,59.3-38.3,2094-38.3H4309l49.8,44c30.6,26.8,53.6,72.7,65.1,134c26.8,149.3,11.5,145.5,658.4,147.4h570.4l45.9-47.9c26.8-24.9,47.9-68.9,47.9-95.7c0-57.4,30.6-124.4,74.7-157c44-34.4,3462.5-34.4,3506.5,0c88.1,67,95.7,168.4,19.1,245l-55.5,55.5H7675.9l-1613.6,1.9l-57.4,99.5c-38.3,67-88,116.8-151.2,157l-93.8,57.4l-646.9,5.7c-629.7,5.8-650.8,3.8-744.6-36.4c-101.4-44-222-164.6-241.2-241.2l-11.5-44H2280.1H444.5l1.9,53.6c0,28.7,11.5,99.5,23,157l23,105.3l574.2,9.6c315.8,5.7,589.5,17.2,608.7,26.8c91.9,44,109.1,201,28.7,271.8c-34.4,32.5-86.1,36.4-555.1,45.9l-516.8,9.6l101.5,153.1c312,467,792.4,758,1347.5,813.5c147.4,15.3,1085.3,19.1,3148.6,15.3l2938.1-5.7l181.8-49.8c336.9-93.8,608.7-248.8,840.3-478.5l122.5-122.5l-899.6-5.7l-899.6-3.8l-51.7-47.9c-67-61.3-68.9-164.6-1.9-229.7l45.9-47.9H8518h1012.5l49.8-109.1c26.8-61.2,68.9-176.1,93.8-254.6l44-143.6l5.7-2369.6l3.8-2367.7l-40.2-95.7c-45.9-105.3-155-216.3-264.2-264.1c-63.2-30.6-407.7-32.5-4337.3-32.5H817.8l-86.1,40.2c-111,49.8-206.7,145.5-256.5,256.5c-40.2,86.1-40.2,105.3-45.9,2000.2l-3.8,1912.1l-42.1,44c-57.4,61.2-172.3,61.2-237.3-3.8L100-304l3.8-1946.6l5.7-1948.5l42.1-105.3c88-212.5,271.8-396.2,484.3-484.2l105.3-42.1h4344.9h4344.9l147.4,70.8c86.1,40.2,183.8,105.3,235.4,156.9l86.1,86.1v2827.1v2825.2l-80.4,155c-313.9,602.9-913,1031.7-1584.8,1133.1c-153.1,24.9-656.5,28.7-3177.3,26.8C3409.4,2448.4,2010.2,2440.8,1949,2431.2z"/><path d="M2808.4,1734.5c-70.8-68.9-65.1-164.6,11.5-227.8l59.3-49.8H3262h382.8l55.5,55.5c30.6,30.6,55.5,74.6,55.5,97.6c0,55.5-49.8,145.5-86.1,160.8c-17.2,5.8-208.6,11.5-423,11.5C2856.2,1782.3,2854.3,1782.3,2808.4,1734.5z"/><path d="M810.1-258.1c-40.2-51.7-40.2-57.4-40.2-1935.1v-1883.4l47.9-45.9l45.9-47.9h4210.9c2316,0,4224.3,5.7,4241.6,11.5c88,34.5,86.1,3.8,86.1,1988.7v1868.1l-47.9,45.9l-45.9,47.9H7076.8H4845l-45.9-47.9c-67-65.1-63.2-149.3,7.7-222l55.5-55.5h444.1h442.1l-5.7-415.4c-5.7-411.5-5.7-419.2-59.3-524.5c-61.3-128.2-208.6-271.8-335-329.2c-137.8-65.1-396.2-59.3-541.7,7.6c-132.1,63.2-246.9,174.2-317.7,308.2l-53.6,101.4l-9.6,539.8c-9.6,537.8-9.6,537.8-55.5,587.6l-45.9,49.8h-1738h-1738L810.1-258.1z M4081.2-882c0-193.3,9.6-405.8,21.1-474.7c61.2-380.9,388.6-727.3,758-803.9c151.2-32.5,430.7-15.3,562.7,32.5c227.8,82.3,434.5,264.1,541.7,476.6c93.8,185.7,107.2,269.9,107.2,712v405.8h1502.5H9077V-1194v-660.4h-614.4h-614.4l-55.5-55.5c-30.6-30.6-55.5-74.6-55.5-97.6c0-32.5,42.1-137.8,63.2-157c1.9-1.9,289-9.6,635.5-15.3l631.6-9.6l5.7-826.9l3.8-828.8H5086.1H1095.3v832.6v832.6h275.6c151.2,0,290.9,5.7,308.2,11.5c47.9,19.1,90,118.7,76.6,181.8c-7.7,30.6-34.4,72.7-61.3,93.8c-44,34.4-78.5,38.3-323.5,38.3h-275.6v660.4v660.4h1493h1493V-882z"/><path d="M5826.9-2537.7c-32.5-11.5-80.4-109.1-80.4-158.9c0-23,24.9-67,55.5-97.6l55.5-55.5h392.4h390.5l51.7,49.8c67,67,67,164.6,1.9,227.8c-45.9,47.9-45.9,47.9-444.1,45.9C6031.7-2526.2,5840.3-2532,5826.9-2537.7z"/><path d="M1851.4-2872.7c-97.6-55.5-116.8-178-38.3-254.6l45.9-47.9h1064.2h1064.2l45.9,47.9c80.4,78.5,59.3,201-42.1,254.6C3932-2840.1,1906.9-2842.1,1851.4-2872.7z"/><path d="M5009.6-882c-70.8-40.2-84.2-78.5-86.1-231.6c0-134,5.7-155.1,47.9-195.2c30.6-32.5,67-47.9,109.1-47.9c120.6,1.9,168.4,74.6,168.4,258.4c0,114.8-5.7,132.1-55.5,183.8C5134-857.2,5072.7-845.7,5009.6-882z"/></g></g>
</svg>