<?xml version="1.0" encoding="utf-8"?>
<!-- Svg Vector Icons : http://www.onlinewebfonts.com/icon -->
<!DOCTYPE svg PUBLIC "-//W3C//DTD SVG 1.1//EN" "http://www.w3.org/Graphics/SVG/1.1/DTD/svg11.dtd">
<svg version="1.1" xmlns="http://www.w3.org/2000/svg" xmlns:xlink="http://www.w3.org/1999/xlink" x="0px" y="0px" viewBox="0 0 1000 1000" enable-background="new 0 0 1000 1000" xml:space="preserve">
<metadata> Svg Vector Icons : http://www.onlinewebfonts.com/icon </metadata>
<g><g transform="translate(0.000000,511.000000) scale(0.100000,-0.100000)"><path d="M1415,3344.9c-68.9-40.2-90-120.6-90-342.6v-210.5H808.3c-403.8,0-532.1-5.7-583.7-26.8c-134-55.5-124.4,128.2-124.4-2647c0-2735-3.8-2624,109.1-2817.3c109.1-187.6,300.5-346.4,490-411.5c84.2-28.7,455.5-30.6,4262.3-30.6c4032.7,0,4174.3,1.9,4285.3,36.4c313.9,97.6,572.3,390.4,631.6,717.7c28.7,155,28.7,4773.4,0,4949.5c-45.9,294.7-273.7,597.2-545.5,729.2l-132.1,65.1l-3875.7,3.8C2706.9,3364.1,1438,3358.3,1415,3344.9z M9191.4,2923.9c105.3-47.9,181.8-118.7,235.4-218.2l42.1-76.6l5.7-2495.8c5.7-2817.3,15.3-2618.3-141.6-2756.1c-49.8-42.1-120.6-82.3-170.4-95.7c-59.3-15.3-1131.1-21-3816.4-21c-2053.7,0-3734.1,3.8-3734.1,9.6c0,5.7,15.3,42.1,36.4,82.3c19.1,38.3,45.9,105.3,57.4,147.4c15.3,53.6,21.1,865.1,21.1,2771.4v2692.9h3690.1C9086.1,2964.1,9105.2,2962.1,9191.4,2923.9z M1315.5-40.8V-2462l-51.7-90c-68.9-114.8-158.9-170.3-302.4-181.8c-218.2-21-396.2,101.4-438.3,298.6c-23,111-30.6,4788.7-7.7,4813.6c7.7,5.7,189.5,9.6,405.7,7.7l394.3-5.7V-40.8z"/><path d="M2670.6,2152.5c-65.1-28.7-120.6-114.8-120.6-187.6c0-76.6,68.9-164.6,147.4-187.6c49.8-15.3,392.4-19.1,1121.6-15.3l1050.8,5.7l55.5,63.2c76.6,86.1,76.6,189.5,0,275.6l-55.5,63.2l-1069.9,3.8C2917.5,2177.4,2720.3,2173.6,2670.6,2152.5z"/><path d="M5945.3,2152.5c-130.2-57.4-122.5,21.1-122.5-1410.6c0-1276.6,0-1295.7,40.2-1343.6c21.1-28.7,70.8-59.3,109.1-70.8c47.8-15.3,467-19.1,1318.7-15.3l1249.8,5.7l59.3,59.3l59.3,59.3l1.9,1305.3l1.9,1305.3l-61.3,61.2l-61.3,61.3l-1268.9,3.8C6232.4,2177.4,5993.2,2173.6,5945.3,2152.5z M8253.5,743.9V-270.5H7239.1H6224.7V743.9v1014.4h1014.4h1014.4V743.9z"/><path d="M2670.6,927.6c-65.1-28.7-120.6-114.8-120.6-187.6c0-76.6,68.9-164.6,147.4-187.6c49.8-15.3,392.4-19.1,1121.6-15.3l1050.8,5.7l55.5,63.2c76.6,86.1,76.6,189.5,0,275.6l-55.5,63.2l-1069.9,3.8C2917.5,952.5,2720.3,948.7,2670.6,927.6z"/><path d="M2670.6-297.3C2605.5-326,2550-412.1,2550-484.9c0-76.6,68.9-164.6,147.4-187.6c49.8-15.3,392.4-19.1,1121.6-15.3l1050.8,5.7l55.5,63.2c76.6,86.1,76.6,189.5,0,275.6l-55.5,63.2l-1069.9,3.8C2917.5-272.4,2720.3-276.2,2670.6-297.3z"/><path d="M2672.5-1514.6c-107.2-42.1-158.9-208.6-91.9-302.4c68.9-99.5,59.3-99.5,1184.7-99.5c1167.5,0,1144.5-1.9,1205.8,128.2c45.9,93.8,13.4,202.9-72.7,254.5c-59.3,36.4-103.4,38.3-1123.5,36.4C3191.2-1497.3,2693.5-1505,2672.5-1514.6z"/><path d="M5945.3-1514.6c-126.3-51.7-160.8-223.9-67-329.2l55.5-63.2l1274.7-5.7c1420.1-5.8,1374.2-9.6,1435.4,120.6c47.9,97.6,17.2,204.8-70.8,258.4c-59.3,36.4-105.3,38.3-1324.4,36.4C6554-1497.3,5966.4-1505,5945.3-1514.6z"/></g></g>
</svg>