<?xml version="1.0" encoding="utf-8"?>
<!-- Svg Vector Icons : http://www.onlinewebfonts.com/icon -->
<!DOCTYPE svg PUBLIC "-//W3C//DTD SVG 1.1//EN" "http://www.w3.org/Graphics/SVG/1.1/DTD/svg11.dtd">
<svg version="1.1" xmlns="http://www.w3.org/2000/svg" xmlns:xlink="http://www.w3.org/1999/xlink" x="0px" y="0px" viewBox="0 0 1000 1000" enable-background="new 0 0 1000 1000" xml:space="preserve">
<metadata> Svg Vector Icons : http://www.onlinewebfonts.com/icon </metadata>
<g><g transform="translate(0.000000,511.000000) scale(0.100000,-0.100000)"><path d="M5349.7,4989.7c-193.7-55.4-387.4-223.5-474.7-415.1c-44.7-93.7-46.8-136.3-53.2-730.2l-6.4-630.1l-259.7-10.6c-225.7-8.5-276.7-17-391.7-70.2c-155.4-68.1-304.4-217.1-374.7-368.3c-42.6-89.4-46.8-142.6-53.2-496l-8.5-396l-208.6-97.9c-700.4-330-1313.5-945.2-1641.3-1643.4c-653.5-1396.5-302.3-3074,855.8-4072.4C4049-5075.3,5969.2-5073.1,7272-3934.2c813.2,708.9,1256,1798.8,1164.5,2861.1c-66,781.3-359.8,1464.6-879.2,2045.8c-270.4,302.3-706.8,625.9-1083.6,804.7l-208.6,100.1v366.2c0,438.5-25.5,534.3-191.6,715.3c-161.8,176.7-304.4,232.1-632.3,244.8l-261.8,10.6v570.5c0,349.1,8.5,593.9,23.4,630.1c51.1,136.2,206.5,240.6,357.6,240.6c97.9,0,234.2-85.2,289.5-178.8c44.7-74.5,53.2-119.2,53.2-253.3c0-142.6,6.4-168.2,55.3-225.7c72.4-87.3,176.7-91.5,257.6-10.6c51.1,53.2,53.2,59.6,44.7,281c-6.4,210.8-12.8,238.4-80.9,361.9c-121.3,227.8-338.5,366.2-596.1,378.9C5507.2,5013.2,5402.9,5004.6,5349.7,4989.7z M5613.7,2824.7c95.8-21.3,172.5-72.4,234.2-157.5c40.4-51.1,44.7-95.8,51.1-366.2c4.3-168.2,4.3-306.5,0-306.5c-4.3,0-93.7,19.2-200.1,44.7c-140.5,31.9-293.8,46.8-593.9,55.4c-349.1,10.6-438.5,4.2-659.9-34.1c-140.5-23.4-276.7-51.1-304.4-57.5l-51.1-14.9l8.5,310.8c6.4,272.5,10.6,317.2,51.1,368.3c59.6,83,140.5,138.4,223.5,157.5C4472.6,2848.2,5511.5,2850.3,5613.7,2824.7z M5649.9,1679.5C6507.8,1479.3,7238,947.1,7672.2,204.2c427.9-734.4,528-1696.7,261.9-2505.6c-357.7-1081.4-1262.4-1864.9-2403.4-2082c-261.8-51.1-802.6-51.1-1064.4,0c-1143.2,217.1-2035.1,989.9-2392.8,2071.3c-110.7,334.2-155.4,606.7-153.3,964.3c0,330,23.4,523.7,97.9,804.7C2165,8.3,2443.9,476.7,2873.9,889.7c479,457.7,1049.5,732.3,1741.4,836.6c36.2,4.3,240.6,6.4,457.7,2.1C5371,1722,5511.5,1711.4,5649.9,1679.5z"/></g></g>
</svg>