<?xml version="1.0" encoding="utf-8"?>
<!-- Svg Vector Icons : http://www.onlinewebfonts.com/icon -->
<!DOCTYPE svg PUBLIC "-//W3C//DTD SVG 1.1//EN" "http://www.w3.org/Graphics/SVG/1.1/DTD/svg11.dtd">
<svg version="1.1" xmlns="http://www.w3.org/2000/svg" xmlns:xlink="http://www.w3.org/1999/xlink" x="0px" y="0px" viewBox="0 0 1000 1000" enable-background="new 0 0 1000 1000" xml:space="preserve">
<metadata> Svg Vector Icons : http://www.onlinewebfonts.com/icon </metadata>
<g><g transform="translate(0.000000,511.000000) scale(0.100000,-0.100000)"><path d="M4876.9,4981.1c-51.3-16.4-133.4-63.6-180.6-104.7c-98.5-82.1-209.3-260.6-209.3-332.4c0-24.6-12.3-49.3-24.6-53.3c-285.2-82.1-469.9-262.7-500.7-488.4c-30.8-219.6,203.2-504.8,459.7-560.2l65.7-14.4l-4.1-433l-6.2-435l-697.7-6.2l-699.8-4.1l-22.6,86.2c-73.9,275-379.6,496.6-595.1,430.9c-192.9-57.5-371.4-238-422.7-428.9c-16.4-67.7-32.8-88.2-65.7-88.2c-73.9-2.1-209.3-75.9-297.6-164.2c-207.3-207.3-217.5-451.5-28.7-675.1c63.6-75.9,211.4-166.2,301.7-184.7c51.3-10.3,67.7-28.7,94.4-106.7c65.7-188.8,192.9-328.3,359.1-398.1c233.9-98.5,545.9,84.1,644.4,375.5l39,117h695.7h695.7l6.2-2273.7c4.1-1807.9,0-2273.7-20.5-2279.9c-223.7-63.6-371.4-176.5-455.6-344.7c-65.7-131.3-67.7-221.6-4.1-355c78-168.3,250.4-309.9,428.9-346.8c53.4-12.3,55.4-16.4,55.4-151.8c0-114.9,10.3-156,61.6-242.1c80-139.6,209.3-248.3,342.7-287.3c98.5-28.7,119-28.7,217.5,0c133.4,39,262.7,147.7,342.7,287.3c51.3,86.2,61.6,127.2,61.6,242.1v137.5l110.8,30.8c209.3,61.6,422.7,316,422.7,506.9c0,39-24.6,119-53.3,178.5c-84.1,168.3-231.9,281.1-455.6,344.7c-20.5,6.2-24.6,472-20.5,2279.9l6.1,2273.7H6219h695.7l34.9-106.7c57.5-174.4,184.7-314,355-385.8c246.3-102.6,539.7,78,652.6,398.1c26.7,78,43.1,96.5,94.4,106.7c90.3,18.5,238,108.8,301.7,184.7c186.7,221.6,178.5,467.9-22.6,669c-86.2,86.2-238,170.3-305.8,170.3c-30.8,0-47.2,22.6-63.6,88.2c-51.3,190.9-229.8,371.4-422.7,428.9c-217.5,65.7-519.2-151.9-593.1-422.7l-24.6-94.4l-699.8,4.1l-697.7,6.2l-6.1,435l-4.1,437.1l55.4,10.3c184.7,41,348.9,174.4,433,357.1c39,86.2,47.2,127.2,37,203.2c-30.8,225.7-215.5,406.3-498.7,488.4c-14.3,4.1-26.7,28.7-26.7,53.3c0,71.8-110.8,250.4-209.3,332.4c-75.9,65.7-246.3,137.5-311.9,133.4C4979.5,5009.8,4928.2,4995.5,4876.9,4981.1z M5117,4613.8c55.4-47.2,57.5-59.5,63.6-254.5l8.2-203.2l207.3-14.4c190.9-10.3,213.4-16.4,256.5-65.7c43.1-49.2,57.5-135.4,32.9-203.2c-24.6-63.6-121.1-92.3-316-92.3h-184.7v-779.8V2221h1046.6h1046.6v205.2c0,192.9,4.1,211.4,51.3,256.5c32.8,34.9,71.8,51.3,123.1,51.3c51.3,0,90.3-16.4,123.1-51.3c47.2-45.2,51.3-63.6,51.3-256.5V2221h184.7c213.4,0,289.3-28.7,326.3-119c32.8-75.9,10.3-158-53.4-209.3c-45.1-34.9-84.1-41-254.4-41h-203.2v-205.2c0-192.9-4.1-211.4-51.3-256.5c-75.9-78-180.6-75.9-250.4,2.1c-43.1,47.2-47.2,73.9-47.2,256.5v203.2H6231.3H5184.8V-762.7v-2614.4l207.3-8.2c197-6.2,209.3-8.2,256.5-63.6c47.2-55.4,63.6-139.5,36.9-209.3c-24.6-63.6-121.1-92.3-314-92.3h-184.7l-6.2-299.6c-6.1-299.6-6.1-299.6-63.6-348.9c-73.9-63.6-160.1-63.6-234,0c-57.5,49.2-57.5,49.2-63.6,348.9l-6.2,299.6h-184.7c-192.9,0-289.4,28.7-314,92.3c-28.7,78-12.3,168.3,41,217.5c47.2,43.1,73.9,49.2,256.5,55.4l203.2,8.2v2614.4v2614.4H3768.8H2722.2v-205.2c0-192.9-4.1-211.4-51.3-256.5c-67.7-69.8-178.5-69.8-246.3,0c-47.2,45.1-51.3,63.6-51.3,256.5v205.2h-203.2c-170.3,0-209.3,6.2-254.5,41c-63.6,51.3-86.2,133.4-53.4,209.3c36.9,90.3,112.9,119,326.3,119h184.7v205.2c0,192.9,4.1,211.4,51.3,256.5c32.8,34.9,71.8,51.3,123.1,51.3c51.3,0,90.3-16.4,123.1-51.3c47.2-45.2,51.3-63.6,51.3-256.5V2221h1046.6h1046.6v779.8v779.8h-203.2c-184.7,0-205.2,4.1-256.5,51.3c-69.8,65.7-71.8,170.3-4.1,250.4c47.2,53.3,61.6,57.5,211.4,59.5c277,4.1,248.3-20.5,256.5,215.5c6.2,197,8.2,209.3,63.6,256.5c32.8,26.7,84.1,49.2,117,49.2C5032.9,4663,5084.2,4640.4,5117,4613.8z"/></g></g>
</svg>