<?xml version="1.0" encoding="utf-8"?>
<!-- Svg Vector Icons : http://www.onlinewebfonts.com/icon -->
<!DOCTYPE svg PUBLIC "-//W3C//DTD SVG 1.1//EN" "http://www.w3.org/Graphics/SVG/1.1/DTD/svg11.dtd">
<svg version="1.1" xmlns="http://www.w3.org/2000/svg" xmlns:xlink="http://www.w3.org/1999/xlink" x="0px" y="0px" viewBox="0 0 1000 1000" enable-background="new 0 0 1000 1000" xml:space="preserve">
<metadata> Svg Vector Icons : http://www.onlinewebfonts.com/icon </metadata>
<g><g transform="translate(0.000000,511.000000) scale(0.100000,-0.100000)"><path d="M4106.9,3924.3c-1954-221.7-3498.8-1145.8-3928.5-2349.6c-75-214.8-78.4-252.3-78.4-1432.3c0-1156,3.4-1220.8,75-1449.3c112.5-354.6,300.1-647.9,624.1-975.3c1561.8-1568.7,4999.3-1933.6,7314.8-774.1c446.7,225.1,733.2,433.1,1074.2,774.1c337.6,341,494.5,569.5,624,910.5c71.6,190.9,75,255.8,85.3,1418.6c6.8,1033.3,3.4,1248.1-44.3,1428.9C9535.9,2696.6,7994.5,3658.3,5948.4,3914C5528.9,3965.2,4529.8,3972,4106.9,3924.3z M5931.3,3549.1c1507.3-184.2,2728.1-770.7,3294.2-1575.5c262.6-375.1,371.7-804.8,303.5-1190.2c-139.8-787.7-941.2-1527.7-2097.2-1937C5208.4-1937.8,2350.7-1532,1061.7-246.3c-784.3,780.9-798,1698.2-44.3,2496.2c723,760.5,1967.7,1231.1,3584.1,1350.4C4846.9,3617.4,5614.2,3590.1,5931.3,3549.1z M829.8-543c525.2-518.3,1387.9-961.7,2332.5-1190.1c617.2-153.5,1145.8-214.8,1848.3-214.8c1156.1,0,2134.7,208,3035,641.1c538.8,262.6,774.1,426.3,1169.7,821.9l347.9,347.8v-344.4c-3.4-671.8-146.6-1046.9-572.9-1497.1c-695.7-729.8-1865.4-1217.4-3263.5-1360.6c-497.9-47.8-1435.7-23.9-1892.6,54.5c-1752.8,293.3-3058.9,1135.6-3328.3,2145c-27.3,102.3-47.7,347.8-47.7,600.2v426.3l92.1-119.4C597.9-297.5,727.5-437.3,829.8-543z"/><path d="M3499.9,2734.1c-641.1-115.9-1231.1-491-1599.4-1016.2c-88.6-126.2-160.3-231.9-163.7-235.3c0-3.4-146.6,23.9-324,58c-508.1,105.7-682,85.3-682-75c0-95.5,160.3-177.3,409.2-201.2c126.2-13.7,364.9-68.2,528.6-119.4c634.3-197.8,1128.8-753.7,1330-1493.6c44.3-163.7,88.7-245.5,143.2-283.1c78.4-51.2,88.7-47.7,225.1,54.6C4052.3-65.6,4945.8,149.2,5737-14.4c344.5-71.6,763.9-269.4,982.1-467.2c180.8-163.7,313.8-204.6,378.6-116c17.1,20.5,51.2,139.8,71.6,259.2c146.6,832.1,992.4,1490.2,1804,1411.8c201.2-20.4,283,20.5,283,146.7c0,153.5-75,184.1-487.7,184.1l-381.9,3.4L8267.3,1619c-156.9,276.2-542.2,661.6-801.4,798c-412.6,214.8-651.3,266-1278.8,266c-416,0-637.7-17.1-842.3-61.4l-283-61.4l-347.8,88.6C4321.7,2747.8,3789.8,2785.3,3499.9,2734.1z M4785.5,2311.3l286.4-95.5l361.5,78.5c474,105.7,1176.5,112.5,1486.8,17.1c463.8-139.8,855.9-436.5,1067.4-804.8l105.7-184.1l-177.3-98.9c-453.6-255.8-791.2-624-975.3-1064l-92-211.4l-208,126.2C6170,357.2,5471,493.6,4860.6,422.1c-419.5-47.8-886.6-197.8-1244.7-392.2L3343-120.2l-177.3,361.5c-208,419.4-450.1,709.3-804.8,958.2L2129,1363.2l146.6,201.2c194.4,262.6,463.8,491.1,743.4,641.1c358.1,187.6,532,221.7,1036.7,208C4427.5,2406.8,4546.8,2386.3,4785.5,2311.3z"/></g></g>
</svg>