<?xml version="1.0" encoding="utf-8"?>
<!-- Svg Vector Icons : http://www.onlinewebfonts.com/icon -->
<!DOCTYPE svg PUBLIC "-//W3C//DTD SVG 1.1//EN" "http://www.w3.org/Graphics/SVG/1.1/DTD/svg11.dtd">
<svg version="1.1" xmlns="http://www.w3.org/2000/svg" xmlns:xlink="http://www.w3.org/1999/xlink" x="0px" y="0px" viewBox="0 0 1000 1000" enable-background="new 0 0 1000 1000" xml:space="preserve">
<metadata> Svg Vector Icons : http://www.onlinewebfonts.com/icon </metadata>
<g><path d="M937.7,964.5H30.5c-11.3,0-20.5-9.2-20.5-20.5V785.6c0-11.3,9.2-20.5,20.5-20.5h907.2c11.3,0,20.5,9.2,20.5,20.5V944C958.2,955.3,949,964.5,937.7,964.5z M48.4,926.1h871.4V803.5H48.4V926.1z"/><path d="M75.8,811.3h15.4V847H75.8V811.3z"/><path d="M272,810.6h15.4V879H272V810.6z"/><path d="M155,809.3h15.4v69H155V809.3z"/><path d="M114.8,811.3h15.4V847h-15.4V811.3z"/><path d="M194,812.5h15.4v35.8H194V812.5z"/><path d="M233.6,812.5H249v35.8h-15.4V812.5z"/><path d="M310.3,812.5h15.4v35.8h-15.4V812.5z"/><path d="M347.3,812.5h15.4v35.8h-15.4V812.5z"/><path d="M384.4,809.3h15.4v68.4h-15.4V809.3z"/><path d="M425.3,811.7h15.4v35.8h-15.4V811.7z"/><path d="M464.9,811.3h15.4V847h-15.4V811.3z"/><path d="M505.3,810h15.4v67.3h-15.4V810z"/><path d="M544.1,811.1h15.4v35.8h-15.4V811.1z"/><path d="M583.7,811.1h15.4v35.8h-15.4V811.1z"/><path d="M623.3,811.4h15.4V878h-15.4V811.4z"/><path d="M662.5,812.3h15.4v35.8h-15.4V812.3z"/><path d="M701.3,811.9h15.4v35.8h-15.4V811.9z"/><path d="M786.5,813.6h15.4v35.8h-15.4V813.6z"/><path d="M825.2,813.2h15.4V849h-15.4V813.2z"/><path d="M743.4,811.4h15.4V878h-15.4V811.4z"/><path d="M875.1,811.4V878V811.4z"/><path d="M458.6,527.8c-36.4,36.4-16.5,49.4-49.4,181.2C541,676,554,695.9,590.4,659.6c36.4-36.4,36.4-95.4,0-131.8C554,491.4,495,491.4,458.6,527.8z M573.9,643.1c-27.3,27.3-49.4,16.5-131.8,32.9c16.5-82.4,5.6-104.5,32.9-131.8c27.3-27.3,71.5-27.3,98.8,0C601.2,571.5,601.2,615.8,573.9,643.1z"/><path d="M982.9,203.7l-68.5-68.4c-9.5-9.5-24.8-9.5-34.2,0L555.1,460.4c-5.3,5.3-7.3,12.5-6.6,19.4c21.2,5,41.4,15.4,58,31.9c16.5,16.5,26.9,36.8,31.9,58c7,0.7,14.1-1.3,19.5-6.6l325.1-325.1C992.4,228.5,992.4,213.1,982.9,203.7z M640.7,511.7l-34.2-34.2L828.9,255l34.2,34.2L640.7,511.7z M880.2,272.1L846,237.9l51.3-51.3l34.2,34.2L880.2,272.1z"/><path d="M376.5,694.3H79.1L220.4,553c6.2-6.3,6.2-16.4,0-22.6c-6.2-6.2-16.4-6.2-22.6,0L56.5,671.6V51.5c0-8.8-7.2-16-16-16c-8.8,0-16,7.2-16,16v658.7c0,0,0,16,16,16h336c8.8,0,16-7.2,16-16C392.5,701.4,385.4,694.3,376.5,694.3z"/></g>
</svg>