<?xml version="1.0" encoding="utf-8"?>
<!-- Svg Vector Icons : http://www.onlinewebfonts.com/icon -->
<!DOCTYPE svg PUBLIC "-//W3C//DTD SVG 1.1//EN" "http://www.w3.org/Graphics/SVG/1.1/DTD/svg11.dtd">
<svg version="1.1" xmlns="http://www.w3.org/2000/svg" xmlns:xlink="http://www.w3.org/1999/xlink" x="0px" y="0px" viewBox="0 0 1000 1000" enable-background="new 0 0 1000 1000" xml:space="preserve">
<metadata> Svg Vector Icons : http://www.onlinewebfonts.com/icon </metadata>
<g><g transform="translate(0.000000,511.000000) scale(0.100000,-0.100000)"><path d="M3551.3,4990.5c-628.9-104.8-1178.8-609.2-1342.9-1230.2c-21.8-79.1-43.5-183.9-51.4-235.4L2145,3430h-79.1h-77.1v-395.6v-395.6h-79.1h-79.1v-399.5v-401.5l-122.6-59.3c-269-130.5-571.6-389.6-753.5-646.7c-189.9-267-330.3-621-369.9-927.6c-11.9-98.9-19.8-640.8-19.8-1327.1c0-1032.4-4-1162.9-29.7-1162.9c-53.4,0-215.6-93-278.9-162.2c-35.6-35.6-83.1-104.8-108.8-154.3l-47.5-89v-840.6v-840.6l47.5-89c152.3-290.7,464.8-407.4,727.8-271c55.4,29.7,106.8,61.3,114.7,73.2c17.8,27.7,3245.6,27.7,3263.4,0c7.9-11.9,59.3-43.5,114.7-73.2c263.1-136.5,575.5-19.8,727.8,271l47.5,89v840.6v840.6l-47.5,89c-25.7,49.4-73.2,118.7-108.8,154.3c-63.3,69.2-225.5,162.2-278.9,162.2c-25.7,0-29.7,132.5-29.7,1172.8c0,1261.8-9.9,1406.2-104.8,1685.1c-180,526.1-561.7,969.1-1026.5,1198.6l-134.5,65.3v401.5v401.5h-79.1h-79.1v395.6V3430h-79.1c-43.5,0-79.1,7.9-79.1,15.8c0,39.6,65.3,233.4,94.9,278.9c49.4,81.1,146.4,180,223.5,229.4c152.3,98.9,237.3,108.8,870.2,108.8c539.9,0,597.3-4,721.9-41.5c112.7-35.6,152.3-61.3,257.1-164.2c102.9-104.8,128.6-144.4,164.2-257.1c41.5-134.5,41.5-138.4,41.5-3490.8c0-2252.7,7.9-3395.9,21.7-3482.9c29.7-183.9,106.8-403.5,201.7-573.6c112.7-203.7,423.3-514.2,627-627c518.2-290.7,1103.6-290.7,1621.8,0c203.7,112.7,514.2,423.3,627,627c98.9,176,176,399.5,203.7,585.4c11.9,87,19.8,1372.6,19.8,3465.1V3430h158.2h158.2v237.3v237.3h180c249.2,0,322.4,25.7,452.9,158.2c146.4,144.4,158.2,193.8,158.2,611.1v338.2H8317.8H6735.5V4674c0-417.3,11.9-466.8,158.2-611.1c130.5-132.5,203.7-158.2,452.9-158.2h180v-237.3V3430h158.2h158.2V89.5c0-3336.5,0-3340.5-41.5-3475c-35.6-112.7-61.3-152.3-164.2-257.1c-104.8-102.9-144.4-128.6-257.1-164.2c-170.1-53.4-328.3-53.4-498.4,0c-112.7,35.6-152.3,61.3-257.1,164.2c-102.8,104.8-128.6,144.4-164.2,257.1c-41.5,134.5-41.5,138.4-41.5,3490.8c0,2252.7-7.9,3395.9-21.7,3482.9c-57.4,363.9-203.7,640.8-482.6,919.7c-278.9,278.9-555.7,425.2-919.7,482.6C4840.8,5016.2,3705.5,5014.2,3551.3,4990.5z M5050.4,4664.1c411.4-85,747.6-350.1,925.6-729.8c132.5-288.8,126.6-85,126.6-3801.3c0-2925.2,4-3374.1,29.7-3484.9C6252.9-3862.2,6781-4232,7275.4-4149c405.5,67.3,759.5,397.6,854.4,797.1c25.7,110.8,29.7,555.8,29.7,3455.2V3430h158.2H8476V77.6c0-3742,7.9-3514.6-138.4-3817.2c-134.5-274.9-326.3-468.7-603.2-603.2c-684.3-332.3-1509.1-49.4-1819.6,623c-136.5,292.7-128.6,63.3-128.6,3791.4c0,3710.4,5.9,3494.8-122.6,3742c-81.1,154.3-288.8,361.9-443,443c-209.6,108.8-310.5,122.6-937.5,122.6c-628.9,0-729.8-13.8-937.5-124.6c-290.7-154.3-474.7-411.4-553.8-769.4c-11.9-55.4-13.8-55.4-170.1-55.4c-183.9,0-178-9.9-126.6,223.5c112.7,504.3,482.6,882.1,986.9,1004.7C3679.8,4707.6,4821,4711.6,5050.4,4664.1z M9583.6,4498c0-294.7,37.6-276.9-593.3-276.9H8476v79.1v79.1h-158.2h-158.2v-79.1v-79.1h-514.2c-630.9,0-593.3-17.8-593.3,276.9v197.8h1265.8h1265.8V4498z M8792.4,3825.5v-79.1h-474.7h-474.7v79.1v79.1h474.7h474.7V3825.5z M2938.1,2876.2v-237.3h-316.5h-316.4v237.3v237.3h316.4h316.5V2876.2z M3096.4,2132.5c0-158.2-4-187.9-29.7-180c-15.8,7.9-120.6,23.7-235.4,35.6c-199.8,23.7-549.8,5.9-650.7-33.6c-29.7-9.9-33.6,7.9-33.6,178v189.9h474.7h474.7V2132.5z M2910.5,1667.8c63.3-9.9,168.1-33.6,231.4-51.4l116.7-31.6l-7.9-174.1c-5.9-195.8-37.6-259.1-156.2-318.4c-57.4-29.7-126.6-35.6-472.7-35.6c-346.1,0-415.3,5.9-472.7,35.6c-118.7,59.3-150.3,122.6-156.2,318.4l-7.9,174.1l126.6,33.6C2384.4,1691.5,2679,1709.3,2910.5,1667.8z M1678.3,1313.7c13.8-122.6,116.7-318.4,205.7-395.6c37.6-33.6,112.7-83.1,170.1-114.7l102.9-53.4h464.8h464.8l124.6,67.2c195.8,106.8,324.4,286.8,356,498.4l13.8,100.9l122.6-91c316.4-239.3,547.8-623,627-1038.3c27.7-138.4,31.6-354,31.6-1398.3c0-807-5.9-1234.2-19.8-1234.2c-41.5,0-183.9-150.3-233.4-245.3l-53.4-100.9l-5.9-814.9l-5.9-816.8h-1422h-1422l-5.9,816.8l-5.9,814.9l-53.4,100.9c-51.4,96.9-191.8,245.3-233.4,245.3c-15.8,0-19.8,411.4-15.8,1301.4c5.9,1275.7,7.9,1301.4,51.4,1455.7c96.9,346.1,300.6,662.6,565.7,884.1c77.1,63.3,146.4,116.7,152.3,116.7C1660.5,1412.6,1672.4,1367.1,1678.3,1313.7z M814-2649.8l67.2-67.2v-814.9v-814.9L814-4414c-59.3-59.3-79.1-67.3-170.1-67.3s-110.8,7.9-170.1,67.3l-67.2,67.2v814.9v814.9l67.2,67.2c59.3,59.3,79.1,67.3,170.1,67.3S754.7-2590.4,814-2649.8z M4769.6-2649.8l67.2-67.2v-814.9v-814.9l-67.2-67.2c-59.3-59.3-79.1-67.3-170.1-67.3s-110.8,7.9-170.1,67.3l-67.2,67.2v814.9v814.9l67.2,67.2c59.3,59.3,79.1,67.3,170.1,67.3S4710.3-2590.4,4769.6-2649.8z"/><path d="M1830.6-209.2v-158.2h474.7h474.7v158.2v158.2h-474.7h-474.7V-209.2z"/><path d="M3096.4-209.2v-158.2h158.2h158.2v158.2v158.2h-158.2h-158.2V-209.2z"/><path d="M1996.7-1672.7c-138.4-69.2-164.2-124.6-227.4-492.5c-31.6-180-57.4-363.9-57.4-405.5c0-112.7,79.1-235.3,183.9-286.8c81.1-39.6,116.7-41.5,725.9-41.5c609.2,0,644.8,2,725.9,41.5c104.8,51.4,183.9,174.1,183.9,286.8c0,41.6-25.7,225.5-57.4,405.5c-63.3,367.9-89,425.2-229.4,492.5c-75.2,37.6-122.6,39.6-625,39.6C2115.4-1633.2,2071.9-1635.2,1996.7-1672.7z M3177.5-2270l51.4-312.5h-607.2h-607.2l47.5,292.7c25.7,160.2,51.4,302.6,55.4,316.4c7.9,19.8,118.7,23.7,508.3,19.8l498.4-5.9L3177.5-2270z"/><path d="M1915.6-3239.2c-108.8-53.4-98.9-225.5,15.8-272.9c176-73.2,298.6,195.8,124.6,274.9C1996.7-3211.5,1973-3211.5,1915.6-3239.2z"/><path d="M2544.6-3241.1c-106.8-53.4-94.9-225.5,19.8-271c176-73.2,298.6,195.8,124.6,274.9C2627.6-3209.5,2603.9-3209.5,2544.6-3241.1z"/><path d="M3181.4-3239.2c-106.8-51.4-102.8-215.6,5.9-267c130.5-63.3,261.1,59.3,205.7,193.8C3357.4-3227.3,3270.4-3195.6,3181.4-3239.2z"/><path d="M1599.2-3713.8c-106.8-51.4-102.8-215.6,5.9-267c130.5-63.3,261.1,59.3,205.7,193.8C1775.2-3702,1688.2-3670.3,1599.2-3713.8z"/><path d="M2232.1-3713.8c-108.8-53.4-98.9-225.4,15.8-272.9c176-73.2,298.7,195.8,124.6,274.9C2313.2-3686.1,2289.4-3686.1,2232.1-3713.8z"/><path d="M2861-3715.8c-106.8-53.4-94.9-225.5,19.8-271c176-73.2,298.6,195.8,124.6,274.9C2944.1-3684.2,2920.3-3684.2,2861-3715.8z"/><path d="M3497.9-3713.8c-106.8-51.4-102.8-215.6,5.9-267c130.5-63.3,261.1,59.3,205.7,193.8C3673.9-3702,3586.9-3670.3,3497.9-3713.8z"/></g></g>
</svg>