<?xml version="1.0" encoding="utf-8"?>
<!-- Svg Vector Icons : http://www.onlinewebfonts.com/icon -->
<!DOCTYPE svg PUBLIC "-//W3C//DTD SVG 1.1//EN" "http://www.w3.org/Graphics/SVG/1.1/DTD/svg11.dtd">
<svg version="1.1" xmlns="http://www.w3.org/2000/svg" xmlns:xlink="http://www.w3.org/1999/xlink" x="0px" y="0px" viewBox="0 0 1000 1000" enable-background="new 0 0 1000 1000" xml:space="preserve">
<metadata> Svg Vector Icons : http://www.onlinewebfonts.com/icon </metadata>
<g><g transform="translate(0.000000,511.000000) scale(0.100000,-0.100000)"><path d="M2025.9,4994.1c-187-43.8-366-191-451.5-366c-43.8-87.5-49.7-139.2-65.6-447.5c-43.8-974.6,73.6-2313.2,284.4-3192.4c312.3-1304.8,813.5-2098.4,1547.5-2444.5L3464-1516v-193v-192.9l-252.6-8c-206.9-6-272.5-15.9-348.1-49.7c-125.3-57.7-252.6-192.9-328.2-346.1c-87.5-181-543-1732.4-543-1851.8c0-212.8,151.2-447.5,362-562.9l105.4-59.7l1973.1-6l1971.1-4l115.4,41.8c218.8,81.6,399.8,322.2,419.7,555c7.9,97.5-17.9,202.9-232.7,924.9c-131.3,449.5-266.5,871.2-298.4,938.8c-69.6,153.1-185,280.4-322.2,356c-99.5,53.7-121.3,57.7-368,63.6l-264.5,8v192.9v193l133.3,57.7c475.4,206.9,905,690.2,1191.4,1342.6c308.3,700.2,525.1,1664.8,604.7,2695.2c9.9,153.2,25.8,344.1,31.8,421.7l12,145.2l81.5-11.9c194.9-29.8,318.2-115.4,405.8-280.4c101.4-190.9,131.3-377.9,131.3-821.5c0-505.2-73.6-1125.8-216.8-1837.9c-65.7-320.2-63.7-358,19.9-441.6c81.5-81.5,192.9-93.5,278.5-25.8c75.6,59.7,87.5,89.5,141.2,360c230.7,1129.8,294.4,2130.2,171,2649.4c-117.3,493.3-431.6,793.6-881.1,843.3l-125.3,13.9l-9.9,467.4c-10,463.4-10,467.4-65.6,572.8c-71.6,135.3-187,246.6-328.2,316.3L6915,5006l-2406.7,4C3143.8,5010,2069.7,5004,2025.9,4994.1z M6897.1,4490.9l67.6-67.6v-208.9c0-115.4,6-222.8,11.9-240.7c11.9-29.8-218.8-31.8-2508.2-31.8H1948.3l8,234.7c8,246.7,21.9,292.4,113.4,348.1c47.7,29.8,276.5,31.8,2406.7,33.8h2353L6897.1,4490.9z M6958.7,3132.3c-27.9-761.8-141.2-1589.2-302.3-2203.9C6387.9-97.9,5978.2-758.2,5447.1-1020.8c-278.5-137.2-403.8-155.2-1066.1-145.2c-543,7.9-551,7.9-716.1,65.6c-218.8,75.6-413.7,204.9-598.7,399.8c-644.4,678.3-1008.4,1995-1101.9,3992l-8,192.9h2506.2h2508.2L6958.7,3132.3z M4995.6-1766.7v-139.2h-537h-537v139.2v139.2h537h537V-1766.7z M5906.5-2395.2c23.9-15.9,61.7-63.6,83.5-105.4c39.8-81.6,497.3-1603.2,497.3-1660.9c0-55.7-63.7-135.2-133.3-163.1c-97.5-41.8-3675.7-41.8-3773.2,0c-77.6,31.8-131.3,101.4-131.3,165.1c0,41.8,427.6,1499.7,473.4,1619.1c11.9,27.8,43.8,77.6,73.6,113.4l53.7,63.7h1406.2C5699.7-2363.4,5866.7-2367.4,5906.5-2395.2z"/><path d="M4627.6-2858.7c-21.9-9.9-171.1-151.2-332.2-314.3C4009-3463.3,4001-3473.2,4001-3554.8c0-71.6,11.9-97.4,67.6-153.1c57.7-57.7,81.5-67.6,163.1-67.6h93.5l284.4,280.4c157.1,155.2,294.4,308.3,308.3,338.1C4987.6-2987.9,4790.7-2787,4627.6-2858.7z"/></g></g>
</svg>