<?xml version="1.0" encoding="utf-8"?>
<!-- Svg Vector Icons : http://www.onlinewebfonts.com/icon -->
<!DOCTYPE svg PUBLIC "-//W3C//DTD SVG 1.1//EN" "http://www.w3.org/Graphics/SVG/1.1/DTD/svg11.dtd">
<svg version="1.1" xmlns="http://www.w3.org/2000/svg" xmlns:xlink="http://www.w3.org/1999/xlink" x="0px" y="0px" viewBox="0 0 1000 1000" enable-background="new 0 0 1000 1000" xml:space="preserve">
<metadata> Svg Vector Icons : http://www.onlinewebfonts.com/icon </metadata>
<g><g transform="translate(0.000000,447.000000) scale(0.100000,-0.100000)"><path d="M996.4,4352.5c-106.9-24.3-187.1-80.2-267.4-187.1l-68-87.5l-7.3-3181.5c-4.9-3140.1-4.9-3181.4,43.7-3276.2c26.7-51.1,87.5-124,138.5-162.9l87.5-68h1742.6h1742.6l89.9,70.5c51,38.9,114.2,114.2,138.5,170.1c43.7,94.8,46.2,226,46.2,3242.2c0,3424.5,9.7,3203.3-131.2,3354c-128.8,143.4-48.6,138.5-1837.4,143.4C1813.1,4372,1037.8,4364.7,996.4,4352.5z M2459.6,4000.1c58.3-55.9,60.8-72.9,60.8-350c0-320.8,17-367,145.8-367s145.8,46.2,145.8,367c0,277.1,2.4,294.1,60.8,350l58.3,60.8h663.5c561.4,0,673.2-4.9,719.4-38.9c53.5-36.5,53.5-41.3,53.5-738.9c0-605.2-4.9-707.3-38.9-738.9c-29.2-31.6-97.2-38.9-328.1-38.9c-277.1,0-294.1-2.4-350-60.8c-34-31.6-60.8-70.5-60.8-85.1c0-38.9,51-128.8,82.6-150.7c14.6-9.7,158-19.4,316-19.4c235.8,0,299-7.3,335.4-41.3c41.3-36.5,43.7-109.4,43.7-1285.7V-384.4l-53.5-36.5c-34-24.3-106.9-38.9-194.4-38.9c-114.2,0-143.4-9.7-175-53.5c-53.5-77.8-48.6-133.7,21.9-201.7c48.6-51,82.6-60.8,192-60.8c216.3,0,209,29.2,209-775.3c0-622.2-4.9-704.8-41.3-734c-31.6-26.7-179.8-34-726.7-34c-804.5,0-763.2-12.2-785,247.9c-12.1,150.7-21.9,167.7-80.2,196.9c-55.9,26.7-80.2,26.7-133.7,0c-60.8-29.2-70.5-46.2-82.6-196.9c-21.9-260.1,19.5-247.9-785-247.9c-546.9,0-695.1,7.3-726.7,34c-36.5,29.2-41.3,111.8-41.3,741.3c0,520.1,7.3,717,29.2,738.9c17,17,92.4,29.2,170.1,29.2c119.1,0,153.1,9.7,201.7,60.8c70.5,68.1,75.3,123.9,21.9,201.7c-31.6,43.8-60.8,53.5-175,53.5c-87.5,0-160.4,14.6-194.4,38.9l-53.5,36.5v1242c0,1122.9,4.9,1246.8,41.3,1288.1c34,36.5,80.2,43.7,333,43.7c162.8,0,306.2,9.7,320.8,19.4c31.6,21.9,82.6,111.8,82.6,150.7c0,14.6-26.7,53.5-60.8,85.1c-55.9,58.3-72.9,60.8-350,60.8c-230.9,0-299,7.3-328.1,38.9c-34,31.6-38.9,133.7-38.9,738.9c0,697.5,0,702.4,53.5,738.9c46.2,34,158,38.9,719.4,38.9h663.5L2459.6,4000.1z"/><path d="M2469.3,2935.6c-539.6-201.7-568.7-921.2-46.2-1156.9c301.4-138.5,687.8,21.9,819.1,335.4c48.6,111.8,48.6,354.8,2.4,464.2c-51,121.5-153.1,233.3-277.1,306.2C2836.3,2962.3,2602.9,2984.2,2469.3,2935.6z M2831.4,2602.6c170.1-104.5,189.6-330.5,41.3-478.8c-70.5-70.5-94.8-80.2-206.6-80.2s-136.1,9.7-206.6,80.2c-46.2,46.2-87.5,116.7-97.2,167.7c-34,179.9,116.7,359.7,303.8,359.7C2712.3,2651.2,2787.7,2629.3,2831.4,2602.6z"/><path d="M2561.6,1367.9c-34-36.5-41.3-99.6-41.3-350c0-333,19.4-384,150.7-384c119.1,0,141,58.3,141,393.7c0,262.5-4.9,308.7-43.7,342.7C2709.9,1423.8,2610.2,1421.4,2561.6,1367.9z"/><path d="M2410.9,286.4c-264.9-89.9-464.2-257.6-585.7-498.2c-63.2-126.4-70.5-160.4-70.5-393.7c0-226,7.3-269.8,65.6-393.7c126.4-272.2,405.9-478.8,709.7-529.8c388.9-63.2,811.8,165.3,981.9,529.8c58.3,121.5,65.6,167.7,65.6,393.7c0,240.6-4.9,264.9-77.8,401c-99.6,189.6-274.6,357.3-456.9,439.9C2870.3,315.6,2571.4,337.4,2410.9,286.4z M2894.6-32c46.2-19.4,128.8-75.3,184.7-128.8c313.5-279.5,252.8-785-116.7-986.7c-226-124-430.2-111.8-651.4,38.9c-311.1,211.5-352.4,648.9-87.5,926c48.6,51,133.7,114.2,187.1,138.5C2530,11.7,2777.9,16.6,2894.6-32z"/><path d="M5662.9,4352.5c-106.9-24.3-187.1-80.2-267.3-187.1l-68.1-87.5l-7.3-3181.5c-4.9-3140.1-4.9-3181.4,43.7-3276.2c26.8-51.1,87.5-124,138.6-162.9l87.5-68l1711-7.3c1643-4.9,1711-4.9,1801,41.3c111.8,55.9,162.8,111.8,211.4,228.5c31.6,77.8,36.5,456.9,36.5,3225.2c0,3417.2,9.7,3198.5-131.3,3349.1c-128.8,143.4-48.6,138.5-1837.4,143.4C6479.5,4372,5704.2,4364.7,5662.9,4352.5z M7126,4000.1c51-48.6,60.8-82.6,60.8-201.7c0-160.4,26.7-199.3,136.1-199.3c116.7,0,155.6,53.5,155.6,209c0,109.4,9.7,143.4,60.8,192l58.3,60.8H8261c561.4,0,673.2-4.9,719.4-38.9c53.5-36.5,53.5-41.3,53.5-738.9c0-811.8,9.7-777.7-221.2-777.7c-162.8,0-240.6-51-240.6-158c0-104.5,77.8-158,235.8-158c243,0,226,104.5,226-1327V-384.4l-53.5-36.5c-41.3-29.2-121.5-38.9-335.4-38.9c-303.8,0-350-14.6-376.7-124c-9.7-41.3,0-80.2,31.6-121.5c46.2-55.9,63.2-58.3,362.1-65.6c252.7-7.3,316-14.6,342.7-48.6c21.9-29.2,29.1-216.3,29.1-736.4c0-617.3-4.8-700-41.3-729.1c-31.6-26.7-187.2-34-770.5-34h-731.6l-12.2,352.4c-7.3,194.4-21.9,367-31.6,384c-26.8,38.9-199.3,38.9-230.9-2.4c-17-19.5-31.6-175-34-384l-7.3-350H6443c-583.3,0-738.9,7.3-770.4,34c-36.5,29.2-41.3,111.8-41.3,743.7c0,539.6,7.3,717,31.6,736.4c14.6,14.6,167.7,29.2,337.8,34c345.1,7.3,391.3,29.2,391.3,167.7c0,124-51,143.4-371.9,143.4c-213.8,0-294.1,9.7-335.4,38.9l-53.5,36.5v1242c0,1431.5-17,1331.9,223.6,1331.9c160.4,0,238.2,51,238.2,158s-77.8,158-240.6,158c-230.9,0-221.2-34-221.2,777.7c0,697.5,0,702.4,53.5,738.9c46.2,34,158,38.9,719.4,38.9h663.5L7126,4000.1z"/><path d="M7089.5,3246.7c-260-72.9-486.1-267.3-605.2-520.1c-55.9-119.1-63.2-165.3-63.2-391.3c0-243,2.4-262.5,82.6-405.9c99.6-187.1,274.7-354.8,459.4-439.9c119.1-55.9,170.1-65.6,369.4-65.6c211.5,0,245.5,7.3,391.3,77.8c194.4,94.8,364.6,269.8,454.5,464.2c92.3,194.4,104.5,493.4,29.1,692.7c-94.8,252.8-320.8,483.7-559,563.9C7485.7,3280.7,7245.1,3290.4,7089.5,3246.7z M7634,2884.5c206.6-119.1,308.7-299,311.1-537.1c7.3-624.6-816.7-850.7-1147.2-316c-201.7,325.7-36.5,763.2,337.8,904.1C7269.4,2984.2,7502.7,2962.3,7634,2884.5z"/><path d="M7223.2,1056.8c-31.6-31.6-36.5-92.3-31.6-357.3l7.3-318.4l68.1-38.9c58.3-31.6,72.9-31.6,133.7,0l65.6,38.9l7.3,318.4c7.3,352.4-7.3,396.2-141,396.2C7293.7,1095.7,7245.1,1078.7,7223.2,1056.8z"/><path d="M7077.4-44.1c-123.9-55.9-286.8-233.3-330.5-357.3c-114.2-335.4,75.3-704.8,413.2-802c393.7-116.7,785,175,787.5,585.8c0,85.1-17,187.1-41.3,243c-53.4,126.4-194.4,272.2-318.4,330.5C7459,16.6,7208.6,16.6,7077.4-44.1z M7502.7-357.7c289.2-209,75.3-644-264.9-542c-187.1,55.9-274.6,281.9-167.7,439.9C7179.5-296.9,7359.3-253.2,7502.7-357.7z"/><path d="M1621.1-2987.4c-26.7-26.8-48.6-75.4-48.6-109.4c0-34,21.9-82.6,48.6-109.4c26.7-26.8,75.3-48.6,109.4-48.6s82.6,21.9,109.4,48.6c26.7,26.7,48.6,75.3,48.6,109.4c0,34-21.9,82.6-48.6,109.4c-26.7,26.7-75.3,48.6-109.4,48.6S1647.8-2960.7,1621.1-2987.4z"/><path d="M3492.5-2987.4c-26.7-26.8-48.6-75.4-48.6-109.4c0-34,21.9-82.6,48.6-109.4c26.7-26.8,75.3-48.6,109.4-48.6c34,0,82.6,21.9,109.4,48.6c26.7,26.7,48.6,75.3,48.6,109.4c0,34-21.9,82.6-48.6,109.4c-26.7,26.7-75.3,48.6-109.4,48.6C3567.8-2938.8,3519.2-2960.7,3492.5-2987.4z"/><path d="M6287.5-2987.4c-97.2-97.2-26.7-267.4,109.4-267.4c77.8,0,158,80.2,158,158c0,77.8-80.2,158-158,158C6362.8-2938.8,6314.2-2960.7,6287.5-2987.4z"/><path d="M8158.9-2987.4c-97.2-97.2-26.7-267.4,109.4-267.4c94.8,0,165.3,87.5,148.3,179.8C8389.8-2941.2,8253.7-2892.6,8158.9-2987.4z"/><path d="M1565.2-3434.6c-145.8-38.9-274.6-143.4-369.4-294.1c-63.2-104.5-72.9-138.5-72.9-301.4c0-158,9.7-201.7,65.6-296.5c126.4-213.9,301.4-316,542-318.4c247.9-2.4,456.9,128.8,561.4,357.3C2510.6-3818.6,2065.8-3296.1,1565.2-3434.6z M1849.5-3750.6c124-51,184.7-145.8,184.7-286.8c0-104.5-12.1-133.7-80.2-201.7c-99.7-99.6-218.7-126.4-340.3-75.4c-238.2,97.2-245.5,459.4-9.7,561.4C1703.7-3709.2,1749.9-3709.2,1849.5-3750.6z"/><path d="M3439-3434.6c-63.2-17-133.7-46.2-158-63.2c-284.4-216.3-374.3-508-240.6-789.9c104.5-228.5,313.5-359.7,561.4-359.7c240.6,2.4,415.6,104.5,542,320.8c55.9,94.8,65.6,138.6,65.6,294.1c0,155.5-9.7,199.3-65.6,294.1C3990.7-3475.9,3713.7-3356.8,3439-3434.6z M3723.4-3750.6c238.2-99.6,235.8-464.2-4.9-563.9c-121.5-51-240.6-24.3-340.3,75.4c-68,68-80.2,97.2-80.2,201.7c0,138.5,60.8,233.3,179.9,286.8C3575.1-3709.2,3621.3-3709.2,3723.4-3750.6z"/><path d="M6231.6-3434.6c-145.8-38.9-274.7-143.4-369.5-294.1c-63.2-104.5-72.9-138.5-72.9-301.4c0-158,9.7-201.7,65.6-296.5c126.4-213.9,301.4-316,542-318.4c247.9-2.4,456.9,128.8,561.4,357.3C7177-3818.6,6732.3-3296.1,6231.6-3434.6z M6516-3750.6c123.9-51,184.7-145.8,184.7-286.8c0-104.5-12.2-133.7-80.2-201.7c-99.7-99.6-218.7-126.4-340.3-75.4c-238.2,97.2-245.5,459.4-9.7,561.4C6370.1-3709.2,6416.3-3709.2,6516-3750.6z"/><path d="M8105.5-3434.6c-63.2-17-133.7-46.2-158-63.2c-284.4-216.3-374.3-508-240.6-789.9c104.5-228.5,313.5-359.7,561.4-357.3c240.6,2.4,415.6,104.5,542,318.4c55.9,94.8,65.6,138.6,65.6,294.1c0,155.5-9.7,199.3-65.6,294.1C8657.2-3475.9,8380.1-3356.8,8105.5-3434.6z M8389.8-3750.6c238.2-99.6,235.8-464.2-4.8-563.9c-121.5-51-240.6-24.3-340.3,75.4c-68.1,68-80.2,97.2-80.2,201.7c0,138.5,60.8,233.3,179.9,286.8C8241.6-3709.2,8287.8-3709.2,8389.8-3750.6z"/><path d="M690.2-5169.9c-51-55.9-53.5-150.7-7.3-213.9c34-46.2,106.9-46.2,4316.5-46.2c4209.5,0,4282.5,0,4316.4,46.2c46.2,65.6,43.8,170.1-9.7,216.3c-41.3,38.9-376.7,41.3-4311.6,41.3C894.4-5126.2,726.7-5128.6,690.2-5169.9z"/></g></g>
</svg>