<?xml version="1.0" encoding="utf-8"?>
<!-- Svg Vector Icons : http://www.onlinewebfonts.com/icon -->
<!DOCTYPE svg PUBLIC "-//W3C//DTD SVG 1.1//EN" "http://www.w3.org/Graphics/SVG/1.1/DTD/svg11.dtd">
<svg version="1.1" xmlns="http://www.w3.org/2000/svg" xmlns:xlink="http://www.w3.org/1999/xlink" x="0px" y="0px" viewBox="0 0 1000 1000" enable-background="new 0 0 1000 1000" xml:space="preserve">
<metadata> Svg Vector Icons : http://www.onlinewebfonts.com/icon </metadata>
<g><g transform="translate(0.000000,427.000000) scale(0.100000,-0.100000)"><path d="M3461.1,3338.2c-122.5-28.7-292.9-130.2-386.6-231.6c-130.2-139.7-201-306.3-214.4-503.4l-9.6-160.8l-767.5-5.8l-769.5-5.7l-143.6-70.8c-178-88-302.4-214.4-386.6-394.3c-59.3-126.3-61.3-135.9-67-446l-7.7-315.8l-124.4-55.5C408.2,1071.9,270.4,938,182.3,760l-72.7-145.5l-5.7-696.7c-3.8-486.2,0-713.9,15.3-750.3c32.5-80.4,93.8-95.7,354.1-95.7h237.3l5.7-1688.2l5.7-1690.1l67-134c36.4-72.7,68.9-139.7,72.7-147.4c3.8-9.6-166.5-15.3-377.1-15.3H100v-105.3v-105.3h4900h4900v105.3v105.3h-384.7c-210.5,0-380.9,5.7-377.1,15.3c3.8,7.7,36.4,74.6,72.7,147.4l67,134l5.7,1688.2l5.7,1690.1h237.4c260.3,0,321.6,15.3,354.1,95.7c15.3,36.4,19.1,264.1,15.3,750.3l-5.7,696.7L9817.7,760c-88.1,178-225.8,312-402,388.5l-124.4,55.5l-7.7,315.8c-5.7,310.1-7.6,319.6-67,446c-84.2,179.9-208.6,306.3-386.7,394.3l-143.6,70.8l-769.4,5.7l-767.5,5.8l-9.6,160.8c-19.1,300.5-179.9,539.8-453.6,675.7l-143.6,70.8l-1502.5,3.8C4171.2,3355.4,3505.1,3347.8,3461.1,3338.2z M6538.9,3032c103.3-28.7,231.6-153.1,268-260.3c17.2-49.8,30.6-143.6,30.6-210.5v-120.6H5000H3162.5v120.6c0,168.4,30.6,256.5,120.6,352.2c137.8,143.6,57.4,137.8,1707.3,139.7C5981.9,3053,6489.1,3045.4,6538.9,3032z M8682.7,2113.2c40.2-11.5,111-53.6,155-95.7c120.6-111,143.6-195.2,143.6-528.3v-273.7H5000H1018.7v273.7c0,149.3,9.6,306.3,21.1,346.5c26.8,95.7,158.9,235.4,256.5,269.9c65.1,23,624,26.8,3694.1,28.7C7503.6,2134.2,8631,2128.5,8682.7,2113.2z M8981.2-1387.6v-2296.9H5000H1018.7v2296.9V909.2H5000h3981.2V-1387.6z M712.5,134.1V-622H559.4H406.2v580c0,344.5,7.7,606.8,21.1,650.8C456,714,626.4,890.1,699.1,890.1C706.8,890.1,712.5,549.4,712.5,134.1z M9362.2,863.3c80.4-42.1,187.6-172.3,210.5-254.6c13.4-44,21-302.4,21-650.8v-580h-153.1h-153.1v756.1c0,415.4,3.8,756.1,9.6,756.1C9304.7,890.1,9331.5,878.6,9362.2,863.3z M8981.2-4109.4c0-67-9.6-155-21-197.1c-28.7-101.4-174.2-246.9-275.6-275.6c-109.1-30.6-7260-30.6-7369.1,0c-101.4,28.7-246.9,174.2-275.6,275.6c-11.5,42.1-21.1,130.2-21.1,197.1v118.7H5000h3981.2V-4109.4z"/><path d="M2860.1-474.6l5.7-1077.6l70.8-143.6c88-178,214.4-302.4,394.3-386.6l128.2-61.3H5000h1540.8l128.2,61.3c179.9,84.2,306.3,208.6,394.3,386.6l70.8,143.6l5.7,1077.6l5.7,1077.6h-155h-153.1V-434.4c0-700.5-7.7-1064.2-21-1115.9c-28.7-101.4-174.2-246.9-275.6-275.6c-107.2-28.7-2974.5-28.7-3081.6,0c-101.4,28.7-246.9,174.2-275.6,275.6c-13.4,51.7-21.1,415.4-21.1,1115.9V603h-153.1h-155L2860.1-474.6z"/><path d="M3553,580c-78.5-36.4-84.2-84.2-84.2-742.7c0-666.1,3.8-706.3,90-744.6c65.1-30.6,2817.5-30.6,2882.6,0c86.1,38.3,90,78.5,90,744.6s-3.8,706.3-90,744.6C6380,610.7,3612.3,608.7,3553,580z M6225-162.6V-622H5000H3775v459.4v459.4h1225h1225V-162.6z"/><path d="M3468.7-1387.6v-153.1h153.1H3775v153.1v153.1h-153.1h-153.1V-1387.6z"/><path d="M4081.2-1387.6v-153.1h153.1h153.1v153.1v153.1h-153.1h-153.1V-1387.6z"/><path d="M4693.7-1387.6v-153.1H5000h306.3v153.1v153.1H5000h-306.3V-1387.6z"/><path d="M5612.5-1387.6v-153.1h153.1h153.1v153.1v153.1h-153.1h-153.1V-1387.6z"/><path d="M6225-1387.6v-153.1h153.1h153.1v153.1v153.1h-153.1H6225V-1387.6z"/></g></g>
</svg>