<?xml version="1.0" encoding="utf-8"?>
<!-- Svg Vector Icons : http://www.onlinewebfonts.com/icon -->
<!DOCTYPE svg PUBLIC "-//W3C//DTD SVG 1.1//EN" "http://www.w3.org/Graphics/SVG/1.1/DTD/svg11.dtd">
<svg version="1.1" xmlns="http://www.w3.org/2000/svg" xmlns:xlink="http://www.w3.org/1999/xlink" x="0px" y="0px" viewBox="0 0 1000 1000" enable-background="new 0 0 1000 1000" xml:space="preserve">
<metadata> Svg Vector Icons : http://www.onlinewebfonts.com/icon </metadata>
<g><g transform="translate(0.000000,486.000000) scale(0.100000,-0.100000)"><path d="M1297.7,4461.5l-47.8-47.8l5.7-455.4l5.7-453.5l61.2-130.1c84.2-177.9,227.7-323.4,405.6-411.4l143.5-70.8l340.6-5.7l340.6-7.7v-983.4V910.4l-243,5.7l-244.9,5.7l7.7,243c7.7,277.4-9.6,344.4-97.6,390.3c-72.7,38.3-156.9,19.1-206.6-44c-28.7-36.4-38.3-78.4-38.3-162.6v-112.9l-191.3,5.7c-177.9,3.8-193.2,0-239.2-42.1l-47.8-44V191v-964.3l47.8-45.9c42.1-44,59.3-47.8,239.2-47.8h191.3v-107.1c0-126.3,19.1-170.3,97.6-208.6c47.8-24.9,70.8-26.8,126.3-7.7c103.3,34.5,126.3,109.1,118.6,399.9l-7.7,239.2l1381.4,5.7l1383.3,3.8l3.8-2077.9l5.7-2077.9l53.6-45.9l53.6-45.9h2420.3H9789l55.5,55.5l55.5,55.5v2812.6c0,2739.9,0,2814.5-38.3,2958c-109.1,428.6-417.1,761.5-841.9,914.6l-124.4,44l-1463.7,5.7c-1291.5,3.8-1480.9,1.9-1603.3-24.9c-474.5-105.2-870.6-510.9-966.2-993l-24.9-116.7H4514h-325.3l-5.7,996.8l-3.8,996.8l1295.3,357.8c713.7,197.1,1341.2,380.8,1396.7,405.6c197.1,93.8,292.7,300.4,233.4,512.8c-28.7,101.4-191.3,264-296.6,294.6c-61.2,17.2-713.7,23-2770.5,23h-2692L1297.7,4461.5z M6769.8,4153.5c32.5-32.5,40.2-116.7,15.3-156.9c-9.6-13.4-635.2-197.1-1392.9-405.6l-1375.7-382.7l-1063.8,3.8l-1063.8,5.7l-93.8,57.4c-57.4,36.4-114.8,93.8-151.2,151.2c-57.4,93.8-57.4,95.7-63.1,426.7l-5.7,331h2583C6480.9,4184.1,6743,4180.3,6769.8,4153.5z M3853.9,1813.5c0-635.2,7.7-1090.6,19.1-1119.3c36.3-95.7,95.7-107.1,545.3-107.1h411.4V185.3v-401.8H3452.1H2074.5v399.9v401.8l355.9,5.7l355.9,5.7l45.9,53.6l45.9,53.6v1090.6V2883H3366h487.9V1813.5z M8891.7,1706.3c334.8-86.1,575.9-331,654.4-662c19.1-84.2,28.7-225.8,28.7-451.5v-331h-440.1h-442l-45.9-47.8l-47.8-45.9v-1695.2v-1695.2l47.8-45.9l45.9-47.8h442h440.1v-574v-574H7374.4H5174.1l3.8,2768.6l5.7,2770.5l68.9,143.5c84.2,176,189.4,294.6,334.8,382.7c221.9,133.9,199,132,1777.5,132C8562.6,1735,8799.8,1731.2,8891.7,1706.3z M1730.1,185.3v-727.1h-76.5h-76.5v727.1v727.1h76.5h76.5V185.3z M9574.7-1527.1v-1463.7h-325.3h-325.3v1463.7V-63.5h325.3h325.3V-1527.1z"/><path d="M5996.8-1222.9c-288.9-76.5-497.5-342.5-497.5-629.5c0-294.6,212.4-556.8,510.9-631.4c285.1-72.7,591.2,89.9,729,388.4c139.7,298.5-9.6,673.5-329.1,824.6C6264.7-1200,6134.6-1184.7,5996.8-1222.9z M6322.1-1575c97.6-47.8,143.5-137.8,143.5-277.4c-1.9-210.5-111-321.4-315.7-321.4c-130.1,0-218.1,42.1-281.3,139.7c-57.4,84.2-61.2,267.9-5.7,357.8C5950.9-1529.1,6146.1-1487,6322.1-1575z"/><path d="M5975.8-2694.3c-195.1-63.1-384.6-244.9-447.7-428.6c-15.3-47.8-28.7-143.5-28.7-212.4c0-162.6,74.6-319.5,208.5-445.8c153.1-143.5,231.5-176,432.4-176c206.6,0,311.9,42.1,455.4,185.6c135.9,135.8,195.2,275.5,193.3,455.4c-1.9,179.9-47.8,288.9-179.9,428.6C6436.9-2703.8,6184.3-2627.3,5975.8-2694.3z M6327.8-3042.5c91.8-55.5,137.8-149.2,137.8-287c0-132-32.5-193.2-143.5-267.9c-124.4-86.1-357.8-45.9-445.8,74.6c-42.1,55.5-65.1,225.8-44,310c17.2,70.8,120.5,179.8,191.3,202.8C6105.9-2985.1,6257-3002.3,6327.8-3042.5z"/><path d="M157.4-2397.7l-57.4-57.4l7.7-522.3c7.7-466.9,13.4-535.7,51.7-660.1C320-4177.1,741-4588.5,1290.1-4745.4c111-30.6,206.6-34.4,937.5-34.4c729,0,826.6,3.8,935.6,34.4c618,176,1071.5,677.3,1169,1295.3c9.6,68.9,19.1,321.4,19.1,560.6v438.2l-55.5,55.5l-55.5,55.5H2227.6H214.8L157.4-2397.7z M4026.1-2994.7c-1.9-476.4-47.8-685-202.8-928c-139.7-220-352-378.8-629.5-478.3l-153.1-53.6h-813.2h-813.2l-156.9,53.6c-174.1,59.3-407.5,204.7-505.1,313.8c-111,128.2-208.5,296.6-260.2,453.5c-47.8,143.5-51.7,185.6-59.3,562.5l-7.7,405.6h1800.4h1800.4V-2994.7z"/></g></g>
</svg>