<?xml version="1.0" encoding="utf-8"?>
<!-- Svg Vector Icons : http://www.onlinewebfonts.com/icon -->
<!DOCTYPE svg PUBLIC "-//W3C//DTD SVG 1.1//EN" "http://www.w3.org/Graphics/SVG/1.1/DTD/svg11.dtd">
<svg version="1.1" xmlns="http://www.w3.org/2000/svg" xmlns:xlink="http://www.w3.org/1999/xlink" x="0px" y="0px" viewBox="0 0 1000 1000" enable-background="new 0 0 1000 1000" xml:space="preserve">
<metadata> Svg Vector Icons : http://www.onlinewebfonts.com/icon </metadata>
<g><g transform="translate(0.000000,511.000000) scale(0.100000,-0.100000)"><path d="M159.4,4996.3l-59.4-45.7v-408.9c0-340.4,6.9-429.5,45.7-550.5c114.2-374.6,438.6-671.6,817.8-749.3c82.2-16,712.7-25.1,1971.4-25.1h1850.3l-6.9-187.3l-6.8-189.6l-180.5-16c-1290.7-116.5-2462.6-920.6-3049.7-2090.2c-143.9-287.8-217-479.7-290.1-758.4C1132.5-479.4,1128-602.7,1128-2736.3v-1976l57.1-54.8l54.8-57.1h3725.8h3725.8l54.8,57.1l57.1,54.8v1955.4c0,1233.6-9.2,2037.7-25.1,2177c-173.6,1594.5-1309,2901.2-2866.9,3305.5c-121.1,32-319.8,68.5-440.9,82.2c-354.1,38.8-322.1,16-322.1,226.2v182.7H7040c2053.7,0,2012.5-2.3,2270.7,127.9c162.2,82.2,363.2,281,450,440.9c114.2,214.7,139.3,356.4,139.3,774.4c0,365.5,0,372.4-57.1,427.2l-54.8,57.1H5004.6H221.1L159.4,4996.3z M9529.9,4400.1c-6.8-267.3-11.4-287.8-84.5-424.9c-86.8-159.9-157.6-228.4-331.2-319.8l-116.5-61.7H5000H1002.3l-130.2,64c-141.6,68.5-262.7,189.6-342.7,340.4c-43.4,84.5-52.5,141.6-59.4,390.6l-9.1,290.1H5000h4539.1L9529.9,4400.1z M5630.5,2419.5c648.8-130.2,1229-429.5,1701.9-877.2C7882.9,1021.5,8205,443.5,8374-324c48-210.2,50.3-287.8,57.1-2177l9.1-1957.7H4965.7H1491.2l9.1,1960c6.9,1884.6,9.1,1966.9,54.8,2177c159.9,726.4,452.3,1265.6,966.3,1779.5c593.9,596.2,1190.2,881.8,2113.1,1014.3C4794.4,2494.9,5420.3,2462.9,5630.5,2419.5z"/><path d="M4645.9,2104.3c-1354.6-143.9-2474-1171.9-2729.8-2501.4c-294.7-1535.1,600.8-3049.6,2094.8-3545.4c1167.3-386.1,2519.7-2.3,3314.6,941.2c281,335.8,447.8,632.8,587.1,1053.1C8205-1071,8081.6-91,7581.3,685.7c-577.9,895.5-1589.9,1446-2627,1430C4828.7,2113.4,4689.3,2108.8,4645.9,2104.3z M4849.2,1432.7c73.1-59.4,175.9-54.8,242.1,13.7c45.7,45.7,57.1,77.7,57.1,178.2v121.1l166.7-18.3c461.5-54.8,1034.8-297,1352.4-573.4l91.4-80l-73.1-77.7c-41.1-41.1-80-109.6-89.1-148.5c-11.4-61.7-2.3-84.5,57.1-146.2c61.7-59.4,84.5-68.5,146.2-57.1c38.8,9.1,107.4,48,148.5,89.1l77.7,73.1l80-91.4c276.4-317.5,518.6-890.9,573.4-1352.4l18.3-166.8h-121.1c-148.5,0-235.3-68.5-235.3-182.7c0-114.2,86.8-182.7,235.3-182.7h121.1l-18.3-164.5c-52.5-454.6-301.5-1044-573.4-1354.6l-80-91.4l-77.7,73.1c-41.1,41.1-109.6,80-148.5,89.1c-61.7,11.4-84.5,2.3-146.2-57.1c-59.4-61.7-68.5-84.5-57.1-146.2c9.1-38.8,48-107.4,89.1-148.5l73.1-77.7l-91.4-80c-310.7-271.8-900.1-520.8-1352.4-573.4l-166.7-18.3v121.1c0,148.5-68.5,235.3-182.8,235.3s-182.7-86.8-182.7-235.3v-121.1l-164.5,18.3c-463.7,54.8-1037.1,297-1354.6,573.4l-91.4,80l73.1,77.7c41.1,41.1,80,109.6,89.1,148.5c11.4,61.7,2.3,84.5-57.1,146.2c-61.7,59.4-84.5,68.5-146.2,57.1c-38.8-9.1-107.4-48-148.5-89.1l-77.7-73.1l-80,91.4c-276.4,317.5-518.5,890.9-573.4,1354.6l-18.3,164.5h121.1c148.5,0,235.3,68.5,235.3,182.7c0,114.2-86.8,182.7-235.3,182.7h-121.1l18.3,166.8c54.8,461.5,297,1034.8,573.4,1352.4l80,91.4l77.7-73.1c41.1-41.1,109.6-80,148.5-89.1c61.7-11.4,84.5-2.3,146.2,57.1c59.4,61.7,68.5,84.5,57.1,146.2c-9.1,38.8-48,107.4-89.1,148.5l-73.1,77.7l91.4,80c315.2,274.1,897.8,523.1,1347.8,571.1l159.9,18.3l11.4-132.5C4792.1,1505.8,4805.8,1466.9,4849.2,1432.7z"/><path d="M4783-467.9c-111.9-36.6-303.8-233-338.1-349.5c-57.1-196.5-20.6-370.1,111.9-520.9c95.9-109.6,201-166.8,342.7-191.9l93.7-16l274.1-685.3c159.9-402,292.4-701.3,319.8-724.2c100.5-86.8,292.4-6.9,292.4,123.4c0,29.7-123.4,363.2-276.4,742.4L5326.7-1400l68.5,86.8c178.2,228.4,157.6,493.4-52.5,703.6C5182.8-447.4,4995.4-401.7,4783-467.9z M5091.4-860.9c114.2-111.9,34.3-308.4-125.6-308.4c-43.4,0-91.4,20.6-125.6,57.1c-36.6,34.3-57.1,82.2-57.1,125.6s20.6,91.4,57.1,125.6c34.3,36.5,82.2,57.1,125.6,57.1C5009.1-803.8,5057.1-824.3,5091.4-860.9z"/></g></g>
</svg>