<?xml version="1.0" encoding="utf-8"?>
<!-- Svg Vector Icons : http://www.onlinewebfonts.com/icon -->
<!DOCTYPE svg PUBLIC "-//W3C//DTD SVG 1.1//EN" "http://www.w3.org/Graphics/SVG/1.1/DTD/svg11.dtd">
<svg version="1.1" xmlns="http://www.w3.org/2000/svg" xmlns:xlink="http://www.w3.org/1999/xlink" x="0px" y="0px" viewBox="0 0 1000 1000" enable-background="new 0 0 1000 1000" xml:space="preserve">
<metadata> Svg Vector Icons : http://www.onlinewebfonts.com/icon </metadata>
<g><g transform="translate(0.000000,467.000000) scale(0.100000,-0.100000)"><path d="M3838.2,4040.3c-181.8-44-350.3-141.6-493.8-287.1c-216.3-218.2-315.8-451.7-315.8-742.7v-147.4l-578.1-5.7l-580-5.7l-95.7-51.7c-151.2-80.4-315.8-202.9-537.9-398.1C1016.8,2206.6,923,2095.6,923,2028.6c0-23-24.9-59.3-57.4-82.3c-30.6-24.9-74.6-78.5-97.6-122.5c-67-130.2-45.9-216.3,114.8-482.3c172.3-283.3,222-384.7,239.3-474.7l13.4-72.7H821.6c-296.7,0-317.7-1.9-411.5-49.8C235.9,658.1,100,457.1,100,286.8C100,126,235.9-84.5,394.8-168.7c68.9-36.4,114.8-44,403.9-51.7L1124-230l9.6-1837.5l9.6-1837.5l91.9-189.5c147.4-298.6,363.7-488.1,683.3-597.2c101.4-34.5,224-36.4,3081.6-36.4c2857.7,0,2980.2,1.9,3081.6,36.4c289,97.6,526.4,292.9,654.6,539.7c134,254.6,130.2,183.8,130.2,2157.1v1774.3h312c285.2,0,317.7,3.8,405.8,45.9C9756.4-96,9900,116.4,9900,286.8c0,170.3-135.9,371.3-310.1,457.5c-93.8,47.9-114.8,49.8-411.5,49.8h-313.9l13.4,72.7c15.3,86.1,68.9,195.2,208.6,424.9c151.2,248.8,181.8,315.8,181.8,392.4c0,88-61.3,206.7-134,262.2c-32.5,23-57.4,59.3-57.4,78.5c0,68.9-76.6,160.8-296.7,359.8c-231.6,206.7-396.2,331.1-555.1,415.4l-95.7,51.7l-664.2,5.7l-666.1,5.7v166.5c-1.9,465.1-350.3,899.6-805.8,1008.7C5828.8,4076.6,3997,4078.6,3838.2,4040.3z M6071.9,3663.2c147.4-68.9,231.6-147.4,308.2-289c57.4-109.1,65.1-137.8,70.8-315.8l7.7-197.1h-268h-269.9l-151.2,151.2c-124.4,124.4-183.8,166.5-331.1,237.4c-208.6,99.5-323.5,128.2-530.2,128.2c-313.9,0-614.4-130.2-851.8-367.5l-149.3-149.3h-268H3373v162.7c0,185.7,44,327.3,141.6,455.5c70.8,91.9,229.7,195.2,344.5,222c44,9.6,518.7,17.2,1092.9,15.3l1014.5-3.8L6071.9,3663.2z M5201,2985.6c212.5-72.7,392.4-243.1,509.1-482.3c40.2-80.4,45.9-118.7,45.9-312c0-185.7-7.7-237.3-44-329.2c-137.8-338.8-426.8-532.1-798.2-532.1c-495.7,0-851.8,356-851.8,851.8c0,199.1,30.6,298.6,141.6,467c132.1,197.2,292.9,310.1,509.1,359.9C4845,3039.2,5076.6,3027.7,5201,2985.6z M3748.2,2465c-7.7-30.6-19.1-145.5-24.9-258.4l-11.5-206.7H2515.6H1317.3l112.9,116.8c145.5,147.4,340.7,308.2,440.2,359.8c74.6,40.2,95.7,40.2,983.8,40.2h905.4L3748.2,2465z M8211.8,2424.8c65.1-45.9,199.1-158.9,296.7-252.7l176.1-170.4l-1284.3-1.9H6114l-9.6,206.7c-5.7,112.9-17.2,227.8-23,258.4l-13.4,53.6l1010.6-5.7l1012.5-5.7L8211.8,2424.8z M3897.5,1542.4c201-325.4,641.2-576.1,1016.4-576.1c377.1,0,815.4,248.8,1018.3,578.1l68.9,111h1450.8h1452.8l-88-147.4c-151.2-252.7-220.1-386.6-252.7-480.4c-28.7-80.4-32.5-333.1-42.1-2492.1l-9.6-2402.1l-53.6-116.7c-68.9-147.4-199.1-277.5-348.4-346.5l-114.8-53.6H5000H2004.5l-114.8,53.6c-120.6,55.5-262.2,178-308.2,266.1l-28.7,53.6h758c507.2,0,771.4,7.7,798.2,21.1c59.3,32.5,95.7,135.9,70.8,206.7c-40.2,114.8-49.8,116.7-916.8,116.7h-784.8v172.3v172.3h541.7c465.1,0,547.4,3.8,583.8,30.6c65.1,44,86.1,114.8,59.3,193.3c-36.4,114.8-67,120.6-658.4,120.6h-526.4v172.3v172.3h371.3c340.7,0,373.2,3.8,419.2,38.3c59.3,47.9,80.4,124.4,49.8,195.2c-40.2,99.5-93.8,111-484.3,111H1480l-5.7,1613.6l-5.7,1611.6l-49.8,128.2c-42.1,109.1-181.8,361.7-300.5,547.4l-26.8,42.1h1366.7h1368.6L3897.5,1542.4z M1129.8,283l-5.7-168.4l-239.3-5.7c-277.5-5.8-352.2,3.8-403.9,55.5c-51.7,51.7-49.8,195.2,1.9,246.9c34.4,34.5,63.2,38.3,344.5,38.3h308.2L1129.8,283z M9517.2,411.2c51.7-51.7,53.6-195.2,1.9-246.9c-51.7-51.7-126.3-61.3-403.9-55.5l-239.3,5.7l-5.7,168.4l-5.7,166.5h308.2C9454,449.5,9482.7,445.7,9517.2,411.2z"/><path d="M5042.1,2549.2l-252.7-252.7L4910,2176l118.7-118.7l258.4,258.4l258.4,258.4l-114.8,114.8c-63.2,63.2-118.7,114.8-124.4,114.8S5181.8,2688.9,5042.1,2549.2z"/></g></g>
</svg>