<?xml version="1.0" encoding="utf-8"?>
<!-- Svg Vector Icons : http://www.onlinewebfonts.com/icon -->
<!DOCTYPE svg PUBLIC "-//W3C//DTD SVG 1.1//EN" "http://www.w3.org/Graphics/SVG/1.1/DTD/svg11.dtd">
<svg version="1.1" xmlns="http://www.w3.org/2000/svg" xmlns:xlink="http://www.w3.org/1999/xlink" x="0px" y="0px" viewBox="0 0 1000 1000" enable-background="new 0 0 1000 1000" xml:space="preserve">
<metadata> Svg Vector Icons : http://www.onlinewebfonts.com/icon </metadata>
<g><path d="M608.1,271.7h113.4c12.6,0,23-11.3,23-25c0-13.6-10.4-24.9-23-24.9H608.1c-12.7,0-23,11.3-23,24.9C585,260.4,595.3,271.7,608.1,271.7z M608.1,574.2h113.4c12.6,0,23-11.1,23-24.8c0-13.8-10.4-24.9-23-24.9H608.1c-12.7,0-23,11.1-23,24.9C585,563.1,595.3,574.2,608.1,574.2z M633.9,373.3c-12.7,0-23,11.1-23,24.9c0,13.8,10.4,25,23,25h61.7c12.7,0,23-11.2,23-25c0-13.8-10.2-24.9-23-24.9H633.9z M960.4,235.6c-12.3-13.1-27.6-23.1-45.1-28.1l11-97.4h0.1v-0.5v-0.1c0.9-9.2-3.5-18.7-11.1-23.6c-37-24.4-77.5-43.7-120.3-56.5c-41.6-12.5-85.3-19.3-130.3-19.3c-45.1,0-88.8,6.8-130.3,19.3C492.2,42,452.1,61.1,415.3,85.1c-8.2,4.5-12.4,13.3-12.4,22.7l0.1,1.9v0.5l60,539c-10.9,2-21.1,5.8-30.4,11.3V475c0-13.8-10.4-24.9-23-24.9H260.4V256.9c0-13.5-10.4-24.8-23.1-24.8h-86.9c-12.7,0-23,11.3-23,24.8v193.4h-17c-12.7,0-23,11.1-23,24.9v42.1C69.2,521.9,52.9,532,40,546c-18.1,19.5-29.3,46.4-29.3,75.8v98.7c0,13.6,10.3,24.8,23,24.8c12.7,0,23.1-11.3,23.1-24.8v-98.7c0-15.8,6.1-30.3,15.8-40.7c4.3-4.7,9.3-8.6,14.8-11.5v167c-18.4,4.7-34.9,14.9-47.8,29C21.3,785,10,812.1,10,841.9v106.6h0.2c0,22.6,17.1,41.2,38.3,41.2l859.7-0.1l3.5,0.3c21.2,0,38.5-18.6,38.5-41.6V755.7c0-29.6-11.4-56.8-29.5-76.3c-14.4-15.5-33.1-26.6-54.1-30.3l6.2-56h17.5c26.5,0,51-11.5,69-30.1l1.3-1.5c18-19.4,29.3-46.4,29.3-75.9V311.6C989.9,282.2,978.6,255.2,960.4,235.6z M546.9,77.1c37.4-11.4,76.9-17.3,117.9-17.3c40.9,0,80.4,5.9,118,17.3c5.1,1.5,10.3,3.3,15.6,5.1H531.2C536.3,80.4,541.6,78.7,546.9,77.1z M173.5,281.9h40.9v168.4h-40.9V281.9z M133.5,499.8h253v216c-2.2,5.6-3.9,11.6-5.1,17.9H133.5V499.8z M903.9,731.8v211.1H46.7V852c0-9.6,5.6-36.9,10.2-43.1c4.7-6.6,12.7-19.2,37-26.8H415c22.2,2.5,32-5.8,34.3-23.2v-27.1c0-9.4,2.8-18.5,7.5-24.9c4.7-6.2,11.1-10.4,18.2-10.4h403.2c7,0,13.5,4.2,17.9,10.4C900.9,713.5,903.9,722.4,903.9,731.8z M867.4,225.8l-0.2,0.5l-0.1,0.6l-46.9,420.8H509.1l-57.4-515.8h425.9L867.4,225.8z M943.9,485.5c0,15.8-6.2,30.5-16,40.9l-0.9,1.1c-9.6,9.9-22.5,15.7-36.8,15.7h-11.9L909.9,258c6.8,2.9,12.9,7.3,17.9,12.8c9.9,10.4,16,25,16,40.8V485.5z"/></g>
</svg>