<?xml version="1.0" encoding="utf-8"?>
<!-- Svg Vector Icons : http://www.onlinewebfonts.com/icon -->
<!DOCTYPE svg PUBLIC "-//W3C//DTD SVG 1.1//EN" "http://www.w3.org/Graphics/SVG/1.1/DTD/svg11.dtd">
<svg version="1.1" xmlns="http://www.w3.org/2000/svg" xmlns:xlink="http://www.w3.org/1999/xlink" x="0px" y="0px" viewBox="0 0 1000 1000" enable-background="new 0 0 1000 1000" xml:space="preserve">
<metadata> Svg Vector Icons : http://www.onlinewebfonts.com/icon </metadata>
<g><g transform="translate(0.000000,511.000000) scale(0.100000,-0.100000)"><path d="M1142.3,4994.8C968.9,4953.7,776,4788.9,698,4613.4c-39-88.9-39-229.7-34.7-4109c6.5-3866.2,8.7-4017.9,47.7-4096c58.5-121.4,197.2-251.4,322.9-312.1c88.9-41.2,149.5-52,281.7-52h166.9v-210.2c0-244.9,49.8-387.9,173.4-489.8c151.7-127.9,177.7-134.4,563.5-134.4c405.3,0,468.1,17.3,606.8,175.5c108.4,123.5,130,199.4,130,442.1v216.7h2037.2h2037.2v-216.7c0-242.7,21.7-318.6,130-442.1c138.7-158.2,201.6-175.5,606.8-175.5c405.3,0,468.1,17.3,606.8,175.5c108.4,123.5,130,199.4,130,440v214.5l190.7,8.7c283.9,10.8,468.1,125.7,583,359.7l60.7,123.5V530.4v3998.5l-58.5,108.4c-69.4,130-188.6,247.1-320.7,316.4l-97.5,52l-3825.1,4.3C2932.4,5010,1181.3,5005.7,1142.3,4994.8z M8851,4609.1c130-62.9,130-75.9,125.7-1291.6l-6.5-1085.8l-3970.3-6.5l-3972.4-4.3v1144.3c0,1261.3-4.3,1218,136.5,1259.1c41.2,10.8,1595,21.7,3840.2,21.7C8554.1,4648.1,8779.4,4645.9,8851,4609.1z M8976.6-795.9c-6.5-2867.2,0-2713.3-119.2-2767.5c-30.3-13-195-23.8-385.8-23.8h-335.9v-400.9v-400.9l-58.5-23.8c-34.7-13-182-19.5-348.9-15.2c-227.5,4.3-292.6,13-307.7,39c-10.8,17.3-21.7,205.9-21.7,418.2v383.6H4993.4H2587.8v-383.6c0-212.4-10.8-400.9-21.7-418.2c-17.3-26-80.2-32.5-346.8-32.5c-266.6,0-329.4,6.5-346.7,32.5c-10.8,17.3-21.7,205.9-21.7,418.2v383.6H1502h-348.9l-62.8,62.9l-62.8,62.8v2657v2657h3976.8H8981L8976.6-795.9z"/><path d="M3708.2,840.3c-8.7-6.5-15.2-778-15.2-1712.1v-1696.9h1300.3h1300.3v1712.1V855.5H5008.5C4299.9,855.5,3714.7,849,3708.2,840.3z M5920.9-860.9l4.3-1339.3h-931.9h-931.9v1328.5c0,732.5,6.5,1337.2,15.2,1343.6c6.5,8.7,424.8,13,925.4,10.8l912.4-6.5L5920.9-860.9z"/><path d="M2488.1,792.7c-195-119.2-229.7-340.2-75.8-487.6c134.4-130,294.7-136.5,420.4-19.5c132.2,125.7,156,253.5,73.7,377.1C2798,823,2626.8,877.2,2488.1,792.7z M2663.6,532.6c15.2-26-26-52-54.2-34.7c-23.8,15.2-8.7,54.2,21.7,54.2C2642,552.1,2655,543.4,2663.6,532.6z"/><path d="M7201.7,784c-95.4-65-171.2-179.9-171.2-260.1c0-86.7,73.7-212.4,162.5-273.1c132.2-88.9,301.2-52,409.6,91c82.4,106.2,88.8,182.1,30.3,296.9C7537.6,823,7353.4,885.8,7201.7,784z M7388.1,532.6c15.2-26-26-52-54.2-34.7c-23.8,15.2-8.7,54.2,21.7,54.2C7366.4,552.1,7379.4,543.4,7388.1,532.6z"/><path d="M2488.1-594.3c-195-119.2-229.7-340.3-78-485.5c140.9-134.4,294.7-143,422.6-21.7c132.2,125.7,156,253.5,73.7,377.1C2798-564,2626.8-509.8,2488.1-594.3z M2663.6-854.4c15.2-26-26-52-54.2-34.7c-23.8,15.2-8.7,54.2,21.7,54.2C2642-834.9,2655-843.6,2663.6-854.4z"/><path d="M7201.7-603c-39-26-95.4-82.4-123.5-123.5c-91-134.4-32.5-325.1,127.9-420.4c130-75.9,292.6-34.7,396.6,101.8c82.4,106.2,88.8,182.1,30.3,296.9C7537.6-564,7353.4-501.2,7201.7-603z M7388.1-854.4c15.2-26-26-52-54.2-34.7c-23.8,15.2-8.7,54.2,21.7,54.2C7366.4-834.9,7379.4-843.6,7388.1-854.4z"/><path d="M2488.1-1981.3c-195-119.2-229.7-340.3-78-485.4c140.9-134.4,294.7-143,422.6-21.7c132.2,125.7,156,253.6,73.7,377.1C2798-1951,2626.8-1896.8,2488.1-1981.3z M2663.6-2241.4c15.2-26-26-52-54.2-34.7c-23.8,15.2-8.7,54.2,21.7,54.2C2642-2221.9,2655-2230.5,2663.6-2241.4z"/><path d="M7201.7-1990c-95.4-65-171.2-179.9-171.2-260.1c0-86.7,73.7-212.4,162.5-273c132.2-88.9,301.2-52,409.6,91c82.4,106.2,88.8,182.1,30.3,296.9C7537.6-1951,7353.4-1888.2,7201.7-1990z M7388.1-2241.4c15.2-26-26-52-54.2-34.7c-23.8,15.2-8.7,54.2,21.7,54.2C7366.4-2221.9,7379.4-2230.5,7388.1-2241.4z"/></g></g>
</svg>