<?xml version="1.0" encoding="utf-8"?>
<!-- Svg Vector Icons : http://www.onlinewebfonts.com/icon -->
<!DOCTYPE svg PUBLIC "-//W3C//DTD SVG 1.1//EN" "http://www.w3.org/Graphics/SVG/1.1/DTD/svg11.dtd">
<svg version="1.1" xmlns="http://www.w3.org/2000/svg" xmlns:xlink="http://www.w3.org/1999/xlink" x="0px" y="0px" viewBox="0 0 1000 1000" enable-background="new 0 0 1000 1000" xml:space="preserve">
<metadata> Svg Vector Icons : http://www.onlinewebfonts.com/icon </metadata>
<g><g transform="translate(0.000000,512.000000) scale(0.100000,-0.100000)"><path d="M2252,4987.5c-241.1-72.7-447.8-308.1-503.3-566.5l-11.5-53.6h-275.6c-264.1,0-275.6-1.9-325.3-47.8c-67-61.2-68.9-164.6-1.9-229.6c42.1-44,59.3-47.8,239.2-47.8h191.4l1.9-80.4c1.9-45.9,7.6-491.8,15.3-991.3c9.6-813.3,15.3-916.6,45.9-974.1c17.2-36.4,32.5-68.9,32.5-72.7c0-1.9-107.2-5.7-237.3-5.7c-223.9,0-237.3-1.9-287.1-47.8c-67-61.2-68.9-164.6-1.9-229.6c42.1-44,59.3-47.8,235.4-47.8h189.5l11.5-290.9c7.7-158.8,13.4-520.5,13.4-801.8c0-459.3,3.8-524.4,36.4-610.5l36.4-95.7h-237.3c-227.7,0-241.1-1.9-285.1-47.8c-32.5-30.6-47.8-67-47.8-114.8s15.3-84.2,47.8-114.8c42.1-44,59.3-47.8,239.2-47.8h191.4l1.9-109.1c28.7-1492.7,24.9-1387.4,72.7-1477.4c63.1-120.6,223.9-275.6,331.1-319.6l91.9-36.4v-1102.3v-1102.3l49.8-51.7l51.7-49.7h2834.2c2196.9,1.9,2841.8,5.7,2864.8,24.9c72.7,55.5,74.6,78.5,74.6,1194.2v1087l89.9,36.4c128.2,53.6,298.5,229.6,348.3,363.6c36.3,99.5,40.2,147.4,40.2,553c0,245,5.7,566.5,13.4,717.6l11.5,271.8h189.5c176.1,0,193.3,3.8,235.4,47.8c65.1,63.1,65.1,166.5,0,229.6c-44,45.9-57.4,47.8-287.1,47.8c-132.1,0-239.2,3.8-239.2,7.7c0,3.8,17.2,44,38.3,89.9c34.4,76.5,38.3,128.2,38.3,602.8c0,285.1,5.7,648.7,13.4,807.6l11.5,290.9h189.5c176.1,0,193.3,3.8,235.4,47.8c67,65.1,65.1,168.4-1.9,229.6c-49.8,45.9-63.2,47.8-287.1,47.8c-130.1,0-237.3,3.8-237.3,5.7c0,3.8,15.3,36.4,34.4,72.7c28.7,57.4,34.4,160.7,44,983.6c7.7,505.2,13.4,951.1,15.3,991.3l1.9,70.8h191.4c179.9,0,197.1,3.8,239.2,47.8c67,65.1,65.1,168.4-1.9,229.6c-49.8,45.9-61.3,47.8-325.3,47.8h-275.6l-11.5,53.6c-55.5,264.1-264.1,495.6-511,568.4C7598.8,5031.5,2387.8,5029.6,2252,4987.5z M7690.6,4669.8c130.1-44,191.4-111,237.3-258.3l11.5-44H5000H2060.6l11.5,44c44,143.5,107.2,214.3,229.6,258.3C2385.9,4700.4,7602.6,4700.4,7690.6,4669.8z M8090.6,3946.4v-76.5H5000H1909.4v76.5v76.5H5000h3090.6V3946.4z M8090.6,2828.8c0-710,0-713.8-44-778.9c-23-36.4-72.7-80.4-109.1-97.6c-63.1-32.5-243-34.4-2937.5-34.4s-2874.4,1.9-2937.5,34.4c-36.4,17.2-86.1,61.2-109.1,97.6c-44,65.1-44,68.9-44,778.9v715.7H5000h3090.6V2828.8z M8090.6,1496.9v-76.5H5000H1909.4v76.5v76.5H5000h3090.6V1496.9z M8090.6,542c0-541.6,0-553.1-44-616.2c-23-36.4-72.7-80.4-109.1-97.6c-63.1-32.5-243-34.4-2937.5-34.4s-2874.4,1.9-2937.5,34.4c-36.4,17.2-86.1,61.2-109.1,97.6c-44,63.1-44,74.6-44,616.2v553H5000h3090.6V542z M8090.6-619.6v-84.2H5000H1909.4v84.2v84.2l3090.6-1.9h3090.6V-619.6z M8090.6-1494.2c0-520.5-9.6-560.7-135.9-629.6c-61.2-32.5-191.4-34.5-2954.7-34.5c-2763.3,0-2893.5,1.9-2954.7,34.5c-126.3,68.9-135.9,109.1-135.9,629.6v465H5000h3090.6V-1494.2z M7612.2-2849.1c0-313.8-3.8-346.4-30.6-334.9c-76.6,28.7-378.9,111-574.1,155c-380.8,84.2-815.2,147.4-1264.9,181.8c-212.4,15.3-266,24.9-325.3,63.1c-258.3,162.7-576,162.7-834.4,0c-59.3-38.3-111-47.8-325.3-63.1c-623.9-47.8-1196-147.4-1739.5-304.3l-130.1-38.3v344.5v342.6H5000h2612.2V-2849.1z M5183.7-3011.7c11.5-5.8-61.3-93.8-162.7-199c-162.7-164.6-183.7-193.3-183.7-254.5c0-99.5,67-170.3,160.8-170.3c67,0,89.9,15.3,262.2,187.5l185.6,185.6l23-84.2c45.9-168.4-9.6-367.4-135.9-491.8c-151.2-147.4-461.2-158.8-646.8-21.1c-74.6,55.5-155,204.8-168.4,321.5c-28.7,246.9,134,488,367.4,545.4C4933-2981.1,5156.9-2994.5,5183.7-3011.7z M4211.6-3270.1c-126.3-430.6,212.4-937.7,677.5-1012.3c327.2-53.6,679.4,145.4,842,472.7c59.3,120.5,70.8,166.5,78.5,298.5c3.8,103.3-3.8,187.5-21,248.8l-28.7,89.9l88-9.6c476.5-55.5,612.4-72.7,840.1-114.8c246.9-45.9,533.9-116.7,799.9-197.1l114.8-34.4l5.7-463.1l3.8-463.1H5000H2387.8l3.8,463.1l5.7,461.2l143.5,45.9c218.2,67,576,153.1,832.5,199c189.5,34.5,713.8,103.3,834.4,111C4236.4-3172.5,4238.4-3180.2,4211.6-3270.1z"/></g></g>
</svg>