<?xml version="1.0" encoding="utf-8"?>
<!-- Svg Vector Icons : http://www.onlinewebfonts.com/icon -->
<!DOCTYPE svg PUBLIC "-//W3C//DTD SVG 1.1//EN" "http://www.w3.org/Graphics/SVG/1.1/DTD/svg11.dtd">
<svg version="1.1" xmlns="http://www.w3.org/2000/svg" xmlns:xlink="http://www.w3.org/1999/xlink" x="0px" y="0px" viewBox="0 0 1000 1000" enable-background="new 0 0 1000 1000" xml:space="preserve">
<metadata> Svg Vector Icons : http://www.onlinewebfonts.com/icon </metadata>
<g><g transform="translate(0.000000,475.000000) scale(0.100000,-0.100000)"><path d="M1116.4,4278.5C787.1,4223,435,3968.4,264.6,3662.2c-149.3-268-153.1-292.9-160.8-1014.5c-7.7-692.9-1.9-736.9,84.2-777.1c30.6-13.4,189.5-21,438.3-21h392.4v-2450v-2450h153.1H1325v2450v2450h1070h1070l7.7-367.5c5.7-352.2,7.7-375.1,55.5-476.6c65.1-139.7,183.8-256.5,321.6-319.6c90-42.1,139.7-51.7,323.5-57.4l214.4-7.7V469.5V318.3h153.1h153.1v153.1v153.1H5000h306.3V471.4V318.3h153.1h153.1v151.2v151.2l216.3,7.7c181.8,5.7,231.6,15.3,321.6,57.4c137.8,63.2,256.5,179.9,321.6,319.6c47.9,101.5,49.8,124.4,55.5,476.6l7.7,367.5h1070h1070v-2450v-2450h153.1h153.1v2450v2450h392.4c248.8,0,407.7,7.6,438.3,21c86.1,40.2,91.9,84.2,84.2,777.1c-5.7,645-7.6,647-57.4,786.7c-72.7,202.9-158.9,338.8-312,491.9s-289,237.3-491.9,312l-139.7,51.7l-3837.7,1.9C2862,4293.8,1175.7,4288,1116.4,4278.5z M8889.4,3972.2c325.4-68.9,587.6-325.4,675.7-658.4c23-88.1,28.7-227.8,28.7-635.5v-522.5H5000H406.2v522.5c0,564.6,11.5,650.8,107.2,840.3c105.3,206.7,325.4,379,564.6,444c88.1,24.9,648.9,28.7,3906.6,28.7C7712.2,3993.3,8816.6,3987.6,8889.4,3972.2z M6221.2,1478.2c-5.7-340.7-9.6-377.1-45.9-426.8c-90-122.5-67-120.6-1175.2-120.6c-1108.2,0-1085.3-1.9-1175.2,120.6c-36.4,49.8-40.2,86.1-45.9,426.8l-5.7,371.3H5000h1226.9L6221.2,1478.2z"/><path d="M3553,3664.1c-76.6-36.4-84.2-91.9-84.2-589.5c0-505.3,7.7-553.2,90-591.5c32.5-15.3,459.4-21,1441.3-21c981.9,0,1408.7,5.7,1441.3,21c82.3,38.3,90,86.1,90,591.5c0,505.3-7.7,553.1-90,591.4C6380,3694.7,3612.3,3692.8,3553,3664.1z M6225,3074.6v-306.3H5000H3775v306.3v306.3h1225h1225V3074.6z"/><path d="M1631.2,3074.6v-153.1h153.1h153.1v153.1v153.1h-153.1h-153.1V3074.6z"/><path d="M2243.7,3074.6v-153.1h153.1H2550v153.1v153.1h-153.1h-153.1V3074.6z"/><path d="M2856.2,3074.6v-153.1h153.1h153.1v153.1v153.1h-153.1h-153.1V3074.6z"/><path d="M6837.5,3074.6v-153.1h153.1h153.1v153.1v153.1h-153.1h-153.1V3074.6z"/><path d="M7450,3074.6v-153.1h153.1h153.1v153.1v153.1h-153.1H7450V3074.6z"/><path d="M8062.5,3074.6v-153.1h153.1h153.1v153.1v153.1h-153.1h-153.1V3074.6z"/><path d="M3553-317.2c-88.1-42.1-99.5-141.7-65.1-522.5c53.6-597.2,229.7-1299.7,440.2-1764.8c32.5-68.9,57.4-128.3,57.4-132.1c0-1.9-187.6-7.6-417.3-11.5l-417.3-5.7l-145.5-72.7c-179.9-88.1-312-225.9-390.5-403.9l-53.6-126.3H1397.7c-811.6,0-1175.2-5.7-1207.8-21c-26.8-11.5-57.4-42.1-68.9-68.9c-26.8-59.3-26.8-379,0-432.6c11.5-23,168.4-191.4,348.4-371.3l329.2-331.1H448.4H100V-4687v-105.3h4900h4900v105.3v105.3h-348.4h-350.3l329.2,331.1c179.9,179.9,336.9,348.4,348.4,371.3c26.8,53.6,26.8,373.2,0,432.6c-11.5,26.8-42.1,57.4-68.9,68.9c-32.5,15.3-396.2,21-1207.8,21H7438.5l-53.6,126.3c-78.5,178-210.5,315.8-390.5,403.9l-145.5,72.7l-419.2,5.7c-308.2,5.7-415.4,13.4-407.7,28.7c99.5,231.6,147.4,352.2,181.8,459.4l44,128.2h250.7c225.8,0,262.2,5.7,348.4,45.9c114.8,55.5,204.8,145.5,256.5,260.3c34.4,76.6,40.2,124.4,40.2,459.4c0,352.2-3.8,379-45.9,468.9C7044.2-782.3,6908.3-654,6803-623.4c-42.1,13.4-118.7,23-174.2,23h-97.6v86.1c0,105.3-28.7,172.3-90,199C6380-286.6,3612.3-288.5,3553-317.2z M6225-646.4c0-86.1-40.2-442.1-68.9-614.4c-68.9-405.8-197.2-840.3-373.2-1249.9l-99.5-233.5H5000h-683.3l-101.4,235.4c-172.3,400-302.4,842.2-371.3,1248c-28.7,172.3-68.9,528.3-68.9,614.4v45.9h1225h1225V-646.4z M6799.2-945c36.4-36.4,38.3-63.2,38.3-421.1c0-482.3,15.3-459.4-289-459.4c-191.4,0-210.5,3.8-201,34.5c53.6,183.7,145.5,668,145.5,769.5c0,103.3,13.4,114.8,145.5,114.8C6736.1-906.7,6768.6-914.4,6799.2-945z M6843.2-3071.5c107.2-28.7,281.4-201,281.4-275.6c0-5.7-955.1-9.6-2124.6-9.6c-1167.6,0-2124.6,3.8-2124.6,9.6c0,30.6,61.3,122.5,120.6,178c126.3,122.5,42.1,116.8,1994.5,118.7C6188.6-3050.4,6793.5-3058.1,6843.2-3071.5z M9593.7-3705.1c0-30.6-122.5-164.6-415.4-459.4l-417.3-417.3H5000H1238.9l-415.4,415.4c-296.7,296.7-417.3,428.7-417.3,459.4v44H5000h4593.7V-3705.1z"/><path d="M4081.2-4122.3v-153.1H5000h918.8v153.1v153.1H5000h-918.8V-4122.3z"/></g></g>
</svg>