<?xml version="1.0" encoding="utf-8"?>
<!-- Svg Vector Icons : http://www.onlinewebfonts.com/icon -->
<!DOCTYPE svg PUBLIC "-//W3C//DTD SVG 1.1//EN" "http://www.w3.org/Graphics/SVG/1.1/DTD/svg11.dtd">
<svg version="1.1" xmlns="http://www.w3.org/2000/svg" xmlns:xlink="http://www.w3.org/1999/xlink" x="0px" y="0px" viewBox="0 0 1000 1000" enable-background="new 0 0 1000 1000" xml:space="preserve">
<metadata> Svg Vector Icons : http://www.onlinewebfonts.com/icon </metadata>
<g><g transform="translate(0.000000,511.000000) scale(0.100000,-0.100000)"><path d="M1668.1,4986.6c-328.5-69.3-668.8-336.4-819.2-641.1c-77.2-158.3-130.6-368.1-130.6-514.5c0-275.1,142.5-611.5,346.3-825.2l128.6-134.6v-746v-748H933.9c-146.4,0-296.8-9.9-342.3-23.8c-116.7-35.6-294.8-215.7-324.5-332.4c-13.9-55.4-51.5-979.5-102.9-2503.2c-63.3-1939.3-75.2-2430-55.4-2491.3c25.7-83.1,160.3-245.4,241.4-286.9c51.5-27.7,51.5-29.7,51.5-283v-253.3h633.2h633.2v237.5v237.5h2770.4h2770.4v-237.5v-237.5H7842h633.2v233.5v233.5l102.9,27.7c148.4,37.6,314.6,203.8,352.2,352.2l27.7,102.9h471h471v949.8v949.8h-502.6h-504.6l-9.9,102.9c-5.9,57.4-13.8,235.5-17.8,397.7l-5.9,290.9h221.6c243.4,0,304.7,15.8,391.8,95c79.2,75.2,110.8,160.3,110.8,300.8c0,140.5-31.7,225.6-110.8,300.8c-87.1,81.1-148.4,95-401.7,95h-233.5l-13.9,271.1c-5.9,150.4-15.8,443.2-21.8,649.1c-13.9,476.9-25.7,524.4-166.2,662.9c-140.5,140.5-203.8,158.3-534.3,158.3H7842v748v746l124.7,130.6c146.4,154.3,257.2,354.2,310.7,564c47.5,182.1,49.5,304.8,9.9,492.7c-47.5,229.5-150.4,411.6-334.4,593.6c-182,182.1-330.4,269.1-556,326.5c-146.4,37.6-235.5,39.6-2875.3,37.6C2275.6,5014.3,1774.9,5010.3,1668.1,4986.6z M4462.2,4679.8c253.3-53.4,484.8-225.6,589.7-439.3c193.9-399.7,81.1-872.7-265.2-1112.1l-110.8-75.2v-839v-837H3092.8H1509.8v837l-2,835.1l-108.8,75.2c-217.7,152.4-342.3,376-360.1,651c-25.7,429.4,221.6,783.6,629.3,898.4C1788.8,4707.6,4305.8,4711.5,4462.2,4679.8z M7361.2,4673.9c320.6-85.1,542.2-314.6,619.4-641.1c33.6-144.5,15.8-381.9-37.6-524.4c-57.4-146.4-170.2-288.9-306.7-383.9l-108.8-75.2l-2-835.1v-837H6259H4992.5v744v744l136.5,144.5c425.4,459.1,451.2,1086.4,59.4,1569.2l-98.9,122.7h1084.4C7030.7,4701.6,7280,4695.7,7361.2,4673.9z M8435.7,1021c21.8-21.8,39.6-49.5,39.6-61.4c0-85.1,118.7-3615.3,126.7-3793.4l11.9-221.6H4517.6H419.4l11.9,233.5c9.9,178.1,128.6,3704.4,128.6,3785.5c0,9.9,17.8,35.6,39.6,57.4c39.6,39.6,65.3,39.6,3918.1,39.6C8370.4,1060.6,8396.1,1060.6,8435.7,1021z M9266.8-760v-79.1H9059h-207.8v79.1v79.2H9059h207.8V-760z M9583.4-2897.1v-633.2h-324.5h-324.5l-11.9,490.7c-7.9,269.1-17.8,554.1-23.7,633.2l-11.9,142.5h348.3h348.3V-2897.1z M8621.7-3463c5.9-51.5,11.9-176.1,11.9-277c0-160.3-5.9-192-39.6-225.6c-39.6-39.6-65.3-39.6-4076.4-39.6c-4011.1,0-4036.8,0-4076.4,39.6c-33.6,33.7-39.6,65.3-39.6,225.6c0,100.9,5.9,225.6,11.9,277l13.8,91h4090.2h4090.3L8621.7-3463z M1351.4-4401v-79.2h-316.6H718.2v79.2v79.1h316.6h316.6V-4401z M8158.6-4401v-79.2H7842h-316.6v79.2v79.1H7842h316.6V-4401z"/><path d="M3567.7-2580.5v-158.3h474.9h474.9v158.3v158.3h-474.9h-474.9V-2580.5z"/><path d="M4834.2-2580.5v-158.3h158.3h158.3v158.3v158.3h-158.3h-158.3V-2580.5z"/></g></g>
</svg>