<?xml version="1.0" encoding="utf-8"?>
<!-- Svg Vector Icons : http://www.onlinewebfonts.com/icon -->
<!DOCTYPE svg PUBLIC "-//W3C//DTD SVG 1.1//EN" "http://www.w3.org/Graphics/SVG/1.1/DTD/svg11.dtd">
<svg version="1.1" xmlns="http://www.w3.org/2000/svg" xmlns:xlink="http://www.w3.org/1999/xlink" x="0px" y="0px" viewBox="0 0 1000 1000" enable-background="new 0 0 1000 1000" xml:space="preserve">
<metadata> Svg Vector Icons : http://www.onlinewebfonts.com/icon </metadata>
<g><g transform="translate(0.000000,511.000000) scale(0.100000,-0.100000)"><path d="M4354.6,5004.3c-736.5-61.4-1445.3-231.6-2110.5-504.8c-168.3-71.3-302.9-140.6-374.2-196c-134.6-104.9-257.4-285.1-304.9-441.5l-35.6-116.8l-101-23.8c-388-91.1-736.5-439.5-827.6-827.6c-21.8-97-29.7-102.9-148.5-164.3c-140.6-73.3-217.8-154.4-298.9-304.9l-53.5-103v-544.4v-544.4l67.3-124.7c77.2-140.6,156.4-219.8,299-291l99-49.5v-1966c0-1651.2,5.9-1985.7,29.7-2100.6c77.2-364.3,350.4-714.7,685-879c93-45.5,219.8-95,281.1-106.9l112.9-23.8v-243.5v-243.5h633.5H2941v237.6v237.6h2059h2059v-237.6v-237.6h633.5h633.5v243.5v243.5l112.9,23.8c336.6,71.3,692.9,354.4,853.3,679.1c146.5,297,142.5,207.9,142.5,2407.5v1964l118.8,63.4c136.6,73.2,213.8,152.4,293,300.9l53.5,102.9v544.4v544.4l-53.5,103c-81.2,150.5-158.4,231.6-298.9,304.9c-118.8,61.4-126.7,67.3-148.5,164.3c-91.1,386.1-439.5,736.5-825.6,827.6c-99,23.8-101,23.8-136.6,140.6c-51.5,160.4-174.2,336.6-306.9,441.5c-166.3,130.7-716.7,348.4-1219.5,483.1c-607.8,162.3-1035.4,217.8-1781.8,227.7C4813.9,5018.2,4465.5,5014.2,4354.6,5004.3z M5692.9,4687.5c647.4-59.4,1288.8-213.8,1886.7-453.4c249.5-101,380.1-172.2,449.4-251.4c55.4-63.3,118.8-178.2,118.8-215.8c0-5.9-85.1-9.9-188.1-9.9c-106.9,0-188.1,7.9-188.1,19.8c0,51.5-633.5,295-1053.3,403.9c-546.4,142.5-883,188.1-1500.7,203.9c-865.2,21.8-1538.3-65.3-2257-295c-261.3-83.1-659.3-247.5-708.8-295c-35.6-31.7-71.3-37.6-221.7-37.6c-97,0-178.2,4-178.2,9.9c0,37.6,63.4,152.5,118.8,215.8c73.3,83.2,200,152.4,489,267.3c570.2,225.7,1233.4,384.1,1827.3,435.6C4564.4,4709.3,5431.6,4709.3,5692.9,4687.5z M5989.9,4016.4c285.1-43.6,750.4-152.5,930.5-217.8l108.9-39.6H5000H2970.7l108.9,39.6c277.2,101,916.6,227.7,1306.7,263.3c49.5,4,370.2,4,712.7,2C5613.7,4059.9,5770.1,4050,5989.9,4016.4z M8553.7,3410.6c150.5-37.6,312.8-148.5,409.8-277.2c128.7-170.3,140.6-225.7,150.5-696.9l7.9-421.7H5002H882V2387c0,203.9,9.9,407.8,19.8,455.4c65.3,281.1,271.2,493,554.3,570.2c69.3,19.8,859.2,25.7,3533.9,25.7C8017.2,3440.3,8450.8,3436.3,8553.7,3410.6z M565.3,1777.2c0-370.2-7.9-673.1-15.8-673.1c-27.7,0-99,85.1-120.8,144.5c-29.7,75.2-29.7,982,0,1057.2c21.8,59.4,93,144.5,120.8,144.5C557.3,2450.4,565.3,2147.5,565.3,1777.2z M9510,2406.8c75.2-81.2,83.2-142.5,83.2-629.6c0-287.1-7.9-495-21.8-528.6c-21.8-59.4-93-144.5-120.8-144.5c-7.9,0-15.8,302.9-15.8,673.1c0,370.2,7.9,673.1,15.8,673.1C9460.5,2450.4,9486.2,2430.6,9510,2406.8z M9118-743.1c0-2128.3-4-2455-29.7-2557.9c-89.1-338.5-336.6-584-677.1-673.1c-170.3-45.5-6652.1-45.5-6822.4,0c-340.5,89.1-588,334.6-677.1,673.1C886-3198,882-2871.3,882-743.1V1698h4118h4118V-743.1z M2624.2-4399.8v-79.2h-316.8h-316.8v79.2v79.2h316.8h316.8V-4399.8z M8009.3-4399.8v-79.2h-316.8h-316.8v79.2v79.2h316.8h316.8V-4399.8z"/><path d="M3752.7,563.6c-99-31.7-283.1-221.7-312.8-322.7c-47.5-162.3-21.8-1160.2,47.5-1868.9c57.4-592,180.2-1360.1,235.6-1465.1c45.5-89.1,150.5-182.1,259.4-231.6l102.9-47.5l938.4,5.9c861.2,5.9,942.4,7.9,1009.7,41.6c97,49.5,211.8,162.4,245.5,243.5c57.4,138.6,178.2,879,233.6,1453.2c69.3,689,95,1708.6,47.5,1868.9c-31.7,108.9-215.8,293-324.7,324.7C6126.5,597.3,3855.7,595.3,3752.7,563.6z M6227.5,233c37.6-37.6,39.6-65.3,39.6-475.2v-435.6H5000H3732.9v435.6c0,409.8,2,437.5,39.6,475.2c39.6,39.6,65.3,39.6,1227.5,39.6C6162.1,272.6,6187.9,272.6,6227.5,233z M6247.3-1048c0-132.6-65.3-778.1-108.9-1094.8c-73.3-516.7-136.6-823.6-178.2-871.1c-35.6-37.6-59.4-39.6-960.2-39.6c-1065.1,0-974.1-19.8-1023.6,211.8c-79.2,384.1-184.1,1180-215.8,1645.2l-13.9,201.9H4998h1249.3V-1048z"/><path d="M4049.7-202.6V-361h316.8h316.8v158.4v158.4h-316.8h-316.8V-202.6z"/><path d="M5316.8-202.6V-361h316.8h316.8v158.4v158.4h-316.8h-316.8V-202.6z"/><path d="M4574.3-1339c-73.3-33.7-158.4-122.8-186.1-196c-13.9-33.7-21.8-233.6-21.8-494.9c0-495,7.9-524.6,144.5-635.5l77.2-61.4H5000h411.8l75.2,59.4c140.6,114.8,146.5,142.5,146.5,643.4c0,502.9-5.9,530.6-144.5,641.5l-77.2,61.4l-388,4C4726.8-1313.2,4619.9-1317.2,4574.3-1339z M5316.8-1786.4v-158.4H5000h-316.8v158.4v158.4H5000h316.8V-1786.4z M5316.8-2340.8v-79.2H5000h-316.8v79.2v79.2H5000h316.8V-2340.8z"/></g></g>
</svg>