<?xml version="1.0" encoding="utf-8"?>
<!-- Svg Vector Icons : http://www.onlinewebfonts.com/icon -->
<!DOCTYPE svg PUBLIC "-//W3C//DTD SVG 1.1//EN" "http://www.w3.org/Graphics/SVG/1.1/DTD/svg11.dtd">
<svg version="1.1" xmlns="http://www.w3.org/2000/svg" xmlns:xlink="http://www.w3.org/1999/xlink" x="0px" y="0px" viewBox="0 0 1000 1000" enable-background="new 0 0 1000 1000" xml:space="preserve">
<metadata> Svg Vector Icons : http://www.onlinewebfonts.com/icon </metadata>
<g><g transform="translate(0.000000,443.000000) scale(0.100000,-0.100000)"><path d="M705.3,3652c-216.3-51.7-428.7-231.6-534-453.6L110,3070.2l-5.7-543.6c-7.7-579.9,0-629.7,84.2-669.9c32.5-13.4,227.8-21,589.5-21h541.7l9.6-162.7c19.1-300.5,179.9-539.7,453.6-675.6l143.5-70.8l388.5-5.7l388.5-7.7v155v155h-350.3c-415.3,0-488.1,17.2-604.8,143.6c-88,95.7-116.8,181.8-116.8,350.3v118.7h1531.2H4694V1717c0-67-9.6-155-21.1-197.1c-28.7-101.4-174.2-246.9-275.6-275.6c-47.9-13.4-292.8-21-664.2-21c-390.4,0-602.9-7.7-633.5-21.1c-80.4-36.3-90-89.9-90-505.3V304.5H1622.1c-989.5,0-1399.1-5.7-1433.6-21.1c-84.2-38.3-97.6-109.1-72.7-373.2c28.7-310,65.1-484.2,158.9-761.8c266-788.6,807.7-1441.2,1542.7-1862.3l72.7-42.1l-826.8-1.9c-562.7,0-842.1-7.7-872.8-21.1c-26.8-11.5-57.4-42.1-68.9-68.9c-28.7-63.2-28.7-1288.1,0-1351.2c34.4-74.6,95.7-90,352.2-90h239.2v-153.1v-153.1H406.7H100.5v-105.3v-105.3h4899.8H9900v105.3v105.3h-306.2h-306.2v153.1v153.1h239.2c260.3,0,321.5,15.3,354.1,93.8c13.4,36.4,19.1,903.4,13.4,3035.5c-5.7,2698.7-9.6,2997.3-38.3,3112.1c-109.1,442.1-302.4,790.5-606.7,1089.1c-296.7,294.7-631.6,478.5-1069.9,587.6c-114.8,28.7-449.8,32.5-3762.9,36.4C2246,3667.4,749.3,3661.6,705.3,3652z M8192.7,3322.8c599.1-164.6,1064.2-562.7,1267.1-1085.2c132.1-344.5,122.5-151.2,128.2-2693l7.6-2302.5h-767.5h-765.6V-2911v-153.1h765.6h765.6v-459.4v-459.3H5000.2H406.7v459.3v459.4h3521.7h3521.7v153.1v153.1h-432.5H6585l11.5,42.1c5.7,24.9,199,675.6,432.5,1448.8L7450.1,138v568.5c0,313.9-9.6,614.4-19.1,671.8c-65.1,340.7-354.1,645-698.6,735c-99.5,24.9-491.9,28.7-3219.3,28.7H406.7v426.8c0,245,9.6,455.5,21.1,499.5c26.8,95.7,158.9,235.4,256.5,269.9c65.1,23,608.6,26.8,3732.2,23C7800.4,3357.3,8081.7,3353.5,8192.7,3322.8z M6801.3,1785.9c114.8-53.6,239.2-178,292.9-292.8c38.3-84.2,40.2-120.6,45.9-704.3l5.7-618.2l-434.5-1448.9c-239.2-798.1-440.2-1456.5-446-1466.1c-7.6-7.7-419.2-11.5-916.8-9.6l-901.5,5.7l156.9,93.8c237.3,141.6,424.9,287.1,627.8,490c568.4,566.5,903.4,1274.7,978,2069c24.9,271.8,11.5,340.7-72.7,379c-34.5,15.3-444,21.1-1433.6,21.1H3315.9v304.3V915l541.7,5.8l539.7,5.7l128.2,61.3c178,84.2,306.2,210.5,390.4,380.9c57.4,114.8,70.8,164.6,78.5,302.4l11.5,166.5l853.6-5.7C6686.4,1826.1,6715.1,1824.2,6801.3,1785.9z M5909.4-110.8c-5.7-61.3-15.3-130.1-21-153.1l-7.7-44H3756.2H1631.7v-153.1v-153.1h2093.9h2093.9l-19.1-70.8c-40.2-155-172.3-463.2-266-627.8C5118.9-2042,4454.8-2539.7,3658.5-2711.9c-227.8-49.8-763.7-49.8-991.4,0C1870.9-2539.7,1206.7-2042,791.4-1312.8C697.6-1148.2,565.6-840,525.4-685l-19.1,70.8h409.6h409.6v153.1V-308H887.1c-243.1,0-444,5.7-447.9,15.3c-3.8,7.7-15.3,76.6-21.1,153.1L404.8-1.7h2758h2758L5909.4-110.8z M1937.9-4442.1v-153.1h-459.4h-459.4v153.1v153.1h459.4h459.4V-4442.1z M7756.4-4442.1v-153.1H5000.2H2244.1v153.1v153.1h2756.1h2756.1V-4442.1z M8981.3-4442.1v-153.1h-459.4h-459.4v153.1v153.1h459.4h459.4V-4442.1z"/><path d="M7993.7,2118.9c-23-9.6-51.7-40.2-63.2-65.1c-28.7-63.2-28.7-679.5,0-740.7c38.3-82.3,86.1-90,591.4-90c308.1,0,493.8,7.6,522.5,21c78.5,36.4,90,93.8,90,438.3s-11.5,401.9-90,438.3C8985.1,2147.6,8051.1,2147.6,7993.7,2118.9z M8828.2,1682.6v-153.1h-306.2h-306.2v153.1v153.1h306.2h306.2V1682.6z"/><path d="M7909.5,763.9V610.7h229.7h229.7v153.1V917h-229.7h-229.7V763.9z"/><path d="M8675.1,763.9V610.7h229.7h229.7v153.1V917h-229.7h-229.7V763.9z"/><path d="M7909.5,151.4V-1.7h229.7h229.7v153.1v153.1h-229.7h-229.7V151.4z"/><path d="M8675.1,151.4V-1.7h229.7h229.7v153.1v153.1h-229.7h-229.7V151.4z"/><path d="M8395.6-784.6c-95.7-24.9-254.6-120.6-315.8-187.6c-30.6-36.4-76.6-107.2-103.4-158.9l-47.9-95.7h-162.7h-162.7v-153.1v-153.1H7764h162.7l61.2-114.8c70.8-132.1,147.4-206.7,290.9-281.4s344.5-72.7,488.1,0c128.2,67,237.3,176.1,304.3,304.3c72.7,143.6,74.6,344.5,0,488.1c-72.7,141.6-149.3,220.1-279.5,289C8671.2-782.6,8504.7-755.8,8395.6-784.6z M8709.5-1123.3c84.2-63.2,122.5-155,112.9-281.3c-11.5-191.4-126.3-289-325.4-275.6c-191.4,11.5-289,126.3-275.6,325.4c7.7,126.3,49.8,197.1,149.3,248.8C8456.9-1060.2,8634.9-1069.7,8709.5-1123.3z"/></g></g>
</svg>