<?xml version="1.0" encoding="utf-8"?>
<!-- Svg Vector Icons : http://www.onlinewebfonts.com/icon -->
<!DOCTYPE svg PUBLIC "-//W3C//DTD SVG 1.1//EN" "http://www.w3.org/Graphics/SVG/1.1/DTD/svg11.dtd">
<svg version="1.1" xmlns="http://www.w3.org/2000/svg" xmlns:xlink="http://www.w3.org/1999/xlink" x="0px" y="0px" viewBox="0 0 1000 1000" enable-background="new 0 0 1000 1000" xml:space="preserve">
<metadata> Svg Vector Icons : http://www.onlinewebfonts.com/icon </metadata>
<g><g><g><g><path d="M389.6,376.6c-7-6.3-17.8-5.8-24.1,1.2c-6.3,7-5.8,17.8,1.2,24.1c30.4,27.5,8.1,63.3,5.9,66.6c-31.3,41.8-7.1,83.7,10.1,100c3.3,3.1,7.5,4.7,11.7,4.7c4.5,0,9-1.8,12.3-5.3c6.5-6.8,6.3-17.6-0.5-24.1c-2.8-2.8-26.8-27.4-5.9-55.4C415.3,466.5,432.2,415.1,389.6,376.6z"/><path d="M505.6,376.6c-7-6.3-17.8-5.8-24.1,1.2c-6.3,7-5.8,17.8,1.2,24.1c30.4,27.5,8.1,63.3,5.9,66.6c-31.4,41.8-7.2,83.7,10,100c3.3,3.1,7.5,4.7,11.8,4.7c4.5,0,9.1-1.8,12.4-5.3c6.5-6.9,6.2-17.7-0.6-24.1c-1.1-1.1-27.3-26.5-5.8-55.3C531.2,466.5,548.1,415.1,505.6,376.6z"/><path d="M621.6,376.6c-7-6.3-17.8-5.8-24.1,1.2c-6.3,7-5.8,17.8,1.2,24.1c30.4,27.5,8.1,63.3,5.9,66.6c-31.3,41.8-7.1,83.7,10.1,100c3.3,3.1,7.5,4.7,11.8,4.7c4.5,0,9.1-1.8,12.4-5.3c6.5-6.9,6.2-17.7-0.6-24.1c-1.1-1.1-27.3-26.5-5.8-55.3C647.2,466.5,664,415.1,621.6,376.6z"/><path d="M911.2,117.7H663.3l-58.4-83.9c-3.2-4.6-8.4-7.3-14-7.3H408.5c-5.3,0-10.3,2.5-13.6,6.7l-58.4,76.2c-1.9,2.5-2.8,5.4-3.1,8.3H88.8c-43.4,0-78.8,35.4-78.8,78.8v515.8c0,43.5,35.4,78.8,78.8,78.8h145.7l26.8,135c8.5,29.3,31.4,47.5,59.7,47.5h185.4h6.7h185.4c28.3,0,51.2-18.2,60-48.8L785,791.1h126.2c43.5,0,78.8-35.3,78.8-78.8V196.5C990,153.1,954.6,117.7,911.2,117.7z M416.9,60.6h165l39.7,57.1H373.2L416.9,60.6z M88.8,155.7h822.4c19.9,0,36.4,14.3,40.1,33.1H48.7C52.4,169.9,68.9,155.7,88.8,155.7z M729,917.6c-4.7,16.2-15.9,25.6-30.5,25.6H513.1h-6.7H321c-14.7,0-25.8-9.3-30.2-24.3l-25.3-127.8h45l16.1,85.4c1,17,17.4,30.1,38.1,30.1h142.7h4.8h142.7c20.8,0,37.2-13.1,38.2-30.1l16.1-85.4h45L729,917.6z M341.3,791.2h336.8l-15.2,82.4c-0.5,0.7-3.3,2.7-8.1,2.7H512.1h-4.8H364.6c-4.8,0-7.6-2.1-7.8-1.4L341.3,791.2z M911.2,753.2H88.8c-22.5,0-40.8-18.3-40.8-40.9V226.7H952v485.6C952,734.9,933.7,753.2,911.2,753.2z"/></g></g></g><g></g><g></g><g></g><g></g><g></g><g></g><g></g><g></g><g></g><g></g><g></g><g></g><g></g><g></g><g></g></g>
</svg>