<?xml version="1.0" encoding="utf-8"?>
<!-- Svg Vector Icons : http://www.onlinewebfonts.com/icon -->
<!DOCTYPE svg PUBLIC "-//W3C//DTD SVG 1.1//EN" "http://www.w3.org/Graphics/SVG/1.1/DTD/svg11.dtd">
<svg version="1.1" xmlns="http://www.w3.org/2000/svg" xmlns:xlink="http://www.w3.org/1999/xlink" x="0px" y="0px" viewBox="0 0 1000 1000" enable-background="new 0 0 1000 1000" xml:space="preserve">
<metadata> Svg Vector Icons : http://www.onlinewebfonts.com/icon </metadata>
<g><g transform="translate(0.000000,511.000000) scale(0.100000,-0.100000)"><path d="M544,3730.1c-174-30-310-134-398-300l-46-90v-2880v-2880l50-96c58-116,154-204,278-260c82-38,142-44,508-50l414-8v-286c0-254,4-290,40-336c50-62,130-84,204-52c98,40,116,104,116,408v270h3290h3290v-288c0-256,4-292,40-338c22-28,66-56,98-64c68-14,170,30,202,88c10,22,20,164,20,318v280l416,8c362,8,426,14,506,50c116,52,230,166,286,284l42,92v2860v2860l-56,114c-58,120-156,212-288,272c-72,32-346,34-4496,36C2630,3744.1,598,3738.1,544,3730.1z M7150,460.1v-2910H3864c-3590,0-3340-8-3392,114c-16,42-22,772-18,2832l6,2778l56,48l56,48h3290h3288V460.1z M9480,3320.1l50-48v-2812v-2812l-52-48l-54-50h-946h-948v2910v2910h950h952L9480,3320.1z"/><path d="M980,2926.1c-22-12-50-38-64-54c-36-46-36-4778,0-4824c60-80,20-78,2902-78h2790l56,48l56,48v2394v2394l-56,48l-56,48H3814C1750,2948.1,1010,2942.1,980,2926.1z M6350,2010.1v-580H3800H1250v580v580h2550h2550V2010.1z M6350,460.1v-590H3800H1250v590v590h2550h2550V460.1z M6350-1089.9v-580H3800H1250v580v580h2550h2550V-1089.9z"/><path d="M8310,2512.1c-172-56-336-198-422-362c-40-76-48-120-48-280c0-228,44-336,194-484c122-120,268-176,456-176s334,56,456,176c150,148,194,256,194,484c0,166-8,202-54,290c-66,128-180,240-306,306c-78,40-136,52-260,56C8432,2526.1,8338,2522.1,8310,2512.1z M8620,2130.1c280-136,180-560-130-560s-408,422-132,560C8460,2180.1,8516,2180.1,8620,2130.1z"/><path d="M8310-355.9c-176-50-332-182-422-358c-66-128-76-370-20-518c60-158,176-282,338-362c114-56,152-66,284-66s170,10,284,66c162,80,278,204,338,362c56,148,46,390-20,518c-66,130-192,256-312,314C8654-337.9,8444-317.9,8310-355.9z M8648-747.9c242-174,140-542-152-542c-276,0-406,318-210,506C8388-685.9,8542-669.9,8648-747.9z"/></g></g>
</svg>