<?xml version="1.0" encoding="utf-8"?>
<!-- Svg Vector Icons : http://www.onlinewebfonts.com/icon -->
<!DOCTYPE svg PUBLIC "-//W3C//DTD SVG 1.1//EN" "http://www.w3.org/Graphics/SVG/1.1/DTD/svg11.dtd">
<svg version="1.1" xmlns="http://www.w3.org/2000/svg" xmlns:xlink="http://www.w3.org/1999/xlink" x="0px" y="0px" viewBox="0 0 1000 1000" enable-background="new 0 0 1000 1000" xml:space="preserve">
<metadata> Svg Vector Icons : http://www.onlinewebfonts.com/icon </metadata>
<g><g transform="translate(0.000000,363.000000) scale(0.100000,-0.100000)"><path d="M186.1,2080.6c-23-9.6-51.7-40.2-63.2-65.1c-30.6-67-30.6-6187,0-6252c36.3-80.4,89.9-89.9,505.2-89.9h392.3v-153.1v-153.1H561.2H101.9v-105.2v-105.3h4899h4899v105.3v105.2h-459.3h-459.3v153.1v153.1h392.3c415.3,0,468.8,9.6,505.2,89.9c15.3,32.5,21,909,21,3125c0,2216-5.7,3092.5-21,3125.1c-11.5,26.8-42.1,57.4-68.9,68.9C9746.9,2111.2,245.4,2109.3,186.1,2080.6z M9593.8-1111.4v-2908.8H5001H408.1v2908.8v2908.8H5001h4592.9V-1111.4z M1632.9-4479.5v-153.1h-153.1h-153.1v153.1v153.1h153.1h153.1V-4479.5z M8062.9-4479.5v-153.1H5001H1939.1v153.1v153.1H5001h3061.9V-4479.5z M8675.2-4479.5v-153.1h-153.1h-153.1v153.1v153.1h153.1h153.1V-4479.5z"/><path d="M798.5,1468.2c-23-9.6-51.7-40.2-63.1-65.1c-30.6-67-30.6-4962.2,0-5027.3c11.5-26.8,42.1-57.4,68.9-68.9c65.1-30.6,6491.2-30.6,6556.3,0c26.8,11.5,57.4,42.1,68.9,68.9c30.6,65,30.6,4960.3,0,5025.3c-11.5,26.8-42.1,57.4-68.9,68.9C7297.4,1498.8,857.8,1496.9,798.5,1468.2z M7144.3-1111.4v-2296.4H4082.4H1020.5v2296.4V1185h3061.9h3061.9V-1111.4z"/><path d="M1479.8,419.5V266.4h153.1H1786v153.1v153.1h-153.1h-153.1V419.5z"/><path d="M2092.1,419.5V266.4h153.1h153.1v153.1v153.1h-153.1h-153.1V419.5z"/><path d="M2704.5,419.5V266.4h153.1h153.1v153.1v153.1h-153.1h-153.1V419.5z"/><path d="M3316.9,419.5V266.4H3470h153.1v153.1v153.1H3470h-153.1V419.5z"/><path d="M3929.3,419.5V266.4h153.1h153.1v153.1v153.1h-153.1h-153.1V419.5z"/><path d="M4541.7,419.5V266.4h153.1h153.1v153.1v153.1h-153.1h-153.1V419.5z"/><path d="M5154.1,419.5V266.4h153.1h153.1v153.1v153.1h-153.1h-153.1V419.5z"/><path d="M5766.4,419.5V266.4h153.1h153.1v153.1v153.1h-153.1h-153.1V419.5z"/><path d="M6531.9-1111.4v-1377.9H6685h153.1v1377.9V266.4H6685h-153.1V-1111.4z"/><path d="M1479.8-192.9V-346h153.1H1786v153.1v153.1h-153.1h-153.1V-192.9z"/><path d="M2092.1-192.9V-346h153.1h153.1v153.1v153.1h-153.1h-153.1V-192.9z"/><path d="M2704.5-192.9V-346h153.1h153.1v153.1v153.1h-153.1h-153.1V-192.9z"/><path d="M3316.9-192.9V-346H3470h153.1v153.1v153.1H3470h-153.1V-192.9z"/><path d="M3929.3-192.9V-346h153.1h153.1v153.1v153.1h-153.1h-153.1V-192.9z"/><path d="M4541.7-192.9V-346h153.1h153.1v153.1v153.1h-153.1h-153.1V-192.9z"/><path d="M5154.1-192.9V-346h153.1h153.1v153.1v153.1h-153.1h-153.1V-192.9z"/><path d="M5766.4-192.9V-346h153.1h153.1v153.1v153.1h-153.1h-153.1V-192.9z"/><path d="M1479.8-805.2v-153.1h153.1H1786v153.1v153.1h-153.1h-153.1V-805.2z"/><path d="M2092.1-805.2v-153.1h153.1h153.1v153.1v153.1h-153.1h-153.1V-805.2z"/><path d="M2704.5-805.2v-153.1h153.1h153.1v153.1v153.1h-153.1h-153.1V-805.2z"/><path d="M3316.9-805.2v-153.1H3470h153.1v153.1v153.1H3470h-153.1V-805.2z"/><path d="M3929.3-805.2v-153.1h153.1h153.1v153.1v153.1h-153.1h-153.1V-805.2z"/><path d="M4541.7-805.2v-153.1h153.1h153.1v153.1v153.1h-153.1h-153.1V-805.2z"/><path d="M5154.1-805.2v-153.1h153.1h153.1v153.1v153.1h-153.1h-153.1V-805.2z"/><path d="M5766.4-805.2v-153.1h153.1h153.1v153.1v153.1h-153.1h-153.1V-805.2z"/><path d="M1479.8-1417.6v-153.1h153.1H1786v153.1v153.1h-153.1h-153.1V-1417.6z"/><path d="M2092.1-1417.6v-153.1h153.1h153.1v153.1v153.1h-153.1h-153.1V-1417.6z"/><path d="M2704.5-1417.6v-153.1h153.1h153.1v153.1v153.1h-153.1h-153.1V-1417.6z"/><path d="M3316.9-1417.6v-153.1H3470h153.1v153.1v153.1H3470h-153.1V-1417.6z"/><path d="M3929.3-1417.6v-153.1h153.1h153.1v153.1v153.1h-153.1h-153.1V-1417.6z"/><path d="M4541.7-1417.6v-153.1h153.1h153.1v153.1v153.1h-153.1h-153.1V-1417.6z"/><path d="M5154.1-1417.6v-153.1h153.1h153.1v153.1v153.1h-153.1h-153.1V-1417.6z"/><path d="M5766.4-1417.6v-153.1h153.1h153.1v153.1v153.1h-153.1h-153.1V-1417.6z"/><path d="M1479.8-2030v-153.1h153.1H1786v153.1v153.1h-153.1h-153.1V-2030z"/><path d="M2092.1-2030v-153.1h153.1h153.1v153.1v153.1h-153.1h-153.1V-2030z"/><path d="M2704.5-2030v-153.1h153.1h153.1v153.1v153.1h-153.1h-153.1V-2030z"/><path d="M3316.9-2030v-153.1H3470h153.1v153.1v153.1H3470h-153.1V-2030z"/><path d="M3929.3-2030v-153.1h153.1h153.1v153.1v153.1h-153.1h-153.1V-2030z"/><path d="M4541.7-2030v-153.1h153.1h153.1v153.1v153.1h-153.1h-153.1V-2030z"/><path d="M5154.1-2030v-153.1h153.1h153.1v153.1v153.1h-153.1h-153.1V-2030z"/><path d="M5766.4-2030v-153.1h153.1h153.1v153.1v153.1h-153.1h-153.1V-2030z"/><path d="M1479.8-2642.4v-153.1h153.1H1786v153.1v153.1h-153.1h-153.1V-2642.4z"/><path d="M2092.1-2642.4v-153.1h153.1h153.1v153.1v153.1h-153.1h-153.1V-2642.4z"/><path d="M2704.5-2642.4v-153.1h153.1h153.1v153.1v153.1h-153.1h-153.1V-2642.4z"/><path d="M3316.9-2642.4v-153.1H3470h153.1v153.1v153.1H3470h-153.1V-2642.4z"/><path d="M3929.3-2642.4v-153.1h153.1h153.1v153.1v153.1h-153.1h-153.1V-2642.4z"/><path d="M4541.7-2642.4v-153.1h153.1h153.1v153.1v153.1h-153.1h-153.1V-2642.4z"/><path d="M5154.1-2642.4v-153.1h153.1h153.1v153.1v153.1h-153.1h-153.1V-2642.4z"/><path d="M5766.4-2642.4v-153.1h153.1h153.1v153.1v153.1h-153.1h-153.1V-2642.4z"/><path d="M7840.9,1468.2c-23-9.6-51.7-40.2-63.2-65.1c-28.7-65.1-28.7-983.6,0-1046.8c38.3-86.1,78.5-89.9,744.4-89.9c421,0,644.9,7.7,675.5,21c82.3,38.3,89.9,86.1,89.9,591.3c0,505.2-7.7,553.1-89.9,591.3C9136.4,1498.8,7898.3,1496.9,7840.9,1468.2z M8981.4,878.8V572.6h-459.3h-459.3v306.2V1185h459.3h459.3V878.8z"/><path d="M7756.7-192.9V-346h306.2h306.2v153.1v153.1h-306.2h-306.2V-192.9z"/><path d="M8675.2-192.9V-346h306.2h306.2v153.1v153.1h-306.2h-306.2V-192.9z"/><path d="M7756.7-805.2v-153.1h306.2h306.2v153.1v153.1h-306.2h-306.2V-805.2z"/><path d="M8675.2-805.2v-153.1h306.2h306.2v153.1v153.1h-306.2h-306.2V-805.2z"/><path d="M7756.7-1417.6v-153.1h306.2h306.2v153.1v153.1h-306.2h-306.2V-1417.6z"/><path d="M8675.2-1417.6v-153.1h306.2h306.2v153.1v153.1h-306.2h-306.2V-1417.6z"/><path d="M8361.4-2202.2c-220.1-55.5-430.6-233.5-533.9-455.4c-53.6-112.9-61.2-147.4-61.2-290.9s7.7-178,61.2-290.9c84.2-179.9,208.6-306.2,386.6-394.2c132-65.1,156.9-70.8,308.1-70.8c151.2,0,176.1,5.7,308.1,70.8c178,88,302.4,214.3,386.6,394.2c53.6,112.9,61.3,147.4,61.3,290.9s-7.7,178-61.3,290.9c-126.3,267.9-377,447.8-646.8,465C8495.3-2188.8,8403.5-2192.7,8361.4-2202.2z M8369.1-2728.5v-220.1h153.1h153.1v220.1c0,120.6,3.8,220.1,9.6,220.1c34.4,0,126.3-65.1,187.5-132.1c103.3-114.8,137.8-292.8,88-470.8c-28.7-101.4-174.2-246.9-275.6-275.6c-193.3-53.6-365.5-15.3-489.9,111c-212.4,210.5-168.4,576,88,733c30.6,19.1,63.2,34.4,72.7,34.4C8363.3-2508.4,8369.1-2607.9,8369.1-2728.5z"/></g></g>
</svg>