<?xml version="1.0" encoding="utf-8"?>
<!-- Svg Vector Icons : http://www.onlinewebfonts.com/icon -->
<!DOCTYPE svg PUBLIC "-//W3C//DTD SVG 1.1//EN" "http://www.w3.org/Graphics/SVG/1.1/DTD/svg11.dtd">
<svg version="1.1" xmlns="http://www.w3.org/2000/svg" xmlns:xlink="http://www.w3.org/1999/xlink" x="0px" y="0px" viewBox="0 0 1000 1000" enable-background="new 0 0 1000 1000" xml:space="preserve">
<metadata> Svg Vector Icons : http://www.onlinewebfonts.com/icon </metadata>
<g><g transform="translate(0.000000,511.000000) scale(0.100000,-0.100000)"><path d="M4848.2,4997.1c-666.9-72.2-1256.7-358.3-1744.4-851c-343.4-348.4-647-836.1-818.7-1313.9c-57.2-161.7-64.7-166.7-248.8-194.1c-62.2-10-196.6-49.8-301.1-87.1C1070.7,2309.6,573,1662.6,381.4,784.2c-62.2-288.7-77.1-880.9-27.4-1192c136.9-871,582.3-1490.6,1216.9-1697.1l204.1-67.2l-5-119.5c-29.9-584.8-59.7-1117.3-72.2-1236.8l-12.4-141.8h3498.8c2779.6,0,3496.3,7.5,3496.3,32.3c0,14.9-67.2,1196.9-149.3,2625.3c-82.1,1425.9-149.3,2615.4-149.3,2640.3c0,32.4,47.3,62.2,171.7,112c552.4,216.5,918.2,699.3,1057.6,1398.5c22.4,107,44.8,221.5,52.2,253.8l12.4,54.8h-930.7h-930.7l-141.8,214c-169.2,251.3-502.7,609.7-731.6,781.4c-353.3,266.3-838.6,467.8-1296.5,537.5C5428,5012.1,5059.7,5019.5,4848.2,4997.1z M5823.7,4546.7c276.2-74.7,530-186.6,756.5-333.5c214-141.8,550-462.8,676.9-647l82.1-119.4h-2155h-2155l119.5,156.8c179.2,231.4,405.6,445.4,642,602.2c303.6,201.6,592.3,311.1,1057.6,395.7C5009.9,4631.3,5637,4594,5823.7,4546.7z M7682.5,2787.4c166.7-425.5,271.2-878.4,313.5-1368.7c17.4-221.5,261.3-4501.6,261.3-4608.6v-82.1H6764.3H5271.2v144.3c-2.5,564.9-104.5,2894.1-136.9,3103.1c-126.9,836.1-450.4,1420.9-878.4,1580.2c-189.1,72.2-462.9,59.7-642-24.9c-413.1-199.1-721.7-831.2-831.1-1697.1c-17.4-151.8-121.9-2705-124.4-3085.7c0-12.5-121.9-19.9-273.7-19.9c-149.3,0-273.7,5-273.7,9.9c0,253.8,286.2,4879.9,313.5,5041.6c69.7,438,206.5,920.7,335.9,1177l47.3,92.1h2386.4h2386.4L7682.5,2787.4z M9168.1,2981.5c-39.8-166.7-194.1-440.4-328.5-579.8c-134.4-141.8-482.8-355.8-520.1-318.5c-7.5,7.5-47.3,136.9-87.1,283.7c-59.7,231.4-139.3,470.3-211.5,639.5c-17.4,39.8,19.9,42.3,572.3,42.3h589.8L9168.1,2981.5z M2100.9,2210c-24.9-87.1-64.7-323.5-89.6-530c-24.9-201.6-199.1-3128-199.1-3339.5c0-97.1-2.5-99.5-67.2-82.1c-467.8,112-843.6,602.2-982.9,1281.6C694.9-131.6,709.9,495.5,792,809c107,398.2,283.7,741.5,515.1,997.9c126.9,139.4,395.7,313.5,592.2,383.2C2108.4,2264.8,2118.3,2264.8,2100.9,2210z M4186.2,1147.5c306.1-179.2,550-836.1,599.7-1620c17.4-271.3,87.1-2366.5,87.1-2617.9V-3272h-908.3h-908.3v107c2.5,415.6,104.5,2876.6,124.4,3016c99.5,689.3,321,1169.6,609.7,1326.3C3880.2,1227.1,4076.7,1212.2,4186.2,1147.5z"/><path d="M3479.5-708.9V-908h423h423v199.1v199.1h-423h-423V-708.9z"/><path d="M3496.9-1373.3c-10-7.5-17.4-97.1-17.4-199.1v-181.7h423h423v199.1v199.1H3920C3696-1355.9,3504.4-1363.4,3496.9-1373.3z"/><path d="M3496.9-2219.4c-10-7.5-17.4-97.1-17.4-199.1v-181.7h423h423v199.1v199.1H3920C3696-2202,3504.4-2209.5,3496.9-2219.4z"/><path d="M1618.1-4036l7.5-194.1l3566-7.5l3563.5-5v199.1v199.1h-3571H1610.7L1618.1-4036z"/><path d="M1140.4-4590.9V-4790h4043.7h4043.8v199.1v199.1H5184.1H1140.4V-4590.9z"/></g></g>
</svg>