<?xml version="1.0" encoding="utf-8"?>
<!-- Svg Vector Icons : http://www.onlinewebfonts.com/icon -->
<!DOCTYPE svg PUBLIC "-//W3C//DTD SVG 1.1//EN" "http://www.w3.org/Graphics/SVG/1.1/DTD/svg11.dtd">
<svg version="1.1" xmlns="http://www.w3.org/2000/svg" xmlns:xlink="http://www.w3.org/1999/xlink" x="0px" y="0px" viewBox="0 0 1000 1000" enable-background="new 0 0 1000 1000" xml:space="preserve">
<metadata> Svg Vector Icons : http://www.onlinewebfonts.com/icon </metadata>
<g><g transform="translate(0.000000,511.000000) scale(0.100000,-0.100000)"><path d="M158.2,2134c-144.4-144.4-4.1-717.9,243.4-994.3c148.5-169.2,544.6-408.5,825.1-495.1c53.6-16.5,70.1-99,86.6-408.5c12.4-330.1,33-429.1,136.1-631.2c70.1-136.1,193.9-297.1,280.5-371.3L1891-890.2l800.4-12.4l800.4-16.5l107.3-206.3c375.4-742.6,1213-1043.8,1934.9-693.1c231.1,111.4,528.1,416.7,668.4,684.9l115.5,222.8h742.6c408.5,0,812.8,20.6,903.6,45.4c218.7,61.9,532.2,363.1,643.6,627.1c57.8,132,103.1,334.2,115.5,544.6l20.6,330.1l284.7,140.3c536.3,268.2,779.7,565.2,837.5,1039.7c49.5,404.3,557,367.2-4884.8,367.2C1325.8,2183.5,195.4,2171.1,158.2,2134z M9432.9,1696.7c0-144.4-474.5-610.6-763.3-750.9c-165-82.5-251.7-82.5-3601.7-82.5c-3362.5,0-3432.6,0-3655.4,86.7c-288.8,107.3-684.9,396.1-800.4,585.8c-49.5,78.4-90.8,152.7-90.8,169.2c0,12.4,2005.1,24.8,4455.8,24.8C7427.8,1729.6,9432.9,1713.2,9432.9,1696.7z M8318.9,256.8c-4.1-210.4-123.8-466.2-284.7-602.3L7898.1-457H4973c-2021.6,0-2958.1,12.4-3015.9,45.4c-107.3,57.8-185.7,251.7-222.8,565.2l-28.9,255.8h3308.8h3304.7V256.8z M5884.7-943.8c0-86.7-276.4-391.9-445.6-495.1c-165-94.9-239.3-111.4-503.3-111.4c-264,0-338.3,16.5-503.3,115.5c-169.1,99-404.3,387.8-404.3,495.1c0,16.5,416.7,28.9,928.3,28.9C5468-910.8,5884.7-927.3,5884.7-943.8z"/></g></g>
</svg>