<?xml version="1.0" encoding="utf-8"?>
<!-- Svg Vector Icons : http://www.onlinewebfonts.com/icon -->
<!DOCTYPE svg PUBLIC "-//W3C//DTD SVG 1.1//EN" "http://www.w3.org/Graphics/SVG/1.1/DTD/svg11.dtd">
<svg version="1.1" xmlns="http://www.w3.org/2000/svg" xmlns:xlink="http://www.w3.org/1999/xlink" x="0px" y="0px" viewBox="0 0 1000 1000" enable-background="new 0 0 1000 1000" xml:space="preserve">
<metadata> Svg Vector Icons : http://www.onlinewebfonts.com/icon </metadata>
<g><g transform="translate(0.000000,511.000000) scale(0.100000,-0.100000)"><path d="M4863.8,4947.5l-62.5-60v-1115v-1115l62.5-60c37.5-40,90-62.5,137.5-62.5c47.5,0,100,22.5,137.5,62.5l62.5,60v1115v1115l-62.5,60c-37.5,40-90,62.5-137.5,62.5C4953.8,5010,4901.3,4987.5,4863.8,4947.5z"/><path d="M2938.8,4655c-70-40-110-97.5-112.5-162.5c0-57.5,685-1772.5,732.5-1830c47.5-57.5,135-77.5,217.5-50c85,30,125,87.5,125,180c0,50-567.5,1495-690,1757.5c-35,72.5-125,135-192.5,135C3001.3,4685,2966.3,4670,2938.8,4655z"/><path d="M6908.8,4660c-30-12.5-70-47.5-92.5-80c-55-90-715-1737.5-715-1790c0-27.5,22.5-77.5,52.5-115c65-82.5,215-92.5,282.5-17.5c55,60,740,1745,740,1820c0,87.5-27.5,132.5-102.5,170C6993.8,4690,6986.3,4690,6908.8,4660z"/><path d="M1416.3,4057.5c-127.5-100-102.5-165,300-785c200-310,390-580,417.5-600c77.5-55,162.5-45,230,25c110,107.5,90,160-300,762.5c-200,310-385,582.5-415,607.5C1578.8,4125,1498.8,4122.5,1416.3,4057.5z"/><path d="M8333.8,4055c-30-32.5-212.5-305-410-607.5c-387.5-600-407.5-650-287.5-755c80-67.5,165-75,237.5-12.5c30,22.5,215,295,415,605c397.5,615,420,675,297.5,772.5C8498.8,4125,8398.8,4125,8333.8,4055z"/><path d="M2291.3,1780c7.5-17.5,285-437.5,612.5-932.5L3501.3-55v-2180c0-1907.5,5-2192.5,37.5-2272.5c52.5-125,105-180,225-235c92.5-42.5,187.5-47.5,1237.5-47.5c1050,0,1145,5,1237.5,47.5c120,55,172.5,110,225,235c32.5,80,37.5,365,37.5,2272.5V-55l597.5,900c327.5,497.5,602.5,917.5,612.5,935c15,22.5-535,30-2710,30S2276.3,1802.5,2291.3,1780z M6976.3,1397.5c0-7.5-175-277.5-392.5-600l-390-587.5H4996.3h-1195l-387.5,582.5c-212.5,322.5-387.5,592.5-387.5,600c0,10,890,17.5,1975,17.5C6088.8,1410,6976.3,1405,6976.3,1397.5z M6096.3-2282.5l-7.5-2095H5001.3H3913.8l-7.5,2095l-5,2092.5h1100h1100L6096.3-2282.5z"/></g></g>
</svg>