<?xml version="1.0" encoding="utf-8"?>
<!-- Svg Vector Icons : http://www.onlinewebfonts.com/icon -->
<!DOCTYPE svg PUBLIC "-//W3C//DTD SVG 1.1//EN" "http://www.w3.org/Graphics/SVG/1.1/DTD/svg11.dtd">
<svg version="1.1" xmlns="http://www.w3.org/2000/svg" xmlns:xlink="http://www.w3.org/1999/xlink" x="0px" y="0px" viewBox="0 0 1000 1000" enable-background="new 0 0 1000 1000" xml:space="preserve">
<metadata> Svg Vector Icons : http://www.onlinewebfonts.com/icon </metadata>
<g><g transform="translate(0.000000,511.000000) scale(0.100000,-0.100000)"><path d="M3604.2,4977.9c-239.6-77.5-471.9-237.2-590.5-409c-65.4-96.8-1580.4-2913.9-1611.9-2998.6c-12.1-26.6,4.8-62.9,46-104.1l60.5-60.5h1490.8h1488.4v-2466.2v-2463.8l-150.1-16.9c-459.8-46-883.4-220.2-1123-459.8c-174.2-176.7-251.7-348.5-271.1-612.3l-12.1-176.7h1941H6811v128.3c-2.4,154.9-33.9,305-96.8,435.6c-26.6,53.3-48.4,99.2-48.4,99.2c0,2.4,150.1,2.4,334,2.4c295.3,0,346.1,7.3,457.4,58.1c244.4,108.9,423.5,382.4,501,759.9c21.8,101.7,38.7,217.8,38.7,259v72.6h302.5H8602v895.5v895.5h-895.5H6811v-895.5v-895.5h474.3h476.8L7750-3137c-38.7-503.4-343.7-781.7-851.9-781.7c-232.3,0-442.9,53.2-716.4,181.5c-128.3,60.5-326.7,133.1-442.9,162.2l-210.6,55.7v2461.3v2463.8h1411c1338.4,0,1415.8,2.4,1452.1,43.6c24.2,24.2,41.1,58.1,41.1,72.6c0,43.6-1573.1,2984.1-1660.2,3105.1c-106.5,145.2-300.1,278.3-491.3,338.8c-142.8,43.6-227.5,46-1365,43.6C4006,5009.4,3676.9,4999.7,3604.2,4977.9z M6310,4677.8c101.7-50.8,193.6-118.6,249.3-186.4c48.4-55.7,319.5-544.5,600.2-1079.4c283.1-537.3,602.6-1149.6,711.5-1357.7l200.9-382.4H4925.7H1781.8l718.8,1345.6c423.5,796.2,755.1,1389.2,808.3,1452.1c108.9,123.4,268.6,225.1,426,268.6c84.7,21.8,396.9,29,1260.9,24.2l1149.6-4.8L6310,4677.8z M5262.1-1065.3v-2471l-75,14.5c-41.1,7.3-157.3,14.5-254.1,14.5h-179.1v2456.5v2456.5H5008h254.1V-1065.3z M8359.9-2079.4v-653.4h-179.1h-176.7l-14.5,213c-9.7,116.2-24.2,234.8-31.5,266.2c-14.5,48.4-7.3,53.3,96.8,53.3c89.5,0,116.2,9.7,147.6,58.1c38.7,55.7,26.6,130.7-21.8,164.6c-14.5,9.7-229.9,19.4-481.6,19.4h-452.6l-29-60.5c-19.4-46-19.4-75,0-121c26.6-58.1,36.3-60.5,256.5-60.5c125.8,0,234.7-9.7,242-19.4c7.3-12.1,19.4-130.7,29-266.2l16.9-246.9h-343.7h-341.2v653.4v653.5h641.3h641.4V-2079.4z M5516.2-3819.5c547-113.7,951.1-365.4,1016.5-636.5l16.9-67.8H4889.4c-1263.3,0-1660.3,7.3-1660.3,29.1c0,70.2,108.9,242,220.2,346.1c285.6,266.2,878.5,411.4,1570.7,384.8C5172.5-3768.7,5397.6-3795.3,5516.2-3819.5z"/></g></g>
</svg>