<?xml version="1.0" encoding="utf-8"?>
<!-- Svg Vector Icons : http://www.onlinewebfonts.com/icon -->
<!DOCTYPE svg PUBLIC "-//W3C//DTD SVG 1.1//EN" "http://www.w3.org/Graphics/SVG/1.1/DTD/svg11.dtd">
<svg version="1.1" xmlns="http://www.w3.org/2000/svg" xmlns:xlink="http://www.w3.org/1999/xlink" x="0px" y="0px" viewBox="0 0 1000 1000" enable-background="new 0 0 1000 1000" xml:space="preserve">
<metadata> Svg Vector Icons : http://www.onlinewebfonts.com/icon </metadata>
<g><g transform="translate(0.000000,511.000000) scale(0.100000,-0.100000)"><path d="M4937.2,4993.9c-55-16.9-219.8-167-623.5-566.5l-549.5-543.2l-147.9,40.2c-196.6,55-636.2,59.2-839.1,8.5c-346.6-86.7-659.4-249.4-883.5-465c-169.1-164.9-167-173.3,221.9-564.3l327.6-329.7l-71.9-135.3c-95.1-181.8-126.8-327.6-114.1-524.2c23.2-372,226.1-676.4,558-841.2c295.9-148,615.1-148,904.6,0l147.9,76.1l234.6-232.5c312.8-306.5,338.2-308.6,562.2-29.6c150.1,190.2,295.9,481.9,359.3,716.5c63.4,234.6,65.5,691.2,4.2,913.1l-40.2,152.2l84.6,84.5c78.2,76.1,90.9,82.4,126.8,52.8c50.7-35.9,145.8-38,202.9-4.2c33.8,21.1,55,19,120.5-19c314.9-179.7,756.7-562.2,959.6-828.5c160.6-211.4,310.7-530.5,346.6-731.3c25.4-137.4,29.6-526.3,31.7-2075.6v-1908.6h-116.3c-97.2,0-126.8-8.5-169.1-52.9c-50.7-48.6-52.8-61.3-52.8-338.2v-285.3h-1638H3244.2l-50.7-52.8l-52.8-50.7v-572.8v-572.8l52.8-50.7l50.7-52.8H5677h2432.8l50.7,52.8l52.8,50.7v572.8v572.8l-52.8,50.7c-48.6,50.7-61.3,52.8-338.2,52.8H7537v285.3c0,276.9-2.1,289.6-52.9,338.2c-42.3,44.4-71.9,52.9-167,52.9h-116.2l-8.4,2014.3c-6.3,2284.8,8.4,2084-194.5,2498.3c-135.3,276.9-323.4,532.6-555.9,754.6c-167,160.6-467.1,393.1-661.6,513.6c-93,57.1-97.2,61.3-74,120.5c19,50.7,14.8,74-14.8,126.8l-38,65.5l209.2,213.5c238.8,243.1,268.4,304.4,253.6,509.4c-16.9,209.2-116.3,384.7-344.5,612.9c-234.6,236.7-405.8,329.7-621.4,340.3C5074.6,5012.9,4977.4,5006.6,4937.2,4993.9z M5256.4,4638.8c264.2-128.9,526.3-443.9,526.3-634.1c0-69.8-40.1-116.3-583.3-659.4c-657.3-659.4-602.4-570.7-515.7-853.9c59.2-192.3,65.5-530.5,12.7-727.1c-46.5-169.1-131-359.3-232.5-520l-80.3-122.6L3309.8,2195.5L2233.9,3271.3l99.3,71.9c139.5,99.3,325.5,183.9,522.1,238.8c224,61.3,602.4,50.7,818-23.3c118.4-40.2,152.2-44.4,202.9-23.2c31.7,12.7,310.7,276.9,617.2,583.4C5106.3,4731.8,5087.3,4719.1,5256.4,4638.8z M3151.2,1846.7L3593,1405l-103.6-48.6c-300.1-133.2-678.5,10.6-828.5,317c-76.1,156.4-82.4,363.5-12.7,517.8c25.4,55,48.6,99.3,52.8,99.3C2705.3,2290.6,2906,2091.9,3151.2,1846.7z M7198.8-3268.2v-169.1h-169.1h-169.1v169.1v169.1h169.1h169.1V-3268.2z M7875.1-4113.6v-338.2H5677H3478.8v338.2v338.2H5677h2198.2V-4113.6z"/></g></g>
</svg>