<?xml version="1.0" encoding="utf-8"?>
<!-- Svg Vector Icons : http://www.onlinewebfonts.com/icon -->
<!DOCTYPE svg PUBLIC "-//W3C//DTD SVG 1.1//EN" "http://www.w3.org/Graphics/SVG/1.1/DTD/svg11.dtd">
<svg version="1.1" xmlns="http://www.w3.org/2000/svg" xmlns:xlink="http://www.w3.org/1999/xlink" x="0px" y="0px" viewBox="0 0 1000 1000" enable-background="new 0 0 1000 1000" xml:space="preserve">
<metadata> Svg Vector Icons : http://www.onlinewebfonts.com/icon </metadata>
<g><g transform="translate(0.000000,511.000000) scale(0.100000,-0.100000)"><path d="M1052.3,2312.6c-361.9-61.3-681.7-275.8-829.2-559.2C-52.6,1228.7,150.4,591,677,332.4C973.8,185,581.2,198.4,4905.4,190.7c2882.1-3.8,3914.3,0,4021.6,17.2c559.2,86.2,936.5,473,970.9,993.9c26.8,429-201.1,810.1-595.6,997.7c-298.7,141.7-11.5,132.1-4305,130.2C2877.4,2327.9,1102.1,2320.2,1052.3,2312.6z M1630.7,1259.3v-766h-224.1c-379.2,0-610.9,72.8-787.1,245.1c-281.5,275.8-283.4,760.3-3.8,1039.9c172.4,172.4,398.3,243.2,781.3,245.1l233.6,1.9V1259.3z M8065.2,1259.3v-766h-3064H1937.1v766v766h3064.1h3064V1259.3z M9061,1971.7c252.8-82.4,425.1-249,497.9-480.7c97.7-308.3-3.8-633.9-254.7-817.7c-170.4-126.4-312.1-164.7-649.2-176.2l-283.4-7.7v769.8v769.8l283.4-7.7C8873.3,2013.8,8965.2,2002.3,9061,1971.7z"/><path d="M2444.6,1671c-30.6-28.7-47.9-68.9-47.9-105.3c0-36.4,17.2-76.6,47.9-105.3l46-47.9h2510.6h2510.6l46,47.9c63.2,61.3,63.2,149.4,0,210.7l-46,47.9H5001.1H2490.5L2444.6,1671z"/><path d="M3589.7-853c-486.4-486.4-561.1-566.8-561.1-616.6c0-103.4,46-143.6,158.9-143.6h99.6l561.1,561.1c308.3,310.2,559.2,576.4,559.2,593.7c0,49.8-51.7,141.7-86.2,155.1c-17.2,5.7-63.2,11.5-101.5,11.5C4152.8-291.9,4118.3-322.5,3589.7-853z"/><path d="M6140.6-339.7c-30.6-30.6-47.9-67-47.9-109.2c0-55.5,55.5-116.8,549.6-612.8l551.5-551.5h95.8c51.7,0,105.3,7.7,116.8,15.3c38.3,24.9,69,103.4,57.5,147.5c-5.7,23-268.1,294.9-584.1,601.3c-503.7,490.2-580.3,557.3-633.9,557.3C6207.6-291.9,6169.3-309.1,6140.6-339.7z"/><path d="M5049-627l-47.9-46v-672.2v-672.2l47.9-46c61.3-63.2,149.4-63.2,210.6,0l47.9,46v672.2V-673l-47.9,46c-28.7,30.6-68.9,47.9-105.3,47.9C5117.9-579.1,5077.7-596.4,5049-627z"/></g></g>
</svg>