<?xml version="1.0" encoding="utf-8"?>
<!-- Svg Vector Icons : http://www.onlinewebfonts.com/icon -->
<!DOCTYPE svg PUBLIC "-//W3C//DTD SVG 1.1//EN" "http://www.w3.org/Graphics/SVG/1.1/DTD/svg11.dtd">
<svg version="1.1" xmlns="http://www.w3.org/2000/svg" xmlns:xlink="http://www.w3.org/1999/xlink" x="0px" y="0px" viewBox="0 0 1000 1000" enable-background="new 0 0 1000 1000" xml:space="preserve">
<metadata> Svg Vector Icons : http://www.onlinewebfonts.com/icon </metadata>
<g><g transform="translate(0.000000,511.000000) scale(0.100000,-0.100000)"><path d="M4828.4,4989c-118.6-39.5-211.5-100.8-300.5-203.7c-81.1-90.9-160.2-264.9-160.2-351.9c0-49.4-2-49.4-179.9-49.4c-98.9,0-193.8-7.9-213.5-17.8c-19.8-11.9-98.9-118.6-179.9-237.3l-144.3-219.5h-215.5c-118.6,0-231.3-7.9-251.1-17.8c-39.5-21.7-397.4-553.6-397.4-591.2c0-17.8-170-23.7-729.6-23.7c-401.4,0-745.4-5.9-763.2-11.9c-49.4-19.8-92.9-122.6-79.1-187.8c21.7-94.9,75.1-116.7,290.6-116.7c122.6,0,193.8-7.9,193.8-21.7c0-9.9,138.4-1295,306.5-2853c168.1-1558,306.5-2843.1,306.5-2857c0-11.9,21.7-45.4,49.4-71.2c45.5-47.5,59.3-49.4,272.8-49.4h225.4l144.3-219.5c81.1-118.6,160.2-225.4,179.9-237.3c19.8-9.9,132.5-17.8,251.1-17.8h215.5l144.3-219.5c81.1-118.6,160.2-225.4,179.9-237.3c19.8-9.9,114.7-17.8,213.5-17.8h179.9v-474.5V-4790h158.2h158.2v474.5v474.5h316.3h316.4v-474.5V-4790H5475h158.2v474.5v474.5h179.9c98.9,0,193.7,7.9,213.5,17.8c19.8,11.9,98.9,118.6,179.9,237.3l144.3,219.5h215.5c118.6,0,231.3,7.9,251.1,17.8c19.8,11.8,98.9,118.6,179.9,237.3l144.3,219.5h225.4c213.5,0,227.4,2,272.8,49.4c27.7,25.7,49.4,59.3,49.4,73.2c0,13.8,138.4,1300.9,306.5,2860.9c168.1,1558,306.5,2841.2,306.5,2851.1c0,9.9,85,17.8,189.8,17.8c211.6,0,249.1,11.9,284.7,98.9c29.7,69.2,0,166.1-61.3,197.7c-19.8,11.9-336.1,19.8-767.1,19.8c-407.3,0-733.5,7.9-733.5,17.8c0,27.7-353.9,563.5-389.5,591.2c-21.7,15.8-108.8,23.7-257,23.7h-223.4L6204.5,4123c-77.1,116.7-154.2,223.4-172,237.3c-19.8,13.8-98.8,23.7-213.5,23.7h-181.9l-13.8,75.1c-37.6,205.6-189.8,409.3-375.7,496.3C5127,5012.7,4943.1,5026.6,4828.4,4989z M5160.6,4658.8c57.3-27.7,90.9-63.3,118.6-122.6c69.2-156.2,79.1-152.2-280.8-152.2h-320.3l11.9,73.2C4723.6,4660.8,4958.9,4763.6,5160.6,4658.8z M5917.8,3988.6l51.4-79.1h-968.8h-968.8l51.4,79.1l53.4,79.1h864h864L5917.8,3988.6z M6756.2,3440.9l102.8-154.2l-929.3-5.9c-512.1-2-1346.5-2-1858.5,0l-929.3,5.9l102.8,154.2l100.8,152.2h1654.9h1654.9L6756.2,3440.9z M7985.9,2952.5c0-4-132.5-1241.7-296.6-2750.2c-162.1-1508.6-296.6-2750.2-296.6-2760.1c0-9.9-986.6-17.8-2392.4-17.8c-1314.8,0-2392.3,5.9-2392.3,15.8c0,7.9-132.5,1249.6-296.6,2760.1C2149.4,1710.9,2015,2948.6,2015,2952.5c0,4,1344.5,7.9,2985.5,7.9C6643.4,2960.4,7985.9,2956.5,7985.9,2952.5z M6708.7-2971l-53.4-79.1H5000.4H3345.6l-53.4,79.1l-51.4,79.1h1759.7h1759.7L6708.7-2971z M5917.8-3445.5l-53.4-79.1h-864h-864l-53.4,79.1l-51.4,79.1h968.8h968.8L5917.8-3445.5z"/><path d="M3820.1,2458.3c-172-41.5-355.9-146.3-500.2-282.7c-156.2-146.3-241.2-270.9-314.4-456.7l-51.4-132.5l-5.9-1795.2l-5.9-1793.3l49.4-49.4l49.4-49.4h1959.4h1959.4l49.4,49.4l49.4,49.4L7052.7-199l-5.9,1805.1l-53.4,132.5c-69.2,172-185.8,342-310.4,454.7c-193.8,174-488.3,292.6-733.5,292.6c-308.4,0-660.4-185.8-858.1-454.7l-87-118.6l-41.5,67.2c-23.7,37.6-104.8,124.6-179.9,195.7C4510.1,2434.5,4154.2,2539.3,3820.1,2458.3z M4353.9,2110.3c270.9-102.8,486.4-419.2,488.4-717.7c0-94.9,71.2-172,158.2-172c83,0,158.2,77.1,158.2,162.1c0,100.8,55.4,292.6,112.7,389.5c85,144.3,181.9,235.3,330.2,308.4c462.7,229.4,1004.4-17.8,1119.1-508.1c11.9-53.4,19.8-713.7,19.8-1720.1v-1637.1H5000.4H3258.6l5.9,1676.6l5.9,1674.6l45.5,112.7c49.4,124.6,201.7,304.5,312.4,373.7C3828,2175.5,4120.6,2199.2,4353.9,2110.3z"/></g></g>
</svg>