<?xml version="1.0" encoding="utf-8"?>
<!-- Svg Vector Icons : http://www.onlinewebfonts.com/icon -->
<!DOCTYPE svg PUBLIC "-//W3C//DTD SVG 1.1//EN" "http://www.w3.org/Graphics/SVG/1.1/DTD/svg11.dtd">
<svg version="1.1" xmlns="http://www.w3.org/2000/svg" xmlns:xlink="http://www.w3.org/1999/xlink" x="0px" y="0px" viewBox="0 0 1000 1000" enable-background="new 0 0 1000 1000" xml:space="preserve">
<metadata> Svg Vector Icons : http://www.onlinewebfonts.com/icon </metadata>
<g><g transform="translate(0.000000,511.000000) scale(0.100000,-0.100000)"><path d="M2224,4960.5l-47.4-49.6V3461.1c0-1150.4-6.5-1447.7-25.9-1439.1c-15.1,4.3-122.8,32.3-237,60.3c-211.1,49.5-211.1,49.5-267.1,6.5c-49.5-36.6-124.9-249.9-570.9-1613.6c-282.2-866-514.9-1594.2-514.9-1617.9c0-116.3-4.3-114.2,1701.9-547.2c894-228.3,1637.3-420.1,1650.2-426.6c12.9-8.6,674.3-605.4,1471.4-1329.2c794.9-721.7,1471.4-1322.7,1501.5-1335.7c40.9-15.1,68.9-10.8,112,12.9c51.7,28,92.6,137.9,398.5,1070.7l340.4,1038.4h193.9c581.7,0,1096.5,303.8,1352.9,797.1c243.4,465.3,198.2,991-116.3,1400.3C9066-330.5,8878.6-184,8704.1-95.6c-53.9,25.9-99.1,51.7-103.4,53.9c-4.3,4.3,144.4,473.9,331.7,1042.7l340.4,1036.2l-45.2,60.3c-23.7,32.3-69,60.3-101.3,64.6c-32.3,4.3-971.6-189.6-2087.5-428.7l-2029.3-435.2l-473.9,116.3L4061.6,1533l-10.8,1708.3c-10.8,1658.8-12.9,1708.3-51.7,1738.5c-34.5,23.7-191.7,30.2-885.4,30.2h-844.5L2224,4960.5z M3749.3,2091V-526.5h-635.5h-635.5V2091v2617.4h635.5h635.5V2091z M8870,1785c-6.5-10.8-458.9-1389.5-1006-3065.5c-547.2-1676-1001.7-3054.8-1010.4-3061.2c-6.5-8.6-639.8,553.6-1404.6,1249.5L4055.2-1827.7l-1557.5,394.3C1640.2-1215.9,931.5-1032.8,925-1024.1c-10.8,10.8,874.6,2766.1,898.3,2800.6c4.3,4.3,81.9-10.8,174.5-34.5l168-40.9l10.8-1234.4c10.8-1189.2,12.9-1234.4,51.7-1264.6c34.5-23.7,193.9-30.2,898.3-30.2h857.4l32.3,47.4c30.2,43.1,34.5,176.7,34.5,1025.4c0,919.9,2.2,975.9,38.8,965.1c19.4-6.5,234.8-60.3,478.3-120.6l441.6-107.7l1885,407.2C7930.7,1612.7,8801.1,1798,8829,1798C8857,1800.1,8874.3,1793.7,8870,1785z M8637.3-442.5c577.4-331.8,659.2-1079.3,174.5-1564c-157.3-157.3-288.7-230.5-508.4-286.5c-191.7-49.5-471.8-58.2-454.6-15.1c4.3,12.9,142.2,433,305.9,930.7c336.1,1029.7,327.5,1001.7,349,1001.7C8514.5-375.7,8574.9-405.9,8637.3-442.5z"/><path d="M3016.8,206c-131.4-131.4,49.5-340.4,189.6-219.7c68.9,56,79.7,135.7,25.9,204.7C3176.2,262,3079.3,268.4,3016.8,206z"/></g></g>
</svg>