<?xml version="1.0" encoding="utf-8"?>
<!-- Svg Vector Icons : http://www.onlinewebfonts.com/icon -->
<!DOCTYPE svg PUBLIC "-//W3C//DTD SVG 1.1//EN" "http://www.w3.org/Graphics/SVG/1.1/DTD/svg11.dtd">
<svg version="1.1" xmlns="http://www.w3.org/2000/svg" xmlns:xlink="http://www.w3.org/1999/xlink" x="0px" y="0px" viewBox="0 0 1000 1000" enable-background="new 0 0 1000 1000" xml:space="preserve">
<metadata> Svg Vector Icons : http://www.onlinewebfonts.com/icon </metadata>
<g><g transform="translate(0.000000,511.000000) scale(0.100000,-0.100000)"><path d="M6336.4,3966v-442.7l-1277.9-8.4c-1531.2-11.1-1394.8,27.8-1394.8-398.1c0-194.9-11.1-295.1-33.4-311.8c-19.5-16.7-587.4-292.3-1261.2-612.5c-673.8-322.9-1347.5-645.9-1497.8-721.1C459.1,1271,258.7,1042.7,150.1,655.7C105.6,494.2,100,355,100-547c0-941,5.6-1035.7,55.7-1200c64-208.8,228.3-476.1,359.1-587.4c175.4-147.6,336.9-217.2,1659.3-715.5c735-275.6,1369.8-515.1,1414.3-531.8c75.2-30.6,75.2-36.2,75.2-275.6c0-197.7,8.3-250.6,50.1-286.8c47.3-44.6,300.7-47.3,3062.5-47.3c2976.2,0,3012.4,0,3068.1,55.7s55.7,91.9,55.7,3783.6c0,2355.3-11.1,3755.7-27.8,3800.3l-27.8,72.4H8828.1H7811.9V3966v445.5h-737.8h-737.8V3966z M7505.7,3812.8v-292.3h-445.4h-445.5v292.3v292.3h445.5h445.4V3812.8z M9593.7-349.4V-3913l-2817.5,5.6l-2820.3,8.4L3947.6-341l-5.6,3555.3h2825.9h2825.8V-349.4z M3663.6-380c0-2720.1-2.8-2867.6-47.3-2853.7c-27.8,8.3-657,239.4-1397.6,515.1C809.9-2195.2,759.8-2170.2,581.6-1939.1c-169.8,222.7-183.7,309-197.7,1291.8c-5.6,531.8,2.8,957.7,19.5,1069.1c39,247.8,169.8,509.5,320.2,640.3c83.5,72.4,554,311.8,1495.1,765.6c757.3,361.9,1392,659.8,1411.5,659.8C3655.3,2490.4,3663.6,1900.2,3663.6-380z"/><path d="M5013.9,2910.8c-30.6-13.9-80.7-52.9-111.4-86.3c-55.7-61.3-55.7-105.8-61.3-3171.1c-5.6-2469.5,0-3121,27.8-3176.6l36.2-69.6l2191.1-8.4l2191.1-5.6v3271.3v3271.3l-2107.6-2.8C6019,2933.1,5044.5,2921.9,5013.9,2910.8z M6918.3,2159.1C6021.8,1903,5256.1,1683,5214.4,1671.9l-75.2-16.7v487.2v487.2l1706.7-2.8l1703.9-2.8L6918.3,2159.1z M9009.1-421.7v-2856.5l-75.2,19.5c-44.5,11.2-860.3,242.2-1818,515.1c-957.7,272.8-1793,509.5-1857,526.2l-119.7,33.4v331.3v334.1h843.6c768.4,0,860.3,5.6,1005.1,55.7c297.9,100.2,495.6,289.6,632,598.6c50.1,108.6,64.1,192.1,64.1,375.9c0,208.8-11.1,258.9-86.3,423.2c-105.8,225.5-284,406.5-503.9,515.1l-158.7,77.9l-899.3,8.3l-899.3,8.4l8.4,392.6l8.3,389.8l1879.3,551.3c1032.9,303.5,1901.5,554,1929.4,554C9006.3,2434.7,9009.1,2281.6,9009.1-421.7z M6934.9,185.2c167.1-78,303.5-203.2,384.2-353.6c47.3-86.3,61.3-161.5,61.3-320.2s-13.9-233.9-61.3-320.2c-80.7-150.4-217.1-275.6-384.2-353.6c-133.6-61.3-172.6-64-966.1-72.4l-829.7-8.3v754.5v754.5l829.7-8.4C6762.3,249.2,6801.3,246.4,6934.9,185.2z M6642.6-2910.7l1433.8-387H6609.2l-1470-2.8v389.8c0,295.1,8.4,389.8,36.2,389.8C5192.1-2523.7,5854.7-2696.3,6642.6-2910.7z"/></g></g>
</svg>