<?xml version="1.0" encoding="utf-8"?>
<!-- Svg Vector Icons : http://www.onlinewebfonts.com/icon -->
<!DOCTYPE svg PUBLIC "-//W3C//DTD SVG 1.1//EN" "http://www.w3.org/Graphics/SVG/1.1/DTD/svg11.dtd">
<svg version="1.1" xmlns="http://www.w3.org/2000/svg" xmlns:xlink="http://www.w3.org/1999/xlink" x="0px" y="0px" viewBox="0 0 1000 1000" enable-background="new 0 0 1000 1000" xml:space="preserve">
<metadata> Svg Vector Icons : http://www.onlinewebfonts.com/icon </metadata>
<g><g transform="translate(0.000000,511.000000) scale(0.100000,-0.100000)"><path d="M4515.8,4998.9c-762-68.4-1505.8-500.6-1928-1121.8c-197-287.5-309.6-542.8-392-896.7c-42.2-180.9-42.2-197-48.3-3763.6l-8-3584.6h-432.3c-329.7,0-448.3-6-500.6-28.2c-138.7-58.3-170.9-263.4-56.3-353.8c50.3-40.2,74.4-40.2,1206.3-40.2c753.9,0,1168.1,8,1194.2,20.1c44.2,26.1,98.5,122.6,98.5,180.9c0,74.4-60.3,162.8-130.7,193c-52.3,22.1-172.9,28.2-502.6,28.2h-432.2l6,3624.9l6,3622.8l42.2,148.8c110.6,373.9,247.3,619.2,496.6,880.6c442.3,464.4,1045.4,693.6,1741.1,663.5c386-18.1,687.6-114.6,1001.2-323.7c160.8-106.6,426.2-376,544.8-552.9c225.2-333.7,380-760,432.2-1202.3c12.1-102.5,12.1-106.6-42.2-116.6c-199-42.2-460.4-140.7-619.2-235.2c-239.3-140.7-542.8-442.3-681.5-675.5c-124.6-209.1-225.2-504.6-253.3-741.9c-20.1-164.9-18.1-193,12.1-259.4c64.3-134.7-12.1-128.7,1819.4-128.7c1785.3,0,1739.1-2,1805.4,104.6c36.2,58.3,32.2,299.6-8.1,474.5c-162.8,703.7-747.9,1284.7-1449.5,1441.5l-142.8,32.2l-12.1,118.6c-34.2,321.7-152.8,721.8-305.6,1029.4C6470,4556.6,5563.3,5095.4,4515.8,4998.9z M7398.8,1935c78.4-16.1,225.2-70.4,329.7-122.6c371.9-183,663.4-562.9,735.8-957l14.1-76.4H7089.2c-1578.2,0-1417.4-22.1-1357,183c106.5,359.9,378,683.6,711.7,850.4c104.5,50.3,249.3,106.6,321.7,120.6C6938.4,1971.2,7223.9,1971.2,7398.8,1935z"/><path d="M6369.5-69.4c-146.8-38.2-185-207.1-106.6-460.4c104.6-339.7,400.1-605.1,739.9-663.4c436.3-76.4,910.7,285.5,1009.2,774c30.2,144.8,16.1,225.2-54.3,297.6c-74.4,78.4-201,78.4-287.5,2c-52.3-48.3-64.3-78.4-78.4-197c-22.1-170.9-42.2-223.2-114.6-309.6c-108.6-130.7-333.8-178.9-538.8-118.6c-164.8,50.3-293.5,249.3-293.5,456.4c0,58.3-60.3,203.1-84.5,203.1c-4,0-34.2,8-66.3,16.1C6459.9-59.4,6405.6-59.4,6369.5-69.4z"/><path d="M5917.1-1466.7c-100.5-98.5-261.4-265.4-359.9-371.9c-156.8-170.9-178.9-205.1-178.9-269.4c0-56.3,16.1-88.5,68.4-140.7c76.4-76.4,154.8-88.5,249.3-40.2c62.3,32.2,647.4,641.3,685.6,713.7c66.3,120.6-50.3,283.5-203.1,283.5C6104.1-1291.8,6084-1305.9,5917.1-1466.7z"/><path d="M7845.1-1332c-70.4-56.3-102.5-156.8-74.4-233.2c22.1-56.3,615.2-679.5,693.6-725.8c132.7-80.4,311.6,26.1,311.6,185c0,90.5-48.3,152.8-386,488.5c-317.7,313.6-333.7,325.7-412.1,325.7C7927.6-1291.8,7877.3-1305.9,7845.1-1332z"/><path d="M6986.7-1768.3c-110.6-56.3-120.6-94.5-120.6-498.6c0-323.7,4-367.9,40.2-426.2c50.3-82.4,158.8-116.6,251.3-78.4c124.6,52.3,130.7,78.4,130.7,508.6v388l-54.3,60.3C7161.6-1738.1,7079.1-1722,6986.7-1768.3z"/></g></g>
</svg>