<?xml version="1.0" encoding="utf-8"?>
<!-- Svg Vector Icons : http://www.onlinewebfonts.com/icon -->
<!DOCTYPE svg PUBLIC "-//W3C//DTD SVG 1.1//EN" "http://www.w3.org/Graphics/SVG/1.1/DTD/svg11.dtd">
<svg version="1.1" xmlns="http://www.w3.org/2000/svg" xmlns:xlink="http://www.w3.org/1999/xlink" x="0px" y="0px" viewBox="0 0 1000 1000" enable-background="new 0 0 1000 1000" xml:space="preserve">
<metadata> Svg Vector Icons : http://www.onlinewebfonts.com/icon </metadata>
<g><g transform="translate(0.000000,511.000000) scale(0.100000,-0.100000)"><path d="M4752.5,4754.9l-240.9-255.1l72.9-151.9c72.9-145.8,79-188.3,28.4-188.3c-54.7,0-313.8-141.7-423.2-230.8c-200.5-162-400.9-500.1-400.9-670.2v-50.6h-234.9c-127.6,0-249-8.1-269.3-20.2c-95.2-50.6-64.8-139.7,141.7-427.2L3568,2560h95.2h95.2l232.9-874.7C4216,845,4228.1,806.5,4307.1,699.2C4459,496.7,4566.3,393.5,4625,393.5h54.7v-2014.7v-2012.7l-74.9-12.1c-601.4-97.2-978-311.8-1131.9-645.9c-52.6-115.4-105.3-407-83-463.7c12.2-32.4,133.6-34.4,1625.9-34.4h1611.7l-8.1,180.2c-8.1,157.9-18.2,200.4-83,332c-170.1,342.2-554.8,560.9-1111.6,631.7l-97.2,12.1v2010.6V389.4l56.7,10.1c42.5,8.1,97.2,62.8,208.6,204.5l147.8,194.4l238.9,874.7c131.6,481.9,238.9,878.8,238.9,882.8c0,2,36.4,4.1,79,4.1c74.9,0,89.1,10.1,251.1,198.4c241,277.4,261.2,330,164,407c-46.6,36.5-83,42.5-271.3,42.5h-216.7l-24.3,111.4c-76.9,342.2-380.7,692.5-704.6,811.9c-54.7,18.2-105.3,42.5-115.4,50.6s20.3,83,64.8,166l83,149.8l-257.1,255.1c-141.7,141.7-261.2,257.2-267.3,257.2C4997.5,5010,4884.2,4894.6,4752.5,4754.9z M5173.7,4586.8l119.5-119.5l-64.8-113.4l-64.8-113.4H5032h-129.6l-54.7,109.3l-52.6,109.3l109.3,123.5c60.7,66.8,119.5,123.5,129.6,123.5C5046.1,4706.3,5108.9,4651.6,5173.7,4586.8z M5360,4017.9c62.8-22.3,160-68.8,214.6-103.3c204.5-131.6,400.9-415.1,433.3-619.6l14.2-87.1H5015.8c-949.6,0-1006.3,2-996.2,36.4c6.1,18.2,16.2,62.8,24.3,95.2c8.1,34.4,44.5,121.5,85,198.4c129.6,251.1,423.2,471.8,694.5,518.3C4975.3,4084.7,5218.3,4066.4,5360,4017.9z M6350.1,2884l-99.2-101.2l-1293.8,4.1l-1293.9,6.1l-70.9,97.2l-70.9,95.2h1463.9h1463.9L6350.1,2884z M5975.5,2547.9c0-10.1-324-1210.8-378.6-1401.2l-30.4-107.3l-113.4,6.1l-115.4,6.1l-10.1,317.9c-10.1,344.2-20.2,374.6-149.8,469.7c-79,60.7-269.3,58.7-350.3,0c-119.5-89.1-137.7-149.8-145.8-490l-6.1-309.8l-145.8,6.1l-143.8,6.1l-38.5,141.7c-20.2,79-109.3,417.1-194.4,755.2L3995.3,2560h990.1C5530.1,2560,5975.5,2553.9,5975.5,2547.9z M5098.8,1608.3c18.2-34.4,24.3-129.6,22.3-303.7l-6.1-253.1l-105.3-6.1l-107.3-6.1v275.4c0,155.9,10.1,293.6,22.3,315.9C4955,1689.3,5064.4,1675.2,5098.8,1608.3z M5469.3,826.8c0-6.1-34.4-56.7-74.9-111.4l-76.9-97.2l-346.3-2H4623l-68.9,87.1c-38.5,46.6-76.9,97.2-85,111.4c-12.1,18.2,93.1,24.3,492,24.3C5240.5,838.9,5469.3,832.9,5469.3,826.8z M5125.1-1611.1v-2004.5h-111.4h-111.4v2004.5V393.5h111.4h111.4V-1611.1z M5418.7-3858.6c328-48.6,603.4-149.8,765.4-283.5c87.1-72.9,168.1-204.5,208.6-334.1l26.3-91.1H5011.7H3602.5l14.2,66.8c40.5,184.3,210.6,386.7,411,488c117.4,58.7,346.2,125.5,522.4,151.9C4718.1-3836.3,5250.7-3834.3,5418.7-3858.6z"/></g></g>
</svg>