<?xml version="1.0" encoding="utf-8"?>
<!-- Svg Vector Icons : http://www.onlinewebfonts.com/icon -->
<!DOCTYPE svg PUBLIC "-//W3C//DTD SVG 1.1//EN" "http://www.w3.org/Graphics/SVG/1.1/DTD/svg11.dtd">
<svg version="1.1" xmlns="http://www.w3.org/2000/svg" xmlns:xlink="http://www.w3.org/1999/xlink" x="0px" y="0px" viewBox="0 0 1000 1000" enable-background="new 0 0 1000 1000" xml:space="preserve">
<metadata> Svg Vector Icons : http://www.onlinewebfonts.com/icon </metadata>
<g><g transform="translate(0.000000,486.000000) scale(0.100000,-0.100000)"><path d="M4877.5,4449l-49.8-59.3v-426.9v-426.9l-114.9-7.7c-187.6-13.4-199.1-34.5-206.7-369.4l-5.7-275.6l-438.4-5.7c-564.7-7.7-524.5,23-532.2-398.2l-5.7-306.3l57.4-57.4c49.8-49.8,70.8-57.4,162.7-57.4h107.2v-162.7v-162.7H3660c-179.9,0-197.2-3.8-239.3-47.9c-45.9-44-47.9-57.4-47.9-275.6v-227.8L1780.3,306.6C903.5-173.9,166.6-589.3,141.7-614.1c-57.4-63.2-55.5-149.3,5.7-208.7l45.9-47.9H1765c863.3,0,1569.7-3.8,1569.7-9.6s-65.1-400.1-145.5-876.7c-141.7-849.9-143.6-869.1-135.9-1133.2c9.6-317.8,47.9-482.4,176.1-750.4c147.4-310.1,342.6-553.2,606.8-754.2c999.2-752.3,2390.9-394.3,2934.5,754.2c126.3,266.1,164.6,432.6,176.1,750.4c7.7,264.2,5.7,281.4-135.9,1135.1c-80.4,476.7-145.5,871-145.5,874.8c0,5.7,706.3,9.6,1569.7,9.6h1571.6l45.9,47.9c61.3,59.4,63.2,145.5,5.7,208.7c-24.9,24.9-761.9,440.3-1638.6,920.7l-1594.6,876.7l1.9,183.8c3.8,269.9,3.8,268-47.9,317.8c-42.1,44-59.3,47.9-239.3,47.9h-191.4v162.7v162.7h107.2c91.9,0,112.9,7.7,162.7,57.4l57.4,57.4l-5.7,306.3c-7.7,421.1,34.5,390.5-532.2,398.2l-440.3,5.7V3132c0,344.6-34.5,400.1-241.2,400.1h-84.2v432.6v432.6l-55.5,55.5C5038.3,4531.3,4944.5,4529.4,4877.5,4449z M5168.5,3040.1l5.7-158.9H5000h-172.3v149.3c0,82.3,5.7,157,13.4,164.6c7.7,7.7,82.3,9.6,168.4,7.7l153.1-5.7L5168.5,3040.1z M6144.7,2465.8l5.7-82.3H5001.9H3851.5v72.7c0,40.2,3.8,78.5,9.6,84.2c5.7,5.7,520.7,9.6,1144.7,7.7l1133.2-1.9L6144.7,2465.8z M5823.1,1895.4v-162.7H5000h-823.1v162.7v162.7H5000h823.1V1895.4z M6301.7,1330.7v-76.6H5000H3698.3v76.6v76.6H5000h1301.7V1330.7z M7758.4,187.9l1315.1-723.6l-2036.7-5.7c-1119.8-1.9-2953.7-1.9-4073.5,0l-2036.7,5.7L2241.6,186l1313.2,723.6h1443.3h1445.3L7758.4,187.9z M4192.2-970.2c-38.3-162.7,70.8-379,241.2-484.3c80.4-47.9,118.7-59.3,245-65.1l151.2-5.8l-5.7-166.5l-5.7-164.6l-143.6-9.6c-111-7.6-166.5-23-235.4-63.2c-222.1-130.2-313.9-400.1-206.7-606.8c95.7-185.7,250.8-287.1,467.1-302.4l128.3-9.6v-266.1v-268l55.5-55.5c74.6-74.7,158.9-74.7,231.6-1.9l53.6,53.6l38.3-44c55.5-61.3,120.6-70.8,245-34.5c84.2,24.9,132.1,53.6,210.6,132.1c204.8,206.7,202.9,465.2-5.7,673.8c-99.6,99.5-201,141.7-354.1,141.7h-130.2v160.8v158.9l132.1,11.5c210.6,17.2,356.1,109.1,451.8,283.3c76.6,141.6,76.6,277.6,0,415.4c-95.7,176.1-241.2,268-451.8,285.2l-132.1,11.5v149.3v151.2h580h581.9l147.4-886.3c120.6-725.5,147.4-924.6,147.4-1093c-1.9-733.2-480.5-1353.4-1198.3-1546.7c-218.2-57.4-641.3-57.4-861.4,0C3857.2-4224.4,3371-3598.4,3369.1-2871c0,153.1,30.6,379,147.4,1087.3l149.3,893.9h271.8h271.8L4192.2-970.2z M4827.7-1042.9v-153.1h-120.6c-132.1,0-172.3,23-195.3,114.8c-13.4,53.6,17.2,153.1,53.6,176.1c13.4,7.7,76.6,15.3,143.6,15.3h118.7V-1042.9z M5447.9-1577c53.6-55.5,53.6-178,0-233.5c-30.6-30.6-68.9-40.2-158.9-44l-116.8-5.8v172.3v172.3l116.8-11.5C5373.3-1534.9,5419.2-1548.3,5447.9-1577z M4827.7-2354.2v-162.7h-84.2c-132.1,0-197.2,30.6-222.1,107.2c-23,70.8-11.5,132.1,34.5,185.7c21.1,24.9,59.3,32.5,151.2,32.5h120.6V-2354.2z M5444.1-2874.9c101.5-118.7,26.8-292.9-126.3-292.9c-24.9,0-67-17.2-95.7-40.2l-49.8-38.3v201v202.9h120.6C5384.7-2842.3,5423-2850,5444.1-2874.9z"/></g></g>
</svg>