<?xml version="1.0" encoding="utf-8"?>
<!-- Svg Vector Icons : http://www.onlinewebfonts.com/icon -->
<!DOCTYPE svg PUBLIC "-//W3C//DTD SVG 1.1//EN" "http://www.w3.org/Graphics/SVG/1.1/DTD/svg11.dtd">
<svg version="1.1" xmlns="http://www.w3.org/2000/svg" xmlns:xlink="http://www.w3.org/1999/xlink" x="0px" y="0px" viewBox="0 0 1000 1000" enable-background="new 0 0 1000 1000" xml:space="preserve">
<metadata> Svg Vector Icons : http://www.onlinewebfonts.com/icon </metadata>
<g><g transform="translate(0.000000,511.000000) scale(0.100000,-0.100000)"><path d="M3850.9,4949.7c-214.3-113.8-200.9-82.6-743.4-1727.8c-424.1-1292.5-493.3-1524.7-495.6-1643c0-104.9,11.2-151.8,46.9-198.7c64.7-89.3,145.1-142.9,245.6-165.2c46.9-11.2,495.6-22.3,997.9-22.3h908.6v-2801.6v-2801.6h-480h-480v-189.8V-4790h1138.5h1138.5v189.7v189.8h-468.8h-468.8v2801.6v2799.4l955.4,6.7c944.3,6.7,953.2,6.7,1049.2,58c51.3,29,113.9,82.6,138.4,122.8c102.7,165.2,111.6,127.2-433.1,1788.1c-276.8,846.1-526.8,1571.6-553.6,1614c-62.5,89.3-183.1,178.6-288,207.6c-44.6,13.4-493.4,22.3-1082.7,22.3h-1009L3850.9,4949.7z M6014,4599.2c13.4-15.6,245.6-698.7,513.4-1518l486.6-1486.7H4996c-1864,0-2020.3,2.2-2006.9,35.7c8.9,20.1,225.5,687.6,484.4,1480s480,1460,493.3,1482.3c17.9,35.7,89.3,37.9,1020.2,37.9C5808.6,4630.5,5993.9,4626,6014,4599.2z"/></g></g>
</svg>