<?xml version="1.0" encoding="utf-8"?>
<!-- Svg Vector Icons : http://www.onlinewebfonts.com/icon -->
<!DOCTYPE svg PUBLIC "-//W3C//DTD SVG 1.1//EN" "http://www.w3.org/Graphics/SVG/1.1/DTD/svg11.dtd">
<svg version="1.1" xmlns="http://www.w3.org/2000/svg" xmlns:xlink="http://www.w3.org/1999/xlink" x="0px" y="0px" viewBox="0 0 1000 1000" enable-background="new 0 0 1000 1000" xml:space="preserve">
<metadata> Svg Vector Icons : http://www.onlinewebfonts.com/icon </metadata>
<g><g transform="translate(0.000000,511.000000) scale(0.100000,-0.100000)"><path d="M2254.2,4735.2c-126.5-49.7-162.6-232.6-65.5-327.4l54.2-56.5h2752.6h2752.6l61,58.7c76.8,79,79,187.4,4.5,273.2l-54.2,63.2l-2730,4.5C3521,4753.3,2279,4746.5,2254.2,4735.2z"/><path d="M3679,3985.5c-121.9-70-137.7-210-36.1-313.9l65.5-65.5h544.2h544.2V1890V173.9h-180.6c-164.8,0-187.4-6.8-237.1-56.5c-79-76.8-76.8-210,2.3-284.5l58.7-54.2h560h560l58.7,54.2c79,74.5,81.3,207.7,2.2,284.5c-49.7,49.7-72.3,56.5-237.1,56.5h-180.6V1890v1716.1h544.2h544.2l65.5,65.5c88.1,90.3,88.1,185.2,0,275.5l-65.5,65.5H5006.8C4085.5,4010.4,3710.6,4003.6,3679,3985.5z"/><path d="M698.4,666.2C648.7,621,605.8,483.3,371-395.1c-149-555.5-271-1036.5-271-1068.1c0-31.6,24.8-83.5,56.5-112.9l54.2-56.4h1300.6h1300.6l54.2,56.4c33.9,31.6,56.5,81.3,56.5,117.4c0,33.9-121.9,514.8-268.7,1068.1c-237.1,885.2-275.5,1009.3-329.7,1054.5c-58.7,51.9-61,51.9-812.9,51.9C761.6,715.8,757.1,715.8,698.4,666.2z M2238.4-401.9c103.9-383.9,194.2-733.9,203.2-772.3l13.5-74.5h-941.6c-643.5,0-939.4,6.8-939.4,24.8c0,24.8,347.7,1334.5,386.1,1461l24.8,72.3l532.9-4.5l532.9-6.8L2238.4-401.9z"/><path d="M7680.3,670.7c-31.6-24.8-67.8-79-81.3-119.7c-79-248.4-521.6-1946.4-521.6-2002.9c0-42.9,20.3-90.3,56.4-124.2l54.2-56.4h1300.6h1300.6l54.2,56.4c31.6,29.4,56.5,79,56.5,108.4c0,29.3-121.9,510.3-271,1068.1C9394.2,472,9349,621,9299.4,666.2c-56.5,49.7-61,49.7-808.4,49.7C7770.6,715.8,7736.8,713.6,7680.3,670.7z M9028.4,271c36.1-119.7,397.4-1481.3,397.4-1499.3c0-11.3-379.4-20.3-937.1-20.3c-828.7,0-937.1,4.5-937.1,33.9c0,38.4,381.6,1479,399.7,1508.4c4.5,9,246.1,15.8,537.4,15.8C8971.9,309.4,9017.1,307.1,9028.4,271z"/><path d="M4286.4-523.8c-124.2-51.9-162.6-234.8-70-327.4c38.4-38.4,88.1-54.2,191.9-65.5c76.8-9,173.9-29.4,216.8-47.4l76.8-31.6l-74.5-201c-99.4-261.9-140-519.4-180.6-1147.1c-18.1-284.5-45.2-589.4-56.5-677.4c-115.2-797.1-444.8-1106.4-1174.2-1104.2c-783.5,4.5-1296.1,345.5-1456.5,968.7c-18.1,72.3-33.9,160.3-33.9,194.2c0,61,0,61,194.2,67.7c178.4,9,196.4,13.6,248.4,72.3c72.3,85.8,72.3,203.2-2.3,275.5l-54.2,56.5h-589.4H933.2L879-2547c-74.5-72.3-74.5-189.7-2.3-275.5c49.7-58.7,70-63.2,246.1-70l189.7-9l15.8-144.5c65.5-634.5,496.8-1162.9,1120-1370.6c343.2-115.2,889.7-149,1219.4-76.8c352.3,79,648.1,268.7,817.4,528.4C4729-3597,4787.7-3319.3,4864.5-2197c27.1,390.6,54.2,596.1,99.4,745.2l31.6,101.6l24.8-65.5c49.7-124.2,92.6-460.6,126.5-984.5c56.4-860.3,137.7-1219.4,347.8-1542.3c257.4-392.9,677.4-584.9,1278-587.1c320.7,0,514.8,29.4,790.3,121.9c616.4,205.5,1031.9,722.6,1108.7,1379.7l15.8,126.4l189.7,9c176.1,6.8,196.5,11.3,246.1,70c74.5,85.8,72.3,194.2-4.5,273.2l-61,58.7h-584.8h-584.8l-54.2-56.5c-79-76.8-76.8-210,2.2-284.5c49.7-47.4,83.6-54.2,248.4-63.2c219-9,214.5,0,155.8-248.4c-149-625.5-672.9-977.7-1456.5-982.3c-709-2.2-1034.2,284.5-1162.9,1022.9c-18.1,106.1-47.4,422.2-67.7,702.3c-18.1,280-40.6,560-47.4,621c-24.9,214.5-97.1,510.3-158.1,645.8c-33.9,74.5-56.5,137.8-52,144.5c20.3,18.1,280,79,347.8,79c167.1,2.2,250.6,201,137.7,331.9c-49.7,56.5-67.7,63.2-187.4,61c-169.4-2.3-350-45.2-487.7-115.2L5000-684.1l-85.8,42.9C4731.3-548.7,4383.6-483.2,4286.4-523.8z"/></g></g>
</svg>